<svg width="131" height="51" viewBox="0 0 131 51" fill="none" xmlns="http://www.w3.org/2000/svg">
<path d="M56.9475 24.9003C56.9475 23.0745 57.3553 21.4437 58.1708 20.0079C59.004 18.5543 60.1298 17.4287 61.548 16.631C62.984 15.8156 64.5885 15.4079 66.3613 15.4079C68.4355 15.4079 70.2527 15.9397 71.8128 17.0033C73.3729 18.0669 74.4632 19.5381 75.0837 21.4171H70.8023C70.3768 20.5308 69.774 19.8661 68.994 19.4229C68.2316 18.9797 67.3452 18.7582 66.3347 18.7582C65.2533 18.7582 64.2871 19.0152 63.4361 19.5293C62.6029 20.0256 61.9469 20.7346 61.4683 21.6564C61.0073 22.5782 60.7768 23.6595 60.7768 24.9003C60.7768 26.1234 61.0073 27.2047 61.4683 28.1442C61.9469 29.0659 62.6029 29.7838 63.4361 30.2979C64.2871 30.7942 65.2533 31.0424 66.3347 31.0424C67.3452 31.0424 68.2316 30.8208 68.994 30.3777C69.774 29.9168 70.3768 29.2432 70.8023 28.3569H75.0837C74.4632 30.2536 73.3729 31.7337 71.8128 32.7973C70.2704 33.8431 68.4532 34.366 66.3613 34.366C64.5885 34.366 62.984 33.9672 61.548 33.1695C60.1298 32.3541 59.004 31.2285 58.1708 29.7927C57.3553 28.3569 56.9475 26.7261 56.9475 24.9003Z" fill="#2f80ed"/>
<path d="M86.4275 19.2634C88.1826 19.2634 89.6009 19.8217 90.6823 20.9385C91.7637 22.0375 92.3045 23.5797 92.3045 25.565V34.2065H88.5815V26.0702C88.5815 24.9003 88.289 24.0051 87.7039 23.3847C87.1189 22.7466 86.3211 22.4275 85.3106 22.4275C84.2824 22.4275 83.4668 22.7466 82.8641 23.3847C82.279 24.0051 81.9865 24.9003 81.9865 26.0702V34.2065H78.2636V19.4761H81.9865V21.3107C82.4829 20.6726 83.1123 20.1763 83.8746 19.8217C84.6546 19.4495 85.5056 19.2634 86.4275 19.2634Z" fill="#2f80ed"/>
<path d="M100.179 22.5338V29.6598C100.179 30.1561 100.295 30.5195 100.525 30.7499C100.773 30.9626 101.181 31.069 101.748 31.069H103.477V34.2065H101.137C97.9988 34.2065 96.4298 32.6821 96.4298 29.6332V22.5338H94.6747V19.4761H96.4298V15.8334H100.179V19.4761H103.477V22.5338H100.179Z" fill="#2f80ed"/>
<path d="M109.878 21.7628C110.356 20.9828 110.977 20.3713 111.739 19.9281C112.519 19.4849 113.406 19.2634 114.398 19.2634V23.172H113.414C112.244 23.172 111.358 23.4467 110.755 23.9962C110.17 24.5458 109.878 25.503 109.878 26.8679V34.2065H106.155V19.4761H109.878V21.7628Z" fill="#2f80ed"/>
<path d="M131 19.4761L121.879 41.1729H117.916L121.108 33.8343L115.204 19.4761H119.379L123.182 29.7661L127.038 19.4761H131Z" fill="#2f80ed"/>
<ellipse cx="25.4352" cy="25.4321" rx="23.9333" ry="23.9303" fill="#2f80ed"/>
<path d="M41.5186 34.9867C39.4249 38.5204 36.2209 41.2624 32.4059 42.7855C28.591 44.3086 24.3793 44.5271 20.4272 43.4071C16.475 42.2871 13.0044 39.8914 10.5561 36.5933C8.10773 33.2953 6.81921 29.2801 6.89129 25.1735C6.96335 21.0668 8.39196 17.0993 10.9545 13.8892C13.5171 10.679 17.0696 8.40657 21.0586 7.42588C25.0476 6.44519 29.249 6.81134 33.0082 8.46729C36.7674 10.1232 39.8731 12.976 41.8416 16.581L25.5032 25.5L41.5186 34.9867Z" fill="white"/>
<ellipse cx="25.4352" cy="25.4321" rx="13.2963" ry="13.2946" fill="#2f80ed"/>
<ellipse cx="25.5682" cy="25.565" rx="6.51519" ry="6.51436" fill="white"/>
</svg>
