<svg width="16" height="16" viewBox="0 0 16 16" fill="none" xmlns="http://www.w3.org/2000/svg">
<path d="M9.50012 1.5C6.74412 1.5 4.50012 3.744 4.50012 6.5C4.50012 7.6975 4.92012 8.795 5.62512 9.6565L1.64062 13.64L2.36012 14.36L6.34412 10.3755C7.2339 11.105 8.34956 11.5025 9.50012 11.5C12.2561 11.5 14.5001 9.256 14.5001 6.5C14.5001 3.744 12.2561 1.5 9.50012 1.5ZM9.50012 2.5C11.7151 2.5 13.5001 4.285 13.5001 6.5C13.5001 8.715 11.7151 10.5 9.50012 10.5C7.28513 10.5 5.50012 8.715 5.50012 6.5C5.50012 4.285 7.28513 2.5 9.50012 2.5Z" fill="#2F80ED"/>
</svg>
