<svg width="16" height="16" viewBox="0 0 16 16" fill="none" xmlns="http://www.w3.org/2000/svg">
<path d="M12 1.65C10.825 0.925 9.475 0.5 8 0.5V1.65H12Z" fill="#ED4C5C"/>
<path d="M8 2.79999H13.4C12.975 2.37499 12.5 1.97499 12 1.64999H8V2.79999Z" fill="white"/>
<path d="M8 3.94999H14.325C14.05 3.52499 13.75 3.14999 13.425 2.79999H8V3.94999Z" fill="#ED4C5C"/>
<path d="M8 5.10001H14.925C14.75 4.70001 14.55 4.30001 14.325 3.95001H8V5.10001Z" fill="white"/>
<path d="M8 6.25001H15.3C15.2 5.85001 15.075 5.47501 14.925 5.10001H8V6.25001Z" fill="#ED4C5C"/>
<path d="M8 7.42499H15.475C15.45 7.02499 15.375 6.64999 15.3 6.27499H8V7.42499Z" fill="white"/>
<path d="M15.475 7.42499H8V7.99999H0.5C0.5 8.19999 0.5 8.37499 0.525 8.57499H15.475C15.5 8.37499 15.5 8.19999 15.5 7.99999C15.5 7.79999 15.5 7.59999 15.475 7.42499Z" fill="#ED4C5C"/>
<path d="M0.699994 9.72501H15.3C15.4 9.35001 15.45 8.97501 15.475 8.57501H0.524994C0.549994 8.95001 0.599994 9.35001 0.699994 9.72501Z" fill="white"/>
<path d="M1.07501 10.875H14.925C15.075 10.5 15.2 10.125 15.3 9.72501H0.700012C0.800012 10.125 0.925012 10.5 1.07501 10.875Z" fill="#ED4C5C"/>
<path d="M1.67501 12.025H14.325C14.55 11.65 14.75 11.275 14.925 10.875H1.07501C1.25001 11.275 1.45001 11.65 1.67501 12.025Z" fill="white"/>
<path d="M2.57499 13.175H13.425C13.75 12.825 14.075 12.425 14.325 12.025H1.67499C1.92499 12.45 2.24999 12.825 2.57499 13.175Z" fill="#ED4C5C"/>
<path d="M3.97501 14.325H12.025C12.55 14 13 13.6 13.425 13.175H2.57501C3.00001 13.625 3.47501 14 3.97501 14.325Z" fill="white"/>
<path d="M8.00001 15.5C9.475 15.5 10.85 15.075 12.025 14.325H3.97501C5.15001 15.075 6.52501 15.5 8.00001 15.5Z" fill="#ED4C5C"/>
<path d="M4 1.65C3.475 1.975 3 2.375 2.575 2.8C2.225 3.15 1.925 3.55 1.675 3.95C1.45 4.325 1.225 4.7 1.075 5.1C0.925 5.475 0.8 5.85 0.7 6.25C0.6 6.625 0.55 7 0.525 7.4C0.5 7.6 0.5 7.8 0.5 8H8V0.5C6.525 0.5 5.175 0.925 4 1.65Z" fill="#428BC1"/>
<path d="M6.25 0.75L6.375 1.125H6.75L6.45 1.375L6.55 1.75L6.25 1.525L5.95 1.75L6.05 1.375L5.75 1.125H6.125L6.25 0.75Z" fill="white"/>
<path d="M7.25 2.25L7.375 2.625H7.75L7.45 2.875L7.55 3.25L7.25 3.025L6.95 3.25L7.05 2.875L6.75 2.625H7.125L7.25 2.25Z" fill="white"/>
<path d="M5.25 2.25L5.375 2.625H5.75L5.45 2.875L5.55 3.25L5.25 3.025L4.95 3.25L5.05 2.875L4.75 2.625H5.125L5.25 2.25Z" fill="white"/>
<path d="M6.25 3.75L6.375 4.125H6.75L6.45 4.375L6.55 4.75L6.25 4.525L5.95 4.75L6.05 4.375L5.75 4.125H6.125L6.25 3.75Z" fill="white"/>
<path d="M4.25 3.75L4.375 4.125H4.75L4.45 4.375L4.55 4.75L4.25 4.525L3.95 4.75L4.05 4.375L3.75 4.125H4.125L4.25 3.75Z" fill="white"/>
<path d="M2.25 3.75L2.375 4.125H2.75L2.45 4.375L2.55 4.75L2.25 4.525L1.95 4.75L2.05 4.375L1.75 4.125H2.125L2.25 3.75Z" fill="white"/>
<path d="M7.25 5.25L7.375 5.625H7.75L7.45 5.875L7.55 6.25L7.25 6.025L6.95 6.25L7.05 5.875L6.75 5.625H7.125L7.25 5.25Z" fill="white"/>
<path d="M5.25 5.25L5.375 5.625H5.75L5.45 5.875L5.55 6.25L5.25 6.025L4.95 6.25L5.05 5.875L4.75 5.625H5.125L5.25 5.25Z" fill="white"/>
<path d="M3.25 5.25L3.375 5.625H3.75L3.45 5.875L3.55 6.25L3.25 6.025L2.95 6.25L3.05 5.875L2.75 5.625H3.125L3.25 5.25Z" fill="white"/>
<path d="M6.25 6.75L6.375 7.125H6.75L6.45 7.375L6.55 7.75L6.25 7.525L5.95 7.75L6.05 7.375L5.75 7.125H6.125L6.25 6.75Z" fill="white"/>
<path d="M4.25 6.75L4.375 7.125H4.75L4.45 7.375L4.55 7.75L4.25 7.525L3.95 7.75L4.05 7.375L3.75 7.125H4.125L4.25 6.75Z" fill="white"/>
<path d="M2.25 6.75L2.375 7.125H2.75L2.45 7.375L2.55 7.75L2.25 7.525L1.95 7.75L2.05 7.375L1.75 7.125H2.125L2.25 6.75Z" fill="white"/>
<path d="M2.94999 3.25L3.24999 3.025L3.54999 3.25L3.42499 2.875L3.72499 2.625H3.34999L3.24999 2.25L3.12499 2.625H2.77499L3.07499 2.85L2.94999 3.25Z" fill="white"/>
<path d="M0.950006 6.25L1.25001 6.025L1.55001 6.25L1.42501 5.875L1.72501 5.625H1.37501L1.25001 5.25L1.12501 5.625H0.875006C0.875006 5.65 0.850006 5.675 0.850006 5.7L1.05001 5.85L0.950006 6.25Z" fill="white"/>
</svg>
