<svg width="12" height="12" viewBox="0 0 12 12" fill="none" xmlns="http://www.w3.org/2000/svg">
<path d="M9.4845 1.45228e-05C9.40542 0.00196259 9.32679 0.0125251 9.25 0.0315146L1.125 2.17151C0.803844 2.25654 0.519632 2.44498 0.316288 2.7077C0.112944 2.97042 0.00178858 3.2928 0 3.62501V10.5C0 11.3225 0.6775 12 1.5 12H10.5C11.3225 12 12 11.3225 12 10.5V4.00001C12 3.17751 11.3225 2.50001 10.5 2.50001H3.8125L9.5 1.00001V2.00001H10.5V1.00001C10.5 0.437515 10.0215 -0.00798548 9.4845 1.45228e-05ZM1.5 3.50001H10.5C10.783 3.50001 11 3.71701 11 4.00001V10.5C11 10.783 10.783 11 10.5 11H1.5C1.217 11 1 10.783 1 10.5V4.00001C1 3.71701 1.217 3.50001 1.5 3.50001ZM9.25 6.50001C9.05109 6.50001 8.86032 6.57903 8.71967 6.71968C8.57902 6.86034 8.5 7.0511 8.5 7.25001C8.5 7.44893 8.57902 7.63969 8.71967 7.78034C8.86032 7.921 9.05109 8.00001 9.25 8.00001C9.44891 8.00001 9.63968 7.921 9.78033 7.78034C9.92098 7.63969 10 7.44893 10 7.25001C10 7.0511 9.92098 6.86034 9.78033 6.71968C9.63968 6.57903 9.44891 6.50001 9.25 6.50001Z" fill="#2f80ed"/>
</svg>
