<svg width="24" height="24" viewBox="0 0 24 24" fill="none" xmlns="http://www.w3.org/2000/svg">
<circle cx="12" cy="12" r="12" fill="#EDF0F4"/>
<path d="M7.89081 12.8368L8.30086 9.75595L4.74414 7.28686L7.99387 8.38764L8.76135 7.21011L11.5637 5.47122L17.7409 8.87445L18.061 14.067L15.309 17.8912L13.1338 18.2245L14.2587 16.1655V14.1832L13.4408 12.6351L12.6097 12.0847L11.3313 13.4026V14.7972L10.3336 15.7313L9.06615 15.8848L8.50479 16.2028L7.58382 15.9089L7.20008 14.5275L7.89081 13.5561V12.8368Z" fill="white"/>
<path d="M13.5697 7.26053C12.8921 7.12019 12.151 7.15747 12.151 7.15747C12.151 7.15747 11.9076 8.28238 10.3989 8.5784C10.4099 8.5784 12.3922 9.25598 13.5697 7.26053Z" fill="#94A6C3"/>
<path d="M14.1839 17.468C15.0018 16.8277 15.6158 15.9462 15.8986 14.9485C15.9118 14.9112 16.0258 14.8454 16.1026 14.795C16.2297 14.7183 16.3591 14.6547 16.3832 14.5516C16.4337 14.2578 16.46 13.9508 16.46 13.6438C16.46 13.5298 16.3438 13.4135 16.2297 13.2995C16.1398 13.2228 16.0499 13.1329 16.0499 13.0693C15.9228 11.9049 15.3855 10.8173 14.5281 10.0257L14.4382 10.1156C15.2693 10.8962 15.8065 11.9575 15.9228 13.0824C15.9359 13.1855 16.0368 13.2864 16.1398 13.3894C16.2297 13.4662 16.3328 13.5824 16.3328 13.6328C16.3328 13.9267 16.3065 14.2205 16.2561 14.5143C16.2429 14.5648 16.1289 14.6174 16.039 14.6678C15.9118 14.7314 15.7956 14.795 15.7714 14.8981C15.4645 15.9857 14.7606 16.933 13.8264 17.547C13.9931 17.1895 14.5172 16.0252 14.7978 15.4353L14.7474 13.5429L13.1225 11.9707L12.2016 12.0979L11.1907 13.7359C11.1907 13.7359 11.6643 14.3367 10.9977 15.0406C10.3465 15.7313 9.83335 15.8848 9.83335 15.8848L9.35971 15.6283C9.50004 15.4485 9.78292 15.1809 10 15.0011C10.3706 14.6941 10.7412 14.6678 10.7412 14.3367C10.7565 13.6438 10.0132 13.8346 10.0132 13.8346L9.74345 14.0911L9.62942 15.0384L9.06806 15.7423L9.00447 15.7291L8.0835 15.5252C8.0835 15.5252 8.64705 15.2314 8.73695 14.8981C8.82686 14.5779 8.55714 13.5166 8.54398 13.453C8.55714 13.4662 8.8137 13.6833 8.92772 14.0407C9.13165 13.4771 9.40137 12.9399 9.47812 12.8895C9.55486 12.839 10.5899 12.2886 10.5899 12.2886L10.2456 13.1965L10.5022 13.0561L11.1161 11.5475C11.1161 11.5475 11.717 11.2536 12.1643 11.2536C12.9691 11.2405 14.1597 10.2559 13.6225 8.49071C13.776 8.5543 16.4359 9.88533 16.8964 12.4948C17.2406 14.5012 16.1026 16.3804 14.1839 17.468Z" fill="#94A6C3"/>
<path d="M11.1404 7.54122C11.4342 7.19476 11.3202 6.68384 11.3202 6.68384L10.4628 7.95128C10.4496 7.95128 10.7676 7.96443 11.1404 7.54122Z" fill="#1B314F"/>
<path d="M8.26115 14.4617L8.36421 13.9508C8.36421 13.9508 7.941 14.6919 7.90372 14.795C7.86425 14.9112 7.93004 15.1151 8.0945 15.102C8.26115 15.0888 8.46508 14.8454 8.46508 14.6678C8.46508 14.4376 8.26115 14.4617 8.26115 14.4617Z" fill="#1B314F"/>
<path fill-rule="evenodd" clip-rule="evenodd" d="M15.8588 6.32641C15.8588 6.32641 16.4991 6.35273 17.1635 6.42947C15.6658 5.25194 14.2471 4.90767 13.0959 4.90767C11.5594 4.90767 10.5028 5.52141 10.3792 5.59323L10.3702 5.5984L10.8702 4.80461C10.8702 4.80461 8.87472 4.61164 8.17083 6.72331C7.99102 6.27598 7.82656 5.62252 7.82656 5.62252C7.82656 5.62252 6.78937 6.53254 7.27617 8.04118C6.08548 7.60701 4.38606 7.00399 4.32028 6.99302C4.23037 6.97987 4.20406 7.01934 4.20406 7.01934C4.20406 7.01934 4.17775 7.05661 4.2545 7.1224C4.39703 7.23423 7.08321 9.21872 7.67307 9.60245C7.54589 10.0629 7.54589 10.28 7.67307 10.4971C7.85288 10.791 7.86384 10.9444 7.83972 11.1615C7.81341 11.3786 7.58316 13.26 7.53273 13.4903C7.51226 13.5837 7.41157 13.774 7.30078 13.9834C7.13864 14.2899 6.95485 14.6372 6.96918 14.7818C6.99549 15.0252 7.32661 16.0602 7.62263 16.1765C7.83972 16.2532 8.37696 16.4199 8.73438 16.4199C8.86157 16.4199 8.97778 16.3936 9.02822 16.3431C9.24531 16.1523 9.3089 16.1129 9.46239 16.1129H9.49967C9.52871 16.1129 9.5605 16.1156 9.59503 16.1186L9.59506 16.1186H9.59507H9.59508H9.5951C9.63616 16.1222 9.6811 16.126 9.72991 16.126C9.93384 16.126 10.2036 16.0866 10.3943 15.9089C10.5261 15.7772 10.7032 15.6228 10.87 15.4774C11.0585 15.313 11.2339 15.1601 11.3153 15.0647C11.5083 14.8213 11.6091 14.4902 11.5587 14.1569C11.5192 13.8499 11.6859 13.5802 11.8789 13.3127C12.1223 12.9925 12.5696 12.418 12.5696 12.418C13.4533 13.0802 14.0037 14.0911 14.0037 15.216C14.0037 17.2115 12.2648 18.8232 10.1158 18.8232C9.78254 18.8232 9.46458 18.7859 9.14444 18.7091C10.129 19.0534 10.9601 19.1696 11.6398 19.1696C13.0849 19.1696 13.8524 18.6456 13.8524 18.6456C13.8524 18.6456 13.5849 18.992 13.1485 19.3867H13.1616C15.554 19.0534 16.7184 17.0843 16.7184 17.0843C16.7184 17.0843 16.6285 17.7246 16.5144 18.1588C19.6212 15.8228 19.1822 12.914 19.1475 12.6843L19.1458 12.6724C19.1584 12.6903 19.2391 12.7884 19.3377 12.9083L19.3377 12.9083L19.3381 12.9089L19.3383 12.9091L19.3384 12.9091C19.4446 13.0384 19.5715 13.1928 19.6567 13.2995C20.1698 8.02803 15.8588 6.32641 15.8588 6.32641ZM10.9601 14.7446C10.9192 14.7961 10.7687 14.9328 10.6314 15.0575L10.5391 15.1415C10.489 15.1873 10.4375 15.2331 10.3864 15.2785L10.3864 15.2785C10.281 15.3723 10.1774 15.4644 10.0918 15.5515C10.0413 15.6019 9.93827 15.6283 9.78477 15.6283H9.64443H9.56768H9.51725H9.40103C9.594 15.3717 10.1554 14.784 10.3483 14.6569C10.5786 14.5034 10.6948 14.3499 10.5523 14.0823C10.4119 13.8126 10.0413 13.8784 10.0413 13.8784C10.0413 13.8784 10.2584 13.7885 10.4514 13.7885C10.208 13.7249 9.90099 13.7885 9.76065 13.9288C9.65838 14.0223 9.63593 14.2755 9.61353 14.5281C9.60231 14.6546 9.5911 14.781 9.56988 14.8871C9.51272 15.1867 9.33158 15.3516 9.05351 15.6048L9.05347 15.6048C9.02216 15.6334 8.98962 15.663 8.95589 15.694C8.77608 15.8607 8.6489 15.9111 8.54584 15.9111C8.32875 15.8739 8.0722 15.8081 7.89239 15.7445C7.7652 15.5778 7.57224 15.0274 7.5218 14.7972C7.54889 14.7048 7.63732 14.5371 7.7131 14.3935C7.74161 14.3394 7.76834 14.2888 7.78932 14.2468L7.81134 14.2047C7.95144 13.9367 8.03401 13.7788 8.05904 13.6328C8.10947 13.4157 8.27613 12.0715 8.33972 11.5102C8.50637 11.7273 8.73661 12.0869 8.68399 12.3171C9.05457 11.7931 8.78705 11.2799 8.65767 11.076C8.54365 10.8721 8.39015 10.462 8.51733 10.0279C8.64452 9.59368 9.105 8.38983 9.105 8.38983C9.105 8.38983 9.2585 8.65955 9.47559 8.60692C9.69267 8.55648 11.4447 5.92074 11.4447 5.92074C11.4447 5.92074 11.9184 6.95574 11.4184 7.71226C10.9075 8.46658 10.4075 8.60692 10.4075 8.60692C10.4075 8.60692 11.1114 8.7341 11.7627 8.26046C12.0302 8.8876 12.2868 9.53886 12.2999 9.62876C12.2907 9.64964 12.2562 9.73188 12.2078 9.84682C12.048 10.2269 11.7378 10.9645 11.6991 11.0234C11.6728 11.0497 11.4952 11.1001 11.3658 11.1264C11.1487 11.19 11.0215 11.2295 10.9689 11.2668C10.879 11.3435 10.4689 12.4684 10.2782 13.0188C10.0479 13.0824 9.81766 13.2118 9.65101 13.4662C9.74092 13.4026 10.0216 13.3631 10.2277 13.339C10.4075 13.3258 10.9557 13.6197 11.0983 14.17V14.1964C11.1268 14.3981 11.0632 14.5911 10.9601 14.7446ZM9.8683 14.4423C9.8612 14.5662 9.84969 14.7673 9.75847 14.8981C9.78259 14.8718 9.9624 14.6788 10.0545 14.5911C10.0946 14.5544 10.14 14.5256 10.1834 14.4981L10.1834 14.4981C10.2773 14.4384 10.3615 14.385 10.3615 14.2709C10.3615 14.0933 10.1181 14.0538 10.015 14.0801C9.91224 14.1042 9.88797 14.27 9.87479 14.3601L9.87469 14.3608C9.87186 14.3802 9.87024 14.4083 9.8683 14.4423ZM14.8612 12.4531C14.9884 11.8018 15.0015 11.2383 14.9642 10.7778C15.462 11.4422 15.769 12.2492 15.8589 13.0802C15.872 13.1833 15.9729 13.2842 16.076 13.3872C16.1659 13.464 16.2689 13.567 16.2689 13.6306C16.2689 13.9245 16.2426 14.2183 16.1922 14.5143C16.179 14.5516 16.065 14.6174 15.9751 14.6678C15.8479 14.7314 15.7317 14.795 15.7076 14.8981C15.4269 15.8826 14.8239 16.7532 14.0191 17.3672C15.2076 16.126 15.7821 14.078 14.8612 12.4531ZM15.8085 14.9353C15.5278 15.9462 14.8875 16.8409 14.0564 17.4812C15.8216 16.637 17.0365 14.8323 17.0365 12.7601C17.0365 10.0629 14.9884 7.83725 12.3658 7.55438C12.2781 7.69472 12.1882 7.82191 12.0983 7.92497L12.0996 7.92833C12.2914 8.40445 12.789 9.63988 12.789 9.70333C12.789 9.78007 12.5456 10.405 12.5193 10.4313C12.4952 10.4445 12.2013 10.4708 12.0851 10.4708C11.9579 10.7778 11.8308 11.0716 11.8044 11.1111C11.765 11.1615 11.6509 11.201 11.4075 11.2646C11.3871 11.2705 11.365 11.2767 11.3424 11.2831C11.2219 11.3172 11.0832 11.3565 11.0611 11.3786C10.9975 11.4554 10.651 12.3632 10.4208 13.0035C10.7278 12.9509 10.9975 13.0145 11.0611 13.0408C11.561 12.0935 11.9557 11.5826 12.0588 11.5826C12.0693 11.5814 12.0914 11.5823 12.123 11.5835C12.4019 11.5941 13.425 11.6332 13.8503 10.6111C14.3039 9.5032 13.6662 8.55691 13.6217 8.49092C13.621 8.48991 13.6205 8.48911 13.6201 8.48852C13.6205 8.48873 13.6212 8.48905 13.6221 8.4895C13.6788 8.51706 14.6723 8.99981 14.9248 10.5103C15.4993 11.2405 15.8699 12.122 15.973 13.0561C15.973 13.1033 16.0298 13.165 16.085 13.2251C16.1042 13.2459 16.1232 13.2666 16.1396 13.2864C16.2536 13.4004 16.3698 13.5166 16.3698 13.6306C16.3698 13.9376 16.3435 14.2446 16.2931 14.5384C16.269 14.6415 16.1396 14.7183 16.0124 14.7818C15.9978 14.7914 15.9819 14.8016 15.9656 14.812C15.896 14.8563 15.8191 14.9052 15.8085 14.9353Z" fill="#1B314F"/>
<path d="M10.6531 10.5739C10.8965 10.2932 10.7693 9.76911 10.3198 9.67921C10.436 9.41169 10.6005 8.87445 10.6005 8.87445C10.6005 8.87445 9.29576 10.9203 9.18173 10.9598C9.06551 10.9993 8.95149 10.5497 8.95149 10.5497C8.70809 11.4839 9.36154 11.6111 9.43829 11.3172C9.79572 11.2251 10.4097 10.8414 10.6531 10.5739Z" fill="#1B314F"/>
<path d="M9.53955 11.0716L10.204 9.93356C10.204 9.93356 10.5877 10.1265 10.3947 10.4335C10.1535 10.7909 9.53955 11.0716 9.53955 11.0716Z" fill="#FFD923"/>
<path d="M17.7645 16.3431C17.5716 16.5997 17.3545 16.8672 17.1001 17.1238C18.7491 13.9508 17.1768 11.0475 17.1133 10.9335C17.2295 11.0497 17.3435 11.1769 17.4466 11.2909C18.7118 12.6965 18.8653 14.8082 17.7645 16.3431Z" fill="#D82122"/>
<path d="M19.2994 12.2623C18.7226 10.7142 17.9047 9.39632 16.1023 8.20782C14.3634 7.0566 12.4951 7.14651 12.392 7.15967C12.3789 7.15967 12.3657 7.15967 12.3657 7.15967C12.4293 7.13335 12.4929 7.1202 12.5565 7.10923C12.9534 6.98205 13.4643 6.87899 13.9774 6.8154C15.3348 6.62024 16.7031 7.08073 17.6372 8.06748C17.6504 8.08064 17.6504 8.08064 17.6635 8.0938C18.7248 9.2187 19.2752 10.6243 19.2994 12.2623Z" fill="#D82122"/>
<path d="M15.6926 5.92952C13.7871 5.57209 12.5591 5.74971 11.6754 6.08302C11.6491 5.97995 11.5592 5.77602 11.4825 5.60937C11.2171 5.92952 10.9343 6.31326 10.7566 6.55666C10.2698 6.88997 10.0659 7.21011 10.0659 7.21011C10.3466 6.24967 11.1667 5.53482 12.1644 5.35501C12.4451 5.30457 12.7521 5.27826 13.0854 5.27826C13.9669 5.29142 14.8484 5.5085 15.6926 5.92952Z" fill="#D82122"/>
<path d="M8.6449 8.38544C7.14942 8.33501 7.64718 6.59393 7.67349 6.49306C7.67349 6.50621 7.77436 7.86136 8.6449 8.38544Z" fill="#D82122"/>
<path d="M10.116 5.25194C8.96478 5.94267 9.19502 7.59165 9.19502 7.59165C8.09423 5.91855 10.0261 5.29141 10.116 5.25194Z" fill="#D82122"/>
<path d="M8.22354 8.84592C8.30028 8.90951 8.37703 9.02573 8.28713 9.19238C8.23669 9.28229 8.15994 9.26913 8.04373 9.2187C7.89023 9.14195 6.96925 8.60471 6.13818 8.05432C7.08547 8.38763 8.04373 8.74505 8.19722 8.8218C8.19722 8.8218 8.21038 8.83496 8.22354 8.84592Z" fill="white"/>
</svg>
