<svg width="24" height="24" viewBox="0 0 24 24" fill="none" xmlns="http://www.w3.org/2000/svg">
<circle cx="12" cy="12" r="12" fill="url(#paint0_linear_300_14536)"/>
<path fill-rule="evenodd" clip-rule="evenodd" d="M20.3527 11.8418C20.2148 11.8418 20.1012 11.9554 20.1012 12.0933C20.1012 12.2799 20.0971 12.4544 20.0849 12.6207C20.0484 12.9696 19.9348 13.2779 19.7807 13.4361C19.6427 13.5903 19.4034 13.6024 19.2492 13.4604C19.2479 13.4591 19.2465 13.4578 19.2451 13.4564C19.2434 13.4548 19.2416 13.4531 19.2397 13.4514C19.2296 13.4421 19.2189 13.4321 19.2127 13.4199C18.9734 13.1521 18.9004 12.5598 18.9531 12.1176C18.9653 11.9797 18.8598 11.858 18.7219 11.8499C18.592 11.8377 18.4744 11.931 18.4541 12.0609C18.4298 12.2921 18.4298 12.5233 18.4541 12.7505C18.4541 12.7708 18.4501 12.7911 18.446 12.8114C18.3365 13.6836 17.9632 13.8661 17.6711 13.8661C17.5778 13.8621 17.4845 13.8458 17.3993 13.8134L17.4156 13.7972C17.6955 13.4807 17.8659 13.0669 17.8659 12.6978C17.8659 12.4584 17.7969 12.2515 17.663 12.1014C17.5576 11.9797 17.3669 11.8377 17.0342 11.8377C16.7584 11.8377 16.5068 11.9797 16.3649 12.215C16.1417 12.5639 16.1214 13.0791 16.3121 13.501C16.3649 13.6105 16.4298 13.716 16.5109 13.8053C16.4054 13.8418 16.2959 13.8621 16.1823 13.8661C15.8294 13.8661 15.3223 13.4361 15.0302 13.1237C15.3507 12.8682 15.6346 12.572 15.8699 12.2353C15.9511 12.1217 15.9227 11.9675 15.8091 11.8864C15.6955 11.8053 15.5413 11.8337 15.4602 11.9473C15.2249 12.288 14.9288 12.5842 14.592 12.8276V12.0933C14.588 11.9554 14.4703 11.8458 14.3324 11.854C14.2026 11.858 14.0971 11.9635 14.0931 12.0933L14.089 13.5619C14.0849 13.5578 14.1133 14.2637 14.1498 14.2961H14.1539C14.1904 14.3327 14.2391 14.3529 14.2878 14.3611C14.304 14.3651 14.3243 14.3651 14.3405 14.3651C14.4784 14.3651 14.592 14.2515 14.592 14.1136V13.3753C14.8679 13.6836 15.5454 14.3651 16.1823 14.3651C16.4541 14.3651 16.7259 14.2961 16.9612 14.1623C17.1803 14.288 17.4237 14.357 17.6752 14.3651C18.1539 14.3651 18.5231 14.1014 18.7462 13.6268C18.7746 13.6714 18.807 13.712 18.8436 13.7525C19.0099 13.9473 19.2533 14.0568 19.5089 14.0568C19.5535 14.0568 19.663 14.0406 19.7117 13.9919C19.6848 14.0188 19.6651 14.0849 19.6477 14.1429L19.6477 14.1429C19.6389 14.1725 19.6307 14.1999 19.6225 14.2191L19.5129 14.4503C19.4359 14.6045 19.3507 14.7505 19.2533 14.8925C19.0626 15.1805 18.8354 15.4483 18.5799 15.6795C18.016 16.1866 17.3385 16.4706 16.6002 16.6045C16.2148 16.6734 15.8212 16.6937 15.4318 16.6694C15.0302 16.645 14.6326 16.5882 14.2391 16.503C13.444 16.3367 12.6569 16.069 11.878 15.7647C11.4277 15.5903 10.9774 15.3996 10.5271 15.2049C10.7624 14.9858 10.9937 14.7586 11.2127 14.5233C11.5251 14.1866 11.8212 13.8377 12.0931 13.4686C12.373 13.0953 12.6245 12.7018 12.8476 12.2921C13.0789 11.8702 13.2695 11.428 13.4156 10.9736C13.5697 10.4949 13.659 10 13.6833 9.49696C13.6914 9.23732 13.6793 8.97363 13.6468 8.714C13.6103 8.4503 13.5535 8.19473 13.4683 7.9432C13.306 7.44828 13.0667 6.98174 12.7543 6.56389C12.4298 6.12576 12.016 5.76065 11.5413 5.4929C11.0626 5.22515 10.5352 5.06288 9.98758 5.01825C9.8537 5.00608 9.72389 4.99797 9.59407 4.99797C9.52916 4.99797 9.46425 4.99797 9.39934 5.00203L9.30198 5.00608C9.2728 5.00608 9.24363 5.00936 9.2115 5.01297L9.20056 5.0142C8.93281 5.03448 8.66506 5.08316 8.40543 5.15619C7.89427 5.30629 7.41557 5.54564 6.98961 5.87018C6.58798 6.1785 6.23099 6.5355 5.92673 6.94118C5.77662 7.1359 5.64275 7.33874 5.51699 7.5497C5.45208 7.65517 5.39529 7.76065 5.33849 7.87018C5.31009 7.92292 5.2817 7.97972 5.2533 8.03651L5.21273 8.12576L5.19245 8.17038L5.16811 8.22718C4.98961 8.64909 5.19245 9.1359 5.61435 9.3144C6.02409 9.48479 6.49468 9.30629 6.68535 8.90466L6.70563 8.8641L6.72591 8.82353L6.75431 8.76673C6.76445 8.74645 6.7746 8.72718 6.78474 8.70791C6.79488 8.68864 6.80502 8.66937 6.81516 8.64909C6.85573 8.56795 6.90441 8.49087 6.95309 8.41379C7.05046 8.25963 7.15188 8.10548 7.26547 7.96349C7.48048 7.68357 7.72794 7.43205 8.00786 7.21704C8.2675 7.01825 8.55959 6.87221 8.87196 6.7789C9.02206 6.73428 9.18027 6.70994 9.33443 6.69777C9.34457 6.69777 9.35472 6.69675 9.36486 6.69574C9.375 6.69473 9.38514 6.69371 9.39528 6.69371L9.46019 6.68965C9.47357 6.68965 9.48739 6.68921 9.50135 6.68877C9.52975 6.68786 9.55876 6.68694 9.58595 6.68965C9.67115 6.68965 9.75228 6.69371 9.83342 6.70182C10.1458 6.72617 10.446 6.81542 10.7178 6.96552C10.9896 7.11967 11.229 7.32657 11.4156 7.57404C11.6184 7.84584 11.7726 8.14604 11.878 8.46653C11.9308 8.62069 11.9673 8.78296 11.9916 8.94523C12.016 9.11156 12.0241 9.27789 12.02 9.44422C12.0079 9.79716 11.947 10.1501 11.8415 10.4868C11.7279 10.8479 11.586 11.1927 11.4075 11.5254C11.0342 12.2191 10.5758 12.8641 10.0444 13.4483C9.7036 13.8296 9.33443 14.1866 8.94498 14.5152C8.7462 14.43 8.54336 14.3448 8.33646 14.2637C7.91455 14.0893 7.48453 13.9432 7.0464 13.8215C6.80299 13.7566 6.55959 13.712 6.30806 13.6836C6.16608 13.6714 6.02815 13.6673 5.88616 13.6714C5.72389 13.6795 5.56567 13.7079 5.40746 13.7525C5.22896 13.8053 5.05857 13.8905 4.90847 14.0041C4.75431 14.1217 4.62449 14.2637 4.52307 14.426C4.43383 14.568 4.36486 14.7262 4.31618 14.8884C4.27561 15.0304 4.24316 15.1724 4.22693 15.3225C4.2107 15.4564 4.20259 15.5862 4.19853 15.7201C4.19447 15.8661 4.20664 16.0122 4.22693 16.1582C4.25127 16.3286 4.29995 16.4909 4.36892 16.6491C4.446 16.8316 4.55959 16.998 4.70157 17.1359C4.84762 17.2779 5.018 17.3874 5.20462 17.4645C5.36689 17.5294 5.54133 17.574 5.71577 17.5903C6.0038 17.6146 6.29589 17.5984 6.57987 17.5335C7.09914 17.4239 7.54539 17.2373 7.96729 17.0264C8.38109 16.8154 8.77865 16.5761 9.15999 16.3124C9.26141 16.2434 9.36283 16.1704 9.46425 16.0933C10.1255 16.357 10.7949 16.6207 11.4845 16.856C12.3121 17.14 13.164 17.3874 14.0525 17.5335C14.5028 17.6105 14.9571 17.6511 15.4115 17.6552C15.878 17.6592 16.3405 17.6105 16.7949 17.5051C17.7239 17.2941 18.5596 16.7911 19.1843 16.073C19.4845 15.7282 19.7401 15.3469 19.9511 14.9412C20.1336 14.5882 20.2999 14.2272 20.4095 13.8337C20.5112 13.4658 20.5526 13.0639 20.5918 12.6826V12.6826L20.5961 12.641C20.6083 12.5396 20.6123 12.4341 20.6123 12.3327C20.6164 12.2515 20.6164 12.1704 20.6164 12.0852C20.6042 11.9594 20.4947 11.8458 20.3527 11.8418ZM16.949 13.5538C16.8719 13.4807 16.807 13.3955 16.7624 13.2982C16.6407 13.0345 16.6488 12.6937 16.7827 12.4909C16.8314 12.4016 16.9287 12.3448 17.0301 12.3448C17.1437 12.3448 17.2289 12.3773 17.2817 12.4341C17.3466 12.5112 17.3587 12.6207 17.3587 12.7018C17.3587 13.0588 17.1843 13.3509 16.949 13.5538ZM5.92686 16.146C6.04045 16.146 6.15405 16.1339 6.26358 16.1136C6.79096 16.0203 7.25749 15.7241 7.70374 15.4402C7.651 15.4158 7.20881 15.2657 7.08305 15.2251C6.82342 15.1359 6.55161 15.071 6.27981 15.0304L6.26756 15.0288C6.08368 15.0047 5.87085 14.9769 5.72402 15.1237C5.61449 15.2454 5.54147 15.3996 5.52118 15.5619C5.48873 15.7809 5.60232 16.146 5.92686 16.146Z" fill="white"/>
<defs>
<linearGradient id="paint0_linear_300_14536" x1="51.1996" y1="45.2797" x2="46.0194" y2="-28.055" gradientUnits="userSpaceOnUse">
<stop offset="0.3" stop-color="#17936F"/>
<stop offset="0.41" stop-color="#14A073"/>
<stop offset="0.63" stop-color="#0BC27E"/>
<stop offset="0.79" stop-color="#04E087"/>
</linearGradient>
</defs>
</svg>
