<svg width="24" height="24" viewBox="0 0 24 24" fill="none" xmlns="http://www.w3.org/2000/svg">
<circle cx="12" cy="12" r="12" fill="url(#paint0_linear_300_8327)"/>
<path d="M17.2518 16.7814L13.1941 6.97113C12.9652 6.46391 12.625 6.21649 12.1765 6.21649H11.8178C11.3693 6.21649 11.0291 6.46391 10.8003 6.97113L9.03427 11.2454H7.69819C7.29922 11.2485 6.97448 11.5701 6.97139 11.9722V11.9814C6.97448 12.3804 7.29922 12.7052 7.69819 12.7082H8.41572L6.73015 16.7814C6.69922 16.8711 6.68066 16.9639 6.68066 17.0598C6.68066 17.2887 6.7518 17.468 6.8786 17.6072C7.00541 17.7464 7.18788 17.8144 7.41675 17.8144C7.56829 17.8113 7.71365 17.7649 7.83427 17.6753C7.96417 17.5856 8.05386 17.4557 8.12499 17.3072L9.98066 12.7052H11.2673C11.6662 12.7021 11.991 12.3804 11.9941 11.9783V11.9598C11.991 11.5608 11.6662 11.2361 11.2673 11.233H10.5807L11.9972 7.70412L15.857 17.3041C15.9281 17.4526 16.0178 17.5825 16.1477 17.6722C16.2683 17.7619 16.4167 17.8082 16.5652 17.8113C16.7941 17.8113 16.9734 17.7433 17.1033 17.6041C17.2332 17.4649 17.3013 17.2856 17.3013 17.0567C17.3044 16.9639 17.2889 16.868 17.2518 16.7814Z" fill="white"/>
<defs>
<linearGradient id="paint0_linear_300_8327" x1="13.435" y1="-4.45626" x2="-4.42097" y2="10.5677" gradientUnits="userSpaceOnUse">
<stop stop-color="#B6509E"/>
<stop offset="1" stop-color="#2EBAC6"/>
</linearGradient>
</defs>
</svg>
