<svg width="24" height="24" viewBox="0 0 24 24" fill="none" xmlns="http://www.w3.org/2000/svg">
<path d="M24 12.002C24.0082 18.568 18.6867 24 12.002 24C5.31741 24 -0.0040911 18.5639 2.36002e-06 11.9938C0.00409582 5.42384 5.31741 0 12.0061 0C18.6949 0 24.0123 5.44021 24 12.002Z" fill="#FE9B00"/>
<path d="M19.2951 13.6288C19.2787 13.596 19.2918 13.5697 19.2918 13.5434C19.3477 12.9714 18.9828 12.4652 18.4306 12.3469C18.069 12.2713 17.7469 12.3732 17.4708 12.6099C17.1355 12.8958 16.8167 13.2015 16.5011 13.5105C16.1165 13.8885 15.7396 14.2731 15.3704 14.6643C15.1107 14.9404 14.8083 15.154 14.4467 15.2789C13.4277 15.6274 12.3134 15.0817 11.9256 14.135C11.8795 14.02 11.8828 13.997 11.9749 13.9181C12.1885 13.7307 12.4055 13.5467 12.6191 13.3593C12.6257 13.3527 12.6323 13.3494 12.6389 13.3429C12.6651 13.3264 12.6849 13.287 12.7177 13.3034C12.7506 13.3199 12.7309 13.356 12.7342 13.3823C12.7609 13.9066 13.1573 14.3375 13.6776 14.4079C14.2002 14.4802 14.7228 14.1613 14.8806 13.6617C15.068 13.07 14.7557 12.4817 14.1509 12.2877C13.7827 12.1694 13.4475 12.2483 13.1549 12.4915C12.915 12.6887 12.6849 12.8958 12.4515 13.1029C12.297 13.241 12.1425 13.3823 11.9847 13.5171C11.9245 13.5688 11.8839 13.6395 11.8697 13.7176C11.7448 14.352 11.3898 14.8253 10.8277 15.1376C10.4757 15.3339 10.0712 15.4155 9.67066 15.371C9.23502 15.3337 8.82323 15.1561 8.49719 14.8648C8.26666 14.6626 8.08657 14.4093 7.97126 14.1252C7.96436 14.1115 7.95886 14.0972 7.95482 14.0825C7.93095 14.0328 7.9462 13.9732 7.99098 13.9411C8.06658 13.8787 8.1389 13.8162 8.2145 13.7537C8.36899 13.619 8.52348 13.4842 8.68126 13.3527C8.70756 13.3297 8.73385 13.2903 8.76672 13.3034C8.79959 13.3166 8.78644 13.3626 8.78973 13.3955C8.80538 13.9058 9.16551 14.3404 9.66408 14.4506C10.2329 14.5718 10.7977 14.2289 10.9526 13.6683C11.1498 12.9418 10.5746 12.2253 9.82515 12.2614C9.59675 12.2682 9.37753 12.3529 9.2039 12.5014C8.99024 12.6789 8.77987 12.863 8.57279 13.047C8.35913 13.2344 8.14876 13.425 7.9351 13.6124C7.87704 13.6598 7.84426 13.7314 7.84635 13.8063V15.2329C7.84635 15.3677 7.82663 15.3874 7.69186 15.3841C7.43559 15.384 7.19203 15.2724 7.02459 15.0784C6.95885 15.0028 6.9457 15.0028 6.85695 15.0521C6.53154 15.2329 6.1864 15.3315 5.81496 15.3184C5.05237 15.2921 4.47056 14.9469 4.07612 14.2928C3.89042 13.9845 3.79477 13.6304 3.80001 13.2706C3.80036 12.7982 3.96674 12.3409 4.27006 11.9787C4.57904 11.6007 4.97348 11.3542 5.45668 11.2753C6.10093 11.1734 6.6926 11.2918 7.18894 11.7421C7.34665 11.8859 7.4838 12.0507 7.59654 12.2318C7.6127 12.2682 7.64043 12.2983 7.67543 12.3173C7.72447 12.2859 7.75323 12.2309 7.75103 12.1727C7.74774 11.8473 7.75103 11.5218 7.75103 11.1931C7.75103 10.4536 7.74993 9.71508 7.74774 8.97768C7.74774 8.83305 7.76418 8.81662 7.91209 8.81662C8.36367 8.81717 8.74284 9.15672 8.79302 9.60551C8.79958 9.65784 8.80287 9.71054 8.80288 9.76329V11.489C8.80617 11.5679 8.8226 11.5777 8.89492 11.5416C9.10623 11.4297 9.33532 11.3551 9.57205 11.3213C10.1604 11.2392 10.6864 11.3871 11.1531 11.7552C11.3093 11.8808 11.4457 12.0293 11.5574 12.1957C11.564 12.2074 11.5717 12.2184 11.5804 12.2286C11.6034 12.2614 11.6232 12.2976 11.6659 12.3042C11.6889 12.3075 11.7546 12.222 11.7579 12.1858C11.7635 12.1411 11.7657 12.0961 11.7645 12.0511V9.74028C11.7645 9.26366 12.0603 8.90537 12.5304 8.81662C12.5821 8.80449 12.6351 8.79897 12.6882 8.80018C12.7572 8.80347 12.7868 8.82977 12.8032 8.89551C12.8141 8.94735 12.8185 9.00035 12.8164 9.05329V11.4824C12.8229 11.5251 12.8361 11.5383 12.8788 11.5218C12.9347 11.4988 12.9906 11.4725 13.0464 11.4495C13.8353 11.134 14.7195 11.3246 15.2915 11.936C15.4834 12.1428 15.6331 12.3851 15.732 12.6493L15.7517 12.7085C15.7845 12.7939 15.7944 12.7972 15.8634 12.7348L16.7904 11.9163C17.0502 11.6794 17.3657 11.5121 17.7075 11.4298C18.699 11.1976 19.7109 11.728 20.084 12.6756C20.1229 12.7528 20.1039 12.8465 20.038 12.9024C19.8112 13.1259 19.5909 13.3527 19.3641 13.5795C19.3448 13.6006 19.3213 13.6174 19.2951 13.6288Z" fill="#191C31"/>
<path d="M18.4044 14.5196C18.4028 14.5449 18.3894 14.5681 18.3683 14.5821C18.1283 14.822 17.8884 15.062 17.6517 15.3052C17.6121 15.3518 17.5464 15.3665 17.4906 15.3414C16.9253 15.131 16.5254 14.7486 16.2909 14.1942C16.2547 14.112 16.2613 14.0857 16.327 14.0299C16.5604 13.8261 16.7971 13.6223 17.0305 13.4218C17.0452 13.4052 17.0647 13.3937 17.0863 13.3889C17.1093 13.4119 17.1028 13.4415 17.1061 13.4678C17.1179 13.6224 17.1568 13.7737 17.2211 13.9148C17.3756 14.2369 17.6386 14.421 17.9771 14.5032C18.0493 14.5197 18.1234 14.5263 18.1974 14.5229C18.2631 14.5163 18.3321 14.5196 18.4044 14.5196Z" fill="#191C31"/>
<path d="M6.94931 13.2969C6.96575 13.8819 6.46612 14.3914 5.85801 14.398C5.25317 14.4011 4.75953 13.9148 4.75357 13.31C4.74371 12.7118 5.21376 12.199 5.85801 12.1858C6.45297 12.1727 6.9526 12.6592 6.94931 13.2969Z" fill="#FF9C00"/>
</svg>
