<svg width="24" height="24" viewBox="0 0 24 24" fill="none" xmlns="http://www.w3.org/2000/svg">
<circle cx="12" cy="12" r="12" fill="#3EFFFF"/>
<path fill-rule="evenodd" clip-rule="evenodd" d="M5 7.94019L12.1 3.8L19.2 7.94019V16.2598L12.1 20.4L5 16.2598V7.94019ZM5.68184 15.463L8.52931 13.7992L9.97397 11.2451L5.68184 8.73775V15.463ZM11.7792 19.4168L6.02294 16.0598V16.0591L8.7613 14.4595L11.7792 16.2047V19.4168ZM18.5185 8.76114L14.2645 11.2459L15.7084 13.7977L18.5185 15.4396V8.76114ZM12.4607 4.80655L18.1967 8.15145L13.9255 10.6467L12.4607 8.05789V4.80655ZM13.6779 11.5884L12.8019 12.1L14.5396 13.1148L13.6779 11.5884ZM12.4607 9.43494L13.3388 10.9893L12.4607 11.5024V9.43494ZM9.70426 13.1133L9.70538 13.1127L9.70501 13.1133H9.70426ZM9.70538 13.1127L10.5645 11.5899L11.4382 12.1L9.70538 13.1127ZM11.7793 15.4102L9.44526 14.0611L11.7793 12.6976V15.4102ZM6.02258 8.14013L10.3125 10.6452L11.7796 8.05336V4.78316L6.02258 8.14013ZM15.4793 14.461L18.1967 16.0485L12.4607 19.3934V16.2274L15.4793 14.461ZM14.7977 14.0626L14.7971 14.0622L14.7977 14.0618V14.0626ZM14.7971 14.0622L12.4607 15.4306V12.6976L14.7971 14.0622ZM11.7794 11.5024L10.9027 10.9908L11.7794 9.43871V11.5024Z" fill="white"/>
</svg>
