<svg width="24" height="24" viewBox="0 0 24 24" fill="none" xmlns="http://www.w3.org/2000/svg">
<circle cx="12" cy="12" r="12" fill="#767DFF"/>
<path fill-rule="evenodd" clip-rule="evenodd" d="M13.7716 4.8H10.4286C10.1927 4.79988 9.97516 4.92816 9.85966 5.13546L4.6832 14.4432C4.5724 14.6427 4.5724 14.8859 4.6832 15.0854L6.33898 18.0638C6.45428 18.2714 6.67187 18.4 6.9079 18.4H17.2923C17.5281 18.3997 17.7453 18.2711 17.8605 18.0638L19.517 15.0854C19.6278 14.8859 19.6278 14.6427 19.517 14.4432L14.3405 5.13546C14.225 4.92816 14.0075 4.79988 13.7716 4.8ZM8.61234 14.7643L12.1 8.50298L15.5877 14.7643H8.61234Z" fill="white"/>
</svg>
