<svg width="24" height="24" viewBox="0 0 24 24" fill="none" xmlns="http://www.w3.org/2000/svg">
<circle cx="12" cy="12" r="12" fill="#EDF0F4"/>
<path d="M8.38607 11.939C8.35194 12.532 8.80845 13.0397 9.40149 13.0738C9.42283 13.0738 9.44416 13.0738 9.46549 13.0738C10.0628 13.0738 10.5449 12.5917 10.5406 11.9944C10.5406 11.3971 10.0585 10.915 9.46123 10.9193C8.88952 10.9193 8.41594 11.3673 8.38607 11.939Z" fill="#0033AD"/>
<path d="M4.36727 11.6617C4.17528 11.6489 4.00889 11.7982 4.00036 11.9902C3.99182 12.1822 4.13689 12.3486 4.32888 12.3571C4.52087 12.3699 4.68299 12.2206 4.69579 12.0286C4.70859 11.8366 4.55927 11.6745 4.36727 11.6617Z" fill="#0033AD"/>
<path d="M8.31806 5.68431C8.48872 5.59898 8.55698 5.38566 8.47165 5.215C8.38632 5.04434 8.173 4.97608 8.00234 5.06141C7.83168 5.14674 7.76342 5.3558 7.84875 5.52645C7.93408 5.70138 8.14313 5.77391 8.31806 5.68431C8.31806 5.68431 8.31379 5.68431 8.31806 5.68431Z" fill="#0033AD"/>
<path d="M9.41012 7.59143C9.67464 7.45917 9.78131 7.13492 9.64905 6.87039C9.51679 6.60587 9.19253 6.49921 8.92801 6.63147C8.66349 6.76373 8.55683 7.08798 8.68909 7.35251C8.82135 7.61703 9.1456 7.72369 9.41012 7.59143Z" fill="#0033AD"/>
<path d="M5.7323 8.90123C5.93709 9.0335 6.21015 8.97803 6.34668 8.77324C6.47894 8.56845 6.42347 8.2954 6.21868 8.15887C6.01389 8.02661 5.74084 8.08207 5.60431 8.28686C5.46778 8.49165 5.52751 8.76897 5.7323 8.90123Z" fill="#0033AD"/>
<path d="M6.38524 11.4697C6.08659 11.4526 5.83487 11.6787 5.8178 11.9774C5.80073 12.276 6.02686 12.5277 6.32551 12.5448C6.62416 12.5619 6.87589 12.3358 6.89295 12.0371C6.91002 11.7427 6.68389 11.4867 6.38524 11.4697Z" fill="#0033AD"/>
<path d="M5.79228 15.0834C5.57469 15.1943 5.4851 15.4588 5.59603 15.6807C5.70695 15.8983 5.97148 15.9879 6.19333 15.8769C6.41092 15.766 6.50052 15.5015 6.38959 15.2796C6.27866 15.062 6.00987 14.9724 5.79228 15.0834Z" fill="#0033AD"/>
<path d="M7.88268 10.3561C8.17706 10.5481 8.56958 10.467 8.7573 10.1726C8.9493 9.87826 8.86823 9.48574 8.57385 9.29802C8.27946 9.10603 7.88694 9.18709 7.69922 9.48148C7.50723 9.7716 7.58829 10.1641 7.88268 10.3561Z" fill="#0033AD"/>
<path d="M14.517 7.54876C14.7644 7.71088 15.1015 7.64262 15.2636 7.39516C15.4257 7.14771 15.3575 6.81066 15.11 6.64853C14.8626 6.48641 14.5255 6.55467 14.3634 6.80212C14.197 7.05385 14.2652 7.38663 14.517 7.54876Z" fill="#0033AD"/>
<path d="M15.6181 5.65018C15.7803 5.75685 15.9936 5.70991 16.1003 5.54779C16.2069 5.38566 16.16 5.17234 15.9979 5.06568C15.8357 4.95901 15.6224 5.00595 15.5157 5.16381C15.4134 5.32593 15.4603 5.54352 15.6181 5.65018Z" fill="#0033AD"/>
<path d="M14.5986 10.9107C14.0056 10.8766 13.4936 11.3331 13.4637 11.9262C13.4296 12.5192 13.8861 13.0312 14.4791 13.0611C14.5005 13.0611 14.5218 13.0611 14.5389 13.0611C15.1319 13.0611 15.614 12.5789 15.614 11.9816C15.6183 11.4142 15.1703 10.9406 14.5986 10.9107Z" fill="#0033AD"/>
<path d="M9.76413 10.2793C9.94758 10.642 10.3188 10.8724 10.7283 10.8724C11.3214 10.8724 11.8035 10.3902 11.8035 9.79294C11.8035 9.62655 11.7651 9.46015 11.6883 9.30656C11.4195 8.77325 10.771 8.55993 10.242 8.82872C9.70866 9.10177 9.49534 9.75027 9.76413 10.2793Z" fill="#0033AD"/>
<path d="M18.2079 8.90125C18.4255 8.79032 18.5109 8.52153 18.3999 8.30394C18.289 8.08635 18.0202 8.00102 17.8026 8.11195C17.585 8.22288 17.4997 8.4874 17.6064 8.70499C17.7216 8.92258 17.9861 9.01217 18.2079 8.90125Z" fill="#0033AD"/>
<path d="M15.4772 9.24256C15.1658 9.40041 15.0378 9.78013 15.1956 10.0916C15.3535 10.403 15.7332 10.531 16.0447 10.3732C16.3561 10.2153 16.4841 9.8356 16.3263 9.52414C16.1684 9.21269 15.7887 9.08896 15.4772 9.24256Z" fill="#0033AD"/>
<path d="M11.9573 5.48806C12.2005 5.50086 12.4096 5.31314 12.4266 5.06995C12.4437 4.82676 12.2517 4.6177 12.0085 4.60064C11.7653 4.58784 11.5563 4.7713 11.5392 5.01449C11.5264 5.26194 11.7141 5.471 11.9573 5.48806Z" fill="#0033AD"/>
<path d="M11.9531 8.27407C12.3029 8.29541 12.6016 8.02662 12.6186 7.67677C12.64 7.32692 12.3712 7.02826 12.0213 7.0112C11.6715 6.98986 11.3728 7.25865 11.3558 7.6085C11.3387 7.95835 11.6032 8.25701 11.9531 8.27407Z" fill="#0033AD"/>
<path d="M8.5227 14.742C8.83415 14.5842 8.96215 14.2045 8.80429 13.893C8.64643 13.5816 8.26671 13.4536 7.95526 13.6114C7.64381 13.7693 7.51581 14.149 7.67367 14.4605C7.83153 14.7719 8.21125 14.8999 8.5227 14.742Z" fill="#0033AD"/>
<path d="M12.3627 9.19989C12.0384 9.69907 12.175 10.3646 12.6741 10.6889C13.1733 11.0131 13.8389 10.8766 14.1631 10.3774C14.4874 9.87826 14.3509 9.21269 13.8517 8.88844C13.6768 8.77325 13.472 8.71352 13.2629 8.71352C12.9003 8.71352 12.5632 8.89697 12.3627 9.19989Z" fill="#0033AD"/>
<path d="M14.2357 13.7053C13.9669 13.172 13.3184 12.9587 12.7893 13.2274C12.256 13.4962 12.0427 14.1447 12.3115 14.6738C12.5803 15.2071 13.2288 15.4204 13.7578 15.1516C14.2869 14.8871 14.5045 14.2471 14.2399 13.7138C14.2399 13.7096 14.2399 13.7096 14.2357 13.7053Z" fill="#0033AD"/>
<path d="M16.1173 13.6285C15.8229 13.4365 15.4304 13.5176 15.2427 13.812C15.0507 14.1063 15.1317 14.4989 15.4261 14.6866C15.7205 14.8786 16.113 14.7975 16.3008 14.5031C16.4928 14.213 16.4117 13.8205 16.1173 13.6285Z" fill="#0033AD"/>
<path d="M18.182 12.0115C18.1991 11.7128 17.973 11.4611 17.6743 11.4441C17.3757 11.427 17.1239 11.6531 17.1069 11.9518C17.0898 12.2504 17.3159 12.5021 17.6146 12.5192C17.909 12.5363 18.1649 12.3059 18.182 12.0115Z" fill="#0033AD"/>
<path d="M19.671 11.6275C19.479 11.6147 19.3126 11.764 19.3041 11.956C19.2955 12.148 19.4406 12.3144 19.6326 12.323C19.8246 12.3358 19.9867 12.1864 19.9995 11.9944C20.008 11.8024 19.863 11.6403 19.671 11.6275Z" fill="#0033AD"/>
<path d="M18.2676 15.0834C18.0628 14.9511 17.7897 15.0066 17.6532 15.2114C17.5209 15.4162 17.5764 15.6892 17.7812 15.8257C17.986 15.958 18.259 15.9025 18.3956 15.6977C18.5321 15.4929 18.4724 15.2156 18.2676 15.0834Z" fill="#0033AD"/>
<path d="M8.37797 18.3344C8.21585 18.2278 8.00252 18.2747 7.89586 18.4325C7.7892 18.5947 7.83613 18.808 7.99399 18.9147C8.15612 19.0213 8.36944 18.9744 8.4761 18.8165C8.58703 18.6587 8.5401 18.4411 8.37797 18.3344Z" fill="#0033AD"/>
<path d="M15.682 18.3003C15.5114 18.3856 15.4431 18.5989 15.5284 18.7696C15.6138 18.9403 15.8271 19.0085 15.9977 18.9232C16.1684 18.8379 16.2367 18.6288 16.1513 18.4581C16.066 18.2832 15.857 18.2107 15.682 18.3003C15.682 18.3003 15.6863 18.3003 15.682 18.3003Z" fill="#0033AD"/>
<path d="M11.6375 14.7847C11.9618 14.2855 11.8253 13.62 11.3261 13.2914C10.8269 12.9672 10.1613 13.1037 9.83282 13.6029C9.50431 14.1021 9.6451 14.7676 10.1443 15.0962C10.3192 15.2113 10.524 15.2711 10.7331 15.2711C11.1 15.2753 11.437 15.0919 11.6375 14.7847Z" fill="#0033AD"/>
<path d="M9.48301 16.4358C9.23555 16.2737 8.8985 16.342 8.73638 16.5894C8.57425 16.8369 8.64251 17.1739 8.88997 17.3361C9.13742 17.4982 9.47448 17.4299 9.6366 17.1825C9.803 16.935 9.73473 16.598 9.48301 16.4358Z" fill="#0033AD"/>
<path d="M11.9958 18.4965C11.7526 18.4837 11.5435 18.6715 11.5264 18.9147C11.5094 19.1578 11.7014 19.3669 11.9446 19.384C12.1878 19.3968 12.3968 19.2133 12.4139 18.9701C12.4267 18.7227 12.2389 18.5136 11.9958 18.4965Z" fill="#0033AD"/>
<path d="M11.9998 15.7105C11.6499 15.6892 11.3513 15.958 11.3342 16.3078C11.3129 16.6577 11.5817 16.9563 11.9315 16.9734C12.2814 16.9905 12.58 16.726 12.5971 16.3761C12.6184 16.0305 12.3496 15.7276 11.9998 15.7105Z" fill="#0033AD"/>
<path d="M14.5901 16.3932C14.3256 16.5297 14.2189 16.854 14.3554 17.1185C14.492 17.383 14.8162 17.4897 15.0807 17.3531C15.3452 17.2209 15.4519 16.8966 15.3196 16.6321C15.1831 16.3676 14.8589 16.2566 14.5901 16.3932Z" fill="#0033AD"/>
</svg>
