<svg width="24" height="24" viewBox="0 0 24 24" fill="none" xmlns="http://www.w3.org/2000/svg">
<circle cx="12" cy="12" r="12" fill="#EDF0F4"/>
<path fill-rule="evenodd" clip-rule="evenodd" d="M14.8874 6.6983C14.7158 6.65093 14.5492 6.58715 14.3898 6.50785C14.3529 6.49557 14.2731 6.45256 14.525 6.38499C14.7486 6.32499 14.8996 6.40543 14.9994 6.45862L14.9994 6.45863C15.012 6.46535 15.0238 6.47163 15.0348 6.47714C15.1024 6.50785 15.0348 6.61229 14.9857 6.66758C14.9598 6.69302 14.9232 6.70445 14.8874 6.6983ZM12.952 6.63072C12.8967 6.63072 12.8783 6.69829 12.8783 6.69829C12.8537 6.7413 13.124 6.75358 13.1732 6.75358C13.2223 6.75358 13.2407 6.66143 13.1977 6.63072C13.1673 6.60898 13.0845 6.61801 13.0192 6.62515C12.9922 6.62809 12.9682 6.63072 12.952 6.63072ZM6.4894 10.3904C6.4894 10.3904 6.34196 10.3966 6.36653 10.2246C6.39111 10.0526 6.58769 9.84369 6.70442 9.76383C6.82114 9.68396 6.88257 9.62253 6.88257 9.49966C6.88257 9.41471 6.96774 9.3415 7.03452 9.28411C7.06433 9.25849 7.09046 9.23602 7.10373 9.21707C7.14674 9.15563 7.30646 9.07577 7.28189 9.18021C7.27241 9.22049 7.25745 9.25163 7.24264 9.28245C7.21907 9.33153 7.19588 9.37978 7.19588 9.4628C7.19588 9.59796 7.22046 9.69011 7.28803 9.54881C7.35561 9.40751 7.77336 8.75017 8.19725 8.40615C8.62114 8.06212 9.18633 7.68123 9.26005 7.66894C9.33377 7.65666 9.37677 7.7058 9.37677 7.78567C9.37677 7.83672 9.29393 7.88777 9.20848 7.94043C9.16026 7.97015 9.11121 8.00038 9.07575 8.0314C9.0667 8.03932 9.04829 8.05457 9.02204 8.07631C8.7631 8.29081 7.7417 9.13691 7.42933 9.80069C7.35886 9.8987 7.27859 9.98927 7.18974 10.071C7.13309 10.1187 7.09959 10.1765 7.06185 10.2417C7.02184 10.3108 6.97706 10.3881 6.89486 10.4703C6.80978 10.5554 6.77176 10.6422 6.74273 10.7085C6.71727 10.7667 6.69873 10.809 6.66141 10.8205C6.58155 10.8451 6.47711 10.7468 6.53855 10.5379C6.58301 10.3867 6.69505 10.2774 6.8048 10.1703L6.80481 10.1703C6.84669 10.1294 6.88824 10.0888 6.92558 10.0464C7.06073 9.89284 7.10988 9.75768 7.07302 9.75768C7.03616 9.75768 6.83957 9.80069 6.78428 9.95427C6.76793 9.99968 6.75642 10.0376 6.74656 10.07L6.74656 10.07C6.72308 10.1473 6.70901 10.1936 6.66141 10.2369C6.63298 10.2631 6.60845 10.2909 6.58669 10.3156C6.54734 10.3601 6.51709 10.3944 6.4894 10.3904ZM9.40751 7.65053C9.41247 7.61826 9.43321 7.5906 9.4628 7.57681C9.62253 7.4908 10.0218 7.39251 10.0218 7.39251C9.87818 7.47559 9.73875 7.5658 9.6041 7.66282C9.54267 7.71811 9.45666 7.75497 9.4198 7.70582C9.40996 7.68915 9.40566 7.6698 9.40751 7.65053Z" fill="black"/>
<path fill-rule="evenodd" clip-rule="evenodd" d="M11.9942 6.815C12.2707 6.75357 13.2168 6.61227 14.6912 7.1836C14.6912 7.1836 14.7403 7.22661 14.6789 7.30647C14.6567 7.35085 14.6118 7.37925 14.5622 7.38019C14.5622 7.38019 14.427 7.33104 14.1076 7.20818C13.7881 7.08531 13.2536 7.02388 13.0448 7.03002C12.9196 7.0337 12.7658 7.01092 12.5939 6.98546C12.4789 6.96842 12.3557 6.95018 12.2277 6.93787C12.1464 6.93281 12.066 6.91838 11.9881 6.89487C11.9715 6.88766 11.9614 6.87075 11.9628 6.85275C11.9641 6.83474 11.9768 6.81959 11.9942 6.815ZM6.7353 11.0969C6.81516 11.1829 6.87045 11.0969 6.87045 11.0969C6.97922 11.0165 7.12075 10.7941 7.20817 10.6568C7.23432 10.6157 7.25563 10.5822 7.26977 10.5624C7.3312 10.4764 7.68137 9.9911 7.79195 9.85595C7.8172 9.82509 7.83156 9.79679 7.849 9.76242C7.90793 9.64628 8.00203 9.46084 8.67045 8.87301C9.53666 8.11124 10.5073 7.31875 11.6991 7.27574C12.8909 7.23274 14.267 8.09281 14.267 8.09281C14.3466 8.05703 14.3823 7.96367 14.3469 7.88393C13.0015 7.04844 11.9019 6.96243 11.3674 7.06687C10.8329 7.17131 10.3292 7.44776 9.96055 7.65663C9.59797 7.86209 8.89061 8.43017 8.48169 8.75857L8.46158 8.77472C8.10473 9.07411 7.78873 9.41903 7.52165 9.80066C7.41721 9.97267 7.03018 10.587 6.89502 10.7099C6.75987 10.8327 6.65543 11.0109 6.7353 11.0969Z" fill="black"/>
<path fill-rule="evenodd" clip-rule="evenodd" d="M13.5295 6.57542C13.5126 6.58144 13.5014 6.59742 13.5014 6.61535C13.5014 6.63328 13.5126 6.64927 13.5295 6.65528C13.6334 6.70173 13.7429 6.73476 13.8551 6.75358C14.0271 6.76586 14.494 6.9133 14.7152 7.03003C14.8565 7.10375 14.9302 6.84573 14.8381 6.81501L14.7405 6.77862C14.5451 6.70546 14.2337 6.5889 14.1254 6.56313C14.0087 6.53242 13.7015 6.51399 13.5295 6.57542ZM14.5371 7.50921C14.5371 7.50921 14.5923 7.7058 14.408 7.71809C14.3173 7.72414 14.0894 7.61695 13.847 7.50292L13.847 7.50291C13.5973 7.38541 13.3321 7.26064 13.1855 7.24505C12.8968 7.21433 13.0934 7.03003 13.4681 7.13447C13.8429 7.23891 14.5371 7.50921 14.5371 7.50921ZM13.9257 8.30525C13.5232 8.0728 12.5495 7.51046 10.9802 7.72423C10.8415 7.74104 10.723 7.83259 10.6324 7.90252C10.5906 7.93483 10.5547 7.96252 10.5256 7.97611C10.3454 8.06169 10.1728 8.1624 10.0096 8.27713C9.67952 8.51333 9.37298 8.78078 9.09421 9.07576C8.81776 9.38293 8.46759 10.0218 8.38773 10.1816C8.30787 10.3413 7.99455 10.6915 7.90855 10.7836C7.82254 10.8758 7.60752 11.3427 7.46623 11.6744C7.32493 12.0061 7.14063 11.9631 7.17135 11.7113C7.20206 11.4594 7.71196 10.759 7.82868 10.6177C7.94541 10.4764 8.57817 9.56109 8.60889 9.48123C8.63961 9.40136 8.54746 9.38293 8.46759 9.48123C8.43467 9.52175 8.34746 9.65101 8.2477 9.79886C8.10548 10.0097 7.93776 10.2582 7.86554 10.3413C7.74268 10.4826 7.19592 11.3795 7.19592 11.3795C7.19592 11.3795 7.1222 11.5761 7.00548 11.5147C6.88875 11.4532 6.92561 11.2997 7.06077 11.1338C7.12112 11.0597 7.36159 10.7124 7.61583 10.3452C7.93088 9.8902 8.26707 9.40464 8.30787 9.37065C8.33431 9.34861 8.38447 9.32736 8.44615 9.30124C8.55642 9.25453 8.70351 9.19222 8.81776 9.08191C8.87992 9.0219 8.94282 8.94768 9.00803 8.87073C9.12975 8.72712 9.25952 8.57401 9.40752 8.486C9.45563 8.4574 9.52081 8.40155 9.60438 8.32992C9.91567 8.06316 10.4823 7.5776 11.3734 7.46621C12.5038 7.32491 13.7202 7.81638 14.2178 8.23413C14.2178 8.23413 14.2546 8.37542 14.1256 8.4C14.0986 8.40514 14.0321 8.36673 13.9257 8.30525Z" fill="black"/>
<path d="M8.79883 9.72083C8.79883 9.72083 9.27801 8.99591 9.78791 8.64574C10.2978 8.29557 10.5927 8.04984 10.7524 7.9884C10.9121 7.92697 11.4589 7.64438 12.6999 7.92697C13.9408 8.20957 14.0882 8.61503 14.033 8.69489C13.9777 8.77475 13.7811 8.65189 13.4985 8.4983C13.2159 8.34472 12.6814 8.10513 12.2514 8.11742C11.8214 8.1297 10.9736 8.42458 10.9183 8.47373C10.863 8.52288 10.8568 8.37544 11.0043 8.34472C11.1517 8.314 11.2439 8.19728 11.336 8.18499C11.4282 8.17271 11.5633 8.14199 11.5633 8.06827C11.5633 7.99455 11.2562 8.00683 11.1026 8.06827C10.949 8.1297 10.3531 8.46759 10.2425 8.52902C10.1319 8.59045 9.98449 8.63346 9.95992 8.72561C9.93535 8.81776 9.75105 9.03277 9.6589 9.08192C9.56675 9.13107 9.106 9.49352 9.05685 9.57953C9.01328 9.6801 8.90703 9.73829 8.79883 9.72083Z" fill="black"/>
<path fill-rule="evenodd" clip-rule="evenodd" d="M10.5319 8.8669C10.3906 8.97133 10.4643 8.98976 10.4643 8.98976C10.673 9.03273 10.7591 8.97758 10.9982 8.8243L10.9988 8.82389C11.2384 8.67031 11.822 8.44915 12.3995 8.46758C12.8871 8.48314 13.5588 8.93678 13.7781 9.08494C13.8185 9.11223 13.8436 9.12915 13.8493 9.13106C13.8862 9.14335 13.9845 8.9099 13.8493 8.79318C13.7142 8.67645 12.9401 8.28328 12.2705 8.24642C11.6008 8.20956 10.6732 8.76246 10.5319 8.8669ZM10.0709 9.04506C9.8129 9.24164 9.75146 9.14949 9.75146 9.14949C9.75589 9.08755 10.0089 8.92999 10.1685 8.83062C10.2304 8.79203 10.2783 8.76221 10.2921 8.75018C10.3412 8.70717 10.4088 8.80547 10.3842 8.80547C10.3711 8.80547 10.3563 8.81766 10.3064 8.85873C10.2625 8.8948 10.1916 8.95314 10.0709 9.04506Z" fill="black"/>
<path d="M11.2136 8.95289C11.1994 8.94902 11.1888 8.93739 11.1862 8.92297C11.1835 8.90855 11.1894 8.89391 11.2013 8.88532C11.5994 8.61702 12.0893 8.5217 12.559 8.62115C13.3883 8.79931 13.7323 9.19248 13.7508 9.28463C13.7692 9.37678 13.7385 9.5918 13.6156 9.54879C13.4928 9.50579 13.0934 8.8976 12.4484 8.84231C11.8279 8.78702 11.6866 9.06347 11.2136 8.95289Z" fill="black"/>
<path fill-rule="evenodd" clip-rule="evenodd" d="M12.067 9.10033L11.9933 9.07576C11.981 9.06962 11.9872 9.05733 11.9933 9.05733C12.0978 9.03276 12.4479 8.96518 12.7674 9.0819C12.9945 9.17571 13.1996 9.3159 13.3694 9.49351C13.3755 9.49948 13.3767 9.50882 13.3723 9.51611C13.3679 9.52341 13.3591 9.52676 13.351 9.52423L12.067 9.10033ZM7.59498 12.2334C7.59498 12.2334 7.55812 12.3502 7.45369 12.2642C7.35932 12.1864 7.40539 12.0686 7.44235 11.9741L7.45369 11.9447C7.49055 11.8464 7.77314 11.2689 7.84072 11.2014C7.90829 11.1338 8.16017 10.8328 8.16017 10.7652C8.16017 10.6976 8.22775 10.9556 7.96973 11.3488C7.84283 11.5518 7.80768 11.6779 7.77205 11.8056C7.73869 11.9252 7.70491 12.0463 7.59498 12.2334ZM7.71168 12.6205C7.77926 12.7003 7.81612 12.6205 7.81612 12.6205C7.89332 12.4965 7.95716 12.3647 8.00656 12.2273C8.10099 11.994 8.09497 11.7256 8.09295 11.6354L8.09257 11.613C8.09257 11.5577 8.08643 11.3672 8.03114 11.4532C8.00117 11.4999 7.95497 11.6475 7.90621 11.8033C7.86501 11.935 7.82198 12.0725 7.7854 12.1597C7.70554 12.3502 7.6441 12.5406 7.71168 12.6205ZM8.13535 12.9952C8.13535 12.9952 8.06163 13.1181 7.96948 12.9706C7.90554 12.8693 7.90554 12.7402 7.96948 12.6389C7.98437 12.6121 8.00214 12.5564 8.0193 12.5027C8.03755 12.4455 8.05511 12.3906 8.06777 12.3747C8.09235 12.344 8.12306 12.4177 8.13535 12.5099C8.14195 12.5594 8.16095 12.6124 8.17713 12.6576C8.19107 12.6965 8.20293 12.7296 8.20293 12.7495C8.20293 12.7925 8.19064 12.9338 8.13535 12.9952ZM8.26457 13.0444C8.28586 13.0744 8.30244 13.1076 8.31372 13.1426C8.32118 13.175 8.32118 13.2086 8.31372 13.2409C8.30143 13.3024 8.25228 13.37 8.24614 13.3147C8.24335 13.2895 8.22786 13.2707 8.21238 13.252C8.19379 13.2294 8.17521 13.2069 8.17856 13.1734C8.18471 13.1119 8.24614 13.0321 8.26457 13.0444ZM8.50393 11.2997C8.56508 10.9549 8.71308 10.6314 8.93396 10.3597C9.29027 9.94198 9.45614 9.8744 9.45614 9.8744C9.45614 9.8744 9.50529 9.86211 9.48072 9.96041C9.46544 10.0215 9.38846 10.1324 9.32501 10.2239C9.28637 10.2796 9.25275 10.328 9.24113 10.3536C9.2263 10.3862 9.16711 10.4546 9.10983 10.5208C9.04844 10.5917 8.98925 10.6601 8.98925 10.6792C8.98925 10.7006 9.02258 10.6992 9.05285 10.6979C9.07456 10.6969 9.0947 10.6961 9.09983 10.7038C9.10132 10.706 9.10326 10.7083 9.10542 10.7109C9.1211 10.7297 9.14842 10.7624 9.09983 10.8758C9.08804 10.9033 9.069 10.9456 9.04627 10.9961L9.04626 10.9961C8.96236 11.1824 8.82821 11.4803 8.82338 11.5577C8.81724 11.656 8.49778 12.3932 8.46707 12.3932C8.43635 12.3932 8.36877 12.387 8.37492 12.1597C8.38106 11.9324 8.71894 11.0785 8.81109 10.9372C8.82563 10.9149 8.83802 10.8961 8.84845 10.8804C8.88458 10.8256 8.89703 10.8068 8.89283 10.8017C8.89062 10.799 8.88381 10.8002 8.87341 10.8019L8.87253 10.802C8.83567 10.8082 8.60836 11.0539 8.57765 11.2259C8.54693 11.3979 8.50393 11.2997 8.50393 11.2997ZM9.09996 11.4348C9.27812 11.4471 9.36413 11.2444 9.36413 11.2444C9.36413 11.2444 9.48085 10.7959 9.49928 10.6608C9.51439 10.55 9.6574 10.2742 9.74572 10.1038C9.76517 10.0663 9.78197 10.0339 9.79416 10.0096C9.82261 9.95266 9.86195 9.90447 9.89567 9.86316C9.94205 9.80634 9.97782 9.76253 9.96003 9.72696C9.92932 9.66553 9.74502 9.73925 9.67744 9.80068C9.60986 9.86212 9.27812 10.5932 9.23512 10.7836C9.2218 10.8426 9.1867 10.9263 9.14986 11.0141C9.06772 11.21 8.97697 11.4263 9.09996 11.4348Z" fill="black"/>
<path d="M9.19278 11.6744C9.20446 11.6443 9.20317 11.6107 9.1892 11.5816C9.17523 11.5525 9.14984 11.5305 9.11906 11.5208C9.00233 11.4717 8.99619 11.5085 8.9409 11.6007C8.88561 11.6928 8.5293 12.5529 8.5293 12.6819C8.5293 12.8109 8.56616 13.0505 8.60916 13.0874C8.65216 13.1242 8.69517 13.0567 8.69517 12.9645C8.70976 12.8513 8.75668 12.7446 8.83032 12.6573C8.90443 12.5545 8.93123 12.4249 8.90404 12.301C8.87947 12.1536 9.11291 11.914 9.11291 11.914C9.11391 12.0863 9.10571 12.2586 9.08834 12.43C9.06377 12.5836 8.90404 12.7065 8.86718 12.7741C8.83032 12.8416 8.81189 13.1058 8.78117 13.1857C8.75064 13.283 8.74431 13.3864 8.76274 13.4867C8.78117 13.5666 8.83032 13.7632 8.86104 13.6219C8.89175 13.4806 9.00233 13.0628 9.03305 13.069C9.06377 13.0751 9.05762 13.5297 9.03919 13.6219C9.02076 13.714 8.99619 14.1625 8.99619 14.2178C8.99619 14.273 8.83032 14.5249 8.7996 14.6171C8.76889 14.7092 8.58459 15.0471 8.58459 15.0655C8.58459 15.084 8.76889 15.0655 8.88561 14.9734C8.97495 14.8957 9.02829 14.7845 9.03305 14.6662C9.03305 14.5925 9.02076 14.4143 9.06377 14.3099C9.10677 14.2055 9.21735 13.9597 9.23578 13.8614C9.25117 13.6098 9.25117 13.3575 9.23578 13.1058C9.22349 12.9645 9.25421 12.3686 9.29721 12.2457C9.34022 12.1229 9.34636 12.0614 9.37708 12.0614C9.40779 12.0614 9.38936 12.4362 9.37708 12.5529C9.36479 12.6696 9.33407 13.0505 9.33407 13.1058C9.28153 13.5755 9.35578 14.0507 9.54909 14.4819C9.54909 14.4819 9.57981 14.6171 9.72725 14.5249C9.87469 14.4328 9.65967 14.0212 9.62281 13.9044C9.58595 13.7877 9.46308 13.1795 9.50609 13.0935C9.54909 13.0075 9.79482 13.9413 9.80097 14.0335C9.80711 14.1256 9.83783 14.4143 9.88697 14.4205C9.93612 14.4266 10.1389 14.3038 10.1389 14.2792C10.1386 14.2137 10.1194 14.1497 10.0836 14.0949C10.0283 14.0027 9.73339 13.2471 9.6781 12.6205C9.62281 11.9939 9.7211 10.9249 9.77025 10.8143C9.8194 10.7038 10.0467 10.2 10.102 10.1201C10.1573 10.0403 10.317 9.70854 10.3477 9.69626C10.3784 9.68397 10.4092 9.68397 10.4092 9.72083C10.3716 9.84832 10.3265 9.97346 10.274 10.0956C10.2371 10.2 10.0406 10.5133 10.0037 10.6178C9.89141 10.9496 9.82123 11.2943 9.79482 11.6437C9.73953 12.1966 9.86854 13.1304 9.9054 13.3147C9.94226 13.499 10.1757 14.1256 10.3047 14.1809C10.4337 14.2362 10.5443 14.0703 10.5259 14.0396C10.5075 14.0089 10.2371 13.5174 10.1757 13.3147C10.1143 13.112 10.0037 12.6266 10.0221 12.5161C10.0406 12.4055 10.1819 13.4376 10.6672 13.9782C10.6672 13.9782 10.7286 14.015 10.8392 13.9413C10.9498 13.8676 10.9436 13.8062 10.8392 13.6894C10.7348 13.5727 10.3784 12.8847 10.3293 12.7065C10.2801 12.5283 10.0651 11.9386 10.0528 11.9201C10.0293 11.7112 10.0376 11.5 10.0774 11.2935C10.1327 11.0355 10.2126 10.673 10.2187 10.5748C10.2249 10.4765 10.3846 10.2553 10.4214 10.2062C10.4583 10.157 10.5443 9.92356 10.5873 9.75769C10.6303 9.59182 10.7163 9.48124 10.6426 9.46895C10.5689 9.45667 10.2986 9.49967 10.2494 9.55496C10.2003 9.61025 10.0037 9.72697 9.58595 10.6792C9.58595 10.6792 9.46923 10.9004 9.46923 11.0294C9.46916 11.1964 9.41769 11.3594 9.32179 11.4963C9.28678 11.561 9.24341 11.6209 9.19278 11.6744Z" fill="black"/>
<path fill-rule="evenodd" clip-rule="evenodd" d="M11.1274 9.48122C11.152 9.5058 11.0598 9.61638 11.0598 9.61638C11.0598 9.61638 10.8571 10.0648 10.808 10.1447C10.7588 10.2369 10.4516 10.8696 10.5192 11.1276C10.5778 11.3512 10.5533 11.5841 10.5337 11.7702C10.5307 11.7988 10.5278 11.8263 10.5254 11.8526C10.5069 12.0491 10.7711 12.6512 10.8202 12.7311C10.8694 12.8109 11.2503 13.499 11.2503 13.499L11.4039 13.6771C11.4039 13.6771 11.2073 13.9044 11.0045 13.6771C10.8018 13.4498 10.3411 12.3747 10.2673 11.8464C10.2146 11.5102 10.2187 11.1676 10.2796 10.8328C10.291 10.7817 10.3548 10.6426 10.4251 10.4897C10.5068 10.3117 10.5972 10.1148 10.6237 10.0157C10.6937 9.81004 10.793 9.61555 10.9185 9.43822C10.9677 9.37679 11.1028 9.45665 11.1274 9.48122ZM9.20698 14.2186C9.23119 14.2013 9.2613 14.1943 9.29064 14.1993C9.40736 14.1993 9.44422 14.3529 9.44422 14.4573C9.43656 14.5694 9.39108 14.6755 9.31521 14.7584C9.24764 14.8382 9.10634 14.8751 9.08791 14.8628C9.07785 14.8561 9.09526 14.8072 9.11415 14.7543C9.12984 14.7102 9.14656 14.6634 9.14934 14.6355C9.14501 14.5207 9.14911 14.4057 9.16163 14.2915C9.16644 14.2621 9.18277 14.2359 9.20698 14.2186Z" fill="black"/>
<path d="M10.8947 10.9679C10.8991 10.8695 10.9178 10.7723 10.95 10.6792C10.993 10.5563 11.0421 10.3536 10.95 10.3044C10.8578 10.2553 10.6981 10.2922 10.6981 10.6362C10.6981 10.9802 10.6182 11.3734 10.6981 11.8894C10.778 12.4055 11.165 13.3147 11.681 13.7816C12.1971 14.2485 12.1049 14.0887 12.3568 14.3161C12.6087 14.5434 13.8865 14.7829 14.2428 14.7399C14.5991 14.6969 14.6913 14.5249 14.7097 14.4635C14.7281 14.4021 14.679 14.2976 14.6298 14.3468C14.5807 14.3959 14.3165 14.6355 13.4503 14.4451C12.5841 14.2546 12.3568 14.0396 12.3076 13.9966C12.2585 13.9536 11.7732 13.456 11.7179 13.4068C11.6626 13.3577 11.1036 12.5959 11.1036 12.4853C11.1036 12.3748 11.8285 13.757 12.793 14.1256C13.7575 14.4942 14.1138 14.4328 14.2981 14.3713C14.4824 14.3099 14.6728 14.2546 14.6728 14.187C14.6728 14.1195 14.6667 13.9905 14.6053 13.9905C14.5438 13.9905 14.1814 14.2055 14.0094 14.187C13.8373 14.1686 13.5855 14.058 13.352 14.058C13.1186 14.058 12.6271 13.7693 12.5042 13.6526C12.3814 13.5358 11.7302 13.2041 11.1036 11.8587C11.0974 11.8649 10.864 11.1707 10.8947 10.9679Z" fill="black"/>
<path d="M12.5893 14.5618C12.5893 14.5618 12.3313 14.3898 12.2822 14.3959C12.233 14.402 12.2392 14.488 12.2453 14.5802C12.2514 14.6723 12.2883 14.7706 12.3497 14.7829C12.4112 14.7952 12.577 14.7584 12.6139 14.7829C12.9103 14.9323 13.2346 15.0181 13.5661 15.0348C14.0637 15.0532 14.162 15.0717 14.3033 15.0594C14.4446 15.0471 14.6842 14.9611 14.7026 14.9058C14.7211 14.8505 14.7088 14.6785 14.6596 14.6785C14.6105 14.6785 14.5552 14.9242 13.6153 14.8136C12.6876 14.6908 12.5893 14.5618 12.5893 14.5618Z" fill="black"/>
<path d="M12.7125 14.9427C12.7125 14.9427 12.5221 14.8075 12.4668 14.8628C12.4115 14.9181 12.3992 15.084 12.5897 15.127C12.7801 15.17 13.2101 15.2928 13.3084 15.3113C13.501 15.3472 13.6962 15.3678 13.8921 15.3727C14.1009 15.3727 14.3098 15.2744 14.3958 15.2744C14.4818 15.2744 14.7398 15.2744 14.7521 15.2191C14.7535 15.1543 14.7431 15.0898 14.7214 15.0287C14.7153 15.0041 14.6415 15.0102 14.5924 15.0348C14.4339 15.0975 14.2692 15.1428 14.1009 15.17C13.8189 15.1866 13.5359 15.1659 13.2593 15.1085C13.0736 15.0652 12.891 15.0098 12.7125 14.9427Z" fill="black"/>
<path d="M14.5615 15.4771C14.5615 15.4771 14.1683 15.7475 13.0748 15.5754C11.9812 15.4034 12.2638 14.9734 12.2884 14.9918C12.313 15.0102 12.4051 15.1393 12.4727 15.1638C12.5403 15.1884 13.3574 15.4587 13.5847 15.4649C13.812 15.471 14.1068 15.4587 14.2359 15.4157C14.3649 15.3727 14.5369 15.2621 14.6045 15.3543C14.672 15.4341 14.5615 15.4771 14.5615 15.4771Z" fill="black"/>
<path d="M12.4303 15.4894C12.4303 15.4894 12.332 15.4218 12.332 15.4894C12.3418 15.5879 12.4024 15.6742 12.4918 15.7167C12.5776 15.76 12.6721 15.7831 12.7682 15.7843C12.8844 15.7936 12.9974 15.8271 13.0999 15.8826C13.1921 15.9256 13.5177 16.0546 14.0829 15.9502C14.6481 15.8457 14.7894 15.7106 14.8139 15.6737C14.8324 15.6179 14.8324 15.5576 14.8139 15.5017C14.8017 15.4403 14.7586 15.4157 14.7095 15.4649C14.6604 15.514 14.3286 15.8089 13.5177 15.7536C12.7068 15.6983 12.4303 15.4894 12.4303 15.4894Z" fill="black"/>
<path d="M12.9831 15.9317C12.9831 15.9317 12.9156 15.8334 12.7313 15.8826C12.547 15.9317 13.2043 16.2819 13.2412 16.3126C13.278 16.3433 13.321 16.3618 13.4807 16.3433C13.6405 16.3249 14.0951 16.3003 14.2548 16.2635C14.4145 16.2266 14.734 16.1345 14.8323 16.0116C14.9306 15.8887 14.8937 15.8089 14.8016 15.8212C14.7094 15.8334 14.1442 16.1836 13.579 16.1345C13.0139 16.0853 12.9831 15.9317 12.9831 15.9317Z" fill="black"/>
<path fill-rule="evenodd" clip-rule="evenodd" d="M11.6374 9.55495C11.6073 9.59966 11.5723 9.64087 11.533 9.67782C11.4286 9.80069 11.2934 10.1509 11.2811 10.2369C11.2688 10.3229 11.3057 10.5625 11.3426 10.7099C11.359 10.7758 11.3927 10.9668 11.4292 11.1744C11.4745 11.4314 11.5242 11.7138 11.5514 11.8157C11.5801 11.9232 11.6652 12.0996 11.7335 12.2414C11.7824 12.3428 11.8228 12.4264 11.8279 12.4546C11.8402 12.5222 12.3931 13.0935 12.4668 13.1242C12.4949 13.1359 12.5799 13.2082 12.6864 13.2987C12.8596 13.4457 13.0893 13.6408 13.2224 13.7017C13.4374 13.8 14.0825 13.9167 14.2053 13.9229C14.3282 13.929 14.2422 14.0089 14.2422 14.0089C13.6526 14.1283 13.0405 13.9798 12.5712 13.6034C11.3671 12.6573 11.146 11.7788 11.0477 10.9249C10.9494 10.071 11.2627 9.45666 11.3548 9.43823C11.447 9.4198 11.6374 9.53652 11.6374 9.55495ZM13.5051 16.4908C13.4928 16.4355 13.7693 16.4293 13.7693 16.4293C14.1533 16.4748 14.6245 16.2253 14.814 16.1249C14.8549 16.1033 14.8826 16.0886 14.8935 16.0853C14.955 16.0669 14.9795 16.1652 14.9795 16.2512C14.9795 16.3137 14.9179 16.3405 14.8301 16.3787C14.797 16.3931 14.7602 16.4092 14.7215 16.4293C14.6074 16.4889 14.1366 16.5725 13.895 16.6154C13.8375 16.6256 13.7929 16.6335 13.7693 16.6382C13.6591 16.6488 13.5539 16.5901 13.5051 16.4908ZM14.015 16.8041C14.015 16.7734 14.316 16.6751 14.316 16.6751C14.4143 16.6689 14.832 16.4416 14.875 16.4171C14.916 16.3985 14.963 16.3985 15.004 16.4171C15.0415 16.4843 15.0566 16.5618 15.047 16.6382C15.0381 16.6917 14.8969 16.7257 14.7777 16.7545C14.7325 16.7654 14.6904 16.7755 14.66 16.7857C14.6155 16.8005 14.554 16.8323 14.49 16.8654L14.49 16.8654C14.3952 16.9144 14.2948 16.9663 14.2361 16.97C14.1378 16.9761 14.015 16.8348 14.015 16.8041ZM14.605 17.142C14.5371 17.175 14.4578 17.175 14.39 17.142C14.2732 17.0867 14.3162 17.0191 14.4145 16.97C14.4754 16.9395 14.5694 16.902 14.6481 16.8705C14.6964 16.8512 14.739 16.8342 14.7647 16.8225C14.8323 16.7918 15.0166 16.7242 15.0473 16.7488C15.0797 16.7827 15.1011 16.8255 15.1087 16.8717C15.1087 16.9024 14.605 17.142 14.605 17.142ZM14.5862 17.2956C14.5862 17.3201 14.7705 17.4184 14.7705 17.4184C14.8442 17.4307 15.2435 17.3263 15.2435 17.2341C15.2435 17.142 15.1452 17.0498 15.1452 17.0498C15.1452 17.0498 14.7705 17.2034 14.7152 17.2034C14.6595 17.2106 14.611 17.2452 14.5862 17.2956ZM15.2437 17.6212C15.1909 17.6312 15.1368 17.6312 15.084 17.6212C15.0546 17.6114 15.0199 17.5842 14.9902 17.5608C14.9641 17.5404 14.9419 17.5229 14.9304 17.5229C14.9058 17.5229 14.9857 17.4737 15.0471 17.4676C15.085 17.4638 15.1394 17.4483 15.184 17.4356C15.2117 17.4276 15.2357 17.4208 15.2499 17.4184C15.2867 17.4123 15.3359 17.4615 15.3359 17.5229C15.3359 17.5843 15.2437 17.6212 15.2437 17.6212Z" fill="black"/>
<path d="M11.9571 9.76995C11.9571 9.76995 12.0676 9.73924 12.0738 9.70238C12.0799 9.66552 12.0615 9.57951 11.9141 9.55494C11.7666 9.53036 11.6253 9.6348 11.527 9.89896C11.4287 10.1631 11.4717 10.7222 11.6008 11.0662C11.7298 11.4102 11.656 11.6867 11.8956 12.1474C12.1352 12.6082 12.1291 12.6082 12.2212 12.6819C12.3134 12.7556 12.7557 13.1857 12.8233 13.2532C12.8909 13.3208 13.284 13.5788 13.3577 13.5788C13.4315 13.5788 13.4683 13.456 13.4622 13.3945C13.456 13.3331 13.4499 13.3024 13.3455 13.2962C13.241 13.2901 13.0936 13.1181 13.0936 13.1181C13.0936 13.1181 12.5345 12.5898 12.4915 12.5652C12.4485 12.5406 11.9939 12.0246 11.9939 11.9631C11.9939 11.9017 12.0001 11.8157 12.0369 11.8648C12.0738 11.914 12.338 12.2949 12.51 12.4546C12.682 12.6143 13.2287 13.0751 13.3577 13.1304C13.4868 13.1857 13.5482 13.1918 13.5605 13.0874C13.5728 12.9829 13.6342 12.9338 13.6895 12.9645C13.7448 12.9952 14.1564 13.2348 14.2854 13.2164C14.4144 13.1979 14.6048 13.0075 14.6663 13.0198C14.7277 13.0321 14.5557 13.2225 14.5004 13.2532C14.4451 13.284 14.5434 13.3515 14.5618 13.3638C14.6316 13.4016 14.7175 13.3918 14.7769 13.3392C14.8752 13.2532 14.8874 13.1365 14.8199 12.9829C14.7523 12.8293 14.7339 12.5713 14.7154 12.5222C14.697 12.473 14.6724 12.3993 14.6233 12.5222C14.5741 12.645 14.482 12.8969 14.1625 12.9092C13.7835 12.9401 13.4055 12.838 13.0936 12.6205C12.7004 12.3624 12.2274 12.0061 11.8588 10.9556C11.4902 9.90511 11.9571 9.76995 11.9571 9.76995Z" fill="black"/>
<path fill-rule="evenodd" clip-rule="evenodd" d="M14.574 12.0062C14.5407 11.9903 14.501 11.9977 14.4757 12.0246C14.4573 12.0553 14.4327 11.914 14.4696 11.7789C14.5064 11.6437 14.4757 11.441 14.4327 11.4533C14.4243 11.4557 14.4049 11.4777 14.3764 11.5102C14.2588 11.644 13.986 11.9543 13.6894 11.7911C13.3208 11.5884 12.86 11.0109 12.731 10.7529L12.6955 10.6823C12.5747 10.4427 12.4445 10.1845 12.4669 10.028C12.4669 10.028 12.4853 9.89285 12.4914 9.85599C12.4976 9.81913 12.4177 9.67169 12.3194 9.70855C12.2211 9.74541 11.9815 9.88056 11.9508 9.97886C11.9438 10.0013 11.9333 10.0234 11.9217 10.0476C11.8829 10.1292 11.833 10.2338 11.8709 10.4519C11.9087 10.6691 12.0045 10.9334 12.072 11.1194C12.0923 11.1755 12.11 11.2244 12.1228 11.2628C12.1781 11.4287 12.3501 11.8034 12.5344 11.9693C12.7187 12.1352 13.0812 12.4608 13.2409 12.5345C13.2676 12.5468 13.2992 12.564 13.3354 12.5838L13.3354 12.5838C13.5161 12.6825 13.8113 12.8437 14.1747 12.7618C14.6109 12.6635 14.617 12.2273 14.617 12.1843C14.6129 12.1229 14.5984 12.0627 14.574 12.0062ZM12.6575 11.8771C12.6521 11.8699 12.6298 11.8363 12.6004 11.792L12.6004 11.792C12.5294 11.685 12.4169 11.5154 12.3995 11.5024C12.5162 11.589 12.6251 11.6857 12.7251 11.7911C12.848 11.9324 12.9585 12.0983 12.9585 12.1475C12.9585 12.1475 12.6759 11.9017 12.6575 11.8771ZM13.4403 12.2126C13.5315 12.2806 13.6691 12.3832 13.9477 12.3932C14.2918 12.4055 14.3778 12.2335 14.3593 12.2089C14.3409 12.1843 14.2733 12.1843 14.2119 12.2089C14.2079 12.2105 14.2031 12.2126 14.1976 12.215C14.1179 12.2494 13.8803 12.3522 13.53 12.1167C13.1552 11.8649 12.7313 11.4041 12.6822 11.2997C12.6722 11.2785 12.6491 11.2394 12.6187 11.1879C12.4992 10.9855 12.2669 10.5923 12.2767 10.3475C12.2632 10.2827 12.255 10.217 12.2522 10.1509C12.2522 10.114 12.1354 10.1754 12.1539 10.2492C12.1723 10.3229 12.3505 10.9556 12.418 11.0847C12.4856 11.2137 12.6453 11.3918 12.8481 11.6007C12.9296 11.6847 13.0171 11.7846 13.0986 11.8777C13.2197 12.0159 13.3275 12.139 13.3825 12.172C13.4001 12.1825 13.4189 12.1966 13.4403 12.2126Z" fill="black"/>
<path fill-rule="evenodd" clip-rule="evenodd" d="M14.3903 11.1584C14.369 11.1584 14.3378 11.1801 14.3063 11.2021C14.2559 11.2372 14.205 11.2727 14.1937 11.2198C14.1848 11.1785 14.2043 11.1146 14.2269 11.0402C14.2514 10.9597 14.2797 10.8669 14.2797 10.7775C14.2797 10.6055 14.2428 10.2799 14.163 10.1201C14.0831 9.9604 14.0032 9.81911 13.8619 9.90511C13.733 9.98359 13.7831 10.0467 13.8395 10.1178L13.8558 10.1386L13.8718 10.1591C13.9403 10.2465 14.0708 10.4129 14.0708 10.6055C14.0708 10.8143 14.0401 11.0846 13.9602 11.1031C13.8804 11.1215 13.6899 11.0601 13.5179 10.9249C13.3342 10.7873 13.1635 10.6331 13.008 10.4642C12.9527 10.3843 12.8421 10.2 12.8729 10.1693C12.9036 10.1386 12.9527 10.1263 13.0019 10.2123C13.051 10.2983 13.2906 10.5502 13.352 10.6116C13.4547 10.7142 13.5634 10.8107 13.6776 10.9003C13.6863 10.9061 13.6952 10.9124 13.7043 10.9188C13.7727 10.967 13.8514 11.0225 13.9111 10.9249C13.9787 10.8143 13.9909 10.5502 13.9357 10.4519C13.9201 10.4242 13.9017 10.3908 13.8825 10.356C13.8334 10.2671 13.7796 10.1695 13.7575 10.1386L13.7552 10.1354C13.7244 10.092 13.6751 10.0229 13.5732 10.0648C13.4688 10.1078 13.4749 10.1939 13.5118 10.2246C13.5172 10.2291 13.5254 10.2355 13.5355 10.2433L13.5355 10.2433L13.5355 10.2433C13.5941 10.2888 13.7163 10.3837 13.7268 10.4519C13.729 10.4664 13.732 10.4829 13.7352 10.4998L13.7352 10.4998C13.7492 10.5761 13.7648 10.6608 13.7145 10.6055C13.6916 10.5803 13.6551 10.5339 13.6161 10.4842L13.6161 10.4842C13.5503 10.4005 13.4773 10.3076 13.4503 10.2921C13.4073 10.2676 13.1124 10.0833 13.1124 10.0833C13.1124 10.0833 12.7561 9.93583 12.7316 9.89897C12.707 9.86211 12.6333 9.85597 12.6886 10.0648C12.6985 10.1023 12.7078 10.1412 12.7173 10.1808L12.7173 10.1808C12.7608 10.3621 12.8083 10.5598 12.9343 10.716C13.0204 10.8157 13.0833 10.9332 13.1186 11.0601C13.1493 11.1522 13.4565 11.6068 13.8496 11.7051C14.2094 11.7951 14.3583 11.422 14.3951 11.3298L14.3951 11.3298C14.3985 11.3212 14.401 11.3151 14.4025 11.3119C14.421 11.2751 14.4455 11.1584 14.3903 11.1584ZM14.0153 11.4348C14.0073 11.4951 13.9308 11.4738 13.8583 11.4537C13.82 11.443 13.7828 11.4327 13.7573 11.4348C13.6836 11.4409 13.5484 11.3181 13.4624 11.2198C13.3764 11.1215 13.3088 11.0171 13.3334 11.0048C13.3454 10.9988 13.3779 11.0279 13.4209 11.0665C13.466 11.1069 13.5226 11.1576 13.5792 11.1891L13.5973 11.1992C13.7054 11.2595 13.8425 11.3358 13.9355 11.3242C14.0338 11.3119 14.0153 11.4348 14.0153 11.4348ZM14.7775 13.5051C14.7775 13.4682 14.8573 13.3761 14.8573 13.3761C14.9232 13.3609 14.9264 13.425 14.9289 13.4755C14.9295 13.4863 14.93 13.4965 14.9311 13.5051C14.9372 13.5542 14.9372 13.5911 14.8942 13.6218C14.8512 13.6525 14.8205 13.6341 14.8205 13.5973C14.8205 13.5788 14.8097 13.565 14.799 13.5512C14.7882 13.5374 14.7775 13.5235 14.7775 13.5051ZM14.9368 13.7017C14.9368 13.7017 14.8569 13.7508 14.8569 13.8123C14.8538 13.8634 14.8538 13.9147 14.8569 13.9659C14.8644 13.9866 14.884 14.0004 14.9061 14.0004C14.9281 14.0004 14.9478 13.9866 14.9552 13.9659C14.9598 13.9568 14.9645 13.9483 14.9691 13.9401C14.9893 13.9043 15.0059 13.8746 14.9859 13.8246C14.9764 13.8055 14.9743 13.7763 14.9723 13.7502C14.9693 13.7089 14.9669 13.6754 14.9368 13.7017ZM14.8939 14.3345C14.8877 14.3775 14.9983 14.2976 14.9983 14.2976L15.0067 14.2926C15.0635 14.2588 15.0999 14.2372 15.0413 14.1317C14.9982 14.0542 14.9854 14.0673 14.9688 14.0841C14.9618 14.0913 14.954 14.0992 14.943 14.101C14.9138 14.1059 14.9039 14.2227 14.898 14.2923C14.8964 14.3105 14.8952 14.3255 14.8939 14.3345ZM15.0905 14.4389C15.0905 14.4389 15.1212 14.3222 15.0352 14.3959C14.9992 14.4268 14.9739 14.4404 14.9572 14.4494C14.934 14.462 14.9272 14.4656 14.9308 14.4942C14.9369 14.5433 14.9553 14.6293 15.0045 14.6171C15.01 14.6152 15.0166 14.6141 15.0237 14.6128C15.0643 14.6058 15.1219 14.5957 15.0905 14.4389ZM15.0104 14.8321C14.9981 14.7522 15.1394 14.6846 15.1394 14.6846C15.1708 14.665 15.1721 14.7054 15.1738 14.7548C15.1747 14.7828 15.1758 14.8137 15.1824 14.8382C15.2009 14.9058 15.1517 14.9918 15.121 14.9918C15.0903 14.9918 15.0227 14.9119 15.0104 14.8321Z" fill="black"/>
<path fill-rule="evenodd" clip-rule="evenodd" d="M4.27197 12C4.27197 7.73175 7.73206 4.27166 12.0003 4.27166C14.0501 4.27117 16.0161 5.08525 17.4656 6.5347C18.915 7.98415 19.7291 9.95016 19.7286 12C19.7286 16.2682 16.2685 19.7283 12.0003 19.7283C7.73206 19.7283 4.27197 16.2682 4.27197 12ZM4.78172 12C4.78342 15.9849 8.01522 19.214 12.0002 19.2123C13.914 19.2121 15.7493 18.4514 17.102 17.0975C18.4547 15.7436 19.2139 13.9077 19.2124 11.9938C19.2107 8.00892 15.9789 4.77986 11.994 4.78156C8.00908 4.78326 4.78003 8.01506 4.78172 12Z" fill="black"/>
<path fill-rule="evenodd" clip-rule="evenodd" d="M3 12C3 7.02944 7.02944 3 12 3C16.9704 3.00034 20.9997 7.02958 21 12C21 16.9706 16.9706 21 12 21C7.02944 21 3 16.9706 3 12ZM3.84162 12C3.84162 16.5057 7.49424 20.1584 12 20.1584C16.5049 20.1563 20.1563 16.5049 20.1583 12C20.1583 7.49426 16.5057 3.84164 12 3.84164C7.49424 3.84164 3.84162 7.49426 3.84162 12Z" fill="#151515"/>
</svg>
