<svg width="24" height="24" viewBox="0 0 24 24" fill="none" xmlns="http://www.w3.org/2000/svg">
<circle cx="12" cy="12" r="12" fill="#1B75BC"/>
<path fill-rule="evenodd" clip-rule="evenodd" d="M9.02787 6.1695L12.0867 3L15.1456 6.1695L13.5359 7.86825L12.0867 6.28275L10.6376 7.86825L9.02787 6.1695ZM8.75902 6.45148L12.1003 9.90598L15.3598 6.45148L17.4003 8.51998L14.0719 12L17.4003 15.4522L15.3598 17.547L12.1003 14.094L8.75902 17.547L6.80029 15.51L10.1014 11.9805L6.80029 8.51998L8.75902 6.45223V6.45148ZM10.6376 16.1317L9.02787 17.8305L12.0867 21L15.1456 17.8305L13.5359 16.1317L12.0867 17.7172L10.6376 16.1317Z" fill="white"/>
</svg>
