<svg width="24" height="24" viewBox="0 0 24 24" fill="none" xmlns="http://www.w3.org/2000/svg">
<circle cx="12" cy="12" r="12" fill="#EDF0F4"/>
<path d="M8.024 8.8H8.5994C9.4982 8.8882 10.3298 9.3404 10.9458 9.9914C12.224 11.3326 12.9268 13.2254 14.5536 14.2236C15.7296 14.946 17.3746 14.3552 17.9528 13.1358C18.2468 13.1302 18.5422 13.1302 18.8362 13.1316C18.4316 14.3706 17.2528 15.261 15.9634 15.38H15.4888C14.695 15.3142 13.9236 15.009 13.323 14.4812C12.4508 13.742 11.8908 12.7284 11.2132 11.8254C10.6308 11.0274 10.0358 10.13 9.0712 9.7674C7.8798 9.3208 6.4238 10.0194 5.9898 11.2066C5.6076 12.1838 5.9184 13.3962 6.7724 14.022C7.4122 14.5176 8.304 14.7024 9.0726 14.414C9.9266 14.106 10.5608 13.406 11.0466 12.664C11.2384 12.9384 11.4246 13.217 11.6094 13.497C10.8534 14.449 9.8048 15.2666 8.5574 15.38H8.0464C6.4742 15.2708 5.1078 13.9352 5 12.3574V11.8408C5.1022 10.2658 6.4504 8.9148 8.024 8.8Z" fill="#DE3F6B"/>
<path d="M15.4567 8.8H15.9341C17.5203 8.9036 18.8699 10.2658 19.0001 11.8436V12.6528C17.6911 12.6654 16.3807 12.657 15.0717 12.6584C15.0731 12.4218 15.0731 12.1866 15.0717 11.95C16.1063 11.9472 17.1395 11.9542 18.1727 11.9472C18.0999 11.5286 18.0047 11.1002 17.7569 10.746C17.1521 9.822 15.8739 9.444 14.8519 9.8444C14.0371 10.1468 13.4239 10.809 12.9507 11.516C12.7687 11.2542 12.5881 10.9896 12.4131 10.7222C13.1593 9.7562 14.2009 8.9204 15.4567 8.8Z" fill="#DE3F6B"/>
</svg>
