<svg width="24" height="24" viewBox="0 0 24 24" fill="none" xmlns="http://www.w3.org/2000/svg">
<circle cx="12" cy="12" r="12" fill="#EDF0F4"/>
<ellipse cx="12.035" cy="11.9571" rx="8.13008" ry="3.88456" transform="rotate(-70.7 12.035 11.9571)" fill="#5FBCD3"/>
<ellipse cx="12.031" cy="11.9598" rx="8.13009" ry="3.88456" transform="rotate(-37 12.031 11.9598)" fill="#2C89A0"/>
<ellipse cx="12.3834" cy="11.7474" rx="8.13008" ry="3.88456" transform="rotate(-5.7 12.3834 11.7474)" fill="#164450"/>
<path fill-rule="evenodd" clip-rule="evenodd" d="M12.9579 12.1116C13.0235 12.7625 13.4898 13.0865 14.3566 13.0838C14.8681 13.0892 15.3733 12.971 15.8292 12.7392V13.7237C15.3124 13.9507 14.6875 14.0642 13.9546 14.0642C13.0659 14.0642 12.4096 13.8044 11.9857 13.2848H11.9611C11.4962 13.8044 10.8987 14.0642 10.1685 14.0642C9.61887 14.0642 9.18953 13.9438 8.88051 13.7032C8.5715 13.4625 8.41699 13.1289 8.41699 12.7023C8.41699 12.2784 8.57697 11.938 8.89692 11.6809C9.21687 11.4239 9.67356 11.2762 10.267 11.2379L11.5386 11.1477C11.5386 10.5925 11.2337 10.315 10.6238 10.315C10.0496 10.315 9.48077 10.4708 8.91743 10.7826V9.753C9.49868 9.511 10.1214 9.38422 10.751 9.37972C11.5249 9.37972 12.0609 9.57388 12.359 9.9622H12.3795C12.8192 9.57307 13.3646 9.32324 13.9464 9.24436C14.6192 9.1336 15.4683 9.14181 15.8744 9.52739C16.1032 9.74906 16.2519 10.0406 16.2969 10.356C16.3453 10.7209 16.2412 11.0895 16.0091 11.3752C15.777 11.6609 15.4374 11.8382 15.0704 11.8655L12.9579 12.1116ZM11.5344 12.1485V11.9516L10.7632 12.0091C10.1534 12.0528 9.84849 12.2443 9.84849 12.5834C9.85085 12.7276 9.92461 12.8613 10.0454 12.9402C10.1739 13.0359 10.3421 13.0852 10.5499 13.0879C10.8343 13.0879 11.0695 13.0004 11.2555 12.8254C11.4414 12.6504 11.5344 12.4247 11.5344 12.1485ZM13.0849 11.3897L13.0972 11.1928C13.1136 10.9193 13.2203 10.6992 13.4172 10.5324C13.6141 10.3656 13.8547 10.2876 14.1391 10.2986C14.3442 10.3095 14.5083 10.3642 14.6314 10.4627C14.7492 10.5476 14.8156 10.6868 14.8077 10.8318C14.7886 11.1709 14.4741 11.3487 13.8643 11.3651L13.0849 11.3897Z" fill="white"/>
</svg>
