<svg width="24" height="24" viewBox="0 0 24 24" fill="none" xmlns="http://www.w3.org/2000/svg">
<circle cx="12" cy="12" r="12" fill="#EDF0F4"/>
<path d="M5.80836 18.541C5.79493 18.4067 5.70091 17.3913 6.67333 16.0455C7.54099 14.8447 9.647 14.0523 11.5515 13.4022L11.7208 13.3458C13.0021 12.908 14.8153 12.0887 15.2344 11.6911L16.5533 13.0826C15.6937 13.8965 13.2224 14.8582 12.344 15.159L12.1721 15.2181C11.2534 15.5324 8.80889 16.3652 8.22866 17.171C7.69142 17.9151 7.71828 18.5329 7.71828 18.5383L5.80836 18.541Z" fill="url(#paint0_linear_300_13791)"/>
<path d="M14.759 18.6029H12.8411C12.8411 17.8239 12.5778 17.1684 12.3683 16.6392C12.3387 16.5667 12.3119 16.4969 12.285 16.4297C12.1695 16.1316 11.686 15.4116 11.2991 14.8368C11.0816 14.5118 10.8532 14.176 10.6679 13.8778C10.6061 13.7811 10.5416 13.6817 10.4772 13.5796C9.9023 12.6959 9.11523 11.4844 9.11523 9.66846C9.11523 8.63157 9.52086 7.59468 10.23 6.82104L11.643 8.1185C11.2615 8.53487 11.0332 9.1151 11.0332 9.66846C11.0332 10.9149 11.5678 11.7396 12.0862 12.5347C12.1587 12.6448 12.2286 12.7523 12.2931 12.857C12.465 13.131 12.6745 13.4399 12.8948 13.7677C13.4025 14.5252 13.8833 15.2397 14.0767 15.7367C14.1009 15.7984 14.1251 15.863 14.1519 15.9301C14.391 16.5371 14.759 17.4559 14.759 18.6029Z" fill="url(#paint1_linear_300_13791)"/>
<path d="M16.5536 13.0799L15.2347 11.6885C15.745 11.2049 16.1051 10.7832 16.1051 9.73287C16.1051 8.24201 14.8747 7.32063 13.7358 7.32063C12.8278 7.32063 12.124 7.58925 11.6405 8.11576L10.2275 6.8183C10.8212 6.17091 11.9118 5.39996 13.7385 5.39996C14.95 5.39996 16.0648 5.89423 16.876 6.78875C17.6066 7.59731 18.0284 8.66912 18.0284 9.73019C18.023 11.4521 17.3165 12.3573 16.5536 13.0799Z" fill="url(#paint2_linear_300_13791)"/>
<defs>
<linearGradient id="paint0_linear_300_13791" x1="5.7998" y1="11.6911" x2="5.7998" y2="18.541" gradientUnits="userSpaceOnUse">
<stop stop-color="#4D4D4D"/>
<stop offset="1" stop-color="#8F8F8F"/>
</linearGradient>
<linearGradient id="paint1_linear_300_13791" x1="9.11523" y1="6.82104" x2="9.11523" y2="18.6029" gradientUnits="userSpaceOnUse">
<stop stop-color="#393939"/>
<stop offset="1" stop-color="#B8B8B8"/>
</linearGradient>
<linearGradient id="paint2_linear_300_13791" x1="10.2275" y1="5.39996" x2="10.2275" y2="13.0799" gradientUnits="userSpaceOnUse">
<stop stop-color="#FF21B3"/>
<stop offset="1" stop-color="#FF21B3"/>
</linearGradient>
</defs>
</svg>
