<svg width="24" height="24" viewBox="0 0 24 24" fill="none" xmlns="http://www.w3.org/2000/svg">
<circle cx="12" cy="12" r="12" fill="#6916FF"/>
<path fill-rule="evenodd" clip-rule="evenodd" d="M12.8751 4.44343C12.8232 4.53674 12.849 4.65316 12.9358 4.71709C13.3114 5.08008 13.6507 5.47716 13.9492 5.90295C14.6611 7.14334 14.6253 8.66389 13.8558 9.87101C13.7534 10.0452 13.772 10.2631 13.9025 10.4183C14.0627 10.6368 14.3689 10.6966 14.6029 10.5552C15.3853 9.91165 15.5141 8.62977 15.5656 8.11682C15.5725 8.04807 15.578 7.99313 15.5835 7.9554C15.5828 7.6313 15.5357 7.3089 15.4434 6.99759C15.3474 6.69779 15.2223 6.40761 15.0699 6.131C14.9255 5.85929 14.7361 5.61272 14.5095 5.40124C14.1147 4.99157 13.6379 4.66556 13.1086 4.44343C13.038 4.39731 12.9458 4.39731 12.8751 4.44343ZM11.6051 18.9292C11.6518 18.8835 11.6518 18.7923 11.5584 18.7011C11.178 18.3387 10.834 17.9417 10.531 17.5153C9.81914 16.2749 9.85492 14.7543 10.6244 13.5472C10.765 13.3906 10.765 13.1565 10.6244 12.9999C10.4642 12.7814 10.158 12.7216 9.92398 12.863C9.14162 13.5065 9.01284 14.7884 8.9613 15.3014C8.9544 15.3701 8.94888 15.4251 8.94336 15.4628C8.94404 15.7869 8.9912 16.1093 9.08345 16.4206C9.1795 16.7204 9.30459 17.0106 9.45702 17.2872C9.60143 17.5589 9.79076 17.8055 10.0174 18.017C10.4122 18.4266 10.889 18.7526 11.4183 18.9748C11.465 19.0204 11.5584 18.9748 11.6051 18.9292Z" fill="white" fill-opacity="0.5"/>
<path d="M15.5883 14.9383C15.5227 14.0672 15.1799 13.2379 14.6077 12.5666C14.034 11.9852 13.3726 11.493 12.6465 11.1071C12.0138 10.7545 11.4193 10.3404 10.872 9.87104C10.4177 9.43888 10.1083 8.88224 9.98476 8.27469C9.8734 7.64438 9.95293 6.99602 10.2136 6.40924C10.523 5.76189 10.9703 5.18653 11.5257 4.72168C11.5894 4.66311 11.6081 4.5716 11.5724 4.49363C11.5467 4.44515 11.4992 4.41133 11.444 4.40235C11.3889 4.39338 11.3327 4.4103 11.2923 4.44802C10.5429 4.77968 9.90966 5.31888 9.4711 5.99875C8.97271 6.72335 8.7406 7.5916 8.81268 8.46169C8.84952 8.90196 8.95994 9.33336 9.13955 9.73877C9.33313 10.137 9.5848 10.5057 9.8867 10.8334C10.4775 11.4029 11.1548 11.8798 11.8946 12.2473C12.5285 12.5784 13.1235 12.9761 13.6691 13.4332C14.1517 13.8628 14.4655 14.4435 14.5563 15.0751C14.6879 15.7367 14.6063 16.4219 14.3229 17.0364C14.0082 17.679 13.5446 18.2412 12.9687 18.6783C12.9304 18.7016 12.9037 18.7393 12.8948 18.7825C12.886 18.8257 12.8958 18.8705 12.922 18.9064C12.9477 18.9548 12.9952 18.9887 13.0504 18.9976C13.1055 19.0066 13.1617 18.9897 13.2021 18.952C13.9 18.5451 14.5041 18.0016 14.9766 17.3556C15.4392 16.6342 15.6536 15.7872 15.5883 14.9383Z" fill="white"/>
</svg>
