<svg width="24" height="24" viewBox="0 0 24 24" fill="none" xmlns="http://www.w3.org/2000/svg">
<circle cx="12" cy="12" r="12" fill="#F49E00"/>
<path fill-rule="evenodd" clip-rule="evenodd" d="M17.8693 6C17.8693 6 16.5672 10.3615 14.8951 13.0009V13.0016C14.8951 13.0016 15.1757 16.8201 18.7999 16.7211V17.4509L17.1352 17.7066C17.1084 17.7126 17.0833 17.717 17.0582 17.7215C17.0324 17.726 17.0068 17.7306 16.9796 17.7367C16.9603 17.7407 16.9362 17.7462 16.9078 17.7527C16.4901 17.8483 15.1518 18.1547 14.5258 17.0879L13.7798 14.8167C13.7798 14.8167 12.1978 17.9054 9.59432 17.9984C9.59432 17.9984 6.75261 18.1507 5.72671 15.4708C5.57483 15.0748 5.48252 14.66 5.45125 14.2385C5.37382 13.3399 5.30235 11.3545 5.88752 9.5852C6.29922 8.34163 7.1591 7.26157 8.34135 6.64204C9.29652 6.14026 10.6217 5.81924 12.1085 6.54903C12.1085 6.54903 13.9645 7.54734 14.0605 10.2745L15.0812 6.63679L17.8693 6ZM10.5494 16.2246C10.86 16.143 11.1427 15.9776 11.3669 15.7461C11.8031 15.3141 12.6571 14.2977 13.3196 12.5464C13.3196 12.5464 12.794 7.61263 10.4534 7.48962C9.91336 7.46786 9.39589 7.70899 9.06267 8.13766C8.45964 8.89145 7.55211 10.5318 8.20874 14.2745C8.32316 14.8356 8.59708 15.3511 8.99716 15.7581C9.35525 16.1083 9.87416 16.3941 10.5494 16.2246Z" fill="white"/>
</svg>
