<svg width="24" height="24" viewBox="0 0 24 24" fill="none" xmlns="http://www.w3.org/2000/svg">
<path d="M12 24C18.6276 24 24 18.6276 24 12C24 5.3724 18.6276 0 12 0C5.3724 0 0 5.3724 0 12C0 18.6276 5.3724 24 12 24Z" fill="#EDF0F4"/>
<path fill-rule="evenodd" clip-rule="evenodd" d="M10.8254 20.4306C11.1952 20.6419 11.6179 20.7582 12.0406 20.7582C12.4738 20.7582 12.8859 20.6419 13.2663 20.4306L18.6658 17.3135C19.416 16.8802 19.8809 16.0666 19.8809 15.2002V8.95536C19.8809 8.0889 19.416 7.27528 18.6658 6.84205L13.2663 3.72493C12.5055 3.2917 11.5756 3.2917 10.8254 3.72493L5.41535 6.84205C4.66512 7.27528 4.2002 8.0889 4.2002 8.95536V15.1896C4.2002 16.0666 4.66512 16.8697 5.42591 17.3135L10.8254 20.4306ZM11.2482 4.45403C11.4913 4.31666 11.766 4.2427 12.0407 4.2427C12.326 4.2427 12.6008 4.31666 12.8438 4.45403L18.2327 7.58172C18.7188 7.85645 19.0252 8.38477 19.0252 8.95537V15.2107C19.0252 15.7813 18.7188 16.2991 18.2327 16.5844L12.8332 19.7015C12.3366 19.9868 11.7343 19.9868 11.2377 19.7015L5.83818 16.5738C5.35212 16.2885 5.04569 15.7708 5.04569 15.2002V8.95537C5.04569 8.39534 5.34155 7.86701 5.83818 7.58172L11.2482 4.45403ZM12.0407 17.9263C11.8082 17.9263 11.5863 17.8629 11.3856 17.7467L7.45481 15.4855C7.05328 15.253 6.79969 14.8198 6.79969 14.3443V9.81125C6.79969 9.34633 7.04272 8.9131 7.45481 8.67007L11.3856 6.40883C11.7976 6.17637 12.2943 6.17637 12.6958 6.40883L16.616 8.67007C17.0175 8.90253 17.2711 9.33576 17.2711 9.81125V14.3443C17.2711 14.8092 17.0175 15.253 16.616 15.4855L12.6852 17.7467C12.495 17.8629 12.2731 17.9263 12.0407 17.9263ZM11.7025 6.95828C11.8082 6.89489 11.9244 6.86319 12.0406 6.86319C12.1674 6.86319 12.2837 6.89489 12.3788 6.95828L16.2989 9.21952C16.5103 9.34632 16.6371 9.56822 16.6371 9.81125V14.3443C16.6371 14.5873 16.5103 14.8092 16.2989 14.936L12.3788 17.1972C12.1674 17.324 11.9138 17.324 11.7025 17.1972L7.77176 14.936C7.56043 14.8092 7.43363 14.5873 7.43363 14.3443V9.81125C7.43363 9.56822 7.56043 9.34632 7.77176 9.21952L11.7025 6.95828ZM12.0406 15.0522C11.9244 15.0522 11.8081 15.0205 11.7025 14.9677L9.71596 13.8054C9.50463 13.6892 9.37783 13.4567 9.37783 13.2242V10.9207C9.37783 10.6777 9.50463 10.4558 9.71596 10.3396L11.7025 9.18781C11.9138 9.07158 12.1674 9.07158 12.3787 9.18781L14.3652 10.3396C14.5766 10.4558 14.7034 10.6777 14.7034 10.9207V13.2242C14.7034 13.4673 14.5766 13.6892 14.3652 13.8054L12.3787 14.9571C12.2731 15.0205 12.1568 15.0522 12.0406 15.0522ZM11.9139 9.55763C11.9561 9.5365 11.9984 9.52593 12.0407 9.52593C12.0829 9.52593 12.1252 9.5365 12.1675 9.55763L14.154 10.7094C14.228 10.7516 14.2808 10.8362 14.2808 10.9207V13.2242C14.2808 13.3087 14.228 13.4038 14.154 13.4461L12.1675 14.5979C12.0829 14.6401 11.9878 14.6401 11.9139 14.5979L9.92738 13.4461C9.85341 13.3933 9.80058 13.3087 9.80058 13.2242V10.9207C9.80058 10.8362 9.85341 10.7516 9.92738 10.7094L11.9139 9.55763Z" fill="url(#paint0_linear_300_13033)"/>
<defs>
<linearGradient id="paint0_linear_300_13033" x1="4.2002" y1="20.7569" x2="19.8851" y2="20.7569" gradientUnits="userSpaceOnUse">
<stop stop-color="#E168FD"/>
<stop offset="1" stop-color="#7B00FC"/>
</linearGradient>
</defs>
</svg>
