<svg width="24" height="24" viewBox="0 0 24 24" fill="none" xmlns="http://www.w3.org/2000/svg">
<path fill-rule="evenodd" clip-rule="evenodd" d="M12 24C5.4 24 0 18.6001 0 11.9402C0.06 5.34038 5.4 -0.0595036 12.06 0.000495204C18.66 0.060494 24 5.40038 24 12.1202C23.94 18.6601 18.6 24 12 24Z" fill="black"/>
<path d="M8.07407 18L9.80952 14.9947L11.545 12L13.2698 8.99471L13.5556 8.51852L13.6825 8.99471L14.2116 10.9735L13.619 12L11.8836 14.9947L10.1587 18H12.2328L13.9683 14.9947L14.8677 13.4392L15.291 14.9947L16.0952 18H17.9577L17.1534 14.9947L16.3492 12L16.1376 11.2275L17.4286 8.99471H15.545L15.4815 8.77249L14.8254 6.31746L14.7407 6H12.9312L12.8889 6.06349L11.1958 8.99471L9.46032 12L7.73545 14.9947L6 18H8.07407Z" fill="white"/>
</svg>
