<svg width="24" height="24" viewBox="0 0 24 24" fill="none" xmlns="http://www.w3.org/2000/svg">
<circle cx="12" cy="12" r="12" fill="#E7EFF3"/>
<path d="M14.8552 17.0439C14.1232 16.6925 13.5449 16.1411 13.3473 15.9093C13.2814 16.0971 13.113 16.5373 12.9666 16.795C12.7836 17.1171 12.4543 17.5489 12.1541 17.8125C11.854 18.076 10.8878 18.9836 9.83371 18.808C8.77964 18.6323 8.033 18.0979 7.68165 17.4391C7.33029 16.7803 7.28637 16.1215 7.45473 15.4408C7.58942 14.8962 7.92076 14.2818 8.0696 14.0427C7.90125 14.0817 7.41081 14.1042 6.79593 13.8816C6.02734 13.6035 5.56618 13.1863 5.30267 12.6519C5.03915 12.1175 4.94399 11.1733 5.03183 10.3095C5.11967 9.44576 5.6467 8.41365 6.86181 8.50149C7.8339 8.57176 8.85771 9.12613 9.24812 9.39452C9.13344 8.6552 8.97289 6.97747 9.24812 6.18106C9.59215 5.18555 10.4339 4.97327 11.4661 5.00255C12.4982 5.03183 13.0838 5.55887 13.4644 6.17374C13.7689 6.66564 13.8109 7.71093 13.7938 8.17209C14.072 7.89881 14.8537 7.33761 15.7555 7.27906C16.8828 7.20586 17.4245 7.40349 17.8783 7.74753C18.3322 8.09157 18.8446 8.74304 18.9617 9.41648C19.0788 10.0899 18.9178 10.5145 18.6103 11.0488C18.3644 11.4763 17.7466 11.9248 17.4684 12.0956C17.6368 12.2273 18.0423 12.5699 18.3175 12.8861C18.6616 13.2814 18.9836 13.9914 18.991 14.8625C18.9983 15.7336 18.7348 16.1289 18.5078 16.5095C18.2809 16.8901 17.8125 17.4757 17.0219 17.5416C16.2313 17.6075 15.7702 17.4831 14.8552 17.0439Z" fill="#DC8898"/>
<path d="M9.8559 16.4363C9.46355 16.8872 9.06779 16.9707 8.91895 16.956C8.97995 16.9146 9.13708 16.8082 9.27762 16.7145C9.4533 16.5974 10.0755 15.7922 10.2878 15.4701C10.4576 15.2124 11.0076 14.3087 11.2613 13.889L11.4077 13.9695C11.0539 14.6039 10.2482 15.9854 9.8559 16.4363Z" fill="#C57180"/>
<path d="M8.3476 11.1366C8.8922 11.2596 9.78963 11.6856 10.1703 11.8833L10.0458 12.1322C9.89943 12.059 9.55978 11.8862 9.37239 11.7808C9.13815 11.649 8.25244 11.327 7.63024 11.283C7.00805 11.2391 6.81773 11.3343 6.56153 11.4294C6.30533 11.5246 6.0711 11.7588 6.12234 11.5905C6.17358 11.4221 6.31265 11.2464 6.74453 11.1C7.17641 10.9536 7.66684 10.9829 8.3476 11.1366Z" fill="#C57180"/>
<path d="M11.6417 8.30378C11.6944 8.73712 11.7515 9.81169 11.7735 10.2948H11.5978C11.5953 10.1899 11.5919 9.92588 11.5978 9.70921C11.6051 9.43837 11.466 8.39162 11.3782 7.81334C11.3079 7.35072 11.0756 6.49331 10.9683 6.12244C11.0756 6.28103 11.3079 6.66118 11.3782 6.91299C11.466 7.22775 11.5758 7.7621 11.6417 8.30378Z" fill="#C57180"/>
<path d="M14.7233 10.002C14.2549 10.3358 13.7132 11.0537 13.5009 11.3709L13.3691 11.1659C13.4985 10.9902 13.82 10.5701 14.0719 10.2948C14.3866 9.95081 14.9063 9.54821 15.7188 9.16757C16.3689 8.86306 17.1511 8.97725 17.461 9.07241C17.3512 9.06509 17.0965 9.05484 16.9559 9.07241C16.7802 9.09437 16.568 9.10901 16.1361 9.21149C15.7042 9.31397 15.3089 9.58481 14.7233 10.002Z" fill="#C57180"/>
<path d="M15.2945 14.1452C14.8144 13.8231 13.5426 13.362 12.9668 13.1716L13.0912 12.9886C13.2669 13.0472 13.6798 13.1877 13.9257 13.2814C14.2331 13.3986 14.8187 13.7206 15.0383 13.8378C15.2579 13.9549 16.0046 14.4234 16.2242 14.5624C16.4438 14.7015 17.2197 15.2725 17.3734 15.4042C17.5271 15.536 17.5344 15.7336 17.4905 15.7849C17.4466 15.8361 17.3002 15.6385 17.1099 15.4408C16.9196 15.2432 15.8948 14.5478 15.2945 14.1452Z" fill="#C57180"/>
<ellipse cx="11.8319" cy="12.0224" rx="1.96907" ry="1.99103" fill="#FBECB3"/>
</svg>
