<svg width="24" height="24" viewBox="0 0 24 24" fill="none" xmlns="http://www.w3.org/2000/svg">
<path fill-rule="evenodd" clip-rule="evenodd" d="M12 0C5.376 0 0 5.376 0 12C0 18.624 5.376 24 12 24C18.624 24 24 18.624 24 12C24 5.376 18.624 0 12 0Z" fill="#29B2FF"/>
<path fill-rule="evenodd" clip-rule="evenodd" d="M8.5 8.19998L3 15.6H4.12391L5.31957 13.9797H9.14565V13.0608H5.98913L9.6 8.19998H8.5Z" fill="white"/>
<path fill-rule="evenodd" clip-rule="evenodd" d="M20.9999 15.6L15.4999 8.19998H14.3999L18.0108 13.0608H14.8543V13.9797H18.6803L19.876 15.6H20.9999Z" fill="white"/>
<path fill-rule="evenodd" clip-rule="evenodd" d="M11.6001 15.6H12.6001V4.19998H11.6001V15.6Z" fill="white"/>
<path fill-rule="evenodd" clip-rule="evenodd" d="M5.2002 13.8H9.00019V13.2H5.2002V13.8Z" fill="white"/>
<path fill-rule="evenodd" clip-rule="evenodd" d="M5.2002 13.8H9.00019V13.2H5.2002V13.8Z" stroke="white" stroke-width="1.4925"/>
<path fill-rule="evenodd" clip-rule="evenodd" d="M15 13.8H18.8V13.2H15V13.8Z" fill="white"/>
<path fill-rule="evenodd" clip-rule="evenodd" d="M15 13.8H18.8V13.2H15V13.8Z" stroke="white" stroke-width="1.4925"/>
</svg>
