<svg width="24" height="24" viewBox="0 0 24 24" fill="none" xmlns="http://www.w3.org/2000/svg">
<circle cx="12" cy="12" r="12" fill="#EDF0F4"/>
<path fill-rule="evenodd" clip-rule="evenodd" d="M12.8732 5.53114C14.0316 5.7988 14.907 6.27376 15.7544 7.09435C16.3001 7.62289 16.6602 8.11342 16.9721 8.75317C17.3203 9.46726 17.4866 10.0531 17.5719 10.8664L17.6001 11.1353L16.5342 11.1238L15.4683 11.1123L15.4378 10.9622C15.3303 10.4316 15.252 10.1415 15.1548 9.91357C14.5021 8.38184 13.0041 7.44788 11.3537 7.54375C9.70847 7.63927 8.27531 8.81734 7.84727 10.426C7.72653 10.8798 7.7149 11.8244 7.82463 12.2631C8.2126 13.8139 9.51635 15.0121 11.0201 15.1999L11.2647 15.2304V16.3026V17.3748L11.0288 17.3609C10.4535 17.3271 9.61933 17.0954 8.98833 16.7942C7.84723 16.2496 6.77961 15.1949 6.19562 14.0353C6.00727 13.6613 5.78075 12.9754 5.68137 12.4783C5.56431 11.8928 5.57533 10.7782 5.70393 10.1952C5.96348 9.01881 6.45765 8.08922 7.27786 7.2347C8.22594 6.24695 9.47062 5.61603 10.8358 5.43128C11.3445 5.36244 12.358 5.41211 12.8732 5.53114ZM16.5729 12.2457L17.5488 12.249V13.2998V14.3507H16.4764H15.4041V13.307C15.4041 12.7329 15.4151 12.2523 15.4285 12.2389C15.4419 12.2255 15.4853 12.2208 15.525 12.2285C15.5646 12.2361 16.0363 12.2439 16.5729 12.2457ZM14.5032 16.3239V17.3962H13.4308H12.3585V16.3239V15.2516H13.4308H14.5032V16.3239ZM17.5488 16.3239V17.3962H16.4764H15.4041V16.3525C15.4041 15.7784 15.417 15.2959 15.4327 15.2802C15.4484 15.2644 15.931 15.2516 16.505 15.2516H17.5488V16.3239Z" fill="black"/>
</svg>
