<svg width="24" height="24" viewBox="0 0 24 24" fill="none" xmlns="http://www.w3.org/2000/svg">
<circle cx="12.0001" cy="12" r="11.6129" fill="#F2E3EE"/>
<circle cx="12" cy="12" r="12" fill="#D9327C"/>
<path fill-rule="evenodd" clip-rule="evenodd" d="M11.5355 6.329C11.4388 6.40642 11.3226 6.5419 11.2452 6.79352C11.1678 7.04513 10.742 8.28384 10.2 9.83223H13.8194C13.2775 8.28384 12.8517 7.04513 12.7742 6.79352C12.6968 6.5419 12.5807 6.40642 12.4839 6.329C12.3871 6.25158 12.2517 6.19352 12 6.19352C11.7484 6.19352 11.6323 6.25158 11.5355 6.329ZM6.19451 9.83223H8.65257C9.25257 8.07094 9.77515 6.59998 9.85257 6.32901C10.0074 5.86449 10.259 5.45804 10.6461 5.16772C11.0332 4.8774 11.4977 4.74191 11.9816 4.74191C12.4655 4.74191 12.93 4.85804 13.3171 5.16772C13.7042 5.45804 13.9558 5.86449 14.1106 6.32901C14.2074 6.59998 14.7106 8.05159 15.3106 9.83223H17.8074C18.2139 9.83223 18.5429 10.1613 18.5429 10.5677C18.5429 10.9742 18.2139 11.3032 17.8074 11.3032H15.8526H14.3235H9.69773H8.1687H6.19451C5.78806 11.3032 5.47838 10.9742 5.47838 10.5677C5.47838 10.1613 5.80741 9.83223 6.19451 9.83223ZM6.19367 12.7354C5.78722 12.7354 5.47754 13.0645 5.47754 13.4709C5.47754 13.8774 5.80657 14.2064 6.19367 14.2064H7.16141L6.77431 15.329L6.38722 16.4516L6.23238 16.8774C6.09689 17.2645 6.3098 17.6709 6.67754 17.8064C7.06464 17.9419 7.47109 17.729 7.60657 17.3612L7.76141 16.9354L8.14851 15.8129C8.30335 15.3483 8.49689 14.8064 8.7098 14.2064H15.3292C15.5227 14.787 15.7162 15.3483 15.8904 15.8129L16.2775 16.9354L16.4324 17.3612C16.5679 17.7483 16.9743 17.9419 17.3614 17.8064C17.7485 17.6709 17.9421 17.2645 17.8066 16.8774L17.6517 16.4516L17.2646 15.329L16.8775 14.2064H17.8453C18.2517 14.2064 18.5808 13.8774 18.5808 13.4709C18.5808 13.0645 18.2517 12.7354 17.8453 12.7354H16.3743H14.8453H9.23238H7.70335H6.19367ZM17.0904 17.0903L17.7678 16.858C17.7678 16.858 17.7678 16.858 17.0904 17.0903ZM17.0904 17.0903C16.4129 17.3225 16.4129 17.3225 16.4129 17.3225L17.0904 17.0903ZM6.92916 17.0903L7.60658 17.3225C7.60658 17.3225 7.60658 17.3225 6.92916 17.0903ZM6.92915 17.0903C6.25173 16.858 6.25173 16.858 6.25173 16.858L6.92915 17.0903Z" fill="white"/>
</svg>
