<svg width="24" height="24" viewBox="0 0 24 24" fill="none" xmlns="http://www.w3.org/2000/svg">
<circle cx="12" cy="12" r="12" fill="#EDF0F4"/>
<path d="M6.20801 18C6.19967 17.8333 6.19689 17.6666 6.20523 17.4999C6.2608 17.4832 6.31636 17.4721 6.37471 17.4638C6.54142 17.436 6.70812 17.3943 6.86927 17.3471C6.91373 17.3332 6.95818 17.3165 7.00264 17.2998C7.21657 17.2165 7.40551 17.0776 7.54998 16.8997C7.65001 16.7747 7.73614 16.6386 7.81116 16.4969C7.91674 16.3024 8.00842 16.0996 8.09178 15.894C8.25848 15.4772 8.42519 15.0632 8.58911 14.6464C9.15591 13.2128 9.72271 11.7791 10.2895 10.3455C10.8257 8.98125 11.3536 7.61704 11.8704 6.2445C11.8815 6.21672 11.8927 6.18893 11.9038 6.16115C12.0955 6.10836 12.2816 6.05279 12.4761 6C12.4872 6.02778 12.4984 6.05279 12.5067 6.0778C12.7262 6.68905 12.9457 7.3003 13.1624 7.91433C13.9098 10.0009 14.6572 12.0847 15.424 14.163C15.6352 14.7298 15.8464 15.2994 16.0603 15.8662C16.1436 16.0968 16.2437 16.3246 16.3576 16.5413C16.4076 16.6358 16.4604 16.7247 16.5187 16.8136C16.6965 17.0915 16.9716 17.2887 17.2911 17.3721C17.4634 17.4165 17.6357 17.4527 17.8135 17.4749L17.9385 17.4943C17.9552 17.5499 17.9468 17.6027 17.9468 17.6555C17.9468 17.7083 17.9468 17.7694 17.9468 17.825C17.9496 17.8805 17.9468 17.9333 17.9441 17.9889C17.9274 17.9917 17.9135 17.9944 17.8968 17.9972C17.8774 17.9972 17.8579 17.9972 17.8385 17.9972H13.5014C13.4958 17.9889 13.493 17.9778 13.4903 17.9667C13.4903 17.8166 13.4903 17.6666 13.4903 17.5166C13.4903 17.511 13.493 17.5027 13.4958 17.4971C13.5319 17.486 13.568 17.4804 13.6069 17.4749C13.7875 17.4499 13.9654 17.4165 14.1432 17.3693C14.2126 17.3498 14.2849 17.3248 14.3516 17.2971C14.3849 17.2832 14.4182 17.2665 14.4516 17.247C14.6266 17.1498 14.6961 16.997 14.6794 16.8025C14.6711 16.7136 14.6572 16.6275 14.6322 16.5413C14.5961 16.408 14.5488 16.2774 14.5044 16.1496C13.5931 13.6073 12.6928 11.0623 11.801 8.51169C11.7926 8.48391 11.7871 8.45335 11.7593 8.42834C11.751 8.4339 11.7371 8.43945 11.7315 8.44501C11.7232 8.4589 11.7176 8.47279 11.7148 8.48669C11.2786 9.73975 10.8146 10.9845 10.3534 12.2264C10.0117 13.1461 9.66992 14.0685 9.35318 14.9965C9.22537 15.3688 9.10312 15.7439 8.98365 16.119C8.93642 16.2635 8.90308 16.4107 8.88085 16.558C8.86418 16.658 8.8614 16.758 8.87251 16.8608C8.88641 16.9914 8.95587 17.1109 9.06422 17.1887C9.13368 17.2387 9.21148 17.2776 9.29483 17.3054C9.42542 17.3526 9.55878 17.386 9.69493 17.4082C9.84496 17.436 9.995 17.4582 10.1478 17.4804C10.1589 17.4832 10.1673 17.4832 10.1811 17.486C10.1839 17.4971 10.1867 17.5082 10.1895 17.5193C10.1895 17.6638 10.1895 17.8111 10.1895 17.9555C10.1895 17.9639 10.1867 17.9722 10.1839 17.9806C10.17 17.9833 10.1561 17.9861 10.1423 17.9861C10.1228 17.9861 10.1034 17.9861 10.0839 17.9861L6.20801 18Z" fill="black"/>
</svg>
