<svg width="24" height="24" viewBox="0 0 24 24" fill="none" xmlns="http://www.w3.org/2000/svg">
<rect width="24" height="24" rx="12" fill="#1E1E1E"/>
<path opacity="0.4" d="M18.8269 14.5061C19.2427 15.2196 19.2445 16.1011 18.8316 16.8163C18.4187 17.5315 17.6544 17.9707 16.8286 17.9673C16.0028 17.964 15.242 17.5185 14.835 16.8L10.0038 8.43264C9.37028 7.3303 9.75033 5.92311 10.8527 5.2896C11.955 4.65608 13.3622 5.03614 13.9957 6.13848L18.8269 14.5061Z" fill="#4BDB4B"/>
<path opacity="0.8" d="M9.16558 16.8C8.5279 17.8936 7.12702 18.2673 6.02938 17.6366C4.93174 17.0059 4.54908 15.6075 5.1727 14.5058L10.0034 6.13871C10.4087 5.41654 11.1706 4.96766 11.9987 4.96318C12.8268 4.9587 13.5936 5.39931 14.0066 6.11706C14.4197 6.83481 14.4155 7.7191 13.9956 8.43287L9.16558 16.8Z" fill="#4BDB4B"/>
<path d="M13.982 6.11544C13.9554 6.07008 13.9266 6.02664 13.8973 5.98368C13.8831 5.96304 13.8697 5.94192 13.8548 5.92176C13.8262 5.88264 13.7955 5.84568 13.7648 5.80896C13.7461 5.7864 13.7281 5.76336 13.7084 5.74152C13.6806 5.7108 13.6513 5.68224 13.6222 5.6532C13.5932 5.62416 13.5714 5.60184 13.5445 5.57736C13.5176 5.55288 13.4922 5.5332 13.4658 5.51136C13.4326 5.484 13.3998 5.4564 13.3647 5.43072C13.3407 5.41296 13.3155 5.39688 13.2908 5.38032C13.2519 5.35392 13.2128 5.32776 13.1708 5.30352C13.1622 5.29848 13.1545 5.29248 13.1468 5.28744C13.1286 5.27688 13.1094 5.26896 13.0906 5.25888C13.0518 5.238 13.0126 5.2176 12.973 5.19912C12.9397 5.18328 12.9056 5.16912 12.8713 5.1552C12.837 5.14128 12.8043 5.12808 12.7705 5.11608C12.7306 5.102 12.6906 5.08904 12.6505 5.0772C12.6207 5.06832 12.5912 5.05992 12.5612 5.0532C12.5182 5.0424 12.4748 5.03304 12.4314 5.02464C12.4018 5.01912 12.3721 5.01384 12.3426 5.00928C12.3001 5.00304 12.2576 4.998 12.2146 4.99392C12.1817 4.99072 12.1488 4.98832 12.116 4.98672C12.0774 4.9848 12.0388 4.98384 12.0001 4.98384C11.9619 4.98384 11.924 4.98384 11.8858 4.98672C11.8525 4.9884 11.8189 4.9908 11.7853 4.99392C11.7433 4.998 11.701 5.0028 11.6593 5.00928C11.629 5.01384 11.5988 5.01912 11.5688 5.02488C11.5256 5.03304 11.4828 5.0424 11.4404 5.05296C11.4099 5.06064 11.3797 5.06928 11.3494 5.07816C11.3094 5.09 11.2694 5.1028 11.2294 5.11656C11.1949 5.1288 11.1606 5.14248 11.1265 5.1564C11.0924 5.17032 11.0598 5.184 11.0271 5.19936C10.9866 5.21832 10.9465 5.2392 10.9071 5.26056C10.8891 5.2704 10.8706 5.27808 10.8529 5.2884C10.8445 5.2932 10.837 5.29896 10.8289 5.30376C10.7866 5.32776 10.7461 5.3556 10.7062 5.38272C10.6822 5.39856 10.6582 5.41392 10.6359 5.43072C10.5992 5.45784 10.5639 5.48664 10.5294 5.51568C10.5054 5.53584 10.4814 5.55528 10.4574 5.57664C10.4278 5.60328 10.4002 5.6316 10.3724 5.65944C10.3446 5.68728 10.3177 5.712 10.2937 5.73936C10.2697 5.76672 10.2502 5.79072 10.2286 5.81664C10.2013 5.85 10.1734 5.88336 10.1478 5.9184C10.1295 5.9424 10.1132 5.96856 10.0962 5.99376C10.0702 6.03192 10.0446 6.07056 10.0208 6.11088C9.59729 6.8246 9.59105 7.71111 10.0045 8.43072L12.0006 11.8882L13.9964 8.43072C14.4089 7.71269 14.4034 6.82828 13.982 6.11544Z" fill="#4BDB4B"/>
</svg>
