<svg width="24" height="24" viewBox="0 0 24 24" fill="none" xmlns="http://www.w3.org/2000/svg">
<circle cx="12" cy="12" r="12" fill="#EDF0F4"/>
<path fill-rule="evenodd" clip-rule="evenodd" d="M12.8199 6.18L16.7499 8.19C17.3199 8.49 17.6799 9.06 17.6799 9.72V10.65H16.2399V9.72C16.2399 9.63 16.1799 9.54 16.0899 9.48L12.1599 7.47C12.0999 7.44 12.0099 7.44 11.9199 7.47L7.9899 9.48C7.8999 9.51 7.8399 9.6 7.8399 9.72V10.65H6.3999V9.72C6.3999 9.09 6.7599 8.49 7.3299 8.19L11.2599 6.18C11.7399 5.94 12.3099 5.94 12.8199 6.18ZM13.27 11.94C13.27 11.25 12.7 10.71 12.04 10.71C11.35 10.71 10.81 11.25 10.81 11.94C10.81 12.63 11.38 13.17 12.04 13.17C12.7 13.17 13.27 12.63 13.27 11.94ZM16.0599 14.52C16.1499 14.49 16.2099 14.4 16.2099 14.28V13.35H17.6499V14.28C17.6499 14.91 17.2899 15.51 16.7199 15.81L12.7899 17.82C12.5499 17.94 12.2799 18 12.0099 18C11.7399 18 11.4699 17.94 11.2299 17.82L7.3299 15.81C6.7599 15.51 6.3999 14.94 6.3999 14.28V13.35H7.8399V14.28C7.8399 14.37 7.8999 14.46 7.9899 14.52L11.3199 16.2V14.52C10.1799 14.19 9.3699 13.17 9.3699 11.94C9.3699 10.47 10.5699 9.24001 12.0699 9.24001C13.5399 9.24001 14.7699 10.44 14.7699 11.94C14.7699 13.17 13.9299 14.22 12.8199 14.52V16.2L16.0599 14.52Z" fill="#245AE5" fill-opacity="0.9"/>
</svg>
