<svg width="24" height="24" viewBox="0 0 24 24" fill="none" xmlns="http://www.w3.org/2000/svg">
<circle cx="12" cy="12" r="12" fill="#EDF0F4"/>
<path d="M18.2101 10.5757C18.2628 9.47241 17.4921 8.74006 16.621 8.23746L16.0562 11.5618C16.2921 11.529 16.5307 11.6006 16.7095 11.758C16.9194 11.9639 16.9381 12.2958 16.7526 12.5239C17.2983 12.433 18.1479 11.9088 18.2101 10.5757Z" fill="url(#paint0_linear_300_11461)"/>
<path fill-rule="evenodd" clip-rule="evenodd" d="M10.7905 6.71053L10.1203 6.03322C11.1351 5.90877 13.8132 6.06672 16.4052 7.69179C16.4289 7.83682 16.4289 7.98474 16.4052 8.12977L16.623 8.23986C16.9747 8.82329 17.0765 9.52383 16.9054 10.1832C16.6804 11.0831 16.2951 11.4804 16.1228 11.5618C15.7758 11.5618 15.1846 11.7628 14.9931 12.6531C14.8017 13.5435 14.4331 13.7373 14.2751 13.723L10.4458 13.7684L7.91847 12.2798L7.55469 9.19958L8.27268 8.24225L9.55551 7.19398L10.4698 6.82062L10.7905 6.71053ZM15.3159 7.97181C15.2078 8.08643 15.0816 8.18263 14.9425 8.25662C13.9589 8.046 13.6023 7.53862 13.6023 7.53862C14.4387 7.51364 15.2662 7.71719 15.9956 8.12738C15.7735 8.05768 15.5462 8.00566 15.3159 7.97181Z" fill="url(#paint1_linear_300_11461)"/>
<path fill-rule="evenodd" clip-rule="evenodd" d="M14.9599 12.6532C14.2314 13.0035 13.4324 13.1828 12.624 13.1773C10.2091 13.1773 8.2538 11.6599 8.2538 9.79075C8.2538 8.40741 9.32123 7.22032 10.8506 6.69379C7.94028 6.86132 5.59961 9.1996 5.59961 12.0859C5.59961 15.4174 8.56972 18.1698 12.2267 18.1698C14.8145 18.1484 17.1888 16.7306 18.435 14.4625C16.7956 14.8311 14.8594 14.1298 14.9599 12.6532Z" fill="url(#paint2_linear_300_11461)"/>
<defs>
<linearGradient id="paint0_linear_300_11461" x1="15.9679" y1="9.5469" x2="17.2117" y2="13.3095" gradientUnits="userSpaceOnUse">
<stop stop-color="#01E8F7"/>
<stop offset="1" stop-color="#00C2FF"/>
</linearGradient>
<linearGradient id="paint1_linear_300_11461" x1="6.49903" y1="8.65073" x2="9.37057" y2="15.3701" gradientUnits="userSpaceOnUse">
<stop stop-color="#01E8F7"/>
<stop offset="1" stop-color="#00B3EC"/>
</linearGradient>
<linearGradient id="paint2_linear_300_11461" x1="17.5496" y1="12.8583" x2="17.8309" y2="2.75173" gradientUnits="userSpaceOnUse">
<stop stop-color="#01E8F7"/>
<stop offset="1" stop-color="#00C2FF"/>
</linearGradient>
</defs>
</svg>
