<svg width="24" height="24" viewBox="0 0 24 24" fill="none" xmlns="http://www.w3.org/2000/svg">
<circle cx="12" cy="12" r="12" fill="#EDF0F4"/>
<path d="M18.9146 13.7642L12.2232 18.7119C12.1345 18.7769 12.0044 18.7828 11.9158 18.7178L5.11796 13.912C4.98791 13.8174 4.95836 13.6283 5.06476 13.5042L11.7503 5.48863C11.8448 5.37041 12.0222 5.37041 12.1227 5.48863L18.9501 13.4569C19.0269 13.5514 19.0151 13.6933 18.9146 13.7642Z" fill="#FFF4FC"/>
<path d="M18.554 13.5987L12.1936 18.2981L12.1581 13.5101L12.1108 5.99109L18.4062 13.4214L18.554 13.5987Z" fill="url(#paint0_linear_300_14702)"/>
<path d="M5.37817 13.6992L11.9041 18.2981L11.7563 5.99109L5.37817 13.6992Z" fill="url(#paint1_linear_300_14702)"/>
<path d="M11.8509 13.5219L5.42546 13.646L5.37817 13.6992L11.9041 18.2981L11.8509 13.5219Z" fill="url(#paint2_linear_300_14702)"/>
<path d="M12.158 13.5101L18.406 13.4214L18.5538 13.5987L12.1934 18.2981L12.158 13.5101Z" fill="url(#paint3_linear_300_14702)"/>
<path d="M9.63387 10.3181L9.00401 9.54124L8.99368 9.54985L9.63387 10.3181ZM10.3728 14.911L11.0454 15.651L11.05 15.6468L10.3728 14.911ZM8.54031 15.3012L8.6325 16.2969L8.63699 16.2965L8.54031 15.3012ZM11.0351 8.65116L11.9418 8.22943L11.9411 8.22781L11.0351 8.65116ZM17.1826 12.8126L16.2685 13.218L16.269 13.2193L17.1826 12.8126ZM16.0299 11.7722L15.6272 12.6876L15.6345 12.6908L15.6419 12.6939L16.0299 11.7722ZM15.1846 11.5003L14.8644 12.4477L14.8757 12.4514L15.1846 11.5003ZM14.3689 11.2225L14.7299 10.2899L14.72 10.2862L14.3689 11.2225ZM12.9089 10.5013L13.4488 9.65961L13.441 9.6547L12.9089 10.5013ZM12.1724 14.4509L18.4205 14.3623L18.3921 12.3625L12.1441 12.4511L12.1724 14.4509ZM11.8314 12.463L5.40598 12.5871L5.44461 14.5868L11.87 14.4626L11.8314 12.463ZM12.4286 10.5701C11.7173 10.026 11.1492 9.66182 10.6913 9.46163C10.4629 9.36182 10.2068 9.27786 9.93954 9.26013C9.65901 9.24153 9.308 9.29488 9.00407 9.54131L10.2637 11.0948C10.0691 11.2526 9.87325 11.2601 9.80719 11.2558C9.75437 11.2522 9.77204 11.2425 9.89023 11.2942C10.1253 11.397 10.5415 11.6446 11.2134 12.1586L12.4286 10.5701ZM8.99368 9.54985C8.57262 9.90073 8.52622 10.388 8.52919 10.6379C8.53242 10.91 8.59539 11.1831 8.65851 11.4053C8.7846 11.8493 9.00597 12.3974 9.17659 12.8486C9.36448 13.3454 9.50759 13.7642 9.56378 14.0883C9.63362 14.491 9.50328 14.3522 9.69549 14.1753L11.05 15.6468C11.6885 15.059 11.6136 14.2035 11.5344 13.7466C11.4415 13.2109 11.2311 12.627 11.0473 12.1411C10.8462 11.6095 10.6778 11.1949 10.5824 10.859C10.5606 10.7822 10.5464 10.7218 10.5379 10.6759C10.5291 10.6283 10.529 10.61 10.529 10.6141C10.5291 10.6154 10.5304 10.6709 10.5028 10.7551C10.4724 10.8478 10.4056 10.9767 10.2741 11.0863L8.99368 9.54985ZM9.70009 14.1711C9.78698 14.0921 9.82449 14.1252 9.56307 14.1741C9.32033 14.2195 8.97906 14.2538 8.44362 14.3059L8.63699 16.2965C9.13601 16.248 9.58091 16.2055 9.93076 16.14C10.2619 16.0781 10.6985 15.9664 11.0454 15.651L9.70009 14.1711ZM8.44811 14.3054C8.15135 14.3329 7.91705 14.3426 7.78368 14.3426V16.3426C7.99315 16.3426 8.29086 16.3285 8.6325 16.2969L8.44811 14.3054ZM14.9267 12.6688L12.8046 10.8127L11.4879 12.3181L13.61 14.1742L14.9267 12.6688ZM9.74731 7.09453C9.72333 7.48632 9.73982 8.24139 10.1291 9.07451L11.9411 8.22781C11.7392 7.79594 11.7321 7.40425 11.7436 7.21675L9.74731 7.09453ZM10.1284 9.07289C10.443 9.74929 10.8741 10.1864 11.1405 10.4224L12.4666 8.9252C12.3192 8.79465 12.1001 8.56975 11.9418 8.22943L10.1284 9.07289ZM17.6974 15.3502C17.7487 15.2761 17.9875 14.9227 18.1516 14.4244C18.3136 13.9326 18.4407 13.1797 18.0962 12.4059L16.269 13.2193C16.3324 13.3617 16.3324 13.5546 16.252 13.7988C16.1738 14.0364 16.0549 14.2091 16.053 14.2118L17.6974 15.3502ZM18.0968 12.4072C17.6199 11.332 16.5213 10.8941 16.418 10.8506L15.6419 12.6939C15.6727 12.7068 15.8062 12.7631 15.9534 12.8685C16.1067 12.9782 16.2158 13.0992 16.2685 13.218L18.0968 12.4072ZM16.4327 10.8569C16.298 10.7977 16.2089 10.7712 16.0974 10.7379C15.9952 10.7074 15.8291 10.6582 15.4936 10.5492L14.8757 12.4514C15.2318 12.5671 15.4144 12.6213 15.5251 12.6543C15.6264 12.6846 15.6141 12.6818 15.6272 12.6876L16.4327 10.8569ZM15.5049 10.553C15.0466 10.3981 14.8867 10.3506 14.7299 10.2899L14.0079 12.1551C14.2176 12.2362 14.4833 12.3188 14.8644 12.4477L15.5049 10.553ZM14.72 10.2862C14.4601 10.1887 13.9873 10.0051 13.4488 9.65965L12.3689 11.343C13.0836 11.8015 13.7102 12.0435 14.0178 12.1588L14.72 10.2862ZM13.441 9.6547C13.2743 9.54992 13.0428 9.38641 12.7702 9.16194L11.4988 10.7058C11.8292 10.9779 12.1296 11.1927 12.3767 11.348L13.441 9.6547Z" fill="#98C9C0"/>
<defs>
<linearGradient id="paint0_linear_300_14702" x1="12.1098" y1="18.3007" x2="18.5555" y2="18.3007" gradientUnits="userSpaceOnUse">
<stop stop-color="#3B8270"/>
<stop offset="1" stop-color="#305C6E"/>
</linearGradient>
<linearGradient id="paint1_linear_300_14702" x1="5.38068" y1="18.2974" x2="11.9055" y2="18.2974" gradientUnits="userSpaceOnUse">
<stop stop-color="#4E7F98"/>
<stop offset="1" stop-color="#3BC0B5"/>
</linearGradient>
<linearGradient id="paint2_linear_300_14702" x1="5.38068" y1="18.2972" x2="11.9055" y2="18.2972" gradientUnits="userSpaceOnUse">
<stop stop-color="#30435C"/>
<stop offset="1" stop-color="#299AA9"/>
</linearGradient>
<linearGradient id="paint3_linear_300_14702" x1="12.1593" y1="18.3002" x2="18.5553" y2="18.3002" gradientUnits="userSpaceOnUse">
<stop stop-color="#2E2C29"/>
<stop offset="1" stop-color="#323232"/>
</linearGradient>
</defs>
</svg>
