<svg width="24" height="24" viewBox="0 0 24 24" fill="none" xmlns="http://www.w3.org/2000/svg">
<path fill-rule="evenodd" clip-rule="evenodd" d="M12 24C5.4 24 0 18.6001 0 11.9402C0.06 5.34038 5.4 -0.0595036 12.06 0.000495204C18.66 0.060494 24 5.40038 24 12.1202C23.94 18.6601 18.6 24 12 24Z" fill="#EDF0F4"/>
<circle cx="12" cy="12" r="9" fill="url(#paint0_linear_300_15170)"/>
<ellipse cx="11.9999" cy="12" rx="8.1" ry="8.1" stroke="white" stroke-width="3"/>
<path fill-rule="evenodd" clip-rule="evenodd" d="M14.9358 12.4711L15.9345 15.1696V15.1769C15.9867 15.3304 16.0254 15.4881 16.0501 15.6481C16.0527 15.7986 16.0134 15.9469 15.9364 16.077C15.8481 16.1927 15.7433 16.2952 15.6252 16.3814C15.4891 16.4576 15.3346 16.4963 15.178 16.4932C14.7572 16.5182 14.373 16.2582 14.2464 15.8626L13.8532 14.682H10.2365L9.84333 15.8351C9.73124 16.2451 9.34262 16.5219 8.91167 16.4987C8.66274 16.5007 8.42159 16.4134 8.23342 16.253C8.06242 16.0954 7.96078 15.8783 7.9502 15.6481C7.95557 15.4839 7.99026 15.3219 8.05268 15.1696L9.06819 12.4675H8.47006C8.23616 12.4665 8.04709 12.2796 8.04709 12.0495C8.04709 11.8247 8.23229 11.6425 8.46075 11.6425H9.39241L9.55265 11.2337H8.51292C8.27623 11.2337 8.08435 11.0449 8.08435 10.8121C8.08538 10.588 8.27028 10.4069 8.49801 10.4069H9.86756L10.6483 8.37209C10.7608 8.08412 10.9454 7.82875 11.1849 7.62964C11.424 7.44026 11.7241 7.3414 12.0309 7.35099C12.3369 7.33911 12.6366 7.43828 12.8731 7.62964C13.1125 7.82848 13.2965 8.08398 13.4079 8.37209L14.1532 10.3886H15.5302C15.6445 10.3881 15.7543 10.4326 15.8351 10.5121C15.9159 10.5916 15.9611 10.6996 15.9606 10.8121C15.9546 11.0406 15.7645 11.2228 15.5321 11.2227H14.4718L14.6209 11.6425H15.5526C15.6613 11.6425 15.7655 11.685 15.8424 11.7606C15.9193 11.8363 15.9625 11.9389 15.9625 12.0458C15.9615 12.2796 15.7697 12.4691 15.5321 12.4711H14.9358ZM12.0234 9.26851L10.8159 12.8836H13.2532L12.0234 9.26851Z" fill="#FEFEFE"/>
<defs>
<linearGradient id="paint0_linear_300_15170" x1="0.136112" y1="12.4185" x2="12.3474" y2="25.6441" gradientUnits="userSpaceOnUse">
<stop stop-color="#FC8F55"/>
<stop offset="0.44" stop-color="#FE7A6A"/>
<stop offset="1" stop-color="#FE687C"/>
</linearGradient>
</defs>
</svg>
