<svg width="24" height="24" viewBox="0 0 24 24" fill="none" xmlns="http://www.w3.org/2000/svg">
<circle cx="12" cy="12" r="12" fill="#EDF0F4"/>
<circle cx="12" cy="12" r="7.5" stroke="#222326" stroke-width="3"/>
<path fill-rule="evenodd" clip-rule="evenodd" d="M13.6471 15.0295C13.6644 15.0911 13.6794 15.1444 13.7136 15.1785H15.5999V15.057C15.5391 14.9355 15.4782 14.6926 15.4174 14.4496L15.4174 14.4496C15.3565 14.2066 15.3565 13.9029 15.3565 13.5384V10.5012C15.3565 10.076 15.2348 9.71157 15.1131 9.40785C14.9914 9.10413 14.748 8.80041 14.5046 8.61818C14.2004 8.3752 13.8961 8.25372 13.531 8.13223C13.1659 8.01074 12.8008 7.95 12.3749 7.95C11.8881 7.95 11.4622 8.01074 11.0971 8.13223C10.732 8.25372 10.4277 8.43595 10.1843 8.61818C9.88009 8.86115 9.69754 9.10413 9.57585 9.3471C9.45415 9.59008 9.3933 9.8938 9.3933 10.1975H11.2188C11.2188 9.95454 11.2796 9.77231 11.4622 9.59008C11.6447 9.40785 11.8881 9.3471 12.2532 9.3471C12.6791 9.3471 12.9834 9.46859 13.2268 9.65082C13.4093 9.83305 13.531 10.076 13.531 10.4405V10.8657H12.4966C11.4013 10.8657 10.5494 11.0479 10.0018 11.4731C9.45415 11.8376 9.1499 12.445 9.1499 13.174C9.1499 13.4777 9.21075 13.7814 9.33245 14.0244C9.45415 14.2674 9.57585 14.5103 9.81924 14.6926C10.0626 14.8748 10.306 14.9963 10.6103 15.1178C10.9145 15.2393 11.2188 15.3 11.5839 15.3C11.7664 15.3 12.0098 15.3 12.1924 15.2393C12.3546 15.1988 12.4628 15.1583 12.571 15.1178C12.6251 15.0975 12.6791 15.0773 12.74 15.057C12.7687 15.0427 12.8008 15.0283 12.8348 15.0132C12.9445 14.9642 13.073 14.9069 13.1659 14.814C13.2268 14.7533 13.2876 14.7077 13.3485 14.6622C13.4093 14.6166 13.4702 14.5711 13.531 14.5103C13.531 14.5711 13.5462 14.6318 13.5615 14.6926C13.5767 14.7533 13.5919 14.814 13.5919 14.8748C13.6186 14.9281 13.6335 14.9813 13.6471 15.0295ZM12.4359 13.8421C12.3142 13.9029 12.1316 13.9029 11.9491 13.9029C11.6448 13.9029 11.3406 13.8421 11.158 13.6599C10.9755 13.4777 10.9146 13.2955 10.9146 13.0525C10.9146 12.931 10.9146 12.7488 10.9755 12.6273C11.0206 12.4921 11.0992 12.4238 11.1865 12.3479C11.2168 12.3215 11.2483 12.2942 11.2797 12.2628C11.4014 12.1413 11.584 12.0806 11.7665 12.0198C11.9491 11.9591 12.1925 11.9591 12.4967 11.9591H13.4094V13.174L13.166 13.4169C13.1052 13.5384 12.9835 13.5992 12.8618 13.6599C12.7401 13.7207 12.6184 13.7814 12.4359 13.8421Z" fill="#222326"/>
</svg>
