<svg width="24" height="24" viewBox="0 0 24 24" fill="none" xmlns="http://www.w3.org/2000/svg">
<circle cx="12" cy="12" r="12" fill="#EDF0F4"/>
<ellipse cx="11.9998" cy="12" rx="7.2" ry="7.2" fill="#0092B5"/>
<path fill-rule="evenodd" clip-rule="evenodd" d="M9.66513 10.9888L8.27598 8.51383C9.22278 8.01118 10.3977 7.74748 11.8017 7.72498L9.92883 11.0217C9.84618 10.9846 9.75433 10.9732 9.66513 10.9888ZM12.019 7.75379L10.0921 11.1459H10.0917C10.2313 11.3144 10.2248 11.5602 10.0764 11.721L11.8192 14.8255C11.9422 14.7686 12.0841 14.7696 12.2062 14.8282L13.8996 11.7736C13.7927 11.6921 13.7291 11.5661 13.7269 11.4317C13.7247 11.2973 13.7842 11.1692 13.8883 11.0842L12.055 7.75379C12.0298 7.74344 12.0226 7.74749 12.019 7.75379ZM11.6572 14.9524L9.90764 11.8361V11.8366C9.83661 11.8639 9.75993 11.8732 9.68444 11.8636L8.56304 13.8373C8.67054 14.0636 8.79763 14.2802 8.94284 14.4844C9.28619 14.5649 10.1637 14.7742 11.5762 15.1126C11.5919 15.0542 11.6195 14.9996 11.6572 14.9524ZM9.29369 11.4338C9.29064 11.2893 9.35879 11.1526 9.47598 11.068L8.10033 8.61731C7.99878 8.69856 7.94306 8.8241 7.95093 8.95391L8.15928 12.2758C8.18776 12.7322 8.28956 13.1811 8.46078 13.6051L9.49128 11.7916C9.37062 11.7121 9.29675 11.5783 9.29369 11.4338ZM12.4459 15.1171C12.4309 15.0591 12.4041 15.0047 12.3671 14.9574L14.0852 11.8582C14.1594 11.8731 14.2361 11.8694 14.3084 11.8474L15.4218 13.8697C15.3273 14.0641 15.2184 14.2513 15.096 14.43L12.4459 15.1171ZM12.4485 15.3246C12.4091 15.4905 12.2787 15.6195 12.1124 15.6571V16.72C12.1512 16.709 12.1882 16.6923 12.2222 16.6705L13.8525 15.6292C14.2519 15.3748 14.6069 15.0568 14.9037 14.6878L12.4485 15.3246ZM11.9083 15.6576V16.725C11.862 16.7145 11.8179 16.696 11.7778 16.6705L10.1475 15.6292C9.76628 15.3863 9.42528 15.0853 9.13678 14.7373C9.58228 14.8431 10.3936 15.0366 11.5708 15.3183C11.6068 15.4861 11.7391 15.6189 11.9083 15.6576ZM14.0708 10.9942C14.1549 10.9742 14.243 10.9786 14.3246 11.0068L15.7106 8.50707C14.7832 8.01702 13.6366 7.75647 12.2722 7.72632L14.0708 10.9942ZM14.4971 11.1153L15.8876 8.60791C15.9967 8.6884 16.0577 8.81862 16.0496 8.95396L15.8413 12.2763C15.8119 12.7443 15.7055 13.2042 15.5263 13.6376L14.485 11.7462C14.5722 11.6653 14.6228 11.5523 14.6251 11.4333C14.6274 11.3144 14.5812 11.1995 14.4971 11.1153ZM11.7566 10.0956C11.7605 9.96327 11.8677 9.8574 12.0001 9.85529L12.0005 9.85574C12.1325 9.85807 12.2395 9.96362 12.2435 10.0956V10.9749L13.5422 11.775L13.3834 12.0954L12.2435 11.6949V12.5742L12.5684 12.814V13.0539L12.0001 12.8941L11.4317 13.0543V12.8145L11.7566 12.5746V11.6953L10.597 12.0751L10.4579 11.775L11.7566 10.9749V10.0956Z" fill="white"/>
</svg>
