<svg width="24" height="24" viewBox="0 0 24 24" fill="none" xmlns="http://www.w3.org/2000/svg">
<circle cx="12" cy="12" r="12" fill="white"/>
<path fill-rule="evenodd" clip-rule="evenodd" d="M12 0C5.3712 0 0 5.3712 0 12C0 18.6288 5.3712 24 12 24C18.6288 24 24 18.6288 24 12C24 5.3712 18.6288 0 12 0ZM6.58312 8.89799C6.58312 7.41479 7.78552 6.22079 9.27832 6.22079H15.4271C16.1303 6.22079 16.8059 6.49679 17.3075 6.98999L14.1611 8.57279H9.82912C9.34072 8.57279 8.95192 8.9256 8.95192 9.3504V11.2764L6.59152 12.5064V8.89799H6.58312ZM15.4176 15.582C16.8924 15.582 18.0948 14.388 18.0948 12.9048L18.0936 8.7624L15.7428 9.9468V12.3C15.7428 12.7344 15.336 13.0872 14.8476 13.0872H9.66596L6.58196 14.6964V18.6756H7.50476L8.30996 18.6576C8.65436 18.576 8.94356 18.2592 8.94356 17.8704V15.582H15.4176Z" fill="url(#paint0_linear_300_11926)"/>
<defs>
<linearGradient id="paint0_linear_300_11926" x1="0" y1="24" x2="24" y2="24" gradientUnits="userSpaceOnUse">
<stop stop-color="#B38C30"/>
<stop offset="1" stop-color="#F2DE98"/>
</linearGradient>
</defs>
</svg>
