<svg width="24" height="24" viewBox="0 0 24 24" fill="none" xmlns="http://www.w3.org/2000/svg">
<circle cx="12" cy="12" r="12" fill="#00688C"/>
<path fill-rule="evenodd" clip-rule="evenodd" d="M20.2003 7.55262V17.0556L20.1995 17.0564L11.988 21.8L11.9872 21.7992L3.80029 17.0586V7.55787L11.9805 2.80599L11.9917 2.8L20.2003 7.55262ZM16.5669 15.536L15.1674 14.7295L12.0433 16.5525C12.0249 16.5633 12.0021 16.5633 11.9837 16.5525L8.3993 14.4641L8.39781 10.831L5.2491 9.01635L11.9613 5.06083C11.9668 5.05745 11.9737 5.05745 11.9792 5.06083L18.2132 8.64366L17.1107 9.2848L11.9822 6.31834L7.43402 9.0021L9.01173 9.91318L11.9851 8.175L11.9866 8.1735L15.6195 10.2619L15.618 13.7187L18.7145 15.5012L18.7137 15.5536L11.9881 19.5009L5.75337 15.9226L6.84471 15.2799L11.9777 18.2396L16.5669 15.536Z" fill="white"/>
<path d="M12.9764 11.4121V11.3866L12.9756 11.3702L12.9749 11.3612L12.9734 11.3424V11.3364L12.9711 11.3162V11.3109L12.9681 11.2899V11.2862L12.9652 11.2644V11.2614L12.9614 11.2389L12.9607 11.2374L12.9562 11.2149L12.9555 11.2127L12.9502 11.1902V11.1887C12.9488 11.1811 12.9471 11.1736 12.945 11.1662V11.1647L12.9383 11.1422V11.1414L12.9316 11.1174C12.9276 11.1021 12.9226 11.0871 12.9167 11.0725V11.0717L12.9077 11.0492C12.905 11.0416 12.902 11.0341 12.8988 11.0267L12.8891 11.0042L12.8794 10.9832L12.8689 10.9607L12.8585 10.9397L12.8466 10.9187C12.8425 10.912 12.8385 10.9053 12.8346 10.8985V10.8977L12.8227 10.8782L12.8219 10.8775C12.8179 10.8711 12.8137 10.8649 12.8093 10.8587V10.8572L12.7966 10.8392C12.7966 10.8392 12.7966 10.8377 12.7951 10.8377L12.7824 10.8198L12.7809 10.8183C12.7764 10.8123 12.7735 10.8063 12.7682 10.8003L12.7675 10.7988L12.7533 10.7815L12.7518 10.78L12.7384 10.7635L12.7369 10.762L12.722 10.7463C12.7213 10.7456 12.7208 10.7449 12.7205 10.744L12.7063 10.7283C12.7057 10.7276 12.7052 10.7269 12.7048 10.726L12.6906 10.711C12.6849 10.7053 12.6792 10.6995 12.6735 10.6938L12.6713 10.6915L12.6563 10.6765C12.6506 10.6715 12.6449 10.6665 12.6392 10.6615L12.6369 10.6593C12.6318 10.6544 12.6266 10.6496 12.6213 10.645L12.619 10.6428C12.6139 10.6384 12.6087 10.6341 12.6034 10.63L12.6011 10.6285L12.5847 10.615L12.5825 10.6135L12.5653 10.6008L12.5631 10.5993L12.5459 10.5865L12.5437 10.585L12.5265 10.573L12.5243 10.5723L12.5064 10.5603L12.5049 10.5588L12.4863 10.5476H12.4848L12.4654 10.5356H12.4639L12.4437 10.5236H12.443C11.9483 10.3135 11.3768 10.5333 11.1479 11.0217C10.919 11.51 11.1143 12.093 11.5904 12.3427L11.1577 14.3314H12.7943L12.3579 12.3442C12.7324 12.1868 12.9764 11.8193 12.9764 11.4121Z" fill="white"/>
</svg>
