<svg width="24" height="24" viewBox="0 0 24 24" fill="none" xmlns="http://www.w3.org/2000/svg">
<circle cx="12" cy="12" r="12" fill="#EDF0F4"/>
<path fill-rule="evenodd" clip-rule="evenodd" d="M18.8235 11.808L18.3988 11.3821L12.0724 5L5.74358 11.3821L5.2002 11.93L5.39654 12.1004C5.618 12.2869 5.84632 12.4642 6.08148 12.63C8.58376 14.4074 11.6865 14.9438 14.5518 14.237C15.7208 13.9515 16.8304 13.4611 17.8326 12.7888C18.0815 12.623 18.3235 12.4435 18.5609 12.2547C18.6911 12.1488 18.8189 12.0406 18.9445 11.93L18.8235 11.808ZM15.5382 15.3974L12.0724 18.8923L10.3532 17.1587C12.2071 17.0481 13.9971 16.4403 15.5382 15.3974ZM7.46506 11.6376C9.67968 11.6284 11.8532 12.2432 13.7413 13.4127C14.9491 13.1963 16.1043 12.7428 17.1386 12.0797C13.892 10.1964 10.3509 10.3691 7.46506 11.6376Z" fill="#2B71FF"/>
</svg>
