<svg width="24" height="24" viewBox="0 0 24 24" fill="none" xmlns="http://www.w3.org/2000/svg">
<circle cx="12" cy="12" r="12" fill="#EDF0F4"/>
<path d="M6.12104 6.92908C6.12104 6.94201 6.1225 6.9547 6.12299 6.96764V6.89272C6.12226 6.90492 6.12104 6.91688 6.12104 6.92908Z" fill="#008C98"/>
<path d="M18.0939 6.89248C18.0939 6.88516 18.0939 6.87784 18.0927 6.87076C18.0706 6.26922 17.5735 5.79465 16.9716 5.80048H16.9648H16.9577H13.0328L16.9033 15.0338H16.0931L12.9989 7.78146H11.231L8.92908 13.2166H8.11892L10.7539 7.03328H12.7061L12.1883 5.8017L7.31584 5.80316C7.29461 5.80194 7.27313 5.79999 7.25166 5.79999C7.23018 5.79999 7.20798 5.80194 7.18626 5.80316C6.61254 5.82651 6.15161 6.28406 6.12402 6.85759V6.93079L6.13622 14.0241C6.10348 14.6398 6.38298 15.2306 6.87976 15.5958L7.07986 15.7083L7.6604 14.2864H9.72264L10.3488 12.8611H11.4906L10.9379 11.4701L12.1165 8.65507L14.8601 15.0343H14.0304L12.1336 10.6153L11.7654 11.4694L12.6309 13.608H10.8271L10.2195 15.0512H8.19408L7.7397 16.0761L7.93102 16.1832L11.3229 18.0517C11.7894 18.3094 12.3555 18.3094 12.822 18.0517L17.4689 15.465C18.1075 15.1171 18.0856 14.0297 18.0856 14.0297L18.0931 6.91274C18.0927 6.90786 18.0939 6.90029 18.0939 6.89248Z" fill="#008C98"/>
</svg>
