<svg width="24" height="24" viewBox="0 0 24 24" fill="none" xmlns="http://www.w3.org/2000/svg">
<circle cx="12" cy="12" r="12" fill="#2E3148"/>
<circle cx="12.0001" cy="12" r="6.96298" fill="#1B1E36"/>
<path fill-rule="evenodd" clip-rule="evenodd" d="M9.6792 12.0248C9.6792 6.22915 10.7295 1.53091 12.0249 1.53091C13.3202 1.53091 14.3705 6.22915 14.3705 12.0248C14.3705 17.8204 13.3202 22.5186 12.0249 22.5186C10.7295 22.5186 9.6792 17.8204 9.6792 12.0248ZM11.8911 21.9757C11.8911 21.9757 12.0392 22.124 12.1873 21.9264C12.1873 21.9264 12.8832 21.3333 13.38 18.5186C13.38 18.5186 14.0254 14.8149 13.9266 11.5063C13.9266 11.5063 14.0254 7.7038 12.9345 3.65443C12.9345 3.65443 12.5651 2.34921 12.1247 2.03712C12.0513 1.98497 11.9511 1.99307 11.8872 2.05632C11.5836 2.35651 10.6916 3.70867 10.2012 9.43257C10.2012 9.43257 9.95285 16.6425 10.9963 20.0004C10.9963 20.0004 11.2945 21.2845 11.8911 21.9757Z" fill="#6F7390"/>
<path fill-rule="evenodd" clip-rule="evenodd" d="M10.8551 9.98967C15.8847 7.10564 20.4822 5.6785 21.1271 6.80247C21.7716 7.92596 18.2238 11.1753 13.1943 14.0593C8.16472 16.9433 3.56671 18.37 2.92226 17.2465C2.27781 16.123 5.82559 12.8737 10.8551 9.98967ZM3.32601 16.8583C3.32601 16.8583 3.27024 17.0612 3.51715 17.0923H3.51725C3.51725 17.0923 4.3775 17.401 7.06637 16.432C7.06637 16.432 10.6001 15.1496 13.4209 13.4168C13.4209 13.4168 16.7685 11.6099 19.7361 8.64739C19.7361 8.64739 20.6868 7.67779 20.7361 7.14019C20.7455 7.05037 20.6887 6.9669 20.6017 6.94262C20.1913 6.82963 18.5735 6.72739 13.3651 9.15062C13.3651 9.15062 6.98726 12.523 4.59273 15.0993C4.59273 15.0993 3.62889 15.9971 3.32601 16.8583Z" fill="#6F7390"/>
<path fill-rule="evenodd" clip-rule="evenodd" d="M13.2032 9.99302C18.215 12.8988 21.7539 16.1629 21.104 17.2839C20.4546 18.4069 15.8634 16.962 10.8487 14.0563C5.83392 11.1506 2.29565 7.88832 2.94499 6.76541C3.59434 5.6425 8.1913 7.0873 13.2032 9.99302ZM3.48253 6.91613C3.48253 6.91613 3.27988 6.97095 3.37588 7.19856L3.37655 7.20106C3.37655 7.20106 3.5409 8.09933 5.72855 9.94128C5.72855 9.94128 8.60759 12.3576 11.5192 13.928C11.5192 13.928 14.7597 15.9185 18.8115 17.005C18.8115 17.005 20.1261 17.3398 20.617 17.1151C20.6991 17.0779 20.7424 16.987 20.7197 16.8997C20.6115 16.4879 19.8896 15.0371 15.1824 11.7432C15.1824 11.7432 9.06868 7.91357 5.64004 7.1328C5.64004 7.1328 4.37975 6.74669 3.48253 6.91613Z" fill="#6F7390"/>
<circle cx="11.9997" cy="12" r="1.23456" fill="#B7B9C8"/>
<ellipse cx="17.0618" cy="7.25923" rx="0.716064" ry="0.740736" fill="#B7B9C8"/>
<ellipse cx="5.30884" cy="9.7778" rx="0.716064" ry="0.740736" fill="#B7B9C8"/>
<ellipse cx="10.5432" cy="18.8642" rx="0.716064" ry="0.740736" fill="#B7B9C8"/>
</svg>
