<svg width="24" height="24" viewBox="0 0 24 24" fill="none" xmlns="http://www.w3.org/2000/svg">
<circle cx="12" cy="12" r="12" fill="#E41B23"/>
<path d="M8.7931 14.9413C9.38518 14.4369 9.91695 13.8339 10.2568 13.1266C10.4652 12.6826 10.6296 12.2221 10.7119 11.7396C10.827 11.0434 10.8709 10.3362 10.9092 9.62899C10.9312 9.14107 10.9421 8.65316 10.9421 8.15976V6.39996H10.1911C10.1911 6.69052 10.1911 6.98108 10.1911 7.27164C10.1691 8.13234 10.1198 8.99305 9.98822 9.8428C9.88406 10.5116 9.73604 11.1805 9.45644 11.7945C9.21523 12.3317 8.90274 12.8416 8.50802 13.2747C8.12427 13.7023 7.66924 14.0586 7.16488 14.3273C6.73726 14.552 6.27676 14.722 5.7998 14.7932V16.268C6.19452 16.2131 6.58376 16.1145 6.96204 15.9829C7.6199 15.7526 8.26132 15.4127 8.7931 14.9413Z" fill="white"/>
<path d="M11.2328 13.1267C11.2328 14.1738 11.2273 15.2263 11.2383 16.2734C11.6933 16.268 12.1538 16.2734 12.6143 16.2734V6.40546C12.1538 6.40546 11.6933 6.40546 11.2328 6.40546C11.2328 8.6422 11.2328 10.8844 11.2328 13.1267Z" fill="white"/>
<path d="M17.4659 14.6562C16.7751 14.4314 16.1392 14.0531 15.6129 13.5488C15.0647 13.028 14.6425 12.3756 14.352 11.6793C14.045 10.9557 13.9079 10.1772 13.8092 9.40422C13.6886 8.40646 13.6557 7.40321 13.6612 6.39996H12.9156V8.01722C12.9101 8.97112 12.943 9.92503 13.0253 10.8735C13.0691 11.312 13.1185 11.7561 13.2336 12.1837C13.3487 12.6113 13.5187 13.0225 13.738 13.4117C14.0175 13.9051 14.3903 14.3437 14.807 14.7329C15.0592 14.9632 15.3223 15.188 15.6129 15.3744C16.0076 15.632 16.4407 15.8349 16.8902 15.9884C17.2685 16.1145 17.6523 16.2186 18.047 16.268C18.047 15.7746 18.047 15.2866 18.047 14.7932C17.8551 14.7658 17.6577 14.7165 17.4659 14.6562Z" fill="white"/>
</svg>
