<svg width="24" height="24" viewBox="0 0 24 24" fill="none" xmlns="http://www.w3.org/2000/svg">
<circle cx="12" cy="12" r="12" fill="black"/>
<path d="M14.7312 12.9276C14.9845 12.8285 15.2702 12.9536 15.3693 13.207C15.4662 13.4547 15.3487 13.7333 15.1066 13.8382L15.0899 13.8451L9.17938 16.1562C8.92603 16.2553 8.64034 16.1302 8.54128 15.8769C8.44442 15.6292 8.56184 15.3505 8.80393 15.2457L8.82063 15.2388L14.7312 12.9276Z" fill="white"/>
<path d="M14.7312 10.3133C14.9845 10.2143 15.2702 10.3393 15.3693 10.5927C15.4662 10.8404 15.3487 11.119 15.1066 11.2239L15.0899 11.2308L9.17938 13.5419C8.92603 13.641 8.64034 13.5159 8.54128 13.2626C8.44442 13.0149 8.56184 12.7362 8.80393 12.6314L8.82063 12.6245L14.7312 10.3133Z" fill="white"/>
<path d="M14.7312 7.69905C14.9845 7.59999 15.2702 7.72506 15.3693 7.97841C15.4662 8.22612 15.3487 8.50476 15.1066 8.60962L15.0899 8.6165L9.17938 10.9277C8.92603 11.0267 8.64034 10.9017 8.54128 10.6483C8.44442 10.4006 8.56184 10.122 8.80393 10.0171L8.82063 10.0102L14.7312 7.69905Z" fill="white"/>
<path d="M15.1001 15.887C15.3721 15.887 15.5926 16.1075 15.5926 16.3795C15.5926 16.6456 15.3816 16.8625 15.1178 16.8718L15.1001 16.8721H12.41C12.138 16.8721 11.9175 16.6515 11.9175 16.3795C11.9175 16.1134 12.1285 15.8966 12.3924 15.8873L12.41 15.887H15.1001Z" fill="white"/>
<path d="M11.6899 6.94535C11.962 6.94535 12.1825 7.16587 12.1825 7.4379C12.1825 7.70401 11.9714 7.92083 11.7076 7.93013L11.6899 7.93044H8.99987C8.72784 7.93044 8.50732 7.70992 8.50732 7.4379C8.50732 7.17178 8.71836 6.95496 8.9822 6.94566L8.99987 6.94535H11.6899Z" fill="white"/>
</svg>
