<svg width="24" height="24" viewBox="0 0 24 24" fill="none" xmlns="http://www.w3.org/2000/svg">
<path d="M12 24C18.6276 24 24 18.6276 24 12C24 5.3724 18.6276 0 12 0C5.3724 0 0 5.3724 0 12C0 18.6276 5.3724 24 12 24Z" fill="#EDF0F4"/>
<path fill-rule="evenodd" clip-rule="evenodd" d="M10.7623 6.16586C10.8912 5.94455 11.213 5.94476 11.3416 6.16623L13.1156 9.22146L14.6826 11.9201L18.0236 17.6741C18.1521 17.8956 17.9911 18.1723 17.7335 18.1721L14.3855 18.1699L11.0439 18.1677L8.36419 18.1659C8.1067 18.1657 7.94596 17.8889 8.07485 17.6676L9.36878 15.446C9.4286 15.3432 9.53907 15.28 9.65858 15.2801L12.6994 15.2821C12.9273 15.2822 13.0796 15.0655 13.0223 14.862C13.015 14.8357 13.0042 14.8096 12.9894 14.7841L12.7317 14.3403L11.3378 11.9396C11.2173 11.7321 10.927 11.7189 10.7849 11.9001C10.7754 11.9123 10.7665 11.9253 10.7584 11.9392L10.553 12.292L9.20949 14.5987C9.14967 14.7014 9.03918 14.7647 8.9197 14.7646L6.33479 14.7629C6.07727 14.7627 5.91653 14.4859 6.04542 14.2646L7.41364 11.9154L10.7623 6.16586Z" fill="#7E1BCC"/>
</svg>
