<svg width="24" height="24" viewBox="0 0 24 24" fill="none" xmlns="http://www.w3.org/2000/svg">
<path d="M24 12C24 18.6274 18.6274 24 12 24C5.37259 24 0 18.6274 0 12C0 5.37258 5.37259 0 12 0C18.6274 0 24 5.37258 24 12Z" fill="#4958C5"/>
<path d="M16.9542 7.11328H13.6867V6.18994C13.6867 5.17681 14.7354 4.41981 15.4387 4.35603C16.0525 4.30039 16.385 4.22344 17.5999 4.62101V2.95817C16.7687 2.75226 15.7712 2.78128 14.9399 2.85558C14.032 2.90687 11.9731 3.86871 11.9731 6.10015V7.11328H10.771V8.62656H11.9731V14.3334C11.9731 14.3334 11.193 13.5896 9.59444 13.5896C7.36926 13.5896 5.3999 15.3081 5.3999 17.7704C5.3999 20.2327 7.22863 21.9999 9.64562 21.9999C12.0626 21.9999 13.7506 19.9249 13.8018 17.7704C13.8529 15.6159 13.8018 13.1664 13.8018 13.1664V8.62656H16.9542V7.11328Z" fill="white"/>
<ellipse cx="9.5" cy="17.7001" rx="2.5" ry="2.5" fill="#4958C5"/>
</svg>
