<svg width="24" height="24" viewBox="0 0 24 24" fill="none" xmlns="http://www.w3.org/2000/svg">
<circle cx="12" cy="12" r="12" fill="#E84142"/>
<path fill-rule="evenodd" clip-rule="evenodd" d="M12.7182 3.5622C12.3025 2.84409 11.6411 2.84409 11.2253 3.5622L3.67573 16.8567C3.25998 17.5843 3.60014 18.1606 4.43164 18.1606H8.22061C8.98597 18.1134 9.67573 17.7071 10.0915 17.0646L14.6553 9.1559C14.986 8.47559 14.986 7.67244 14.6553 6.99212L13.2946 4.60157L12.7182 3.5622ZM17.7356 12.3118C17.3199 11.5937 16.649 11.5937 16.2333 12.3118L13.597 16.8567C13.1907 17.5748 13.5309 18.1606 14.353 18.1606H19.5687C20.4002 18.1606 20.7404 17.5748 20.3246 16.8567L17.7356 12.3118Z" fill="white"/>
</svg>
