<svg width="24" height="24" viewBox="0 0 24 24" fill="none" xmlns="http://www.w3.org/2000/svg">
<path d="M12 24C18.6276 24 24 18.6276 24 12C24 5.3724 18.6276 0 12 0C5.3724 0 0 5.3724 0 12C0 18.6276 5.3724 24 12 24Z" fill="#EDF0F4"/>
<path fill-rule="evenodd" clip-rule="evenodd" d="M11.7025 5.3978C11.8326 5.13408 12.2086 5.13408 12.3387 5.3978L14.3801 9.53642L13.0369 12.1175L9.33755 10.1924L11.7025 5.3978ZM12.6929 12.7783L9.00781 10.8605L6.23675 16.4784C6.12048 16.7141 6.29202 16.99 6.55486 16.99H10.501L12.6929 12.7783ZM11.341 16.99L13.3539 13.1221L17.1142 15.079L17.8044 16.4784C17.9207 16.7141 17.7492 16.99 17.4863 16.99H11.341ZM13.6972 12.4614L14.7883 10.3648L16.5564 13.9493L13.6972 12.4614Z" fill="#1A45D5"/>
</svg>
