<svg width="24" height="24" viewBox="0 0 24 24" fill="none" xmlns="http://www.w3.org/2000/svg">
<circle cx="12" cy="12" r="12" fill="#EDF0F4"/>
<path fill-rule="evenodd" clip-rule="evenodd" d="M9.94905 5.98581C9.85082 6.03492 9.85082 6.18225 9.89994 6.28048C9.94905 6.3787 10.0964 6.3787 10.1946 6.3787L10.8331 5.93669C10.9313 5.83847 10.9313 5.74024 10.8822 5.59291C10.8331 5.49468 10.6857 5.49468 10.5875 5.5438L9.94905 5.98581ZM15.7934 11.9284C15.7934 11.8301 15.6461 11.7319 15.5478 11.781C15.4005 11.781 15.3514 11.9284 15.4005 12.0266L15.5969 12.7633C15.5969 12.8615 15.7443 12.9597 15.8425 12.9106C15.9407 12.9106 16.0389 12.7633 15.9898 12.6651L15.7934 11.9284Z" fill="white"/>
<path fill-rule="evenodd" clip-rule="evenodd" d="M13.1905 8.88344C12.4538 8.73611 11.668 8.83433 10.9805 9.27634C11.9627 8.93256 13.0923 9.17812 13.8781 9.96391C14.9586 11.0935 14.9586 12.9106 13.8781 13.9911C13.7308 14.1385 13.5834 14.2367 13.4361 14.3349C13.829 14.1876 14.2219 13.9911 14.5165 13.6473C15.3023 12.8615 15.4988 11.732 15.2041 10.7497C14.3692 10.455 13.6325 9.76746 13.1905 8.88344Z" fill="#FFAE54"/>
<path d="M17.856 15.268C16.0879 18.5585 11.9625 19.7863 8.7211 17.9692C5.43058 16.2012 4.25189 12.0266 6.01993 8.73609C7.19862 6.57515 9.35956 5.29824 11.6678 5.20001C11.9625 5.20001 12.2081 5.34735 12.3554 5.64202C12.5027 5.9367 12.601 6.32959 12.5519 6.72249C12.5519 6.86983 12.5519 7.01717 12.5519 7.1645C12.5519 7.85207 12.7483 8.53964 13.043 9.12899C11.6187 8.58876 9.99802 9.1781 9.26134 10.5532C8.42643 12.0757 9.01578 13.942 10.4891 14.7769C11.9625 15.6118 13.8779 15.0225 14.6637 13.5491C15.1057 12.7142 15.1548 11.7319 14.811 10.897C15.4004 11.1917 16.0388 11.339 16.7264 11.339C17.1193 11.339 17.4631 11.2899 17.856 11.1917C18.0524 11.1426 18.298 11.1426 18.4453 11.2408C18.5927 11.339 18.6909 11.4373 18.6909 11.5846C18.74 12.8124 18.4453 14.0893 17.856 15.268Z" fill="url(#paint0_radial_300_8962)" stroke="#AC562A" stroke-width="1.0716"/>
<path fill-rule="evenodd" clip-rule="evenodd" d="M9.75234 8.83432C10.1452 9.03077 10.6855 9.12899 11.373 8.93254C11.9133 8.83432 12.5026 8.88343 13.0429 9.12899C12.7482 8.53964 12.5517 7.85207 12.5517 7.1645C12.5517 6.91894 12.5517 6.67338 12.6009 6.47693C12.65 6.18226 12.6009 5.83847 12.4535 5.59291C12.3062 5.34735 12.1097 5.20001 11.8642 5.20001C11.0293 5.20001 10.1452 5.39646 9.31033 5.74025C9.01566 5.88758 8.81921 6.18226 8.72099 6.57515C8.62276 6.96805 8.67188 7.41006 8.86832 7.85207C9.01566 8.24497 9.35945 8.58876 9.75234 8.83432ZM16.0879 13.942L16.3334 13.8438C16.5092 14.2833 16.3311 14.6834 16.1861 15.0091C16.1691 15.0473 16.1525 15.0845 16.137 15.1207V15.1698C16.1165 15.2108 16.096 15.2497 16.0764 15.2868L16.0764 15.2868C16.002 15.4278 15.9405 15.5443 15.9405 15.6609C15.8914 15.9065 15.8914 16.152 15.9405 16.2994C15.9897 16.4467 16.137 16.5941 16.3334 16.6432C16.4808 16.6923 16.7263 16.6432 17.021 16.4467C18.1997 15.0716 18.7399 13.3035 18.6417 11.6337C18.6417 11.4864 18.5435 11.339 18.3962 11.2408C18.2488 11.1426 18.0033 11.1426 17.8068 11.1917C17.463 11.2899 17.0701 11.339 16.7263 11.339C16.0388 11.339 15.4003 11.1917 14.811 10.8479C15.1547 11.6828 15.1056 12.616 14.7127 13.4509C14.6783 13.5542 14.6197 13.6334 14.5538 13.7224L14.5538 13.7224L14.5538 13.7224C14.5258 13.7602 14.4965 13.7998 14.4672 13.8438C14.6636 13.7947 14.8601 13.6964 15.1547 13.5C15.4985 13.2544 15.9405 13.5 16.0879 13.942ZM16.088 13.942C16.2179 14.2883 16.0806 14.5965 15.9453 14.9002C15.9271 14.941 15.909 14.9817 15.8915 15.0224C15.7992 15.2071 15.7069 15.3917 15.6553 15.5764L16.088 13.942ZM15.646 15.6118L15.6553 15.5764C15.652 15.5882 15.6489 15.6 15.646 15.6118Z" fill="#AC562A"/>
<path d="M11.373 8.93254L11.2772 8.40538L11.2512 8.41011L11.2259 8.41736L11.373 8.93254ZM9.75234 8.83432L9.46837 9.28867L9.48996 9.30217L9.51273 9.31355L9.75234 8.83432ZM13.0429 9.12899L12.8211 9.61677L14.1989 10.243L13.5221 8.88937L13.0429 9.12899ZM12.6009 6.47693L13.1207 6.60688L13.1258 6.58612L13.1294 6.56502L12.6009 6.47693ZM12.4535 5.59291L12.913 5.31724V5.31724L12.4535 5.59291ZM9.31033 5.74025L9.10633 5.2448L9.08823 5.25226L9.07072 5.26101L9.31033 5.74025ZM8.72099 6.57515L9.24079 6.70511L8.72099 6.57515ZM8.86832 7.85207L9.37001 7.66394L9.36441 7.64902L9.35794 7.63446L8.86832 7.85207ZM16.3334 13.8438L16.8309 13.6448L16.6319 13.1473L16.1344 13.3463L16.3334 13.8438ZM16.0879 13.942L15.5796 14.1114L15.7593 14.6505L16.2869 14.4395L16.0879 13.942ZM16.1861 15.0091L16.6756 15.227L16.6756 15.227L16.1861 15.0091ZM16.137 15.1207L15.6445 14.9096L15.6012 15.0107V15.1207H16.137ZM16.137 15.1698L16.6162 15.4094L16.6728 15.2963V15.1698H16.137ZM16.0764 15.2868L15.6024 15.0368L15.5972 15.0472L16.0764 15.2868ZM16.0764 15.2868L16.5504 15.5369L16.5556 15.5264L16.0764 15.2868ZM15.9405 15.6609L16.4659 15.766L16.4763 15.714V15.6609H15.9405ZM15.9405 16.2994L16.4488 16.1299L16.4488 16.1299L15.9405 16.2994ZM16.3334 16.6432L16.5029 16.1349L16.4834 16.1284L16.4634 16.1234L16.3334 16.6432ZM17.021 16.4467L17.3182 16.8925L17.3797 16.8515L17.4278 16.7954L17.021 16.4467ZM18.6417 11.6337H18.1059V11.6495L18.1068 11.6652L18.6417 11.6337ZM18.3962 11.2408L18.0989 11.6866L18.0989 11.6866L18.3962 11.2408ZM17.8068 11.1917L17.6769 10.6719L17.6682 10.6741L17.6596 10.6765L17.8068 11.1917ZM14.811 10.8479L15.0809 10.3851L13.7122 9.58667L14.3155 11.0519L14.811 10.8479ZM14.7127 13.4509L14.2279 13.2227L14.2144 13.2514L14.2044 13.2814L14.7127 13.4509ZM14.5538 13.7224L14.9327 14.1012L14.9608 14.0731L14.9845 14.0412L14.5538 13.7224ZM14.5538 13.7224L14.1749 13.3435L14.148 13.3704L14.1252 13.4009L14.5538 13.7224ZM14.5538 13.7224L14.1252 13.4009L14.1232 13.4036L14.5538 13.7224ZM14.4672 13.8438L14.0214 13.5466L13.2526 14.6997L14.5971 14.3636L14.4672 13.8438ZM15.1547 13.5L15.452 13.9458L15.4591 13.941L15.4662 13.936L15.1547 13.5ZM15.9453 14.9002L16.4347 15.1183L16.4347 15.1183L15.9453 14.9002ZM16.088 13.942L16.5897 13.7538L15.9999 12.181L15.57 13.8049L16.088 13.942ZM15.8915 15.0224L16.3708 15.2621L16.3778 15.248L16.384 15.2335L15.8915 15.0224ZM15.646 15.6118L15.1262 15.4818L16.1639 15.7489L15.646 15.6118ZM11.2259 8.41736C10.6657 8.5774 10.2636 8.49089 9.99196 8.35508L9.51273 9.31355C10.0269 9.57064 10.7053 9.68058 11.5202 9.44773L11.2259 8.41736ZM13.2646 8.64122C12.6149 8.34592 11.9134 8.28971 11.2772 8.40538L11.4689 9.4597C11.9131 9.37893 12.3903 9.42094 12.8211 9.61677L13.2646 8.64122ZM12.0159 7.1645C12.0159 7.95055 12.2393 8.71987 12.5636 9.36861L13.5221 8.88937C13.2571 8.35942 13.0875 7.7536 13.0875 7.1645H12.0159ZM12.081 6.34698C12.0126 6.62085 12.0159 6.93969 12.0159 7.1645H13.0875C13.0875 6.89819 13.0909 6.72591 13.1207 6.60688L12.081 6.34698ZM11.9941 5.86858C12.065 5.98678 12.1043 6.19716 12.0723 6.38885L13.1294 6.56502C13.1956 6.16735 13.1367 5.69017 12.913 5.31724L11.9941 5.86858ZM11.8642 5.73581C11.8726 5.73581 11.8782 5.73632 11.8921 5.7459C11.9114 5.75916 11.9488 5.79305 11.9941 5.86858L12.913 5.31724C12.7084 4.97625 12.3639 4.66421 11.8642 4.66421V5.73581ZM9.51434 6.23569C10.2956 5.914 11.1103 5.73581 11.8642 5.73581V4.66421C10.9482 4.66421 9.99489 4.87892 9.10633 5.2448L9.51434 6.23569ZM9.24079 6.70511C9.31505 6.40805 9.43959 6.27466 9.54995 6.21948L9.07072 5.26101C8.59173 5.50051 8.32337 5.95646 8.20118 6.4452L9.24079 6.70511ZM9.35794 7.63446C9.20138 7.2822 9.17634 6.9629 9.24079 6.70511L8.20118 6.4452C8.06918 6.97321 8.14237 7.53793 8.3787 8.06968L9.35794 7.63446ZM10.0363 8.37996C9.70041 8.17002 9.46121 7.90713 9.37001 7.66394L8.36664 8.0402C8.57011 8.58281 9.01848 9.00749 9.46837 9.28867L10.0363 8.37996ZM16.1344 13.3463L15.8889 13.4445L16.2869 14.4395L16.5324 14.3412L16.1344 13.3463ZM16.6756 15.227C16.8083 14.9289 17.1019 14.3223 16.8309 13.6448L15.836 14.0428C15.9165 14.2442 15.8539 14.4379 15.6966 14.7911L16.6756 15.227ZM16.6295 15.3317C16.6432 15.2997 16.6582 15.2659 16.6756 15.227L15.6966 14.7911C15.6799 14.8287 15.6617 14.8694 15.6445 14.9096L16.6295 15.3317ZM16.6728 15.1698V15.1207H15.6012V15.1698H16.6728ZM16.5503 15.5368C16.5696 15.5003 16.5927 15.4564 16.6162 15.4094L15.6578 14.9302C15.6403 14.9652 15.6224 14.999 15.6025 15.0368L16.5503 15.5368ZM16.5556 15.5264L16.5556 15.5264L15.5972 15.0472L15.5971 15.0472L16.5556 15.5264ZM16.4763 15.6609C16.4763 15.6968 16.4668 15.7099 16.4777 15.6829C16.4828 15.6703 16.4907 15.6527 16.5034 15.6272C16.5163 15.6012 16.5311 15.5732 16.5503 15.5368L15.6025 15.0368C15.5488 15.1386 15.4047 15.3837 15.4047 15.6609H16.4763ZM16.4488 16.1299C16.4492 16.131 16.4395 16.0958 16.4395 16.017C16.4395 15.9442 16.4478 15.8567 16.4659 15.766L15.4151 15.5558C15.3578 15.8425 15.3408 16.1946 15.4322 16.4688L16.4488 16.1299ZM16.4634 16.1234C16.4602 16.1226 16.4566 16.1212 16.4526 16.1191C16.4486 16.1169 16.445 16.1142 16.4422 16.1116C16.4392 16.109 16.4385 16.1076 16.4393 16.1089C16.4401 16.11 16.4444 16.1166 16.4488 16.1299L15.4322 16.4688C15.5416 16.797 15.8367 17.0713 16.2035 17.163L16.4634 16.1234ZM16.7238 16.0009C16.6145 16.0738 16.5333 16.1063 16.4856 16.1189C16.4322 16.1329 16.4465 16.1161 16.5029 16.1349L16.164 17.1515C16.5498 17.2801 16.9784 17.1191 17.3182 16.8925L16.7238 16.0009ZM18.1068 11.6652C18.1973 13.2024 17.6988 14.8327 16.6142 16.098L17.4278 16.7954C18.7006 15.3105 19.2826 13.4046 19.1766 11.6023L18.1068 11.6652ZM18.0989 11.6866C18.1172 11.6988 18.1233 11.7083 18.1222 11.7065C18.1211 11.7048 18.1059 11.6801 18.1059 11.6337H19.1775C19.1775 11.2505 18.9354 10.9564 18.6934 10.795L18.0989 11.6866ZM17.9368 11.7115C17.988 11.6987 18.0439 11.6933 18.0884 11.6959C18.1097 11.6971 18.1218 11.6999 18.1257 11.7009C18.1299 11.7021 18.1185 11.6997 18.0989 11.6866L18.6934 10.795C18.5119 10.674 18.3089 10.6354 18.1514 10.6261C17.9871 10.6165 17.8221 10.6356 17.6769 10.6719L17.9368 11.7115ZM16.7263 11.8748C17.115 11.8748 17.5579 11.8201 17.954 11.7069L17.6596 10.6765C17.3682 10.7598 17.0252 10.8032 16.7263 10.8032V11.8748ZM14.541 11.3107C15.224 11.7092 15.9585 11.8748 16.7263 11.8748V10.8032C16.119 10.8032 15.5766 10.6742 15.0809 10.3851L14.541 11.3107ZM15.1975 13.679C15.6487 12.7202 15.7124 11.63 15.3064 10.6439L14.3155 11.0519C14.597 11.7356 14.5625 12.5117 14.2279 13.2227L15.1975 13.679ZM14.9845 14.0412C15.0436 13.9613 15.1555 13.8168 15.221 13.6203L14.2044 13.2814C14.2035 13.2841 14.2008 13.2917 14.1897 13.3096C14.1762 13.3315 14.1586 13.3557 14.1232 13.4036L14.9845 14.0412ZM14.9327 14.1012L14.9327 14.1012L14.1749 13.3435L14.1749 13.3435L14.9327 14.1012ZM14.9824 14.0439L14.9824 14.0438L14.1252 13.4009L14.1252 13.4009L14.9824 14.0439ZM14.913 14.141C14.9339 14.1096 14.9556 14.0801 14.9844 14.0412L14.1232 13.4036C14.096 13.4403 14.0591 13.49 14.0214 13.5466L14.913 14.141ZM14.8575 13.0542C14.5817 13.2381 14.4454 13.2969 14.3372 13.324L14.5971 14.3636C14.8818 14.2924 15.1385 14.1548 15.452 13.9458L14.8575 13.0542ZM16.5962 13.7726C16.483 13.433 16.2481 13.1407 15.9346 12.9839C15.6068 12.82 15.1955 12.8124 14.8433 13.064L15.4662 13.936C15.4705 13.9329 15.4642 13.9378 15.4516 13.9384C15.4415 13.9389 15.4424 13.9359 15.4554 13.9424C15.4856 13.9575 15.5454 14.009 15.5796 14.1114L16.5962 13.7726ZM16.4347 15.1183C16.5553 14.8476 16.8079 14.3358 16.5897 13.7538L15.5863 14.1301C15.6279 14.2409 15.6059 14.3455 15.4559 14.6822L16.4347 15.1183ZM16.384 15.2335C16.3997 15.1969 16.4163 15.1597 16.4347 15.1183L15.4559 14.6822C15.4379 14.7224 15.4183 14.7666 15.3991 14.8114L16.384 15.2335ZM16.1714 15.7204C16.2066 15.5945 16.2732 15.4571 16.3708 15.2621L15.4123 14.7828C15.3252 14.9571 15.2072 15.189 15.1393 15.4324L16.1714 15.7204ZM15.57 13.8049L15.1374 15.4393L16.1733 15.7135L16.6059 14.0791L15.57 13.8049ZM16.1639 15.7489L16.1733 15.7135L15.1374 15.4393L15.128 15.4747L16.1639 15.7489ZM15.1393 15.4324C15.1347 15.4486 15.1303 15.4651 15.1262 15.4818L16.1658 15.7417C16.1675 15.7348 16.1694 15.7278 16.1714 15.7204L15.1393 15.4324Z" fill="#AC562A"/>
<ellipse cx="6.8057" cy="10.4551" rx="0.343786" ry="0.343785" fill="#AC562A"/>
<ellipse cx="11.9131" cy="16.5941" rx="0.343786" ry="0.343785" fill="#AC562A"/>
<circle cx="9.75243" cy="16.8888" r="0.589347" fill="#AC562A"/>
<defs>
<radialGradient id="paint0_radial_300_8962" cx="0" cy="0" r="1" gradientUnits="userSpaceOnUse" gradientTransform="translate(11.9312 12.0167) rotate(90) scale(7.06132 7.0018)">
<stop offset="0.3335" stop-color="#F7B450"/>
<stop offset="0.6477" stop-color="#FFC977"/>
<stop offset="1" stop-color="#FF9900"/>
</radialGradient>
</defs>
</svg>
