<svg width="24" height="24" viewBox="0 0 24 24" fill="none" xmlns="http://www.w3.org/2000/svg">
<path fill-rule="evenodd" clip-rule="evenodd" d="M12 0C18.6264 0 24 5.3736 24 12C24 18.6264 18.6264 24 12 24C5.3736 24 0 18.6264 0 12C0 5.3736 5.3736 0 12 0Z" fill="#1E1E1E"/>
<path d="M12.1799 17.016C8.34233 17.016 5.23193 15.9072 5.23193 14.4216C5.23193 13.6464 6.07913 12.948 7.43513 12.456C8.49353 13.1352 10.2695 13.4832 12.2831 13.4832C14.2487 13.4832 15.9863 13.0584 17.0543 12.408C18.3335 12.8952 19.1279 13.5744 19.1279 14.3232C19.1279 15.8112 16.0175 17.016 12.1799 17.016Z" fill="white"/>
<path d="M12.2206 13.1496C9.31184 13.1496 6.95264 12.2376 6.95264 11.112C6.95264 10.488 7.67984 9.92882 8.81984 9.55682C9.63344 9.98162 10.8526 10.2528 12.2206 10.2528C13.5886 10.2528 14.8078 9.98162 15.6214 9.55682C16.7638 9.93122 17.4886 10.488 17.4886 11.112C17.491 12.2376 15.1318 13.1496 12.2206 13.1496Z" fill="white"/>
<path d="M12.2017 9.91438C9.95291 9.91438 8.12891 9.16078 8.12891 8.23438C8.12891 7.30798 9.95291 6.55438 12.2017 6.55438C14.4505 6.55438 16.2745 7.30798 16.2745 8.23438C16.2745 9.16078 14.4505 9.91438 12.2017 9.91438Z" fill="white"/>
</svg>
