<svg width="24" height="24" viewBox="0 0 24 24" fill="none" xmlns="http://www.w3.org/2000/svg">
<circle cx="12" cy="12" r="12" fill="#154284"/>
<path fill-rule="evenodd" clip-rule="evenodd" d="M7.3296 23.0576C8.808 23.6832 10.3808 24 12 24C13.6192 24 15.192 23.6832 16.6704 23.0544C18.0992 22.4496 19.3824 21.5856 20.4848 20.4832C21.5856 19.3808 22.4512 18.0976 23.056 16.6688C23.6816 15.1904 23.9984 13.6176 23.9984 11.9984C23.9984 10.3792 23.6816 8.808 23.056 7.328C22.4512 5.8992 21.5872 4.616 20.4848 3.5136C19.3824 2.4128 18.0992 1.5472 16.6704 0.9424C15.192 0.3168 13.6192 0 12 0C10.3808 0 8.808 0.3168 7.328 0.944C5.8992 1.5488 4.616 2.4128 3.5136 3.5152C2.4128 4.6176 1.5472 5.9008 0.9424 7.3296C0.3168 8.808 0 10.3808 0 12C0 13.6192 0.3168 15.192 0.944 16.672C1.5488 18.1008 2.4128 19.384 3.5152 20.4864C4.6176 21.5872 5.9008 22.4528 7.3296 23.0576ZM3.91193 3.91357C6.07353 1.75357 8.94553 0.563171 11.9999 0.563171C15.0543 0.563171 17.9295 1.75037 20.0895 3.91197C22.2495 6.07357 23.4399 8.94557 23.4399 12C23.4399 15.056 22.2495 17.928 20.0895 20.088C17.9279 22.248 15.0559 23.4384 12.0015 23.4384C8.94553 23.4384 6.07353 22.248 3.91353 20.088C1.75353 17.9264 0.563132 15.0544 0.563132 12C0.563132 8.94557 1.75193 6.07357 3.91193 3.91357Z" fill="#FAC32C"/>
<path d="M14.6511 4.55682L14.7375 4.61442C15.6927 5.24642 16.4623 5.36322 17.6319 5.36322C18.0447 5.36322 18.4879 5.28482 18.9119 5.13922L19.0223 5.10082L19.5775 5.87842L19.5199 5.95522C17.4575 8.69442 19.0655 11.6528 20.2031 12.8336L20.3087 12.9424L20.2015 13.0496C20.0527 13.1984 19.7935 13.4672 19.6015 13.6688L19.5359 13.7376L19.5407 13.832L19.5423 13.864C19.5439 13.888 19.5439 13.912 19.5487 13.9552L19.5503 13.9728C19.6463 15.8 19.1727 17.3008 18.1423 18.4336C17.0479 19.6368 15.3215 20.3616 13.2799 20.4736L13.2015 20.4784L13.1439 20.5312C12.6239 21.0048 12.0975 21.3968 12.0911 21.4016L11.9999 21.4704L11.9087 21.4016C11.8863 21.3856 11.3663 20.9984 10.8527 20.5312L10.7951 20.4784L10.7167 20.4736C8.67665 20.3616 6.94865 19.6368 5.85425 18.4336C4.82385 17.3008 4.35025 15.8 4.44785 13.9728L4.44945 13.9552C4.45425 13.9152 4.45585 13.8928 4.45585 13.8672V13.8608L4.45745 13.832L4.46225 13.7376L4.39665 13.6688C4.21585 13.4784 3.95025 13.2016 3.79665 13.0496L3.68945 12.9424L3.79505 12.8336C4.93265 11.6528 6.54065 8.69442 4.47985 5.95522L4.42225 5.87842L4.97745 5.10082L5.08785 5.13922C5.51185 5.28642 5.95505 5.36322 6.36785 5.36322C7.53905 5.36322 8.30705 5.24802 9.26225 4.61442L9.35025 4.55682L9.43665 4.61602C10.2799 5.20162 11.0943 5.47362 12.0015 5.47362C12.9087 5.47362 13.7231 5.20162 14.5663 4.61602L14.6511 4.55682Z" fill="#E8B909"/>
<path d="M5.72148 11.3216C6.36788 9.83999 6.60788 7.93759 5.52148 6.07839C5.79348 6.12639 6.07828 6.15679 6.36628 6.15679C7.47828 6.15679 8.35348 6.05599 9.33748 5.50079C10.1119 5.96959 10.9807 6.26719 11.9983 6.26879C13.0191 6.26719 13.8879 5.96959 14.6623 5.50079C15.6463 6.05599 16.5215 6.15679 17.6335 6.15679C17.9215 6.15679 18.2079 6.12639 18.4815 6.07359C17.3919 7.93759 17.6335 9.83999 18.2783 11.3216H5.72148Z" fill="white"/>
<path d="M18.2785 11.3216C17.6321 9.83999 17.3921 7.93759 18.4817 6.07359C18.2081 6.12639 17.9233 6.15679 17.6337 6.15679C16.5217 6.15679 15.6465 6.05599 14.6625 5.50079C13.8865 5.96959 13.0193 6.26719 11.9985 6.26879C11.9889 6.26879 11.9793 6.26879 11.9697 6.26879V11.3232L18.2785 11.3216Z" fill="#FFDD00"/>
<path d="M16.896 18.48C18.1328 17.576 18.864 16.1312 18.7568 14.024C18.744 13.904 18.736 13.8976 18.7264 13.776H16.896L16.896 18.48Z" fill="#0054A4"/>
<path d="M14.9375 19.3856C15.6735 19.1872 16.3375 18.888 16.8959 18.4784V13.776H14.9375V19.3856Z" fill="#A30046"/>
<path d="M7.104 18.4784C7.664 18.888 8.3264 19.1856 9.06241 19.3856V13.776L7.104 13.776V18.4784Z" fill="#A30046"/>
<path d="M5.24328 14.024C5.13608 16.1312 5.86728 17.5744 7.10408 18.48V13.7776H5.27368C5.26568 13.8976 5.25608 13.904 5.24328 14.024Z" fill="#0054A4"/>
<path d="M12.0045 14.816C12.3629 14.816 12.6957 14.92 12.9789 15.096V13.776H11.0205V15.1024C11.3053 14.9232 11.6429 14.816 12.0045 14.816Z" fill="#A30046"/>
<path d="M12.0045 18.5072C11.6429 18.5072 11.3053 18.4016 11.0205 18.2208V19.6816C11.0557 19.6832 11.0893 19.6864 11.1245 19.688C11.7757 19.6912 12.3645 19.6944 12.8765 19.688C12.9117 19.6864 12.9453 19.6832 12.9805 19.6816V18.2272C12.6957 18.4032 12.3629 18.5072 12.0045 18.5072Z" fill="#A30046"/>
<path d="M12.979 13.776V15.096C13.5006 15.4224 13.8494 16 13.8494 16.6608C13.8494 17.3216 13.5006 17.8992 12.979 18.2256V19.68C13.6702 19.6448 14.3294 19.5488 14.9374 19.384V13.7744L12.979 13.776Z" fill="#0054A4"/>
<path d="M10.1601 16.6624C10.1601 16.0048 10.5041 15.4304 11.0209 15.1024V13.776H9.0625V19.3856C9.6705 19.5488 10.3297 19.6464 11.0209 19.6816V18.2208C10.5041 17.8944 10.1601 17.3184 10.1601 16.6624Z" fill="#0054A4"/>
<path d="M6.16357 7.73927C6.29477 8.38087 6.29957 9.00967 6.21477 9.60807H8.11717V11.3217H9.98597V9.60807H11.9764V7.73927H9.98597V5.83847C9.76197 5.73927 9.54597 5.62567 9.33797 5.49927C8.92037 5.73447 8.52197 5.88807 8.11717 5.98727V7.73767L6.16357 7.73927Z" fill="#E31837"/>
<path d="M15.9987 11.3217V6.01445C15.7731 5.96485 15.5507 5.89925 15.3267 5.81445V11.3217H15.9987Z" fill="#E31837"/>
<path d="M13.3121 11.3216V6.09119C13.0961 6.15039 12.8721 6.19679 12.6401 6.22719V11.3232L13.3121 11.3216Z" fill="#E31837"/>
<path d="M17.3409 11.3216V6.15361C17.1089 6.14881 16.8865 6.13921 16.6689 6.11841V11.3216H17.3409Z" fill="#E31837"/>
<path d="M14.6544 11.3216V5.50403C14.4384 5.63523 14.2144 5.75043 13.9824 5.85123V11.32L14.6544 11.3216Z" fill="#E31837"/>
<path fill-rule="evenodd" clip-rule="evenodd" d="M20.365 12.6736L20.621 12.9392L20.3586 13.2016C20.2194 13.3424 19.9698 13.6016 19.7634 13.8176C19.7634 13.8245 19.7639 13.8309 19.7643 13.8368C19.7647 13.842 19.765 13.8468 19.765 13.8512C19.765 13.8736 19.765 13.8928 19.7698 13.9296L19.7714 13.9536C19.8722 15.8448 19.3794 17.4 18.3074 18.5792C17.1698 19.8288 15.3938 20.576 13.293 20.6912C12.773 21.1664 12.2482 21.5584 12.2242 21.576L12.0002 21.7424L11.7762 21.576C11.7743 21.5746 11.769 21.5706 11.7606 21.5642C11.6665 21.4929 11.1813 21.1258 10.7042 20.6912C8.60339 20.576 6.82579 19.8288 5.68979 18.5792C4.61779 17.4 4.12499 15.8432 4.22579 13.9536L4.22739 13.9296C4.2309 13.9028 4.23184 13.8853 4.23272 13.8691C4.23305 13.8631 4.23336 13.8573 4.23379 13.8512C4.23379 13.8458 4.23417 13.8408 4.23455 13.8356C4.23497 13.83 4.23539 13.8242 4.23539 13.8176C4.03059 13.6 3.78099 13.3424 3.64019 13.2016L3.37939 12.9408L3.63539 12.6752C4.72659 11.5408 6.27219 8.70402 4.30099 6.08322L4.14579 5.87682L4.89139 4.83202L5.15859 4.92482C5.56019 5.06242 5.97779 5.13602 6.36659 5.13602C7.49299 5.13602 8.23219 5.02722 9.13939 4.42562L9.35219 4.28482L9.56179 4.43042C10.365 4.98882 11.141 5.24802 12.0002 5.24802C12.8594 5.24802 13.6338 4.98722 14.437 4.42722L14.6466 4.28162L14.8594 4.42242C15.7682 5.02402 16.5058 5.13442 17.6322 5.13442C18.021 5.13442 18.4386 5.06242 18.8402 4.92322L19.1074 4.83042L19.853 5.87522L19.6978 6.08162C17.7266 8.70242 19.2722 11.5392 20.365 12.6736ZM19.3892 13.8638C19.388 13.8267 19.3866 13.7818 19.3761 13.6784L19.3974 13.6561C19.6035 13.4403 19.9229 13.106 20.0929 12.9344C18.8209 11.6144 17.3361 8.59361 19.3969 5.85601L18.9617 5.27841C18.5505 5.42081 18.0929 5.51041 17.6321 5.51041C16.4497 5.51041 15.6433 5.39361 14.6513 4.73601C13.8673 5.28001 13.0161 5.62081 11.9985 5.62081C10.9793 5.62081 10.1297 5.28001 9.34574 4.73601C8.35374 5.39361 7.54574 5.51041 6.36494 5.51041C5.90574 5.51041 5.44654 5.42081 5.03534 5.27841L4.60014 5.85601C6.66094 8.59361 5.17614 11.6144 3.90414 12.9344C4.08174 13.112 4.41774 13.464 4.62094 13.6784C4.6105 13.781 4.60905 13.826 4.60784 13.8634C4.60682 13.8948 4.60598 13.9208 4.60014 13.9712C4.37614 18.184 7.31054 20.1728 10.8577 20.32C11.4001 20.8272 12.0001 21.272 12.0001 21.272C12.0001 21.272 12.5969 20.8272 13.1393 20.32C16.6865 20.1728 19.6209 18.184 19.3969 13.9712C19.3911 13.9208 19.3902 13.895 19.3892 13.8638Z" fill="#231F20"/>
<path fill-rule="evenodd" clip-rule="evenodd" d="M5.2034 13.9024C5.2098 13.8672 5.2146 13.8368 5.2194 13.7728V13.72H18.7746L18.7794 13.7728C18.7847 13.8254 18.7888 13.8553 18.7928 13.8838C18.7937 13.89 18.7945 13.8962 18.7954 13.9024C18.8002 13.9328 18.805 13.9648 18.8114 14.0192C18.8946 15.6416 18.4898 16.952 17.6098 17.9184C16.6002 19.0272 14.9634 19.6576 12.8786 19.744C12.6626 19.7472 12.4322 19.7488 12.1906 19.7488C11.8976 19.7488 11.586 19.7474 11.2583 19.7459L11.205 19.7456H11.125C9.037 19.6592 7.4002 19.0272 6.3906 17.92C5.509 16.9536 5.1042 15.6432 5.1874 14.0224C5.1938 13.9632 5.1986 13.9312 5.2034 13.9024ZM5.31537 13.92C5.31057 13.9472 5.30577 13.9776 5.30097 14.0304C5.21937 15.616 5.61457 16.8992 6.47537 17.8416C7.46417 18.9264 9.07377 19.5456 11.1282 19.6304H11.205L11.2599 19.6307C11.856 19.6338 12.4003 19.6366 12.8754 19.6304C14.9282 19.5456 16.5378 18.9264 17.5266 17.8416C18.3858 16.8992 18.781 15.616 18.6994 14.0272C18.6946 13.9776 18.6898 13.9472 18.685 13.92C18.6839 13.9112 18.6826 13.9026 18.6812 13.8936C18.6787 13.8764 18.6759 13.8578 18.6738 13.8336H5.32657C5.32337 13.8704 5.32017 13.8944 5.31537 13.92Z" fill="#231F20"/>
<path fill-rule="evenodd" clip-rule="evenodd" d="M5.67082 11.2992L5.63562 11.3776H18.3636L18.33 11.2992C17.778 10.032 17.362 8.10084 18.53 6.10244L18.5924 5.99524L18.4708 6.01924C18.1892 6.07364 17.9076 6.10084 17.634 6.10084C16.498 6.10084 15.6532 5.99524 14.6916 5.45124L14.6628 5.43524L14.634 5.45284C13.7908 5.96324 12.9284 6.21124 11.9988 6.21284C11.0724 6.21284 10.2116 5.96324 9.36682 5.45284L9.33802 5.43524L9.30922 5.45124C8.34762 5.99364 7.50282 6.10084 6.36682 6.10084C6.10122 6.10084 5.82122 6.07524 5.53162 6.02404L5.41162 6.00324L5.47242 6.10884C6.63882 8.10084 6.22442 10.0304 5.67082 11.2992ZM12.0324 6.32329C12.9588 6.31689 13.8212 6.06889 14.6628 5.56489C15.634 6.10569 16.4884 6.21289 17.6324 6.21289C17.874 6.21289 18.122 6.19209 18.3716 6.15049C17.2788 8.11049 17.6548 9.99529 18.1924 11.2657H12.0324V6.32329ZM6.36834 6.21289C6.13314 6.21289 5.88514 6.19369 5.63074 6.15369C6.72194 8.11049 6.34434 9.99529 5.80994 11.2657H11.9219V6.32329C11.0131 6.30889 10.1667 6.06089 9.33794 5.56489C8.36674 6.10569 7.51234 6.21289 6.36834 6.21289Z" fill="#231F20"/>
<path d="M10.394 12.0528V11.6816H9.13477V13.4272H9.51237V12.7072H10.0276V12.3376H9.51237V12.0528H10.394Z" fill="#231F20"/>
<path d="M11.869 12.0305C12.0066 12.0305 12.1042 12.0881 12.165 12.2065L12.173 12.2225L12.5234 12.0609L12.5154 12.0433C12.3922 11.7889 12.1698 11.6545 11.8738 11.6545C11.4162 11.6545 11.0962 12.0241 11.0962 12.5537C11.0962 13.1009 11.397 13.4529 11.861 13.4529C12.1634 13.4529 12.3826 13.3201 12.5106 13.0561L12.5186 13.0401L12.2002 12.8513L12.1906 12.8673C12.0994 13.0193 12.013 13.0753 11.8722 13.0753C11.6402 13.0753 11.485 12.8641 11.485 12.5521C11.485 12.2321 11.6322 12.0305 11.869 12.0305Z" fill="#231F20"/>
<path fill-rule="evenodd" clip-rule="evenodd" d="M14.7952 12.152C14.7952 11.8576 14.5856 11.6816 14.2352 11.6816H13.4336V13.4272H14.2288C14.6208 13.4272 14.856 13.2144 14.856 12.8576C14.856 12.6912 14.776 12.5568 14.6352 12.4816C14.736 12.4064 14.7952 12.288 14.7952 12.152ZM13.8031 12.0336H14.2191C14.3887 12.0336 14.4111 12.112 14.4111 12.1792C14.4111 12.2752 14.3535 12.3216 14.2367 12.3216H13.8031V12.0336ZM13.8031 13.0656H14.2383C14.3871 13.0656 14.4639 12.9952 14.4639 12.8624C14.4639 12.7248 14.3919 12.6608 14.2383 12.6608H13.8031V13.0656Z" fill="#231F20"/>
<path fill-rule="evenodd" clip-rule="evenodd" d="M11.9942 18.5376C13.0342 18.5376 13.879 17.6912 13.879 16.6528C13.879 15.6128 13.0326 14.768 11.9942 14.768C10.9542 14.768 10.1094 15.6144 10.1094 16.6528C10.1078 17.6912 10.9542 18.5376 11.9942 18.5376ZM11.9943 18.424C11.6279 18.424 11.2887 18.312 11.0055 18.1216C11.3799 18.104 11.8775 18.0096 12.1863 17.8256C12.4855 17.648 12.8023 17.4256 12.8615 17.128C13.0791 17.0192 13.4951 17.0704 13.5479 17.5088C13.2439 18.0544 12.6615 18.424 11.9943 18.424ZM11.4343 17.1696C11.3095 17.1536 11.2055 17.1152 11.1191 17.0576C10.9815 17.2944 10.7335 17.4272 10.4423 17.4304C10.4351 17.4304 10.4279 17.43 10.4207 17.4296C10.4135 17.4292 10.4063 17.4288 10.3991 17.4288C10.5111 17.6592 10.6711 17.8608 10.8663 18.0224C11.2359 18.024 11.8039 17.9312 12.1303 17.7376C12.5511 17.4864 12.8775 17.2176 12.7223 16.8464C12.6439 16.6576 12.3831 16.44 12.0439 16.68C12.0231 16.9568 11.6807 17.2016 11.4343 17.1696ZM10.8372 16.1632C10.8333 15.8817 10.8968 15.6286 10.9627 15.3655L10.9627 15.3655C10.9781 15.3041 10.9936 15.2422 11.0084 15.1792C11.25 15.0176 11.5332 14.9136 11.8388 14.8864C11.634 15.1088 11.6772 15.4368 11.8868 15.6048C11.8372 15.6416 11.7924 15.6896 11.754 15.7504C11.5972 15.9984 11.5764 16.4144 11.938 16.6784C11.9156 16.8864 11.6388 17.0896 11.4468 17.0656C11.0372 17.0128 10.8436 16.632 10.8372 16.1632ZM12.8197 16.8032C12.8501 16.8752 12.8645 16.944 12.8677 17.0096C13.1093 16.9248 13.4997 16.9808 13.6197 17.3552C13.6917 17.1872 13.7397 17.0048 13.7573 16.8144C13.6565 16.448 13.2933 16.0416 12.9461 15.848C12.5173 15.608 12.0501 15.4784 11.8437 15.8048C11.7109 16.0144 11.6933 16.36 11.9925 16.5856C12.4005 16.304 12.7253 16.5776 12.8197 16.8032ZM12.9974 15.7568C12.6886 15.584 12.2822 15.4256 11.9894 15.5472C11.7686 15.4096 11.7302 15.0624 12.0086 14.88C12.9446 14.888 13.7078 15.6208 13.7622 16.544C13.5958 16.2256 13.2902 15.92 12.9974 15.7568ZM10.8544 15.3584C10.8614 15.3318 10.8686 15.3046 10.8758 15.2768C10.4774 15.6016 10.2214 16.0976 10.2214 16.6512C10.2214 16.8864 10.2662 17.1104 10.3494 17.3152C10.3798 17.32 10.4102 17.3216 10.4422 17.3216C10.7046 17.3216 10.919 17.2 11.0358 16.992C10.6966 16.6832 10.695 16.0544 10.7862 15.6368C10.805 15.5463 10.8288 15.4559 10.8544 15.3584Z" fill="#231F20"/>
</svg>
