<svg width="24" height="24" viewBox="0 0 24 24" fill="none" xmlns="http://www.w3.org/2000/svg">
<circle cx="12" cy="12" r="12" fill="#EDF0F4"/>
<path fill-rule="evenodd" clip-rule="evenodd" d="M14.5201 6.39999L16.5401 7.45999L18.5201 10.14L12.0601 17.48L5.6001 10.14L7.6201 7.47999L9.5401 6.39999H14.5201ZM15.3399 11.3L17.8599 10.02L16.3799 7.89999L14.5199 8.79999L15.3399 11.3ZM9.70012 6.79999H14.3601L15.9401 7.61999L14.3401 8.38H9.68012L8.28012 7.63999L9.70012 6.79999ZM9.40022 8.79999L7.76022 7.89999L6.16022 9.95999L8.82022 11.3L9.40022 8.79999ZM6.68025 10.72L8.74025 11.78L11.2602 16.12L6.68025 10.72ZM9.18025 11.7L10.2 13.4684V13.52H10.2297L12.0402 16.66L14.9002 11.62L14.1402 8.79999H9.88025L9.18025 11.7ZM10.2297 13.52H11.1V14.2H11.64V13.6H12.02L12.04 14.2H12.54V13.54H13.02C13.2028 13.5418 13.3827 13.4933 13.54 13.4C13.92 13.14 14.04 12.58 13.88 12.16C13.7711 11.8831 13.5649 11.6555 13.3 11.52C13.4633 11.4638 13.5945 11.3399 13.66 11.18C13.7 11.06 13.7 10.96 13.68 10.84C13.68 10.84 13.66 10.66 13.6 10.5C13.48 10.24 13.08 9.99999 12.52 9.93999V9.29999H12.02V9.93999H11.64V9.29999H11.12V9.93999H10.3V10.36C10.4816 10.3814 10.6437 10.4845 10.74 10.64C10.7983 10.7275 10.8141 10.8043 10.8261 10.8628C10.8306 10.8845 10.8345 10.9037 10.84 10.92L10.88 12.52C10.88 12.72 10.8 12.9 10.64 13C10.4733 13.1 10.3066 13.075 10.2326 13.0639C10.2177 13.0617 10.2066 13.06 10.2 13.06V13.4684L10.2297 13.52ZM12.7601 16.1L15.3201 11.8L17.4601 10.72L12.7601 16.1ZM12.3203 10.58H11.6803V11.44H12.3403C12.5803 11.44 12.7603 11.24 12.7603 11C12.7603 10.76 12.5603 10.58 12.3203 10.58ZM11.72 12.94H12.48C12.76 12.92 12.96 12.7 12.94 12.44C12.92 12.22 12.72 12.02 12.48 12H11.72V12.94Z" fill="#FCC339"/>
</svg>
