<svg width="24" height="24" viewBox="0 0 24 24" fill="none" xmlns="http://www.w3.org/2000/svg">
<path d="M23.6383 14.9029C22.0356 21.3315 15.5244 25.2438 9.09503 23.6407C2.66833 22.0381 -1.24401 15.5265 0.359382 9.09837C1.96137 2.66903 8.47253 -1.24361 14.8999 0.359081C21.3289 1.96177 25.241 8.47405 23.6381 14.903L23.6382 14.9029H23.6383Z" fill="#F7931A"/>
<path fill-rule="evenodd" clip-rule="evenodd" d="M15.4447 7.55752C14.8244 6.07135 13.3536 5.96715 11.6519 6.33766L10.9942 4.213L9.71098 4.61352L10.3514 6.68219C10.014 6.78741 9.67132 6.90172 9.3308 7.0155L8.68642 4.933L7.40389 5.3331L8.06095 7.45731C7.78496 7.54969 7.51368 7.6401 7.24771 7.72321L7.2455 7.71661L5.4754 8.2681L5.9033 9.64929C5.9033 9.64929 6.84531 9.3355 6.83499 9.35791C7.35473 9.1959 7.61812 9.44729 7.74865 9.69431L8.49796 12.1148C8.53383 12.1037 8.58108 12.0906 8.63643 12.0815L8.59921 12.0931L8.59907 12.0931C8.56741 12.103 8.53451 12.1132 8.50092 12.1241L9.55017 15.515C9.57846 15.6869 9.5637 15.9799 9.2007 16.0938C9.22171 16.1033 8.26784 16.3846 8.26784 16.3846L8.49091 18.0087L10.1609 17.4876C10.3439 17.4308 10.5258 17.3762 10.7057 17.3222C10.8315 17.2844 10.9563 17.247 11.0801 17.2092L11.7458 19.3579L13.0277 18.9581L12.3695 16.832C12.7238 16.7295 13.0652 16.6261 13.3977 16.5221L14.0522 18.6386L15.3355 18.238L14.6718 16.0928C16.7907 15.295 18.1311 14.2763 17.6865 12.1759C17.329 10.4846 16.3346 9.99044 15.0182 10.0761C15.6441 9.4621 15.901 8.64427 15.4452 7.55742L15.4447 7.55739L15.4447 7.55752ZM15.0663 12.7497C15.5276 14.2137 13.2085 14.8971 12.1474 15.2097C12.052 15.2379 11.9667 15.263 11.8946 15.2854L11.0048 12.4558C11.0928 12.4286 11.1988 12.393 11.319 12.3526L11.319 12.3526C12.3937 11.9918 14.5954 11.2525 15.0664 12.7496L15.0663 12.7497ZM10.9012 11.0339C11.7865 10.7751 13.7176 10.2107 13.2996 8.87854L13.2997 8.87848C12.8717 7.51633 11.0397 8.13818 10.145 8.44189C10.0443 8.47606 9.95553 8.5062 9.88193 8.52903L10.6884 11.0972C10.749 11.0784 10.8208 11.0574 10.9012 11.0339Z" fill="white"/>
</svg>
