<svg width="24" height="24" viewBox="0 0 24 24" fill="none" xmlns="http://www.w3.org/2000/svg">
<circle cx="12" cy="12" r="12" fill="#F04086"/>
<path fill-rule="evenodd" clip-rule="evenodd" d="M15.6201 11.559C16.5116 11.6845 17.1938 12.0074 17.6682 12.5275C18.1485 13.0596 18.4098 13.7516 18.4 14.466C18.4 15.5459 18.0318 16.4254 17.248 17.021C16.4634 17.6166 15.3325 18 13.853 18H8.03495V14.457H10.6002V16.0069H13.6301C14.3228 16.0069 14.8454 15.8209 15.1917 15.5391C15.5388 15.2566 15.7128 14.8068 15.7128 14.2799C15.7128 13.7531 15.5366 13.3966 15.1917 13.1209C14.8469 12.8451 14.3251 12.7965 13.6301 12.7965H4.80029V10.8035H8.03495V5.6H13.6678C15.1593 5.6 16.2602 5.79206 16.9935 6.37495C17.7269 6.9586 18.0808 7.70067 18.0808 8.79248C18.085 9.4486 17.8551 10.085 17.4317 10.589C17.0146 11.0972 16.401 11.4148 15.6201 11.5403V11.559ZM10.6 10.7982H13.3061C14.6975 10.7982 15.3917 10.2594 15.3917 9.19304C15.3917 8.12664 14.6975 7.58783 13.3061 7.58783H10.6V10.7982Z" fill="white"/>
</svg>
