<svg width="24" height="24" viewBox="0 0 24 24" fill="none" xmlns="http://www.w3.org/2000/svg">
<circle cx="12" cy="12" r="12" fill="#13A0F6"/>
<path fill-rule="evenodd" clip-rule="evenodd" d="M5.21065 7.06829C5.21033 7.74673 5.58753 8.36929 6.18984 8.68443C5.60002 9.70811 5.29045 10.8685 5.29219 12.0492C5.29219 15.7778 8.31582 18.8 12.0461 18.8C15.7764 18.8 18.8 15.7771 18.8 12.0492C18.8 8.32144 15.7756 5.29852 12.0461 5.29852C10.8519 5.29681 9.67887 5.61294 8.648 6.21428C8.64582 5.45852 8.17551 4.78279 7.4664 4.51662C6.7573 4.25045 5.95708 4.44926 5.45597 5.01611C4.95486 5.58296 4.85722 6.3998 5.21065 7.06829ZM15.3681 12.0493C15.3681 13.8838 13.8808 15.3704 12.0463 15.3704C10.2117 15.3704 8.72442 13.8831 8.72442 12.0493C8.72442 10.2155 10.2117 8.72814 12.0463 8.72814C13.8808 8.72814 15.3681 10.2147 15.3681 12.0493Z" fill="white"/>
</svg>
