<svg width="24" height="24" viewBox="0 0 24 24" fill="none" xmlns="http://www.w3.org/2000/svg">
<circle cx="12" cy="12" r="12" fill="#EDF0F4"/>
<path fill-rule="evenodd" clip-rule="evenodd" d="M13.7816 6.20001C14.4583 6.20012 15.1205 6.39608 15.6884 6.76425C16.2562 7.13241 16.7053 7.65705 16.9815 8.27483C17.2577 8.89262 17.3492 9.57714 17.245 10.2458C17.1408 10.9144 16.8452 11.5386 16.3941 12.043C16.8388 12.5402 17.1324 13.154 17.2405 13.8122C17.3486 14.4705 17.2666 15.1459 17.0043 15.7592C16.7419 16.3725 16.31 16.8982 15.7593 17.2746C15.2085 17.651 14.5619 17.8624 13.8952 17.8842L13.7816 17.8861H9.21467C8.95992 17.8861 8.75004 17.6935 8.72339 17.4462L8.72059 17.392V13.5627H11.0578V15.3296C11.0578 15.4371 11.1349 15.5269 11.2373 15.5451L11.2766 15.5488H13.7816C14.0854 15.5496 14.3775 15.432 14.596 15.221C14.8146 15.01 14.9424 14.7222 14.9524 14.4186C14.9624 14.115 14.8537 13.8194 14.6495 13.5945C14.4452 13.3697 14.1614 13.2332 13.8582 13.214L13.7816 13.2116H11.4084V10.8744H13.7816C14.0854 10.8752 14.3775 10.7576 14.596 10.5466C14.8146 10.3356 14.9424 10.0478 14.9524 9.74418C14.9624 9.44056 14.8537 9.14498 14.6495 8.92011C14.4452 8.69524 14.1614 8.55875 13.8582 8.53956L13.7816 8.53722H11.2766C11.2254 8.53717 11.1758 8.55512 11.1365 8.58794C11.0972 8.62075 11.0706 8.66633 11.0615 8.71672L11.0578 8.75645V10.5234H8.72059V6.69363C8.72059 6.43934 8.91317 6.22993 9.16045 6.20282L9.21421 6.20001H13.7816ZM10.8778 10.8744C10.9648 10.8744 11.0368 10.9361 11.0541 11.0179L11.0578 11.0544V13.0316C11.0578 13.0731 11.0434 13.1133 11.0172 13.1454C10.991 13.1775 10.9544 13.1996 10.9138 13.2079L10.8778 13.2116H8.90055C8.85913 13.2117 8.81896 13.1974 8.78684 13.1713C8.75471 13.1451 8.73263 13.1087 8.72433 13.0681L8.72059 13.0321V11.0544C8.72059 10.9674 8.78229 10.895 8.86409 10.8781L8.90008 10.8744H10.8774H10.8778ZM8.36947 10.8744V13.2107H7.90577C7.05269 13.1536 6.7998 12.043 6.7998 12.043C6.7998 12.043 7.03399 11.0128 7.81322 10.8856L7.90577 10.8744H8.36947ZM10.4747 11.3671H9.3028C9.28314 11.367 9.264 11.3735 9.24837 11.3854C9.23273 11.3973 9.22147 11.414 9.21632 11.433L9.21305 11.4568V12.6283C9.21305 12.6694 9.2411 12.7044 9.27849 12.7147L9.3028 12.718H10.4737C10.5153 12.718 10.5499 12.69 10.5607 12.6526L10.564 12.6283V12.2894H10.068C10.0066 12.2891 9.94743 12.266 9.90216 12.2245C9.85688 12.1829 9.82871 12.126 9.82316 12.0648C9.81761 12.0037 9.83507 11.9426 9.87214 11.8936C9.9092 11.8446 9.96321 11.8113 10.0236 11.7999L10.068 11.7962H10.5644V11.4568C10.5644 11.445 10.5621 11.4333 10.5575 11.4224C10.553 11.4115 10.5464 11.4015 10.538 11.3932C10.5296 11.3849 10.5196 11.3783 10.5087 11.3738C10.4977 11.3693 10.4865 11.367 10.4747 11.3671ZM13.3501 11.7471C13.2718 11.7471 13.1969 11.7782 13.1415 11.8335C13.0862 11.8889 13.0551 11.9638 13.0551 12.0421C13.0551 12.1203 13.0862 12.1953 13.1415 12.2507C13.1969 12.306 13.2718 12.337 13.3501 12.337C13.4283 12.337 13.5033 12.306 13.5587 12.2507C13.614 12.1953 13.645 12.1203 13.645 12.0421C13.645 11.9638 13.614 11.8889 13.5587 11.8335C13.5033 11.7782 13.4283 11.7471 13.3501 11.7471ZM12.2768 11.7471C12.238 11.7471 12.1996 11.7547 12.1638 11.7695C12.128 11.7843 12.0954 11.806 12.068 11.8334C12.0126 11.8887 11.9814 11.9638 11.9813 12.0421C11.9813 12.1204 12.0123 12.1955 12.0676 12.2509C12.1229 12.3063 12.198 12.3375 12.2763 12.3375C12.3546 12.3375 12.4297 12.3065 12.4851 12.2512C12.5405 12.1959 12.5717 12.1208 12.5717 12.0425C12.5718 11.9642 12.5407 11.8891 12.4854 11.8337C12.4301 11.7783 12.3551 11.7472 12.2768 11.7471Z" fill="#FCB251"/>
</svg>
