<svg width="24" height="24" viewBox="0 0 24 24" fill="none" xmlns="http://www.w3.org/2000/svg">
<circle cx="12.0003" cy="12" r="11.3333" fill="white"/>
<path fill-rule="evenodd" clip-rule="evenodd" d="M12 24C5.37267 24 0 18.6273 0 12C0 5.37267 5.37267 0 12 0C18.6273 0 24 5.37267 24 12C24 18.6273 18.6273 24 12 24ZM13.4093 18.126C16.0993 18.126 17.9066 16.4853 17.896 14.0607C17.896 13.172 17.616 12.3573 17.1173 11.772L17.128 11.7613C17.626 11.176 17.9066 10.3613 17.9066 9.48333C17.9066 7.04867 16.1 5.408 13.4093 5.408H9.62862L8.88062 9.68133H6.14929L5.88929 11.1347H8.62129L8.40329 12.3987H5.67129L5.41129 13.852H8.14329L7.39529 18.1153L13.4093 18.126ZM9.11999 16.652L9.11987 16.6527V16.652H9.11999ZM9.11999 16.652L9.61787 13.8513H11.2379C14.0012 13.8513 15.3932 13.7367 16.2965 13.1827C16.4005 13.4333 16.4525 13.736 16.4525 14.05C16.4525 15.6593 15.2892 16.6627 13.4092 16.6627L9.11999 16.652ZM9.8672 12.3887L9.86732 12.388H11.2385C14.2092 12.388 15.2685 12.242 15.7565 11.7613C15.1125 11.3227 14.3025 11.1347 11.2385 11.1347H10.0959L9.86732 12.388H9.86654L9.8672 12.3887ZM10.8439 6.85L10.3452 9.67134H11.2385C14.1052 9.67134 15.3205 9.828 16.2859 10.3713C16.4005 10.1107 16.4525 9.79667 16.4525 9.46267C16.4525 7.822 15.3099 6.85 13.4092 6.85H10.8439Z" fill="#E83355"/>
</svg>
