<svg width="24" height="24" viewBox="0 0 24 24" fill="none" xmlns="http://www.w3.org/2000/svg">
<circle cx="12" cy="12" r="12" fill="#265FAC"/>
<path fill-rule="evenodd" clip-rule="evenodd" d="M15.7673 9.45022C15.7673 9.45022 17.6373 9.68718 17.8102 7.79999H19.6454V7.94343C19.6454 9.7769 18.1591 11.2632 16.3256 11.2632H15.7712V13.6268C15.7652 15.611 14.1582 17.218 12.174 17.224H11.5886C9.60229 17.2238 7.99215 15.6135 7.99215 13.6271V11.2766L7.46023 11.2622C5.64537 11.2123 4.20008 9.72663 4.2002 7.91108V7.83514H6.04379C6.04379 7.83514 6.16543 9.5578 8.00937 9.4453V7.79999H9.84523V9.45022H13.8924V7.79999H15.7673V9.45022ZM12.9254 15.2061C13.5472 14.831 13.9198 14.151 13.9012 13.425V11.2242H9.86248V13.425V13.4897C9.86715 14.2159 10.2613 14.8836 10.8948 15.2386C11.5283 15.5936 12.3036 15.5812 12.9254 15.2061Z" fill="white"/>
</svg>
