<svg width="24" height="24" viewBox="0 0 24 24" fill="none" xmlns="http://www.w3.org/2000/svg">
<path d="M12 24C18.6276 24 24 18.6276 24 12C24 5.3724 18.6276 0 12 0C5.3724 0 0 5.3724 0 12C0 18.6276 5.3724 24 12 24Z" fill="#EDF0F4"/>
<path fill-rule="evenodd" clip-rule="evenodd" d="M8.38397 8.93082H6.26609C6.26573 8.93597 6.26508 8.94009 6.26454 8.94347C6.26374 8.94853 6.2632 8.95195 6.26428 8.9547C6.26881 8.96939 6.27425 8.98316 6.28059 8.99602C6.42099 9.26686 6.62209 9.46699 6.9174 9.55789C7.02429 9.59093 7.09767 9.65429 7.1031 9.7764C7.10371 9.79231 7.1035 9.80822 7.1033 9.82413C7.1032 9.83209 7.1031 9.84005 7.1031 9.848V12.3691C7.1031 12.6766 7.21724 12.9282 7.46545 13.1109C7.63031 13.233 7.81963 13.2716 8.02073 13.2707C8.4492 13.2697 8.87676 13.2697 9.30433 13.2697C9.43386 13.2697 9.56068 13.2523 9.68026 13.1972C9.94204 13.076 10.1096 12.8768 10.173 12.5903C10.1983 12.4752 10.1952 12.3593 10.1921 12.2433C10.1906 12.1845 10.189 12.1257 10.1912 12.067C10.1921 12.0349 10.1712 12.023 10.1422 12.0147C9.7654 11.9036 9.44835 11.6888 9.1766 11.4088C8.95829 11.1838 8.78618 10.9222 8.65574 10.6339C8.5117 10.3162 8.41749 9.98296 8.38941 9.635C8.37879 9.50447 8.38067 9.3735 8.38256 9.2424C8.38341 9.18355 8.38426 9.12467 8.38397 9.06579V8.93082ZM7.76788 11.0966C7.61387 11.0939 7.50246 10.9754 7.50336 10.8157C7.48887 10.6495 7.63924 10.5375 7.76968 10.5384C7.92367 10.5393 8.04778 10.667 8.04506 10.823C8.04235 10.9745 7.91552 11.0994 7.76788 11.0966Z" fill="white"/>
<path d="M9.84866 10.8202C9.84685 10.9561 9.72818 11.0773 9.59684 11.0764C9.46095 11.0764 9.33776 10.9488 9.34139 10.8129C9.34501 10.677 9.46368 10.5558 9.59502 10.5577C9.73181 10.5595 9.86316 10.688 9.84866 10.8202Z" fill="white"/>
<path d="M7.5033 10.8157C7.48972 10.6495 7.63919 10.5375 7.76963 10.5384C7.92362 10.5393 8.04772 10.6679 8.045 10.823C8.04229 10.9745 7.91547 11.0994 7.76782 11.0966C7.61383 11.0939 7.5015 10.9754 7.5033 10.8157Z" fill="black"/>
<path fill-rule="evenodd" clip-rule="evenodd" d="M17.8491 13.7049H17.8437L17.8426 13.7058L17.841 13.7067C17.7757 13.7049 17.715 13.6966 17.6498 13.6645L17.6498 13.6635L17.6496 13.6627L17.6488 13.6618C17.5655 13.5773 17.5501 13.4735 17.551 13.3597C17.5537 12.7887 17.5529 12.2168 17.552 11.6457V11.6454L17.5519 11.596C17.551 11.1085 17.1661 10.6624 16.6905 10.5972C16.6831 10.5959 16.6756 10.5968 16.665 10.5981C16.6601 10.5987 16.6545 10.5993 16.6479 10.5999C16.6534 10.6084 16.6581 10.6161 16.6623 10.6231C16.6701 10.6358 16.6766 10.6465 16.6842 10.6559C16.9251 10.9552 17.0591 11.2977 17.0538 11.686C17.0512 11.8717 17.0401 12.0578 17.029 12.2437C17.024 12.3272 17.019 12.4106 17.0148 12.4939C17.0079 12.6286 17.0014 12.763 16.995 12.8973L16.995 12.898C16.9863 13.0805 16.9776 13.2628 16.9677 13.4451C16.9586 13.6154 16.9485 13.7854 16.9384 13.9554L16.9383 13.9558L16.9383 13.956C16.9314 14.0727 16.9245 14.1894 16.9178 14.3063C16.9133 14.3875 16.9095 14.469 16.9056 14.5505C16.9018 14.632 16.8979 14.7134 16.8934 14.7947L16.8473 15.6384L16.8357 15.8544L16.8357 15.8546C16.8275 16.0075 16.8193 16.1603 16.8119 16.3132C16.8038 16.4932 16.647 16.6529 16.4695 16.6538C16.0274 16.6557 15.5844 16.6557 15.1424 16.6538C14.9811 16.6529 14.8353 16.5198 14.8027 16.3582C14.7684 16.1915 14.7319 16.0252 14.6953 15.8587L14.6953 15.8585C14.6797 15.7876 14.6641 15.7167 14.6487 15.6458L14.6413 15.6117L14.6412 15.6115L14.6412 15.6114C14.6166 15.4981 14.592 15.3855 14.569 15.2721C14.5599 15.2243 14.54 15.2014 14.4875 15.2014C13.5762 15.2032 12.6649 15.2032 11.7536 15.2032C11.7491 15.2032 11.7451 15.2046 11.737 15.2074L11.737 15.2074L11.7246 15.2115C11.7028 15.31 11.6805 15.4086 11.6583 15.5071C11.6362 15.605 11.614 15.703 11.5923 15.8009C11.5772 15.8703 11.5623 15.9395 11.5475 16.0087C11.5208 16.1336 11.4941 16.2583 11.4655 16.383C11.4293 16.5391 11.2934 16.6529 11.1367 16.6538C10.6947 16.6566 10.2517 16.6566 9.80963 16.6538C9.61668 16.652 9.46631 16.4886 9.45997 16.2792C9.4568 16.1742 9.45522 16.0689 9.45363 15.9637C9.45205 15.8583 9.45046 15.7528 9.44729 15.6476C9.44218 15.4732 9.43529 15.2984 9.4284 15.1238C9.4243 15.0198 9.42021 14.9159 9.41649 14.8121C9.41287 14.7204 9.40947 14.6285 9.40608 14.5366L9.40608 14.5365L9.40608 14.5365L9.40608 14.5364L9.40607 14.5363C9.40268 14.4443 9.39928 14.3522 9.39565 14.2604L9.39566 14.2603C9.39656 14.2539 9.39746 14.2475 9.39656 14.2401C9.39293 14.1924 9.39203 14.1438 9.39203 14.096C9.39203 14.0878 9.39022 14.0795 9.38841 14.0721C9.38841 14.007 9.35942 13.9344 9.33405 13.8812C9.28695 13.782 9.20904 13.7352 9.10307 13.7315H9.09763C9.08495 13.7297 9.07317 13.7288 9.06049 13.7288V13.726H8.2416C8.22257 13.726 8.20446 13.7269 8.18544 13.7288L8.1461 13.7287H8.14609H8.14608H8.14607H8.14606C8.09367 13.7286 8.04081 13.7284 7.98796 13.7306C7.97709 13.7297 7.96622 13.7297 7.95534 13.7297C7.91639 13.7279 7.87744 13.726 7.83758 13.7251C7.82943 13.7223 7.82038 13.7205 7.8095 13.7205C7.8086 13.7205 7.8077 13.7203 7.80679 13.7201L7.80679 13.7201L7.8051 13.7197L7.80407 13.7196C7.79682 13.7159 7.78867 13.7141 7.77961 13.7132L7.77491 13.7115C7.77072 13.7099 7.76632 13.7083 7.7624 13.7077L7.75946 13.7064C7.7562 13.705 7.75323 13.7038 7.74972 13.7031C7.74066 13.6976 7.72979 13.6939 7.7162 13.6911C7.19442 13.5846 6.86017 13.267 6.70799 12.7538C6.67809 12.65 6.66813 12.5371 6.66722 12.4288C6.6636 11.641 6.66451 10.8542 6.66722 10.0674C6.66813 9.98296 6.64729 9.93981 6.56758 9.89942C6.17897 9.70295 5.92714 9.38253 5.79217 8.96755C5.76499 8.88401 5.73963 8.79679 5.73329 8.70957C5.72242 8.56634 5.81482 8.47637 5.95703 8.47546C6.25868 8.4727 6.56033 8.47086 6.86198 8.46903H6.958C6.95869 8.45605 6.95965 8.44387 6.96057 8.4322L6.96057 8.43219C6.96206 8.41331 6.96344 8.39572 6.96344 8.37813C6.96434 8.23216 6.96525 8.08618 6.96344 7.94112C6.96072 7.68498 7.11291 7.45178 7.34933 7.37283C7.73794 7.24337 8.103 7.51421 8.1175 7.89889C8.12123 8.00495 8.12026 8.11145 8.11929 8.21778V8.2178C8.11884 8.26609 8.1184 8.31436 8.1184 8.36253V8.46352H9.17463L9.17674 8.43013L9.17674 8.43012C9.17812 8.40956 9.17947 8.38926 9.18006 8.36896C9.18112 8.31703 9.18163 8.26511 9.18215 8.21321C9.18341 8.08708 9.18466 7.96108 9.19365 7.83554C9.21086 7.60602 9.41015 7.39853 9.6339 7.35263C9.95548 7.28744 10.239 7.48575 10.3124 7.75934C10.3296 7.82085 10.3341 7.88788 10.3359 7.95214C10.3379 8.05389 10.3375 8.15611 10.3371 8.25813L10.3368 8.37997C10.3368 8.39706 10.338 8.41455 10.3394 8.43407V8.43408V8.43409V8.43409V8.4341L10.3414 8.46535L10.3699 8.46716C10.3913 8.4686 10.4114 8.46995 10.431 8.46995C10.5819 8.47132 10.7327 8.47224 10.8835 8.47316H10.8835H10.8835H10.8835H10.8836C11.0344 8.47408 11.1852 8.47499 11.336 8.47637C11.4936 8.4773 11.5733 8.55992 11.5679 8.72059C11.5634 8.86013 11.5135 8.98866 11.4592 9.11261C11.3079 9.45597 11.076 9.72681 10.7409 9.89942C10.7227 9.90859 10.7037 9.91686 10.6847 9.92421C10.6367 9.94349 10.614 9.9747 10.634 10.0344L10.6355 10.0347C10.6506 10.0383 10.669 10.0427 10.6874 10.0454C10.6965 10.0466 10.7063 10.0462 10.7162 10.0458L10.7162 10.0458C10.7211 10.0456 10.7261 10.0454 10.7309 10.0454C11.2198 10.0465 11.7088 10.0473 12.1977 10.0481L12.1982 10.0481H12.1982H12.1983H12.1983H12.1984C12.9338 10.0493 13.6691 10.0505 14.4041 10.0527C15.1188 10.0546 15.8336 10.0564 16.5483 10.0638C17.2131 10.0702 17.7811 10.5063 17.9823 11.1242C18.0394 11.2986 18.0583 11.4776 18.0592 11.6585C18.061 12.0102 18.0609 12.3622 18.0608 12.7142V12.7142V12.7142V12.7142V12.7142C18.0607 12.9236 18.0607 13.133 18.061 13.3423V13.3479C18.061 13.4671 18.0611 13.5841 17.9442 13.6663L17.946 13.6682C17.936 13.6719 17.927 13.6774 17.9197 13.6856C17.9071 13.6911 17.8926 13.6966 17.879 13.7003L17.879 13.7003C17.8698 13.7012 17.8608 13.7022 17.8527 13.704C17.8518 13.7049 17.85 13.7049 17.8491 13.7049ZM9.75253 7.78689C9.6864 7.7924 9.6248 7.85024 9.6239 7.92185C9.6216 8.03439 9.62186 8.14693 9.62212 8.26182C9.62227 8.32782 9.62242 8.3946 9.62209 8.4626H9.88842C9.88842 8.40787 9.88871 8.35358 9.88901 8.29962V8.29954V8.29947V8.2994V8.29933C9.88975 8.16513 9.89047 8.03293 9.8866 7.90073C9.88479 7.83371 9.81232 7.7823 9.75253 7.78689ZM9.59589 10.5577C9.73267 10.5595 9.86311 10.688 9.84953 10.8202C9.84771 10.9561 9.72905 11.0773 9.59769 11.0764C9.46182 11.0764 9.33862 10.9488 9.34224 10.8129C9.34497 10.677 9.46454 10.5558 9.59589 10.5577ZM7.4236 7.86492C7.41093 7.89338 7.40639 7.92735 7.40639 7.95948C7.40548 8.11005 7.40548 8.26062 7.4073 8.4121C7.4073 8.42401 7.40983 8.43549 7.41259 8.448L7.41259 8.448L7.41259 8.44801L7.41259 8.44801C7.41387 8.45382 7.41521 8.45986 7.41636 8.46627H7.66546C7.66745 8.45957 7.66931 8.45422 7.67088 8.44971C7.6736 8.44188 7.67543 8.43663 7.67543 8.43138C7.67543 8.37504 7.67573 8.3188 7.67604 8.26259V8.26259V8.26258C7.67664 8.15027 7.67724 8.0381 7.67543 7.92551C7.67453 7.85482 7.6238 7.80065 7.56039 7.7878C7.51419 7.77953 7.44625 7.8135 7.4236 7.86492ZM9.681 13.1972C9.56142 13.2523 9.43461 13.2698 9.30507 13.2698C8.8775 13.2698 8.44994 13.2698 8.02147 13.2707C7.82038 13.2716 7.63105 13.233 7.46619 13.1109C7.21798 12.9282 7.10384 12.6767 7.10384 12.3691V9.84801L7.10404 9.82414C7.10425 9.80823 7.10445 9.79232 7.10384 9.77641C7.09841 9.6543 7.02503 9.59095 6.91814 9.5579C6.62284 9.467 6.42174 9.26687 6.28133 8.99603C6.27499 8.98317 6.26955 8.9694 6.26502 8.95471C6.26394 8.95196 6.26448 8.94855 6.26528 8.94349C6.26582 8.94011 6.26647 8.93599 6.26684 8.93085H8.38473V9.0658C8.385 9.12464 8.38416 9.18347 8.38331 9.24228V9.24229V9.2423C8.38141 9.37344 8.37952 9.50445 8.39016 9.63501C8.41824 9.98298 8.51244 10.3162 8.65648 10.6339C8.78692 10.9222 8.95903 11.1838 9.17734 11.4088C9.4491 11.6888 9.76614 11.9036 10.143 12.0147C10.172 12.023 10.1928 12.0349 10.1919 12.067C10.1898 12.1257 10.1913 12.1845 10.1929 12.2433V12.2433C10.196 12.3593 10.199 12.4752 10.1738 12.5904C10.1104 12.8768 9.94278 13.076 9.681 13.1972ZM16.5192 12.4038C16.5287 12.2092 16.5383 12.0146 16.551 11.8201C16.5754 11.451 16.4522 11.1407 16.1968 10.8763C16.1189 10.7964 16.0428 10.7138 15.9694 10.6293C15.9323 10.5861 15.8924 10.5669 15.8335 10.5669C15.747 10.5669 15.6605 10.5671 15.574 10.5673C15.4875 10.5676 15.401 10.5678 15.3145 10.5678V10.5513H11.8396V10.5522H10.7453H10.6837C10.6439 10.5522 10.6258 10.5724 10.6267 10.6128C10.6273 10.6287 10.6271 10.6446 10.6269 10.6605C10.6268 10.6685 10.6267 10.6764 10.6267 10.6844C10.6267 10.8354 10.6268 10.9864 10.6269 11.1374C10.6272 11.5893 10.6276 12.0409 10.6249 12.493C10.6249 12.5959 10.6113 12.7023 10.5805 12.7997C10.4808 13.1173 10.2852 13.3625 10.0016 13.5323C9.95544 13.5608 9.93913 13.5911 9.94004 13.6452C9.94366 13.842 9.94497 14.0393 9.94627 14.2363C9.94659 14.2857 9.94692 14.335 9.94728 14.3843C9.94909 14.662 9.95068 14.9395 9.95227 15.217C9.95385 15.4945 9.95544 15.772 9.95725 16.0497C9.95725 16.1434 9.96087 16.1461 10.0497 16.1461H10.9021C10.9932 16.1461 10.9936 16.1443 11.0135 16.0527L11.0144 16.0488C11.0597 15.8441 11.1059 15.6384 11.153 15.4337C11.1668 15.3736 11.1807 15.3137 11.1945 15.2537C11.2307 15.0974 11.2668 14.9412 11.3015 14.7846C11.3206 14.6983 11.3242 14.6909 11.4084 14.6909H14.8806C14.8996 14.6909 14.9187 14.693 14.9389 14.6952C14.9456 14.6959 14.9524 14.6967 14.9594 14.6974C15.0138 14.9233 15.0642 15.149 15.1143 15.3738C15.1717 15.6315 15.2289 15.888 15.2918 16.1424H16.3163C16.326 15.9845 16.3349 15.8353 16.3437 15.6863L16.3444 15.6733C16.3589 15.4282 16.3734 15.1821 16.387 14.937C16.4087 14.5321 16.4305 14.1263 16.4513 13.7205C16.4604 13.5418 16.4698 13.3632 16.4791 13.1845C16.4883 13.0079 16.4976 12.8312 16.5066 12.6546C16.5109 12.571 16.515 12.4874 16.5192 12.4038Z" fill="black"/>
<path fill-rule="evenodd" clip-rule="evenodd" d="M17.851 13.8436H17.8528L18.1518 13.6379C18.2025 13.5388 18.2025 13.4304 18.2025 13.3405V12.6905C18.2034 12.3462 18.2034 12.001 18.2016 11.6567C18.2007 11.4391 18.1726 11.2509 18.1173 11.0801C17.8954 10.3961 17.2677 9.93159 16.5556 9.92516C15.8763 9.91874 15.2068 9.91599 14.4106 9.91415C13.5555 9.91231 12.6994 9.91048 11.8443 9.90955L10.9946 9.90772C11.2501 9.72961 11.4493 9.48172 11.587 9.16682C11.6423 9.04013 11.7021 8.89139 11.7075 8.72338C11.7111 8.60494 11.6803 8.51038 11.6151 8.44153C11.5499 8.37267 11.4584 8.33686 11.3416 8.33595C11.1613 8.33411 10.9819 8.33319 10.8017 8.33228L10.4765 8.33044V8.23587C10.4765 8.13947 10.4765 8.04307 10.4747 7.94667C10.4719 7.85486 10.4638 7.78509 10.4466 7.72082C10.3505 7.36093 9.98368 7.13875 9.61047 7.21495C9.31879 7.27463 9.08235 7.53629 9.06152 7.82273C9.05247 7.94851 9.05065 8.07429 9.04974 8.19548C9.04929 8.21705 9.04907 8.23839 9.04884 8.25974C9.04862 8.28108 9.04839 8.30243 9.04794 8.32401H8.25894C8.25894 8.30613 8.25916 8.28824 8.25939 8.27035L8.25939 8.2703C8.25962 8.2524 8.25984 8.23449 8.25984 8.21659L8.2602 8.1782V8.1782V8.17819V8.17819V8.17818V8.17818V8.17817V8.17817V8.17816C8.26109 8.08442 8.26202 7.98765 8.25802 7.89159C8.24897 7.66298 8.13936 7.45733 7.95638 7.3288C7.77068 7.19843 7.53607 7.16629 7.31141 7.24066C7.02063 7.33706 6.82859 7.61891 6.83221 7.94116C6.83313 8.06235 6.83313 8.18262 6.83221 8.30289V8.32952L6.63202 8.33044C6.40737 8.33135 6.18363 8.33319 5.95988 8.33503C5.84937 8.33595 5.75244 8.37634 5.68722 8.44795C5.62381 8.51773 5.59391 8.61321 5.60116 8.71695C5.60841 8.81978 5.6374 8.91802 5.66638 9.00799C5.81766 9.47254 6.1021 9.81316 6.51064 10.0197C6.51956 10.0245 6.52544 10.0281 6.52898 10.0302C6.53156 10.0318 6.5329 10.0326 6.53329 10.0326L6.53362 10.0364C6.53414 10.0411 6.5351 10.0498 6.5351 10.0638C6.53147 10.8781 6.53147 11.6723 6.5351 12.426C6.536 12.5656 6.5514 12.6849 6.5822 12.7896C6.75069 13.3588 7.12481 13.7059 7.68644 13.8188L7.74712 13.8445L7.83771 13.8592C7.86712 13.8599 7.89653 13.8611 7.92905 13.8624H7.92906H7.92906L7.96182 13.8638C7.96646 13.8638 7.97063 13.864 7.97469 13.8643C7.97855 13.8645 7.9823 13.8647 7.98627 13.8647H7.99171H7.99714C8.0533 13.8629 8.10947 13.8629 8.16563 13.8629H8.18919L8.20277 13.8619C8.21546 13.861 8.22904 13.8601 8.24534 13.8601H8.93651L9.06062 13.8629C9.06953 13.8629 9.07844 13.8638 9.08737 13.8647H9.08738H9.08738H9.08739H9.08739H9.0874H9.0874H9.08741H9.08742L9.08779 13.8647L9.10228 13.8656C9.16116 13.8684 9.19196 13.8876 9.21551 13.9372C9.24904 14.0098 9.25628 14.0483 9.25628 14.0685V14.0887L9.25991 14.1016C9.25991 14.1447 9.26081 14.1906 9.26444 14.2393L9.26262 14.2457L9.29432 15.0812L9.30004 15.2278L9.30004 15.2279L9.30004 15.2279C9.30559 15.3687 9.31112 15.5091 9.31516 15.6495C9.31787 15.756 9.31969 15.8615 9.3215 15.968C9.32332 16.0727 9.32512 16.1764 9.32784 16.2811C9.336 16.5639 9.54887 16.787 9.81247 16.7888C10.0244 16.7897 10.24 16.7907 10.4629 16.7907C10.674 16.7907 10.891 16.7898 11.118 16.7889L11.1414 16.7888C11.3579 16.787 11.5508 16.6291 11.6015 16.4115C11.6287 16.2921 11.655 16.1719 11.6803 16.0525L11.7293 15.8285C11.7591 15.692 11.7898 15.5565 11.8205 15.4209L11.8205 15.4209L11.8205 15.4209L11.8205 15.4209L11.8205 15.4209L11.8205 15.4209L11.8206 15.4208L11.8206 15.4208L11.8206 15.4208L11.8208 15.4199L11.8389 15.3382H12.4268C13.0998 15.3382 13.7729 15.3382 14.4477 15.3373C14.4658 15.4236 14.484 15.5099 14.503 15.5962L14.5691 15.9001L14.5903 15.9965C14.6187 16.126 14.6472 16.2554 14.6733 16.3849C14.7204 16.6144 14.9233 16.7888 15.1452 16.7897C15.5873 16.7916 16.0303 16.7916 16.4732 16.7897C16.7205 16.7888 16.9397 16.5731 16.9515 16.3188C16.9593 16.1564 16.9678 15.9948 16.9764 15.8325L16.9777 15.8074L17.0058 15.2896L17.0074 15.2608L17.0074 15.2606C17.0159 15.1077 17.0245 14.954 17.0322 14.8012L17.043 14.579L17.0474 14.488L17.0474 14.4878C17.0502 14.4295 17.053 14.3713 17.0566 14.3127L17.0783 13.9446C17.0828 13.8624 17.0876 13.7802 17.0924 13.6979C17.0971 13.6158 17.1019 13.5337 17.1064 13.4516C17.1172 13.245 17.1273 13.0375 17.1372 12.8309L17.1535 12.5004L17.1549 12.4745C17.159 12.3977 17.1631 12.321 17.168 12.2443C17.1789 12.0616 17.1897 11.8743 17.1925 11.687C17.1961 11.3868 17.1236 11.1022 16.9759 10.8387C17.2359 10.9929 17.418 11.2849 17.418 11.5943V11.7861L17.418 11.7872C17.4189 12.3111 17.4198 12.8341 17.4171 13.3579C17.4171 13.4782 17.4307 13.615 17.5303 13.7316L17.5385 13.761L17.592 13.7876C17.6834 13.8326 17.7677 13.8408 17.8374 13.8436H17.8492H17.851ZM9.56257 15.0711L9.53267 14.2659C9.53357 14.253 9.53448 14.2393 9.53357 14.2246C9.52905 14.1814 9.52905 14.1364 9.52905 14.0933V14.0933C9.52905 14.0804 9.52814 14.0667 9.52542 14.0529C9.5218 13.9629 9.48557 13.8766 9.45839 13.8188C9.40404 13.704 9.31527 13.6306 9.19841 13.603V13.5865H8.24635C8.22462 13.5865 8.20287 13.5874 8.18114 13.5893H8.16392C8.10595 13.5893 8.04798 13.5893 7.99 13.5911H7.96282C7.94516 13.5906 7.92749 13.5899 7.90983 13.5893L7.90972 13.5893C7.89209 13.5886 7.87447 13.5879 7.85684 13.5874C7.84869 13.5856 7.84053 13.5847 7.83238 13.5838C7.82967 13.5833 7.82695 13.5826 7.82423 13.5819C7.82151 13.5812 7.8188 13.5805 7.81608 13.5801L7.80793 13.5773L7.80567 13.5764L7.8034 13.5755C7.78528 13.5663 7.76445 13.5599 7.7436 13.5553C7.27438 13.4598 6.97817 13.1844 6.83866 12.7134C6.81511 12.6344 6.80424 12.5408 6.80333 12.4269C6.79971 11.6741 6.79971 10.8809 6.80333 10.0675C6.80424 9.92699 6.74988 9.83701 6.6285 9.7755C6.287 9.6029 6.04876 9.31645 5.92103 8.92443C5.89657 8.85098 5.87393 8.77203 5.86849 8.6995C5.86759 8.68022 5.8694 8.65359 5.88208 8.63707C5.89657 8.62146 5.92375 8.61228 5.95727 8.61228C6.06915 8.61136 6.18103 8.61067 6.29291 8.60998H6.29291H6.29291H6.29291H6.29291H6.29291H6.29291H6.29292H6.29292C6.40478 8.60929 6.51664 8.60861 6.6285 8.60769L7.08415 8.60585L7.09502 8.44794L7.09552 8.44107L7.09552 8.44107C7.09715 8.41903 7.09864 8.39897 7.09864 8.37816V8.30563L7.09865 8.30414V8.30412C7.09955 8.18252 7.10045 8.06092 7.09864 7.93931C7.09683 7.73825 7.21369 7.5629 7.39124 7.50414C7.53436 7.45732 7.68201 7.4766 7.79705 7.55739C7.90938 7.63634 7.97642 7.76304 7.98185 7.90443C7.98547 8.00725 7.98457 8.11375 7.98367 8.21658C7.98367 8.24091 7.98344 8.26524 7.98321 8.28957V8.28957V8.28957V8.28957V8.28958V8.28958V8.28958V8.28958V8.28958C7.98298 8.31391 7.98275 8.33823 7.98275 8.36255V8.60126H9.30168L9.31074 8.44334L9.31075 8.4433C9.31255 8.41945 9.31436 8.39559 9.31798 8.37357C9.31919 8.33561 9.31959 8.29724 9.32 8.25901L9.3207 8.20189C9.3216 8.07887 9.32342 7.96319 9.33157 7.84659C9.34335 7.68409 9.49191 7.52342 9.66311 7.48853C9.924 7.43528 10.1323 7.60329 10.184 7.79609C10.1985 7.85026 10.2012 7.91361 10.2021 7.95676C10.2043 8.03168 10.2041 8.1066 10.204 8.18151L10.2039 8.23769V8.38092C10.2039 8.40111 10.2048 8.42131 10.2066 8.44427L10.2148 8.59758L10.367 8.60585L10.3903 8.60703L10.3903 8.60703C10.4047 8.60783 10.4186 8.6086 10.4322 8.6086L10.7981 8.61136L10.8071 8.6114L10.8072 8.6114L10.8072 8.6114L10.8073 8.6114L10.8073 8.6114L10.8074 8.6114H10.8074C10.9837 8.61231 11.1609 8.61323 11.3371 8.61504C11.3752 8.61504 11.4051 8.62237 11.4168 8.63523C11.4286 8.64808 11.435 8.67746 11.4341 8.71694C11.4304 8.83445 11.3842 8.94922 11.3371 9.05663C11.1904 9.38991 10.9757 9.62585 10.6813 9.77734C10.6668 9.78468 10.6514 9.79111 10.636 9.79753C10.5155 9.8462 10.4657 9.95728 10.5074 10.0803L10.5327 10.1538L10.6197 10.1721C10.636 10.1758 10.6541 10.1795 10.6722 10.1822C10.686 10.1844 10.6997 10.1843 10.7135 10.1841H10.7135L10.7239 10.184H10.7338L11.8417 10.1859C12.6968 10.1868 13.5529 10.1886 14.408 10.1905C15.2042 10.1923 15.8727 10.1951 16.5512 10.2015C17.1463 10.207 17.6718 10.5954 17.8575 11.1673C17.9045 11.3096 17.9272 11.4712 17.9282 11.6594C17.9291 12.0037 17.9291 12.348 17.9291 12.6923V13.3496C17.93 13.4699 17.9245 13.5158 17.8711 13.5535L17.8629 13.559L17.8548 13.5645C17.8533 13.565 17.8516 13.5652 17.8498 13.5654C17.8482 13.5656 17.8465 13.5659 17.8448 13.5663L17.8032 13.5635C17.7795 13.5608 17.7587 13.5562 17.737 13.5479C17.7035 13.5066 17.6917 13.4525 17.6917 13.3579C17.6935 12.8337 17.6935 12.3094 17.6925 11.7852V11.5933C17.6917 11.0425 17.2524 10.5329 16.7134 10.4586C16.6907 10.4558 16.6708 10.4576 16.6572 10.4595L16.4135 10.4769L16.5503 10.6918C16.5612 10.711 16.5711 10.7257 16.5829 10.7404C16.8121 11.0269 16.9262 11.3436 16.9217 11.6824C16.919 11.8632 16.9081 12.0478 16.8972 12.2268C16.8919 12.3131 16.8873 12.3994 16.8827 12.4857L16.8664 12.8162C16.8565 13.0228 16.8466 13.2294 16.8357 13.4359C16.8275 13.5994 16.8176 13.7637 16.8076 13.9271L16.7858 14.2962C16.7823 14.3553 16.7795 14.4141 16.7767 14.473L16.7722 14.5652L16.7614 14.7855C16.7533 14.9473 16.7443 15.109 16.7352 15.2708L16.7352 15.271L16.7352 15.2713L16.7352 15.2716L16.7352 15.2719L16.7352 15.2722L16.7351 15.2724L16.7351 15.2727L16.7351 15.273L16.707 15.7908L16.7067 15.7968L16.7067 15.797L16.7067 15.7972L16.7067 15.7973L16.7067 15.7975L16.7067 15.7977L16.7067 15.7978L16.7067 15.798L16.7066 15.7981C16.6977 15.9665 16.6888 16.1348 16.6808 16.3041C16.6753 16.4133 16.5766 16.5134 16.4733 16.5134C16.0313 16.5152 15.5892 16.5152 15.1472 16.5134C15.0538 16.5134 14.9605 16.4298 14.9397 16.3279C14.9062 16.1654 14.8709 16.002 14.8346 15.8395L14.7685 15.5365C14.7468 15.4383 14.7259 15.341 14.706 15.2427C14.6824 15.128 14.6045 15.0619 14.4913 15.0619H14.4904C13.802 15.0628 13.1144 15.0628 12.426 15.0628H11.7565C11.7334 15.0628 11.7159 15.0685 11.704 15.0723L11.6995 15.0738L11.6125 15.1004L11.5536 15.3593L11.5206 15.505L11.5205 15.5051C11.5005 15.5929 11.4805 15.6807 11.4612 15.7688L11.4123 15.9947L11.412 15.996C11.3868 16.114 11.3615 16.232 11.3344 16.349C11.3127 16.4436 11.2293 16.5125 11.1369 16.5134C10.6614 16.5161 10.2284 16.5161 9.81077 16.5134C9.6921 16.5125 9.5997 16.4096 9.59608 16.2728C9.59339 16.1707 9.59157 16.0676 9.58978 15.9655L9.58978 15.9652L9.58974 15.9634L9.58849 15.8824C9.5873 15.802 9.58611 15.7216 9.5834 15.6412C9.57705 15.4511 9.56982 15.2611 9.56257 15.0711ZM10.0489 16.2857C9.88585 16.2857 9.82153 16.2205 9.82062 16.0525L9.81066 14.2934C9.80976 14.0786 9.80794 13.8638 9.80432 13.6499C9.80251 13.5461 9.84417 13.469 9.93295 13.4158C10.1875 13.2633 10.3623 13.0421 10.452 12.7602C10.4765 12.6831 10.4901 12.5913 10.4901 12.4949C10.4928 12.0432 10.4928 11.5915 10.4928 11.1398V10.6872V10.6606V10.6202C10.4901 10.5458 10.5199 10.4999 10.5444 10.4733C10.5689 10.4476 10.6123 10.4145 10.6866 10.4173H10.9656H11.741H11.8407H15.4514V10.4338C15.5152 10.4338 15.5788 10.4336 15.6423 10.4333L15.6425 10.4333L15.6427 10.4333C15.7063 10.4331 15.7699 10.4329 15.8337 10.4329H15.8355C15.9306 10.4329 16.0085 10.4687 16.0719 10.543C16.1399 10.6211 16.2141 10.7019 16.2939 10.7845C16.581 11.0783 16.7124 11.4308 16.6861 11.8311C16.6734 12.0248 16.6634 12.2186 16.6544 12.4123L16.5864 13.7297C16.5659 14.1305 16.5444 14.5313 16.5229 14.9321L16.5221 14.9471C16.5118 15.1392 16.5007 15.3304 16.4896 15.5224L16.4877 15.5549L16.4442 16.2839H15.1851L15.1597 16.1801C15.0976 15.93 15.0405 15.6738 14.9853 15.4258L14.9795 15.3997C14.9378 15.2115 14.8952 15.0224 14.8508 14.8324L13.7105 14.8322H13.7091H13.709H13.7089H13.7088H13.7087H13.7086H13.7085C12.9491 14.832 12.1899 14.8318 11.4303 14.8324C11.4014 14.9644 11.3706 15.0965 11.3398 15.2285L11.3397 15.229L11.2754 15.5072L11.275 15.5091C11.2317 15.7003 11.1883 15.8916 11.1459 16.0828C11.1115 16.2407 11.0544 16.2875 10.9013 16.2875L10.0489 16.2857ZM10.0824 14.2916C10.0815 14.0804 10.0797 13.8684 10.0761 13.6499C10.3868 13.4616 10.6006 13.1908 10.7084 12.8447C10.741 12.7419 10.7591 12.6216 10.76 12.4976C10.763 12.121 10.7629 11.7443 10.7628 11.3676V11.3674L10.7627 11.1398V10.6936H10.9647H11.8398L15.1788 10.6927V10.7092H15.3146C15.4877 10.7092 15.6607 10.7092 15.8337 10.7083C15.8518 10.7083 15.8536 10.7083 15.8672 10.7239C15.9379 10.8065 16.0167 10.8919 16.1 10.9773C16.3328 11.216 16.4361 11.4887 16.4144 11.8118C16.4042 11.9677 16.3964 12.1242 16.3885 12.2808L16.3826 12.3976L16.3147 13.7141C16.2951 14.0955 16.2748 14.476 16.2543 14.8573L16.2543 14.8588L16.2504 14.9306C16.2395 15.1335 16.2278 15.3355 16.216 15.5375L16.1879 16.0066H15.3971C15.3436 15.7835 15.2929 15.5567 15.244 15.3364L15.2291 15.27C15.1842 15.0696 15.139 14.8679 15.0909 14.6662L15.0674 14.5698L14.946 14.5588C14.9233 14.556 14.9016 14.5542 14.8798 14.5542H11.4077C11.2438 14.5542 11.1975 14.6258 11.1686 14.7562C11.1387 14.892 11.1079 15.0279 11.0762 15.1638L11.0119 15.4429L10.9758 15.6015C10.945 15.7367 10.9141 15.8723 10.8841 16.0103H10.0924L10.0824 14.2916ZM8.01806 13.4084C7.76353 13.4084 7.55609 13.3478 7.38669 13.222C7.1095 13.0182 6.96909 12.7309 6.96818 12.3682V10.6036V9.82693V9.78194C6.96638 9.74429 6.95913 9.71399 6.8785 9.68921C6.5687 9.59372 6.32684 9.38165 6.16107 9.05939C6.1511 9.04012 6.14295 9.019 6.1357 8.99788C6.1246 8.96411 6.1288 8.93524 6.13084 8.92128L6.13118 8.91893L6.1502 8.80417L6.26705 8.79223H8.52081V9.0649C8.52081 9.09472 8.52059 9.12453 8.52036 9.15433L8.52036 9.15442V9.15443V9.15443V9.15444V9.15444V9.15445C8.52013 9.18428 8.51991 9.2141 8.51991 9.24393L8.51986 9.24723V9.24725C8.51807 9.37732 8.51637 9.50113 8.52625 9.62402C8.55161 9.94076 8.63767 10.2612 8.7808 10.577C8.90852 10.8589 9.0752 11.1067 9.2754 11.3133C9.55258 11.5988 9.8488 11.7852 10.1821 11.8835C10.3235 11.9257 10.3298 12.0395 10.3289 12.0735C10.3271 12.1295 10.328 12.1846 10.3298 12.2406C10.3334 12.3627 10.3361 12.4894 10.3072 12.6216C10.2347 12.9466 10.0436 13.1825 9.73737 13.323C9.61236 13.3809 9.47558 13.4075 9.30528 13.4075H8.83877C8.56701 13.4075 8.29436 13.4075 8.0226 13.4084H8.01806ZM6.95708 9.42665C6.76233 9.36605 6.60561 9.24853 6.48242 9.06859H8.24973C8.25065 9.12551 8.24973 9.18335 8.24883 9.24027C8.24702 9.37247 8.2452 9.50927 8.25608 9.64607C8.28416 9.99495 8.37746 10.3466 8.53418 10.6918C8.67459 11.003 8.85938 11.2775 9.08131 11.5061C9.37299 11.8073 9.70001 12.0166 10.056 12.1323C10.056 12.1703 10.0569 12.2084 10.0578 12.2464L10.0578 12.2465L10.0578 12.2479L10.0579 12.2496C10.0606 12.3592 10.0631 12.4633 10.0415 12.561C9.98897 12.8006 9.85219 12.9686 9.62483 13.0733C9.53605 13.1137 9.43459 13.133 9.30505 13.133H8.83854C8.56588 13.133 8.29413 13.133 8.02146 13.1339C7.82308 13.1339 7.66999 13.0926 7.54589 13.0008C7.34026 12.8493 7.23971 12.6427 7.23971 12.37V10.6055V9.8306C7.23971 9.81132 7.23971 9.79113 7.2388 9.77185C7.23518 9.67361 7.1926 9.49918 6.95708 9.42665ZM9.59784 11.2151H9.59692C9.49548 11.2151 9.39402 11.1701 9.31883 11.0921C9.24455 11.0149 9.20288 10.9121 9.2056 10.8102C9.21103 10.5981 9.38767 10.4209 9.59239 10.4209H9.59692C9.70472 10.4228 9.81524 10.4751 9.89042 10.5614C9.95927 10.6394 9.99188 10.7349 9.98373 10.8295C9.9792 11.0388 9.80346 11.2151 9.59784 11.2151ZM9.47715 10.8166C9.47896 10.756 9.53603 10.6954 9.59219 10.6954L9.59299 10.6956L9.5931 10.6964C9.62572 10.6964 9.66195 10.7157 9.68731 10.7441C9.70543 10.7643 9.7154 10.7882 9.71358 10.8065L9.71268 10.8194C9.71177 10.8791 9.6538 10.9397 9.59764 10.9397C9.56864 10.9397 9.53694 10.9241 9.51339 10.8993C9.48983 10.8754 9.47625 10.8442 9.47715 10.8166ZM7.76714 8.6031H7.30244L7.27979 8.47641C7.27617 8.45988 7.27164 8.43785 7.27164 8.41214C7.27074 8.26066 7.26984 8.10917 7.27164 7.95769C7.27256 7.90077 7.28161 7.85119 7.29972 7.80896C7.34683 7.70154 7.47546 7.63085 7.58597 7.65288C7.71643 7.67859 7.80882 7.78968 7.81063 7.92372C7.81244 8.055 7.81154 8.18721 7.81063 8.3185L7.80972 8.43142C7.80972 8.45988 7.80247 8.48192 7.79794 8.49477L7.76714 8.6031ZM9.48735 8.60128H10.0254L10.0272 8.30197C10.0281 8.16977 10.0281 8.03297 10.0245 7.89801C10.0227 7.83099 9.9928 7.76856 9.94027 7.72082C9.88501 7.67124 9.81163 7.64462 9.7428 7.65013C9.60329 7.66115 9.49187 7.7805 9.48915 7.92005C9.48698 8.02116 9.48712 8.12228 9.48727 8.22526C9.48731 8.25131 9.48735 8.27749 9.48735 8.30381V8.60128Z" fill="black"/>
<path d="M16.1977 10.8799C16.1198 10.8001 16.0437 10.7174 15.9703 10.633C15.9323 10.5898 15.8933 10.5696 15.8344 10.5705C15.714 10.5715 15.5944 10.5715 15.4739 10.5715V10.5586H12.1349C12.106 10.5577 12.0761 10.5559 12.0471 10.5559C11.6132 10.5549 11.1793 10.5549 10.7463 10.5549C10.7254 10.5549 10.7055 10.5549 10.6847 10.5549C10.6448 10.5549 10.6258 10.5751 10.6276 10.6155C10.6285 10.6394 10.6276 10.6633 10.6276 10.6871C10.6276 11.2903 10.6294 11.8926 10.6258 12.4958C10.6249 12.5986 10.6113 12.7051 10.5814 12.8024C10.4808 13.1192 10.2861 13.3652 10.0026 13.5351C9.95545 13.5635 9.94005 13.5938 9.94096 13.648C9.94548 13.894 9.9464 14.141 9.9482 14.3871C9.95183 14.9425 9.95455 15.497 9.95817 16.0525C9.95908 16.1461 9.9618 16.1489 10.0506 16.1489C10.335 16.1489 10.6194 16.1489 10.903 16.1489C10.9954 16.1489 10.9945 16.147 11.0153 16.0516C11.0606 15.8459 11.1068 15.6412 11.1539 15.4364C11.2028 15.2198 11.2544 15.004 11.3025 14.7874C11.3215 14.7011 11.3251 14.6937 11.4093 14.6937C12.567 14.6937 13.7238 14.6937 14.8815 14.6937C14.9068 14.6937 14.9322 14.6974 14.9603 14.7001C15.0771 15.1858 15.1741 15.6687 15.2927 16.1452C15.6388 16.1452 15.9721 16.1452 16.3173 16.1452C16.3272 15.9827 16.3363 15.8294 16.3453 15.6761C16.3598 15.4309 16.3743 15.1849 16.3879 14.9398C16.4097 14.534 16.4314 14.1282 16.4522 13.7233C16.4713 13.368 16.4894 13.0127 16.5075 12.6574C16.522 12.3792 16.5338 12.101 16.5519 11.8228C16.5754 11.451 16.4522 11.1407 16.1977 10.8799Z" fill="white"/>
<path d="M12.4478 12.0799C12.9551 12.0799 13.3664 11.6631 13.3664 11.1489C13.3664 10.6348 12.9551 10.218 12.4478 10.218C11.9405 10.218 11.5293 10.6348 11.5293 11.1489C11.5293 11.6631 11.9405 12.0799 12.4478 12.0799Z" fill="black"/>
<path d="M15.0652 13.9188C15.4919 13.9188 15.8379 13.5682 15.8379 13.1357C15.8379 12.7032 15.4919 12.3526 15.0652 12.3526C14.6384 12.3526 14.2925 12.7032 14.2925 13.1357C14.2925 13.5682 14.6384 13.9188 15.0652 13.9188Z" fill="black"/>
<path d="M12.4685 14.9875C12.8934 14.9737 13.311 15.0325 13.7295 15.0931C13.7403 15.0931 13.7512 15.0931 13.7612 15.0931C13.7702 15.0316 13.7757 14.9682 13.7757 14.9039C13.7757 14.2172 13.2258 13.6599 12.5482 13.6599C11.8707 13.6599 11.3208 14.2172 11.3208 14.9039C11.3208 15.0251 11.338 15.1417 11.3697 15.2528C11.6569 14.9599 12.0953 14.9994 12.4685 14.9875Z" fill="black"/>
<path d="M13.0426 10.1546C13.0145 10.1546 12.9882 10.151 12.9619 10.1436C12.856 10.2621 12.7935 10.4044 12.7935 10.5568C12.7935 10.9717 13.2518 11.3087 13.818 11.3087C14.3832 11.3087 14.8425 10.9717 14.8425 10.5568C14.8425 10.4089 14.7845 10.2712 14.684 10.1546H13.0426Z" fill="black"/>
<path d="M9.34266 10.8157C9.32908 10.6495 9.47854 10.5375 9.60898 10.5384C9.76298 10.5393 9.88708 10.6679 9.88436 10.823C9.88164 10.9745 9.75483 11.0994 9.60718 11.0966C9.45317 11.0939 9.34176 10.9754 9.34266 10.8157Z" fill="white"/>
<path d="M7.69854 8.34324C7.57263 8.34324 7.45214 8.34324 7.32713 8.34324C7.3217 8.31753 7.31355 8.2955 7.31355 8.27347C7.31264 8.07975 7.31173 8.13667 7.31355 7.94296C7.31445 7.90256 7.31989 7.85849 7.33891 7.82177C7.37243 7.75566 7.47388 7.7116 7.54182 7.72261C7.63694 7.73822 7.71122 7.80891 7.71302 7.89981C7.71665 8.11648 7.71394 8.08251 7.71302 8.29918C7.71302 8.30927 7.70669 8.32029 7.69854 8.34324Z" fill="white"/>
<path d="M9.94121 8.34324C9.8153 8.34324 9.69482 8.34324 9.56981 8.34324C9.56438 8.31753 9.55623 8.2955 9.55623 8.27347C9.55531 8.07975 9.55441 8.13667 9.55623 7.94296C9.55713 7.90256 9.56256 7.85849 9.58159 7.82177C9.61511 7.75566 9.71655 7.7116 9.7845 7.72261C9.87961 7.73822 9.95389 7.80891 9.9557 7.89981C9.95932 8.11648 9.95661 8.08251 9.9557 8.29918C9.9557 8.30927 9.94936 8.32029 9.94121 8.34324Z" fill="white"/>
</svg>
