<svg width="24" height="24" viewBox="0 0 24 24" fill="none" xmlns="http://www.w3.org/2000/svg">
<circle cx="12" cy="12" r="12" fill="black"/>
<path fill-rule="evenodd" clip-rule="evenodd" d="M12.7716 18.629C12.7716 18.524 12.7505 18.4242 12.7112 18.3327L17.4243 15.6755C17.575 15.8384 17.7878 15.931 18.0106 15.9305C18.4466 15.9305 18.8002 15.5855 18.8002 15.1595C18.8002 14.7942 18.5403 14.4882 18.192 14.408L18.2056 9.14297C18.5471 9.05822 18.8002 8.75522 18.8002 8.39522C18.8002 7.96922 18.4466 7.62422 18.0106 7.62422C17.7439 7.62422 17.5089 7.75322 17.3654 7.95122L12.7505 5.34872C12.803 5.1175 12.7464 4.87513 12.5968 4.6904C12.4472 4.50567 12.2208 4.39874 11.9821 4.39997C11.5469 4.39997 11.1925 4.74497 11.1925 5.17097C11.1923 5.23243 11.1999 5.29366 11.2152 5.35322L6.62744 7.94072C6.48313 7.74872 6.25117 7.62422 5.98975 7.62422C5.5538 7.62422 5.2002 7.96922 5.2002 8.39522C5.20219 8.74943 5.44616 9.0571 5.79255 9.14222V14.4125C5.4518 14.498 5.2002 14.7995 5.2002 15.1595C5.2002 15.5855 5.5538 15.9305 5.98975 15.9305C6.20336 15.9311 6.4082 15.8462 6.55793 15.695L11.2499 18.3402C11.2129 18.4295 11.1925 18.527 11.1925 18.629C11.1925 19.055 11.5461 19.4 11.9821 19.4C12.418 19.4 12.7716 19.055 12.7716 18.629ZM17.2506 15.3686L12.5004 18.0476V18.0469C12.3621 17.9291 12.1808 17.8579 11.9821 17.8579C11.7892 17.8575 11.6028 17.9268 11.4577 18.0529L6.74157 15.3941C6.79087 15.2442 6.79192 15.0827 6.74459 14.9321L11.2605 11.9119C11.4386 12.1374 11.7115 12.2689 12.0002 12.2682C12.2586 12.2688 12.5057 12.1635 12.6833 11.9772L17.2657 14.9021C17.2115 15.0522 17.2062 15.2154 17.2506 15.3686ZM12.5903 5.6629C12.4829 5.78878 12.3383 5.87797 12.177 5.9179L12.1649 10.4599C12.6064 10.5341 12.9305 10.9124 12.9333 11.3569C12.9333 11.4701 12.9122 11.5796 12.8729 11.6794L17.4591 14.6074C17.5611 14.5099 17.6895 14.4401 17.8331 14.4079L17.8467 9.14964C17.4414 9.06762 17.171 8.686 17.2302 8.27965L12.5903 5.6629ZM6.76814 8.26547L11.3778 5.66672C11.4917 5.79905 11.6466 5.89006 11.8183 5.92547L11.8062 10.466C11.558 10.5164 11.3416 10.6661 11.208 10.8797C11.0743 11.0934 11.0352 11.3523 11.0997 11.5955L6.56262 14.6292C6.45382 14.5167 6.31178 14.4372 6.1516 14.4042V9.15047C6.56362 9.06834 6.83616 8.67712 6.76814 8.26547Z" fill="white"/>
</svg>
