<svg width="24" height="24" viewBox="0 0 24 24" fill="none" xmlns="http://www.w3.org/2000/svg">
<circle cx="12" cy="12" r="12" fill="#EDF0F4"/>
<path d="M7.30271 14.9967C7.76474 14.537 8.51174 14.5385 8.97196 14.9999C9.43219 15.4614 9.4317 16.2083 8.97088 16.6692C8.51005 17.13 7.76305 17.1305 7.30162 16.6703C6.84019 16.21 6.83873 15.463 7.29835 15.001L7.30271 14.9967Z" fill="#FDBA4D"/>
<path d="M15.3891 7.32004C15.7272 6.98189 16.2358 6.88073 16.6776 7.06372C17.1194 7.24671 17.4074 7.67781 17.4074 8.156C17.4074 8.6342 17.1194 9.0653 16.6776 9.24829C16.2358 9.43128 15.7272 9.33012 15.3891 8.99197C14.9282 8.53124 14.9275 7.78419 15.3877 7.32265H15.3891" fill="#FDBA4D"/>
<path d="M8.81934 14.0872L10.0667 15.3346L11.2095 14.1918C10.6396 13.9631 10.188 13.5114 9.95916 12.9415L8.81934 14.0872Z" fill="#FDBA4D"/>
<path d="M14.4286 11.035L15.5713 9.89224L14.3239 8.64484L13.1812 9.78757C13.4632 9.90073 13.7194 10.0699 13.9343 10.2848C14.1489 10.4982 14.3172 10.7536 14.4286 11.035Z" fill="#FDBA4D"/>
<path d="M15.3493 16.6096C15.0111 16.2715 14.91 15.763 15.093 15.3212C15.2759 14.8794 15.707 14.5913 16.1852 14.5913C16.6634 14.5913 17.0945 14.8794 17.2775 15.3212C17.4605 15.763 17.3594 16.2715 17.0212 16.6096C16.7999 16.8313 16.4996 16.9561 16.1863 16.9563C15.873 16.9566 15.5724 16.8324 15.3507 16.6111L15.3493 16.6096Z" fill="#5DA9DD"/>
<path d="M7.42154 8.88671C7.08339 8.54858 6.98223 8.04006 7.16522 7.59826C7.34821 7.15647 7.77931 6.86841 8.25751 6.86841C8.7357 6.86841 9.1668 7.15647 9.34979 7.59826C9.53278 8.04006 9.43162 8.54858 9.09347 8.88671C8.87197 9.10825 8.57152 9.23271 8.25823 9.23271C7.94495 9.23271 7.6445 9.10825 7.42299 8.88671" fill="#5DA9DD"/>
<path d="M14.2296 15.2849L15.477 14.0374L14.3343 12.8947C14.1055 13.4646 13.6538 13.9162 13.084 14.145" fill="#5DA9DD"/>
<path d="M11.3047 9.72269L10.162 8.57996L8.91455 9.82736L10.0573 10.9701C10.1704 10.688 10.3396 10.4319 10.5545 10.217C10.7679 10.0024 11.0233 9.83409 11.3047 9.72269Z" fill="#5DA9DD"/>
<path d="M13.3935 6.38345C13.393 7.03639 12.8634 7.56539 12.2105 7.56515C11.5575 7.5649 11.0283 7.03552 11.0283 6.38258C11.0283 5.72964 11.5575 5.20025 12.2105 5.20001C12.8634 5.19977 13.393 5.72876 13.3935 6.38171V6.38345Z" fill="#18568C"/>
<path d="M13.3935 17.6869C13.393 18.3398 12.8634 18.8688 12.2105 18.8685C11.5575 18.8683 11.0283 18.3389 11.0283 17.686C11.0283 17.033 11.5575 16.5037 12.2105 16.5034C12.8634 16.5032 13.393 17.0322 13.3935 17.6851V17.6869Z" fill="#18568C"/>
<path d="M12.6404 8.18622H11.896V9.6517C12.1423 9.60896 12.3941 9.60896 12.6404 9.6517" fill="#18568C"/>
<path d="M12.6404 14.4832C12.3941 14.5259 12.1423 14.5259 11.896 14.4832V15.9486H12.6404" fill="#18568C"/>
<path d="M17.4463 12.8947C16.7934 12.8942 16.2644 12.3646 16.2646 11.7117C16.2649 11.0587 16.7943 10.5295 17.4472 10.5295C18.1002 10.5295 18.6295 11.0587 18.6298 11.7117C18.63 12.3646 18.101 12.8942 17.4481 12.8947H17.4463Z" fill="#18578C"/>
<path d="M6.58334 13.0956C5.92978 13.0956 5.39996 12.5658 5.3999 11.9122C5.39985 11.2587 5.92959 10.7288 6.58315 10.7287C7.2367 10.7286 7.76662 11.2583 7.76678 11.9118C7.76686 12.2258 7.64221 12.5269 7.42026 12.7489C7.19832 12.9709 6.89726 13.0956 6.58334 13.0956Z" fill="#18578C"/>
<path d="M14.437 12.2843H15.9025V11.5388H14.437C14.4798 11.785 14.4798 12.0368 14.437 12.2831V12.2843Z" fill="#18578C"/>
<path d="M9.88346 12.2844C9.84071 12.0381 9.84071 11.7863 9.88346 11.54H8.41797V12.2844" fill="#18578C"/>
<path d="M13.8531 11.9994C13.8531 12.926 13.1019 13.6772 12.1753 13.6772C11.2487 13.6772 10.4976 12.926 10.4976 11.9994C10.4976 11.0728 11.2487 10.3217 12.1753 10.3217C13.1018 10.322 13.8527 11.0729 13.8531 11.9994Z" fill="#18568B"/>
</svg>
