<svg width="24" height="24" viewBox="0 0 24 24" fill="none" xmlns="http://www.w3.org/2000/svg">
<path fill-rule="evenodd" clip-rule="evenodd" d="M12 24C5.4 24 0 18.6001 0 11.9402C0.06 5.34038 5.4 -0.0595036 12.06 0.000495204C18.66 0.060494 24 5.40038 24 12.1202C23.94 18.6601 18.6 24 12 24Z" fill="#EDF0F4"/>
<path fill-rule="evenodd" clip-rule="evenodd" d="M4 12.0003C4 7.58405 7.58405 4 12.0003 4C16.4159 4 20 7.58459 20 12.0003C20 16.4159 16.4165 20 12.0003 20C7.58405 20 4 16.4165 4 12.0003ZM4.96014 12.0005C4.96014 15.5342 7.82593 18.4 11.3596 18.4H11.3599C14.8809 18.4 17.7593 15.5522 17.7593 12.0005C17.7593 8.4489 14.8809 5.60106 11.3599 5.60106C7.82593 5.60106 4.96014 8.46686 4.96014 12.0005Z" fill="black"/>
</svg>
