<svg width="24" height="24" viewBox="0 0 24 24" fill="none" xmlns="http://www.w3.org/2000/svg">
<circle cx="12" cy="12" r="12" fill="#13C2C2"/>
<mask id="mask0_300_14204" style="mask-type:alpha" maskUnits="userSpaceOnUse" x="6" y="5" width="12" height="8">
<path fill-rule="evenodd" clip-rule="evenodd" d="M6.6001 10.8416L13.7287 10.8991C13.7287 10.8991 15.3021 11.099 16.6461 12.2794C16.7225 12.3461 17.0216 12.2794 17.0216 12.2794L16.9853 5.2L6.6001 5.21212V10.8416Z" fill="white"/>
</mask>
<g mask="url(#mask0_300_14204)">
<path d="M15.5072 6.79458C14.6592 6.09648 13.4924 5.74667 12.0069 5.74667C10.0209 5.74667 9.1403 5.74667 8.30592 5.74667V6.26381C8.30592 6.26381 10.3147 6.26381 11.9388 6.26381C13.2017 6.26381 14.345 6.52427 15.0431 7.12697C15.7412 7.73043 16.2704 8.62841 16.2704 9.73689C16.2704 10.8068 15.8124 11.5995 15.0863 12.1992C14.3601 12.7988 13.0654 13.0631 11.7692 13.0631C10.2223 13.0631 7.5957 13.0631 7.5957 13.0631V13.5802C7.5957 13.5802 11.149 13.5795 11.7979 13.5795C13.3615 13.5795 14.5827 13.2395 15.4618 12.5611C16.3409 11.8819 16.78 10.9271 16.78 9.69525C16.78 8.46032 16.356 7.49343 15.5072 6.79458Z" fill="white"/>
</g>
<mask id="mask1_300_14204" style="mask-type:alpha" maskUnits="userSpaceOnUse" x="6" y="5" width="12" height="8">
<path fill-rule="evenodd" clip-rule="evenodd" d="M6.6001 10.8416L13.7287 10.8991C13.7287 10.8991 15.3021 11.099 16.6461 12.2794C16.7225 12.3461 17.0216 12.2794 17.0216 12.2794L16.9853 5.2L6.6001 5.21212V10.8416Z" fill="white"/>
</mask>
<g mask="url(#mask1_300_14204)">
<path d="M15.1937 7.54416C14.6659 7.14362 14.0595 6.82108 12.3437 6.82108C10.4932 6.82183 10.2669 6.82108 9.48926 6.82108V7.32534C9.48926 7.32534 10.7666 7.30868 12.2801 7.32534C13.743 7.34049 14.2798 7.50555 14.7719 7.86974C15.4019 8.33539 15.7926 8.91007 15.7926 9.71417C15.7926 10.4895 15.3958 11.0384 14.7629 11.5041C14.1155 11.9811 13.1259 11.9864 12.7231 11.9955C12.5709 11.9993 10.6038 11.9955 10.6038 11.9955V12.4998C10.6038 12.4998 11.5828 12.5134 12.1878 12.499C13.5764 12.468 14.4002 12.3854 15.1672 11.8153C15.8872 11.2815 16.2681 10.5766 16.2681 9.68389C16.2681 8.50651 15.679 7.9129 15.1937 7.54416Z" fill="white"/>
</g>
<mask id="mask2_300_14204" style="mask-type:alpha" maskUnits="userSpaceOnUse" x="6" y="5" width="12" height="8">
<path fill-rule="evenodd" clip-rule="evenodd" d="M6.6001 10.8416L13.7287 10.8991C13.7287 10.8991 15.3021 11.099 16.6461 12.2794C16.7225 12.3461 17.0216 12.2794 17.0216 12.2794L16.9853 5.2L6.6001 5.21212V10.8416Z" fill="white"/>
</mask>
<g mask="url(#mask2_300_14204)">
<path d="M14.9388 8.2097C14.5428 7.96135 14.1952 7.79402 12.556 7.79402C10.8902 7.79402 11.2045 7.79402 10.5041 7.79402V8.12566C10.5041 8.12566 11.1371 8.12566 12.4992 8.12566C13.9514 8.12566 14.5019 8.38385 14.6684 8.48606C14.9948 8.68595 15.4248 9.01153 15.4248 9.6748C15.4248 10.0988 15.1742 10.6311 14.804 10.8401C14.4663 11.0301 13.8492 11.2005 12.7619 11.2005C12.6249 11.2005 6.05957 11.2005 6.05957 11.2005V11.5321C6.05957 11.5321 12.2418 11.5321 12.7869 11.5321C14.0976 11.5321 14.5473 11.3867 15.0092 11.1316C15.4725 10.8764 15.7815 10.3517 15.7815 9.67783C15.7815 8.92522 15.3612 8.47395 14.9388 8.2097Z" fill="white"/>
</g>
<path d="M16.2431 11.8683C15.3951 11.1694 14.2275 10.8204 12.7427 10.8204C10.756 10.8204 11.102 10.8196 10.2668 10.8196V11.3367C10.2668 11.3367 11.0497 11.3367 12.6738 11.3367C13.9368 11.3367 15.0808 11.5972 15.7789 12.1999C16.477 12.8034 17.0055 13.7013 17.0055 14.8106C17.0055 15.8797 16.5482 16.6724 15.8221 17.2721C15.096 17.8718 13.8005 18.136 12.5042 18.136C10.9581 18.136 8.33154 18.136 8.33154 18.136V18.6532C8.33154 18.6532 11.8841 18.6524 12.5338 18.6524C14.0973 18.6524 15.3178 18.3132 16.1969 17.634C17.0759 16.9556 17.5159 16.0001 17.5159 14.7689C17.5159 13.5333 17.0918 12.5664 16.2431 11.8683Z" fill="white"/>
<path d="M15.9296 12.6171C15.4018 12.2173 14.7954 11.894 13.0796 11.894C11.2284 11.8948 9.97682 11.894 9.19922 11.894V12.3983C9.19922 12.3983 11.5017 12.3817 13.016 12.3983C14.4789 12.4135 15.0149 12.5785 15.5071 12.9427C16.1378 13.4091 16.5285 13.983 16.5285 14.7871C16.5285 15.5625 16.1317 16.1114 15.4988 16.5778C14.8514 17.0541 13.8618 17.0601 13.4582 17.0692C13.306 17.0722 11.3389 17.0692 11.3389 17.0692V17.5727C11.3389 17.5727 12.3179 17.5863 12.9237 17.5727C14.3115 17.5409 15.1361 17.4584 15.9031 16.889C16.6224 16.3545 17.0032 15.6495 17.0032 14.7569C17.0032 13.5802 16.4149 12.9859 15.9296 12.6171Z" fill="white"/>
<path d="M10.0298 14.3283H13.6664V14.0466H10.0298V14.3283Z" fill="white"/>
<path d="M11.5298 15.3134H13.6453V15.0711H11.5298V15.3134Z" fill="white"/>
<path fill-rule="evenodd" clip-rule="evenodd" d="M9.7414 8.10371H8.46635V7.87126H9.7414V8.10371ZM9.40898 14.3283H8.33154V14.0466H9.40898V14.3283Z" fill="white"/>
<path d="M7.66016 15.333H10.9326V15.0514H7.66016V15.333Z" fill="white"/>
<path d="M7.57861 9.98903H10.499V9.71872H7.57861V9.98903Z" fill="white"/>
<path d="M7.66016 17.5379H10.7395V17.2002H7.66016V17.5379Z" fill="white"/>
<path d="M6.89258 18.6327H7.66261V18.1436H6.89258V18.6327Z" fill="white"/>
<path d="M8.81689 9.16372H13.6521V8.89342H8.81689V9.16372Z" fill="white"/>
<path d="M11.2344 9.98903H13.5604V9.71872H11.2344V9.98903Z" fill="white"/>
<path d="M15.6746 13.3334C15.2778 13.0934 14.9303 12.9321 13.2918 12.9321C11.6261 12.9321 11.377 12.9321 10.6774 12.9321V13.2524C10.6774 13.2524 11.8721 13.2524 13.2343 13.2524C14.6865 13.2524 15.2377 13.5015 15.4043 13.6007C15.7299 13.7937 16.1607 14.1072 16.1607 14.7478C16.1607 15.1574 15.9101 15.6707 15.5391 15.8721C15.2014 16.0561 14.5843 16.2204 13.497 16.2204C13.36 16.2204 6.79541 16.2204 6.79541 16.2204V16.5407C6.79541 16.5407 12.9776 16.5399 13.522 16.5399C14.8334 16.5399 15.2831 16.3999 15.745 16.1538C16.2076 15.907 16.5165 15.4004 16.5165 14.75C16.5165 14.0239 16.0971 13.5885 15.6746 13.3334Z" fill="white"/>
</svg>
