<svg width="24" height="24" viewBox="0 0 24 24" fill="none" xmlns="http://www.w3.org/2000/svg">
<path d="M12 24C18.6276 24 24 18.6276 24 12C24 5.3724 18.6276 0 12 0C5.3724 0 0 5.3724 0 12C0 18.6276 5.3724 24 12 24Z" fill="#EDF0F4"/>
<path fill-rule="evenodd" clip-rule="evenodd" d="M17.5933 10.5888C17.7969 10.6761 18.3787 10.9669 18.3787 11.4905C18.3787 11.6739 18.3858 11.8549 18.3926 12.0267C18.4096 12.4543 18.4242 12.8246 18.3205 13.032C18.2041 13.4102 17.8842 13.6719 17.477 13.701C17.2443 14.5154 16.808 15.2717 16.2263 15.8825C15.1792 16.9587 13.7249 17.5113 11.9797 17.5113C10.2345 17.5113 8.78019 16.9587 7.73309 15.8825C7.15136 15.2717 6.71507 14.5154 6.48238 13.701C6.10426 13.6719 5.75522 13.4102 5.63888 13.032C5.58292 12.8455 5.59874 12.5274 5.61728 12.1544C5.62765 11.9458 5.63888 11.72 5.63888 11.4905C5.63888 10.9713 6.17799 10.7088 6.38796 10.6066C6.40148 10.6 6.41365 10.5941 6.42421 10.5888C7.12228 8.08738 9.42009 6.37129 12.0088 6.40037C14.5974 6.37129 16.8953 8.08738 17.5933 10.5888ZM12.038 17.075C15.2084 17.075 17.3607 15.0099 17.3607 11.9268C17.3607 9.10539 14.9757 6.80758 12.038 6.80758C9.10025 6.80758 6.71518 9.10539 6.71518 11.9268C6.71518 15.0099 8.86756 17.075 12.038 17.075Z" fill="#3B3F4C"/>
<path d="M11.1991 11.1007C11.1991 10.6644 10.85 10.3154 10.4137 10.3154C9.97745 10.3154 9.62842 10.6644 9.62842 11.1007C9.62842 11.537 9.97745 11.886 10.4137 11.886C10.85 11.886 11.1991 11.537 11.1991 11.1007Z" fill="#3B3F4C"/>
<path d="M12.3332 13.224C12.4205 13.224 12.5077 13.1367 12.5077 13.0495C12.5077 12.9622 12.4205 12.875 12.3332 12.875C12.246 12.875 12.1587 12.9622 12.1587 13.0495C12.1587 13.1367 12.2169 13.224 12.3332 13.224Z" fill="#3B3F4C"/>
<path d="M10.8208 13.9802C10.8208 14.6201 11.3444 15.1146 11.9552 15.1146H11.9843C12.6241 15.1437 13.1477 14.6492 13.1768 14.0093V13.9802C12.7987 14.1257 12.3915 14.2129 11.9843 14.242C11.577 14.242 11.1989 14.1548 10.8208 13.9802Z" fill="#3B3F4C"/>
<path d="M11.6936 13.224C11.7808 13.224 11.8681 13.1367 11.8681 13.0495C11.8681 12.9622 11.7808 12.875 11.6936 12.875C11.6063 12.875 11.519 12.9622 11.519 13.0495C11.519 13.1367 11.6063 13.224 11.6936 13.224Z" fill="#3B3F4C"/>
<path d="M13.7004 10.2863C13.2641 10.2863 12.915 10.6353 12.915 11.0716C12.915 11.5079 13.2641 11.8569 13.7004 11.8569C14.1367 11.8569 14.4857 11.5079 14.4857 11.0716C14.4857 10.6644 14.1367 10.3154 13.7004 10.2863Z" fill="#3B3F4C"/>
<path fill-rule="evenodd" clip-rule="evenodd" d="M12.0136 8.91923C12.7989 8.86106 13.6133 8.91923 14.3987 9.06466C16.3184 9.55913 16.4056 10.868 16.3475 12.2932C16.3475 13.6894 15.8239 15.1728 14.166 15.8418C13.6133 16.0744 12.9153 16.1035 12.0427 16.1035C11.1701 16.1035 10.472 16.0744 9.89031 15.8418C8.23239 15.1728 7.62158 13.6894 7.62158 12.2932C7.62158 10.8971 7.70884 9.58822 9.57036 9.09375C10.3848 8.91923 11.1992 8.89015 12.0136 8.91923ZM13.526 12.875H13.6424C14.6313 12.875 15.4166 12.0606 15.4166 11.1007C15.4166 10.1409 14.6313 9.32645 13.6424 9.32645C12.9152 9.32645 12.2753 9.73366 12.0135 10.4026C11.7518 9.76275 11.0828 9.32645 10.3847 9.32645C9.39577 9.32645 8.61045 10.1118 8.61045 11.1007C8.61045 12.0606 9.39577 12.875 10.3847 12.875H10.4429C10.2974 13.2531 10.2393 13.6312 10.2102 14.0384C10.2102 14.9983 10.9955 15.8127 11.9845 15.8127C12.9734 15.8127 13.7587 15.0274 13.7587 14.0384C13.7296 13.6603 13.6715 13.2531 13.526 12.875Z" fill="#3B3F4C"/>
</svg>
