<svg width="24" height="24" viewBox="0 0 24 24" fill="none" xmlns="http://www.w3.org/2000/svg">
<path d="M23.641 14.9029C22.0381 21.3315 15.5262 25.2438 9.09606 23.6407C2.66863 22.0381 -1.24415 15.5265 0.359423 9.09837C1.96159 2.66903 8.47349 -1.24361 14.9016 0.359081C21.3313 1.96177 25.2438 8.47405 23.6408 14.903L23.6409 14.9029H23.641Z" fill="#F3BA2F"/>
<path fill-rule="evenodd" clip-rule="evenodd" d="M12.0014 7.616L8.89375 10.7233L8.89382 10.7232L7.08567 8.9152L12.0014 4L16.9188 8.91667L15.1106 10.7247L12.0014 7.616ZM5.80876 10.1917L4.00049 12L5.80863 13.8077L7.6169 11.9996L5.80876 10.1917ZM8.89361 13.2769L12.0013 16.384L15.1104 13.2754L16.9195 15.0824L16.9186 15.0834L12.0013 20L7.08553 15.0848L7.08297 15.0822L8.89361 13.2769ZM18.1941 10.1927L16.3859 12.0008L18.1941 13.8087L20.0023 12.0006L18.1941 10.1927Z" fill="white"/>
<path d="M13.8353 11.999H13.836L12.0013 10.1644L10.6452 11.52L10.4894 11.6758L10.1681 11.9972L10.1655 11.9997L10.1681 12.0023L12.0013 13.8356L13.8361 12.001L13.837 11.9999L13.8354 11.999" fill="white"/>
</svg>
