<svg width="24" height="24" viewBox="0 0 24 24" fill="none" xmlns="http://www.w3.org/2000/svg">
<circle cx="12" cy="12" r="12" fill="#EDF0F4"/>
<path fill-rule="evenodd" clip-rule="evenodd" d="M7 5.05004V4.60004H7.05H9.1C9.1 4.60004 9.15 4.60004 9.15 4.65004V4.70004L7.55 5.95004H7.5L7 5.05004ZM7 5.45005V6.45005C7 6.45005 7 6.50005 7.05 6.50005V6.45005L7.4 6.10005V6.05005L7.1 5.45005C7.05 5.45005 7.05 5.40005 7.05 5.40005L7 5.45005ZM7 7.05V6.75L7.4 6.3L7.45 6.25C7.45 6.3 7.5 6.3 7.5 6.3L7.75 7.2C7.75 7.2 7.75 7.25 7.7 7.25L7.05 7.1C7.025 7.1 7.0125 7.1 7.00625 7.09375C7 7.0875 7 7.075 7 7.05ZM7 7.3V8.15C7 8.175 7 8.1875 7.00625 8.19375C7.0125 8.2 7.025 8.2 7.05 8.2L7.65 7.45C7.7 7.45 7.7 7.4 7.7 7.4C7.7 7.4 7.65 7.4 7.65 7.35L7.05 7.25H7V7.3ZM7 8.65004V8.50004V8.45004L7.7 7.60004H7.75V7.65004L7.7 8.70004V8.75004L7.05 8.70004C7.025 8.70004 7.0125 8.70004 7.00625 8.69378C7 8.68753 7 8.67503 7 8.65004ZM7 8.85004V10.2C7 10.2 7 10.25 7.05 10.25L7.1 10.2L7.65 8.95004V8.90004L7.05 8.85004H7ZM7.74993 9.05L7.04993 10.6V10.65H7.09993L8.29993 9.9C8.32493 9.9 8.33743 9.9 8.34368 9.89375C8.34993 9.8875 8.34993 9.875 8.34993 9.85L7.79993 9.05V9C7.77493 9 7.76243 9 7.75618 9.00625C7.74993 9.0125 7.74993 9.025 7.74993 9.05ZM9.29993 14.7L9.79993 16.2501C9.79993 16.2751 9.79993 16.2876 9.80618 16.2938C9.81243 16.3001 9.82493 16.3001 9.84993 16.3001V16.2501V14.75L9.34993 14.65H9.29993V14.7ZM9.79993 14.6L9.34993 14.55C9.34993 14.55 9.34993 14.5 9.29993 14.5L9.79993 13.4C9.79993 13.375 9.79993 13.3625 9.80618 13.3563C9.81243 13.35 9.82493 13.35 9.84993 13.35V13.4V14.55V14.6H9.79993ZM8.39993 18.6501L7.04993 19.3501V19.4001C7.04993 19.4001 7.04993 19.4501 7.09993 19.4501L9.64993 19.6001C9.69993 19.6001 9.69993 19.5501 9.69993 19.5501V19.5001L8.44993 18.6501H8.39993ZM7 18.9501V17.2001V17.1501H7.05L8.25 17.5001C8.275 17.5001 8.2875 17.5001 8.29375 17.5063C8.3 17.5126 8.3 17.5251 8.3 17.5501L7.05 19.0001C7.025 19.0001 7.0125 19.0001 7.00625 18.9938C7 18.9876 7 18.9751 7 18.9501ZM7 16.8501V17.0001L7.05 17.0501L8.25 17.3501C8.3 17.4001 8.3 17.3501 8.3 17.3501V17.3001L7.65 15.5001V15.4501C7.625 15.4501 7.6125 15.4501 7.60625 15.4563C7.6 15.4626 7.6 15.4751 7.6 15.5001L7 16.8501ZM7 16.35V15.05V15H7.05L7.5 15.3V15.35L7.1 16.35H7.05H7ZM7 14.6V14.8V14.85L7.55 15.2C7.6 15.2 7.6 15.15 7.6 15.15L8.25 13.65V13.6H8.2L7 14.55V14.6ZM7 14.3V14.2L7.65 12.6H7.7L8.35 13.25V13.3L7.05 14.35H7V14.3ZM7 11.5001V13.6501C7 13.6501 7 13.7001 7.05 13.7001L7.1 13.6501L7.55 12.5001V12.4501L7.1 11.5001L7.05 11.4501C7 11.4501 7 11.5001 7 11.5001ZM7.05 11.05L8.6 11.5L8.65 11.55L8.6 11.6L7.7 12.35H7.65V12.3L7 11.1C7 11.1 7 11.05 7.05 11.05ZM9.65 5.95007L9.4 4.70007H9.35H9.3L7.75 5.95007V6.00007H7.8H9.6H9.65V5.95007ZM9.55 4.60004H10.85H10.9V4.65004L9.85 5.85004C9.85 5.90004 9.8 5.90004 9.8 5.90004L9.75 5.85004L9.5 4.65004C9.5 4.62504 9.5 4.61254 9.50625 4.60629C9.5125 4.60004 9.525 4.60004 9.55 4.60004ZM7.89986 7.20005L9.44986 6.20005V6.15005H9.39986H7.59986V6.20005L7.84986 7.20005C7.87719 7.22738 7.88959 7.23977 7.8952 7.23723C7.89986 7.23511 7.89986 7.22272 7.89986 7.20005ZM13.0001 4.85004L11.5001 5.70004H11.4501L11.2001 4.65004V4.60004H11.2501L12.9501 4.80004H13.0001V4.85004ZM12.8 5.95004L14.55 5.65004V5.60004V5.55004L13.35 4.85004H13.3C13.3 4.85004 13.25 4.85004 13.25 4.90004L12.75 5.90004V5.95004C12.775 5.95004 12.7875 5.96254 12.7937 5.96879C12.796 5.97106 12.7975 5.9725 12.7984 5.97222C12.8 5.97173 12.8 5.96595 12.8 5.95004ZM15.5501 7.10005L14.5001 8.15005H14.4501C14.4001 8.15005 14.4001 8.10005 14.4001 8.10005L14.8501 5.90005H14.9001L15.5501 7.05005V7.10005ZM15.3999 9.85L15.7499 8.7L15.5999 7.3C15.5999 7.3 15.5999 7.25 15.5499 7.25V7.3L14.3999 8.4C14.3749 8.425 14.3624 8.4375 14.3624 8.45C14.3624 8.4625 14.3749 8.475 14.3999 8.5L15.2999 9.9H15.3499C15.3499 9.9 15.3999 9.9 15.3999 9.85ZM14.3001 11.1L13.9501 10.05V10H14.0001L15.1501 10.1C15.2001 10.1 15.2001 10.15 15.2001 10.15V10.2L14.3501 11.1C14.3501 11.1 14.3501 11.15 14.3001 11.1ZM12.5499 9.85002L14.0499 11.05H14.0999C14.1499 11.05 14.1499 11 14.1499 11L13.7999 10L12.5999 9.80002H12.5499V9.85002ZM13.9501 9.80006L14.3001 8.65005H14.3501L15.2001 9.95006V10.0001H15.1501L14.0001 9.90006C14.0001 9.85006 13.9501 9.85006 13.9501 9.85006V9.80006ZM13.2001 8.00007L13.8001 9.60007C13.8001 9.65007 13.8501 9.65007 13.8501 9.65007L13.9001 9.60007L14.2001 8.50007V8.45007L13.2501 7.95007H13.2001V8.00007ZM14.2001 8.3L13.1501 7.75V7.7L14.6001 6H14.6501C14.6501 6 14.7001 6 14.7001 6.05L14.2501 8.3H14.2001ZM12.4501 7.85002L12.6001 8.40002C12.6001 8.40002 12.6001 8.45002 12.6501 8.45002V8.40002L12.9001 7.90002V7.85002C12.9001 7.82502 12.9001 7.81252 12.8938 7.80627C12.8876 7.80002 12.8751 7.80002 12.8501 7.80002H12.5001L12.4501 7.85002ZM13.0499 8L13.7499 9.8L13.6999 9.85L12.3499 9.65L12.2999 9.6V9.55L12.6499 8.75L12.9999 8H13.0499ZM12.7001 6.15L13.0501 7.55H13.1001L14.6001 5.85V5.8C14.6001 5.75 14.5501 5.75 14.5501 5.75L12.7501 6.1C12.7251 6.1 12.7126 6.1 12.7063 6.10625C12.7001 6.1125 12.7001 6.125 12.7001 6.15ZM12.5001 7.70004H12.4501V7.65004L12.6001 6.60004H12.6501H12.7001L12.9501 7.65004V7.70004H12.9001H12.5001ZM11.5499 5.95005L11.7999 7.00005V7.05005C11.8249 7.05005 11.8374 7.05005 11.8437 7.0438C11.8499 7.03755 11.8499 7.02505 11.8499 7.00005L12.4499 6.15005V6.10005L11.5999 5.90005C11.5749 5.90005 11.5624 5.90005 11.5562 5.9063C11.5499 5.91255 11.5499 5.92505 11.5499 5.95005ZM12.4999 6.45002L12.3499 7.55002C12.3499 7.55002 12.3499 7.60002 12.2999 7.60002H12.2499L11.8999 7.25002C11.8499 7.25002 11.8499 7.20002 11.8999 7.20002L12.3999 6.45002C12.4249 6.45002 12.4374 6.43752 12.4437 6.43127C12.446 6.42899 12.4474 6.42755 12.4483 6.42783C12.4499 6.42832 12.4499 6.4341 12.4499 6.45002H12.4999ZM11.7001 5.80007L12.5501 6.00007H12.6001L13.0501 5.05007V5.00007C13.0501 4.95007 13.0001 4.95007 13.0001 4.95007L11.7001 5.75007V5.80007ZM11.1 4.75007L11.35 5.75007C11.35 5.75007 11.3 5.75007 11.3 5.80007L10.05 5.95007H10V5.90007L11 4.70007H11.05L11.1 4.75007ZM8.25007 7.20007L9.85007 6.95007V6.90007L9.75007 6.25007C9.70007 6.25007 9.70007 6.20007 9.70007 6.20007H9.65007L8.25007 7.15007C8.22507 7.15007 8.21257 7.15007 8.20632 7.15632C8.20007 7.16257 8.20007 7.17507 8.20007 7.20007H8.25007ZM9.94986 6.30002L10.7499 6.90002H10.7999C10.7999 6.95002 10.7499 6.95002 10.7499 6.95002H10.0499C10.0249 6.95002 10.0124 6.95002 10.0061 6.94377C9.99986 6.93752 9.99986 6.92502 9.99986 6.90002L9.84986 6.35002C9.84986 6.30002 9.89986 6.30002 9.89986 6.30002H9.94986ZM9.89993 9.80003V7.50003H9.84993C9.84993 7.45003 9.79993 7.50003 9.79993 7.50003L9.34993 8.60003H9.29993L9.79993 9.80003H9.84993H9.89993ZM11.2001 6.95007L11.4001 6.20007H11.4501L11.7001 7.10007H11.6501V7.15007L11.2001 7.00007C11.2001 7.00007 11.1501 6.95007 11.2001 6.95007ZM11.3001 5.90005L10.0001 6.10005L9.95007 6.15005C9.95007 6.15005 10.0001 6.15005 10.0001 6.20005L11.0001 6.90005H11.0501V6.85005L11.3501 5.95005L11.3001 5.90005ZM12.2499 9.75L13.7499 10.95V11C13.7499 11.025 13.7499 11.0375 13.7436 11.0438C13.7374 11.05 13.7249 11.05 13.6999 11.05L11.5999 10.3V10.25L12.1499 9.75H12.2499ZM11.7001 11.45L11.4001 10.4C11.4001 10.35 11.3501 10.35 11.3501 10.35H10.2501C10.2501 10.35 10.2001 10.35 10.2001 10.4V10.45L11.6001 11.5H11.6501C11.7001 11.5 11.7001 11.45 11.7001 11.45ZM11.5999 10.4001L13.8499 11.2001L13.8999 11.2501C13.8999 11.2751 13.8999 11.2876 13.8937 11.2938C13.8874 11.3001 13.8749 11.3001 13.8499 11.3001L11.8999 11.6501C11.8499 11.6501 11.8499 11.6001 11.8499 11.6001L11.5499 10.4501C11.5499 10.4001 11.5999 10.4001 11.5999 10.4001ZM14.5001 12.5L14.2501 11.4L14.2001 11.35L12.2001 11.7C12.2001 11.7 12.1501 11.7 12.1501 11.75L12.2001 11.8L14.4501 12.55C14.5001 12.55 14.5001 12.5 14.5001 12.5ZM15.4001 11.9001L14.7001 12.5001H14.6501C14.6251 12.5001 14.6126 12.5001 14.6064 12.4938C14.6001 12.4876 14.6001 12.4751 14.6001 12.4501L14.4001 11.5001V11.4501H14.4501L15.4001 11.8001L15.4501 11.8501C15.4501 11.8501 15.4501 11.9001 15.4001 11.9001ZM14.7999 12.6501L16.3499 12.9501H16.3999C16.3999 12.9251 16.3999 12.9126 16.3937 12.9063C16.3874 12.9001 16.3749 12.9001 16.3499 12.9001L15.5999 11.9501H15.5499L14.7999 12.5501V12.6001V12.6501ZM17.0001 14.6501L16.2501 14.9001H16.2001V14.8501L16.5501 13.4501L16.6001 13.4001L16.6501 13.4501L17.0001 14.6001V14.6501ZM15.8999 16.55L16.7499 16.65H16.7999L16.9999 15.1C16.9999 15.075 16.9999 15.0625 16.9936 15.0563C16.9874 15.05 16.9749 15.05 16.9499 15.05H16.8999L15.8999 16.45L15.8499 16.5C15.8999 16.5 15.8999 16.55 15.8999 16.55ZM15.8499 17.9501L15.7999 16.7001V16.6501H15.8499L16.6999 16.8001V16.8501L15.9499 17.9501C15.8999 17.9501 15.8999 18.0001 15.8999 18.0001L15.8499 17.9501ZM14 17.65L14.1 19.05H14.15L15.6 18.3V18.25V18.2L14.05 17.6H14V17.65ZM12.6 19.4L11.3 18.55C11.275 18.55 11.2625 18.55 11.2562 18.5438C11.25 18.5375 11.25 18.525 11.25 18.5H11.3L13.65 19.15V19.2L12.65 19.4H12.6ZM10.6999 18.4L10.0999 19.5V19.55C10.0999 19.575 10.0999 19.5875 10.1061 19.5938C10.1124 19.6 10.1249 19.6 10.1499 19.6L12.2999 19.45C12.2999 19.45 12.3499 19.45 12.3499 19.4C12.3499 19.4 12.3499 19.35 12.2999 19.35L10.7499 18.35H10.6999V18.4ZM11.45 11.6001L9.05 11.4501H9V11.4001L9.9 10.4001H10L11.5 11.5501V11.6001H11.45ZM8.54993 10.1L8.84993 11.3V11.35C8.87493 11.35 8.88743 11.35 8.89368 11.3438C8.89993 11.3376 8.89993 11.325 8.89993 11.3L9.79993 10.4V10.35C9.79993 10.35 9.79993 10.3 9.74993 10.3L8.59993 10.05C8.59993 10 8.54993 10.05 8.54993 10.05V10.1ZM9.79986 12.8001L8.64986 13.2001C8.62486 13.2001 8.61237 13.2001 8.60611 13.1938C8.59986 13.1876 8.59986 13.1751 8.59986 13.1501L8.84986 11.7501V11.7001H8.89986L9.79986 12.7501V12.8001ZM11.5 11.75L9.05 11.6H9V11.65L9.95 12.75H10L11.5 11.8H11.55C11.55 11.75 11.5 11.75 11.5 11.75ZM11.7999 11.85L12.0999 12.7V12.75C12.0499 12.75 12.0499 12.8 12.0499 12.8H10.3499C10.2999 12.8 10.2999 12.75 10.2999 12.75V12.7L11.7499 11.85C11.7499 11.825 11.7499 11.8125 11.7562 11.8063C11.7624 11.8 11.7749 11.8 11.7999 11.8V11.85ZM14.0501 12.55L12.0001 11.85H11.9501V11.9L12.2501 12.75L14.0501 12.6H14.1001C14.1001 12.575 14.1001 12.5625 14.0938 12.5563C14.0876 12.55 14.0751 12.55 14.0501 12.55ZM14.3001 12.8L13.3501 13.55H13.3001L12.4501 12.95V12.9H12.5001L14.2501 12.75H14.3001V12.8ZM15.5 14.8L13.55 13.8H13.5V13.85L13.85 14.6C13.85 14.65 13.9 14.65 13.9 14.65L15.45 14.85H15.5V14.8ZM13.9501 14.9L15.4001 16.35V16.4H15.3501L13.7001 16C13.7001 16 13.6501 16 13.6501 15.95L13.9001 14.9V14.85C13.9001 14.85 13.9501 14.85 13.9501 14.9ZM13.8 17.3001L13.55 16.2001H13.5L12.75 16.7001V16.7501L13.75 17.3501H13.8C13.8 17.3251 13.8125 17.3126 13.8187 17.3063C13.821 17.304 13.8225 17.3026 13.8222 17.3017C13.8217 17.3001 13.8159 17.3001 13.8 17.3001ZM12.5999 16.8L13.3499 17.25C13.3999 17.25 13.3999 17.3 13.3999 17.3C13.3749 17.3 13.3624 17.3125 13.3562 17.3188C13.3539 17.321 13.3525 17.3225 13.3515 17.3222C13.3499 17.3217 13.3499 17.3159 13.3499 17.3L11.7999 17.05V17L12.5499 16.8H12.5999ZM10.6999 18.05L11.1499 17.15V17.1H11.0999L10.1499 17C10.1249 17 10.1124 17 10.1061 17.0063C10.0999 17.0125 10.0999 17.025 10.0999 17.05V17.1L10.6499 18.05H10.6999ZM14.6001 12.8L15.8501 14.75V14.8H15.8001L13.5001 13.65L13.4501 13.6H13.5001L14.5501 12.75C14.5501 12.75 14.6001 12.75 14.6001 12.8ZM16.5 13.1L14.8 12.75H14.75V12.8L16.05 14.8H16.1L16.5 13.15V13.1ZM15.9999 15.1L15.6999 16.35C15.6999 16.375 15.6999 16.3875 15.6936 16.3938C15.6874 16.4 15.6749 16.4 15.6499 16.4L14.0999 14.85V14.8H14.1499L15.9499 15.05C15.9999 15.05 15.9999 15.1 15.9999 15.1ZM15.9501 16.15L16.8501 14.9C16.8728 14.9 16.8852 14.9 16.8873 14.8954C16.8899 14.8898 16.8775 14.8774 16.8503 14.8501L16.8502 14.8501L16.8502 14.8501L16.8502 14.8501L16.8502 14.8501L16.8502 14.8501L16.8502 14.8501L16.8502 14.8501L16.8502 14.8501L16.8502 14.8501L16.8502 14.8501L16.8502 14.8501L16.8502 14.8501L16.8502 14.8501L16.8502 14.8501L16.8502 14.8501L16.8502 14.8501L16.8502 14.85L16.8501 14.85L16.8501 14.85L16.8501 14.85L16.1501 15.05V15.1L15.9001 16.1V16.15H15.9501ZM13.7501 16.1501L15.4501 16.5501L15.5001 16.6001C15.5001 16.6001 15.5001 16.6501 15.4501 16.6501L14.0501 17.4001H14.0001L13.9501 17.3501L13.7001 16.2001V16.1501H13.7501ZM15.7501 18.1001L15.6501 16.7501V16.7001H15.6001L14.2001 17.4501C14.1751 17.4501 14.1626 17.4501 14.1564 17.4563C14.1501 17.4626 14.1501 17.4751 14.1501 17.5001H14.2001L15.7001 18.1501H15.7501V18.1001ZM13.4499 17.55L10.8999 18.15H10.8499V18.1L11.2999 17.15C11.2999 17.1 11.3499 17.1 11.3499 17.1L13.4499 17.45V17.5V17.55ZM8.34993 10.05L7.09993 10.85C7.07493 10.85 7.06243 10.85 7.05618 10.8563C7.04993 10.8625 7.04993 10.875 7.04993 10.9H7.09993L8.64993 11.4H8.69993V11.35L8.39993 10.1V10.05H8.34993ZM8.4 13.1001L7.75 12.5001V12.4501L8.65 11.7001H8.7V11.7501L8.45 13.1001H8.4ZM9.24986 14.3501L9.79986 13.0001V12.9501H9.74986L8.64986 13.3001C8.62486 13.3001 8.61237 13.3001 8.60611 13.3063C8.59986 13.3126 8.59986 13.3251 8.59986 13.3501L9.14986 14.3501L9.19986 14.4001L9.24986 14.3501ZM8.55007 13.5001L9.10007 14.5001V14.5501L7.75007 15.2501H7.70007V15.2001L8.45007 13.5001C8.45007 13.5001 8.50007 13.5001 8.50007 13.4501L8.55007 13.5001ZM9.19993 14.9001L8.54993 17.3001V17.3501H8.59993L9.79993 16.9001C9.82493 16.9001 9.83743 16.9001 9.84368 16.8938C9.84993 16.8876 9.84993 16.8751 9.84993 16.8501L9.24993 14.9001H9.19993ZM9.65 17.2L8.6 18.35H8.55C8.5 18.35 8.5 18.3 8.5 18.3V17.55L8.55 17.5L9.6 17.15C9.65 17.1 9.65 17.15 9.65 17.15C9.7 17.15 9.7 17.2 9.65 17.2ZM10.1 19.25L10.6 18.3V18.25L10.05 17.3V17.25C10 17.25 10 17.3 10 17.3V19.25H10.05C10.05 19.3 10.1 19.25 10.1 19.25ZM9.79993 19.4501L8.59993 18.6001C8.54993 18.6001 8.54993 18.5501 8.54993 18.5501L9.79993 17.2001H9.84993V17.2501L9.89993 19.4001C9.89993 19.4251 9.89993 19.4376 9.89368 19.4438C9.88743 19.4501 9.87493 19.4501 9.84993 19.4501H9.79993ZM8.39986 18.5001V17.7501L8.34986 17.7001C8.34986 17.7001 8.29986 17.7001 8.29986 17.7501L7.09986 19.1001V19.1501C7.12487 19.1501 7.13737 19.1626 7.14362 19.1688C7.14589 19.1711 7.14733 19.1725 7.14825 19.1723C7.14986 19.1718 7.14986 19.166 7.14986 19.1501L8.34986 18.5501C8.37486 18.5501 8.38736 18.5501 8.39361 18.5438C8.39986 18.5376 8.39986 18.5251 8.39986 18.5001ZM13.8999 19.1L11.0499 18.3V18.25L13.8499 17.6H13.8999L13.9499 19.05V19.1H13.8999ZM9.04996 14.75L7.79995 15.4C7.79995 15.4 7.74995 15.4 7.79995 15.45L8.39995 17.15C8.39995 17.15 8.39995 17.2 8.44995 17.2V17.15L9.09996 14.8V14.75H9.04996ZM9.79993 7.15004L9.24993 8.45004H9.19993L8.04993 7.45004V7.40004V7.35004L9.74993 7.10004H9.79993V7.15004ZM7.89986 8.65003L8.14986 8.45004V8.40004L7.94986 7.90004C7.94986 7.87504 7.94986 7.86254 7.94361 7.85629C7.93736 7.85004 7.92486 7.85004 7.89986 7.85004V7.90004L7.84986 8.60003C7.84986 8.60003 7.84986 8.65003 7.89986 8.65003ZM8.09995 7.65005L8.94995 8.45005V8.50005H8.89995L8.29995 8.40005L8.04995 7.70005C7.99995 7.70005 8.04995 7.65005 8.04995 7.65005H8.09995ZM8.54993 9.65002L9.09993 8.70002V8.65002L8.34993 8.55002H8.29993V8.60002L8.44993 9.65002H8.49993H8.54993ZM9.75 10.2L8.6 9.90002C8.57267 9.87269 8.56028 9.8603 8.56283 9.85468C8.56494 9.85002 8.57733 9.85002 8.6 9.85002L9.2 8.80002H9.25H9.3L9.8 10.15C9.8 10.175 9.8 10.1875 9.79375 10.1938C9.7875 10.2 9.775 10.2 9.75 10.2ZM7.84986 8.90004L8.24986 9.45004C8.24986 9.47504 8.24986 9.48753 8.25611 9.49378C8.26236 9.50004 8.27486 9.50004 8.29986 9.50004V9.45004L8.19986 8.65004C8.19986 8.65004 8.19986 8.60004 8.14986 8.60004L7.89986 8.85004C7.87486 8.85004 7.86236 8.85004 7.85611 8.85629C7.84986 8.86254 7.84986 8.87504 7.84986 8.90004Z" fill="url(#paint0_linear_300_14718)"/>
<defs>
<linearGradient id="paint0_linear_300_14718" x1="17.0285" y1="19.2925" x2="16.4664" y2="4.35429" gradientUnits="userSpaceOnUse">
<stop stop-color="#11A1BC"/>
<stop offset="1" stop-color="#5FCEB4"/>
</linearGradient>
</defs>
</svg>
