<svg width="24" height="24" viewBox="0 0 24 24" fill="none" xmlns="http://www.w3.org/2000/svg">
<circle cx="12" cy="12" r="12" fill="#FD7A3D"/>
<path fill-rule="evenodd" clip-rule="evenodd" d="M19.3802 16.2817C19.7657 15.7112 19.5729 14.9824 18.9955 14.6654L18.9962 14.6662C18.643 14.4444 18.1938 14.4761 17.8413 14.6345C17.8333 14.5864 17.8108 14.5418 17.7768 14.507L16.3654 12.1L17.7768 9.69223C17.7931 9.67625 17.8011 9.6522 17.8092 9.62822C17.8171 9.60466 17.8249 9.58118 17.8405 9.56547C18.1938 9.75562 18.6107 9.75562 18.9955 9.53378C19.2701 9.38155 19.4724 9.12466 19.5569 8.82085C19.6414 8.51704 19.6009 8.19181 19.4447 7.9183C19.1237 7.34786 18.3865 7.15847 17.8091 7.47538C17.4558 7.69646 17.2316 8.04506 17.1993 8.45629H14.2483L12.8376 6.04929C12.8054 6.0176 12.7731 5.98591 12.7731 5.95422C13.0934 5.73238 13.3184 5.38378 13.3184 4.9718C13.3184 4.30704 12.7731 3.79999 12.1319 3.79999C11.49 3.79999 10.9448 4.33798 10.9448 4.9718C10.9449 5.37225 11.1512 5.74405 11.49 5.95422L11.4878 5.95638C11.457 5.98735 11.4262 6.01832 11.4262 6.04929L10.0148 8.45704H7.03229C7.00004 8.07675 6.80731 7.69646 6.42258 7.47462C5.84512 7.15772 5.10717 7.34786 4.78694 7.9183C4.63064 8.19172 4.59009 8.51687 4.67443 8.82067C4.75877 9.12447 4.96091 9.38142 5.23541 9.53378C5.58864 9.75562 6.03786 9.72392 6.39033 9.56547C6.39835 9.61362 6.42086 9.65813 6.45483 9.69299L7.86623 12.1L6.42258 14.5077C6.40632 14.5237 6.39825 14.5478 6.39022 14.5718C6.38232 14.5953 6.37445 14.6188 6.35884 14.6345C6.00561 14.4444 5.58864 14.4444 5.20392 14.6662C4.62646 14.9831 4.43372 15.7112 4.7547 16.2817C5.07567 16.8521 5.81287 17.0415 6.39033 16.7246C6.74356 16.5035 6.96779 16.1549 7.00004 15.7437H9.95109L11.3617 18.1507C11.394 18.1824 11.4262 18.2141 11.4262 18.2458C11.106 18.4676 10.881 18.8162 10.881 19.2282C10.881 19.8929 11.4262 20.4 12.0674 20.4C12.7094 20.4 13.2546 19.862 13.2546 19.2282C13.2546 18.8162 13.0296 18.4359 12.7094 18.2458L12.7115 18.2436C12.7423 18.2126 12.7731 18.1817 12.7731 18.1507L14.1846 15.7429H17.1356C17.1635 16.1521 17.3921 16.5205 17.7453 16.7254C18.3228 17.0423 19.06 16.8521 19.3802 16.2817ZM12.4207 10.1042C13.0942 10.1042 13.6394 10.643 13.6394 11.3077C13.6394 11.6246 13.5111 11.8782 13.3507 12.1317C13.5434 12.3218 13.6394 12.6071 13.6394 12.8923C13.6394 13.557 13.0942 14.0958 12.4207 14.0958H10.8811C10.7206 14.0958 10.5923 13.969 10.5923 13.8106V10.3894C10.5927 10.313 10.6235 10.2399 10.6777 10.1863C10.7319 10.1328 10.8051 10.1032 10.8811 10.1042H12.4207Z" fill="white"/>
</svg>
