<svg width="24" height="24" viewBox="0 0 24 24" fill="none" xmlns="http://www.w3.org/2000/svg">
<circle cx="12" cy="12" r="12" fill="#EDF0F4"/>
<path d="M13.7988 4.62909C13.0482 4.44941 12.2544 4.41158 11.8247 4.40213C11.6267 4.3974 11.5085 4.40213 11.5085 4.40213H7.08269C5.6092 4.40213 4.3999 5.60965 4.3999 7.0926V11.7389C4.3999 11.7814 4.3999 11.8192 4.40463 11.8624C4.40463 11.9049 4.3999 11.9428 4.3999 11.9853C4.3999 16.1723 7.78191 19.5638 11.9571 19.5638C16.1323 19.5638 19.5143 16.1723 19.5143 11.9853C19.519 8.4331 17.0815 5.45361 13.7988 4.62909Z" fill="#4C66FF"/>
<path fill-rule="evenodd" clip-rule="evenodd" d="M9.20768 7.63701C9.20768 7.18249 8.83946 6.81308 8.38612 6.81308H8.38553C7.93219 6.81308 7.56396 7.1819 7.56396 7.63701V10.2187C7.56412 10.439 7.65186 10.6502 7.80785 10.8058C7.96385 10.9613 8.17528 11.0484 8.39558 11.048C8.73855 11.0481 9.04625 10.8371 9.16985 10.5172C9.79823 9.23135 11.2307 8.5491 12.6251 8.87158C14.0195 9.19407 15.007 10.436 15.007 11.8672C15.007 13.2984 14.0195 14.5403 12.6251 14.8628C11.2307 15.1852 9.79823 14.503 9.16985 13.2171C9.16697 13.2103 9.16409 13.2033 9.16117 13.1962C9.14971 13.1683 9.13764 13.1389 9.12257 13.1125C8.98072 12.8572 8.70706 12.6864 8.39558 12.6864C7.93692 12.6864 7.56396 13.0558 7.56396 13.5156C7.56756 13.6847 7.62012 13.8492 7.71527 13.989C8.60248 15.753 10.4934 16.7788 12.4558 16.5607C14.4182 16.3426 16.0378 14.9267 16.5161 13.011C16.9943 11.0953 16.2303 9.08425 14.6007 7.96939C12.971 6.85453 10.8199 6.87118 9.20768 8.01114V7.63701ZM13.2085 11.8666C13.2085 11.1662 12.6417 10.6017 11.9472 10.6017C11.248 10.6017 10.6859 11.1709 10.6859 11.8666C10.6881 12.5628 11.2509 13.1272 11.9472 13.1314C12.6464 13.1314 13.2085 12.5634 13.2085 11.8666Z" fill="white"/>
</svg>
