<svg width="24" height="24" viewBox="0 0 24 24" fill="none" xmlns="http://www.w3.org/2000/svg">
<circle cx="12" cy="12" r="12" fill="#00A8D6"/>
<path fill-rule="evenodd" clip-rule="evenodd" d="M10.7409 12.7805V14.2289V14.2297H12.7447C15.7148 14.2297 17.1999 13.4121 17.1999 11.7771V7.65255C17.1999 6.01752 15.7148 5.20001 12.7447 5.20001H7.3999V8.98988H9.40513V6.64917H12.9678C14.4529 6.64917 15.1954 7.0209 15.1954 7.76361V11.6653C15.1954 12.4088 14.4529 12.7805 12.9678 12.7805H10.7409ZM15.1962 15.1212H15.1954L15.1962 15.1204V15.1212ZM17.1999 15.1212H15.1962V16.2364C15.1962 16.9791 14.4536 17.3508 12.9686 17.3508H9.40513V11.5534H12.9678C13.1911 11.5527 13.4142 11.5628 13.6365 11.5837V10.1322C13.3553 10.1141 13.059 10.105 12.7447 10.105H7.3999V18.8H12.7447C15.7148 18.8 17.1999 17.9825 17.1999 16.3474V15.1212Z" fill="white"/>
</svg>
