<svg width="24" height="24" viewBox="0 0 24 24" fill="none" xmlns="http://www.w3.org/2000/svg">
<circle cx="12" cy="12" r="12" fill="#1B2B57"/>
<path d="M13.8882 13.159L12.0767 14.213L13.8882 10.8204V13.159Z" fill="#DF3121"/>
<path d="M11.9121 14.9376V10.7545L16.721 7.55962L14.1189 4.2L19.2242 7.98781L14.1189 12.7637V11.1498L11.9121 14.9376Z" fill="#EFBF43"/>
<path d="M11.9121 19.7135V15.8269L19.0266 8.87712L11.9121 19.7135Z" fill="#EFBF43"/>
<path d="M9.93604 13.159L11.7476 14.213L9.93604 10.8204V13.159Z" fill="#DF3121"/>
<path d="M11.9122 14.9376V10.7545L7.10334 7.55962L9.70539 4.2L4.6001 7.98781L9.70539 12.7637V11.1498L11.9122 14.9376Z" fill="#F8D749"/>
<path d="M11.9123 19.7135V15.8269L4.79785 8.87712L11.9123 19.7135Z" fill="#F8D749"/>
<path fill-rule="evenodd" clip-rule="evenodd" d="M12.6773 9.49523C13.0964 9.2807 13.1319 9.20778 12.9693 8.8948C12.8055 8.57958 12.2789 7.97279 12.0741 7.86317C11.9264 7.78412 11.9103 7.79147 11.6293 8.06671C11.2961 8.39311 10.8823 8.98277 10.8823 9.13115C10.8823 9.18625 10.9302 9.27462 10.9887 9.32757C11.3934 9.69379 12.1438 9.76833 12.6773 9.49523ZM10.7101 8.82969C10.712 8.63877 10.9047 8.24495 11.2295 7.76837L11.5157 7.34845L11.3186 7.17547C10.9271 6.83171 10.7637 6.88165 10.5314 7.41593C10.3658 7.79656 10.3519 8.30809 10.4969 8.68501C10.6095 8.97755 10.7081 9.04446 10.7101 8.82969ZM13.4305 8.71395C13.6046 8.33042 13.5848 7.74082 13.3846 7.34532C13.1364 6.85514 13.0196 6.83373 12.5978 7.20087L12.4322 7.34504L12.67 7.68405C12.936 8.06323 13.2552 8.70387 13.2553 8.85863C13.2553 9.02258 13.3114 8.97634 13.4305 8.71395ZM12.2216 6.8199C12.3604 6.75694 12.5391 6.70381 12.6187 6.70184C12.7621 6.69825 12.7619 6.69744 12.5897 6.60196C12.471 6.53609 12.2787 6.5056 11.982 6.5056C11.6853 6.5056 11.493 6.53609 11.3743 6.60196C11.2014 6.69785 11.2012 6.69825 11.3454 6.70485C11.4562 6.70994 11.7409 6.81406 11.9612 6.93009C11.9656 6.93246 12.0829 6.88287 12.2216 6.8199Z" fill="#F5BB43"/>
</svg>
