<svg width="24" height="24" viewBox="0 0 24 24" fill="none" xmlns="http://www.w3.org/2000/svg">
<path fill-rule="evenodd" clip-rule="evenodd" d="M12 24C5.4 24 0 18.6001 0 11.9402C0.06 5.34038 5.4 -0.0595036 12.06 0.000495204C18.66 0.060494 24 5.40038 24 12.1202C23.94 18.6601 18.6 24 12 24Z" fill="#EDF0F4"/>
<path fill-rule="evenodd" clip-rule="evenodd" d="M12 19.6C16.1974 19.6 19.6 16.1973 19.6 12C19.6 7.8026 16.1974 4.39996 12 4.39996V5.32463C15.6867 5.32463 18.6753 8.31328 18.6753 12C18.6753 15.6866 15.6867 18.6753 12 18.6753V19.6Z" fill="#FFBC00"/>
<path fill-rule="evenodd" clip-rule="evenodd" d="M5.32457 12H4.3999C4.3999 16.1974 7.80254 19.6 11.9999 19.6V18.6753C8.31418 18.673 5.3269 15.6857 5.32457 12" fill="#FFBC00"/>
<path fill-rule="evenodd" clip-rule="evenodd" d="M7.1107 12C7.1107 14.7003 9.29973 16.8893 12 16.8893C14.7003 16.8893 16.8894 14.7003 16.8894 12H17.814C17.814 15.211 15.211 17.814 12 17.814C8.78905 17.814 6.18604 15.211 6.18604 12L7.1107 12Z" fill="#FFBC00"/>
<path opacity="0.3" fill-rule="evenodd" clip-rule="evenodd" d="M12 7.1107V6.18604C8.79098 6.19069 6.19069 8.79098 6.18604 12H7.1107C7.11303 9.3007 9.3007 7.11303 12 7.1107Z" fill="#FFBC00"/>
<path fill-rule="evenodd" clip-rule="evenodd" d="M12 8.89244C10.2837 8.89244 8.89244 10.2837 8.89244 12C8.89244 13.7163 10.2837 15.1076 12 15.1076V16.0322C9.77306 16.0322 7.96777 14.2269 7.96777 12C7.96777 9.77306 9.77306 7.96777 12 7.96777" fill="#FFBC00"/>
<path opacity="0.3" fill-rule="evenodd" clip-rule="evenodd" d="M12 7.96777V8.89244C13.7153 8.89477 15.1052 10.2847 15.1076 12H16.0322C16.0276 9.77499 14.225 7.97242 12 7.96777Z" fill="#FFBC00"/>
<path fill-rule="evenodd" clip-rule="evenodd" d="M12 9.75372C13.2406 9.75372 14.2462 10.7594 14.2462 11.9999C14.2462 13.2405 13.2406 14.2462 12 14.2462V13.3215C12.7299 13.3215 13.3216 12.7298 13.3216 11.9999C13.3216 11.2701 12.7299 10.6784 12 10.6784" fill="#FFBC00"/>
<path opacity="0.3" fill-rule="evenodd" clip-rule="evenodd" d="M11.9996 9.75372C10.76 9.75605 9.75574 10.7604 9.75342 11.9999H10.6781C10.6781 11.6494 10.8173 11.3133 11.0652 11.0655C11.313 10.8176 11.6491 10.6784 11.9996 10.6784V9.75372Z" fill="#FFBC00"/>
<path fill-rule="evenodd" clip-rule="evenodd" d="M14.833 14.8584L14.1786 14.2039C13.9145 14.4652 13.6056 14.6769 13.2666 14.8288L13.655 15.6733C14.0875 15.4726 14.4819 15.1983 14.8204 14.8626" fill="#FFBC00"/>
<path fill-rule="evenodd" clip-rule="evenodd" d="M8.79973 5.10504C7.984 5.4798 7.24187 5.99743 6.6084 6.63349L7.24173 7.30904C7.80218 6.73982 8.4618 6.27766 9.18818 5.94526L8.79973 5.10504Z" fill="#FFBC00"/>
<path fill-rule="evenodd" clip-rule="evenodd" d="M17.261 9.57219C16.9763 8.94323 16.5801 8.37103 16.0914 7.8833L15.4243 8.53775C15.8417 8.94625 16.1796 9.42873 16.4208 9.96064L17.261 9.57219Z" fill="#FFBC00"/>
</svg>
