<svg width="25" height="24" viewBox="0 0 25 24" fill="none" xmlns="http://www.w3.org/2000/svg">
<path d="M24.9908 12.0005C24.9908 18.6267 19.6184 23.999 12.9893 24C6.36507 24 0.992693 18.6267 0.993653 11.9995C0.991733 5.37238 6.36411 0 12.9913 0C19.6184 0 24.9908 5.37333 24.9908 12.0005Z" fill="#EAB300"/>
<path fill-rule="evenodd" clip-rule="evenodd" d="M17.7127 9.06085C17.5581 7.45374 16.1709 6.91516 14.4178 6.76156V4.53139H13.0613V6.70203C12.7051 6.70203 12.3403 6.70875 11.9784 6.71643V4.53139H10.6218L10.6209 6.75964L10.6063 6.75992L10.6063 6.75992C10.3175 6.76559 10.0335 6.77116 9.75684 6.77116V6.76444L7.88573 6.76348V8.21313C7.88573 8.21313 8.88801 8.19393 8.87072 8.21217C9.42083 8.21217 9.59939 8.53091 9.65124 8.80644V11.3467C9.68964 11.3467 9.7386 11.3486 9.79428 11.3563H9.65124L9.65028 14.9152C9.62628 15.088 9.52451 15.3635 9.1405 15.3645C9.15778 15.3798 8.15454 15.3645 8.15454 15.3645L7.88477 16.985H9.65124C9.85033 16.985 10.0477 16.9871 10.2428 16.9892L10.2431 16.9892L10.2434 16.9892C10.3698 16.9906 10.4954 16.9919 10.6199 16.9927L10.6209 19.2478H11.9764V17.0167C12.348 17.0244 12.708 17.0272 13.0603 17.0272L13.0594 19.2478H14.4159V16.9975C16.697 16.8669 18.2954 16.2919 18.4932 14.1491C18.6535 12.4239 17.8423 11.653 16.5472 11.3419C17.3354 10.9425 17.8279 10.2369 17.7127 9.06085ZM15.8141 13.8822C15.8141 15.4297 13.3803 15.3947 12.2702 15.3787C12.1717 15.3772 12.0836 15.376 12.0086 15.376V12.3874C12.1023 12.3876 12.2165 12.385 12.3459 12.3821C13.487 12.3565 15.8141 12.3042 15.8141 13.8822ZM12.2355 11.0237C13.1644 11.0384 15.1824 11.0703 15.1824 9.66662C15.1833 8.23005 13.2386 8.28151 12.2879 8.30667C12.1808 8.30951 12.0862 8.31201 12.0086 8.31201V11.0212C12.0733 11.0212 12.1497 11.0224 12.2355 11.0237Z" fill="white"/>
<path d="M9.65332 11.2872H9.85493V11.436H9.65332V11.2872Z" fill="white"/>
</svg>
