<svg width="24" height="24" viewBox="0 0 24 24" fill="none" xmlns="http://www.w3.org/2000/svg">
<path d="M23.641 14.9029C22.0383 21.3315 15.5271 25.2438 9.09772 23.6407C2.67102 22.0381 -1.24132 15.5265 0.362068 9.09837C1.96405 2.66903 8.47522 -1.24361 14.9026 0.359081C21.3316 1.96177 25.2437 8.47405 23.6408 14.903L23.6409 14.9029H23.641Z" fill="#F7931A"/>
<path fill-rule="evenodd" clip-rule="evenodd" d="M17.2928 10.2903C17.5316 8.69337 16.3158 7.83495 14.6533 7.2623L15.1926 5.09911L13.8758 4.771L13.3508 6.87723C13.0046 6.79089 12.6491 6.70954 12.2958 6.62889L12.8246 4.50875L11.5086 4.18063L10.969 6.34312C10.6825 6.2779 10.4012 6.21344 10.1282 6.14551L10.1297 6.13871L8.3138 5.68525L7.96351 7.09168C7.96351 7.09168 8.94047 7.31562 8.91988 7.3294C9.45311 7.46249 9.54954 7.81548 9.53353 8.09526L8.91918 10.5596C8.95589 10.569 9.00352 10.5825 9.05608 10.6036L9.01781 10.594L9.01777 10.594C8.9853 10.5859 8.95154 10.5774 8.91689 10.5692L8.05578 14.0214C7.99061 14.1834 7.8252 14.4265 7.45239 14.3342C7.46559 14.3533 6.49532 14.0954 6.49532 14.0954L5.84155 15.6027L7.55516 16.0299C7.7428 16.0769 7.92822 16.1253 8.11177 16.1731L8.1118 16.1731C8.24007 16.2066 8.36743 16.2398 8.49399 16.2721L7.94908 18.4601L9.26436 18.7882L9.80399 16.6235C10.1633 16.721 10.512 16.811 10.8534 16.8958L10.3156 19.0504L11.6324 19.3785L12.1773 17.1946C14.4227 17.6195 16.1111 17.4482 16.8218 15.4172C17.3944 13.782 16.7932 12.8389 15.6119 12.2238C16.4723 12.0254 17.1204 11.4595 17.2932 10.2905L17.2928 10.2902L17.2928 10.2903ZM14.2842 14.5091C13.9109 16.0093 11.5626 15.3891 10.4882 15.1053C10.3915 15.0798 10.3052 15.057 10.2315 15.0387L10.9546 12.14C11.0444 12.1624 11.1541 12.187 11.2784 12.2149C12.3898 12.4643 14.6668 12.9753 14.2843 14.5091H14.2842ZM11.5013 10.8696C12.397 11.1086 14.3511 11.6301 14.6914 10.2666H14.6915C15.039 8.87206 13.14 8.45162 12.2125 8.24628C12.1082 8.22318 12.0161 8.2028 11.941 8.18406L11.2854 10.813C11.3473 10.8285 11.4199 10.8478 11.5013 10.8696Z" fill="white"/>
</svg>
