<svg width="25" height="24" viewBox="0 0 25 24" fill="none" xmlns="http://www.w3.org/2000/svg">
<path d="M24.6334 14.9029C23.0307 21.3315 16.5196 25.2438 10.0902 23.6407C3.66345 22.0381 -0.248891 15.5265 1.3545 9.09837C2.95648 2.66903 9.46765 -1.24361 15.8951 0.359081C22.324 1.96177 26.2361 8.47405 24.6332 14.903L24.6333 14.9029H24.6334Z" fill="url(#paint0_linear_300_8435)"/>
<path fill-rule="evenodd" clip-rule="evenodd" d="M18.2852 10.2903C18.524 8.69337 17.3082 7.83495 15.6457 7.2623L16.185 5.09911L14.8682 4.771L14.3432 6.87723C13.997 6.79089 13.6415 6.70954 13.2882 6.62889L13.817 4.50875L12.501 4.18063L11.9614 6.34312C11.675 6.2779 11.3936 6.21344 11.1206 6.14551L11.1221 6.13871L9.30623 5.68525L8.95594 7.09168C8.95594 7.09168 9.9329 7.31562 9.91231 7.32941C10.4455 7.46249 10.542 7.81548 10.526 8.09526L9.91161 10.5596C9.94833 10.569 9.99595 10.5825 10.0485 10.6036L10.0102 10.594L10.0102 10.594C9.97773 10.5859 9.94397 10.5774 9.90932 10.5692L9.04821 14.0214C8.98304 14.1834 8.81763 14.4265 8.44482 14.3342C8.45802 14.3533 7.48775 14.0954 7.48775 14.0954L6.83398 15.6027L8.54759 16.0299C8.73524 16.0769 8.92067 16.1253 9.10423 16.1731L9.10425 16.1731C9.23252 16.2066 9.35987 16.2398 9.48642 16.2721L8.94151 18.4601L10.2568 18.7882L10.7964 16.6235C11.1557 16.721 11.5044 16.811 11.8458 16.8958L11.308 19.0504L12.6249 19.3785L13.1697 17.1946C15.4151 17.6195 17.1035 17.4482 17.8142 15.4172C18.3868 13.782 17.7857 12.8389 16.6044 12.2238C17.4648 12.0254 18.1129 11.4595 18.2857 10.2905L18.2852 10.2902L18.2852 10.2903ZM15.2767 14.5091C14.9033 16.0093 12.555 15.3891 11.4806 15.1053C11.384 15.0798 11.2976 15.057 11.224 15.0387L11.9471 12.14C12.0368 12.1624 12.1466 12.187 12.2709 12.2149C13.3822 12.4643 15.6592 12.9753 15.2767 14.5091H15.2767ZM12.4936 10.8696C13.3894 11.1086 15.3435 11.6301 15.6838 10.2666H15.6839C16.0314 8.87206 14.1324 8.45161 13.2049 8.24627C13.1005 8.22317 13.0085 8.20279 12.9333 8.18405L12.2778 10.813C12.3396 10.8285 12.4123 10.8478 12.4936 10.8696Z" fill="white"/>
<defs>
<linearGradient id="paint0_linear_300_8435" x1="0.995117" y1="0" x2="0.995117" y2="24" gradientUnits="userSpaceOnUse">
<stop stop-color="#FCC538"/>
<stop offset="1" stop-color="#F7931A"/>
</linearGradient>
</defs>
</svg>
