<svg width="24" height="24" viewBox="0 0 24 24" fill="none" xmlns="http://www.w3.org/2000/svg">
<circle cx="12" cy="12" r="12" fill="#272D63"/>
<path fill-rule="evenodd" clip-rule="evenodd" d="M15.1206 5.50004L14.5979 7.63154C16.2137 8.19854 17.4032 9.04904 17.171 10.624C17.1038 11.1025 16.9395 11.5818 16.6005 11.944C16.3101 12.2568 15.8561 12.4225 15.4686 12.55C15.0039 12.7079 14.5179 12.7936 14.0275 12.8043C13.699 12.8043 13.3794 12.7945 13.0508 12.7653C12.5192 12.7255 11.9771 12.6768 11.4552 12.5598C11.3931 12.545 11.3322 12.5317 11.2727 12.5186L11.2727 12.5186C11.1749 12.4972 11.0808 12.4765 10.9908 12.4518L10.2844 15.3168L9.86852 16.8813L9.34584 19.0233L8.06007 18.7008L8.59245 16.5393C8.45814 16.5044 8.32189 16.4675 8.18462 16.4304C8.01513 16.3846 7.8441 16.3383 7.6733 16.2948L6 15.8748L6.63841 14.3973C6.63841 14.3973 7.58668 14.6523 7.57623 14.6328C7.94434 14.7205 8.0989 14.476 8.1661 14.32L8.89187 11.386L9.23011 10.027L9.61763 8.46254C9.6363 8.18879 9.53998 7.83704 9.01731 7.70954C9.03672 7.69979 8.07949 7.47479 8.07949 7.47479L8.41773 6.08654L10.1873 6.53654C10.3357 6.57339 10.4837 6.60779 10.6332 6.64253L10.6332 6.64254C10.7574 6.67143 10.8827 6.70056 11.0102 6.73154L11.5329 4.60004L12.8186 4.92254L12.3064 7.01504L12.517 7.0638C12.7881 7.1264 13.0632 7.1899 13.3316 7.25954L13.8341 5.17679L15.1206 5.50004ZM15.0144 13.225C15.3721 13.1658 15.8074 13.0195 16.1165 12.892C16.1213 12.8872 16.1287 12.8848 16.136 12.8824C16.1435 12.8799 16.1508 12.8775 16.1554 12.8725C16.8229 13.4688 17.1417 14.437 16.7064 15.679C16.0195 17.6935 14.3663 17.8593 12.1801 17.4393L11.6484 19.6L10.3716 19.2775L10.8644 17.2143L10.8838 17.146L11.2714 15.5613C12.4123 15.8163 13.9504 15.982 14.2401 14.7888C14.3955 14.1535 14.0953 13.6938 13.6114 13.3615L14.1147 13.3315C14.4731 13.3128 14.656 13.2835 15.0144 13.2243V13.225ZM12.2551 8.61538C13.1742 8.82829 14.9712 9.24457 14.6367 10.6038C14.3071 11.9557 12.3757 11.4305 11.5067 11.1943C11.4327 11.1741 11.3665 11.1561 11.3095 11.1415L11.9487 8.54128C12.0317 8.56364 12.136 8.5878 12.2551 8.61538Z" fill="#FEFEFE"/>
</svg>
