<svg width="24" height="24" viewBox="0 0 24 24" fill="none" xmlns="http://www.w3.org/2000/svg">
<path d="M12 24C18.6273 24 24 18.6273 24 12C24 5.37273 18.6273 0 12 0C5.37273 0 0 5.37273 0 12C0 18.6273 5.37273 24 12 24Z" fill="white"/>
<path d="M9.58749 7.48709C8.38866 7.46756 7.37787 7.79577 6.59432 8.8C6.24565 7.77234 6.35534 6.85409 7.0096 6.03742C7.54243 5.36534 8.25154 5.00585 9.11737 5.00585C11.4602 4.99805 13.8069 4.99805 16.1498 5.00585C16.855 5.00585 17.3839 5.53336 17.3995 6.21718C17.4152 6.90097 16.9098 7.44019 16.2085 7.49101C16.138 7.49492 16.0636 7.49492 15.9931 7.49492C15.3525 7.49492 14.712 7.49703 14.0714 7.49914C12.5768 7.50406 11.0821 7.50898 9.58749 7.48709Z" fill="black"/>
<path fill-rule="evenodd" clip-rule="evenodd" d="M12 24C18.6274 24 24 18.6274 24 12C24 5.37257 18.6274 0 12 0C5.37257 0 0 5.37257 0 12C0 18.6274 5.37257 24 12 24ZM17.876 16.4935H17.4895C17.482 16.5647 17.4772 16.634 17.4725 16.702C17.4674 16.7748 17.4625 16.8461 17.4544 16.9164C17.2162 18.274 16.088 19.2128 14.6786 19.2166C12.3986 19.2205 10.1226 19.2205 7.84258 19.2166C7.71374 19.2166 7.581 19.205 7.45607 19.174C6.83532 19.0149 6.46053 18.4525 6.53471 17.8085C6.59718 17.2267 7.12031 16.7534 7.73716 16.7457C8.25577 16.7374 8.77636 16.739 9.29753 16.7405C9.50611 16.7412 9.71478 16.7418 9.92345 16.7418C10.6027 16.7401 11.2826 16.7406 11.9629 16.7411C12.8703 16.7417 13.7783 16.7424 14.6864 16.7379C16.8141 16.7224 18.325 14.7867 17.7784 12.7812C17.4114 11.4274 16.1778 10.4732 14.7606 10.4654C13.9191 10.4618 13.0776 10.4632 12.2362 10.4646C11.2544 10.4662 10.2727 10.4678 9.29098 10.4616C8.27982 10.4577 7.4951 10.0077 6.91341 9.14653C6.96652 9.08622 7.01759 9.02467 7.06847 8.96337C7.17466 8.83542 7.28 8.70846 7.40142 8.59571C7.94017 8.09919 8.58045 7.86255 9.31832 7.86255C11.61 7.86643 13.9017 7.86643 16.1934 7.86255C17.3451 7.85869 18.1337 6.82296 17.8136 5.74457C17.6027 5.03858 16.9625 4.58472 16.1504 4.58472C13.8822 4.58086 11.6178 4.58086 9.35345 4.58472C9.17777 4.58472 8.99818 4.59637 8.82641 4.61963C7.21793 4.85238 6.03108 6.24109 6.12477 7.84704C6.22238 9.58876 7.5771 10.8533 9.28317 10.8533C9.88714 10.8533 10.4907 10.8529 11.0941 10.8525C12.3005 10.8516 13.5062 10.8507 14.7137 10.8533C16.0841 10.8572 17.2201 11.8154 17.4466 13.1575C17.5286 13.6463 17.4934 14.1273 17.2631 14.651C17.2545 14.6315 17.2479 14.6155 17.2423 14.6021C17.2301 14.5726 17.2231 14.5557 17.2123 14.5424C16.5369 13.7083 15.6546 13.3321 14.5849 13.3359C12.8007 13.3437 11.0166 13.3476 9.23242 13.3359C7.9714 13.3282 6.89388 12.467 6.59718 11.2529C6.56198 11.1131 6.54182 10.9676 6.52105 10.8179C6.51185 10.7517 6.50255 10.6846 6.49175 10.6167H6.11308C6.12089 11.1792 6.2497 11.699 6.53471 12.1645C7.17106 13.2041 8.10804 13.7355 9.33392 13.7394C10.3513 13.7438 11.3673 13.7432 12.3829 13.7426C13.1444 13.7421 13.9056 13.7416 14.6669 13.7432C15.6312 13.7432 16.4003 14.1273 16.9781 14.8992C17.0562 15.004 17.0562 15.0777 16.9781 15.1863C16.5369 15.7798 15.9591 16.1599 15.2291 16.2918C15.0183 16.3267 14.8035 16.3384 14.5888 16.3384C13.4547 16.3403 12.3215 16.3403 11.1889 16.3403C10.0562 16.3403 8.924 16.3403 7.79181 16.3423C6.84704 16.3461 6.11308 17.0676 6.10917 17.9753C6.10526 18.8714 6.83923 19.6162 7.76059 19.624C8.17332 19.6253 8.58608 19.6271 8.99879 19.6288C10.9245 19.6369 12.8497 19.645 14.7723 19.6162C16.0684 19.5968 17.0132 18.9529 17.591 17.793C17.7901 17.3896 17.8799 16.9551 17.876 16.4935Z" fill="black"/>
</svg>
