<svg width="24" height="24" viewBox="0 0 24 24" fill="none" xmlns="http://www.w3.org/2000/svg">
<circle cx="12" cy="12" r="12" fill="#E7EFF3"/>
<path fill-rule="evenodd" clip-rule="evenodd" d="M12.461 3H11.5232C9.8312 3.1053 8.16171 3.666 6.78472 4.66229C4.94603 5.96098 3.62754 7.97607 3.18474 10.1847C2.77074 12.1772 3.05694 14.312 3.99924 16.1183C4.73363 17.5565 5.86762 18.7841 7.23741 19.6373C9.014 20.7596 11.1929 21.2069 13.2692 20.9108C15.4814 20.6111 17.554 19.433 18.9634 17.7032C21.046 15.2183 21.5815 11.576 20.3341 8.58986C19.4278 6.34708 17.5711 4.51199 15.3212 3.6273C14.4122 3.2601 13.4393 3.0648 12.461 3ZM4.40623 7.87078C5.71122 5.4462 8.2276 3.72181 10.9654 3.40771C12.9517 3.16201 15.0172 3.63811 16.6902 4.7361C18.3732 5.81609 19.6557 7.50178 20.2542 9.40887C20.6736 10.7202 20.751 12.1332 20.5224 13.4894C20.1255 15.7907 18.744 17.8985 16.7973 19.1873C15.2098 20.2646 13.2514 20.7749 11.3389 20.6228C9.6505 20.4968 8.00621 19.8533 6.67691 18.8048C4.93092 17.4476 3.73843 15.3965 3.43693 13.2041C3.17054 11.3835 3.52333 9.48267 4.40623 7.87078Z" fill="#00206B"/>
<path fill-rule="evenodd" clip-rule="evenodd" d="M15.5517 8.32617C14.4258 7.20298 12.7473 6.68998 11.1822 6.95188C9.3075 7.23538 7.66591 8.65647 7.12232 10.4745C6.65792 11.9513 6.90452 13.6379 7.79911 14.9051C8.60731 16.0886 9.9384 16.8968 11.3604 17.0678C12.8697 17.2667 14.4618 16.7528 15.5445 15.6764C16.539 14.7413 17.1249 13.3814 17.1051 12.0143C17.1339 10.6401 16.5507 9.26936 15.5517 8.32617ZM11.4945 7.26362V7.26327C11.7177 7.24797 11.9418 7.23717 12.165 7.22997C12.1668 7.68806 12.1659 8.14706 12.165 8.60606C11.9418 8.60516 11.7186 8.60516 11.4954 8.60516C11.4963 8.1581 11.4954 7.71104 11.4945 7.26398V7.26362ZM13.1044 8.62679C13.692 8.70599 14.3238 8.79599 14.7927 9.19288C15.5082 9.83548 15.4155 11.1846 14.5398 11.6508C15.0645 11.7732 15.5838 12.1233 15.7134 12.6741C15.8817 13.3968 15.7476 14.2644 15.1671 14.7737C14.6074 15.2345 13.8549 15.3056 13.1595 15.3714L13.1026 15.3767C13.1056 15.7353 13.1048 16.0939 13.1039 16.453V16.4531L13.1035 16.6331C14.6001 16.2668 15.8916 15.1526 16.4406 13.7109C16.9617 12.3807 16.8384 10.8156 16.1031 9.59068C15.4533 8.48549 14.3481 7.67369 13.1071 7.3623C13.1035 7.78349 13.1035 8.20469 13.1044 8.62679ZM10.3115 8.6328C9.75345 8.63433 9.19552 8.63586 8.63825 8.60877C9.20884 8.10658 9.85594 7.68358 10.5822 7.44778C10.5844 7.76383 10.5842 8.07931 10.5841 8.39513L10.584 8.63217L10.3115 8.6328ZM8.56038 8.66095C8.38849 8.87245 8.06989 9.27205 7.88089 9.62575C7.11859 10.9244 7.03219 12.5912 7.66849 13.9574C8.21749 15.1823 9.30648 16.1354 10.5818 16.5458C10.5831 16.2502 10.583 15.9545 10.5828 15.6592V15.6592V15.6592V15.6591L10.5827 15.3641C10.3636 15.362 10.1443 15.3632 9.92494 15.3645C9.49287 15.3669 9.06068 15.3694 8.62968 15.3461C8.63688 14.9834 8.72238 14.6288 8.84568 14.2868C8.93454 14.2851 9.02445 14.2881 9.11458 14.2912C9.34763 14.2992 9.58222 14.3072 9.80418 14.2319C9.94662 14.1123 9.94421 13.9306 9.94191 13.7574C9.94131 13.7118 9.94071 13.6667 9.94278 13.6235C9.93792 13.0425 9.93891 12.4616 9.93991 11.8807V11.8807V11.8806V11.8806C9.94094 11.2782 9.94197 10.676 9.93648 10.0739C9.94818 9.88314 9.82848 9.67705 9.63048 9.63925C9.38171 9.58922 9.12721 9.59242 8.87412 9.5956H8.87411H8.8741H8.87409C8.79481 9.5966 8.71567 9.59759 8.63688 9.59695C8.59818 9.33055 8.59368 9.06145 8.59008 8.79235C8.59008 8.79235 8.59458 8.70775 8.56578 8.65285L8.56038 8.66095ZM11.5224 11.4221V9.67796C11.6398 9.68132 11.7597 9.6803 11.8805 9.67927C12.3412 9.67534 12.8155 9.67129 13.2198 9.91016C13.6563 10.1595 13.6833 10.8606 13.2603 11.1378C12.8313 11.4228 12.3052 11.4218 11.802 11.4208H11.802H11.802C11.7077 11.4206 11.6143 11.4204 11.5224 11.4221ZM11.5224 12.3609V14.2958C11.6978 14.2818 11.8783 14.2784 12.0601 14.2749C12.624 14.2641 13.2004 14.2531 13.6734 13.925C14.1207 13.6281 14.0667 12.8928 13.6059 12.6354C13.1159 12.3425 12.5433 12.3514 11.9841 12.3601H11.9841H11.9841C11.8285 12.3626 11.6739 12.365 11.5224 12.3609ZM11.4945 16.733C11.4954 16.2857 11.4963 15.8375 11.4963 15.3902H12.1938C12.1938 15.5047 12.1939 15.6193 12.1939 15.7338C12.1941 16.0774 12.1943 16.4209 12.1929 16.7645C11.9598 16.7573 11.7276 16.7483 11.4945 16.733Z" fill="#00206B"/>
<path fill-rule="evenodd" clip-rule="evenodd" d="M15.6436 4.67312C14.227 3.94593 12.5944 3.70563 11.0176 3.87483C8.57146 4.15293 6.29357 5.61092 5.02188 7.7205C3.98149 9.40259 3.59719 11.4699 3.94009 13.4157C4.27578 15.3804 5.36388 17.2082 6.93707 18.4313C8.41216 19.6031 10.3075 20.2367 12.1912 20.1683C15.3988 20.1638 18.4453 18.02 19.5991 15.0384C20.3578 13.1466 20.374 10.9722 19.6414 9.0714C18.9232 7.17331 17.4661 5.56682 15.6436 4.67312ZM7.50383 8.61508C8.28952 7.56119 9.46132 6.80429 10.7429 6.51539C12.1658 6.19049 13.7138 6.43799 14.954 7.21019C16.2788 8.01838 17.231 9.40347 17.5199 10.9281C17.7467 12.1854 17.5775 13.5245 16.9592 14.6513C16.1339 16.2308 14.5076 17.3567 12.7391 17.5727C11.3081 17.7689 9.80511 17.3873 8.64862 16.5179C7.41293 15.617 6.58223 14.1824 6.41574 12.6615C6.23844 11.2404 6.63623 9.75627 7.50383 8.61508Z" fill="#EBA809"/>
</svg>
