<svg width="24" height="24" viewBox="0 0 24 24" fill="none" xmlns="http://www.w3.org/2000/svg">
<circle cx="12" cy="12" r="12" fill="#EDF0F4"/>
<g opacity="0.8">
<path fill-rule="evenodd" clip-rule="evenodd" d="M13.6575 10.9671L9.84791 7.15754L7.72418 7.72594L10.426 5L13.6575 10.9671ZM10.3424 13.033L14.1519 16.8425L16.274 16.2741L13.5738 19.0001L10.3424 13.033ZM7.15754 14.1519L9.60012 8.97372L5.86142 12.714L5 13.5738L7.72594 16.274L7.15754 14.1519ZM13.0328 13.6576L16.8439 9.84648L16.2739 7.72436L18.9999 10.4261L13.0328 13.6576Z" fill="#040000"/>
</g>
<g opacity="0.8">
<path fill-rule="evenodd" clip-rule="evenodd" d="M11.2855 5.86142L15.0242 9.59851L13.6571 10.9671L10.4257 5L11.2855 5.86142ZM13.5734 19.0001L8.97493 14.3999L10.342 13.033L13.5734 19.0001ZM10.9668 10.3424L9.59981 8.97372L7.15723 14.1519L10.9668 10.3424ZM18.9996 10.4262L14.3995 15.0247L13.0326 13.6577L18.9996 10.4262Z" fill="#323333"/>
</g>
<g opacity="0.8">
<path fill-rule="evenodd" clip-rule="evenodd" d="M13.574 5L17.8537 6.14639L14.8283 7.33793L13.574 5ZM5 10.4261L6.148 6.14635L7.33793 9.17021L5 10.4261ZM19.0001 13.5738L17.8537 17.8535L16.6623 14.8281L19.0001 13.5738ZM6.14802 17.852L10.4261 19L9.17188 16.6605L6.14802 17.852Z" fill="#555555"/>
</g>
<g opacity="0.8">
<path fill-rule="evenodd" clip-rule="evenodd" d="M10.4261 5L7.72435 7.72594L7.33795 9.17025L6.14802 6.14639L10.4261 5ZM13.574 19L16.2742 16.2741L16.6623 14.8283L17.8537 17.8537L13.574 19ZM7.72594 16.274L5 13.5738L6.148 17.8519L9.17186 16.6605L7.72594 16.274ZM19.0001 10.4261L16.2742 7.72429L14.8283 7.33789L17.8537 6.14635L19.0001 10.4261Z" fill="#323333"/>
</g>
<g opacity="0.8">
<path fill-rule="evenodd" clip-rule="evenodd" d="M13.0328 5.54264L13.5738 5L14.8281 7.33793L13.0328 5.54264ZM5 10.4262L7.33793 9.17033L5.54264 10.9672L5 10.4262ZM19.0001 13.5739L16.6623 14.8283L18.4575 13.033L19.0001 13.5739ZM10.4261 19L10.9671 18.4574L9.17184 16.6605L10.4261 19Z" fill="#040000"/>
</g>
</svg>
