<svg width="24" height="24" viewBox="0 0 24 24" fill="none" xmlns="http://www.w3.org/2000/svg">
<circle cx="12" cy="12" r="12" fill="#35BAEB"/>
<path fill-rule="evenodd" clip-rule="evenodd" d="M9.11068 11.2793C8.49977 10.6646 7.9127 10.0739 7.6001 9.76131C7.6001 9.62596 7.6001 4.79999 7.6073 4.79999L11.7018 8.46321V13.0948C11.5052 13.1387 11.3173 13.2157 11.146 13.3216C10.9094 13.0893 9.98559 12.1597 9.11068 11.2793ZM14.9106 11.3366C14.1878 10.693 13.2677 10.3143 12.3007 10.261V13.0948C12.5182 13.1301 12.7248 13.2107 12.9077 13.3331L14.9106 11.3366ZM7.6001 10.6785L10.678 13.7564C10.552 13.9436 10.4699 14.156 10.4368 14.3778H7.6001V10.6785ZM7.6001 14.9847H10.4368C10.4677 15.1963 10.5505 15.3972 10.678 15.57L8.67502 17.5953C8.04288 16.8645 7.66562 15.948 7.6001 14.9847ZM15.3785 17.5435L13.3756 15.5405C13.4771 15.3634 13.5462 15.1704 13.58 14.9696H16.4311C16.3685 15.9192 15.9991 16.8228 15.3785 17.5435ZM13.5809 14.3785H16.4176C16.3521 13.4152 15.9749 12.4987 15.3427 11.7679L13.339 13.7781C13.465 13.9566 13.5478 14.1625 13.5809 14.3785ZM11.7134 19.0907C10.7464 19.0382 9.82632 18.6595 9.10275 18.0158L11.1064 16.0121C11.2893 16.1345 11.4959 16.2152 11.7134 16.2505V19.0907ZM12.3007 16.2498V19.0865C13.2677 19.0217 14.1856 18.6386 14.9114 17.9964L12.9221 16.0071C12.7334 16.1288 12.5225 16.2109 12.3007 16.2498Z" fill="white"/>
</svg>
