<svg width="24" height="24" viewBox="0 0 24 24" fill="none" xmlns="http://www.w3.org/2000/svg">
<circle cx="12" cy="12" r="12" fill="black"/>
<path fill-rule="evenodd" clip-rule="evenodd" d="M20.2891 8.50162C20.5198 9.04596 20.6961 9.61181 20.8153 10.1909C21.1828 11.9724 20.9992 13.8236 20.2891 15.4984C20.0584 16.0336 19.781 16.5507 19.4584 17.0301C19.136 17.5077 18.7682 17.953 18.3601 18.3598C17.9533 18.7679 17.508 19.1357 17.0304 19.4581C16.5411 19.7807 16.0338 20.0672 15.4986 20.2888C13.2627 21.2371 10.7376 21.2371 8.50172 20.2888C7.96651 20.0581 7.4494 19.7807 6.96997 19.4581C6.49238 19.1357 6.04707 18.7679 5.64024 18.3598C5.23221 17.9529 4.8644 17.5076 4.54193 17.0301C4.2193 16.5409 3.93285 16.0336 3.71123 15.4984C2.76292 13.2625 2.76292 10.7375 3.71123 8.50162C3.94025 7.96625 4.21834 7.45324 4.54193 6.96914C4.86442 6.49208 5.23223 6.04729 5.64024 5.64094C6.45972 4.81801 7.43164 4.16256 8.50172 3.71122C10.7376 2.76293 13.2627 2.76293 15.4986 3.71122C16.0337 3.94028 16.5465 4.21836 17.0304 4.5419C17.508 4.86431 17.9533 5.23211 18.3601 5.64019C18.7682 6.04677 19.136 6.49182 19.4584 6.96914C19.7836 7.45228 20.0618 7.96545 20.2891 8.50162ZM4.14468 12.009C4.14468 16.3472 7.66122 19.8734 12.0085 19.8734C16.3474 19.8734 19.873 16.3472 19.873 12.009C19.873 7.67092 16.3467 4.14464 12.0085 4.14464C7.67102 4.14464 4.14468 7.67092 4.14468 12.009Z" fill="white"/>
<path d="M12.1478 19.1905H12.3603C12.3973 19.1905 12.4335 19.1905 12.4704 19.1807H12.4802C12.5171 19.1807 12.5443 19.1807 12.5812 19.1716H12.6091C12.637 19.1716 12.6649 19.1716 12.692 19.1626H12.7199C12.7478 19.1626 12.7757 19.1536 12.8126 19.1536H12.8307C12.8676 19.1536 12.9046 19.1438 12.9415 19.1438C12.9785 19.1438 13.0064 19.1347 13.0433 19.1257H13.0614C13.0893 19.1257 13.1172 19.1166 13.1443 19.1166H13.1631C13.2001 19.1068 13.228 19.1068 13.2649 19.0978C13.338 19.0887 13.4119 19.0699 13.4767 19.0518H13.4956C13.5227 19.0427 13.5597 19.0427 13.5875 19.0329H13.5966C13.6705 19.0149 13.7353 18.996 13.8092 18.9779C13.1178 18.9998 12.4264 18.9348 11.7512 18.7842C10.7351 18.5626 9.76646 18.1661 8.9448 17.4824C7.63307 16.3908 6.88093 14.7678 6.89593 13.0613C6.90258 11.8042 7.34992 10.5891 8.16008 9.62778C9.2124 8.38175 10.708 7.72594 12.2397 7.68901H12.4523V6.46182H12.2126C11.7466 6.47036 11.2827 6.52592 10.8278 6.62766C10.3701 6.73115 9.92466 6.88276 9.49885 7.07994C9.06466 7.28346 8.65835 7.53222 8.27994 7.81866C7.8889 8.11591 7.53283 8.45654 7.21856 8.83403C6.92266 9.1834 6.66585 9.56407 6.45269 9.96925C6.24181 10.3599 6.07156 10.7711 5.94462 11.1964C5.8201 11.6152 5.73678 12.0452 5.69586 12.4802L5.66797 12.8857V13.1254C5.67701 13.5965 5.7328 14.0579 5.83381 14.5101C5.93557 14.9722 6.09237 15.4147 6.2861 15.8398C6.51752 16.3472 6.93287 17.0949 7.551 17.658C8.81311 18.6529 10.374 19.1929 11.9812 19.1905H12.1478Z" fill="white"/>
<path d="M14.1601 18.0086C13.7048 17.9923 13.2513 17.9429 12.8032 17.8608C10.9021 17.5193 9.26782 16.3562 8.66854 14.6029C7.93885 12.4704 9.056 10.163 11.1787 9.46197C11.5833 9.32641 12.0072 9.25767 12.4338 9.25845C12.9788 9.25845 13.5231 9.36925 14.0221 9.57203L14.5385 8.47374C14.3832 8.41148 14.2264 8.35317 14.0681 8.29886C13.5393 8.13288 12.9881 8.04873 12.4338 8.04935C11.8785 8.05039 11.327 8.14074 10.8003 8.31695C10.1282 8.53863 9.50917 8.8969 8.98212 9.36925C8.72794 9.59567 8.4962 9.84609 8.29012 10.117C8.0864 10.3849 7.91013 10.6725 7.76396 10.9756C7.46632 11.585 7.29065 12.2467 7.24684 12.9234C7.20086 13.6245 7.29283 14.3255 7.52349 14.9903C7.75852 15.6743 8.13624 16.3004 8.6316 16.8273C9.08389 17.3166 9.61005 17.6859 10.2463 18.0274C10.9111 18.3779 11.7328 18.5626 12.5906 18.6832C13.1447 18.7563 13.8834 18.7752 14.3169 18.7752C14.6953 18.6365 14.8521 18.5716 15.0556 18.4887C15.2312 18.4058 15.4061 18.3229 15.5818 18.2211C15.7574 18.1194 15.7853 18.1005 16.08 17.9075C16.1063 17.8912 16.131 17.8725 16.1539 17.8518C15.1385 18.0274 14.88 18.0176 14.1601 18.0086Z" fill="white"/>
<path d="M16.4313 16.6336C16.1448 16.6517 15.7385 16.6788 15.2772 16.6788C14.4555 16.6788 13.4492 16.6057 12.5913 16.3193C11.2616 15.8768 10.0065 14.7416 10.0065 13.338C10.0059 12.6671 10.2722 12.0235 10.7466 11.5491C11.221 11.0747 11.8646 10.8084 12.5356 10.809C13.4861 10.809 14.3078 11.3351 14.742 12.101L15.8403 11.5568C15.6681 11.2326 15.4469 10.9368 15.1845 10.6801C14.4823 9.97669 13.5291 9.58142 12.5352 9.58142C11.5413 9.58142 10.5881 9.97669 9.88591 10.6801C9.18272 11.3823 8.78759 12.3352 8.7876 13.329C8.79006 13.8446 8.90047 14.3541 9.11174 14.8245C9.30471 15.2489 9.57307 15.6461 9.91455 16.0155C10.5146 16.6607 11.3355 17.1779 12.2129 17.4733C13.0527 17.75 14.2897 17.8517 15.4898 17.7688C15.8214 17.7409 16.071 17.7131 16.4953 17.6211C16.9049 17.2979 17.2766 16.9295 17.6035 16.5228C17.317 16.5507 16.7908 16.6057 16.4313 16.6336Z" fill="white"/>
</svg>
