<svg width="24" height="24" viewBox="0 0 24 24" fill="none" xmlns="http://www.w3.org/2000/svg">
<circle cx="12" cy="12" r="12" fill="#EDF0F4"/>
<path fill-rule="evenodd" clip-rule="evenodd" d="M13.5964 5.57911C12.5412 5.34194 11.4314 5.33567 10.3782 5.58778C8.97742 5.9151 7.68862 6.6941 6.74109 7.77439C5.96781 8.6498 5.41898 9.7219 5.16653 10.8624C4.95993 11.7807 4.94738 12.7415 5.11874 13.666C5.35623 14.9739 5.98711 16.2021 6.89362 17.173L6.94118 17.1789L6.98244 17.1841C7.37632 17.2216 7.7702 17.2501 8.16553 17.2554C8.55265 17.2641 8.93881 17.2385 9.32498 17.211C9.21588 16.9797 9.11403 16.7454 9.01749 16.5087C9.01402 16.4991 9.00718 16.4821 9.0021 16.4695L8.99866 16.461C8.42425 16.5 7.84695 16.4865 7.2735 16.4374C6.8106 15.8844 6.42251 15.2621 6.17682 14.5824C6.41913 14.058 6.69282 13.5475 7.01236 13.0654C7.45403 13.6048 7.94445 14.1038 8.47397 14.5579C8.79593 14.823 9.12465 15.0808 9.47458 15.3079C9.50306 15.3291 9.56003 15.371 9.58851 15.3918C9.61074 15.653 9.77193 15.898 10.008 16.0156C10.2189 16.1274 10.4767 16.1197 10.692 16.0238C10.7672 16.0589 10.8426 16.0941 10.9179 16.1308C11.2751 16.3024 11.6439 16.4513 12.0179 16.5834C12.6671 16.8119 13.3386 16.9744 14.0182 17.0823C13.7663 17.5769 13.4737 18.0503 13.1523 18.503L13.2353 18.4847C13.5973 18.4104 13.9521 18.3039 14.2968 18.1699C14.4389 17.9361 14.5659 17.6941 14.6928 17.4522L14.6929 17.4521L14.6929 17.4521C14.7419 17.3587 14.7909 17.2654 14.8407 17.1725C15.3825 17.2202 15.926 17.2084 16.4692 17.1966L16.4694 17.1966C16.672 17.1922 16.8746 17.1878 17.0771 17.1865C17.8171 16.4301 18.3586 15.4819 18.6801 14.4744L18.6628 14.4359C18.5063 14.0729 18.3326 13.7181 18.1487 13.3681C18.0816 13.7388 17.9981 14.1081 17.8673 14.4624C17.6211 15.1638 17.2422 15.816 16.7662 16.3863C16.2314 16.4359 15.6942 16.448 15.1574 16.4234C15.4094 15.7625 15.6024 15.0799 15.7294 14.3843L15.7364 14.3411L15.7365 14.3411L15.7365 14.341C15.7728 14.1183 15.8091 13.8954 15.8322 13.6713C15.8544 13.4968 15.8675 13.3218 15.8791 13.1464L15.8861 13.0597L15.8921 12.9859C16.1513 12.7675 16.2488 12.379 16.1016 12.0705C16.0789 12.005 16.0336 11.952 15.9891 11.9C15.9179 11.8167 15.8488 11.7358 15.8776 11.6101C15.8544 11.209 15.7994 10.8108 15.7347 10.4151C15.6078 9.72909 15.4224 9.05473 15.1753 8.40252C15.7222 8.37985 16.271 8.38804 16.815 8.44879C17.2465 8.98769 17.5965 9.58979 17.8407 10.2358C17.987 9.89782 18.1139 9.55269 18.2293 9.20269C17.9498 8.66423 17.6032 8.16097 17.1968 7.7098L17.1577 7.70739C17.0815 7.70042 17.0053 7.69296 16.9292 7.68551L16.9291 7.6855C16.6734 7.66048 16.4179 7.63547 16.1609 7.6288C15.7255 7.60325 15.2892 7.6235 14.8547 7.64905C14.6916 7.31594 14.5231 6.98576 14.3305 6.66855C14.1153 6.30363 13.8725 5.95656 13.6219 5.61526C13.6152 5.6061 13.6026 5.58827 13.5964 5.57911ZM9.87625 6.54653C10.2387 6.4077 10.6186 6.31804 11.0004 6.25248C11.7124 6.14257 12.4418 6.14691 13.1504 6.27803C13.4873 6.73838 13.7798 7.22911 14.04 7.73625C13.3613 7.84905 12.6904 8.01343 12.0373 8.22891C11.9561 8.26108 11.8746 8.29268 11.7931 8.32428L11.793 8.32431L11.793 8.32431C11.5107 8.4338 11.228 8.5434 10.9561 8.67771C10.9213 8.69331 10.8867 8.70909 10.8522 8.72483L10.7832 8.75625C10.4444 8.53259 9.94432 8.63673 9.7266 8.97992C9.63539 9.11203 9.59579 9.27253 9.59484 9.43161C9.54223 9.47017 9.48915 9.50731 9.43507 9.54299L9.43555 9.55117C9.16342 9.7164 8.91419 9.91565 8.66538 10.1146C8.59114 10.1739 8.51693 10.2332 8.44216 10.2916C7.93001 10.7428 7.44442 11.2297 7.01289 11.7609C6.69045 11.2721 6.40904 10.7568 6.17058 10.2227C6.40663 9.55742 6.77685 8.93752 7.23155 8.39665C7.48207 8.08573 7.77555 7.81242 8.08062 7.55597C8.62221 7.12983 9.22557 6.77742 9.87625 6.54653ZM13.2295 8.68828C12.8424 8.78178 12.4611 8.89893 12.0884 9.03823L12.1039 9.04452C11.8677 9.10871 11.6424 9.21176 11.4177 9.31451L11.4177 9.31451C11.3268 9.35605 11.236 9.39755 11.1447 9.4364C11.1182 9.65236 11.0279 9.86836 10.8513 10.0043C10.6191 10.199 10.2735 10.2284 10.0065 10.0881C9.68941 10.3007 9.37466 10.5196 9.08699 10.7717C8.7578 11.0315 8.45321 11.3222 8.16311 11.6245C7.92128 11.8746 7.69731 12.1412 7.48106 12.4131C7.71855 12.712 7.96521 13.0041 8.23503 13.2745L8.23359 13.2808C8.52272 13.5652 8.81475 13.8482 9.13478 14.0984C9.38772 14.31 9.65658 14.5014 9.92833 14.6869C10.1687 14.5279 10.4965 14.5173 10.7446 14.6648C10.997 14.8065 11.1404 15.0952 11.1317 15.3806C11.4401 15.5262 11.751 15.667 12.072 15.7822C12.4504 15.9248 12.838 16.0434 13.2309 16.1394C13.6007 16.231 13.9762 16.2965 14.3532 16.3505C14.5004 15.987 14.6327 15.6173 14.737 15.2389L14.7423 15.2365C14.8475 14.8403 14.9412 14.4406 15.0039 14.0352C15.0541 13.7272 15.085 13.4167 15.1111 13.1053C14.9112 13.0181 14.7447 12.8522 14.6737 12.6445C14.5308 12.2699 14.7399 11.8202 15.1101 11.6741C15.0859 11.3579 15.0546 11.0421 15.001 10.7298C14.9412 10.3248 14.8456 9.92618 14.7384 9.53189C14.6327 9.1737 14.5115 8.82086 14.3735 8.47422C13.9888 8.52679 13.606 8.59331 13.2295 8.68828ZM5.86493 13.4796C5.74618 12.7739 5.74715 12.0508 5.86107 11.3446C6.06573 11.71 6.28536 12.0662 6.52091 12.4128C6.28825 12.7599 6.0638 13.1122 5.86493 13.4796Z" fill="#874FA9"/>
<path opacity="0.19" d="M13.6221 5.61521C13.6935 5.58773 13.7649 5.62678 13.8344 5.64124C14.4156 5.80514 14.9881 6.0264 15.5007 6.34793C15.3158 6.55474 15.0566 6.67286 14.8573 6.86421C14.6864 6.78854 14.5232 6.67044 14.3306 6.6685C14.1154 6.30358 13.8726 5.95651 13.6221 5.61521Z" fill="#874FA9"/>
<path opacity="0.2" d="M9.87614 6.5465C10.2386 6.40766 10.6185 6.318 11.0003 6.25244C10.6823 6.72292 10.3627 7.19727 10.1223 7.71354C10.7025 7.80656 11.275 7.94492 11.833 8.12955C11.9059 8.15174 11.973 8.18741 12.0372 8.22886C11.6747 8.37252 11.3064 8.50458 10.9559 8.67766C10.5712 8.57498 10.1793 8.49545 9.78393 8.44676C9.6454 8.78176 9.51752 9.12353 9.42725 9.47448L9.43496 9.54294L9.43544 9.55113C9.0821 9.76566 8.76739 10.0375 8.44205 10.2916C8.53473 9.62873 8.76449 8.99582 8.96867 8.36192C8.38944 8.32719 7.80875 8.34167 7.23145 8.3966C7.48196 8.08568 7.77545 7.81238 8.08051 7.55593C8.48646 7.58001 8.89434 7.57424 9.30029 7.60703C9.48611 7.25031 9.67294 6.89406 9.87614 6.5465Z" fill="#874FA9"/>
<path opacity="0.16" d="M15.5009 6.3479L15.5091 6.33826C16.0743 6.6699 16.5932 7.08013 17.0469 7.55254C17.089 7.59981 17.1425 7.64268 17.158 7.70727C16.8259 7.67694 16.4947 7.63738 16.1612 7.62872C15.9797 7.62678 15.8421 7.50433 15.7084 7.39829C15.442 7.1944 15.1495 7.02808 14.8574 6.86418C15.0568 6.67278 15.316 6.5547 15.5009 6.3479Z" fill="#874FA9"/>
<path opacity="0.16" d="M12.0884 9.03831C12.461 8.89901 12.8424 8.78185 13.2295 8.68835C13.5722 8.8701 13.9178 9.04796 14.2437 9.26008C14.0467 9.45432 13.7933 9.57531 13.5905 9.76334C13.1175 9.48086 12.614 9.25284 12.1038 9.0446L12.0884 9.03831Z" fill="#874FA9"/>
<path opacity="0.16" d="M8.16309 11.6246C8.45319 11.3224 8.75777 11.0317 9.08697 10.7719C9.12993 10.9064 9.09759 11.0461 9.0807 11.1821C8.96195 12.151 8.99574 13.1339 9.13476 14.0985C8.81473 13.8483 8.5227 13.5654 8.23356 13.281L8.23501 13.2747C8.27024 13.1816 8.2548 13.0819 8.2519 12.9855C8.22343 12.527 8.23066 12.0671 8.25576 11.6082C8.23259 11.6126 8.18626 11.6208 8.16309 11.6246V11.6246Z" fill="#874FA9"/>
<path opacity="0.07" d="M17.841 10.2358C17.9873 9.89783 18.1142 9.55265 18.2296 9.2027C18.5791 9.8665 18.8035 10.5949 18.915 11.3358C18.8947 11.424 18.9179 11.5493 18.8204 11.5971C18.6196 11.7272 18.4372 11.8897 18.2161 11.9856C18.1948 11.8 18.1881 11.6101 18.1311 11.4303C17.9776 11.6265 17.8772 11.8574 17.7348 12.0608C17.6663 12.1818 17.5437 12.2912 17.5596 12.4421C17.4404 12.6253 17.2425 12.7222 17.0576 12.8248C16.7409 13.0741 16.3953 13.2848 16.0874 13.545C16.0097 13.6 15.9194 13.6332 15.8325 13.6713C15.8547 13.4968 15.8678 13.3219 15.8794 13.1464C16.1598 12.9435 16.3789 12.66 16.5643 12.3713C16.4209 12.1673 16.238 11.9952 16.0922 11.7928C16.2718 11.6106 16.5464 11.5296 16.6637 11.2895C16.7998 11.4211 16.9152 11.5715 17.0344 11.7181C17.3573 11.2558 17.6007 10.7443 17.841 10.2358Z" fill="#874FA9"/>
<path opacity="0.07" d="M9.66102 16.0203C9.71316 16.136 9.74112 16.2667 9.82609 16.364C10.1954 16.3168 10.5637 16.2479 10.918 16.1307C11.2752 16.3023 11.6439 16.4513 12.018 16.5833C11.9727 16.6161 11.9239 16.6422 11.8713 16.661C11.3191 16.8528 10.7495 16.9912 10.1746 17.0973C10.1659 17.2703 10.3286 17.4043 10.3768 17.5682C10.1717 17.7114 9.94338 17.8237 9.7696 18.0078C9.59247 17.7591 9.47226 17.4771 9.32507 17.211C9.21597 16.9796 9.11412 16.7454 9.01758 16.5086C9.2179 16.3259 9.48579 16.231 9.66102 16.0203V16.0203Z" fill="#874FA9"/>
<path opacity="0.14" d="M14.2434 9.26007C14.4158 9.33625 14.547 9.50692 14.7382 9.53195C14.8454 9.92629 14.9409 10.3249 15.0008 10.7299C14.5432 10.3895 14.0846 10.0497 13.5903 9.76337C13.7931 9.57534 14.0465 9.45435 14.2434 9.26007V9.26007Z" fill="#874FA9"/>
<path opacity="0.1" d="M15.7349 10.415C15.8179 10.4511 15.8985 10.4955 15.9627 10.561C16.2031 10.7972 16.4478 11.0301 16.6636 11.2894C16.5463 11.5295 16.2716 11.6105 16.0921 11.7927C16.0288 11.7228 15.9545 11.6635 15.8777 11.61C15.8546 11.209 15.7995 10.8108 15.7349 10.415Z" fill="#874FA9"/>
<path opacity="0.04" d="M18.9146 11.3357C19.0203 11.8259 19.0059 12.3389 18.9856 12.8397C18.9219 13.3777 18.8606 13.9282 18.6627 14.4358C18.5063 14.0728 18.3325 13.718 18.1486 13.368C18.0815 13.7387 17.998 14.108 17.8672 14.4623C17.6731 14.1986 17.5626 13.8867 17.3999 13.6047C17.5988 13.4548 17.8112 13.3198 18.0289 13.2008C18.0569 13.22 18.1129 13.2586 18.1404 13.2779C18.2359 12.8575 18.2142 12.416 18.2157 11.9855C18.4368 11.8896 18.6192 11.7271 18.82 11.597C18.9175 11.5492 18.8943 11.4239 18.9146 11.3357V11.3357Z" fill="#874FA9"/>
<path opacity="0.05" d="M17.5594 12.442C17.753 12.6696 17.8973 12.9342 18.0291 13.2008C17.8113 13.3198 17.599 13.4548 17.4001 13.6047C17.29 13.4269 17.1925 13.2393 17.0569 13.0793C16.83 13.2336 16.7012 13.4881 16.4994 13.6703C16.2416 13.907 16.0297 14.1991 15.7295 14.3842C15.7681 14.1471 15.8077 13.9099 15.8323 13.6713C15.9192 13.6332 16.0094 13.5999 16.0872 13.545C16.3951 13.2847 16.7407 13.074 17.0574 12.8248C17.2422 12.7221 17.4401 12.6252 17.5594 12.442V12.442Z" fill="#874FA9"/>
<path opacity="0.05" d="M10.3766 17.5682C10.4895 17.7085 10.561 17.8768 10.6643 18.0238C10.7652 18.1896 10.8926 18.3395 10.9756 18.5155C10.5446 18.5266 10.1131 18.5141 9.682 18.5256C9.4667 18.5218 9.24997 18.5425 9.03613 18.5088C9.10902 18.475 9.17322 18.4259 9.22825 18.3675C9.32093 18.2629 9.4913 18.2513 9.54779 18.112C9.63758 18.1477 9.73026 18.1737 9.82536 18.1911C9.80894 18.1294 9.79158 18.0677 9.76934 18.0079C9.94311 17.8237 10.1714 17.7114 10.3766 17.5682V17.5682Z" fill="#874FA9"/>
<path opacity="0.06" d="M12.9136 15.3933C13.6686 15.0375 14.3555 14.5569 15.0037 14.0353C14.9409 14.4407 14.8473 14.8404 14.7421 15.2366L14.7368 15.239C14.4679 15.3528 14.2502 15.5528 13.9949 15.6902C13.7463 15.8507 13.4624 15.9549 13.2307 16.1395C12.8378 16.0436 12.4502 15.925 12.0718 15.7823C12.3498 15.6469 12.6433 15.5442 12.9136 15.3933Z" fill="#874FA9"/>
<path opacity="0.11" d="M8.47412 14.5579C8.79608 14.823 9.1248 15.0809 9.47477 15.3079C9.45448 15.358 9.45254 15.4082 9.46848 15.4588C9.52592 15.6482 9.59059 15.8353 9.66108 16.0204C9.48585 16.231 9.21796 16.326 9.01764 16.5087C9.01329 16.4967 9.00364 16.473 8.99881 16.461C8.79367 15.9177 8.61507 15.3633 8.49005 14.796C8.47557 14.7174 8.47557 14.6369 8.47412 14.5579V14.5579Z" fill="#874FA9"/>
<path opacity="0.08" d="M6.98242 17.1841C7.37631 17.2217 7.77018 17.2501 8.16552 17.2554C8.35425 17.4564 8.59849 17.5904 8.82922 17.737C9.05754 17.8821 9.3013 18.0016 9.54795 18.112C9.49147 18.2514 9.3211 18.2629 9.22841 18.3675C9.17339 18.4259 9.10919 18.475 9.0363 18.5088C8.85867 18.5189 8.66076 18.5512 8.50485 18.4437C7.95554 18.127 7.43761 17.7452 7.00318 17.2824C6.99787 17.2578 6.98773 17.2086 6.98242 17.1841Z" fill="#874FA9"/>
</svg>
