<svg width="24" height="24" viewBox="0 0 24 24" fill="none" xmlns="http://www.w3.org/2000/svg">
<circle cx="12" cy="12" r="12" fill="#EDF0F4"/>
<circle cx="12" cy="12" r="10" fill="#FB2EA3"/>
<path fill-rule="evenodd" clip-rule="evenodd" d="M16.1764 10.6917C16.0353 11.6535 15.5064 12.1191 14.8047 12.282C15.7681 12.7876 16.2591 13.5639 15.7917 14.9085C15.2118 16.579 13.8345 16.7193 12.0029 16.3703L11.5572 18.1667L10.4832 17.8966L10.922 16.1247C10.6357 16.0531 10.3502 15.9783 10.0656 15.9004L9.62552 17.6811L8.55215 17.4117L8.99716 15.6115C8.89043 15.5841 8.78303 15.5559 8.67482 15.5275L8.67462 15.5274L8.67422 15.5273L8.67392 15.5272L8.67373 15.5272C8.5277 15.4888 8.38018 15.45 8.23082 15.4123L6.83301 15.0614L7.36628 13.8208C7.36628 13.8208 8.1581 14.0339 8.14691 14.0176C8.45146 14.0934 8.58633 13.8935 8.63978 13.7607L9.3421 10.9211L9.45584 10.9493C9.41937 10.9349 9.382 10.923 9.34397 10.9136L9.84492 8.88661C9.85797 8.65604 9.77966 8.36656 9.34459 8.25629C9.36137 8.24501 8.56395 8.0608 8.56395 8.0608L8.84986 6.90416L10.3316 7.27696L10.3303 7.28323C10.5528 7.33837 10.7828 7.39162 11.0165 7.44551L11.4572 5.66669L12.5311 5.93611L12.0998 7.68047L12.1663 7.69581C12.4322 7.75714 12.6995 7.8188 12.96 7.88473L13.3889 6.15228L14.4628 6.4217L14.0228 8.20115C15.3796 8.67233 16.3716 9.37847 16.1764 10.6917ZM13.7213 14.1617C14.0343 12.9009 12.1775 12.4804 11.2703 12.275L11.2703 12.275L11.2702 12.275C11.1685 12.2519 11.0787 12.2316 11.0053 12.2131L10.4154 14.5972C10.4757 14.6123 10.5463 14.6311 10.6254 14.6521L10.6254 14.6521C11.5023 14.8857 13.4175 15.3957 13.722 14.1617H13.7213ZM12.0336 9.01099C12.791 9.18027 14.3376 9.52596 14.054 10.6724C13.7763 11.7951 12.1795 11.3645 11.4499 11.1677C11.3843 11.15 11.3258 11.1342 11.2758 11.1216L11.8103 8.95932C11.872 8.97488 11.9477 8.9918 12.0336 9.01099L12.0336 9.01099ZM17.1802 15.4524C17.075 15.4382 16.9685 15.4668 16.8843 15.5319C16.8035 15.6018 16.7487 15.6972 16.7289 15.8026C16.7162 15.8612 16.712 15.9214 16.7165 15.9812C16.7218 16.0493 16.7436 16.1152 16.7799 16.1729C16.8172 16.2356 16.8769 16.2945 16.9577 16.3496C17.0385 16.4041 17.1503 16.448 17.2933 16.4812C17.3704 16.5 17.4499 16.5088 17.5313 16.5081C17.6134 16.5081 17.6892 16.495 17.7588 16.4687C17.9086 16.4154 18.0195 16.2866 18.0509 16.1297C18.0805 16.0186 18.0649 15.9001 18.0074 15.8007C17.9502 15.7042 17.8564 15.6303 17.7252 15.5789L17.821 15.1616C18.0571 15.2575 18.2225 15.3947 18.3182 15.572C18.4139 15.75 18.4338 15.9611 18.3778 16.2055C18.3495 16.341 18.2934 16.4691 18.2131 16.5814C18.0672 16.782 17.8419 16.9087 17.596 16.9286C17.4623 16.9407 17.3275 16.9308 17.1969 16.8991C17.0627 16.8689 16.9338 16.8182 16.8147 16.7487C16.7049 16.6853 16.6091 16.6001 16.5332 16.4981C16.4592 16.3968 16.4087 16.2801 16.3852 16.1566C16.3602 16.0149 16.3655 15.8694 16.4008 15.7299C16.4246 15.624 16.4628 15.522 16.5145 15.4267C16.5649 15.3339 16.6264 15.2556 16.7003 15.1917C16.7737 15.1278 16.8582 15.0814 16.9539 15.0526C17.0503 15.0232 17.1572 15.0175 17.2759 15.0344L17.1802 15.4524ZM18.6861 14.5163C18.7671 14.3997 18.824 14.2678 18.8533 14.1285C18.8876 13.9904 18.8939 13.8468 18.8719 13.7062C18.8489 13.5765 18.8035 13.4606 18.7352 13.3584C18.6668 13.2563 18.5773 13.1698 18.4654 13.0984C18.3466 13.0248 18.2163 12.9718 18.0801 12.9418C17.9371 12.9086 17.8004 12.8992 17.6699 12.9136C17.5448 12.9262 17.4237 12.965 17.3144 13.0276C17.2081 13.089 17.1173 13.1736 17.0403 13.2801C16.9592 13.3968 16.9024 13.5287 16.8731 13.668C16.8389 13.8058 16.8325 13.9493 16.8544 14.0896C16.8749 14.2143 16.9215 14.333 16.9912 14.438C17.0622 14.5425 17.154 14.6308 17.2609 14.6974C17.3784 14.771 17.5075 14.824 17.6425 14.8541C17.7781 14.8871 17.9183 14.8969 18.0571 14.8829C18.1822 14.8703 18.3033 14.8314 18.4126 14.7688C18.5183 14.7068 18.6096 14.6229 18.6861 14.5163ZM17.2224 12.3754L17.3125 11.9838L17.6755 12.0684L17.6774 12.0608C17.6267 12.0345 17.5817 11.9983 17.545 11.9543C17.4606 11.8555 17.4047 11.7352 17.3834 11.6066C17.373 11.5416 17.3751 11.4752 17.3896 11.4111C17.4008 11.3582 17.4166 11.3064 17.4368 11.2563L17.8365 11.3491C17.8248 11.3778 17.8138 11.4069 17.8035 11.4362C17.7931 11.4651 17.7844 11.4946 17.7774 11.5245C17.7426 11.6638 17.7728 11.8115 17.8595 11.9255C17.9079 11.9886 17.9678 12.0417 18.036 12.0821C18.1099 12.1279 18.1988 12.163 18.3032 12.1874L19.197 12.3954L19.1013 12.8127L17.2224 12.3754ZM18.8569 11.0219C18.7842 11.0263 18.7115 11.0207 18.6394 11.0031L18.6387 11.0038L18.9576 9.61153C18.8208 9.56204 18.6829 9.53948 18.5424 9.54449C18.408 9.54755 18.2756 9.57736 18.1527 9.63221C18.0325 9.68768 17.9258 9.76894 17.8401 9.87031C17.7485 9.97966 17.6851 10.1101 17.6555 10.25C17.6238 10.3922 17.6207 10.5251 17.6487 10.6491C17.6747 10.7712 17.7257 10.8864 17.7984 10.9875C17.8731 11.0898 17.9663 11.177 18.0732 11.2444C18.3068 11.3869 18.579 11.4518 18.8513 11.4298C19.101 11.4133 19.3302 11.2845 19.4753 11.079C19.5499 10.9756 19.6046 10.849 19.6388 10.6999C19.6618 10.5971 19.6705 10.4956 19.6643 10.3954C19.6513 10.0912 19.4699 9.82021 19.195 9.69424L19.1049 10.0896C19.1917 10.1406 19.2603 10.218 19.3007 10.3108C19.3364 10.4116 19.3401 10.5211 19.3112 10.6241C19.2954 10.7025 19.2623 10.7764 19.2143 10.8402C19.1717 10.8947 19.1176 10.9388 19.0558 10.9693C18.9935 10.9997 18.926 11.0176 18.8569 11.0219ZM18.5263 14.0526C18.568 13.8895 18.5239 13.7162 18.4095 13.5934C18.3551 13.5336 18.2908 13.484 18.2193 13.4467C18.071 13.3681 17.9051 13.3292 17.7376 13.334C17.6573 13.3355 17.5778 13.3519 17.5033 13.3822C17.3478 13.4427 17.2336 13.579 17.2006 13.7437C17.1586 13.9063 17.2017 14.0792 17.315 14.2024C17.3666 14.2613 17.43 14.3095 17.5052 14.349C17.6536 14.4273 17.8194 14.4662 17.9869 14.4618C18.0674 14.4598 18.1469 14.4434 18.2218 14.4135C18.3779 14.3537 18.4928 14.2176 18.5263 14.0526ZM18.391 9.96365C18.4571 9.95453 18.5241 9.95516 18.5899 9.96553L18.3668 10.9405C18.2362 10.9058 18.1222 10.8251 18.0455 10.713C18.0107 10.6598 17.9877 10.6002 17.9752 10.5345C17.9525 10.3968 17.9861 10.2557 18.0685 10.1435C18.148 10.0427 18.2641 9.97797 18.391 9.96365Z" fill="white"/>
</svg>
