<svg width="24" height="24" viewBox="0 0 24 24" fill="none" xmlns="http://www.w3.org/2000/svg">
<circle cx="12" cy="12" r="12" fill="#EDF0F4"/>
<path d="M11.2558 4.90833L4.90839 11.2557C4.49733 11.6668 4.49733 12.3333 4.90839 12.7443L11.2558 19.0917C11.6669 19.5028 12.3333 19.5028 12.7444 19.0917L19.0918 12.7443C19.5029 12.3333 19.5028 11.6668 19.0918 11.2557L12.7444 4.90833C12.3333 4.49727 11.6669 4.49727 11.2558 4.90833Z" fill="#F0B80B"/>
<path fill-rule="evenodd" clip-rule="evenodd" d="M12.3789 8.78594C12.2579 8.77818 12.145 8.77093 12.0438 8.76257L12.0434 8.76259C11.1588 8.80704 10.4134 8.84449 9.70278 9.08936C9.35164 9.21182 9.00743 9.3678 8.73558 9.62439C8.31669 10.0206 8.10953 10.5283 8.07256 11.1062C8.05332 11.3956 8.10184 11.4439 8.3852 11.4252C8.39458 11.4246 8.40382 11.4232 8.41303 11.4219L8.41304 11.4219C8.42578 11.4201 8.43848 11.4182 8.45144 11.4182C8.5545 11.4044 8.65749 11.39 8.76049 11.3756L8.76055 11.3756C9.01927 11.3394 9.27803 11.3033 9.538 11.2771C9.60903 11.2749 9.67822 11.2534 9.73824 11.2148C9.79826 11.1763 9.84694 11.1221 9.87913 11.0579C10.0154 10.8161 10.439 10.781 10.5722 11.0197C10.667 11.1897 10.781 11.1884 10.9172 11.1869C10.9303 11.1867 10.9437 11.1866 10.9572 11.1866C11.1249 11.1894 11.2925 11.192 11.4602 11.1946L11.4605 11.1946H11.4605C12.1344 11.2053 12.8082 11.2159 13.4814 11.2365L13.5019 11.2371C13.675 11.2425 13.8254 11.2472 13.9766 11.1226C14.1337 10.9932 14.3377 11.0548 14.4609 11.2271C14.4987 11.2794 14.5531 11.3169 14.615 11.3332C14.9946 11.4057 15.3727 11.4713 15.7577 11.5336C15.8871 11.5555 15.9487 11.4853 15.9271 11.3566C15.884 11.0977 15.8386 10.8379 15.7847 10.5813C15.6884 10.1243 15.4135 9.78271 15.0562 9.51284C14.5533 9.13615 13.9666 8.96456 13.3621 8.87643C13.0208 8.82714 12.6756 8.80498 12.3789 8.78594ZM11.3468 9.2775C11.3066 9.30134 11.2639 9.32657 11.2229 9.35613C11.2016 9.32531 11.1787 9.29873 11.1584 9.2751C11.1221 9.23294 11.0939 9.20021 11.0974 9.16972C11.1128 9.01374 11.2445 9.01374 11.3608 9.01374C11.4385 9.0145 11.5725 9.02856 11.5309 9.12214C11.5029 9.18516 11.4299 9.22837 11.3468 9.2775ZM12.6405 8.95836L12.3933 9.11437C12.4843 9.17348 12.583 9.21916 12.6867 9.25007C12.7207 9.25545 12.7628 9.2129 12.8049 9.17038C12.8238 9.1513 12.8426 9.13222 12.8608 9.11749L12.6405 8.95836ZM10.1054 9.36078L9.79119 9.61583L9.78963 9.61192C9.76715 9.58054 9.74604 9.55489 9.72782 9.53276C9.69487 9.49274 9.67139 9.46422 9.66643 9.43409C9.65102 9.3522 9.82815 9.24456 9.96444 9.26096C9.99886 9.26471 10.0304 9.29392 10.062 9.32321C10.0763 9.33651 10.0907 9.34982 10.1054 9.36078ZM11.8075 9.53075C11.8352 9.52682 11.8581 9.52512 11.8771 9.52371C11.9108 9.5212 11.932 9.51963 11.9453 9.50814C12.0051 9.45286 12.0622 9.39456 12.1163 9.33344C12.0478 9.30518 11.9779 9.2807 11.9068 9.26013C11.8905 9.25684 11.8738 9.25687 11.8575 9.26021C11.8412 9.26355 11.8258 9.27017 11.8121 9.27964C11.7581 9.32562 11.7067 9.37455 11.6581 9.42626L11.8075 9.53075ZM14.1644 9.50661C14.0211 9.53467 13.9018 9.45121 13.8363 9.28199L13.8348 9.27808C13.8962 9.24179 13.9675 9.22637 14.0381 9.23411C14.1088 9.24182 14.1752 9.27227 14.2275 9.32096C14.256 9.34593 14.2899 9.40912 14.2783 9.4286C14.252 9.46885 14.2111 9.49689 14.1644 9.50661ZM13.0432 9.57061C13.0705 9.56646 13.0937 9.56466 13.1135 9.56313C13.1495 9.56035 13.1741 9.55845 13.191 9.54488L13.2003 9.53741C13.2531 9.49494 13.3256 9.4367 13.3219 9.38887C13.3135 9.28983 13.2249 9.26565 13.1317 9.29841C13.0938 9.30639 13.0575 9.32118 13.0247 9.34208C12.9859 9.38135 12.9509 9.42418 12.92 9.46999L13.0432 9.57061ZM10.7664 9.57424C10.7399 9.59568 10.7099 9.61991 10.6816 9.64857L10.4298 9.43331C10.447 9.4227 10.4644 9.40904 10.4819 9.39537C10.5209 9.36481 10.56 9.33416 10.5962 9.33739C10.6106 9.33868 10.6263 9.33928 10.6425 9.3399C10.7341 9.34342 10.8425 9.34758 10.8464 9.48013C10.8474 9.50873 10.812 9.53734 10.7664 9.57424Z" fill="#1E2125"/>
<path d="M11.7806 15.2376C11.1953 15.2056 10.6084 15.1944 10.0261 15.1364C9.30256 15.062 8.70061 14.7712 8.37962 14.0801C8.32921 13.9566 8.30232 13.8249 8.30029 13.6918C8.30029 13.6524 8.39245 13.5691 8.43927 13.5713C8.80709 13.5914 9.17339 13.6323 9.54121 13.6569C9.88789 13.6792 10.2346 13.6896 10.5812 13.7037C10.693 13.7082 10.7738 13.732 10.8131 13.8577C10.8509 13.9462 10.904 14.0275 10.9702 14.098C11.1084 14.2758 11.2648 14.2921 11.4453 14.156C11.511 14.1194 11.5719 14.0749 11.6265 14.0236C11.8335 13.7573 12.1084 13.7134 12.4317 13.7119C13.4196 13.7033 14.4055 13.6215 15.381 13.4672C15.4981 13.4493 15.6122 13.4136 15.7285 13.3928C15.8652 13.369 15.9263 13.4263 15.9309 13.5676C15.9482 14.0935 15.6288 14.5428 15.1507 14.7749C14.3803 15.1468 13.551 15.1729 12.7255 15.2257C12.412 15.2458 12.0963 15.2257 11.7814 15.2257L11.7806 15.2376Z" fill="#1E2125"/>
<path d="M16.1001 12.4625C15.8318 12.3584 15.5758 12.2753 15.3313 12.1602C15.1676 12.0819 15.0354 12.0451 14.8747 12.172C14.7972 12.2338 14.7024 12.2687 14.6041 12.2716C14.5057 12.2746 14.409 12.2454 14.3281 12.1884C14.2695 12.1476 14.2004 12.1253 14.1294 12.1243C14.0585 12.1233 13.9888 12.1437 13.9291 12.183C13.7966 12.254 13.6495 12.2922 13.4997 12.2944C13.35 12.2966 13.2018 12.2627 13.0674 12.1955C13.0059 12.1593 12.937 12.1383 12.8661 12.1341C12.7952 12.1299 12.7243 12.1426 12.6591 12.1712C12.5898 12.2085 12.5107 12.2228 12.433 12.2121C12.3553 12.2015 12.2828 12.1664 12.2256 12.1117C12.1837 12.0663 12.1277 12.0372 12.0671 12.0293C12.0065 12.0215 11.9451 12.0353 11.8935 12.0686C11.763 12.1312 11.6206 12.1637 11.4764 12.1637C11.3322 12.1637 11.1898 12.1312 11.0594 12.0686C10.9356 12.0169 10.8534 12.0028 10.7519 12.1414C10.6796 12.2417 10.5266 12.2981 10.3983 12.3365C10.2797 12.3773 10.1542 12.3929 10.0296 12.3824C9.90489 12.3719 9.78364 12.3355 9.6733 12.2754C9.60819 12.2386 9.53613 12.2163 9.46192 12.2099C9.38771 12.2036 9.31305 12.2133 9.2428 12.2386C9.01985 12.3012 8.79694 12.309 8.58475 12.1845C8.46558 12.1148 8.37026 12.1845 8.2634 12.244C8.12615 12.3212 7.97773 12.3757 7.82367 12.4054C7.77983 12.4044 7.73699 12.392 7.69928 12.3692C7.66158 12.3464 7.63027 12.3141 7.60843 12.2754C7.60289 12.2283 7.60899 12.1806 7.62617 12.1365C7.64338 12.0925 7.6711 12.0535 7.70683 12.0232C7.91439 11.9127 8.13425 11.7921 8.36103 11.7608C8.89916 11.6825 9.44883 11.6527 9.99465 11.6136C11.197 11.5141 12.4052 11.5122 13.6078 11.6081C14.2228 11.6637 14.8378 11.7169 15.4528 11.796C15.7003 11.8281 15.9394 11.9268 16.1824 11.995C16.32 12.0341 16.436 12.1195 16.3792 12.2667C16.3484 12.3498 16.2116 12.3889 16.1001 12.4625Z" fill="#1E2125"/>
<path d="M10.5177 13.3875C9.83837 13.349 9.16578 13.3119 8.48944 13.2698C8.35206 13.2619 8.2947 13.1599 8.30072 12.9843C8.306 12.853 8.38904 12.8159 8.50681 12.823C9.0201 12.8544 9.5334 12.8944 10.0475 12.9186C11.3103 12.97 12.5732 12.9857 13.8338 12.8608C14.4422 12.8002 15.0521 12.7531 15.6613 12.701C15.7753 12.691 15.9013 12.6689 15.9293 12.823C15.9489 12.9301 15.8387 13.0542 15.6945 13.0764C15.3702 13.1373 15.0426 13.1814 14.7132 13.2084C13.5107 13.2648 12.3075 13.3041 11.105 13.3469C10.9095 13.354 10.7148 13.3469 10.5193 13.3469L10.5177 13.3875Z" fill="#1E2125"/>
</svg>
