<svg width="24" height="24" viewBox="0 0 24 24" fill="none" xmlns="http://www.w3.org/2000/svg">
<circle cx="12" cy="12" r="12" fill="#2D2D2D"/>
<path fill-rule="evenodd" clip-rule="evenodd" d="M8.77944 14.472L3 12.5775H6.86621L7.24871 10.7453L10.6822 10.7475L11.5387 6H14.9931C17.3316 6 18.2796 6.94125 17.9294 8.88375L17.8544 9.3C17.6496 10.4318 17.1329 11.184 16.2449 11.6182C17.1246 12.0683 17.4201 12.9195 17.1989 14.1458L17.0279 15.0953C16.6859 16.9897 15.2924 18 13.0289 18H9.37269L10.3199 12.7552H9.17244L8.77944 14.472ZM12.5788 12.4118L11.8708 16.3343H13.3296C14.1951 16.3343 14.6758 15.9503 14.8393 15.0443L15.0231 14.0295C15.2315 12.8723 14.8311 12.4118 13.6963 12.4118H12.5788ZM12.818 11.088L13.436 7.66499H13.5748H14.6323C15.518 7.66499 15.8675 8.13074 15.6987 9.06599L15.581 9.71549C15.4077 10.6755 14.843 11.088 13.877 11.088H12.818Z" fill="white"/>
</svg>
