<svg width="24" height="24" viewBox="0 0 24 24" fill="none" xmlns="http://www.w3.org/2000/svg">
<path fill-rule="evenodd" clip-rule="evenodd" d="M12 24C5.4 24 0 18.6001 0 11.9402C0.06 5.34038 5.4 -0.0595036 12.06 0.000495204C18.66 0.060494 24 5.40038 24 12.1202C23.94 18.6601 18.6 24 12 24Z" fill="#EDF0F4"/>
<path fill-rule="evenodd" clip-rule="evenodd" d="M7.48548 7.1875C7.26746 6.05 8.13956 5 9.27329 5C10.2762 5 11.1047 5.83125 11.1047 6.8375V9.1125C11.3663 9.1125 11.628 9.06875 11.8896 9.06875C12.1512 9.06875 12.3692 9.06875 12.6309 9.1125V6.8375C12.6309 5.83125 13.4594 5 14.4623 5C15.596 5 16.4681 6.05 16.2937 7.1875L15.814 9.85625C17.5146 10.6 18.8228 11.9125 18.8228 13.5312V14.5375C18.8228 15.8938 17.9507 17.0312 16.6861 17.775C15.4216 18.5625 13.7646 19 11.8896 19C10.0146 19 8.35758 18.5625 7.09304 17.775C5.8721 17.0312 5 15.8938 5 14.5375V13.5312C5 11.9125 6.26455 10.6 7.96514 9.85625L7.48548 7.1875ZM15.1598 10.2063L15.7267 7.05625C15.8575 6.26875 15.2906 5.525 14.4621 5.525C13.7644 5.525 13.1976 6.09375 13.1976 6.79375V9.68125C13.0232 9.6375 12.8051 9.6375 12.6307 9.6375C12.3691 9.6375 12.1511 9.59375 11.8894 9.59375C11.6278 9.59375 11.3662 9.59375 11.1045 9.6375C10.9301 9.6375 10.7121 9.68125 10.5377 9.68125V6.8375C10.5377 6.1375 9.97081 5.56875 9.27313 5.56875C8.48824 5.56875 7.87777 6.3125 8.05219 7.1L8.61906 10.25C6.78765 10.95 5.56671 12.175 5.56671 13.575V14.5813C5.56671 16.725 8.40103 18.475 11.8894 18.475C15.3778 18.475 18.2122 16.725 18.2122 14.5813V13.575C18.2558 12.1313 17.0348 10.9063 15.1598 10.2063Z" fill="#633001"/>
<path d="M18.2474 14.5253C18.2474 16.6962 15.3973 18.4684 11.8896 18.4684C8.3818 18.4684 5.53174 16.6962 5.53174 14.5253V13.5063H18.2912V14.5253H18.2474Z" fill="#FEDC90"/>
<path fill-rule="evenodd" clip-rule="evenodd" d="M7.99564 7.05948C7.81965 6.27374 8.43562 5.53165 9.22759 5.53165C9.93156 5.53165 10.5035 6.09913 10.5035 6.79756V9.67861C10.9435 9.63496 11.3835 9.59131 11.8675 9.59131C12.3075 9.59131 12.7475 9.63496 13.1874 9.67861V6.79756C13.1874 6.09913 13.7594 5.53165 14.4634 5.53165C15.2554 5.53165 15.8713 6.27374 15.7393 7.05948L15.1674 10.2024C17.0153 10.9009 18.2912 12.1231 18.2912 13.52C18.2912 15.659 15.4313 17.4051 11.9115 17.4051C8.39163 17.4051 5.53174 15.659 5.53174 13.52C5.53174 12.1231 6.76369 10.9009 8.61162 10.2024L7.99564 7.05948Z" fill="#D1884F"/>
<path d="M10.1394 13.3291C10.1394 13.9051 9.82927 14.3924 9.43054 14.3924C9.03181 14.3924 8.72168 13.9051 8.72168 13.3291C8.72168 12.7532 9.03181 12.2658 9.43054 12.2658C9.82927 12.2658 10.1394 12.7532 10.1394 13.3291Z" fill="#633001"/>
<path d="M15.1013 13.3291C15.1013 13.9051 14.7912 14.3924 14.3925 14.3924C13.9937 14.3924 13.6836 13.9051 13.6836 13.3291C13.6836 12.7532 13.9937 12.2658 14.3925 12.2658C14.7912 12.2658 15.1013 12.7532 15.1013 13.3291Z" fill="#633001"/>
</svg>
