<svg width="24" height="24" viewBox="0 0 24 24" fill="none" xmlns="http://www.w3.org/2000/svg">
<path d="M12 24C18.6276 24 24 18.6276 24 12C24 5.3724 18.6276 0 12 0C5.3724 0 0 5.3724 0 12C0 18.6276 5.3724 24 12 24Z" fill="#EDF0F4"/>
<path fill-rule="evenodd" clip-rule="evenodd" d="M13.5253 5.63017C12.7874 5.37983 12.01 5.21513 11.2063 5.20195C10.3564 5.18219 9.56586 5.31395 8.83459 5.58406C8.07696 5.86076 7.18757 6.41416 6.49582 7.20473C5.64595 8.17318 5.03985 9.44468 5.00691 10.591C4.97397 11.7571 5.02667 12.8178 5.8963 14.5702C6.46946 15.7363 7.52356 16.6784 8.24166 17.212C9.11129 17.8577 10.8308 18.8195 12.6161 18.8195C14.8363 18.8195 16.0288 18.3584 17.5243 16.9814C18.6442 15.9537 18.9605 14.6888 19 12.719C19 12.6827 18.9967 12.6498 18.9934 12.6168C18.9901 12.5839 18.9868 12.551 18.9868 12.5147C18.9407 11.7505 18.7497 10.9731 18.4268 10.2089C18.1172 9.45785 17.689 8.78587 17.208 8.19953C16.7205 7.61319 16.1474 7.08614 15.5478 6.65792C14.922 6.22969 14.2434 5.88052 13.5253 5.63017ZM13.6106 5.81468C14.2826 6.05185 14.9283 6.38784 15.5146 6.78313C16.1009 7.19818 16.628 7.69228 17.0826 8.22592C17.5569 8.79249 17.9324 9.42495 18.2289 10.1299C18.5385 10.8677 18.6966 11.599 18.7428 12.3171C18.7889 13.0682 18.6835 13.7994 18.4661 14.4912C18.2157 15.2291 17.8336 15.901 17.2934 16.4742C16.7202 17.0803 15.9889 17.5744 15.1061 17.8709C14.1706 18.1937 13.1692 18.2793 12.1744 18.1344C11.1467 17.9895 10.1519 17.6074 9.24274 17.0342C8.3204 16.4478 7.52983 15.6836 6.91055 14.7745C6.30445 13.8983 5.90917 12.8969 5.76423 11.8428C5.61929 10.8282 5.73129 9.8927 6.02775 9.05602C6.30445 8.26545 6.74585 7.58029 7.31902 7.0203C7.84606 6.48666 8.49169 6.0782 9.2098 5.81468C9.88178 5.56433 10.6328 5.43257 11.4102 5.44575C12.1744 5.44575 12.9189 5.57751 13.6106 5.81468Z" fill="#338FFF"/>
<path fill-rule="evenodd" clip-rule="evenodd" d="M11.9242 5.7553C11.7793 5.74213 11.6278 5.74213 11.4696 5.74213C11.3247 5.74213 11.1666 5.7553 11.0151 5.77507C11.0826 6.00295 11.1474 6.23353 11.213 6.46682L11.213 6.46706L11.2132 6.46773C11.2499 6.59834 11.2869 6.7298 11.3247 6.8621C11.4828 6.82916 11.6343 6.81598 11.7925 6.81598C11.9506 6.81598 12.1021 6.81598 12.2602 6.82916C12.2104 6.67418 12.1641 6.52152 12.1183 6.3707L12.1183 6.37069C12.0551 6.16249 11.993 5.95779 11.9242 5.7553ZM15.7852 7.41547C15.021 6.74349 14.0986 6.24279 13.117 5.96609C13.2191 6.29629 13.343 6.64289 13.4639 6.98098L13.4639 6.98101L13.4639 6.98105L13.4991 7.07948C13.9273 7.23101 14.3226 7.43524 14.7047 7.69876C15.2318 8.04793 15.6995 8.52227 16.0685 9.06249C15.8783 9.0867 15.6863 9.10545 15.4916 9.12448L15.4916 9.12449L15.4915 9.12449L15.4915 9.12449C15.3152 9.14172 15.1366 9.15917 14.9551 9.18108C14.7311 8.91755 14.4807 8.70015 14.204 8.50909C13.6045 8.08087 12.8667 7.8437 12.1354 7.88981C11.358 7.94911 10.7124 8.2851 10.3039 8.81215C9.86249 9.37213 9.67144 10.1495 9.87567 10.9862C10.0667 11.869 10.6333 12.6201 11.3843 13.101C12.1222 13.5885 12.9984 13.7927 13.8219 13.6149C14.6125 13.437 15.1857 12.9429 15.4953 12.3104C15.6271 12.0205 15.6995 11.7109 15.7127 11.3881C15.9445 11.3533 16.1718 11.314 16.3946 11.2755L16.3947 11.2755C16.5518 11.2483 16.7065 11.2215 16.859 11.197C16.9315 11.8558 16.8459 12.4883 16.6087 13.0615C16.4308 13.4831 16.1805 13.8652 15.8576 14.1748C16.0355 14.7151 16.2068 15.2421 16.3847 15.8021C17.2346 15.084 17.7616 14.1156 17.9527 13.0615C18.1305 12.0798 18.012 10.9928 17.6035 9.96506C17.195 8.94391 16.5626 8.10722 15.7852 7.41547ZM15.2383 16.5268C15.0604 16.5993 14.9023 16.6586 14.7244 16.7179C14.5466 16.7772 14.3555 16.8233 14.1842 16.8628L14.1278 16.6582C13.9898 16.1575 13.8557 15.6709 13.7165 15.1895C13.9075 15.1763 14.0854 15.1433 14.2567 15.084C14.3799 15.0521 14.4936 15.0139 14.6065 14.9759C14.6567 14.959 14.7067 14.9421 14.7574 14.9259C14.8445 15.1979 14.9262 15.4773 15.0091 15.761L15.0091 15.7611L15.0091 15.7611C15.0829 16.0135 15.1577 16.2694 15.2383 16.5268ZM8.7293 15.2158C9.84269 16.2172 11.2196 16.8299 12.6426 16.9485C12.5529 16.5896 12.4674 16.237 12.3838 15.8921C12.32 15.6291 12.2573 15.3706 12.1946 15.117C11.6215 14.9852 11.0812 14.7481 10.5806 14.4252C9.4474 13.6874 8.59754 12.5279 8.33402 11.2103C8.08367 9.95193 8.41966 8.81878 9.11141 8.02821C9.40129 7.69222 9.75704 7.4287 10.1523 7.22446C10.0469 6.79624 9.9481 6.40095 9.82951 5.99249C8.80836 6.32849 7.92556 6.98729 7.33922 7.8701C6.70676 8.83855 6.39712 10.0376 6.63429 11.4474C6.8517 12.8705 7.62909 14.221 8.7293 15.2158Z" fill="#338FFF"/>
</svg>
