<svg width="24" height="24" viewBox="0 0 24 24" fill="none" xmlns="http://www.w3.org/2000/svg">
<circle cx="12" cy="12" r="12" fill="#0648B3"/>
<path fill-rule="evenodd" clip-rule="evenodd" d="M14.8483 2.47965C14.0199 2.21949 13.1448 2.06507 12.2389 2.03079L12.1781 2.41165C13.0601 2.44111 13.9387 2.59114 14.7871 2.86255L14.8483 2.47965ZM7.02039 3.27204C6.93714 3.20907 6.83349 3.1717 6.72105 3.1717H6.72102C6.44683 3.1717 6.22458 3.39396 6.22458 3.66818C6.22458 3.69906 6.22741 3.72929 6.23281 3.75862C3.60485 5.55503 1.87988 8.57515 1.87988 11.9988C1.87988 15.7434 3.94352 19.0056 6.99516 20.7117L7.05948 20.3088C6.34924 19.8983 5.68001 19.3898 5.07242 18.7822C1.32621 15.036 1.32621 8.96146 5.07242 5.21525C5.50044 4.7872 5.95894 4.40816 6.44083 4.07799C6.5206 4.13262 6.61705 4.16462 6.72102 4.16462C6.99527 4.16462 7.21755 3.94234 7.21755 3.66815C7.21755 3.64547 7.21602 3.62318 7.21305 3.60132C8.12181 3.09849 9.09488 2.75426 10.0917 2.56885L10.1558 2.16763C9.03569 2.36001 7.97964 2.73944 7.02039 3.27204ZM5.25033 17.3933C5.52452 17.3933 5.74677 17.6155 5.74677 17.8897C5.74677 17.9618 5.7314 18.0303 5.70376 18.0921L5.71725 18.106L5.71733 18.106L5.71737 18.1061C5.72249 18.1114 5.72762 18.1167 5.73288 18.1219C6.19275 18.5818 6.69166 18.9785 7.2186 19.3133L7.15317 19.7231C6.52202 19.338 5.94196 18.8775 5.42502 18.3546C5.37071 18.375 5.31184 18.3862 5.25035 18.3862C4.97611 18.3862 4.75385 18.1639 4.75385 17.8897C4.75385 17.8083 4.77346 17.7315 4.80816 17.6637C3.56053 16.1137 2.81385 14.1435 2.81385 11.9988C2.81385 7.64125 5.89616 4.00407 9.99941 3.14767L9.9344 3.55465C8.39463 3.90338 6.93165 4.6768 5.73288 5.87554C2.57743 9.03097 2.36689 14.0162 5.10033 17.4163C5.14765 17.4014 5.19802 17.3933 5.25033 17.3933V17.3933ZM16.4766 19.3243C16.394 19.2628 16.2915 19.2264 16.1805 19.2264H16.1805C15.9064 19.2264 15.6841 19.4487 15.6841 19.7229C15.6841 19.7378 15.6848 19.7526 15.6861 19.7672C15.0942 20.059 14.476 20.2791 13.8443 20.4274L13.7791 20.8352C14.511 20.6767 15.2097 20.4292 15.8637 20.1051C15.9497 20.1764 16.0601 20.2193 16.1805 20.2193C16.4548 20.2193 16.677 19.9971 16.677 19.7229C16.677 19.6987 16.6752 19.675 16.6719 19.6517C19.2109 18.0509 20.898 15.2222 20.898 11.9988C20.898 10.3554 20.4594 8.8148 19.6932 7.48694C19.7526 7.4051 19.7877 7.30444 19.7877 7.19552C19.7877 6.92131 19.5654 6.69905 19.2912 6.69905C19.2565 6.69905 19.2226 6.70262 19.1899 6.7094C18.4982 5.75199 17.6235 4.93546 16.6172 4.31093L16.5516 4.72172C17.0571 5.04843 17.5362 5.43278 17.979 5.87558C18.3101 6.20667 18.6084 6.55807 18.8745 6.92557C18.824 7.00328 18.7947 7.096 18.7947 7.19555C18.7947 7.46974 19.017 7.69202 19.2912 7.69202C19.3169 7.69202 19.3421 7.69006 19.3668 7.68631C21.2694 10.9956 20.8072 15.2938 17.979 18.1219C17.5143 18.5867 17.0098 18.9874 16.4766 19.3243ZM13.5051 16.0599C13.4845 16.3152 13.2709 16.5159 13.0103 16.5159C12.8469 16.5159 12.702 16.437 12.6116 16.3153C10.1283 16.7353 7.48247 14.9071 7.48247 11.9988C7.48247 9.5835 9.44063 7.62531 11.8559 7.62531C15.7395 7.62531 17.6969 12.3429 14.9484 15.0912C14.5086 15.531 14.0183 15.8497 13.5051 16.06L13.5051 16.0599ZM13.3857 15.6945C13.2947 15.5894 13.1603 15.523 13.0103 15.523L13.0103 15.5229C12.7627 15.5229 12.5574 15.7043 12.52 15.9413C10.2617 16.3077 7.86536 14.6431 7.86536 11.9988C7.86536 8.45443 12.1704 6.66953 14.6778 9.17692C16.2362 10.7352 16.2362 13.2623 14.6778 14.8206C14.2836 15.2147 13.845 15.5027 13.3857 15.6945ZM12.9676 13.1104C13.9559 12.1222 13.2518 10.4266 11.856 10.4266C10.9878 10.4266 10.2838 11.1306 10.2838 11.9988C10.2838 13.3945 11.9794 14.0987 12.9676 13.1104ZM5.90794 7.84109C5.94005 7.84109 5.97144 7.84416 6.00185 7.84998C6.89337 6.59446 8.17862 5.63807 9.67768 5.16099L9.60958 5.58735C8.67594 5.91361 7.7993 6.44992 7.05314 7.19605C6.78088 7.4683 6.53705 7.75814 6.3207 8.06158C6.37358 8.14048 6.40444 8.23542 6.40444 8.33757C6.40444 8.61173 6.18218 8.83402 5.90797 8.83402C5.88711 8.83402 5.86654 8.83272 5.84632 8.8302C4.49316 11.3948 4.8954 14.6436 7.05314 16.8014C7.21232 16.9605 7.37759 17.1099 7.54792 17.25L7.47871 17.6834C5.7774 16.3715 4.68109 14.3133 4.68109 11.9988C4.68109 10.7852 4.98257 9.64221 5.51446 8.64026C5.4499 8.55649 5.41152 8.45154 5.41152 8.33759C5.41152 8.06335 5.63378 7.84106 5.90797 7.84106L5.90794 7.84109ZM4.47422 14.2817C4.73247 14.2993 4.93645 14.5143 4.93645 14.777C4.93645 14.9143 4.88074 15.0385 4.79072 15.1284C5.16528 15.9749 5.69918 16.768 6.39295 17.4617C6.70359 17.7723 7.03445 18.0505 7.38074 18.2972L7.31377 18.7165C6.059 17.8664 5.05519 16.674 4.43609 15.2734C4.16367 15.2713 3.94356 15.0499 3.94356 14.777C3.94356 14.6292 4.00817 14.4965 4.11071 14.4055C3.87461 13.6451 3.7474 12.8368 3.7474 11.9988C3.7474 8.21634 6.33726 5.039 9.84035 4.14287L9.77405 4.55795C8.53579 4.90308 7.36666 5.56213 6.39295 6.53583C4.29689 8.63186 3.65767 11.633 4.47422 14.2817ZM21.7763 10.9412C21.9756 11.0057 22.1197 11.1928 22.1197 11.4135C22.1197 11.6137 22.0013 11.7861 21.8307 11.8647L21.8307 11.8651C21.8313 11.9096 21.8319 11.9541 21.8319 11.9988C21.8319 16.9056 18.2893 20.985 13.6222 21.8189L13.6864 21.4166C15.5011 21.0657 17.2341 20.1875 18.6394 18.7823C20.5432 16.8785 21.4788 14.3733 21.4476 11.878C21.2601 11.8071 21.1268 11.6259 21.1268 11.4135C21.1268 11.2222 21.235 11.0561 21.3937 10.9732C21.169 8.87019 20.2512 6.82717 18.6393 5.21527C18.0485 4.62443 17.3996 4.12701 16.7112 3.72256L16.7757 3.31883C19.505 4.86909 21.4314 7.66927 21.7763 10.9411L21.7763 10.9412ZM17.2006 13.636C17.2006 13.4795 17.1281 13.34 17.015 13.249H17.015C17.1118 12.848 17.1632 12.4294 17.1632 11.9988C17.1632 11.5371 17.1041 11.0893 16.9934 10.6623L16.6669 10.945C16.8246 11.6689 16.8177 12.4216 16.646 13.143C16.3992 13.1718 16.2076 13.3815 16.2076 13.636C16.2076 13.7763 16.2658 13.903 16.3593 13.9932C16.2444 14.2529 16.106 14.5046 15.944 14.7452L16.1754 15.0827C16.3869 14.7871 16.5687 14.4689 16.7166 14.1324C16.9851 14.1257 17.2006 13.9061 17.2006 13.636ZM10.4209 9.68622C10.5254 9.68622 10.6224 9.71854 10.7024 9.7737C11.0477 9.59429 11.44 9.49276 11.856 9.49276C14.0811 9.49276 15.203 12.1957 13.628 13.7707C12.053 15.3457 9.35005 14.2238 9.35005 11.9988C9.35005 11.3734 9.57919 10.8015 9.95803 10.3625C9.93636 10.3068 9.92442 10.2461 9.92442 10.1827C9.92442 9.90848 10.1467 9.68625 10.4209 9.68625V9.68622ZM10.9174 10.1827C10.9174 10.1551 10.9151 10.128 10.9108 10.1016L10.9108 10.1017C11.6722 9.72477 12.6495 9.78959 13.3574 10.4974C14.1864 11.3265 14.1864 12.671 13.3574 13.5001C12.0235 14.8339 9.73293 13.8847 9.73293 11.9988C9.73293 11.4572 9.92197 10.9932 10.2228 10.638C10.2835 10.6645 10.3505 10.6792 10.4209 10.6792C10.6951 10.6792 10.9174 10.4569 10.9174 10.1827ZM11.8559 8.55903C13.167 8.55903 14.1986 9.2429 14.7785 10.1943C14.7951 10.1926 14.8119 10.1917 14.829 10.1917C15.1032 10.1917 15.3255 10.414 15.3255 10.6882C15.3255 10.8357 15.2611 10.9681 15.159 11.0591C15.4827 12.1779 15.2586 13.4605 14.2881 14.431C12.1265 16.5925 8.41618 15.0532 8.41618 11.9988C8.41618 10.099 9.95619 8.55903 11.8559 8.55903ZM18.0969 11.9988C18.0969 11.2968 17.981 10.6219 17.7673 9.99218L17.4524 10.2649C18.0011 12.0416 17.6856 14.0279 16.5053 15.5634L16.7319 15.8938C17.5859 14.8262 18.0969 13.4722 18.0969 11.9988ZM11.8558 4.82399C12.7517 4.82399 13.609 4.98863 14.3998 5.2886L14.338 5.67531C13.5028 5.34802 12.6159 5.19231 11.7315 5.20837L11.7927 4.82487L11.818 4.82448H11.818H11.818H11.818C11.8306 4.82425 11.8432 4.82402 11.8558 4.82402L11.8558 4.82399ZM14.5499 4.34912C13.7327 4.06135 12.8555 3.90087 11.942 3.89134H11.942L11.881 4.27342C12.7645 4.27633 13.6475 4.42998 14.4884 4.73403L14.5499 4.34912ZM12.0907 2.95947C13 2.98271 13.8757 3.14057 14.6993 3.4132L14.6379 3.79703C13.7928 3.51111 12.9124 3.3591 12.0297 3.34142L12.0907 2.95947ZM14.8025 11.184C14.5405 11.1703 14.3324 10.9536 14.3324 10.6882C14.3324 10.5686 14.3748 10.4588 14.4453 10.373C14.3256 10.1827 14.183 10.0028 14.0174 9.83714C12.0969 7.9167 8.79898 9.28344 8.79898 11.9988C8.79898 14.7141 12.0969 16.0808 14.0174 14.1604C14.8235 13.3543 15.0851 12.2099 14.8025 11.184ZM8.92491 21.5368C9.7546 21.7917 10.6306 21.9406 11.5369 21.9691H11.5369L11.5978 21.5881C10.7155 21.5645 9.83601 21.4196 8.98605 21.1539L8.92491 21.5368ZM11.6855 21.0389C10.7758 21.022 9.89885 20.8708 9.07387 20.6042L9.13507 20.221C9.98204 20.5006 10.8635 20.6457 11.7465 20.6568L11.6855 21.0389ZM19.9644 11.9988C19.9644 9.22887 18.5754 6.78377 16.4561 5.32118L16.3889 5.74169C16.7143 5.97792 17.0255 6.24245 17.3189 6.53581C20.3358 9.55275 20.3358 14.4448 17.3189 17.4617C16.3629 18.4177 15.2185 19.0704 14.0053 19.4204L13.9388 19.8367C17.4076 18.9173 19.9644 15.7568 19.9644 11.9988ZM11.8341 20.107C10.9202 20.1046 10.0419 19.951 9.22286 19.6698L9.28421 19.2857C10.1273 19.5825 11.0116 19.7284 11.8953 19.724L11.8341 20.107L11.8341 20.107ZM19.0307 11.9988C19.0307 9.7102 17.9592 7.67181 16.2904 6.3582V6.35822L16.2207 6.79504C16.3709 6.92129 16.5172 7.05475 16.6586 7.19612C19.3109 9.8484 19.3109 14.1492 16.6586 16.8014C15.9307 17.5293 15.0785 18.057 14.1706 18.3853L14.1021 18.8144C16.9643 17.8717 19.0307 15.1767 19.0307 11.9988ZM11.9836 19.1719L11.9696 19.1721H11.9695C11.9318 19.1728 11.894 19.1735 11.856 19.1735C10.9831 19.1735 10.1466 19.0176 9.37289 18.732L9.43451 18.3459C10.2724 18.6651 11.1606 18.8122 12.045 18.7878L11.9836 19.1719H11.9836ZM10.6667 11.9988C10.6667 10.9422 11.9499 10.4106 12.697 11.1578V11.1577C13.1615 11.6222 13.1615 12.3754 12.697 12.8398C11.9499 13.587 10.6667 13.0554 10.6667 11.9988Z" fill="white"/>
</svg>
