<svg width="24" height="24" viewBox="0 0 24 24" fill="none" xmlns="http://www.w3.org/2000/svg">
<circle cx="12" cy="12" r="12" fill="#EDF0F2"/>
<ellipse cx="11.9963" cy="12.0024" rx="7.99479" ry="7.99479" fill="#C8D2D9"/>
<path d="M17.0722 18.1719C15.8533 19.1782 14.3593 19.7971 12.7841 19.9471C10.6776 20.1534 8.57108 19.5158 6.92712 18.1719C5.28941 16.8279 4.25177 14.8902 4.03924 12.7774C3.88297 11.2022 4.19551 9.62075 4.93936 8.22682C5.68321 6.83289 6.82711 5.68899 8.22104 4.94515C9.61497 4.2013 11.1964 3.88251 12.7716 4.03878C14.3468 4.19505 15.8345 4.80763 17.0597 5.81401L15.447 7.78302C14.6156 7.10168 13.5967 6.67662 12.5216 6.57661C11.4465 6.47035 10.3713 6.68912 9.42119 7.19544C8.47107 7.70176 7.69597 8.48311 7.1834 9.43323C6.67709 10.3834 6.46456 11.4647 6.57082 12.5336C6.71459 13.9713 7.42093 15.2965 8.53983 16.2091C9.65872 17.128 11.0964 17.5593 12.5341 17.4155C13.6092 17.3093 14.6219 16.8842 15.4532 16.2029L17.0722 18.1719Z" fill="url(#paint0_linear_300_15326)"/>
<path d="M12.0214 18.547C15.6281 18.547 18.5472 15.6216 18.5472 12.0211C18.5472 8.41439 15.6281 5.48901 12.0214 5.48901C8.41464 5.48901 5.48926 8.41439 5.48926 12.0211C5.48926 15.6278 8.41464 18.547 12.0214 18.547Z" fill="white"/>
<path fill-rule="evenodd" clip-rule="evenodd" d="M14.2596 11.1772H14.866V11.7398H14.3909C14.3972 11.8273 14.4034 11.9148 14.4034 12.0085V12.021C14.4034 12.1211 14.3972 12.2211 14.3847 12.3211H14.866V12.8774H14.2471C13.9033 13.79 13.0157 14.4151 11.8531 14.4151H9.91532V12.8774H9.24023V12.3211H9.91532V11.7335H9.24023V11.1772H9.91532V9.62073H11.8531C13.0345 9.62073 13.9283 10.2521 14.2596 11.1772ZM11.8534 10.1208H10.4594V11.1772H13.6599C13.3598 10.5458 12.716 10.1208 11.8534 10.1208ZM11.8534 13.915H10.4594V12.8774H13.6599C13.3598 13.5025 12.716 13.915 11.8534 13.915ZM13.8224 12.321C13.8349 12.2273 13.8411 12.1335 13.8411 12.0335V12.0148C13.8411 11.921 13.8349 11.8272 13.8224 11.7335H10.4594V12.321H13.8224Z" fill="url(#paint1_linear_300_15326)"/>
<defs>
<linearGradient id="paint0_linear_300_15326" x1="4.06435" y1="6.41783" x2="7.72779" y2="20.0008" gradientUnits="userSpaceOnUse">
<stop stop-color="#27D3A2"/>
<stop offset="1" stop-color="#9388FD"/>
</linearGradient>
<linearGradient id="paint1_linear_300_15326" x1="8.54665" y1="8.94489" x2="8.54665" y2="14.9214" gradientUnits="userSpaceOnUse">
<stop stop-color="#283947"/>
<stop offset="1" stop-color="#657786"/>
</linearGradient>
</defs>
</svg>
