<svg width="24" height="24" viewBox="0 0 24 24" fill="none" xmlns="http://www.w3.org/2000/svg">
<circle cx="12" cy="12" r="12" fill="white"/>
<circle cx="17.9999" cy="9.372" r="0.6" fill="url(#paint0_linear_300_8676)"/>
<path fill-rule="evenodd" clip-rule="evenodd" d="M12 0C5.376 0 0 5.376 0 12C0 18.624 5.376 24 12 24C18.624 24 24 18.624 24 12C24 5.376 18.624 0 12 0ZM17.4479 17.016C16.0319 18.576 14.0159 19.476 11.9279 19.476H11.9159C9.79193 19.476 7.76393 18.564 6.34793 16.98C4.90793 15.372 4.24793 13.308 4.47593 11.16C4.84793 7.728 7.60793 4.956 11.0399 4.56C11.3279 4.524 11.6279 4.512 11.9159 4.512C13.5719 4.512 15.1559 5.052 16.4759 6.072C16.5599 6.132 16.6079 6.228 16.6079 6.336C16.6079 6.444 16.5719 6.54 16.4879 6.612L15.6959 7.32C15.6119 7.392 15.5039 7.44 15.3839 7.44C15.2879 7.44 15.1919 7.416 15.1199 7.356C14.1719 6.696 13.0559 6.348 11.9159 6.348C10.3079 6.348 8.77193 7.044 7.70393 8.244C6.62393 9.456 6.11993 11.028 6.31193 12.648C6.59993 15.228 8.68793 17.316 11.2799 17.604C11.4959 17.628 11.7119 17.64 11.9279 17.64C13.4399 17.64 14.8559 17.04 15.9359 15.96C16.0199 15.876 16.1399 15.816 16.2719 15.816C16.3559 15.816 16.4519 15.84 16.5239 15.888L17.3999 16.464C17.4839 16.524 17.5439 16.608 17.5559 16.716C17.5559 16.836 17.5199 16.944 17.4479 17.016ZM16.188 9.372C16.188 10.368 17.004 11.184 18 11.184C18.996 11.184 19.8119 10.368 19.8119 9.372C19.8119 8.376 18.996 7.56 18 7.56C17.004 7.56 16.188 8.376 16.188 9.372Z" fill="url(#paint1_linear_300_8676)"/>
<defs>
<linearGradient id="paint0_linear_300_8676" x1="-9.72301e-05" y1="24" x2="23.9999" y2="24" gradientUnits="userSpaceOnUse">
<stop offset="0.05" stop-color="#F76C1D"/>
<stop offset="0.95" stop-color="#F7CC69"/>
</linearGradient>
<linearGradient id="paint1_linear_300_8676" x1="-5.36e-10" y1="24" x2="24" y2="24" gradientUnits="userSpaceOnUse">
<stop offset="0.05" stop-color="#F76C1D"/>
<stop offset="0.95" stop-color="#F7CC69"/>
</linearGradient>
</defs>
</svg>
