<svg width="24" height="24" viewBox="0 0 24 24" fill="none" xmlns="http://www.w3.org/2000/svg">
<circle cx="12" cy="12" r="12" fill="#E7EFF3"/>
<path fill-rule="evenodd" clip-rule="evenodd" d="M5 13.4737C5 16.5257 7.47432 19 10.5263 19C13.5783 19 16.0526 16.5257 16.0526 13.4737C16.0526 10.4217 13.5783 7.94739 10.5263 7.94739C7.47432 7.94739 5 10.4217 5 13.4737ZM14.5791 13.4737C14.5791 15.7122 12.765 17.5263 10.5265 17.5263C8.28799 17.5263 6.47389 15.7122 6.47389 13.4737C6.47389 11.2352 8.28799 9.42107 10.5265 9.42107C12.765 9.42107 14.5791 11.2352 14.5791 13.4737Z" fill="#FBCC5C"/>
<path fill-rule="evenodd" clip-rule="evenodd" d="M7.94727 10.5263C7.94727 13.5783 10.4216 16.0526 13.4736 16.0526C16.5256 16.0526 18.9999 13.5783 18.9999 10.5263C18.9999 7.47432 16.5256 5 13.4736 5C10.4216 5 7.94727 7.47432 7.94727 10.5263ZM17.5264 10.5263C17.5264 12.7648 15.7123 14.5789 13.4738 14.5789C11.2353 14.5789 9.42115 12.7648 9.42115 10.5263C9.42115 8.28779 11.2353 6.47368 13.4738 6.47368C15.7123 6.47368 17.5264 8.28779 17.5264 10.5263Z" fill="#35D07F"/>
<path fill-rule="evenodd" clip-rule="evenodd" d="M7.94727 10.3436C8.41295 9.96044 8.95674 9.68634 9.54032 9.54044C9.68621 8.95539 9.96032 8.4116 10.3435 7.94739C9.66853 7.96949 9.00095 8.11539 8.37758 8.3777C8.11379 9.00107 7.9679 9.66718 7.94727 10.3436ZM14.4592 14.4596C14.3133 15.0446 14.0392 15.5884 13.6561 16.0526C14.3325 16.032 14.9986 15.8861 15.622 15.6238C15.8858 14.999 16.0317 14.3328 16.0523 13.6564C15.5866 14.0396 15.0428 14.3137 14.4592 14.4596Z" fill="#5EA33B"/>
</svg>
