<svg width="24" height="24" viewBox="0 0 24 24" fill="none" xmlns="http://www.w3.org/2000/svg">
<circle cx="12" cy="12" r="12" fill="#0886FB"/>
<path fill-rule="evenodd" clip-rule="evenodd" d="M16.8835 12.2997C16.8924 12.2138 16.8744 12.1273 16.8319 12.0521C16.7133 11.8409 16.4194 11.7532 16.2235 11.8459C16.1802 11.8672 16.1417 11.897 16.1102 11.9335L14.0892 13.7225V15.7864C14.0892 15.7864 12.099 15.4821 11.6558 15.3635C11.0886 15.2139 10.6855 15.1056 10.3153 14.7604C10.1863 14.6418 9.82043 14.3016 9.79978 13.8214V13.6255L9.78945 8.3511L12.4035 8.74734C12.6097 8.78333 13.1356 8.90195 13.5481 9.27941C13.6811 9.40441 13.7969 9.54662 13.8924 9.70225C14.0523 9.95483 14.078 10.0991 14.083 10.1921V11.8509C14.092 11.9514 14.1315 12.0467 14.1963 12.1241C14.2624 12.2083 14.3585 12.2637 14.4645 12.2787C14.5675 12.2891 14.6501 12.2474 14.7327 12.2118C14.7823 12.1879 14.829 12.1585 14.872 12.1241L16.9292 10.3971V8.61901C16.9086 8.09821 16.6404 7.722 16.4651 7.47443C16.3671 7.34047 15.862 6.66505 14.944 6.3505C14.8614 6.32484 14.7944 6.30418 14.7481 6.28791L12.4908 5.87571C12.3176 5.84014 12.1419 5.81775 11.9653 5.80873C11.8623 5.80372 11.4395 5.77743 11.0373 5.85004C10.2843 5.98994 9.27365 6.53047 9.12936 7.32952C9.1206 7.38063 9.11547 7.4323 9.11403 7.48413H8.87178C8.63895 7.56864 8.41729 7.68121 8.21169 7.81934C8.00544 7.95862 7.59292 8.24218 7.29903 8.78959C7.10769 9.15595 7.0053 9.56221 7.00013 9.97549V14.9757C6.99926 15.0618 7.00271 15.1479 7.01046 15.2336C7.01046 15.2336 7.04176 15.6565 7.15474 16.0161C7.28369 16.4129 7.68056 17.068 8.38196 17.4855C8.58821 17.6107 9.05206 17.7175 9.98037 17.9341C10.5487 18.0705 11.1256 18.1686 11.7071 18.2276C12.0733 18.2636 12.2486 18.2636 12.4032 18.2533C12.7021 18.238 13.1096 18.212 13.5631 17.9954C14.3415 17.6198 14.6974 16.9435 14.7837 16.7682C14.8094 16.7165 14.8301 16.6702 14.8463 16.6392H14.9493C15.4612 16.4821 15.9174 16.1815 16.2638 15.7732C16.3978 15.6186 16.8516 15.0618 16.8979 14.2624C16.9031 14.1714 16.9031 14.0802 16.8979 13.9892C16.8826 13.4168 16.8826 12.86 16.8826 12.2991L16.8835 12.2997ZM10.3307 7.26754C10.4842 7.13482 10.654 7.02218 10.8359 6.93233C11.0061 6.84971 11.4443 6.64376 11.9445 6.76207C12.0071 6.77741 12.0578 6.79337 12.0888 6.80339L14.4192 7.24188C14.833 7.29549 15.2156 7.49041 15.5022 7.79367C15.5898 7.88756 15.9353 8.26815 15.9766 8.82495C15.9819 8.89183 15.9819 8.95901 15.9766 9.02589V9.94888L15.0327 10.6809V10.2218C15.0255 10.1267 15.0135 10.0321 14.9967 9.93823C14.9282 9.57756 14.7784 9.23726 14.5585 8.94326C14.4759 8.82464 14.0017 8.16987 13.1407 7.88631C13.0944 7.87097 13.0581 7.86065 13.0274 7.85032L10.2844 7.37083L10.3307 7.26785V7.26754ZM13.5323 16.8367C13.2951 17.2029 12.7539 17.2595 12.4857 17.2852C12.3624 17.2975 12.2383 17.3009 12.1145 17.2955L9.29422 16.8057L9.21691 16.7697C9.01915 16.7305 8.83142 16.6515 8.66512 16.5375C8.48819 16.4151 8.33892 16.257 8.22695 16.0733C8.12358 15.912 8.04863 15.7342 8.00535 15.5475C7.97156 15.3987 7.95767 15.2461 7.96404 15.0937L7.95903 9.92788V9.85057C7.97969 9.31443 8.38187 8.90191 8.69642 8.65434L8.82537 8.58736C8.83038 10.2578 8.83038 11.9285 8.8357 13.5989C8.8357 13.6452 8.83069 13.7122 8.8357 13.7948C8.87169 14.5629 9.32552 15.1147 9.4648 15.2746C10.0372 15.9447 10.7847 16.1509 11.2695 16.2799C11.5787 16.3625 13.6049 16.7027 13.6049 16.7027C13.5846 16.7493 13.5605 16.7941 13.5327 16.8367H13.5323ZM15.9763 14.1507C15.9444 14.4775 15.8171 14.7877 15.6101 15.0427C15.4649 15.2174 15.2861 15.3612 15.0843 15.4655V14.0734C15.3832 13.8258 15.6824 13.5786 15.9763 13.336C15.9813 13.6042 15.9813 13.8775 15.9763 14.1498V14.1507Z" fill="#FFFDFC"/>
</svg>
