<svg width="24" height="24" viewBox="0 0 24 24" fill="none" xmlns="http://www.w3.org/2000/svg">
<circle cx="12" cy="12" r="12" fill="#EDF0F4"/>
<path d="M14.3147 10.2047C13.269 9.18106 11.6098 9.18106 10.5692 10.2047C9.5337 11.2453 9.55235 12.9384 10.5811 13.979C11.6098 15.0196 13.2961 15.0315 14.3317 13.9909C14.3486 13.9739 14.4215 13.896 14.5537 13.7553L13.308 12.4978C13.1843 12.6503 13.1097 12.7283 13.1029 12.7283C12.7504 13.0808 12.181 13.0808 11.8284 12.7283C11.4759 12.3757 11.4759 11.7995 11.8166 11.4538C12.1572 11.1131 12.7284 11.1131 13.0843 11.4656C13.0843 11.4656 14.1995 12.5808 16.423 14.8162C15.5078 16.1433 13.974 16.9822 12.3233 16.9822C9.58963 16.9822 7.36776 14.7417 7.36776 11.9741C7.36776 9.20649 9.59133 6.96936 12.3233 6.96936C13.9198 6.96936 15.3858 7.7388 16.2959 8.99633C16.1485 9.16581 15.7739 9.59629 15.1689 10.2878L16.4027 11.5216L18.4466 9.20649C17.3823 6.79819 14.996 5.2 12.3165 5.2C8.61004 5.2 5.6001 8.23876 5.6001 11.9775C5.6001 15.7162 8.60326 18.7617 12.3165 18.7617C14.0029 18.7617 15.4011 18.2278 16.7654 17.0584C18.0043 16.0009 18.5923 14.5298 18.5923 14.5298L14.3147 10.2047Z" fill="url(#paint0_linear_300_14084)"/>
<defs>
<linearGradient id="paint0_linear_300_14084" x1="18.5936" y1="5.19949" x2="5.60009" y2="5.19949" gradientUnits="userSpaceOnUse">
<stop stop-color="#22E6B8"/>
<stop offset="1" stop-color="#00C1CE"/>
</linearGradient>
</defs>
</svg>
