<svg width="24" height="24" viewBox="0 0 24 24" fill="none" xmlns="http://www.w3.org/2000/svg">
<circle cx="12" cy="12" r="12" fill="#EDF0F2"/>
<ellipse cx="11.9963" cy="12.0024" rx="7.99479" ry="7.99479" fill="#C8D2D9"/>
<path d="M17.0722 18.1719C15.8533 19.1782 14.3593 19.7971 12.7841 19.9471C10.6776 20.1534 8.57108 19.5158 6.92712 18.1719C5.28941 16.8279 4.25177 14.8902 4.03924 12.7774C3.88297 11.2022 4.19551 9.62075 4.93936 8.22682C5.68321 6.83289 6.82711 5.68899 8.22104 4.94515C9.61497 4.2013 11.1964 3.88251 12.7716 4.03878C14.3468 4.19505 15.8345 4.80763 17.0597 5.81401L15.447 7.78302C14.6156 7.10168 13.5967 6.67662 12.5216 6.57661C11.4465 6.47035 10.3713 6.68912 9.42119 7.19544C8.47107 7.70176 7.69597 8.48311 7.1834 9.43323C6.67709 10.3834 6.46456 11.4647 6.57082 12.5336C6.71459 13.9713 7.42093 15.2965 8.53983 16.2091C9.65872 17.128 11.0964 17.5593 12.5341 17.4155C13.6092 17.3093 14.6219 16.8842 15.4532 16.2029L17.0722 18.1719Z" fill="url(#paint0_linear_300_15338)"/>
<path d="M12.0218 18.547C15.6286 18.547 18.5477 15.6216 18.5477 12.0211C18.5477 8.41439 15.6286 5.48901 12.0218 5.48901C8.41513 5.48901 5.48975 8.41439 5.48975 12.0211C5.48975 15.6278 8.41513 18.547 12.0218 18.547Z" fill="white"/>
<path d="M12.0653 13.2337L14.1343 12.0335L11.6777 10.7709L12.0653 13.2337Z" fill="#AAB8C1"/>
<path d="M10.0029 12.0398L12.072 13.2399V11.0272L10.0029 12.0398Z" fill="#AAB8C1"/>
<path d="M12.0656 8.67065L9.99658 12.0398L12.7032 10.8334L12.0656 8.67065Z" fill="#283947"/>
<path d="M12.0654 8.67065V11.1147L14.1345 12.0398L12.0654 8.67065Z" fill="#657786"/>
<path d="M12.0657 15.284L12.3345 13.7713L10.0029 12.4211L12.0657 15.284Z" fill="#283947"/>
<path d="M12.0654 13.6213V15.284L14.1345 12.4211L12.0654 13.6213Z" fill="#657786"/>
<defs>
<linearGradient id="paint0_linear_300_15338" x1="4.06435" y1="6.41783" x2="7.72779" y2="20.0008" gradientUnits="userSpaceOnUse">
<stop stop-color="#27D3A2"/>
<stop offset="1" stop-color="#9388FD"/>
</linearGradient>
</defs>
</svg>
