<svg width="24" height="24" viewBox="0 0 24 24" fill="none" xmlns="http://www.w3.org/2000/svg">
<path fill-rule="evenodd" clip-rule="evenodd" d="M12 24C5.4 24 0 18.6001 0 11.9402C0.06 5.34038 5.4 -0.0595036 12.06 0.000495204C18.66 0.060494 24 5.40038 24 12.1202C23.94 18.6601 18.6 24 12 24Z" fill="#EDF0F4"/>
<circle cx="12" cy="12" r="9" fill="#1C98F7"/>
<path fill-rule="evenodd" clip-rule="evenodd" d="M6.4502 11.3015C6.4502 12.5397 7.02957 13.6949 8.03307 14.543C8.21856 14.6994 8.41478 14.8426 8.62032 14.9718V16.3686C8.62032 16.7212 9.02813 16.9235 9.31557 16.7139C10.1093 16.1365 10.6599 15.8103 10.7978 15.7778C11.1161 15.8282 11.4413 15.8535 11.7698 15.8535C14.6942 15.8535 17.0899 13.8317 17.0899 11.3015C17.0899 8.77181 14.6948 6.75 11.7698 6.75C8.84532 6.75 6.4502 8.77181 6.4502 11.3015ZM13.405 15.9902C13.021 16.0896 12.6286 16.1534 12.2328 16.1808H12.2333C12.811 16.5793 13.5445 16.8164 14.3388 16.8164C14.5362 16.8164 14.732 16.8019 14.9232 16.7733C14.9946 16.8034 15.0637 16.8385 15.1302 16.8781C15.3624 17.0186 15.5877 17.1701 15.8052 17.3321C16.0353 17.4997 16.3615 17.3377 16.3615 17.0558V16.2369C16.4782 16.1614 16.59 16.0787 16.6962 15.9891C17.3324 15.4521 17.7003 14.7178 17.7003 13.9303C17.699 13.4242 17.5479 12.9298 17.266 12.5088C17.1788 12.8065 17.0601 13.0934 16.9133 13.3664C16.9718 13.5469 17.0028 13.7358 17.0028 13.9303C17.0028 14.5099 16.7283 15.057 16.2423 15.4673C16.1191 15.571 15.9841 15.6651 15.839 15.747C15.731 15.8075 15.6642 15.9212 15.664 16.0446V16.3949C15.3305 16.1819 15.1015 16.081 14.9271 16.081C14.9076 16.0809 14.888 16.0824 14.8686 16.0855C14.3799 16.167 13.8789 16.1343 13.405 15.9902ZM10.8169 14.9162C10.8411 14.9162 10.8659 14.9179 10.8901 14.9219C11.1769 14.9701 11.4717 14.9947 11.7698 14.9947C14.2403 14.9947 16.2175 13.3255 16.2175 11.3014C16.2175 9.27794 14.2403 7.6087 11.7698 7.6087C9.30045 7.6087 7.32213 9.27794 7.32213 11.3014C7.32213 12.2801 7.78395 13.2016 8.6007 13.891C8.80601 14.0637 9.03157 14.2206 9.27345 14.3574C9.40901 14.4336 9.49282 14.576 9.49282 14.7296V15.5351C10.1206 15.1152 10.5334 14.9162 10.8169 14.9162ZM8.80492 11.4736C8.80492 11.8525 9.11711 12.1608 9.50242 12.1608C9.88774 12.1608 10.1999 11.853 10.1999 11.4736C10.1999 11.0941 9.88774 10.7864 9.50242 10.7864C9.11711 10.7864 8.80492 11.0941 8.80492 11.4736ZM11.7699 12.1608C11.3846 12.1608 11.0724 11.8525 11.0724 11.4736C11.0724 11.0941 11.3846 10.7864 11.7699 10.7864C12.1552 10.7864 12.4674 11.0941 12.4674 11.4736C12.4674 11.853 12.1552 12.1608 11.7699 12.1608ZM13.3395 11.4736C13.3395 11.8525 13.6517 12.1608 14.037 12.1608C14.4223 12.1608 14.7345 11.853 14.7345 11.4736C14.7345 11.0941 14.4223 10.7864 14.037 10.7864C13.6517 10.7864 13.3395 11.0941 13.3395 11.4736Z" fill="white"/>
</svg>
