<svg width="24" height="24" viewBox="0 0 24 24" fill="none" xmlns="http://www.w3.org/2000/svg">
<circle cx="12" cy="12" r="12" fill="#000D17"/>
<path d="M14.3078 13.6592C13.8681 14.4927 12.9966 15.0611 11.9916 15.0611C10.5447 15.0611 9.37172 13.8835 9.37172 12.4309C9.37172 10.9783 10.5447 9.80073 11.9916 9.80073C12.9966 9.80073 13.8681 10.3692 14.3078 11.2026H17.0352C16.488 8.91281 14.4407 7.20874 11.9916 7.20874C9.12423 7.20874 6.7998 9.54231 6.7998 12.4207C6.7998 15.2993 9.12423 17.6326 11.9916 17.6326C14.4332 17.6326 16.4755 15.9387 17.03 13.6592H14.3078Z" fill="#FFB0C2"/>
<path d="M16.0968 9.24245C16.6823 8.76297 17.0563 8.03281 17.0563 7.21507C17.0563 5.77076 15.89 4.59998 14.4513 4.59998C13.0125 4.59998 11.8462 5.77076 11.8462 7.21507V7.21705C11.8946 7.21574 11.943 7.21498 11.9917 7.21498C13.6638 7.21498 15.1487 8.00952 16.0968 9.24245Z" fill="#CC91F0"/>
<path d="M14.4524 9.83314C15.0765 9.83303 15.6494 9.61276 16.0979 9.24531C15.1501 8.01245 13.6652 7.21805 11.993 7.21827C11.9443 7.2182 11.8959 7.21895 11.8477 7.2203C11.8485 8.66367 13.0143 9.83326 14.4524 9.83314Z" fill="#CC66B8"/>
</svg>
