<svg width="24" height="24" viewBox="0 0 24 24" fill="none" xmlns="http://www.w3.org/2000/svg">
<circle cx="12" cy="12" r="12" fill="#279457"/>
<path fill-rule="evenodd" clip-rule="evenodd" d="M13.5239 5.80588L12.4995 6.3946V11.3252L13.0588 11.6431V7.88407L14.981 8.97321L15.3518 9.18515L15.6639 9.00853V8.71417L13.0617 7.24236V6.7184L13.5268 6.45347L16.2232 7.98415V9.34705L14.928 10.0771L14.8838 10.0565C14.8089 10.0186 14.7263 9.99846 14.6424 9.99759C14.4902 9.99751 14.3445 10.0592 14.2385 10.1685C14.1325 10.2777 14.0754 10.4253 14.0802 10.5775C14.0794 10.7266 14.1379 10.8699 14.2428 10.9759C14.3477 11.0819 14.4904 11.1419 14.6395 11.1427C14.9276 11.1408 15.1671 10.9204 15.1929 10.6334V10.5834L16.4999 9.84452L17.7126 10.5333V13.5741L16.4999 14.2629L11.5722 11.4606V6.38871L10.5479 5.79999L7.29516 7.65741V9.3441L5.7998 10.1919V13.9008L7.29516 14.7515V16.4412L10.5479 18.2898L11.5722 17.701V12.7616L11.013 12.4437V16.2145L8.71987 14.9134L8.40785 15.09V15.3844L11.01 16.8562V17.3772L10.5449 17.6422L7.84856 16.1115V14.7456L9.14376 14.0156L9.18791 14.0362C9.26276 14.0742 9.34537 14.0943 9.42929 14.0951C9.58097 14.0959 9.72656 14.0354 9.83298 13.9273C9.93941 13.8193 9.99764 13.6728 9.99446 13.5211C9.99524 13.372 9.93676 13.2287 9.83187 13.1227C9.72698 13.0167 9.58429 12.9567 9.43517 12.9559C9.14708 12.9578 8.90755 13.1782 8.88177 13.4652V13.5152L7.57481 14.2541L6.36498 13.5653V10.5245L7.57775 9.83569L12.5024 12.638V17.7099L13.5268 18.2986L16.7824 16.45V14.7545L18.2778 13.9067V10.1978L16.7824 9.34705V7.65741L13.5239 5.80588ZM7.85446 7.98708L10.5508 6.4564L11.0159 6.72133V7.23352L7.85446 9.02618V7.98708ZM11.019 7.88404L8.14896 9.51186L11.019 11.1426V7.88404ZM13.0646 12.9559L15.9346 14.5867L13.0646 16.2145V12.9559ZM13.0647 16.865V17.3713L13.0588 17.3772L13.5239 17.6421L16.2261 16.1114V15.0724L13.0647 16.865Z" fill="black"/>
<path fill-rule="evenodd" clip-rule="evenodd" d="M13.5239 5.80588L12.4995 6.3946V11.3252L13.0588 11.6431V7.88407L14.981 8.97321L15.3518 9.18515L15.6639 9.00853V8.71417L13.0617 7.24236V6.7184L13.5268 6.45347L16.2232 7.98415V9.34705L14.928 10.0771L14.8838 10.0565C14.8089 10.0186 14.7263 9.99846 14.6424 9.99759C14.4902 9.99751 14.3445 10.0592 14.2385 10.1685C14.1325 10.2777 14.0754 10.4253 14.0802 10.5775C14.0794 10.7266 14.1379 10.8699 14.2428 10.9759C14.3477 11.0819 14.4904 11.1419 14.6395 11.1427C14.9276 11.1408 15.1671 10.9204 15.1929 10.6334V10.5834L16.4999 9.84452L17.7126 10.5333V13.5741L16.4999 14.2629L11.5722 11.4606V6.38871L10.5479 5.79999L7.29516 7.65741V9.3441L5.7998 10.1919V13.9008L7.29516 14.7515V16.4412L10.5479 18.2898L11.5722 17.701V12.7616L11.013 12.4437V16.2145L8.71987 14.9134L8.40785 15.09V15.3844L11.01 16.8562V17.3772L10.5449 17.6422L7.84856 16.1115V14.7456L9.14376 14.0156L9.18791 14.0362C9.26276 14.0742 9.34537 14.0943 9.42929 14.0951C9.58097 14.0959 9.72656 14.0354 9.83298 13.9273C9.93941 13.8193 9.99764 13.6728 9.99446 13.5211C9.99524 13.372 9.93676 13.2287 9.83187 13.1227C9.72698 13.0167 9.58429 12.9567 9.43517 12.9559C9.14708 12.9578 8.90755 13.1782 8.88177 13.4652V13.5152L7.57481 14.2541L6.36498 13.5653V10.5245L7.57775 9.83569L12.5024 12.638V17.7099L13.5268 18.2986L16.7824 16.45V14.7545L18.2778 13.9067V10.1978L16.7824 9.34705V7.65741L13.5239 5.80588ZM7.85446 7.98708L10.5508 6.4564L11.0159 6.72133V7.23352L7.85446 9.02618V7.98708ZM8.14896 9.51186L11.019 7.88404V11.1426L8.14896 9.51186ZM13.0646 12.9559L15.9346 14.5867L13.0646 16.2145V12.9559ZM13.0647 17.3713V16.865L16.2261 15.0724V16.1114L13.5239 17.6421L13.0588 17.3772L13.0647 17.3713Z" fill="white"/>
</svg>
