<svg width="24" height="24" viewBox="0 0 24 24" fill="none" xmlns="http://www.w3.org/2000/svg">
<circle cx="12" cy="12" r="12" fill="white"/>
<path d="M14.3093 12.5765C14.3093 12.4169 14.3093 12.3371 14.1504 12.2573C13.5942 11.8584 12.9586 11.4594 12.4025 11.0605C12.2822 10.9798 12.1254 10.9798 12.0052 11.0605L10.2573 12.3371C10.1084 12.4134 10.0159 12.5683 10.019 12.7361C10.0152 12.9081 9.95985 13.0749 9.86006 13.2148C9.77972 13.3355 9.77972 13.493 9.86006 13.6137C10.4957 14.8904 11.0518 16.167 11.6874 17.4436C11.9258 17.8425 12.0847 18.3213 12.323 18.8C12.4025 18.7202 12.4025 18.6404 12.4819 18.5606C13.197 16.9649 13.8326 15.3691 14.5476 13.7733C14.6271 13.6137 14.6271 13.534 14.4682 13.4542C14.2873 13.2001 14.229 12.8782 14.3093 12.5765Z" fill="#CD0124"/>
<path d="M11.5998 10.478C9.9998 9.35868 8.3998 8.23935 6.8798 7.19998L6.7998 7.27993C6.8798 7.43984 6.8798 7.51979 6.9598 7.67969L8.6398 11.2775C8.7998 11.5973 8.8798 11.9171 9.3598 11.9971C9.49806 12.0095 9.63697 11.9818 9.7598 11.9171C10.2398 11.5174 10.7998 11.1976 11.2798 10.7978L11.5998 10.478Z" fill="#CD0124"/>
<path fill-rule="evenodd" clip-rule="evenodd" d="M0 12C0 5.37258 5.37258 0 12 0C15.1826 0 18.2348 1.26428 20.4853 3.51472C22.7357 5.76516 24 8.8174 24 12C24 18.6274 18.6274 24 12 24C5.37258 24 0 18.6274 0 12ZM18.1599 7.20002C18.2399 7.04001 18.3199 6.96001 18.4799 6.96001C18.9911 6.88046 19.3661 6.4373 19.3599 5.92001C19.3261 5.48759 19.0456 5.1136 18.6399 4.96001C18.219 4.80169 17.7453 4.97087 17.5199 5.36001C17.4399 5.60002 17.2799 5.60002 17.1199 5.60002H6.95994C6.71994 5.60002 6.63994 5.60002 6.55994 5.44001C6.30784 5.03588 5.80409 4.86796 5.35994 5.04001C4.94671 5.22761 4.67007 5.6272 4.63994 6.08001C4.66579 6.56935 5.03469 6.97179 5.51994 7.04001C5.75994 7.04001 5.83994 7.12001 5.83994 7.20002C6.63994 8.80001 7.35994 10.32 8.07994 11.92C8.16083 12.0411 8.16083 12.1989 8.07994 12.32C7.91292 12.6109 7.89895 12.9651 8.04254 13.2683C8.18613 13.5714 8.46906 13.785 8.79994 13.84C8.9771 13.8759 9.12606 13.995 9.19993 14.16C9.59994 14.96 9.97994 15.76 10.3599 16.56C10.7399 17.36 11.1199 18.16 11.5199 18.96C11.5996 19.1101 11.5996 19.2899 11.5199 19.44C11.3818 19.6415 11.3295 19.8897 11.3745 20.1298C11.4195 20.3699 11.5582 20.5823 11.7599 20.72C12.1467 21.0168 12.6931 20.9826 13.0399 20.64C13.4403 20.298 13.51 19.7056 13.1999 19.28C13.119 19.1589 13.119 19.0011 13.1999 18.88C13.8399 17.28 14.5599 15.6 15.2799 14C15.3599 13.84 15.4399 13.76 15.5199 13.76C15.8097 13.6726 16.0471 13.4633 16.17 13.1867C16.2929 12.9101 16.2892 12.5937 16.1599 12.32V12C16.4799 11.2 16.8199 10.4 17.1599 9.59999C17.4999 8.8 17.8399 8.00001 18.1599 7.20002Z" fill="#CD0124"/>
<path d="M12 9.93903C12.1201 10.0204 12.2767 10.0204 12.3968 9.93903C13.9048 8.81298 15.4127 7.76737 16.8413 6.64132C16.9206 6.56089 17 6.56089 17 6.48046V6.40002H7C7.09081 6.43379 7.17241 6.48893 7.2381 6.56089L12 9.93903Z" fill="#CD0124"/>
<path d="M12.7998 10.495C13.4284 10.9712 14.0569 11.368 14.6855 11.7648C14.8427 11.8441 15.0784 11.7648 15.3141 11.7648C15.3927 11.7648 15.4712 11.606 15.4712 11.5267C16.0212 10.2569 16.5712 8.90784 17.1212 7.6381C17.1212 7.55874 17.1998 7.47938 17.1998 7.40002H17.1212C15.7855 8.35233 14.2927 9.38399 12.7998 10.495Z" fill="#CD0124"/>
</svg>
