<svg width="24" height="24" viewBox="0 0 24 24" fill="none" xmlns="http://www.w3.org/2000/svg">
<path fill-rule="evenodd" clip-rule="evenodd" d="M12 24C5.4 24 0 18.6001 0 11.9402C0.06 5.34038 5.4 -0.0595036 12.06 0.000495204C18.66 0.060494 24 5.40038 24 12.1202C23.94 18.6601 18.6 24 12 24Z" fill="#EDF0F4"/>
<path d="M4.80029 6V8.42725V10.8545V13.2871H7.22755V10.8545V8.42725V6H4.80029Z" fill="#424242"/>
<path d="M16.8403 10.8545V13.2871V15.7143V18.1416H19.2676V15.7143V13.2871V10.8545H16.8403Z" fill="#424242"/>
<path d="M11.9805 6V8.42725V10.7531L14.4077 13.1804V10.8545V8.42725L11.9805 6Z" fill="#424242"/>
<path d="M9.65967 10.9612V13.2871V15.7143L12.0869 18.1416V15.7143V13.3884L9.65967 10.9612Z" fill="#424242"/>
<path d="M11.9805 6H14.4077L19.2676 10.8545H16.8403L11.9805 6Z" fill="black"/>
<path d="M4.80029 13.2871H7.22754L12.0874 18.1416H9.66013L4.80029 13.2871Z" fill="black"/>
<path d="M14.4074 8.42725V10.8545V13.1484L7.22705 6V8.42725V8.57662V10.8545V13.2871L9.65964 15.7143V13.2871V10.9932L16.84 18.1416V15.7143V15.565V13.2871V10.8545L14.4074 8.42725Z" fill="#3CC68A"/>
</svg>
