<svg width="24" height="24" viewBox="0 0 24 24" fill="none" xmlns="http://www.w3.org/2000/svg">
<path d="M12 24C18.6276 24 24 18.6276 24 12C24 5.3724 18.6276 0 12 0C5.3724 0 0 5.3724 0 12C0 18.6276 5.3724 24 12 24Z" fill="#EDF0F4"/>
<path fill-rule="evenodd" clip-rule="evenodd" d="M10.7722 10.9467C11.0893 13.8411 11.6013 16.9214 11.6963 17.4835C11.8249 17.4701 11.9541 17.4634 12.0833 17.4635H12.153C12.253 16.8564 12.726 13.8401 13.0241 11.0968C13.3352 8.23548 13.3592 5.39615 13.3592 4.59604V4.46599C13.1062 4.24099 12.5201 3.79999 11.8022 3.79999C11.0843 3.79999 10.5112 4.24099 10.2612 4.46599V4.59109C10.2872 5.13217 10.4272 7.79844 10.7722 10.9478V10.9468V10.9467ZM13.6297 4.59514C13.6297 5.40019 13.6047 8.25248 13.2926 11.1278L13.2924 11.1279C13.0245 13.5894 12.6146 16.2687 12.466 17.2403L12.4293 17.4806C12.5585 17.493 12.6867 17.5134 12.8134 17.5416C13.0665 17.0165 14.3336 14.3822 14.9136 12.403C15.5777 10.1367 15.9608 7.11542 15.9718 5.8933V5.67325C15.7489 5.32819 15.2708 4.6981 14.6487 4.52809C14.1057 4.38004 13.7897 4.44403 13.6297 4.51306V4.59514ZM13.4546 17.7636C13.331 17.704 13.2033 17.6532 13.0725 17.6116H13.0717C13.3778 16.9825 14.5989 14.4222 15.17 12.475C15.8391 10.1857 16.2281 7.12941 16.2391 5.89226V5.88128C16.7198 5.88586 17.188 6.03463 17.5831 6.30833C18.1561 6.68139 18.4511 7.39248 18.5742 7.77453L18.5172 7.99953C18.3772 8.54961 17.3431 11.3839 16.2319 13.5202C15.2898 15.3313 13.7826 17.3346 13.4546 17.7636ZM13.6932 17.8946C13.8497 17.9899 13.9968 18.1001 14.1322 18.2236L14.1926 18.1632L14.1926 18.1632C14.6803 17.6764 16.2679 16.0912 17.3376 14.7432C18.6298 13.115 19.915 10.829 20.125 10.334L20.2339 10.076C20.204 9.74791 20.1129 9.2269 19.8339 8.8408C19.5608 8.49047 19.1933 8.22538 18.7748 8.07669C18.5988 8.75647 17.5287 11.612 16.4745 13.646C15.5404 15.4312 14.0715 17.3964 13.6923 17.894H13.6933L13.6932 17.8946ZM11.0321 17.6225C10.7819 17.0825 9.66793 14.6352 8.91885 12.1819C8.08374 9.44763 7.60467 6.90836 7.50486 6.10727L7.49067 5.99583C7.48445 5.94645 7.47863 5.90031 7.47282 5.85724C7.68739 5.3561 8.07298 4.94745 8.56083 4.70416C9.2379 4.39213 9.7609 4.48114 10.007 4.54612V4.60012C10.021 5.14318 10.1619 7.81952 10.507 10.9768C10.8231 13.8661 11.3321 16.9385 11.4321 17.5226C11.2967 17.547 11.1631 17.5804 11.0321 17.6225ZM9.75126 18.9317C9.94926 18.6056 10.6183 17.7315 12.0835 17.7315V17.7318V17.7328C13.5387 17.7328 14.2087 18.6289 14.4118 18.9709C13.3086 19.756 12.4105 20.2431 12.0945 20.2431C11.7785 20.2431 10.9905 19.8408 9.75126 18.9317ZM20.3624 10.4537C20.1304 10.9858 18.8403 13.278 17.5454 14.9102C16.4183 16.3303 14.7301 18.0105 14.3191 18.4106C14.4328 18.5345 14.5353 18.6684 14.6251 18.8106C15.505 18.1669 16.344 17.4691 17.1374 16.7213C19.2533 14.7212 20.9372 12.746 20.9955 11.7488C21.0375 11.2338 20.7947 10.7369 20.3624 10.4537ZM9.99506 18.2235C8.72329 17.1059 7.54626 15.8849 6.47604 14.5731C5.14223 12.937 4.22072 11.4818 3.73877 10.2601C3.67329 10.0948 3.61127 9.92805 3.55274 9.7601C3.5519 9.46468 3.62331 9.17354 3.76073 8.91202C4.0697 8.34502 4.85081 8.086 5.16086 8.00302V8.00851L5.19182 8.12749L5.19271 8.13062C5.41829 8.92842 5.94504 10.7913 7.32672 13.4819C8.1469 15.0878 9.13773 16.6008 10.2821 17.9944C10.1815 18.0644 10.0856 18.1409 9.99506 18.2235ZM6.26773 14.7431C4.96758 13.1429 4.04949 11.7147 3.54342 10.4936C3.35343 10.6607 2.95932 11.1056 3.00342 11.8938C3.06039 12.9279 4.54557 14.5631 7.26088 16.9153C8.13299 17.6713 8.89304 18.2855 9.54015 18.7693C9.62003 18.6436 9.71035 18.5249 9.81015 18.4143C8.53028 17.29 7.3452 16.0621 6.26692 14.7433H6.26791L6.26773 14.7431ZM7.56558 13.3555C6.19361 10.6888 5.6726 8.84251 5.45057 8.05447L5.41547 7.93134C5.38145 7.80939 5.35445 7.70931 5.33348 7.62534C5.4035 7.29126 5.57351 6.79032 5.99255 6.48126C6.35164 6.21571 6.79166 6.08283 7.23771 6.10524V6.1362C7.33977 6.9453 7.82181 9.50599 8.66169 12.2573C9.40681 14.6966 10.5099 17.1309 10.7799 17.7139C10.688 17.7532 10.5982 17.7973 10.5109 17.846C9.36882 16.4607 8.3812 14.9549 7.56558 13.3555Z" fill="url(#paint0_linear_300_15236)"/>
<defs>
<linearGradient id="paint0_linear_300_15236" x1="0.956181" y1="10.4686" x2="10.0291" y2="22.2181" gradientUnits="userSpaceOnUse">
<stop stop-color="white"/>
<stop offset="0.16" stop-color="#D5AC51"/>
<stop offset="0.18" stop-color="#D2A644"/>
<stop offset="0.26" stop-color="#CC9B2E"/>
<stop offset="0.29" stop-color="#E6DE5F"/>
<stop offset="0.45" stop-color="#9D9A62"/>
<stop offset="0.63" stop-color="#787864"/>
<stop offset="0.7" stop-color="#517E69" stop-opacity="0.96"/>
<stop offset="0.89" stop-color="#4F99CA"/>
</linearGradient>
</defs>
</svg>
