<svg width="24" height="24" viewBox="0 0 24 24" fill="none" xmlns="http://www.w3.org/2000/svg">
<circle cx="12" cy="12" r="12" fill="#FF3A00"/>
<path fill-rule="evenodd" clip-rule="evenodd" d="M20.2001 12.1023C20.2016 7.53197 16.4802 3.80753 11.9024 3.79999C7.32755 3.79999 3.60236 7.5199 3.6001 12.0894C3.59784 16.6673 7.31699 20.3955 11.8895 20.4H11.8971C16.4742 20.4 20.1986 16.6778 20.2001 12.1023ZM4.676 12.0985C4.67751 8.11296 7.91828 4.86992 11.9 4.86992H11.9015C13.8192 4.86587 15.6587 5.62939 17.0098 6.99019C18.3698 8.34157 19.132 10.1812 19.1263 12.0985C19.1233 16.0825 15.8772 19.324 11.891 19.324C7.91149 19.321 4.67525 16.0794 4.676 12.0985ZM15.4675 11.3583C15.7233 12.6554 15.3943 13.7449 14.4624 14.6911L14.3341 14.8202L14.1712 14.7402C14.0809 14.6961 13.9893 14.6548 13.8965 14.6164L13.5275 14.4625L13.8248 14.1954C14.4051 13.6748 14.7137 12.9949 14.7431 12.1755C14.7733 11.356 14.4828 10.6415 13.8807 10.0522C13.3529 9.53439 12.6423 9.24541 11.903 9.24784C11.0855 9.24721 10.3073 9.59888 9.76762 10.2129C9.1655 10.8995 8.93536 11.7356 9.10362 12.6297C9.20764 13.2212 9.50294 13.7623 9.94419 14.1697L10.2362 14.4406L9.86722 14.5893C9.77517 14.6262 9.67859 14.6662 9.57521 14.71L9.41676 14.7764L9.29603 14.6534C8.67504 14.0136 8.33851 13.2771 8.26834 12.4018C8.1197 10.557 9.31565 8.93169 11.113 8.53781C11.3781 8.47914 11.6488 8.44929 11.9203 8.44878C13.6445 8.45044 15.1282 9.66774 15.4667 11.3583H15.4675ZM6.14275 10.2008C5.33538 12.6591 6.23858 14.8624 7.35229 16.1043L7.53564 16.3103L8.2268 15.5663L8.07891 15.3951C7.55732 14.7947 7.1873 14.0779 6.99991 13.305C6.77465 12.4024 6.80601 11.4547 7.09046 10.569C7.37042 9.67789 7.89579 8.8837 8.60634 8.27744C9.52339 7.48692 10.6937 7.05183 11.9045 7.0513C13.2226 7.04687 14.4888 7.56479 15.4259 8.49173C16.354 9.40624 16.8611 10.5169 16.9335 11.7921C17.0112 13.188 16.5811 14.4255 15.6546 15.469L15.5051 15.6373L16.182 16.3933L16.3706 16.1919C17.8518 14.6028 18.3483 12.2245 17.6345 10.1329C16.7953 7.68022 14.4884 6.03342 11.8962 6.03644C9.28069 6.03766 6.96106 7.71661 6.14275 10.2008Z" fill="white"/>
</svg>
