<svg width="24" height="24" viewBox="0 0 24 24" fill="none" xmlns="http://www.w3.org/2000/svg">
<circle cx="12" cy="12" r="12" fill="#2FD2E5"/>
<path fill-rule="evenodd" clip-rule="evenodd" d="M6.73276 4.78727C8.35868 3.56398 10.3572 2.93485 12.3932 3.00534L12.3924 3.00609C16.2299 3.14494 19.5487 5.7128 20.6346 9.38332C21.7205 13.0538 20.3304 17.0052 17.1823 19.1964C14.0342 21.3877 9.83293 21.3282 6.74858 19.0487C6.42408 18.8111 6.22341 18.4411 6.20167 18.0404C6.17993 17.6397 6.33941 17.2503 6.63631 16.9792C7.11047 16.5408 7.83233 16.506 8.3468 16.8966C10.9577 18.8967 14.6706 18.5717 16.8917 16.1487C17.1412 15.8742 17.2476 15.4993 17.1793 15.1352C17.1109 14.7712 16.8758 14.4599 16.5436 14.2939C16.07 14.0563 15.4953 14.165 15.142 14.559C14.044 15.7588 12.319 16.1629 10.7996 15.5762C9.28014 14.9894 8.27875 13.5325 8.27875 11.9086C8.27875 10.2847 9.28014 8.82777 10.7996 8.24103C12.319 7.65428 14.044 8.05837 15.142 9.25824L15.2 9.31681C15.4321 9.53267 15.7408 9.64778 16.058 9.63679C16.3753 9.62581 16.6752 9.48963 16.8917 9.25824C17.3182 8.78366 17.3046 8.06202 16.86 7.60396C14.63 5.21205 10.9354 4.91538 8.34981 6.92063C7.84043 7.31486 7.11856 7.28032 6.64987 6.83878C6.35097 6.57487 6.18688 6.19107 6.20295 5.79343C6.21901 5.39578 6.41353 5.02638 6.73276 4.78727ZM10.3174 13.0016C10.7096 13.6845 11.4376 14.107 12.2272 14.11H12.228C13.4486 14.1143 14.4416 13.1318 14.446 11.9154C14.4503 10.699 13.4644 9.70942 12.2438 9.70507C11.4542 9.70212 10.723 10.1192 10.3257 10.7991C9.92833 11.4791 9.92517 12.3187 10.3174 13.0016Z" fill="white"/>
</svg>
