<svg width="24" height="24" viewBox="0 0 24 24" fill="none" xmlns="http://www.w3.org/2000/svg">
<circle cx="12" cy="12" r="12" fill="#C1A05C"/>
<path fill-rule="evenodd" clip-rule="evenodd" d="M12.1075 19.5998C10.3627 19.5953 8.80076 19.0613 7.40582 18.0398C7.03489 17.7683 7.02361 17.6123 7.33961 17.2741L7.3682 17.2441L7.36847 17.2438C7.56149 17.0353 7.65738 16.9317 7.76242 16.9214C7.86612 16.9112 7.97875 16.9919 8.20256 17.1524L8.21013 17.1578C9.26604 17.9268 10.5317 18.3574 11.8389 18.3923C13.2279 18.4403 14.5039 18.1096 15.6573 17.3678C17.041 16.4783 17.9845 15.2394 18.3795 13.6576C18.8753 11.6717 18.5067 9.8327 17.2005 8.21648C16.2856 7.084 15.0968 6.35426 13.6605 6.00851C12.3784 5.69952 11.1189 5.77527 9.8812 6.19976C9.22587 6.42476 8.62019 6.75625 8.0732 7.18224C7.80309 7.39224 7.70076 7.38774 7.47128 7.13124C7.36088 7.01171 7.25738 6.88601 7.16129 6.75475C7.01984 6.55525 7.03941 6.43676 7.23051 6.28526C8.13857 5.5673 9.19655 5.0614 10.3266 4.80478C11.3493 4.56315 12.4112 4.53506 13.4453 4.72228C14.8508 4.97578 16.1013 5.55177 17.1749 6.48476C17.9695 7.17624 18.612 7.98473 19.0589 8.92971C19.6744 10.2317 19.9249 11.5952 19.7406 13.0336C19.5761 14.3462 19.0588 15.5901 18.2433 16.6336C17.4104 17.7151 16.3443 18.5041 15.0697 19.0223C14.1307 19.4093 13.1236 19.6056 12.1075 19.5998ZM11.5846 14.8839L11.5846 14.8839C11.5591 14.9262 11.5381 14.9608 11.5103 14.9896C11.256 15.2558 10.9452 15.4156 10.5705 15.4276C10.4373 15.4314 10.3039 15.4276 10.1705 15.4237H10.1705C10.044 15.4201 9.91741 15.4164 9.79104 15.4193C9.69063 15.4184 9.59167 15.4432 9.50362 15.4913C8.30431 16.2413 7.0132 16.3508 5.65286 16.0628C5.20519 15.9683 4.80416 15.7966 4.46258 15.5041C4.20526 15.2843 4.02393 15.0248 4.00211 14.6603C3.96449 14.0251 4.43624 13.5916 4.92229 13.4499C5.8199 13.1874 6.67387 13.3471 7.49097 13.7424C7.77186 13.8778 8.03912 14.0414 8.30621 14.2048C8.39397 14.2585 8.48171 14.3122 8.5699 14.3648C8.77455 14.4856 8.8355 14.4811 8.93782 14.2726C9.40055 13.3306 9.10185 12.2919 7.97175 11.9079C6.98009 11.5704 6.01025 11.6041 5.05546 12.0429C5.03241 12.0535 5.009 12.0657 4.98523 12.0781C4.86465 12.141 4.73489 12.2086 4.59725 12.0984C4.45851 11.9863 4.50794 11.8569 4.55477 11.7342L4.55478 11.7342C4.56559 11.7059 4.57627 11.6779 4.58446 11.6506C4.89821 10.5977 5.21648 9.54692 5.53925 8.49694C5.60998 8.2667 5.79432 8.1482 6.06367 8.16245C6.23326 8.17175 6.40243 8.18791 6.57154 8.20407L6.57156 8.20407L6.57157 8.20407C6.79785 8.22569 7.02403 8.2473 7.25095 8.25245C7.84534 8.26745 8.44199 8.2727 9.03563 8.24345C9.47729 8.22095 9.86477 8.02745 10.2056 7.74695C10.247 7.71321 10.3305 7.67421 10.3576 7.69221C10.3975 7.71846 10.4215 7.79195 10.4253 7.84745C10.4531 8.30195 10.2575 8.65219 9.89487 8.92444C9.466 9.24693 8.97619 9.39693 8.44124 9.40968C7.88673 9.42243 7.33221 9.42993 6.77845 9.43218C6.65355 9.43368 6.58734 9.47868 6.558 9.59567C6.50834 9.79067 6.45567 9.98642 6.39924 10.1807C6.35635 10.3254 6.41128 10.3832 6.558 10.3772C6.65991 10.3734 6.76182 10.3688 6.86371 10.3642L6.86375 10.3642C7.11089 10.353 7.35792 10.3418 7.60458 10.3434C8.40644 10.3387 9.18074 10.6348 9.77373 11.1729C10.3553 11.6889 10.5908 12.3549 10.6262 13.0989C10.654 13.6951 10.5397 14.2658 10.2109 14.7796C10.1213 14.9198 10.162 14.9806 10.3132 15.0203C10.715 15.1261 11.0859 15.0541 11.4403 14.8568C11.4512 14.8508 11.4619 14.8445 11.4725 14.8383L11.4725 14.8383C11.491 14.8273 11.5094 14.8164 11.5291 14.8073C11.5353 14.8047 11.5435 14.8054 11.5646 14.8075C11.579 14.8088 11.5993 14.8108 11.6291 14.8126C11.6121 14.8385 11.5977 14.8622 11.5846 14.8839ZM8.17985 14.9094L8.19188 14.9821C8.13589 15.0058 8.08036 15.0315 8.02477 15.0571C7.90482 15.1125 7.78464 15.1679 7.65919 15.2048C6.94291 15.4163 6.22964 15.4088 5.5269 15.1388C5.45768 15.1118 5.3862 15.0803 5.32827 15.0361C5.14318 14.8951 4.98442 14.7339 5.05063 14.4751C5.11007 14.2404 5.31472 14.1886 5.51938 14.1414C5.97382 14.0356 6.40795 14.1444 6.82553 14.2966C7.11919 14.4031 7.40471 14.5336 7.68988 14.6639C7.80219 14.7153 7.91444 14.7666 8.02711 14.8164C8.06389 14.8324 8.0973 14.8549 8.1305 14.8772C8.14687 14.8882 8.16319 14.8992 8.17985 14.9094Z" fill="white"/>
</svg>
