<svg width="24" height="24" viewBox="0 0 24 24" fill="none" xmlns="http://www.w3.org/2000/svg">
<circle cx="12" cy="12" r="12" fill="#00CCCB"/>
<path fill-rule="evenodd" clip-rule="evenodd" d="M11.6626 5.77411V4H12.3375V5.95487C12.3375 6.06675 12.2734 6.17015 12.1692 6.22624L7.01346 9.00261C6.90937 9.05866 6.78106 9.05897 6.67666 9.00342L5.33747 8.29091V14.707L6.67568 13.9895C6.7801 13.9335 6.90873 13.9335 7.01311 13.9896L12.1689 16.7584C12.2732 16.8144 12.3375 16.9179 12.3375 17.0299V19H11.6626V17.2109L6.84416 14.6233L5.16865 15.5217C5.06424 15.5776 4.93564 15.5776 4.83126 15.5216C4.72689 15.4655 4.6626 15.362 4.6626 15.25V7.75C4.6626 7.63816 4.72668 7.53478 4.83078 7.47868C4.93488 7.42258 5.06324 7.42225 5.16767 7.47782L6.84328 8.36932L11.6626 5.77411Z" fill="white"/>
<path fill-rule="evenodd" clip-rule="evenodd" d="M11.8315 3.72831C11.9358 3.67243 12.0642 3.67243 12.1685 3.72831L19.1685 7.47831C19.2731 7.53433 19.3375 7.638 19.3375 7.75019C19.3374 7.86238 19.2729 7.96599 19.1682 8.02191L17.3322 9.00315L15.3657 10.0601C15.2613 10.1161 15.1328 10.1162 15.0283 10.0603L12 8.43904L9.14075 9.96985V13.0302L12 14.561L15.0283 12.9397C15.1324 12.884 15.2606 12.8839 15.3648 12.9395L17.3331 13.9898L19.1692 14.9787C19.2735 15.0348 19.3376 15.1384 19.3375 15.2504C19.3373 15.3624 19.2729 15.4658 19.1685 15.5217L12.1685 19.2717C12.0642 19.3276 11.9358 19.3276 11.8315 19.2717L4.83153 15.5217C4.72701 15.4658 4.6626 15.3622 4.6626 15.25V7.75003C4.6626 7.6379 4.727 7.5343 4.83153 7.47831L11.8315 3.72831ZM5.33747 7.93125V15.0688L12 18.638L18.3257 15.2493L16.996 14.5332L16.9948 14.5325L15.197 13.5733L12.1685 15.1947C12.0642 15.2505 11.9359 15.2505 11.8316 15.1947L8.63489 13.4833C8.53032 13.4273 8.46588 13.3236 8.46588 13.2115V9.78857C8.46588 9.67641 8.53032 9.57279 8.63489 9.5168L11.8316 7.80534C11.9359 7.74953 12.0642 7.74953 12.1685 7.80534L15.1964 9.42646L16.9951 8.45976L16.9958 8.45938L18.3237 7.7497L12 4.36202L5.33747 7.93125Z" fill="white"/>
<path fill-rule="evenodd" clip-rule="evenodd" d="M18.6626 15.2499V7.74994H19.3375V15.2499H18.6626Z" fill="white"/>
<path fill-rule="evenodd" clip-rule="evenodd" d="M15.9805 14.8923C16.0439 14.9916 16.0087 15.1199 15.9019 15.1788L13.2544 16.6393C13.1475 16.6982 13.0095 16.6655 12.9461 16.5662C12.8827 16.4669 12.9179 16.3386 13.0247 16.2797L15.6723 14.8192C15.7791 14.7603 15.9171 14.793 15.9805 14.8923Z" fill="white"/>
<path fill-rule="evenodd" clip-rule="evenodd" d="M6.80457 9.82282C6.9288 9.82343 7.02898 9.91754 7.02832 10.033L7.01192 12.8931C7.01126 13.0085 6.91001 13.1016 6.78577 13.101C6.66153 13.1004 6.56135 13.0063 6.56201 12.8908L6.57841 10.0308C6.57907 9.91531 6.68033 9.8222 6.80457 9.82282Z" fill="white"/>
<path fill-rule="evenodd" clip-rule="evenodd" d="M12.9959 6.42478C13.0602 6.32597 13.1984 6.2943 13.3048 6.35405L15.9441 7.83731C16.0504 7.89706 16.0845 8.0256 16.0202 8.12442C15.9559 8.22323 15.8176 8.2549 15.7113 8.19515L13.072 6.71189C12.9657 6.65214 12.9316 6.5236 12.9959 6.42478Z" fill="white"/>
</svg>
