<svg width="24" height="24" viewBox="0 0 24 24" fill="none" xmlns="http://www.w3.org/2000/svg">
<path d="M12 24C18.6276 24 24 18.6276 24 12C24 5.3724 18.6276 0 12 0C5.3724 0 0 5.3724 0 12C0 18.6276 5.3724 24 12 24Z" fill="#EDF0F4"/>
<path fill-rule="evenodd" clip-rule="evenodd" d="M2.7998 11.8994C2.79947 16.9247 6.87265 20.999 11.898 21C14.3121 21.0005 16.6274 20.0417 18.3345 18.3347C20.0415 16.6276 21.0003 14.3123 20.9998 11.8981C20.9988 6.87283 16.9245 2.79965 11.8992 2.79999C6.87388 2.80033 2.80014 6.87406 2.7998 11.8994ZM20.2877 11.9006C20.2873 16.5338 16.5313 20.2896 11.898 20.2896V20.2804C7.26783 20.2794 3.51343 16.5283 3.50836 11.8981C3.50937 7.2649 7.266 3.50964 11.8992 3.51031C16.5325 3.51099 20.288 7.26735 20.2877 11.9006Z" fill="black"/>
<ellipse cx="11.9997" cy="12" rx="0.799999" ry="0.8" fill="black"/>
</svg>
