<svg width="24" height="24" viewBox="0 0 24 24" fill="none" xmlns="http://www.w3.org/2000/svg">
<circle cx="12" cy="12" r="12" fill="#13BF99"/>
<path fill-rule="evenodd" clip-rule="evenodd" d="M10.4021 8.18899H10.4029H13.7981L15.5021 5.20001H8.69811L10.4021 8.18899ZM8.69811 18.8H12.1001H15.5021L13.7981 15.8103H10.4021L8.69811 18.8ZM17.902 15.3962L16.1972 18.3867L14.4992 15.397H14.5L16.1972 12.4065H19.6L17.902 15.3962ZM8.0021 5.6073L6.2981 8.59703L4.6001 11.586H8.0021L9.7001 8.59703L8.0021 5.6073ZM9.69935 15.397H9.7001L8.0021 18.3868L6.2981 15.397L4.6001 12.4058H8.0021L9.7001 15.3955L9.69935 15.397ZM19.6 11.5868L17.902 8.59703L16.1972 5.6073L14.4992 8.59703L16.198 11.5868H19.6Z" fill="white"/>
</svg>
