<svg width="24" height="24" viewBox="0 0 24 24" fill="none" xmlns="http://www.w3.org/2000/svg">
<circle cx="12" cy="12" r="12" fill="#77C3B0"/>
<path fill-rule="evenodd" clip-rule="evenodd" d="M19.1931 9.98566L17.9303 8.72391C17.5471 8.33902 17.0254 8.12364 16.4821 8.12592H16.2876V7.9241C16.2876 7.57055 16.2038 7.23418 16.0272 6.93145C15.9364 6.75588 15.8168 6.59672 15.6734 6.46054L14.4107 5.19804C14.0272 4.81297 13.5053 4.59758 12.9616 4.60006H7.14313C6.59554 4.60006 6.08236 4.81085 5.69486 5.19804L4.43211 6.45979C4.04574 6.83858 3.82977 7.35784 3.83365 7.89869L3.79999 13.3516C3.79251 13.898 4.01095 14.4279 4.39845 14.8151L5.6612 16.0776C6.04454 16.4623 6.56618 16.6774 7.10947 16.6749H7.33688V16.8767C7.33688 17.2302 7.42141 17.5666 7.59796 17.8693C7.69072 18.0465 7.80817 18.2057 7.9518 18.3402L9.21454 19.6035C9.59824 19.9875 10.1197 20.2023 10.6628 20.2H16.4903C17.0379 20.2 17.5511 19.9899 17.9386 19.6027L19.2021 18.341C19.5866 17.9577 19.8018 17.4366 19.7998 16.8939V11.4246C19.7969 10.8836 19.5789 10.3659 19.1938 9.98566H19.1931ZM7.10963 14.8234C7.05619 14.8234 7.00487 14.8025 6.96675 14.7651L6.33538 14.1334L5.70326 13.5026C5.67614 13.4707 5.65601 13.4335 5.64416 13.3934V7.90768C5.64416 7.84788 5.66959 7.7978 5.70401 7.76416L6.96675 6.50242C6.98258 6.48588 6.9991 6.47765 7.01498 6.46973L7.01687 6.46878C7.04808 6.45251 7.08267 6.44381 7.11786 6.44336H12.9454C12.979 6.44336 13.0044 6.45159 13.0381 6.46878C13.0616 6.47637 13.0774 6.4916 13.0932 6.50683L13.0972 6.51064L14.36 7.77313C14.3784 7.78892 14.3928 7.80892 14.4018 7.83144C14.4108 7.84041 14.4108 7.84863 14.4108 7.85685C14.4108 7.86096 14.4127 7.86526 14.4146 7.86956C14.4164 7.87385 14.4183 7.87815 14.4183 7.88226C14.4183 7.88567 14.4198 7.89203 14.4217 7.89947C14.4242 7.91 14.4273 7.92271 14.4273 7.93235V8.20144C14.4273 8.31954 14.3345 8.40326 14.2253 8.40326H13.2154C13.1617 8.40352 13.1101 8.38257 13.0718 8.34495L12.4988 7.77313H7.56446L7.35425 7.98243L7.06774 8.26946V13.0062L7.56446 13.5026H12.4905L13.0635 12.9225L13.071 12.9136C13.0799 12.9093 13.0888 12.9027 13.0976 12.8961L13.0976 12.8961C13.1058 12.89 13.1139 12.8839 13.1219 12.8799C13.1473 12.8635 13.1817 12.8635 13.2064 12.8635H14.2163C14.2837 12.8635 14.3435 12.8971 14.3854 12.9472C14.4116 12.9811 14.4263 13.0225 14.4273 13.0653V13.3516C14.4272 13.4051 14.4059 13.4564 14.3682 13.4943L13.7368 14.1252L13.1054 14.7561C13.1011 14.7608 13.0942 14.7654 13.0875 14.7698C13.0815 14.7738 13.0756 14.7776 13.0718 14.7815C13.0718 14.7815 13.0635 14.7897 13.0546 14.7897C13.0463 14.7987 13.0381 14.7987 13.0291 14.7987C13.0262 14.7987 13.0244 14.7987 13.0228 14.7992C13.0203 14.8 13.0181 14.8019 13.0127 14.8069C13.0086 14.8069 13.0043 14.809 13 14.811C12.9957 14.8131 12.9914 14.8151 12.9872 14.8151H7.10963V14.8234ZM17.896 17.0195C17.934 16.9816 17.9555 16.9303 17.9558 16.8767C17.9558 16.8767 17.9558 11.4246 17.9468 11.441V11.3991C17.9394 11.3724 17.9281 11.347 17.9132 11.3236C17.9061 11.3089 17.8985 11.3007 17.8917 11.2935C17.8906 11.2923 17.8895 11.2912 17.8885 11.29L17.2564 10.6591L16.625 10.0283C16.5913 9.99388 16.5405 9.96846 16.4821 9.96846H10.6127C10.6086 9.96846 10.6043 9.97071 10.6 9.97295C10.5957 9.97519 10.5914 9.97743 10.5873 9.97743C10.5819 9.98242 10.5797 9.98438 10.5772 9.98515C10.5756 9.98566 10.5738 9.98566 10.5708 9.98566C10.5619 9.98566 10.5536 9.98566 10.5454 9.99463C10.5372 9.99463 10.5282 10.0021 10.5282 10.0021C10.5236 10.0071 10.5165 10.0118 10.5096 10.0165C10.504 10.0202 10.4985 10.0239 10.4945 10.0275L9.86316 10.6591L9.23179 11.29C9.19392 11.3279 9.17266 11.3792 9.17269 11.4328V11.7191C9.17387 11.7616 9.18854 11.8027 9.21458 11.8364C9.25534 11.8886 9.31744 11.9196 9.38365 11.9209H10.3935C10.419 11.9209 10.4526 11.9209 10.4781 11.9037C10.4867 11.8994 10.4956 11.8928 10.5044 11.8862C10.5124 11.8802 10.5204 11.8743 10.5282 11.8701L10.5372 11.8618L11.1095 11.281H16.0273L16.524 11.7781V16.5149L16.2375 16.8012L16.0273 17.0112H11.1012L10.5282 16.4394C10.4945 16.4058 10.4444 16.3804 10.3846 16.3804H9.37467C9.26545 16.3804 9.17269 16.4648 9.17269 16.5822V16.8513C9.17269 16.8614 9.17583 16.8745 9.17839 16.8851C9.18017 16.8925 9.18167 16.8987 9.18167 16.9021C9.18167 16.9061 9.18346 16.9101 9.18529 16.9142C9.1872 16.9185 9.18915 16.9229 9.18915 16.9275C9.18915 16.9357 9.18915 16.9447 9.19812 16.9522C9.20635 16.9776 9.22356 16.9948 9.24002 17.0112L10.5035 18.2737C10.5193 18.2922 10.5393 18.3065 10.5619 18.3156C10.5901 18.3318 10.622 18.3405 10.6546 18.341H16.4821C16.5173 18.3406 16.5519 18.3318 16.5831 18.3156C16.6016 18.3073 16.6185 18.2959 16.6332 18.2819L17.896 17.0195Z" fill="white"/>
</svg>
