<svg width="24" height="24" viewBox="0 0 24 24" fill="none" xmlns="http://www.w3.org/2000/svg">
<path d="M12 24C18.6276 24 24 18.6276 24 12C24 5.3724 18.6276 0 12 0C5.3724 0 0 5.3724 0 12C0 18.6276 5.3724 24 12 24Z" fill="#070A0E"/>
<path fill-rule="evenodd" clip-rule="evenodd" d="M6.93289 16.0236C6.57409 15.804 6.35449 15.414 6.35449 14.994V12.6492C6.35449 12.3708 6.58129 12.1452 6.85969 12.1464C6.94849 12.1464 7.03609 12.1704 7.11289 12.2148L12.4037 15.3C12.7133 15.48 12.9041 15.8112 12.9041 16.17V18.5988C12.9053 18.9324 12.6353 19.2036 12.3017 19.2036C12.1901 19.2036 12.0797 19.1724 11.9849 19.1148L6.93289 16.0236ZM14.8193 11.5728C15.1289 11.7528 15.3185 12.0852 15.3197 12.4428V17.3724C15.3197 17.5176 15.2417 17.652 15.1145 17.7228L13.9565 18.3744C13.9421 18.3828 13.9265 18.3888 13.9097 18.3936V15.6564C13.9097 15.3024 13.7237 14.9736 13.4189 14.7912L8.77246 12.012V8.92201C8.77246 8.64361 8.99926 8.41801 9.27766 8.41921C9.36646 8.41921 9.45406 8.44321 9.53086 8.48761L14.8193 11.5728ZM17.1354 7.93201C17.4462 8.11201 17.637 8.44441 17.637 8.80321V16.0032C17.6358 16.1508 17.5542 16.2864 17.4246 16.3572L16.3266 16.95V11.9376C16.3266 11.5836 16.1406 11.256 15.8382 11.0736L11.0886 8.22481V5.29441C11.0886 5.20561 11.1126 5.11801 11.1558 5.04121C11.2962 4.80121 11.6046 4.71961 11.8446 4.85881L17.1354 7.93201Z" fill="#00D395"/>
</svg>
