<svg width="24" height="24" viewBox="0 0 24 24" fill="none" xmlns="http://www.w3.org/2000/svg">
<path d="M12 0C18.6274 0 24 5.37257 24 12C24 18.6274 18.6274 24 12 24C5.37257 24 0 18.6274 0 12C0 5.37257 5.37257 0 12 0Z" fill="#00467A"/>
<path d="M5.229 10.4337C4.98832 10.4337 4.88135 10.5407 4.88135 10.7546C4.88135 10.7546 4.88135 15.5704 4.88135 16.2657C4.88135 16.5064 4.98832 16.5866 5.229 16.5866C7.87792 16.6134 11.1145 14.2593 13.7901 12.4134V6.04584C11.1419 7.86504 7.82443 10.4605 5.229 10.4337Z" fill="url(#paint0_linear_300_12597)"/>
<path d="M19.1676 12.9216C19.4083 12.9216 19.5152 12.8146 19.5152 12.6007C19.5152 12.6007 19.5152 7.78489 19.5152 7.08957C19.5152 6.84889 19.4083 6.76866 19.1676 6.76866C16.4919 6.74192 13.2821 9.09597 10.6064 10.9419V17.2827C13.2554 15.4635 16.5728 12.8681 19.1676 12.9216Z" fill="url(#paint1_linear_300_12597)"/>
<path d="M13.7901 12.4134V8.77502C12.693 9.47034 11.5965 10.2198 10.5796 10.9151V14.5535C11.7035 13.8582 12.7739 13.1087 13.7901 12.4134Z" fill="#194AAD"/>
<defs>
<linearGradient id="paint0_linear_300_12597" x1="13.8859" y1="14.8797" x2="11.7382" y2="6.18577" gradientUnits="userSpaceOnUse">
<stop offset="0.1" stop-color="#194AAD"/>
<stop offset="0.5" stop-color="#248FCB"/>
<stop offset="0.8" stop-color="#2BBFDF"/>
</linearGradient>
<linearGradient id="paint1_linear_300_12597" x1="11.0951" y1="4.96922" x2="8.26838" y2="16.477" gradientUnits="userSpaceOnUse">
<stop offset="0.1" stop-color="#194AAD"/>
<stop offset="0.5" stop-color="#248FCB"/>
<stop offset="0.8" stop-color="#2BBFDF"/>
</linearGradient>
</defs>
</svg>
