<svg width="24" height="24" viewBox="0 0 24 24" fill="none" xmlns="http://www.w3.org/2000/svg">
<ellipse cx="12.0001" cy="12" rx="11.4" ry="11.4" fill="white"/>
<circle cx="12" cy="12" r="12" fill="url(#paint0_linear_300_15410)"/>
<path d="M11.8977 14.8C11.1767 14.8 10.4995 14.516 9.99162 14.0083C9.47824 13.495 9.19971 12.8234 9.19971 12.0972C9.19971 11.3765 9.4837 10.6995 9.99162 10.1917C10.505 9.67843 11.1822 9.39996 11.9031 9.39996C12.624 9.39996 13.3012 9.67843 13.8092 10.1862C14.8632 11.24 14.8632 12.9545 13.8092 14.0083C13.3012 14.516 12.6186 14.8 11.8977 14.8Z" fill="#FEFEFE"/>
<path d="M4.85254 14.6C4.14512 14.6 3.48057 14.3265 2.9768 13.8223C2.47839 13.3182 2.19971 12.6585 2.19971 11.9505C2.19971 11.2426 2.47839 10.5775 2.9768 10.0787C3.19653 9.85347 3.48057 9.67112 3.76997 9.5424C5.29736 8.86126 6.44424 10.0251 8.25032 8.16403C10.2064 6.15278 8.55579 4.49551 10.0778 2.97769C10.5816 2.47354 11.2461 2.20001 11.9536 2.20001C12.661 2.20001 13.3255 2.4789 13.8239 2.97769C14.8583 4.01281 14.8583 5.6969 13.8239 6.73202C12.3019 8.24448 10.5548 6.57648 8.55043 8.64136C6.63182 10.6204 8.26639 12.2777 6.72293 13.8331C6.22451 14.3265 5.55997 14.6 4.85254 14.6Z" fill="#FEFEFE"/>
<path d="M12.0536 21.8C11.3459 21.8 10.6812 21.5211 10.1772 21.0223C9.67331 20.5235 9.3999 19.8584 9.3999 19.1505C9.3999 18.4425 9.67331 17.7775 10.1772 17.2787C10.397 17.0588 10.6812 16.8711 10.9707 16.7424C12.4986 16.0612 13.6458 17.2304 15.4525 15.3693C17.4092 13.3581 15.7581 11.6955 17.2806 10.1776C17.7845 9.67349 18.4439 9.39996 19.1569 9.39996C19.8646 9.39996 20.5293 9.67349 21.0279 10.1776C22.0572 11.2074 22.0572 12.8915 21.0279 13.9266C19.5054 15.4391 17.7577 13.7764 15.7527 15.836C13.8335 17.8097 15.4632 19.4723 13.9246 21.0276C13.4207 21.5211 12.7613 21.8 12.0536 21.8Z" fill="#FEFEFE"/>
<defs>
<linearGradient id="paint0_linear_300_15410" x1="11.612" y1="28.791" x2="28.791" y2="12.388" gradientUnits="userSpaceOnUse">
<stop stop-color="#744196"/>
<stop offset="1" stop-color="#6FCDE5"/>
</linearGradient>
</defs>
</svg>
