<svg width="24" height="24" viewBox="0 0 24 24" fill="none" xmlns="http://www.w3.org/2000/svg">
<circle cx="12" cy="12" r="12" fill="#EDF0F4"/>
<path fill-rule="evenodd" clip-rule="evenodd" d="M18.8333 7.41096C18.9348 7.36362 19.043 7.47859 18.9821 7.58679L18.0353 9.20983C17.7243 9.73732 17.1562 10.0755 16.534 10.0755H9.20328C8.95983 10.0755 8.71637 10.0957 8.48644 10.1566C8.385 10.1769 8.31061 10.0755 8.35795 9.98078L8.91249 9.04753C9.35206 8.27658 10.1703 7.8032 11.063 7.8032H15.8375C16.5814 7.78967 18.0489 7.73557 18.8333 7.41096ZM17.0547 10.9343C17.1494 10.9343 17.2035 11.0358 17.1561 11.1169L16.3919 12.4289C16.0809 12.9564 15.5128 13.2945 14.8906 13.2945H7.5599C7.31644 13.2945 7.07298 13.3148 6.84305 13.3757H6.82276C6.72809 13.3757 6.67399 13.2742 6.72132 13.1931L7.64781 11.5903C7.85745 11.2319 8.23616 11.0155 8.65545 11.0155H16.3243C16.5678 11.0155 16.8112 10.9952 17.0412 10.9343H17.0547ZM15.4252 14.3224C15.4658 14.2277 15.3846 14.1263 15.2832 14.1466C15.0668 14.2074 14.8436 14.2548 14.6069 14.2548H6.90422C6.48494 14.2548 6.10623 14.4712 5.89658 14.8296L5.01744 16.3377C4.9701 16.4188 5.0242 16.5203 5.11888 16.5203L12.7742 16.5C13.6331 16.5 14.4311 16.0401 14.8571 15.303L15.4252 14.3224Z" fill="#35C480"/>
</svg>
