<svg width="25" height="25" viewBox="0 0 25 25" fill="none" xmlns="http://www.w3.org/2000/svg">
<path d="M12 25C18.6276 25 24 19.6276 24 13C24 6.3724 18.6276 1 12 1C5.3724 1 0 6.3724 0 13C0 19.6276 5.3724 25 12 25Z" fill="white"/>
<path fill-rule="evenodd" clip-rule="evenodd" d="M0.200195 12.6C0.200195 5.97256 5.57278 0.599976 12.2002 0.599976C15.3828 0.599976 18.435 1.86426 20.6855 4.11469C22.9359 6.36513 24.2002 9.41738 24.2002 12.6C24.2002 19.2274 18.8276 24.6 12.2002 24.6C5.57278 24.6 0.200195 19.2274 0.200195 12.6ZM17.3747 17.3743L13.1667 13.1663V13.1919C13.092 13.1183 13.0332 13.03 12.9939 12.9327C12.9505 12.8317 12.9287 12.7227 12.9299 12.6127C12.9293 12.5031 12.95 12.3945 12.9907 12.2927C13.0308 12.1959 13.0895 12.1078 13.1635 12.0335L17.3747 7.82234C17.536 7.66467 17.6226 7.44584 17.6128 7.22051C17.603 6.99519 17.4979 6.78466 17.3235 6.64154C14.2141 4.17494 9.73048 4.51507 7.02871 7.42252C4.32694 10.33 4.31609 14.8264 7.0038 17.7469C9.69151 20.6674 14.1734 21.0291 17.2947 18.5775C17.4777 18.4369 17.5914 18.2243 17.6067 17.994C17.622 17.7637 17.5375 17.538 17.3747 17.3743Z" fill="#69E2DC"/>
</svg>
