<svg width="24" height="24" viewBox="0 0 24 24" fill="none" xmlns="http://www.w3.org/2000/svg">
<circle cx="12" cy="12" r="12" fill="#EDF0F4"/>
<path fill-rule="evenodd" clip-rule="evenodd" d="M4.6001 7.66922L12.0001 3.39999L19.4001 7.66922V16.2077L12.0001 20.4769L4.6001 16.2077V7.66922ZM9.07929 7.09111H14.9073L15.6043 10.0559H8.39712L9.07929 7.09111ZM10.562 14.0286L10.7548 12.1756L10.1171 10.5154H13.8838L13.261 12.1756L13.4389 14.0286H11.9856H10.562ZM14.9218 17.1416H13.8689L12.6084 15.9853V15.3924L13.9134 14.1472V12.1756L15.6188 11.0639L17.5615 12.5314L14.9218 17.1416ZM10.1617 17.1564L11.4223 15.9853V15.3924L10.1172 14.1472V12.1756L8.39701 11.0787L6.43949 12.5314L9.094 17.1564H10.1617Z" fill="#03316C"/>
</svg>
