<svg width="24" height="24" viewBox="0 0 24 24" fill="none" xmlns="http://www.w3.org/2000/svg">
<circle cx="12" cy="12" r="12" fill="#2992FB"/>
<path fill-rule="evenodd" clip-rule="evenodd" d="M14.4561 9.31405L14.2261 9.54405C13.6567 9.07241 12.9395 8.81612 12.2001 8.82005C10.5257 8.82018 9.13673 10.1157 9.02013 11.786H8.69013C8.80146 9.93065 10.3414 8.48459 12.2001 8.49005C13.0256 8.4943 13.8239 8.78561 14.4581 9.31405H14.4561ZM12.1999 9.65999C12.9559 9.65991 13.6664 10.0211 14.1119 10.632L14.3419 10.4C13.6502 9.47794 12.4461 9.10191 11.3526 9.46646C10.2591 9.83101 9.5216 10.8543 9.5216 12.007C9.5216 13.1596 10.2591 14.183 11.3526 14.5475C12.4461 14.9121 13.6502 14.536 14.3419 13.614L14.1119 13.384C13.4636 14.2898 12.2692 14.6172 11.2497 14.1687C10.2301 13.7202 9.66449 12.6185 9.89418 11.5286C10.1239 10.4387 11.086 9.65892 12.1999 9.65999ZM14.722 9.56198L14.49 9.79998C14.566 9.8785 14.6375 9.9613 14.704 10.048L14.934 9.79998C14.8675 9.71328 14.7961 9.63048 14.72 9.55198L14.722 9.56198ZM8.6723 12.23C8.75468 13.5542 9.57583 14.719 10.7953 15.2417C12.0148 15.7643 13.4246 15.5556 14.4403 14.702L14.2003 14.472C13.6335 14.9433 12.9194 15.2009 12.1823 15.2C10.5057 15.2007 9.11495 13.9027 9.0003 12.23H8.6723ZM14.4881 14.23L14.7181 14.46C14.7952 14.3777 14.8673 14.2909 14.9341 14.2L14.7041 13.97C14.6376 14.0567 14.5661 14.1395 14.4901 14.218L14.4881 14.23ZM12.2 15.988C9.99753 15.988 8.21204 14.2025 8.21204 12C8.21204 9.7975 9.99753 8.01202 12.2 8.01202C13.3871 8.01141 14.5118 8.54366 15.264 9.46202L15.494 9.23202C14.2081 7.70166 12.039 7.25573 10.2536 8.15467C8.46825 9.05361 7.53476 11.0617 7.99837 13.0061C8.46199 14.9505 10.2011 16.3214 12.2 16.318C13.4755 16.3216 14.6853 15.7527 15.496 14.768L15.266 14.538C14.5181 15.463 13.3895 15.9967 12.2 15.988Z" fill="white"/>
</svg>
