<svg width="24" height="24" viewBox="0 0 24 24" fill="none" xmlns="http://www.w3.org/2000/svg">
<path d="M12 24C18.6276 24 24 18.6276 24 12C24 5.3724 18.6276 0 12 0C5.3724 0 0 5.3724 0 12C0 18.6276 5.3724 24 12 24Z" fill="#141414"/>
<path d="M8.04844 9.0369L12.501 6.46658C12.6547 6.37776 12.8436 6.37776 12.9973 6.46658L15.8017 8.08519C16.0837 8.24734 16.1344 8.63366 15.9046 8.86489L14.9543 9.82083C14.7964 9.98015 14.5497 10.0126 14.3551 9.89979L13.0016 9.11868C12.8451 9.02844 12.6519 9.02844 12.4954 9.11868L7.80029 11.8568V9.46693C7.80029 9.28928 7.89476 9.12573 8.04844 9.0369Z" fill="#FA8C16"/>
<path d="M15.8116 15.9188L12.9959 17.5431C12.8422 17.6319 12.6533 17.6319 12.501 17.5431L8.04844 14.9728C7.89476 14.8839 7.80029 14.7204 7.80029 14.5441V12.3757L10.0943 11.0461V13.2188C10.0943 13.3964 10.1887 13.56 10.3424 13.6474L12.501 14.8938C12.6547 14.9826 12.8436 14.9826 12.9959 14.8938L14.3621 14.1056C14.5567 13.9929 14.802 14.0253 14.96 14.1846L15.9131 15.1377C16.1443 15.369 16.0936 15.7553 15.8116 15.9188Z" fill="white"/>
</svg>
