<svg width="24" height="24" viewBox="0 0 24 24" fill="none" xmlns="http://www.w3.org/2000/svg">
<circle cx="12" cy="12" r="12" fill="#EDF0F4"/>
<circle cx="12" cy="12" r="9" fill="#0F1529"/>
<path fill-rule="evenodd" clip-rule="evenodd" d="M7.35126 12.1032C7.25621 11.9437 7.16228 11.7837 7.06836 11.6237L7.09352 11.592C7.16103 11.6057 7.22849 11.6195 7.29594 11.6333C7.44691 11.6643 7.59785 11.6952 7.74933 11.7238C8.22847 11.8137 8.70817 11.8369 9.18563 11.7209C9.79392 11.5734 10.3116 11.25 10.7735 10.8214C11.2901 10.342 11.6809 9.75734 12.0689 9.16707C12.2427 8.90246 12.2914 8.67518 12.0851 8.41962C12.0601 8.38866 12.0385 8.35467 12.0132 8.31462C12.0006 8.29471 11.987 8.27329 11.9716 8.25L11.886 8.40492C11.5344 9.04494 11.1464 9.65896 10.6683 10.2063C10.3698 10.5472 10.0382 10.8463 9.6357 11.0493C8.98883 11.3755 8.31848 11.3557 7.63975 11.185C7.11085 11.0527 6.61158 10.8355 6.1179 10.602C6.06506 10.577 6.01151 10.5536 5.95787 10.5302C5.92921 10.5177 5.90052 10.5051 5.8719 10.4923L5.8501 10.5217C5.85722 10.536 5.86415 10.5504 5.87108 10.5647C5.88811 10.6001 5.90515 10.6354 5.92502 10.6687L6.50871 11.661C6.62189 11.8535 6.73507 12.046 6.84825 12.2385C7.4552 13.2708 8.06228 14.3032 8.67015 15.3349C8.7717 15.5068 8.81247 15.5833 8.86893 15.5975C8.92593 15.6119 8.99893 15.5629 9.16662 15.4848C9.32149 15.413 9.32149 15.4084 9.23204 15.258L7.35126 12.1032ZM16.8349 11.5782C16.8663 11.5714 16.9004 11.564 16.9386 11.5553C16.925 11.5813 16.9144 11.6022 16.9055 11.6199C16.8908 11.6488 16.8805 11.6691 16.8687 11.6887C16.7776 11.8404 16.6859 11.9919 16.5942 12.1433C16.4648 12.357 16.3353 12.5708 16.2073 12.7856C15.7988 13.4706 15.3925 14.1568 14.9861 14.843L14.9857 14.8436C14.9399 14.9205 14.8912 14.9607 14.7995 14.9126C14.1588 14.5802 13.4628 14.4761 12.7645 14.397C12.0183 14.3125 11.2638 14.3436 10.527 14.4891C10.3952 14.5148 10.3288 14.526 10.3098 14.5621C10.2907 14.5984 10.3196 14.66 10.3783 14.7871C10.485 15.0189 10.5247 15.0381 10.7484 14.9991C12.1785 14.7503 13.564 14.8753 14.8868 15.5323C15.0869 15.6312 15.13 15.6165 15.2451 15.4209C16.1833 13.8282 17.1203 12.2349 18.0574 10.6416C18.0763 10.6097 18.0935 10.5765 18.117 10.5313C18.1268 10.5123 18.1376 10.4913 18.1502 10.4675C18.1237 10.4781 18.1042 10.4854 18.0889 10.4912C18.0685 10.4989 18.0556 10.5037 18.0434 10.5099C17.4016 10.8316 16.7469 11.1183 16.0379 11.2381C15.5364 11.3235 15.0372 11.3512 14.5468 11.1624C14.0476 10.9696 13.6691 10.6083 13.3152 10.2114L13.0697 9.93885L12.888 10.2368C12.817 10.3533 12.8394 10.4551 12.9327 10.5444C12.9874 10.5971 13.0415 10.6503 13.0957 10.7036C13.2323 10.8379 13.369 10.9723 13.5131 11.0973C14.0112 11.5282 14.5759 11.7956 15.2334 11.821C15.7254 11.8397 16.2012 11.7408 16.6736 11.6158C16.7234 11.6024 16.774 11.5914 16.8349 11.5782Z" fill="white"/>
</svg>
