<svg width="24" height="24" viewBox="0 0 24 24" fill="none" xmlns="http://www.w3.org/2000/svg">
<circle cx="12" cy="12" r="12" fill="#EDF0F4"/>
<circle cx="12" cy="12" r="8.25" fill="white"/>
<path d="M11.1991 8.70815C10.5832 9.024 10.1148 9.58549 9.89946 10.2661C9.55193 11.2707 9.50581 12.3621 9.76724 13.3948C9.89308 13.9908 10.1827 14.5355 10.6006 14.9619C10.9023 15.2785 11.2834 15.4996 11.7001 15.6L11.6288 8.54999C11.467 8.61362 11.3261 8.64634 11.1991 8.70815Z" fill="black"/>
<path fill-rule="evenodd" clip-rule="evenodd" d="M3 12C3 7.02944 7.02944 3 12 3C14.3869 3 16.6761 3.94821 18.364 5.63604C20.0518 7.32387 21 9.61305 21 12C21 16.9706 16.9706 21 12 21C7.02944 21 3 16.9706 3 12ZM15.5334 15.0006C15.6301 14.9004 15.7076 14.7832 15.762 14.655C15.8021 14.5503 15.7798 14.4319 15.7044 14.349C15.6218 14.2844 15.5162 14.2571 15.4128 14.2734C15.3112 14.3149 15.2188 14.3761 15.141 14.4534C15.0484 14.5206 14.9573 14.5903 14.8663 14.66C14.6795 14.8031 14.4929 14.9461 14.2932 15.0672C13.8521 15.3134 13.3694 15.4763 12.8694 15.5478L12.7992 8.43416C12.9126 8.44136 13.0242 8.45396 13.1358 8.47196C13.6684 8.57035 14.1299 8.90001 14.3958 9.37196C14.462 9.48967 14.5232 9.61034 14.5845 9.73111C14.6497 9.85964 14.7149 9.98827 14.7864 10.1136C14.8518 10.2818 15.0399 10.3667 15.2094 10.3044C15.3552 10.2486 15.3966 10.128 15.3678 9.89936C15.3294 9.71478 15.3161 9.52589 15.3282 9.33776C15.3887 8.97617 15.2149 8.61566 14.8944 8.43776C14.3921 8.10664 13.823 7.8903 13.2276 7.80416L12.8118 7.73216C12.8299 7.60611 12.8453 7.48431 12.8604 7.3656C12.8903 7.13001 12.9187 6.90659 12.963 6.68636C13.0191 6.2582 13.1805 5.85064 13.4328 5.50016C13.7154 5.15276 14.1042 5.10596 14.5002 5.37776C14.4826 5.40371 14.4644 5.4292 14.4462 5.45472C14.4138 5.50001 14.3813 5.54541 14.3526 5.59376C14.2052 5.83178 14.233 6.13862 14.421 6.34616C14.6042 6.55707 14.9037 6.62355 15.159 6.50996C15.4215 6.40892 15.5776 6.13799 15.5334 5.86016C15.499 5.66699 15.4249 5.48309 15.3156 5.32016C14.9249 4.77335 14.2207 4.54914 13.5858 4.76936C12.9156 5.00232 12.3732 5.50482 12.09 6.15536C11.8475 6.6556 11.7062 7.19879 11.6742 7.75376C11.6624 7.76139 11.653 7.76928 11.6449 7.7761C11.6319 7.78699 11.6222 7.79516 11.6112 7.79516L11.3178 7.85996C10.2815 8.07013 9.38508 8.71431 8.85536 9.62936C8.16038 10.7781 8.02781 12.1813 8.49536 13.44C9.00656 14.9286 10.02 15.8592 11.5788 16.1706C11.6265 16.1851 11.6724 16.205 11.7156 16.23C11.6977 16.7326 11.611 17.2304 11.4582 17.7096C11.3764 17.9668 11.2549 18.2098 11.0982 18.4296C10.8372 18.768 10.4196 18.7878 10.0596 18.5178C10.0742 18.4981 10.0893 18.4786 10.1044 18.4591C10.1379 18.416 10.1715 18.3728 10.2 18.327C10.3426 18.0965 10.3252 17.8013 10.1566 17.5891C9.98795 17.3769 9.70431 17.2933 9.44756 17.3802C9.17764 17.4611 9.00169 17.7205 9.02636 18.0012C9.04439 18.1925 9.10596 18.3772 9.20636 18.5412C9.60759 19.1623 10.3963 19.4065 11.0784 19.1208C11.8308 18.8328 12.297 18.2568 12.576 17.5368C12.6785 17.2634 12.7512 16.981 12.8255 16.6923C12.8608 16.5551 12.8965 16.4165 12.936 16.2768C12.9216 16.284 12.9396 16.2678 12.9576 16.2678L13.1934 16.2282C14.0909 16.0989 14.9169 15.6656 15.5334 15.0006Z" fill="black"/>
</svg>
