<svg width="24" height="24" viewBox="0 0 24 24" fill="none" xmlns="http://www.w3.org/2000/svg">
<path d="M12 24C18.6276 24 24 18.6276 24 12C24 5.3724 18.6276 0 12 0C5.3724 0 0 5.3724 0 12C0 18.6276 5.3724 24 12 24Z" fill="#EDF0F4"/>
<path d="M17.4783 15.7959C17.1389 15.7959 16.851 16.0324 16.779 16.3616L14.0792 16.233C14.0895 16.1816 14.0947 16.1302 14.0947 16.0787C14.0947 15.9862 14.0792 15.8936 14.0535 15.801L15.0357 15.2354C15.2774 15.5336 15.7145 15.5953 16.0282 15.3691C16.3419 15.1428 16.4241 14.7109 16.2133 14.3869C16.0025 14.0629 15.5757 13.9601 15.2414 14.1503C14.9071 14.3406 14.7786 14.7623 14.9534 15.1068L14.0021 15.6571C13.7758 15.1788 13.2153 14.9628 12.7268 15.1634C12.2383 15.3639 11.9914 15.9142 12.1663 16.413L10.3973 16.8398C10.387 16.5981 10.2842 16.3718 10.1145 16.197L10.4333 15.7548C10.7933 15.8782 11.1892 15.6982 11.3332 15.3434C11.4772 14.9885 11.3178 14.5823 10.9732 14.4229C10.6287 14.2583 10.2122 14.3972 10.0322 14.7314C9.85221 15.0657 9.96534 15.4874 10.2893 15.6879L9.99619 16.0942C9.7905 15.9399 9.52824 15.873 9.27112 15.9039L8.96772 14.1709C9.34825 14.0886 9.64137 13.7904 9.72365 13.415C9.80592 13.0344 9.66194 12.6436 9.3534 12.4122C9.04485 12.1757 8.62832 12.1448 8.28893 12.3248L7.52271 10.8284C7.68727 10.7461 7.82097 10.6175 7.91868 10.4633L8.55633 10.633C8.55119 10.669 8.54605 10.6998 8.54605 10.7358C8.54605 11.1061 8.82887 11.4197 9.19913 11.4557C9.56938 11.4917 9.90877 11.2398 9.97562 10.8695C10.0425 10.4993 9.82135 10.1444 9.46139 10.0467C9.10142 9.94389 8.72603 10.1342 8.59233 10.4838L7.99067 10.3244C8.07295 10.129 8.08837 9.91304 8.03695 9.70734L9.81107 8.88971C10.1402 9.30109 10.7367 9.38851 11.1686 9.07997C11.6006 8.77143 11.7137 8.18006 11.4258 7.73782L12.5571 6.63221C12.6959 6.71963 12.8553 6.77619 13.0148 6.78648V7.275C12.6394 7.31614 12.3565 7.64525 12.3771 8.02579C12.3977 8.40632 12.7114 8.70458 13.0919 8.70458C13.4724 8.70458 13.7861 8.40632 13.8067 8.02579C13.8273 7.64525 13.5496 7.31614 13.169 7.275V6.78648C13.313 6.77619 13.4467 6.73506 13.5701 6.66821L14.8094 8.08235C14.5215 8.46289 14.542 8.99255 14.8557 9.34738C15.1746 9.7022 15.6991 9.78448 16.1105 9.53764C16.5218 9.29081 16.6967 8.792 16.5373 8.34461L16.923 8.12864C17.1698 8.41661 17.5966 8.46803 17.9 8.23663C18.2034 8.01036 18.2754 7.58355 18.0646 7.26986C17.8537 6.95618 17.432 6.85847 17.1081 7.05388C16.7841 7.24929 16.6658 7.66068 16.8407 8.00008L16.4756 8.20577C16.3264 7.93323 16.059 7.7481 15.7556 7.70182C15.4522 7.65554 15.1386 7.75324 14.9174 7.96922L13.7038 6.58593C13.8221 6.49336 13.9198 6.36995 13.9867 6.23625L15.0511 6.41109C15.1334 6.78134 15.4934 7.02303 15.8636 6.95618C16.239 6.89447 16.4961 6.54993 16.455 6.17454C16.4139 5.79915 16.0847 5.51632 15.7094 5.53689C15.3288 5.55745 15.0357 5.866 15.0306 6.24653L14.0432 6.08198C14.1821 5.60888 13.9558 5.10493 13.5084 4.89409C13.061 4.68325 12.5314 4.83752 12.2588 5.24891C11.9863 5.6603 12.0583 6.21053 12.4285 6.53965L11.3281 7.6144C11.1584 7.41899 10.9167 7.29557 10.6596 7.275V6.52422C11.0349 6.48308 11.3178 6.15397 11.2972 5.77343C11.2766 5.3929 10.9681 5.09978 10.5876 5.09978C10.207 5.09978 9.89334 5.39804 9.87277 5.77858C9.85221 6.15911 10.1299 6.48822 10.5104 6.52936V7.275C10.171 7.30072 9.86763 7.50127 9.70822 7.79952C9.54881 8.10292 9.55395 8.46289 9.72365 8.76115L7.99581 9.55307C7.9341 9.40394 7.8364 9.27538 7.71298 9.17254L8.38663 7.95894C8.44834 7.97436 8.50491 7.98465 8.56661 7.98465C8.93172 7.98465 9.23512 7.7121 9.2814 7.35214C9.32768 6.99217 9.09114 6.65792 8.74145 6.5705C8.38663 6.48308 8.02667 6.67335 7.89811 7.01274C7.76955 7.35214 7.91868 7.73267 8.2375 7.90237L7.58442 9.08511C7.18846 8.84857 6.68965 8.91542 6.36568 9.24453C6.04686 9.57364 5.99029 10.0724 6.23198 10.4633C6.47367 10.8541 6.94677 11.0289 7.38387 10.8901L8.16037 12.4071C7.96496 12.5511 7.82611 12.767 7.77983 13.0036L7.21417 12.839C7.2296 12.7825 7.23474 12.7208 7.23474 12.6642C7.23474 12.2991 6.9622 11.9957 6.60223 11.9546C6.24227 11.9134 5.90801 12.1448 5.82059 12.4996C5.73317 12.8545 5.92858 13.2144 6.27312 13.3378C6.61252 13.4613 6.99305 13.3121 7.15761 12.9882L7.75926 13.163C7.75926 13.1784 7.75926 13.1939 7.75926 13.2093C7.75926 13.5487 7.92896 13.8624 8.21693 14.0424L7.83126 14.5463C7.54843 14.2943 7.11647 14.3098 6.84907 14.5823C6.58166 14.8548 6.57138 15.2817 6.8285 15.5645C7.08561 15.8473 7.51243 15.8782 7.81069 15.6365C8.10894 15.3948 8.16037 14.968 7.93925 14.6594L8.35578 14.1143C8.47919 14.1709 8.61804 14.1966 8.75688 14.1966C8.77745 14.1966 8.79802 14.1966 8.81859 14.1915L9.12713 15.9347C8.71574 16.0582 8.42777 16.4335 8.41234 16.8604C8.40206 17.2923 8.66946 17.678 9.07571 17.822C9.48196 17.966 9.93448 17.8323 10.1967 17.4877L11.6366 18.1305C11.6263 18.182 11.616 18.2385 11.616 18.2899C11.616 18.6551 11.8886 18.9636 12.2537 19.0047C12.6188 19.0459 12.953 18.8093 13.0353 18.4545C13.1176 18.0997 12.9171 17.7397 12.5725 17.6163C12.228 17.4929 11.8474 17.6523 11.688 17.9814L10.2842 17.354C10.3459 17.2409 10.387 17.1175 10.3973 16.9889L12.228 16.5415C12.3668 16.7987 12.6137 16.9786 12.9016 17.0403C13.1896 17.0969 13.4879 17.0249 13.7141 16.8449L14.3981 17.4363C14.2386 17.786 14.3775 18.1974 14.7169 18.3722C15.0563 18.5522 15.4728 18.4339 15.6682 18.1048C15.8636 17.7757 15.7711 17.354 15.4574 17.1381C15.1386 16.9221 14.7117 16.9941 14.4803 17.2975L13.8273 16.7369C13.925 16.6341 13.9969 16.5055 14.0432 16.3718L16.7635 16.5055C16.7687 16.9015 17.0875 17.2152 17.4835 17.2152C17.8794 17.2152 18.1983 16.8912 18.1931 16.5004C18.1931 16.1147 17.8743 15.7959 17.4783 15.7959Z" fill="#FF473E"/>
</svg>
