<svg width="24" height="24" viewBox="0 0 24 24" fill="none" xmlns="http://www.w3.org/2000/svg">
<circle cx="12" cy="12" r="12" fill="#EDF0F4"/>
<path d="M17.5395 15.2069C16.4319 17.116 14.366 18.4 12 18.4C8.46539 18.4 5.6 15.5345 5.6 12C5.6 8.46531 8.46539 5.6 12 5.6C14.3683 5.6 16.4359 6.8864 17.5427 8.79858L18.9275 7.9966C17.5438 5.60735 14.9597 4 12 4C7.58172 4 4 7.58171 4 12C4 16.4183 7.58172 20 12 20C14.9582 20 17.5411 18.3942 18.9253 16.007L17.5395 15.2069Z" fill="#202020"/>
<path d="M19.9999 11.2L13.3841 11.2C13.1073 10.7222 12.5918 10.4 11.9999 10.4C11.1162 10.4 10.3999 11.1163 10.3999 12C10.3999 12.8836 11.1162 13.6 11.9999 13.6C12.5918 13.6 13.1073 13.2777 13.3841 12.8L19.9999 12.8V11.2Z" fill="#202020"/>
</svg>
