<svg width="24" height="24" viewBox="0 0 24 24" fill="none" xmlns="http://www.w3.org/2000/svg">
<circle cx="12" cy="12" r="12" fill="#EDF0F4"/>
<path fill-rule="evenodd" clip-rule="evenodd" d="M6.38879 4.94896C7.87843 3.76198 9.56997 3.28031 11.4196 3.03806C12.1875 2.93747 13.0311 3.05158 13.7848 3.20193C17.7803 3.99897 20.8133 7.53743 20.9916 11.5983C21.191 16.1401 17.8092 20.3016 13.2592 20.913C12.1126 21.067 10.9306 21.0208 9.80522 20.7402C8.86514 20.5058 7.95227 20.129 7.13965 19.5999C3.15589 17.0058 1.83908 11.789 4.10732 7.62858C4.67234 6.59221 5.46695 5.68351 6.38879 4.94896ZM12.8538 7.00929C12.5543 6.89398 12.2075 6.76043 11.9451 6.7829C11.698 6.80406 11.4319 6.90048 11.1799 6.9918L11.1799 6.9918L11.1798 6.99183L11.1797 6.99185C11.0817 7.02738 10.9857 7.06214 10.8939 7.09138C10.2464 7.29755 9.59392 7.49705 8.94165 7.6876L8.94028 7.688C8.78376 7.73369 7.899 7.99197 8.38405 8.26366C8.55288 8.35821 8.89778 8.22399 9.15196 8.12507C9.23094 8.09434 9.30116 8.06701 9.35462 8.05102C9.94337 7.87481 10.5322 7.69718 11.1191 7.51529C11.1914 7.49291 11.2687 7.46412 11.3488 7.43432C11.569 7.35235 11.8098 7.26275 12.0202 7.27796C12.2189 7.29235 12.4247 7.36647 12.6236 7.43809L12.6236 7.4381C12.7121 7.46996 12.7992 7.50132 12.8837 7.52671C13.0261 7.56952 13.1687 7.61201 13.3113 7.65451L13.3115 7.65455L13.3116 7.65459L13.3117 7.65463L13.3119 7.65467L13.3119 7.65469C13.7206 7.77648 14.1293 7.89829 14.5356 8.02765C14.5929 8.0459 14.6657 8.07425 14.7467 8.10579L14.7467 8.10579C15.0093 8.20806 15.3582 8.34394 15.5472 8.27857C15.7959 8.19258 15.7005 7.91631 15.5101 7.83676C15.0462 7.64308 14.5495 7.50972 14.0549 7.37694C13.7485 7.29468 13.4429 7.21264 13.1465 7.11662C13.0586 7.08817 12.9592 7.04988 12.8539 7.00934L12.8538 7.0093L12.8538 7.00929ZM6.99154 8.32602C7.26828 8.2287 7.48909 8.7574 7.62054 9.07211C7.64925 9.14085 7.67369 9.19938 7.69353 9.23895C7.86002 9.57114 8.03026 9.9014 8.20051 10.2317C8.37062 10.5617 8.54076 10.8918 8.70719 11.2238C8.75999 11.3292 8.81108 11.4408 8.86298 11.5542C8.99491 11.8423 9.13207 12.142 9.31588 12.3793C9.46499 12.5717 9.93342 12.5364 10.2706 12.511C10.3677 12.5037 10.454 12.4971 10.5185 12.4971H13.4844C13.5561 12.4971 13.6486 12.5044 13.7505 12.5125C14.0493 12.5361 14.4292 12.5661 14.6027 12.4371C14.7207 12.3495 14.7936 12.1824 14.8587 12.0333C14.8796 11.9852 14.8998 11.939 14.9204 11.8979L15.5211 10.6995C15.6844 10.3735 15.8517 10.0494 16.0189 9.72513C16.1859 9.40145 16.3529 9.07771 16.5162 8.75209C16.5236 8.73721 16.5316 8.72066 16.5402 8.70293L16.5403 8.70283C16.6325 8.51218 16.7901 8.18627 17.0353 8.34688C17.1883 8.44708 17.1949 8.7438 17.1997 8.95723C17.2008 9.00689 17.2018 9.05203 17.2046 9.08915C17.2555 9.78277 17.231 10.4572 17.1665 11.1489C16.9465 13.5087 15.7491 15.7255 13.8974 17.2009L13.8168 17.2653C13.32 17.6622 12.6646 18.1859 12.0578 18.3368C11.9059 18.3745 11.7359 18.278 11.5917 18.196C11.5578 18.1767 11.5252 18.1582 11.4947 18.1425C11.0177 17.8969 10.5713 17.5884 10.1431 17.2673C8.23374 15.8359 7.06802 13.5716 6.80364 11.2238C6.72151 10.4944 6.72207 9.78292 6.76291 9.0517C6.76444 9.02413 6.76533 8.99248 6.76629 8.95812C6.77253 8.73561 6.78194 8.39969 6.99154 8.32602ZM7.24956 11.1312C7.16484 10.5622 7.06153 9.86822 7.2147 9.35131L7.78713 10.4374L8.80079 12.4223L11.4195 17.553C10.8982 17.3286 10.4156 16.9188 9.9929 16.5476C8.48182 15.2207 7.56055 13.3517 7.28491 11.3736C7.27412 11.2962 7.26205 11.2151 7.24957 11.1313L7.24956 11.1312ZM16.7129 9.35131C16.1462 10.7091 15.4352 12.024 14.7274 13.3332L14.7274 13.3332C14.3517 14.028 13.9769 14.7212 13.625 15.4183C13.5112 15.6437 13.3781 15.8729 13.2431 16.1053L13.243 16.1053C12.9691 16.5768 12.6876 17.0612 12.5456 17.553C14.8048 16.4995 16.2476 13.9666 16.6408 11.5983C16.731 11.0549 16.788 10.5013 16.788 9.95052C16.788 9.90977 16.79 9.86666 16.7921 9.82251V9.82251C16.8 9.65721 16.8085 9.47725 16.7129 9.35131ZM11.9452 17.5904L9.57999 12.9466H14.3855L12.0203 17.5904H11.9452Z" fill="#E1A94C"/>
</svg>
