<svg width="24" height="24" viewBox="0 0 24 24" fill="none" xmlns="http://www.w3.org/2000/svg">
<path fill-rule="evenodd" clip-rule="evenodd" d="M12 0C5.376 0 0 5.376 0 12C0 18.624 5.376 24 12 24C18.624 24 24 18.624 24 12C24 5.376 18.624 0 12 0Z" fill="black"/>
<path d="M8.03955 9.66025L12.2855 5L14.0338 9.67286" stroke="white" stroke-width="2" stroke-linecap="round" stroke-linejoin="round"/>
<path d="M13.9746 16.3202L11.4939 19.0313L9.74561 14.3542" stroke="white" stroke-width="2" stroke-linecap="round" stroke-linejoin="round"/>
<path d="M15.778 14.3542L13.9746 16.3202" stroke="white" stroke-width="2"/>
<path d="M14.0253 9.67288H17.0732L18.8215 14.3542H12.7849L11.0366 9.67288H5L6.74833 14.3542H9.74547" stroke="white" stroke-width="2" stroke-linecap="round" stroke-linejoin="round"/>
<path d="M14.0295 9.67288L9.74121 14.3542" stroke="white" stroke-width="2"/>
</svg>
