<svg width="24" height="24" viewBox="0 0 24 24" fill="none" xmlns="http://www.w3.org/2000/svg">
<circle cx="12" cy="12" r="12" fill="black"/>
<path d="M12.0225 3.29885C11.9123 3.05111 12.3107 2.87544 12.4209 3.11116C15.0105 7.54944 17.6001 11.99 20.1897 16.435C20.0516 16.435 19.9188 16.39 19.786 16.3689L12.8744 14.9981C12.648 14.9869 12.5982 14.6228 12.8193 14.5687L15.5311 13.8255C15.5966 13.809 15.6512 13.7643 15.6801 13.7036C15.709 13.6429 15.7091 13.5725 15.6805 13.5117L12.0225 3.29284V3.29809V3.29885Z" fill="white"/>
<path d="M11.6244 3.32135C11.6493 3.35738 11.6712 3.39642 11.6901 3.43696C12.5095 5.74919 13.3501 8.06142 14.1635 10.3737C14.2359 10.5658 13.9643 10.7257 13.8315 10.5824C13.1343 9.85565 12.4703 9.10718 11.7844 8.38048C11.6735 8.28138 11.5128 8.34745 11.4411 8.4518L4.3144 16.7818C4.2314 16.8697 4.15972 17.0018 4.02089 17.0183C3.92129 17.0183 3.85489 16.941 3.7998 16.8644V16.7368C6.41129 12.267 9.01975 7.79566 11.6244 3.32135Z" fill="white"/>
<path d="M9.44387 11.2543C9.57667 11.216 9.75323 11.3091 9.70947 11.469C9.43255 12.4269 9.13979 13.3796 8.85155 14.3315C8.80779 14.4531 8.91795 14.5627 9.03415 14.5688C12.7639 15.312 16.4936 16.0822 20.2225 16.8254C20.295 16.8367 20.3448 16.8915 20.3999 16.9358V17.0897L20.2942 17.2H4.46387C6.12387 15.2181 7.77859 13.225 9.44387 11.2543Z" fill="white"/>
</svg>
