<svg width="24" height="24" viewBox="0 0 24 24" fill="none" xmlns="http://www.w3.org/2000/svg">
<circle cx="12" cy="12" r="12" fill="#EDF0F2"/>
<ellipse cx="11.9961" cy="12.0032" rx="8.99468" ry="8.99468" fill="#C8D2D9"/>
<path d="M17.7071 18.9443C16.3357 20.0766 14.655 20.7728 12.8827 20.9416C10.5128 21.1736 8.14278 20.4563 6.29321 18.9443C4.45067 17.4323 3.28326 15.2522 3.04415 12.8752C2.86834 11.103 3.21997 9.32373 4.05684 7.75546C4.89372 6.1872 6.18069 4.90023 7.74895 4.06335C9.31722 3.22648 11.0965 2.86781 12.8687 3.04363C14.6409 3.21944 16.3146 3.90864 17.693 5.04088L15.8786 7.25615C14.9433 6.4896 13.797 6.01138 12.5874 5.89886C11.3778 5.77931 10.1682 6.02545 9.09921 6.59509C8.03026 7.16473 7.15822 8.0438 6.58154 9.11275C6.0119 10.1817 5.7728 11.3983 5.89235 12.6009C6.0541 14.2184 6.84878 15.7093 8.10761 16.7361C9.36645 17.7699 10.9839 18.2551 12.6014 18.0934C13.811 17.9738 14.9503 17.4956 15.8857 16.729L17.7071 18.9443Z" fill="url(#paint0_linear_300_15361)"/>
<path d="M12.0248 19.3663C16.0826 19.3663 19.3669 16.0751 19.3669 12.0243C19.3669 7.96648 16.0826 4.67523 12.0248 4.67523C7.96703 4.67523 4.67578 7.96648 4.67578 12.0243C4.67578 16.0821 7.96703 19.3663 12.0248 19.3663Z" fill="white"/>
<path fill-rule="evenodd" clip-rule="evenodd" d="M12.6854 12.2211C12.6432 12.2211 12.4463 12.2352 11.9962 12.2352C11.6376 12.2352 11.3844 12.2211 11.293 12.2211C9.90754 12.1579 8.88078 11.9258 8.88078 11.6374C8.88078 11.3491 9.91457 11.117 11.293 11.0537V11.9891C11.3844 11.9961 11.6446 12.0102 12.0033 12.0102C12.4322 12.0102 12.6503 11.9891 12.6854 11.9891V11.0608C14.0638 11.1241 15.0976 11.3561 15.0976 11.6445C15.0976 11.9258 14.0708 12.1649 12.6854 12.2211ZM12.6857 10.9623V10.1324H14.6127V8.86658H9.3734V10.1324H11.3003V10.9623C9.73206 11.0326 8.55762 11.342 8.55762 11.7077C8.55762 12.0734 9.73206 12.3829 11.3003 12.4532V15.1186H12.6928V12.4532C14.254 12.3829 15.4285 12.0734 15.4285 11.7077C15.4285 11.342 14.254 11.0326 12.6857 10.9623Z" fill="#283947"/>
<defs>
<linearGradient id="paint0_linear_300_15361" x1="3.0724" y1="5.72022" x2="7.19402" y2="21.002" gradientUnits="userSpaceOnUse">
<stop stop-color="#27D3A2"/>
<stop offset="1" stop-color="#9388FD"/>
</linearGradient>
</defs>
</svg>
