<svg width="24" height="24" viewBox="0 0 24 24" fill="none" xmlns="http://www.w3.org/2000/svg">
<path d="M12 24C18.6274 24 24 18.6274 24 12C24 5.37258 18.6274 0 12 0C5.37258 0 0 5.37258 0 12C0 18.6274 5.37258 24 12 24Z" fill="#45CD85"/>
<path fill-rule="evenodd" clip-rule="evenodd" d="M13.734 13.5929H14.6876V12.844C16.0942 12.6749 17.0002 11.8536 17.0002 10.7424C17.0002 9.19644 15.7843 8.85825 14.6399 8.64084V6.58755C15.1883 6.63587 15.7843 6.80496 16.3326 7.07068V5.86287C15.8081 5.66961 15.2359 5.54883 14.6876 5.52468V4.79999H13.734V5.52468C12.2796 5.69377 11.4452 6.51509 11.4452 7.55381C11.4452 9.12397 12.6373 9.48631 13.7816 9.70372V11.757C13.0902 11.6604 12.3512 11.3705 11.4929 10.9115V12.1918C12.232 12.5542 12.9949 12.7957 13.734 12.844V13.5929ZM16.6187 14.7766C15.8797 16.8782 13.9009 18.4 11.5644 18.4C8.60814 18.4 6.2002 15.9602 6.2002 12.9648C6.2002 10.5975 7.70218 8.59256 9.77635 7.84371V9.31724C8.44125 9.96946 7.53529 11.3705 7.53529 12.9648C7.53529 15.2114 9.34721 17.0473 11.5644 17.0473C13.1379 17.0473 14.5207 16.1293 15.1644 14.7766H16.6187ZM14.6399 9.77621V11.757C15.379 11.6604 15.8319 11.2739 15.8319 10.7425C15.8319 10.1627 15.3074 9.94531 14.6399 9.77621ZM12.6133 7.55382C12.6133 8.15773 13.114 8.39929 13.7815 8.54423V6.58756C13.0424 6.66003 12.6133 6.99822 12.6133 7.55382Z" fill="white"/>
</svg>
