<svg width="24" height="24" viewBox="0 0 24 24" fill="none" xmlns="http://www.w3.org/2000/svg">
<circle cx="12" cy="12" r="12" fill="#EDF0F2"/>
<ellipse cx="11.9961" cy="12.0032" rx="8.99468" ry="8.99468" fill="#C8D2D9"/>
<path d="M17.7071 18.9443C16.3357 20.0766 14.655 20.7728 12.8827 20.9416C10.5128 21.1736 8.14278 20.4563 6.29321 18.9443C4.45067 17.4323 3.28326 15.2522 3.04415 12.8752C2.86834 11.103 3.21997 9.32373 4.05684 7.75546C4.89372 6.1872 6.18069 4.90023 7.74895 4.06335C9.31722 3.22648 11.0965 2.86781 12.8687 3.04363C14.6409 3.21944 16.3146 3.90864 17.693 5.04088L15.8786 7.25615C14.9433 6.4896 13.797 6.01138 12.5874 5.89886C11.3778 5.77931 10.1682 6.02545 9.09921 6.59509C8.03026 7.16473 7.15822 8.0438 6.58154 9.11275C6.0119 10.1817 5.7728 11.3983 5.89235 12.6009C6.0541 14.2184 6.84878 15.7093 8.10761 16.7361C9.36645 17.7699 10.9839 18.2551 12.6014 18.0934C13.811 17.9738 14.9503 17.4956 15.8857 16.729L17.7071 18.9443Z" fill="url(#paint0_linear_300_15351)"/>
<path d="M12.0248 19.3663C16.0826 19.3663 19.3669 16.0751 19.3669 12.0243C19.3669 7.96648 16.0826 4.67523 12.0248 4.67523C7.96703 4.67523 4.67578 7.96648 4.67578 12.0243C4.67578 16.0821 7.96703 19.3663 12.0248 19.3663Z" fill="white"/>
<path d="M13.2483 12.6079C13.2483 11.9187 12.8263 11.6867 12.0035 11.5812C11.3987 11.4968 11.2791 11.3561 11.2791 11.0748C11.2791 10.7935 11.4831 10.6247 11.8769 10.6247C12.2356 10.6247 12.4395 10.7443 12.5239 11.0326C12.5309 11.0608 12.552 11.0889 12.5802 11.11C12.6083 11.1311 12.6364 11.1381 12.6716 11.1381H12.9881C13.0092 11.1381 13.0303 11.1311 13.0443 11.1241C13.0654 11.117 13.0795 11.103 13.0935 11.0889C13.1076 11.0748 13.1146 11.0537 13.1217 11.0397C13.1287 11.0186 13.1287 10.9975 13.1217 10.9764C13.0232 10.5263 12.7138 10.259 12.2356 10.1747V9.70347C12.2356 9.66127 12.2215 9.62611 12.1934 9.59798C12.1652 9.56985 12.1301 9.55579 12.0879 9.55579H11.7855C11.7433 9.55579 11.7081 9.56985 11.68 9.59798C11.6519 9.62611 11.6378 9.66127 11.6378 9.70347V10.1606C11.04 10.245 10.6603 10.6318 10.6603 11.1311C10.6603 11.7781 11.0611 12.0242 11.891 12.1367C12.4606 12.2282 12.6224 12.3477 12.6224 12.6642C12.6224 12.9807 12.3481 13.1916 11.9613 13.1916C11.4409 13.1916 11.2651 12.9666 11.2018 12.6783C11.1947 12.6431 11.1736 12.615 11.1526 12.5939C11.1244 12.5728 11.0893 12.5587 11.0611 12.5587H10.7165C10.6954 12.5587 10.6743 12.5657 10.6603 12.5728C10.6392 12.5798 10.6251 12.5939 10.611 12.6079C10.597 12.622 10.5899 12.6431 10.5829 12.6572C10.5759 12.6783 10.5759 12.6994 10.5829 12.7134C10.6673 13.2057 10.9908 13.5644 11.6448 13.6488V14.1129C11.6448 14.1551 11.6589 14.1903 11.687 14.2184C11.7152 14.2465 11.7503 14.2606 11.7925 14.2606H12.0949C12.1371 14.2606 12.1723 14.2465 12.2004 14.2184C12.2285 14.1903 12.2426 14.1551 12.2426 14.1129V13.6488C12.8544 13.5503 13.2483 13.1354 13.2483 12.6079Z" fill="#283947"/>
<path d="M10.9771 14.7177C10.4075 14.5138 9.91523 14.134 9.5636 13.6417C9.21197 13.1494 9.02912 12.5587 9.02912 11.9609C9.02912 11.3632 9.219 10.7724 9.5636 10.2801C9.91523 9.78785 10.4075 9.40809 10.9771 9.20415C11.0123 9.19008 11.0475 9.16195 11.0686 9.12679C11.0897 9.09162 11.1037 9.05646 11.1037 9.01427V8.74C11.1037 8.7189 11.1037 8.69077 11.0897 8.66967C11.0826 8.64857 11.0615 8.62747 11.0404 8.61341C11.0193 8.59934 10.9982 8.59231 10.9701 8.58528C10.942 8.57825 10.9209 8.58528 10.8998 8.59934C10.1825 8.82439 9.55656 9.27447 9.10648 9.87928C8.66342 10.4841 8.42432 11.2084 8.42432 11.9609C8.42432 12.7064 8.66342 13.4378 9.10648 14.0426C9.54953 14.6474 10.1754 15.0904 10.8998 15.3225C10.9209 15.3295 10.949 15.3366 10.9701 15.3366C10.9912 15.3366 11.0193 15.3225 11.0404 15.3084C11.0615 15.2944 11.0756 15.2733 11.0897 15.2522C11.0967 15.2311 11.1037 15.2029 11.1037 15.1818V14.9076C11.1037 14.8654 11.0897 14.8302 11.0686 14.7951C11.0475 14.7599 11.0193 14.7318 10.9771 14.7177Z" fill="#657786"/>
<path d="M13.016 8.60635C12.9949 8.59932 12.9667 8.59229 12.9456 8.59229C12.9245 8.59229 12.8964 8.60635 12.8753 8.62042C12.8542 8.63448 12.8401 8.65558 12.8261 8.67668C12.819 8.69777 12.812 8.7259 12.812 8.747V9.02127C12.812 9.06347 12.8261 9.09863 12.8472 9.13379C12.8683 9.16896 12.9034 9.19006 12.9386 9.21115C13.5082 9.4151 14.0005 9.79486 14.3521 10.2871C14.7038 10.7794 14.8866 11.3702 14.8866 11.9679C14.8866 12.5657 14.6967 13.1564 14.3521 13.6487C14.0005 14.141 13.5082 14.5208 12.9386 14.7247C12.9034 14.7388 12.8683 14.7669 12.8472 14.795C12.8261 14.8302 12.812 14.8654 12.812 14.9076V15.1818C12.812 15.2029 12.812 15.2311 12.8261 15.2522C12.8331 15.2732 12.8542 15.2943 12.8753 15.3084C12.8964 15.3225 12.9175 15.3295 12.9456 15.3365C12.9667 15.3365 12.9949 15.3365 13.016 15.3225C13.7333 15.0974 14.3592 14.6473 14.8093 14.0425C15.2523 13.4377 15.4914 12.7134 15.4914 11.9609C15.4914 11.2154 15.2523 10.4841 14.8093 9.87925C14.3592 9.28148 13.7333 8.83139 13.016 8.60635Z" fill="#657786"/>
<defs>
<linearGradient id="paint0_linear_300_15351" x1="3.0724" y1="5.72022" x2="7.19402" y2="21.002" gradientUnits="userSpaceOnUse">
<stop stop-color="#27D3A2"/>
<stop offset="1" stop-color="#9388FD"/>
</linearGradient>
</defs>
</svg>
