<svg width="24" height="24" viewBox="0 0 24 24" fill="none" xmlns="http://www.w3.org/2000/svg">
<circle cx="12" cy="12" r="12" fill="#EDF0F4"/>
<path fill-rule="evenodd" clip-rule="evenodd" d="M6.19347 12C6.19347 15.3086 8.87635 18 12.1745 18C14.8659 18 17.1467 16.208 17.8957 13.7502H19.9571C19.1616 17.3266 15.9792 20 12.1745 20C7.77019 20 4.19971 16.4183 4.19971 12C4.19971 7.58168 7.77019 4 12.1745 4C15.9792 4 19.1616 6.67336 19.957 10.2498H17.8956C17.1471 7.79248 14.8659 6.00048 12.1745 6.00048C8.87675 6.00048 6.19347 8.69136 6.19347 12ZM14.0435 10.9375C14.0442 11.6533 13.6374 12.3071 12.995 12.6228H12.9949V14.9376H11.3549V12.6227C10.712 12.3075 10.3048 11.6535 10.3057 10.9375C10.3057 9.90217 11.1431 9.06321 12.1748 9.06321C13.2065 9.06321 14.0435 9.90225 14.0435 10.9375Z" fill="#3AB03E"/>
</svg>
