<svg width="24" height="24" viewBox="0 0 24 24" fill="none" xmlns="http://www.w3.org/2000/svg">
<path d="M12 0C18.6264 0 24 5.3736 24 12C24 18.6264 18.6264 24 12 24C5.3736 24 0 18.6264 0 12C0 5.3736 5.3736 0 12 0Z" fill="#1E0B49"/>
<path d="M7.79011 9.60001C8.32051 8.69761 9.17011 8.16241 9.91651 8.17681L10.2189 7.66561C10.7397 6.78001 10.5597 5.70001 9.81571 5.26321C9.07171 4.82641 8.04211 5.19601 7.51891 6.07681L7.21891 6.58801C7.59331 7.23361 7.53571 8.23201 7.00531 9.13921C6.47491 10.0464 5.62531 10.5768 4.87891 10.5624L4.57651 11.0736C4.05571 11.9592 4.23571 13.0392 4.97971 13.476C5.72131 13.9128 6.75331 13.5456 7.27651 12.6624L7.57651 12.1512C7.20211 11.5056 7.25971 10.5024 7.79011 9.60001Z" fill="#1E90FF"/>
<path d="M7.00775 14.7815C6.47735 13.8791 5.62775 13.3439 4.88135 13.3583L4.57895 12.8471C4.05815 11.9615 4.23815 10.8815 4.98215 10.4447C5.72615 10.0079 6.75575 10.3727 7.27895 11.2583L7.57895 11.7695C7.20455 12.4151 7.26215 13.4135 7.79255 14.3207C8.32535 15.2279 9.17255 15.7583 9.91895 15.7439L10.2214 16.2551C10.7422 17.1407 10.5622 18.2207 9.81815 18.6575C9.07655 19.0943 8.04455 18.7295 7.52135 17.8439L7.22135 17.3327C7.59335 16.6871 7.53575 15.6839 7.00775 14.7815Z" fill="url(#paint0_linear_300_15424)"/>
<path d="M13.0488 14.7815C12.5184 13.8791 11.6688 13.3439 10.9224 13.3583L10.62 12.8471C10.0992 11.9615 10.2792 10.8815 11.0232 10.4447C11.7672 10.0079 12.7968 10.3727 13.3176 11.2583L13.62 11.7695C13.2456 12.4151 13.3032 13.4135 13.8336 14.3207C14.3664 15.2279 15.2136 15.7583 15.96 15.7439L16.2624 16.2551C16.7832 17.1407 16.6032 18.2207 15.8592 18.6575C15.1176 19.0943 14.0856 18.7295 13.5624 17.8439L13.2624 17.3327C13.6392 16.6871 13.584 15.6839 13.0488 14.7815Z" fill="url(#paint1_linear_300_15424)"/>
<path d="M16.8262 14.8703C17.3566 13.9703 18.2062 13.4327 18.9526 13.4471L19.255 12.9359C19.7758 12.0503 19.5958 10.9703 18.8518 10.5335C18.1078 10.0967 17.0782 10.4639 16.555 11.3471L16.255 11.8583C16.6294 12.5039 16.5718 13.5023 16.0414 14.4095C15.5086 15.3167 14.6614 15.8471 13.915 15.8327L13.6126 16.3439C13.0918 17.2295 13.2718 18.3095 14.0158 18.7463C14.7598 19.1831 15.7894 18.8159 16.3126 17.9327L16.6126 17.4215C16.2334 16.7735 16.2958 15.7703 16.8262 14.8703Z" fill="url(#paint2_linear_300_15424)"/>
<path d="M8.9256 4.91998C7.92 4.91998 7.1064 5.74798 7.1304 6.75838C7.152 7.71118 7.9296 8.48638 8.8824 8.51038C9.8928 8.53438 10.7208 7.72078 10.7208 6.71518C10.7208 5.72398 9.9168 4.91998 8.9256 4.91998Z" fill="#1E90FF"/>
<path d="M8.92564 15.4561C7.92004 15.4561 7.10884 16.2841 7.13284 17.2969C7.15684 18.2689 7.96324 19.0513 8.93524 19.0465C9.92164 19.0417 10.7208 18.2425 10.7232 17.2537C10.7232 16.2625 9.91924 15.4561 8.92564 15.4561Z" fill="#4B0082"/>
<path d="M14.9422 4.91998C13.9366 4.91998 13.123 5.74798 13.147 6.75838C13.1686 7.71118 13.9462 8.48638 14.899 8.51038C15.9094 8.53438 16.7374 7.72078 16.7374 6.71518C16.7374 5.72398 15.9334 4.91998 14.9422 4.91998Z" fill="#1E90FF"/>
<path d="M14.9422 15.4561C13.9366 15.4561 13.123 16.2841 13.147 17.2945C13.1686 18.2665 13.9774 19.0513 14.9494 19.0465C15.9358 19.0417 16.735 18.2425 16.7374 17.2537C16.7374 16.2625 15.9358 15.4585 14.9422 15.4561Z" fill="#4B0082"/>
<path d="M11.8919 10.1879C10.8863 10.1879 10.0727 11.0159 10.0967 12.0263C10.1183 12.9791 10.8959 13.7543 11.8487 13.7783C12.8591 13.8023 13.6871 12.9887 13.6871 11.9831C13.6871 10.9919 12.8831 10.1879 11.8919 10.1879Z" fill="#8B008B"/>
<path d="M17.9759 10.1879C16.9703 10.1879 16.1567 11.0135 16.1807 12.0263C16.2023 12.9791 16.9799 13.7567 17.9303 13.7783C18.9407 13.8023 19.7687 12.9911 19.7687 11.9855C19.7687 10.9919 18.9671 10.1903 17.9759 10.1879Z" fill="#8B008B"/>
<path d="M5.80792 10.1879C4.80232 10.1879 3.98872 11.0159 4.01272 12.0263C4.03432 12.9791 4.81192 13.7543 5.76472 13.7783C6.77512 13.8023 7.60312 12.9887 7.60312 11.9831C7.60312 10.9919 6.79912 10.1879 5.80792 10.1879Z" fill="#1E90FF"/>
<defs>
<linearGradient id="paint0_linear_300_15424" x1="5.9195" y1="14.3562" x2="7.79033" y2="16.0474" gradientUnits="userSpaceOnUse">
<stop offset="0.21" stop-color="#1E90FF"/>
<stop offset="1" stop-color="#4B0082"/>
</linearGradient>
<linearGradient id="paint1_linear_300_15424" x1="12.012" y1="14.2965" x2="13.7659" y2="15.8873" gradientUnits="userSpaceOnUse">
<stop stop-color="#8B008B"/>
<stop offset="1" stop-color="#4B0082"/>
</linearGradient>
<linearGradient id="paint2_linear_300_15424" x1="16.3976" y1="12.6671" x2="14.5286" y2="14.0843" gradientUnits="userSpaceOnUse">
<stop stop-color="#8B008B"/>
<stop offset="1" stop-color="#4B0082"/>
</linearGradient>
</defs>
</svg>
