<svg width="24" height="24" viewBox="0 0 24 24" fill="none" xmlns="http://www.w3.org/2000/svg">
<circle opacity="0.98" cx="12" cy="12" r="12" fill="#243F8D"/>
<rect x="16.144" y="6.04218" width="1.19062" height="1.19063" fill="white"/>
<rect x="18.5249" y="6.04218" width="1.19062" height="1.19063" fill="#8DDB2E"/>
<rect x="17.3345" y="7.23279" width="1.19062" height="1.19062" fill="#8DDB2E"/>
<rect x="18.5249" y="15.5765" width="1.19062" height="1.19063" fill="#8DDB2E"/>
<rect x="17.3345" y="13.1953" width="1.19062" height="1.19062" fill="#8DDB2E"/>
<rect x="14.9531" y="10.8141" width="1.19063" height="1.19062" fill="#8DDB2E"/>
<rect x="16.144" y="9.62341" width="1.19062" height="1.19062" fill="#8DDB2E"/>
<rect x="18.5249" y="10.8141" width="1.19062" height="1.19062" fill="#8DDB2E"/>
<path fill-rule="evenodd" clip-rule="evenodd" d="M17.3344 15.5766V16.7672H18.525V17.9578H17.4281H17.3344H16.1437H15.7969H15.5625H13.9312L11.8125 14.5922L9.68437 17.9578H8.05312H7.81875H6.1875L10.05 11.9484L6.28125 6.04218H7.9125H8.12812H9.75937L11.8125 9.32343L13.8562 6.05155H17.3344V7.24218H16.1437V9.62343H14.9531V8.4328H13.7625V9.62343H14.9531V10.8141H13.7625V12.0047H14.9531V13.1953H16.1437V15.5766H14.9531V16.7672H16.1437V15.5766H17.3344ZM13.7529 13.1953V14.386H14.9435V13.1953H13.7529ZM12.5622 12.0047V13.1953H13.7529V12.0047H12.5622ZM12.5622 12.0047V10.8141H11.3716V12.0047H12.5622Z" fill="#8DDB2E"/>
</svg>
