<svg width="24" height="24" viewBox="0 0 24 24" fill="none" xmlns="http://www.w3.org/2000/svg">
<path fill-rule="evenodd" clip-rule="evenodd" d="M12 24C5.4 24 0 18.6001 0 11.9402C0.06 5.34038 5.4 -0.0595036 12.06 0.000495204C18.66 0.060494 24 5.40038 24 12.1202C23.94 18.6601 18.6 24 12 24Z" fill="#EDF0F4"/>
<path fill-rule="evenodd" clip-rule="evenodd" d="M3.6001 7.19999L12.0731 2.39999L20.5462 7.19999V16.8L20.4627 16.8417L20.3792 16.8835L20.254 16.967L12.0731 21.6L3.6001 16.8V7.19999ZM19.7947 7.15826L12.1564 2.81739L9.61032 7.15826H19.7947ZM4.14262 7.28347L11.6557 3.02607L6.64697 11.6243L4.14262 7.28347ZM20.1703 7.49217H14.9947L20.1703 16.2157V7.49217ZM9.527 7.49217H14.2853L9.527 10.1635V7.49217ZM9.06815 16.5078L3.93423 7.61739V16.5078H9.06815ZM12.4068 8.95304L14.7024 7.65912L17.0398 11.5826L12.4068 8.95304ZM9.19299 7.90956L6.8556 11.9165L9.19299 13.2522V7.90956ZM12.1146 9.16173L14.1181 10.2887H11.4468L12.1146 9.16173ZM11.6555 9.37043L9.61032 10.4974L10.2781 11.7078L11.6555 9.37043ZM13.2833 10.6226H14.6189V12.9183L13.2833 10.6226ZM11.2383 10.6643L10.4452 12.0417L11.1548 13.3774H12.7826L13.6174 12L12.8661 10.6643H11.2383ZM14.9531 10.7478L17.2905 12.0417L14.9531 16.007V10.7478ZM10.8627 13.3774L9.527 11.0817V13.3774H10.8627ZM13.8682 12.2922L14.536 13.4609L12.4908 14.5878L13.8682 12.2922ZM20.0873 16.6748L17.4995 12.3339L12.449 21.0156L20.0873 16.6748ZM7.10641 12.4174L11.7395 15.047L9.36033 16.3826L7.10641 12.4174ZM12.6573 13.6696H9.98604L11.9895 14.7965L12.6573 13.6696ZM14.6194 13.8365V16.5496H9.81939L14.6194 13.8365ZM14.4943 16.8417H4.35169L11.9482 21.1826L14.4943 16.8417Z" fill="url(#paint0_linear_300_10970)"/>
<defs>
<linearGradient id="paint0_linear_300_10970" x1="20.6035" y1="21.8124" x2="20.6035" y2="2.47325" gradientUnits="userSpaceOnUse">
<stop stop-color="#0B2B85"/>
<stop offset="1" stop-color="#5C25A7"/>
</linearGradient>
</defs>
</svg>
