<svg width="24" height="24" viewBox="0 0 24 24" fill="none" xmlns="http://www.w3.org/2000/svg">
<path d="M11.9961 24C18.628 24 24 18.6297 24 12C24 5.37025 18.628 0 11.9961 0C5.36425 0 0 5.37025 0 12C0 18.6297 5.37198 24 11.9961 24Z" fill="#008CE3"/>
<path d="M13.8279 6.74561H9.11297L8.72649 8.92461L12.9777 8.93234C15.0724 8.93234 15.6907 9.68958 15.6753 10.9491C15.6676 11.5981 15.3893 12.6877 15.2656 13.0431C14.941 13.9858 14.284 15.0676 11.7951 15.0598H7.65983L7.26562 17.2466H11.9651C13.6192 17.2466 14.3304 17.0534 15.0724 16.7057C16.7265 15.9407 17.7159 14.3103 18.1101 12.1777C18.7052 9.00188 17.9709 6.74561 13.8279 6.74561Z" fill="white"/>
<path d="M7.08785 10.9027C5.85113 10.9027 5.67335 11.7063 5.55741 12.1931C5.40282 12.8267 5.35645 13.0894 5.35645 13.0894H10.1796C11.4163 13.0894 11.5941 12.2858 11.7101 11.799C11.8647 11.1654 11.911 10.9027 11.911 10.9027H7.08785Z" fill="white"/>
</svg>
