<svg width="24" height="24" viewBox="0 0 24 24" fill="none" xmlns="http://www.w3.org/2000/svg">
<circle cx="12" cy="12" r="12" fill="#2D9CDB"/>
<path fill-rule="evenodd" clip-rule="evenodd" d="M15.7309 4.46837C15.5513 4.28998 15.3138 4.20041 15.0192 4.20041C14.7557 4.19301 14.4999 4.28932 14.3075 4.46837C14.1279 4.64675 14.0377 4.88187 14.0377 5.1752V10.3343C13.1302 9.22458 11.764 8.58471 10.3245 8.5952C9.40168 8.5952 8.56149 8.82509 7.80472 9.28338C7.06073 9.74166 6.4708 10.3791 6.03493 11.1942C5.61108 11.9965 5.3999 12.8952 5.3999 13.8887C5.3999 14.8821 5.63061 15.7867 6.09204 16.6018C6.54475 17.3954 7.20204 18.0549 7.99636 18.5126C8.81775 18.9709 9.72182 19.2 10.7093 19.2C11.6975 19.2 12.5888 18.9709 13.3839 18.5126C14.1782 18.0549 14.8355 17.3954 15.2882 16.6018C15.7632 15.7867 15.9999 14.8814 15.9999 13.8887V5.1752C15.9999 4.88187 15.9105 4.64675 15.7309 4.46837ZM12.4408 17.022C11.9283 17.328 11.3511 17.4803 10.7093 17.4803H10.7101C10.0683 17.4803 9.48514 17.328 8.95908 17.022C8.44323 16.7008 8.01911 16.2533 7.72736 15.7225C7.43277 15.1747 7.28548 14.5641 7.28548 13.8886C7.28548 13.2131 7.43277 12.6078 7.72736 12.0734C8.01579 11.5454 8.44069 11.1033 8.95833 10.7926C9.48438 10.4746 10.0683 10.3149 10.7093 10.3149C11.3511 10.3149 11.9283 10.4746 12.4408 10.7926C12.9643 11.096 13.3909 11.5399 13.6718 12.0734C13.9671 12.6078 14.1152 13.2139 14.1152 13.8886C14.1152 14.5634 13.9671 15.1747 13.6725 15.7233C13.3883 16.2593 12.9625 16.7082 12.4408 17.022Z" fill="white"/>
</svg>
