<svg width="24" height="24" viewBox="0 0 24 24" fill="none" xmlns="http://www.w3.org/2000/svg">
<circle cx="12" cy="12" r="12" fill="#EDF0F4"/>
<path fill-rule="evenodd" clip-rule="evenodd" d="M14.0039 4.27822V4.73947C14.0039 4.8692 13.9416 4.97586 13.7462 5.00072C11.1879 5.1329 9.1424 7.17573 9.00691 9.73393C8.99944 9.88184 8.87754 9.99804 8.72944 9.99843H8.26098C8.16837 9.99843 8.0109 9.94762 8.00405 9.75267C8.1316 6.64568 10.6096 4.14984 13.7156 4.00003H13.7268C13.8801 4.00043 14.0041 4.12492 14.0039 4.27822ZM10.2343 10.0006H9.78785L9.78677 9.99804H9.76839C9.61478 9.98764 9.49864 9.85474 9.50894 9.70111C9.65792 7.44783 11.4523 5.65311 13.7056 5.50375C13.7117 5.50339 13.7178 5.50339 13.724 5.50375C13.8779 5.50355 14.0028 5.62804 14.0032 5.78194V6.2403C14.0104 6.37809 13.9056 6.49609 13.7679 6.50516C12.0274 6.62239 10.6383 8.00216 10.5093 9.74183C10.4995 9.88675 10.3796 9.99958 10.2343 10.0006ZM14.0028 7.2875V7.74767C14.0028 7.93505 13.84 8.00279 13.7607 8.01216C12.8491 8.12355 12.1301 8.84065 12.0162 9.75194C11.9997 9.89248 11.881 9.99865 11.7395 9.9995H11.293C11.1399 10.0001 11.0153 9.87657 11.0145 9.72347C11.0139 9.71459 11.0139 9.70568 11.0145 9.6968C11.1583 8.2775 12.2805 7.15512 13.6998 7.01111C13.7729 7.0043 13.8457 7.02682 13.9022 7.07373C13.9587 7.12063 13.9943 7.18807 14.001 7.26119C14.0016 7.27019 14.0016 7.27922 14.001 7.28822L14.0028 7.2875ZM18.9979 13.7324C19.0232 13.9274 19.1298 13.9901 19.2596 13.9901L19.7219 13.9879H19.7331C19.8863 13.9818 20.0056 13.8528 19.9997 13.6996C19.8492 10.5936 17.353 8.11608 14.246 7.98877C14.0514 7.99562 14.0006 8.15309 14.0006 8.2457V8.71416C14.0006 8.86227 14.1168 8.98433 14.2647 8.99163C16.8232 9.12767 18.866 11.1737 18.9979 13.7324ZM13.9986 9.77389C13.9986 9.69998 14.028 9.62911 14.0803 9.57692C14.1326 9.52473 14.2036 9.49551 14.2775 9.4957C14.2837 9.49534 14.29 9.49534 14.2962 9.4957C16.5506 9.64387 18.3464 11.4391 18.4954 13.6934C18.5055 13.8468 18.3897 13.9796 18.2363 13.9904H18.2179H17.7613C17.6236 13.9975 17.5056 13.8927 17.4965 13.755C17.379 12.0144 15.9989 10.6254 14.2591 10.4968C14.1141 10.4873 14.0012 10.3671 14.0007 10.2218L13.9986 9.77389ZM16.2521 13.99H16.7094L16.7112 13.9864C16.72 13.9869 16.7288 13.9869 16.7375 13.9864C16.8896 13.9723 17.0016 13.8377 16.9876 13.6855C16.8436 12.2664 15.7214 11.1444 14.3023 11.0005C14.2934 11 14.2845 11 14.2756 11.0005C14.2021 11.0009 14.1318 11.0305 14.0801 11.0827C14.0284 11.135 13.9996 11.2056 13.9999 11.2791V11.727C14.0005 11.8686 14.1069 11.9873 14.2475 12.0034C15.1587 12.1172 15.8757 12.8361 15.9873 13.7475C15.997 13.8271 16.0644 13.99 16.2521 13.99ZM4.74002 9.99774C4.86975 9.99774 4.97641 10.0601 5.00163 10.255C5.13383 12.8139 7.17718 14.8598 9.73592 14.9951C9.88369 15.0027 9.99968 15.1246 10.0001 15.2725V15.741C10.0001 15.834 9.94925 15.9914 9.75466 15.9979C6.64743 15.8712 4.15081 13.3936 4.00022 10.2875C3.99729 10.2139 4.02371 10.1422 4.07365 10.0882C4.1236 10.0341 4.19297 10.0021 4.26652 9.99918H4.27805L4.74002 9.99774ZM9.91896 14.4105C9.97133 14.3584 10.0009 14.2877 10.0011 14.2138L9.99997 13.7673C9.99953 13.622 9.88662 13.5018 9.7416 13.4924C8.00184 13.3636 6.6218 11.9746 6.50421 10.2341C6.49551 10.0961 6.3774 9.99086 6.23935 9.99804H5.76333C5.68968 10.0032 5.6211 10.0374 5.5727 10.0932C5.52431 10.149 5.50007 10.2217 5.50532 10.2953C5.65489 12.5487 7.44997 14.343 9.70341 14.4916H9.72178C9.79566 14.4918 9.86659 14.4626 9.91896 14.4105ZM7.2903 9.99774H7.74795C7.93569 9.99774 8.00308 10.1606 8.0128 10.2399C8.12444 11.1514 8.84141 11.8703 9.75258 11.9844C9.89316 12.0003 9.99957 12.1189 10.0001 12.2604V12.7083C10.0003 12.8612 9.87699 12.9855 9.72411 12.9865H9.6978C8.27857 12.8425 7.15626 11.7204 7.01211 10.3012C7.00532 10.2277 7.02813 10.1546 7.0755 10.098C7.12286 10.0414 7.19085 10.0061 7.26436 9.9999H7.29066L7.2903 9.99774ZM10.26 18.9975C10.065 19.0223 10.0027 19.129 10.0027 19.2587H10.0031V19.733C10.0093 19.8861 10.1382 20.0053 10.2913 19.9996C13.3973 19.8494 15.875 17.3535 16.0025 14.2466C15.9957 14.0517 15.8382 14.0009 15.7456 14.0009H15.2772C15.129 14.0011 15.007 14.1174 14.9997 14.2654C14.8632 16.8231 12.8179 18.865 10.26 18.9975ZM14.2187 13.9976C14.2926 13.9976 14.3634 14.027 14.4156 14.0793C14.4677 14.1317 14.4969 14.2026 14.4966 14.2765V14.2952C14.3488 16.5497 12.5536 18.346 10.2992 18.4951C10.1457 18.5054 10.0127 18.3896 10.0019 18.236V18.2176V17.7611C9.99472 17.6233 10.0996 17.5053 10.2372 17.4962C11.9777 17.3788 13.3667 15.9992 13.4959 14.2596C13.5052 14.1144 13.6254 14.0013 13.7708 14.0008L14.2187 13.9976ZM10.0027 16.2519V16.7081L10.0052 16.7092C10.0047 16.718 10.0047 16.7268 10.0052 16.7355C10.0115 16.809 10.0469 16.8769 10.1034 16.9243C10.16 16.9716 10.233 16.9945 10.3065 16.9878C11.7255 16.8437 12.8477 15.7218 12.9922 14.3028V14.2758C12.9914 14.1229 12.8669 13.9995 12.714 14.0001H12.2661C12.1246 14.0008 12.0059 14.1071 11.9897 14.2477C11.8755 15.1588 11.1566 15.8757 10.2452 15.9874C10.1659 15.9968 10.0027 16.0646 10.0027 16.2519Z" fill="#FF5C00"/>
</svg>
