<svg width="24" height="24" viewBox="0 0 24 24" fill="none" xmlns="http://www.w3.org/2000/svg">
<circle cx="12" cy="12" r="12" fill="#2A2463"/>
<path fill-rule="evenodd" clip-rule="evenodd" d="M10.1758 23.8623C9.80202 21.9503 9.78674 19.9843 10.5251 18.364C11.204 16.8743 11.9943 15.7183 12.6956 14.6927C14.2514 12.417 15.3696 10.7816 13.8634 7.56C13.4561 6.68899 13.0342 5.88543 12.6375 5.13009C11.6447 3.23969 10.8106 1.65125 10.7632 0.0629915C11.1697 0.0213662 11.5823 3.8147e-05 11.9999 3.8147e-05C18.6273 3.8147e-05 23.9999 5.37261 23.9999 12C23.9999 18.6274 18.6273 24 11.9999 24C11.3798 24 10.7706 23.953 10.1758 23.8623Z" fill="#954C5D"/>
<path fill-rule="evenodd" clip-rule="evenodd" d="M10.9072 0.0491444C11.0334 1.65767 11.5663 3.41873 12.8925 4.88945C16.2309 8.59197 18.1732 10.8378 18.1732 14.1155C18.1732 16.7878 15.833 21.276 11.613 23.9939C11.7416 23.9979 11.8706 24 12.0003 24C18.6276 24 24.0002 18.6274 24.0002 12C24.0002 5.37261 18.6276 3.8147e-05 12.0003 3.8147e-05C11.6318 3.8147e-05 11.2672 0.0166426 10.9072 0.0491444Z" fill="#ED7B69"/>
<path fill-rule="evenodd" clip-rule="evenodd" d="M22.4134 17.9666C22.442 17.662 22.4651 17.3493 22.4822 17.0288C22.7234 12.4924 20.1254 9.72111 17.9522 7.40297C17.3921 6.80549 16.8602 6.23811 16.4124 5.67839C15.3234 4.31717 14.5862 2.11584 14.1362 0.189583C19.7443 1.1974 23.9996 6.10172 23.9996 11.9999C23.9996 14.1719 23.4226 16.2091 22.4134 17.9666Z" fill="#EC877B"/>
</svg>
