<svg width="24" height="24" viewBox="0 0 24 24" fill="none" xmlns="http://www.w3.org/2000/svg">
<circle cx="12" cy="12" r="12" fill="#5BC1D4"/>
<path fill-rule="evenodd" clip-rule="evenodd" d="M8.37024 9.12766C8.37322 9.09636 8.38186 9.06587 8.39574 9.03766L9.18174 7.31497C9.23624 7.19547 9.29099 7.07605 9.34575 6.95663C9.45524 6.71781 9.56474 6.47899 9.67224 6.23951C9.70974 6.15701 9.76449 6.11576 9.85749 6.11201C10.0136 6.10724 10.1696 6.10034 10.3257 6.09344C10.4149 6.0895 10.5041 6.08556 10.5932 6.08201L12.0407 6.02726C12.1344 6.02312 12.2284 6.01783 12.3224 6.01253L12.3224 6.01253C12.3985 6.00824 12.4746 6.00395 12.5507 6.00026C12.6722 5.99501 12.7555 6.06851 12.7562 6.18776C12.7615 6.26051 12.715 6.30775 12.655 6.349L12.1915 6.66474L9.42099 8.54943L8.53599 9.15241C8.51535 9.16801 8.49325 9.18158 8.46999 9.19291C8.41749 9.21541 8.36724 9.18391 8.37024 9.12766ZM8.77324 9.35267C9.12274 9.11343 9.47224 8.87569 9.82249 8.63795L13.205 6.33402C13.3175 6.25753 13.3887 6.27327 13.445 6.39477C13.6109 6.75006 13.7761 7.10572 13.9413 7.46149L14.1425 7.89472C14.1559 7.92352 14.169 7.95246 14.1821 7.98149L14.1822 7.98165L14.1822 7.98179L14.1823 7.98192L14.1824 7.98204L14.1824 7.98214C14.1986 8.01791 14.2148 8.05381 14.2317 8.08971C14.2565 8.14221 14.24 8.18496 14.2085 8.23221C14.1675 8.29012 14.1328 8.35222 14.105 8.41745C14.0802 8.4797 14.0427 8.51345 13.9752 8.52545C13.7207 8.57068 13.4664 8.61669 13.2122 8.66268C12.969 8.70668 12.7259 8.75067 12.4827 8.79394L10.7172 9.11118L8.78974 9.45767C8.77176 9.46066 8.75346 9.45967 8.73504 9.45867L8.73503 9.45867C8.72579 9.45817 8.71651 9.45767 8.70724 9.45767L8.69074 9.42692C8.70034 9.41836 8.70958 9.40935 8.7188 9.40035L8.71881 9.40035C8.73624 9.38335 8.75362 9.36641 8.77324 9.35267ZM15.1414 9.14265C14.9966 8.91916 15.1601 8.61017 15.4009 8.57042C15.7765 8.50782 16.1513 8.43985 16.5262 8.37189L16.5262 8.37188C16.7935 8.32341 17.0608 8.27495 17.3284 8.22843C17.4701 8.20368 17.5826 8.26893 17.6606 8.38593C17.7666 8.54491 17.8712 8.70436 17.9759 8.86391L18.0619 8.99491L18.1775 9.1702L18.1776 9.17032C18.4211 9.53936 18.6648 9.90855 18.9056 10.2789C18.9309 10.3178 18.9476 10.3621 18.9644 10.4065C18.9725 10.4279 18.9806 10.4493 18.9896 10.4701L18.9731 10.4776C18.9685 10.5871 18.9279 10.692 18.8576 10.7761C18.6805 11.014 18.5025 11.2515 18.3245 11.4889L18.3243 11.4892L18.3241 11.4895L18.3239 11.4897L18.3237 11.49L18.3235 11.4903L18.3233 11.4905L18.3231 11.4908L18.3228 11.4913L18.3227 11.4913L18.3227 11.4914L18.3227 11.4914L18.3226 11.4915L18.3226 11.4915L18.3225 11.4916L18.3225 11.4916C18.1061 11.7803 17.8897 12.069 17.6749 12.3585C17.5997 12.4538 17.4824 12.5058 17.3614 12.4976C17.2403 12.4893 17.1311 12.4219 17.0696 12.3173C16.6433 11.6096 16.2137 10.9036 15.7842 10.1977C15.6356 9.95354 15.487 9.70937 15.3386 9.46514L15.2898 9.38394L15.2898 9.38388C15.2412 9.30263 15.1925 9.22137 15.1414 9.14265ZM10.4389 12.6961L9.20141 13.9891C9.10572 14.0889 9.01085 14.1892 8.91604 14.2895L8.91604 14.2895L8.91603 14.2895L8.91602 14.2895L8.91601 14.2895L8.91601 14.2895L8.916 14.2895C8.79014 14.4226 8.66438 14.5556 8.53691 14.6873C8.51151 14.7137 8.47888 14.7329 8.44625 14.7521C8.43071 14.7612 8.41517 14.7704 8.40041 14.7803C8.30291 14.7645 8.22791 14.7038 8.21516 14.6153C8.19446 14.4806 8.17595 14.3456 8.15966 14.2103C8.13716 14.0318 8.08241 13.9823 7.90166 13.9598C7.53813 13.9159 7.17532 13.8685 6.81183 13.8209L6.78416 13.8173L5.93366 13.7071C5.76416 13.6846 5.70266 13.5631 5.79116 13.4183C5.94719 13.1671 6.10409 12.9167 6.26086 12.6666L6.2609 12.6665L6.40541 12.4359L7.65791 10.4349C7.70741 10.3539 7.76291 10.2984 7.86941 10.3014C7.93691 10.3029 8.00741 10.2864 8.07416 10.2692C8.15366 10.2497 8.21591 10.2737 8.27141 10.3262C8.30811 10.3606 8.34502 10.395 8.38194 10.4294L8.38202 10.4294C8.44392 10.487 8.50586 10.5447 8.56691 10.6029L9.69791 11.6761C9.81972 11.7916 9.9421 11.9066 10.0645 12.0217L10.0647 12.0219L10.0649 12.0221C10.1872 12.1371 10.3096 12.2522 10.4314 12.3676C10.5574 12.4861 10.5574 12.5716 10.4389 12.6961ZM18.7563 14.4353L18.7727 14.4488C18.8383 14.5026 18.9045 14.557 18.9183 14.649C18.9371 14.7765 18.8861 14.8688 18.7781 14.9385C18.3956 15.186 18.0131 15.4343 17.6306 15.6826C17.3756 15.8481 17.1206 16.0137 16.8656 16.179L15.6333 16.9777C15.5944 17.0023 15.5574 17.0296 15.5223 17.0595C15.4593 17.1111 15.4246 17.1896 15.4286 17.2709C15.4304 17.3183 15.4325 17.3656 15.4347 17.4129L15.4347 17.4134L15.4347 17.4135V17.4135V17.4135V17.4135V17.4135V17.4135V17.4135V17.4135V17.4135V17.4135V17.4136C15.4395 17.5197 15.4443 17.6257 15.4458 17.7314C15.4481 17.9077 15.3183 18.0179 15.1413 17.9977C15.0775 17.9893 15.0196 17.9561 14.9801 17.9054C14.8318 17.7344 14.6838 17.5631 14.5361 17.3917C14.4671 17.3119 14.3983 17.2319 14.3295 17.1519L14.3294 17.1518L14.3294 17.1517L14.3293 17.1516L14.3292 17.1516L14.3292 17.1515C14.2131 17.0165 14.097 16.8816 13.9803 16.7475C13.9027 16.6699 13.8653 16.5608 13.8791 16.452L13.9046 15.5557C13.9076 15.4508 13.9698 15.3833 14.0538 15.3293L15.0723 14.6783L15.5092 14.3998C15.934 14.1292 16.359 13.8585 16.7823 13.5848C16.9023 13.5076 17.0141 13.4843 17.1461 13.5518C17.2436 13.6013 17.3538 13.6103 17.4596 13.5773C17.6178 13.5271 17.7393 13.5713 17.8616 13.6793C18.0624 13.8565 18.2686 14.028 18.475 14.1997C18.5691 14.278 18.6633 14.3563 18.7571 14.4353H18.7563ZM13.3781 15.3443C13.3621 15.2816 13.3291 15.2245 13.2828 15.1793C13.0962 14.9912 12.9077 14.8051 12.7194 14.6191L12.7191 14.6188L12.719 14.6187C12.6033 14.5045 12.4876 14.3902 12.3723 14.2755L11.0223 12.9338C10.9648 12.8784 10.8869 12.8492 10.807 12.8532C10.7272 12.8571 10.6526 12.8939 10.6008 12.9548C10.2633 13.3103 9.92509 13.6658 9.58684 14.0198L9.41312 14.2019L9.41305 14.202L9.41297 14.2021C9.15777 14.4697 8.90293 14.737 8.64559 15.0023C8.50534 15.1455 8.50759 15.3248 8.65459 15.4582C8.83468 15.6224 9.01021 15.7912 9.18574 15.9599L9.18582 15.96C9.26685 16.0379 9.34787 16.1158 9.42934 16.1932C9.45679 16.2193 9.48505 16.2446 9.51332 16.2699C9.53215 16.2868 9.55099 16.3036 9.56959 16.3207C9.61742 16.3679 9.6824 16.3936 9.74959 16.392H9.89659C9.95293 16.389 10.0106 16.3858 10.0692 16.3825L10.0693 16.3825L10.0694 16.3825C10.2183 16.3743 10.3734 16.3656 10.5288 16.3597C10.6893 16.3532 10.8498 16.3476 11.0102 16.342C11.2165 16.3349 11.4228 16.3278 11.6291 16.3185L11.6328 16.3183C11.7225 16.3138 11.8207 16.309 11.8991 16.2735C12.2577 16.1075 12.6134 15.9357 12.969 15.7639L12.969 15.7639L13.2183 15.6435C13.3503 15.5797 13.4058 15.4845 13.3781 15.3443ZM13.9002 12.7927L14.0127 11.7915L14.1267 10.7986L14.2234 9.95034L14.2984 9.29036C14.2966 9.28728 14.2945 9.28226 14.2921 9.2763C14.2843 9.25762 14.2728 9.22968 14.2534 9.22286C14.2246 9.21372 14.1846 9.22831 14.1506 9.24067L14.1439 9.24311C14.1315 9.24744 14.1218 9.25917 14.112 9.271L14.112 9.271C14.1082 9.27558 14.1044 9.28018 14.1004 9.28436L13.6084 9.80184L12.6057 10.8548L11.1372 12.3923C11.0344 12.4995 11.0352 12.531 11.1417 12.63C11.4627 12.93 11.7829 13.23 12.1024 13.5322C12.324 13.7411 12.5448 13.9509 12.7657 14.1608L12.7658 14.1609C12.9113 14.299 13.0568 14.4373 13.2027 14.5754L13.2409 14.6118L13.241 14.6118C13.3301 14.6965 13.4193 14.7812 13.5124 14.8619C13.5364 14.8822 13.5844 14.8972 13.6114 14.8867C13.6384 14.8762 13.6624 14.8349 13.6699 14.8027C13.6794 14.7586 13.6829 14.7129 13.6864 14.667V14.667V14.667V14.667V14.667V14.667C13.6882 14.6442 13.6899 14.6213 13.6924 14.5987L13.8034 13.6237C13.8192 13.485 13.8355 13.3466 13.8518 13.2082C13.8681 13.0699 13.8844 12.9315 13.9002 12.7927ZM16.8671 12.5566C16.9151 12.6338 16.9226 12.7073 16.8701 12.7876C16.8129 12.8776 16.7885 12.9846 16.8011 13.0906C16.8101 13.1851 16.7711 13.2428 16.6908 13.2931C16.1887 13.6116 15.6886 13.932 15.1884 14.2525L14.8128 14.493C14.6163 14.619 14.4198 14.7443 14.2226 14.8688C14.1446 14.9183 14.0643 14.9145 14.0216 14.8515C14.0039 14.826 13.9976 14.7932 13.9928 14.768L13.9928 14.768C13.9911 14.7592 13.9896 14.7513 13.9878 14.745L14.0703 14.139L14.2541 12.8026L14.4566 11.3401L14.6538 9.90993L14.7288 9.37744L14.7294 9.37237C14.7306 9.35942 14.732 9.34547 14.7386 9.33619C14.7424 9.33131 14.7464 9.32595 14.7504 9.32047C14.7668 9.29819 14.7847 9.27381 14.8046 9.2702C14.8316 9.2657 14.8736 9.2867 14.8908 9.30995C14.9237 9.35416 14.952 9.40186 14.9803 9.4497C14.9914 9.46841 15.0025 9.48714 15.0138 9.50569L16.4801 11.9176C16.52 11.9835 16.5598 12.0495 16.5996 12.1155L16.5996 12.1156L16.5997 12.1157L16.5997 12.1157L16.5998 12.1159L16.5999 12.1161L16.6 12.1161L16.6 12.1162C16.6886 12.2632 16.7771 12.41 16.8671 12.5558V12.5566ZM13.8509 8.89171C13.842 8.88709 13.8339 8.88286 13.8274 8.8787L13.2837 8.97394L11.0562 9.36468L9.16995 9.69467C8.97345 9.72842 8.77695 9.76292 8.5812 9.79817C8.47395 9.81616 8.41995 9.86941 8.41245 9.96316C8.4072 10.0322 8.4447 10.0809 8.49195 10.1259C8.84595 10.4581 9.19995 10.7904 9.55245 11.1234C9.79345 11.3509 10.0341 11.5795 10.2747 11.8079L10.6399 12.1546C10.7569 12.2656 10.8469 12.2656 10.9594 12.1486C11.1308 11.9689 11.3017 11.7886 11.4727 11.6082L11.4733 11.6076L11.474 11.6068L11.4746 11.6062L11.4748 11.606L11.4749 11.6059L11.475 11.6058L11.4751 11.6057L11.4751 11.6057L11.4752 11.6056L11.4753 11.6055C11.6132 11.46 11.7512 11.3144 11.8894 11.1691L13.3759 9.61367L13.8859 9.07744C13.9242 9.03769 13.9564 8.99119 13.9197 8.94169C13.9024 8.9184 13.8741 8.90372 13.8509 8.89171ZM5.00947 10.0809C4.90372 10.2782 5.03497 10.4927 5.25547 10.4972L5.25622 10.4979C5.27132 10.4941 5.28652 10.4911 5.30167 10.4882L5.30169 10.4882C5.32868 10.4828 5.35554 10.4775 5.38147 10.4679C5.57408 10.3994 5.7667 10.3306 5.95934 10.2619L5.95942 10.2618L5.95951 10.2618L5.95959 10.2618L5.95975 10.2617C6.3678 10.116 6.77596 9.97033 7.18447 9.8267C7.27689 9.79986 7.34804 9.72586 7.37122 9.63245C7.41719 9.44294 7.56552 9.2952 7.75522 9.24997C7.85665 9.22571 7.94031 9.15432 7.98022 9.05797C8.16522 8.67529 8.35201 8.2938 8.53899 7.91191L8.60797 7.77102C8.64381 7.69647 8.67988 7.622 8.71596 7.54751C8.79313 7.38818 8.87034 7.22876 8.94547 7.06829C8.99523 6.97452 8.98524 6.86027 8.91997 6.77655C8.86092 6.69083 8.75659 6.64839 8.65447 6.66855C8.60117 6.67983 8.55019 6.70012 8.50372 6.72855C8.1878 6.91046 7.87216 7.09264 7.55656 7.27481C7.1409 7.51472 6.7253 7.75461 6.30922 7.99376C6.2313 8.03699 6.16651 8.10047 6.12172 8.1775C5.95159 8.46988 5.7803 8.76168 5.60894 9.05361L5.60893 9.05363L5.60876 9.05392L5.6087 9.05402C5.50365 9.23298 5.39858 9.41198 5.29372 9.59121C5.27014 9.63118 5.24638 9.67102 5.22262 9.71084L5.22262 9.71086L5.22261 9.71087L5.2226 9.71088L5.2226 9.71089C5.14966 9.83318 5.07679 9.95536 5.00947 10.0809ZM7.10226 10.7583C7.18443 10.6275 7.2666 10.4967 7.3481 10.3652L7.35276 10.3578C7.37558 10.3219 7.39909 10.2849 7.3661 10.2407C7.32982 10.1918 7.2864 10.2059 7.24248 10.2202L7.2326 10.2234L7.03385 10.2849L5.5226 10.7649L5.52235 10.765C5.25544 10.8497 4.98852 10.9344 4.7216 11.0206C4.63235 11.0499 4.60085 11.0904 4.6001 11.1856L4.60313 11.1976C4.60793 11.2168 4.61517 11.2457 4.62485 11.2741L5.1266 12.6856L5.16525 12.7938C5.20998 12.9192 5.25476 13.0447 5.30135 13.1693C5.33885 13.2691 5.4446 13.3088 5.5241 13.2518C5.55466 13.226 5.5801 13.1947 5.5991 13.1596C5.95928 12.5853 6.31901 12.0101 6.67864 11.435L6.67933 11.4339L6.67933 11.4339L6.9791 10.9546L7.10226 10.7583ZM19.4366 12.3217L19.5881 13.1887C19.5915 13.2096 19.594 13.2309 19.597 13.2559L19.6001 13.2817L19.5966 13.2993C19.59 13.3329 19.5825 13.3708 19.5723 13.4077L19.3736 14.1247C19.3166 14.3309 19.1531 14.3797 18.9881 14.2402C18.6498 13.9552 18.3101 13.6702 17.9703 13.3867C17.8931 13.3222 17.8608 13.2479 17.8788 13.1459C17.9008 13.0444 17.8887 12.9384 17.8443 12.8445C17.7978 12.7522 17.8128 12.6705 17.8736 12.5895C18.0297 12.3802 18.1851 12.1704 18.3405 11.9607L18.3406 11.9606C18.4613 11.7976 18.5821 11.6346 18.7031 11.472L18.8718 11.244C18.9281 11.1668 19.0023 11.1293 19.0968 11.1503C19.1958 11.1728 19.2468 11.2403 19.2633 11.337L19.4358 12.3217H19.4366ZM13.7485 6.33258L13.7635 6.36408L14.1722 7.25055C14.2136 7.33931 14.2551 7.42797 14.2967 7.51664C14.363 7.65796 14.4293 7.79934 14.4947 7.94127C14.5202 7.99752 14.5547 8.03727 14.6222 8.04027C14.7974 8.04732 14.9609 8.13028 15.07 8.26751C15.085 8.28473 15.1063 8.29616 15.1235 8.3054C15.1302 8.30903 15.1363 8.31233 15.1412 8.31551L15.2005 8.30351C15.3908 8.26932 15.5811 8.23506 15.7714 8.20079C16.1864 8.12606 16.6015 8.05132 17.017 7.97727C17.0717 7.96752 17.119 7.95402 17.1295 7.89178C17.14 7.82878 17.1002 7.79953 17.05 7.77478L16.6022 7.54979L14.0807 6.29058C14.0629 6.28179 14.0454 6.27244 14.0278 6.26311C13.984 6.2398 13.9403 6.21654 13.8932 6.20208C13.8512 6.18892 13.8059 6.19158 13.7657 6.20958C13.72 6.23508 13.7282 6.28758 13.7485 6.33258Z" fill="white"/>
</svg>
