<svg width="24" height="24" viewBox="0 0 24 24" fill="none" xmlns="http://www.w3.org/2000/svg">
<circle cx="12" cy="12" r="12" fill="#EDF0F4"/>
<circle cx="12.0998" cy="12.1001" r="9.3" fill="#136485"/>
<path fill-rule="evenodd" clip-rule="evenodd" d="M12.0395 2.82866H12.1114L12.0679 2.80011L12.0395 2.82866ZM5.59961 18.7984C6.5262 19.7079 7.63185 20.4121 8.84537 20.8656C10.2186 16.9712 11.2426 14.0697 11.9179 12.1604L12.0071 12.1615C12.9782 15.106 13.9439 18.0522 14.9042 21.0002C16.2072 20.5783 17.4009 19.8711 18.3996 18.9295C17.9305 18.1779 17.5986 17.6407 17.4034 17.3202C15.7313 14.5678 14.4687 11.6313 13.5709 8.53575C13.2342 7.37512 12.9132 6.2096 12.5922 5.04401C12.4432 4.50336 12.2943 3.96268 12.1438 3.42248C12.1195 3.33567 12.0905 3.25002 12.0106 3.15796C11.9861 3.23552 11.9609 3.31289 11.9358 3.39028C11.8847 3.54718 11.8336 3.70415 11.7882 3.86296C11.0318 6.51981 10.2377 9.16617 9.24558 11.7444C8.3102 14.1751 7.06784 16.4504 5.68475 18.6487L5.59961 18.7984Z" fill="white"/>
</svg>
