<svg width="24" height="24" viewBox="0 0 24 24" fill="none" xmlns="http://www.w3.org/2000/svg">
<circle cx="12" cy="12" r="12" fill="#EDF0F4"/>
<path d="M11.2036 13.1004H14.347C15.5148 13.1004 16.4715 12.1561 16.4715 10.9758C16.4715 9.79553 15.5273 8.86371 14.3594 8.86371H13.353L11.2036 7.00006H14.347C16.5461 6.98764 18.3352 8.76431 18.3352 10.9634C18.3476 12.591 17.3536 14.0571 15.8379 14.6659L18.3227 16.8153H15.49L11.2036 13.1004Z" fill="url(#paint0_linear_300_8605)"/>
<path d="M12.7442 10.7276H9.60084C8.43295 10.7276 7.47628 11.6719 7.47628 12.8522C7.47628 14.0325 8.42053 14.9767 9.60084 14.9767H10.6072L12.7442 16.8404H9.60084C7.40174 16.8404 5.61264 15.0637 5.60021 12.877C5.58779 11.237 6.58173 9.77095 8.0975 9.16216L5.61264 7.00034H8.4578L12.7442 10.7276Z" fill="#4971FA"/>
<path d="M12.7442 10.7276H9.60084C8.43295 10.7276 7.47628 11.6719 7.47628 12.8522C7.47628 14.0325 8.42053 14.9767 9.60084 14.9767H10.6072L12.7442 16.8404H9.60084C7.40174 16.8404 5.61264 15.0637 5.60021 12.877C5.58779 11.237 6.58173 9.77095 8.0975 9.16216L5.61264 7.00034H8.4578L12.7442 10.7276Z" fill="url(#paint1_linear_300_8605)"/>
<defs>
<linearGradient id="paint0_linear_300_8605" x1="11.2097" y1="16.8098" x2="18.3325" y2="16.8098" gradientUnits="userSpaceOnUse">
<stop stop-color="#62D0C9"/>
<stop offset="1" stop-color="#7DE2AC"/>
</linearGradient>
<linearGradient id="paint1_linear_300_8605" x1="5.62248" y1="16.8196" x2="12.7453" y2="16.8196" gradientUnits="userSpaceOnUse">
<stop stop-color="#3268FB"/>
<stop offset="1" stop-color="#4795FA"/>
</linearGradient>
</defs>
</svg>
