<svg width="24" height="24" viewBox="0 0 24 24" fill="none" xmlns="http://www.w3.org/2000/svg">
<circle cx="12" cy="12" r="12" fill="#EDF0F4"/>
<path d="M4 9.2H6.44068C7.86441 9.2 9.01695 10.3525 9.01695 11.7763H4V9.2Z" fill="#2D1680"/>
<path d="M9.5249 9.2H11.9656C13.3893 9.2 14.5419 10.3525 14.5419 11.7763H9.5249V9.2Z" fill="#2D1680"/>
<path d="M4 14.8949H6.44068C7.86441 14.8949 9.01695 13.7424 9.01695 12.3186H4V14.8949Z" fill="#2D1680"/>
<path d="M9.5249 14.8949H11.9656C13.3893 14.8949 14.5419 13.7424 14.5419 12.3186H9.5249V14.8949Z" fill="#2D1680"/>
<path d="M14.3389 9.2H16.1456L19.9999 14.8949H18.0914L14.3389 9.2Z" fill="#2D1680"/>
<path opacity="0.9329" d="M18.3895 11.4373L16.8979 9.25084H19.9149L18.3895 11.4373Z" fill="#EF88AA"/>
<path opacity="0.9329" d="M15.8647 12.6915L14.3901 14.8102H17.2715L15.8647 12.6915Z" fill="#EF88AA"/>
</svg>
