<svg width="24" height="24" viewBox="0 0 24 24" fill="none" xmlns="http://www.w3.org/2000/svg">
<circle cx="12" cy="12" r="12" fill="#F7F7FC"/>
<g opacity="0.5">
<path d="M5 12.42C5 11.92 5.05 11.5033 5.15 11.17C5.27667 10.7767 5.49333 10.4733 5.8 10.26C6.11333 10.04 6.49 9.93 6.93 9.93C7.64333 9.93 8.18 10.23 8.54 10.83C8.57333 10.8833 8.56333 10.9267 8.51 10.96L8.23 11.14C8.17667 11.1733 8.13333 11.16 8.1 11.1C7.82667 10.6667 7.43667 10.45 6.93 10.45C6.29 10.45 5.87333 10.75 5.68 11.35C5.59333 11.6033 5.55 11.96 5.55 12.42C5.55 12.8733 5.59333 13.2267 5.68 13.48C5.87333 14.08 6.29 14.38 6.93 14.38C7.43667 14.38 7.82667 14.1633 8.1 13.73C8.13333 13.67 8.17667 13.6567 8.23 13.69L8.51 13.87C8.56333 13.9033 8.57333 13.9467 8.54 14C8.18 14.6 7.64333 14.9 6.93 14.9C6.49 14.9 6.11333 14.7933 5.8 14.58C5.49333 14.36 5.27667 14.0533 5.15 13.66C5.05 13.3267 5 12.9133 5 12.42Z" fill="#0F1E26" fill-opacity="0.75"/>
<path d="M10.9873 14.9C10.5539 14.9 10.1806 14.7933 9.86727 14.58C9.55393 14.36 9.33393 14.0533 9.20727 13.66C9.1006 13.32 9.04727 12.9033 9.04727 12.41C9.04727 11.9233 9.1006 11.51 9.20727 11.17C9.33393 10.7767 9.55393 10.4733 9.86727 10.26C10.1806 10.04 10.5539 9.93 10.9873 9.93C11.4273 9.93 11.8039 10.04 12.1173 10.26C12.4306 10.4733 12.6506 10.7767 12.7773 11.17C12.8839 11.51 12.9373 11.9233 12.9373 12.41C12.9373 12.9033 12.8839 13.32 12.7773 13.66C12.6506 14.0533 12.4306 14.36 12.1173 14.58C11.8039 14.7933 11.4273 14.9 10.9873 14.9ZM10.9873 14.38C11.6339 14.38 12.0573 14.0833 12.2573 13.49C12.3439 13.23 12.3873 12.87 12.3873 12.41C12.3873 11.9567 12.3439 11.6 12.2573 11.34C12.0573 10.7467 11.6339 10.45 10.9873 10.45C10.3473 10.45 9.92727 10.7467 9.72727 11.34C9.6406 11.6 9.59727 11.9567 9.59727 12.41C9.59727 12.87 9.6406 13.23 9.72727 13.49C9.92727 14.0833 10.3473 14.38 10.9873 14.38Z" fill="#0F1E26" fill-opacity="0.75"/>
<path d="M14.2952 8.76H13.8552C13.7885 8.76 13.7552 8.72667 13.7552 8.66V8.1C13.7552 8.03333 13.7885 8 13.8552 8H14.2952C14.3618 8 14.3952 8.03333 14.3952 8.1V8.66C14.3952 8.72667 14.3618 8.76 14.2952 8.76ZM14.2452 14.8H13.9052C13.8385 14.8 13.8052 14.7667 13.8052 14.7V10.13C13.8052 10.0633 13.8385 10.03 13.9052 10.03H14.2452C14.3118 10.03 14.3452 10.0633 14.3452 10.13V14.7C14.3452 14.7667 14.3118 14.8 14.2452 14.8Z" fill="#0F1E26" fill-opacity="0.75"/>
<path d="M19.068 14.8H18.728C18.6613 14.8 18.628 14.7667 18.628 14.7V11.88C18.628 10.9267 18.2113 10.45 17.378 10.45C17.0046 10.45 16.6946 10.57 16.448 10.81C16.2013 11.05 16.078 11.3733 16.078 11.78V14.7C16.078 14.7667 16.0446 14.8 15.978 14.8H15.638C15.5713 14.8 15.538 14.7667 15.538 14.7V10.13C15.538 10.0633 15.5713 10.03 15.638 10.03H15.978C16.0446 10.03 16.078 10.0633 16.078 10.13V10.7H16.088C16.348 10.1867 16.818 9.93 17.498 9.93C18.0313 9.93 18.4413 10.09 18.728 10.41C19.0213 10.7233 19.168 11.17 19.168 11.75V14.7C19.168 14.7667 19.1346 14.8 19.068 14.8Z" fill="#0F1E26" fill-opacity="0.75"/>
</g>
<circle opacity="0.5" cx="12" cy="12" r="10.85" stroke="#0F1E26" stroke-opacity="0.75" stroke-width="0.3"/>
</svg>
