<svg width="24" height="24" viewBox="0 0 24 24" fill="none" xmlns="http://www.w3.org/2000/svg">
<circle cx="12" cy="12" r="12" fill="#666666"/>
<path fill-rule="evenodd" clip-rule="evenodd" d="M15.4477 12.1L18.764 13.9917C19.1466 14.2059 19.4273 14.5662 19.5426 14.9912C19.658 15.4161 19.5982 15.8699 19.3768 16.25C18.9148 17.0408 17.8909 17.3117 17.0905 16.8552L13.7735 14.9635V18.7468C13.7735 19.6598 13.0241 20.4 12.1 20.4C11.1759 20.4 10.4265 19.6598 10.4265 18.7468V14.9635L7.10953 16.8552C6.30916 17.3117 5.28526 17.0408 4.82319 16.25C4.60188 15.8698 4.54222 15.416 4.65769 14.991C4.77315 14.566 5.054 14.2058 5.43678 13.9917L8.75227 12.1L5.43678 10.2084C5.05413 9.99413 4.77344 9.63383 4.65812 9.20887C4.5428 8.7839 4.60257 8.33011 4.82394 7.95002C5.28526 7.15925 6.30916 6.88837 7.10953 7.34487L10.4265 9.23652V5.45323C10.4265 4.54023 11.1759 3.80002 12.1 3.80002C13.0241 3.80002 13.7735 4.54023 13.7735 5.45247V9.23652L17.0905 7.34487C17.8909 6.88837 18.9148 7.15925 19.3768 7.95002C19.5982 8.33011 19.658 8.7839 19.5426 9.20887C19.4273 9.63383 19.1466 9.99413 18.764 10.2084L15.4477 12.1ZM10.9622 5.45322C10.9622 4.83223 11.4723 4.32895 12.1001 4.32895C12.7287 4.32895 13.2381 4.83223 13.2381 5.45322V9.54135L12.1001 10.191L10.9622 9.5421V5.45322ZM5.17494 9.07064C5.25327 9.35954 5.44395 9.60454 5.70397 9.75036L9.288 11.7944L10.4267 11.1455V9.84769L6.84189 7.80288C6.29857 7.49273 5.60848 7.67566 5.28766 8.21486C5.13724 8.47327 5.09661 8.78173 5.17494 9.07064ZM6.84189 16.3972C6.29857 16.7073 5.60848 16.5244 5.28766 15.9852C5.13724 15.7268 5.09661 15.4183 5.17494 15.1294C5.25327 14.8405 5.44395 14.5955 5.70397 14.4497L9.288 12.4049L10.4267 13.0545V14.3524L6.84189 16.3972ZM17.3583 16.3972C17.9014 16.7074 18.5915 16.5249 18.9125 15.9859V15.9852C19.2268 15.448 19.0408 14.7598 18.4962 14.4497L14.9122 12.4056L13.7735 13.0545V14.3524L17.3583 16.3972ZM12.1001 19.8711C12.7287 19.8711 13.2381 19.3678 13.2381 18.7468V14.658L12.1001 14.0091L10.9622 14.658V18.7468C10.9622 19.3678 11.4716 19.8711 12.1001 19.8711ZM14.3765 12.1L13.7734 11.7567V12.4433L14.3765 12.1ZM12.6357 10.4966L13.2381 10.1525V10.8399L12.6357 10.4966ZM11.5643 10.4966L10.962 10.1533V10.8399L11.5643 10.4966ZM10.4266 12.4433L9.82349 12.1L10.4266 11.7567V12.4433ZM10.962 14.0475L11.5643 13.7034L10.962 13.3601V14.0475ZM13.2381 13.3601V14.0467L12.6357 13.7034L13.2381 13.3601ZM10.9622 12.7489L12.1001 13.3978L13.2381 12.7489V11.4511L12.1001 10.8022L10.9622 11.4511V12.7489ZM17.3583 7.80288C17.9016 7.49273 18.5917 7.67566 18.9125 8.21486C19.2276 8.75209 19.0401 9.44024 18.4962 9.75036L14.9122 11.7952L13.7735 11.1455V9.84769L17.3583 7.80288Z" fill="white"/>
</svg>
