<svg width="24" height="24" viewBox="0 0 24 24" fill="none" xmlns="http://www.w3.org/2000/svg">
<circle cx="12" cy="12" r="12" fill="#EDF0F4"/>
<path fill-rule="evenodd" clip-rule="evenodd" d="M11.995 6.44966C11.9889 9.38958 11.9762 10.727 11.9542 10.7491C11.9512 10.752 11.7191 10.5242 11.4382 10.2428L10.9276 9.7312L10.8618 8.46338L10.7959 7.19555L11.3278 5.61177L11.8596 4.028L11.7986 4.02539C11.7242 4.0222 11.4466 4.03661 11.2776 4.05242C10.842 4.09316 10.4047 4.16768 9.97995 4.27356L9.91013 4.29096L9.65699 5.05136C9.51777 5.46957 9.40161 5.81419 9.39886 5.81718C9.39611 5.82016 9.0719 5.65909 8.67839 5.45923C8.28488 5.25937 7.95953 5.09585 7.95538 5.09585C7.93779 5.09585 7.42996 5.43045 7.26442 5.55112C6.98802 5.75261 6.70156 5.98894 6.44375 6.22818L6.38123 6.28619L6.55973 6.37787C6.65791 6.42829 7.04059 6.62165 7.41014 6.80755C8.68395 7.44835 9.06312 7.64135 9.06601 7.6504C9.07064 7.66493 9.15633 9.1709 9.15274 9.17481C9.15096 9.17675 9.0353 9.17193 8.89573 9.16408C8.12855 9.12096 7.6226 9.09043 7.61931 9.08708C7.61726 9.08499 7.31248 8.48217 6.94201 7.74748C6.57155 7.01278 6.26664 6.40986 6.26444 6.40766C6.26224 6.40546 6.21737 6.44866 6.16472 6.50365C5.84725 6.83524 5.53699 7.23189 5.27181 7.64519C5.17996 7.78834 5.08192 7.94913 5.07417 7.96933C5.07138 7.9766 5.21813 8.27406 5.4344 8.69954C5.63512 9.0944 5.79641 9.42012 5.79285 9.42335C5.78929 9.42659 5.4439 9.54325 5.02533 9.68258C4.34958 9.90754 4.26385 9.93791 4.26033 9.95354C4.25816 9.96324 4.24366 10.0198 4.22813 10.0792C4.14642 10.3915 4.06186 10.9124 4.02687 11.319C4.01362 11.4729 3.99504 11.894 4.00122 11.9002C4.00337 11.9023 4.01715 11.9006 4.03186 11.8965C4.05451 11.89 5.03949 11.571 6.07433 11.235C6.22831 11.185 6.54915 11.0809 6.7873 11.0036L7.22032 10.8631L8.48573 10.9297L9.75116 10.9964L10.2644 11.5096L10.7777 12.0229L10.2657 12.5345L9.75381 13.0462L8.48999 13.1128L7.22617 13.1794L5.62313 12.6454L4.02009 12.1113L4.02515 12.2771C4.04107 12.7987 4.12089 13.3665 4.25949 13.9441L4.28768 14.0616L5.04902 14.315C5.46776 14.4545 5.81292 14.5708 5.81605 14.5736C5.81918 14.5764 5.6883 14.8414 5.52522 15.1625C5.36213 15.4836 5.19788 15.808 5.16021 15.8833L5.09173 16.0202L5.15909 16.1257C5.46068 16.5979 5.63321 16.8377 5.91256 17.1731C6.02978 17.3138 6.27703 17.5903 6.28536 17.5899C6.28808 17.5898 6.59223 16.9895 6.96126 16.256C7.33028 15.5226 7.6366 14.9189 7.64195 14.9145C7.6537 14.9048 9.16298 14.8169 9.17144 14.8254C9.17688 14.8308 9.09727 16.3007 9.08942 16.3396C9.08578 16.3577 9.01272 16.3951 7.13018 17.3424C6.73423 17.5416 6.40848 17.7062 6.40628 17.7082C6.40022 17.7134 6.58735 17.8927 6.7214 18.01C6.98376 18.2397 7.27451 18.4596 7.58612 18.664C7.76417 18.7808 7.96233 18.9019 7.97548 18.9019C7.98056 18.9019 8.1434 18.8214 8.33734 18.723C8.53128 18.6246 8.85434 18.4606 9.05524 18.3587C9.25614 18.2568 9.42213 18.1762 9.42411 18.1797C9.42608 18.1831 9.54174 18.5285 9.68111 18.947L9.93452 19.708L10.0241 19.7326C10.4458 19.8483 10.8989 19.9303 11.3326 19.9696C11.4793 19.9829 11.8928 20.0011 11.8994 19.9946C11.9017 19.9922 11.6641 19.2767 11.3715 18.4043L10.8394 16.8182L10.9063 15.5505L10.9733 14.283L11.4854 13.7708L11.9975 13.2587V16.6294V20L12.1795 19.9945C13.1643 19.9648 14.0381 19.7909 14.9091 19.4515C15.9177 19.0584 16.8631 18.4415 17.6326 17.6741C18.4454 16.8636 19.0626 15.9154 19.4712 14.8491C19.7251 14.1866 19.8952 13.4504 19.9598 12.7348C20.0031 12.2556 20.0032 11.7492 19.9599 11.263C19.8866 10.4382 19.6771 9.6111 19.3449 8.83532C19.2688 8.6578 19.0772 8.26864 18.9864 8.10743C18.0863 6.50881 16.7161 5.29239 15.0331 4.59783C14.2982 4.29458 13.4968 4.10162 12.6844 4.03234C12.5309 4.01925 12.148 4.00041 12.0288 4.00008L12.0001 4L11.995 6.44966ZM14.0412 6.12375C14.6749 6.34852 15.2672 6.67159 15.7929 7.07909C17.1105 8.10044 17.9653 9.58954 18.172 11.223C18.2089 11.5145 18.2161 11.6446 18.216 12.0029C18.2157 12.3605 18.2093 12.4734 18.172 12.7748C18.0564 13.7096 17.7217 14.6165 17.1996 15.4089C16.4717 16.5138 15.4207 17.3622 14.1968 17.8326C14.064 17.8836 13.8001 17.974 13.784 17.974C13.7749 17.974 13.7732 17.0111 13.7732 12.0074V6.04086L13.8432 6.05962C13.8818 6.06994 13.9709 6.09879 14.0412 6.12375Z" fill="#FF00AF"/>
</svg>
