<svg width="24" height="24" viewBox="0 0 24 24" fill="none" xmlns="http://www.w3.org/2000/svg">
<circle cx="12" cy="12" r="12" fill="#002352"/>
<path fill-rule="evenodd" clip-rule="evenodd" d="M0 12C0 5.37258 5.37258 0 12 0C18.6274 0 24 5.37258 24 12C24 18.6274 18.6274 24 12 24C5.37258 24 0 18.6274 0 12ZM21.9592 12C21.9592 6.49969 17.5003 2.04083 12 2.04083C6.49974 2.04083 2.04088 6.49969 2.04088 12C2.04088 17.5003 6.49974 21.9591 12 21.9591C17.5003 21.9591 21.9592 17.5003 21.9592 12Z" fill="#0066CC"/>
<path d="M5.22748 8.88726H13.6859C13.6859 8.88726 16.6055 8.8598 14.5864 12.6491C14.5864 12.6491 13.1129 15.6147 9.45671 15.5598L11.4267 10.4964C11.475 10.3745 11.4609 10.2366 11.3891 10.1271C11.3173 10.0176 11.1968 9.95043 11.0665 9.94717L8.47444 9.90324L5.2002 17.9213C5.2002 17.9213 6.29161 18.0311 6.89189 17.9762L6.56446 18.8H8.10881C8.19657 18.8006 8.27525 18.7457 8.30527 18.6627L8.58358 17.9213L9.23843 17.8664L8.85643 18.8H10.3626C10.4761 18.8008 10.5782 18.7308 10.6191 18.6242L11.0393 17.5368C11.0393 17.5368 15.6232 16.768 17.6969 13.0336C17.6969 13.0336 20.48 8.69504 17.2057 7.15734C16.5676 6.86287 15.8853 6.67728 15.1866 6.60816L15.5686 5.65808C15.5922 5.60084 15.586 5.53558 15.5521 5.48386C15.5182 5.43215 15.461 5.40072 15.3995 5.39996H13.9861L13.5495 6.55324H12.9492L13.2876 5.65808C13.3087 5.59993 13.3007 5.53511 13.266 5.48394C13.2314 5.43277 13.1744 5.40151 13.1129 5.39996H11.6941L11.2575 6.55324H6.84823C6.60678 6.55243 6.38447 6.6854 6.26978 6.89923L5.22748 8.88726Z" fill="white"/>
</svg>
