<svg width="24" height="24" viewBox="0 0 24 24" fill="none" xmlns="http://www.w3.org/2000/svg">
<circle cx="12" cy="12" r="12" fill="#322A3F"/>
<path d="M11.8541 6.39239L7.23977 16.0135H14.9003C15.1222 16.0134 15.3228 16.1456 15.4103 16.3495L15.4184 16.3681C15.4759 16.502 15.4672 16.6551 15.395 16.7816C15.2649 17.0082 15.0237 17.148 14.7624 17.1481H6.62117C6.49559 17.1481 6.37283 17.1109 6.26837 17.0412L6.22541 17.0128C5.96148 16.8361 5.8678 16.4921 6.00569 16.206L11.4503 5.00183C11.5073 4.88488 11.5883 4.7813 11.688 4.69787C11.883 4.53531 12.1654 4.5326 12.3634 4.69139C12.4065 4.72535 12.4414 4.76858 12.4655 4.81787L17.988 16.0994C18.0629 16.2527 18.0785 16.4283 18.0318 16.5924C17.9792 16.7779 17.8095 16.9058 17.6166 16.9054H17.5534C17.2958 16.9054 17.0614 16.7566 16.9518 16.5235L12.189 6.39407C12.159 6.32892 12.0939 6.28707 12.0222 6.28671C11.9504 6.28635 11.885 6.32755 11.8542 6.39239H11.8541Z" fill="#F4AE95"/>
</svg>
