<svg width="24" height="24" viewBox="0 0 24 24" fill="none" xmlns="http://www.w3.org/2000/svg">
<circle cx="12" cy="12" r="12" fill="#EDF0F4"/>
<path opacity="0.25" d="M10.9987 11.4315L9.3753 8.62282L7.72472 5.78617C7.63035 5.62609 7.49946 5.4906 7.34274 5.39075H7.32909C7.16172 5.48764 7.02471 5.62931 6.93345 5.79982L5.70574 7.92702C5.52843 8.23028 5.52843 8.60558 5.70574 8.90883L7.17901 11.4587C7.28814 11.6359 7.32909 11.8405 7.32909 12.045C7.32791 12.2498 7.27637 12.4511 7.17901 12.6313L5.71939 15.1537C5.54208 15.457 5.54208 15.8323 5.71939 16.1355L6.9471 18.2627C7.04258 18.4264 7.17901 18.5763 7.34274 18.6718H7.35674C7.52046 18.5763 7.64324 18.44 7.73872 18.2764L9.37572 15.4402L10.9987 12.6041C11.2033 12.24 11.2033 11.7956 10.9987 11.4315Z" fill="url(#paint0_linear_300_15496)"/>
<path opacity="0.25" d="M18.8293 11.3497L17.1923 8.52708L15.5144 5.62268C15.437 5.49099 15.3351 5.37529 15.2143 5.28178C15.1461 5.22725 15.0778 5.19995 14.996 5.19995C14.1366 5.19995 13.55 5.22725 13.1135 5.22725C13.0453 5.22725 13.0043 5.30908 13.018 5.37726L13.4408 7.75023C13.4408 7.77753 13.4408 7.80476 13.4272 7.83206C13.2635 8.13207 13.2771 8.5002 13.4545 8.80021L14.9551 11.4182C15.0642 11.6091 15.1188 11.8136 15.1188 12.0181C15.1188 12.2227 15.0642 12.4272 14.9551 12.6181L13.4408 15.2361C13.2635 15.5361 13.2635 15.9042 13.4135 16.2042C13.4275 16.2315 13.4275 16.2588 13.4275 16.2861L13.0047 18.645C12.9907 18.7132 13.032 18.795 13.1002 18.795C13.4958 18.795 12.9364 18.8359 15.0372 18.8359C15.0782 18.8359 15.1327 18.8219 15.1737 18.8086C15.3237 18.7541 15.4192 18.5768 15.5011 18.4268L17.179 15.5088L18.8023 12.6861C19.0613 12.2769 19.0613 11.7724 18.8296 11.3497" fill="url(#paint1_linear_300_15496)"/>
<path d="M18.1607 11.4316L14.9004 5.78626C14.6958 5.43179 14.3138 5.19995 13.8909 5.19995H7.37024C7.15198 5.19995 6.94738 5.26813 6.75635 5.37719V5.39084C6.91307 5.49069 7.04396 5.62619 7.13833 5.78626L8.77533 8.62291C8.92541 8.55473 9.10272 8.51385 9.26644 8.51385H11.9674C12.3903 8.51385 12.7724 8.73204 12.9769 9.10016L14.3274 11.4316C14.532 11.7861 14.532 12.2361 14.3274 12.6042L12.9769 14.936C12.7723 15.2905 12.3766 15.5223 11.9674 15.5223H9.28002C9.11037 15.5218 8.94285 15.4846 8.78891 15.4132L7.15198 18.2495C7.05761 18.4095 6.92672 18.545 6.77 18.6449V18.6589C6.94731 18.768 7.16563 18.8361 7.38389 18.8361H13.9179C14.3407 18.8361 14.7229 18.6179 14.9273 18.2498L18.1878 12.6042C18.379 12.2361 18.379 11.7997 18.1607 11.4316Z" fill="url(#paint2_linear_300_15496)"/>
<path d="M10.3987 11.4315L8.77532 8.62281L7.13832 5.78617C7.04394 5.62609 6.91305 5.4906 6.75633 5.39075H6.74296C6.5756 5.48764 6.43858 5.62931 6.34733 5.79982L5.13298 7.91337C4.95567 8.21663 4.95567 8.59193 5.13298 8.89518L6.60625 11.445C6.71538 11.6223 6.75633 11.8268 6.75633 12.0314C6.75516 12.2361 6.70362 12.4375 6.60625 12.6177L5.13298 15.1537C4.95567 15.457 4.95567 15.8323 5.13298 16.1355L6.36077 18.2629C6.45625 18.4266 6.59267 18.5765 6.7564 18.672H6.7704C6.93413 18.5765 7.05691 18.4402 7.15239 18.2766L8.78904 15.4407L10.4123 12.6317C10.6169 12.236 10.6169 11.7996 10.3987 11.4315Z" fill="url(#paint3_linear_300_15496)"/>
<defs>
<linearGradient id="paint0_linear_300_15496" x1="5.58513" y1="18.6539" x2="11.1495" y2="18.6539" gradientUnits="userSpaceOnUse">
<stop stop-color="#00BA96"/>
<stop offset="0.52" stop-color="#00D9AF"/>
<stop offset="1" stop-color="#00D9AF"/>
</linearGradient>
<linearGradient id="paint1_linear_300_15496" x1="13.0115" y1="18.836" x2="19.0098" y2="18.836" gradientUnits="userSpaceOnUse">
<stop stop-color="#008D85"/>
<stop offset="1" stop-color="#00FFE0"/>
</linearGradient>
<linearGradient id="paint2_linear_300_15496" x1="6.75635" y1="18.836" x2="18.328" y2="18.836" gradientUnits="userSpaceOnUse">
<stop stop-color="#008D94"/>
<stop offset="1" stop-color="#00FFE0"/>
</linearGradient>
<linearGradient id="paint3_linear_300_15496" x1="4.99999" y1="18.672" x2="10.5641" y2="18.672" gradientUnits="userSpaceOnUse">
<stop stop-color="#00BA96"/>
<stop offset="0.52" stop-color="#00D9AF"/>
<stop offset="1" stop-color="#00FAAF"/>
</linearGradient>
</defs>
</svg>
