<svg width="24" height="24" viewBox="0 0 24 24" fill="none" xmlns="http://www.w3.org/2000/svg">
<path fill-rule="evenodd" clip-rule="evenodd" d="M12 24C5.4 24 0 18.6001 0 11.9402C0.06 5.34038 5.4 -0.0595036 12.06 0.000495204C18.66 0.060494 24 5.40038 24 12.1202C23.94 18.6601 18.6 24 12 24Z" fill="#EDF0F4"/>
<path d="M19.1018 10.6518C19.0001 10.1621 18.8205 9.69182 18.5697 9.259C18.0533 8.39825 16.9265 7.14627 15.518 6.16032C15.518 6.16032 14.4538 5.47173 13.953 5.23698C12.122 4.39189 10.0719 4.21974 8.31909 5.76908C5.37692 8.3826 3.90583 12.029 5.37692 15.6598C5.40822 15.738 6.22201 17.9603 11.1048 19.447C13.2488 19.5096 14.5008 19.3844 15.878 18.5863C17.6777 17.5534 18.7262 15.6754 19.1018 13.7662C19.2114 13.1871 19.227 11.2309 19.1018 10.6518Z" fill="#04FFCC"/>
<path d="M13.4068 5.50303V8.99295L9.36917 8.74255L7.71028 10.8396L7.50684 14.799L8.88402 16.2701L10.9498 17.303L13.6572 17.6004L16.5994 16.8492V9.57199L16.036 6.55157C16.036 6.55157 14.4554 5.31523 13.4225 5.01789" fill="#7DF8FB"/>
<path fill-rule="evenodd" clip-rule="evenodd" d="M17.7512 13.2841C17.7699 13.7887 17.7828 14.138 18.1315 14.1574C18.4898 14.1402 18.8318 14.0023 19.1018 13.7661C18.7262 15.6754 17.6777 17.5534 15.878 18.5863C14.5008 19.3844 12.7793 19.6505 11.1048 19.447C10.8544 18.7271 10.1971 17.9603 9.05463 17.3813C8.35738 17.0235 7.80341 16.5648 7.34177 16.1825C6.61183 15.5781 6.11272 15.1648 5.64297 15.6441C5.57157 15.7111 5.5132 15.7907 5.47082 15.8789C5.43952 15.8163 5.40822 15.738 5.37692 15.6598C3.90583 12.029 5.37692 8.3826 8.31909 5.76908C10.0719 4.21974 12.122 4.39189 13.953 5.23698C13.7304 5.41552 13.6033 5.68722 13.6087 5.97253V9.63459C12.0362 8.72298 10.0349 9.08359 8.87942 10.4867C7.72396 11.8899 7.75394 13.9232 8.95026 15.2917C10.1466 16.6602 12.1576 16.9616 13.7026 16.0041C13.8928 16.408 14.3378 16.6258 14.7734 16.5281C15.209 16.4305 15.5185 16.0436 15.518 15.5972V6.16032C16.9265 7.14626 18.0533 8.39825 18.5697 9.25899C18.8205 9.69181 19.0001 10.1621 19.1018 10.6518C18.88 10.489 18.6225 10.3816 18.3506 10.3388C17.7716 10.3075 17.3334 11.09 17.6307 12.2168C17.7261 12.6043 17.7398 12.9736 17.7512 13.2841ZM12.8279 7.45927C12.8122 7.22452 12.421 6.72373 11.9984 6.73938C11.5586 6.75503 11.2472 7.28712 11.2629 7.52187C11.2785 7.75662 11.6072 7.89746 12.061 7.74097C12.2146 7.68781 12.3637 7.66809 12.489 7.65151C12.6957 7.62418 12.8376 7.60542 12.8279 7.45927Z" fill="#2C398F"/>
<path d="M11.0734 14.22C11.9811 14.7364 13.0766 14.533 13.28 13.3749C13.3896 12.702 13.327 11.6534 12.7323 11.3248C10.7604 10.198 9.10152 13.0932 11.0734 14.22Z" fill="#2C398F"/>
</svg>
