<svg width="24" height="24" viewBox="0 0 24 24" fill="none" xmlns="http://www.w3.org/2000/svg">
<circle cx="12" cy="12" r="12" fill="#786DBC"/>
<path d="M11.8975 8.1062L10.6756 6.8879C10.454 6.67707 10.3623 6.36465 10.4351 6.06834C10.5078 5.77203 10.734 5.53683 11.0284 5.45135C11.3227 5.36587 11.6406 5.4431 11.8622 5.65393L11.8907 5.68228L14.618 8.39492C14.9533 8.72841 14.9533 9.2678 14.618 9.60129L11.8877 12.3139C11.5508 12.6336 11.0189 12.6274 10.6897 12.2999C10.3604 11.9724 10.3542 11.4434 10.6756 11.1083L11.956 9.8348C10.1889 9.52456 8.41531 10.3458 7.51643 11.8905C6.61755 13.4352 6.78505 15.3739 7.9357 16.7434C9.08635 18.1129 10.9748 18.6212 12.6628 18.0156C14.3507 17.4101 15.4782 15.8198 15.4851 14.0351V4.65273C15.4851 4.18177 15.8689 3.79999 16.3424 3.79999C16.8159 3.79999 17.1997 4.18177 17.1997 4.65273V14.1492C17.1507 16.6153 15.5816 18.7973 13.2511 19.6403C10.9207 20.4833 8.30889 19.8136 6.67866 17.9549C5.04843 16.0963 4.73561 13.4317 5.89145 11.2494C7.04729 9.0672 9.43366 7.81696 11.8967 8.10322L11.8975 8.1062Z" fill="white"/>
</svg>
