<svg width="24" height="24" viewBox="0 0 24 24" fill="none" xmlns="http://www.w3.org/2000/svg">
<circle cx="12" cy="12" r="12" fill="#FFF706"/>
<path fill-rule="evenodd" clip-rule="evenodd" d="M12.0013 5.03508C11.8575 5.08648 11.7145 5.24946 11.6239 5.46528C11.5747 5.58238 11.4979 5.94004 11.4965 6.05795C11.4958 6.1209 11.4906 6.12618 11.4631 6.09203C11.4453 6.06977 11.3794 6.01156 11.3168 5.96267C11.2271 5.89264 11.1703 5.87084 11.0491 5.85985C10.9103 5.84725 10.8868 5.85296 10.8098 5.91773C10.6991 6.01087 10.66 6.15722 10.6776 6.41267C10.6918 6.61806 10.7646 6.84354 10.8599 6.9774C10.8894 7.01887 10.9071 7.06328 10.8992 7.07606C10.8913 7.08887 10.8095 7.11385 10.7174 7.13157C9.51273 7.36343 8.47069 8.08083 7.79836 9.14119C7.62489 9.41479 7.39717 9.85689 7.32053 10.0688C7.17791 10.4633 7.11127 10.6592 7.07554 10.7894C6.9034 11.4163 6.77733 12.1901 6.76687 12.6842L6.76036 12.9911L7.47475 12.9982L8.18911 13.0053L8.21532 12.9364C8.22971 12.8985 8.2415 12.7947 8.2415 12.7057C8.2415 12.1979 8.49087 11.1634 8.7416 10.6308C8.90303 10.288 9.16827 9.89129 9.39987 9.6463C9.71301 9.31506 10.229 8.99892 10.6967 8.85179C11.0913 8.72767 11.3386 8.69615 11.911 8.69701C12.3784 8.6977 12.521 8.70763 12.7702 8.75671C13.0903 8.81977 13.3957 8.91328 13.6323 9.02067C13.7131 9.05731 13.8031 9.09814 13.8325 9.11141C13.8618 9.1247 13.9219 9.15926 13.9659 9.18824C14.0099 9.21722 14.064 9.24919 14.086 9.25933C14.2966 9.35615 14.8368 9.87106 15.0393 10.1679C15.172 10.3625 15.3759 10.7388 15.4337 10.8961C15.6631 11.5196 15.7422 11.9174 15.784 12.6575C15.794 12.8338 15.814 12.9728 15.831 12.9842C15.8474 12.9951 16.1729 13.0011 16.5546 12.9976L17.2484 12.9911L17.2572 12.6842C17.2703 12.2251 17.1874 11.4524 17.0865 11.0939C17.0655 11.0192 17.0483 10.9411 17.0483 10.9203C17.0483 10.8576 16.8485 10.2586 16.742 10.0021C16.3847 9.1414 15.7825 8.38661 15.0467 7.87718C14.886 7.76584 14.7924 7.70873 14.5342 7.56441C14.3014 7.43423 13.6518 7.18882 13.4324 7.14814C13.3738 7.13726 13.3174 7.12317 13.3071 7.11679C13.2967 7.11041 13.3191 7.04377 13.3568 6.9687C13.557 6.57013 13.5422 6.03187 13.3272 5.89099C13.2201 5.82078 13.0233 5.84954 12.8903 5.95485C12.8318 6.00116 12.7777 6.03905 12.77 6.03905C12.7622 6.03905 12.7476 5.95798 12.7374 5.85891C12.7155 5.64445 12.598 5.3442 12.4801 5.20113C12.3987 5.10246 12.2223 4.99878 12.1378 5.00001C12.1158 5.00033 12.0544 5.0161 12.0013 5.03508ZM10.8307 10.582C10.7945 10.6011 10.7374 10.6573 10.7039 10.7069C10.6471 10.7912 10.6431 10.8246 10.6431 11.2087C10.6431 11.6282 10.6535 11.6823 10.7565 11.7954C10.8791 11.9301 11.104 11.8948 11.1989 11.7259C11.2513 11.6326 11.2569 11.584 11.2569 11.2181C11.2569 10.7956 11.2413 10.7225 11.1295 10.6214C11.0597 10.5582 10.9128 10.5388 10.8307 10.582ZM13.0304 10.5867C12.8735 10.655 12.8582 10.7112 12.8582 11.2179C12.8582 11.6336 12.8631 11.682 12.9121 11.7507C12.9851 11.8533 13.1227 11.8973 13.2447 11.857C13.4256 11.7973 13.4453 11.7343 13.4453 11.2179C13.4453 10.7171 13.4319 10.665 13.2826 10.5878C13.1915 10.5407 13.1365 10.5404 13.0304 10.5867ZM6.01747 13.6627C5.99524 13.6849 5.9937 16.5071 6.01587 16.5649C6.03002 16.6018 6.11277 16.6071 6.6684 16.6071C7.48874 16.6071 7.6633 16.573 8.00901 16.3446C8.41348 16.0775 8.64171 15.6379 8.64171 15.126C8.64171 14.4371 8.22493 13.8884 7.54935 13.6879C7.43248 13.6532 7.27183 13.6449 6.71983 13.6449C6.34333 13.6449 6.02724 13.6529 6.01747 13.6627ZM9.94952 13.6938C9.7634 13.7503 9.54387 13.8631 9.44945 13.9506C9.40921 13.9879 9.36787 14.0185 9.35757 14.0185C9.31805 14.0185 9.0884 14.3471 9.01701 14.5059C8.88529 14.7987 8.85372 15.108 8.92225 15.4338C8.98334 15.7241 9.10644 15.9496 9.32237 16.1665C9.86081 16.7075 10.6886 16.7522 11.3102 16.2738C11.3985 16.2059 11.4707 16.1419 11.4707 16.1316C11.4707 16.1213 11.5015 16.0797 11.5391 16.0391C11.6242 15.9473 11.745 15.706 11.8015 15.5148C11.8279 15.4254 11.8442 15.2719 11.844 15.1145C11.8434 14.6871 11.7047 14.3536 11.405 14.0585C11.2246 13.8809 11.052 13.7776 10.8025 13.6979C10.5904 13.6301 10.1658 13.6281 9.94952 13.6938ZM12.2241 15.1193L12.231 16.5938L12.8448 16.6023C13.2389 16.6077 13.5255 16.5992 13.6455 16.5787C14.3437 16.4592 14.8637 15.8251 14.8588 15.0993C14.8553 14.5848 14.5637 14.0872 14.1111 13.8236C13.8344 13.6623 13.7197 13.6449 12.9345 13.6449H12.2172L12.2241 15.1193ZM16.0955 13.6981C15.7542 13.8194 15.5463 13.9623 15.364 14.2006C15.0888 14.5606 14.9929 14.9872 15.0869 15.4338C15.3117 16.5027 16.5764 16.9601 17.4531 16.2898C17.6953 16.1045 17.838 15.8948 17.9571 15.5486C18.0296 15.3378 18.0283 14.9232 17.9545 14.6876C17.8021 14.2015 17.4194 13.8253 16.9373 13.6879C16.725 13.6273 16.2793 13.6327 16.0955 13.6981ZM7.43886 14.3643C7.86722 14.5829 8.00533 15.243 7.70838 15.6525C7.54289 15.8808 7.3876 15.9448 7.02527 15.9343L6.76037 15.9266L6.7533 15.1193L6.74625 14.312H7.04125C7.28168 14.312 7.35525 14.3217 7.43886 14.3643ZM10.6582 14.3754C10.9166 14.4957 11.0807 14.7858 11.08 15.1213C11.0796 15.3767 11.0075 15.5534 10.8326 15.7282C10.7005 15.8601 10.6646 15.8809 10.5195 15.9093C10.1834 15.9753 9.90365 15.8376 9.74158 15.5263C9.6802 15.4084 9.67211 15.3618 9.6723 15.126C9.67246 14.9052 9.68286 14.8371 9.73245 14.7317C9.90402 14.3671 10.3072 14.2119 10.6582 14.3754ZM13.6552 14.3635C13.7872 14.4308 13.9336 14.5951 14.0053 14.7564C14.0822 14.9297 14.0873 15.2625 14.0161 15.463C13.9524 15.6425 13.7414 15.8614 13.5877 15.9074C13.5281 15.9253 13.3637 15.9399 13.2223 15.9399H12.9651V15.126V14.312H13.2598C13.498 14.312 13.5737 14.3218 13.6552 14.3635ZM16.8214 14.3757C16.9921 14.4564 17.0811 14.5527 17.1697 14.7524C17.2232 14.873 17.2412 14.9586 17.243 15.0993C17.2464 15.3786 17.18 15.5469 16.9945 15.7287C16.864 15.8566 16.8202 15.8823 16.6851 15.9107C16.3573 15.9797 16.0694 15.8377 15.9055 15.5263C15.8428 15.4074 15.8353 15.364 15.8363 15.126C15.8373 14.9069 15.8482 14.8364 15.8973 14.7318C16.0694 14.365 16.4713 14.2102 16.8214 14.3757Z" fill="black"/>
</svg>
