<svg width="24" height="24" viewBox="0 0 24 24" fill="none" xmlns="http://www.w3.org/2000/svg">
<circle cx="12" cy="12" r="12" fill="#988430"/>
<circle cx="11.9999" cy="12" r="11.6156" fill="#7A6A2A"/>
<circle cx="11.9998" cy="12" r="11.3709" fill="#BA9F33"/>
<path fill-rule="evenodd" clip-rule="evenodd" d="M5.24628 10.7185C5.17831 10.6564 5.1065 10.5942 5.04045 10.5321C4.9744 10.47 4.90656 10.4078 4.8386 10.3457L4.63661 10.1537C4.60359 10.1207 4.56864 10.0916 4.53562 10.0585C4.5026 10.0294 4.46381 9.99641 4.43079 9.96722C4.16276 9.71289 3.89319 9.45855 3.62887 9.20409C3.90266 9.45458 4.17069 9.70329 4.44448 9.95749L4.53959 10.0527C4.57261 10.0856 4.60756 10.1148 4.64058 10.1478L4.84244 10.3342C4.9104 10.3963 4.97645 10.4585 5.04442 10.5262C5.11239 10.5939 5.17844 10.6562 5.2464 10.7182L5.24628 10.7185ZM1.68912 10.6801C1.68912 10.6801 2.66384 10.7809 3.13961 10.8489C3.58032 10.9111 4.959 11.1227 4.959 11.1227L1.68912 10.6801ZM1.68909 10.6801C1.96288 10.7033 2.23668 10.7324 2.51047 10.7616C2.65024 10.7752 2.78426 10.7906 2.91828 10.8042L3.12397 10.8276C3.19194 10.8372 3.25799 10.847 3.32596 10.8567L4.14157 10.9867L4.54925 11.0547C4.68327 11.078 4.81728 11.1033 4.95706 11.1266C4.82304 11.1131 4.68327 11.0936 4.54925 11.0742L4.14157 11.0159L3.32596 10.8956C3.25799 10.8859 3.19194 10.8722 3.12397 10.8626L2.91815 10.8389C2.78413 10.8253 2.64436 10.8059 2.51034 10.7903C2.23655 10.7574 1.96276 10.7223 1.68896 10.6797L1.68909 10.6801ZM4.86185 11.3766C4.86185 11.3766 3.82108 11.6408 3.46959 11.7418C3.12399 11.8369 2.07734 12.1554 2.07734 12.1554L4.86172 11.3768L4.86185 11.3766Z" fill="#CFB66C"/>
<path fill-rule="evenodd" clip-rule="evenodd" d="M4.86203 11.3766C4.63099 11.4446 4.40123 11.5106 4.16686 11.5729L3.47169 11.7592C3.24065 11.8272 3.01089 11.8932 2.78049 11.9612L2.43489 12.0563C2.32033 12.0893 2.20385 12.1184 2.08545 12.1515C2.19988 12.1131 2.31649 12.0738 2.43105 12.0408L2.77665 11.9302C3.00769 11.8583 3.23745 11.7903 3.46785 11.7185C3.70273 11.6603 3.9339 11.5981 4.16878 11.5418C4.39201 11.4854 4.62702 11.4292 4.86203 11.3768V11.3766ZM2.22341 12.7962C2.33784 12.7534 3.65829 12.138 3.9651 11.9942C4.1187 11.9223 4.56517 11.7638 4.56517 11.7638L2.22341 12.7962Z" fill="#CFB66C"/>
<path fill-rule="evenodd" clip-rule="evenodd" d="M2.22327 12.7962C2.32414 12.7578 2.41937 12.7108 2.51639 12.6661L2.80375 12.5321L3.38052 12.2545C3.57252 12.1632 3.75914 12.0625 3.95716 11.9767C4.05815 11.9341 4.15914 11.8991 4.26001 11.8661L4.41361 11.8176C4.46596 11.804 4.5146 11.7884 4.56721 11.7748C4.37521 11.8661 4.1731 11.9438 3.98084 12.033C3.78884 12.1282 3.59249 12.2059 3.39434 12.2913L2.80798 12.5495C2.61111 12.6292 2.41911 12.7146 2.22314 12.7962H2.22327ZM2.35141 13.3338C2.35141 13.3338 3.54744 12.6328 3.95909 12.4076C4.17464 12.2872 4.87173 11.9415 4.87173 11.9415L2.35141 13.3338Z" fill="#CFB66C"/>
<path fill-rule="evenodd" clip-rule="evenodd" d="M2.35156 13.334C2.55342 13.2097 2.75924 13.0835 2.96507 12.9554L3.27227 12.7689C3.3771 12.7068 3.47809 12.6486 3.58497 12.5865C3.6898 12.5243 3.79079 12.4622 3.89755 12.404C3.94837 12.3726 4.00161 12.3453 4.05678 12.3224L4.21985 12.2409C4.4354 12.1361 4.65095 12.0292 4.87815 11.9379C4.67233 12.0681 4.46062 12.1788 4.24903 12.2933C4.1442 12.3515 4.03732 12.404 3.93249 12.4622C3.82766 12.5205 3.72667 12.5827 3.61979 12.639C3.51495 12.7011 3.41396 12.7593 3.30721 12.8156L2.99067 12.9884L2.35182 13.334H2.35156ZM4.86214 12.0951C4.86214 12.0951 4.11846 12.666 3.87769 12.8485C3.63692 13.031 2.92819 13.5437 2.92819 13.5437L4.86214 12.0951Z" fill="#CFB66C"/>
<path fill-rule="evenodd" clip-rule="evenodd" d="M9.13006 16.699L8.74951 15.9786L8.97082 15.0776L10.5494 14.468L9.87758 13.0894L10.2096 11.6972L10.833 10.4504L12.7592 10.1476L14.1747 8.79808L17.231 9.02912L17.831 12.2971L16.6757 16.4116L16.0175 18.5418L13.3494 18.6428L12.1107 17.7846L10.6602 17.1786L9.13006 16.699Z" fill="#E2CC85"/>
<path fill-rule="evenodd" clip-rule="evenodd" d="M13.81 16.6757C13.81 16.6757 13.441 16.8447 12.8116 16.8058C12.6295 16.5611 11.3538 16.4466 11.3538 16.4466C11.3538 16.4466 11.1946 16.3981 10.913 16.5146C10.6296 16.6298 10.3616 16.6155 10.1111 16.6776C9.86056 16.7397 9.61186 16.4136 9.41986 16.3456C9.22786 16.2738 8.97327 16.101 8.97327 16.101L8.43567 16.0485L7.35611 15.5922L5.64104 13.8835L5.17499 14.6131L5.03125 15.516L5.54978 16.586L6.94587 17.8578L9.66818 18.549L11.2817 18.0736L13.3031 17.2192L13.81 16.6756V16.6757Z" fill="#F1D789"/>
<path fill-rule="evenodd" clip-rule="evenodd" d="M4.13816 10.6369L4.48376 9.59039L4.89554 8.91455L6.22162 8.80383L5.82354 9.96505L4.71493 11.9379L5.17509 13.6991L4.3596 14.1067L4.10898 13.7224L3.90712 12.8408L3.89355 11.8505L4.13816 10.6369Z" fill="#F4ECB4"/>
<path fill-rule="evenodd" clip-rule="evenodd" d="M5.62513 16.6039L5.37079 16.2486C5.37079 16.2486 5.30282 16.0796 5.34174 15.932C5.38014 15.7825 5.37463 15.7728 5.3553 15.7165C5.33598 15.6602 5.17278 15.466 5.1825 15.2989C5.1921 15.13 5.16894 15.0737 5.2931 14.9398C5.42314 14.8097 5.38436 14.5844 5.38436 14.5844L5.55332 14.6893L5.59172 14.631C5.59172 14.631 5.6538 14.6795 5.6538 14.7553C5.66737 14.6505 5.61105 14.165 5.73918 14.0544C5.8673 13.9438 6.0945 14.5728 6.0945 14.5728L5.95473 13.6602L5.59543 12.7243L4.95658 11.8699L4.91818 10.9281V10.8466C4.91818 10.8466 4.62494 11.2971 4.5434 11.653C4.48516 11.8976 4.62494 12.1947 4.59588 12.5462C4.57246 12.8957 4.5434 12.8685 4.62878 13.007C4.71415 13.1455 4.92202 13.4303 4.84049 13.6361C4.76868 13.8129 4.52394 13.6886 4.52394 13.6886C4.52394 13.6886 4.47543 13.8322 4.40938 13.8847C4.38609 13.7993 4.36087 13.7449 4.31428 13.6927C4.31031 13.7257 4.30071 13.7704 4.30071 13.7704C4.30071 13.7704 4.25796 13.6363 4.21521 13.4674C4.1571 13.2422 4.09489 12.9451 4.03857 12.7859C4.01527 12.8772 3.95703 13.1548 3.95703 13.1548L3.99006 13.5821L4.14929 14.1684L4.30289 14.5524L4.45239 15.0223L4.58231 15.338L4.68714 15.5787L4.77841 16.1206L5.21911 16.5865L5.45412 16.6915L5.62487 16.604L5.62513 16.6039Z" fill="#F3E19D"/>
<path fill-rule="evenodd" clip-rule="evenodd" d="M4.36876 9.78253C4.36876 9.78253 4.05222 10.3201 3.96108 10.8621C3.86995 11.404 3.78828 11.9767 3.84588 12.7145C3.90412 13.4583 4.01484 13.9145 4.10419 14.2408C4.25779 14.7826 4.65561 15.536 4.65561 15.536L4.66918 15.5068C4.60231 15.3801 4.54894 15.2466 4.50995 15.1087C4.45747 14.9029 4.43801 14.6583 4.3895 14.5476C4.34675 14.437 4.27494 14.3418 4.24 14.2058C4.20697 14.0758 4.2016 13.87 4.10022 13.7166C4.05747 13.6544 4.00499 13.4913 3.9895 13.3283C3.97004 13.0835 3.99923 12.8097 3.97593 12.5846C3.93318 12.2098 3.90412 11.9555 3.94291 11.7592C3.98169 11.563 4.1838 11.006 4.30809 10.5632C4.38963 10.2797 4.34099 10.0408 4.49049 9.79418C4.64 9.54957 4.73139 9.33402 4.76428 9.18452C4.80268 9.04858 4.36825 9.78253 4.36825 9.78253H4.36876Z" fill="#F2E8B0"/>
<path fill-rule="evenodd" clip-rule="evenodd" d="M5.86996 9.56697C5.86996 9.56697 5.70689 9.61561 5.6292 9.70099C5.5515 9.78252 5.51848 9.85049 5.41364 9.98835C5.30881 10.1262 5.30292 10.2388 5.21742 10.4116C5.13204 10.5806 4.94363 10.8349 4.92033 10.9262C4.89704 11.0175 4.85825 11.4446 4.80974 11.6466C4.76699 11.8486 4.85825 12.0971 4.85825 12.0971L4.96884 12.0737C4.96884 12.0737 4.96884 12.2175 5.07956 12.3146C5.19016 12.4097 5.20961 11.9922 5.20961 11.9922L5.62318 10.5961L6.24641 10.1728L6.31438 9.83103L5.86971 9.56697H5.86996Z" fill="#F5EEC0"/>
<path fill-rule="evenodd" clip-rule="evenodd" d="M6.17265 10.2001C6.17265 10.2001 5.87941 10.2194 5.73579 10.3243C5.67755 10.367 5.65425 10.4019 5.59217 10.4544C5.47761 10.5495 5.36101 10.6369 5.30481 10.7616C5.24261 10.8858 5.17464 11.0742 5.12805 11.4295C5.10859 11.579 5.10859 11.7169 5.09502 11.8373C5.07557 12.0004 5.04651 12.1304 5.062 12.2213C5.08145 12.4077 5.27371 12.5048 5.2924 12.7164L5.69048 12.5146L6.06526 11.0368L6.86142 10.5376L6.41086 10.0328L6.17214 10.1992L6.17265 10.2001Z" fill="#E6DB9D"/>
<path fill-rule="evenodd" clip-rule="evenodd" d="M4.07288 20.1509C4.07455 20.1363 4.07621 20.1217 4.07787 20.1068C4.13599 19.6076 4.14584 19.2292 4.18847 18.9923C4.25055 18.6564 4.2933 18.5315 4.28357 18.4058C4.27 18.2039 4.25451 18.0563 4.27397 17.9009C4.30303 17.6951 4.50501 17.4505 4.49925 17.2815C4.49528 17.1475 4.42731 17.0602 4.36907 16.9787C4.31083 16.8972 4.26424 16.8292 4.26424 16.8292C4.26424 16.8292 4.66232 16.5554 4.65848 15.4524C4.66661 15.4547 4.67443 15.458 4.68178 15.4622L4.87787 16.0193L5.01189 16.1824L5.52645 17.1416L6.18859 17.7845L7.16715 18.4426L7.78079 19.1104L7.84287 20.891L7.04095 21.9318L6.90962 22.1696C5.86625 21.6458 4.90949 20.9649 4.07275 20.1508L4.07288 20.1509Z" fill="#E5CB7A"/>
<path fill-rule="evenodd" clip-rule="evenodd" d="M6.52246 21.8543C6.52246 21.8543 6.53603 21.633 6.71856 21.4893C6.74774 21.5378 6.76707 21.5845 6.76131 21.6193C6.79433 21.5612 7.02537 21.1884 7.54774 21.0912C8.07011 20.9961 8.19632 20.6156 8.19632 20.6156L9.30492 19.6078L10.5729 18.4408L12.1147 17.899L12.8352 17.7222C12.8352 17.7222 12.8487 17.7747 12.8216 17.8912C12.9555 17.8816 13.2526 17.8136 13.5613 17.7048C13.6856 17.6563 13.8022 17.6369 13.8643 17.701C13.9555 17.7864 13.9691 17.9884 13.9749 18.1087C14.1244 18.0757 14.2972 17.932 14.4357 17.9456C14.6571 17.9689 14.8532 18.2291 15.0785 18.2291C15.3756 18.2291 15.5095 18.0466 15.7173 17.9029C15.8416 17.8175 16.0202 17.7109 16.1212 17.6388C16.3619 17.462 18.9095 16.6834 18.9095 16.6834L19.8027 16.7416L19.9465 17.7009L19.8697 20.2084C19.8602 20.2175 19.8507 20.2269 19.8411 20.236L15.7799 22.3571L10.1505 23.2201C8.88948 23.0141 7.67258 22.5955 6.55164 21.9822L6.52284 21.8542L6.52246 21.8543Z" fill="#D8C173"/>
<path fill-rule="evenodd" clip-rule="evenodd" d="M4.41406 20.4699C4.49406 20.3026 4.566 20.1627 4.57867 20.1126C4.58865 20.2135 4.60696 20.4348 4.64382 20.6701C4.56643 20.6043 4.48984 20.5375 4.41406 20.4698V20.4699Z" fill="#F1D789"/>
<path fill-rule="evenodd" clip-rule="evenodd" d="M8.52629 22.8297L9.25435 22.6272L9.31643 22.6467C9.31643 22.6467 9.34945 22.6661 9.34945 22.732C9.44072 22.6797 9.51841 22.6893 9.57473 22.6545C9.60379 22.7165 9.63285 22.9224 9.7611 22.9476C9.89499 22.9768 10.0387 22.8893 10.1844 22.7788C10.328 22.6642 10.4916 22.5205 10.6154 22.4622C10.6608 22.5457 10.701 22.6319 10.7358 22.7204C10.8989 22.5903 11.1824 22.0622 11.5863 22.0718C11.703 21.796 11.898 21.5604 12.1472 21.3942C12.5219 21.1398 12.7568 21.1204 13.0501 21.1437C13.1665 20.9924 13.3101 20.864 13.4734 20.7651C13.5219 20.7845 13.6559 20.8661 13.8229 20.7884C13.9919 20.7108 14.1821 20.4097 14.4326 20.3709C14.5676 20.3524 14.7048 20.3812 14.8209 20.4525C14.8209 20.4525 15.5505 19.7281 16.054 19.4874C16.0345 19.4291 15.9957 19.2097 16.5859 18.7242C16.619 18.7534 16.5957 18.8349 16.619 18.8394C16.6286 18.8394 16.7726 18.7773 16.9548 18.6374C17.1801 18.4686 17.4499 18.2918 17.613 18.2433C17.9202 18.1521 18.2461 18.3384 18.2461 18.3384C18.2738 18.319 18.3047 18.3045 18.3374 18.2957C18.4149 18.2821 18.4712 18.2724 18.514 18.2573C18.5102 18.3583 18.5665 18.5311 18.514 18.6806C18.5748 18.7148 18.6392 18.7421 18.706 18.7621C18.6731 18.8339 18.6012 19.0165 18.4808 19.1039C18.5817 19.1524 18.5953 19.2087 18.739 19.2575C18.6808 19.339 18.5854 19.4789 18.5429 19.5647C18.5002 19.6559 18.3467 20.0346 18.2787 20.1782C18.2069 20.3219 18.1099 20.586 18.0632 20.639C18.0165 20.692 17.8476 20.9166 17.7176 21.0272C17.8328 20.9845 18.3041 20.8408 18.504 20.7864C18.4445 20.8737 18.1428 21.3213 17.8528 21.7518C15.0434 23.4357 11.6452 23.8291 8.52539 22.8316L8.52629 22.8297Z" fill="#E0CD81"/>
<path fill-rule="evenodd" clip-rule="evenodd" d="M6.22062 10.1476C6.22062 10.1476 6.05178 10.1476 6.01876 10.1709C5.98574 10.1942 6.18772 10.2428 6.2498 10.2661C6.31188 10.2894 6.4459 10.3962 6.48084 10.4817C6.51386 10.5632 7.69441 11.0389 7.69441 11.0389L8.52935 10.9961L8.81722 10.5984L8.26964 10.1188L8.65364 8.98676L8.14497 9.06829L6.92167 9.79789L6.30804 10.0329L6.22062 10.1476Z" fill="#DFC57C"/>
<path fill-rule="evenodd" clip-rule="evenodd" d="M8.05432 10.5224C8.07888 10.5621 8.12279 10.5858 8.16952 10.5844C8.34232 10.5844 8.50142 10.6272 8.56747 10.7145C8.67819 10.8544 8.98501 11.301 8.98501 11.301L9.71896 11.5651L9.76632 10.7008L8.9644 10.1436L8.05176 10.4795V10.5222H8.05381L8.05432 10.5224Z" fill="#E5CC7C"/>
<path fill-rule="evenodd" clip-rule="evenodd" d="M7.91061 10.8428C7.91061 10.8428 8.04449 10.8525 8.21345 10.7903C8.38241 10.7281 8.66005 10.5942 8.78049 10.6467C8.94933 10.7185 8.91438 10.9437 9.09704 11.1459C9.20763 11.2701 9.40961 11.2663 9.52417 11.4003C9.63873 11.5343 10.0328 11.4721 10.0328 11.4721L10.1823 12.2785L9.58241 13.0476L9.38619 14.0028H8.57493L7.83381 13.7088L7.46875 12.8256L7.65128 11.9324L7.91061 10.8428Z" fill="#D2C281"/>
<path fill-rule="evenodd" clip-rule="evenodd" d="M9.47974 10.8815C9.49986 10.8877 9.52077 10.891 9.54182 10.8913C9.51853 10.9107 9.46989 10.9533 9.48934 11.0641C9.5088 11.1748 9.57088 11.3146 9.51853 11.3999C9.56032 11.4456 9.59149 11.5 9.60979 11.5592C9.64282 11.6544 9.65254 11.7417 9.86797 11.7554C9.83688 11.7745 9.80821 11.7973 9.78259 11.8234C9.78259 11.8234 9.9321 11.9534 10.0079 12.0737C10.0854 12.0704 10.2913 12.0064 10.2913 12.0064L10.334 12.0356L10.4253 11.9972C10.4253 11.9972 10.3399 11.9642 10.402 11.7564C10.4602 11.5739 10.5127 11.5836 10.5172 11.57C10.5217 11.5565 10.5599 11.3642 10.5599 11.2865C10.589 11.1857 10.6123 10.8788 10.6123 10.8788L10.5502 10.2012L10.2008 9.9895L9.91661 9.71519L9.64858 10.22L9.47206 10.396L9.4585 10.8329L9.47974 10.8815Z" fill="#E2C270"/>
<path fill-rule="evenodd" clip-rule="evenodd" d="M10.3203 10.3146C10.3203 10.3146 10.3824 10.4913 10.4058 10.6272C10.4141 10.6008 10.4186 10.5733 10.4194 10.5457C10.4194 10.5457 10.4679 10.8137 10.4775 10.9244C10.497 10.9205 10.5159 10.9147 10.5202 10.934C10.5246 10.9534 10.5689 11.169 10.5586 11.2894C10.6395 11.156 10.7514 11.0441 10.8848 10.9632C10.9625 10.9146 11.0538 10.8622 11.149 10.8582C11.2985 10.8544 11.4072 10.9535 11.5858 10.9535C12.0168 10.9535 12.4072 10.6369 12.6946 10.5399C12.9062 10.468 13.0887 10.4156 13.2168 10.299C13.279 10.2467 13.3898 10.1302 13.4906 9.95725C13.6246 9.72685 13.7644 9.52628 13.9043 9.50106C13.841 9.51269 13.7766 9.51724 13.7123 9.51463C13.7123 9.51463 13.7551 9.47188 13.8275 9.41364C13.9 9.3554 13.9867 9.28359 14.1109 9.28359C14.3323 9.28359 14.4429 9.31649 14.5672 9.31649C14.6915 9.31265 14.7633 9.28359 14.7633 9.28359C14.7633 9.28359 14.8935 9.37485 15.1866 9.37485C15.4799 9.37869 15.676 9.40391 15.8294 9.41761C15.9829 9.4313 16.4973 9.37485 16.6449 9.37921C16.7411 9.38291 16.8356 9.40603 16.9227 9.44717L16.4469 8.06477L14.7378 6.57101L13.7204 7.2914L12.1552 8.85645L10.6407 9.41761L10.3242 9.77293V10.3146H10.3203Z" fill="#CCB360"/>
<path fill-rule="evenodd" clip-rule="evenodd" d="M13.7185 9.52231C13.7185 9.52231 13.7613 9.47968 13.8329 9.42144C13.9046 9.3632 13.9923 9.29127 14.1165 9.29127C14.3378 9.29127 14.4485 9.32429 14.5728 9.32429C14.6971 9.32045 14.7689 9.29127 14.7689 9.29127C14.7689 9.29127 14.8992 9.3824 15.1922 9.3824C15.4854 9.38624 15.6815 9.41146 15.835 9.42503C15.9885 9.4386 16.5029 9.3824 16.6505 9.38663C16.7467 9.39025 16.8411 9.41337 16.9281 9.4546L16.7126 8.83124L16.4622 8.35559L15.7476 7.573C15.7476 7.573 14.89 7.06816 14.8834 7.06432C14.8796 7.06048 14.5863 6.98279 14.5863 6.98279L13.8096 7.45268L13.1049 9.27604L13.0913 9.66004L13.5475 9.87559C13.6621 9.68359 13.7884 9.52999 13.9068 9.51053C13.7999 9.52218 13.7184 9.52218 13.7184 9.52218L13.7185 9.52231Z" fill="#D5B457"/>
<path fill-rule="evenodd" clip-rule="evenodd" d="M13.7085 9.65249C13.6405 9.65633 13.5843 9.64276 13.5687 9.59425C13.5105 9.43118 13.4639 9.40788 13.4151 9.40788C13.3663 9.40788 13.3005 9.51271 13.2615 9.52231C13.2225 9.53191 13.1761 9.40199 13.1761 9.40199L13.1334 9.38254C13.1334 9.38254 12.8829 9.54561 12.7062 9.73787C12.5296 9.93012 12.2402 10.2564 12.1101 10.3145C11.9801 10.3726 11.5334 10.3922 11.3805 10.4252C11.2277 10.4582 11.0582 10.569 11.0349 10.5942C11.0116 10.6194 11.103 10.6465 11.1166 10.6718C11.1302 10.695 10.967 10.6853 10.9534 10.7102C10.9438 10.7296 10.9918 10.8402 11.0156 10.8965C11.0573 10.8758 11.103 10.8645 11.1495 10.8635C11.299 10.8597 11.4078 10.9587 11.5864 10.9587C12.0175 10.9587 12.4077 10.6422 12.6951 10.545C12.9068 10.4732 13.0893 10.4207 13.2175 10.3043C13.2795 10.2519 13.3903 10.1353 13.4913 9.96251C13.565 9.84411 13.6369 9.73339 13.7089 9.65185L13.7085 9.65249Z" fill="#D2B257"/>
<path fill-rule="evenodd" clip-rule="evenodd" d="M7.52653 19.2622C7.52653 19.2622 7.48813 19.1185 7.13229 18.7477C7.03129 18.6428 6.96921 18.5557 6.90125 18.4933C6.73229 18.334 6.63321 18.2913 6.51289 18.2001C6.24883 18.004 5.96147 18.004 5.74016 17.7632C5.51885 17.5224 5.26093 17.0624 5.08173 16.5923C4.90509 16.1224 4.85645 15.9729 4.85645 15.9593C4.85645 15.9457 4.90509 15.8545 4.96717 15.868C5.02925 15.8816 5.02925 16.0019 5.04486 16.0311C5.07579 16.0787 5.11087 16.1235 5.14969 16.165C5.24096 16.27 5.37101 16.3954 5.43705 16.5825C5.42349 16.4233 5.36909 16.2467 5.36909 16.2467C5.36909 16.2467 5.71085 16.4622 6.00205 16.6874C6.29529 16.9126 6.41561 16.9903 6.50125 17.134C6.58688 17.2776 6.78861 17.6563 6.88525 17.767C6.98189 17.8778 8.30605 18.2952 8.30605 18.2952L8.93593 18.7648L9.24864 19.4502L9.0039 19.8342L8.53401 19.9352L7.77088 19.5935L7.52653 19.2621V19.2622Z" fill="#D2B159"/>
<path fill-rule="evenodd" clip-rule="evenodd" d="M5.83105 16.901C5.83105 16.901 5.99029 17.1553 6.37864 17.3961C6.72821 17.6078 7.28155 17.8001 7.77486 17.9146C8.05825 17.9826 8.34177 18.0349 8.59611 18.0389C9.28155 18.0485 9.75336 17.8525 10.3379 17.7884C10.6545 17.7554 11.0428 17.7302 11.4467 17.6348C11.9651 17.5105 12.2719 17.3706 12.6894 17.174C12.9923 17.0342 13.27 16.9294 13.4952 16.7954C13.8117 16.609 14.0428 16.4013 14.3108 16.3392C14.2778 16.4305 14.2428 16.5935 13.9788 16.7625C14.1185 16.7585 14.3108 16.7489 14.3108 16.7489C14.3108 16.7489 14.1244 16.8595 13.7962 17.1081C13.5943 17.2617 13.3264 17.5217 13.0526 17.6945C12.8758 17.8052 12.6835 17.8865 12.5573 17.9528C12.2501 18.1217 12.1262 18.2071 11.9244 18.4136C11.9962 18.4097 12.0021 18.4136 12.0021 18.4136C12.0021 18.4136 11.7476 18.4466 11.5652 18.5436C11.5268 18.5436 11.4602 18.5301 11.3438 18.5631C11.2525 18.5921 11.132 18.6583 11.0079 18.6931C10.8311 18.7456 10.773 18.7223 10.773 18.7223L10.8021 18.7805C10.8021 18.7805 10.5717 18.7766 10.4949 18.7844C10.5084 18.7882 10.5046 18.7941 10.5046 18.7941C10.4911 18.7964 10.4781 18.801 10.4662 18.8077C10.4292 18.8316 10.3886 18.8493 10.3459 18.86C10.3226 18.8639 10.3031 18.8639 10.2739 18.8698C10.2837 18.8931 10.3594 19.0234 10.3944 19.1002C10.3653 19.1196 9.92833 19.4497 9.92833 19.4497C9.94189 19.4711 9.95297 19.4939 9.96136 19.5177C9.97493 19.5603 9.98081 19.6225 9.99438 19.6516C10.0273 19.7098 10.0467 19.7196 10.0467 19.7196C10.0467 19.7196 9.99438 19.7293 9.90299 19.7526C9.82542 19.772 9.73019 19.8049 9.59579 19.8244C9.55455 19.8297 9.51307 19.833 9.4715 19.8341C9.49096 19.8769 9.57633 20.0399 9.41902 20.2282C9.26171 20.4165 9.2132 20.4439 9.16469 20.5642C9.14027 20.5458 9.11427 20.5295 9.08699 20.5156C9.03464 20.4923 8.9627 20.4575 8.93749 20.4108C8.92279 20.473 8.90332 20.534 8.87925 20.5933C8.83073 20.7233 8.75893 20.8516 8.74536 20.9486C8.69288 20.8904 8.59585 20.7758 8.46184 20.7991C8.32782 20.8224 8.22107 21.0049 8.19777 21.0574C8.19777 21.0244 8.17448 20.9992 8.16872 21.038C8.16475 21.0807 8.09102 21.5272 7.67937 21.8884C7.67553 21.7971 7.67553 21.5951 7.66581 21.5292C7.62741 21.5676 7.58043 21.6243 7.30075 21.7448C7.02696 21.8651 7.07035 21.9855 7.07035 21.9855C7.07035 21.9855 7.04705 21.7935 7.19464 21.5913C7.34414 21.3894 7.43541 21.2942 7.43541 21.2787C7.43299 21.2629 7.42626 21.2482 7.41595 21.236C7.39649 21.2165 7.35771 21.1932 7.35771 21.1777C7.38101 21.1681 7.61205 21.0574 7.59848 20.8282C7.58491 20.6225 7.49761 20.5156 7.43541 20.4399C7.42581 20.4302 7.5268 20.3584 7.5131 20.3351C7.50337 20.3215 7.37921 20.2301 7.3636 20.1815C7.36727 20.1525 7.37379 20.1239 7.38305 20.0961C7.39662 20.0534 7.40635 20.0242 7.40251 19.9951C7.39278 19.9466 7.3403 19.8126 7.32481 19.799C7.33838 19.8029 7.43541 19.799 7.43541 19.799C7.43541 19.799 7.35784 19.6748 7.34414 19.6165C7.33045 19.5583 7.30139 19.4048 7.2859 19.3757C7.31893 19.3796 7.40046 19.3853 7.40046 19.3757C7.40443 19.3466 7.32865 19.2981 7.36206 19.2605C7.38536 19.2644 7.43003 19.2838 7.47265 19.3382C7.44936 19.276 7.41057 19.1557 7.32891 19.1072C7.36731 19.0936 7.49787 19.0586 7.61243 19.1265C7.72699 19.1945 7.76603 19.2896 7.76603 19.2896C7.76603 19.2896 7.834 19.3421 7.93896 19.4198C8.05928 19.5149 8.21262 19.6502 8.45736 19.7459C8.50984 19.7751 8.64373 19.7751 8.74088 19.7557C8.78318 19.7456 8.82374 19.7292 8.8612 19.7071C8.87473 19.6992 8.88906 19.6926 8.90395 19.6877C8.88308 19.6458 8.85907 19.6055 8.83214 19.5672C8.86517 19.5672 8.90395 19.5712 8.90395 19.5712C8.90395 19.5712 8.92725 19.5187 8.82241 19.4176C8.84571 19.3943 8.87489 19.3792 8.87489 19.3399C8.84187 19.3361 8.78363 19.2876 8.77006 19.2681C8.78939 19.2545 8.81857 19.2099 8.8516 19.1963C8.82241 19.173 8.75061 19.0758 8.71758 19.0662C8.74913 19.0545 8.77966 19.0402 8.80885 19.0235C8.80885 19.0235 8.64577 18.9807 8.59329 18.9458C8.54081 18.9074 8.46325 18.841 8.41665 18.8215C8.36801 18.8021 8.28264 18.7925 8.24769 18.7535C8.28059 18.7633 8.33307 18.7535 8.37198 18.7535C8.40104 18.7535 8.41473 18.7574 8.42433 18.7574C8.42049 18.7438 8.42049 18.7146 8.49627 18.705C8.53272 18.6995 8.56809 18.6884 8.6011 18.672C8.6011 18.672 8.52917 18.6682 8.4475 18.5905C8.36584 18.5128 8.298 18.4507 8.25141 18.441C8.20289 18.4312 8.11163 18.474 8.05531 18.47C7.97761 18.4604 7.94459 18.4215 7.94459 18.4215C7.94459 18.4215 7.68641 18.4448 7.11361 18.0954C6.61838 17.7924 6.40283 17.5245 6.40283 17.5245C6.35648 17.5077 6.31169 17.4868 6.26894 17.4623C6.08257 17.3653 5.82427 17.1633 5.83208 16.8991L5.83105 16.901Z" fill="#C2A44D"/>
<path fill-rule="evenodd" clip-rule="evenodd" d="M12.9747 5.2466C13.0197 5.26119 13.0596 5.28811 13.0899 5.32429C13.1812 5.42912 13.2394 5.62714 13.0317 5.83885C13.1132 5.86791 13.1469 5.87725 13.2181 5.86791C13.1463 5.95341 12.9832 6.13594 12.9735 6.29517C12.9637 6.42522 13.0453 6.46413 13.0453 6.46413C13.0453 6.46413 12.921 6.60775 12.9152 6.84813C12.9739 6.78194 13.0381 6.72088 13.1072 6.6656C13.251 6.55104 13.449 6.421 13.583 6.33946C13.5812 6.37363 13.5858 6.40785 13.5966 6.44032C13.5966 6.44032 13.8469 6.2345 14.0574 6.32589C14.1525 6.36864 14.1097 6.50253 14.1097 6.50253C14.1097 6.50253 14.2399 6.45402 14.3312 6.54528C14.4224 6.63655 14.5514 6.87194 14.6176 6.9632C14.6467 7.00596 14.7225 7.08749 14.8 7.2137C14.906 7.3904 14.9945 7.57701 15.0642 7.77088C15.0681 7.66989 15.0933 7.51271 15.3808 7.61165C15.6681 7.71264 15.9943 7.92436 16.2681 8.34125C16.5418 8.75815 16.6097 9.2288 16.7475 9.408C16.8873 9.5808 17.0311 9.86816 17.0408 9.98861C17.0505 10.1091 16.998 10.4973 17.2854 11.5478C17.3669 11.2216 17.4912 10.4973 17.4912 10.4973L17.5592 9.85844L17.6369 7.88173L15.5728 6.16692L13.9592 4.99597L12.9087 5.09696L12.9746 5.24647L12.9747 5.2466Z" fill="#CAA13E"/>
<path fill-rule="evenodd" clip-rule="evenodd" d="M16.8095 8.18829C16.8095 8.18829 16.7804 7.99629 16.295 7.66989C15.8095 7.34759 15.4309 7.34759 15.0814 7.0738C14.8134 6.85825 14.5338 6.36301 14.3518 6.19994C14.1751 6.03879 14.146 5.57274 14.146 5.57274L14.7421 5.07354L15.6286 3.79213L16.3781 2.96692L16.7372 3.46612L17.2364 4.05249L17.5141 5.22919L17.6151 6.95156L16.8087 8.18842L16.8095 8.18829Z" fill="#B59544"/>
<path fill-rule="evenodd" clip-rule="evenodd" d="M17.41 10.2528C17.4247 9.9916 17.3925 9.72988 17.3148 9.48006C17.1868 9.08198 16.9071 8.37517 16.7772 8.11046C16.7247 7.81722 16.7636 7.79392 16.82 7.7609C16.8763 7.72787 17.088 7.6073 17.204 7.18426C17.3199 6.76122 17.6797 6.74739 17.6797 6.74739L17.901 6.58432L18.237 7.42502L18.5302 8.18432L18.6214 8.76493L18.6894 9.26003L18.5302 10.3067L17.7439 11.0173L17.4099 10.2528H17.41Z" fill="#C89D3A"/>
<path fill-rule="evenodd" clip-rule="evenodd" d="M6.43701 21.9186V21.8971C6.45335 21.8869 6.46778 21.8739 6.47964 21.8587C6.4932 21.8392 6.50306 21.8159 6.51266 21.8102C6.53212 21.8005 6.62338 21.7718 6.67189 21.781C6.7204 21.7902 6.84866 21.8431 6.91663 21.8392C7.0564 21.8354 7.21948 21.7285 7.47778 21.7772C7.86613 21.849 7.9574 22.113 8.18268 22.2625C8.33628 22.3675 8.49525 22.3208 8.51855 22.3208H8.5709C8.58063 22.3208 8.65244 22.2392 8.69135 22.2432C8.76904 22.247 8.77672 22.3112 8.82524 22.315C8.9398 22.3286 9.16124 22.2568 9.27196 22.286C9.33859 22.3068 9.3908 22.359 9.41173 22.4256C9.43503 22.4974 9.41557 22.5887 9.35925 22.6412C9.23893 22.7518 9.12437 22.8567 9.10108 22.9484C9.13071 22.971 9.15916 22.995 9.18632 23.0206C8.22558 22.7758 7.30121 22.4057 6.43701 21.9198V21.9186Z" fill="#CEB052"/>
<path fill-rule="evenodd" clip-rule="evenodd" d="M16.7764 18.0389C16.7764 18.0389 17.0792 17.6351 17.1842 17.435C17.289 17.2288 16.8521 14.6176 16.8521 14.6176L17.7298 11.742L17.7064 10.806C17.7064 10.806 17.7492 9.94189 17.8502 9.5671C17.9706 9.78265 18.3454 10.0429 18.4269 10.1807C18.4653 9.91654 18.5958 9.35936 18.5764 8.76518C18.6482 8.87577 18.821 9.98848 18.821 9.98848L18.9938 10.7379L19.2191 11.5341L19.4696 12.3749L19.6191 12.9555L19.7045 13.0953L19.7764 13.3399L19.8444 13.6041L20.0405 14.2235L20.1557 14.7322L20.247 15.6545C20.2668 15.7252 20.2811 15.7972 20.2897 15.8701C20.2936 15.9711 20.2761 16.0293 20.2761 16.0468C20.2761 16.0644 20.3092 16.2682 20.2956 16.4216C20.2761 16.5752 20.2761 16.6954 20.1557 16.8056C20.0352 16.9158 19.9596 17.5745 19.9596 17.5745L19.744 17.4309C19.744 17.4309 19.7868 17.2347 19.6858 17.0561C19.5848 16.8776 19.3887 16.8406 19.278 16.8698C19.1674 16.8931 18.9461 16.9279 18.8742 16.9901C18.8062 17.0522 18.6393 17.2444 18.4858 17.3318C18.2938 17.447 17.981 17.4561 17.8141 17.4949C17.6451 17.5333 17.4587 17.6485 17.2625 17.7823C17.1087 17.8819 16.9462 17.9676 16.7771 18.0383L16.7764 18.0389Z" fill="#CCA847"/>
<path fill-rule="evenodd" clip-rule="evenodd" d="M16.7764 22.2816C16.7764 22.2816 16.7892 22.2899 16.8139 22.3035C18.1934 21.6572 19.4295 20.741 20.4491 19.6091C20.4379 19.2161 20.4235 18.8133 20.4076 18.6641C20.3747 18.3475 20.398 18.0252 20.3883 17.8388C20.3785 17.6525 20.2737 16.8932 20.2252 16.6971C20.1727 16.501 20.0716 16.4038 20.0562 16.4038C20.0427 16.4078 19.961 16.7729 19.961 16.8646C19.961 16.9564 19.9416 17.1773 19.9416 17.2337C19.928 17.2297 19.9222 17.1953 19.9222 17.1812C19.9028 17.2297 19.8795 17.3152 19.8697 17.3249C19.86 17.3347 19.8833 17.2434 19.8697 17.2239C19.8562 17.2045 19.8313 17.2142 19.8367 17.1657C19.839 17.1369 19.8436 17.1084 19.8503 17.0803C19.8503 17.0803 19.792 17.1657 19.7494 17.3832C19.7067 17.5987 19.7067 17.6046 19.6912 17.6239C19.6776 17.6474 19.5999 17.7249 19.596 17.7541C19.5921 17.8065 19.6679 17.8589 19.6736 17.888C19.6775 17.9366 19.6057 18.1618 19.5824 18.272C19.5591 18.3822 19.5688 18.5981 19.544 18.7089C19.5245 18.8099 19.5056 18.8681 19.4392 18.9107C19.4877 18.9204 19.5343 18.934 19.5343 18.934C19.5343 18.934 19.6022 19.2214 19.4294 19.4661C19.3673 19.5515 19.3519 19.5904 19.2858 19.6681C19.1556 19.8117 19.0546 19.9753 19.0449 20.0817C19.0382 20.0503 19.0337 20.0185 19.0313 19.9864C19.0313 19.9864 18.8295 20.2214 18.744 20.3555C18.6334 20.5283 18.4799 20.5185 18.4368 20.5613C18.3936 20.604 18.3843 20.6816 18.3984 20.7438C18.36 20.7534 18.2878 20.7671 18.2392 20.9166C18.2159 20.9942 18.1576 21.0702 18.0664 21.1224C17.9751 21.1747 17.8644 21.1904 17.808 21.204C17.8566 21.2175 17.876 21.2175 17.8993 21.233C17.8703 21.2815 17.7362 21.3573 17.5867 21.4545C17.4372 21.5457 17.3653 21.6796 17.3284 21.767C17.29 21.8486 17.2333 21.9011 17.1421 21.9108C17.1805 21.9341 17.2373 21.9884 17.2664 22.0059C17.2236 22.0156 17.1512 22.0156 17.0217 22.1263C16.8858 22.239 16.8392 22.272 16.777 22.2817L16.7764 22.2816Z" fill="#C39D3C"/>
<path fill-rule="evenodd" clip-rule="evenodd" d="M14.0749 23.1814C14.1492 23.1293 14.2297 23.0866 14.3146 23.0543C14.6175 22.934 14.9378 22.9107 15.064 22.8719C15.1845 22.8335 15.2796 22.7806 15.4291 22.7515C15.4251 22.7855 15.4218 22.8175 15.4182 22.8478C14.9775 22.9863 14.5286 23.0978 14.0742 23.1814H14.0749Z" fill="#D2BA6B"/>
<path fill-rule="evenodd" clip-rule="evenodd" d="M19.6607 15.2156C19.6607 15.2156 19.5986 15.5515 19.4879 15.7632C19.3771 15.9749 19.2575 16.268 19.2575 16.268C19.2582 16.202 19.266 16.1362 19.2808 16.0718C19.141 16.1533 18.8011 16.3496 18.7048 16.4369C18.6135 16.5184 18.46 16.6621 18.4212 16.7301C18.5125 16.4622 18.6076 16.2214 18.6232 16.1107C18.4834 16.2117 17.8309 16.7496 17.4912 17.1049L16.4329 17.9612C16.3108 18.0271 16.185 18.086 16.0562 18.1376C15.8738 18.2152 15.6582 18.2812 15.499 18.3434C15.5418 18.2289 15.6096 18.1277 15.7048 18.0307C15.8058 17.9356 16.1087 17.6074 16.1553 17.4547C16.198 17.2955 16.2077 17.2004 16.1514 17.0664C16.0989 17.0799 15.9786 17.0858 15.8971 17.1091C15.8155 17.1324 15.7281 17.2197 15.7281 17.2197C15.7281 17.2197 15.7902 16.8644 15.9242 16.5285C15.8232 16.5324 15.6504 16.5614 15.6504 16.5614C15.6504 16.5614 15.8912 16.1576 16.3032 15.8761C16.177 15.903 16.0536 15.9413 15.9343 15.9905C15.6936 16.0915 15.4295 16.241 15.2334 16.3226C15.344 16.169 16.1207 15.0605 16.5829 14.0274C17.0437 12.9964 17.2159 12.7323 17.3169 12.1789C17.3692 11.9052 17.3553 11.5005 17.3692 11.1382C17.3828 10.7789 17.4274 10.4566 17.3984 10.241C17.5187 10.3905 17.9693 10.8119 17.9848 11.7537C17.9983 12.6954 17.5538 13.9674 17.0818 14.6527C17.197 14.6857 17.4955 14.7246 17.8022 14.1919C18.1089 13.6591 18.1052 13.5104 18.2159 13.289C18.2295 13.3997 18.2255 13.4385 18.2255 13.4385C18.2255 13.4385 18.6722 12.8968 18.8838 12.2152C18.9266 12.5084 19.0528 12.7667 18.8546 13.3046C18.678 13.79 18.447 13.9085 18.447 13.9085C18.447 13.9085 18.5615 13.889 18.7304 13.788C18.7595 13.8598 18.7538 13.9416 18.8023 13.9706C18.8508 13.9995 18.9169 14.0483 18.9266 14.0949C18.9789 14.0172 19.0605 13.9181 19.0858 13.8444C19.0664 13.998 19.0528 14.6696 19.1242 15.0113C19.2738 14.9978 19.4272 14.988 19.532 14.7181C19.4602 14.9823 19.4602 15.1414 19.5087 15.3667C19.5883 15.3124 19.6602 15.2152 19.6602 15.2152L19.6607 15.2156Z" fill="#C0993A"/>
<path fill-rule="evenodd" clip-rule="evenodd" d="M14.6157 4.51265C14.6157 4.51265 14.4662 4.57473 14.2118 4.57473C13.9905 4.57473 14.0526 4.48935 13.707 4.48935C13.175 4.48935 11.3167 4.79655 10.9904 4.7922C10.7787 4.78836 11.7049 4.88346 11.7049 4.88346L14.072 4.91649L14.5477 4.87809L14.7245 4.51841L14.6157 4.51265Z" fill="#A88F33"/>
<path fill-rule="evenodd" clip-rule="evenodd" d="M8.47745 9.13983C8.47745 9.13983 8.17448 9.37087 8.04635 9.54764C7.91822 9.72441 7.85025 9.84076 7.70459 9.9845C7.73878 9.98581 7.77295 9.98122 7.80558 9.97093C7.80558 9.97093 7.80558 10.0093 7.78229 10.0194C7.82306 10.0149 7.86371 10.029 7.89288 10.0578C7.85013 10.0811 7.73365 10.1978 7.82491 10.3356C7.89288 10.4404 8.03662 10.45 8.03662 10.45C8.03662 10.45 8.0036 10.5453 8.14145 10.5355C8.43854 10.522 8.77057 10.3918 8.92392 10.4248C9.07752 10.4632 9.16481 10.4773 9.27349 10.6657C9.38869 10.8521 9.48904 10.8813 9.48904 10.8813C9.48904 10.8813 9.55701 10.7083 9.54152 10.4502C9.59725 10.311 9.62814 10.1631 9.63278 10.0133L9.53179 9.26962L9.09109 8.71231L8.52021 9.02885L8.47745 9.13945V9.13983Z" fill="#E3C571"/>
<path fill-rule="evenodd" clip-rule="evenodd" d="M9.01953 9.02912C9.01953 9.02912 9.06228 9.13011 9.24097 9.13971C9.22152 9.18246 9.22152 9.18835 9.2274 9.22125C9.23124 9.25427 9.237 9.30278 9.237 9.30278C9.25668 9.29326 9.27446 9.28025 9.28948 9.26438C9.29921 9.30714 9.27976 9.37498 9.28948 9.42362C9.29549 9.4532 9.30525 9.48189 9.31854 9.50899C9.32137 9.50235 9.32462 9.4959 9.32827 9.48966C9.33211 9.47994 9.36667 9.5945 9.46228 9.68166C9.4622 9.66826 9.4655 9.65505 9.47188 9.64326C9.47335 9.66761 9.4814 9.6911 9.49518 9.71123C9.48802 9.70782 9.48149 9.70324 9.47585 9.69766C9.47585 9.69766 9.48545 10.0049 9.53793 10.1637C9.5467 10.1534 9.5545 10.1424 9.56123 10.1307C9.56123 10.1211 9.55739 10.2162 9.54766 10.2843C9.53409 10.3523 9.54382 10.4474 9.54382 10.4474C9.57883 10.4198 9.6173 10.3969 9.65825 10.3794C9.71649 10.356 9.81185 10.2842 9.86996 10.1249C9.90368 10.0348 9.92967 9.94187 9.94766 9.8473C9.96643 9.88344 9.97939 9.92232 9.98606 9.9625C9.99003 10.011 10.0813 9.98579 10.0813 9.98579L10.1007 9.77408L10.2159 9.29446L10.3208 8.99738L10.8256 8.21107L11.7377 7.50861L12.5339 7.69114L13.2056 6.7785L12.0484 6.08333L10.9532 6.19789L9.95931 7.57453L9.16328 8.82317L9.01953 9.02899L9.01953 9.02912Z" fill="#D8B65B"/>
<path fill-rule="evenodd" clip-rule="evenodd" d="M14.7553 7.03692C14.7553 7.03692 14.6873 7.05049 14.4912 7.15212C14.2951 7.25375 14.1592 7.28601 14.0834 7.43551C14.0077 7.58501 14.0019 7.70354 14.0019 7.70354C14.0019 7.70354 14.1359 7.6453 14.2136 7.62585C14.2951 7.60652 14.3864 7.61228 14.3767 7.6453C14.3673 7.66795 14.3544 7.68892 14.3383 7.70738C14.3383 7.70738 14.4919 7.70354 14.4878 7.77932C14.4837 7.85509 14.4587 7.93855 14.4297 7.97541C14.4005 8.01381 14.2802 8.07065 14.2666 8.11532C14.2336 8.20658 14.2802 8.21042 14.2626 8.28415C14.2491 8.35609 14.1851 8.49586 13.9753 8.74047C13.7597 8.98521 13.6681 9.15801 13.6681 9.15801C13.6681 9.15801 13.5632 8.96191 13.5088 8.79295C13.4704 8.81228 13.2642 8.92684 13.2642 8.92684L12.7865 7.26284L12.7961 7.15212C12.7961 7.15212 12.8389 7.09977 12.8486 7.00261C12.7768 6.97932 12.7671 6.95986 12.6719 6.86873C12.5766 6.77759 12.4991 6.66674 12.3399 6.59097C12.3167 6.54821 12.2875 6.4901 12.171 6.46668C12.0545 6.44325 11.9846 6.42405 11.9846 6.42405C11.9846 6.42405 12.0467 6.40063 12.0759 6.35212C12.0039 6.36185 11.9458 6.38514 11.7885 6.3813C11.6293 6.37733 11.6118 6.37157 11.5245 6.38514C11.4372 6.39871 11.3325 6.43762 11.2934 6.30361C11.2507 6.27058 11.1594 6.29977 11.0817 6.4142C11.004 6.52863 10.9769 6.62002 10.8274 6.66469C10.8169 6.7306 10.7938 6.79386 10.7594 6.85106C10.7167 6.923 10.6487 6.99481 10.5574 7.10156C10.4137 7.27052 10.437 7.54815 10.2079 7.75986C9.97681 7.97145 10.2463 7.17337 10.2463 7.17337L10.6151 6.29017L11.6656 5.26297L13.2967 5.15237L13.456 5.99717L14.2521 6.27097L14.7551 7.03794L14.7553 7.03692Z" fill="#D3AE4D"/>
<path fill-rule="evenodd" clip-rule="evenodd" d="M15.0139 7.2233L14.3284 6.23501L13.8488 5.86598C13.8488 5.86598 13.507 5.23699 13.4837 5.21754C13.4643 5.20397 13.142 5.16902 12.9362 5.15546L12.9746 5.25056C13.0195 5.26515 13.0594 5.29207 13.0898 5.32826C13.181 5.43309 13.2393 5.6311 13.0315 5.84282C13.1131 5.87187 13.1467 5.88122 13.2179 5.87187C13.1461 5.95738 12.983 6.1399 12.9733 6.29914C12.9636 6.42918 13.0451 6.46797 13.0451 6.46797C13.0451 6.46797 12.9208 6.61171 12.915 6.85197C12.9737 6.78578 13.038 6.72471 13.107 6.66944C13.2508 6.55424 13.4488 6.4247 13.5828 6.34317C13.581 6.37738 13.5856 6.41164 13.5964 6.44416C13.5964 6.44416 13.8468 6.23834 14.0572 6.3296C14.1523 6.37235 14.1095 6.50637 14.1095 6.50637C14.1095 6.50637 14.2397 6.45786 14.331 6.54912C14.4222 6.64038 14.5523 6.87526 14.6183 6.96666C14.6474 7.00941 14.7232 7.09094 14.8007 7.21702C14.9067 7.39375 14.9952 7.58041 15.0649 7.77434C15.0688 7.69664 15.0844 7.58797 15.2185 7.58797L15.0146 7.22291L15.0139 7.2233Z" fill="#CAA13E"/>
<path fill-rule="evenodd" clip-rule="evenodd" d="M4.73787 10.0311C4.73787 10.0311 4.68936 9.91066 4.73787 9.67578C4.78638 9.4409 4.86216 9.33018 4.88737 8.98458C4.91259 8.63898 5.13787 8.20788 5.13787 8.20788L5.7611 7.92448L6.20193 8.0448L6.33198 8.63514L5.77467 8.94234C5.77467 8.94234 5.74561 9.07239 5.5883 9.17722C5.43099 9.28205 5.21352 9.36359 5.16117 9.47047C5.12987 9.53591 5.10703 9.60508 5.0932 9.67629C5.0932 9.67629 4.93397 9.64327 4.83886 9.7481C4.73787 9.85498 4.74171 9.95008 4.73787 10.0316V10.0311Z" fill="#F4EFC8"/>
<path fill-rule="evenodd" clip-rule="evenodd" d="M5.99612 9.87379C5.99612 9.87379 5.94364 9.90681 5.90485 9.98899C5.86645 9.92691 5.77468 9.55788 5.77084 9.22585C5.767 8.89382 5.74716 8.81152 5.82396 8.69708C5.90076 8.58265 6.20194 8.46208 6.15919 8.256C6.11644 8.0599 5.93775 7.97836 5.71836 8.03468C5.56476 8.07308 5.45045 8.39974 5.29122 8.56281C5.17077 8.6871 5.02716 8.66764 4.98837 8.73561C4.93589 8.82688 4.98441 8.91814 4.96892 8.97638C4.96495 8.99584 4.91644 9.10067 4.82901 9.22688C4.65237 9.48121 4.35337 9.84051 4.31445 10.1628C4.32802 9.98028 4.31842 9.97644 4.36693 9.77446L4.33775 9.72595L4.52975 9.09683L4.65404 8.57843L4.9318 7.71033L5.42101 6.82304L5.89679 6.29094L6.39189 6.32396L6.45013 7.06764L6.73365 8.46387L7.32975 9.19782L6.37436 9.84076L5.99573 9.87379H5.99612Z" fill="#EBCC73"/>
<path fill-rule="evenodd" clip-rule="evenodd" d="M6.29314 10.1376C6.29314 10.1376 6.2116 10.1571 6.18242 10.1416C6.15323 10.1261 6.12431 10.1085 6.13391 10.0891C6.14351 10.0696 6.19599 10.0367 6.19599 10.0211C6.19823 9.99178 6.17673 9.96597 6.14747 9.96287C6.1028 9.95711 6.08923 9.98617 6.08923 9.98617C6.08923 9.98617 6.04648 9.95327 6.01167 9.94777C6.03226 9.94525 6.05299 9.94392 6.07375 9.9438C6.02009 9.9195 5.96317 9.90315 5.90479 9.89529C5.9533 9.86623 6.04853 9.78073 6.11061 9.78073C6.17269 9.78073 6.2116 9.77113 6.20187 9.73811C6.19215 9.70508 6.14363 9.65657 6.09128 9.63711C6.11061 9.61382 6.12431 9.57887 6.07771 9.48351C6.02907 9.38841 6.04853 9.32428 6.06415 9.30111C6.07771 9.27193 6.12623 9.21958 6.14952 9.18655C6.17282 9.15353 6.19227 9.10886 6.23106 9.08556C6.25051 9.07199 6.31259 9.04716 6.3748 9.02348C6.44277 9.00019 6.49909 8.971 6.53787 9.00019C6.58063 9.02924 6.56117 9.06815 6.56117 9.06815C6.56117 9.06815 6.69519 9.01951 6.81551 9.08172C6.93595 9.13983 7.2292 9.17683 7.2292 9.17683L7.33429 9.38854L6.63912 9.98463L6.35176 10.1284L6.29352 10.138L6.29314 10.1376Z" fill="#E5C66B"/>
<path fill-rule="evenodd" clip-rule="evenodd" d="M7.25806 9.16314C7.25806 9.16314 7.04251 9.30689 6.994 9.35924C7.02305 9.3632 7.07156 9.38266 7.05211 9.41172C7.02881 9.44077 6.88904 9.54176 6.81134 9.637C6.7298 9.7321 6.65211 9.85255 6.62497 9.91079C6.59592 9.96314 6.37448 10.1166 6.29883 10.1359C6.45806 10.1359 6.77844 9.93984 6.89876 9.93984C6.89492 9.99809 6.93179 10.0641 6.99976 10.0699C7.06772 10.0757 7.26382 10.1126 7.52788 9.94957C7.79195 9.79034 7.70465 9.67181 7.81524 9.59425C8.02696 9.45434 8.11233 9.33005 8.22881 9.25249C8.34529 9.17492 8.40558 9.15725 8.40558 9.15725C8.40558 9.15725 8.40942 9.09901 8.44398 9.1049C8.46326 9.10711 8.47972 9.11983 8.48673 9.13793C8.48673 9.13793 8.68872 8.99418 8.94753 8.9554C8.94149 8.9527 8.93666 8.94787 8.93396 8.94183C8.93396 8.94183 8.95329 8.9321 8.95726 8.92237C8.95726 8.92237 8.97083 8.90292 8.98056 8.91265C8.99028 8.92237 9.00385 8.99418 9.02331 9.02337C9.06606 9.00391 9.1476 8.82138 9.1476 8.82138L9.34382 8.26023V7.74759L9.19022 7.77677L8.03822 8.26599L7.33908 8.99034L7.25755 9.16314H7.25806Z" fill="#E6BD62"/>
<path fill-rule="evenodd" clip-rule="evenodd" d="M10.5749 6.64858C10.6372 6.63346 10.6969 6.60922 10.7522 6.57665C10.7289 6.63885 10.7289 6.70682 10.6279 6.85441C10.5269 7.00199 10.5231 7.02337 10.4415 7.17671C10.36 7.33594 10.3503 7.56506 10.2726 7.66593C10.3074 7.649 10.3447 7.63789 10.3832 7.63303C10.3832 7.63303 10.3056 7.701 10.2726 7.77281C10.2395 7.84461 10.1813 7.99412 10.0377 8.08551C9.89407 8.1769 9.71141 8.23501 9.51531 8.45057C9.31909 8.66215 9.11723 8.93018 9.01611 9.02657C9.06859 8.9353 9.1404 8.75277 9.15986 8.63245C9.17931 8.51213 9.15589 8.36826 9.18891 8.20916C9.22194 8.05005 9.22194 7.93537 9.38091 7.65761C9.53989 7.37985 9.81202 6.41485 9.81202 6.41485L10.3984 6.22849L10.5752 6.64794L10.5749 6.64858Z" fill="#B6933F"/>
<path fill-rule="evenodd" clip-rule="evenodd" d="M10.1511 6.29325C10.1511 6.29325 9.97445 6.54759 9.92594 6.77287C9.87743 6.99815 9.92197 6.97869 9.89292 7.08941C9.87554 7.15692 9.87554 7.22773 9.89292 7.29523C9.95409 7.19668 10.0379 7.11411 10.1373 7.05434C10.3043 6.95347 10.4402 6.88154 10.5213 6.79616C10.6028 6.7049 10.6708 6.55539 10.8474 6.44083C10.7756 6.43111 10.6746 6.39808 10.6554 6.40243C10.7273 6.3209 10.9428 6.19661 11.1602 6.04711C11.3758 5.89351 11.3622 5.83155 11.7118 5.67821C11.5972 5.69767 11.5428 5.66848 11.4476 5.67821C11.486 5.59667 11.6204 5.55776 11.7548 5.42387C11.8892 5.28999 11.6694 5.09184 11.6694 5.09184L10.6454 5.71123L10.1503 6.29376L10.1511 6.29325Z" fill="#C49937"/>
<path fill-rule="evenodd" clip-rule="evenodd" d="M7.37256 5.83103L7.39585 5.64466L7.6891 5.17478L7.99592 4.34956V3.22137L7.97262 2.56895L8.02113 2.14169L8.058 2.00588L8.09691 1.9534L8.34728 2.08345L8.69301 2.55334L8.72603 3.46022L8.39003 4.89126L7.4308 5.93791L7.37256 5.83103Z" fill="#DFC068"/>
<path fill-rule="evenodd" clip-rule="evenodd" d="M8.13572 1.90093C8.13572 1.90093 7.98212 1.9049 7.94935 2.54375C7.91659 3.18259 7.90071 3.51847 7.87742 3.83501C7.85412 4.15155 7.79985 4.34368 7.77259 4.53018C7.74532 4.71667 7.72983 4.97088 7.64254 5.12627C7.60414 5.19808 7.52209 5.42336 7.32983 5.59232C7.11428 5.77869 6.79223 5.90887 6.74347 5.91859C6.65796 5.93792 6.22494 5.98067 6.0483 6.07783C5.98622 6.11085 5.87934 6.14963 5.76094 6.26035C5.52593 6.47194 5.21336 6.85056 4.98808 7.30688C4.64248 7.98848 4.29688 9.91271 4.29688 9.91271L4.37457 9.78266C4.37457 9.78266 4.3843 9.60986 4.5571 9.30688C4.72606 9.00403 4.67755 8.66419 4.91243 8.08359C5.00369 7.86227 5.11825 7.57491 5.25803 7.33018C5.47947 6.9321 5.74737 6.59034 6.01732 6.40397C6.45803 6.10112 6.94353 6.03507 6.94353 6.03507L7.4659 5.68947C7.4659 5.68947 7.55716 5.51283 7.67761 5.31085C7.84644 5.02746 8.06161 4.71091 8.10859 4.25075C8.18052 3.56915 8.0076 3.12256 8.01732 2.71872C8.02705 2.31488 8.03089 2.01779 8.11256 1.94586C8.19422 1.87392 8.13585 1.90119 8.13585 1.90119L8.13572 1.90093Z" fill="#A88F33"/>
<path fill-rule="evenodd" clip-rule="evenodd" d="M8.136 4.9495C8.136 4.9495 8.3664 4.38246 8.47187 3.87955C8.49132 3.77856 8.53011 3.67769 8.53984 3.59616C8.58835 3.12038 8.60192 2.92429 8.53984 2.66406C8.49132 2.47206 8.30496 2.29901 8.2078 2.16486C8.1127 2.02496 8.06803 1.97286 8.08748 1.94342C8.10694 1.91398 8.18259 1.86585 8.25632 1.87161C8.4147 1.87622 8.56425 1.94563 8.67001 2.06361C8.81952 2.23641 8.93792 2.82291 8.93792 2.82291L9.06246 3.5968L9.379 4.57152L8.13625 4.95027L8.136 4.9495Z" fill="#C99E3D"/>
<path fill-rule="evenodd" clip-rule="evenodd" d="M10.3009 4.3593C10.3009 4.3593 10.2581 4.37862 10.1806 4.3593C10.1873 4.42392 10.1573 4.48689 10.1029 4.52237C10.0213 4.48934 9.25808 4.55539 9.25808 4.55539C9.25808 4.55539 8.90275 4.49318 8.79203 4.0233C8.71446 3.71059 8.85027 3.27962 8.8056 2.9961C8.73763 2.57856 8.64253 2.4969 8.6328 2.36698C8.62307 2.23706 8.61334 2.2039 8.61334 2.12237C8.57059 2.11264 8.54537 2.09907 8.50275 2.09907C8.49302 2.06067 8.51235 2.02714 8.46973 1.95917C8.49302 1.9689 8.65225 1.98835 8.83862 2.16499C8.99222 2.30874 8.99222 2.36109 9.01539 2.39027C9.04445 2.41933 9.27945 2.62067 9.38045 2.82138C9.48144 3.02208 9.67753 3.66208 9.72221 3.76691C9.73577 3.80966 9.76496 3.85242 9.83741 3.94944C9.95005 4.08934 10.115 4.32064 10.3014 4.35904L10.3009 4.3593Z" fill="#B58634"/>
<path fill-rule="evenodd" clip-rule="evenodd" d="M9.04297 2.39999C9.1606 2.59001 9.26627 2.78717 9.35938 2.99033C9.47394 3.24851 9.54191 3.46022 9.68566 3.63302C9.60796 3.40787 9.4701 2.96511 9.38857 2.8078C9.2973 2.6414 9.11094 2.4622 9.04297 2.40012V2.39999Z" fill="#A88F33"/>
<path fill-rule="evenodd" clip-rule="evenodd" d="M7.72244 5.59232C7.72244 5.59232 7.52634 5.64083 7.16128 5.83309C7.04084 5.89517 6.9264 5.94752 6.81568 5.99616C6.52807 6.12621 6.21959 6.2464 5.97485 6.31271C5.99431 6.336 6.00391 6.3456 6.00391 6.3456C6.00391 6.3456 6.00391 6.44083 6.05639 6.49511C6.02733 6.52429 5.63885 6.78835 5.75354 7.67181C5.83111 7.64275 5.92237 7.60384 5.93594 7.60384C5.95936 7.60781 5.96512 7.67181 5.99418 7.67181C6.02324 7.67181 6.11847 7.63341 6.21946 7.50285C6.21562 7.55533 6.15738 8.08346 6.46996 8.43879C6.5282 8.37082 6.67578 8.14554 6.67578 8.14554L6.67962 8.07373C6.67962 8.07373 6.69319 7.82323 6.77485 7.59411C6.85652 7.36499 7.01562 7.19603 7.01562 7.19603L7.84647 6.0096L7.72218 5.59219L7.72244 5.59232Z" fill="#E6C367"/>
<path fill-rule="evenodd" clip-rule="evenodd" d="M6.94574 7.3344C6.9077 7.36128 6.86579 7.38221 6.82145 7.39648C6.80788 7.34797 6.78843 7.18093 6.90299 7.01785C7.037 6.82163 7.33012 6.56729 7.41166 6.36505C7.46414 6.23488 7.44084 5.90873 7.90689 5.4912C8.37294 5.07366 8.55534 4.93005 8.55534 4.93005L9.30875 4.55142L10.235 4.91648L9.7748 6.72L9.41755 7.5648L7.99675 7.29689L6.94561 7.3344H6.94574Z" fill="#DCBA5A"/>
<path fill-rule="evenodd" clip-rule="evenodd" d="M7.48779 6.84466L7.66456 6.62335V6.46604C7.66456 6.46604 7.86066 6.41356 8.07224 6.19801C8.28382 5.98246 8.57707 5.56889 8.83538 5.5941C9.09368 5.62329 9.1189 6.15526 9.12862 6.30489C9.13835 6.45452 9.17138 6.7941 9.22373 6.97676C9.28197 7.15929 8.59461 7.85049 8.59461 7.85049L8.12779 8.20582L7.48779 6.84466Z" fill="#E9CE77"/>
<path fill-rule="evenodd" clip-rule="evenodd" d="M8.03516 8.68736C8.03516 8.68736 8.1789 8.46208 8.07356 8.41357C8.13564 8.27379 8.2502 8.12621 8.2502 8.12621C8.2502 8.12621 8.33173 7.92435 8.5958 7.67578C8.85986 7.4272 9.02306 7.26208 9.06581 7.09517C9.09217 6.98639 9.1065 6.87505 9.10856 6.76314C9.13711 6.78646 9.16765 6.80723 9.19983 6.82522C9.24258 6.84467 9.44444 7.01159 9.41538 7.34759C9.38632 7.68359 9.26178 7.82336 9.26178 7.82336C9.26178 7.82336 9.14146 7.94368 9.05608 8.00589C8.96469 8.06797 8.9318 8.13978 8.77832 8.14567C8.7941 8.13312 8.81183 8.12327 8.8308 8.11648C8.8308 8.11648 8.67157 8.09715 8.58607 8.17472C8.50056 8.25229 8.3188 8.49127 8.22754 8.5632C8.13628 8.62144 8.03554 8.68749 8.03554 8.68749L8.03516 8.68736Z" fill="#CDAE50"/>
<path fill-rule="evenodd" clip-rule="evenodd" d="M14.4914 4.91059C14.262 4.82698 14.0209 4.77982 13.7769 4.77082C13.3691 4.75725 12.773 4.78055 12.1886 4.78439C11.5594 4.78823 10.9886 4.56883 10.1964 4.53005C10.0663 4.45235 9.73557 4.11251 8.70312 4.8329C8.76521 4.82906 9.45269 4.67367 9.69141 4.9728C9.93218 5.26989 9.86421 5.77472 9.83132 5.89504C9.76911 6.16307 9.56713 6.55334 9.48572 6.82714C9.40431 7.10093 9.42351 7.2448 9.36527 7.4368C9.30703 7.6288 9.1789 7.72416 9.25455 7.94547C9.35554 7.88339 9.40815 7.88339 9.57685 7.50477C9.74556 7.12614 9.71087 6.85619 9.99055 6.53581C10.2643 6.21351 10.7201 5.77267 10.8935 5.66195C11.0668 5.55123 12.4429 4.83674 13.8838 5.51834C14.2313 5.48147 14.4915 4.91047 14.4915 4.91047L14.4914 4.91059Z" fill="#D2A83E"/>
<path fill-rule="evenodd" clip-rule="evenodd" d="M9.28345 4.64639C9.28202 4.6318 9.2788 4.61744 9.27385 4.60364C9.26038 4.57524 9.24268 4.54905 9.22137 4.52594C9.22137 4.52594 8.87961 4.46386 8.70681 4.48319C8.40383 4.51622 8.13004 4.891 8.00192 5.08326C7.87379 5.27551 7.71456 5.57247 7.54176 5.72594C7.54365 5.71099 7.5402 5.69585 7.53203 5.68319C7.53203 5.68319 7.54176 5.69676 7.52243 5.71622C7.5031 5.73567 7.50297 5.74527 7.5127 5.75462L7.54188 5.78367C7.55148 5.78367 7.81952 5.66322 8.18457 5.32287C8.57292 4.96754 8.87001 4.78527 9.0254 4.72281C9.10827 4.68759 9.19489 4.66195 9.28358 4.64639H9.28345Z" fill="#C29637"/>
<path fill-rule="evenodd" clip-rule="evenodd" d="M15.9125 3.18643C15.9125 3.18643 15.8503 3.264 15.7726 3.3495C15.5998 3.53203 15.3746 3.73773 15.1823 3.94944C14.9999 4.15142 14.7941 4.30874 14.5629 4.5728C14.3317 4.83686 14.0637 5.12998 13.9959 5.21549C13.9338 5.30099 13.8853 5.44077 13.8853 5.51258C13.8523 5.48928 13.8135 5.46406 13.8135 5.46406C13.8298 5.49455 13.8493 5.52321 13.8717 5.54957C13.9202 5.61754 13.9959 5.70317 14.0348 5.75539C14.0825 5.82187 14.1168 5.89706 14.1357 5.9767C14.1589 5.98054 14.3085 6.00973 14.4949 5.70291C14.6814 5.3961 14.9259 5.06022 14.9259 5.06022L15.3143 4.48346L15.559 3.99424L15.8662 3.44666L15.9129 3.18643H15.9125Z" fill="#AC8132"/>
<path fill-rule="evenodd" clip-rule="evenodd" d="M16.3107 2.79424C16.3107 2.79424 16.0757 2.98624 15.9844 3.10144C15.8932 3.21664 15.6772 3.51897 15.6772 3.51897L15.7549 3.50924L16.1492 3.1598L16.3028 2.88601L16.3106 2.79475L16.3107 2.79424Z" fill="#A88F33"/>
<path fill-rule="evenodd" clip-rule="evenodd" d="M16.2388 18.2253C16.2388 18.2253 16.235 18.066 16.3243 17.9709C16.4156 17.8757 16.6466 17.7359 16.8719 17.2116C17.0972 16.6874 17.1223 16.569 17.1223 16.569C17.1223 16.569 16.7184 16.9146 16.4695 16.9961C16.5277 16.8756 16.5607 16.7903 16.5899 16.7281C16.5569 16.699 16.4171 16.666 16.4036 16.6505C16.4811 16.5728 16.5239 16.3825 16.6812 16.2563C16.8832 16.1027 17.2521 15.8387 17.5388 15.6035C17.8255 15.3682 18.3892 14.821 18.4612 14.6618C18.5039 14.7238 18.5135 14.7626 18.5135 14.7626C18.5135 14.7626 18.2301 15.1316 18.0825 15.3665C17.9524 15.5685 17.9621 15.6831 17.9621 15.6831L18.2301 15.5679C18.2301 15.5679 18.3077 15.8552 17.9563 16.2922C18.1099 16.234 18.1719 16.2689 18.2592 16.2203C18.1154 16.3117 17.9174 16.436 17.731 16.7776C17.5485 17.1194 17.2999 17.5174 16.8806 17.7659C16.4728 18.028 16.2378 18.2241 16.2378 18.2241L16.2388 18.2253Z" fill="#A67A2E"/>
<path fill-rule="evenodd" clip-rule="evenodd" d="M15.1862 5.1127C15.1862 5.1127 15.027 5.44461 15.0037 5.70291C14.9998 5.76512 14.9842 5.81363 14.9842 5.88544C14.9804 6.11648 14.9978 6.37478 14.9458 6.4951C14.9263 6.44659 14.9166 6.41357 14.8972 6.39424C14.8681 6.47578 14.8156 6.73011 14.7729 6.82522C14.7535 6.76314 14.7108 6.54758 14.7148 6.29325C14.7187 6.03891 14.7244 5.99027 14.7244 5.93792C14.7148 6.01549 14.6623 6.12045 14.6428 6.18253C14.6138 6.13018 14.5807 6.06221 14.5418 6.00589C14.5185 6.04429 14.4895 6.10099 14.4643 6.13018C14.4603 6.10688 14.4507 6.04467 14.4448 5.95738C14.441 5.85638 14.4351 5.72634 14.441 5.69907C14.4506 5.64672 14.5322 5.4409 14.705 5.25248C14.9109 5.0272 15.1226 4.5943 15.1847 4.46029C15.2467 4.32627 15.5108 3.76909 15.5108 3.76909H15.7128L15.4195 4.43699C15.4195 4.43699 15.2429 4.80205 15.1516 4.93619C15.0604 5.07034 14.8681 5.45472 14.7826 5.60422C14.8447 5.52269 14.8972 5.47994 14.9594 5.40224C15.0195 5.34784 15.1864 5.11296 15.1864 5.11296L15.1862 5.1127Z" fill="#8C6228"/>
<path fill-rule="evenodd" clip-rule="evenodd" d="M16.3146 2.76889C16.2816 2.87044 16.2295 2.96472 16.161 3.04665C16.0406 3.19039 15.7822 3.38252 15.6562 3.53587C15.541 3.68537 15.3106 4.09318 15.4153 4.57663C15.4537 4.4718 15.526 4.26406 15.7182 4.02905C15.9105 3.79404 16.1163 3.52422 16.2174 3.31455C16.3183 3.10284 16.3319 2.93593 16.3319 2.93593L16.3703 2.88742L16.347 2.7767L16.314 2.76889L16.3146 2.76889Z" fill="#CBA94C"/>
<path fill-rule="evenodd" clip-rule="evenodd" d="M20.247 15.6485C20.247 15.6485 20.1693 15.4369 20.146 15.2447C20.1227 15.0524 20.1844 15.0143 20.113 14.7942C20.0702 14.6602 19.9927 14.679 19.9732 14.6602C19.9537 14.6414 19.9402 14.4389 19.944 14.3282C19.9479 14.2175 19.9402 14.0739 19.9207 14.0116C19.8917 13.9884 19.8722 13.9689 19.8295 13.8253C19.7809 13.6815 19.7576 13.6097 19.7343 13.5671C19.7111 13.5245 19.643 13.4856 19.643 13.4428C19.643 13.3573 19.7207 13.3128 19.7207 13.2892C19.7168 13.2407 19.6586 13.2796 19.643 13.2659C19.6236 13.2426 19.6916 13.1028 19.6664 13.0834C19.6567 13.0738 19.5887 13.1553 19.5711 13.132C19.5517 13.1086 19.5284 12.8776 19.4935 12.7242C19.4606 12.5747 19.4255 12.466 19.4216 12.4214C19.4178 12.3786 19.1536 11.6252 19.0896 11.4427C19.038 11.2885 18.9946 11.1316 18.9596 10.9728C18.9401 10.8815 18.9265 10.695 18.9168 10.7145C18.9071 10.734 18.913 10.8291 18.8974 10.8252C18.8838 10.8212 18.8353 10.4893 18.8198 10.4369C18.8062 10.3844 18.7246 10.2065 18.7046 10.0777C18.6851 9.94752 18.6425 9.60768 18.6133 9.37664C18.5841 9.1456 18.5706 9.05049 18.5706 8.99264C18.5753 8.85113 18.5676 8.70947 18.5473 8.56934C18.5089 8.32461 18.4321 8.02752 18.3647 7.85485C18.2347 7.52857 17.889 6.69363 17.8271 6.48589C17.8271 6.43341 17.8951 6.46259 17.8951 6.46259C17.8951 6.46259 18.0639 6.88589 18.1882 7.21203C18.3087 7.5383 18.4232 7.82566 18.4524 7.85485C18.4757 7.8839 18.6583 8.20429 18.7398 8.72857C18.8213 9.25286 18.8504 9.73632 18.899 10.0586C18.9223 10.2122 18.9418 10.3752 18.9903 10.5382C19.0426 10.715 19.1242 10.8975 19.2311 11.1771C19.3223 11.4121 19.3903 11.6082 19.4271 11.7772C19.4699 11.9927 19.4699 12.1558 19.4951 12.2627C19.5185 12.3539 19.5534 12.5363 19.635 12.8003C19.7167 13.0642 19.8369 13.4042 19.9184 13.6157C20.0778 14.039 20.1488 14.3924 20.1729 14.5809C20.1941 14.775 20.2661 15.4469 20.2466 15.6488L20.247 15.6485Z" fill="#A88F33"/>
<path fill-rule="evenodd" clip-rule="evenodd" d="M16.3243 2.74561L16.3146 2.76891C16.3146 2.76891 16.3437 2.77863 16.3379 2.81755C16.3383 2.87078 16.3351 2.92399 16.3282 2.97678C16.3186 3.04475 16.2991 3.0971 16.2953 3.13985C16.2953 3.23111 16.3089 3.33595 16.1801 3.59617C16.1417 3.66798 16.118 3.73006 16.0986 3.77281C16.05 3.87764 16.0403 3.89326 15.9976 3.94177C16.0655 3.90337 16.3103 3.74977 16.4344 3.77281C16.349 3.82132 16.2189 3.91655 16.1373 4.04084C16.1568 4.04468 16.2383 4.0603 16.3677 4.04084C16.5833 4.00782 16.8241 3.93012 17.0356 3.94561C17.2668 3.95918 17.1755 3.66798 17.1755 3.66798L16.9088 3.08161L16.404 2.72641L16.3243 2.74574V2.74561Z" fill="#BE9C44"/>
<path fill-rule="evenodd" clip-rule="evenodd" d="M17.6407 7.13793C17.6407 7.13793 17.4155 6.91265 17.3242 6.13953C17.2329 5.36282 17.2524 4.21953 17.2524 4.21953L17.0699 3.77293C17.0699 3.77293 17.0315 3.47585 16.9358 3.36525C16.8402 3.25466 16.6524 3.06817 16.5669 2.9769C16.4814 2.88564 16.3844 2.76135 16.3262 2.74189C16.3552 2.69338 16.4854 2.41959 16.9843 2.41575C17.4833 2.41191 17.6371 2.68954 17.6892 2.79053C17.7413 2.89153 17.9766 3.32813 18.0639 4.16013C18.1454 4.99111 18.1494 5.05332 18.1358 5.34068C18.1261 5.49991 18.0736 5.86881 17.9822 6.26292C17.8988 6.597 17.8075 6.96986 17.6405 7.13869L17.6407 7.13793Z" fill="#A17C34"/>
<path fill-rule="evenodd" clip-rule="evenodd" d="M16.9344 7.80007C17.0095 7.80548 17.0845 7.78856 17.15 7.75143C17.2218 7.74759 17.482 7.78061 17.6819 7.52628C17.6955 7.58439 17.7306 7.74183 17.6392 7.8816C17.6878 7.83296 17.7596 7.81364 17.7694 7.80007C17.7732 7.87188 17.8412 8.09319 17.5538 8.63104C17.6314 8.54567 17.7226 8.54951 17.8042 8.53978C17.8081 8.64077 17.8624 8.98048 17.7188 9.16314C17.6237 9.28743 17.4683 9.24852 17.4683 9.24852C17.4706 9.22138 17.4706 9.19411 17.4683 9.16698C17.4645 9.1145 17.445 9.06215 17.4587 9.0272C17.3836 8.99291 17.3152 8.94553 17.2567 8.8873C17.0878 8.72807 16.8684 8.45632 16.8529 8.25434C16.8334 8.02906 17.0354 7.98055 17.0354 7.98055C17.0185 7.96541 17.0041 7.9477 16.9927 7.92807C16.9829 7.89517 16.9732 7.84269 16.9344 7.80007Z" fill="#8C6228"/>
<path fill-rule="evenodd" clip-rule="evenodd" d="M15.4366 5.35731C15.4366 5.35731 15.4269 5.34374 15.3745 5.40582C15.3842 5.34374 15.394 5.28537 15.3978 5.22905C15.4226 5.17691 15.4547 5.12855 15.493 5.08544C15.4639 5.14355 15.4444 5.19603 15.4444 5.19603C15.4444 5.19603 15.5163 5.06201 15.6212 4.98048C15.693 4.92224 15.7842 4.8951 15.823 4.8407C15.8658 4.78246 15.856 4.77273 15.8658 4.763C15.8658 4.763 15.961 4.70092 16.1067 4.51827C16.126 4.49497 16.1552 4.46976 16.1746 4.44646C16.2075 4.43289 16.2852 4.39795 16.3765 4.35123C16.4717 4.29888 16.5785 4.22707 16.6445 4.19763C16.7746 4.13939 16.9126 4.14528 16.9766 4.05388C17.0251 4.04032 17.0774 3.89465 17.0678 3.77049C17.1396 3.79955 17.5085 4.02867 17.6349 4.52966C17.7261 4.88499 17.5629 5.43257 17.495 5.69676C17.427 5.96096 17.4174 6.15692 17.3222 6.27724C17.2017 6.4366 16.8135 6.66124 16.7183 6.77248C16.6367 6.86374 16.3921 7.09478 16.4017 7.26169C16.4114 7.38598 16.5648 7.45369 16.5979 7.47724C16.6311 7.5008 16.6308 7.52972 16.693 7.51564C16.7552 7.50156 16.7784 7.47289 16.8038 7.47289C16.8328 7.47673 16.8328 7.48262 16.8464 7.48262C16.8562 7.48233 16.866 7.481 16.8756 7.47865C16.8756 7.47865 16.8658 7.65542 16.4523 7.70905C16.4231 7.71302 16.394 7.72262 16.357 7.72851C16.4057 7.70521 16.4347 7.70521 16.4872 7.6334C16.429 7.62368 16.2619 7.61395 16.2192 7.60038C16.2328 7.57708 16.2774 7.51488 16.3143 7.48582C16.3473 7.45676 16.3104 7.44742 16.2814 7.46252C16.2314 7.49656 16.1834 7.53349 16.1376 7.57312C16.0891 7.61587 16.0464 7.67411 15.9687 7.72672C15.9454 7.64902 15.9492 7.50144 16.0406 7.39468C16.0172 7.39852 15.9725 7.46649 15.9299 7.45292C15.9222 7.3821 15.9268 7.31047 15.9435 7.24121C15.9668 7.15379 16.093 7.00044 16.093 7.00044L16.7026 5.91104L16.8327 5.08582L15.4366 5.35705V5.35731Z" fill="#92723A"/>
<path fill-rule="evenodd" clip-rule="evenodd" d="M15.4038 5.40391C15.4038 5.40391 15.3708 5.4272 15.4368 5.47187C15.4271 5.48544 15.4038 5.53395 15.3746 5.56698C15.3417 5.60538 15.3067 5.62919 15.2931 5.66221C15.264 5.73018 15.2408 5.77677 15.2408 5.80595C15.2408 5.83514 15.231 6.02151 15.1495 6.14183C15.1203 6.18458 15.0873 6.25639 15.064 6.3049C15.0155 6.39027 14.9727 6.4585 14.963 6.4969C14.9437 6.56487 14.9301 6.75123 14.9301 6.75123C14.9301 6.75123 14.9728 6.69875 14.9883 6.67943C14.9649 6.72794 14.9397 6.78029 14.9028 6.8192C14.9261 6.79975 14.9941 6.75123 15.1087 6.65024C15.2679 6.51635 15.5165 6.29107 15.8194 6.11264C15.728 6.14567 15.6505 6.14567 15.5884 6.15539C15.6369 6.10688 16.0738 5.59424 16.3029 5.54573C16.3168 5.52809 16.3237 5.50595 16.3224 5.48352L16.1261 5.46419L15.728 5.54957L15.6699 5.24237L15.4038 5.40352V5.40391Z" fill="#B18E3E"/>
<path fill-rule="evenodd" clip-rule="evenodd" d="M16.0368 7.15148C16.0368 7.15148 15.9843 7.20384 15.9358 7.33401C15.8985 7.29501 15.8665 7.25124 15.8406 7.20384C15.7688 7.08352 15.6582 6.93004 15.3999 7.01747C15.3961 6.93593 15.3902 6.89318 15.3999 6.83494C15.4426 6.82534 15.5727 6.72051 15.7027 6.56704C15.7941 6.4622 15.8795 6.34176 15.9378 6.18841C15.9762 6.15923 16.0426 6.11072 16.1298 6.0544C16.254 5.96902 16.4035 5.85241 16.4268 5.72236C16.3686 5.74566 16.2443 5.8039 16.0578 5.7943C16.1298 5.76128 16.2403 5.72633 16.2268 5.58259C16.256 5.56313 16.2793 5.54956 16.2793 5.54956C16.2574 5.54226 16.2343 5.53897 16.2113 5.53984C16.2073 5.52627 16.2016 5.50694 16.1685 5.51654C16.1355 5.52614 16.1301 5.52627 16.1258 5.53984C16.1122 5.5438 16.0675 5.53984 16.0345 5.56326C16.0015 5.58668 15.9102 5.66412 15.8753 5.67769C15.8889 5.6544 15.9082 5.61958 15.9082 5.61958C15.9082 5.61958 15.8131 5.62918 15.7451 5.65798C15.6208 5.70073 15.4772 5.77843 15.3315 5.85408C15.3451 5.83078 15.351 5.81568 15.3606 5.81132C15.3702 5.80697 15.3936 5.80172 15.3936 5.79776C15.3936 5.79379 15.384 5.75936 15.3898 5.7454C15.4333 5.65315 15.4847 5.5648 15.5434 5.48134C15.6114 5.38995 15.6249 5.2599 15.6249 5.2599L15.922 5.1104L16.757 4.9184L17.2988 4.95142L17.2308 5.3262L16.9108 5.98054L16.637 6.57664L16.3243 6.94182L16.037 7.15148H16.0368Z" fill="#543E26"/>
<path fill-rule="evenodd" clip-rule="evenodd" d="M17.3906 5.52961C17.3906 5.52961 17.0643 5.93345 16.973 5.99565C17.0313 5.87137 17.3906 5.13153 17.5206 4.9257C17.4916 4.90241 17.4526 4.90241 17.5439 4.5417C17.4663 4.7241 17.4391 4.81933 17.3751 4.86785C17.3111 4.91636 17.3031 4.90087 17.2599 4.90087C17.268 4.88609 17.2714 4.86913 17.2695 4.85236C17.2695 4.85236 16.9957 4.81933 16.8087 4.81933C16.6217 4.81933 16.2515 4.92033 16.0455 5.00186C15.8825 5.06983 15.7912 5.06983 15.733 5.11245C15.6747 5.16097 15.6417 5.21345 15.6125 5.22701C15.5892 5.24058 15.4786 5.27553 15.4533 5.31239C15.43 5.35079 15.3912 5.39393 15.3912 5.40365C15.3912 5.41338 15.3815 5.42708 15.4107 5.41722C15.4203 5.41338 15.4922 5.37447 15.5737 5.32596C15.6843 5.26388 15.8183 5.19207 15.9155 5.14932C16.1931 5.0386 16.2805 5.05805 16.4047 5.03476C16.5348 5.01146 16.7213 4.95706 16.8454 4.95706C16.9697 4.95322 17.2047 4.95706 17.2591 4.96679C17.2358 4.98625 17.2164 5.00954 17.2261 5.09108C17.2261 5.11437 17.2066 5.13959 17.1877 5.19591C17.1296 5.35514 17.0189 5.61921 16.9573 5.75322C16.8719 5.93562 16.7749 6.08909 16.7269 6.1842C16.6789 6.2793 16.5733 6.5298 16.4687 6.66381C16.3641 6.79783 16.3095 6.87937 16.2767 6.90855C16.2439 6.93773 16.0087 7.11041 16.0262 7.17261C16.069 7.15905 16.3389 7.05741 16.5349 6.83674C16.7309 6.61607 16.7699 6.48141 16.9232 6.36097C17.0766 6.24052 17.197 6.03866 17.2688 5.87175C17.329 5.71636 17.3154 5.66785 17.3911 5.52999L17.3906 5.52961Z" fill="#806031"/>
<path fill-rule="evenodd" clip-rule="evenodd" d="M10.3593 8.54374C10.3593 8.54374 10.3166 8.72038 10.2194 8.8078C10.1243 8.89331 9.95537 8.96703 9.93604 9.11078C9.91274 9.2544 10.105 9.32633 10.105 9.32633C10.105 9.32633 10 9.49913 10 9.62918C10 9.7632 9.9962 9.78841 10.0098 9.91654C9.99437 9.92645 9.98127 9.93954 9.97137 9.95494C9.97137 9.95494 9.98097 10.0792 10.0762 10.1568C10.1714 10.2344 10.2528 10.2811 10.3014 10.2616C10.3088 10.2775 10.3153 10.2937 10.3208 10.3103C10.3208 10.3103 10.3927 10.1277 10.4413 9.96851C10.4898 9.80544 10.5325 9.8286 10.5518 9.60921C10.5712 9.38982 10.7822 9.01311 10.7822 9.01311L10.9262 8.69119L10.6914 8.50867L10.3593 8.54361V8.54374Z" fill="#B6903C"/>
<path fill-rule="evenodd" clip-rule="evenodd" d="M10.7962 8.86015C10.7477 8.90987 10.703 8.9631 10.6624 9.01939C10.6003 9.10489 10.5518 9.18246 10.4605 9.21561C10.3693 9.24876 10.311 9.24851 10.3168 9.3399C10.3226 9.43129 10.4081 9.46995 10.4566 9.51654C10.5091 9.56505 10.5518 9.64659 10.5285 9.73798C10.5576 9.72441 10.61 9.70879 10.6586 9.60396C10.7071 9.49913 11.0464 8.86028 11.0464 8.86028H10.7962V8.86015Z" fill="#685026"/>
<path fill-rule="evenodd" clip-rule="evenodd" d="M12.1343 7.38637C12.1343 7.38637 12.1633 7.3088 12.1343 7.25248C12.1051 7.19424 11.9284 7.17479 11.841 7.10874C11.7497 7.04077 11.639 6.99354 11.5478 7.02336C11.5613 6.99034 11.6157 6.9184 11.5711 6.90292C11.5283 6.88935 11.3692 6.96116 11.3264 6.99418C11.2837 7.0272 11.1865 7.06599 11.1672 7.08941C11.1479 7.11284 11.1147 7.15738 11.0953 7.13792C11.0758 7.12436 11.0662 7.08941 11.0332 7.10874C11.0002 7.12807 10.8412 7.25824 10.8119 7.33402C10.7826 7.4098 10.7167 7.57876 10.5186 7.77088C10.3206 7.96301 10.2351 8.08743 10.2934 8.15924C10.3516 8.23104 10.3789 8.17869 10.3886 8.24077C10.3961 8.30171 10.3928 8.3635 10.3789 8.4233C10.3556 8.52429 10.3168 8.6194 10.3691 8.63885C10.5031 8.6816 10.6333 8.60045 10.6624 8.62528C10.7206 8.67764 10.6294 8.86605 10.7672 8.90292C10.9071 8.94132 11.045 8.86989 11.045 8.86989L11.5536 8.5961L12.043 8.33792L12.2934 7.84269L12.1591 7.42912L12.1335 7.38637H12.1343Z" fill="#D4B968"/>
<path fill-rule="evenodd" clip-rule="evenodd" d="M11.6544 8.56895C11.6544 8.56895 11.5689 8.43891 11.6739 8.32422C11.7788 8.20953 11.9282 8.16115 11.9864 8.08934C11.9754 8.07566 11.9605 8.06556 11.9437 8.06028C11.9824 7.9911 12.0413 7.93547 12.1127 7.90092C12.0836 7.87187 12.0447 7.84857 12.0021 7.84857C11.9068 7.84857 11.8485 7.90681 11.7612 7.90681C11.6758 7.90681 11.6661 7.86406 11.6661 7.86406C11.6661 7.86406 11.8098 7.85049 11.7961 7.78636C11.7825 7.71839 11.7577 7.71839 11.7577 7.71839C11.7577 7.71839 12.0353 7.60319 12.0839 7.54175C12.1324 7.48031 12.1266 7.40774 12.1363 7.37868C12.1692 7.37868 12.3615 7.27769 12.4392 7.32044C12.5169 7.36319 12.4625 7.47967 12.4625 7.47967C12.4625 7.47967 12.6976 7.30291 12.8174 7.12959C12.9223 7.13932 12.971 7.05779 13.0478 7.05779C13.1431 7.05779 13.2926 7.18783 13.3216 7.46547C13.3411 7.6247 13.3701 7.71596 13.3411 7.99756C13.3275 8.15679 13.3313 8.49676 13.3795 8.66546C13.4124 8.79948 13.4901 8.78591 13.4901 8.78591C13.4781 8.82675 13.4545 8.8632 13.4221 8.89075C13.3696 8.93926 13.3639 9.06751 13.3696 9.11602C13.3774 9.15149 13.3871 9.18649 13.3988 9.22086C13.3988 9.22086 13.3367 9.29267 13.3211 9.34131C13.3075 9.38982 13.2435 9.42284 13.1968 9.42284C13.1501 9.42284 13.1735 9.41887 13.1114 9.42284C13.0494 9.42681 13.0299 9.43641 12.991 9.42284C12.9521 9.40927 12.923 9.39366 12.9386 9.26924C12.9522 9.14495 12.459 8.85567 12.459 8.85567L11.6526 8.56831L11.6544 8.56895Z" fill="#CCA849"/>
<path fill-rule="evenodd" clip-rule="evenodd" d="M10.7282 9.79609C10.7282 9.79609 10.9048 10.0311 11.6311 10.0311C11.9767 10.0311 12.0971 9.99808 12.1687 9.97862C12.2464 9.95916 12.5376 9.84473 12.8308 9.499C13.0949 9.18643 13.0367 9.0583 13.0367 9.0583L12.8831 9.035L12.3839 9.10297L10.9067 9.73209L10.7275 9.79609H10.7282Z" fill="#585136"/>
<path fill-rule="evenodd" clip-rule="evenodd" d="M11.2697 9.85433C11.2697 9.85433 10.6406 9.99423 10.6406 9.59615C10.6406 9.2078 11.029 8.79999 11.1261 8.72818C11.2271 8.65625 11.4679 8.57458 11.4679 8.57458H12.0485L12.1591 8.86783L12.1106 9.50079L11.2697 9.8542V9.85433Z" fill="#252211"/>
<path fill-rule="evenodd" clip-rule="evenodd" d="M11.8503 8.69326C11.8503 8.69326 11.73 8.58254 11.4562 8.73166C11.1824 8.88078 10.9609 9.19246 10.9474 9.47546C10.9338 9.72583 11.1532 9.91233 11.495 9.92206C11.7493 9.93166 11.9028 9.9026 11.9805 9.88366C11.961 9.86036 11.86 9.73415 11.86 9.73415L11.8504 8.69338L11.8503 8.69326Z" fill="#C3B378"/>
<path fill-rule="evenodd" clip-rule="evenodd" d="M11.7321 8.7552C11.7321 8.7552 11.7031 8.7319 11.6169 8.77849C11.5451 8.81689 11.4403 8.9184 11.3588 8.99021C11.3063 9.03296 11.2733 9.05229 11.2436 9.08531C11.1231 9.22905 11.0221 9.46406 11.0805 9.58054C11.1389 9.69702 11.331 9.83104 11.8203 9.73977L11.7307 8.75533L11.7321 8.7552Z" fill="#E6D89C"/>
<path fill-rule="evenodd" clip-rule="evenodd" d="M11.5726 8.9961C11.5726 8.9961 11.4949 9.11655 11.4949 9.3088C11.4949 9.5049 11.6056 9.81747 12.0134 9.84077C12.326 9.86023 12.5357 9.39034 12.7629 9.20781C12.9357 9.06803 13.0405 9.06407 13.0405 9.06407C13.0405 9.06407 12.8639 8.87207 12.3921 8.62336C11.926 8.37287 11.4036 8.33984 11.1201 8.72435C11.2541 8.71463 11.6872 8.60391 11.6872 8.60391L11.8989 8.67187L11.5726 8.99623V8.9961Z" fill="#252211"/>
<path fill-rule="evenodd" clip-rule="evenodd" d="M12.1825 9.25043C12.1689 9.22138 12.1592 9.18246 12.2155 9.17286C12.2718 9.16326 12.297 9.1689 12.3165 9.21126C12.336 9.25363 12.3549 9.28896 12.3261 9.3065C12.297 9.32198 12.2213 9.3065 12.1824 9.25018L12.1825 9.25043ZM12.0916 8.97663C12.0916 8.97663 12.0721 8.9902 12.0818 8.96307C12.0857 8.93017 12.111 8.8718 12.1731 8.8855C12.2352 8.89919 12.2217 8.96703 12.2115 8.98649C12.2012 9.00595 12.1494 9.03884 12.1105 9.02489C12.1005 9.02233 12.0923 9.01516 12.0885 9.00557C12.0846 8.99599 12.0856 8.98514 12.091 8.97638L12.0916 8.97663Z" fill="#6F674D"/>
<path fill-rule="evenodd" clip-rule="evenodd" d="M6.83496 9.1008C6.83496 9.1008 6.98856 9.216 7.16699 9.21152C7.34363 9.20755 7.57083 9.02515 7.67566 8.90855C7.73774 8.84058 7.79087 8.76877 7.84846 8.71245C7.8971 8.66394 7.93 8.64064 7.9533 8.60762C7.98632 8.56922 8.02126 8.49703 8.0388 8.4736C7.99605 8.50663 7.93397 8.56499 7.86984 8.60378C7.80776 8.64218 7.67374 8.71437 7.61934 8.73383C7.56699 8.75328 7.02325 9.04103 7.02325 9.04103L6.83496 9.1008Z" fill="#AC924C"/>
<path fill-rule="evenodd" clip-rule="evenodd" d="M7.06982 7.66604C7.06982 7.66604 7.1552 7.6078 7.32032 7.57081C7.47955 7.53241 7.79994 7.50284 7.79994 7.50284L8.064 7.61804L8.16883 8.01612L7.97683 8.42981L7.73222 8.58341L7.45446 8.13682L7.07046 7.66681L7.06982 7.66604Z" fill="#9F8E57"/>
<path fill-rule="evenodd" clip-rule="evenodd" d="M6.7242 8.02138L6.63281 8.0896C6.63281 8.0896 6.65624 8.04685 6.67556 7.9168C6.69489 7.78676 6.79601 7.47021 6.9436 7.28768C7.09118 7.10516 7.08734 7.11488 7.08734 7.11488C7.05987 7.10986 7.03156 7.1169 7.00964 7.13421C7.0291 7.0912 7.15339 6.9376 7.27768 6.8608C7.40196 6.784 7.45048 6.75981 7.58052 6.8224C7.71057 6.885 7.7436 6.91751 7.83883 6.91367C7.93406 6.90983 8.01547 6.80884 8.01547 6.80884C8.01547 6.80884 8.03492 6.87092 7.96312 7.01466C7.89131 7.1584 7.60779 7.45152 7.60779 7.45152L7.01745 7.85536L6.7242 8.02176V8.02138Z" fill="#EAC970"/>
<path fill-rule="evenodd" clip-rule="evenodd" d="M7.16116 7.61753C7.16116 7.61753 7.58842 7.67577 7.71847 7.55545C7.72231 7.56902 7.73792 7.56902 7.73792 7.57875C7.73688 7.58608 7.73346 7.59287 7.7282 7.59808C7.74234 7.59582 7.75663 7.59454 7.77095 7.59424C7.78805 7.59933 7.80564 7.60259 7.82343 7.60396C7.83776 7.60365 7.85204 7.60233 7.86618 7.6C7.86345 7.6195 7.85292 7.63705 7.837 7.64864C7.85645 7.64864 7.8754 7.65248 7.8754 7.66796C7.8754 7.68345 7.87924 7.73017 7.85594 7.7399C7.83664 7.74524 7.8161 7.74384 7.7977 7.73593C7.79924 7.7727 7.80923 7.80861 7.82688 7.84089C7.86528 7.9127 7.9472 7.99449 8.05728 7.97094C8.05728 7.97094 8.1154 8.11072 7.87079 8.42137C7.83789 8.46412 7.80282 8.52236 7.7602 8.57088C7.74335 8.60759 7.73048 8.64599 7.7218 8.68544C7.7218 8.68544 8.13549 8.5262 8.25389 8.16307C8.37434 7.79801 8.39764 7.43884 8.37434 7.10297C8.37037 7.00774 8.35488 6.9399 8.33159 6.89126C8.27335 6.77081 8.11015 6.79027 8.04423 6.85824C7.949 6.95347 7.78976 7.19027 7.56845 7.35334C7.34317 7.51641 7.33357 7.54534 7.16064 7.61753H7.16116Z" fill="#D7BC6B"/>
<path fill-rule="evenodd" clip-rule="evenodd" d="M6.64854 8.14183C6.64854 8.14183 6.56701 8.19034 6.52426 8.37223C6.4815 8.5586 6.56266 8.7858 6.60963 8.85761C6.65661 8.92941 6.76323 9.12564 6.98442 9.13537C7.03916 9.13508 7.0933 9.12385 7.14365 9.10234C7.22086 9.06694 7.29329 9.02191 7.3592 8.96833C7.45443 8.89652 7.532 8.83444 7.52227 8.82855C7.49898 8.81882 6.9359 8.35277 6.9359 8.35277L6.72419 8.11649L6.64842 8.14209L6.64854 8.14183Z" fill="#585136"/>
<path fill-rule="evenodd" clip-rule="evenodd" d="M7.18088 8.91456C7.18088 8.91456 7.29544 8.90496 7.36341 8.86221C7.43138 8.81946 6.96533 8.35738 6.96533 8.35738L6.99836 8.85658L7.18088 8.91456Z" fill="#453A25"/>
<path fill-rule="evenodd" clip-rule="evenodd" d="M6.68565 8.10676C6.68565 8.10676 6.62741 8.21748 6.62741 8.24666C6.61768 8.34177 6.64687 8.64077 6.67016 8.73588C6.69346 8.83687 6.81967 8.99021 6.98287 8.99021C7.08373 8.99021 7.22363 8.92813 7.22363 8.91265C7.22363 8.89319 7.07989 8.87425 7.04111 8.80193C7.01781 8.76353 7.00808 8.66804 7.00271 8.57153C6.99887 8.50945 6.99887 8.44148 7.02216 8.41793C7.07464 8.35969 7.08424 8.19265 7.08424 8.19265L7.27061 7.84641H7.02549L6.73224 8.02893L6.68565 8.10676Z" fill="#84754B"/>
<path fill-rule="evenodd" clip-rule="evenodd" d="M6.61377 8.21363C6.61377 8.21363 6.80577 7.9593 6.97883 7.90093C7.15188 7.84256 7.22932 7.87763 7.22932 7.87763L7.12833 8.13594L6.98459 8.29517L6.99431 8.3767C6.99431 8.3767 6.97089 8.59226 7.11463 8.74176C7.25838 8.89126 7.36513 8.8855 7.42734 8.8855C7.48955 8.8855 7.66811 8.83302 7.75937 8.61747C7.84091 8.41562 7.90887 8.15667 7.7458 7.89709C7.58644 7.63878 7.30497 7.6288 7.25057 7.6288C7.19617 7.6288 6.76903 7.65018 6.61377 8.21325V8.21363Z" fill="#252211"/>
<path fill-rule="evenodd" clip-rule="evenodd" d="M11.5437 9.07763C11.4719 9.0446 11.5399 8.84275 11.6117 8.78054C11.6835 8.71833 11.7748 8.64665 11.9341 8.6368C11.9923 8.63296 12.0486 8.66982 12.039 8.70873C12.0254 8.78054 11.9244 8.88153 11.8331 8.95334C11.7069 9.05241 11.6253 9.11449 11.5437 9.07763Z" fill="#F7F7E7"/>
<path fill-rule="evenodd" clip-rule="evenodd" d="M7.66042 7.9767C7.7129 7.97286 7.78087 8.0151 7.79444 8.07193C7.808 8.13401 7.76141 8.2583 7.66042 8.2583C7.57888 8.2583 7.53613 8.15731 7.53613 8.12825C7.53705 8.10436 7.54373 8.08104 7.55559 8.06028C7.55943 8.05439 7.56916 7.98643 7.66042 7.9767Z" fill="#F8F6DE"/>
<path fill-rule="evenodd" clip-rule="evenodd" d="M6.9028 8.02138C6.9028 8.02138 6.76878 8.08346 6.7067 8.21338C6.66235 8.30931 6.64893 8.41667 6.6683 8.52058C6.67803 8.56909 6.72654 8.68941 6.75957 8.73216C6.79259 8.77491 6.83726 8.8041 6.87029 8.80013C6.90331 8.79616 6.97115 8.70887 6.97115 8.65651C6.97115 8.60416 6.97512 8.38272 7.03912 8.26227C7.09544 8.14195 6.90318 8.02151 6.90318 8.02151L6.9028 8.02138Z" fill="#D4C38B"/>
<path fill-rule="evenodd" clip-rule="evenodd" d="M6.92214 8.01164C6.89885 8.02521 6.86006 8.04467 6.86966 8.06988C6.87939 8.09318 6.96093 8.10828 6.99011 8.16512C7.02313 8.22336 7.02313 8.28544 7.01341 8.31462C7.03877 8.30257 7.06178 8.2861 7.08137 8.26598C7.12413 8.21747 7.17648 8.15155 7.22115 8.15155C7.25033 8.15155 7.27939 8.16512 7.30665 8.16512C7.34941 8.16512 7.39203 8.15155 7.39792 8.10688C7.40752 8.04864 7.31638 7.99616 7.2639 8.00588C7.27363 7.96748 7.2872 7.91078 7.24445 7.87187C7.20169 7.83296 7.06781 7.90105 7.03862 7.92051C7.00944 7.93996 6.92214 8.01177 6.92214 8.01177V8.01164Z" fill="#E2D59D"/>
<path fill-rule="evenodd" clip-rule="evenodd" d="M10.0077 12.0913L10.295 12.0064L10.3766 12.0646C10.3766 12.0646 10.4347 12.1889 10.5261 12.2044C10.4969 12.2665 10.4211 12.3196 10.4251 12.3636C10.4291 12.4077 10.4678 12.4413 10.4678 12.4413C10.4678 12.4413 10.2095 12.8685 10.7183 13.2989C10.5979 13.3474 10.4445 13.4141 10.363 13.4525C10.4211 13.4661 10.5454 13.4909 10.5979 13.538C10.6504 13.5851 10.6504 13.6001 10.6989 13.6293C10.7474 13.6585 10.7764 13.6973 10.7668 13.7147C10.7338 13.6952 10.6231 13.6371 10.6038 13.6914C10.5844 13.7457 10.1242 13.7244 10.1242 13.7244L9.34746 13.8739C9.34746 13.8739 9.37651 13.7962 9.29498 13.7244C9.19987 13.639 9.08339 13.7282 8.9591 13.6331C8.79603 13.5089 8.79014 13.3651 8.73779 13.3108C8.79014 13.2778 8.89702 13.2293 9.15136 13.1956C9.14163 13.1762 9.10861 13.1179 9.12806 13.0656C9.15136 12.9976 9.24838 12.9549 9.21933 12.8736C9.26208 12.8639 9.28141 12.8639 9.38829 12.7298C9.48928 12.5958 9.55136 12.5668 9.62906 12.557C9.70675 12.5473 9.75334 12.557 9.89709 12.423C9.99795 12.3279 9.96506 12.2464 9.96506 12.2464C9.96506 12.2464 10.031 12.225 10.0078 12.091L10.0077 12.0913Z" fill="#CBAC5A"/>
<path fill-rule="evenodd" clip-rule="evenodd" d="M9.15963 12.1344C9.16347 12.1149 9.17908 12.1052 9.28392 12.1149C9.38875 12.1247 10.0528 12.0529 10.2334 12.0431C10.4159 12.0296 11.0586 12.0392 11.3713 12.1052C11.684 12.1713 12.0005 12.249 12.1538 12.2877C12.3074 12.3305 12.3558 12.3459 12.3499 12.3653C12.3461 12.3848 12.3115 12.4037 12.2917 12.3983C12.2723 12.3945 11.7635 12.2391 11.6063 12.2063C11.4492 12.1736 10.9053 12.0859 10.6079 12.0911C10.3303 12.0951 10.2196 12.0873 9.98472 12.1144C9.74971 12.1436 9.36136 12.1824 9.24488 12.1669C9.12968 12.1533 9.15348 12.1533 9.15937 12.1339L9.15963 12.1344Z" fill="#D6BC6F"/>
<path fill-rule="evenodd" clip-rule="evenodd" d="M10.7221 13.6563C10.7221 13.6563 11.1202 13.8719 11.2639 14.1359C11.3687 14.332 11.2018 14.4292 11.2018 14.4292C11.2018 14.4292 11.4271 14.4292 11.3979 14.5535C11.3844 14.631 11.0096 14.8407 10.7591 14.9514C10.5047 15.0621 10.5145 15.0564 10.3902 15.0757C10.2697 15.0952 9.93962 15.0373 9.87165 15.134C9.80368 15.2306 9.83325 15.3302 9.85219 15.3457C9.87165 15.3592 10.029 15.3787 10.029 15.3787C10.029 15.3787 9.99594 15.47 9.66979 15.4797C9.34365 15.4894 9.26198 15.5126 9.24253 15.5477C9.22307 15.5805 9.30461 15.5612 9.45424 15.5861C9.60374 15.6093 9.81341 15.6245 9.81341 15.6245C9.81341 15.6245 9.74544 15.6827 9.5688 15.7293C9.36682 15.7816 9.05027 15.8303 8.95517 15.8885C9.00368 15.9215 9.07562 15.9701 9.10877 15.9739C9.02723 15.9933 8.91254 16.0361 8.89322 16.0516C8.92227 16.071 8.96118 16.0943 8.96118 16.0943C8.96118 16.0943 8.79798 16.2904 8.70288 16.3391C8.60778 16.3877 8.06019 16.6419 7.87178 16.5934C7.40189 16.4691 7.34365 15.9546 7.22909 15.9158C7.05629 15.8575 6.97475 15.9739 6.82128 15.8924C6.88925 15.8438 6.92624 15.8148 6.99805 15.7818C6.92035 15.7434 6.51843 15.4885 6.51843 15.4885C6.4764 15.3969 6.42975 15.3075 6.37866 15.2206C6.30096 15.0866 6.18666 14.9079 6.1009 14.7506C5.91453 14.405 5.9048 14.2458 5.73584 14.0497C5.76502 14.0113 5.86589 14.0166 5.86589 14.0166L7.28157 14.4827L9.79178 14.5554L10.4446 13.6234L10.7222 13.6565L10.7221 13.6563Z" fill="#DFC677"/>
<path fill-rule="evenodd" clip-rule="evenodd" d="M7.00391 15.0776C7.01905 15.0945 7.03671 15.1089 7.05626 15.1204C7.1049 15.1534 7.17671 15.1923 7.22522 15.2504C7.24467 15.2214 7.29319 15.1689 7.37882 15.2504C7.46445 15.332 7.57082 15.2739 7.63699 15.2932C7.70496 15.3166 7.7088 15.3262 7.7088 15.3262C7.7088 15.3262 7.7472 15.2932 7.83309 15.2582C7.88557 15.2388 7.94765 15.2252 8.01562 15.2059C8.0777 15.1923 8.14567 15.1729 8.19239 15.1729C8.23514 15.2019 8.38848 15.3649 9.00403 15.1244C9.58464 14.8991 9.71853 14.8739 9.81568 14.9087C9.82541 14.8854 9.83514 14.8407 9.98464 14.8466C9.98464 14.7845 9.86035 14.5728 9.86035 14.5728L9.17491 14.3379H8.8L7.67578 14.5437L7.0528 14.8992L7.00429 15.0784L7.00391 15.0776Z" fill="#C4A859"/>
<path fill-rule="evenodd" clip-rule="evenodd" d="M6.62891 14.6835C6.62891 14.6835 6.64247 14.7884 6.79787 14.8991C6.95147 15.0097 6.99972 15.0757 6.99972 15.0757C6.99972 15.0757 7.02891 15.0373 7.0522 14.9981C7.0755 14.9554 7.09495 14.9069 7.13374 14.8933C7.21143 14.8603 7.38807 14.9224 7.42699 14.9126C7.46001 14.903 7.45028 14.8351 7.48523 14.8351C7.56676 14.8311 7.61911 14.8874 7.6483 14.8874C7.67748 14.8874 7.74916 14.8836 7.75889 14.8681C7.76862 14.8526 7.77246 14.6913 7.88318 14.6136C8.00363 14.5283 8.15121 14.5651 8.19038 14.5846C8.19038 14.6136 8.19422 14.6856 8.27191 14.6894C8.34961 14.6933 8.35729 14.6797 8.42551 14.703C8.49374 14.7263 8.57502 14.6991 8.61188 14.8136C8.64491 14.804 8.7226 14.7942 8.70315 14.6835C8.74155 14.6545 8.77508 14.635 8.85675 14.5205C8.8762 14.4914 8.9091 14.4584 8.93444 14.4156C9.00241 14.4156 9.08395 14.4021 9.19262 14.4972C9.15959 14.5205 9.14014 14.5356 9.13054 14.5592C9.15896 14.5874 9.18491 14.6179 9.20811 14.6505C9.23729 14.6889 9.25675 14.736 9.29361 14.7457C9.37515 14.769 9.50916 14.736 9.65867 14.7457C9.80241 14.7555 9.92273 14.8078 9.97521 14.8408C9.99467 14.8312 9.99467 14.8273 10.0432 14.837C10.0917 14.8467 10.1286 14.8506 10.0762 14.7885C10.1053 14.8021 10.1383 14.8312 10.1675 14.8021C10.1967 14.7729 10.2198 14.7302 10.3014 14.7205C10.3829 14.7108 10.4121 14.7244 10.4451 14.639C10.4878 14.5341 10.3403 14.5341 10.3403 14.5341C10.3403 14.5341 10.4082 14.4719 10.484 14.3904C10.5753 14.305 10.6801 14.1943 10.7053 14.0584C10.7481 13.8079 10.5035 13.775 10.5035 13.775L9.31703 14.14L7.86654 14.0681L6.62967 14.6837L6.62891 14.6835Z" fill="#927D49"/>
<path fill-rule="evenodd" clip-rule="evenodd" d="M5.56326 11.2563C5.56326 11.2563 5.52486 11.3048 5.50118 11.4194C5.4775 11.534 5.48761 11.5204 5.46815 11.6019C5.4487 11.6835 5.20972 12.4951 5.29932 12.7689C5.38892 13.0427 5.54406 13.1437 5.64108 13.365C5.66054 13.4135 5.67948 13.4427 5.68959 13.4854C5.72262 13.6291 5.69356 13.7398 5.73235 13.8835C5.74591 13.932 5.78099 13.9884 5.83334 14.0466C5.94854 14.1669 6.13631 14.2815 6.21734 14.363C6.33177 14.4835 6.49497 14.7282 6.70271 14.7514C6.81343 14.7649 6.97075 14.7183 7.10079 14.6408C7.21599 14.5688 7.28716 14.468 7.40799 14.4104C7.49337 14.3676 7.58463 14.3521 7.66617 14.3327C7.83513 14.2997 7.9886 14.2943 8.07987 14.3132C8.21964 14.3424 8.54975 14.4434 8.73267 14.4434C8.8756 14.4411 9.01772 14.4215 9.15596 14.3852C9.43359 14.3036 9.76947 14.1637 9.99091 14.1016C10.121 14.0632 10.2258 14.0531 10.3327 14.0298C10.5152 13.9871 10.6685 13.9288 10.756 13.8181C10.6977 13.7501 10.6259 13.6453 10.2374 13.6492C9.79673 13.6589 9.28793 13.9035 9.03743 13.9424C8.78694 13.9813 8.67827 14.0142 8.39859 13.9132C8.12441 13.8112 8.11532 13.7437 8.11532 13.7437C8.11532 13.7437 7.82745 13.5424 7.707 13.0291C7.58655 12.5158 7.707 12.1418 8.01971 11.7864C8.10124 11.6951 8.08179 11.6136 8.08179 11.6136C8.08179 11.6136 8.28761 11.3359 8.23129 11.076C8.16921 10.8177 7.77113 10.8701 7.77113 10.8701L5.56339 11.2563H5.56326Z" fill="#6E6342"/>
<path fill-rule="evenodd" clip-rule="evenodd" d="M5.89514 12.1205C5.87803 12.1526 5.86997 12.1889 5.87185 12.2253C5.87569 12.2776 5.8913 12.3456 6.04849 12.4991C6.1825 12.633 6.15332 12.7825 6.15332 12.7825C6.15332 12.7825 6.22078 12.796 6.40382 12.7104C6.54756 12.6424 6.59582 12.7629 6.59582 12.7629C6.63766 12.7409 6.68301 12.7265 6.72983 12.7201C6.77225 12.7162 6.81331 12.7031 6.85015 12.6817C6.85015 12.6817 7.01911 12.8545 7.1667 12.9361C7.30071 13.008 7.37841 13.0565 7.44446 13.008C7.50654 12.9653 7.50654 12.8778 7.50257 12.839C7.48717 12.8032 7.46766 12.7694 7.44446 12.7381C7.4017 12.676 7.33374 12.604 7.32926 12.5461C7.31953 12.4122 7.43025 12.2528 7.40682 12.214C7.3834 12.1752 7.29623 12.1655 7.08068 12.2432C6.85745 12.3169 5.89425 12.1208 5.89425 12.1208L5.89514 12.1205Z" fill="#39331F"/>
<path fill-rule="evenodd" clip-rule="evenodd" d="M6.40379 12.9884C6.40379 12.9884 6.29319 12.8836 6.33198 12.3748C6.37893 12.3741 6.42581 12.3786 6.47175 12.3883C6.47175 12.3883 6.53204 12.7826 6.40379 12.9884Z" fill="#292311"/>
<path fill-rule="evenodd" clip-rule="evenodd" d="M5.61577 10.868C5.6312 10.8565 5.64552 10.8437 5.65852 10.8296C5.62012 10.9014 5.44284 11.1887 5.58659 11.6412C5.73033 12.0916 6.09142 12.4275 6.53609 12.4431C6.98076 12.4587 7.21449 12.2411 7.48175 11.915C7.58659 11.785 7.70703 11.6218 7.81379 11.5112C7.97302 11.3382 8.09731 11.2897 8.09731 11.1228C8.09731 10.781 7.74774 10.6276 7.23318 10.4742C6.71862 10.3209 6.25449 10.3398 6.01372 10.4448C5.77884 10.5592 5.67785 10.6797 5.61564 10.8681L5.61577 10.868Z" fill="#252211"/>
<path fill-rule="evenodd" clip-rule="evenodd" d="M7.26796 13.1418L7.30636 13.1223C7.30636 13.1223 7.31596 12.9687 7.37817 12.9728C7.44025 12.9825 7.46943 13.0642 7.46355 13.0932C7.45971 13.1223 7.44422 13.1709 7.38201 13.1651C7.30047 13.167 7.26758 13.1418 7.26758 13.1418H7.26796Z" fill="#3F3824"/>
<path fill-rule="evenodd" clip-rule="evenodd" d="M7.09521 12.4893C7.09521 12.4893 7.13361 12.4758 7.18059 12.5224C7.21899 12.5224 7.38641 12.5029 7.43889 12.5359C7.49137 12.569 7.50686 12.598 7.50686 12.598C7.50686 12.598 7.31077 12.6408 7.20389 12.598C7.09521 12.5611 7.09521 12.4893 7.09521 12.4893H7.09521Z" fill="#2D2815"/>
<path fill-rule="evenodd" clip-rule="evenodd" d="M7.95927 12.5184C7.95927 12.5087 7.85444 12.4369 7.74372 12.4134C7.72427 12.4096 7.7203 12.4232 7.70532 12.4232C7.69559 12.4193 7.69175 12.3901 7.69175 12.3901L7.62878 12.4233C7.62878 12.4233 7.61905 12.4369 7.65207 12.4617C7.68113 12.485 7.72977 12.5044 7.74334 12.5432C7.75691 12.582 7.75691 12.5956 7.76279 12.6015C7.76663 12.6053 7.8346 12.6015 7.86763 12.582C7.90065 12.5626 7.96286 12.5308 7.95889 12.518L7.95927 12.5184Z" fill="#82764F"/>
<path fill-rule="evenodd" clip-rule="evenodd" d="M6.97852 12.9126C6.97852 12.9126 6.99784 12.7787 7.12802 12.7729C7.26191 12.7631 7.28725 12.8932 7.28725 12.8932L7.20956 12.9709C7.20956 12.969 7.15132 12.8874 6.97916 12.9126H6.97852Z" fill="#2D2816"/>
<path fill-rule="evenodd" clip-rule="evenodd" d="M7.82325 12.3359C7.82325 12.3359 7.75132 12.4136 7.59221 12.4369C7.57865 12.4174 7.54946 12.3786 7.59221 12.3166C7.63497 12.2545 7.68348 12.235 7.73199 12.2543C7.77569 12.2614 7.81131 12.2932 7.82325 12.3359Z" fill="#574F35"/>
<path fill-rule="evenodd" clip-rule="evenodd" d="M8.11639 12.4311C8.12036 12.4117 8.10679 12.4078 8.11639 12.3981C8.12599 12.3884 8.1786 12.369 8.18833 12.3786C8.19217 12.3826 8.18833 12.3981 8.18833 12.417C8.18833 12.436 8.18833 12.4554 8.1786 12.4694C8.16503 12.4888 8.12625 12.4986 8.10679 12.4928C8.08734 12.487 8.0835 12.4598 8.0835 12.4544C8.0931 12.4506 8.11639 12.4408 8.11639 12.4311ZM8.44798 12.2214C8.44798 12.2117 8.481 12.1923 8.50046 12.1923C8.52952 12.1923 8.52952 12.2156 8.53348 12.2214C8.54308 12.2253 8.54308 12.2175 8.55281 12.235C8.56254 12.2525 8.57624 12.2835 8.56638 12.303C8.55652 12.3224 8.51787 12.3359 8.50827 12.332C8.4947 12.3223 8.45195 12.235 8.44798 12.2214Z" fill="#82764F"/>
<path fill-rule="evenodd" clip-rule="evenodd" d="M7.78027 12.4758C7.78027 12.4758 7.82303 12.4854 7.88127 12.534C7.86181 12.5476 7.83263 12.5631 7.83263 12.5631C7.83263 12.5631 7.82879 12.5184 7.78027 12.4756V12.4758Z" fill="#6E6342"/>
<path fill-rule="evenodd" clip-rule="evenodd" d="M7.68562 12.0485C7.67589 12.0389 7.71467 12.0156 7.73797 12.0195C7.76126 12.0233 7.77099 12.0389 7.79621 12.0428C7.82142 12.0466 7.82539 12.033 7.83461 12.0233C7.84382 12.0136 7.87736 12.0195 7.88312 12.0233C7.88671 12.0276 7.88996 12.0321 7.89285 12.0369C7.89367 12.0219 7.90067 12.008 7.91218 11.9985C7.92727 11.9874 7.9466 11.9838 7.96466 11.9887C7.9685 12.0023 7.98795 12.0508 7.98411 12.0605C7.98027 12.0703 7.92203 12.084 7.91218 12.0741C7.9219 12.0975 7.96466 12.146 7.97042 12.1556C7.97618 12.1652 7.92766 12.1887 7.90834 12.1848C7.8812 12.1829 7.71416 12.0858 7.6851 12.0489L7.68562 12.0485ZM7.93996 11.7262C7.93637 11.7164 7.92949 11.7082 7.92051 11.7029C7.90694 11.6991 7.86227 11.7029 7.86227 11.7262C7.86227 11.7495 7.90067 11.8798 7.9438 11.9476C7.99244 12.0156 8.02534 12.0718 8.05836 12.0874C8.07987 12.0972 8.1053 12.0887 8.1166 12.068C8.12044 12.0582 8.13017 11.9864 8.12633 11.8175C8.12249 11.6485 8.1166 11.4854 8.10688 11.4757C8.09715 11.466 8.05836 11.4661 8.0448 11.4854C8.03123 11.5048 7.9438 11.6972 7.93984 11.7262H7.93996Z" fill="#585136"/>
<path fill-rule="evenodd" clip-rule="evenodd" d="M7.76701 12.7204C7.76701 12.7204 7.69904 12.6776 7.63299 12.7068C7.57091 12.736 7.57475 12.8506 7.57475 12.8506C7.60311 12.8617 7.63512 12.858 7.66026 12.8408C7.70301 12.8118 7.75728 12.7633 7.76701 12.7205V12.7204Z" fill="#574F35"/>
<path fill-rule="evenodd" clip-rule="evenodd" d="M7.89533 12.8739C7.89149 12.8355 7.85693 12.8355 7.85693 12.8156C7.86183 12.7961 7.87944 12.7825 7.89956 12.7826C7.91901 12.7826 7.93796 12.8059 7.96177 12.821C7.98506 12.8346 8.02001 12.8594 8.02385 12.889C8.02769 12.9185 7.98545 12.9996 7.93847 12.9996C7.89149 12.9996 7.90545 12.9121 7.89572 12.8734L7.89533 12.8739ZM8.27022 12.8214C8.27022 12.8214 8.19252 12.8447 8.19828 12.8214C8.20404 12.7981 8.22171 12.7923 8.24692 12.7923C8.25974 12.7789 8.27697 12.7706 8.29544 12.7689C8.306 12.7684 8.31637 12.7719 8.32449 12.7786C8.32449 12.7786 8.37697 12.7553 8.39246 12.7689C8.40795 12.7825 8.39643 12.7825 8.40603 12.7981C8.41825 12.8154 8.42627 12.8354 8.42945 12.8563C8.42945 12.8718 8.37121 12.9048 8.32449 12.8991C8.27022 12.8874 8.27982 12.8311 8.27022 12.8214ZM8.7226 12.734C8.7226 12.734 8.7459 12.7475 8.72657 12.7631C8.713 12.7767 8.64503 12.8015 8.58667 12.8059C8.52843 12.8059 8.47607 12.8155 8.47607 12.7962C8.47607 12.7768 8.52459 12.7379 8.55364 12.7282C8.56545 12.7134 8.58336 12.7048 8.60228 12.7049C8.62558 12.7049 8.71671 12.6952 8.74206 12.6913C8.76535 12.6874 8.78481 12.7009 8.77111 12.7204C8.76535 12.734 8.7226 12.734 8.7226 12.734ZM8.85663 12.1344C8.85663 12.1344 8.82745 12.1965 8.79455 12.1965C8.76153 12.1926 8.76153 12.1829 8.76153 12.1732C8.76153 12.1596 8.79455 12.1247 8.79058 12.115C8.78098 12.115 8.75756 12.115 8.76153 12.0917C8.76153 12.0722 8.79455 12.0489 8.82361 12.0533C8.84556 12.0352 8.8729 12.025 8.9013 12.0242C8.93433 12.0242 8.96338 12.0338 8.96338 12.0533C8.96338 12.0727 8.92498 12.1153 8.9109 12.1252C8.89542 12.1407 8.87596 12.1508 8.85663 12.1348V12.1344ZM8.41381 13.2819C8.41381 13.2819 8.37541 13.2859 8.37541 13.3052C8.37541 13.315 8.38501 13.315 8.39871 13.3092C8.4066 13.3087 8.41441 13.3074 8.42201 13.3052C8.42585 13.3092 8.42585 13.3285 8.45503 13.3285C8.47899 13.3253 8.50209 13.3174 8.523 13.3052C8.54629 13.2956 8.56575 13.2858 8.56575 13.2668C8.55602 13.2338 8.53657 13.2182 8.50751 13.2182C8.49262 13.2172 8.47777 13.2206 8.46476 13.2279C8.46476 13.2279 8.45503 13.2085 8.42201 13.2279C8.38898 13.2474 8.39282 13.2474 8.40255 13.2571C8.41996 13.2726 8.4142 13.2827 8.4142 13.2827L8.41381 13.2819ZM8.1944 13.4839C8.1944 13.4742 8.24291 13.4547 8.25648 13.4606C8.27005 13.4645 8.30883 13.5382 8.30883 13.546C8.30883 13.5557 8.26032 13.579 8.24087 13.579C8.22141 13.579 8.18851 13.546 8.18851 13.5406C8.18851 13.5368 8.21181 13.531 8.21181 13.527C8.21757 13.5174 8.1944 13.494 8.1944 13.4843V13.4839ZM8.0408 13.2004C8.05053 13.1966 8.05053 13.1868 8.0641 13.1771C8.07271 13.1714 8.08348 13.17 8.09328 13.1733C8.10022 13.1609 8.11234 13.1523 8.12631 13.1498C8.1496 13.146 8.16906 13.1498 8.16471 13.1596C8.16471 13.1887 8.18416 13.2081 8.18416 13.2314C8.18416 13.2547 8.17059 13.2838 8.12208 13.3033C8.07357 13.3169 8.00752 13.3169 7.99779 13.313C7.98807 13.3092 7.97834 13.2703 7.98807 13.2508C7.99779 13.2314 8.02493 13.2101 8.04055 13.2004H8.0408Z" fill="#82764F"/>
<path fill-rule="evenodd" clip-rule="evenodd" d="M8.10236 13.2136C8.10236 13.2136 8.06934 13.233 8.06934 13.2427C8.06641 13.2521 8.06511 13.262 8.0655 13.2718C8.0655 13.2776 8.10825 13.268 8.11401 13.2621C8.11593 13.2582 8.10236 13.2237 8.10236 13.2136Z" fill="#6E6342"/>
<path fill-rule="evenodd" clip-rule="evenodd" d="M7.81374 13.1223C7.83306 13.1263 7.86609 13.1223 7.8913 13.132C7.91076 13.1418 7.92433 13.1612 7.90487 13.1845C7.88542 13.2078 7.86647 13.2428 7.82334 13.2369C7.77482 13.233 7.72823 13.2078 7.72823 13.1884C7.72658 13.1635 7.73498 13.139 7.75153 13.1204C7.77098 13.1049 7.78058 13.1146 7.81361 13.1223H7.81374Z" fill="#585136"/>
<path fill-rule="evenodd" clip-rule="evenodd" d="M7.79039 13.1418C7.79039 13.1418 7.72831 13.1903 7.7127 13.2137C7.69324 13.237 7.59814 13.3573 7.56908 13.3825C7.57873 13.3655 7.58973 13.3493 7.60198 13.334C7.56357 13.3586 7.53479 13.3956 7.52044 13.4388C7.49714 13.5108 7.65062 13.5496 7.75148 13.5787C7.85234 13.6079 7.89138 13.6171 7.89138 13.6171C7.85425 13.5613 7.82237 13.5022 7.79615 13.4405C7.75775 13.3492 7.73791 13.3395 7.76313 13.2968C7.78258 13.254 7.81177 13.225 7.81177 13.1919C7.80012 13.1612 7.79039 13.1418 7.79039 13.1418Z" fill="#574F35"/>
<path fill-rule="evenodd" clip-rule="evenodd" d="M5.57692 13.2952C5.59105 13.2978 5.60554 13.2978 5.61967 13.2952C5.64872 13.2913 5.9517 13.18 6.26824 13.2C6.50521 13.2143 6.74009 13.2529 6.96917 13.3152C7.36725 13.42 7.86236 13.6278 8.18274 13.7463C8.26812 13.7792 8.3517 13.8376 8.41314 13.8607C8.65788 13.956 8.66748 13.956 8.81122 13.9812C8.98018 14.0045 9.15298 13.9482 9.33359 13.9094C9.5549 13.8607 9.93352 13.8374 10.2656 13.7889C10.3729 13.774 10.4788 13.75 10.5821 13.7171C10.5821 13.7171 10.318 13.9812 9.68495 14.0763C9.42905 14.1151 9.16901 14.1184 8.91221 14.086C8.71023 14.0666 8.57634 14.0374 8.47535 14.0083C8.36079 13.9753 8.12578 13.8879 7.8365 13.8163C7.63452 13.7638 7.40924 13.7251 7.15106 13.6765C6.51413 13.5599 5.82293 13.426 5.57666 13.296L5.57692 13.2952Z" fill="#252211"/>
<path fill-rule="evenodd" clip-rule="evenodd" d="M4.86184 12.0952C4.70824 12.2253 4.5453 12.3496 4.3862 12.4699L3.90658 12.8384C3.74351 12.9587 3.58428 13.083 3.42108 13.2035C3.25788 13.3239 3.09493 13.4383 2.92188 13.5491C3.07548 13.419 3.23842 13.2986 3.40149 13.1802C3.56456 13.0618 3.73365 12.9457 3.89096 12.8256L4.37058 12.4566C4.53557 12.3363 4.6948 12.212 4.86184 12.0955V12.0952ZM4.0135 13.4545C4.0135 13.4545 4.1863 13.3107 4.40185 13.1089C4.66976 12.8585 4.99795 12.538 5.10278 12.4799L4.01337 13.4546L4.0135 13.4545Z" fill="#CFB66C"/>
<path fill-rule="evenodd" clip-rule="evenodd" d="M4.01367 13.4543C4.09918 13.369 4.19044 13.2855 4.2817 13.2038L4.42148 13.0835C4.46423 13.0451 4.51287 13.002 4.5555 12.9592C4.64087 12.8739 4.72446 12.7825 4.80983 12.6952C4.85215 12.6513 4.89689 12.6098 4.94385 12.5709C4.96732 12.5501 4.9934 12.5325 5.02142 12.5184C5.04484 12.5048 5.07006 12.48 5.10295 12.4756C5.08362 12.5048 5.06033 12.5184 5.04087 12.5436C5.01758 12.5631 4.99812 12.5864 4.97879 12.6057C4.93604 12.6484 4.88753 12.6872 4.84478 12.7261C4.75351 12.8038 4.65841 12.8797 4.56714 12.961C4.47588 13.0423 4.3905 13.13 4.29911 13.2115C4.20017 13.2951 4.1089 13.3766 4.01367 13.4547V13.4543ZM5.17479 12.6776C5.17479 12.6776 4.54183 13.2972 4.41166 13.398L5.17479 12.6776Z" fill="#CFB66C"/>
<path fill-rule="evenodd" clip-rule="evenodd" d="M5.17476 12.6776C5.11782 12.7435 5.05677 12.8058 4.99197 12.864L4.79997 13.0465C4.73789 13.1086 4.67953 13.1708 4.61361 13.2329C4.54564 13.2911 4.48356 13.3481 4.41162 13.4019L4.59799 13.2193C4.6602 13.1572 4.72817 13.1049 4.79421 13.0427L4.98058 12.8602C5.04458 12.7962 5.10679 12.7339 5.17476 12.6776ZM5.20386 13.0135C5.14551 13.1763 5.07676 13.3353 4.99803 13.4893C4.83496 13.8156 4.59035 14.2232 4.48347 14.4311L5.20386 13.0135Z" fill="#CFB66C"/>
<path fill-rule="evenodd" clip-rule="evenodd" d="M5.20382 13.0136C5.20382 13.0854 5.18436 13.1476 5.16106 13.2097C5.13836 13.2719 5.11247 13.3328 5.0835 13.3923C5.05431 13.4505 5.02129 13.5127 4.98826 13.569C4.95524 13.6253 4.91646 13.6835 4.88727 13.7418L4.69118 14.0874C4.62321 14.2026 4.55716 14.3185 4.48535 14.4292C4.53386 14.3049 4.59991 14.1884 4.66212 14.0739C4.73009 13.9587 4.79217 13.8435 4.85412 13.7243C4.88437 13.6649 4.91158 13.604 4.93566 13.5419C4.96471 13.4797 4.99377 13.4214 5.01719 13.3651C5.04625 13.303 5.06954 13.2447 5.09873 13.1885C5.13162 13.1282 5.15889 13.0699 5.20356 13.0136L5.20382 13.0136Z" fill="#CFB66C"/>
<path fill-rule="evenodd" clip-rule="evenodd" d="M5.89534 14.6058C5.89534 14.6058 5.70334 14.8602 5.72254 15.1825C5.77489 15.0136 5.84094 14.7553 5.89534 14.6058ZM6.07771 14.8608C6.07771 14.8608 6.00975 15.552 5.95343 15.8918C6.03304 15.499 6.04853 15.532 6.07771 14.8608ZM7.34944 15.9327C7.34944 15.9327 7.06208 16.7775 7.05619 17.0122C7.1184 16.7708 7.23872 16.2776 7.34944 15.932V15.9327Z" fill="#DEC270"/>
<path fill-rule="evenodd" clip-rule="evenodd" d="M8.02148 14.5536C8.02148 14.5536 8.48753 15.3225 8.8371 15.9788C8.74251 15.6485 8.52491 15.0428 8.02148 14.5536Z" fill="#CBAF59"/>
<path fill-rule="evenodd" clip-rule="evenodd" d="M9.27393 15.6855C9.52981 16.1378 9.76056 16.6039 9.96513 17.0816C9.92634 16.7515 9.82138 16.1865 9.27393 15.6855Z" fill="#E3C677"/>
<path fill-rule="evenodd" clip-rule="evenodd" d="M12.9557 16.8192C13.0333 16.7707 13.1868 16.5065 13.3208 16.4406C13.4547 16.3726 13.5557 16.359 13.6761 16.225C13.7964 16.0851 13.8297 15.9997 14.0935 15.8892C14.4625 15.7298 14.2087 15.524 14.2087 15.524C14.2494 15.484 14.2928 15.4471 14.3388 15.4134C14.434 15.3416 14.5446 15.2541 14.535 15.1007C14.5214 14.8425 14.4729 14.4677 14.2612 14.2502C14.467 14.2075 14.8611 14.1784 15.106 14.1164C15.3894 14.0444 15.5196 13.9434 15.5196 13.9434C15.5196 13.9434 15.3565 13.6658 15.6206 13.3862C15.8846 13.1067 16.1002 12.9396 16.2594 12.6269C16.0769 12.6036 15.7986 12.5066 15.0885 12.7764C15.1268 12.7945 15.1638 12.8152 15.1992 12.8385C15.1992 12.8385 14.7623 12.959 14.6031 13.093C14.3253 13.3279 14.2904 13.5201 13.9895 13.6639C13.6885 13.8076 13.3856 13.7687 13.1352 13.8852C12.8848 14.0017 12.8478 14.1007 12.7564 14.1435C12.7759 14.1668 12.7526 14.2056 12.7895 14.2386C12.7662 14.2716 12.6302 14.4929 12.4924 14.4929C12.5059 14.5454 12.6224 14.5842 12.6224 14.5842C12.6224 14.5842 12.537 14.6464 12.3196 14.6619C12.4302 14.7771 12.5351 14.9027 12.8244 15.0852C12.8011 15.1337 12.704 15.2056 12.7429 15.2969C12.7856 15.3882 12.8965 15.5124 13.339 15.6134C13.1137 15.623 12.8497 15.6755 12.4942 15.627C12.1388 15.5843 12.0806 15.559 11.8612 15.6134C11.8845 15.6367 11.9466 15.6367 12.001 15.6988C11.9427 15.7027 11.5777 15.6561 11.4534 15.8193C11.3233 15.9881 11.267 16.2659 11.2768 16.4522C11.2088 16.4852 11.1427 16.5435 11.1758 16.6639C11.2088 16.7844 11.3816 16.8232 11.4923 16.8988C11.6029 16.9804 11.6126 17.0094 11.7176 16.9901C11.8282 16.9668 11.9913 16.8562 12.0865 16.8562C12.1817 16.8562 12.2496 16.928 12.2496 16.928C12.2496 16.928 12.5079 16.8037 12.5331 16.827C12.5564 16.8503 12.5369 16.9998 12.5621 17.0231C12.5877 17.0406 12.8787 16.8678 12.9564 16.8192H12.9557Z" fill="#ECD592"/>
<path fill-rule="evenodd" clip-rule="evenodd" d="M18.6001 9.04857C17.3866 5.91462 14.3865 5.33401 14.3865 5.33401H5.82728L5.8603 8.52621H7.56488V15.6544H5.82715V18.8408H14.1496C16.1553 18.8408 17.7631 16.8252 17.7631 16.8252C20.3379 13.1709 18.6 9.04857 18.6 9.04857H18.6001ZM14.1942 14.6776C14.1942 14.6776 13.5414 15.6195 12.8311 15.6195H11.4103L11.3767 8.53402H13.2C13.2 8.53402 14.0448 8.71066 14.635 10.3825C14.635 10.3825 15.4175 12.7761 14.1942 14.6776Z" fill="white" fill-opacity="0.8"/>
</svg>
