<svg width="29" height="24" viewBox="0 0 29 24" fill="none" xmlns="http://www.w3.org/2000/svg">
<circle cx="17" cy="12" r="12" fill="#EDF0F4"/>
<path d="M17.0516 4C13.715 4.0134 11.0134 6.715 11 10.0516C11 10.7198 11.1079 11.3836 11.3191 12.0173C11.4768 12.4488 11.9446 12.6811 12.3837 12.5477C12.8081 12.385 13.0334 11.921 12.8981 11.487C12.7187 10.993 12.639 10.469 12.6626 9.9444C12.7353 7.53447 14.7476 5.63959 17.1576 5.71235C19.5675 5.78511 21.4624 7.79742 21.3896 10.2073C21.3213 12.4635 19.5445 14.2958 17.291 14.433C17.291 14.433 16.4415 14.4847 16.019 14.5364C15.8633 14.5587 15.7088 14.5894 15.5563 14.6283C15.5346 14.6507 15.4995 14.6507 15.4771 14.629L15.4765 14.6283C15.4612 14.6085 15.4612 14.5804 15.4765 14.5607L15.608 13.8433L16.4057 10.2552C16.5015 9.80718 16.2162 9.36617 15.7682 9.27044C15.3201 9.17471 14.8791 9.45999 14.7834 9.90802C14.7834 9.90802 12.8859 18.6906 12.8859 18.7704C12.7774 19.1973 13.0353 19.6313 13.4623 19.7398C13.4667 19.7411 13.4718 19.7424 13.4763 19.743H13.5203C13.9467 19.8534 14.3819 19.5969 14.4917 19.1705C14.4936 19.1635 14.4955 19.1565 14.4968 19.1488C14.4955 19.1354 14.4955 19.122 14.4968 19.1093C14.5204 19.0059 14.7598 17.8373 14.7598 17.8373C14.941 16.9553 15.652 16.2794 16.5417 16.1428C16.7249 16.1147 17.4945 16.063 17.4945 16.063C20.8184 15.7318 23.2443 12.7685 22.9124 9.44467C22.6099 6.41312 20.0985 4.07914 17.0516 4Z" fill="#1E1E1E"/>
<path d="M17.4185 17.9535C16.8728 17.8398 16.3393 18.1902 16.2257 18.7353C16.2244 18.7404 16.2237 18.7455 16.2225 18.7506C16.1044 19.2924 16.4478 19.8279 16.9902 19.946C16.9909 19.946 16.9915 19.946 16.9922 19.9466H17.0202C17.5512 20.0749 18.0854 19.7481 18.2131 19.2178C18.2144 19.2139 18.215 19.2095 18.2163 19.2056V19.1501C18.3101 18.6025 17.9603 18.0773 17.4185 17.9535Z" fill="#E6007A"/>
</svg>
