<svg width="24" height="24" viewBox="0 0 24 24" fill="none" xmlns="http://www.w3.org/2000/svg">
<circle cx="12" cy="12" r="12" fill="#EDF0F4"/>
<path d="M8.16064 4.49531L8.85908 3.65625L11.995 7.42969L15.1263 3.65625L15.8247 4.49531L9.55283 12.0469L11.995 14.9859L14.4372 12.0469L12.5856 9.82031L13.2841 8.98125L15.4778 11.625C15.4919 11.6438 15.506 11.6578 15.5153 11.6766L15.8247 12.0516L12.6888 15.825L15.8247 19.5984L15.1263 20.4375L8.16064 12.0516L8.28721 11.8969C8.29658 11.8828 8.30127 11.8734 8.31064 11.8594L11.2919 8.26875L8.16064 4.49531Z" fill="black"/>
<path d="M8.16553 19.5984L10.7858 16.4437L11.4843 17.2827L8.85928 20.4374L8.16553 19.5984Z" fill="black"/>
</svg>
