<svg width="24" height="24" viewBox="0 0 24 24" fill="none" xmlns="http://www.w3.org/2000/svg">
<circle cx="12" cy="12" r="12" fill="#EDF0F4"/>
<path d="M10.5986 8.69876C10.336 8.69029 10.0819 8.75805 9.85322 8.89357C9.48055 9.12225 9.03164 9.46951 8.62509 9.97771C7.55789 11.3159 7.56636 12.832 7.5833 13.2894C7.60024 13.6451 7.7527 15.5932 9.40432 16.9992C10.6917 18.0918 12.1147 18.2104 12.5805 18.2273C12.9193 18.2443 14.6895 18.2781 16.1802 16.9145C17.7302 15.5 17.8064 13.6367 17.8149 13.3148C17.8318 13.0438 17.8403 12.6881 17.7725 12.273C17.7132 11.9004 17.6116 11.587 17.5184 11.3414C17.2643 11.2058 16.9001 10.9856 16.5444 10.6214C16.1717 10.2403 15.9515 9.85066 15.8245 9.57962C15.799 9.46951 15.7567 9.31706 15.6551 9.15613C15.4857 8.8851 15.2654 8.74958 15.1469 8.69029C15.3671 8.65641 15.8499 8.62253 16.375 8.85969C16.6545 8.98673 16.8578 9.15613 16.9933 9.28318C17.0187 9.21542 17.0611 9.07143 17.0356 8.90204C17.0102 8.69876 16.9171 8.55477 16.8662 8.49548C17.0356 8.58018 17.6285 8.89357 17.925 9.59656C18.1198 10.0709 18.1028 10.4944 18.0774 10.6976C18.2807 11.011 18.5348 11.4769 18.7127 12.0782C18.8821 12.6372 18.9244 13.137 18.9244 13.5012C18.9414 13.9162 19.0006 16.1692 17.2728 17.9986C15.1977 20.1923 12.3264 19.879 12.0215 19.8366C12.1994 19.9382 12.4281 20.0399 12.6991 20.1161C13.3767 20.3024 13.9611 20.2008 14.2914 20.1161C13.5715 20.3194 12.2078 20.5819 10.6663 20.1076C7.11746 19.0066 6.11802 15.0427 6.05026 14.7801C6.10955 15.229 6.20272 15.7118 6.32976 16.22C6.52457 17.0416 6.77867 17.7615 7.03276 18.3798C6.62621 17.9394 6.08414 17.2364 5.65218 16.2623C5.14399 15.1189 5.02541 14.1025 5 13.4588C5.00847 12.7558 5.11858 11.5277 5.76229 10.1979C6.67703 8.30068 8.13384 7.31817 8.76908 6.93703C8.71826 6.93703 8.6505 6.92009 8.57427 6.88621C8.42182 6.81845 8.33712 6.70835 8.30324 6.65753C8.54039 6.62365 8.83684 6.55589 9.16716 6.42884C9.49749 6.30179 9.76005 6.14934 9.95486 6.02229C9.42973 5.81054 8.82837 5.53951 8.19313 5.16684C7.5833 4.8111 7.05817 4.43843 6.63468 4.09964L7.46472 4.54854L6.82949 3.998C7.37156 4.3622 8.05761 4.75181 8.87919 5.09061C9.44667 5.32776 9.98027 5.49716 10.4546 5.62421C10.192 5.48022 9.87863 5.27694 9.56524 4.99744C9.04011 4.54007 8.70132 4.04882 8.49804 3.68461C8.71826 3.87942 8.94695 4.06576 9.16716 4.26056L8.59121 3.59991C9.06552 4.06576 9.73464 4.62477 10.6155 5.10755C11.1152 5.37858 11.5895 5.58186 12.0046 5.73431C12.3688 5.7936 12.7245 5.85289 13.0887 5.91218C13.1988 5.92912 13.3936 5.97994 13.5799 6.1324C13.6562 6.19169 13.7155 6.25944 13.7578 6.31026C13.8086 6.37802 13.8764 6.45425 13.9526 6.53048C14.0797 6.65753 14.1982 6.75917 14.3168 6.83539L16.0277 6.80998C16.1378 6.80998 16.2141 6.91162 16.1887 7.01326C16.104 7.35205 15.9261 7.83484 15.4941 8.21598C15.3925 8.30915 15.2824 8.38538 15.1807 8.44466C15.2485 8.3515 15.3417 8.21598 15.401 8.02964C15.4433 7.89412 15.4687 7.77555 15.4772 7.68238C15.4094 7.75014 15.3332 7.82637 15.2231 7.89412C15.0622 8.00423 14.9012 8.06352 14.7911 8.0974C14.8504 8.02117 14.9097 7.91953 14.969 7.80943C15.0283 7.69932 15.0706 7.58921 15.1045 7.49604C14.9859 7.50451 14.8165 7.52145 14.6133 7.60615C14.3931 7.69085 14.2406 7.80943 14.1474 7.89412C14.1474 7.8179 14.1644 7.72473 14.1982 7.61462C14.2237 7.53839 14.2575 7.47063 14.2829 7.41981C14.2321 7.38593 14.1813 7.36052 14.122 7.32664C13.9103 7.23348 13.7155 7.23348 13.5884 7.24195C13.4614 7.24195 13.1226 7.26736 12.7923 7.50451C12.6737 7.58921 12.5805 7.68238 12.5043 7.77555C12.3434 7.97882 12.3518 8.27527 12.5297 8.47007V8.47854C12.6059 8.55477 12.6906 8.61406 12.7668 8.64794C13.0294 8.77499 13.3343 8.74958 13.5884 8.61406C13.5969 8.60559 13.6054 8.60559 13.6138 8.59712C13.7155 8.53783 13.7917 8.47007 13.8425 8.41078C13.851 8.47007 13.8595 8.58865 13.8171 8.73264C13.7832 8.85122 13.7239 8.93591 13.6816 8.97826C13.7832 8.9952 13.9018 9.00367 14.0373 9.00367C14.2745 8.9952 14.4608 8.93591 14.5879 8.8851C14.5032 9.07143 14.3168 9.43564 13.9187 9.74055C13.6138 9.97771 13.3089 10.0878 13.1226 10.1302C13.1903 10.0285 13.2666 9.88454 13.3174 9.6982C13.3343 9.64738 13.3428 9.59656 13.3513 9.55421C13.3767 9.42717 13.3259 9.30012 13.2242 9.21542C13.1056 9.11378 12.9786 9.10531 12.9362 9.09684H12.2332C11.9876 9.09684 11.7505 9.13072 11.5133 9.19848C11.3863 9.23236 11.2507 9.26624 11.1068 9.29165C10.751 9.35941 10.4292 9.39329 10.1581 9.40176C10.3529 9.36788 10.6917 9.28318 11.0136 9.02908C11.1322 8.93591 11.2253 8.83428 11.2931 8.74958L10.5986 8.69876Z" fill="#EFB13B"/>
</svg>
