<svg width="24" height="24" viewBox="0 0 24 24" fill="none" xmlns="http://www.w3.org/2000/svg">
<path d="M12 24C18.6276 24 24 18.6276 24 12C24 5.3724 18.6276 0 12 0C5.3724 0 0 5.3724 0 12C0 18.6276 5.3724 24 12 24Z" fill="#EDF0F4"/>
<path fill-rule="evenodd" clip-rule="evenodd" d="M8.52687 3.06877C8.2673 3.19074 8.01123 3.40734 7.863 3.63031C7.57166 4.06855 7.51445 4.35466 7.51445 5.37345C7.51445 5.9324 7.50433 6.13616 7.47281 6.2116C7.4499 6.26642 7.35199 6.37818 7.25516 6.45996C6.86887 6.78632 6.2813 7.38522 5.97706 7.76277C5.6054 8.22395 5.36224 8.60236 5.08541 9.15027C4.72435 9.86492 4.59718 10.2911 4.44677 11.2907C4.36953 11.8043 4.38207 12.0589 4.52725 12.9238C4.69159 13.9029 5.14767 14.96 5.8641 16.0226C6.42969 16.8615 7.12859 17.4502 8.17933 17.9729C8.86856 18.3157 10.0851 18.7083 11.0269 18.8918C11.5636 18.9963 11.7779 19.0081 11.8491 18.9369C11.8752 18.9107 11.8999 18.8869 11.9039 18.884C11.9079 18.881 11.9181 16.1227 11.9265 12.7543C11.9415 6.7858 11.9433 6.62847 11.9995 6.56649C12.105 6.44986 12.4222 6.49232 13.1438 6.71968C13.3062 6.77085 13.6258 6.90436 13.854 7.01643C14.9798 7.56915 15.7387 8.28999 16.3062 9.3458C16.5764 9.8486 16.8487 10.7177 16.9148 11.2885C16.9325 11.4406 16.9597 11.656 16.9754 11.7672C16.9911 11.8785 17.0037 12.2185 17.0033 12.5228C17.0028 12.955 16.99 13.1334 16.9447 13.3381C16.7637 14.1565 16.3857 14.8968 15.8684 15.4456C15.549 15.7843 15.379 15.8523 15.3093 15.669C15.2931 15.6263 15.2814 14.5865 15.2814 13.1874C15.2814 11.1616 15.2741 10.7408 15.2355 10.5374C15.1028 9.8373 14.9118 9.49265 14.3521 8.94325C14.0247 8.62191 13.9113 8.57123 13.8382 8.65932C13.8132 8.68945 13.8326 10.3206 13.8382 14.8158V20.9313V20.9756C13.9119 21.0169 14.0192 21.0125 14.2359 20.9096C14.5049 20.7818 14.7792 20.5376 14.8963 20.3216C15.0365 20.0629 15.0698 19.7945 15.0698 18.9222C15.0698 17.9993 15.0699 17.9989 15.3535 17.7833C15.6707 17.5421 16.2836 17.0052 16.5238 16.758C17.0542 16.2123 17.4422 15.6589 17.6253 15.1872C17.7607 14.8382 17.7999 14.7836 17.9145 14.7836C18.0226 14.7836 18.2629 14.9893 18.8293 15.5668C19.0603 15.8023 19.2745 16.0085 19.3053 16.025C19.369 16.0591 19.4648 16.0208 19.4917 15.9506C19.5009 15.9266 19.5249 15.7997 19.545 15.6685C19.5766 15.4618 19.5744 15.3983 19.5289 15.1934C19.3954 14.5936 19.2391 14.319 18.8096 13.9296C18.6585 13.7926 18.4726 13.6236 18.3966 13.5541L18.2583 13.4277L18.2582 12.3453C18.2582 11.1987 18.2426 11 18.1038 10.3712C18.0091 9.94277 17.8855 9.5491 17.7127 9.12615C17.5222 8.65966 17.4315 8.49123 17.1206 8.02588C16.6379 7.3035 15.9775 6.68317 15.181 6.20389C14.3632 5.71181 13.3833 5.37167 12.2139 5.17396C11.3798 5.03295 10.7477 5.00194 10.6575 5.09212C10.6075 5.14211 10.6717 5.48669 10.6575 11.2758C10.6428 17.2509 10.6409 17.4081 10.5848 17.4701C10.5012 17.5624 10.3335 17.5521 9.90252 17.4281C8.35975 16.984 7.07722 16.0263 6.36976 14.79C5.92412 14.0113 5.68872 13.1873 5.63834 12.2298C5.58264 11.1714 5.7074 10.5468 6.14319 9.70236C6.31431 9.37077 6.68017 8.82204 6.93028 8.52182C7.25304 8.13438 7.37091 8.0642 7.4674 8.20201C7.50901 8.26137 7.51445 8.53901 7.51445 10.5966C7.51445 12.571 7.5218 12.9746 7.56281 13.2569C7.65547 13.8951 7.91419 14.3925 8.4 14.8667C8.67009 15.1303 8.7791 15.1772 8.84314 15.0575C8.8639 15.0187 8.87463 14.2236 8.87502 12.6927C8.87536 11.4242 8.86 10.2979 8.87502 10.1899C8.89004 10.0818 8.86961 8.43859 8.87502 6.5382C8.88472 3.14686 8.94888 3.08218 8.89131 3.04006C8.80757 2.97886 8.70025 2.98729 8.52687 3.06877Z" fill="#F4657B"/>
</svg>
