<svg width="24" height="24" viewBox="0 0 24 24" fill="none" xmlns="http://www.w3.org/2000/svg">
<circle cx="12" cy="12" r="12" fill="#3C80F1"/>
<path d="M12.0001 3C7.91554 3.00298 4.60458 6.30919 4.6001 10.389C4.60383 10.7873 4.64863 11.1842 4.73301 11.5736C4.74174 11.611 4.76862 11.6416 4.80463 11.6551C4.84064 11.6686 4.88102 11.6632 4.91223 11.6407C5.19493 11.4385 5.53377 11.3295 5.88147 11.3289C5.91549 11.3301 5.94823 11.3159 5.97066 11.2903C5.99308 11.2647 6.00283 11.2304 5.99721 11.1969C5.94804 10.9331 5.92255 10.6655 5.92105 10.3972C5.92105 7.04354 8.6424 4.32487 11.9994 4.32487C15.3563 4.32487 18.0777 7.04354 18.0777 10.3972C18.0777 13.7467 13.7885 18.0249 12.2532 19.5355C12.1127 19.6733 11.8875 19.6733 11.747 19.5355C11.097 18.9018 10.4662 18.2488 9.85552 17.5773H9.82565C9.23829 17.5196 8.66165 17.3816 8.11192 17.167L8.01037 17.126C7.96191 17.1037 7.90445 17.1181 7.87229 17.1606C7.84013 17.2032 7.84197 17.2623 7.87671 17.3028C8.82724 18.4375 9.83592 19.5224 10.8987 20.553C11.5104 21.149 12.4861 21.149 13.0978 20.553C15.8009 17.8854 19.4001 13.9391 19.4001 10.389C19.3956 6.30844 16.0847 3.00298 12.0001 3" fill="white"/>
<path fill-rule="evenodd" clip-rule="evenodd" d="M16.2972 9.98983C16.3532 10.2527 16.3854 10.5201 16.3935 10.7888H16.395C16.3952 10.8068 16.3957 10.8256 16.3962 10.8445C16.3975 10.8943 16.3988 10.9449 16.395 10.985V11.1722C16.3906 11.299 16.3838 11.4191 16.3734 11.5519C16.3369 12.0816 16.2146 12.6019 16.0112 13.0924C15.7966 13.574 15.5096 14.0201 15.16 14.415L15.1517 14.4083C14.5181 15.1552 13.715 15.7401 12.8093 16.1144C11.9 16.5011 10.9087 16.656 9.9247 16.5649C9.42899 16.5162 8.94233 16.3997 8.4783 16.2188C8.01599 16.0377 7.58002 15.7956 7.18199 15.4989C6.41024 14.9115 5.77066 14.1686 5.30474 13.3184C5.15047 13.0348 5.22443 12.6812 5.47949 12.483C5.73456 12.2849 6.09575 12.3003 6.33297 12.5195C6.7329 12.8868 7.24167 13.1141 7.78236 13.167C7.93394 13.1812 8.08553 13.1692 8.23263 13.1319C8.33114 13.1095 8.42063 13.0581 8.4895 12.9842C8.51769 12.9502 8.54036 12.9119 8.55671 12.8708C8.57762 12.8156 8.5918 12.7589 8.59927 12.7007C8.61122 12.615 8.61719 12.5284 8.61719 12.4419V7.496C8.65503 6.94657 8.97328 6.45529 9.45949 6.19575C9.63348 6.10324 9.82314 6.04357 10.018 6.02119C10.0666 6.01074 10.1159 6.01074 10.1637 6.01074H11.6556C11.7303 6.0182 11.796 6.0182 11.8639 6.0182C12.4036 6.05946 12.9311 6.19955 13.4201 6.43148C14.377 6.88126 15.1773 7.60692 15.7178 8.51502C15.9904 8.97161 16.1862 9.46985 16.2972 9.98983ZM15.0585 11.4444C15.0683 11.343 15.0765 11.2408 15.0765 11.1363L15.0757 11.1371V10.8342C15.0705 10.6425 15.0481 10.4515 15.0085 10.2635C14.9689 10.0756 14.9137 9.88905 14.8442 9.71002C14.7718 9.52949 14.6852 9.35493 14.5866 9.18783C14.1815 8.50818 13.5828 7.96459 12.8669 7.62648C12.5234 7.46236 12.1523 7.36315 11.773 7.33331H10.1728C10.052 7.34935 9.95526 7.44117 9.93305 7.56083V7.5862C9.93271 7.59092 9.93271 7.59565 9.93305 7.60037V12.4418C9.93828 12.585 9.93455 12.729 9.91961 12.8708C9.89572 13.0408 9.85166 13.2065 9.7867 13.3653C9.64762 13.7133 9.39781 14.0058 9.07582 14.1979C8.92688 14.2868 8.76664 14.3553 8.59941 14.4015C8.41422 14.453 8.22381 14.4821 8.0319 14.4881C8.6261 14.9174 9.32356 15.1817 10.0533 15.2542C10.819 15.3217 11.5895 15.1981 12.2957 14.8946C13.0087 14.5936 13.6462 14.1386 14.1625 13.5623L14.155 13.5556C14.4156 13.2624 14.6307 12.9319 14.792 12.5739C14.9416 12.2143 15.0317 11.8329 15.0585 11.4444Z" fill="white"/>
</svg>
