<svg width="24" height="24" viewBox="0 0 24 24" fill="none" xmlns="http://www.w3.org/2000/svg">
<circle cx="12" cy="12" r="12" fill="#EDF0F4"/>
<path fill-rule="evenodd" clip-rule="evenodd" d="M8.40281 5.44355C8.37967 5.48089 8.49589 5.52065 8.70418 5.54669C9.50457 5.64669 10.5376 6.0415 11.3154 6.54465C11.8247 6.87407 12.5895 7.59528 12.9844 8.11844C13.3797 8.64213 13.8281 9.56855 14.0167 10.2517C14.2095 10.9493 14.2801 12.2398 14.1649 12.9587C13.7532 15.5282 11.806 17.6425 9.31746 18.2221C8.23801 18.4736 8.28618 18.452 8.68667 18.5056C9.15379 18.5681 10.1762 18.454 10.8336 18.266C13.0614 17.6291 14.7844 15.8792 15.3917 13.6368C15.5327 13.1163 15.6363 12.9591 15.6386 11.9669C15.6409 10.9485 15.5409 10.8318 15.3885 10.2813C14.7387 7.93399 12.9571 6.1963 10.5551 5.5671C10.0407 5.43236 8.46559 5.34195 8.40281 5.44355Z" fill="#372687"/>
</svg>
