<svg width="24" height="24" viewBox="0 0 24 24" fill="none" xmlns="http://www.w3.org/2000/svg">
<circle cx="12" cy="12" r="12" fill="#49158C"/>
<path d="M19.4006 9.40001L12.9006 19.5H10.6006L17.0006 9.40001H19.4006Z" fill="white"/>
<path d="M9.20029 4.40001L11.2003 19.5H8.90029L6.80029 4.40001H9.20029Z" fill="white"/>
<path d="M8.7002 4.40001H10.9552L19.4025 9.42815L19.1979 9.77187L10.8452 4.80001H8.7002V4.40001Z" fill="white"/>
<path d="M11.0984 4.5711L12.9984 17.5711L12.6026 17.6289L10.7026 4.62895L11.0984 4.5711Z" fill="white"/>
<path d="M8.90159 5.42736L15.3548 9.20002H18.9006V9.60002H15.2465L8.69971 5.77268L8.90159 5.42736Z" fill="white"/>
<path d="M15.132 9.29219L15.4689 9.50782L10.6689 17.0078L10.332 16.7922L15.132 9.29219Z" fill="white"/>
</svg>
