<svg width="24" height="24" viewBox="0 0 24 24" fill="none" xmlns="http://www.w3.org/2000/svg">
<circle cx="12" cy="12" r="12" fill="#49A0E5"/>
<path d="M7.81982 13.7636V7.75337H16.4023V13.7636L14.8742 16.0302L12.0219 17.2781L9.27147 16.0302L7.81982 13.7636Z" fill="#49A0E5"/>
<path fill-rule="evenodd" clip-rule="evenodd" d="M7.00859 9.8581C7.01775 12.8967 7.01534 12.8213 7.1232 13.4538C7.30944 14.5459 7.76357 15.3801 8.65972 16.2762C9.01853 16.635 9.29927 16.8673 9.67515 17.1161C10.3962 17.5935 11.1943 17.9088 11.9096 17.9989C12.091 18.0217 12.1416 18.0195 12.3832 17.9786C13.4604 17.796 14.5294 17.2261 15.4168 16.3614C15.8555 15.934 16.175 15.5402 16.4563 15.0802C16.8792 14.3885 17.0924 13.5919 17.1546 12.4713C17.1663 12.26 17.1761 10.9425 17.1763 9.54355L17.1767 7H12.0884H7L7.00859 9.8581ZM15.8534 10.2323C15.8534 11.2703 15.8485 12.1196 15.8425 12.1196C15.8365 12.1196 14.8812 11.4068 13.7196 10.5356L11.6076 8.95156L11.1292 8.95739L10.6508 8.96325L11.5517 9.63574C12.0472 10.0056 13.2056 10.8712 14.1259 11.5592L15.7992 12.8101L15.796 12.9692C15.792 13.1616 15.6997 13.6239 15.6222 13.8393C15.3701 14.5399 14.8533 15.2145 14.1353 15.7804C13.6282 16.1801 12.9347 16.4972 12.3407 16.6012C12.0658 16.6493 11.8512 16.6281 11.4535 16.5137C10.3763 16.2036 9.32888 15.3489 8.75387 14.3107C8.43064 13.727 8.28282 12.9188 8.28252 11.7331L8.28241 11.3574L8.35291 11.4073C8.39168 11.4348 9.60304 12.3384 11.0448 13.4155C12.4866 14.4925 13.6765 15.3737 13.689 15.3737C13.717 15.3737 13.9713 15.1666 14.0733 15.0608C14.1411 14.9905 14.1447 14.9807 14.1117 14.9561C14.0917 14.9412 12.7773 13.9576 11.1908 12.7704L8.30616 10.6119L8.29972 9.47846L8.29326 8.34499H12.0733H15.8534V10.2323Z" fill="#1A2D4E"/>
</svg>
