<svg width="24" height="24" viewBox="0 0 24 24" fill="none" xmlns="http://www.w3.org/2000/svg">
<circle cx="12" cy="12" r="12" fill="#1693D4"/>
<path fill-rule="evenodd" clip-rule="evenodd" d="M7.47295 12.4305C7.45349 12.1609 7.45223 11.8903 7.46917 11.6205H5.35645L3 9.747H7.90002C8.83611 7.47723 11.061 5.99621 13.5289 6.00001C16.8821 6.00001 19.6 8.6865 19.6 12C19.6 15.3135 16.8821 18 13.5289 18C11.0812 18.0036 8.87044 16.5465 7.92115 14.304H3L5.35645 12.4305H7.47295ZM16.9871 12.1118C16.9871 11.4893 16.9026 10.9463 16.7328 10.4828C16.563 10.0193 16.3276 9.6308 16.0273 9.3203C15.7263 9.00905 15.3701 8.7743 14.9574 8.6168C14.5446 8.4593 14.0972 8.3798 13.612 8.3798C13.0884 8.3798 12.6009 8.4683 12.1497 8.6453C11.6985 8.8223 11.3084 9.0713 10.9786 9.39155C10.6489 9.71255 10.3901 10.0996 10.2007 10.554C10.0113 11.0085 9.917 11.514 9.917 12.069C9.917 12.633 10.0113 13.1378 10.2007 13.5825C10.3893 14.0273 10.6512 14.403 10.9854 14.709C11.3205 15.0158 11.7158 15.252 12.1716 15.42C12.6521 15.5917 13.1595 15.6768 13.6701 15.6713C14.9793 15.6713 15.979 15.2115 16.6672 14.2928L15.5029 13.3748C15.309 13.6523 15.0623 13.8698 14.7612 14.0273C14.4609 14.1848 14.0919 14.2643 13.6558 14.2643C13.4038 14.2643 13.1608 14.2215 12.9284 14.1353C12.696 14.049 12.487 13.932 12.3021 13.7835C11.9269 13.4866 11.6946 13.0465 11.6623 12.5708H16.9728C16.9826 12.4943 16.9871 12.4178 16.9871 12.3413V12.1118ZM11.6621 11.3363H15.2409C15.242 11.1222 15.2102 10.9092 15.1466 10.7048C15.0832 10.5038 14.9843 10.3268 14.8485 10.1738C14.7127 10.0208 14.5399 9.89926 14.3316 9.80776C14.1234 9.71626 13.8782 9.67126 13.5975 9.67126C13.0731 9.67126 12.6301 9.82726 12.2657 10.1378C11.902 10.449 11.7013 10.8488 11.6621 11.3363Z" fill="white"/>
</svg>
