<svg width="24" height="24" viewBox="0 0 24 24" fill="none" xmlns="http://www.w3.org/2000/svg">
<circle cx="12" cy="12" r="12" fill="#AA15DD"/>
<path fill-rule="evenodd" clip-rule="evenodd" d="M11.666 4.53411C11.6642 4.71493 11.8128 4.86366 11.9996 4.86817C12.1385 4.87009 12.2645 4.78989 12.3177 4.66578C12.3719 4.5413 12.3444 4.3976 12.2477 4.30012C12.152 4.20332 12.0046 4.17343 11.8767 4.22489C11.75 4.27605 11.666 4.39869 11.666 4.53411ZM18.8272 8.60747C18.7491 8.65127 18.656 8.66295 18.5689 8.6399C18.4818 8.61686 18.4079 8.561 18.3637 8.48483C18.2941 8.36727 18.3032 8.22097 18.387 8.1124C18.4698 8.00462 18.6124 7.95686 18.7463 7.99202C18.8808 8.0288 18.9796 8.13975 18.9972 8.27386C19.0148 8.40798 18.9479 8.5393 18.8272 8.60747ZM5.1704 8.60748C5.00697 8.51293 4.95168 8.30933 5.04596 8.14928C5.11404 8.03218 5.24906 7.96707 5.38671 7.98498C5.52435 8.00289 5.63679 8.10019 5.67047 8.23054C5.70622 8.36119 5.65823 8.4999 5.54837 8.5834C5.43951 8.66592 5.2895 8.67548 5.1704 8.60748ZM11.9995 19.3319C12.1859 19.3329 12.3373 19.4825 12.3381 19.6659C12.3398 19.8485 12.1885 19.9979 11.9998 20C11.909 19.9992 11.8223 19.9636 11.7587 19.9009C11.6951 19.8383 11.6599 19.7537 11.6607 19.6659C11.6599 19.5781 11.6951 19.4936 11.7587 19.431C11.8223 19.3684 11.9089 19.3328 11.9995 19.3319ZM11.9995 19.3319L11.999 19.3319H11.9998L11.9995 19.3319ZM5.42878 15.5676C5.34167 15.5446 5.24865 15.5563 5.17051 15.6001C5.00775 15.694 4.95247 15.8966 5.04608 16.056C5.08999 16.1325 5.16392 16.1886 5.25116 16.2117C5.33839 16.2348 5.43156 16.2229 5.5096 16.1787C5.67236 16.0847 5.72765 15.8821 5.63403 15.7227C5.58982 15.6465 5.51589 15.5907 5.42878 15.5676ZM18.0659 15.5474C17.8955 15.8381 17.9687 16.2055 18.2385 16.4141L12.677 19.5741C12.6327 19.2448 12.3438 18.9977 12.0004 18.9956C11.6571 18.9977 11.3681 19.2448 11.3238 19.5741L5.76073 16.4141C6.02962 16.2052 6.1021 15.8383 5.93183 15.5482C5.7653 15.2589 5.40192 15.1353 5.08489 15.26V8.94002C5.40151 9.06441 5.76431 8.94118 5.93106 8.65261C6.1014 8.36313 6.02996 7.9969 5.76229 7.78738L11.3238 4.62739C11.3681 4.95676 11.6571 5.20386 12.0004 5.20597C12.344 5.20381 12.6331 4.95631 12.677 4.62664L18.2401 7.78662C17.9716 7.99552 17.8992 8.36185 18.069 8.65186C18.2355 8.94109 18.5989 9.06473 18.9159 8.94002V15.2562C18.5975 15.1314 18.2328 15.2564 18.0667 15.5474H18.0659ZM9.60027 13.8312C10.4543 14.9675 12.0604 15.2911 13.3123 14.5791H13.3116C13.9126 14.2378 14.3655 13.6973 14.5863 13.0578C14.9168 12.1053 16.403 12.6365 15.8477 13.8734C15.8477 13.8816 15.8426 13.8895 15.8379 13.8968L15.8359 13.8999C15.835 13.9014 15.834 13.9029 15.8332 13.9044C15.8328 13.9051 15.8325 13.9058 15.8322 13.9065L17.6614 14.9448C17.8153 15.0363 17.8662 15.2295 17.7765 15.3811C17.687 15.5331 17.4911 15.5865 17.3355 15.5008L15.518 14.4715C15.1541 15.0336 14.6568 15.5035 14.0675 15.8423C13.5451 16.144 12.9609 16.3314 12.3557 16.3916V18.3478C12.3566 18.4348 12.3216 18.5185 12.2586 18.5806C12.1956 18.6427 12.1097 18.678 12.0198 18.6788C11.8339 18.6788 11.683 18.5306 11.683 18.3478V16.4081C10.3278 16.3288 9.08645 15.6485 8.31936 14.5648L6.66514 15.5023C6.59024 15.5447 6.50084 15.5563 6.41703 15.5344C6.33323 15.5125 6.26205 15.4589 6.2195 15.3856C6.12874 15.2327 6.18132 15.0376 6.33771 14.947L7.98571 14.0103C7.87839 13.7914 7.7905 13.5641 7.72051 13.3309L7.56419 12.4702C7.504 11.6911 7.66254 10.9107 8.02304 10.2115L6.33771 9.25301C6.18241 9.16275 6.12965 8.96926 6.21872 8.81663C6.26083 8.7434 6.33168 8.68967 6.41524 8.66758C6.49881 8.64549 6.58805 8.65691 6.6628 8.69926L8.36135 9.66306C8.72248 9.17118 9.18744 8.75907 9.72548 8.45399C10.3216 8.11413 10.9942 7.91945 11.6853 7.8867V5.85226C11.6845 5.76513 11.7196 5.68126 11.7827 5.61916C11.8459 5.55705 11.932 5.52181 12.0221 5.52122C12.112 5.52201 12.198 5.55734 12.261 5.61942C12.324 5.68151 12.3589 5.76526 12.3581 5.85226V7.9055C13.6324 8.04801 14.7777 8.72471 15.4908 9.75635L17.3433 8.69926C17.4176 8.65508 17.5075 8.64255 17.5918 8.66463C17.676 8.6867 17.747 8.74143 17.7881 8.81588C17.8768 8.96937 17.8224 9.16499 17.6668 9.25301L15.147 10.687L15.1128 10.7028L14.5202 11.0414L13.2696 11.7517L9.60027 13.8312ZM18.8281 15.6001C18.9906 15.6946 19.0457 15.8971 18.9525 16.0568C18.9085 16.1331 18.8345 16.1891 18.7472 16.212C18.66 16.235 18.5669 16.2229 18.489 16.1787C18.3262 16.0847 18.2709 15.8821 18.3645 15.7227C18.4085 15.6462 18.4824 15.5901 18.5696 15.567C18.6569 15.5439 18.75 15.5559 18.8281 15.6001ZM10.4582 9.7142C9.23017 10.4124 9.07618 11.2874 9.10963 12.5416L13.6671 9.95196C12.7543 9.23079 11.4738 9.13592 10.4582 9.7142Z" fill="white"/>
</svg>
