<svg width="24" height="24" viewBox="0 0 24 24" fill="none" xmlns="http://www.w3.org/2000/svg">
<circle cx="12" cy="12" r="12" fill="#2B1544"/>
<path fill-rule="evenodd" clip-rule="evenodd" d="M18.7988 14.4669V9.47269C18.7988 9.17406 18.7288 8.87618 18.6073 8.60606C18.4151 8.17762 18.1192 7.7762 17.7161 7.53609C16.9083 7.05822 16.0996 6.58248 15.2908 6.10672L15.2907 6.10662L15.2906 6.10662C14.5858 5.69198 13.8809 5.27731 13.1765 4.86118C13.0044 4.75913 12.8091 4.70211 12.6176 4.64809C12.1873 4.56481 11.7431 4.59007 11.3248 4.72162C11.1482 4.78266 10.9872 4.87961 10.8264 4.97649C10.7618 5.01537 10.6973 5.05425 10.6318 5.09078C9.24275 5.90863 7.85301 6.72649 6.46326 7.54135C6.28139 7.65356 6.12027 7.79675 5.9871 7.96453C5.65848 8.36145 5.42747 8.85892 5.3999 9.38415V14.776C5.3999 15.1369 5.51987 15.4836 5.68381 15.7987C5.88426 16.1618 6.157 16.4995 6.52213 16.7043C7.31748 17.171 8.11304 17.6386 8.9087 18.1062L8.9106 18.1073C9.60971 18.5182 10.3089 18.9291 11.0081 19.3395C11.229 19.4642 11.472 19.5442 11.7234 19.5751C12.2048 19.6351 12.7175 19.5953 13.1512 19.362C13.685 19.0484 14.2183 18.7347 14.7516 18.421L14.752 18.4207L14.7524 18.4205L14.7534 18.4199L14.7543 18.4194C15.6388 17.8991 16.5231 17.3789 17.4091 16.8597C17.4487 16.8361 17.4887 16.813 17.5287 16.7899C17.6999 16.6912 17.8709 16.5925 18.0134 16.4545C18.3872 16.0988 18.6471 15.6391 18.7601 15.1339C18.8023 14.9493 18.8008 14.7587 18.7994 14.57C18.7991 14.5355 18.7988 14.5011 18.7988 14.4669ZM10.9469 8.93546C11.3625 8.53681 11.734 8.09404 12.055 7.61489C12.1029 7.6312 12.1415 7.66758 12.1608 7.71468C12.4306 8.2204 12.8099 8.65709 13.2048 9.06602C13.4612 9.31813 13.6504 9.64827 13.7145 10.0084C13.7987 10.4091 13.5647 10.8525 13.1884 10.9974C12.912 11.1047 12.5923 11.0851 12.3277 10.9546C12.3177 10.9511 12.3063 10.9459 12.2942 10.9405C12.2461 10.9187 12.1876 10.8923 12.1638 10.9486C12.2091 11.2632 12.3582 11.5426 12.504 11.816L12.5483 11.8993C12.5797 11.9511 12.5386 11.9907 12.5021 12.0259C12.4926 12.0349 12.4835 12.0437 12.476 12.0523C12.4112 12.1128 12.3503 12.1779 12.2892 12.2431L12.2892 12.2431C12.1958 12.3428 12.1023 12.4426 11.9947 12.5265C11.9543 12.5136 11.9241 12.4815 11.8951 12.4508L11.8951 12.4508L11.8951 12.4507C11.8855 12.4406 11.8761 12.4306 11.8665 12.4215C11.7954 12.3461 11.7224 12.2719 11.6491 12.1976C11.565 12.1122 11.4806 12.0265 11.3985 11.9383L11.3911 11.8872C11.4254 11.8252 11.4616 11.7634 11.4979 11.7014C11.6412 11.4567 11.7867 11.2083 11.8307 10.9246C11.7758 10.9165 11.7197 10.9243 11.669 10.9471C11.3873 11.0581 11.0669 11.0836 10.7837 10.9696C10.5051 10.8616 10.2904 10.5944 10.2569 10.2913C10.2286 10.0662 10.2957 9.84261 10.3955 9.64602C10.52 9.36765 10.7294 9.1433 10.9469 8.93546ZM9.34782 12.4995C8.90071 12.7441 8.6019 13.2235 8.52813 13.733C8.42604 14.4481 8.8411 15.1954 9.48418 15.488C9.89105 15.6643 10.3635 15.6606 10.7733 15.4993C10.985 15.4137 11.166 15.2742 11.3218 15.1098C11.3341 15.0967 11.3476 15.0838 11.3612 15.0708L11.3612 15.0707C11.4128 15.0215 11.4663 14.9703 11.4663 14.8937C11.4608 14.8222 11.4122 14.7745 11.3646 14.7277C11.3478 14.7112 11.3311 14.6949 11.3166 14.6777C11.2895 14.6534 11.2644 14.6265 11.2394 14.5996L11.2394 14.5996C11.1969 14.554 11.1544 14.5084 11.1019 14.4758C10.9992 14.4304 10.9279 14.5066 10.8613 14.5777C10.841 14.5995 10.8211 14.6207 10.8009 14.6379C10.4618 14.9845 9.85155 14.9875 9.5043 14.6491C9.27707 14.4339 9.17142 14.1187 9.22263 13.8088C9.26436 13.5214 9.43426 13.249 9.68761 13.1125C9.85155 13.0299 10.0356 12.9849 10.2167 12.9932C10.4723 13.0097 10.7063 13.1462 10.8791 13.3338C11.19 13.6453 11.4947 13.9628 11.7994 14.2803L11.7994 14.2803C12.0731 14.5655 12.3469 14.8507 12.6251 15.1316C12.9366 15.4415 13.368 15.6403 13.8077 15.6231C14.143 15.6306 14.4657 15.4955 14.7384 15.3049C15.14 15.0236 15.3845 14.5351 15.409 14.0414C15.4627 13.2595 14.9001 12.4709 14.1422 12.3201C13.6586 12.2211 13.1124 12.3231 12.7398 12.6698C12.5941 12.8034 12.4555 12.946 12.3167 13.0889C12.2029 13.206 12.089 13.3233 11.9708 13.4359C11.8287 13.318 11.7022 13.1837 11.5757 13.0495C11.4616 12.9284 11.3474 12.8072 11.2219 12.6983C11.109 12.5904 10.9777 12.5037 10.8344 12.4424L10.8204 12.4332C10.8031 12.4217 10.7917 12.4141 10.7629 12.4027C10.3029 12.2058 9.77719 12.2418 9.34782 12.4995ZM13.8389 13.0045C13.5669 12.982 13.2942 13.0953 13.1012 13.2888C12.998 13.3969 12.8936 13.5027 12.7893 13.6085C12.685 13.7143 12.5807 13.8201 12.4775 13.9281C12.4791 13.9358 12.4807 13.9483 12.4823 13.9609C12.4836 13.9718 12.485 13.9827 12.4864 13.9904C12.5912 14.0889 12.6905 14.193 12.7897 14.2972C12.9249 14.439 13.0601 14.5808 13.2092 14.7085C13.5572 15.0071 14.1116 14.9673 14.435 14.6514C14.7495 14.3423 14.821 13.8028 14.5766 13.4277C14.4201 13.1718 14.134 13.0127 13.8389 13.0045Z" fill="white"/>
</svg>
