<svg width="24" height="24" viewBox="0 0 24 24" fill="none" xmlns="http://www.w3.org/2000/svg">
<circle cx="12" cy="12" r="12" fill="#EDF0F4"/>
<path fill-rule="evenodd" clip-rule="evenodd" d="M16.8072 7.17496C16.7446 7.11246 16.707 7.04996 16.707 6.96246C16.707 6.87496 16.7446 6.81246 16.8072 6.74996C16.9324 6.63746 17.1327 6.63746 17.2704 6.74996C17.333 6.81246 17.3706 6.87496 17.3706 6.96246C17.3706 7.04996 17.333 7.11246 17.2704 7.17496C17.2078 7.22496 17.1202 7.26245 17.0451 7.26245C16.9574 7.27495 16.8698 7.24996 16.8072 7.17496Z" fill="#0D022B"/>
<path fill-rule="evenodd" clip-rule="evenodd" d="M16.006 8.03744C15.956 7.97494 15.9185 7.91245 15.9185 7.82495C15.9185 7.73745 15.956 7.67495 16.006 7.61245C16.1185 7.49995 16.3185 7.49995 16.4309 7.61245C16.4809 7.67495 16.5184 7.73745 16.5184 7.82495C16.5184 7.91245 16.4809 7.97494 16.4309 8.03744C16.3685 8.08744 16.306 8.12494 16.2185 8.12494C16.131 8.12494 16.0685 8.08744 16.006 8.03744Z" fill="#0D022B"/>
<path fill-rule="evenodd" clip-rule="evenodd" d="M15.1295 8.86246C15.0795 8.81246 15.042 8.73746 15.042 8.64996C15.042 8.56246 15.0795 8.49996 15.1295 8.43746C15.242 8.32496 15.442 8.32496 15.5545 8.43746C15.6045 8.48746 15.642 8.56246 15.642 8.64996C15.642 8.73746 15.6045 8.79996 15.5545 8.86246C15.492 8.92496 15.4295 8.94995 15.342 8.94995C15.2545 8.94995 15.1795 8.91246 15.1295 8.86246Z" fill="#0D022B"/>
<path fill-rule="evenodd" clip-rule="evenodd" d="M14.2911 9.69998C14.2285 9.64998 14.1909 9.57498 14.1909 9.48748C14.1909 9.39998 14.2285 9.33749 14.2911 9.27499C14.4163 9.16249 14.6166 9.16249 14.7543 9.27499C14.8169 9.32499 14.8544 9.39998 14.8544 9.48748C14.8544 9.57498 14.8169 9.64998 14.7543 9.69998C14.6917 9.76248 14.6041 9.78748 14.5289 9.78748C14.4413 9.78748 14.3662 9.77498 14.2911 9.69998Z" fill="#0D022B"/>
<path fill-rule="evenodd" clip-rule="evenodd" d="M13.4894 10.5374C13.4269 10.4874 13.4019 10.4124 13.4019 10.3249C13.4019 10.2374 13.4394 10.1749 13.4894 10.1124C13.6019 9.99989 13.8018 9.99989 13.9143 10.1124C13.9768 10.1624 14.0018 10.2374 14.0018 10.3249C14.0018 10.4124 13.9643 10.4874 13.9143 10.5374C13.8643 10.5999 13.7893 10.6249 13.7019 10.6249C13.6269 10.6374 13.5394 10.6124 13.4894 10.5374Z" fill="#0D022B"/>
<path fill-rule="evenodd" clip-rule="evenodd" d="M12.5254 11.1623C12.5254 11.0749 12.5629 11.0124 12.6129 10.9499C12.7254 10.8374 12.9254 10.8374 13.0379 10.9499C13.1004 11.0124 13.1254 11.0749 13.1254 11.1623C13.1254 11.2498 13.0879 11.3123 13.0379 11.3748C12.9879 11.4248 12.9129 11.4623 12.8254 11.4623C12.7379 11.4623 12.6754 11.4248 12.6129 11.3748C12.5504 11.3248 12.5254 11.2498 12.5254 11.1623Z" fill="#0D022B"/>
<path fill-rule="evenodd" clip-rule="evenodd" d="M10.9601 13.0124C10.9101 12.9624 10.8726 12.8874 10.8726 12.7999C10.8726 12.7124 10.9101 12.6499 10.9601 12.5874C11.0726 12.4749 11.2726 12.4749 11.3851 12.5874C11.4476 12.6499 11.4726 12.7124 11.4726 12.7999C11.4726 12.8874 11.4351 12.9499 11.3851 13.0124C11.3351 13.0749 11.2601 13.0999 11.1726 13.0999C11.0976 13.1124 11.0226 13.0874 10.9601 13.0124Z" fill="#0D022B"/>
<path fill-rule="evenodd" clip-rule="evenodd" d="M10.0972 13.8499C10.0346 13.7999 9.99707 13.7249 9.99707 13.6374C9.99707 13.5499 10.0346 13.4874 10.0972 13.4249C10.2224 13.3124 10.4227 13.3124 10.5604 13.4249C10.623 13.4874 10.6606 13.5499 10.6606 13.6374C10.6606 13.7249 10.623 13.7874 10.5604 13.8499C10.4978 13.9124 10.4102 13.9374 10.3351 13.9374C10.2349 13.9499 10.1598 13.9124 10.0972 13.8499Z" fill="#0D022B"/>
<path fill-rule="evenodd" clip-rule="evenodd" d="M9.2833 14.6999C9.2333 14.6499 9.1958 14.5749 9.1958 14.4874C9.1958 14.3999 9.2333 14.3249 9.2833 14.2749C9.3958 14.1624 9.5958 14.1624 9.70829 14.2749C9.75829 14.3249 9.79579 14.3999 9.79579 14.4874C9.79579 14.5749 9.75829 14.6374 9.70829 14.6999C9.64579 14.7624 9.5833 14.7874 9.4958 14.7874C9.4083 14.7874 9.3583 14.7499 9.2833 14.6999Z" fill="#0D022B"/>
<path fill-rule="evenodd" clip-rule="evenodd" d="M8.44394 15.5374C8.38144 15.4874 8.35645 15.4124 8.35645 15.3249C8.35645 15.2374 8.39394 15.1749 8.44394 15.1124C8.55644 14.9999 8.75644 14.9999 8.86894 15.1124C8.91894 15.1749 8.95644 15.2374 8.95644 15.3249C8.95644 15.4124 8.91894 15.4874 8.86894 15.5374C8.80644 15.5999 8.74394 15.6249 8.65644 15.6249C8.58144 15.6249 8.49394 15.5999 8.44394 15.5374Z" fill="#0D022B"/>
<path fill-rule="evenodd" clip-rule="evenodd" d="M7.58047 16.3748C7.51797 16.3248 7.48047 16.2498 7.48047 16.1623C7.48047 16.0749 7.51797 16.0124 7.58047 15.9499C7.70547 15.8374 7.90546 15.8374 8.01796 15.9499C8.08046 16.0124 8.11796 16.0749 8.11796 16.1623C8.11796 16.2498 8.08046 16.3248 8.01796 16.3748C7.95546 16.4248 7.86796 16.4623 7.79296 16.4623C7.70547 16.4623 7.63047 16.4373 7.58047 16.3748Z" fill="#0D022B"/>
<path fill-rule="evenodd" clip-rule="evenodd" d="M6.75351 17.2123C6.69102 17.1498 6.66602 17.0873 6.66602 16.9998C6.66602 16.9123 6.70352 16.8498 6.75351 16.7873C6.86601 16.6748 7.06601 16.6748 7.17851 16.7873C7.24101 16.8498 7.26601 16.9123 7.26601 16.9998C7.26601 17.0873 7.22851 17.1498 7.17851 17.2123C7.12851 17.2623 7.05351 17.2998 6.96601 17.2998C6.90351 17.3123 6.82851 17.2748 6.75351 17.2123Z" fill="#0D022B"/>
<path fill-rule="evenodd" clip-rule="evenodd" d="M7.17851 7.17496C7.22851 7.11246 7.26601 7.04996 7.26601 6.96246C7.26601 6.87496 7.22851 6.81246 7.17851 6.74996C7.06601 6.63746 6.86601 6.63746 6.75351 6.74996C6.69102 6.81246 6.66602 6.87496 6.66602 6.96246C6.66602 7.04996 6.70352 7.11246 6.75351 7.17496C6.80351 7.22496 6.87851 7.26245 6.96601 7.26245C7.05351 7.27495 7.12851 7.24996 7.17851 7.17496Z" fill="#0D022B"/>
<path fill-rule="evenodd" clip-rule="evenodd" d="M8.01844 8.03744C8.08104 7.97494 8.1186 7.91245 8.1186 7.82495C8.1186 7.73745 8.08104 7.67495 8.01844 7.61245C7.89325 7.49995 7.69294 7.49995 7.55523 7.61245C7.49264 7.67495 7.45508 7.73745 7.45508 7.82495C7.45508 7.91245 7.49264 7.97494 7.55523 8.03744C7.61783 8.08744 7.70546 8.12494 7.78058 8.12494C7.86821 8.11244 7.95585 8.08744 8.01844 8.03744Z" fill="#0D022B"/>
<path fill-rule="evenodd" clip-rule="evenodd" d="M8.86894 8.86246C8.91894 8.81246 8.95644 8.73746 8.95644 8.64996C8.95644 8.56246 8.91894 8.49996 8.86894 8.43746C8.75644 8.32496 8.55644 8.32496 8.44394 8.43746C8.39394 8.48746 8.35645 8.56246 8.35645 8.64996C8.35645 8.73746 8.39394 8.79996 8.44394 8.86246C8.50644 8.92496 8.56894 8.94995 8.65644 8.94995C8.73144 8.94995 8.80644 8.91246 8.86894 8.86246Z" fill="#0D022B"/>
<path fill-rule="evenodd" clip-rule="evenodd" d="M9.70829 9.69998C9.75829 9.64998 9.79579 9.57498 9.79579 9.48748C9.79579 9.39998 9.75829 9.33749 9.70829 9.27499C9.5958 9.16249 9.3958 9.16249 9.2833 9.27499C9.2333 9.32499 9.1958 9.39998 9.1958 9.48748C9.1958 9.57498 9.2333 9.64998 9.2833 9.69998C9.3458 9.76248 9.4083 9.78748 9.4958 9.78748C9.5708 9.78748 9.64579 9.77498 9.70829 9.69998Z" fill="#0D022B"/>
<path fill-rule="evenodd" clip-rule="evenodd" d="M10.5346 10.5374C10.5971 10.4874 10.6346 10.4124 10.6346 10.3249C10.6346 10.2374 10.5971 10.1749 10.5346 10.1124C10.4221 9.99989 10.2096 9.99989 10.0971 10.1124C10.0346 10.1624 9.99707 10.2374 9.99707 10.3249C9.99707 10.4124 10.0346 10.4874 10.0971 10.5374C10.1596 10.5999 10.2471 10.6249 10.3221 10.6249C10.3971 10.6374 10.4846 10.6124 10.5346 10.5374Z" fill="#0D022B"/>
<path fill-rule="evenodd" clip-rule="evenodd" d="M11.4726 11.1623C11.4726 11.0749 11.4351 11.0124 11.3851 10.9499C11.2726 10.8374 11.0726 10.8374 10.9601 10.9499C10.8976 11.0124 10.8726 11.0749 10.8726 11.1623C10.8726 11.2498 10.9101 11.3123 10.9601 11.3748C11.0101 11.4248 11.0851 11.4623 11.1726 11.4623C11.2601 11.4623 11.3226 11.4248 11.3851 11.3748C11.4476 11.3248 11.4726 11.2498 11.4726 11.1623Z" fill="#0D022B"/>
<path fill-rule="evenodd" clip-rule="evenodd" d="M12.2244 12.2249C12.2869 12.1624 12.3119 12.0999 12.3119 12.0124C12.3119 11.9249 12.2744 11.8624 12.2244 11.7999C12.1119 11.6874 11.9119 11.6874 11.7994 11.7999C11.7369 11.8624 11.7119 11.9249 11.7119 12.0124C11.7119 12.0999 11.7494 12.1624 11.7994 12.2249C11.8494 12.2749 11.9244 12.3124 12.0119 12.3124C12.0994 12.3124 12.1744 12.2749 12.2244 12.2249Z" fill="#0D022B"/>
<path fill-rule="evenodd" clip-rule="evenodd" d="M13.0629 13.0124C13.1254 12.9624 13.1629 12.8874 13.1629 12.7999C13.1629 12.7124 13.1254 12.6499 13.0629 12.5874C12.9379 12.4749 12.7379 12.4749 12.6254 12.5874C12.5629 12.6499 12.5254 12.7124 12.5254 12.7999C12.5254 12.8874 12.5629 12.9499 12.6254 13.0124C12.6879 13.0749 12.7754 13.0999 12.8504 13.0999C12.9129 13.1124 13.0004 13.0874 13.0629 13.0124Z" fill="#0D022B"/>
<path fill-rule="evenodd" clip-rule="evenodd" d="M13.9143 13.8499C13.9643 13.7999 14.0018 13.7249 14.0018 13.6374C14.0018 13.5499 13.9643 13.4874 13.9143 13.4249C13.8018 13.3124 13.6019 13.3124 13.4894 13.4249C13.4394 13.4874 13.4019 13.5499 13.4019 13.6374C13.4019 13.7249 13.4394 13.7874 13.4894 13.8499C13.5519 13.9124 13.6144 13.9374 13.7019 13.9374C13.7644 13.9499 13.8518 13.9124 13.9143 13.8499Z" fill="#0D022B"/>
<path fill-rule="evenodd" clip-rule="evenodd" d="M14.7532 14.6999C14.8032 14.6499 14.8407 14.5749 14.8407 14.4874C14.8407 14.3999 14.8032 14.3249 14.7532 14.2749C14.6407 14.1624 14.4407 14.1624 14.3282 14.2749C14.2782 14.3249 14.2407 14.3999 14.2407 14.4874C14.2407 14.5749 14.2782 14.6374 14.3282 14.6999C14.3907 14.7624 14.4532 14.7874 14.5407 14.7874C14.6282 14.7874 14.6907 14.7499 14.7532 14.6999Z" fill="#0D022B"/>
<path fill-rule="evenodd" clip-rule="evenodd" d="M15.5418 15.5374C15.6043 15.4874 15.6293 15.4124 15.6293 15.3249C15.6293 15.2374 15.5918 15.1749 15.5418 15.1124C15.4293 14.9999 15.2293 14.9999 15.1168 15.1124C15.0668 15.1749 15.0293 15.2374 15.0293 15.3249C15.0293 15.4124 15.0668 15.4874 15.1168 15.5374C15.1793 15.5999 15.2418 15.6249 15.3293 15.6249C15.4043 15.6249 15.4918 15.5999 15.5418 15.5374Z" fill="#0D022B"/>
<path fill-rule="evenodd" clip-rule="evenodd" d="M16.4309 16.3748C16.4934 16.3248 16.5184 16.2498 16.5184 16.1623C16.5184 16.0749 16.4809 16.0124 16.4309 15.9499C16.3185 15.8374 16.1185 15.8374 16.006 15.9499C15.9435 16.0124 15.9185 16.0749 15.9185 16.1623C15.9185 16.2498 15.956 16.3248 16.006 16.3748C16.056 16.4248 16.131 16.4623 16.2185 16.4623C16.306 16.4623 16.381 16.4373 16.4309 16.3748Z" fill="#0D022B"/>
<path fill-rule="evenodd" clip-rule="evenodd" d="M17.2694 17.2123C17.3319 17.1498 17.3694 17.0873 17.3694 16.9998C17.3694 16.9123 17.3319 16.8498 17.2694 16.7873C17.1444 16.6748 16.9444 16.6748 16.8319 16.7873C16.7694 16.8498 16.7319 16.9123 16.7319 16.9998C16.7319 17.0873 16.7694 17.1498 16.8319 17.2123C16.8944 17.2623 16.9819 17.2998 17.0569 17.2998C17.1194 17.3123 17.1944 17.2748 17.2694 17.2123Z" fill="#0D022B"/>
<path fill-rule="evenodd" clip-rule="evenodd" d="M9.17062 7.41245C10.0219 6.84996 10.9609 6.58746 12 6.57496C13.014 6.57496 13.953 6.84996 14.8293 7.41245L16.6321 5.61248C15.2174 4.53749 13.6901 4 12 4C10.3099 4 8.75749 4.53749 7.38037 5.61248L9.17062 7.41245Z" fill="#0D022B"/>
<path fill-rule="evenodd" clip-rule="evenodd" d="M7.36768 14.7998C6.7918 13.9249 6.51637 12.9999 6.51637 11.9999C6.51637 10.9874 6.7918 10.0499 7.36768 9.19992L5.57743 7.41245C4.52581 8.78743 4 10.3124 4 12.0124C4 13.6874 4.52581 15.2248 5.58995 16.6248L7.36768 14.7998Z" fill="#0D022B"/>
<path fill-rule="evenodd" clip-rule="evenodd" d="M14.8171 16.5873C13.9658 17.1623 13.0269 17.4623 12.0128 17.4748C10.9737 17.4748 10.0222 17.1998 9.17094 16.5998L7.36816 18.3873C8.7578 19.4748 10.3102 20.0123 12.0128 19.9998C13.7029 19.9873 15.2303 19.4373 16.6074 18.3873L14.8171 16.5873Z" fill="#0D022B"/>
<path fill-rule="evenodd" clip-rule="evenodd" d="M16.582 9.17489C17.1579 10.0499 17.4584 10.9999 17.4333 12.0248C17.4208 13.0248 17.1329 13.9373 16.582 14.7748L18.3848 16.5623C19.4489 15.1873 19.9998 13.6623 19.9998 11.9873C20.0123 10.2874 19.474 8.73739 18.3848 7.34991L16.582 9.17489Z" fill="#0D022B"/>
<path fill-rule="evenodd" clip-rule="evenodd" d="M18.4593 17.1498C19.1478 17.1498 19.7237 17.7123 19.7237 18.4123C19.7237 19.0998 19.1603 19.6748 18.4593 19.6748C17.7707 19.6748 17.1948 19.1123 17.1948 18.4123C17.1948 17.7123 17.7582 17.1498 18.4593 17.1498Z" fill="#0D022B"/>
<path fill-rule="evenodd" clip-rule="evenodd" d="M5.56443 17.1498C6.25299 17.1498 6.81635 17.7123 6.81635 18.4123C6.81635 19.0998 6.25299 19.6748 5.56443 19.6748C4.87587 19.6748 4.3125 19.1123 4.3125 18.4123C4.3125 17.7123 4.87587 17.1498 5.56443 17.1498Z" fill="#0D022B"/>
<path fill-rule="evenodd" clip-rule="evenodd" d="M18.4848 4.27496C19.1734 4.27496 19.7368 4.83746 19.7368 5.53745C19.7368 6.23744 19.1734 6.79993 18.4848 6.79993C17.7963 6.79993 17.2329 6.23744 17.2329 5.53745C17.2329 4.83746 17.7963 4.27496 18.4848 4.27496Z" fill="#0D022B"/>
<path fill-rule="evenodd" clip-rule="evenodd" d="M5.53935 4.27499C6.22791 4.27499 6.80379 4.83749 6.80379 5.52498C6.80379 6.21247 6.24043 6.77496 5.53935 6.77496C4.85079 6.77496 4.2749 6.21247 4.2749 5.52498C4.2749 4.83749 4.83827 4.27499 5.53935 4.27499Z" fill="#0D022B"/>
</svg>
