<svg width="24" height="24" viewBox="0 0 24 24" fill="none" xmlns="http://www.w3.org/2000/svg">
<circle cx="12" cy="12" r="12" fill="#030000"/>
<path fill-rule="evenodd" clip-rule="evenodd" d="M21.064 19.8644C18.9579 21.6931 16.2082 22.8 13.2001 22.8C6.57265 22.8 1.20007 17.4274 1.20007 10.8C1.20007 7.79157 2.30714 5.0417 4.13612 2.93558C1.60225 5.13574 0 8.38076 0 12C0 18.6274 5.37258 24 12 24C15.619 24 18.8638 22.398 21.064 19.8644Z" fill="#53710C"/>
<path d="M16.0066 18.2C15.6141 18.2 15.2543 18.155 15.1234 18.1325C15.1452 17.9301 15.1954 17.4781 15.2216 17.2892C15.2543 17.053 15.2216 16.6482 15.0253 16.3783C14.8683 16.1624 14.6764 15.6361 14.6001 15.4L15.3851 15.5349C15.6991 15.5889 16.0393 15.6024 16.1701 15.6024C16.1484 15.8948 16.1178 16.5537 16.1701 16.8506C16.2356 17.2217 16.5627 17.3904 16.5954 17.6602C16.6281 17.9301 16.4972 18.2 16.0066 18.2Z" fill="#96BD3F"/>
<path d="M11.2939 5.8L11.3997 5.87587C11.3072 5.99381 11.1264 6.16735 11.0077 6.21275L10.9828 6.22269L10.9633 6.23086L10.9033 6.25727L10.8421 6.28518L10.4645 6.46135L10.3872 6.49681L10.3252 6.52481L10.2665 6.55097L10.2108 6.57531L10.158 6.59787L10.1081 6.6187L10.0607 6.63783C10.0531 6.64088 10.0455 6.64386 10.038 6.64678L10.016 6.65531C9.86038 6.71482 9.65372 6.80779 9.46623 6.89846L9.38131 6.94C9.35363 6.95371 9.32666 6.96724 9.30065 6.98044L9.2624 7L9.19971 6.88867C9.28869 6.84285 9.39107 6.79241 9.49596 6.74289L9.58622 6.7008C9.70672 6.64534 9.82645 6.59316 9.92916 6.55257L9.98828 6.52963L10.0331 6.51182L10.0805 6.49231L10.1308 6.47107L10.2116 6.43591L10.2694 6.4102L10.3807 6.35956L10.7857 6.17081L10.8626 6.13588L10.9111 6.11466L10.9412 6.10219L10.9586 6.09535C11.0066 6.07698 11.0771 6.02333 11.1553 5.94821L11.1795 5.92456L11.2033 5.90041L11.2262 5.87655L11.2473 5.85379L11.2661 5.83292L11.2819 5.81472C11.2842 5.81196 11.2864 5.80934 11.2884 5.80688L11.2939 5.8Z" fill="#96BD3F"/>
<path d="M9.6001 6.91663C9.60558 6.91459 9.61162 6.91256 9.61816 6.91057C9.67927 6.89068 9.79065 6.85996 9.86132 6.85996C9.95928 6.85996 10.3185 6.74661 10.6123 6.83162C10.8474 6.89963 11.1021 7.10554 11.2001 7.2C11.1457 7.2 10.965 7.19434 10.6776 7.17167C10.3185 7.14333 10.1552 7.11499 9.99193 6.97331C9.87071 6.8681 9.70262 6.88495 9.61816 6.91057C9.61151 6.91274 9.60545 6.91477 9.6001 6.91663Z" fill="#96BD3F"/>
<path d="M11.2205 6.52181C11.1421 6.35489 10.7742 6.31317 10.6001 6.31318C10.6219 6.29 10.7046 6.23668 10.8613 6.20887C11.0572 6.17409 11.4164 6.24364 11.645 6.38273C11.8279 6.494 12.0912 6.66091 12.2001 6.73046C12.1892 6.75364 12.1087 6.8 11.8736 6.8C11.5797 6.8 11.3185 6.73046 11.2205 6.52181Z" fill="#96BD3F"/>
<path d="M9.54872 6.54922C9.39185 6.65469 9.26636 6.58437 9.20361 6.44375C9.19316 6.36171 9.19734 6.15547 9.29773 5.98672C9.39813 5.81797 9.67421 5.65859 9.79971 5.6C9.76833 5.69375 9.70559 5.93047 9.70559 6.12734C9.70559 6.37344 9.70559 6.44375 9.54872 6.54922Z" fill="#96BD3F"/>
<path d="M10.6949 5.90965C10.5121 6.1161 10.2886 6.18924 10.1997 6.2C10.2124 6.02795 10.2683 5.64514 10.3902 5.49031C10.5121 5.33548 10.8473 5.23225 10.9997 5.2C10.9743 5.35053 10.8778 5.70321 10.6949 5.90965Z" fill="#96BD3F"/>
<path d="M11.7691 5.80977C11.6214 6.01124 11.4614 6.01364 11.3999 5.98966C11.3999 5.9297 11.4061 5.78099 11.4307 5.66587C11.4614 5.52196 11.5537 5.27011 11.7384 5.09022C11.8861 4.94631 12.1076 5.00627 12.1999 5.05424C12.1691 5.07823 12.0953 5.14778 12.0461 5.23413C11.9845 5.34206 11.9537 5.55793 11.7691 5.80977Z" fill="#96BD3F"/>
<path d="M12.5189 6.37889C12.1816 6.31749 12.0324 6.14861 12 6.07184C12.0865 5.96951 12.3308 5.77251 12.6162 5.80321C12.9016 5.83392 13.1243 6.1486 13.2 6.30211C13.1135 6.35328 12.8562 6.44029 12.5189 6.37889Z" fill="#96BD3F"/>
<path d="M10.2617 6L10.4 6.04933L10.1383 6.6L10 6.55067L10.2617 6Z" fill="#96BD3F"/>
<path d="M11.2057 6L11.9997 6.08006L11.9937 6.4L11.1997 6.31994L11.2057 6Z" fill="#96BD3F"/>
<path d="M9.46142 6.4L9.59971 6.44933L9.33799 7L9.19971 6.95067L9.46142 6.4Z" fill="#96BD3F"/>
<path d="M8.13657 11.8228C7.93892 11.9678 7.64245 12.0765 6.8848 11.9316C6.27869 11.8156 5.77578 11.5451 5.6001 11.4243C5.73186 11.4605 6.04151 11.5475 6.22598 11.6055C6.45657 11.6779 6.95069 11.6417 7.21421 11.6055C7.47774 11.5692 7.97186 11.2432 8.13657 11.2069C8.30127 11.1707 8.4001 11.2794 8.4001 11.4605C8.4001 11.6417 8.33421 11.6779 8.13657 11.8228Z" fill="#96BD3F"/>
<path d="M6.83436 11.3985C6.4394 11.4207 5.84695 11.1864 5.6001 11.0665C5.69414 11.085 5.93864 11.1274 6.16433 11.1495C6.44645 11.1772 6.94016 11.1772 7.08121 11.1495C7.22227 11.1219 7.50439 10.9559 7.68071 11.0112C7.85704 11.0665 7.82177 11.2049 7.68071 11.2602C7.53965 11.3155 7.32807 11.3709 6.83436 11.3985Z" fill="#96BD3F"/>
<path fill-rule="evenodd" clip-rule="evenodd" d="M9.91164 11.9933C9.99095 12.2528 10.2945 13.0314 10.6342 13.1287C11.0421 13.2455 11.4411 13.3471 12.2229 13.2117C12.9181 13.0913 13.0757 12.8906 13.2216 12.7049L13.2216 12.7048C13.2398 12.6817 13.2577 12.6588 13.2766 12.6364C13.3827 12.5094 13.489 12.3164 13.5952 12.1234C13.6589 12.0076 13.7226 11.8918 13.7864 11.7903C13.9563 11.5195 14.1011 11.2335 14.169 10.7935C14.237 10.3536 14.1263 9.75964 13.7864 9.55659C13.4465 9.35354 13.0726 9.42123 12.9367 9.45507C12.918 9.45971 12.9 9.46563 12.8818 9.4716C12.7676 9.50913 12.6474 9.54862 12.3249 9.28585C11.951 8.98125 11.1013 8.43976 10.2175 8.60898C9.35788 8.77359 8.85202 9.19443 8.63739 9.37299L8.62007 9.38739C8.41613 9.55661 7.83832 9.92888 7.39646 9.75967C6.95461 9.59045 6.47876 9.11664 6.61472 8.5413C6.75068 7.96597 7.12455 7.76291 7.70236 7.79675C7.81033 7.80307 7.91592 7.81176 8.01804 7.82016C8.4624 7.85671 8.84082 7.88785 9.06192 7.69521C9.33383 7.45831 9.36782 7.25525 9.36782 7.08603C9.36782 6.91681 9.29984 6.7476 9.02793 6.81528C8.89059 6.84947 8.81394 6.95274 8.74107 7.05093C8.66965 7.14714 8.60186 7.23848 8.48411 7.25524C8.32867 7.27734 8.01366 7.27057 7.67175 7.26321C7.49031 7.2593 7.30131 7.25524 7.12455 7.25524C6.61472 7.25524 6.0709 7.66136 5.765 8.16901C5.4591 8.67666 5.25517 9.45506 5.52708 9.86118C5.70362 10.1249 5.96613 10.36 6.16577 10.5388C6.27361 10.6354 6.36311 10.7156 6.41079 10.7749C6.51955 10.9103 6.59206 11.057 6.61472 11.1134C6.72802 11.1359 7.00899 11.1608 7.22652 11.0795C7.28966 11.056 7.34913 11.0306 7.40494 11.0067L7.40496 11.0067L7.40496 11.0067C7.58949 10.9279 7.73394 10.8662 7.83832 10.9442C7.97428 11.0457 7.97428 11.1811 7.9063 11.2488C7.88061 11.2743 7.90347 11.2612 7.94919 11.2351C8.02444 11.192 8.16162 11.1134 8.24619 11.1134C8.38214 11.1134 8.5181 11.2149 8.55209 11.3164C8.55392 11.3219 8.55585 11.3276 8.55783 11.3334C8.5928 11.4361 8.64675 11.5945 8.5181 11.7226C8.40934 11.8309 8.33683 11.858 8.31417 11.858C8.4388 11.9256 8.80361 12.0475 9.26585 11.9933C9.7281 11.9392 10.2289 11.6774 10.4215 11.5533C10.3648 11.6323 10.2243 11.797 10.1156 11.8241C10.0068 11.8512 9.93431 11.9482 9.91164 11.9933ZM13.6495 19.0564C13.675 19.0476 13.6979 19.0395 13.7183 19.0328C13.8814 18.9786 13.9448 18.9199 13.9562 18.8974C13.8316 18.401 13.6095 17.3 13.7183 16.8668C13.827 16.4336 14.1261 15.4904 14.2621 15.0731C14.534 15.2197 15.1934 15.5198 15.6556 15.5469C16.1179 15.574 16.7093 15.5581 16.9472 15.5469C17.0265 15.7273 17.2463 16.1425 17.491 16.3591C17.7969 16.6299 18.0688 17.3744 17.9329 17.7129C17.7969 18.0513 17.695 18.8297 17.7629 18.9651C17.8309 19.1004 18.4427 19.1004 18.8166 19.0328C19.1905 18.9651 19.4284 18.7282 19.4624 18.559C19.4964 18.3897 19.4284 17.7467 19.1225 17.2052C18.8166 16.6637 18.8166 15.8853 18.8506 15.31C18.8778 14.8497 18.9525 13.8547 18.9865 13.4148C19.2471 13.5952 19.8906 13.9766 20.3801 14.0578C20.9497 14.1523 21.1658 13.9241 21.2477 13.8376L21.2479 13.8374C21.2507 13.8344 21.2533 13.8316 21.2558 13.8291C21.2586 13.8261 21.2613 13.8233 21.2638 13.8209C21.3182 13.7667 21.3771 13.6629 21.3997 13.6178H20.8219C20.7521 13.6178 20.6766 13.6634 20.5954 13.7126C20.4787 13.7831 20.3503 13.8607 20.2101 13.8209C19.9722 13.7532 19.1905 13.4486 18.9865 12.9071C18.9197 12.7297 18.8894 12.5159 18.8561 12.2814V12.2813C18.7878 11.7999 18.707 11.2306 18.2728 10.7073C17.627 9.92886 16.8112 9.59043 15.8596 9.55658C15.0982 9.52951 14.4094 9.70324 14.1601 9.79349C14.2621 10.1206 14.3728 10.6243 14.2708 10.9966C14.1884 11.2976 13.9222 11.8918 13.6843 12.2302C13.6549 12.272 13.6242 12.3171 13.592 12.3645H13.5919L13.5918 12.3646C13.3629 12.7008 13.0607 13.1446 12.6734 13.2302C12.0616 13.3656 11.6789 13.3809 11.339 13.3471C11.0671 13.32 10.8179 13.3358 10.7272 13.3471C10.8519 13.584 11.0739 14.1255 10.9651 14.3962C10.8292 14.7346 10.5573 15.2085 10.1834 15.3777C9.80953 15.5469 10.1154 16.6637 10.4893 17.0698C10.5303 17.1143 10.5708 17.1597 10.6112 17.2047C10.9389 17.5709 11.2515 17.9201 11.6449 17.679C12.0355 17.4397 12.0543 17.2267 12.0769 16.9701C12.0798 16.9364 12.0828 16.902 12.0868 16.8668C12.114 16.6231 12.0981 16.3365 12.0868 16.2238C11.9735 16.2125 11.7129 16.1899 11.5769 16.1899H11.339C11.3957 16.0319 11.5633 15.6755 11.7809 15.513C11.9984 15.3506 12.37 15.152 12.5286 15.0731C12.5286 15.5356 12.515 16.5554 12.4607 16.9345C12.4063 17.3135 12.1661 18.401 12.0528 18.8974L12.5966 19.1343C12.9945 19.2867 13.4199 19.1371 13.6495 19.0564ZM9.81848 10.5905C9.96865 10.5905 10.0904 10.4996 10.0904 10.3874C10.0904 10.2753 9.96865 10.1843 9.81848 10.1843C9.66831 10.1843 9.54657 10.2753 9.54657 10.3874C9.54657 10.4996 9.66831 10.5905 9.81848 10.5905Z" fill="#96BD3F"/>
<path fill-rule="evenodd" clip-rule="evenodd" d="M21.0641 19.8644C18.958 21.6931 16.2084 22.8 13.2002 22.8C6.57278 22.8 1.2002 17.4274 1.2002 10.8C1.2002 7.79157 2.30726 5.04172 4.13622 2.9356C6.24228 1.10689 8.99194 0 12.0001 0C18.6275 0 24.0001 5.37258 24.0001 12C24.0001 15.0084 22.8931 17.7583 21.0641 19.8644ZM23.6001 12.1C23.6001 17.7885 18.9887 22.4 13.3001 22.4C7.6116 22.4 3.00013 17.7885 3.00013 12.1C3.00013 6.41146 7.6116 1.8 13.3001 1.8C18.9887 1.8 23.6001 6.41146 23.6001 12.1Z" fill="#8AC014"/>
<path fill-rule="evenodd" clip-rule="evenodd" d="M24 12C24 13.62 23.679 15.165 23.0971 16.5749C22.5567 17.3918 21.903 18.1273 21.1584 18.7588C22.6814 16.9632 23.6 14.6389 23.6 12.1C23.6 6.41147 18.9885 1.8 13.3 1.8C10.7613 1.8 8.4371 2.71846 6.6416 4.24121C8.53094 2.01371 11.3504 0.599998 14.5 0.599998C15.0524 0.599998 15.5945 0.643471 16.1233 0.727182C20.7195 2.40884 24 6.82133 24 12Z" fill="#53710C"/>
</svg>
