<svg width="24" height="24" viewBox="0 0 24 24" fill="none" xmlns="http://www.w3.org/2000/svg">
<circle cx="12" cy="12" r="12" fill="#EDF0F4"/>
<ellipse cx="12.0292" cy="12.0175" rx="8.83637" ry="8.22273" fill="white"/>
<path fill-rule="evenodd" clip-rule="evenodd" d="M3 12C3 7.02662 7.02662 3 12 3C16.9734 3 21 7.02662 21 12C21 16.9734 16.9734 21 12 21C7.02662 21 3 16.9734 3 12ZM4.54875 12.1227C4.54875 16.3364 7.96758 19.7552 12.1812 19.7552C16.3948 19.7552 19.8137 16.3364 19.8137 12.1227C19.8137 7.90908 16.3948 4.49025 12.1812 4.49025C7.96758 4.49025 4.54875 7.90908 4.54875 12.1227Z" fill="#F6BE1D"/>
<ellipse cx="12.1871" cy="12.1286" rx="7.17662" ry="7.17662" fill="#F6BE1D"/>
<path fill-rule="evenodd" clip-rule="evenodd" d="M7.44162 13.5545C7.26629 14.0221 6.9098 15.0097 7.12019 16.2838C7.25461 17.0961 7.56435 17.7097 7.80396 18.0779C7.76889 17.5753 7.69292 15.5474 9.14811 13.7416C10.2001 12.4383 11.5092 11.9299 12.0702 11.7487C12.2163 11.6961 12.8708 11.4799 13.0228 11.4331C13.8275 11.1674 14.0997 11.0792 14.1996 11.0468C14.2536 11.0293 14.2574 11.0281 14.2676 11.024C14.7702 10.8487 15.9156 10.4455 16.7806 9.43441C17.1971 8.94937 17.402 8.49219 17.6236 7.99759L17.6236 7.99758L17.6397 7.96168C18.002 7.13181 18.1656 6.38961 18.2416 5.87532C17.6923 6.55909 17.1546 7.07337 16.7338 7.43571C16.3247 7.78636 15.8923 8.15454 15.2436 8.51688C14.7696 8.78275 14.3928 8.92287 13.7006 9.18032L13.6773 9.18896C13.0929 9.40519 12.5845 9.56883 12.1871 9.68571C12.0819 9.71493 11.9708 9.74415 11.8656 9.76753C11.328 9.88441 10.5098 10.1416 9.67409 10.7201C9.12474 11.1 8.02603 11.9942 7.44162 13.5545ZM13.9288 13.5954C13.3736 13.5662 12.7307 13.5662 12.0294 13.6364C11.0125 13.7357 10.1359 13.9402 9.43461 14.1623C9.46383 14.0688 9.51643 13.9402 9.59824 13.7883C9.91967 13.2039 10.4164 12.8825 11.0593 12.5552C11.6437 12.2513 12.4619 11.8831 13.5021 11.5617C14.0281 11.4097 14.4547 11.2519 14.7703 11.1234C15.2145 10.948 15.5067 10.8312 15.8632 10.6091C16.2489 10.3753 16.5353 10.1299 16.7223 9.94869C16.7164 10.311 16.6638 10.8604 16.4301 11.4857L16.4255 11.4977C16.251 11.9574 16.0336 12.53 15.4658 12.9935C14.8989 13.4552 14.2677 13.5662 13.9288 13.5954ZM9.44624 15.565C9.65663 15.5299 9.91377 15.5065 10.9365 15.6117C11.2053 15.6409 11.4566 15.6701 11.6787 15.6994C12.3566 15.787 13.0462 15.6643 13.6423 15.3195C13.8586 15.1968 14.0748 15.039 14.2794 14.8286C14.6534 14.4546 14.8521 14.0572 14.9631 13.7766C14.6242 13.8351 14.2384 13.8877 13.8118 13.9052C13.5547 13.9169 13.3092 13.9169 13.0813 13.9052C12.1462 13.8702 11.3982 14.0104 10.9014 14.139L10.8914 14.1416C10.0577 14.3573 9.05854 14.6158 8.56377 15.4714C8.44689 15.676 8.3826 15.8688 8.34754 15.9974C8.78585 15.7286 9.17156 15.6117 9.44624 15.565ZM8.80254 17.1219C8.73961 17.1271 8.66926 17.1328 8.5989 17.1429C8.3476 17.1779 8.14305 17.2539 7.9911 17.3182C8.09045 16.9967 8.24825 16.7922 8.37097 16.6636C8.88526 16.126 9.76773 15.9799 10.6677 16.2312C10.6963 16.2383 10.7249 16.246 10.7537 16.2538C10.819 16.2713 10.8851 16.2891 10.9541 16.3013C11.2814 16.3656 11.556 16.3773 11.7664 16.3714C12.0645 16.3656 12.3508 16.3597 12.6898 16.2253C12.9294 16.1318 13.1106 16.0091 13.2275 15.9156C13.1632 16.1026 12.8944 16.8039 12.1463 17.213C11.9593 17.3123 11.7781 17.3766 11.6086 17.4175C11.3515 17.476 11.0885 17.4935 10.8255 17.4643C10.6619 17.4467 10.4924 17.4234 10.3171 17.3941C10.0249 17.3416 9.75604 17.2773 9.51059 17.2071C9.28851 17.1429 9.06059 17.1136 8.83266 17.1195C8.82284 17.1203 8.81279 17.1211 8.80254 17.1219Z" fill="#FDFFFA"/>
</svg>
