<svg width="24" height="24" viewBox="0 0 24 24" fill="none" xmlns="http://www.w3.org/2000/svg">
<circle cx="12" cy="12" r="12" fill="#EDF0F4"/>
<path d="M4 11.9782H11.0148L6.60098 7.60382L4 11.9782Z" fill="url(#paint0_linear_300_15524)"/>
<path d="M12.0394 5.19995V9.18025L8.05908 5.19995H12.0394Z" fill="url(#paint1_linear_300_15524)"/>
<path d="M11.0148 11.9783L6.64039 16.3921L4 11.9783H11.0148Z" fill="url(#paint2_linear_300_15524)"/>
<path d="M12.0396 9.18025L16.0041 5.19995H12.0396L12.0396 9.18025Z" fill="url(#paint3_linear_300_15524)"/>
<path d="M20.0001 11.9782L17.3597 7.60382L12.9854 11.9782H20.0001Z" fill="url(#paint4_linear_300_15524)"/>
<path d="M17.4386 16.3921L12.9854 11.9783H20.0001L17.4386 16.3921Z" fill="url(#paint5_linear_300_15524)"/>
<path d="M12.0394 14.7762V18.8354H8.05908L12.0394 14.7762Z" fill="url(#paint6_linear_300_15524)"/>
<path d="M16.0041 18.8354H12.0396V14.7762L16.0041 18.8354Z" fill="url(#paint7_linear_300_15524)"/>
<defs>
<linearGradient id="paint0_linear_300_15524" x1="10.383" y1="11.2667" x2="10.4034" y2="7.69339" gradientUnits="userSpaceOnUse">
<stop stop-color="#43C465"/>
<stop offset="1" stop-color="#14A53C"/>
</linearGradient>
<linearGradient id="paint1_linear_300_15524" x1="11.9049" y1="5.34187" x2="8.22677" y2="5.18424" gradientUnits="userSpaceOnUse">
<stop stop-color="#33C2F7"/>
<stop offset="1" stop-color="#0F95B2"/>
</linearGradient>
<linearGradient id="paint2_linear_300_15524" x1="10.9439" y1="16.3698" x2="10.9231" y2="12.1135" gradientUnits="userSpaceOnUse">
<stop stop-color="#43C465"/>
<stop offset="1" stop-color="#14A53C"/>
</linearGradient>
<linearGradient id="paint3_linear_300_15524" x1="12.5573" y1="8.79104" x2="15.7626" y2="8.73891" gradientUnits="userSpaceOnUse">
<stop stop-color="#03B7F9"/>
<stop offset="1" stop-color="#0F95B2"/>
</linearGradient>
<linearGradient id="paint4_linear_300_15524" x1="19.3827" y1="11.3554" x2="19.3418" y2="7.72903" gradientUnits="userSpaceOnUse">
<stop stop-color="#43C465"/>
<stop offset="1" stop-color="#14A53C"/>
</linearGradient>
<linearGradient id="paint5_linear_300_15524" x1="20.0554" y1="16.6034" x2="20.0346" y2="12.1894" gradientUnits="userSpaceOnUse">
<stop stop-color="#43C465"/>
<stop offset="1" stop-color="#14A53C"/>
</linearGradient>
<linearGradient id="paint6_linear_300_15524" x1="11.8603" y1="14.7997" x2="7.91927" y2="14.9008" gradientUnits="userSpaceOnUse">
<stop stop-color="#FFF58E"/>
<stop offset="1" stop-color="#FFCA20"/>
</linearGradient>
<linearGradient id="paint7_linear_300_15524" x1="12.2856" y1="18.3561" x2="15.281" y2="18.5065" gradientUnits="userSpaceOnUse">
<stop stop-color="#FEDA5A"/>
<stop offset="1" stop-color="#FFCA20"/>
</linearGradient>
</defs>
</svg>
