<svg width="24" height="24" viewBox="0 0 24 24" fill="none" xmlns="http://www.w3.org/2000/svg">
<circle cx="12" cy="12" r="12" fill="#EDF0F4"/>
<path d="M12.0034 12.1561L15.2049 10.3077L12.0034 8.4483V12.1561Z" fill="#2A3D58"/>
<path d="M12.0028 12.1561L8.80127 10.3077L12.0028 8.4483V12.1561Z" fill="#0F2631"/>
<path d="M15.2049 6.60004L12.0034 8.44842L15.2049 10.3078V6.60004Z" fill="#0F2631"/>
<path d="M15.2046 6.60004L18.4062 8.44842L15.2046 10.3078V6.60004Z" fill="#2A3D58"/>
<path d="M8.80153 6.60004L5.6001 8.44842L8.80153 10.3078V6.60004Z" fill="#0F2631"/>
<path d="M8.80127 6.60004L12.0028 8.44842L8.80127 10.3078V6.60004Z" fill="#2A3D58"/>
<path d="M12.0034 17.2543L15.2049 15.406L12.0034 13.5467V17.2543Z" fill="#2A3D58"/>
<path d="M12.0028 17.2543L8.80127 15.406L12.0028 13.5467V17.2543Z" fill="#0F2631"/>
<path d="M15.2049 11.6982L12.0034 13.5466L15.2049 15.4059V11.6982Z" fill="#0F2631"/>
<path d="M15.2046 11.6982L18.4062 13.5466L15.2046 15.4059V11.6982Z" fill="#2A3D58"/>
<path d="M8.80153 11.6982L5.6001 13.5466L8.80153 15.4059V11.6982Z" fill="#0F2631"/>
<path d="M8.80127 11.6982L12.0028 13.5466L8.80127 15.4059V11.6982Z" fill="#2A3D58"/>
</svg>
