<svg width="24" height="24" viewBox="0 0 24 24" fill="none" xmlns="http://www.w3.org/2000/svg">
<circle cx="12" cy="12" r="12" fill="#EDF0F4"/>
<ellipse cx="15.4861" cy="12.0817" rx="2.5139" ry="2.5139" fill="#2B5EBA"/>
<ellipse cx="12.3093" cy="7.41218" rx="1.21217" ry="1.21217" fill="#2B5EBA"/>
<ellipse cx="12.3093" cy="16.7571" rx="1.21217" ry="1.21217" fill="#2B5EBA"/>
<path fill-rule="evenodd" clip-rule="evenodd" d="M11.4615 11.401C11.4077 11.3472 11.36 11.2816 11.3241 11.2159C11.3241 11.2159 10.733 9.97385 8.70872 10.774C8.60123 10.8277 8.49375 10.8755 8.38627 10.9113H8.3803C7.74734 11.1144 7.03676 10.9651 6.53518 10.4635C5.81863 9.75291 5.8246 8.59449 6.53518 7.88391C7.24576 7.17333 8.39821 7.17333 9.11476 7.88988C9.35361 8.12873 9.51484 8.42132 9.59246 8.73182C9.59246 8.73182 10.0821 10.6187 11.7182 10.1649C11.7541 10.147 11.7959 10.1351 11.8317 10.1291H11.8377C12.0765 10.0754 12.3392 10.141 12.5303 10.3321C12.8289 10.6247 12.8289 11.1024 12.5303 11.401C12.2377 11.6995 11.76 11.6995 11.4615 11.401ZM11.9808 13.9328C11.9032 13.9328 11.8256 13.9208 11.7539 13.8969C11.7539 13.8969 10.4581 13.4431 9.58634 15.4435C9.55051 15.5569 9.50871 15.6644 9.45497 15.7659V15.7719C9.15641 16.3571 8.54137 16.7572 7.83676 16.7572C6.82761 16.7572 6.00955 15.9391 6.00955 14.93C6.00955 13.9208 6.82761 13.1028 7.83676 13.1028C8.18309 13.1028 8.49957 13.1983 8.77425 13.3595C8.77425 13.3595 10.4522 14.3448 11.2881 12.8699C11.3001 12.8341 11.318 12.7982 11.3419 12.7684V12.7624C11.4792 12.5534 11.7121 12.4161 11.9808 12.4161C12.3988 12.4161 12.7392 12.7564 12.7392 13.1744C12.7392 13.5924 12.3988 13.9328 11.9808 13.9328Z" fill="#2B5EBA"/>
</svg>
