<svg width="24" height="24" viewBox="0 0 24 24" fill="none" xmlns="http://www.w3.org/2000/svg">
<circle cx="12" cy="12" r="12" fill="#396A28"/>
<path fill-rule="evenodd" clip-rule="evenodd" d="M13.664 9.9963L12.0999 8.43288L10.5251 10.0069L8.89229 8.37403L12.0999 3.79997L15.3293 8.33102L13.664 9.9963ZM9.97953 10.5532L8.43271 12.1L9.99613 13.6641L8.36933 15.2909L3.7998 12.1L8.31953 8.89315L9.97953 10.5532ZM15.7667 12.1L14.1927 13.6747L15.8392 15.3211L20.3996 12.1L15.889 8.86297L14.2093 10.5426L15.7667 12.1ZM10.5425 14.2105L12.0999 15.7671L13.6467 14.2203L15.2931 15.8674L12.0999 20.4L8.92779 15.8244L10.5425 14.2105ZM14.7194 12.1L12.0996 9.47944L9.47985 12.1L12.0996 14.7198L14.7194 12.1Z" fill="white"/>
</svg>
