<svg width="24" height="24" viewBox="0 0 24 24" fill="none" xmlns="http://www.w3.org/2000/svg">
<circle cx="12" cy="12" r="12" fill="#EDF0F4"/>
<path fill-rule="evenodd" clip-rule="evenodd" d="M8.01584 9.58402L9.52784 6.60002H13.0398L11.5278 9.58402H8.01584ZM7.52007 10.552L6.00807 13.536H9.52807L11.0401 10.552H7.52007ZM5.512 14.512L4 17.496H7.52L9.032 14.512H5.512Z" fill="#0175B0"/>
<path fill-rule="evenodd" clip-rule="evenodd" d="M11.5198 9.57602L13.0318 6.60002H16.5518L15.0398 9.57602H11.5198ZM11.024 10.552L9.51197 13.536H13.032L14.544 10.552H11.024ZM9.02391 14.504L7.50391 17.496H11.0239L12.5359 14.504H9.02391Z" fill="#00A2D0"/>
<path fill-rule="evenodd" clip-rule="evenodd" d="M14.968 9.57602L16.48 6.60002H20L18.488 9.57602H14.968ZM14.48 10.552L12.968 13.536H16.488L17.992 10.552H14.48ZM12.472 14.504L10.96 17.496H14.472L15.992 14.504H12.472Z" fill="#00CCFF"/>
</svg>
