<svg width="24" height="24" viewBox="0 0 24 24" fill="none" xmlns="http://www.w3.org/2000/svg">
<circle cx="12" cy="12" r="12" fill="#EDF0F4"/>
<path d="M12.1061 9.02805L14.6655 10.5717L12.1061 12.0349L9.43115 10.5717L12.1061 9.02805Z" fill="#EA259E"/>
<path d="M9.43115 10.627L12.1061 12.0852L12.091 15.0619L9.43115 13.654V10.627Z" fill="#014C99"/>
<path d="M12.1064 12.0852L14.6959 10.627L14.7714 13.654L12.1416 15.1172L12.1064 12.0852Z" fill="#08B0F9"/>
<path fill-rule="evenodd" clip-rule="evenodd" d="M17.4261 8.84202L17.3859 8.81688L14.8316 7.35369L12.1566 5.8201L12.1214 5.79999L12.0913 5.81507C12.041 5.83302 11.9923 5.85487 11.9454 5.88044L9.61238 7.24307L6.72622 8.93252C6.61009 8.98575 6.61038 9.10418 6.61056 9.18024L6.61058 9.18896V9.24427L6.60555 13.5283L6.60052 15.1171C6.59549 15.2127 6.63572 15.2982 6.70611 15.3283L10.0247 17.2139L11.9857 18.3301C12.0259 18.3553 12.0711 18.3704 12.1114 18.3704C12.1458 18.3719 12.1796 18.3612 12.2069 18.3402L15.0428 16.706L17.4563 15.3183C17.5468 15.278 17.6021 15.1875 17.587 15.1021L17.5971 9.08337C17.6122 8.94258 17.4965 8.87722 17.4261 8.84202ZM12.1013 9.22414L14.4394 10.5817L12.1064 11.9243L11.3119 11.4768L9.74314 10.5868L12.1013 9.22414ZM12.2219 8.92249L14.7561 10.3957L17.1193 9.0331L15.2187 7.942L12.1062 6.157L8.7223 8.13307L7.09318 9.08339L9.42624 10.4058L11.9906 8.91746C12.061 8.87019 12.1536 8.8722 12.2219 8.92249ZM6.93244 9.35994L9.25544 10.6773L9.3007 13.5735C9.29567 13.664 9.34092 13.7445 9.41131 13.7797L10.955 14.6646L11.9455 15.2328V17.943L6.92238 15.087L6.93244 9.35994ZM11.9503 12.2008L9.57702 10.8583L9.62227 13.5333L11.9453 14.8657L11.9503 12.2008ZM12.2673 15.2378L13.2579 14.6646L14.7864 13.7897L14.8015 13.7796C14.8317 13.7646 14.8669 13.7394 14.892 13.7042L14.9071 13.6841V13.659L14.9021 11.7382V10.6823L17.2754 9.30963V11.6477L17.2703 15.0568L14.0875 16.887L12.2623 17.9379L12.2673 15.2378ZM12.2673 12.2008V14.8708L14.6054 13.5283V10.8533L12.2673 12.2008Z" fill="#2F2F2F"/>
<path fill-rule="evenodd" clip-rule="evenodd" d="M12.0358 6.46875C11.9654 6.47881 11.9051 6.52406 11.8749 6.5844C11.8447 6.65479 11.8498 6.73021 11.885 6.78049C11.9252 6.84083 11.9906 6.87603 12.066 6.87603C12.0795 6.8751 12.0929 6.87342 12.1062 6.871C12.1917 6.86095 12.257 6.80061 12.2721 6.72519C12.2934 6.65802 12.276 6.58459 12.2269 6.53412C12.1789 6.48049 12.1065 6.45572 12.0358 6.46875ZM12.1717 7.34866C12.0963 7.30843 12.0108 7.31346 11.9504 7.35369C11.8951 7.38386 11.8599 7.44419 11.8499 7.50956C11.8449 7.57996 11.875 7.64029 11.9152 7.67549C11.9544 7.71279 12.007 7.73273 12.0611 7.7308C12.0923 7.73027 12.1231 7.72343 12.1516 7.71069C12.232 7.68052 12.2773 7.6051 12.2773 7.52967C12.2823 7.45928 12.237 7.38889 12.1717 7.34866ZM11.9555 8.20347C12.0209 8.16827 12.1063 8.16827 12.1767 8.21353C12.2418 8.25105 12.2797 8.32245 12.2744 8.39739C12.269 8.47232 12.2213 8.53761 12.1516 8.5655C12.1231 8.57824 12.0923 8.58508 12.0611 8.58561C12.0142 8.58747 11.9681 8.57328 11.9304 8.54539C11.875 8.51019 11.8449 8.43477 11.8499 8.36437C11.8549 8.29398 11.8952 8.23364 11.9555 8.20347ZM8.76268 13.8501C8.68726 13.8702 8.63195 13.9305 8.61686 14.0059C8.60178 14.0864 8.62692 14.1618 8.68223 14.2071C8.71708 14.2372 8.76187 14.2533 8.80793 14.2523C8.82316 14.2524 8.83835 14.2507 8.85319 14.2473C8.91855 14.2322 8.97386 14.187 8.99398 14.1316C9.02917 14.0612 9.01912 13.9758 8.95878 13.9104C8.91141 13.8528 8.83423 13.8291 8.76268 13.8501ZM15.3091 14.2473C15.2929 14.2531 15.2759 14.2565 15.2588 14.2574C15.2085 14.2574 15.1632 14.2423 15.1331 14.2071C15.0778 14.1618 15.0476 14.0864 15.0627 14.006C15.0778 13.9305 15.1331 13.8702 15.2035 13.8501C15.2771 13.8262 15.3578 13.8479 15.4096 13.9054C15.4649 13.9708 15.48 14.0613 15.4448 14.1367C15.4297 14.187 15.3744 14.2322 15.3091 14.2473ZM8.02841 14.2825C7.95299 14.3076 7.90271 14.378 7.89768 14.4585C7.88762 14.544 7.92785 14.6244 7.99321 14.6596C8.02326 14.6789 8.0581 14.6893 8.09378 14.6898C8.12337 14.6891 8.15249 14.6823 8.17926 14.6697C8.24462 14.6395 8.28988 14.5792 8.2949 14.5238C8.30999 14.4484 8.27982 14.368 8.21948 14.3177C8.16802 14.2699 8.09354 14.2562 8.02841 14.2825ZM16.0435 14.6747C16.0208 14.6823 15.997 14.6857 15.9731 14.6847C15.9279 14.6858 15.8836 14.6717 15.8474 14.6445C15.7914 14.5952 15.7648 14.5204 15.7771 14.4467C15.7893 14.3731 15.8387 14.311 15.9077 14.2825C15.9769 14.2557 16.0553 14.2714 16.1089 14.3227C16.1692 14.378 16.1893 14.4534 16.1692 14.5289C16.1642 14.5892 16.1139 14.6495 16.0435 14.6747ZM7.47537 14.73C7.41503 14.6948 7.33961 14.6948 7.2843 14.73C7.21894 14.7652 7.17871 14.8306 7.17871 14.911C7.17871 14.9915 7.21894 15.0619 7.2843 15.092C7.31164 15.1084 7.34292 15.1171 7.37481 15.1172C7.41379 15.1178 7.45215 15.1073 7.48543 15.087C7.55079 15.0417 7.58599 14.9663 7.58096 14.901C7.58096 14.8306 7.54074 14.7652 7.47537 14.725V14.73ZM16.6921 15.1172C16.6477 15.1174 16.6047 15.1013 16.5714 15.0719C16.5211 15.0367 16.491 14.9714 16.496 14.901C16.499 14.8308 16.5367 14.7667 16.5966 14.73C16.6569 14.6898 16.7374 14.6898 16.8027 14.735C16.8731 14.7803 16.9083 14.8607 16.8932 14.9412C16.8882 15.0015 16.8379 15.0719 16.7675 15.1021C16.7436 15.112 16.718 15.1172 16.6921 15.1172Z" fill="#2F2F2F"/>
</svg>
