<svg width="24" height="24" viewBox="0 0 24 24" fill="none" xmlns="http://www.w3.org/2000/svg">
<circle cx="12" cy="12" r="12" fill="#7866D5"/>
<path d="M16.8575 6.16075C17.2637 6.21153 17.6868 6.24538 18.0931 6.31308C18.8885 6.46541 19.1593 6.87161 19.0239 7.68403C18.9901 7.98868 18.7531 8.22563 18.4485 8.27641C18.2623 8.31026 18.0592 8.32719 17.873 8.31026C15.2327 8.31026 12.6093 8.32719 9.96893 8.32719C9.57965 8.32719 9.17345 8.36104 8.78417 8.42874C7.48092 8.63184 6.97317 9.17345 6.87161 10.4936C6.82084 11.1029 6.82084 11.1029 7.44707 11.1029H17.9407C18.0423 11.1029 18.1438 11.1029 18.2454 11.1029C18.4146 11.1029 18.567 11.1537 18.7193 11.2383C19.1932 11.543 19.0747 12.0338 19.0578 12.4739C19.0409 12.8293 18.8208 13.0324 18.4485 13.1001C18.2962 13.134 18.1438 13.134 17.9746 13.134C14.3864 13.134 10.7983 13.134 7.21012 13.134C6.82084 13.134 6.82084 13.134 6.85469 13.5232C6.87161 13.8787 6.90546 14.2341 6.99009 14.5895C7.15934 15.2327 7.54862 15.6389 8.20871 15.8251C8.91957 16.0282 9.66428 16.062 10.3921 16.0789C12.9478 16.0789 15.5204 16.0789 18.0931 16.0789C18.4146 16.0789 18.7193 16.1128 18.9224 16.4175C19.244 16.9252 19.0747 17.5853 18.567 17.9069C18.4993 17.9577 18.4316 17.9915 18.3469 18.0084C17.7884 18.1946 17.2129 18.2285 16.6206 18.2454C14.2002 18.2962 11.7969 18.2962 9.39348 18.2454C8.64876 18.2285 7.90405 18.1438 7.17627 17.9915C5.46682 17.6361 4.60363 16.756 4.3159 15.0296C4.2482 14.6403 4.21435 14.2341 4.16357 13.8279V10.6798C4.19742 10.3751 4.23128 10.0536 4.26513 9.74891C4.48515 7.8025 5.36527 6.83776 7.27782 6.39771C7.95483 6.24538 8.66569 6.21153 9.3427 6.14383L16.8575 6.16075Z" fill="white"/>
<path fill-rule="evenodd" clip-rule="evenodd" d="M9.37652 18.5501C10.5782 18.567 11.7799 18.5839 12.9985 18.5839C13.61 18.5839 14.2214 18.5797 14.8307 18.5754C15.4358 18.5712 16.0387 18.567 16.6374 18.567C17.1791 18.5501 17.8222 18.5162 18.4484 18.3131C18.55 18.2793 18.6516 18.2285 18.7362 18.1777C19.0578 17.9746 19.2778 17.6699 19.3624 17.3145C19.447 16.9591 19.3963 16.5867 19.1932 16.2652C18.8885 15.7743 18.3638 15.7743 18.1099 15.7743H16.4174H16.4171C14.4369 15.7743 12.406 15.7743 10.409 15.7574C9.7658 15.7574 9.02109 15.7235 8.2933 15.5204C7.75169 15.3681 7.43011 15.0465 7.29471 14.5219C7.21009 14.1833 7.17623 13.8448 7.15931 13.4894V13.4725V13.4217H7.22701H17.9745C18.1438 13.4217 18.313 13.4217 18.4992 13.3879C19.0239 13.2863 19.3116 12.9647 19.3455 12.4908C19.3455 12.4654 19.3497 12.4358 19.3539 12.4062C19.3582 12.3766 19.3624 12.347 19.3624 12.3216L19.3631 12.3132C19.3969 11.9077 19.4431 11.3543 18.8716 10.9845C18.6854 10.8829 18.4654 10.8152 18.2453 10.8152H7.44704H7.15931C7.15931 10.7748 7.16316 10.7306 7.16719 10.6843C7.17161 10.6337 7.17623 10.5806 7.17623 10.5275C7.27779 9.34273 7.66707 8.9196 8.83491 8.73342C9.20726 8.66572 9.59654 8.63187 9.9689 8.63187C12.5923 8.63187 15.2327 8.61494 17.8561 8.59802C18.0761 8.59802 18.2792 8.58109 18.4823 8.54724C18.9393 8.47954 19.2778 8.12411 19.3286 7.70098C19.4978 6.71932 19.1255 6.17771 18.1607 5.99153C17.9342 5.9412 17.7171 5.91893 17.5024 5.89691C17.4283 5.88931 17.3544 5.88174 17.2806 5.87305C17.1621 5.87305 17.0267 5.85613 16.9083 5.8392H16.8913H9.35959H9.32574L8.81798 5.88998C8.2933 5.94075 7.76862 5.99153 7.22701 6.11001C5.17906 6.56699 4.19739 7.63328 3.96044 9.71508C3.95246 9.81077 3.94073 9.90646 3.92879 10.0039C3.91537 10.1133 3.90169 10.225 3.89274 10.3413L3.85889 10.646V13.8279V13.8618C3.87581 13.9972 3.89274 14.1156 3.90966 14.2341C3.92659 14.5049 3.96044 14.7927 4.01121 15.0804C4.31587 16.9083 5.26368 17.89 7.10853 18.2793C7.85324 18.4485 8.61488 18.5331 9.37652 18.5501ZM4.50215 14.1664C4.50215 14.0479 4.48522 13.9294 4.4683 13.811V10.7136L4.50215 10.4259C4.5111 10.3095 4.52479 10.1979 4.5382 10.0885C4.55015 9.99106 4.56188 9.89537 4.56985 9.79968C4.77295 7.97176 5.55151 7.10857 7.32867 6.66851C7.76418 6.56689 8.18725 6.52753 8.62991 6.48635C8.70333 6.47951 8.77729 6.47263 8.85194 6.46541L9.3597 6.41463H16.8407C16.9591 6.41463 17.0945 6.43156 17.213 6.44848C17.4838 6.46541 17.7546 6.49926 18.0254 6.55003C18.6686 6.68544 18.8378 6.90547 18.7194 7.58247C18.7024 7.75173 18.567 7.88713 18.3978 7.90405C18.2285 7.93791 18.0593 7.93791 17.8731 7.93791C16.5529 7.93791 15.237 7.94214 13.9211 7.94637C12.6051 7.9506 11.2892 7.95483 9.969 7.95483C9.54587 7.97176 9.13967 8.00561 8.73346 8.07331C7.29482 8.29334 6.68551 8.95342 6.56703 10.409C6.56525 10.4463 6.56329 10.4823 6.5614 10.5171C6.54524 10.8134 6.53402 11.0191 6.68551 11.1706C6.85476 11.3399 7.07479 11.3399 7.44714 11.3399H18.2793C18.3809 11.3399 18.4993 11.3737 18.584 11.4245C18.8209 11.5768 18.8209 11.7799 18.7871 12.2031C18.7871 12.2369 18.7828 12.2665 18.7786 12.2962C18.7744 12.3258 18.7701 12.3554 18.7701 12.3892C18.7532 12.5585 18.6855 12.677 18.4147 12.7277C18.2793 12.7616 18.127 12.7616 17.9916 12.7616H7.22711C6.99016 12.7616 6.80398 12.7616 6.66858 12.9139C6.53741 13.0615 6.5492 13.2249 6.56545 13.4504C6.56597 13.4577 6.5665 13.465 6.56703 13.4725V13.4894C6.56703 13.8617 6.61781 14.251 6.70243 14.6234C6.88861 15.385 7.36252 15.8758 8.12415 16.0789C8.91964 16.3159 9.71513 16.3498 10.3921 16.3498C12.3893 16.3667 14.4373 16.3667 16.4006 16.3667H18.0931C18.4147 16.3667 18.5501 16.4175 18.6517 16.5698C18.7701 16.756 18.804 16.9591 18.7532 17.1622C18.7024 17.3653 18.567 17.5345 18.3978 17.653C18.3724 17.6615 18.347 17.6742 18.3216 17.6868C18.2962 17.6995 18.2708 17.7122 18.2455 17.7207C17.7038 17.8899 17.1115 17.9238 16.6206 17.9407C14.2172 17.9915 11.78 17.9915 9.39355 17.9407C8.66576 17.9238 7.93797 17.8392 7.22711 17.6868C5.63614 17.3483 4.87451 16.5698 4.6037 14.9788L4.50215 14.1664Z" fill="white"/>
</svg>
