<svg width="24" height="24" viewBox="0 0 24 24" fill="none" xmlns="http://www.w3.org/2000/svg">
<circle cx="12" cy="12" r="12" fill="#EDF0F4"/>
<path fill-rule="evenodd" clip-rule="evenodd" d="M11.9154 19.9675C11.9684 19.9887 12.0249 19.9996 12.082 19.9995C12.1428 19.9997 12.2031 19.9872 12.2588 19.9628L17.5743 17.6923C17.6838 17.6465 17.7701 17.5585 17.8138 17.4482L19.9674 12.0836C20.0121 11.9733 20.0108 11.8498 19.9638 11.7405L17.6936 6.42532C17.6473 6.31605 17.5593 6.22981 17.4491 6.1858L12.085 4.03221C11.9746 3.98795 11.8512 3.98936 11.7419 4.03613L6.42569 6.30636C6.31641 6.35262 6.23017 6.44065 6.18617 6.55084L4.03257 11.9153C3.9879 12.0255 3.98923 12.1489 4.03625 12.258L6.30673 17.5743C6.35269 17.6836 6.44066 17.7699 6.55089 17.8138L11.9154 19.9675ZM12.077 19.0684L7.05684 17.0531L4.93172 12.0783L6.94692 7.05853L11.9229 4.93317L16.9431 6.94877L19.0678 11.9236L17.0518 16.9437L12.077 19.0684Z" fill="black"/>
<path d="M13.1547 11.9158L11.0047 14.2835H14.3931V15.3038H9.60791V14.2835L11.7378 11.9256L9.61743 9.71619V8.69595H14.3931V9.71619H11.054L13.1547 11.9158Z" fill="black"/>
</svg>
