<svg width="24" height="24" viewBox="0 0 24 24" fill="none" xmlns="http://www.w3.org/2000/svg">
<circle cx="12" cy="12" r="12" fill="#06233A"/>
<path d="M16.6099 10.1689C15.5833 9.1422 13.8722 9.1422 12.8455 10.1689L12.4463 10.5681L12.817 10.9388L13.2163 10.5396C14.0433 9.71256 15.4122 9.71256 16.2392 10.5396C16.6385 10.9388 16.8666 11.4807 16.8666 12.0511C16.8666 12.6214 16.6385 13.1633 16.2392 13.5625C15.84 13.9618 15.2981 14.1899 14.7277 14.1899C14.1574 14.1899 13.6155 13.9618 13.2163 13.5625L12.817 13.1633L12.4463 13.534L12.8455 13.9333C13.3589 14.4466 14.0433 14.7032 14.7277 14.7032C15.4122 14.7032 16.0966 14.4466 16.6099 13.9333C17.1233 13.4199 17.3799 12.764 17.3799 12.0511C17.3799 11.3381 17.1233 10.6822 16.6099 10.1689Z" fill="#11DCBE"/>
<path fill-rule="evenodd" clip-rule="evenodd" d="M13.9579 11.2811L12.8171 12.4218L11.7335 13.5055L11.3342 13.9048C10.8209 14.4181 10.1364 14.6747 9.452 14.6747C8.76756 14.6747 8.08312 14.4181 7.5698 13.9048C7.08499 13.3914 6.7998 12.7355 6.7998 12.0226C6.7998 11.3096 7.05647 10.6537 7.5698 10.1404C8.59645 9.1137 10.3075 9.1137 11.3342 10.1404L12.4749 11.2811L12.4464 11.3096L12.1042 11.6518L11.7335 12.0226L11.3057 12.4503L10.5642 13.1918C10.2505 13.5055 9.85125 13.6766 9.42348 13.6766C8.99571 13.6766 8.59645 13.5055 8.28275 13.1918C7.96905 12.8781 7.79794 12.4788 7.79794 12.0511C7.79794 11.6233 7.96905 11.224 8.28275 10.9103C8.59645 10.5966 8.99571 10.4255 9.42348 10.4255C9.7657 10.4255 10.0794 10.5396 10.3646 10.7392C10.4501 10.7963 10.5072 10.8533 10.5642 10.9103L10.7924 11.11L10.4787 11.4237L8.91015 12.9922C9.05274 13.0777 9.22385 13.1348 9.42348 13.1348C9.70866 13.1348 9.99384 13.0207 10.1935 12.8211L10.2505 12.764L11.7049 11.3096L10.9349 10.5396C10.5357 10.1404 9.99384 9.91221 9.42348 9.91221C8.85311 9.91221 8.31127 10.1404 7.94053 10.5396C7.54128 10.9389 7.31313 11.4807 7.31313 12.0511C7.31313 12.6214 7.54128 13.1633 7.94053 13.5625C8.76756 14.3896 10.1364 14.3896 10.9635 13.5625L11.0205 13.5055L11.2486 13.2774L11.3627 13.1633L12.4749 12.0511L13.416 11.0815L13.5871 10.9103C13.9008 10.5966 14.3001 10.4255 14.7279 10.4255C15.1556 10.4255 15.5549 10.5966 15.8686 10.9103C16.1823 11.224 16.3534 11.6233 16.3534 12.0511C16.3534 12.4788 16.1823 12.8781 15.8686 13.1918C15.5549 13.5055 15.1556 13.6766 14.7279 13.6766C14.3001 13.6766 13.9008 13.5055 13.5871 13.1918L13.1879 12.7925L13.5586 12.4218L13.9579 12.8211C14.1575 13.0207 14.4427 13.1348 14.7279 13.1348C15.013 13.1348 15.2982 13.0207 15.4979 12.8211C15.6975 12.6214 15.8116 12.3363 15.8116 12.0511C15.8116 11.7659 15.6975 11.4807 15.4979 11.2811C15.2982 11.0815 15.013 10.9674 14.7279 10.9674C14.4427 10.9674 14.1575 11.0815 13.9579 11.2811ZM8.65351 11.2811C8.45389 11.4807 8.33981 11.7659 8.33981 12.0511C8.33981 12.2507 8.39685 12.4503 8.51092 12.6214L9.99387 11.1385C9.82276 11.0244 9.62313 10.9674 9.4235 10.9674C9.13832 10.9674 8.85314 11.0815 8.65351 11.2811Z" fill="#11DCBE"/>
</svg>
