<svg width="24" height="24" viewBox="0 0 24 24" fill="none" xmlns="http://www.w3.org/2000/svg">
<circle cx="12" cy="12" r="12" fill="#EDF0F4"/>
<path d="M18.6703 8.60603C18.0774 7.93528 17.277 7.60004 16.2685 7.60004C15.6758 7.60004 15.1503 7.72261 14.6925 7.96694C14.2432 8.20718 13.8844 8.51949 13.6155 8.90523V7.67811H10.5424V12.3728C10.5424 12.8724 10.4125 13.2644 10.1529 13.5508C9.89268 13.8369 9.53915 13.9797 9.09226 13.9797C8.65546 13.9797 8.30466 13.8369 8.03931 13.5508C7.77423 13.2644 7.64155 12.8721 7.64155 12.3728V7.67811H4.6001V12.7632C4.6001 13.9169 4.89384 14.8298 5.48106 15.5006C6.06882 16.1708 6.87225 16.5063 7.8908 16.5063C8.48375 16.5063 9.00927 16.384 9.46681 16.1396C9.92381 15.8959 10.2831 15.5759 10.5424 15.1806V16.4282H13.6155V11.4567C13.6562 11.0867 13.7813 10.7867 13.9912 10.5558C14.2508 10.2702 14.6095 10.1266 15.0668 10.1266C15.5036 10.1266 15.8522 10.2702 16.1124 10.5558C16.3717 10.8419 16.5019 11.2342 16.5019 11.7338V16.4285H19.5595V11.3278C19.5595 10.1839 19.2628 9.27651 18.6701 8.60576L18.6703 8.60603Z" fill="#042751"/>
</svg>
