<svg width="24" height="24" viewBox="0 0 24 24" fill="none" xmlns="http://www.w3.org/2000/svg">
<circle cx="12" cy="12" r="12" fill="#EDF0F4"/>
<path fill-rule="evenodd" clip-rule="evenodd" d="M18.776 15.1522L18.2879 11.3516L18.2033 10.6943L18.1773 10.4535C18.0105 8.94005 16.7451 7.78618 15.2227 7.75932V5.00002L13.8301 5.80047V5.37747L13.2509 5.72238L12.5936 6.09983V5.59222L11.3701 6.28205V5.33191L10.0035 6.12586V5.56619L8.20081 6.62046V7.77234C6.74953 7.88521 5.58316 9.01334 5.42198 10.4601L5.39595 10.6943C5.38842 10.7565 5.38144 10.8197 5.37437 10.8836L5.37437 10.8837C5.35699 11.0409 5.3391 11.2028 5.31135 11.3646L4.82327 15.1587C4.67529 16.1532 5.25456 17.1127 6.20356 17.4449C7.15256 17.7771 8.20377 17.3885 8.70842 16.5188L9.89284 14.5144C10.0425 14.2606 10.3158 14.0979 10.6087 14.0979H12.9906C13.2834 14.0979 13.5567 14.2541 13.7064 14.5144L14.8908 16.5188C15.3955 17.391 16.4494 17.7805 17.4 17.4462C18.3505 17.1118 18.9285 16.1482 18.776 15.1522ZM8.25284 9.32119C7.64183 9.32119 7.14651 9.81651 7.14651 10.4275C7.14651 11.0385 7.64183 11.5338 8.25284 11.5338C8.86385 11.5338 9.35917 11.0385 9.35917 10.4275C9.35917 9.81651 8.86385 9.32119 8.25284 9.32119ZM14.2532 10.4275C14.2532 9.81651 14.7485 9.32119 15.3595 9.32119C15.9705 9.32119 16.4658 9.81651 16.4658 10.4275C16.4658 11.0385 15.9705 11.5338 15.3595 11.5338C14.7485 11.5338 14.2532 11.0385 14.2532 10.4275ZM14.8193 10.4275C14.8193 10.7269 15.0601 10.9706 15.3594 10.9742C15.6588 10.9742 15.8996 10.7269 15.8996 10.4275C15.8996 10.1282 15.6588 9.88088 15.3594 9.88088C15.0601 9.88088 14.8193 10.1282 14.8193 10.4275ZM7.71263 10.4275C7.71261 10.7269 7.95341 10.9706 8.25278 10.9742C8.55214 10.9742 8.79292 10.7269 8.79292 10.4275C8.79292 10.1282 8.55214 9.88088 8.25278 9.88088C7.95342 9.88088 7.71263 10.1282 7.71263 10.4275ZM11.4416 12.126H10.6867V11.3646H11.4482V12.126H11.4416ZM12.0663 12.126H12.8277V11.3646H12.0663V12.126ZM16.5505 16.9763C17.0389 17.024 17.5204 16.8344 17.8453 16.4667C18.1446 16.1283 18.2813 15.6728 18.2292 15.2237L17.7412 11.4297L17.6565 10.7594L17.6305 10.5251C17.4948 9.27796 16.4446 8.33136 15.1901 8.32548C14.6275 8.32607 14.0825 8.52154 13.6477 8.87864C13.1401 9.29514 12.5219 9.52291 11.9037 9.52291H11.7149C11.0761 9.51856 10.4591 9.29061 9.97084 8.87864C9.26981 8.31895 8.32018 8.184 7.49098 8.52623C6.66178 8.86846 6.08377 9.63391 5.98156 10.5251L5.95553 10.7529C5.94821 10.8151 5.94141 10.8783 5.93454 10.9421C5.91698 11.1054 5.899 11.2725 5.87093 11.4362L5.38285 15.2237C5.32396 15.6731 5.4615 16.126 5.7603 16.4667C6.08218 16.84 6.56539 17.0335 7.05593 16.9856C7.54648 16.9377 7.98314 16.6544 8.22675 16.2259L9.41117 14.2215C9.65847 13.7985 10.1205 13.5317 10.6086 13.5317H12.997C13.4897 13.5348 13.9446 13.7968 14.1944 14.2215L15.3788 16.2259C15.6264 16.6495 16.0622 16.9286 16.5505 16.9763Z" fill="url(#paint0_linear_300_15617)"/>
<path d="M10.3354 15.7574C11.0643 16.4733 12.5611 16.4668 13.277 15.7379" stroke="url(#paint1_linear_300_15617)" stroke-width="8"/>
<defs>
<linearGradient id="paint0_linear_300_15617" x1="1.58635" y1="12.7173" x2="11.1182" y2="23.3685" gradientUnits="userSpaceOnUse">
<stop stop-color="#8D5AE9"/>
<stop offset="1" stop-color="#63D1DF"/>
</linearGradient>
<linearGradient id="paint1_linear_300_15617" x1="6.54609" y1="15.2769" x2="6.6126" y2="16.9787" gradientUnits="userSpaceOnUse">
<stop stop-color="#7B8DE5"/>
<stop offset="1" stop-color="#70ADE2"/>
</linearGradient>
</defs>
</svg>
