<svg width="24" height="24" viewBox="0 0 24 24" fill="none" xmlns="http://www.w3.org/2000/svg">
<circle cx="12" cy="12" r="12" fill="#070510"/>
<path fill-rule="evenodd" clip-rule="evenodd" d="M6.4526 14.2138C7.37228 16.4333 9.53846 17.8803 11.941 17.8799C15.2196 17.8756 17.8762 15.2186 17.8799 11.94C17.8799 9.5375 16.4326 7.37155 14.2129 6.45223C11.9932 5.53291 9.43829 6.04127 7.73958 7.74026C6.04087 9.43925 5.53291 11.9942 6.4526 14.2138ZM6.92425 11.942C6.92425 9.17137 9.17027 6.92536 11.9409 6.92536C14.7115 6.92536 16.9575 9.17137 16.9575 11.942C16.9575 14.7126 14.7115 16.9586 11.9409 16.9586C9.17027 16.9586 6.92425 14.7126 6.92425 11.942Z" fill="white"/>
</svg>
