<svg width="24" height="24" viewBox="0 0 24 24" fill="none" xmlns="http://www.w3.org/2000/svg">
<circle cx="12" cy="12" r="12" fill="#EDF0F4"/>
<path fill-rule="evenodd" clip-rule="evenodd" d="M6.0002 11.0371L12.0248 7.77361L18 11.0574L11.9985 2L6.0002 11.0371ZM6.22957 11.9796L12.0309 8.79417L17.7566 11.9563L12.0341 15.1452L6.22957 11.9796ZM6 12.8919C8.11432 14.0473 10.3206 15.2567 12.0246 16.1925L17.9998 12.8919C15.8363 16.1993 14.0336 18.9527 12.0246 22L10.863 20.2453L10.8623 20.2443C9.18523 17.7111 7.45028 15.0904 6 12.8919Z" fill="#3AB83A"/>
<path fill-rule="evenodd" clip-rule="evenodd" d="M11.9985 2L12.0248 7.77385L18.0001 11.0574L11.9985 2ZM12.0313 8.79417L17.7571 11.9563L12.0346 15.1452L12.0313 8.79417ZM12.0245 16.1925L17.9998 12.8919C15.8362 16.1993 12.0245 22 12.0245 22V16.1925Z" fill="#0B8311"/>
<path d="M6.22949 11.9797L12.0311 12.4696L17.7569 11.9594L12.034 15.1486L6.22949 11.9797Z" fill="#0B8311"/>
<path d="M12.0308 12.4696L17.7565 11.9594L12.034 15.1486L12.0308 12.4696Z" fill="#146714"/>
</svg>
