<svg width="24" height="24" viewBox="0 0 24 24" fill="none" xmlns="http://www.w3.org/2000/svg">
<circle cx="12" cy="12" r="12" fill="#EDF0F4"/>
<path d="M15.0089 10.3667L16.3145 11.3582L17.1401 11.9841L16.2179 12.4545L14.3657 13.4032L15.0012 13.8425L15.8885 14.4607L14.9275 14.9584L9.0376 18.0064C10.017 18.5471 11.1167 18.8307 12.2345 18.8307C15.8963 18.8307 18.8648 15.8526 18.8648 12.1783C18.8682 10.6205 18.3235 9.11142 17.3265 7.91718L15.0089 10.3667Z" fill="#091B26"/>
<path d="M9.18915 14.1519L7.88357 13.1567L7.05798 12.5307L7.98021 12.0603L9.83241 11.1115L9.1969 10.6684L8.30955 10.0501L9.27056 9.55249L15.4744 6.34111C14.4237 5.67969 13.2076 5.33055 11.9672 5.33413C8.30539 5.33413 5.33691 8.31223 5.33691 11.9865C5.33691 13.6933 5.98017 15.2523 7.03417 16.4304L9.18915 14.1519Z" fill="#091B26"/>
<path d="M6.53034 16.7639C5.36011 15.4771 4.6471 13.7664 4.6471 11.8924C4.6471 7.89957 7.88661 4.64928 11.8662 4.64928C13.3348 4.64928 14.7647 5.09639 15.9698 5.93994L16.6131 5.60559C15.2959 4.59874 13.6487 4.00003 11.8662 4.00003C7.53013 4.00003 4 7.54191 4 11.8924C4 13.9529 4.79052 15.8269 6.08087 17.2342L6.53034 16.7637V16.7639Z" fill="#091B26"/>
<path d="M17.6286 7.41866C18.702 8.68223 19.353 10.3229 19.353 12.1074C19.353 16.1003 16.1135 19.3506 12.1339 19.3506C10.7854 19.3506 9.46401 18.9734 8.32476 18.2581L7.66211 18.6002C8.97576 19.5139 10.5373 20 12.1339 20C16.4699 20 20.0001 16.4581 20.0001 12.1076C20.0001 10.1363 19.2755 8.32861 18.0781 6.94452L17.6286 7.41885L17.6286 7.41866Z" fill="#091B26"/>
<path d="M8.37392 12.6092L10.2591 14.0387L6 18.5334L14.4677 14.1592L12.9394 13.0987L15.7594 11.6536L13.8742 10.224L18.1333 5.73337L9.66565 10.1075L11.1939 11.1682L8.37392 12.6092Z" fill="#23BEE2"/>
</svg>
