<svg width="24" height="24" viewBox="0 0 24 24" fill="none" xmlns="http://www.w3.org/2000/svg">
<circle cx="12" cy="12" r="12" fill="#EDF0F4"/>
<ellipse cx="6.54549" cy="16.4275" rx="1.62704" ry="1.62704" transform="rotate(-1.146 6.54549 16.4275)" fill="#DE2813"/>
<ellipse cx="5.10489" cy="13.1361" rx="1.10489" ry="1.1049" fill="#E71619"/>
<ellipse cx="5.73901" cy="9.56964" rx="0.974359" ry="0.97436" fill="#EB6617" fill-opacity="0.01"/>
<circle cx="7.78545" cy="6.62328" r="0.83916" fill="#EC6816"/>
<circle cx="11.2261" cy="5.23867" r="0.638694" fill="#F2961B"/>
<ellipse cx="14.8064" cy="5.74222" rx="0.531467" ry="0.531468" fill="#F1C621"/>
<ellipse cx="17.6971" cy="8.04056" rx="0.396271" ry="0.39627" fill="#F3C620"/>
<ellipse cx="19.0769" cy="11.4112" rx="0.923075" ry="0.923078" fill="#156192"/>
<ellipse cx="18.5781" cy="14.9683" rx="0.825174" ry="0.825175" fill="#2090C0"/>
<ellipse cx="16.3821" cy="17.8027" rx="0.64336" ry="0.643357" fill="#338DCC"/>
<ellipse cx="12.9511" cy="19.1081" rx="0.424242" ry="0.42424" fill="#38BAE8"/>
<ellipse cx="9.53394" cy="18.6093" rx="0.293705" ry="0.293707" fill="#36BBE6"/>
<ellipse cx="5.74836" cy="9.56535" rx="1.56648" ry="1.56648" transform="rotate(-3.17 5.74836 9.56535)" fill="#EB6617"/>
<path d="M9.2915 10.8984L10.5922 10.1571L10.5875 14.4695L9.2915 15.2014V10.8984V10.8984Z" fill="#3F3F3F"/>
<path d="M14.4756 10.8984L15.7763 10.1571L15.7716 14.4695L14.4756 15.2014V10.8984Z" fill="#3F3F3F"/>
<path d="M11.8784 10.8984L13.1791 10.1571L13.1745 14.4695L11.8784 15.2014V10.8984Z" fill="#3F3F3F"/>
<path d="M8.03271 10.1291L9.30544 9.37854L10.5922 10.1571L9.29146 10.8984L8.03271 10.1291Z" fill="#686A69"/>
<path d="M10.6152 10.1291L11.888 9.37854L13.1747 10.1571L11.8786 10.8984L10.6152 10.1291Z" fill="#686A69"/>
<path d="M13.2168 10.1338L14.4895 9.38318L15.7762 10.1617L14.4755 10.903L13.2168 10.1338Z" fill="#686A69"/>
</svg>
