<svg width="24" height="24" viewBox="0 0 24 24" fill="none" xmlns="http://www.w3.org/2000/svg">
<circle cx="12" cy="12" r="12" fill="black"/>
<path fill-rule="evenodd" clip-rule="evenodd" d="M11.9999 23.4C18.2959 23.4 23.3999 18.2961 23.3999 12C23.3999 5.70399 18.2959 0.600034 11.9999 0.600034C5.70382 0.600034 0.599865 5.70399 0.599865 12C0.599865 18.2961 5.70382 23.4 11.9999 23.4ZM12 24C18.6274 24 24 18.6274 24 12C24 5.37258 18.6274 0 12 0C5.37258 0 0 5.37258 0 12C0 18.6274 5.37258 24 12 24Z" fill="#57D56C"/>
<path fill-rule="evenodd" clip-rule="evenodd" d="M8.3911 10.9393H17.4V12.8496H8.3911V17.4H6.48089V12.8496L6.47998 10.9393L6.48089 6.47998H8.3911V10.9393ZM17.4001 8.39022H10.9395V6.47998H17.4001V8.39022ZM10.9395 17.4H17.4001V15.4897H10.9395V17.4Z" fill="#57D56C"/>
</svg>
