<svg width="24" height="24" viewBox="0 0 24 24" fill="none" xmlns="http://www.w3.org/2000/svg">
<path d="M12 24C5.37072 24 0 18.6293 0 12C0 5.37072 5.37072 0 12 0C18.6293 0 24 5.37072 24 12C24 18.6293 18.6293 24 12 24Z" fill="#2468E4"/>
<path fill-rule="evenodd" clip-rule="evenodd" d="M14.9873 5.39999H9.68731C7.98731 5.39999 6.7998 6.59221 6.7998 8.26876V9.70935H9.68731V8.26876H17.3873C17.3998 6.57979 16.2123 5.39999 14.9873 5.39999ZM17.3998 13.5344H9.68731C7.98731 13.5344 6.7998 12.2428 6.7998 10.6656H14.9873C16.2123 10.6532 17.3998 11.9447 17.3998 13.5344ZM14.4998 15.9312V14.4906H17.3998V15.9312C17.3998 17.6078 16.2123 18.8 14.9873 18.8H9.68731C7.98731 18.8 6.7998 17.6202 6.7998 15.9312H14.4998Z" fill="white"/>
</svg>
