<svg width="24" height="24" viewBox="0 0 24 24" fill="none" xmlns="http://www.w3.org/2000/svg">
<circle cx="12" cy="12" r="12" fill="#044AAC"/>
<path fill-rule="evenodd" clip-rule="evenodd" d="M5.4593 14.9899L7.4347 13.013V13.0122C7.84373 13.2809 8.37406 13.278 8.78006 13.0047L9.62062 13.8452L10.4982 12.9685L9.30371 11.7748C9.1993 11.1926 8.69313 10.7688 8.10172 10.7682C7.50125 10.7688 6.99003 11.2052 6.8952 11.7982L5.01789 13.6762C4.90169 13.1692 4.84058 12.6417 4.84058 12.1C4.84058 8.20652 8.0074 5.04045 11.9001 5.04045C15.7928 5.04045 18.9596 8.20652 18.9596 12.1C18.9598 12.6636 18.8924 13.2252 18.7589 13.7728L15.8358 10.8497C15.772 10.2265 15.2474 9.75244 14.621 9.75183C13.9843 9.75249 13.4546 10.2415 13.4032 10.8761L7.05215 17.2271L6.17537 18.1046C6.47645 18.3916 6.79853 18.6557 7.13892 18.8947C8.48805 19.8424 10.1299 20.4 11.9001 20.4C16.4764 20.4 20.2001 16.6763 20.2001 12.1C20.2001 7.52365 16.4764 3.79997 11.9001 3.79997C7.32378 3.79997 3.6001 7.52365 3.6001 12.1C3.5985 13.429 3.91792 14.7389 4.53121 15.918L5.4593 14.9899ZM8.03149 18.002L14.006 12.0275C14.3911 12.2537 14.8692 12.2502 15.251 12.0185L18.3031 15.0714C17.1796 17.4836 14.7319 19.1595 11.9 19.1595C10.525 19.161 9.17977 18.7585 8.03149 18.002ZM14.6428 10.4309C14.4419 10.4237 14.253 10.527 14.1506 10.7C14.0481 10.873 14.0484 11.0883 14.1513 11.261C14.2543 11.4338 14.4434 11.5365 14.6443 11.5288C14.9396 11.5174 15.173 11.2746 15.1725 10.9791C15.1721 10.6836 14.9381 10.4414 14.6428 10.4309ZM7.55907 11.9815C7.55907 11.6781 7.80501 11.4322 8.10838 11.4322C8.41176 11.4322 8.65769 11.6781 8.65769 11.9815C8.65769 12.2849 8.41176 12.5308 8.10838 12.5308C7.80501 12.5308 7.55907 12.2849 7.55907 11.9815Z" fill="white"/>
</svg>
