<svg width="24" height="24" viewBox="0 0 24 24" fill="none" xmlns="http://www.w3.org/2000/svg">
<circle cx="12" cy="12" r="12" fill="white"/>
<path fill-rule="evenodd" clip-rule="evenodd" d="M11.9999 0C5.37397 0 0 5.37397 0 11.9999C0 18.6259 5.37397 23.9999 11.9999 23.9999C18.6259 23.9999 23.9999 18.6259 23.9999 11.9999C24.0192 5.37397 18.6452 0 11.9999 0ZM11.4606 17.9132C10.8057 18.3755 10.016 18.6452 9.22627 18.6452C7.83944 18.6452 6.56818 17.894 5.6051 16.5071C4.73833 15.1781 4.25679 13.6372 4.21827 12.0577C4.21827 11.9999 4.25679 11.9422 4.31458 11.9229L5.25839 11.4991C5.33544 11.4606 5.41249 11.4991 5.45101 11.5762C5.45101 11.5858 5.45583 11.5954 5.46064 11.6051C5.46546 11.6147 5.47027 11.6243 5.47027 11.634C5.47027 13.2134 5.89403 14.6966 6.64523 15.7945C7.3579 16.8346 8.28246 17.3932 9.24554 17.3932C9.7656 17.3932 10.2857 17.2391 10.7094 16.9502C10.7672 16.9116 10.8635 16.9309 10.902 16.9887C11.0946 17.2391 11.2873 17.4702 11.4991 17.7014C11.5184 17.7591 11.5184 17.8555 11.4606 17.9132ZM14.7928 18.6452C16.1796 18.6452 17.4702 17.8747 18.414 16.5071C19.3193 15.1974 19.8008 13.4446 19.8008 11.6147C19.8008 9.78487 19.3 8.05132 18.3947 6.74154C18.2021 6.47188 17.9902 6.20222 17.7398 5.95182C17.7013 5.89403 17.6435 5.89403 17.5857 5.91329L16.6419 6.33705C16.6227 6.33705 16.6034 6.35631 16.5841 6.37557C16.5456 6.43335 16.5456 6.52966 16.6034 6.58745C16.8923 6.83785 17.162 7.12677 17.3739 7.45422C18.1251 8.55212 18.5488 10.0353 18.5488 11.6147C18.5488 13.1942 18.1251 14.6773 17.3739 15.7752C16.6612 16.7961 15.7366 17.3739 14.7735 17.3739C13.8105 17.3739 12.8859 16.8153 12.1732 15.7752C11.422 14.6773 10.9983 13.1942 10.9983 11.6147C10.9983 10.7865 11.422 9.84265 11.9806 9.84265C12.5392 9.84265 12.963 10.7865 12.963 11.6147C12.963 12.7126 12.7511 13.8105 12.3081 14.8314C12.2888 14.8699 12.2888 14.9277 12.3081 14.9662C12.4044 15.1588 12.5007 15.3129 12.6163 15.4863C12.7126 15.6211 12.8281 15.7559 12.9437 15.8908C12.9511 15.8981 12.9556 15.9055 12.9595 15.9118C12.9658 15.9219 12.9703 15.9293 12.9822 15.9293C13.04 15.9678 13.1363 15.9486 13.1748 15.8715C13.8683 14.5617 14.215 13.1171 14.1957 11.634C14.1957 9.93896 13.2134 8.60991 11.9806 8.60991C10.7479 8.60991 9.76554 9.93896 9.76554 11.634C9.76554 13.4638 10.2663 15.1974 11.1716 16.5071C12.1347 17.8747 13.406 18.6452 14.7928 18.6452Z" fill="#A566FF"/>
</svg>
