<svg width="24" height="24" viewBox="0 0 24 24" fill="none" xmlns="http://www.w3.org/2000/svg">
<circle cx="12" cy="12" r="12" fill="#FFAA5C"/>
<path fill-rule="evenodd" clip-rule="evenodd" d="M12.3855 3.83728L12.3855 3.83729L12.3855 3.83729C12.4237 3.86106 12.462 3.88489 12.5013 3.90712L19.2881 7.74398C19.3032 7.75247 19.3177 7.76148 19.3344 7.77181C19.3459 7.77893 19.3584 7.78667 19.3728 7.79529L19.3462 7.81277L19.3462 7.81278L19.3462 7.8128L19.3462 7.81281C19.3281 7.82481 19.3131 7.83473 19.2971 7.84358L15.8336 9.78956C15.7437 9.8396 15.7436 9.83937 15.6853 9.7559L15.6836 9.75334C14.9156 8.67056 13.8626 8.05184 12.5246 7.89489C12.4848 7.88989 12.4447 7.88737 12.4046 7.88735C12.3341 7.88735 12.3071 7.86018 12.3071 7.78548C12.3066 7.30769 12.3047 6.8296 12.3027 6.35158L12.3027 6.35129L12.3027 6.351L12.3027 6.35071L12.3027 6.35041L12.3027 6.35012C12.3016 6.06392 12.3004 5.77774 12.2996 5.49166L12.2973 3.90787C12.2973 3.88311 12.3012 3.85869 12.305 3.83415L12.3051 3.83411C12.3068 3.82278 12.3086 3.81141 12.3101 3.79997H12.3251C12.3453 3.81222 12.3654 3.82474 12.3855 3.83727L12.3855 3.83727L12.3855 3.83728ZM19.6 11.1319L19.5975 11.1545C19.595 11.1761 19.5925 11.1975 19.5925 11.2194C19.5888 12.14 19.585 13.0613 19.5835 13.9826L19.5805 15.8742C19.5805 15.9156 19.578 15.957 19.5753 16.0033V16.0033V16.0033L19.5753 16.0034V16.0034C19.574 16.0246 19.5727 16.0467 19.5715 16.0704L19.548 16.0598C19.5264 16.0501 19.5088 16.0422 19.492 16.0327L16.0015 14.0746C15.9393 14.0399 15.934 14.009 15.964 13.9471C16.5588 12.7187 16.561 11.4873 15.9753 10.2559C15.9475 10.197 15.9528 10.1676 16.0128 10.1344L19.5048 8.16275C19.5251 8.15119 19.5477 8.14366 19.5704 8.13607C19.5803 8.13276 19.5902 8.12944 19.6 8.12578V11.1319ZM11.836 20.3812C11.8439 20.3875 11.852 20.3938 11.8602 20.4H11.9052L11.9067 20.3918L11.9083 20.383C11.9109 20.3698 11.9135 20.3566 11.9135 20.3434L11.9097 18.4223L11.9086 18.0852L11.9086 18.0849C11.9066 17.5211 11.9046 16.9568 11.9052 16.3926C11.9052 16.3171 11.8767 16.2975 11.8047 16.2945C11.678 16.2884 11.5497 16.2786 11.4245 16.2583C10.1952 16.0568 9.21574 15.4652 8.49874 14.4647C8.45599 14.4051 8.42374 14.39 8.35474 14.4292C7.494 14.9143 6.63326 15.3981 5.77252 15.8818L4.91224 16.3654C4.89799 16.3735 4.88493 16.3829 4.86965 16.3938L4.86961 16.3938C4.86079 16.4001 4.85122 16.407 4.84024 16.4144C4.86075 16.4263 4.87837 16.4369 4.89457 16.4467L4.89459 16.4467L4.8946 16.4467L4.89478 16.4468L4.89486 16.4469C4.9135 16.4581 4.93028 16.4682 4.94749 16.4778L11.7852 20.3449C11.803 20.3551 11.8193 20.368 11.8359 20.3811L11.8359 20.3811L11.836 20.3812ZM4.6001 15.4577C4.6014 15.4499 4.60315 15.4419 4.60491 15.4339C4.60824 15.4189 4.61161 15.4036 4.6121 15.3883L4.6151 14.4353L4.62035 12.3022L4.6301 8.93769L4.63385 8.21257C4.63385 8.19956 4.63499 8.18655 4.63638 8.17054C4.63726 8.16056 4.63823 8.1494 4.6391 8.13636C4.65023 8.1417 4.66034 8.14636 4.66971 8.15068L4.66972 8.15069C4.68812 8.15917 4.70369 8.16634 4.7186 8.17484L5.16991 8.42843C6.16084 8.98524 7.1515 9.5419 8.14385 10.0974C8.2106 10.1344 8.2196 10.1631 8.1866 10.2332C7.5866 11.4714 7.5896 12.7112 8.1866 13.9509L8.18873 13.9552C8.23537 14.0505 8.23541 14.0505 8.13935 14.1048C6.99335 14.7537 5.84735 15.4011 4.7006 16.0478C4.6806 16.0591 4.6564 16.0634 4.63254 16.0676H4.63253C4.6215 16.0696 4.61053 16.0716 4.6001 16.0742V15.4585V15.4577ZM14.84 13.4461C14.867 13.8882 14.8272 14.3236 14.705 14.756V14.7552C14.7027 14.7243 14.7005 14.6933 14.6997 14.6624C14.687 14.2768 14.6337 13.898 14.4995 13.5336C14.3555 13.1375 14.1462 12.7843 13.7945 12.5263C13.712 12.4659 13.7082 12.4667 13.6572 12.5557C13.4596 12.9003 13.2236 13.221 12.9537 13.5117C11.8805 14.6541 10.4555 14.8556 9.15796 14.4066C9.14349 14.4013 9.12927 14.3952 9.11501 14.3892L9.11498 14.3891L9.11495 14.3891L9.11494 14.3891C9.10484 14.3848 9.09471 14.3805 9.08446 14.3764C9.35371 14.396 9.61771 14.4119 9.88171 14.3719C10.4495 14.2859 10.9092 14.0339 11.2025 13.5328C11.258 13.4378 11.258 13.437 11.1545 13.391C10.3625 13.0394 9.82021 12.4614 9.53221 11.6586C9.30046 11.0149 9.26221 10.3509 9.33346 9.67636C9.33946 9.616 9.34696 9.55564 9.35596 9.49527C9.3618 9.45615 9.36889 9.41766 9.37602 9.37898L9.37602 9.37895L9.37604 9.37884C9.37991 9.35789 9.38378 9.33688 9.38746 9.31569C9.4034 9.33507 9.40876 9.35386 9.41394 9.37206L9.41596 9.37907C9.43944 9.46054 9.46188 9.54238 9.48433 9.62424L9.48433 9.62425L9.48433 9.62427C9.53362 9.80397 9.58293 9.98378 9.64321 10.16C9.74035 10.4535 9.90154 10.7214 10.115 10.944C10.2227 11.0588 10.3561 11.146 10.5042 11.1983C10.6197 11.2383 10.6242 11.2375 10.6842 11.1304C11.0916 10.3861 11.7635 9.82417 12.5652 9.55715C13.2185 9.33154 13.892 9.28626 14.5767 9.35116C14.6498 9.35816 14.7226 9.36782 14.7955 9.37749L14.7955 9.3775L14.7956 9.3775C14.8326 9.38241 14.8696 9.38733 14.9067 9.3919L14.9225 9.36776L14.7957 9.2591C13.676 8.29781 12.3965 7.9892 10.9542 8.37628C9.03421 8.89239 7.74721 10.8474 8.17321 12.8688C8.62921 15.0284 10.856 16.388 13.0512 15.8448C15.0297 15.3558 16.304 13.5095 16.0167 11.5424C15.9045 10.7651 15.5536 10.0425 15.0132 9.47566C14.9816 9.4427 14.9387 9.42325 14.8932 9.42133C14.571 9.43318 14.2526 9.49581 13.9497 9.60695C13.5147 9.77596 13.1615 10.0401 12.9597 10.4649L12.9573 10.47C12.9147 10.56 12.8973 10.5967 12.9084 10.6198C12.916 10.6357 12.9371 10.6451 12.9728 10.661L12.9728 10.661C12.9906 10.669 13.0119 10.6785 13.037 10.6912C13.6055 10.978 14.072 11.3726 14.3945 11.9174C14.675 12.3897 14.8085 12.9043 14.84 13.4461ZM19.4058 16.425L12.3086 20.3857C12.3071 20.369 12.3053 20.3549 12.3038 20.3423C12.3014 20.3237 12.2996 20.3085 12.2996 20.2936C12.2996 18.9882 12.2996 17.6829 12.2981 16.3775C12.2981 16.3194 12.3153 16.2983 12.3776 16.293C13.7576 16.1783 14.8518 15.5701 15.6551 14.4647L15.6569 14.4622C15.7248 14.3674 15.725 14.3672 15.8276 14.4247L19.3098 16.3677C19.3257 16.3766 19.3416 16.3863 19.3606 16.3978L19.3607 16.3979C19.3739 16.4059 19.3886 16.4148 19.4058 16.425ZM11.9062 3.86206C11.9056 3.85168 11.9049 3.8402 11.9042 3.82714H11.9035C11.8791 3.84029 11.8574 3.8515 11.8372 3.86196C11.8156 3.8731 11.7957 3.8834 11.776 3.89429L4.94345 7.70928C4.91545 7.72487 4.89012 7.74382 4.86479 7.76277C4.85212 7.77224 4.83945 7.78171 4.82645 7.79077C4.8371 7.79791 4.84763 7.80516 4.85814 7.81241C4.88539 7.83119 4.91252 7.84989 4.9412 7.86622L8.33195 9.76013C8.37874 9.78628 8.402 9.7993 8.42138 9.79497C8.44115 9.79056 8.45689 9.76811 8.48945 9.72316C9.30545 8.59587 10.4192 7.98242 11.8277 7.8798C11.9012 7.87452 11.9102 7.84434 11.9102 7.78398C11.9087 6.49672 11.9087 5.20871 11.9087 3.9207C11.9087 3.90298 11.9076 3.88526 11.9062 3.86206Z" fill="white"/>
</svg>
