<svg width="24" height="24" viewBox="0 0 24 24" fill="none" xmlns="http://www.w3.org/2000/svg">
<circle cx="12" cy="12" r="12" fill="#0D1E9D"/>
<path d="M10.8194 15.6571C10.7415 15.6571 10.6648 15.6387 10.5955 15.6035C10.5262 15.5682 10.4664 15.5172 10.4209 15.4545L8.47116 12.7788H7.19971V11.8049H8.72282C8.80066 11.8048 8.87739 11.823 8.94668 11.8581C9.01597 11.8933 9.07583 11.9442 9.1213 12.0068L10.7146 14.1923L13.1454 8.6915C13.1837 8.60476 13.2466 8.53098 13.3266 8.4792C13.4066 8.42741 13.5001 8.39987 13.5956 8.39996H16.6373V9.3739H13.9174L11.2703 15.3649C11.2354 15.4439 11.1799 15.5123 11.1096 15.5631C11.0392 15.6139 10.9565 15.6452 10.8699 15.6539C10.8524 15.6548 10.8349 15.6548 10.8174 15.6539" fill="#00C389"/>
</svg>
