<svg width="24" height="24" viewBox="0 0 24 24" fill="none" xmlns="http://www.w3.org/2000/svg">
<circle cx="12" cy="12" r="12" fill="#EDF0F4"/>
<path fill-rule="evenodd" clip-rule="evenodd" d="M17.2443 6.99998H12.1693C11.831 6.99998 11.5652 7.26582 11.5652 7.60415V12.8242H9.72848C9.39015 12.8242 9.10015 13.0658 9.10015 13.38C9.10015 13.6942 9.39015 13.9358 9.72848 13.9358H12.1935C12.5318 13.9358 12.7977 13.67 12.7977 13.3317V10.6492H15.7943C16.1085 10.6492 16.3502 10.4075 16.3502 10.0933C16.3502 9.77915 16.1085 9.53749 15.7943 9.53749H12.7735V8.11165H17.2443C17.5585 8.11165 17.8001 7.86998 17.8001 7.55582C17.8001 7.24165 17.5585 6.99998 17.2443 6.99998ZM12.2177 15.7967H9.63185C9.31768 15.7967 9.07602 16.0383 9.07602 16.3525C9.07602 16.6667 9.31768 16.9083 9.63185 16.9083H12.2177C12.5318 16.9083 12.7735 16.6667 12.7735 16.3525C12.7735 16.0383 12.5318 15.7967 12.2177 15.7967ZM6.75603 9.53749H9.34186C9.65603 9.53749 9.89769 9.80332 9.89769 10.0933C9.89769 10.4075 9.65603 10.6492 9.34186 10.6492H6.75603C6.44186 10.6492 6.2002 10.4075 6.2002 10.0933C6.2002 9.77915 6.44186 9.53749 6.75603 9.53749Z" fill="#06142E"/>
</svg>
