<svg width="24" height="24" viewBox="0 0 24 24" fill="none" xmlns="http://www.w3.org/2000/svg">
<circle cx="12" cy="12" r="12" fill="#13B5EC"/>
<path fill-rule="evenodd" clip-rule="evenodd" d="M13.0002 9.601L15.7002 8.01808V11.1839L13.0002 9.601ZM15.7002 16.3849L12.1002 18.4955L8.50023 16.3849V12.6915L12.1002 14.802L15.7002 12.6915V16.3849ZM8.50023 8.01808L11.2002 9.601L8.50023 11.1839V8.01808ZM12.5502 10.3548L15.2502 11.9377L12.5502 13.5206V10.3548ZM11.65 13.5206L8.94996 11.9377L11.65 10.3548V13.5206ZM15.25 7.26431L12.1 9.07336L8.94996 7.26431L12.1 5.37989L15.25 7.26431ZM7.6001 6.96281V16.8372L12.1001 19.4L16.6001 16.8372V6.96281L12.1001 4.39999L7.6001 6.96281Z" fill="white"/>
</svg>
