<svg width="24" height="24" viewBox="0 0 24 24" fill="none" xmlns="http://www.w3.org/2000/svg">
<circle cx="12" cy="12" r="12" fill="#EDF0F4"/>
<path fill-rule="evenodd" clip-rule="evenodd" d="M12.0349 6.28821C11.8949 6.77421 11.2349 7.43621 10.3669 7.99221L10.3329 8.02621C10.2989 8.13021 10.4729 8.40821 10.6809 8.30421C11.6809 7.64421 12.4529 6.87821 12.5929 6.32221C12.6969 5.87021 12.4189 5.66221 11.8289 5.62621C11.6429 5.62019 11.4568 5.63158 11.2729 5.66021H11.1329C11.7929 5.62621 12.1749 5.83421 12.0369 6.28621L12.0349 6.28821Z" fill="#1D1D1D"/>
<path fill-rule="evenodd" clip-rule="evenodd" d="M14.5727 6.95023C14.2607 8.13223 11.9307 9.97423 9.35872 11.0862C8.91947 11.2835 8.4654 11.446 8.00072 11.5722C7.95899 11.5828 7.92224 11.6076 7.89672 11.6422C7.79272 11.7822 7.82672 12.1282 8.07072 12.0942C8.52272 11.9609 9.00938 11.7869 9.53072 11.5722C12.2427 10.4262 14.7467 8.44423 15.0587 7.19823C15.1863 6.85322 15.0173 6.4692 14.6767 6.33023C14.5027 6.26023 14.2947 6.15623 14.1207 6.08623C14.2988 6.13752 14.4481 6.25969 14.5335 6.42417C14.619 6.58865 14.6331 6.781 14.5727 6.95623V6.95023Z" fill="#1D1D1D"/>
<path fill-rule="evenodd" clip-rule="evenodd" d="M17.7707 9.66221C17.7733 9.53147 17.7495 9.40155 17.7007 9.28021L17.6307 9.14021L17.3867 8.75821C17.4618 8.88424 17.498 9.02967 17.4907 9.17621C17.5465 9.35669 17.6414 9.52263 17.7687 9.66221H17.7707Z" fill="#1D1D1D"/>
<path fill-rule="evenodd" clip-rule="evenodd" d="M18.0492 10.6682C17.7012 11.9202 15.5472 13.7982 12.9392 15.1542C12.8402 15.1861 12.77 15.2743 12.7612 15.378C12.7524 15.4816 12.8067 15.5804 12.8989 15.6285C12.9911 15.6767 13.1032 15.6647 13.1832 15.5982C15.7552 14.2422 17.8752 12.4342 18.1832 11.1822C18.2444 11.0151 18.2562 10.8339 18.2172 10.6602C18.1832 10.4862 18.0772 10.2422 18.0432 10.0602C18.1163 10.2536 18.1163 10.4669 18.0432 10.6602L18.0492 10.6682Z" fill="#1D1D1D"/>
<path fill-rule="evenodd" clip-rule="evenodd" d="M15.8592 14.6662C15.7978 14.7212 15.7499 14.7897 15.7192 14.8662C15.6852 15.0062 15.7892 15.2142 15.9972 15.0662C17.2832 14.1282 18.2212 13.1202 18.3972 12.3542C18.4239 12.2518 18.4354 12.146 18.4312 12.0402V11.8402L18.4012 11.4342C18.4059 11.5744 18.3945 11.7147 18.3672 11.8522C18.1672 12.6522 17.1852 13.6942 15.8652 14.6682L15.8592 14.6662Z" fill="#1D1D1D"/>
<path fill-rule="evenodd" clip-rule="evenodd" d="M8.69911 8.30623C9.00978 8.17642 9.31116 8.0254 9.60111 7.85423C9.62669 7.83257 9.64144 7.80075 9.64144 7.76723C9.64144 7.73371 9.62669 7.70189 9.60111 7.68023C9.55496 7.61552 9.48059 7.57684 9.40111 7.57623C9.1651 7.71709 8.92138 7.84462 8.67111 7.95823C7.87111 8.30623 7.24511 8.34023 7.10711 8.13223C7.05925 8.0603 7.04674 7.9705 7.07311 7.88823C7.12139 7.76259 7.18886 7.6452 7.27311 7.54023L7.75911 7.05423C8.2252 6.72257 8.72618 6.44291 9.25311 6.22023C9.33402 6.14528 9.42834 6.08625 9.53111 6.04623C10.3311 5.80223 10.8531 5.87223 10.7471 6.24623C10.7066 6.40512 10.622 6.54933 10.5031 6.66223C10.6477 6.75382 10.8245 6.77929 10.9891 6.73223C11.1355 6.58736 11.2428 6.40778 11.3011 6.21023C11.4411 5.75823 10.8831 5.61023 10.0491 5.86223C9.98086 5.88078 9.91403 5.90417 9.84911 5.93223L9.64911 6.00223C9.58623 6.03522 9.51884 6.0588 9.44911 6.07223C9.37919 6.10025 9.3122 6.13509 9.24911 6.17623C9.17911 6.21023 9.14511 6.21023 9.07511 6.24623C9.00511 6.28223 8.97111 6.28023 8.90111 6.31623C8.84642 6.35615 8.78817 6.39096 8.72711 6.42023L8.58711 6.49023C8.53788 6.50655 8.49136 6.53014 8.44911 6.56023C8.39547 6.58338 8.34815 6.61905 8.31111 6.66423C8.25848 6.69006 8.21103 6.72531 8.17111 6.76823C8.10111 6.80223 8.10111 6.83823 8.03111 6.87223C7.97851 6.8981 7.93106 6.93334 7.89111 6.97623C7.83853 7.00213 7.79109 7.03737 7.75111 7.08023C7.68111 7.15023 7.64711 7.15023 7.57711 7.22023C7.50711 7.29023 7.47311 7.29023 7.40311 7.36023C7.22931 7.47225 7.07635 7.6137 6.95111 7.77823C6.86167 7.86574 6.79328 7.97242 6.75111 8.09023C6.75111 8.12423 6.71711 8.16023 6.71711 8.19423V8.26423C6.7085 8.34712 6.72016 8.43086 6.75111 8.50823C6.95111 8.78623 7.75111 8.70823 8.73311 8.30823L8.69911 8.30623Z" fill="#1D1D1D"/>
<path fill-rule="evenodd" clip-rule="evenodd" d="M5.95095 9.45225V9.52225C5.95434 9.54867 5.96628 9.57325 5.98495 9.59225C6.18495 9.83625 6.68095 9.87025 7.02695 9.79225C8.24295 9.65425 8.27895 9.44425 8.27895 9.30625C8.27895 9.30625 8.27895 9.06225 8.13895 9.06225C7.16495 9.37425 6.47095 9.37425 6.26095 9.09625C6.20953 8.97571 6.19763 8.84198 6.22695 8.71425C6.26647 8.6075 6.31255 8.5033 6.36495 8.40225C6.39895 8.33225 6.46895 8.26425 6.53895 8.15825L6.43495 8.26225C6.3868 8.33688 6.32821 8.40423 6.26095 8.46225C6.21054 8.52621 6.16379 8.59298 6.12095 8.66225C6.08695 8.73225 6.01695 8.83625 5.98095 8.90625C5.94495 8.97625 5.94695 9.01025 5.91095 9.08025C5.91575 9.11826 5.90328 9.15642 5.87695 9.18425C5.89557 9.26686 5.91894 9.34833 5.94695 9.42825L5.95095 9.45225Z" fill="#1D1D1D"/>
<path fill-rule="evenodd" clip-rule="evenodd" d="M9.15106 10.3982C11.4791 9.41822 13.6011 7.74822 13.8771 6.67222C13.9811 6.29022 13.8431 6.01222 13.4591 5.90822C13.3791 5.88025 13.2977 5.85688 13.2151 5.83822C13.1454 5.81691 13.0737 5.8035 13.0011 5.79822C13.1471 5.83313 13.2701 5.93083 13.3373 6.0651C13.4044 6.19938 13.4087 6.35647 13.3491 6.49422C13.0711 7.46822 11.1591 8.99822 9.03906 9.89422C7.37106 10.5902 6.08506 10.6942 5.73706 10.2422C5.64157 10.0991 5.61584 9.92048 5.66706 9.75622C5.70106 9.68622 5.70106 9.61622 5.73706 9.55622C5.66706 9.73022 5.56306 9.97422 5.49306 10.1562C5.49306 10.1902 5.45906 10.2262 5.45906 10.2602C5.45906 10.2942 5.42506 10.3642 5.42506 10.4002C5.38326 10.5481 5.42281 10.7071 5.52906 10.8182C5.88306 11.2942 7.30706 11.1982 9.15106 10.3982Z" fill="#1D1D1D"/>
<path fill-rule="evenodd" clip-rule="evenodd" d="M5.15273 12.9982C5.14793 13.0362 5.1604 13.0744 5.18673 13.1022V13.1722C5.18673 13.1982 5.22073 13.1982 5.22073 13.2422L5.18673 13.1982C5.22073 13.2322 5.22073 13.3022 5.25673 13.3362C5.74273 13.9982 7.58473 13.8682 9.94873 12.8582C12.9727 11.5722 15.7207 9.41823 16.1027 7.99823C16.2104 7.69399 16.1325 7.35489 15.9027 7.12823L15.6247 6.88423L15.4247 6.74623C15.6363 6.88132 15.7562 7.12197 15.7367 7.37223C15.6327 9.56223 7.15073 14.7722 5.23873 12.7602C5.15102 12.6382 5.10222 12.4925 5.09873 12.3422C5.09271 12.5282 5.1041 12.7144 5.13273 12.8982V12.9322C5.15237 12.9505 5.16449 12.9755 5.16673 13.0022L5.15273 12.9982Z" fill="#1D1D1D"/>
<path fill-rule="evenodd" clip-rule="evenodd" d="M10.5051 13.9982C13.7051 12.6422 16.6231 10.3482 17.0411 8.85222C17.1383 8.58447 17.0995 8.28623 16.9371 8.05222C16.8074 7.89296 16.6678 7.742 16.5191 7.60022C16.7191 7.80022 16.7631 8.08622 16.6931 8.43422C16.3111 9.89422 13.4251 12.1542 10.2931 13.4742C7.82915 14.5282 5.95115 14.7022 5.43115 13.9982C5.36799 13.9322 5.33102 13.8455 5.32715 13.7542C5.36864 13.9586 5.42684 14.1593 5.50115 14.3542V14.4582C5.53515 14.4922 5.53515 14.5282 5.57115 14.5622C6.02315 15.2582 7.97115 15.0842 10.5071 14.0062L10.5051 13.9982Z" fill="#1D1D1D"/>
<path fill-rule="evenodd" clip-rule="evenodd" d="M6.05727 15.7442C6.05727 15.7102 6.02327 15.7102 6.02327 15.6742C6.0194 15.7023 6.03282 15.7299 6.05727 15.7442Z" fill="#1D1D1D"/>
<path fill-rule="evenodd" clip-rule="evenodd" d="M11.1308 15.2222C13.0428 14.3882 14.8848 13.2402 16.1308 12.1282C16.2141 12.0336 16.2407 11.9018 16.2008 11.7822C16.1786 11.7132 16.1269 11.6577 16.0596 11.6307C15.9924 11.6036 15.9166 11.6078 15.8528 11.6422C14.3547 12.9239 12.6683 13.9675 10.8528 14.7362C8.28081 15.7802 6.29881 15.9542 5.77881 15.2222C5.83975 15.3192 5.88687 15.4242 5.91881 15.5342C5.9222 15.5606 5.93414 15.5852 5.95281 15.6042C5.95281 15.6382 5.98681 15.6382 5.98681 15.6742C5.98681 15.6402 5.95281 15.6402 5.95281 15.6042C5.95281 15.6382 5.98681 15.6382 5.98681 15.6742C6.47281 16.4742 8.48881 16.3342 11.1308 15.2222Z" fill="#1D1D1D"/>
<path fill-rule="evenodd" clip-rule="evenodd" d="M8.97679 17.1342C9.11679 17.1002 9.08079 16.9942 9.04679 16.9342C8.96202 16.8066 8.81794 16.7312 8.66479 16.7342C7.58679 16.9082 6.82279 16.8042 6.50879 16.4202V16.3702C6.58386 16.4443 6.6509 16.5261 6.70879 16.6142C6.77879 16.6842 6.84879 16.7882 6.90879 16.8582C7.18679 17.2062 7.90879 17.3102 8.96079 17.1362L8.97679 17.1342Z" fill="#1D1D1D"/>
<path fill-rule="evenodd" clip-rule="evenodd" d="M12.0008 17.2742C12.1064 17.245 12.1689 17.1362 12.1408 17.0302C12.0503 16.8913 11.8678 16.8459 11.7228 16.9262C9.63678 17.7602 8.03878 17.8982 7.44678 17.4122C7.61721 17.5299 7.77957 17.6589 7.93278 17.7982C8.53278 18.2142 10.0528 18.0422 12.0008 17.2782V17.2742Z" fill="#1D1D1D"/>
<path fill-rule="evenodd" clip-rule="evenodd" d="M8.62891 18.2122C8.82098 18.2908 9.00684 18.3837 9.18491 18.4902C9.84491 18.7682 11.2349 18.5602 12.9749 17.8302C15.6149 16.7182 18.0149 14.7982 18.3269 13.5982C18.3221 13.5602 18.3346 13.5221 18.3609 13.4942C18.3949 13.3542 18.3949 13.1462 18.4309 12.9722V12.8602C18.0829 15.2602 10.9569 19.1862 8.63091 18.2142L8.62891 18.2122Z" fill="#1D1D1D"/>
<path fill-rule="evenodd" clip-rule="evenodd" d="M13.2867 18.1082C11.8267 18.7342 10.6107 18.9422 9.94873 18.7682C10.1227 18.8022 10.4007 18.8722 10.5747 18.9062C12.3747 19.1842 16.9747 16.9242 17.9447 14.8742C18.0147 14.7002 18.0847 14.4582 18.1447 14.2742C17.8007 15.3982 15.6507 17.1002 13.2867 18.1082Z" fill="#1D1D1D"/>
<path fill-rule="evenodd" clip-rule="evenodd" d="M16.4506 16.8562C15.6363 17.5003 14.7355 18.0268 13.7746 18.4202C12.8006 18.8382 11.9746 19.0202 11.4106 18.9762H12.1066C12.7554 18.8981 13.3886 18.7221 13.9846 18.4542C14.8273 18.0866 15.6213 17.6164 16.3486 17.0542C16.4526 16.9842 16.4866 16.8802 16.5226 16.8802C16.5226 16.8462 16.5566 16.8462 16.5566 16.8102V16.7882C16.4866 16.8222 16.4526 16.8222 16.4526 16.8582L16.4506 16.8562Z" fill="#1D1D1D"/>
<path fill-rule="evenodd" clip-rule="evenodd" d="M5.1527 11.6762V11.8502C5.14882 11.8783 5.16224 11.9059 5.1867 11.9202V11.9542C5.1867 11.9982 5.2207 11.9982 5.2207 12.0242V12.0582C5.28595 12.1424 5.36936 12.2108 5.4647 12.2582C5.53637 12.2324 5.57988 12.1596 5.5687 12.0842C5.58851 11.956 5.57684 11.8249 5.5347 11.7022C5.43275 11.6657 5.34656 11.595 5.2907 11.5022C5.21546 11.3763 5.17927 11.2308 5.1867 11.0842C5.19459 11.0256 5.20594 10.9675 5.2207 10.9102V10.9802L5.1867 11.2242L5.1167 11.5722C5.1507 11.5722 5.1507 11.6422 5.1507 11.6762H5.1527Z" fill="#1D1D1D"/>
<path fill-rule="evenodd" clip-rule="evenodd" d="M18.2566 16.3362C18.1129 16.23 17.9108 16.2575 17.8006 16.3982C17.1839 17.2943 16.3792 18.045 15.4426 18.5982C14.3422 19.231 13.096 19.5667 11.8266 19.5722H11.8006C9.48106 19.5756 7.29756 18.4779 5.91661 16.6142H5.88261C5.88261 16.5955 5.86739 16.5802 5.84861 16.5802L5.81461 16.5462C5.78655 16.5501 5.75892 16.5367 5.74461 16.5122H5.54461C5.51655 16.5084 5.48892 16.5218 5.47461 16.5462H5.43061V16.5782C5.41184 16.5782 5.39661 16.5935 5.39661 16.6122L5.36261 16.6462C5.36649 16.6743 5.35307 16.7019 5.32861 16.7162V18.1422C5.32861 18.2345 5.36528 18.323 5.43054 18.3883C5.4958 18.4536 5.58432 18.4902 5.67661 18.4902C5.7706 18.4962 5.8626 18.4614 5.9292 18.3948C5.99579 18.3282 6.03054 18.2362 6.02461 18.1422V17.7602C7.54113 19.3668 9.65539 20.2733 11.8646 20.2642H11.8986C13.2806 20.2611 14.6366 19.8889 15.8266 19.1862C16.8649 18.6054 17.7479 17.7829 18.4006 16.7882C18.4773 16.624 18.4167 16.4284 18.2606 16.3362H18.2566Z" fill="#407BA4"/>
<path fill-rule="evenodd" clip-rule="evenodd" d="M11.4789 4.65623V4.58623C11.4828 4.55817 11.4694 4.53053 11.4449 4.51623C11.4471 4.4858 11.4293 4.45748 11.4009 4.44623L11.3669 4.41223C11.3669 4.37823 11.3329 4.37823 11.2969 4.37823L11.2629 4.34423L10.0549 3.64823C9.97785 3.59975 9.88354 3.58712 9.79642 3.61359C9.70931 3.64007 9.63798 3.70306 9.60092 3.78623C9.55329 3.86341 9.54135 3.95742 9.56818 4.04405C9.59502 4.13069 9.658 4.20149 9.74092 4.23823L10.1229 4.43823C9.29387 4.6227 8.49706 4.9301 7.75892 5.35023C6.57949 6.05489 5.59872 7.04804 4.90892 8.23623C3.53589 10.5513 3.4312 13.4048 4.63092 15.8142C4.69735 15.9228 4.81566 15.9888 4.94292 15.9882C4.99148 15.9933 5.04027 15.9813 5.08092 15.9542C5.1653 15.9191 5.22972 15.8483 5.25676 15.761C5.2838 15.6737 5.27067 15.5789 5.22092 15.5022C3.51089 12.041 4.7718 7.84674 8.10692 5.90223C9.03871 5.3533 10.0874 5.03321 11.1669 4.96823C11.2049 4.97303 11.2431 4.96056 11.2709 4.93423C11.3049 4.90023 11.3409 4.90023 11.3749 4.86423L11.4009 4.83023L11.4449 4.79823V4.76023C11.441 4.73217 11.4545 4.70453 11.4789 4.69023V4.65623Z" fill="#D37D41"/>
<path fill-rule="evenodd" clip-rule="evenodd" d="M20.1689 14.6662C20.0768 14.5101 19.8812 14.4496 19.7169 14.5262L19.4009 14.7022C20.0992 12.558 19.8458 10.2174 18.7049 8.27222C17.3792 6.03862 15.0714 4.5674 12.4869 4.30822C12.3984 4.30043 12.3105 4.32985 12.2445 4.38941C12.1785 4.44897 12.1403 4.53332 12.1389 4.62222C12.1312 4.71045 12.1603 4.79796 12.2194 4.86391C12.2786 4.92986 12.3624 4.96835 12.4509 4.97022C14.8224 5.18725 16.9445 6.53226 18.1529 8.58422C19.3286 10.6532 19.4446 13.1595 18.4649 15.3282V15.5722C18.4605 15.6004 18.4741 15.6283 18.4989 15.6422V15.6762L18.5329 15.7102V15.7442C18.5669 15.7782 18.6029 15.7782 18.6369 15.8142H18.8809C18.8997 15.8142 18.9149 15.799 18.9149 15.7802L20.0629 15.1202C20.1968 15.011 20.2396 14.825 20.1669 14.6682L20.1689 14.6662Z" fill="#E9B520"/>
</svg>
