<svg width="24" height="24" viewBox="0 0 24 24" fill="none" xmlns="http://www.w3.org/2000/svg">
<circle cx="12" cy="12" r="12" fill="#24996E"/>
<path fill-rule="evenodd" clip-rule="evenodd" d="M12.3388 5.90796C12.5963 6.11038 13.0472 6.78418 13.298 7.27637C13.5565 7.78358 13.4929 8.11581 13.092 8.35193C12.951 8.43497 12.8254 8.44951 12.1198 8.4643C11.1895 8.48376 10.882 8.43573 10.6702 8.23785C10.5011 8.07989 10.4401 7.81849 10.5143 7.57054C10.5767 7.36231 11.1155 6.48467 11.3622 6.18949C11.6925 5.79417 12.0237 5.69874 12.3388 5.90796ZM14.421 10.1346C14.5766 10.2049 14.767 10.3507 14.9223 10.5184C15.1689 10.7848 17.5602 14.4377 17.8344 14.967C18.1973 15.6674 17.9508 16.268 17.2225 16.4577C16.9769 16.5217 16.2975 16.5312 12.0001 16.5312C7.70274 16.5312 7.0234 16.5217 6.77774 16.4577C6.06239 16.2714 5.81034 15.6864 6.14834 14.9967C6.36238 14.5599 8.78403 10.8461 9.04376 10.5563C9.30798 10.2616 9.55197 10.1108 9.87037 10.0456C9.9794 10.0233 10.9914 10.0086 12.1194 10.0131C14.1683 10.0212 14.1704 10.0213 14.421 10.1346Z" fill="white"/>
</svg>
