<svg width="24" height="24" viewBox="0 0 24 24" fill="none" xmlns="http://www.w3.org/2000/svg">
<circle cx="12" cy="12" r="12" fill="#EDF0F4"/>
<path fill-rule="evenodd" clip-rule="evenodd" d="M6.6001 6.40002V17.4976H17.5201V6.40002H6.6001ZM10.4175 7.68734H11.4385V8.75271H10.4175V7.68734ZM8.90838 7.68734H7.84301V8.75271H8.90838V7.68734ZM8.86416 10.262V11.3273H7.79879V10.262H8.86416ZM8.1538 16.1215H8.55332V15.722H8.1538V16.1215ZM8.90838 13.9907H7.84301V12.9698H8.90838V13.9907ZM10.7727 16.1215H11.1722V15.722H10.7727V16.1215ZM11.1722 13.6356H10.7727V13.2361H11.1722V13.6356ZM10.4175 11.3717H11.4829V10.3064H10.4175V11.3717ZM13.7471 16.1215H13.3476V15.722H13.7471V16.1215ZM13.3476 13.6356H13.7471V13.2361H13.3476V13.6356ZM13.7471 11.0166H13.3476V10.6171H13.7471V11.0166ZM13.0367 8.75271H14.102V7.68734H13.0367V8.75271ZM16.3658 16.1215H15.9663V15.722H16.3658V16.1215ZM15.9663 13.6356H16.3658V13.2361H15.9663V13.6356ZM16.3658 11.0166H15.9663V10.6171H16.3658V11.0166ZM15.9663 8.44196H16.3658V8.04245H15.9663V8.44196Z" fill="#202944"/>
</svg>
