<svg width="24" height="24" viewBox="0 0 24 24" fill="none" xmlns="http://www.w3.org/2000/svg">
<path fill-rule="evenodd" clip-rule="evenodd" d="M12 24C5.4 24 0 18.6001 0 11.9402C0.06 5.34038 5.4 -0.0595036 12.06 0.000495204C18.66 0.060494 24 5.40038 24 12.1202C23.94 18.6601 18.6 24 12 24Z" fill="#EDF0F4"/>
<mask id="mask0_300_12929" style="mask-type:alpha" maskUnits="userSpaceOnUse" x="6" y="6" width="12" height="12">
<path fill-rule="evenodd" clip-rule="evenodd" d="M6.7998 6.8H17.1998V17.2H6.7998V6.8Z" fill="white"/>
</mask>
<g mask="url(#mask0_300_12929)">
<path fill-rule="evenodd" clip-rule="evenodd" d="M9.88029 9.18908L12.2729 6.79675L17.1817 6.78115L17.1671 11.6903L14.0692 14.7882L11.6759 17.1815L6.78889 17.1743L6.78174 12.2873L9.88029 9.18908ZM16.4695 7.20008L12.446 7.21211L10.1801 9.47833H14.1912L16.4695 7.20008ZM9.46365 10.1943V14.2055L7.20426 16.4649L7.19808 12.4599L9.46365 10.1943ZM7.4987 16.7596L11.5037 16.7652L11.504 16.7655L13.7692 14.5002H9.7581L7.4987 16.7596ZM9.87989 14.0832V9.89432H14.0691V14.0832H9.87989ZM14.4853 9.77245V13.7839L16.7512 11.5177L16.7636 7.4942L14.4853 9.77245Z" fill="url(#paint0_linear_300_12929)"/>
</g>
<defs>
<linearGradient id="paint0_linear_300_12929" x1="6.78174" y1="12.025" x2="17.2685" y2="12.025" gradientUnits="userSpaceOnUse">
<stop stop-color="#3333FF"/>
<stop offset="1" stop-color="#8080FF"/>
</linearGradient>
</defs>
</svg>
