<svg width="24" height="24" viewBox="0 0 24 24" fill="none" xmlns="http://www.w3.org/2000/svg">
<path fill-rule="evenodd" clip-rule="evenodd" d="M12 24C5.4 24 0 18.6001 0 11.9402C0.06 5.34038 5.4 -0.0595036 12.06 0.000495204C18.66 0.060494 24 5.40038 24 12.1202C23.94 18.6601 18.6 24 12 24Z" fill="#0090FF"/>
<path fill-rule="evenodd" clip-rule="evenodd" d="M13.0412 10.5929L12.6843 12.5154L16.0751 12.9961L15.8371 13.8972L12.5058 13.4166C12.2679 14.1976 12.1489 15.0387 11.8515 15.7596C11.554 16.6007 11.2566 17.4418 10.8997 18.2228C10.4238 19.2442 9.59096 19.9651 8.46071 20.1453C7.80635 20.2655 7.0925 20.2054 6.55712 19.7849C6.37866 19.6647 6.2002 19.4244 6.2002 19.2442C6.2002 19.0039 6.31917 18.7035 6.49763 18.5833C6.61661 18.5232 6.91404 18.5833 7.0925 18.6434C7.27096 18.8236 7.44943 19.0639 7.5684 19.3042C7.92532 19.7849 8.40122 19.8449 8.87712 19.4845C9.4125 19.0039 9.70994 18.343 9.8884 17.6821C10.2453 16.2403 10.6022 14.8585 10.8997 13.4166V13.1763L7.74686 12.6957L7.86584 11.7945L11.1376 12.2751L11.554 10.4127L8.16327 9.872L8.28225 8.91075L11.792 9.39138C11.911 9.03091 11.9705 8.73052 12.0894 8.43013C12.3869 7.34873 12.6843 6.26732 13.3981 5.30608C14.112 4.34483 14.9448 3.74405 16.194 3.80413C16.7294 3.80413 17.2648 3.98436 17.6217 4.40491C17.6812 4.46499 17.8002 4.58514 17.8002 4.7053C17.8002 4.94561 17.8002 5.246 17.6217 5.42623C17.3838 5.60647 17.0863 5.54639 16.8484 5.30608C16.6699 5.12584 16.551 4.94561 16.3725 4.76538C16.0156 4.28475 15.4802 4.22467 15.0638 4.64522C14.7663 4.94561 14.4689 5.36615 14.2905 5.7867C13.874 7.04834 13.5766 8.37005 13.1602 9.69177L16.432 10.1724L16.194 11.0736L13.0412 10.5929Z" fill="white"/>
</svg>
