<svg width="24" height="24" viewBox="0 0 24 24" fill="none" xmlns="http://www.w3.org/2000/svg">
<path d="M12 24C18.6276 24 24 18.6276 24 12C24 5.3724 18.6276 0 12 0C5.3724 0 0 5.3724 0 12C0 18.6276 5.3724 24 12 24Z" fill="#EDF0F4"/>
<path d="M12.3189 13.8136V18.1712C12.3189 18.4025 12.1736 18.5133 11.9941 18.4156L9.52931 17.064C9.32976 16.9294 9.20824 16.706 9.20264 16.4653V12.2073C9.23862 12.2363 9.27695 12.2615 9.31714 12.284L12.3189 13.8136Z" fill="#425CC7"/>
<mask id="mask0_300_13084" style="mask-type:alpha" maskUnits="userSpaceOnUse" x="9" y="5" width="6" height="7">
<path fill-rule="evenodd" clip-rule="evenodd" d="M9.2002 5.40001H14.6956V11.7577H9.2002V5.40001Z" fill="white"/>
</mask>
<g mask="url(#mask0_300_13084)">
<path d="M9.47577 11.7313L14.4241 9.1941C14.589 9.08988 14.6914 8.90948 14.6956 8.71413V5.63009C14.6956 5.43894 14.5732 5.35108 14.4241 5.42726L9.86414 7.76588C9.39352 8.01824 9.17573 8.13695 9.20237 8.6702V11.5285C9.20237 11.7103 9.32669 11.808 9.47577 11.7313Z" fill="#005CB9"/>
</g>
<path d="M9.47555 8.20177L14.4238 10.739C14.5893 10.8442 14.6912 11.025 14.6954 11.2209V14.303C14.6954 14.4942 14.5729 14.5839 14.4238 14.5077L9.47555 11.97C9.30964 11.8658 9.20682 11.6849 9.20215 11.4886V8.40601C9.20215 8.2172 9.32646 8.12513 9.47555 8.20177Z" fill="#3CB4E5"/>
<path d="M9.47555 11.7313L12.9171 9.96661L9.47555 8.20189C9.4176 8.16357 9.34235 8.16357 9.2844 8.20189C9.2344 8.2935 9.20635 8.39538 9.20215 8.50006V11.4883C9.20402 11.5542 9.21757 11.6187 9.24234 11.6799C9.28767 11.7575 9.38722 11.7837 9.4648 11.7383C9.46807 11.736 9.47181 11.7337 9.47555 11.7313Z" fill="#00A0DF"/>
</svg>
