<svg width="24" height="24" viewBox="0 0 24 24" fill="none" xmlns="http://www.w3.org/2000/svg">
<circle cx="12" cy="12" r="12" fill="#EDF0F4"/>
<ellipse cx="11.9939" cy="12" rx="8.98266" ry="8.98266" fill="#FEFEFE"/>
<path d="M8.28324 15.9422C8.49133 15.9422 8.68786 15.8266 8.78035 15.6416L10.104 13.1272H8.0578C7.74566 13.1272 7.49711 12.8728 7.49711 12.5665V11.4393C7.49711 11.1272 7.75144 10.8786 8.0578 10.8786H11.2948L13.8092 6.11561C13.9075 5.93064 14.0983 5.81503 14.3064 5.81503H18.5434C16.9017 4.08092 14.5838 3 12.0058 3C7.03468 3 3 7.0289 3 12.0058C3 13.4162 3.3237 14.7572 3.90751 15.948H8.28324V15.9422Z" fill="#9B1C2E"/>
<path d="M15.7167 8.0578C15.5086 8.0578 15.312 8.17341 15.2195 8.35838L13.8959 10.8728H15.9421C16.2542 10.8728 16.5028 11.1272 16.5028 11.4335V12.5607C16.5028 12.8728 16.2485 13.1214 15.9421 13.1214H12.7051L10.1906 17.8844C10.0924 18.0694 9.90163 18.185 9.69354 18.185H5.45654C7.09816 19.9191 9.41608 21 11.9941 21C16.9652 21 20.9999 16.9711 20.9999 11.9942C20.9999 10.5838 20.6762 9.24277 20.0924 8.05202H15.7167V8.0578Z" fill="#9B1C2E"/>
</svg>
