<svg width="24" height="24" viewBox="0 0 24 24" fill="none" xmlns="http://www.w3.org/2000/svg">
<circle cx="12" cy="12" r="12" fill="#EDF0F4"/>
<ellipse cx="12.0003" cy="12" rx="7.2" ry="7.2" fill="#00AFEC"/>
<path fill-rule="evenodd" clip-rule="evenodd" d="M10.2154 9.91336L10.2357 9.91786V9.91831H10.237C9.75055 10.8989 9.15747 11.823 8.46854 12.6737L8.46539 12.6768C7.80889 12.5719 7.17699 12.3484 6.60059 12.0171V11.9091C6.63534 10.2564 7.42426 8.71037 8.74214 7.71241V7.71061C9.5174 7.12377 10.437 6.75759 11.4034 6.65086C11.1939 7.57039 10.896 8.46751 10.5138 9.32971H10.5115C10.4071 9.30406 10.3023 9.27931 10.1974 9.25681L10.0557 9.87466H10.0579V9.87736L10.2154 9.91336ZM13.9812 10.0395L13.9812 10.0395C13.9674 10.0687 13.9534 10.0984 13.9384 10.1226L13.8569 10.1019C13.2949 9.00886 12.9061 7.84876 12.6316 6.65086C13.3732 6.73231 14.0549 6.96721 14.7007 7.33981C14.6999 8.27179 14.4588 9.18781 14.0005 9.99932C13.994 10.0122 13.9876 10.0258 13.9812 10.0395ZM13.6163 10.8291C13.7346 10.8921 13.7787 10.9821 13.835 11.1585C13.9128 11.4249 13.8602 11.7053 13.8048 11.9685L14.4578 12.1202L14.6198 11.4168C15.279 12.4316 16.0103 13.4796 16.8981 14.3022C16.7447 14.6506 16.6468 14.7831 16.4329 15.0725L16.4 15.1172C14.9465 14.6699 13.3985 14.4327 11.8775 14.4476L12.0075 13.9278L11.5737 13.8266C11.5062 13.8095 11.4374 13.7793 11.3969 13.7199C11.346 13.6524 11.346 13.5633 11.3631 13.4837L11.6345 12.3038C11.6667 12.3115 11.6993 12.3186 11.7319 12.3258L11.732 12.3258C11.8415 12.3498 11.9517 12.3739 12.053 12.4221C12.1777 12.4722 12.2711 12.5786 12.3045 12.7088C12.3299 12.8365 12.2984 12.9606 12.2672 13.0839C12.2547 13.1334 12.2422 13.1827 12.2334 13.2321L12.8175 13.3671L13.3044 11.2575L13.2549 11.2409L13.2167 11.2337C13.3517 11.0919 13.4696 10.9659 13.5915 10.812L13.6167 10.8291H13.6163ZM8.49658 12.7929L8.48263 12.8122C8.04838 13.3473 7.59388 13.8679 7.08898 14.3359C7.20858 14.6125 7.29559 14.7244 7.43274 14.9007C7.47724 14.9579 7.52701 15.0219 7.58488 15.1005C8.38695 14.8582 9.20683 14.6793 10.0369 14.5654C10.0675 14.4324 10.0812 14.3691 10.1017 14.2741L10.1017 14.274L10.1017 14.274L10.1296 14.1451L9.13243 13.9143L9.17287 13.7404L9.17288 13.7404C9.20717 13.5933 9.2416 13.4457 9.27418 13.2982C9.35526 13.3138 9.43581 13.3327 9.51613 13.3516C9.5847 13.3677 9.65309 13.3838 9.72148 13.3977C9.79432 13.4156 9.87136 13.4023 9.93388 13.3608C9.99643 13.3149 10.0284 13.2393 10.0455 13.1664L10.1413 12.7983C10.1094 12.7996 10.077 12.8028 10.0455 12.8073C9.63193 12.8658 9.22873 12.8577 8.81338 12.8208C8.76942 12.8162 8.72959 12.8147 8.69091 12.8132C8.62743 12.8108 8.56704 12.8086 8.49658 12.7929ZM10.7979 14.299L11.198 14.3917L11.1845 14.4709L10.7574 14.5015L10.7979 14.299ZM10.1536 12.6804C10.1223 12.6815 10.0911 12.6842 10.06 12.6885L10.0596 12.689C9.64603 12.747 9.22708 12.7574 8.81083 12.7191C8.78052 12.716 8.75968 12.7142 8.74321 12.7127C8.69832 12.7088 8.68602 12.7078 8.60338 12.6903C9.28627 11.851 9.87368 10.9383 10.3548 9.96915C10.3596 9.97004 10.3725 9.96703 10.3854 9.964C10.3989 9.96084 10.4125 9.95766 10.4173 9.9588C10.4608 9.96895 10.4661 9.96994 10.4712 9.9713C10.4763 9.97265 10.4813 9.97435 10.524 9.9858L10.5406 9.9912C10.6143 10.016 10.6722 10.0738 10.6972 10.1474C10.7222 10.2265 10.7029 10.3056 10.6836 10.3847C10.6782 10.4069 10.6729 10.429 10.6684 10.4511L10.1536 12.6786V12.6804Z" fill="white"/>
<path d="M11.2036 9.48765V9.48945C11.2828 9.1551 11.3571 8.8194 11.4381 8.4855L12.1032 8.6385L11.8719 9.6429L12.2701 9.7356C12.3097 9.56865 12.3489 9.40125 12.3871 9.23385L12.4452 8.98275L12.5032 8.73165L13.1679 8.8833C13.1589 8.9283 13.149 8.9733 13.1391 9.0183C13.0747 9.30945 13.0032 9.5979 12.9388 9.88995L13.7043 10.0681C13.1422 8.97465 12.7701 7.83165 12.496 6.63375C12.3241 6.6135 12.2517 6.62025 12.0775 6.6171H11.9713C11.7805 6.6171 11.7099 6.61215 11.5227 6.63375C11.3121 7.5531 11.0637 8.51745 10.6812 9.37965L11.2036 9.48765Z" fill="white"/>
<path fill-rule="evenodd" clip-rule="evenodd" d="M14.8185 7.42351C15.8053 7.99501 16.4691 8.77891 16.9348 9.82021V9.81976C17.2251 10.4729 17.3834 11.177 17.4006 11.8916V12.1449C17.3848 12.8487 17.2309 13.5422 16.9483 14.1866C16.0623 13.3631 15.3283 12.2462 14.6704 11.2319L14.8693 10.3377V10.3346C14.6324 10.2814 14.4639 10.2446 14.2588 10.1999L14.0593 10.1564C14.0822 10.1031 14.1076 10.051 14.1354 10.0002C14.5935 9.18796 14.8176 8.35591 14.8185 7.42351ZM11.7795 11.6845L12.0882 10.3462L12.8424 10.5217C13.0616 10.5621 13.274 10.6331 13.4733 10.7328C13.3709 10.8621 13.2461 10.9953 13.1286 11.1207L13.0638 11.19L13.0557 11.1963L13.0545 11.1976C13.054 11.1966 13.0523 11.1955 13.0485 11.1949L12.7227 11.1121C12.7086 11.1634 12.6972 11.2154 12.6857 11.2675L12.6857 11.2675C12.6708 11.3352 12.6558 11.403 12.635 11.4699C12.5968 11.5993 12.4968 11.7012 12.3681 11.7417C12.2049 11.7875 12.0398 11.7473 11.879 11.7081C11.8457 11.6999 11.8125 11.6918 11.7795 11.6845ZM13.0532 11.2006C13.054 11.2002 13.0552 11.1989 13.0545 11.1976C13.0521 11.2002 13.0524 11.2009 13.0532 11.2006ZM6.60059 12.135V12.2129C6.61094 12.9324 6.76484 13.5242 7.05284 14.1839C7.53062 13.7431 7.97452 13.267 8.38079 12.7596C7.72604 12.6552 7.17434 12.468 6.60059 12.135ZM11.6326 15.5505L11.859 14.565C13.3806 14.5502 14.8953 14.7706 16.3495 15.2184C15.3569 16.5627 13.7996 17.374 12.129 17.4171H11.908C10.2245 17.3869 8.65119 16.574 7.6524 15.2184C8.41965 14.9817 9.20535 14.8085 10.0014 14.7005C9.96493 14.8468 9.93232 14.9918 9.89897 15.1401L9.89655 15.1509L10.5652 15.3044H10.5661L10.7236 14.619L11.1489 14.5889L10.963 15.3975L11.6313 15.5505H11.6326Z" fill="white"/>
</svg>
