<svg width="24" height="24" viewBox="0 0 24 24" fill="none" xmlns="http://www.w3.org/2000/svg">
<circle cx="12" cy="12" r="12" fill="#EDF0F4"/>
<path d="M9.85621 9.03521L9.77857 9.11285L7.9998 10.8916L7.46334 11.4281C7.43508 11.4698 7.39915 11.5057 7.35746 11.534C7.19138 11.643 6.96833 11.5969 6.85913 11.4309C6.81957 11.3716 6.7989 11.3017 6.79983 11.2304V9.54343C6.83023 8.71961 7.50718 8.06762 8.33155 8.06818H9.85621L9.41152 8.51993L8.89624 9.03521H9.85621Z" fill="url(#paint0_linear_300_13341)"/>
<path d="M17.1477 10.0093V10.1222C17.122 11.0811 16.7511 11.9985 16.103 12.7057L11.0561 17.7526C10.7765 18.0025 10.4147 18.1407 10.0397 18.1408C9.93798 18.1388 9.83653 18.1294 9.73618 18.1126L9.43972 18.0208C9.12267 17.9107 8.8137 17.7787 8.51505 17.6255L8.45152 17.5903C8.39616 17.5488 8.36454 17.4829 8.36681 17.4138C8.3661 17.3657 8.38096 17.3186 8.40917 17.2797L14.0702 11.6116C14.0977 11.5817 14.1214 11.5485 14.1408 11.5128C14.176 11.4452 14.2043 11.3743 14.2255 11.301C14.236 11.2546 14.2431 11.2074 14.2466 11.1599C14.2529 11.1297 14.2552 11.0989 14.2537 11.0681C14.2537 10.5457 13.8302 10.1222 13.3078 10.1222H11.2397L12.6302 8.7317C12.6719 8.70344 12.7078 8.66751 12.7361 8.62582C12.7735 8.56675 12.7931 8.49812 12.7926 8.42818C12.7926 8.22937 12.6314 8.06819 12.4326 8.06819H9.48207C9.48207 8.06819 9.76442 7.75761 9.87736 7.64468C10.1315 7.36939 10.442 7.01646 10.7809 6.76941C11.464 6.26696 12.2904 5.99724 13.1384 6.00002C13.6406 6.00065 14.1383 6.09397 14.6066 6.27531L14.7972 6.35295C15.1362 6.50893 15.4521 6.71082 15.736 6.95293L15.7925 7.00234H15.7995C16.6564 7.76409 17.147 8.8557 17.1477 10.0023V10.0093Z" fill="url(#paint1_linear_300_13341)"/>
<path fill-rule="evenodd" clip-rule="evenodd" d="M9.50301 8.06818H13.0605C13.2594 8.06818 13.4205 8.22935 13.4205 8.42817C13.4221 8.49931 13.3998 8.56893 13.357 8.62581L11.8676 10.1222H8.01364C7.9196 10.1232 7.83421 10.0675 7.79716 9.98107C7.76011 9.89462 7.77868 9.79438 7.84424 9.72695L9.50301 8.06818ZM11.3453 8.87289C11.3491 8.99877 11.4523 9.09882 11.5782 9.09876C11.7029 9.09681 11.8025 8.99411 11.8005 8.86936C11.7986 8.74461 11.6959 8.64506 11.5711 8.64701C11.5286 8.64693 11.4869 8.65919 11.4511 8.68231C11.4226 8.70024 11.3985 8.72436 11.3805 8.75289C11.3584 8.78907 11.3462 8.83047 11.3453 8.87289Z" fill="#E35CC7"/>
<path d="M9.96201 8.06818H9.47497L7.83737 9.69871C7.76518 9.76942 7.74333 9.87695 7.7822 9.97023C7.82106 10.0635 7.9128 10.1237 8.01383 10.1222H8.76911L10.8232 8.06818H9.96201Z" fill="#8961D0"/>
<ellipse cx="11.5711" cy="8.87285" rx="0.225875" ry="0.225876" fill="#8961D0"/>
<ellipse opacity="0.48" cx="11.5711" cy="8.87285" rx="0.225875" ry="0.225876" fill="url(#paint2_linear_300_13341)"/>
<path opacity="0.48" d="M11.79 8.87285C11.7901 8.75081 11.6932 8.65079 11.5712 8.64697C11.4905 8.64912 11.4163 8.69152 11.3735 8.75991C11.4166 8.72263 11.4719 8.70252 11.5288 8.70344C11.6497 8.70344 11.7476 8.80141 11.7476 8.92226V8.92932C11.749 8.96664 11.7392 9.00351 11.7194 9.0352C11.7648 8.99344 11.7904 8.93449 11.79 8.87285Z" fill="#480061"/>
<path opacity="0.75" fill-rule="evenodd" clip-rule="evenodd" d="M9.50331 8.06818H13.0608C13.2597 8.06818 13.4208 8.22935 13.4208 8.42817C13.4224 8.49931 13.4001 8.56893 13.3573 8.62581L11.8679 10.1222H8.01394C7.92118 10.1204 7.83836 10.0637 7.80312 9.97784C7.76787 9.89202 7.78691 9.79346 7.85159 9.72695L9.50331 8.06818ZM11.4118 9.03258C11.4541 9.07494 11.5116 9.09874 11.5715 9.09874C11.6921 9.09181 11.7872 8.9936 11.7903 8.87286C11.7904 8.75082 11.6935 8.6508 11.5715 8.64699C11.5289 8.64691 11.4872 8.65917 11.4515 8.68228C11.423 8.70021 11.3988 8.72434 11.3809 8.75287C11.3588 8.78904 11.3466 8.83045 11.3456 8.87286C11.3456 8.93277 11.3694 8.99022 11.4118 9.03258Z" fill="url(#paint3_linear_300_13341)"/>
<path d="M9.96201 8.06818H9.47497L7.83737 9.69871C7.76518 9.76942 7.74333 9.87695 7.7822 9.97023C7.82106 10.0635 7.9128 10.1237 8.01383 10.1222H8.76911L10.8232 8.06818H9.96201Z" fill="url(#paint4_linear_300_13341)"/>
<path opacity="0.43" d="M12.2917 10.1222L13.3293 8.66107L11.8682 10.1222H12.2917Z" fill="url(#paint5_linear_300_13341)"/>
<defs>
<linearGradient id="paint0_linear_300_13341" x1="6.79983" y1="11.5931" x2="9.85621" y2="11.5931" gradientUnits="userSpaceOnUse">
<stop stop-color="#4750D9"/>
<stop offset="0.41" stop-color="#5C45DC"/>
<stop offset="1" stop-color="#8131E1"/>
</linearGradient>
<linearGradient id="paint1_linear_300_13341" x1="8.36681" y1="18.1408" x2="17.1477" y2="18.1408" gradientUnits="userSpaceOnUse">
<stop stop-color="#E96161"/>
<stop offset="0.2" stop-color="#E65B76"/>
<stop offset="0.61" stop-color="#DF4AAC"/>
<stop offset="1" stop-color="#D739E6"/>
</linearGradient>
<linearGradient id="paint2_linear_300_13341" x1="11.3445" y1="9.09625" x2="11.7913" y2="9.09625" gradientUnits="userSpaceOnUse">
<stop stop-color="#B100D3"/>
<stop offset="0.23" stop-color="#9C00C0"/>
<stop offset="0.69" stop-color="#67008E"/>
<stop offset="1" stop-color="#40006A"/>
</linearGradient>
<linearGradient id="paint3_linear_300_13341" x1="7.78595" y1="10.1222" x2="13.4208" y2="10.1222" gradientUnits="userSpaceOnUse">
<stop stop-color="#D0D7D3"/>
<stop offset="0.52" stop-color="#D9C5E8"/>
<stop offset="1" stop-color="#E3B1FF"/>
</linearGradient>
<linearGradient id="paint4_linear_300_13341" x1="7.76749" y1="10.1206" x2="10.8225" y2="10.1206" gradientUnits="userSpaceOnUse">
<stop stop-color="#B277EC"/>
<stop offset="0.77" stop-color="#9336E7"/>
<stop offset="1" stop-color="#8921E6"/>
</linearGradient>
<linearGradient id="paint5_linear_300_13341" x1="11.866" y1="10.1236" x2="13.33" y2="10.1236" gradientUnits="userSpaceOnUse">
<stop stop-opacity="0.5"/>
<stop offset="0.1" stop-color="#201322" stop-opacity="0.59"/>
<stop offset="0.25" stop-color="#4A2C4E" stop-opacity="0.72"/>
<stop offset="0.4" stop-color="#6D4173" stop-opacity="0.82"/>
<stop offset="0.55" stop-color="#885190" stop-opacity="0.9"/>
<stop offset="0.7" stop-color="#9B5DA4" stop-opacity="0.95"/>
<stop offset="0.85" stop-color="#A664B0" stop-opacity="0.99"/>
<stop offset="1" stop-color="#AA66B4"/>
</linearGradient>
</defs>
</svg>
