<svg width="24" height="24" viewBox="0 0 24 24" fill="none" xmlns="http://www.w3.org/2000/svg">
<circle cx="12" cy="12" r="12" fill="#00EF8B"/>
<rect x="13.8721" y="10.128" width="3.384" height="3.384" fill="white"/>
<path d="M10.4881 14.784C10.4881 15.48 9.91206 16.056 9.21606 16.056C8.52006 16.056 7.94406 15.48 7.94406 14.784C7.94406 14.088 8.52006 13.512 9.21606 13.512H10.4881V10.128H9.21606C6.64806 10.128 4.56006 12.216 4.56006 14.784C4.56006 17.352 6.64806 19.44 9.21606 19.44C11.7841 19.44 13.8721 17.352 13.8721 14.784V13.512H10.4881V14.784Z" fill="white"/>
<path d="M15.1443 8.42398H18.9603V5.03998H15.1443C12.5763 5.03998 10.4883 7.12798 10.4883 9.69598V10.128H13.8723V9.69598C13.8723 8.99998 14.4483 8.42398 15.1443 8.42398Z" fill="white"/>
<path d="M13.8723 10.128H10.4883V13.512H13.8723V10.128Z" fill="#16FF99"/>
</svg>
