<svg width="26" height="26" viewBox="0 0 26 26" fill="none" xmlns="http://www.w3.org/2000/svg">
<circle cx="13" cy="13" r="12" fill="black" stroke="black" stroke-width="1.2373"/>
<path fill-rule="evenodd" clip-rule="evenodd" d="M5.45262 7.31202C5.45684 7.30358 5.87427 6.85664 6.38024 6.32537L7.29521 5.34715L7.48073 5.52846C7.58193 5.62965 8.00779 6.03443 8.42522 6.43078C8.62568 6.62314 8.82712 6.81454 8.99263 6.9718C9.17177 7.14201 9.30884 7.27223 9.35705 7.32045L9.52992 7.48911L9.68172 7.39635C9.76604 7.34575 9.98108 7.22769 10.1666 7.13914C10.8075 6.81869 11.4358 6.62895 12.2031 6.51932C12.5236 6.47294 13.5608 6.48138 13.9066 6.53197C14.5728 6.62895 15.1462 6.80183 15.7618 7.08433C15.9642 7.17709 16.3268 7.37526 16.4702 7.47224C16.5208 7.51019 16.5756 7.53549 16.584 7.53127C16.5967 7.52706 17.0689 7.03795 17.6381 6.44343C18.2074 5.84469 18.6838 5.3598 18.7007 5.3598C18.726 5.3598 20.6234 7.15179 20.6403 7.19396C20.6445 7.20661 20.1596 7.72523 19.5651 8.34505L18.4814 9.47927L18.5616 9.61841C18.726 9.8967 19.0085 10.5039 19.1013 10.7737C19.7422 12.6163 19.5355 14.6149 18.5447 16.2635L18.4266 16.4575L18.6838 16.702C19.4597 17.4315 20.7288 18.65 20.733 18.6627C20.7372 18.688 18.8862 20.6233 18.8694 20.6149C18.8525 20.6065 17.1659 19.0042 16.7147 18.5657L16.5081 18.3633L16.3142 18.4814C15.5679 18.9325 14.6571 19.2403 13.7379 19.3458C13.2615 19.4048 12.4098 19.3837 11.9628 19.3036C11.0731 19.1434 10.2678 18.8398 9.58052 18.4013L9.44559 18.3169L9.30224 18.4603C9.22634 18.5404 8.72458 19.0675 8.18909 19.6283L7.2151 20.6444L7.15185 20.5896C6.98741 20.4547 5.26288 18.7892 5.2671 18.7765C5.26851 18.7751 5.2838 18.7589 5.31118 18.7298C5.44704 18.5855 5.88053 18.1251 6.39289 17.5917C7.00849 16.9466 7.51868 16.4069 7.52711 16.39C7.53555 16.3732 7.4976 16.2804 7.41327 16.137C7.24039 15.8461 7.038 15.4034 6.91994 15.0576C6.29169 13.2277 6.4983 11.2375 7.4976 9.58468L7.61144 9.39494L7.54819 9.33591C7.52204 9.31302 7.22208 9.02647 6.82721 8.64926C6.71284 8.54 6.59051 8.42314 6.46457 8.30288C5.90378 7.77161 5.4484 7.32467 5.45262 7.31202ZM15.281 9.7702C14.7287 9.38229 14.1299 9.1546 13.4595 9.07449C11.8404 8.88053 10.2677 9.73225 9.54243 11.1911C9.36112 11.5622 9.26414 11.8278 9.19246 12.1989C9.11657 12.5741 9.11657 13.2825 9.19246 13.662C9.4328 14.8552 10.1833 15.8503 11.2459 16.3942C12.7174 17.1448 14.4672 16.8918 15.6774 15.7618C17.0941 14.4336 17.3091 12.2663 16.1833 10.6725C15.9852 10.39 15.5635 9.96837 15.281 9.7702Z" fill="white"/>
</svg>
