<svg width="24" height="24" viewBox="0 0 24 24" fill="none" xmlns="http://www.w3.org/2000/svg">
<circle cx="12" cy="12" r="12" fill="#EDF0F4"/>
<path fill-rule="evenodd" clip-rule="evenodd" d="M12 0C18.6274 0 24 5.37258 24 12C24 18.6274 18.6274 24 12 24C5.37258 24 0 18.6274 0 12C0 5.37258 5.37258 0 12 0Z" fill="#1E9ADA"/>
<path fill-rule="evenodd" clip-rule="evenodd" d="M4.09224 18.8652C4.95011 16.1789 6.68548 10.7447 9.32122 6.70208L9.31792 6.69768C15.7827 6.39883 18.9601 8.67534 18.9601 8.67534C17.3813 4.33438 11.8966 4.4014 11.0495 4.43436C12.7887 2.52592 14.8279 1.3536 17.1692 1.74474C17.1692 1.74474 13.3128 -2.74235 8.17418 4.76946L8.1522 4.81451C1.58637 5.87475 0.449219 9.36862 0.449219 9.36862C2.55543 7.19209 6.35693 6.92401 7.06998 6.89105C5.51972 10.1619 3.40252 15.6949 3.80355 19.7601C3.88516 19.5137 3.98137 19.2124 4.09224 18.8652ZM10.8245 13.4085C11.1953 12.5161 12.0672 11.935 13.0336 11.9363C13.667 11.9357 14.2745 12.1873 14.7221 12.6355C15.1696 13.0836 15.4204 13.6915 15.4189 14.3249C15.4189 15.2913 14.8366 16.1624 13.9436 16.5319C13.0507 16.9015 12.0231 16.6965 11.3402 16.0127C10.6573 15.3289 10.4538 14.301 10.8245 13.4085Z" fill="#FEFEFE"/>
</svg>
