<svg width="24" height="24" viewBox="0 0 24 24" fill="none" xmlns="http://www.w3.org/2000/svg">
<circle cx="12" cy="12" r="12" fill="#EDF0F4"/>
<path fill-rule="evenodd" clip-rule="evenodd" d="M2.2002 12.1C2.2002 6.63239 6.63258 2.20001 12.1002 2.20001C17.5678 2.20001 22.0002 6.63239 22.0002 12.1C22.0002 17.5676 17.5678 22 12.1002 22C6.63258 22 2.2002 17.5676 2.2002 12.1ZM21.1343 12.1C21.1343 7.11071 17.0897 3.06607 12.1003 3.06607C7.11103 3.06607 3.06639 7.11071 3.06639 12.1C3.06639 17.0893 7.11103 21.134 12.1003 21.134C17.0897 21.134 21.1343 17.0893 21.1343 12.1Z" fill="#384A53"/>
<path d="M6.94005 18.3458C6.94005 18.3458 8.29009 17.0061 7.59649 16.5882C7.42309 16.2318 7.24969 16.5268 7.07629 17.1659C6.97721 17.5838 6.89051 16.3793 7.15061 16.2932C7.39832 16.1949 6.28361 15.2116 6.06067 15.1256C5.82534 15.0273 6.30838 14.806 6.92767 15.3837C7.53456 15.9614 7.52218 16.1212 7.59649 16.0351C7.67081 15.9491 7.62126 15.6418 7.50979 15.5066C7.39832 15.3714 6.89051 14.2898 6.96482 14.3144C7.03914 14.339 7.74512 15.1133 7.94329 15.6295C8.15385 16.1335 8.14146 14.6708 8.14146 14.6708C8.14146 14.6708 8.30247 14.0808 8.37679 13.9088C8.4511 13.7367 8.59973 14.3021 8.59973 14.3021C8.59973 14.3021 8.7112 14.9904 9.04561 15.2362C9.38003 15.482 9.29333 14.9043 9.29333 14.9043L9.16947 12.1389L9.75159 11.6226C9.75159 11.6226 9.68967 13.7982 10.0365 13.6752C10.3833 13.5523 10.4452 12.5936 10.4452 12.5936C10.4452 12.5936 10.6805 11.0327 10.6681 10.9466C10.6557 10.8606 10.9654 10.6885 10.9654 10.6885L11.7457 9.98793C11.7457 9.98793 11.7209 10.7623 12.0429 10.922C12.365 11.0941 12.3774 10.1231 12.3774 10.1231L12.4888 9.17672C12.4888 9.17672 16.7247 5.79668 17.5793 5.60002C18.3225 6.34978 18.3101 7.59117 18.0004 7.9599C17.7032 8.32863 14.9536 12.0037 14.9536 12.0037C14.9536 12.0037 13.7398 11.9176 13.5911 12.2618C13.4425 12.6059 14.6068 12.5199 14.6068 12.5199L12.687 15.0518C11.3493 14.5233 9.50388 15.4452 9.29333 15.777C9.29333 15.777 9.1447 15.986 9.59058 16.0105C10.0365 16.0351 13.2072 16.0597 13.2072 16.0597L11.9067 16.4039C11.9067 16.4039 9.38003 16.3793 9.15708 16.2564C8.93414 16.1335 9.07038 16.4653 9.07038 16.4653C9.07038 16.4653 9.51627 17.2396 10.408 17.4363C11.2998 17.633 9.51627 17.338 9.51627 17.338C9.51627 17.338 8.81029 17.1659 8.61211 16.6251C8.41394 16.0966 8.37679 16.7726 8.37679 16.7726C8.37679 16.7726 8.73597 17.5961 9.35525 17.7682C9.96215 17.9402 8.99607 17.7805 8.99607 17.7805C8.99607 17.7805 8.16623 17.4609 8.09192 17.2519C8.0176 17.043 7.88136 17.4855 7.88136 17.4855C7.88136 17.4855 7.15061 18.3704 6.95244 18.395C6.75427 18.4196 6.94005 18.3458 6.94005 18.3458Z" fill="#384A53"/>
<path d="M11.1141 13.3311C11.1141 13.3311 15.2385 8.36551 16.6877 7.35765C16.7496 7.32077 16.7372 7.39452 16.7372 7.39452C16.7372 7.39452 14 10.922 11.2627 13.368C10.9531 13.6507 11.1141 13.3311 11.1141 13.3311Z" fill="white"/>
</svg>
