<svg width="24" height="24" viewBox="0 0 24 24" fill="none" xmlns="http://www.w3.org/2000/svg">
<circle cx="12" cy="12" r="12" fill="#13B5EC"/>
<path fill-rule="evenodd" clip-rule="evenodd" d="M13.0002 9.60097L15.7002 8.01806V11.1839L13.0002 9.60097ZM15.7002 16.3849L12.1002 18.4954L8.50023 16.3849V12.6914L12.1002 14.802L15.7002 12.6914V16.3849ZM8.50023 8.01806L11.2002 9.60097L8.50023 11.1839V8.01806ZM12.5502 10.3547L15.2502 11.9376L12.5502 13.5205V10.3547ZM11.65 13.5205L8.94996 11.9376L11.65 10.3547V13.5205ZM15.25 7.26426L12.1 9.07331L8.94996 7.26426L12.1 5.37984L15.25 7.26426ZM7.6001 6.96278V16.8372L12.1001 19.4L16.6001 16.8372V6.96278L12.1001 4.39996L7.6001 6.96278Z" fill="white"/>
</svg>
