<svg width="25" height="24" viewBox="0 0 25 24" fill="none" xmlns="http://www.w3.org/2000/svg">
<path d="M24.9908 12.0005C24.9908 18.6267 19.6184 23.999 12.9893 24C6.36507 24 0.992693 18.6267 0.993653 11.9995C0.991733 5.37238 6.36411 0 12.9913 0C19.6184 0 24.9908 5.37333 24.9908 12.0005Z" fill="#02A6C2"/>
<path d="M10.3274 6.60069C13.3159 6.59978 16.3046 6.59978 19.2935 6.60069C19.2944 7.5667 19.2944 8.53253 19.2935 9.4982C16.3049 9.49912 13.3162 9.49912 10.3274 9.4982C10.3264 8.5322 10.3264 7.56636 10.3274 6.60069Z" fill="white"/>
<path d="M6.79721 10.5883C7.76138 10.5833 8.72571 10.5833 9.69021 10.5883C9.69521 11.5525 9.69521 12.5168 9.69021 13.4813C8.72575 13.4863 7.76142 13.4864 6.79721 13.4816C6.79221 12.5172 6.79221 11.5528 6.79721 10.5883Z" fill="white"/>
<path d="M10.3295 10.5883C12.4866 10.5837 14.6435 10.5837 16.8003 10.5883C16.8049 11.5525 16.8049 12.5168 16.8003 13.4813C14.6433 13.4858 12.4864 13.4858 10.3295 13.4813C10.325 12.5171 10.325 11.5528 10.3295 10.5883Z" fill="white"/>
<path d="M10.3323 14.5768C11.2949 14.5663 12.2572 14.5663 13.2195 14.5768C13.2295 15.5387 13.2296 16.5011 13.2199 17.4639C12.2573 17.4734 11.295 17.4733 10.3328 17.4634C10.3228 16.5016 10.3227 15.5394 10.3323 14.5768Z" fill="white"/>
</svg>
