<svg width="24" height="24" viewBox="0 0 24 24" fill="none" xmlns="http://www.w3.org/2000/svg">
<circle cx="12" cy="12" r="12" fill="#4096D0"/>
<path fill-rule="evenodd" clip-rule="evenodd" d="M14.3778 7.4H19.2491C19.4414 7.39875 19.5984 7.55343 19.6001 7.74575V12.4557C19.6001 12.6335 19.4538 12.7775 19.2738 12.7775H14.4888L12.9333 16.4H10.7111L12.1556 12.7775H8.37785V14.6442H10.7111L10.0443 16.4H6.7061C6.5246 16.4 6.3776 16.2545 6.3776 16.076V12.7782H4.6001L5.2676 11.0217H6.3776V7.72025C6.37884 7.54243 6.52378 7.39917 6.7016 7.4H13.6001L12.9333 9.15725H8.37785V11.0225H12.9333L14.3778 7.4ZM17.4312 11.0225C17.5865 11.0225 17.7117 10.898 17.7117 10.745L17.7125 9.43396C17.7104 9.27975 17.584 9.15629 17.4297 9.15796H15.9335L15.1557 11.0225H17.4312Z" fill="white"/>
</svg>
