<svg width="24" height="24" viewBox="0 0 24 24" fill="none" xmlns="http://www.w3.org/2000/svg">
<circle cx="12" cy="12" r="12" fill="#ED1968"/>
<path fill-rule="evenodd" clip-rule="evenodd" d="M16.7542 11.1203C16.7266 10.997 16.694 10.8749 16.6565 10.7543C16.6438 10.7643 16.5979 10.7996 16.5255 10.8554L16.525 10.8558L16.5249 10.8559C16.0162 11.2478 14.2059 12.6427 13.423 13.3148C13.047 12.8253 12.671 12.3546 12.295 11.8839C11.919 11.4132 11.543 10.9426 11.167 10.4531C11.486 10.2021 11.8119 9.95105 12.1405 9.69794C12.8965 9.11574 13.6668 8.52245 14.4005 7.89258L14.4004 7.89235L14.4002 7.89221C13.3476 6.53678 12.2949 5.18135 11.167 3.75062C11.167 3.71297 11.1482 3.69414 11.1294 3.67531C11.1106 3.65649 11.0918 3.63766 11.0918 3.60001H12.1446C14.0735 3.61804 15.9355 4.31064 17.4084 5.55802C18.1263 6.15208 18.7368 6.86535 19.2132 7.66665C19.7743 8.52926 20.1341 9.50738 20.266 10.5284C20.4674 11.7021 20.4419 12.9037 20.1908 14.0679C19.9755 15.0433 19.5663 15.9653 18.9876 16.779C18.4825 17.5601 17.8465 18.248 17.1077 18.8123C16.388 19.4384 15.5414 19.9009 14.6261 20.1678C13.9493 19.3394 13.3478 18.5864 12.7462 17.758C12.5214 17.5003 12.3201 17.2231 12.1446 16.9296C13.5868 16.9344 14.949 16.2662 15.8293 15.1222C16.2624 14.5673 16.5703 13.925 16.7317 13.2395C16.8715 12.6679 16.8791 11.9615 16.7542 11.1203ZM9.58778 20.2431C8.62704 19.9766 7.73121 19.5152 6.95585 18.8876C6.19185 18.2982 5.53111 17.5856 5.00071 16.779C4.43511 15.9304 4.02749 14.9864 3.79754 13.9926C3.53428 12.802 3.53428 11.5683 3.79754 10.3778C4.0219 9.37068 4.40251 8.40506 4.92551 7.51604C5.69118 6.28582 6.78516 5.29458 8.08382 4.65433C8.53988 4.4085 9.0183 4.20677 9.51258 4.05186C10.2646 4.95556 11.0165 5.93457 11.7685 6.91357C11.8061 6.98888 11.8625 7.04536 11.9189 7.10184C11.9753 7.15833 12.0317 7.21481 12.0693 7.29012C11.315 7.32178 10.5742 7.50086 9.88857 7.81727C9.28242 8.13462 8.74556 8.56986 8.30941 9.09751C7.88027 9.66564 7.54979 10.3021 7.33184 10.9802C7.13103 11.8001 7.15702 12.6592 7.40704 13.4654L10.6405 10.9049C11.0165 11.3944 11.3925 11.8651 11.7685 12.3358C12.1445 12.8064 12.5205 13.2771 12.8965 13.7666C12.5775 14.0176 12.2516 14.2686 11.923 14.5217L11.923 14.5217L11.923 14.5217C11.1671 15.1039 10.3968 15.6972 9.66298 16.3271C9.85266 16.5714 10.0448 16.818 10.2385 17.0667L10.239 17.0673C11.1201 18.1987 12.0336 19.3715 12.8965 20.5444C11.7847 20.676 10.6577 20.5734 9.58778 20.2431ZM14.8194 19.5119C14.2611 18.8319 13.722 18.1362 13.2027 17.4259L13.1756 17.3942C14.4077 17.1483 15.5091 16.4637 16.276 15.4671C16.7582 14.8486 17.101 14.1328 17.2806 13.369C17.5048 12.4509 17.4751 11.4889 17.1949 10.5864L16.952 9.80316L16.3083 10.31C16.0411 10.52 15.2387 11.1395 14.8741 11.4209C14.7759 11.4967 14.7095 11.548 14.6938 11.5601C14.2381 11.9141 13.8576 12.2168 13.5087 12.5052C13.3109 12.2529 13.0816 11.9645 12.7357 11.5315C12.3853 11.0924 12.1559 10.8048 11.9581 10.5525C12.2497 10.3264 12.6002 10.056 12.8421 9.86942C12.9982 9.74903 13.1091 9.66352 13.1297 9.64727C13.6865 9.21888 14.2326 8.77668 14.7675 8.32109L15.1766 7.97091L14.8457 7.54617C13.6147 5.96018 12.9086 5.05422 12.2115 4.16558C13.9841 4.19862 15.691 4.84282 17.0445 5.98955C17.7145 6.5433 18.2843 7.20845 18.7289 7.95585C19.2498 8.7524 19.5843 9.65652 19.7073 10.6007C19.899 11.7265 19.8757 12.8554 19.6396 13.9489C19.4404 14.849 19.0624 15.6998 18.5282 16.4506C18.0553 17.1854 17.459 17.8326 16.7655 18.3635C16.1935 18.8638 15.5336 19.2533 14.8194 19.5119Z" fill="white"/>
</svg>
