<svg width="24" height="24" viewBox="0 0 24 24" fill="none" xmlns="http://www.w3.org/2000/svg">
<rect width="24" height="24" rx="12" fill="#181818"/>
<path d="M6.09264 11.1436H4.40015V10.1324H6.09264C6.09264 10.1047 6.09264 10.0818 6.09264 10.0588C6.09698 9.7637 6.08962 9.46833 6.10816 9.17374C6.14381 8.60805 6.28888 8.07504 6.62954 7.61C6.98624 7.12305 7.47789 6.84447 8.05661 6.70538C8.52814 6.59227 9.00611 6.58072 9.48711 6.62153C9.98511 6.66474 10.4746 6.77719 10.9414 6.95561C10.9677 6.96559 10.994 6.97674 11.026 6.98973L10.7398 7.90275C10.6719 7.87651 10.6082 7.85026 10.5434 7.82638C9.92628 7.59714 9.28929 7.5377 8.64217 7.63821C7.90562 7.75224 7.46092 8.21558 7.34005 8.95237C7.29638 9.21967 7.29993 9.48801 7.2998 9.75688C7.2998 9.87878 7.2998 10.0008 7.2998 10.1293H10.2978V11.1374H7.3048V17.3835H6.09264V11.1436Z" fill="white"/>
<path fill-rule="evenodd" clip-rule="evenodd" d="M12.6916 16.9154L12.4173 17.1364L12.4164 17.1371C12.3056 17.2263 12.1954 17.315 12.0902 17.4C10.4025 15.8687 10.2148 12.9267 12.0835 11.1464C12.1953 11.236 12.3114 11.3301 12.4277 11.4245L12.4278 11.4246C12.5144 11.4948 12.6011 11.5652 12.6863 11.6338L12.6741 11.6478C12.626 11.7029 12.58 11.7555 12.5347 11.8086C12.1269 12.2864 11.8444 12.8132 11.7252 13.4331C11.6501 13.8239 11.6363 14.2175 11.664 14.6141C11.6951 15.0602 11.7981 15.4883 11.99 15.8937C12.1572 16.2425 12.3743 16.5652 12.6345 16.8516C12.6458 16.8636 12.6566 16.8758 12.6697 16.8908L12.6698 16.8908L12.6916 16.9154ZM15.7863 14.2834C15.7838 14.2792 15.7817 14.2749 15.78 14.2703C15.7817 14.2658 15.7838 14.2614 15.7863 14.2572C15.9624 13.9402 16.1426 13.6135 16.3218 13.2885L16.322 13.288C16.4425 13.0695 16.5626 12.8518 16.6807 12.6383C16.7341 12.5416 16.7896 12.4439 16.8459 12.3448L16.8459 12.3447C16.9088 12.2341 16.9727 12.1217 17.0358 12.0068H15.8915C15.8915 12.0068 15.3854 13.1353 15.1549 13.6386H15.1286C14.8741 13.132 14.3263 12.0068 14.3263 12.0068L13.1222 12.0002C13.139 12.032 13.9962 13.5626 14.3921 14.2572L14.3993 14.2703L14.3921 14.2834C13.9962 14.968 13.1259 16.529 13.109 16.5602L14.3263 16.5538C14.3263 16.5538 14.8741 15.4446 15.1286 14.946H15.1549C15.3854 15.442 15.8915 16.5544 15.8915 16.5544H17.0489C17.0147 16.4931 16.9216 16.3251 16.7991 16.1041L16.799 16.104L16.799 16.104C16.4909 15.5482 15.997 14.6573 15.7863 14.2834ZM17.7555 17.1529C17.6569 17.0735 17.5577 16.9936 17.4608 16.9154C17.4644 16.9113 17.4677 16.9075 17.4709 16.9038C17.4893 16.8826 17.5028 16.867 17.5174 16.8516C17.7776 16.5652 17.9947 16.2425 18.1619 15.8937C18.3538 15.4883 18.4566 15.0602 18.4878 14.6141C18.5154 14.2175 18.5016 13.8239 18.4265 13.4331C18.3075 12.8132 18.025 12.2864 17.6172 11.8086C17.5679 11.751 17.5182 11.6941 17.4656 11.6338C17.5627 11.5557 17.6619 11.4754 17.7604 11.3956C17.8649 11.3109 17.9688 11.2268 18.0689 11.1464C19.9376 12.9267 19.7498 15.8687 18.0621 17.4C17.963 17.32 17.8596 17.2368 17.7555 17.1529Z" fill="#F7D509"/>
</svg>
