<svg width="26" height="26" viewBox="0 0 26 26" fill="none" xmlns="http://www.w3.org/2000/svg">
<circle cx="13" cy="13" r="12" fill="black" stroke="black" stroke-width="0.436504"/>
<path d="M7.68149 6.16149L6.87695 6.96603L7.89484 7.98391L8.91496 9.0018L8.8305 9.25072C8.7216 9.57742 8.67715 9.85079 8.67715 10.213C8.67715 11.3932 9.295 12.3977 10.3885 12.9956C10.8285 13.2356 11.5841 13.5067 12.422 13.7223C14.0577 14.1424 14.3089 14.2157 14.6311 14.3668C15.0712 14.5757 15.289 14.8024 15.3801 15.1447C15.4201 15.2936 15.4179 15.627 15.3779 15.787C15.2757 16.1759 14.9445 16.5671 14.5333 16.7804C13.9777 17.0716 13.011 17.1516 12.282 16.9649C12.0109 16.8982 11.6264 16.7093 11.433 16.5515C11.0396 16.227 10.7329 15.667 10.5974 15.0202C10.5751 14.918 10.5574 14.8313 10.5551 14.8269C10.5485 14.818 8.27266 15.0402 8.26155 15.0536C8.25266 15.0602 8.25933 15.1536 8.27489 15.2603C8.346 15.7737 8.52602 16.3848 8.73271 16.8093L8.85273 17.056L7.86373 18.045L6.87695 19.034L7.68371 19.8408L8.48824 20.6453L9.50835 19.6252L10.5262 18.6073L10.7018 18.6806C11.6308 19.0718 13.0243 19.194 14.3756 18.9985C14.7 18.9518 15.169 18.8407 15.4157 18.7495L15.5624 18.6962L16.538 19.6719L17.5115 20.6453L18.316 19.8408L19.1227 19.034L18.2182 18.1295L17.3159 17.2272L17.4292 16.996C17.6648 16.5226 17.7626 16.1204 17.7826 15.567C17.8182 14.5113 17.5448 13.7157 16.9225 13.06C16.2735 12.3777 15.5423 12.0532 13.4777 11.5332C12.022 11.1687 11.3952 10.9176 11.1463 10.602C10.8996 10.2908 10.8774 9.85523 11.093 9.53742C11.2174 9.35295 11.5241 9.15515 11.8575 9.04403C12.2331 8.91735 12.8643 8.85957 13.3332 8.90846C14.3222 9.01292 14.82 9.43518 15.0378 10.3597C15.0645 10.4731 15.089 10.5686 15.0912 10.5731C15.0956 10.5798 16.7047 10.522 17.187 10.4975L17.4626 10.4842L17.447 10.2908C17.4159 9.89746 17.3381 9.54631 17.1959 9.1796L17.1181 8.97291L18.1204 7.96836L19.1227 6.96603L18.3182 6.15927L17.5115 5.35474L16.498 6.36818L15.4823 7.38385L15.2356 7.29051C14.6289 7.06381 14.0422 6.9638 13.1776 6.93936C12.2331 6.91491 11.4041 7.03714 10.7685 7.29495L10.5329 7.39052L9.51058 6.37263L8.48824 5.35474L7.68149 6.16149Z" fill="white"/>
</svg>
