<svg width="24" height="24" viewBox="0 0 24 24" fill="none" xmlns="http://www.w3.org/2000/svg">
<circle cx="12" cy="12" r="12" fill="#EDF0F4"/>
<path d="M8.81622 14.2225C8.81622 15.1175 9.17895 15.9277 9.76532 16.514C10.3517 17.1003 11.1619 17.4631 12.0568 17.4631C12.9517 17.4631 13.7619 17.1004 14.3482 16.514C14.9347 15.9277 15.2973 15.1174 15.2973 14.2225L15.3021 14.1538C15.3025 14.15 15.4742 12.7992 14.2916 11.9156L15.0163 10.9445C16.6093 12.1347 16.5359 13.93 16.5099 14.2434C16.5043 15.4647 16.007 16.5701 15.2056 17.3714C14.3997 18.1773 13.2864 18.6758 12.0568 18.6758C10.8272 18.6758 9.71384 18.1773 8.90795 17.3714C8.10201 16.5655 7.60352 15.4521 7.60352 14.2225H8.81622Z" fill="#FDB813"/>
<path d="M13.6563 7.093C13.6563 6.62901 13.4682 6.20884 13.1642 5.9048C12.8602 5.60076 12.4401 5.41273 11.976 5.41273C11.512 5.41273 11.0918 5.60076 10.7878 5.9048C10.4838 6.20877 10.2957 6.62897 10.2957 7.093H9.08301C9.08301 6.29421 9.40688 5.57096 9.93043 5.04741C10.454 4.52386 11.1772 4.2 11.976 4.2C12.7748 4.19999 13.498 4.52388 14.0216 5.04741C14.5451 5.57096 14.869 6.29424 14.869 7.093H13.6563Z" fill="#FDB813"/>
<path d="M7.82858 12.8797C7.59112 13.5364 7.61387 14.2473 7.61387 14.2473L8.81642 14.2459C8.81642 14.2459 8.82906 13.4525 9.00592 12.8784L7.82858 12.8797V12.8797Z" fill="#FDB813"/>
<path d="M15.1466 11.0213C14.7388 10.6285 14.2568 10.3129 13.7241 10.0982C13.2125 9.89191 12.651 9.77833 12.0602 9.77833C9.60389 9.77831 7.61259 11.7697 7.61259 14.2259C7.61259 16.6822 9.60389 18.6735 12.0602 18.6735C14.5165 18.6735 16.5078 16.6822 16.5078 14.2259C16.5078 14.088 16.5011 13.817 16.4879 13.5544C16.4789 13.3747 16.4678 13.2141 16.4557 13.1355L17.6541 12.9555C17.675 13.091 17.6903 13.2917 17.7006 13.4975C17.7137 13.7601 17.7205 14.0594 17.7205 14.2259C17.7205 17.352 15.1863 19.8862 12.0602 19.8862C8.93412 19.8862 6.3999 17.352 6.3999 14.2259C6.3999 11.0999 8.93414 8.56563 12.0602 8.56563C12.8049 8.56563 13.5186 8.71117 14.1741 8.97547C14.8534 9.24934 15.467 9.65078 15.985 10.1497L15.1466 11.0213H15.1466V11.0213Z" fill="#A80532"/>
<path d="M14.7217 12.9458L17.6187 12.9492V14.1619L14.7217 14.1585V12.9458Z" fill="#A80532"/>
<path d="M10.0044 13.1248H10.0408C10.2863 13.1248 10.3519 12.9972 10.3574 12.9006H10.567V14.1922H10.3118V13.3016H10.0044V13.1248H10.0044Z" fill="#363636"/>
<path fill-rule="evenodd" clip-rule="evenodd" d="M11.371 14.2267C11.1503 14.2267 10.9917 14.0987 10.9699 13.8936V13.8935H11.2232V13.8954C11.2378 13.984 11.2944 14.0219 11.3728 14.022C11.4785 14.022 11.5843 13.9334 11.5862 13.6628L11.5825 13.6591C11.5241 13.7468 11.4239 13.7687 11.3363 13.7687C11.0884 13.7687 10.9443 13.5805 10.9443 13.3639C10.9443 13.0474 11.1321 12.9006 11.3856 12.9006C11.8335 12.9006 11.8408 13.382 11.8408 13.5641C11.8408 14.064 11.6043 14.2267 11.371 14.2267ZM11.3836 13.109C11.318 13.109 11.1994 13.1418 11.1994 13.3274C11.1994 13.5222 11.2943 13.5641 11.3909 13.5641C11.4802 13.5641 11.5787 13.5003 11.5787 13.3474C11.5787 13.2 11.5149 13.109 11.3836 13.109Z" fill="#363636"/>
<path fill-rule="evenodd" clip-rule="evenodd" d="M12.4068 14.2266C12.1021 14.2266 11.9585 14.0147 11.9585 13.5628C11.9585 13.111 12.1021 12.9009 12.4068 12.9009C12.7114 12.9009 12.8551 13.111 12.8551 13.5628C12.8551 14.0147 12.7114 14.2266 12.4068 14.2266ZM12.4068 13.1055C12.2605 13.1055 12.2204 13.2307 12.2204 13.5628C12.2204 13.895 12.2606 14.0219 12.4068 14.022C12.553 14.022 12.5932 13.8949 12.5932 13.5629C12.5932 13.2308 12.553 13.1055 12.4068 13.1055Z" fill="#363636"/>
<path d="M13.2289 13.4174C13.2762 13.3845 13.3344 13.3461 13.46 13.3461C13.6328 13.3461 13.8511 13.4668 13.8511 13.7628C13.8511 13.9386 13.762 14.2266 13.3817 14.2266C13.1797 14.2266 12.9737 14.1061 12.9609 13.8462H13.2161C13.2271 13.9513 13.2835 14.022 13.3963 14.022C13.5182 14.0219 13.5892 13.9187 13.5892 13.781C13.5892 13.6668 13.5346 13.5508 13.3999 13.5508C13.3654 13.5508 13.278 13.5527 13.2289 13.6432L13.001 13.6324L13.0904 12.9227H13.8002V13.1373H13.2743L13.2289 13.4174Z" fill="#363636"/>
<path d="M10.2895 7.08033L9.0789 7.08462C8.99467 8.43198 10.2074 9.18994 10.2074 9.18994L14.3065 11.9311L15.0454 10.9647L11.1674 8.49938C11.1674 8.49938 10.2895 7.97304 10.2895 7.08033Z" fill="#FDB813"/>
</svg>
