<svg width="24" height="24" viewBox="0 0 24 24" fill="none" xmlns="http://www.w3.org/2000/svg">
<circle cx="12" cy="12" r="12" fill="#EDF0F4"/>
<path d="M13.4275 9.38721C12.9389 9.69023 11.9601 10.2978 11.9541 10.3038L7.4592 7.65711L11.956 5.16595L17.5101 8.24943L18.6066 7.62524L11.9635 4.00003L5.28857 7.62146L11.9279 11.4566L14.5053 10.0264L13.4275 9.38721Z" fill="black"/>
<path d="M9.07388 11.8148V10.6612L11.6192 12.0755V19.995L4.7998 15.7713V8.13257L5.87481 8.80897V15.2076L10.5448 18.0914V12.6795L9.07388 11.8148Z" fill="black"/>
<path d="M12.2757 20V18.7358L17.9839 15.22V10.0142L13.3553 12.7139V14.4314L12.2749 15.1242V12.0834L19.1093 8.09436V15.7788L12.2757 20Z" fill="black"/>
</svg>
