<svg width="24" height="24" viewBox="0 0 24 24" fill="none" xmlns="http://www.w3.org/2000/svg">
<circle cx="12" cy="12" r="12" fill="#2D475B"/>
<path fill-rule="evenodd" clip-rule="evenodd" d="M17.9999 12.7217H17.9651H9.59072V14.5877H15.8103V16.339C14.9762 17.0531 13.3427 17.4221 13.3427 17.4221C8.54732 18.2516 7.0181 14.1745 7.0181 14.1745C5.62791 9.47558 8.99913 7.61027 8.99913 7.61027C13.1342 5.1217 16.2274 8.30029 16.2274 8.30029L17.6871 6.88425C15.2543 4.11967 11.5015 4.63868 11.5015 4.63868C5.41938 5.26045 4.62001 10.3389 4.62001 10.3389C3.61212 14.416 6.39251 17.2151 6.39251 17.2151C11.4667 22.328 17.9999 17.6291 17.9999 17.6291V12.7217ZM17.9652 9.61357H9.58999V11.4796H17.9652V9.61357Z" fill="white"/>
</svg>
