<svg width="24" height="24" viewBox="0 0 24 24" fill="none" xmlns="http://www.w3.org/2000/svg">
<path fill-rule="evenodd" clip-rule="evenodd" d="M12 24C5.4 24 0 18.6001 0 11.9402C0.06 5.34038 5.4 -0.0595036 12.06 0.000495204C18.66 0.060494 24 5.40038 24 12.1202C23.94 18.6601 18.6 24 12 24Z" fill="#EDF0F4"/>
<path fill-rule="evenodd" clip-rule="evenodd" d="M6.6001 7.88494L12.2879 5.8L17.4391 7.64233L17.468 16.3553L12.7435 14.6052L12.7435 18.0555L6.6001 15.8505V7.88494ZM12.294 7.31235L8.02229 8.87821V14.85L11.3216 16.0341L11.3216 9.39781L14.6555 8.15704L12.294 7.31235ZM12.7434 10.3858L16.022 9.16576L16.0389 14.3094L12.7434 13.0886V10.3858Z" fill="#01E397"/>
</svg>
