<svg width="24" height="24" viewBox="0 0 24 24" fill="none" xmlns="http://www.w3.org/2000/svg">
<circle cx="12" cy="12" r="12" fill="#EDF0F4"/>
<circle cx="11.9995" cy="11.9995" r="8.99952" fill="#1666AE"/>
<path fill-rule="evenodd" clip-rule="evenodd" d="M7.98633 5.29882C7.90713 5.41617 7.93881 5.57528 8.05617 5.65448C8.17352 5.73367 8.33263 5.70199 8.41183 5.58464C8.49102 5.46729 8.45934 5.30818 8.34199 5.22898C8.27071 5.18146 8.18072 5.1721 8.10152 5.2045L7.58027 4.69909L6.75015 4.69333C6.68248 4.74229 6.6148 4.79268 6.54856 4.84308L7.52267 4.85028L7.98633 5.29882ZM4.67727 14.8959C4.73199 15.0262 4.67007 15.176 4.53976 15.2307L4.52824 15.9571L4.1337 16.3581C4.10778 16.3113 4.08258 16.2653 4.05811 16.2185L4.38065 15.8909L4.39217 15.2458C4.30793 15.2292 4.2381 15.1716 4.20498 15.0932C4.15026 14.9628 4.21218 14.8131 4.34249 14.7584C4.4728 14.7037 4.62256 14.7656 4.67727 14.8959ZM8.75506 18.3949C8.70178 18.5259 8.55203 18.5886 8.421 18.5346L7.72623 19.2286H6.64557C6.57861 19.1789 6.5131 19.1285 6.44758 19.0774H7.66864L8.3058 18.4403C8.25828 18.3697 8.24893 18.2797 8.28132 18.2005C8.3346 18.0695 8.48435 18.0068 8.61539 18.0608C8.74642 18.1141 8.80906 18.2639 8.75506 18.3949ZM8.0668 6.51985C8.09776 6.50761 8.13088 6.50113 8.16399 6.50113C8.21511 6.50113 8.26479 6.51625 8.30727 6.54361C8.42462 6.62281 8.4563 6.78192 8.3771 6.89927C8.29791 7.01662 8.13879 7.0483 8.02144 6.96911C7.90409 6.88991 7.87241 6.7308 7.9516 6.61345L7.48723 6.16563L5.47422 6.15699V6.0058L7.54555 6.01444L8.0668 6.51985ZM8.03589 16.217C7.89478 16.217 7.77958 16.3322 7.7803 16.4733C7.7803 16.5237 7.79542 16.5734 7.8235 16.6152L7.35913 17.0637L5.3454 17.0724V17.2235L7.41672 17.2149L7.93797 16.7102C8.06901 16.7635 8.21876 16.7009 8.27204 16.5705C8.32531 16.4395 8.26268 16.2898 8.13236 16.2365C8.10213 16.2235 8.06973 16.217 8.03589 16.217ZM15.9589 8.97565L15.8517 9.08293L15.8509 9.08149L15.8502 8.86694L15.9589 8.97565ZM15.0823 8.09948L13.6575 8.08796C13.6028 7.95764 13.4531 7.89573 13.3227 7.95044C13.1924 8.00516 13.1305 8.15491 13.1852 8.28523C13.2399 8.41554 13.3897 8.47746 13.52 8.42274C13.5985 8.38962 13.6561 8.31978 13.6726 8.23627L15.0161 8.24779L15.6785 8.91015V8.69632L15.0823 8.09948ZM11.8257 8.65312C11.7948 8.66608 11.7616 8.67256 11.7278 8.67256C11.6767 8.67256 11.6263 8.65744 11.5845 8.62864C11.4665 8.54944 11.4348 8.38961 11.514 8.27154C11.5932 8.15347 11.753 8.12179 11.8711 8.20098C11.9892 8.28018 12.0208 8.44001 11.9416 8.55808L12.334 8.94614H13.9878V9.09806H12.2757L11.8257 8.65312Z" fill="#7290C9"/>
<path fill-rule="evenodd" clip-rule="evenodd" d="M15.0731 6.51845L15.0616 4.93094C14.9831 4.89782 14.9255 4.82798 14.9097 4.74447C14.8823 4.60624 14.9723 4.4716 15.1113 4.44424C15.2495 4.41689 15.3841 4.50688 15.4115 4.64583C15.4389 4.78407 15.3489 4.9187 15.2099 4.94606L15.2214 6.45294L15.8478 7.0793L15.8507 8.86769V9.08152L15.8528 10.6136H15.6786V7.13258L15.0731 6.51845ZM17.5736 7.92453C17.6909 8.00372 17.7226 8.16283 17.6434 8.28019L18.3641 8.86911L20.4311 8.87703C20.4466 8.91818 20.4616 8.96032 20.4766 9.00221C20.4796 9.0109 20.4827 9.01957 20.4858 9.02823L18.3058 9.01959L17.5282 8.3745C17.449 8.4069 17.359 8.39754 17.2878 8.35002C17.1704 8.27083 17.1387 8.11172 17.2179 7.99436C17.2971 7.87701 17.4562 7.84533 17.5736 7.92453Z" fill="#7290C9"/>
<path fill-rule="evenodd" clip-rule="evenodd" d="M13.8132 5.19734L13.3272 4.65305L11.1148 4.65377L10.793 4.28515C10.7138 4.31754 10.6238 4.30818 10.5525 4.26067C10.4352 4.18147 10.4035 4.02236 10.4827 3.90501C10.5619 3.78765 10.721 3.75597 10.8383 3.83517C10.9557 3.91437 10.9874 4.07348 10.9082 4.19083L11.1731 4.50185H13.3856L13.9284 5.10302C14.0076 5.07062 14.0976 5.07998 14.1689 5.1275C14.2862 5.2067 14.3179 5.36581 14.2387 5.48316C14.1595 5.60052 14.0004 5.63219 13.8831 5.553C13.7657 5.4738 13.734 5.31469 13.8132 5.19734ZM17.7191 6.96125C17.7975 6.84389 17.7666 6.68478 17.6492 6.60631C17.5319 6.52783 17.3728 6.55879 17.2943 6.67614C17.2158 6.7935 17.2468 6.95261 17.3641 7.03108C17.4347 7.0786 17.5247 7.08796 17.6039 7.05556L18.3094 7.69201L19.8991 7.70281C19.8717 7.65169 19.8429 7.60129 19.8141 7.5509L18.3677 7.5401L17.7191 6.96125ZM20.3614 9.46957L18.0035 9.46094L17.1784 8.77985C17.2576 8.6625 17.2259 8.50339 17.1086 8.42419C16.9912 8.34499 16.8321 8.37667 16.7529 8.49403C16.6737 8.61138 16.7054 8.77049 16.8228 8.84969C16.894 8.8972 16.984 8.90656 17.0632 8.87417L17.9459 9.61213L20.3563 9.62077C20.3434 9.57109 20.3448 9.51853 20.3614 9.46957ZM4.3911 8.40765C4.36374 8.2687 4.45446 8.13479 4.59341 8.10743L4.54445 7.23915L4.4379 7.1326C4.46598 7.0894 4.49405 7.0462 4.52285 7.00301L4.69132 7.17364L4.741 8.12255C4.8202 8.15566 4.87707 8.2255 4.89363 8.30974C4.92099 8.44869 4.83028 8.5826 4.69132 8.60996C4.55237 8.63732 4.41846 8.5466 4.3911 8.40765ZM13.7695 17.7744C13.6276 17.7744 13.5132 17.8888 13.5132 18.0307C13.5132 18.0818 13.5283 18.1315 13.5564 18.1732L13.2914 18.4842H11.0797L10.5368 19.0854C10.4058 19.0314 10.2561 19.094 10.2028 19.2251C10.1488 19.3561 10.2114 19.5059 10.3425 19.5591C10.4735 19.6124 10.6232 19.5505 10.6765 19.4195C10.7089 19.3403 10.6996 19.2503 10.652 19.1797L11.138 18.6354H13.3497L13.6716 18.2668C13.8026 18.3208 13.9523 18.2582 14.0056 18.1271C14.0596 17.9961 13.997 17.8463 13.8659 17.7931C13.8364 17.7808 13.8026 17.7744 13.7695 17.7744ZM19.4197 13.1709C19.3196 13.271 19.3196 13.433 19.4197 13.533C19.4557 13.569 19.501 13.5935 19.5514 13.6029L19.5608 14.5338L18.8113 15.1666L18.7825 16.0227C18.6522 16.0774 18.5903 16.2271 18.645 16.3575C18.6997 16.4878 18.8494 16.5497 18.9798 16.495C19.1101 16.4402 19.172 16.2905 19.1173 16.1602C19.0842 16.0817 19.0143 16.0241 18.9308 16.0075L18.9596 15.2329L19.7091 14.6L19.6997 13.5878C19.83 13.533 19.8919 13.3833 19.8372 13.253C19.7825 13.1227 19.6328 13.0607 19.5024 13.1155C19.4715 13.1284 19.4434 13.1471 19.4197 13.1709ZM8.32433 17.9054C8.27105 18.0364 8.12202 18.099 7.99099 18.0458L7.2955 18.7405H6.04421C5.98806 18.6908 5.93262 18.6404 5.8779 18.5893H7.23791L7.87507 17.9522C7.82756 17.8816 7.8182 17.7916 7.85059 17.7124C7.90387 17.5814 8.0529 17.5187 8.18394 17.572C8.31497 17.6253 8.37761 17.7743 8.32433 17.9054Z" fill="#7290C9"/>
<path fill-rule="evenodd" clip-rule="evenodd" d="M9.84777 4.75166L9.84705 4.75094L9.84849 4.7495L9.84633 3.25989C9.90393 3.2455 9.96224 3.23182 10.0206 3.21886V4.71062L10.7168 5.4061H11.9904C12.0069 5.32186 12.0645 5.25203 12.143 5.21891C12.2733 5.16419 12.4231 5.22611 12.4778 5.35642C12.5325 5.48674 12.4706 5.63649 12.3403 5.69121C12.21 5.74592 12.0602 5.68401 12.0055 5.55369H10.6505L10.0206 4.92373V6.52924L10.5533 7.05553L10.5433 8.71288C10.6224 8.74528 10.6793 8.81584 10.6959 8.89935C10.7232 9.03831 10.6332 9.17294 10.4943 9.2003C10.3553 9.22766 10.2207 9.13766 10.1934 8.99871C10.166 8.85976 10.256 8.72512 10.3949 8.69776L10.405 7.12177L9.84993 6.59044L9.84777 4.75166ZM12.1158 18.0393C11.9776 18.0666 11.843 17.9766 11.8156 17.8377L10.542 17.837L9.84581 18.5332V20.0904H9.67158L9.67374 18.4936L9.67302 18.4928L9.67374 18.4921L9.6759 16.6533L10.231 16.1213L10.2209 14.5453C10.1367 14.5295 10.0668 14.4719 10.0337 14.3927C9.97972 14.2616 10.0409 14.1119 10.172 14.0572C10.303 14.0032 10.4527 14.0644 10.5075 14.1954C10.5615 14.3264 10.5003 14.4762 10.3692 14.5309L10.3793 16.1883L9.84653 16.7145V18.3201L10.4765 17.6901H11.8307C11.8631 17.6109 11.9337 17.554 12.0172 17.5375C12.1554 17.5101 12.2901 17.6001 12.3174 17.739C12.3448 17.8773 12.2548 18.0119 12.1158 18.0393ZM15.6773 17.9471C15.619 17.8182 15.4671 17.7614 15.3382 17.8204C15.2094 17.8787 15.1525 18.0306 15.2115 18.1595C15.2698 18.2884 15.4217 18.3453 15.5506 18.2862C15.6284 18.2509 15.6831 18.1789 15.6975 18.0947L17.1461 18.0954L17.8646 18.8197C17.9027 18.7866 17.9409 18.7535 17.9783 18.7204L17.2072 17.9457L15.6773 17.9471ZM16.7595 18.891C16.8567 18.788 17.0187 18.783 17.1216 18.8795C17.1461 18.9025 17.1655 18.9291 17.1799 18.9594L17.699 18.9587C17.6371 19.0091 17.5752 19.0587 17.5126 19.1077H17.1994C17.1907 19.1581 17.1677 19.2049 17.1331 19.2416C17.0359 19.3446 16.8739 19.3496 16.771 19.2531C16.668 19.1559 16.663 18.9939 16.7595 18.891ZM13.1519 17.0831C13.2484 16.9802 13.2433 16.8182 13.1404 16.721C13.1029 16.6864 13.0568 16.6634 13.0064 16.6548L13.0072 15.1364L12.8567 15.1335L12.8589 16.6742C12.73 16.7332 12.6731 16.8852 12.7321 17.0133C12.7912 17.1422 12.9431 17.1991 13.0712 17.14C13.1015 17.1271 13.1288 17.1069 13.1519 17.0831ZM5.26542 16.027C5.36837 16.1242 5.37341 16.2861 5.27694 16.3891C5.2539 16.4136 5.22654 16.433 5.1963 16.4467L5.16751 17.8463C5.11783 17.7887 5.06887 17.7304 5.02135 17.6713L5.04871 16.4669C4.99831 16.4582 4.95152 16.4352 4.9148 16.4006C4.81185 16.3034 4.80681 16.1414 4.90328 16.0385C5.00047 15.9355 5.16247 15.9305 5.26542 16.027ZM18.6819 6.41044C18.579 6.31324 18.417 6.319 18.3198 6.42196C18.2226 6.52491 18.2283 6.6869 18.3313 6.7841C18.4343 6.88129 18.5962 6.87553 18.6934 6.77258C18.728 6.73514 18.751 6.68906 18.7597 6.63866H19.2205L19.2203 6.63847C19.1829 6.58886 19.1455 6.53924 19.1074 6.48963L18.7395 6.49035C18.7258 6.46011 18.7064 6.43348 18.6819 6.41044ZM17.2491 5.50185C17.3456 5.3989 17.5076 5.39386 17.6106 5.49034C17.635 5.51337 17.6545 5.54073 17.6674 5.57097L18.288 5.56953C18.3384 5.61921 18.3881 5.66889 18.4371 5.71928L17.6876 5.71856C17.6797 5.76824 17.6566 5.81504 17.6221 5.85176C17.5256 5.95471 17.3636 5.95975 17.2607 5.86328C17.1577 5.7668 17.1527 5.60481 17.2491 5.50185ZM8.43408 4.99429C8.4384 5.1354 8.55648 5.24699 8.69831 5.24267C8.83942 5.23835 8.95102 5.12028 8.9467 4.97845C8.94238 4.83733 8.8243 4.72574 8.68247 4.73006C8.63135 4.7315 8.5824 4.74806 8.54064 4.7783L7.80268 4.03962C7.7566 4.0641 7.71124 4.08857 7.66516 4.11449L8.44992 4.89709C8.4384 4.92805 8.43264 4.96117 8.43408 4.99429ZM5.11144 7.22761C5.00848 7.13041 5.00272 6.96842 5.09992 6.86547C5.12295 6.84099 5.15031 6.82155 5.18055 6.80715L5.17911 6.1383C5.22879 6.08143 5.27847 6.02455 5.32886 5.96839L5.32814 6.78771C5.37854 6.79635 5.42462 6.81939 5.46206 6.85395C5.56501 6.95114 5.57077 7.11313 5.47358 7.21609C5.37638 7.31904 5.21439 7.3248 5.11144 7.22761ZM16.9509 15.8844L15.4217 15.8866C15.3634 15.7577 15.2115 15.7008 15.0826 15.7598C14.9537 15.8182 14.8969 15.9701 14.9559 16.099C15.0142 16.2278 15.1661 16.2847 15.295 16.2257C15.3728 16.1904 15.4275 16.1184 15.4419 16.0342H16.8904L17.632 16.7815L16.0747 16.7822C16.0164 16.6533 15.8645 16.5964 15.7356 16.6555C15.6067 16.7138 15.5499 16.8657 15.6089 16.9946C15.6679 17.1235 15.8191 17.1803 15.948 17.1213C16.0258 17.086 16.0805 17.014 16.0949 16.9298L19.5212 16.9305C19.5536 16.8808 19.586 16.8304 19.6176 16.7808L17.8458 16.7815L16.9509 15.8844ZM7.80121 9.05415C7.69825 9.15134 7.53554 9.14558 7.43906 9.04263C7.40379 9.00591 7.38075 8.95911 7.37355 8.90871L3.55631 8.90943C3.57431 8.85976 3.59303 8.80936 3.61247 8.75968H5.6226L6.51535 7.86261L8.04455 7.86477C8.08055 7.78701 8.15183 7.7323 8.23606 7.71862C8.37574 7.69558 8.50749 7.7899 8.53053 7.92957C8.55357 8.06924 8.45925 8.20099 8.31958 8.22403C8.17991 8.24707 8.04815 8.15276 8.02511 8.01308L6.57655 8.0138L5.83499 8.76112L7.39227 8.76184C7.40667 8.73088 7.42611 8.70353 7.45058 8.68049C7.55354 8.58329 7.71625 8.58905 7.81273 8.69201C7.90992 8.79496 7.90416 8.95767 7.80121 9.05415ZM6.09606 16.4121C6.13062 16.3754 6.15366 16.3286 6.1623 16.2782L6.79586 16.2789C6.83834 16.4136 6.98161 16.4892 7.11697 16.4467C7.2516 16.4042 7.3272 16.2609 7.28472 16.1256C7.24224 15.991 7.09897 15.9154 6.96362 15.9578C6.88226 15.983 6.81962 16.0471 6.79514 16.1285L6.14286 16.1306C6.08454 16.0018 5.93263 15.9449 5.80376 16.0039C5.67488 16.0622 5.61801 16.2142 5.67704 16.343C5.73536 16.4719 5.88727 16.5288 6.01615 16.4697C6.04566 16.4561 6.07302 16.4366 6.09606 16.4121ZM6.99271 6.97848C7.02511 6.86976 7.12518 6.79561 7.23822 6.79561C7.35053 6.79561 7.44916 6.8676 7.483 6.9756C7.52548 7.11023 7.44988 7.25422 7.31525 7.2967C7.18062 7.33918 7.03663 7.26358 6.99415 7.12895L6.36058 7.12823C6.34618 7.21246 6.29147 7.28446 6.21371 7.31974C6.08484 7.37878 5.93293 7.3219 5.87461 7.19302C5.81557 7.06415 5.87245 6.91296 6.00132 6.85392C6.1302 6.79489 6.28211 6.85176 6.34043 6.98064L6.99271 6.97848ZM15.3284 13.2148C15.1974 13.1608 15.0476 13.2234 14.9943 13.3545C14.9403 13.4855 15.003 13.6352 15.134 13.6885C15.265 13.7425 15.4148 13.6799 15.4681 13.5488C15.5005 13.4697 15.4911 13.3797 15.4436 13.3091L16.129 12.6403L20.3544 12.6316V12.4804L16.0707 12.4891L15.3284 13.2148ZM15.0268 13.4545C15.0268 13.564 15.1153 13.6525 15.2248 13.6525C15.3342 13.6525 15.4228 13.564 15.4228 13.4545C15.4228 13.3451 15.3342 13.2566 15.2248 13.2566C15.1153 13.2566 15.0268 13.3451 15.0268 13.4545ZM6.38347 15.4409L7.93427 15.4524C7.98898 15.5827 8.13873 15.6447 8.26905 15.5899C8.39936 15.5352 8.46128 15.3855 8.40656 15.2552C8.35184 15.1249 8.20209 15.0629 8.07178 15.1177C7.9933 15.1508 7.93571 15.2206 7.91915 15.3041L6.49506 15.2926L5.65559 14.3365H3.31787C3.33371 14.3963 3.35027 14.4553 3.36755 14.5143H5.59655L6.38347 15.4409ZM8.31745 15.2156C8.2397 15.1386 8.11442 15.1386 8.03739 15.2156C7.95963 15.2933 7.96035 15.4179 8.03739 15.4957C8.11514 15.5727 8.24042 15.5727 8.31745 15.4957C8.39449 15.4179 8.39449 15.2926 8.31745 15.2156Z" fill="#7290C9"/>
<path fill-rule="evenodd" clip-rule="evenodd" d="M20.3609 9.46958C20.3141 9.60998 20.3897 9.76189 20.5301 9.80868C20.5913 9.82884 20.6583 9.82668 20.7173 9.80221C20.6741 9.62941 20.6259 9.45878 20.5726 9.29031C20.4747 9.30543 20.3926 9.37455 20.3609 9.46958ZM8.12434 9.7583C7.96019 9.69134 7.773 9.7691 7.70604 9.93325C7.63909 10.0974 7.71684 10.2846 7.881 10.3515C8.04515 10.4185 8.23234 10.3407 8.29929 10.1766C8.33961 10.0772 8.32881 9.96493 8.26906 9.87565L8.55344 9.6611L8.46561 9.48687L8.12434 9.7583ZM9.69087 13.0413L10.0854 12.6749L12.0869 12.6785L12.7903 12.0003L12.732 11.8606L12.0214 12.5359H10.0156L9.57568 12.9477C9.44464 12.8937 9.29489 12.9564 9.24089 13.0874C9.1869 13.2184 9.24953 13.3682 9.38057 13.4222C9.5116 13.4762 9.66135 13.4135 9.71535 13.2825C9.74775 13.2026 9.73911 13.1119 9.69087 13.0413ZM15.6158 12.1507L14.9304 12.8196C14.9786 12.8908 14.9872 12.9808 14.9541 13.06C14.9008 13.1911 14.7511 13.2537 14.62 13.1997C14.489 13.1464 14.4264 12.9967 14.4804 12.8656C14.5337 12.7346 14.6834 12.672 14.8144 12.726L15.5574 11.9995L17.6288 11.9909V12.1421L15.6158 12.1507ZM14.5256 12.9657C14.5256 13.0752 14.6141 13.1637 14.7236 13.1637C14.833 13.1637 14.9216 13.0752 14.9216 12.9657C14.9216 12.8563 14.833 12.7677 14.7236 12.7677C14.6141 12.7677 14.5256 12.8563 14.5256 12.9657ZM9.28644 13.1867C9.28644 13.2962 9.37499 13.3847 9.48443 13.3847C9.59386 13.3847 9.68242 13.2962 9.68242 13.186C9.6817 13.0773 9.59386 12.9887 9.48443 12.9887C9.37499 12.9887 9.28644 13.0773 9.28644 13.1867ZM7.79255 10.0585C7.79255 10.1788 7.88975 10.276 8.00998 10.276C8.13022 10.276 8.22741 10.1788 8.22741 10.0585C8.22741 9.9383 8.13022 9.84111 8.00998 9.84111C7.88975 9.84111 7.79255 9.9383 7.79255 10.0585ZM4.46627 13.3149H5.04872V13.1407H4.57139L3.72183 12.2904H4.10629V12.0809H3.01123C3.01195 12.1551 3.01339 12.2285 3.01555 12.3019H3.48784L4.46627 13.3149ZM4.86218 11.1853L4.83914 11.3595L3.73256 10.2536H3.17963C3.18899 10.2068 3.19835 10.1608 3.20843 10.114H3.7916L4.86218 11.1853ZM12.7098 13.3502H11.4405V13.5129H12.7098V13.3502Z" fill="#7290C9"/>
<path fill-rule="evenodd" clip-rule="evenodd" d="M13.6607 9.92748V8.58835H18.799V15.4107H12.5469V9.92748H13.6607ZM13.9975 13.8275H17.3475V10.1715H13.9975V13.8275Z" fill="#FFFFFA"/>
<path d="M9.64802 14.0831V15.41H7.91291C7.91291 15.41 6.16053 15.433 5.1353 13.8556C4.59101 13.0168 4.42542 11.9873 4.67957 11.0197C4.92939 10.0693 5.62415 8.94329 7.47014 8.58763H11.5336V9.85764H7.94819C7.94819 9.85764 6.05757 10.507 6.08205 12.0751C6.09285 12.7648 6.48091 13.3898 7.07848 13.7346C7.34774 13.8894 7.64221 13.9953 7.94819 14.0485L9.64802 14.0831Z" fill="white"/>
<path d="M7.94824 11.3595V12.605H10.2068V15.4107H11.5344V11.3595H7.94824Z" fill="white"/>
</svg>
