<svg width="24" height="24" viewBox="0 0 24 24" fill="none" xmlns="http://www.w3.org/2000/svg">
<circle cx="12" cy="12" r="12" fill="#EDF0F4"/>
<rect x="9.2998" y="18.2339" width="5.41642" height="0.72591" fill="#681AF1"/>
<rect x="7.84766" y="17.5081" width="8.26423" height="0.72591" fill="#681AF1"/>
<rect x="7.17773" y="16.7821" width="9.60437" height="0.725912" fill="#681AF1"/>
<rect x="6.396" y="16.0562" width="11.112" height="0.72591" fill="#781CF2"/>
<rect x="5.78174" y="15.3303" width="12.4522" height="0.725912" fill="#781CF2"/>
<rect x="5.78174" y="14.6044" width="12.4522" height="0.725911" fill="#781CF2"/>
<rect x="5.05615" y="9.35547" width="13.8482" height="1.11679" fill="#E740EC"/>
<rect x="5.78174" y="7.90363" width="12.4522" height="1.45182" fill="#E740EC"/>
<rect x="6.45215" y="7.17773" width="11.0562" height="0.725911" fill="#E740EC"/>
<rect x="7.12207" y="6.45184" width="9.66021" height="0.725911" fill="#E740EC"/>
<rect x="7.84766" y="5.72589" width="8.26423" height="0.725912" fill="#E740EC"/>
<rect x="9.2998" y="5" width="5.41642" height="0.725912" fill="#E740EC"/>
<rect x="5" y="12.5383" width="13.904" height="2.06606" fill="#9521F2"/>
<rect x="5" y="10.4723" width="13.904" height="2.06606" fill="#B828F3"/>
<rect x="7.40088" y="13.0967" width="1.45182" height="0.502554" fill="white"/>
<rect x="7.40088" y="10.6398" width="1.95438" height="0.502555" fill="white"/>
<rect x="9.80225" y="10.6398" width="0.502553" height="2.95949" fill="white"/>
<rect x="11.5332" y="10.6398" width="0.50255" height="2.95949" fill="white"/>
<rect x="7.84766" y="11.8124" width="1.50766" height="0.502552" fill="white"/>
<rect x="10.3047" y="11.8124" width="1.22847" height="0.502552" fill="white"/>
<rect x="12.4824" y="13.0967" width="1.73102" height="0.502554" fill="white"/>
<rect x="16.168" y="11.0865" width="0.502554" height="2.51277" fill="white"/>
<rect x="13.4316" y="13.5992" width="0.502549" height="0.502557" fill="white"/>
<rect x="14.2134" y="12.315" width="0.502554" height="0.781754" fill="white"/>
<rect x="12.4824" y="11.0865" width="0.502549" height="0.781753" fill="white"/>
<rect x="12.9849" y="11.8682" width="1.22846" height="0.446713" fill="white"/>
<rect x="12.9849" y="10.6398" width="1.73102" height="0.446714" fill="white"/>
<rect x="15.2188" y="10.6398" width="2.40109" height="0.446714" fill="white"/>
<rect x="13.4873" y="10.1373" width="0.502554" height="0.502554" fill="white"/>
<rect x="8.85303" y="12.315" width="0.502554" height="0.781754" fill="white"/>
<rect x="6.89844" y="11.1423" width="0.502555" height="1.95438" fill="white"/>
</svg>
