<svg width="24" height="24" viewBox="0 0 24 24" fill="none" xmlns="http://www.w3.org/2000/svg">
<circle cx="12" cy="12" r="12" fill="#008DDE"/>
<path fill-rule="evenodd" clip-rule="evenodd" d="M18.5647 12.7979C18.4625 12.9697 18.2744 13.072 18.0744 13.0646V13.0654H16.8266V14.2982H20.4329C20.633 14.2908 20.8211 14.3931 20.9233 14.5649C21.0256 14.7367 21.0256 14.9505 20.9233 15.1223C20.8211 15.2942 20.633 15.3965 20.4329 15.3891H16.8146C16.7056 16.5902 15.7993 17.5671 14.6079 17.7675V19.0799C14.6153 19.2796 14.5128 19.4674 14.3407 19.5694C14.1686 19.6715 13.9544 19.6715 13.7823 19.5694C13.6102 19.4674 13.5077 19.2796 13.5151 19.0799V17.8036H12.2802V20.2744C12.2693 20.5678 12.0278 20.8 11.7338 20.8C11.4397 20.8 11.1983 20.5678 11.1874 20.2744V17.8036H9.9524V18.6152C9.95983 18.8149 9.85734 19.0027 9.68522 19.1047C9.51311 19.2067 9.29889 19.2067 9.12678 19.1047C8.95466 19.0027 8.85217 18.8149 8.8596 18.6152V17.7668C7.66821 17.5664 6.76187 16.5895 6.65293 15.3883H4.26425C4.06421 15.3957 3.8761 15.2934 3.77387 15.1216C3.67164 14.9498 3.67164 14.7359 3.77387 14.5641C3.8761 14.3923 4.06421 14.29 4.26425 14.2974H6.64315V13.0646H5.39466C5.19462 13.072 5.00651 12.9697 4.90428 12.7979C4.80205 12.6261 4.80205 12.4123 4.90428 12.2405C5.00651 12.0686 5.19462 11.9663 5.39466 11.9737H6.64315V10.741H3.56705C3.36701 10.7484 3.1789 10.6461 3.07667 10.4742C2.97444 10.3024 2.97444 10.0886 3.07667 9.91678C3.1789 9.74496 3.36701 9.64265 3.56705 9.65006H6.65293C6.76187 8.44891 7.66821 7.472 8.8596 7.27158V5.95771C8.8705 5.66434 9.11191 5.43213 9.406 5.43213C9.70009 5.43213 9.9415 5.66434 9.9524 5.95771V7.23404H11.1881V4.36605C11.1807 4.16635 11.2832 3.97857 11.4553 3.87652C11.6274 3.77448 11.8416 3.77448 12.0137 3.87652C12.1858 3.97857 12.2883 4.16635 12.2809 4.36605V7.23479H13.5159V5.95846C13.5084 5.75877 13.6109 5.57098 13.783 5.46894C13.9552 5.36689 14.1694 5.36689 14.3415 5.46894C14.5136 5.57098 14.6161 5.75877 14.6087 5.95846V7.27158C15.8001 7.472 16.7064 8.44891 16.8153 9.65006H19.4364C19.6365 9.64265 19.8246 9.74496 19.9268 9.91678C20.029 10.0886 20.029 10.3024 19.9268 10.4742C19.8246 10.6461 19.6365 10.7484 19.4364 10.741H16.8259V11.9737H18.0744C18.2744 11.9663 18.4625 12.0686 18.5647 12.2405C18.667 12.4123 18.667 12.6261 18.5647 12.7979ZM14.1709 16.9327C15.1549 16.9319 15.9525 16.1357 15.9533 15.1533V15.1526V9.88432C15.9525 8.90196 15.1549 8.10579 14.1709 8.10497H9.29723C8.31314 8.10579 7.51558 8.90196 7.51475 9.88432V15.1533C7.51558 16.1357 8.31314 16.9319 9.29723 16.9327H14.1709Z" fill="white"/>
<path fill-rule="evenodd" clip-rule="evenodd" d="M9.82489 9.41433C10.0352 9.39645 10.2463 9.38918 10.4574 9.39256L10.4567 9.39181C10.513 9.39221 10.5694 9.39282 10.6258 9.39343C10.7809 9.39512 10.9362 9.39681 11.0907 9.39406H13.4041C13.7411 9.37229 14.1224 9.54722 14.1984 9.90234C14.2466 10.1377 14.2427 10.3782 14.2388 10.6183C14.2369 10.7336 14.2351 10.8487 14.239 10.9632C14.2381 11.4627 14.2385 11.9622 14.2388 12.4615C14.2393 13.2786 14.2399 14.0954 14.2352 14.9123C14.236 15.2359 14.0216 15.5618 13.6877 15.6151C13.44 15.6513 13.1894 15.6478 12.9389 15.6443C12.8105 15.6426 12.6822 15.6408 12.5543 15.6443H9.32474L9.74216 14.3943H12.9875V13.9776C12.6668 13.9774 12.3462 13.9777 12.0255 13.9779C11.3383 13.9786 10.6512 13.9792 9.96403 13.9746C9.63987 13.9753 9.31346 13.7606 9.26006 13.4273C9.22316 13.1799 9.2266 12.9288 9.23003 12.6779C9.23178 12.5503 9.23353 12.4228 9.22998 12.2958C9.23167 12.0188 9.23082 11.7416 9.22998 11.4643C9.22857 11.0021 9.22716 10.5398 9.2375 10.078C9.24803 9.75218 9.49246 9.45187 9.82489 9.41433ZM12.9867 10.6441H10.4822V12.7275H12.9867V10.6441Z" fill="white"/>
</svg>
