<svg width="24" height="24" viewBox="0 0 24 24" fill="none" xmlns="http://www.w3.org/2000/svg">
<circle cx="12" cy="12" r="12" fill="#EEF4F4"/>
<path fill-rule="evenodd" clip-rule="evenodd" d="M15.3259 3.39999L13.5164 5.1925C12.9065 4.76955 12.1542 4.50772 11.341 4.50772C9.26724 4.50772 7.6001 6.17939 7.6001 8.21358C7.6001 10.0464 8.94194 11.577 10.7107 11.8792V13.2286C8.94194 13.5307 7.6001 15.0412 7.6001 16.8941C7.6001 18.9485 9.28757 20.6 11.341 20.6C13.3944 20.6 15.0819 18.9283 15.0819 16.8941C15.0819 15.0614 13.7401 13.5307 11.9713 13.2286V11.8792C13.7401 11.577 15.0819 10.0665 15.0819 8.21358C15.0819 7.40796 14.8176 6.66276 14.3906 6.05854L16.2001 4.26604L15.3259 3.39999ZM13.8418 16.8539C13.8418 18.2234 12.7235 19.3311 11.341 19.3311C9.97887 19.3311 8.86066 18.2234 8.86066 16.8539C8.86066 15.4843 9.97887 14.3766 11.3614 14.3766C12.7235 14.3766 13.8418 15.4843 13.8418 16.8539ZM8.86066 8.19343C8.86066 9.56299 9.97887 10.6707 11.3614 10.6707C12.7235 10.6707 13.8418 9.56299 13.8621 8.21358C13.8621 6.84402 12.7439 5.73629 11.3614 5.73629C9.97887 5.73629 8.86066 6.84402 8.86066 8.19343Z" fill="#181EA9"/>
</svg>
