<svg width="24" height="24" viewBox="0 0 24 24" fill="none" xmlns="http://www.w3.org/2000/svg">
<circle cx="12" cy="12" r="12" fill="#EDF0F4"/>
<path fill-rule="evenodd" clip-rule="evenodd" d="M13.8757 6.96608C13.8757 7.34024 13.8331 7.7059 13.7703 8.02053C13.7383 8.18014 13.699 8.34105 13.6578 8.48758L13.5179 8.92715C13.4099 9.2529 13.217 9.60221 13.0148 9.87301C12.85 10.0935 12.6845 10.3119 12.4817 10.4997L12.1632 10.7607C11.9126 10.9484 11.6451 11.1244 11.3599 11.2565C11.1859 11.3369 11.0073 11.3847 10.8189 11.4462C10.4945 11.5522 10.1799 11.5868 9.84364 11.6306C9.48191 11.6777 9.07504 11.6607 8.70415 11.6627L8.04152 11.6293C7.66998 11.5881 7.67783 11.6202 7.24349 11.5116C7.0152 11.4547 6.76075 11.3697 6.56713 11.2722C6.51087 11.2441 6.47817 11.2238 6.42453 11.195C6.33295 11.1453 6.13344 10.9733 6.08111 10.9576C6.05168 10.9484 6.00327 10.9373 6.00327 10.9674C6.00327 11.2375 6.37154 11.838 6.58021 12.0715L6.88699 12.3907C6.9125 12.4156 6.91839 12.4176 6.9439 12.4378L7.23564 12.6681C7.40048 12.7917 7.58233 12.8853 7.75894 12.9912C7.80538 13.0187 7.8479 13.037 7.89696 13.0619L7.99901 13.1109C8.53473 13.3582 9.04953 13.5191 9.62974 13.6368C9.73636 13.6584 9.88419 13.6944 9.99212 13.7036C9.9967 13.9135 9.96923 14.1202 9.93391 14.3296C9.88419 14.6305 9.80374 14.8888 9.72001 15.1714C9.61012 15.541 9.33146 16.048 9.10055 16.3377C8.98804 16.4784 8.886 16.5863 8.74732 16.7034C8.71396 16.7315 8.68518 16.7538 8.64986 16.7799C8.22337 17.0991 8.07292 17.1475 7.53327 17.1475C7.26115 17.1475 6.97465 17.0887 6.71627 17.0134C6.60114 16.9801 6.48536 16.9192 6.39182 16.863C6.32118 16.8205 6.16026 16.6988 6.0955 16.6838L6 16.7727C6.01962 16.9572 6.20801 17.3438 6.30024 17.5099C6.74897 18.3165 7.63793 18.48 8.51838 18.48C8.57464 18.48 8.63416 18.4846 8.68911 18.4767C8.83825 18.4564 9.01944 18.4571 9.16989 18.4355C9.3864 18.4041 9.5604 18.376 9.75664 18.3269C10.3035 18.1896 10.7431 17.9515 11.2238 17.7068L11.4469 17.5819C11.5241 17.5361 11.5921 17.5014 11.6686 17.4556L12.1063 17.1979C12.1834 17.1515 12.2482 17.1129 12.3234 17.0677L13.2928 16.4601C13.3308 16.4359 13.3589 16.4143 13.3968 16.3907L14.4683 15.7111C14.7201 15.5521 14.989 15.4056 15.2631 15.2879C15.3095 15.2682 15.3389 15.2552 15.3854 15.2368C15.6621 15.1269 15.8969 15.0249 16.2286 15.0249C16.6982 15.0249 16.9579 15.1799 17.1862 15.5515C17.3281 15.783 17.4079 16.1088 17.4662 16.3842C17.5015 16.551 17.4864 16.5314 17.6081 16.6131L17.6794 16.464C17.6977 16.409 17.7213 16.3534 17.7402 16.2926C17.7775 16.1735 17.8122 16.0689 17.8469 15.9472C18.0117 15.3729 18.0516 14.7018 17.8089 14.1399C17.7219 13.9377 17.6022 13.75 17.4348 13.61L17.4158 13.5943C17.4066 13.5865 17.4053 13.5852 17.3975 13.578C17.2274 13.423 17.024 13.3163 16.7787 13.2346C16.7401 13.2215 16.729 13.2215 16.6864 13.211C15.8655 13.0076 15.091 13.1397 14.3159 13.4478C14.2387 13.4786 13.9051 13.629 13.8521 13.6336C13.8613 13.5989 13.9502 13.4458 13.9751 13.4086C14.0235 13.3353 14.0647 13.2653 14.1066 13.1927C14.2917 12.8709 14.4219 12.5713 14.5546 12.2259C14.622 12.0493 14.677 11.8851 14.7378 11.7019C14.8555 11.3481 14.9563 10.9759 15.0184 10.5677C15.1885 9.45307 15.2343 7.82887 14.6273 6.82937C14.4696 6.56968 14.3349 6.41466 14.1452 6.19814C14.0804 6.12422 13.9986 6.06601 13.9306 5.99471C13.8979 5.96004 13.9005 5.94696 13.8403 5.94565C13.8148 6.05423 13.8076 6.05816 13.824 6.17067C13.8619 6.43886 13.8757 6.69593 13.8757 6.96608Z" fill="#367EC7"/>
<path fill-rule="evenodd" clip-rule="evenodd" d="M9.31856 6.57097C9.28455 6.53826 9.23418 6.44865 9.21325 6.39763C9.17858 6.31324 9.26231 6.29885 9.33361 6.26157C9.4507 6.20008 9.58283 6.14252 9.71758 6.1C10.3769 5.89395 11.1266 6.03459 11.6446 6.46042C11.8173 6.60237 11.9109 6.64423 11.8324 6.743C11.6741 6.9412 11.7061 6.88037 11.4759 6.6874C11.4078 6.6305 11.3228 6.57032 11.2384 6.51929C10.7786 6.24129 10.0813 6.21447 9.58937 6.44799C9.52527 6.47808 9.36893 6.56901 9.31856 6.57097ZM7.78799 8.03296C7.78799 8.57653 8.00451 9.213 8.33811 9.63949C8.38848 9.70424 8.43296 9.74676 8.48202 9.80825C8.5978 9.9515 8.62593 9.9914 8.40941 10.1615L7.86125 10.5297C7.75202 10.5945 7.47859 10.7528 7.39094 10.8248C7.35627 10.8535 7.3288 10.8673 7.32422 10.9203C7.45635 10.9903 7.71604 10.9667 7.89265 10.9667C8.17785 10.9667 8.4238 10.9556 8.70442 10.9556L9.49264 10.9091C9.70981 10.8987 10.0251 10.8607 10.2311 10.8248C10.7054 10.7417 11.2202 10.603 11.6336 10.3603C11.7925 10.2674 12.0398 10.0961 12.1634 9.96262C12.1844 9.94038 12.1929 9.92992 12.2138 9.90898C12.2485 9.87432 12.2871 9.84096 12.3178 9.80432C12.4133 9.69051 12.5055 9.57342 12.5834 9.44325C12.9935 8.75838 13.1204 8.08725 12.9098 7.29445C12.8359 7.01579 12.6723 6.7005 12.5003 6.46306L12.1039 6.02479C12.0006 5.93256 11.7291 5.75464 11.6022 5.69119C11.0102 5.39552 10.4365 5.32357 9.78242 5.48187C9.53712 5.54139 9.30295 5.63624 9.08708 5.76053C8.85618 5.89331 8.54154 6.1445 8.3839 6.35578C8.01694 6.84768 7.78799 7.40369 7.78799 8.03296Z" fill="#F72222"/>
<path fill-rule="evenodd" clip-rule="evenodd" d="M9.31909 6.571C9.36946 6.56904 9.52579 6.47811 9.5899 6.44737C10.0811 6.21385 10.7784 6.24067 11.2389 6.51867C11.324 6.56969 11.4084 6.62987 11.4764 6.68678C11.7066 6.87975 11.6746 6.94058 11.8329 6.74238C11.9114 6.64426 11.8178 6.60174 11.6452 6.4598C11.1264 6.03462 10.3768 5.89398 9.71745 6.10003C9.5827 6.1419 9.45057 6.20011 9.33348 6.2616C9.26283 6.29888 9.17845 6.31262 9.21312 6.39766C9.23471 6.44868 9.28507 6.53829 9.31909 6.571Z" fill="white"/>
</svg>
