<svg width="24" height="24" viewBox="0 0 24 24" fill="none" xmlns="http://www.w3.org/2000/svg">
<circle cx="12" cy="12" r="12" fill="#00A6C4"/>
<path d="M14.1116 10.5575L13.9118 10.7572C14.0783 11.0133 14.1152 11.3325 14.0117 11.6198C13.8276 12.1303 13.2655 12.3961 12.7541 12.2145C12.6837 12.1895 12.6166 12.156 12.5544 12.1146L11.9142 12.7548L11.3558 12.1918C11.0892 12.3695 10.7547 12.4115 10.4524 12.3053C10.2003 12.2156 9.99443 12.0291 9.88026 11.7871C9.76608 11.5451 9.75305 11.2676 9.84405 11.016C9.87175 10.9371 9.90992 10.8623 9.95755 10.7935L9.71693 10.5529L9.67153 10.6301C9.17597 11.4407 9.15641 12.4557 9.62038 13.2848C10.0843 14.1139 10.9596 14.6281 11.9097 14.6297H11.9142C12.8634 14.6303 13.7391 14.1187 14.2049 13.2917C14.6706 12.4646 14.6541 11.4506 14.1615 10.6392L14.1116 10.5575Z" fill="white"/>
<path d="M10.253 11.0886C10.1823 11.1829 10.144 11.2976 10.144 11.4155C10.1445 11.7112 10.3841 11.9507 10.6798 11.9512C10.7985 11.9518 10.9138 11.9118 11.0066 11.8377L10.253 11.0886Z" fill="white"/>
<path d="M12.8813 11.7923C12.9695 11.8527 13.0741 11.8844 13.181 11.8831C13.4766 11.8826 13.7162 11.643 13.7167 11.3474C13.7173 11.2406 13.6857 11.1362 13.6259 11.0478L12.8813 11.7923Z" fill="white"/>
<path fill-rule="evenodd" clip-rule="evenodd" d="M9.75342 10.1761L11.9235 12.3552L14.0663 10.2215L13.9846 10.1307C13.4513 9.53926 12.6926 9.20115 11.8962 9.20001H11.8917C11.1145 9.1977 10.3713 9.51834 9.83968 10.0853L9.75342 10.1761ZM11.9232 11.9965L10.1072 10.176C10.5855 9.7098 11.228 9.4505 11.8959 9.45419H11.9005C12.5823 9.45653 13.2353 9.72918 13.7164 10.2124L11.9232 11.9965Z" fill="white"/>
<path d="M9.53082 13.7581L9.27658 13.7399C8.19609 13.6718 6.707 13.404 5.74454 12.5368C5.14982 12.0057 5.03632 11.5017 5.03178 11.479L5 11.3247H8.93155L8.90885 11.47C8.89074 11.6024 8.88164 11.7358 8.88161 11.8695C8.87951 12.4655 9.05494 13.0487 9.38554 13.5447L9.53082 13.7581Z" fill="white"/>
<path d="M14.2886 13.7581L14.4293 13.5447C14.7592 13.0518 14.9347 12.4717 14.9332 11.8786C14.9334 11.7419 14.9243 11.6054 14.906 11.47L14.8878 11.3247H18.8194L18.7876 11.479C18.7831 11.5017 18.6696 12.0057 18.0794 12.5368C17.1169 13.404 15.6233 13.6718 14.5428 13.7399L14.2886 13.7581Z" fill="white"/>
</svg>
