<svg width="24" height="24" viewBox="0 0 24 24" fill="none" xmlns="http://www.w3.org/2000/svg">
<circle cx="12" cy="12" r="12" fill="#5411B3"/>
<path fill-rule="evenodd" clip-rule="evenodd" d="M12.5215 4.03352L12.5215 4.03353C12.7895 4.19788 13.0573 4.3622 13.3279 4.52132C15.2225 5.6305 17.1171 6.73817 19.0139 7.84283C19.1387 7.91526 19.194 7.996 19.194 8.15068C19.1903 10.7856 19.191 13.4204 19.2 16.0553C19.2 16.2273 19.1223 16.299 18.9982 16.3715C16.744 17.6885 14.4914 19.0078 12.2387 20.3271L12.237 20.3281L12.2368 20.3283C12.2127 20.3425 12.1905 20.3601 12.1684 20.3776C12.1588 20.3852 12.1493 20.3927 12.1396 20.4H12.0574C11.8554 20.2798 11.6533 20.1593 11.4512 20.0388L11.449 20.0375C10.9716 19.7528 10.4938 19.4679 10.0148 19.1867C8.40501 18.2427 6.79369 17.3003 5.18087 16.3624C5.0441 16.2832 4.99926 16.1926 5.00001 16.0342C5.00748 13.4204 5.00898 10.8067 5.00375 8.19218C5.00375 8.00505 5.06727 7.91074 5.21974 7.82245C7.317 6.60117 9.41096 5.3759 11.5053 4.15039L11.9147 3.91089C11.9498 3.89033 11.9814 3.86347 12.0129 3.83675L12.0129 3.83674C12.0277 3.82423 12.0424 3.81176 12.0574 3.79997H12.1396C12.2671 3.87746 12.3943 3.9555 12.5215 4.03352ZM14.2366 16.9894C14.4783 17.1566 14.7158 17.3302 14.9568 17.5064C15.0236 17.5552 15.0906 17.6043 15.1581 17.6534L15.1662 17.6499L15.1662 17.6499C15.1827 17.6427 15.2041 17.6334 15.2239 17.6225L15.8259 17.2711C16.6347 16.7991 17.444 16.3269 18.25 15.8493C18.3098 15.8138 18.3621 15.7097 18.3621 15.638C18.3673 13.2793 18.3666 10.9214 18.3599 8.5634C18.353 8.48033 18.3104 8.40448 18.2433 8.3559C17.6916 8.02842 17.1383 7.70419 16.5851 7.37999C16.1415 7.12005 15.698 6.86013 15.2553 6.59856C15.1522 6.5382 15.0946 6.55631 15.0072 6.62497C14.7658 6.81587 12.3921 8.27969 11.4624 8.84334C10.736 9.28248 10.026 9.74577 9.46396 10.4052C8.68894 11.3145 8.61644 12.5746 9.2943 13.563C9.62987 14.0535 10.0775 14.4262 10.5574 14.7575C10.8199 14.9382 11.0881 15.11 11.3561 15.2817L11.3561 15.2817L11.3563 15.2818C11.4789 15.3603 11.6013 15.4388 11.7232 15.518C11.72 15.5227 11.7172 15.5274 11.7145 15.5318L11.7145 15.5319C11.7086 15.5417 11.7035 15.5501 11.6963 15.5543L11.3908 15.7336L11.3908 15.7336C10.9802 15.9747 10.5694 16.2159 10.1538 16.4499C10.1037 16.4778 9.99982 16.4499 9.94302 16.4137C9.39199 16.0547 8.8865 15.629 8.43782 15.1461C7.14487 13.7773 6.8818 11.534 7.82498 9.89744C8.25941 9.14245 8.8636 8.50118 9.58877 8.02541C10.3118 7.54803 12.0261 6.51064 12.9406 5.95727L12.9406 5.95726L12.9406 5.95724C13.2172 5.7899 13.4205 5.66683 13.5012 5.6169C13.4896 5.60159 13.4812 5.58904 13.4744 5.57884C13.4638 5.5629 13.457 5.55271 13.4474 5.54673C13.3529 5.49105 13.2585 5.43513 13.1641 5.37922L13.1639 5.37907C12.8465 5.19106 12.5293 5.00314 12.2068 4.82463C12.1455 4.79067 12.0342 4.8035 11.9676 4.83821C11.7942 4.92861 11.6262 5.0293 11.4584 5.12993L11.4584 5.12994C11.4035 5.16285 11.3486 5.19576 11.2935 5.22831C11.1357 5.32125 10.9784 5.41515 10.8058 5.51813L10.8057 5.51821L10.6732 5.59728L11.7479 6.27939C11.6145 6.3589 11.4829 6.43761 11.3526 6.51558L11.3522 6.51576L11.3522 6.51581C10.9458 6.75886 10.5515 6.99466 10.1538 7.22484C10.1119 7.24898 10.0222 7.23012 9.97665 7.19843C9.71645 7.02164 9.46268 6.8354 9.21583 6.64006C9.10746 6.55329 9.03571 6.54499 8.91464 6.61667C7.93724 7.19372 6.95718 7.76618 5.9745 8.33402C5.86613 8.39665 5.831 8.46984 5.831 8.5966C5.83474 10.9342 5.83399 13.2718 5.83026 15.6086C5.83026 15.7338 5.86239 15.8078 5.97375 15.8727C6.94981 16.4371 7.92288 17.0075 8.89371 17.5817C9.00134 17.6459 9.07308 17.6428 9.18145 17.5697C9.878 17.0996 13.0648 15.0827 13.9504 14.5266C14.0545 14.4612 14.1471 14.3763 14.2394 14.2916L14.2395 14.2916C14.2804 14.2541 14.3212 14.2167 14.3629 14.181L14.3405 14.1282H11.0327L11.2222 13.7953C11.4887 13.3268 11.7447 12.8768 12.008 12.4312C12.0379 12.3814 12.1478 12.3603 12.221 12.3603C13.3876 12.3573 14.5546 12.3576 15.7214 12.3579L16.7216 12.358C16.7595 12.358 16.7974 12.3607 16.8384 12.3637H16.8385L16.8385 12.3637C16.8623 12.3654 16.8871 12.3672 16.9137 12.3686C16.9149 12.3914 16.9174 12.4135 16.9198 12.4348C16.9249 12.4803 16.9296 12.5222 16.9204 12.5602C16.8925 12.6775 16.8672 12.7958 16.8419 12.9142L16.8419 12.9142C16.7778 13.2141 16.7137 13.5142 16.6065 13.7977C16.2523 14.7378 15.5954 15.4607 14.7949 16.0176C14.0249 16.5525 11.774 17.9007 10.925 18.4093C10.8099 18.4782 10.7206 18.5317 10.6642 18.5657C10.6735 18.5823 10.6795 18.5949 10.684 18.6043C10.6903 18.6176 10.6937 18.6248 10.6994 18.6283C10.7888 18.6815 10.8803 18.7321 10.9718 18.7827L10.9718 18.7827C11.1746 18.8947 11.3773 19.0068 11.5581 19.1482C11.9355 19.4424 12.2643 19.4409 12.6418 19.1482C12.8276 19.0043 13.0352 18.8894 13.2531 18.7686L13.2531 18.7686L13.2531 18.7686C13.3541 18.7127 13.4574 18.6555 13.5618 18.5936L12.4676 17.9032C12.4783 17.8937 12.4873 17.885 12.4955 17.8771L12.4955 17.8771C12.5103 17.8627 12.5224 17.8511 12.5364 17.8428L12.7185 17.736C13.1586 17.4779 13.5991 17.2195 14.0431 16.9675C14.0909 16.9411 14.1881 16.9555 14.2366 16.9894ZM16.8778 11.4578C16.8494 10.9998 16.6573 10.406 16.3995 9.94423C15.8748 9.00557 15.0938 8.32799 14.2194 7.74775C14.1589 7.70776 14.0244 7.73341 13.9496 7.77567C13.6416 7.94668 13.3385 8.12546 13.0355 8.30418C12.9267 8.36833 12.818 8.43248 12.709 8.49626C12.6576 8.52654 12.6071 8.55743 12.5511 8.59167C12.5192 8.61118 12.4855 8.63177 12.4489 8.65396C12.4642 8.66462 12.4779 8.67428 12.4906 8.68315C12.528 8.7094 12.5555 8.72871 12.5834 8.74676C12.723 8.83993 12.8639 8.93138 13.0048 9.02282C13.3111 9.22169 13.6174 9.42056 13.9108 9.63713C14.5139 10.0823 15.0243 10.612 15.2635 11.3575C15.2777 11.4013 15.3479 11.4533 15.3928 11.4541C15.7664 11.4593 16.1396 11.4587 16.5206 11.4582C16.6388 11.458 16.7578 11.4578 16.8778 11.4578Z" fill="white"/>
</svg>
