<svg width="24" height="24" viewBox="0 0 24 24" fill="none" xmlns="http://www.w3.org/2000/svg">
<circle cx="12" cy="12" r="12" fill="black"/>
<ellipse cx="11.9747" cy="12" rx="10.7183" ry="10.7183" fill="#FEF102"/>
<path fill-rule="evenodd" clip-rule="evenodd" d="M17.0513 7.97907C16.9952 7.85016 16.9398 7.69376 16.8803 7.52575C16.6729 6.94039 16.4155 6.21412 15.9078 6.01886C15.0659 5.69216 14.5382 7.81572 14.4125 8.35603H14.2869L14.2768 8.3125C14.064 7.39793 13.7685 6.12741 12.779 5.84294C12.3141 7.80315 13.2691 9.92671 14.1612 11.623C15.1162 11.1707 15.5811 9.73823 15.6691 8.73299H15.7947L16.8 11.7487C17.5732 11.5312 17.8701 10.7794 18.1488 10.074L18.1822 9.98954C18.8104 8.43142 19.3382 6.50891 18.9361 4.83771C17.8504 5.14306 17.4467 6.57829 17.1478 7.64089L17.1477 7.641C17.1146 7.75897 17.0827 7.87234 17.0513 7.97907ZM4.9883 12C6.06893 11.4848 6.58411 9.85134 6.74746 8.73301H6.87312C6.99877 9.27333 7.33804 10.6681 8.01657 10.7561C8.87102 10.8691 9.32338 8.95919 9.38621 8.35605H9.51186C9.5325 8.42642 9.55321 8.4984 9.57426 8.57155L9.57432 8.57175C9.83515 9.47824 10.1477 10.5646 11.0197 10.9948C11.3715 9.52464 10.9569 7.96652 10.4166 6.59689C10.3991 6.55243 10.3794 6.49833 10.3574 6.43775L10.3574 6.43774C10.2051 6.01893 9.93998 5.29008 9.51186 5.29008C8.75254 5.29008 8.30536 7.22076 8.14815 7.89951L8.12966 7.97909H8.00401L6.99877 4.96338C5.22704 5.80526 4.27207 10.3037 4.9883 12ZM15.9203 20.0545C10.4669 22.4796 4.41032 19.2377 3.10352 13.5079C3.64383 13.3571 4.24697 13.4576 4.64907 13.7592C4.98563 14.0244 5.19802 14.4634 5.39375 14.8679C5.43916 14.9618 5.48368 15.0538 5.52865 15.1414C6.03126 16.1089 6.78519 16.9131 7.62708 17.5917C11.3841 20.6451 16.7119 18.9613 18.6847 15.1414L17.5915 15.0534H17.5538C17.2773 15.0157 17.0889 14.7519 17.1266 14.4754C17.1517 14.3749 17.2145 14.2869 17.3025 14.2492C17.9433 13.9728 20.5444 12.8796 20.8082 13.5456C21.0675 14.1999 20.6354 15.1089 20.3937 15.6172L20.381 15.644C19.4763 17.6042 17.9056 19.1749 15.9203 20.0545Z" fill="black"/>
</svg>
