<svg width="24" height="24" viewBox="0 0 24 24" fill="none" xmlns="http://www.w3.org/2000/svg">
<circle cx="12" cy="12" r="12" fill="#EDF0F4"/>
<circle cx="12" cy="12" r="9" fill="#377E96"/>
<path fill-rule="evenodd" clip-rule="evenodd" d="M9.26238 3.42412C10.1495 3.15056 11.0718 3.00769 12.0001 3C11.0711 2.99915 10.1476 3.14222 9.26238 3.42412ZM16.2891 19.9139L16.2922 19.9116C16.6788 19.7018 17.0469 19.4646 17.3961 19.2029C17.3523 19.2349 17.3085 19.2658 17.2647 19.2967L17.2645 19.2968C17.0783 18.6145 16.6536 18.1477 16.054 17.831C15.5882 17.5841 15.078 17.4929 14.5611 17.462C14.1027 17.4345 13.6439 17.4164 13.185 17.3984C12.7896 17.3828 12.3941 17.3672 11.9989 17.3456C11.5804 17.3226 11.1624 17.2879 10.7443 17.2533C10.5595 17.238 10.3748 17.2226 10.1899 17.2083L10.1725 17.2061C9.55821 17.0767 9.3709 16.7043 9.69321 16.1689C9.83623 15.9312 10.0404 15.7279 10.2404 15.5288L10.2962 15.4731C10.344 15.4253 10.4824 15.4433 10.5718 15.4646C11.5815 15.7059 12.5906 15.7183 13.5739 15.3707C14.7782 14.9455 15.6062 14.1276 15.9083 12.862C16.113 12.0042 16.0056 11.1633 15.6006 10.3702L15.5156 10.2015H16.2638C16.3189 10.2015 16.3739 10.2018 16.429 10.2022C16.5821 10.2032 16.7351 10.2041 16.8881 10.1975C16.9433 10.1953 17.0299 10.1632 17.0445 10.1238C17.189 9.73229 17.3256 9.33758 17.4623 8.94269L17.5406 8.7165L17.5013 8.66194C17.4793 8.67113 17.4546 8.67838 17.4299 8.68563L17.4299 8.68563C17.3761 8.70143 17.3223 8.7172 17.2976 8.75306C17.1081 9.02474 16.8353 9.12655 16.5281 9.13217C16.1013 9.14115 15.6742 9.13917 15.2469 9.1372L15.2466 9.1372C15.085 9.13645 14.9235 9.1357 14.7619 9.13555C14.7562 9.13555 14.7505 9.13102 14.743 9.12512C14.7388 9.12172 14.7339 9.11787 14.7281 9.11417L15.0593 8.75913C15.3338 8.46489 15.6078 8.17123 15.8807 7.87671C16.2986 7.42559 16.6856 6.95198 16.9511 6.39231C17.2639 5.73083 17.3275 5.08116 16.8308 4.46861C16.8273 4.46451 16.827 4.45812 16.8263 4.44274V4.44272C16.8259 4.43281 16.8252 4.41916 16.8235 4.39999C16.0848 3.9302 15.2813 3.57126 14.4385 3.33464C14.8872 3.46275 15.3257 3.62445 15.7502 3.81838C15.7934 3.83819 15.836 3.85939 15.8779 3.88194C15.8838 3.88451 15.8877 3.89091 15.8929 3.89927L15.8929 3.89928C15.8956 3.90373 15.8987 3.90873 15.9026 3.914C15.8316 3.914 15.7608 3.91151 15.6902 3.90902C15.5361 3.9036 15.3835 3.89823 15.235 3.91906C14.569 4.01244 14.1718 4.43092 13.9581 5.04403C13.9159 5.16553 13.8911 5.29603 13.872 5.42427C13.8671 5.45596 13.88 5.49024 13.893 5.52483C13.8992 5.5412 13.9054 5.55763 13.9097 5.57389C13.9279 5.56498 13.9482 5.55759 13.9685 5.55022L13.9685 5.55021C14.0122 5.53434 14.0556 5.51856 14.0768 5.48783C14.1173 5.4288 14.1498 5.36437 14.1823 5.30009L14.1823 5.30008C14.2169 5.23145 14.2514 5.16298 14.2956 5.10141C14.7304 4.49336 15.5831 4.42136 16.0787 4.95516C16.4162 5.31853 16.4612 5.75614 16.3555 6.22188C16.2199 6.81924 15.8925 7.31422 15.5055 7.76983C15.238 8.08512 14.9519 8.38383 14.6659 8.68232L14.5245 8.83012C14.4885 8.86781 14.3895 8.89424 14.3501 8.87174C13.6476 8.47069 12.8933 8.29238 12.0861 8.27382C10.9954 8.24907 10.0015 8.5005 9.15771 9.21655C8.29203 9.95171 7.80265 10.8826 7.81615 12.0323C7.83134 13.375 8.4169 14.4038 9.5914 15.081L9.69828 15.1429C9.70047 15.1445 9.70197 15.1474 9.7053 15.154C9.70794 15.1593 9.71174 15.1668 9.71796 15.1778C9.70267 15.1918 9.68668 15.2061 9.67035 15.2207L9.67033 15.2207C9.64223 15.2458 9.6131 15.2719 9.58465 15.2993C9.47761 15.4037 9.36907 15.5068 9.26051 15.6099L9.2605 15.6099L9.26049 15.6099L9.26047 15.6099L9.26046 15.6099L9.26044 15.61L9.26043 15.61L9.26041 15.61L9.26041 15.61L9.2604 15.61L9.2604 15.61L9.26039 15.61L9.26039 15.61L9.26038 15.61L9.26037 15.61C8.9982 15.8591 8.73596 16.1082 8.49453 16.3759C8.20597 16.6965 8.00965 17.0784 7.98153 17.5267C7.96297 17.8186 8.05184 18.0734 8.26447 18.2658C8.42175 18.4079 8.58975 18.5385 8.76293 18.6732L8.76294 18.6732C8.8406 18.7335 8.91929 18.7947 8.99853 18.8581C8.9306 18.9295 8.86274 19.001 8.79484 19.0726C8.52034 19.362 8.24527 19.652 7.96297 19.9347C7.93428 19.9634 7.85778 19.9724 7.79928 19.9611C8.11971 20.1305 8.45013 20.2802 8.78872 20.4094L8.72965 20.3757C8.75357 20.3277 8.77597 20.2783 8.79845 20.2288C8.84841 20.1187 8.89876 20.0077 8.96703 19.9088C9.16953 19.6163 9.38721 19.3328 9.61221 19.0572C9.65496 19.0038 9.7624 18.9757 9.83721 18.9813C10.221 19.0064 10.6045 19.0348 10.9878 19.0632L10.9883 19.0632H10.9883H10.9884H10.9884H10.9884H10.9885H10.9885H10.9885C11.4629 19.0984 11.9372 19.1335 12.4118 19.1624C12.7517 19.183 13.092 19.197 13.4322 19.2111H13.4323C13.8634 19.2288 14.2944 19.2466 14.7248 19.2777C15.0713 19.3019 15.4166 19.3767 15.7564 19.4577C15.9943 19.5145 16.2058 19.64 16.3363 19.879L16.2922 19.9116L16.288 19.9139H16.2891ZM13.5611 20.8645C13.0151 20.96 12.4616 21.0052 11.9073 20.9995C12.4611 20.9941 13.0138 20.9489 13.5611 20.8645ZM21.0002 11.9998V12.0279V12.0285C20.996 11.2612 20.901 10.4971 20.7173 9.75209C20.9018 10.4704 21.0002 11.2235 21.0002 11.9998ZM18.9075 6.23147L18.8817 6.20084L18.908 6.23147H18.9075ZM17.1137 4.59352C17.7865 5.08003 18.3773 5.61545 18.8817 6.20084C18.3661 5.58933 17.7715 5.04883 17.1137 4.59352ZM6.40873 19.0516C6.80551 19.3665 7.22814 19.6475 7.67211 19.8914C7.5676 19.8239 7.46231 19.7571 7.35697 19.6904L7.35693 19.6903C7.03422 19.4858 6.71109 19.281 6.40873 19.0516ZM3.00002 12.0172C3.00112 11.5377 3.03816 11.059 3.11083 10.5851C3.03611 11.0586 2.99905 11.5373 3.00002 12.0166V12.0172ZM5.82706 5.45073C5.39051 5.86933 4.99322 6.32704 4.64019 6.81813V6.81756C4.98913 6.32343 5.38674 5.86552 5.82706 5.45073ZM13.9721 12.3603L14.0058 12.3687H14.0064C13.9855 12.5017 13.9682 12.6356 13.9509 12.7695C13.9127 13.0647 13.8745 13.3596 13.7983 13.6444C13.6053 14.3695 13.1317 14.8572 12.378 14.982C11.5843 15.1148 10.9458 14.8212 10.488 14.149C10.1319 13.6253 9.95528 13.0364 9.88047 12.4177C9.80284 11.7674 9.79047 11.1144 9.94347 10.4698C10.1043 9.78861 10.4615 9.25425 11.1348 8.99439C11.955 8.67714 12.81 8.99664 13.3218 9.78861C13.6678 10.323 13.8461 10.9158 13.9125 11.5436C13.9322 11.7261 13.9434 11.9097 13.9547 12.0933C13.9602 12.1824 13.9657 12.2714 13.9721 12.3603Z" fill="white"/>
</svg>
