<svg width="26" height="24" viewBox="0 0 26 24" fill="none" xmlns="http://www.w3.org/2000/svg">
<circle cx="14" cy="12" r="12" fill="#6747ED"/>
<path fill-rule="evenodd" clip-rule="evenodd" d="M13.3894 13.5896C11.6183 13.5896 10.1965 12.1665 10.1965 10.3938C10.1965 8.6211 11.6183 7.19795 13.3894 7.19795C15.1604 7.19795 16.5823 8.6211 16.5823 10.3938C16.5823 12.1665 15.1604 13.5896 13.3894 13.5896ZM13.3894 5.60001C16.0335 5.60001 18.1787 7.74721 18.1787 10.3938C18.1787 13.0403 16.0335 15.1875 13.3894 15.1875C10.7453 15.1875 8.6001 13.0403 8.6001 10.3938C8.6001 7.74721 10.7453 5.60001 13.3894 5.60001ZM17.954 15.4372C18.2783 15.7618 18.2783 16.2611 17.954 16.5608L14.7611 19.7566C14.4369 20.0812 13.938 20.0812 13.6386 19.7566C13.3144 19.432 13.3144 18.9327 13.6386 18.6331L16.8315 15.4372C17.1308 15.1126 17.6547 15.1126 17.954 15.4372ZM19.8 6.39899C19.8 6.84841 19.4508 7.19795 19.0018 7.19795C18.5528 7.19795 18.2036 6.84841 18.2036 6.39899C18.2036 5.94958 18.5528 5.60003 19.0018 5.60003C19.4258 5.60003 19.8 5.94958 19.8 6.39899Z" fill="white"/>
</svg>
