<svg width="24" height="24" viewBox="0 0 24 24" fill="none" xmlns="http://www.w3.org/2000/svg">
<circle cx="12" cy="12" r="12" fill="#FF0060"/>
<path d="M18.822 9.10973H11.9997C10.5347 9.10744 9.2997 10.2014 9.12514 11.6559C8.95059 13.1104 9.8917 14.4656 11.3156 14.81C12.7395 15.1544 14.1959 14.3792 14.7053 13.0057H11.9997C11.7973 13.0059 11.6031 12.9256 11.46 12.7824C11.3169 12.6393 11.2365 12.4451 11.2367 12.2427V12.1503C11.2365 11.9479 11.3169 11.7537 11.46 11.6106C11.6031 11.4674 11.7973 11.3871 11.9997 11.3873H16.5094C16.5422 11.5976 16.5578 11.8102 16.5556 12.0227C16.5433 14.536 14.4981 16.5645 11.9848 16.5563C9.47159 16.5481 7.43971 14.5062 7.4438 11.9929C7.4479 9.47968 9.48642 7.44443 11.9997 7.4444L12.1391 7.42128C12.1682 7.43471 12.1988 7.44217 12.2316 7.4444H16.2782C18.4864 7.4444 19.3881 6.26533 19.3881 4.60001H11.9997C7.9188 4.60001 4.60756 7.90604 4.60011 11.9884C4.59414 16.0708 7.89493 19.3865 11.9773 19.4C16.0597 19.4126 19.3806 16.1171 19.4 12.0347V9.69889C19.403 9.54367 19.3434 9.39377 19.2347 9.28295C19.126 9.17212 18.9773 9.1097 18.822 9.10973Z" fill="white"/>
</svg>
