<svg width="24" height="24" viewBox="0 0 24 24" fill="none" xmlns="http://www.w3.org/2000/svg">
<circle cx="12" cy="12" r="12" fill="#7F27FF"/>
<path fill-rule="evenodd" clip-rule="evenodd" d="M11.6579 7.62517H12.2556C12.8479 6.60871 13.3904 5.91751 13.9004 5.54405C14.529 5.08251 15.1728 5.07874 15.6775 5.57267C16.1489 6.03346 16.2373 6.61172 15.9268 7.16889C15.8392 7.32399 15.7228 7.47609 15.577 7.62517H17.7741C18.2872 7.62517 18.8002 8.04531 18.8002 8.62883C18.8002 9.13104 18.3703 9.63325 17.7741 9.63325H12.384V8.29453H11.5287V9.63325H6.22624C5.71397 9.63325 5.2002 9.21311 5.2002 8.62883C5.2002 8.12738 5.63011 7.62517 6.22624 7.62517H8.44757C8.30858 7.4961 8.18487 7.3516 8.07886 7.19449C7.71091 6.63431 7.75548 6.0425 8.23526 5.57267C8.73997 5.07874 9.38371 5.08326 10.0131 5.54405C10.5223 5.91751 11.0648 6.60946 11.6579 7.62517ZM11.529 10.4705H5.9711V15.9082C5.96506 16.4646 6.1887 17 6.59066 17.393C6.99262 17.786 7.54039 18.0051 8.10933 17.9999H11.5297L11.529 10.4705ZM9.50029 6.21341C9.83424 6.45812 10.2256 6.93021 10.6638 7.62517H9.89318C9.3522 7.31948 8.97669 7.01303 8.79838 6.74122C8.64198 6.50329 8.65331 6.34668 8.83993 6.16372C9.02202 5.98603 9.19127 5.98753 9.50029 6.21341ZM13.2501 7.62516H14.1711C14.6871 7.33001 15.0279 7.03185 15.176 6.76682C15.3044 6.53793 15.2772 6.364 15.0732 6.16447C14.8911 5.98602 14.7219 5.98678 14.4136 6.21341C14.0789 6.45811 13.6868 6.93021 13.2501 7.62516ZM17.9429 10.4698H12.3843V17.9999H15.8047C16.3716 18.0062 16.9179 17.7879 17.3233 17.393C17.724 17.0027 17.9477 16.4665 17.9429 15.9082V10.4698Z" fill="white"/>
</svg>
