<svg width="24" height="24" viewBox="0 0 24 24" fill="none" xmlns="http://www.w3.org/2000/svg">
<circle cx="12" cy="12" r="12" fill="#1AE3AE"/>
<path fill-rule="evenodd" clip-rule="evenodd" d="M15.77 10.5334C16.2424 11.1955 16.4988 11.9995 16.492 12.8101C16.492 13.6073 16.2356 14.4045 15.77 15.053L16.7552 15.8029C17.3826 14.9381 17.7268 13.8843 17.7268 12.8169C17.7336 11.6887 17.3624 10.5808 16.6809 9.68899L16.116 10.1983L15.77 10.5334Z" fill="#0E0333"/>
<path fill-rule="evenodd" clip-rule="evenodd" d="M17.6322 16.4671L14.3193 13.9472C14.5554 13.6365 14.6904 13.2582 14.7106 12.8663C14.7241 12.4745 14.6229 12.0894 14.4137 11.7584L15.9994 10.3262L17.6593 8.77238C17.7672 8.67102 17.774 8.49537 17.666 8.38728L17.4366 8.15758C16.2558 6.96182 14.6634 6.26598 12.99 6.21194L12.9968 5.29992C13.0035 5.23912 12.9968 5.17832 12.9833 5.11752C12.963 5.05672 12.936 5.00266 12.8955 4.95538C12.8551 4.90809 12.8078 4.87431 12.7471 4.84728C12.6931 4.82026 12.6324 4.80675 12.5716 4.80675C12.5109 4.80675 12.4502 4.82026 12.3963 4.84728C12.3423 4.87431 12.2883 4.90809 12.2478 4.95538C12.2073 5.00266 12.1735 5.05672 12.1601 5.11076C12.1399 5.17156 12.1331 5.23236 12.1466 5.29316L12.1399 6.23221C11.7417 6.27274 11.3436 6.34705 10.959 6.4619L10.9657 5.29316C10.9725 5.23236 10.9657 5.17156 10.9523 5.11076C10.9321 5.04996 10.905 4.99591 10.8646 4.94862C10.8241 4.90133 10.7768 4.86755 10.7161 4.84053C10.6622 4.81351 10.6014 4.8 10.5407 4.8C10.48 4.8 10.4192 4.81351 10.3653 4.84053C10.3113 4.86755 10.2573 4.90133 10.2168 4.94862C10.1763 4.99591 10.1426 5.04996 10.1291 5.104C10.1088 5.1648 10.1021 5.2256 10.1156 5.28641L10.0954 6.77942C8.73237 7.38743 7.6123 8.44808 6.9308 9.77897C6.24931 11.1099 6.03339 12.6367 6.33028 14.1026C6.62716 15.5686 7.41662 16.8927 8.56368 17.8521C9.71077 18.8113 11.1547 19.3518 12.6459 19.3789L17.4703 19.3991C17.6188 19.3991 17.7402 19.2775 17.7402 19.1288V16.69C17.7402 16.6022 17.6997 16.5212 17.6322 16.4671ZM12.7404 18.2033C11.5529 18.1966 10.399 17.798 9.46113 17.0751C8.52324 16.3455 7.84849 15.3254 7.54486 14.1769C7.24123 13.0285 7.32894 11.8057 7.78102 10.7113C8.23985 9.61682 9.04279 8.69805 10.0752 8.10354L10.0684 9.88028C10.0617 9.94112 10.0684 10.0019 10.0819 10.0627C10.1021 10.1235 10.1292 10.1776 10.1696 10.2248C10.2101 10.2721 10.2574 10.3059 10.3181 10.3329C10.372 10.3599 10.4328 10.3735 10.4935 10.3735C10.5542 10.3735 10.6149 10.3599 10.6689 10.3329C10.7229 10.3059 10.7769 10.2721 10.8174 10.2248C10.8578 10.1776 10.8916 10.1235 10.9051 10.0695C10.9253 10.0087 10.9321 9.94784 10.9186 9.88707L10.9253 7.70495C11.5191 7.48877 12.1466 7.38743 12.7809 7.38743C13.9482 7.38743 15.0818 7.77251 16.0061 8.47511C16.0736 8.52915 16.0804 8.62373 16.0197 8.68453L13.4961 11.0018C13.2667 10.9072 13.0171 10.8531 12.7674 10.8531C12.4908 10.8531 12.2141 10.9072 11.9577 11.022C11.7013 11.1369 11.4786 11.3058 11.2964 11.5152C11.1143 11.7246 10.9793 11.9745 10.8984 12.2381C10.8174 12.5083 10.7971 12.7852 10.8376 13.0622C10.8781 13.3392 10.9726 13.6027 11.121 13.8391C11.2695 14.0756 11.4719 14.2715 11.7013 14.4269C11.9375 14.5755 12.2006 14.6769 12.4772 14.7174C12.7539 14.7579 13.0373 14.7376 13.3004 14.6566L16.5257 17.1089C16.5595 17.136 16.5797 17.1764 16.5797 17.217L16.5729 18.0817C16.5729 18.1561 16.5122 18.2168 16.438 18.2168L12.7404 18.2033ZM13.5297 12.7987C13.5297 12.9474 13.4825 13.096 13.4015 13.2244C13.3138 13.3528 13.1991 13.4473 13.0574 13.5081C12.9157 13.5689 12.7605 13.5824 12.6188 13.5487C12.4771 13.5148 12.3354 13.4473 12.2274 13.3393C12.1195 13.2312 12.0452 13.096 12.0183 12.9474C11.9913 12.7987 12.0048 12.6434 12.0655 12.5083C12.1262 12.3664 12.2207 12.2516 12.3489 12.1637C12.4771 12.0826 12.6255 12.0354 12.774 12.0354C12.9764 12.0354 13.1721 12.1165 13.3138 12.2651C13.4487 12.4002 13.5297 12.5893 13.5297 12.7987Z" fill="#0E0333"/>
</svg>
