<svg width="24" height="24" viewBox="0 0 24 24" fill="none" xmlns="http://www.w3.org/2000/svg">
<circle cx="12" cy="12" r="12" fill="#00DCFA"/>
<path fill-rule="evenodd" clip-rule="evenodd" d="M8.93675 8.93619C9.24838 6.04553 11.7286 3.8 14.6487 3.8C17.8244 3.80208 20.3981 6.3762 20.3998 9.5519C20.3998 12.4712 18.1543 14.9514 15.2629 15.2638C14.961 18.1545 12.471 20.4 9.55095 20.4C6.37525 20.3979 3.80147 17.8238 3.7998 14.6481C3.7998 11.7288 6.04458 9.24858 8.93675 8.93619ZM15.302 13.9456C17.238 13.6509 18.7574 12.1315 19.0521 10.1955H15.302V13.9456ZM5.14735 14.0045L5.14883 13.9947H8.89745V10.2446C6.96169 10.5399 5.44328 12.0595 5.14883 13.9947H5.14735V14.0045ZM13.955 15.303L13.9552 15.3023V15.303H13.955ZM13.955 15.303C13.6327 17.4865 11.758 19.1033 9.55088 19.1014C7.34389 19.1033 5.46938 17.4864 5.14735 15.303H13.955ZM14.0044 10.1955V13.9947H10.1954V10.1955H14.0044ZM10.2444 8.89772H19.0522V8.89696C18.7302 6.71359 16.8556 5.09668 14.6486 5.09858C12.4412 5.09668 10.5664 6.71393 10.2444 8.89772Z" fill="white"/>
</svg>
