<svg width="24" height="24" viewBox="0 0 24 24" fill="none" xmlns="http://www.w3.org/2000/svg">
<circle cx="12" cy="12" r="12" fill="#16B9AD"/>
<path d="M19.6001 9.88933C19.6001 13.9207 16.2348 17.2 12.1001 17.2C7.96535 17.2 4.6001 13.92 4.6001 9.89082C4.6001 9.59413 4.6181 9.29669 4.6556 9.00149H6.0026C5.9576 9.29595 5.9351 9.59338 5.9351 9.89082C5.9351 13.2044 8.7011 15.9007 12.1008 15.9007C15.3453 15.9007 18.0124 13.4466 18.2509 10.3433H8.7101C8.9126 11.7925 10.0623 12.9435 11.5428 13.1813C13.0241 13.4183 14.4903 12.6863 15.1593 11.3773H16.6031C15.9468 13.2573 14.1356 14.5216 12.0986 14.5231C9.4766 14.5231 7.34285 12.444 7.34285 9.88933C7.34285 9.59115 7.37285 9.29296 7.4306 9H19.5446C19.5821 9.2952 19.6001 9.59189 19.6001 9.88933Z" fill="white"/>
</svg>
