<svg width="24" height="24" viewBox="0 0 24 24" fill="none" xmlns="http://www.w3.org/2000/svg">
<circle cx="12" cy="12" r="12" fill="#B3B3B3"/>
<path fill-rule="evenodd" clip-rule="evenodd" d="M5.06029 5.24356C6.04308 4.21561 7.83824 4.17474 8.85437 5.17367C9.91531 6.21059 10.9649 7.25736 12.0033 8.31399C12.54 7.80418 13.0597 7.27792 13.5794 6.75166L13.5794 6.75162C14.1307 6.19345 14.6819 5.63529 15.2533 5.09679C16.3098 4.14302 18.1028 4.25808 19.0431 5.3269C20.0049 6.33442 19.9893 8.09302 18.9893 9.07152C18.2496 9.82478 17.5032 10.5697 16.7565 11.3148C16.4661 11.6047 16.1757 11.8945 15.8856 12.185C16.3551 12.669 16.8334 13.1445 17.312 13.6202L17.3121 13.6202L17.3122 13.6203C17.9126 14.2171 18.5134 14.8143 19.0974 15.429C20.0393 16.4618 19.949 18.2199 18.9291 19.1694C17.9243 20.1833 16.1243 20.186 15.1216 19.1694C14.522 18.5821 13.9298 17.9852 13.3378 17.3886L13.3378 17.3886C12.9001 16.9474 12.4625 16.5063 12.0221 16.0694C11.528 16.5447 11.0443 17.0304 10.5604 17.5163C9.9612 18.1179 9.36183 18.7198 8.74255 19.3022C7.67265 20.2516 5.86781 20.1086 4.94631 19.0204C4.01835 18.0151 4.04039 16.3016 5.00921 15.3274C5.91889 14.3941 6.8447 13.4764 7.77319 12.5661C7.96755 12.76 8.16203 12.9544 8.35652 13.1489L8.35704 13.1495C8.55136 13.3438 8.74567 13.5381 8.93986 13.7317C8.54913 14.1354 8.14968 14.5315 7.75007 14.9278L7.75003 14.9278L7.75 14.9279C7.21872 15.4547 6.68713 15.9819 6.17534 16.5274C5.5705 17.1473 6.1033 18.3016 6.95276 18.2882C7.40664 18.328 7.73669 18.0009 8.03811 17.7022L8.03818 17.7021C8.07842 17.6623 8.11815 17.6229 8.1576 17.585C8.60536 17.1288 9.05668 16.6767 9.50797 16.2247L9.50815 16.2245C9.95143 15.7805 10.3947 15.3365 10.8345 14.8887C10.0028 14.0499 9.16542 13.216 8.32797 12.382L8.32781 12.3818L8.32779 12.3818C7.21632 11.2749 6.10478 10.168 5.00652 9.04948C4.00168 8.03711 4.03341 6.2312 5.06029 5.2484V5.24356ZM6.18376 7.87314C6.83183 8.54909 7.49539 9.20871 8.15934 9.86871C8.54522 10.2523 8.93123 10.636 9.3144 11.0231C9.8162 10.5135 10.3226 10.007 10.8338 9.50378C10.5888 9.257 10.3441 9.00965 10.0993 8.76223L10.0992 8.76206L10.0992 8.76204C9.33563 7.99025 8.5715 7.21784 7.7972 6.46023C7.47139 6.10862 6.91387 5.97636 6.4886 6.23013C5.8972 6.51669 5.71118 7.39572 6.18268 7.87367L6.18376 7.87314ZM12.9147 9.76429C14.006 8.66756 15.0972 7.57097 16.2011 6.48713H16.2005C16.5129 6.13552 17.0414 5.97799 17.4753 6.20111C18.1199 6.46724 18.3226 7.40756 17.8167 7.89896C17.256 8.49777 16.6717 9.07339 16.0874 9.64893C15.6268 10.1027 15.1661 10.5565 14.7172 11.0215C14.3215 10.6425 13.935 10.257 13.5484 9.87158L13.5484 9.87154C13.1627 10.2622 12.7754 10.6515 12.3866 11.0393C14.0855 12.7443 15.788 14.4457 17.4941 16.1436C17.8565 16.4796 18.2398 16.9414 18.0715 17.4758C17.9145 18.2307 16.8581 18.5785 16.314 18.0054C15.53 17.267 14.775 16.4999 14.0201 15.7328C13.7422 15.4505 13.4643 15.1681 13.1849 14.8871C13.5715 14.5038 13.9538 14.1205 14.3333 13.7328C14.0724 13.4758 13.8136 13.2167 13.5549 12.9576C13.4256 12.8281 13.2962 12.6986 13.1667 12.5694L13.1663 12.5697C12.782 12.9551 12.3977 13.3405 12.0113 13.7215C11.5081 13.2076 10.9935 12.7049 10.4763 12.2043C11.2927 11.3943 12.1038 10.5793 12.9147 9.76429Z" fill="url(#paint0_linear_300_15875)"/>
<defs>
<linearGradient id="paint0_linear_300_15875" x1="19.7523" y1="19.9339" x2="19.7523" y2="4.44786" gradientUnits="userSpaceOnUse">
<stop stop-color="#2F75BB"/>
<stop offset="1" stop-color="#0A4185"/>
</linearGradient>
</defs>
</svg>
