<svg width="24" height="24" viewBox="0 0 24 24" fill="none" xmlns="http://www.w3.org/2000/svg">
<circle cx="12" cy="12" r="12" fill="#EDF0F4"/>
<path fill-rule="evenodd" clip-rule="evenodd" d="M8.30046 16.2108V17.2359H7.97222V16.8692H7.52111V17.2359H7.2002V16.2127H7.52111V16.5611H7.97222V16.2108H8.30046ZM11.7388 16.2108V16.5024H10.8824V16.9444H11.7333V17.2359H10.5615V16.2127H11.7333L11.7388 16.2108ZM15.9694 16.2108L16.4168 16.6528V16.2108H16.7359V17.2359H16.4131L15.9639 16.7811V17.2359H15.6356V16.2108H15.9694ZM13.3801 16.2108V16.5611L13.0683 16.8692H13.3801V17.2359H13.039V16.8692H12.5383V17.2359H12.2028V16.2127H12.5383V16.5611H13.039V16.2108H13.3801ZM9.95083 16.2108H10.0058V17.2359H9.6941V17.014H9.23933V17.2359H8.92025V16.2127H9.95083V16.2108ZM15.0084 16.2108V16.5024H14.2419V16.5794H15.0139V16.8692H14.2419V16.9462H15.0139V17.2359H13.9137V16.2127H15.0139L15.0084 16.2108ZM9.69405 16.5024H9.23927V16.7115H9.69405V16.5024ZM7.75033 6.59999V10.8379H8.30046V6.59999H8.8506V10.8379H16.1857V10.2235H9.46675V6.59999H10.0169V9.66424H16.1857V9.11411H10.4827V6.59999H11.0328V8.55664H12.8244V6.59999H13.3745V8.55664H13.9247V6.59999H14.4748V8.55664H15.1001V6.59999H15.6503V8.55664H16.2004V6.59999H16.7505V15.5855H16.1857V11.4063H15.5641V15.5855H15.0139V11.4063H7.75033V11.9565H14.4693V15.5855H13.9192V12.5176H7.75033V13.0677H13.4534V15.5855H12.9033V13.6252H11.108V15.5855H10.5579V13.6252H10.0077V15.5855H9.45758V13.6252H8.8506V15.5855H8.30046V13.6252H7.75033V15.5855H7.2002V6.59999H7.75033Z" fill="#4ADDA5"/>
</svg>
