<svg width="24" height="24" viewBox="0 0 24 24" fill="none" xmlns="http://www.w3.org/2000/svg">
<circle cx="12" cy="12" r="12" fill="#EDF0F4"/>
<path fill-rule="evenodd" clip-rule="evenodd" d="M19.1348 10.0363C19.1348 10.0363 19.1348 10.1018 19.0694 10.1018C18.9385 10.6254 17.433 13.5054 16.9094 14.0291L16.8439 14.0945L16.3203 14.6182L19.2003 15.9927C17.5639 17.8909 15.0112 19.1345 12.0658 19.1345C9.12029 19.1345 6.56757 17.8909 4.9312 15.9927L4.80029 15.8618L7.54938 14.6182L7.28757 14.3563L6.96029 14.0945C6.56757 13.7673 5.12757 10.9527 4.9312 10.2327L4.86575 10.1673C5.71666 10.7563 8.07302 11.3454 10.8876 11.4763H11.1494H11.4112H11.8694H12.3276H12.5239H12.7857C15.6003 11.3454 17.8258 10.8218 18.8076 10.2327L18.873 10.1673L19.1348 10.0363ZM8.07273 12L8.26909 12.6545C8.4 13.0473 8.53091 13.44 8.66182 13.7673L8.79273 14.0291L9.12 14.6182C9.18546 14.6836 9.18546 14.7491 9.25091 14.8145L9.31636 14.88L9.57818 15.0764C10.0364 15.3382 10.4945 15.6 11.0836 15.7309L11.28 15.7964L11.8691 15.9273H12H12.0655H12.1964L12.7855 15.7964C13.3745 15.6654 13.8327 15.4691 14.2909 15.2073L14.4873 15.0764L14.7491 14.88C14.8145 14.8145 14.88 14.7491 14.88 14.6836L14.9455 14.6182L15.2727 14.0291C15.4691 13.6364 15.6 13.3091 15.7309 12.9164L15.7964 12.5891L15.9273 12C15.5345 12.72 14.8145 13.1782 13.9636 13.3091H13.8327H13.7018C13.0473 13.2436 12.4582 12.8509 12.1309 12.3273L12.0655 12.1964H12L11.9345 12.3273C11.6073 12.8509 11.0182 13.1782 10.3636 13.3091H10.2327H10.1018H9.97091C9.12 13.2436 8.4 12.72 8.07273 12ZM12.0003 4.8C12.5239 4.8 13.2439 5.19273 14.2912 6.04364L14.4221 6.17455L14.8803 6.56728L16.1239 7.61455L16.9748 7.87637C17.1058 7.94182 17.2367 7.94182 17.3676 8.00728L17.6294 8.07273H17.8258L18.0876 8.13818L18.2185 8.20364L18.3494 8.26909C18.9385 8.46546 19.2003 8.72728 19.2003 9.05455V9.12V9.18546L19.1348 9.25091L19.0694 9.31637C18.153 9.97091 15.7967 10.56 12.9167 10.6909H12.6548H12.4585H12.0003H11.5421H11.2148C8.20393 10.56 5.78211 9.97091 4.86575 9.31637C4.80029 9.25091 4.80029 9.12 4.80029 9.05455C4.80029 8.66182 5.12757 8.4 5.78211 8.13818C5.6512 8.00728 5.6512 7.94182 5.52029 7.81091C5.71666 7.61455 6.04393 7.41818 6.30575 7.35273C6.82938 7.28728 7.15666 7.41818 7.48393 7.48364C7.22211 7.35273 6.69848 6.82909 6.56757 6.63273C6.30575 6.10909 6.50211 5.71637 6.63302 5.52V5.45455L6.69848 5.38909L6.76393 5.32364H6.82938C6.96029 5.32364 7.48393 5.32364 7.68029 5.52C8.07302 6.10909 8.00757 6.76364 8.20393 7.09091C8.33484 6.76364 8.26938 6.43637 8.5312 6.04364C8.72757 5.58546 9.51302 5.06182 10.1021 5.19273C10.1021 5.38909 10.233 5.52 10.1676 5.78182C10.953 5.12728 11.5421 4.8 12.0003 4.8Z" fill="#06803F"/>
</svg>
