<svg width="24" height="24" viewBox="0 0 24 24" fill="none" xmlns="http://www.w3.org/2000/svg">
<circle cx="12" cy="12" r="12" fill="#EDF0F4"/>
<path fill-rule="evenodd" clip-rule="evenodd" d="M13.6054 8.92265C13.6054 6.62922 12.4999 4.65335 11.6531 4.00648C11.6531 4.00648 11.5943 3.9712 11.5943 4.06529C11.5237 8.49925 9.27732 9.71065 8.03064 11.3219C5.17267 15.062 7.8307 19.1549 10.5358 19.9076C12.053 20.331 10.1829 19.1549 9.94771 16.685C9.66544 13.6859 13.6054 11.4043 13.6054 8.92265Z" fill="#282E5B"/>
<path fill-rule="evenodd" clip-rule="evenodd" d="M15.0872 10.4398C15.0754 10.4281 15.0519 10.4281 15.0284 10.4398L15.0166 10.4516C14.9696 11.0044 14.358 12.204 13.5935 13.2978C10.9943 17.0143 12.4762 18.802 13.3112 19.7665C13.7935 20.331 13.3112 19.7665 14.5226 19.1902C14.6167 19.1431 16.8749 17.9435 17.1219 15.2266C17.3688 12.5804 15.687 10.922 15.0872 10.4398Z" fill="#059BDC"/>
</svg>
