<svg width="24" height="24" viewBox="0 0 24 24" fill="none" xmlns="http://www.w3.org/2000/svg">
<circle cx="12" cy="12" r="12" fill="#EDF0F4"/>
<path fill-rule="evenodd" clip-rule="evenodd" d="M11.4296 6.60002H8.65871C9.01088 7.11655 9.18168 7.71107 9.17748 8.33302C8.47525 8.33932 7.77309 8.33932 7.07086 8.33932H7.07082C6.7806 8.85513 6.48468 9.36827 6.18871 9.88149C5.78788 10.5766 5.38697 11.2718 5 11.9739V11.976C5.41722 12.7368 5.85075 13.4886 6.28436 14.2405C6.5477 14.6972 6.81106 15.1538 7.07082 15.6126H8.95383V14.1496H8.33783C7.92048 13.4258 7.50515 12.7013 7.09182 11.976C7.50594 11.2522 7.92067 10.5277 8.33601 9.80247H13.3422V11.2382H10.9446V9.98587H9.13716C9.13468 10.7873 9.13643 11.5887 9.13819 12.3901C9.14089 13.6229 9.14359 14.8554 9.13086 16.0871C9.17596 16.4992 8.89224 16.7513 8.61026 17.0019C8.48392 17.1142 8.35792 17.2262 8.26202 17.3521H11.8239C11.2735 16.9114 10.799 16.3844 10.8982 15.6191C12.1882 15.6114 13.4774 15.6123 14.7663 15.6132C15.5865 15.6138 16.4065 15.6144 17.2265 15.6128C17.3424 15.4151 17.4533 15.2132 17.5643 15.011C17.9623 14.2863 18.3619 13.5586 19 13.0112C18.4209 12.9342 17.8376 12.9331 17.2546 12.932C17.0075 12.9315 16.7605 12.931 16.5138 12.9248C16.3705 13.3467 16.1912 13.7533 15.9888 14.1517C15.7126 14.1496 15.4364 14.1496 15.1623 14.1496H15.1622C15.1649 13.2257 15.1632 12.3014 15.1615 11.377C15.1593 10.1984 15.1572 9.01973 15.1643 7.84176C15.1411 7.49752 15.3102 7.20638 15.4777 6.9179C15.539 6.81241 15.6 6.70727 15.6514 6.60002H12.8615C13.2222 7.11235 13.3909 7.70897 13.3803 8.33302C12.5558 8.34142 11.7291 8.34142 10.9046 8.33302C10.8919 7.70477 11.0964 7.12502 11.4296 6.60002ZM10.9445 14.1496V12.7139H13.3421V14.1496H10.9445Z" fill="#56428E"/>
<path d="M15.3455 8.33931H17.222C17.7366 9.16153 18.0908 10.1103 18.8331 10.7683C18.8479 10.8168 18.8751 10.9159 18.89 10.9643C18.0971 11.0676 17.294 10.9875 16.4945 11.0273C16.3933 10.5888 16.1929 10.1861 15.9715 9.80036C15.8134 9.80036 15.5012 9.80246 15.3452 9.80246L15.3455 8.33931Z" fill="#56428E"/>
<path d="M13.4071 15.7962C13.9617 15.7983 14.5184 15.7962 15.0731 15.7941C15.0604 16.4982 15.5561 16.9347 16.0432 17.3521H12.4561C12.9157 16.9181 13.4535 16.5067 13.4071 15.7962Z" fill="#56428E"/>
</svg>
