<svg width="24" height="24" viewBox="0 0 24 24" fill="none" xmlns="http://www.w3.org/2000/svg">
<circle cx="12" cy="12" r="12" fill="#EDF0F4"/>
<path fill-rule="evenodd" clip-rule="evenodd" d="M16.2447 5.32755L19.9206 11.6971H19.922C20.026 11.903 20.026 12.1459 19.922 12.3518L16.2447 18.7213C16.1184 18.9144 15.9079 19.036 15.6775 19.0489H13.9963L16.4395 14.8176C16.5084 14.6816 16.5084 14.5208 16.4395 14.3847L13.6645 9.57819C13.581 9.45038 13.4416 9.36998 13.2892 9.36171H7.73967C7.58724 9.36998 7.44786 9.45038 7.36438 9.57819L4.92073 13.8113L4.07797 12.3518C3.97401 12.1459 3.97401 11.903 4.07797 11.6971L7.75527 5.32755C7.8816 5.1345 8.09211 5.01293 8.32246 5H15.6775C15.9079 5.01293 16.1184 5.1345 16.2447 5.32755ZM15.5721 14.4428L13.1757 10.2938C13.1167 10.2049 13.0195 10.1487 12.9129 10.1421H8.12015C8.01362 10.1487 7.91636 10.2049 7.85735 10.2938L5.46096 14.4447C5.41322 14.5402 5.41322 14.6526 5.46096 14.7482L6.16333 15.9657L7.39225 13.8388C7.45979 13.7351 7.57265 13.6698 7.69617 13.6629H10.8535C10.9771 13.6698 11.0899 13.7351 11.1575 13.8388L12.7366 16.5736C12.7924 16.684 12.7924 16.8143 12.7366 16.9248L11.5077 19.0517H12.9115C13.0182 19.0451 13.1155 18.9888 13.1743 18.8995L15.5707 14.7491C15.6198 14.653 15.6204 14.5393 15.5721 14.4428ZM7.76057 18.7294L6.67723 16.8529C6.64323 16.7836 6.64323 16.7024 6.67723 16.6331L7.88015 14.5501C7.92304 14.4849 7.99416 14.4437 8.07205 14.439H10.4774C10.5554 14.4438 10.6267 14.4849 10.6698 14.5501L11.8727 16.6331C11.9072 16.7032 11.9072 16.7852 11.8727 16.8553L10.6698 18.9383C10.6269 19.002 10.5573 19.0428 10.4807 19.0489H8.31831C8.09295 19.0345 7.88699 18.9165 7.76057 18.7294Z" fill="url(#paint0_linear_300_11668)"/>
<defs>
<linearGradient id="paint0_linear_300_11668" x1="15.8887" y1="22.4655" x2="22.3621" y2="7.92949" gradientUnits="userSpaceOnUse">
<stop stop-color="#FFDC00"/>
<stop offset="0.33" stop-color="#E58E2F"/>
<stop offset="0.67" stop-color="#DB2D72"/>
<stop offset="1" stop-color="#FF00FF"/>
</linearGradient>
</defs>
</svg>
