<svg width="24" height="24" viewBox="0 0 24 24" fill="none" xmlns="http://www.w3.org/2000/svg">
<circle cx="12" cy="12" r="12" fill="#EDF0F4"/>
<path fill-rule="evenodd" clip-rule="evenodd" d="M13.0618 11.3192C13.0718 11.3352 13.0892 11.3452 13.1081 11.3457H14.721C14.7401 11.3457 14.7577 11.3355 14.7672 11.3189C14.7766 11.3024 14.7765 11.282 14.7667 11.2656L12.0844 6.62665C12.0744 6.61062 12.057 6.60066 12.0381 6.60013H10.4252C10.4061 6.60009 10.3885 6.61031 10.379 6.62689C10.3696 6.64347 10.3698 6.66385 10.3795 6.68027L13.0618 11.3192ZM14.7205 12.6813C14.7112 12.6653 14.6948 12.6549 14.6764 12.6533H13.0635C13.0447 12.6533 13.0273 12.6634 13.0178 12.6798L10.3795 17.2425C10.3698 17.2589 10.3696 17.2793 10.379 17.2959C10.3885 17.3125 10.4061 17.3227 10.4252 17.3227H12.0381C12.057 17.3221 12.0744 17.3122 12.0844 17.2961L14.7227 12.7334C14.7305 12.7167 14.7297 12.6972 14.7205 12.6813Z" fill="#E31337"/>
<path fill-rule="evenodd" clip-rule="evenodd" d="M13.4267 6.62534C13.4164 6.64217 13.4163 6.66332 13.4264 6.68026L16.4858 11.9614L13.4293 17.2425C13.4195 17.259 13.4193 17.2795 13.4289 17.2962C13.4385 17.3128 13.4564 17.3229 13.4755 17.3227H15.0907C15.1096 17.3227 15.1271 17.3126 15.1364 17.2961L18.2115 11.9879C18.2211 11.9715 18.2211 11.9513 18.2115 11.9349L15.1364 6.62665C15.1271 6.61022 15.1096 6.60009 15.0907 6.60013H13.4755C13.4559 6.5988 13.4371 6.60852 13.4267 6.62534ZM12.1138 11.9907C12.1239 11.9733 12.1239 11.9518 12.1138 11.9343L8.99019 6.62665C8.97967 6.61129 8.96225 6.60211 8.94363 6.60211C8.92501 6.60211 8.9076 6.61129 8.89707 6.62665L5.80785 11.932C5.79777 11.9495 5.79777 11.971 5.80785 11.9885L8.9315 17.2961C8.94202 17.3115 8.95944 17.3207 8.97806 17.3207C8.99668 17.3207 9.01409 17.3115 9.02462 17.2961L12.1138 11.9907Z" fill="#E31337"/>
</svg>
