<svg width="24" height="24" viewBox="0 0 24 24" fill="none" xmlns="http://www.w3.org/2000/svg">
<path fill-rule="evenodd" clip-rule="evenodd" d="M12 24C5.4 24 0 18.6001 0 11.9402C0.06 5.34038 5.4 -0.0595036 12.06 0.000495204C18.66 0.060494 24 5.40038 24 12.1202C23.94 18.6601 18.6 24 12 24Z" fill="#EDF0F4"/>
<path fill-rule="evenodd" clip-rule="evenodd" d="M10.2553 4.2C10.2365 4.2 10.1774 4.2 10.1317 4.28239C10.0725 4.38724 5.50466 12.583 4.62315 14.167H6.64157L7.86685 11.8708C7.91628 11.7794 8.0114 11.721 8.1155 11.7202C8.11925 11.7195 8.12225 11.7187 8.12524 11.7187H15.5249L15.5039 11.6821C15.4024 11.5053 15.2762 11.2853 15.1264 11.0222L15.1064 10.987L15.1059 10.9862L15.1057 10.9859C14.9015 10.6279 14.6675 10.2178 14.54 9.99688L9.56772 10.0036H9.56622H9.4389H9.43815H9.4374C9.41493 10.0036 9.39321 10.0006 9.37224 9.99538C9.36925 9.99463 9.36645 9.9937 9.36365 9.99276L9.36363 9.99276L9.36361 9.99275C9.36081 9.99182 9.35801 9.99088 9.35502 9.99014C9.33929 9.98564 9.32356 9.9789 9.30858 9.97141C9.3068 9.97035 9.30502 9.96979 9.30333 9.96925C9.30145 9.96866 9.29967 9.9681 9.2981 9.96692L9.28911 9.96018C9.28088 9.95494 9.27265 9.94896 9.26442 9.94297L9.26439 9.94295L9.25801 9.938C9.25297 9.93415 9.2482 9.9305 9.24342 9.92573C9.23668 9.91899 9.23069 9.91225 9.2247 9.90551C9.21796 9.89877 9.21197 9.89128 9.20673 9.88379C9.20184 9.87769 9.19796 9.87109 9.19426 9.8648L9.19175 9.86057C9.18725 9.85308 9.18276 9.84559 9.17901 9.8366C9.17527 9.82762 9.17227 9.81938 9.16928 9.81039L9.16928 9.81038L9.16927 9.81038C9.16628 9.80139 9.16328 9.79241 9.16104 9.78343C9.15879 9.77444 9.15729 9.7662 9.15655 9.75721C9.15505 9.74673 9.15355 9.73624 9.15355 9.72576L9.15322 9.72416C9.1526 9.72112 9.15205 9.71847 9.15205 9.71527C9.15205 9.71255 9.15246 9.71003 9.15284 9.70761C9.1532 9.70536 9.15355 9.7032 9.15355 9.70104C9.15355 9.68981 9.15505 9.67932 9.15655 9.66884C9.15754 9.66285 9.15887 9.65752 9.16032 9.65175L9.16254 9.64262C9.16478 9.63289 9.16778 9.62391 9.17077 9.61492L9.17078 9.61491C9.17452 9.60518 9.17827 9.59619 9.18276 9.5872L9.18506 9.58156C9.18624 9.57858 9.18735 9.57577 9.18875 9.57297L12.1898 4.2H10.2553ZM16.5594 7.57627L17.5315 9.30334H19.5799C19.4851 9.14762 19.3456 8.91786 19.2003 8.67851L19.1998 8.6777L18.9463 8.26006C18.782 7.99019 18.6427 7.76025 18.5932 7.67861L18.5793 7.65565C18.5524 7.61072 18.4932 7.57702 18.443 7.57702L16.5594 7.57627ZM13.923 19.8448C13.9424 19.8448 14.0016 19.8448 14.0473 19.7632L19.5566 9.87854H17.5344L16.3099 12.1426C16.2792 12.198 16.2312 12.2415 16.1736 12.2662C16.1676 12.2684 16.1608 12.2714 16.1548 12.2737C16.1436 12.2782 16.1309 12.2819 16.1189 12.2849C16.1024 12.2887 16.0859 12.2909 16.0695 12.2917L16.0666 12.2919L16.064 12.2924L16.0609 12.2929L16.0575 12.2932H16.0552H16.053H8.6234L9.63822 14.0494L14.7386 14.0427C14.7873 14.0427 14.8352 14.0554 14.8779 14.0794C15.0164 14.1565 15.0666 14.3325 14.9887 14.4711L11.9959 19.8441L12.4702 19.8444H12.4704H12.4706H12.4709H12.4713H12.4718C12.6902 19.8446 12.9308 19.8448 13.153 19.8448H13.923ZM11.4987 19.5587L11.2568 19.161C10.9475 18.6502 10.5513 17.9964 10.5064 17.9245C10.4914 17.9006 10.4846 17.8414 10.5161 17.7845C10.5573 17.7106 11.0204 16.8763 11.4701 16.0661L11.4769 16.0538L11.4811 16.0464L12.2724 14.6209L14.2504 14.6187L11.4987 19.5587ZM7.14282 14.4501L8.12619 16.1967C8.33664 15.802 8.81897 14.895 9.12753 14.3131L8.13368 12.5927L7.14282 14.4501ZM6.8065 16.4686H5.73551C5.68682 16.4686 5.62766 16.4341 5.60069 16.3899L5.28089 15.8627L4.82907 15.1186L4.6001 14.7415H6.64773L7.61986 16.4686H6.8065ZM12.6843 4.49284L12.8641 4.78867C13.1794 5.30919 13.625 6.04391 13.6722 6.12031C13.6872 6.14427 13.6939 6.20344 13.6624 6.26036L11.9069 9.42243L9.92967 9.42467L12.6843 4.49284ZM17.0356 9.59394L16.0522 7.84664C15.9433 8.04508 15.765 8.37142 15.5833 8.70405C15.37 9.09452 15.1519 9.49367 15.0359 9.70479C15.1489 9.90086 15.3494 10.2517 15.6246 10.7335L15.6253 10.7346C15.6561 10.7886 15.6874 10.8435 15.7187 10.8984C15.8288 11.0915 15.9394 11.2855 16.0327 11.4476L17.0356 9.59394Z" fill="black"/>
</svg>
