<svg width="24" height="24" viewBox="0 0 24 24" fill="none" xmlns="http://www.w3.org/2000/svg">
<circle cx="12" cy="12" r="12" fill="white"/>
<path fill-rule="evenodd" clip-rule="evenodd" d="M12 0C18.628 0 24 5.37202 24 12C24 18.628 18.628 24 12 24C5.37202 24 0 18.628 0 12C0 5.37202 5.37202 0 12 0ZM17.7328 6.24247C17.0364 5.54609 15.8923 5.54609 15.196 6.24247C14.7856 6.65283 14.5991 7.23729 14.6861 7.79687C14.711 7.9834 14.6986 8.18236 14.6115 8.35646C14.4996 8.58029 14.3131 8.74195 14.0892 8.829C13.8654 8.91604 13.6043 8.91604 13.3804 8.80413C12.0872 8.20723 10.5328 8.48081 9.51307 9.5005C8.49338 10.5078 8.21981 12.0622 8.8167 13.3679C8.92861 13.6041 8.92861 13.8653 8.84157 14.0891C8.76696 14.3005 8.6053 14.487 8.36903 14.5989C8.24468 14.6611 8.12032 14.686 7.98354 14.686C7.92136 14.686 7.85918 14.6736 7.79701 14.6611H7.77214C7.21255 14.5865 6.6654 14.7606 6.25504 15.171C5.91929 15.5067 5.73276 15.9668 5.73276 16.4394C5.73276 16.9243 5.91929 17.372 6.25504 17.7078C6.95141 18.4041 8.09545 18.4041 8.79183 17.7078C9.18975 17.2974 9.38872 16.7129 9.28924 16.1409V16.0539C9.2768 15.8922 9.31411 15.743 9.37628 15.5938C9.47577 15.3699 9.66229 15.2083 9.88613 15.1212C10.11 15.0342 10.3587 15.0342 10.5949 15.1461C11.8882 15.743 13.4426 15.4694 14.4623 14.4497C15.482 13.4425 15.7556 11.8756 15.1587 10.5824C15.0592 10.3585 15.0468 10.1098 15.1338 9.88599C15.2208 9.66216 15.3825 9.47563 15.6188 9.36371C15.7929 9.2891 15.967 9.26423 16.1286 9.2891H16.2157C16.7752 9.36371 17.3224 9.18962 17.7328 8.77925C18.4291 8.08288 18.4291 6.93884 17.7328 6.24247ZM13.4173 10.5948C14.1883 11.3782 14.1883 12.6342 13.4173 13.4052C12.6464 14.1762 11.3904 14.1762 10.607 13.4052C9.836 12.6218 9.836 11.3658 10.607 10.5948C11.3904 9.82383 12.6464 9.82383 13.4173 10.5948ZM18.3914 5.60829C19.4484 6.67772 19.4484 8.39379 18.3914 9.45078C17.9935 9.83627 17.5085 10.085 17.0111 10.2093C17.7199 12.1244 17.2598 14.313 15.7924 15.7803C14.7852 16.7876 13.4297 17.3223 12.0494 17.3223C11.4277 17.3223 10.8059 17.2104 10.209 16.9865C10.1095 17.4964 9.86081 17.9938 9.46289 18.3917C8.39346 19.4487 6.67739 19.4487 5.6204 18.3917C4.5634 17.3223 4.5634 15.6062 5.6204 14.5492C6.01833 14.1513 6.5033 13.9026 7.01314 13.8031C6.27947 11.8757 6.73957 9.66218 8.20693 8.19482C9.67428 6.72746 11.8753 6.26736 13.8028 6.9886C13.9147 6.49119 14.151 6.00622 14.5489 5.60829C15.6183 4.5513 17.3344 4.5513 18.3914 5.60829Z" fill="#38A2FF"/>
</svg>
