<svg width="24" height="24" viewBox="0 0 24 24" fill="none" xmlns="http://www.w3.org/2000/svg">
<circle cx="12" cy="12" r="12" fill="#EDF0F4"/>
<ellipse cx="11.9862" cy="11.9746" rx="7.86022" ry="7.85028" fill="white"/>
<path fill-rule="evenodd" clip-rule="evenodd" d="M11.3769 3.03793C7.54506 3.29793 4.25339 6.01854 3.29388 9.71867C2.65244 12.1922 3.07138 14.7988 4.44939 16.9083C5.17897 18.0252 6.22644 19.0372 7.35633 19.7168C10.3139 21.4955 14.0568 21.4197 16.9454 19.5226C20.1775 17.3997 21.6815 13.4792 20.7063 9.71867C20.064 7.24188 18.3333 5.11727 16.0204 3.96643C15.2089 3.56267 14.3686 3.28793 13.4847 3.13735C13.1612 3.08226 12.0583 2.98761 11.8996 3.00135C11.8664 3.0042 11.6312 3.02066 11.3769 3.03793ZM13.1429 5.88548C14.1381 6.08802 15.1426 6.58992 15.8274 7.22671C16.2844 7.65171 16.2696 7.60112 16.2437 8.64519L16.2216 9.53707L16.0532 9.40813C15.9183 9.30493 15.8763 9.2412 15.8426 9.08898C15.7274 8.56769 15.4097 8.03455 14.9486 7.58827C14.5356 7.18857 14.0387 6.95464 13.166 6.74913C12.2966 6.54442 10.8823 6.41942 9.88925 6.4595L9.34647 6.48138L9.53423 6.38537C10.0566 6.11826 10.8276 5.88709 11.4609 5.8077C11.8876 5.75421 12.6774 5.79072 13.1429 5.88548ZM10.8744 7.2614C11.0908 7.64239 11.5292 8.41485 11.8487 8.97802C12.1682 9.5412 12.476 10.0824 12.5328 10.1806L12.636 10.3592L12.519 10.2697C12.2389 10.0552 11.7764 9.75133 11.5023 9.60171L11.2056 9.43981L10.4469 8.01752C10.0296 7.23526 9.68816 6.58931 9.68816 6.582C9.68816 6.57469 9.86656 6.56871 10.0846 6.56871H10.481L10.8744 7.2614ZM12.1678 8.75207C12.8625 9.9419 13.4256 10.9201 13.4191 10.9259C13.4126 10.9316 13.2834 10.8436 13.1319 10.7302L12.8565 10.524L11.7354 8.57647C11.1188 7.50534 10.614 6.61428 10.6137 6.59641C10.6133 6.57851 10.6787 6.56947 10.7589 6.57634L10.9047 6.58878L12.1678 8.75207ZM9.27599 7.91054C9.65747 8.58052 9.96954 9.13996 9.96954 9.15373C9.96954 9.16751 9.88338 9.17879 9.77804 9.17879C9.61802 9.17879 9.58003 9.16393 9.54686 9.08844C9.46404 8.89991 9.24073 8.84 8.56142 8.82406C7.96983 8.81013 7.93509 8.80483 7.89537 8.72299C7.87233 8.67553 7.68558 8.32442 7.48037 7.94282C7.26627 7.54469 7.11723 7.22305 7.13066 7.18807C7.16407 7.10114 7.59684 6.90914 8.01956 6.79381C8.61059 6.63251 8.48462 6.52052 9.27599 7.91054ZM13.4125 7.58938C13.6807 8.0108 14.2555 8.91393 14.6899 9.59628C15.4282 10.756 15.4756 10.8417 15.4149 10.9085C15.3495 10.9808 15.0801 11.1245 15.0569 11.0996C15.05 11.0922 14.5614 10.3272 13.9711 9.39964C13.3809 8.47206 12.7638 7.5032 12.5999 7.24665C12.4359 6.99005 12.3018 6.76357 12.3018 6.74337C12.3018 6.72302 12.4407 6.73261 12.6134 6.7649L12.925 6.82316L13.4125 7.58938ZM16.9483 8.23406C17.6955 9.00251 18.6001 10.3559 18.9555 11.2374C19.245 11.9552 19.2365 12.7061 18.928 13.6761C18.6233 14.634 18.095 15.3775 17.5355 15.6358C16.9773 15.8934 16.3373 15.662 16.1987 15.1524C16.126 14.8848 16.1772 14.0695 16.3167 13.2746C16.5529 11.928 16.5635 11.7775 16.5635 9.77906C16.5635 8.41014 16.5755 7.93398 16.61 7.93398C16.6355 7.93398 16.7878 8.06903 16.9483 8.23406ZM8.98466 9.01584C9.12108 9.04399 9.09342 9.04974 8.80269 9.05367C8.12285 9.06283 7.535 9.16863 7.41253 9.3038C7.3359 9.38836 7.32923 9.63772 7.39806 9.84593C7.42375 9.92367 7.43513 9.99687 7.42339 10.0086C7.39633 10.0356 7.28995 9.68113 7.25477 9.44675C7.23121 9.28986 7.23913 9.26123 7.32235 9.20281C7.57123 9.02817 8.52491 8.92084 8.98466 9.01584ZM10.6332 9.59708C11.083 9.71422 11.7209 10.0708 12.4038 10.5869C13.4823 11.4021 13.7123 11.5081 14.4012 11.5073C14.9261 11.5067 15.3345 11.3997 15.5592 11.2039C15.611 11.1587 15.6676 11.1781 15.9328 11.3316L16.2453 11.5125L16.2202 11.7611C16.2063 11.8978 16.1205 12.4524 16.0295 12.9935C15.885 13.8521 15.8637 14.059 15.8619 14.6198C15.8601 15.2113 15.8671 15.2756 15.9504 15.4313C16.0002 15.5243 16.0408 15.6378 16.0408 15.6836C16.0408 15.9069 15.6115 16.5556 15.2306 16.9078C14.8006 17.3054 14.329 17.4623 13.8312 17.3735C13.0099 17.2269 12.5522 16.7569 11.6332 15.1166C10.6607 13.3809 10.0863 12.6943 9.25713 12.2763C8.98868 12.1409 8.48932 11.9896 8.31109 11.9896C8.15996 11.9896 8.11062 11.8583 8.10479 11.4404C8.0986 10.9982 8.02752 11.1255 8.0231 11.5865L8.0198 11.9294L7.69614 11.9737C6.87669 12.086 6.38549 12.5565 6.20505 13.402C6.15652 13.6292 6.14715 13.8424 6.16388 14.3387C6.18676 15.0172 6.24867 15.3871 6.47222 16.181C6.53988 16.4214 6.59014 16.6229 6.58383 16.6288C6.57755 16.6347 6.47443 16.6028 6.35465 16.5579C6.02103 16.433 5.65455 16.045 5.41537 15.5634C5.08604 14.9004 4.94408 14.1783 4.94408 13.1664C4.94408 11.7618 5.23525 10.7418 5.80038 10.1665C6.12452 9.83653 6.47358 9.65599 6.83837 9.62969L7.10435 9.6105L7.13009 9.74762C7.17508 9.98699 7.42495 10.4523 7.59925 10.6213C7.78878 10.8049 8.01859 10.8855 8.23727 10.8451C8.63728 10.7711 9.0801 10.3667 9.36942 9.81135L9.53728 9.48911L9.96459 9.51171C10.1996 9.52412 10.5005 9.56255 10.6332 9.59708ZM10.0694 9.78239C10.0538 9.8076 10.06 9.84716 10.0831 9.87025C10.1371 9.92421 10.2631 9.87711 10.2411 9.81114C10.2188 9.74404 10.105 9.72497 10.0694 9.78239ZM6.69295 9.82126C6.6593 9.87563 6.70469 9.94172 6.77574 9.94172C6.80762 9.94172 6.83367 9.90558 6.83367 9.86141C6.83367 9.77829 6.73666 9.75059 6.69295 9.82126ZM6.19052 10.0799C6.19052 10.1117 6.20496 10.1467 6.22261 10.1576C6.27403 10.1893 6.36433 10.1157 6.33402 10.0667C6.29413 10.0022 6.19052 10.0117 6.19052 10.0799ZM9.73554 10.1693C9.75508 10.27 9.84904 10.2838 9.84904 10.186C9.84904 10.1366 9.82307 10.1024 9.7858 10.1024C9.74833 10.1024 9.72782 10.1297 9.73554 10.1693ZM10.7336 10.3433C10.7336 10.4038 10.7546 10.4254 10.8039 10.416C10.8427 10.4085 10.8743 10.3758 10.8743 10.3433C10.8743 10.3108 10.8427 10.2781 10.8039 10.2706C10.7546 10.2611 10.7336 10.2828 10.7336 10.3433ZM6.85389 10.3433C6.82023 10.3977 6.86562 10.4638 6.93667 10.4638C6.96855 10.4638 6.9946 10.4276 6.9946 10.3834C6.9946 10.3003 6.89759 10.2726 6.85389 10.3433ZM6.23741 10.4902C6.25433 10.5781 6.37117 10.5905 6.37117 10.5045C6.37117 10.4716 6.33788 10.4384 6.29715 10.4305C6.24344 10.4202 6.22707 10.4366 6.23741 10.4902ZM6.55986 10.6946C6.56733 10.7333 6.60006 10.7649 6.63263 10.7649C6.66519 10.7649 6.69792 10.7333 6.7054 10.6946C6.71489 10.6453 6.69318 10.6244 6.63263 10.6244C6.57208 10.6244 6.55037 10.6453 6.55986 10.6946ZM9.80884 10.7481C9.80884 10.846 9.9028 10.8322 9.92234 10.7315C9.93006 10.6918 9.90956 10.6645 9.87208 10.6645C9.83481 10.6645 9.80884 10.6988 9.80884 10.7481ZM10.3129 10.7427C10.2775 10.7999 10.3226 10.8653 10.3972 10.8653C10.4325 10.8653 10.4527 10.837 10.4451 10.7983C10.4295 10.7177 10.3492 10.684 10.3129 10.7427ZM8.61597 12.3743C9.00862 12.4755 9.45547 12.7308 9.79742 13.049C10.3048 13.5212 10.6162 13.9758 11.4648 15.4831C12.0597 16.5399 12.5449 17.1521 12.9876 17.4046C13.2309 17.5434 13.2426 17.5305 12.6698 17.7515C11.3216 18.2715 9.82689 18.1674 8.34121 17.45C7.65353 17.1179 7.1399 16.7651 6.9733 16.5102C6.63336 15.9903 6.36419 14.2489 6.50961 13.5107C6.60815 13.0104 6.84838 12.6295 7.17142 12.4613C7.54489 12.2669 8.07545 12.2349 8.61597 12.3743Z" fill="black"/>
</svg>
