<svg width="24" height="24" viewBox="0 0 24 24" fill="none" xmlns="http://www.w3.org/2000/svg">
<circle cx="12" cy="12" r="12" fill="#1591CA"/>
<path fill-rule="evenodd" clip-rule="evenodd" d="M12.3363 11.553C12.3363 11.553 13.3325 9.33664 11.3791 7.19545C11.3791 7.19545 10.2681 5.768 7.97095 5.88069L8.42963 5.70038C8.5062 5.67033 8.58653 5.64929 8.6676 5.63877L9.11953 5.58017L12.298 5.09183C12.298 5.09183 13.4218 4.87095 14.2739 5.11437C14.5163 5.18424 14.737 5.31572 14.912 5.49452C15.3819 5.97084 16.3255 7.23076 15.7077 9.22394C15.7077 9.22394 15.0944 11.4403 12.7965 11.9662C12.7965 11.9662 12.2214 12.1164 12.3363 11.553ZM12.1938 12.7881C12.1938 12.7881 13.6299 14.7587 16.5043 14.2035C16.5043 14.2035 18.3225 13.9939 19.3953 11.997L19.3187 12.4771C19.306 12.5567 19.2834 12.6348 19.2512 12.7092L19.0725 13.1202L17.8804 16.0502C17.8804 16.0502 17.5013 17.1103 16.8534 17.7053C16.6674 17.8748 16.441 17.9936 16.1958 18.0501C15.5389 18.2027 13.9527 18.3567 12.5189 16.8195C12.5189 16.8195 10.8876 15.1727 11.5977 12.9654C11.5977 12.9639 11.7584 12.4042 12.1938 12.7881ZM7.77994 15.063C8.69955 12.335 11.1544 12.0766 11.1544 12.0766H11.1551C11.7106 11.894 11.2917 11.4808 11.2902 11.4808C9.67997 9.78815 7.41509 10.3719 7.41509 10.3719C5.3454 10.8392 4.70205 12.2689 4.51512 12.9053C4.44456 13.1442 4.43855 13.3981 4.49861 13.64C4.70655 14.4837 5.46251 15.3304 5.46251 15.3304L7.4774 17.7894L7.75516 18.144C7.80531 18.2084 7.86332 18.2662 7.92782 18.3161L8.31594 18.6166C7.07127 16.7188 7.77994 15.063 7.77994 15.063Z" fill="white"/>
<path opacity="0.5" fill-rule="evenodd" clip-rule="evenodd" d="M12.7372 12.2194C12.7372 12.2194 15.1845 11.9008 16.0328 9.15033C16.0328 9.15033 16.6987 7.4772 15.4045 5.61099L15.8009 5.90174C15.8662 5.95058 15.9262 6.00692 15.978 6.06928L16.264 6.41638L18.3435 8.82503C18.3435 8.82503 19.1197 9.65145 19.3509 10.4914C19.4162 10.7318 19.4162 10.9842 19.3509 11.2247C19.1805 11.8655 18.5747 13.3117 16.517 13.8301C16.517 13.8301 14.2679 14.4687 12.6149 12.8189C12.6149 12.8189 12.6142 12.8182 12.6128 12.8167C12.5813 12.7847 12.2106 12.4077 12.7372 12.2194ZM11.5073 12.6731C11.5073 12.6731 10.4556 14.8639 12.3533 17.0524C12.3533 17.0524 13.4261 18.5062 15.7278 18.4498L15.2638 18.6189C15.1865 18.6468 15.1061 18.6652 15.0243 18.6737L14.5717 18.7218L11.3812 19.132C11.3812 19.132 10.2529 19.3251 9.40682 19.0606C9.16689 18.9848 8.95049 18.8485 8.77849 18.6647C8.32056 18.1764 7.40995 16.8947 8.07883 14.918C8.07883 14.918 8.74696 12.7167 11.0584 12.2479C11.0584 12.2481 11.0605 12.2477 11.0645 12.247C11.1263 12.236 11.6307 12.1468 11.5073 12.6731ZM7.25858 10.1661C10.124 9.56807 11.5894 11.5184 11.5894 11.5184C12.0178 11.8859 12.1745 11.3634 12.1828 11.3355C12.1831 11.3347 12.1832 11.3343 12.1832 11.3344C12.8611 9.1173 11.2058 7.49375 11.2058 7.49375C9.75092 5.97689 8.16693 6.15194 7.51232 6.31498C7.26746 6.37411 7.04199 6.49547 6.85771 6.66733C6.21886 7.27137 5.85477 8.3367 5.85477 8.3367L4.70619 11.2848L4.53353 11.698C4.50246 11.7726 4.48077 11.8509 4.46897 11.9309L4.3999 12.4125C5.44338 10.4005 7.25858 10.1661 7.25858 10.1661Z" fill="white"/>
</svg>
