<svg width="24" height="24" viewBox="0 0 24 24" fill="none" xmlns="http://www.w3.org/2000/svg">
<path fill-rule="evenodd" clip-rule="evenodd" d="M12 0C18.6264 0 24 5.3736 24 12C24 18.6264 18.6264 24 12 24C5.3736 24 0 18.6264 0 12C0 5.3736 5.3736 0 12 0Z" fill="#203091"/>
<path d="M13.97 8.30969C13.97 5.5564 12.6428 3.18434 11.6262 2.40777C11.6262 2.40777 11.5556 2.36542 11.5556 2.47837C11.4709 7.80139 8.77409 9.25569 7.27743 11.19C3.84641 15.68 7.0374 20.5936 10.2849 21.4972C12.1063 22.0055 9.86128 20.5936 9.5789 17.6285C9.24003 14.0281 13.97 11.2889 13.97 8.30969Z" fill="white"/>
<path d="M15.7494 10.1311C15.7353 10.117 15.707 10.117 15.6788 10.1311C15.6788 10.1311 15.6788 10.1311 15.6647 10.1452C15.6082 10.8088 14.874 12.249 13.9562 13.5621C10.8358 18.0238 12.6149 20.17 13.6174 21.3278C14.1963 22.0055 13.6174 21.3278 15.0717 20.6359C15.1846 20.5794 17.8955 19.1393 18.192 15.8777C18.4886 12.7008 16.4695 10.71 15.7494 10.1311Z" fill="white"/>
</svg>
