<svg width="24" height="24" viewBox="0 0 24 24" fill="none" xmlns="http://www.w3.org/2000/svg">
<circle cx="12" cy="12" r="12" fill="#CFA967"/>
<path fill-rule="evenodd" clip-rule="evenodd" d="M6.4358 18.2767L5.19971 4.8H18.7997L17.5636 18.2767L11.9846 19.8L6.4358 18.2767ZM12.0146 12.6341V18.6285L16.5079 17.427L17.5634 5.8845H12.0146V10.7835L12.2443 10.0732H12.8457L12.0149 12.6326V10.7835L11.0199 13.8638H11.6152L12.0146 12.6341ZM12.0146 12.6341L12.0149 12.633V12.6326L12.0146 12.6337V12.6341ZM10.3367 12.6263V13.182L7.67256 12.108V11.664L10.3374 10.5893V11.1458L8.47118 11.8883L10.3367 12.6263ZM16.3304 12.108L13.6656 13.182V12.6263L15.5318 11.886L13.6656 11.1458V10.5893L16.3304 11.664V12.108Z" fill="white"/>
</svg>
