<svg width="24" height="24" viewBox="0 0 24 24" fill="none" xmlns="http://www.w3.org/2000/svg">
<circle cx="12" cy="12" r="12" fill="#EDF0F4"/>
<circle opacity="0.98" cx="12" cy="12" r="9" fill="black"/>
<path fill-rule="evenodd" clip-rule="evenodd" d="M11.5079 4.7115C10.8331 4.75573 10.1069 4.91123 9.47206 5.14663C8.20378 5.61741 7.0796 6.43772 6.24787 7.50199C4.58728 9.62339 4.23062 12.4781 5.31629 14.9461C5.79278 16.0318 6.56031 17.0162 7.50188 17.7523C9.62328 19.4129 12.478 19.7696 14.946 18.6839C16.0288 18.2088 17.0075 17.447 17.7451 16.5083C19.41 14.3869 19.7709 11.5265 18.6838 9.05416C18.2073 7.9685 17.4398 6.98412 16.4982 6.24798C15.0801 5.13807 13.3111 4.59309 11.5079 4.7115ZM10.8018 8.853L10.8089 11.0186L10.8802 10.9073C11.2198 10.3709 11.7305 9.99858 12.3354 9.84593C12.5765 9.78459 12.7648 9.76033 13.0558 9.75035C13.9446 9.72324 14.6451 9.98432 15.2229 10.5607C15.6709 11.0086 15.9276 11.575 16.0332 12.3482C16.0546 12.5023 16.0575 12.7862 16.0618 14.9133L16.0675 17.3072H15.3028H14.5395V15.163C14.5395 13.8034 14.5338 12.9574 14.5238 12.849C14.4867 12.411 14.3555 12.0244 14.1543 11.7562C14.0645 11.6349 13.8719 11.4523 13.7549 11.3753C13.5509 11.2412 13.3383 11.1613 13.063 11.1128C12.9146 11.0885 12.8533 11.0842 12.6065 11.0914C12.3939 11.0971 12.2883 11.1056 12.1927 11.1285C11.8275 11.2098 11.5593 11.3567 11.3196 11.605C11.1256 11.8061 11.0115 11.9987 10.9245 12.2712C10.8332 12.5537 10.8018 12.7791 10.8018 13.1586V13.4125H11.3867H11.9716V14.0616V14.7107H9.97433H7.97705V14.0616V13.4125H8.61903H9.26101V10.0457V6.67882L10.0285 6.68167L10.7946 6.68595L10.8018 8.853ZM11.9716 17.3072V16.6581V16.009H9.97433H7.97705V16.6581V17.3072H9.97433H11.9716Z" fill="white"/>
</svg>
