<svg width="24" height="24" viewBox="0 0 24 24" fill="none" xmlns="http://www.w3.org/2000/svg">
<path d="M12 24C18.6276 24 24 18.6276 24 12C24 5.3724 18.6276 0 12 0C5.3724 0 0 5.3724 0 12C0 18.6276 5.3724 24 12 24Z" fill="#EDF0F4"/>
<mask id="mask0_300_13643" style="mask-type:alpha" maskUnits="userSpaceOnUse" x="7" y="6" width="4" height="4">
<path fill-rule="evenodd" clip-rule="evenodd" d="M7.56738 6.60004H10.1155V9.14848H7.56738V6.60004Z" fill="white"/>
</mask>
<g mask="url(#mask0_300_13643)">
<path d="M10.1155 7.87416C10.1155 7.17062 9.54506 6.59985 8.84115 6.59985C8.13779 6.59985 7.56738 7.17062 7.56738 7.87416C7.56738 8.57807 8.13779 9.14847 8.84115 9.14847C9.54506 9.14847 10.1155 8.57807 10.1155 7.87416Z" fill="#FF9E1F"/>
</g>
<mask id="mask1_300_13643" style="mask-type:alpha" maskUnits="userSpaceOnUse" x="13" y="6" width="4" height="4">
<path fill-rule="evenodd" clip-rule="evenodd" d="M13.9287 6.60004H16.4768V9.1483H13.9287V6.60004Z" fill="white"/>
</mask>
<g mask="url(#mask1_300_13643)">
<path d="M13.9287 7.87398C13.9287 7.17062 14.4989 6.59985 15.2032 6.59985C15.9066 6.59985 16.4768 7.17062 16.4768 7.87398C16.4768 8.57771 15.9066 9.1483 15.2032 9.1483C14.4989 9.1483 13.9287 8.57771 13.9287 7.87398Z" fill="#24C0FB"/>
</g>
<mask id="mask2_300_13643" style="mask-type:alpha" maskUnits="userSpaceOnUse" x="7" y="10" width="4" height="8">
<path fill-rule="evenodd" clip-rule="evenodd" d="M7.3999 10.2613V17.5761H10.2871V10.459V10.2613H7.3999Z" fill="white"/>
</mask>
<g mask="url(#mask2_300_13643)">
<path d="M7.3999 10.2613V17.5761H10.2871V10.459V10.2613H7.3999Z" fill="url(#paint0_linear_300_13643)"/>
</g>
<mask id="mask3_300_13643" style="mask-type:alpha" maskUnits="userSpaceOnUse" x="13" y="10" width="4" height="8">
<path fill-rule="evenodd" clip-rule="evenodd" d="M13.7593 10.2613V17.5761H16.6467V10.459V10.2613H13.7593Z" fill="white"/>
</mask>
<g mask="url(#mask3_300_13643)">
<path d="M13.7593 10.2613V17.5761H16.6467V10.459V10.2613H13.7593Z" fill="url(#paint1_linear_300_13643)"/>
</g>
<path d="M13.7593 10.2632C13.5536 10.9949 12.8183 11.5318 12.0208 11.5318C11.223 11.5318 10.4931 10.9949 10.2871 10.2632V14.1012C10.8231 14.3167 11.4078 14.4362 12.0208 14.4362C14.4266 14.4362 16.4048 12.6069 16.6414 10.2632H13.7593Z" fill="#24C0FB"/>
<path d="M7.3999 10.2632C7.57574 12.0096 8.71997 13.4701 10.2871 14.1012V10.2632H7.3999Z" fill="#FF9E1F"/>
<defs>
<linearGradient id="paint0_linear_300_13643" x1="10.8374" y1="17.1868" x2="10.8374" y2="7.08395" gradientUnits="userSpaceOnUse">
<stop stop-color="#FB5059"/>
<stop offset="1" stop-color="#FF9E1F"/>
</linearGradient>
<linearGradient id="paint1_linear_300_13643" x1="17.1226" y1="17.1771" x2="17.1226" y2="7.45073" gradientUnits="userSpaceOnUse">
<stop stop-color="#9350D4"/>
<stop offset="1" stop-color="#23BFFB"/>
</linearGradient>
</defs>
</svg>
