<svg width="24" height="24" viewBox="0 0 24 24" fill="none" xmlns="http://www.w3.org/2000/svg">
<circle cx="12" cy="12" r="12" fill="white"/>
<path fill-rule="evenodd" clip-rule="evenodd" d="M3.36963 11.082L7.05843 2.3136L17.5368 3.5208L19.6824 9.9924L18.6096 18.9444C17.0676 20.5992 16.0836 21.426 15.6588 21.426C15.234 21.426 12.0156 20.8392 6.00243 19.6656L3.37083 13.1604L3.36963 11.082Z" fill="#F9F9F9"/>
<path fill-rule="evenodd" clip-rule="evenodd" d="M17.0279 18.9528H14.4731V14.5548C14.4731 13.8504 13.9031 13.278 13.1987 13.278H13.1975H9.52548C8.11548 13.278 6.97188 12.1344 6.97188 10.7244V5.04841H9.52548V9.44761C9.52548 10.152 10.0967 10.7244 10.8011 10.7244H14.4731C15.8831 10.7256 17.0255 11.868 17.0267 13.278L17.0279 18.9528ZM9.61431 18.9528H7.05951V14.664C8.46951 14.664 9.61311 15.8064 9.61311 17.2176L9.61431 18.9528ZM14.3855 5.0472H16.9391V9.33841C15.5279 9.33841 14.3855 8.19481 14.3855 6.7848V5.0472ZM12 0C5.3724 0 0 5.3736 0 12C0 18.6264 5.3724 24 12 24C18.6276 24 24 18.6276 24 12C24 5.3724 18.6276 0 12 0Z" fill="#005FFA"/>
</svg>
