<svg width="24" height="24" viewBox="0 0 24 24" fill="none" xmlns="http://www.w3.org/2000/svg">
<circle cx="12" cy="12" r="12" fill="#292929"/>
<path fill-rule="evenodd" clip-rule="evenodd" d="M11.2596 7.12072L11.2606 7.13585C11.4099 6.90486 11.6115 6.78487 11.8818 6.78487C12.1551 6.78412 12.3552 6.90861 12.5 7.1576L12.5038 7.1216C12.5033 6.88892 12.5034 6.65616 12.5036 6.42336V6.42334V6.42332V6.4233V6.42328V6.42326V6.42324V6.42322V6.4232C12.5039 5.9575 12.5043 5.4917 12.4993 5.02623C12.5002 4.84046 12.4185 4.66397 12.2766 4.54489C12.1346 4.4258 11.9472 4.37653 11.7653 4.41051C11.4741 4.46226 11.2591 4.72774 11.2583 5.04273V7.0916C11.2583 7.10149 11.259 7.11105 11.2596 7.12072ZM11.2589 13.5973L11.2587 13.8929V14.8806L11.2587 14.8921C11.2586 14.9304 11.2586 14.9691 11.2647 15.0066C11.3094 15.3346 11.5988 15.5722 11.9277 15.5511C12.2568 15.521 12.5075 15.2417 12.5034 14.9099C12.5049 14.5469 12.5041 14.1832 12.5026 13.8194C12.5012 13.7921 12.4913 13.7659 12.4742 13.7444C12.4151 13.6703 12.3539 13.5987 12.2928 13.5271L12.2517 13.479L12.1158 13.3179C11.9485 13.1197 11.7814 12.9216 11.6134 12.7245C11.5417 12.6405 11.4558 12.615 11.3737 12.651C11.2848 12.69 11.2572 12.7635 11.258 12.8595C11.2595 13.1053 11.2592 13.3511 11.2589 13.5972V13.5973ZM11.2582 16.595C11.4105 16.8275 11.6136 16.946 11.8862 16.9452C12.1579 16.9445 12.3558 16.82 12.5036 16.589V18.3244C12.5035 18.3633 12.5036 18.4023 12.5038 18.4413C12.5042 18.5729 12.5047 18.7048 12.4932 18.8344C12.4631 19.1675 12.1761 19.417 11.8436 19.3991C11.5162 19.3771 11.2613 19.1047 11.2597 18.7751C11.257 18.2881 11.2574 17.8011 11.2579 17.3138L11.2579 17.3124C11.2581 17.13 11.2582 16.9477 11.2582 16.7652V16.595ZM12.5036 11.2216V9.97592C12.5036 9.56644 12.5036 9.15697 12.5021 8.74749C12.5021 8.69425 12.4984 8.64025 12.4872 8.5885C12.4185 8.27802 12.1258 8.05754 11.8309 8.09053C11.5057 8.11942 11.2569 8.39407 11.259 8.722C11.2567 9.25746 11.2575 9.79368 11.259 10.3291C11.2608 10.3567 11.2712 10.3829 11.2888 10.4041C11.3682 10.5007 11.4486 10.5949 11.5292 10.6894L11.5673 10.7341L12.1079 11.3701C12.1718 11.4512 12.2815 11.48 12.3767 11.4406C12.4663 11.4046 12.5036 11.3401 12.5036 11.2216ZM13.7962 7.44334V5.77844C13.7977 5.47696 13.9687 5.23098 14.2345 5.14698C14.6377 5.01874 15.0409 5.32472 15.0431 5.76569C15.0446 6.04273 15.0441 6.31977 15.0436 6.59658V6.59675V6.59692V6.59708V6.59725V6.59742C15.0434 6.73546 15.0431 6.87346 15.0431 7.01136V9.10748C15.0431 9.41721 14.858 9.6677 14.575 9.74494C14.2069 9.84469 13.8313 9.57245 13.8007 9.18323C13.798 9.14504 13.7967 9.10677 13.797 9.06849V7.44334H13.7962ZM10.0304 17.3937V15.4701H10.0297C10.0297 15.2547 10.0299 15.0393 10.0302 14.8238V14.8238V14.8237V14.8236V14.8235V14.8233V14.8232V14.8231V14.8231C10.0307 14.392 10.0312 13.9608 10.0297 13.5299C10.0304 13.3367 9.9422 13.1539 9.79064 13.0348C9.63908 12.9157 9.44122 12.8737 9.25464 12.921C8.97689 12.993 8.78575 13.2457 8.78575 13.5449V17.1095C8.78575 17.1416 8.78555 17.1738 8.78534 17.206C8.78487 17.2811 8.7844 17.3561 8.78649 17.4312C8.79695 17.8054 9.15459 18.0979 9.51299 18.0289C9.81711 17.9731 10.0362 17.7042 10.0304 17.3937ZM10.0303 8.38603V11.0101C10.0361 11.3101 9.83164 11.573 9.54049 11.6401C9.35724 11.6793 9.16617 11.6337 9.02002 11.516C8.87386 11.3982 8.78809 11.2208 8.78636 11.0326C8.78396 10.7887 8.78434 10.5451 8.78472 10.3014C8.78493 10.1659 8.78514 10.0305 8.78487 9.89494V5.76569C8.78487 5.45671 8.98497 5.19873 9.27244 5.13348C9.45756 5.09267 9.65112 5.13865 9.79842 5.25845C9.94572 5.37824 10.0308 5.55883 10.0295 5.74919C10.031 6.19864 10.0305 6.64775 10.03 7.09697C10.0298 7.32163 10.0295 7.54631 10.0295 7.77107L10.0303 8.38603ZM13.7962 11.6753V14.5251L13.797 14.5236V17.3375C13.7966 17.3775 13.7979 17.4175 13.8007 17.4575C13.8321 17.8482 14.2143 18.1197 14.5832 18.0132C14.8647 17.9322 15.0431 17.6832 15.0431 17.3697V11.6341C15.0282 11.1743 14.5742 10.8736 14.1695 11.0619C13.9172 11.1803 13.7962 11.3911 13.7962 11.6753ZM17.5994 11.6258V16.0806C17.607 16.3868 17.3966 16.6551 17.0984 16.7195C16.7311 16.7998 16.3652 16.505 16.3547 16.1203V7.18087C16.3547 6.89213 16.4988 6.6619 16.7423 6.5599C17.1529 6.38741 17.5987 6.6979 17.5987 7.15837V11.6251L17.5994 11.6258ZM7.64457 16.0805V11.619V11.6183V8.60949C7.64457 8.45809 7.64486 8.30669 7.64514 8.15531C7.64578 7.81479 7.64641 7.47438 7.64383 7.13433C7.64277 6.94101 7.55276 6.75905 7.40002 6.64142C7.24728 6.52379 7.04897 6.48372 6.86283 6.53286C6.58283 6.61086 6.3999 6.85984 6.3999 7.16657V16.1188C6.41036 16.5125 6.78443 16.808 7.15776 16.718C7.45044 16.6482 7.64457 16.3955 7.64457 16.0805Z" fill="white"/>
</svg>
