<svg width="24" height="24" viewBox="0 0 24 24" fill="none" xmlns="http://www.w3.org/2000/svg">
<circle cx="12" cy="12" r="12" fill="#1E1E1E"/>
<path fill-rule="evenodd" clip-rule="evenodd" d="M18.5153 5.82332C17.8612 6.58211 17.3165 7.21466 17.305 7.22899C17.2483 7.29907 17.0374 7.54422 15.1263 9.76146C13.9975 11.071 13.0491 12.1716 13.0186 12.2072L12.9633 12.2719L13.8896 13.8958C14.399 14.7889 14.8158 15.5213 14.8158 15.5233C14.8158 15.5253 14.4381 15.5269 13.9765 15.5267L13.1371 15.5266L12.5432 14.4895L11.9493 13.4524L11.9262 13.4766C11.8496 13.557 9.02605 16.845 9.03016 16.8492C9.03293 16.8519 9.62346 16.3539 10.3425 15.7424C11.0615 15.131 11.6523 14.6333 11.6555 14.6365C11.6586 14.6396 11.878 15.0248 12.1429 15.4924L12.6247 16.3426L14.4149 16.3453C15.3995 16.3468 16.2051 16.346 16.2051 16.3435C16.2051 16.3411 15.6839 15.4262 15.0469 14.3103C14.41 13.1945 13.8902 12.2762 13.8918 12.2697C13.8951 12.2572 19.5021 4.73421 19.5283 4.70723C19.5481 4.68687 19.7745 4.33579 17.0679 8.52255C15.7696 10.5312 14.7002 12.1866 14.6918 12.201C14.6768 12.2266 14.7099 12.2857 15.7892 14.164C16.4013 15.229 16.9058 16.1046 16.9104 16.1095C16.9198 16.1196 16.9271 16.0955 17.0101 15.7824L17.0692 15.559L16.0208 13.8951L14.9725 12.2313L17.3415 8.34639C18.6445 6.2097 19.7092 4.4575 19.7075 4.4526C19.7059 4.44771 19.1694 5.06454 18.5153 5.82332ZM6.76417 17.0182C6.58183 17.23 6.42811 17.4146 6.42258 17.4285C6.41335 17.4517 6.42718 17.4684 6.59098 17.633C6.96811 18.0119 7.31043 18.2947 7.743 18.5847C8.05814 18.7959 8.3321 18.9537 8.70092 19.1366C9.67534 19.6197 10.7138 19.9068 11.7478 19.979C11.951 19.9932 12.5125 19.9931 12.7161 19.979C14.4047 19.8612 15.9501 19.207 17.2078 18.0771C17.3506 17.9487 17.7667 17.527 17.7586 17.5189C17.7555 17.5159 17.7368 17.527 17.7168 17.5438C17.6968 17.5604 17.6121 17.6318 17.5285 17.7024C17.0158 18.135 16.3966 18.5219 15.7816 18.7936C15.0211 19.1296 14.2586 19.3265 13.4055 19.4072C13.13 19.4333 12.4402 19.4333 12.2003 19.4072C11.4903 19.3301 10.8539 19.1641 10.1903 18.8828C9.98782 18.797 9.57251 18.59 9.36912 18.4735C8.87727 18.1918 8.38109 17.8367 7.93618 17.448C7.75287 17.2878 7.37058 16.9135 7.22129 16.748C7.1638 16.6843 7.11203 16.6323 7.10624 16.6325C7.10045 16.6327 6.94652 16.8063 6.76417 17.0182Z" fill="#EA39C4"/>
<path fill-rule="evenodd" clip-rule="evenodd" d="M11.6271 4.00396C10.6678 4.07002 9.8099 4.28562 8.96431 4.67319C8.28329 4.98533 7.65438 5.40159 7.07312 5.92494C6.91088 6.07103 6.52758 6.46352 6.54235 6.46844C6.54825 6.47041 6.5971 6.43299 6.65093 6.3853C6.70475 6.33761 6.82182 6.24024 6.91108 6.16894C7.90735 5.37305 9.0992 4.84813 10.3694 4.6458C10.7772 4.58085 11.0441 4.56107 11.5114 4.56122C12.0199 4.56138 12.2878 4.58731 12.7533 4.68146C13.6094 4.85459 14.465 5.20893 15.2807 5.72822C15.6397 5.95682 16.0436 6.26044 16.3739 6.55015C16.5464 6.70141 16.9481 7.09677 17.0873 7.25223C17.1431 7.31454 17.1922 7.36427 17.1965 7.36274C17.2122 7.35709 17.8895 6.56364 17.8895 6.55086C17.8895 6.53313 17.45 6.09992 17.3106 5.98029C16.4936 5.279 15.5469 4.74738 14.4899 4.39639C13.9119 4.20443 13.3644 4.0873 12.7428 4.02257C12.588 4.00644 11.7854 3.99306 11.6271 4.00396ZM13.6758 8.6927C13.0167 9.30031 12.473 9.796 12.4677 9.79422C12.4624 9.79245 12.2407 9.40741 11.975 8.93859L11.492 8.08618L9.69634 8.08351L7.90064 8.08085L7.91319 8.10456C7.92008 8.1176 8.42707 9.00079 9.03981 10.0672L10.1539 12.0061L7.27924 15.8613C5.69818 17.9815 4.39778 19.7234 4.38943 19.7321C4.3811 19.7408 5.46701 18.0571 6.80259 15.9905C8.13815 13.9239 9.23286 12.2255 9.2353 12.2162C9.23866 12.2034 8.27403 10.48 7.15414 8.49821C7.12889 8.45353 7.11703 8.44072 7.11096 8.45157C7.10636 8.4598 7.06002 8.58825 7.00799 8.737L6.9134 9.00746L7.92953 10.603C8.80762 11.9819 8.94426 12.2017 8.93536 12.2211C8.9297 12.2335 7.87216 13.9699 6.58526 16.08C3.91975 20.4504 4.19991 19.989 4.21499 19.9836C4.22144 19.9813 4.71919 19.4064 5.32108 18.706C5.92299 18.0055 6.43902 17.4063 6.46783 17.3745C6.49662 17.3427 6.64437 17.1721 6.79614 16.9956C6.94793 16.819 7.08356 16.6615 7.09756 16.6455C7.11156 16.6295 8.01854 15.5766 9.11307 14.3056C10.4688 12.7315 11.1016 11.9892 11.0983 11.9771C11.0957 11.9674 10.7016 11.2801 10.2227 10.4498C9.74367 9.61955 9.34937 8.93399 9.34643 8.92632C9.34202 8.91483 9.48853 8.91241 10.1816 8.91248L11.0221 8.91258L11.5691 9.85982C11.87 10.3808 12.1194 10.8059 12.1234 10.8043C12.1329 10.8008 14.89 7.59934 14.89 7.59191C14.89 7.58879 14.8865 7.58663 14.8821 7.5871C14.8778 7.58756 14.3349 8.08509 13.6758 8.6927Z" fill="#75FA4C"/>
</svg>
