<svg width="24" height="24" viewBox="0 0 24 24" fill="none" xmlns="http://www.w3.org/2000/svg">
<circle cx="12" cy="12" r="12" fill="#EDF0F4"/>
<circle cx="12" cy="12" r="8.25" fill="white"/>
<path fill-rule="evenodd" clip-rule="evenodd" d="M3.8701 8.13969C5.43592 4.84208 8.83869 2.81691 12.4841 3.01308C17.3981 3.28854 21.1843 7.45184 20.9931 12.3696C20.8431 16.017 18.5046 19.2124 15.0734 20.4588C11.6421 21.7052 7.79782 20.7555 5.34171 18.0548C2.88561 15.3541 2.30427 11.4373 3.8701 8.13969ZM7.60075 12.1649C6.86973 14.9719 9.09201 17.8958 11.9868 17.8958V17.9075C14.4518 17.8479 16.4474 15.8857 16.5484 13.4222C16.5776 12.3111 16.1682 11.317 15.6419 10.3521C14.7214 8.79674 13.6223 7.35425 12.367 6.05396C12.1038 5.79081 11.8991 5.79081 11.6359 6.0832C10.5672 7.21559 9.59867 8.43846 8.74113 9.73808C8.23315 10.4806 7.84809 11.3 7.60075 12.1649Z" fill="#168DFF"/>
</svg>
