<svg width="24" height="24" viewBox="0 0 24 24" fill="none" xmlns="http://www.w3.org/2000/svg">
<circle cx="12" cy="12" r="12" fill="#EDF0F4"/>
<path d="M16.1634 8C15.2541 8 14.2614 8.48384 13.2103 9.44317C12.7098 9.89364 12.276 10.3775 11.959 10.7696C11.959 10.7696 12.4678 11.3452 13.0268 11.9625C13.3271 11.5871 13.7692 11.0782 14.2697 10.6194C15.204 9.76851 15.813 9.59333 16.1634 9.59333C17.4731 9.59333 18.5408 10.6694 18.5408 12.0042C18.5408 13.3222 17.4814 14.3983 16.1634 14.415C16.105 14.415 16.0215 14.4067 15.9381 14.39C16.3219 14.5652 16.7306 14.6903 17.1227 14.6903C19.5252 14.6903 19.9924 13.0636 20.0257 12.9468C20.0925 12.6465 20.1342 12.3379 20.1342 12.0125C20.1175 9.79353 18.349 8 16.1634 8Z" fill="url(#paint0_linear_300_8282)"/>
<path d="M7.7711 16C8.68038 16 9.67308 15.5162 10.7242 14.5568C11.2247 14.1064 11.6585 13.6225 11.9755 13.2305C11.9755 13.2305 11.4666 12.6549 10.9077 12.0375C10.6074 12.4129 10.1653 12.9218 9.66474 13.3806C8.73043 14.2315 8.12146 14.4067 7.7711 14.4067C6.4614 14.4067 5.39362 13.3306 5.39362 11.9958C5.39362 10.6778 6.45306 9.60168 7.7711 9.58499C7.82949 9.58499 7.91291 9.59334 7.99633 9.61002C7.6126 9.43484 7.20384 9.30971 6.81176 9.30971C4.40926 9.30971 3.94211 10.9364 3.90874 11.0532C3.842 11.3535 3.80029 11.6622 3.80029 11.9875C3.80863 14.1981 5.58549 16 7.7711 16Z" fill="url(#paint1_linear_300_8282)"/>
<path fill-rule="evenodd" clip-rule="evenodd" d="M6.81961 9.35141C8.05423 9.38478 9.3389 10.4025 9.5975 10.6528C10.2125 11.2449 10.7929 11.9062 10.8985 12.0266C10.909 12.0385 10.9148 12.0451 10.9155 12.0459C11.4745 12.6632 11.9833 13.2388 11.9833 13.2388L11.9917 13.2304C13.1345 14.5401 14.6611 16 16.1794 16C18.0396 15.9917 19.6079 14.682 20.025 12.9218C19.9833 13.0469 19.366 14.6903 17.1137 14.6319C15.8874 14.5985 14.6027 13.5892 14.3441 13.3389C13.6684 12.6882 13.0344 11.9541 13.0344 11.9541C12.4755 11.3368 11.9666 10.7612 11.9666 10.7612C11.9583 10.7612 11.9583 10.7696 11.9583 10.7696C10.8238 9.45151 9.29719 8 7.77894 8C5.91867 8.00834 4.35037 9.3097 3.93327 11.0615C3.98332 10.853 4.62565 9.30136 6.81961 9.35141ZM3.92529 11.0699V11.0532C3.93363 11.0615 3.93363 11.0699 3.92529 11.0699Z" fill="#29ABE2"/>
<defs>
<linearGradient id="paint0_linear_300_8282" x1="10.6227" y1="10.834" x2="14.8347" y2="17.3134" gradientUnits="userSpaceOnUse">
<stop offset="0.21" stop-color="#F15A24"/>
<stop offset="0.6841" stop-color="#FBB03B"/>
</linearGradient>
<linearGradient id="paint1_linear_300_8282" x1="13.311" y1="13.1639" x2="9.09898" y2="6.68455" gradientUnits="userSpaceOnUse">
<stop offset="0.21" stop-color="#ED1E79"/>
<stop offset="0.8929" stop-color="#522785"/>
</linearGradient>
</defs>
</svg>
