<svg width="24" height="24" viewBox="0 0 24 24" fill="none" xmlns="http://www.w3.org/2000/svg">
<circle cx="12" cy="12" r="12" fill="#EDF0F4"/>
<ellipse cx="16.9831" cy="7.21724" rx="1.01724" ry="1.01724" fill="#18A0B1"/>
<path d="M9.16268 13.8456C8.37468 12.5079 8.59109 10.8066 9.6889 9.70877C10.7867 8.61096 12.488 8.39454 13.8257 9.18254L14.6395 8.36875L14.5988 8.3362C12.7939 7.14649 10.4 7.39689 8.88038 8.93435C7.36072 10.4718 7.13823 12.8684 8.34889 14.6594L9.16268 13.8456Z" fill="#18A0B1"/>
<path d="M15.0379 10.3992C15.8259 11.7369 15.6094 13.4382 14.5116 14.536C13.4138 15.6338 11.7125 15.8502 10.3748 15.0622L9.56104 15.876C11.359 17.0966 13.7705 16.8681 15.3071 15.3315C16.8438 13.7948 17.0723 11.3833 15.8517 9.58537L15.0379 10.3992Z" fill="#18A0B1"/>
<ellipse cx="7.21744" cy="16.9828" rx="1.01724" ry="1.01724" fill="#18A0B1"/>
</svg>
