<svg width="24" height="24" viewBox="0 0 24 24" fill="none" xmlns="http://www.w3.org/2000/svg">
<circle cx="12" cy="12" r="12" fill="#EDF0F4"/>
<ellipse cx="11.9998" cy="12" rx="8.75419" ry="8.75419" fill="white"/>
<path fill-rule="evenodd" clip-rule="evenodd" d="M20.9999 12C20.9999 7.02948 16.9705 3.00006 12 3.00006C7.05921 2.98737 3.04846 6.99697 3 11.9043V12C3 16.9706 7.02942 21 12 21C16.9705 21 20.9999 16.9706 20.9999 12ZM3.65902 11.9481C3.67863 7.38539 7.41129 3.65548 12.1894 3.65315C14.2998 3.68317 16.2797 4.50009 17.9078 6.11545C19.3078 7.47481 20.1619 9.29957 20.3089 11.2454C20.5189 13.8208 19.7136 16.0696 17.8755 17.9031C16.2601 19.515 14.2859 20.3238 12.0001 20.3319C7.38477 20.3481 3.63825 16.5566 3.65902 11.9481ZM12.1894 3.65315C12.1902 3.65315 12.1909 3.65315 12.1917 3.65315H12.1894C12.1894 3.65315 12.1894 3.65315 12.1894 3.65315Z" fill="#333333"/>
<path fill-rule="evenodd" clip-rule="evenodd" d="M17.7782 6.27583C19.0959 7.56538 19.9136 9.2805 20.0859 11.1162C20.3455 13.6973 19.5562 15.9323 17.7274 17.7623C16.1351 19.3569 14.1793 20.1462 11.9247 20.13C7.50722 20.0111 3.99215 16.388 4.00688 11.9689C4.02161 7.54984 7.56075 3.95032 11.979 3.86084C14.2428 3.8643 16.1847 4.67661 17.7782 6.27583ZM15.7566 5.92157C15.7591 5.78459 15.6502 5.67148 15.5132 5.66891C15.3764 5.66697 15.2637 5.77562 15.2605 5.91237C15.258 6.04934 15.367 6.16243 15.5039 6.16497C15.6409 6.16751 15.754 6.05854 15.7566 5.92157ZM14.4 5.15085C14.5404 5.15149 14.6538 5.26547 14.6538 5.40585C14.652 5.47135 14.6242 5.53344 14.5766 5.57845C14.529 5.62347 14.4655 5.64771 14.4 5.64585C14.3363 5.64678 14.2749 5.62237 14.2292 5.57801C14.1836 5.53365 14.1574 5.47297 14.1565 5.40931V5.39778C14.1577 5.26325 14.2655 5.15396 14.4 5.15085ZM13.4803 5.07698C13.4636 4.94639 13.3586 4.8448 13.2276 4.83237C13.0891 4.83036 12.9742 4.93869 12.968 5.07698C12.9672 5.21155 13.0735 5.32239 13.208 5.32737C13.3511 5.33013 13.471 5.21983 13.4803 5.07698ZM12 4.73085C12.1362 4.73022 12.2472 4.84002 12.2481 4.97623C12.2489 5.11245 12.1393 5.22362 12.0031 5.22468C11.8668 5.22574 11.7555 5.11629 11.7542 4.98008C11.7542 4.84377 11.8637 4.73274 12 4.73085ZM11.0306 5.07697C11.0237 4.94547 10.9186 4.84041 10.7871 4.83351L10.7825 4.83235C10.6472 4.83466 10.5371 4.94179 10.531 5.07697C10.5304 5.14185 10.5556 5.20431 10.601 5.25062C10.6464 5.29692 10.7084 5.32328 10.7733 5.32389H10.7825C10.8482 5.3242 10.9113 5.29832 10.9579 5.25198C11.0044 5.20564 11.0306 5.14266 11.0306 5.07697ZM9.60088 5.15085C9.73699 5.15275 9.84614 5.26397 9.8455 5.40008C9.84875 5.53134 9.74593 5.64084 9.61473 5.64585H9.60319C9.537 5.64834 9.47256 5.62425 9.42422 5.57896C9.37589 5.53366 9.34768 5.47091 9.34588 5.4047C9.34532 5.40126 9.34532 5.39775 9.34588 5.39431C9.35263 5.25827 9.46467 5.1513 9.60088 5.15085ZM8.70958 5.77766C8.66002 5.70418 8.57501 5.66272 8.48659 5.6689C8.35645 5.67779 8.25542 5.78596 8.25542 5.9164C8.25542 6.04685 8.35645 6.15501 8.48659 6.1639H8.5212C8.60963 6.15772 8.68803 6.10483 8.72689 6.02516C8.76575 5.94549 8.75915 5.85115 8.70958 5.77766ZM7.4902 6.36929C7.62617 6.37239 7.7353 6.48253 7.73713 6.61852C7.73649 6.75463 7.62631 6.86481 7.4902 6.86544C7.42665 6.86794 7.36473 6.84498 7.31816 6.80166C7.2716 6.75834 7.24423 6.69824 7.24213 6.63468C7.2415 6.63047 7.2415 6.62619 7.24213 6.62198C7.23758 6.48645 7.34317 6.37261 7.47867 6.36699L7.4902 6.36929ZM6.86975 7.4885C6.873 7.35215 6.76605 7.23851 6.62975 7.2335H6.6286C6.49026 7.23401 6.37685 7.34335 6.37129 7.48158C6.37489 7.61726 6.4837 7.72657 6.61937 7.73081C6.7553 7.73274 6.86722 7.62442 6.86975 7.4885ZM5.92269 8.23968C6.0535 8.23707 6.1623 8.33971 6.1673 8.47045C6.16845 8.47381 6.16845 8.47746 6.1673 8.48083C6.16923 8.6174 6.06041 8.72984 5.92384 8.73237C5.78424 8.72989 5.67185 8.61698 5.67 8.47737C5.67497 8.34207 5.78614 8.23497 5.92154 8.23506L5.92269 8.23968ZM5.65345 9.59889C5.65409 9.46086 5.54339 9.3481 5.40537 9.3462C5.27003 9.34732 5.15937 9.45443 5.15384 9.58966C5.15793 9.72196 5.26428 9.82822 5.39659 9.83219C5.52889 9.83617 5.64143 9.73648 5.65345 9.60466V9.59889ZM5.08279 10.5266C5.22246 10.5272 5.3359 10.6396 5.33778 10.7793C5.33402 10.9151 5.22213 11.0229 5.08625 11.0216C5.0229 11.0219 4.96203 10.997 4.91702 10.9524C4.87201 10.9079 4.84655 10.8472 4.84625 10.7839C4.84488 10.6499 4.9501 10.5391 5.08394 10.5335L5.08279 10.5266ZM4.97775 11.7485C4.84217 11.7545 4.73433 11.8644 4.73083 12C4.73474 12.1323 4.83876 12.2398 4.97083 12.2481H4.99621C5.13028 12.2413 5.23352 12.1272 5.22698 11.9931C5.22637 11.9276 5.19977 11.8651 5.15303 11.8192C5.10629 11.7733 5.04324 11.7479 4.97775 11.7485ZM4.84562 13.2173C4.8456 13.0815 4.9544 12.9706 5.09024 12.9681C5.22965 12.9706 5.3417 13.0837 5.34293 13.2231C5.34112 13.2886 5.31335 13.3507 5.26574 13.3957C5.21813 13.4407 5.15458 13.465 5.08909 13.4631C4.95824 13.4663 4.8494 13.3632 4.84562 13.2323V13.2185V13.2173ZM5.15772 14.4046C5.16212 14.5409 5.27523 14.6484 5.41157 14.6458L5.40695 14.6435C5.54306 14.6428 5.65324 14.5327 5.65388 14.3965C5.65038 14.2628 5.54409 14.1545 5.41042 14.1485C5.27082 14.1516 5.15894 14.265 5.15772 14.4046ZM5.92678 15.7569C5.79125 15.7552 5.68075 15.6477 5.67524 15.5123C5.67524 15.3749 5.78594 15.2632 5.92332 15.2619H5.92909C6.05989 15.2593 6.16869 15.362 6.1737 15.4927C6.17427 15.4969 6.17427 15.5012 6.1737 15.5054C6.17401 15.5705 6.14837 15.633 6.10246 15.6791C6.05656 15.7252 5.99416 15.7512 5.92909 15.7512H5.92216L5.92678 15.7569ZM5.92724 13.8183L5.9272 13.8185L5.92258 13.8162L5.92724 13.8183ZM5.92724 13.8183L5.93989 13.7735H8.57065C8.91066 13.7735 9.08142 13.7735 9.16719 13.6881C9.25372 13.602 9.25372 13.4289 9.25372 13.0812V11.3504C9.25372 11.1623 9.27911 11.0747 9.50411 11.0839C9.9991 11.1047 10.4964 11.0977 10.9914 11.0839C11.1645 11.0839 11.2222 11.137 11.2222 11.3066C11.2176 12.2743 11.2176 13.2431 11.2222 14.2131C11.2222 14.3977 11.1645 14.4912 10.9695 14.4727C10.9127 14.4669 10.8555 14.4669 10.7987 14.4727C10.576 14.4969 10.4999 14.4104 10.4999 14.1923C10.5068 13.7255 10.5045 13.2591 10.5022 12.7926L10.5022 12.7924C10.501 12.5591 10.4999 12.3258 10.4999 12.0923C10.4999 11.8996 10.4399 11.8108 10.2333 11.8108C10.0268 11.8108 9.95872 11.8754 9.96218 12.0808C9.96695 12.4423 9.96679 12.8037 9.96664 13.165V13.1651V13.1651V13.1652V13.1652V13.1652V13.1652V13.1652V13.1652V13.1652V13.1653V13.1653V13.1653V13.1653V13.1653V13.1653V13.1653V13.1654V13.1654V13.1654V13.1654V13.1654V13.1654V13.1654C9.96649 13.5041 9.96635 13.8426 9.97026 14.1808C9.97026 14.4116 9.89987 14.4762 9.67718 14.4727C9.41763 14.4685 9.15776 14.4717 8.89804 14.4749H8.89803H8.89802H8.898H8.89799H8.89798H8.89796H8.89795H8.89794H8.89793H8.89791H8.8979H8.89789H8.89787H8.89786H8.89785H8.89784H8.89782H8.89781H8.8978H8.89778H8.89777H8.89776C8.44866 14.4804 8 14.486 7.55412 14.4531C7.30953 14.4353 7.07057 14.3293 6.83309 14.224C6.74792 14.1862 6.66294 14.1485 6.57797 14.115C6.42698 14.0559 6.27655 13.9841 6.12514 13.9118L6.12504 13.9117C6.05933 13.8803 5.99344 13.8489 5.92724 13.8183ZM6.65508 16.7631C6.58804 16.7709 6.52066 16.7516 6.46783 16.7096C6.415 16.6676 6.38107 16.6063 6.37354 16.5393C6.37243 16.5262 6.37243 16.5131 6.37354 16.5C6.38186 16.3609 6.49504 16.2513 6.63431 16.2473C6.77329 16.2656 6.87923 16.3808 6.88585 16.5208C6.86669 16.6414 6.77474 16.7375 6.65508 16.7619V16.7631ZM7.2474 17.3815C7.2474 17.5135 7.35433 17.6204 7.48624 17.6204L7.49086 17.6192H7.50009C7.56527 17.6195 7.62791 17.5939 7.67421 17.5481C7.72052 17.5022 7.74671 17.4398 7.74701 17.3746C7.74462 17.2387 7.63599 17.1285 7.50009 17.1242C7.43399 17.1233 7.37023 17.1487 7.32284 17.1948C7.27545 17.2409 7.24831 17.3039 7.2474 17.37V17.3815ZM8.49903 18.3231C8.43537 18.3256 8.37333 18.3027 8.32658 18.2594C8.27983 18.2161 8.25221 18.156 8.2498 18.0923C8.24924 18.0893 8.24924 18.0862 8.2498 18.0831C8.24591 17.9457 8.35356 17.8308 8.49096 17.8258H8.49788C8.63385 17.8289 8.74297 17.939 8.7448 18.075C8.74573 18.1403 8.72052 18.2032 8.6748 18.2498C8.62907 18.2964 8.56662 18.3228 8.50134 18.3231H8.49903ZM9.34721 18.6081C9.35648 18.7438 9.47332 18.8468 9.60914 18.8389L9.61491 18.8377C9.74592 18.8333 9.84891 18.7241 9.84567 18.5931C9.84441 18.4568 9.7339 18.3468 9.5976 18.3462C9.46219 18.3509 9.35316 18.4589 9.34721 18.5942V18.6081ZM8.227 14.8879L8.22698 14.8878C8.16002 14.8553 8.09305 14.8227 8.02562 14.7912L8.05215 14.7208H11.4225C11.4665 14.7208 11.5062 14.7211 11.5422 14.7214C11.7187 14.7229 11.8042 14.7236 11.8455 14.6812C11.8844 14.6413 11.8841 14.5634 11.8836 14.4121V14.4121C11.8834 14.3677 11.8833 14.3171 11.8841 14.2593V9.74082C11.8841 9.49274 11.9521 9.41774 12.2002 9.42697C12.6802 9.44543 13.1602 9.43851 13.6414 9.42697C13.8144 9.42697 13.8917 9.47197 13.8917 9.65774V15.2504C13.8917 15.4512 13.8064 15.5135 13.6217 15.4812C13.5591 15.4646 13.4949 15.4549 13.4302 15.4523L13.4238 15.4525C13.1244 15.4627 13.1233 15.4628 13.1233 15.1443V10.5289C13.1233 10.5092 13.1245 10.4886 13.1256 10.4677C13.1321 10.3542 13.139 10.2329 12.9606 10.2047C12.7137 10.1654 12.6398 10.2231 12.6398 10.4816V15.1708C12.6398 15.4893 12.6398 15.4904 12.3121 15.4904C12.0406 15.4904 11.7691 15.4891 11.4977 15.4878C10.955 15.4853 10.4125 15.4827 9.86945 15.4904C9.53656 15.5037 9.2637 15.37 8.99112 15.2364L8.9911 15.2364C8.88576 15.1847 8.78047 15.1331 8.67177 15.09H8.66946C8.51912 15.0299 8.37312 14.9589 8.227 14.8879ZM10.5324 18.9161C10.5374 19.0521 10.6514 19.1584 10.7874 19.1538C10.9255 19.1513 11.0354 19.0374 11.0331 18.8993C11.0308 18.7612 10.917 18.651 10.7789 18.6531C10.6408 18.6552 10.5305 18.7688 10.5324 18.9069C10.5318 18.91 10.5318 18.9131 10.5324 18.9161ZM11.9996 19.2692C11.8599 19.2667 11.7485 19.1517 11.7504 19.0119C11.7542 18.8745 11.8682 18.7658 12.0057 18.7685C12.1432 18.7713 12.2527 18.8844 12.2511 19.0219C12.2494 19.1594 12.1372 19.2698 11.9996 19.2692ZM12.9688 18.9012C12.966 19.0335 13.0675 19.1447 13.1995 19.1539L13.2122 19.1504C13.3465 19.1563 13.4609 19.0538 13.4695 18.9196C13.4728 18.8302 13.4281 18.7458 13.3523 18.6982C13.2765 18.6506 13.1811 18.6471 13.1019 18.689C13.0228 18.7308 12.9721 18.8117 12.9688 18.9012ZM14.3982 18.8377C14.2677 18.8397 14.1592 18.7374 14.1536 18.6069V18.5954C14.1542 18.4598 14.2627 18.3493 14.3982 18.3462C14.5377 18.3487 14.6497 18.4617 14.6509 18.6012C14.6447 18.7355 14.5327 18.8403 14.3982 18.8377ZM15.3374 18.2532C15.3844 18.298 15.4472 18.3223 15.5121 18.3208L15.5155 18.3254H15.5259C15.6573 18.3198 15.76 18.2099 15.7567 18.0785C15.7586 17.9419 15.6498 17.8294 15.5132 17.8269C15.3735 17.8282 15.2611 17.9422 15.2617 18.0819C15.2632 18.1468 15.2904 18.2084 15.3374 18.2532ZM15.7182 11.418V11.4178L15.7182 11.417C15.7116 10.364 15.7055 9.39402 15.7059 8.8535L15.706 8.82571C15.707 8.68555 15.7078 8.56179 15.4902 8.56504C15.3032 8.56504 15.2594 8.63311 15.2594 8.80965C15.2663 9.61734 15.2467 15.6958 15.2467 15.6958V16.4596C15.2195 16.4625 15.1938 16.4658 15.1692 16.4689L15.1691 16.4689C15.1155 16.4757 15.0665 16.4819 15.0159 16.4827C14.7188 16.4827 14.4217 16.4843 14.1245 16.486H14.1244H14.1244H14.1243H14.1243H14.1243H14.1242H14.1242H14.1241H14.1241H14.124H14.124H14.124H14.1239H14.1239H14.1238H14.1238H14.1238H14.1237H14.1237H14.1237H14.1236H14.1236C13.3638 16.4902 12.6039 16.4944 11.8452 16.4712C11.6494 16.4652 11.4543 16.372 11.2616 16.2799L11.2616 16.2799L11.2615 16.2799C11.193 16.2472 11.1249 16.2146 11.0571 16.1862C10.757 16.0662 10.4695 15.917 10.1986 15.7408C10.2332 15.7408 10.2678 15.7376 10.3025 15.7344L10.3025 15.7344C10.3371 15.7313 10.3717 15.7281 10.4063 15.7281L13.9463 15.7431C14.2196 15.7431 14.3531 15.7431 14.4183 15.6763C14.4806 15.6126 14.4806 15.4879 14.4805 15.2442L14.4805 15.2215V8.08965C14.4805 7.89004 14.5255 7.79773 14.7517 7.80466C15.264 7.82081 15.7775 7.81504 16.2898 7.80466C16.4617 7.80466 16.5205 7.8635 16.5205 8.03542V16.1539C16.5205 16.4827 16.5205 16.4827 16.1813 16.4838C15.6645 16.4838 15.6654 16.4749 15.7176 15.9639L15.7198 15.9427L15.7209 15.9404C15.7451 15.7004 15.7307 13.4107 15.7182 11.418ZM16.2622 17.3746C16.2648 17.5103 16.3758 17.6187 16.5115 17.6181L16.5103 17.6192H16.5276C16.5913 17.6193 16.6522 17.5931 16.6959 17.5468C16.7396 17.5005 16.7622 17.4382 16.7584 17.3746C16.7599 17.3091 16.7354 17.2457 16.6902 17.1983C16.6449 17.1509 16.5827 17.1234 16.5172 17.1219C16.3778 17.1231 16.2647 17.2352 16.2622 17.3746ZM16.5192 6.86427C16.3849 6.86561 16.2738 6.75972 16.2689 6.62543C16.2683 6.62276 16.2683 6.62001 16.2689 6.61735C16.2719 6.48185 16.3803 6.37238 16.5158 6.36812C16.5812 6.3675 16.6441 6.39297 16.6906 6.43887C16.7372 6.48478 16.7636 6.54735 16.7639 6.61273C16.7717 6.7443 16.6716 6.85738 16.54 6.86543H16.5262L16.5192 6.86427ZM17.142 16.5075C17.142 16.6379 17.243 16.7461 17.3731 16.755C17.4656 16.7613 17.5538 16.7156 17.602 16.6364C17.6501 16.5572 17.6501 16.4578 17.602 16.3786C17.5538 16.2994 17.4656 16.2537 17.3731 16.26C17.243 16.2689 17.142 16.3771 17.142 16.5075ZM17.3732 7.73427C17.2349 7.73427 17.1228 7.62217 17.1228 7.48388C17.1228 7.3456 17.2349 7.2335 17.3732 7.2335C17.5115 7.2335 17.6236 7.3456 17.6236 7.48388C17.6217 7.62081 17.5101 7.73082 17.3732 7.73081V7.73427ZM18.9227 11.0239C19.0535 11.0201 19.1567 10.9113 19.1534 10.7804C19.1568 10.6477 19.0551 10.5358 18.9227 10.5266C18.8541 10.525 18.7878 10.5508 18.7382 10.5982C18.6886 10.6456 18.66 10.7107 18.6584 10.7793C18.661 10.9156 18.7725 11.0246 18.9088 11.0239H18.9227ZM18.0757 8.24198C18.2118 8.24259 18.3224 8.35172 18.3249 8.48775C18.3218 8.62715 18.2082 8.7387 18.0688 8.73929C17.933 8.73428 17.8262 8.62135 17.8288 8.48545C17.8262 8.35443 17.9286 8.24529 18.0596 8.23968H18.0769L18.0757 8.24198ZM17.8303 15.5112C17.8303 15.6469 17.9403 15.7569 18.076 15.7569L18.0795 15.7558C18.2142 15.754 18.3238 15.6469 18.3287 15.5123V15.5066C18.3275 15.4403 18.2999 15.3774 18.252 15.3316C18.2041 15.2859 18.1399 15.2612 18.0737 15.2631H18.061C17.9289 15.2681 17.8257 15.379 17.8303 15.5112ZM18.593 9.3462C18.6932 9.34621 18.7834 9.40675 18.8214 9.49945C18.8594 9.59214 18.8377 9.69861 18.7663 9.76895C18.695 9.83929 18.5882 9.85955 18.4961 9.82024C18.4039 9.78093 18.3447 9.68983 18.3461 9.58966C18.3509 9.45593 18.4592 9.34917 18.593 9.3462ZM18.346 14.4046C18.3517 14.5405 18.4651 14.6468 18.601 14.6435C18.7369 14.641 18.8457 14.5301 18.8457 14.3943C18.8468 14.3835 18.8468 14.3727 18.8457 14.3619C18.8339 14.224 18.7125 14.1217 18.5745 14.1335C18.4365 14.1453 18.3343 14.2667 18.346 14.4046ZM18.9064 13.4608C18.7711 13.4577 18.6625 13.3481 18.6606 13.2127C18.6663 13.0729 18.7826 12.9632 18.9226 12.9658C19.0559 12.9751 19.158 13.0883 19.1533 13.222C19.1536 13.2852 19.1287 13.346 19.0841 13.3908C19.0395 13.4356 18.9789 13.4608 18.9156 13.4608H18.9064ZM18.8501 12.1785C18.8966 12.2219 18.9586 12.2448 19.0221 12.2423H19.0233H19.0383C19.1025 12.2426 19.1642 12.2172 19.2095 12.1716C19.2549 12.1261 19.28 12.0643 19.2794 12V11.9896C19.2744 11.9197 19.2418 11.8546 19.1888 11.8087C19.1357 11.7629 19.0667 11.7399 18.9967 11.745H18.9806C18.9197 11.7511 18.8637 11.7812 18.825 11.8286C18.7862 11.876 18.7679 11.9368 18.774 11.9977C18.7735 12.0023 18.7735 12.007 18.774 12.0116C18.7761 12.0751 18.8035 12.1352 18.8501 12.1785Z" fill="#004B6A"/>
</svg>
