<svg width="24" height="24" viewBox="0 0 24 24" fill="none" xmlns="http://www.w3.org/2000/svg">
<circle cx="12" cy="12" r="12" fill="#EDF0F4"/>
<path d="M6.71013 5.61445C8.20084 4.37151 10.1425 3.6723 12.0852 3.71367C14.456 3.7073 16.7873 4.8184 18.3144 6.62554C21.2827 10.1134 20.8603 15.3475 17.3729 18.3157C15.0491 20.2925 11.8277 20.8338 8.98553 19.7251C8.27813 19.4466 7.61131 19.0744 7.00291 18.6185C7.14748 17.5302 7.68485 16.5032 8.46953 15.7385C9.3322 14.8942 10.4695 14.3881 11.6742 14.3123C11.9924 14.2828 12.3106 14.3087 12.6312 14.2937C13.8631 14.2629 15.0818 14.554 16.1668 15.1384C16.3127 15.2152 16.5055 15.297 16.5146 15.4893C16.5391 15.7358 16.2786 15.8417 16.1272 15.9822C16.5227 15.9676 16.8914 15.7862 17.226 15.588C17.5443 15.4061 17.6388 14.9202 17.3815 14.6474C16.9442 14.16 16.4723 13.7063 16.0281 13.2244C15.9058 13.088 15.7362 12.9689 15.7017 12.7748C15.3112 11.3103 14.3763 10.0502 13.0881 9.2519C12.3029 8.74772 11.3882 8.45813 10.4612 8.37175C8.4718 8.12852 6.4519 8.20126 4.47656 8.5295C4.97301 7.39976 5.76542 6.40959 6.71013 5.61445Z" fill="white"/>
<path d="M12.8447 10.6694C12.9786 10.766 13.1018 10.8766 13.2121 10.9995C13.614 11.4005 14.0177 11.7996 14.4164 12.2042C14.5018 12.2828 14.578 12.3708 14.6437 12.4666C14.33 12.4775 14.0163 12.4738 13.7031 12.4666C13.5139 12.0574 13.2989 11.6592 13.1025 11.2527C13.012 11.0604 12.8975 10.8772 12.8447 10.6694Z" fill="white"/>
<path fill-rule="evenodd" clip-rule="evenodd" d="M11.5587 3.01082C14.2829 2.87718 16.9206 3.98683 18.73 6.02771C22.0287 9.74063 21.6928 15.4248 17.9794 18.7235C17.4354 19.2069 16.8346 19.6224 16.1904 19.961C13.9423 21.1626 11.1778 21.3249 8.80007 20.4102C5.78126 19.2593 3.60971 16.5802 3.10863 13.3885C2.76357 11.2182 3.24775 8.92639 4.45841 7.09153C5.57003 5.38684 7.22515 4.10788 9.15514 3.46227C9.93253 3.20494 10.7409 3.0531 11.5587 3.01082ZM6.71037 5.61444C5.76566 6.40958 4.97325 7.39975 4.4768 8.53222C6.45215 8.20398 8.47204 8.13124 10.4615 8.37447C11.3885 8.46084 12.3032 8.75044 13.0883 9.25462C14.3766 10.053 15.3115 11.3131 15.7019 12.7775C15.728 12.924 15.8309 13.0264 15.9324 13.1275L15.9324 13.1275C15.9655 13.1604 15.9983 13.1931 16.0283 13.2271C16.2301 13.4465 16.438 13.66 16.6459 13.8735L16.6459 13.8735C16.8947 14.129 17.1435 14.3846 17.3818 14.6501C17.6391 14.9229 17.5463 15.4084 17.2263 15.5907C16.8917 15.7889 16.523 15.9703 16.1275 15.9849C16.1649 15.9502 16.2089 15.9176 16.2537 15.8845L16.2537 15.8845C16.3902 15.7835 16.5333 15.6776 16.5148 15.4921C16.5066 15.3183 16.3484 15.2358 16.2103 15.1639C16.1956 15.1562 16.1811 15.1486 16.167 15.1411C15.0821 14.5559 13.8632 14.2641 12.6309 14.2946C12.4958 14.301 12.3607 14.2999 12.2256 14.2989H12.2256C12.0425 14.2976 11.8594 14.2962 11.6762 14.3132C10.4716 14.389 9.33426 14.8951 8.47159 15.7394C7.6869 16.5031 7.14954 17.5311 7.00497 18.6194C7.61337 19.0753 8.28019 19.4475 8.98758 19.726C13.2556 21.3885 18.0637 19.2759 19.7258 15.0074C20.8324 12.1668 20.2912 8.94806 18.3165 6.62553C16.7894 4.81794 14.4576 3.70729 12.0881 3.71593C10.1455 3.67456 8.20381 4.37377 6.7131 5.61671L6.71037 5.61444ZM13.0272 11.1C12.9559 10.9617 12.8846 10.8232 12.8461 10.6717L12.8447 10.6694C12.9796 10.7663 13.1035 10.8776 13.2144 11.0013C13.3181 11.1048 13.4219 11.2081 13.5257 11.3115C13.8242 11.6086 14.1228 11.9058 14.4187 12.2061C14.5041 12.2847 14.5803 12.3727 14.646 12.4684C14.3323 12.4797 14.0186 12.4761 13.7053 12.4684C13.5962 12.2346 13.4802 12.0049 13.3641 11.7754C13.2767 11.6023 13.1892 11.4292 13.1048 11.2545C13.0801 11.2026 13.0536 11.1513 13.0272 11.1Z" fill="#333333"/>
</svg>
