<svg width="24" height="24" viewBox="0 0 24 24" fill="none" xmlns="http://www.w3.org/2000/svg">
<path d="M12 24C18.6276 24 24 18.6276 24 12C24 5.3724 18.6276 0 12 0C5.3724 0 0 5.3724 0 12C0 18.6276 5.3724 24 12 24Z" fill="#EDF0F4"/>
<path d="M13.876 18.6088C13.8409 18.5738 13.8058 18.5387 13.7707 18.5387C12.9639 18.3633 12.157 18.0826 11.4554 17.6617C9.98199 16.7846 8.99973 15.4866 8.96465 13.9782C8.96465 13.4169 9.06989 12.8556 9.31545 12.3294C9.45578 11.9786 10.2977 10.7858 10.403 10.5753C10.9643 9.69831 10.7889 9.76847 9.98199 8.68096L8.8594 7.03216L8.12271 5.90958C7.70174 6.19022 7.28077 6.54103 6.89488 6.89184C6.1231 7.66362 5.52672 8.64588 5.17592 9.69831C4.82511 10.7507 4.71986 11.8733 4.86019 12.9608C5.00051 14.0483 5.42148 15.1008 6.05294 16.0129C6.68439 16.925 7.52633 17.6967 8.47351 18.223C5.98277 16.3987 4.82511 13.6274 5.77229 10.856C6.01786 10.1193 6.40374 9.41766 6.89488 8.78621L7.70174 9.97895C7.73682 10.0491 7.7719 10.1193 7.7719 10.2245C7.7719 10.2947 7.73682 10.3999 7.70174 10.4701C7.31585 10.9612 7.00012 11.4874 6.78963 12.0838C5.73721 15.1358 8.57876 18.2931 11.5606 18.8193C12.1219 18.9246 13.1743 19.0298 13.7356 18.8895C13.7707 18.8895 13.8058 18.8544 13.8058 18.8544C13.8409 18.8193 13.8409 18.8193 13.8409 18.7842C13.8409 18.7492 13.8409 18.7141 13.8409 18.679C13.911 18.679 13.911 18.6439 13.876 18.6088Z" fill="url(#paint0_linear_300_11051)"/>
<path d="M10.0871 5.34828C10.1222 5.38336 10.1572 5.41844 10.1923 5.41844C10.9992 5.59385 11.806 5.87449 12.5077 6.29546C13.9811 7.17248 14.9633 8.47047 14.9984 9.97895C14.9984 10.5402 14.8932 11.1015 14.6476 11.6277C14.5073 11.9786 13.6653 13.1713 13.5601 13.3818C12.9988 14.2588 13.1742 14.1887 13.9811 15.2762L15.1036 16.925L15.8754 18.0475C16.2964 17.7669 16.7174 17.4161 17.1033 17.0653C17.875 16.2935 18.4714 15.3112 18.8222 14.2588C19.173 13.2064 19.2783 12.0838 19.1379 10.9963C18.9976 9.90879 18.5766 8.85636 17.9452 7.94426C17.3137 7.03216 16.4718 6.26038 15.5246 5.73417C18.0154 7.55837 19.173 10.3298 18.1908 13.1011C17.9452 13.8378 17.5593 14.5395 17.0682 15.1709L16.2613 13.9782C16.2262 13.908 16.1911 13.8378 16.1911 13.7326C16.1911 13.6624 16.2262 13.5572 16.2613 13.487C16.6472 12.9959 16.9629 12.4697 17.1734 11.8733C18.2258 8.82128 15.3843 5.66401 12.4024 5.13779C11.8411 5.03255 10.7887 4.92731 10.2274 5.06763C10.1923 5.06763 10.1572 5.10271 10.1572 5.10271C10.0871 5.10271 10.052 5.13779 10.052 5.17288C10.052 5.20796 10.052 5.24304 10.052 5.27812C10.052 5.27812 10.052 5.3132 10.0871 5.34828Z" fill="url(#paint1_linear_300_11051)"/>
<defs>
<linearGradient id="paint0_linear_300_11051" x1="10.6528" y1="21.4396" x2="18.2114" y2="15.0723" gradientUnits="userSpaceOnUse">
<stop stop-color="#174E5B"/>
<stop offset="0.07" stop-color="#195A6C"/>
<stop offset="0.21" stop-color="#1E779A"/>
<stop offset="0.4" stop-color="#27A7E3"/>
<stop offset="0.47" stop-color="#2ABAFF"/>
<stop offset="0.7" stop-color="#1DDAF0"/>
<stop offset="1" stop-color="#0EFFE0"/>
</linearGradient>
<linearGradient id="paint1_linear_300_11051" x1="13.295" y1="2.53688" x2="5.75503" y2="8.95352" gradientUnits="userSpaceOnUse">
<stop stop-color="#174E5B"/>
<stop offset="0.07" stop-color="#195A6C"/>
<stop offset="0.21" stop-color="#1E779A"/>
<stop offset="0.4" stop-color="#27A7E3"/>
<stop offset="0.47" stop-color="#2ABAFF"/>
<stop offset="0.7" stop-color="#1DDAF0"/>
<stop offset="1" stop-color="#0EFFE0"/>
</linearGradient>
</defs>
</svg>
