<svg width="24" height="24" viewBox="0 0 24 24" fill="none" xmlns="http://www.w3.org/2000/svg">
<circle cx="12" cy="12" r="12" fill="#DF1A14"/>
<path fill-rule="evenodd" clip-rule="evenodd" d="M11.8322 8.906C11.737 8.67783 11.4752 8.54712 11.245 8.6204V8.62116C11.0412 8.67602 10.942 8.86872 10.8482 9.0509L10.8482 9.05091L10.8482 9.05092C10.8322 9.08199 10.8164 9.11276 10.8002 9.14249C10.1981 10.3003 9.58978 11.4544 8.98324 12.6051C8.64537 13.2461 8.30805 13.886 7.97265 14.525C7.85096 14.7291 7.88049 14.99 8.04465 15.1612C8.18269 15.3157 8.38009 15.3111 8.57137 15.3067C8.63265 15.3053 8.6933 15.3039 8.75116 15.3078C8.78058 15.3078 8.81103 15.3084 8.84209 15.309L8.84217 15.309C9.07089 15.3133 9.33321 15.3184 9.46592 15.0962C9.62682 14.8082 9.77699 14.5113 9.92757 14.2137L9.92758 14.2137L9.92758 14.2137L9.92759 14.2137L9.92759 14.2137C10.0669 13.9383 10.2066 13.6622 10.3554 13.3917C10.5377 13.0494 11.0852 13.1061 11.2127 13.465C11.3115 13.7167 11.402 13.9737 11.4925 14.2312C11.5985 14.5324 11.7046 14.8342 11.8247 15.1287C11.9755 15.4876 12.523 15.4876 12.6902 15.1453C13.1991 14.187 13.7099 13.2308 14.2206 12.2746L14.2207 12.2745L14.2216 12.2729L14.2217 12.2727C14.7148 11.3495 15.2079 10.4263 15.6993 9.50137C15.9063 9.18329 15.6363 8.71862 15.271 8.7428C15.1729 8.75192 15.0661 8.74563 14.9576 8.73924C14.6793 8.72285 14.3897 8.70579 14.2067 8.94605C14.0649 9.19265 13.9348 9.44432 13.8048 9.69562C13.6509 9.99329 13.4972 10.2904 13.3247 10.578C13.135 10.8712 12.6497 10.8304 12.5072 10.5123C12.3733 10.2149 12.2495 9.91225 12.126 9.61011L12.126 9.6101L12.126 9.61008C12.0295 9.37416 11.9332 9.13856 11.8322 8.906ZM8.80672 8.75944C8.52895 8.74313 8.25048 8.74313 7.97271 8.75944H7.97346C7.79046 8.76775 7.65546 8.92264 7.57595 9.07753L7.045 10.0828C6.25317 11.5822 5.46167 13.081 4.66966 14.5742C4.46341 14.8756 4.74916 15.3244 5.09042 15.3086C5.16499 15.3086 5.2401 15.3103 5.31545 15.312H5.31547H5.3155H5.31552C5.52129 15.3168 5.72882 15.3216 5.93193 15.2912C6.12603 15.2389 6.21978 15.0565 6.3082 14.8846L6.3082 14.8846L6.3082 14.8846C6.32843 14.8452 6.34838 14.8064 6.36919 14.7698C6.77486 14 7.18212 13.2304 7.58969 12.4601L7.58973 12.46C8.115 11.4673 8.64081 10.4736 9.16448 9.47722C9.31523 9.19162 9.11648 8.79193 8.80672 8.75944ZM17.8278 8.77529C18.0183 8.71848 18.2154 8.72381 18.4128 8.72914C18.5278 8.73225 18.643 8.73536 18.7571 8.72618C18.7997 8.72767 18.8444 8.72731 18.8901 8.72695C19.0991 8.72528 19.3284 8.72345 19.4718 8.89769C19.6863 9.11831 19.6218 9.53386 19.3518 9.67288C19.1265 9.81717 18.9024 9.96555 18.678 10.1141L18.678 10.1141C18.3573 10.3266 18.0359 10.5394 17.7093 10.7412C17.359 10.9853 16.843 10.5697 16.9938 10.1617C17.073 9.9701 17.1714 9.78733 17.2698 9.60455L17.2698 9.60454C17.339 9.47598 17.4082 9.34742 17.4708 9.21577C17.4836 9.19174 17.4963 9.16666 17.5091 9.14115L17.5091 9.14112C17.5836 8.99341 17.6654 8.83134 17.8278 8.77529ZM15.7077 13.669C15.557 13.5874 15.3582 13.5542 15.1992 13.6524C15.056 13.7184 14.9839 13.8776 14.919 14.0212C14.9118 14.037 14.9048 14.0526 14.8977 14.0679C14.8614 14.1457 14.8215 14.2212 14.7818 14.2966C14.7173 14.4189 14.6529 14.541 14.6037 14.6724C14.4927 14.9655 14.7312 15.3244 15.0327 15.3244C15.4349 15.3294 15.8405 15.3278 16.2472 15.3261C16.4509 15.3252 16.6549 15.3244 16.859 15.3244C17.1447 15.3486 17.3915 15.0637 17.3592 14.7698C17.3517 14.55 17.1612 14.3951 16.9782 14.3135C16.7093 14.1856 16.4435 14.0479 16.179 13.9108C16.0216 13.8292 15.8647 13.7479 15.7077 13.669Z" fill="white"/>
</svg>
