<svg width="24" height="24" viewBox="0 0 24 24" fill="none" xmlns="http://www.w3.org/2000/svg">
<circle cx="12" cy="12" r="12" fill="#EDF0F4"/>
<path d="M6 15.8077C6 16.0236 6.04798 16.2155 6.16794 16.3835C6.33589 16.6234 6.62379 16.7674 6.9117 16.7674C7.22359 16.7674 7.5115 16.6234 7.67944 16.4075C7.7994 16.2395 7.87138 16.0236 7.87138 15.8077V8.34616C7.87138 7.89031 7.55948 7.48245 7.07964 7.41047C7.03166 7.41047 7.00766 7.41047 6.95968 7.41047C6.9117 7.41047 6.86371 7.41047 6.83972 7.41047C6.35988 7.45845 6 7.89031 6 8.37015V15.8077Z" fill="#353C46"/>
<path d="M15.0449 9.78567C15.4048 9.92963 15.8127 9.83366 16.0766 9.54575C16.1726 9.42579 16.2445 9.28184 16.2685 9.1139C16.3405 8.82599 16.1966 8.53809 16.0046 8.34615C15.8367 8.17821 15.6207 8.01027 15.3568 7.84232C14.5171 7.36248 13.6774 7.38647 13.3175 7.41046C12.8617 7.41046 11.5661 7.48244 10.3665 8.41813C8.63907 9.76168 8.51911 11.777 8.49512 12.0889C8.49512 12.4248 8.49512 14.0323 9.76669 15.3518C11.1822 16.8153 13.0056 16.7674 13.2935 16.7674C13.7254 16.7913 14.709 16.7434 15.7407 16.1436C16.1966 15.8796 16.5324 15.5677 16.7724 15.2798C17.0603 14.9679 17.1562 14.4881 16.9403 14.1042C16.9163 14.0802 16.8923 14.0323 16.8683 14.0083C16.8443 13.9843 16.8203 13.9363 16.7964 13.9123C16.4365 13.5284 15.8127 13.5764 15.4288 13.9363C15.2129 14.1282 14.949 14.3442 14.5651 14.5361C14.5651 14.5361 14.5411 14.5361 14.5411 14.5601C13.5814 15.0159 12.4298 14.896 11.5661 14.2482C11.5181 14.2002 11.4701 14.1762 11.4221 14.1282C11.1102 13.8643 10.8943 13.5524 10.7504 13.2645C10.3665 12.4968 10.3425 11.5611 10.7264 10.7933C10.8223 10.6014 10.9423 10.4095 11.1102 10.2175C11.95 9.25785 13.1496 9.25785 13.3175 9.25785C13.5574 9.25785 13.9413 9.28184 14.3732 9.42579C14.6611 9.52176 14.877 9.66571 15.0449 9.78567Z" fill="#353C46"/>
<ellipse cx="17.0125" cy="11.5851" rx="1.00766" ry="1.00767" fill="#2C96DF"/>
</svg>
