<svg width="24" height="24" viewBox="0 0 24 24" fill="none" xmlns="http://www.w3.org/2000/svg">
<circle cx="12" cy="12" r="12" fill="#57BEEA"/>
<path fill-rule="evenodd" clip-rule="evenodd" d="M5.28325 14.1704C4.70238 14.2382 4.1203 14.0541 3.68394 13.6648C3.24759 13.2754 2.99866 12.718 3.00001 12.1332C2.99745 11.01 3.90062 10.0947 5.02369 10.0823C5.74805 6.75478 8.69832 4.26402 12.2266 4.26402C12.8853 4.26402 13.5244 4.35079 14.1318 4.51302C14.5091 3.94283 15.1473 3.59993 15.831 3.60002C16.9609 3.60293 17.8746 4.52101 17.8721 5.65088C17.8721 6.00476 17.783 6.33751 17.6261 6.62726C18.8979 7.99902 19.6032 9.8015 19.6 11.6721C19.6035 13.6513 18.8143 15.5493 17.4088 16.9426C17.6548 17.2807 17.7996 17.6979 17.7996 18.1492C17.8008 18.6919 17.5864 19.2129 17.2035 19.5975C16.8206 19.9821 16.3006 20.1988 15.7578 20.2C14.9169 20.199 14.1625 19.6827 13.8571 18.8992C13.3223 19.02 12.7756 19.0808 12.2273 19.0803C9.0273 19.0803 6.3034 17.0324 5.28325 14.1704ZM5.65321 14.0912C6.63412 16.7834 9.20712 18.7053 12.2268 18.7053C12.7512 18.7053 13.262 18.6472 13.7532 18.5378C13.6359 17.9381 13.7926 17.3174 14.1805 16.8454C14.5685 16.3733 15.1471 16.0993 15.7581 16.0983C16.3013 16.0983 16.7963 16.3119 17.1615 16.6597C18.4864 15.3384 19.2297 13.5433 19.2267 11.6722C19.2267 9.8537 18.5401 8.19672 17.412 6.9487C17.0378 7.40897 16.4688 7.70249 15.8313 7.70249C15.2884 7.70129 14.7683 7.48444 14.3853 7.09967C14.0024 6.71489 13.7881 6.19373 13.7895 5.65088C13.7895 5.36868 13.8468 5.09931 13.9494 4.85408C13.3864 4.71127 12.8077 4.63928 12.2268 4.63979C8.89474 4.63979 6.10594 6.97963 5.40044 10.114C6.37607 10.2911 7.08478 11.1416 7.08308 12.1332C7.08448 13.0281 6.50546 13.8206 5.65246 14.0912H5.65321ZM10.7797 13.1223C11.1629 13.5075 11.6834 13.7246 12.2267 13.726C12.7702 13.7248 13.2909 13.5077 13.6743 13.1225C14.0576 12.7373 14.2722 12.2156 14.2708 11.6722C14.2708 10.5381 13.3555 9.61904 12.2267 9.61904C11.0979 9.61904 10.1834 10.5381 10.1834 11.6722C10.182 12.2155 10.3965 12.7371 10.7797 13.1223Z" fill="white"/>
</svg>
