<svg width="24" height="24" viewBox="0 0 24 24" fill="none" xmlns="http://www.w3.org/2000/svg">
<circle cx="12" cy="12" r="12" fill="#4CB8D1"/>
<path fill-rule="evenodd" clip-rule="evenodd" d="M7.99056 5.62766L7.69206 6.16939L4.97327 8.65668V11.0994L4.70702 11.5822C4.56446 11.8417 4.56446 12.1568 4.70702 12.4163L4.97327 12.8991V18.3391H7.97181L7.99056 18.3724C8.13359 18.6352 8.40706 18.799 8.70457 18.8H15.4209C15.7154 18.7987 15.9864 18.6379 16.1304 18.3792L16.5744 17.5926L19.1522 15.3426V13.0215L19.489 12.4246C19.6371 12.1612 19.6371 11.8388 19.489 11.5754L19.1522 10.9785V5.58383H16.1087C15.9579 5.34508 15.6992 5.20001 15.4209 5.20001H8.70457C8.40706 5.20105 8.13359 5.36484 7.99056 5.62766ZM5.42113 12L8.70468 6.0455H15.421L18.7788 12L15.421 17.9546H8.70468L5.42113 12ZM9.00806 6.58343H15.1199L18.1747 12L15.1199 17.4173H9.00806L6.02076 12L9.00806 6.58343ZM8.77891 11.9615L10.4207 8.88788H13.9277L15.5703 11.9615L13.9285 15.0351H10.4214L8.77891 11.9615Z" fill="white"/>
</svg>
