<svg width="24" height="24" viewBox="0 0 24 24" fill="none" xmlns="http://www.w3.org/2000/svg">
<circle cx="12" cy="12" r="12" fill="#EDF0F4"/>
<path fill-rule="evenodd" clip-rule="evenodd" d="M5.6001 8.29067L11.9927 4.60001L18.3853 8.29067V15.672L11.9927 19.3627L5.6001 15.672V8.29067ZM7.21678 13.7571L12.1235 16.5556L16.8313 13.8309L14.0697 12.237L14.6265 11.9131L13.5156 11.2767L12.9644 11.5978L12.1888 11.1489L12.8678 10.7568L11.757 10.1204L11.0836 10.5125L9.7653 9.75103L12.1206 8.39295L15.3766 10.2596L16.5699 9.56635L12.1206 7.02919L7.4043 9.75103L9.90736 11.1972L9.43573 11.4699L10.5466 12.1063L11.0154 11.8336L11.791 12.2825L11.1972 12.6263L12.3053 13.2627L12.8963 12.9218L14.4759 13.8338L12.1206 15.1918L7.23667 12.3961L7.21678 13.7571Z" fill="black"/>
</svg>
