<svg width="24" height="24" viewBox="0 0 24 24" fill="none" xmlns="http://www.w3.org/2000/svg">
<circle cx="12" cy="12" r="12" fill="#00D4D5"/>
<path d="M12.292 3.80002V7.89072L15.8464 5.84799L12.292 3.80002Z" fill="white"/>
<path opacity="0.9" d="M15.8462 5.84799V9.9387L19.3998 7.89072L15.8462 5.84799Z" fill="white"/>
<path opacity="0.8" fill-rule="evenodd" clip-rule="evenodd" d="M12.292 11.9814V7.89072L15.8464 9.93869L12.292 11.9814ZM15.8464 14.0294V9.93942L19.4 11.9814L15.8464 14.0294Z" fill="white"/>
<path opacity="0.8" d="M12.292 11.9814V16.0721L15.8464 14.0294L12.292 11.9814Z" fill="white"/>
<path d="M15.8462 14.0294V18.1201L19.3998 16.0721L15.8462 14.0294Z" fill="white"/>
<path opacity="0.4" d="M3.10498 7.75281V11.8435L6.65937 9.79554L3.10498 7.75281Z" fill="white"/>
<path opacity="0.2" d="M7.58887 9.27377V13.3645L11.1373 11.3217L7.58887 9.27377Z" fill="white"/>
<path opacity="0.3" d="M4.9541 11.8607V15.9514L8.50774 13.9034L4.9541 11.8607Z" fill="white"/>
<path opacity="0.9" d="M7.29639 14.9477V19.0384L10.8448 16.9904L7.29639 14.9477Z" fill="white"/>
<path opacity="0.7" d="M12.2627 16.7086V20.8L15.8111 18.7513L12.2627 16.7086Z" fill="white"/>
<path opacity="0.9" d="M8.18066 7.25354V11.345L11.7291 9.30227L8.18066 7.25354Z" fill="white"/>
<path opacity="0.8" d="M12.2917 3.80002V7.89072L8.7373 5.84799L12.2917 3.80002Z" fill="white"/>
<path opacity="0.6" d="M8.18063 5.53915V9.62911L4.62549 7.58113L8.18063 5.53915Z" fill="white"/>
<path opacity="0.6" d="M11.7351 7.56314V11.6546L8.18066 9.60587L11.7351 7.56314Z" fill="white"/>
<path opacity="0.95" d="M7.57245 9.27377V13.3645L4.01807 11.3217L7.57245 9.27377Z" fill="white"/>
<path opacity="0.6" d="M12.292 11.9814V16.0721L8.74365 14.0294L12.292 11.9814Z" fill="white"/>
<path opacity="0.55" d="M4.95429 12.9342V17.0249L1.3999 14.9762L4.95429 12.9342Z" fill="white"/>
<path d="M19.3998 7.89072V11.9814L15.8462 9.93869L19.3998 7.89072Z" fill="white"/>
<path opacity="0.95" d="M15.8464 9.93945V14.0294L12.292 11.9814L15.8464 9.93945Z" fill="white"/>
<path opacity="0.9" d="M19.3998 11.9814V16.0721L15.8462 14.0294L19.3998 11.9814Z" fill="white"/>
<path opacity="0.7" d="M15.8464 14.0294V18.1201L12.292 16.0721L15.8464 14.0294Z" fill="white"/>
<path opacity="0.4" d="M11.5048 15.734V19.8247L7.95117 17.782L11.5048 15.734Z" fill="white"/>
<path d="M15.8464 5.84799V9.9387L12.292 7.89072L15.8464 5.84799Z" fill="white"/>
</svg>
