<svg width="24" height="24" viewBox="0 0 24 24" fill="none" xmlns="http://www.w3.org/2000/svg">
<circle cx="12" cy="12" r="12" fill="#55DDFF"/>
<path fill-rule="evenodd" clip-rule="evenodd" d="M10.353 3.74966C9.3949 4.79799 8.86134 6.16653 8.85651 7.58794C8.85297 8.52122 9.10114 9.43812 9.57481 10.2417C9.85165 10.7665 9.91899 10.9914 9.80675 10.9914C9.60579 11.0907 9.41312 11.206 9.23062 11.3363C7.76572 12.2518 6.82163 13.8098 6.68667 15.5344C6.50411 16.9197 6.93923 18.3153 7.87634 19.3501C7.97423 19.4371 8.05539 19.5413 8.11577 19.6575C8.11577 19.9274 7.08323 19.3277 6.16291 18.578C4.43913 17.1548 3.32522 15.1239 3.05031 12.903C2.9523 11.9022 2.99765 10.8924 3.18499 9.9044C3.41096 8.83168 3.84297 7.81323 4.45697 6.90574C5.7287 4.99201 7.67828 3.63352 9.91151 3.10495C10.1009 3.05662 10.2934 3.02155 10.4876 3C10.6448 3 10.6448 3.01499 10.6448 3.2249C10.6448 3.4348 10.6148 3.48728 10.353 3.74966ZM15.9123 3.80965C18.2593 5.07171 19.9258 7.31268 20.4615 9.9269C20.5801 10.5188 20.6228 11.1234 20.5887 11.7261C20.6398 12.6739 20.4998 13.6224 20.1772 14.5148C19.2938 17.1104 17.2859 19.1662 14.7151 20.1073C13.72 20.4597 12.0814 20.7295 12.0814 20.5346C12.0814 20.4747 12.1936 20.4222 12.4555 20.3547C13.7997 19.941 14.9399 19.0367 15.6504 17.8209C15.7627 17.6334 15.7776 17.5885 15.7178 17.5135C15.6579 17.4385 15.598 17.476 15.2913 17.8059C14.6151 18.5319 13.6908 18.9762 12.7024 19.0503C11.955 19.1944 11.1829 18.9871 10.6074 18.4881C10.1 17.979 9.82859 17.2802 9.85919 16.5614C9.82207 15.8071 9.94446 15.0535 10.2183 14.3499C10.6385 13.1254 11.5342 12.1225 12.7024 11.5687C12.7928 11.5443 12.877 11.5008 12.9493 11.4412C12.8872 11.3663 12.8147 11.3003 12.7324 11.2463C12.3209 10.9035 11.9651 10.4989 11.6774 10.0468C11.265 9.26041 11.0469 8.38634 11.0414 7.49799C11.0685 6.91785 11.1691 6.34352 11.3407 5.78876C11.5011 5.00925 12.0404 4.36198 12.7773 4.06454C13.2944 3.91026 13.8542 4.05772 14.2288 4.44687C14.6378 4.85378 14.8414 5.42416 14.7825 5.99867C14.8146 6.70423 14.6177 7.40121 14.2213 7.98528C14.0343 8.26265 14.0343 8.41258 14.3336 8.62999C14.6597 8.92544 15.1617 8.90545 15.4634 8.58501C16.0346 7.94815 16.3069 7.09698 16.2116 6.24606C16.1873 5.43917 15.9271 4.65718 15.4634 3.99707C15.3842 3.89884 15.3234 3.7871 15.2838 3.66722C15.2838 3.52478 15.4933 3.57726 15.9123 3.80965Z" fill="white"/>
</svg>
