<svg width="24" height="24" viewBox="0 0 24 24" fill="none" xmlns="http://www.w3.org/2000/svg">
<circle cx="12" cy="12" r="12" fill="#EDF0F4"/>
<path fill-rule="evenodd" clip-rule="evenodd" d="M8.85637 15.5952L5.18597 16.008L7.34117 11.0352L5.13477 8.02723L10.4996 7.41603L11.9572 4.06403L15.1508 8.40483L18.8212 7.99203L16.6756 12.9408L18.866 15.928L13.5284 16.536L12.0484 19.936L8.85637 15.5952ZM10.3812 15.2657C10.2404 15.3345 10.09 15.3921 9.93484 15.4353L9.79404 15.4737L11.8628 18.2865L12.5972 16.5969L12.4644 16.5793C11.7412 16.4881 11.0836 16.0977 10.6596 15.5121L10.4532 15.2273L10.3812 15.2657ZM11.33 15.024L9.66116 12.7152L11.818 12.4448L13.978 15.304L15.2196 12.4992L15.322 12.584C15.4324 12.6768 15.5316 12.7824 15.618 12.8992L17.3524 15.2656L12.9972 15.7616C12.9316 15.7696 12.8644 15.7728 12.7972 15.7728C12.218 15.7728 11.6692 15.4928 11.33 15.024ZM9.73332 9.90398C9.08692 9.97278 8.52372 10.3872 8.26452 10.9856L6.51572 15.0224L9.42132 14.696C9.56532 14.68 9.70612 14.6464 9.84212 14.5968L9.96692 14.5504L8.16852 12.0672L11.7141 11.6176L12.5573 9.60318L9.73332 9.90398ZM13.7909 13.6801L12.4773 11.9409L13.8629 8.63049L10.8245 8.95209L10.8469 8.82089C10.8725 8.67689 10.9141 8.53769 10.9717 8.40489L12.1429 5.71369L14.7461 9.25609C15.1333 9.78089 15.2085 10.4769 14.9445 11.0737L14.5925 11.8705L13.7909 13.6801ZM15.6691 9.1825L15.7203 9.3057C16.0019 9.9793 15.9955 10.7473 15.701 11.4113L15.5587 11.7313L15.6274 11.7777C15.7586 11.8657 15.8819 11.9681 15.9955 12.0817L16.0995 12.1841L17.4899 8.9761L15.6691 9.1825ZM7.75546 10.2L6.64826 8.68957L10.1283 8.29277L10.0883 8.43677C10.0419 8.60637 10.0115 8.78077 10.0003 8.95517L9.99386 9.03997L9.64666 9.07677C8.93786 9.15197 8.27706 9.52317 7.83706 10.0944L7.75546 10.2Z" fill="url(#paint0_linear_300_12633)"/>
<path d="M11.2257 19.9999C8.92169 19.7775 6.85129 18.5791 5.49609 16.6799L6.42409 16.5759C6.57769 16.7647 6.74089 16.9455 6.90889 17.1151C7.91529 18.1263 9.17449 18.8079 10.5553 19.0895L11.2257 19.9999Z" fill="url(#paint1_linear_300_12633)"/>
<path d="M13.1584 19.1407C14.6528 18.8991 16.0112 18.1999 17.0912 17.1151C17.1872 17.0175 17.2848 16.9135 17.3824 16.8047L18.5072 16.6767C17.1568 18.5743 15.0896 19.7743 12.7856 19.9999L13.1584 19.1407Z" fill="url(#paint2_linear_300_12633)"/>
<path d="M18.7363 14.5648C19.0435 13.7472 19.2003 12.8848 19.2003 12C19.2003 11.2192 19.0771 10.4512 18.8355 9.71841L19.2867 8.67841C19.7603 9.72321 20.0003 10.84 20.0003 12C20.0003 13.1584 19.7603 14.2736 19.2883 15.3184L18.7363 14.5648Z" fill="url(#paint3_linear_300_12633)"/>
<path d="M4.7168 15.3297C4.2416 14.2817 4 13.1633 4 12.0001C4 10.8305 4.2432 9.70568 4.7248 8.65448L5.2752 9.40648C4.96 10.2321 4.8 11.1041 4.8 12.0001C4.8 12.7841 4.9232 13.5537 5.1664 14.2897L4.7168 15.3297Z" fill="url(#paint4_linear_300_12633)"/>
<path d="M5.5293 7.2736C6.8829 5.4048 8.9373 4.2208 11.2205 4L10.8477 4.8576C9.3517 5.0976 7.9901 5.7984 6.9085 6.8848C6.8269 6.9664 6.7453 7.0544 6.6637 7.144L5.5293 7.2736Z" fill="url(#paint5_linear_300_12633)"/>
<path d="M17.5776 7.424C17.424 7.2352 17.2608 7.0544 17.0912 6.8848C16.0864 5.8752 14.8288 5.1936 13.4512 4.912L12.7808 4C15.0832 4.224 17.1504 5.4224 18.504 7.32L17.5776 7.424Z" fill="url(#paint6_linear_300_12633)"/>
<defs>
<linearGradient id="paint0_linear_300_12633" x1="10.9361" y1="25.6527" x2="24.9219" y2="15.1853" gradientUnits="userSpaceOnUse">
<stop stop-color="#009DDE"/>
<stop offset="0.5" stop-color="#694D9F"/>
<stop offset="1" stop-color="#ED3554"/>
</linearGradient>
<linearGradient id="paint1_linear_300_12633" x1="17.3408" y1="23.5305" x2="22.705" y2="8.50973" gradientUnits="userSpaceOnUse">
<stop stop-color="#009DDE"/>
<stop offset="0.5" stop-color="#694D9F"/>
<stop offset="1" stop-color="#ED3554"/>
</linearGradient>
<linearGradient id="paint2_linear_300_12633" x1="21.2029" y1="26.9862" x2="26.2579" y2="12.0018" gradientUnits="userSpaceOnUse">
<stop stop-color="#009DDE"/>
<stop offset="0.5" stop-color="#694D9F"/>
<stop offset="1" stop-color="#ED3554"/>
</linearGradient>
<linearGradient id="paint3_linear_300_12633" x1="10.3797" y1="54.873" x2="23.2947" y2="54.405" gradientUnits="userSpaceOnUse">
<stop stop-color="#009DDE"/>
<stop offset="0.5" stop-color="#694D9F"/>
<stop offset="1" stop-color="#ED3554"/>
</linearGradient>
<linearGradient id="paint4_linear_300_12633" x1="3.09719" y1="47.471" x2="16.0151" y2="46.9995" gradientUnits="userSpaceOnUse">
<stop stop-color="#009DDE"/>
<stop offset="0.5" stop-color="#694D9F"/>
<stop offset="1" stop-color="#ED3554"/>
</linearGradient>
<linearGradient id="paint5_linear_300_12633" x1="11.4875" y1="17.1314" x2="16.4404" y2="2.16142" gradientUnits="userSpaceOnUse">
<stop stop-color="#009DDE"/>
<stop offset="0.5" stop-color="#694D9F"/>
<stop offset="1" stop-color="#ED3554"/>
</linearGradient>
<linearGradient id="paint6_linear_300_12633" x1="14.6298" y1="20.8355" x2="20.0065" y2="5.81354" gradientUnits="userSpaceOnUse">
<stop stop-color="#009DDE"/>
<stop offset="0.5" stop-color="#694D9F"/>
<stop offset="1" stop-color="#ED3554"/>
</linearGradient>
</defs>
</svg>
