<svg width="24" height="24" viewBox="0 0 24 24" fill="none" xmlns="http://www.w3.org/2000/svg">
<circle cx="12" cy="12" r="12" fill="#102044"/>
<path fill-rule="evenodd" clip-rule="evenodd" d="M18.7081 15.4223C18.7051 15.0631 18.4814 14.7421 18.1437 14.6123V9.60467C18.4889 9.60095 18.7988 9.39259 18.9323 9.07451C19.0658 8.75642 18.9974 8.38946 18.7583 8.14076C18.5191 7.89207 18.1549 7.80922 17.8315 7.92995C17.6147 7.9292 17.4068 8.0087 17.2469 8.1527L12.8732 5.64924C12.9273 5.39244 12.8625 5.12495 12.6969 4.9213C12.5313 4.71764 12.2825 4.59958 12.0199 4.60001C11.7649 4.59912 11.5224 4.71002 11.3563 4.90341C11.1902 5.0968 11.1173 5.35324 11.1569 5.60499L6.67664 8.16995C6.41332 7.92097 6.02398 7.8593 5.69653 8.0147C5.36858 8.16995 5.17271 8.50969 5.20273 8.86818C5.23425 9.22782 5.4853 9.53038 5.83312 9.62792V14.5898C5.41556 14.7066 5.14874 15.1139 5.20873 15.5431C5.27122 15.9724 5.64066 16.2901 6.07477 16.2878C6.25112 16.2882 6.4234 16.2349 6.56857 16.1348L8.89351 17.463V17.4893H8.94379L11.1502 18.7515C11.162 19.2317 11.5612 19.6115 12.0417 19.5997C12.284 19.5958 12.5137 19.491 12.6753 19.3106C12.837 19.1302 12.9161 18.8906 12.8935 18.6495L17.4188 16.1821C17.6892 16.3285 18.0166 16.3228 18.2818 16.1671C18.5461 16.012 18.7084 15.7286 18.7081 15.4223ZM15.0532 16.9208V12.6586H15.0502L15.0465 12.6383L15.0435 12.5918L14.9392 12.5423L14.284 12.1524L14.9692 11.7429L15.0765 11.6926L15.084 11.4331H15.087V7.47019L16.9879 8.55917C16.9662 8.63642 16.9549 8.71592 16.9549 8.79542C16.9567 9.20944 17.2502 9.56485 17.6566 9.64515V14.5726C17.3885 14.627 17.1616 14.8043 17.044 15.0511C16.9264 15.298 16.9318 15.5857 17.0585 15.828L15.0532 16.9208ZM12.0214 6.33173C11.7722 6.33173 11.5351 6.22673 11.3692 6.04148L9.38048 7.18071V11.3896L10.197 11.8756L11.2281 11.2696C11.185 11.0439 11.2453 10.8108 11.3923 10.6341C11.5393 10.4574 11.7577 10.3558 11.9876 10.3569C12.2118 10.3564 12.4251 10.4537 12.5716 10.6233C12.7181 10.7929 12.7833 11.018 12.7501 11.2396L13.815 11.8726L14.6045 11.4001V7.19346L12.6427 6.07073C12.4791 6.23753 12.2551 6.33135 12.0214 6.33098V6.33173ZM13.3443 12.1591L12.5316 12.6481C12.236 12.3577 11.7643 12.3505 11.4599 12.6316L10.6607 12.1554L11.4637 11.6896C11.7672 11.9658 12.2334 11.9582 12.5278 11.6724L13.3443 12.1591ZM6.88218 15.7583L8.89342 16.9103V12.7913L8.89717 12.6586L8.93094 12.6248L9.09905 12.5251L9.72343 12.1591L9.15908 11.8261L8.89717 11.6926V11.5329H8.89417V7.45669L6.92195 8.58617C7.03827 9.03616 6.77186 9.49665 6.32158 9.6249V14.5928C6.55948 14.6618 6.75685 14.8291 6.86416 15.0511C6.97148 15.2738 6.97823 15.531 6.88218 15.7583ZM12.7163 18.1995C12.5527 17.9805 12.2953 17.853 12.0214 17.853C11.7145 17.8523 11.43 18.0113 11.2724 18.2723L9.37752 17.187V12.9016L10.1835 12.4321L11.2289 13.0516C11.1894 13.2755 11.2511 13.5053 11.3973 13.6794C11.5436 13.8535 11.7594 13.954 11.9869 13.9538C12.4147 13.9538 12.7599 13.6111 12.7599 13.1874C12.7599 13.1499 12.7569 13.1124 12.7494 13.0749L13.815 12.4351L14.57 12.8851V17.187L12.7163 18.1995Z" fill="white"/>
</svg>
