<svg width="24" height="24" viewBox="0 0 24 24" fill="none" xmlns="http://www.w3.org/2000/svg">
<path fill-rule="evenodd" clip-rule="evenodd" d="M12 0C18.6264 0 24 5.3736 24 12C24 18.6264 18.6264 24 12 24C5.3736 24 0 18.6264 0 12C0 5.3736 5.3736 0 12 0Z" fill="#B41514"/>
<path d="M11.9039 19.8C11.0158 19.8 10.2959 19.0801 10.2959 18.192C10.2959 17.3039 11.0158 16.584 11.9039 16.584C12.792 16.584 13.5119 17.3039 13.5119 18.192C13.5119 19.0801 12.792 19.8 11.9039 19.8Z" fill="white"/>
<path d="M11.9039 8.71203C11.0158 8.71203 10.2959 7.99211 10.2959 7.10403C10.2959 6.21596 11.0158 5.49603 11.9039 5.49603C12.792 5.49603 13.5119 6.21596 13.5119 7.10403C13.5119 7.99211 12.792 8.71203 11.9039 8.71203Z" fill="white"/>
<path d="M5.32812 15.504V13.272H18.4801V15.504H5.32812Z" fill="white"/>
<path d="M11.9039 12.168C8.15266 12.168 5.09986 9.19202 4.97266 5.47202H7.35106C7.47586 7.87922 9.46786 9.79202 11.9039 9.79202C14.3399 9.79202 16.3319 7.87922 16.4567 5.47202H18.8351C18.7079 9.19202 15.6551 12.168 11.9039 12.168Z" fill="white"/>
</svg>
