<svg width="24" height="24" viewBox="0 0 24 24" fill="none" xmlns="http://www.w3.org/2000/svg">
<path d="M12 24C18.6276 24 24 18.6276 24 12C24 5.3724 18.6276 0 12 0C5.3724 0 0 5.3724 0 12C0 18.6276 5.3724 24 12 24Z" fill="#EDF0F4"/>
<path d="M5.00586 8.91386L7.44857 14.3775L11.5079 18.3981L7.48422 5.93259L5.00586 8.91386Z" fill="#9C2131"/>
<path d="M5.00586 8.91379L9.2613 11.4496L7.48422 5.92657L5.00586 8.91379Z" fill="#576B98"/>
<path d="M8.9873 5.59998L10.3959 9.97092L11.2755 10.2857L12.3097 7.00747L8.9873 5.59998Z" fill="#D71B2A"/>
<path d="M19.1033 9.71565L17.1539 12.4297L12.6846 10.8084L13.9564 6.90659L17.4095 6.02765L19.1033 9.71565Z" fill="#C41A24"/>
<path d="M16.2331 13.7123L13.0534 18.0833L11.0029 11.8238L16.2331 13.7123Z" fill="#C71C26"/>
<path d="M10.7891 7.4351L11.2764 10.2857L12.3105 7.00751L10.7891 7.4351Z" fill="#A71927"/>
<path d="M10.3789 9.97092L11.2763 10.2857L10.789 7.43506L8.99414 5.59998L10.3789 9.97092Z" fill="#61395F"/>
<path d="M9.26134 11.4498L7.44271 14.3776L5 8.91388L9.26134 11.4498Z" fill="#614268"/>
<path d="M13.9505 6.90652L15.573 9.40084L12.6846 10.8083L13.9505 6.90652Z" fill="#DA1728"/>
<path d="M17.4038 6.02765L15.5673 9.4009L13.9448 6.90659L17.4038 6.02765Z" fill="#E42735"/>
<path d="M17.1547 12.4295L15.5737 9.40668L19.11 9.72143L17.1547 12.4295Z" fill="#A61D1E"/>
<path d="M13.1664 14.2409L13.0475 18.0833L10.9971 11.8238L13.1664 14.2409Z" fill="#D71B2A"/>
<path d="M13.0537 18.0834L13.1725 14.241L16.2393 13.7124L13.0537 18.0834Z" fill="#A51C1C"/>
<path d="M11.5254 18.3979L7.44238 14.3774L10.3724 14.9237L11.5254 18.3979Z" fill="#721919"/>
</svg>
