<svg width="24" height="24" viewBox="0 0 24 24" fill="none" xmlns="http://www.w3.org/2000/svg">
<circle cx="12" cy="12" r="12" fill="#EDF0F4"/>
<path d="M12.1457 7.03105C12.1457 7.03105 13.4561 7.55523 14.5918 10.147C14.7302 10.6019 14.8181 11.0707 14.8539 11.5448C14.8539 11.5448 14.9122 13.263 13.66 13.7871C13.3303 13.8822 13.1198 14.2041 13.1649 14.5443C13.2231 15.1558 13.3396 16.1168 13.3396 16.3207C13.3029 16.6644 13.0155 16.9268 12.6698 16.9322C12.2352 16.9943 11.794 16.9943 11.3594 16.9322C10.9226 16.8157 10.8643 16.5828 10.8643 16.5828C10.8643 16.5828 10.6605 16.2915 10.8061 15.0102C10.8061 15.0102 11.0973 14.1075 10.2528 13.758C9.40828 13.4086 9.11707 11.8651 9.11707 11.8651C9.11707 11.8651 8.85498 10.3508 10.4858 8.22501C10.4858 8.22501 11.505 6.94368 12.1165 7.00193" fill="url(#paint0_linear_300_13377)"/>
<path d="M10.6312 7.87261L10.5438 7.95998L10.6312 7.87261Z" fill="url(#paint1_linear_300_13377)"/>
<path d="M9.93253 8.77832C9.4852 8.46153 8.98091 8.23411 8.44735 8.10853C7.91121 7.99439 7.36473 7.93584 6.81657 7.93381H6.438C6.18214 7.92433 5.93579 8.03143 5.76822 8.22502C5.61929 8.40264 5.56508 8.64114 5.62261 8.86568C5.79774 10.0689 6.32457 11.1934 7.13691 12.0981C7.545 12.5312 8.00466 12.9126 8.50559 13.2338C9.02243 13.5319 9.58239 13.7481 10.1655 13.8745C9.29186 13.4959 9.00065 11.9234 9.00065 11.9234C8.15614 11.3992 7.60284 10.6129 7.19515 9.4481H7.22427C7.96412 9.46448 8.68294 9.69734 9.29186 10.1179C9.43276 9.64011 9.64904 9.1879 9.93253 8.77832Z" fill="url(#paint2_linear_300_13377)"/>
<path d="M14.6793 10.1179C15.2864 9.6937 16.0063 9.46047 16.7468 9.44808H16.776C16.3683 10.6129 15.7859 11.3992 14.9413 11.9234V11.7486C14.9122 12.2146 14.7375 13.4668 13.7183 13.9036C14.3319 13.7725 14.9214 13.5465 15.4655 13.2338C15.9902 12.9462 16.4548 12.5607 16.8342 12.0981C17.6243 11.1789 18.148 10.0611 18.3485 8.86566C18.406 8.64112 18.3518 8.40262 18.2029 8.225C18.0274 8.0425 17.7863 7.93766 17.5331 7.93379H17.1545C16.6062 7.93281 16.0594 7.9914 15.5238 8.10852C14.9756 8.2327 14.4596 8.47082 14.0095 8.80742C14.2759 9.22082 14.5002 9.65982 14.6793 10.1179Z" fill="url(#paint3_linear_300_13377)"/>
<defs>
<linearGradient id="paint0_linear_300_13377" x1="9.08795" y1="16.9786" x2="14.8394" y2="16.9786" gradientUnits="userSpaceOnUse">
<stop stop-color="#29DCE8"/>
<stop offset="1" stop-color="#29DC93"/>
</linearGradient>
<linearGradient id="paint1_linear_300_13377" x1="10.5467" y1="16.9671" x2="10.6224" y2="16.9671" gradientUnits="userSpaceOnUse">
<stop stop-color="#29DCE8"/>
<stop offset="1" stop-color="#29DC93"/>
</linearGradient>
<linearGradient id="paint2_linear_300_13377" x1="5.64008" y1="16.8947" x2="10.1742" y2="16.8947" gradientUnits="userSpaceOnUse">
<stop stop-color="#29DCE8"/>
<stop offset="1" stop-color="#29DC93"/>
</linearGradient>
<linearGradient id="paint3_linear_300_13377" x1="13.727" y1="16.8947" x2="18.3485" y2="16.8947" gradientUnits="userSpaceOnUse">
<stop stop-color="#29DCE8"/>
<stop offset="1" stop-color="#29DC93"/>
</linearGradient>
</defs>
</svg>
