<svg width="24" height="24" viewBox="0 0 24 24" fill="none" xmlns="http://www.w3.org/2000/svg">
<circle cx="12" cy="12" r="12" fill="black"/>
<path d="M20.4804 11.76L18.1204 11.82H18.1004H18.0804H18.0404H18.0204L17.9804 11.84H17.9604C17.9404 11.84 17.9404 11.86 17.9204 11.86L15.7004 13.7L12.3804 11.8V10L15.6804 10.3H15.7204C15.7404 10.3 15.7404 10.3 15.7604 10.3H15.7804C15.8004 10.3 15.8204 10.3 15.8404 10.28H15.8604L15.8804 10.26L17.4604 9.34001L20.0604 10.48C20.2204 10.54 20.4004 10.48 20.4804 10.32C20.5604 10.16 20.4804 9.98001 20.3204 9.90001L18.1404 8.96001L19.4804 8.20001C19.6404 8.12001 19.6804 7.92001 19.6004 7.76001C19.5204 7.60001 19.3204 7.56001 19.1604 7.64001L15.9404 9.48001L15.5204 7.16001L18.1204 6.64001C18.2404 6.62001 18.3404 6.54001 18.3604 6.44001C18.4004 6.32001 18.3804 6.20001 18.3004 6.12001C18.2204 6.04001 18.1004 6.00001 18.0004 6.02001L15.7804 6.48001L16.6404 5.00001C16.7004 4.90001 16.7004 4.78001 16.6404 4.68001C16.5804 4.58001 16.4804 4.52001 16.3604 4.52001C16.2404 4.52001 16.1404 4.58001 16.0804 4.68001L14.9204 6.64001C14.9004 6.66001 14.9004 6.68001 14.9004 6.70001C14.8404 6.78001 14.8004 6.86001 14.8204 6.96001L15.3004 9.62001L12.3604 9.36001V5.96001L14.4604 4.24001C14.6004 4.12001 14.6204 3.92001 14.5204 3.80001C14.4204 3.68001 14.2204 3.64001 14.1004 3.74001L12.4004 5.14001V3.70001C12.4004 3.54001 12.2604 3.40001 12.0804 3.40001C11.9004 3.40001 11.7804 3.54001 11.7604 3.70001V7.28001L9.60039 6.58001L10.3004 4.06001C10.3404 3.90001 10.2604 3.72001 10.0804 3.66001C9.90039 3.60001 9.74039 3.70001 9.68039 3.88001L9.08039 6.04001L8.14039 4.64001C8.04039 4.50001 7.84039 4.46001 7.70039 4.56001C7.56039 4.66001 7.52039 4.86001 7.62039 5.00001L8.94039 6.96001L8.96039 6.98001L8.98039 7.00001L9.00039 7.02001L9.02039 7.04001C9.04039 7.04001 9.04039 7.06001 9.06039 7.06001H9.08039C9.10039 7.06001 9.10039 7.08001 9.12039 7.08001L11.7804 7.94001V11.8L10.1604 12.74L8.74039 9.80001C8.72039 9.78001 8.72039 9.76001 8.70039 9.74001C8.70039 9.74001 8.70039 9.74001 8.68039 9.72001C8.66039 9.70001 8.64039 9.68001 8.62039 9.68001L7.04039 8.76001L6.68039 5.92001C6.66039 5.80001 6.60039 5.72001 6.48039 5.66001C6.38039 5.62001 6.26039 5.64001 6.16039 5.70001C6.06039 5.76001 6.02039 5.88001 6.04039 6.00001L6.34039 8.36001L5.00039 7.58001C4.84039 7.50001 4.66039 7.56001 4.58039 7.70001C4.50039 7.84001 4.54039 8.04001 4.68039 8.12001L7.92039 10L6.14039 11.54L4.36039 9.54001C4.24039 9.40001 4.04039 9.40001 3.92039 9.52001C3.80039 9.64001 3.78039 9.84001 3.90039 9.96001L5.42039 11.64H3.72039C3.54039 11.66 3.40039 11.8 3.40039 11.98C3.40039 12.16 3.54039 12.3 3.72039 12.3H6.00039C6.02039 12.3 6.04039 12.3 6.06039 12.3C6.16039 12.32 6.26039 12.3 6.32039 12.22L8.36039 10.44L9.58039 13.06L6.54039 14.82L4.26039 13.74C4.10039 13.68 3.92039 13.74 3.86039 13.9C3.80039 14.06 3.84039 14.24 4.00039 14.32L5.88039 15.22L4.70039 15.9C4.54039 15.98 4.50039 16.18 4.58039 16.34C4.66039 16.5 4.86039 16.54 5.02039 16.46L6.72039 15.48L8.20039 14.62L8.52039 16.94L5.96039 17.38C5.80039 17.42 5.68039 17.58 5.72039 17.74C5.74039 17.9 5.90039 18.02 6.06039 18L8.24039 17.6L7.38039 19.06C7.30039 19.22 7.34039 19.4 7.50039 19.5C7.66039 19.58 7.84039 19.54 7.94039 19.38L9.14039 17.34V17.32L9.16039 17.3C9.16039 17.28 9.16039 17.28 9.18039 17.26V17.24C9.18039 17.22 9.18039 17.22 9.18039 17.2V17.18C9.18039 17.16 9.18039 17.14 9.18039 17.12L8.80039 14.24L12.1004 12.34L13.4604 13.14L11.6604 15.94C11.6604 15.94 11.6604 15.94 11.6604 15.96V15.98C11.6604 16 11.6404 16 11.6404 16.02C11.6404 16.04 11.6404 16.06 11.6204 16.08C11.6204 16.08 11.6204 16.08 11.6204 16.1C11.6204 16.12 11.6204 16.12 11.6204 16.14L11.6604 17.98L9.44039 19.76C9.30039 19.86 9.28039 20.06 9.40039 20.2C9.50039 20.34 9.70039 20.36 9.84039 20.24L11.6804 18.76L11.7204 20.32C11.7404 20.48 11.8804 20.62 12.0404 20.62C12.2004 20.62 12.3404 20.48 12.3404 20.3L12.2204 16.56L14.4604 17.28L13.7004 19.84C13.6604 19.96 13.6804 20.08 13.7604 20.16C13.8404 20.24 13.9604 20.28 14.0604 20.26C14.1604 20.24 14.2604 20.14 14.2804 20.02L14.9204 17.84L15.8004 19.28C15.8604 19.38 15.9604 19.44 16.0804 19.44C16.2004 19.44 16.3004 19.38 16.3404 19.28C16.4004 19.18 16.3804 19.06 16.3404 18.96L15.2004 17C15.1804 16.98 15.1804 16.96 15.1604 16.94C15.1204 16.84 15.0604 16.78 14.9604 16.74L12.4004 15.92L14.0004 13.44L17.2804 15.36L17.4804 18.02C17.5004 18.18 17.6404 18.3 17.8204 18.3C18.0004 18.3 18.1204 18.14 18.1204 17.98L17.9604 15.76L19.1404 16.44C19.2404 16.5 19.3604 16.5 19.4604 16.44C19.5604 16.38 19.6204 16.28 19.6204 16.16C19.6204 16.04 19.5604 15.94 19.4604 15.88L17.7604 14.9L16.3204 14.06L18.1204 12.56L19.8404 14.52C19.9604 14.66 20.1604 14.66 20.2804 14.54C20.4204 14.42 20.4204 14.22 20.3004 14.1L18.8004 12.44L20.4804 12.4C20.6604 12.4 20.8004 12.24 20.8004 12.08C20.8004 11.88 20.6404 11.74 20.4804 11.76Z" fill="#1AEEC2"/>
</svg>
