<svg width="24" height="24" viewBox="0 0 24 24" fill="none" xmlns="http://www.w3.org/2000/svg">
<circle cx="12" cy="12" r="12" fill="#EDF0F4"/>
<path opacity="0.2" d="M7.67809 15.998L8.3465 18L12.9347 12L8.3465 6L7.64551 7.95855L10.6933 11.9989L7.67809 15.998Z" fill="#FF564F"/>
<path d="M17.4581 17.9989H15.2807L10.6914 11.9989L15.2807 6H17.4581L12.9334 11.9989L17.4581 17.9989Z" fill="#F08179"/>
<path d="M6.6001 6H8.34526V17.9989H6.6001V6Z" fill="#FF564F"/>
<path d="M17.4601 17.9989H15.2827L10.6934 11.9989L15.2827 6H17.4601L12.9354 11.9989L17.4601 17.9989Z" fill="#FF564F"/>
<path d="M17.4601 17.9989H15.2827L10.6934 11.9989L15.2827 6H17.4601L12.9354 11.9989L17.4601 17.9989Z" fill="#FF564F"/>
<path d="M17.4601 17.9989H15.2827L10.6934 11.9989L15.2827 6H17.4601L12.9354 11.9989L17.4601 17.9989Z" fill="#FF564F"/>
<path d="M17.4601 17.9989H15.2827L10.6934 11.9989L15.2827 6H17.4601L12.9354 11.9989L17.4601 17.9989Z" fill="#FF564F"/>
</svg>
