<svg width="24" height="24" viewBox="0 0 24 24" fill="none" xmlns="http://www.w3.org/2000/svg">
<circle cx="12" cy="12" r="12" fill="#0093DD"/>
<path fill-rule="evenodd" clip-rule="evenodd" d="M10.213 12L14.1008 15.9823L16.5681 13.5027C17.0167 13.0519 17.6896 13.0519 18.0635 13.5027C18.5121 13.9536 18.5121 14.705 18.0635 15.1558L14.8485 18.4619C14.3999 18.9127 13.727 18.9127 13.2784 18.4619L8.64289 13.653V16.5083C8.64289 17.1094 8.11953 17.6353 7.5214 17.6353C6.92327 17.6353 6.3999 17.1094 6.3999 16.5083V7.49169C6.3999 6.89059 6.92327 6.36462 7.5214 6.36462C8.11953 6.36462 8.64289 6.89059 8.64289 7.49169V10.3469L13.2784 5.5381C13.727 5.08727 14.3999 5.08727 14.8485 5.5381L18.0635 8.84418C18.5121 9.29501 18.5121 10.0464 18.0635 10.4972C17.6149 10.948 16.942 10.948 16.5681 10.4972L14.1008 7.94252L10.213 12ZM14.1012 10.8729C14.6993 10.8729 15.2227 11.3989 15.2227 12C15.2227 12.6011 14.6993 13.1271 14.1012 13.1271C13.503 13.1271 12.9797 12.6011 12.9797 12C12.9797 11.3989 13.503 10.8729 14.1012 10.8729Z" fill="white"/>
</svg>
