<svg width="24" height="24" viewBox="0 0 24 24" fill="none" xmlns="http://www.w3.org/2000/svg">
<path d="M12 24C18.6276 24 24 18.6276 24 12C24 5.3724 18.6276 0 12 0C5.3724 0 0 5.3724 0 12C0 18.6276 5.3724 24 12 24Z" fill="white"/>
<path fill-rule="evenodd" clip-rule="evenodd" d="M0 12C0 5.39077 5.39077 0 12 0C18.6092 0 24 5.39077 24 12C24 18.6092 18.6092 24 12 24C5.39077 24 0 18.6092 0 12ZM16.2828 9.30462H17.0212L17.0951 7.2H12.2212V9.30462H12.9597L11.4458 11.0769H10.8181V9.30462H11.6674V7.2H10.5228V8.01231H9.89507V7.2H8.75045V8.01231H8.12276V7.2H6.94122V9.34154H7.97507V12.0369V14.6954H6.94122V16.8369H11.6305V14.6954H10.7812V12.9231H11.4089L12.9228 14.6215H12.1843V16.7631H17.0212V14.6215H16.2828L13.9935 11.9631L16.2828 9.30462Z" fill="black"/>
</svg>
