<svg width="24" height="24" viewBox="0 0 24 24" fill="none" xmlns="http://www.w3.org/2000/svg">
<circle cx="12" cy="12" r="12" fill="#EDF0F4"/>
<path d="M11.9997 4.40001L18.7997 8.17779V15.7333L11.9997 19.5111L5.19971 15.7333V8.17779L11.9997 4.40001Z" fill="#303642"/>
<path d="M14.0015 8.22609C14.3203 8.22609 14.5788 7.96655 14.5788 7.64638C14.5788 7.32622 14.3203 7.06667 14.0015 7.06667V8.22609Z" fill="white"/>
<path d="M12.2309 13.8106V7.76232H11.0762V13.8106H12.2309Z" fill="white"/>
<path d="M11.7686 8.22609H14.001V7.06667H11.7686V8.22609Z" fill="white"/>
<path d="M12.2309 7.76232C12.2309 8.01846 12.0241 8.22609 11.769 8.22609V7.06667C11.3864 7.06667 11.0762 7.37813 11.0762 7.76232H12.2309Z" fill="white"/>
<path fill-rule="evenodd" clip-rule="evenodd" d="M13.2308 10.0039H11.6528V8.84446H13.2308V10.0039ZM13.2309 10.0039C13.5497 10.0038 13.8081 9.74428 13.8081 9.42417C13.8081 9.10406 13.5497 8.84453 13.2309 8.84446V10.0039Z" fill="white"/>
<path fill-rule="evenodd" clip-rule="evenodd" d="M9.88281 14.9507C9.88281 13.9902 10.6583 13.2116 11.6149 13.2116C12.5715 13.2116 13.3469 13.9902 13.3469 14.9507C13.3469 15.9112 12.5715 16.6899 11.6149 16.6899C10.6583 16.6899 9.88281 15.9112 9.88281 14.9507ZM12.1921 14.9507C12.1921 14.6306 11.9336 14.371 11.6148 14.371C11.2959 14.371 11.0374 14.6306 11.0374 14.9507C11.0374 15.2709 11.2959 15.5305 11.6148 15.5305C11.9336 15.5305 12.1921 15.2709 12.1921 14.9507Z" fill="white"/>
</svg>
