<svg width="24" height="24" viewBox="0 0 24 24" fill="none" xmlns="http://www.w3.org/2000/svg">
<circle cx="12" cy="12" r="12" fill="#E7EFF3"/>
<path fill-rule="evenodd" clip-rule="evenodd" d="M8.54242 9.81815H9.57602V8.78479C9.57602 8.41807 9.27874 8.12079 8.91202 8.12079H8.54242C8.36628 8.12066 8.19731 8.19058 8.07276 8.31513C7.94821 8.43968 7.87829 8.60865 7.87842 8.78479V9.15415C7.87842 9.52087 8.1757 9.81815 8.54242 9.81815ZM14.4239 9.81815H15.4574C15.824 9.81815 16.1212 9.52101 16.1214 9.15439V8.78479C16.1214 8.41807 15.8241 8.12079 15.4574 8.12079H15.0879C14.7211 8.12079 14.4239 8.41807 14.4239 8.78479V9.81815ZM8.9122 16.1212H8.54268C8.36658 16.1212 8.19769 16.0513 8.07316 15.9267C7.94864 15.8022 7.87868 15.6333 7.87868 15.4572V15.088C7.87868 14.9119 7.94864 14.743 8.07316 14.6185C8.19769 14.494 8.36658 14.424 8.54268 14.424H9.5762V15.4572C9.5762 15.8239 9.27892 16.1212 8.9122 16.1212ZM15.0879 16.1212H15.4574L15.4571 16.1216C15.8238 16.1216 16.1211 15.8243 16.1211 15.4576V15.088C16.1211 14.7213 15.8238 14.424 15.4571 14.424H14.4239V15.4572C14.4239 15.8239 14.7211 16.1212 15.0879 16.1212Z" fill="#005FFF"/>
<path fill-rule="evenodd" clip-rule="evenodd" d="M11.9362 8.12127H12.3058L12.3057 8.12167C12.6724 8.12167 12.9697 7.82439 12.9697 7.45767V7.08807C12.9697 6.72136 12.6724 6.42407 12.3057 6.42407H11.9362C11.5695 6.42407 11.2722 6.72136 11.2722 7.08807V7.45727C11.2722 7.82399 11.5695 8.12127 11.9362 8.12127ZM11.9362 17.8182H12.3057C12.6724 17.8182 12.9697 17.5209 12.9697 17.1542V16.7846C12.9697 16.4179 12.6724 16.1206 12.3057 16.1206H11.9362C11.5695 16.1206 11.2722 16.4179 11.2722 16.7846V17.1542C11.2722 17.5209 11.5695 17.8182 11.9362 17.8182ZM17.1543 12.9697H16.7848C16.4181 12.9697 16.1208 12.6724 16.1208 12.3057V11.936C16.1208 11.5693 16.4181 11.272 16.7848 11.272H17.1543C17.521 11.272 17.8183 11.5693 17.8183 11.936V12.3056C17.8183 12.6723 17.521 12.9696 17.1543 12.9696V12.9697ZM7.08783 12.9697H7.45735V12.9696C7.82406 12.9696 8.12135 12.6723 8.12135 12.3056V11.936C8.12135 11.7599 8.05139 11.591 7.92687 11.4665C7.80234 11.342 7.63345 11.272 7.45735 11.272H7.08783C6.72111 11.272 6.42383 11.5693 6.42383 11.936V12.3057C6.42383 12.6724 6.72111 12.9697 7.08783 12.9697Z" fill="#00CCEE"/>
<path fill-rule="evenodd" clip-rule="evenodd" d="M9.14801 5.49158C8.9007 5.59406 8.78329 5.87762 8.88577 6.12493C8.98832 6.37218 9.27182 6.48956 9.51913 6.38717C9.76644 6.28469 9.88385 6.00113 9.78137 5.75382C9.67888 5.50651 9.39532 5.3891 9.14801 5.49158ZM14.2382 17.8553C13.9909 17.9578 13.8735 18.2414 13.976 18.4887C14.0785 18.7359 14.362 18.8533 14.6094 18.7509C14.8567 18.6484 14.9741 18.3649 14.8716 18.1176C14.7691 17.8703 14.4855 17.7528 14.2382 17.8553ZM18.2461 10.0241C17.9988 10.1266 17.7152 10.0092 17.6127 9.76185C17.5103 9.51454 17.6277 9.23098 17.875 9.1285C18.1223 9.02602 18.4058 9.14342 18.5083 9.39073C18.6107 9.63804 18.4933 9.92154 18.2461 10.0241ZM5.49164 14.8524C5.59412 15.0997 5.87768 15.2171 6.12499 15.1146C6.37224 15.0121 6.48962 14.7286 6.38723 14.4812C6.28475 14.2339 6.00119 14.1165 5.75388 14.219C5.50657 14.3215 5.38916 14.6051 5.49164 14.8524Z" fill="#005FFF"/>
<path fill-rule="evenodd" clip-rule="evenodd" d="M14.8721 6.12497C14.7697 6.37228 14.4861 6.48971 14.2388 6.38725C13.9915 6.28479 13.8741 6.00125 13.9765 5.75393C14.0789 5.50662 14.3625 5.38917 14.6098 5.49161C14.7286 5.54079 14.823 5.63516 14.8722 5.75395C14.9214 5.87273 14.9214 6.0062 14.8721 6.12497ZM5.49162 9.39073C5.38917 9.63804 5.50659 9.92159 5.7539 10.0241C5.87267 10.0733 6.00614 10.0733 6.12493 10.0241C6.24371 9.97491 6.33808 9.88053 6.38726 9.76173C6.4897 9.51441 6.37226 9.23088 6.12494 9.12843C5.87762 9.02598 5.59408 9.14342 5.49162 9.39073ZM17.6127 14.4813C17.5103 14.7286 17.6277 15.0122 17.875 15.1146C17.9938 15.1638 18.1272 15.1639 18.246 15.1147C18.3648 15.0655 18.4592 14.9711 18.5084 14.8523C18.6108 14.605 18.4934 14.3214 18.246 14.219C17.9987 14.1165 17.7152 14.234 17.6127 14.4813ZM9.14788 18.751C9.39519 18.8535 9.67874 18.736 9.7812 18.4887C9.83044 18.3699 9.83046 18.2365 9.78126 18.1177C9.73206 17.9989 9.63768 17.9045 9.51888 17.8554C9.27156 17.7529 8.98802 17.8704 8.88558 18.1177C8.78313 18.365 8.90056 18.6485 9.14788 18.751Z" fill="#002DAE"/>
<path fill-rule="evenodd" clip-rule="evenodd" d="M17.5043 6.83806C17.435 6.90739 17.3308 6.92813 17.2402 6.89061C17.1496 6.85309 17.0905 6.76471 17.0905 6.66666C17.0905 6.56862 17.1496 6.48023 17.2402 6.44271C17.3308 6.40519 17.435 6.42593 17.5043 6.49526C17.5498 6.54071 17.5754 6.60237 17.5754 6.66666C17.5754 6.73096 17.5498 6.79261 17.5043 6.83806ZM6.2001 6.5739C6.16258 6.66448 6.18332 6.76874 6.25265 6.83807C6.2981 6.88355 6.35975 6.9091 6.42405 6.9091C6.48834 6.9091 6.55 6.88355 6.59545 6.83807C6.66477 6.76874 6.68551 6.66448 6.648 6.5739C6.61048 6.48332 6.52209 6.42426 6.42405 6.42426C6.32601 6.42426 6.23762 6.48332 6.2001 6.5739ZM17.109 17.483C17.0715 17.5736 17.0922 17.6778 17.1615 17.7471C17.207 17.7926 17.2686 17.8182 17.3329 17.8182C17.3972 17.8182 17.4589 17.7926 17.5043 17.7471C17.5737 17.6778 17.5944 17.5736 17.5569 17.483C17.5194 17.3924 17.431 17.3333 17.3329 17.3333C17.2349 17.3333 17.1465 17.3924 17.109 17.483ZM6.33129 17.7997C6.42187 17.8372 6.52613 17.8165 6.59545 17.7471C6.64093 17.7017 6.66648 17.64 6.66648 17.5757C6.66648 17.5114 6.64093 17.4498 6.59545 17.4043C6.52613 17.335 6.42187 17.3143 6.33129 17.3518C6.24071 17.3893 6.18165 17.4777 6.18165 17.5757C6.18165 17.6738 6.24071 17.7622 6.33129 17.7997Z" fill="#0099C0"/>
<path d="M19.7575 12.2424C19.6237 12.2424 19.5151 12.1339 19.5151 12C19.5151 11.8662 19.6237 11.7576 19.7575 11.7576C19.8914 11.7576 19.9999 11.8662 19.9999 12C19.9999 12.1339 19.8914 12.2424 19.7575 12.2424Z" fill="#0029C0"/>
<mask id="mask0_300_12662" style="mask-type:alpha" maskUnits="userSpaceOnUse" x="4" y="11" width="1" height="2">
<path fill-rule="evenodd" clip-rule="evenodd" d="M4 12.2424V11.7576H4.48488V12.2424H4Z" fill="white"/>
</mask>
<g mask="url(#mask0_300_12662)">
<path d="M4.2424 12.2424C4.10853 12.2424 4 12.1339 4 12C4 11.8662 4.10853 11.7576 4.2424 11.7576C4.37627 11.7576 4.4848 11.8662 4.4848 12C4.48476 12.1339 4.37626 12.2424 4.2424 12.2424Z" fill="#0029C0"/>
</g>
<path d="M12.2421 4.2424C12.2421 4.37627 12.1336 4.4848 11.9997 4.4848C11.8658 4.4848 11.7573 4.37627 11.7573 4.2424C11.7573 4.10853 11.8658 4 11.9997 4C12.1336 4.00004 12.2421 4.10854 12.2421 4.2424Z" fill="#0029C0"/>
<mask id="mask1_300_12662" style="mask-type:alpha" maskUnits="userSpaceOnUse" x="11" y="19" width="2" height="1">
<path fill-rule="evenodd" clip-rule="evenodd" d="M12.2421 20.0001H11.7573V19.5152H12.2421V20.0001Z" fill="white"/>
</mask>
<g mask="url(#mask1_300_12662)">
<path d="M12.2421 19.7577C12.2421 19.8916 12.1336 20.0001 11.9997 20.0001C11.8658 20.0001 11.7573 19.8916 11.7573 19.7577C11.7573 19.6238 11.8658 19.5153 11.9997 19.5153C12.1336 19.5154 12.2421 19.6239 12.2421 19.7577Z" fill="#0029C0"/>
</g>
<path d="M13.6179 11.1919H13.9799C14.2253 11.1918 14.4242 10.9927 14.4242 10.7473V9.57593H13.2529C13.0074 9.57593 12.8083 9.77489 12.8082 10.0204V10.3839C12.8082 10.8302 12.4464 11.1919 12.0002 11.1919C11.5539 11.1919 11.1922 10.8302 11.1922 10.3839V10.0043C11.192 9.76768 11.0001 9.57593 10.7635 9.57593H9.57617V14.4239H10.7546C10.9962 14.4238 11.1921 14.228 11.1922 13.9863V13.6159C11.1922 13.1697 11.5539 12.8079 12.0002 12.8079V12.8095C12.4464 12.8095 12.8082 13.1713 12.8082 13.6175V13.9829C12.8082 14.2265 13.0057 14.424 13.2493 14.424H14.4242V13.2491C14.4242 13.1321 14.3777 13.0199 14.295 12.9372C14.2122 12.8545 14.1 12.808 13.9831 12.808H13.6162C13.1699 12.808 12.8082 12.4463 12.8082 12H12.8098C12.8098 11.5538 13.1715 11.192 13.6178 11.192" fill="#003EC5"/>
</svg>
