<svg width="25" height="24" viewBox="0 0 25 24" fill="none" xmlns="http://www.w3.org/2000/svg">
<path d="M24.6334 14.9029C23.0307 21.3315 16.5196 25.2438 10.0902 23.6407C3.66345 22.0381 -0.248891 15.5265 1.3545 9.09837C2.95648 2.66903 9.46765 -1.24361 15.8951 0.359081C22.324 1.96177 26.2361 8.47405 24.6332 14.903L24.6333 14.9029H24.6334Z" fill="#4F473B"/>
<path d="M13.4199 11.9646L18.2636 16.7728C20.8091 14.0727 20.8091 9.85641 18.2636 7.15636" fill="white"/>
<path d="M13.0657 12.2828L8.29297 17.0202L13.0657 19L17.8385 17.0202" fill="white"/>
<path d="M12.8894 11.7881L17.8393 6.87352L13.2778 5L8.75244 15.925L12.8894 11.7881Z" fill="white"/>
<path d="M5.99513 11.9646C5.99159 13.753 6.67493 15.4741 7.90409 16.7728L12.6414 5.35301" fill="white"/>
</svg>
