<svg width="24" height="24" viewBox="0 0 24 24" fill="none" xmlns="http://www.w3.org/2000/svg">
<circle cx="12" cy="12" r="12" fill="#EDF0F4"/>
<path d="M4.00001 11.9876C3.99255 16.4041 7.56673 19.9903 11.9832 19.9978C16.3996 20.0052 19.9858 16.4311 19.9933 12.0146V11.9541C19.993 11.339 19.9205 10.7261 19.7772 10.1279C19.6557 9.68138 19.2024 9.41131 18.752 9.51701C18.3015 9.62272 18.0156 10.0662 18.1055 10.5201C18.7699 13.2583 17.5328 16.1043 15.0774 17.4863C12.622 18.8684 9.5471 18.4493 7.55104 16.4607C5.55498 14.472 5.12451 11.3988 6.49738 8.93825C7.87026 6.47773 10.7117 5.23002 13.4523 5.88424C13.9126 5.99165 14.373 5.70657 14.4821 5.24667C14.5359 5.02675 14.4993 4.79445 14.3805 4.60173C14.2617 4.40901 14.0706 4.27193 13.8499 4.22116C11.7891 3.7259 9.61586 4.07011 7.80892 5.17799C6.00198 6.28587 4.7095 8.06655 4.21614 10.1279C4.07317 10.7375 4.00065 11.3615 4.00001 11.9876Z" fill="url(#paint0_linear_300_12466)"/>
<path d="M16.0576 6.10248C16.0435 6.11653 16.037 6.13057 16.0295 6.13706C15.8326 6.34604 15.7116 6.61509 15.6858 6.90106V7.0383C15.6858 7.07288 15.6793 7.0999 15.6793 7.13448C15.6201 7.74459 15.3203 8.30598 14.8462 8.69452C14.3721 9.08306 13.7627 9.26674 13.1528 9.20496C13.051 9.19607 12.9499 9.18018 12.8503 9.15741C12.7916 9.14522 12.7338 9.12897 12.6774 9.10879C12.4324 9.04697 12.18 9.01933 11.9274 9.02666C11.1908 9.04106 10.485 9.32477 9.94337 9.82416C9.91636 9.85118 9.88178 9.87279 9.85368 9.90629C9.0464 10.6521 8.712 11.7799 8.98226 12.8452C9.25252 13.9105 10.0841 14.7426 11.1493 15.0134C12.2145 15.2842 13.3424 14.9503 14.0887 14.1434C14.2125 14.0183 14.3253 13.8828 14.4258 13.7382C14.9146 13.0351 15.0801 12.1568 14.8808 11.3241C14.8637 11.2698 14.8496 11.2146 14.8386 11.1587C14.8386 11.1512 14.8321 11.1447 14.8321 11.1306C14.6932 10.533 14.7981 9.9046 15.1236 9.38445C15.449 8.86429 15.9683 8.49522 16.5665 8.35883C16.6729 8.33275 16.7814 8.31683 16.8907 8.31128L16.9383 8.30372C16.9864 8.29832 17.0347 8.29615 17.0831 8.29723H17.0971C17.3959 8.26859 17.6754 8.13721 17.8882 7.9255C17.9368 7.87039 17.9854 7.81744 18.0265 7.76016C18.2254 7.48167 18.3045 7.13516 18.2462 6.79794C18.188 6.46072 17.9971 6.16085 17.7163 5.96524C17.2031 5.60329 16.5043 5.66111 16.0576 6.10248Z" fill="url(#paint1_linear_300_12466)"/>
<defs>
<linearGradient id="paint0_linear_300_12466" x1="12.0912" y1="0.172548" x2="0.201053" y2="11.894" gradientUnits="userSpaceOnUse">
<stop offset="0.09" stop-color="#00EDD3"/>
<stop offset="0.41" stop-color="#1B456E"/>
</linearGradient>
<linearGradient id="paint1_linear_300_12466" x1="13.742" y1="1.79814" x2="5.41857" y2="10.2245" gradientUnits="userSpaceOnUse">
<stop offset="0.4" stop-color="#00EDD3"/>
<stop offset="0.89" stop-color="#1B456E"/>
</linearGradient>
</defs>
</svg>
