<svg width="24" height="24" viewBox="0 0 24 24" fill="none" xmlns="http://www.w3.org/2000/svg">
<circle cx="12" cy="12" r="12" fill="#EDF0F4"/>
<path d="M11.2002 11.9043L16.2002 14.7683C16.282 14.8174 16.384 14.8186 16.4669 14.7713C16.5499 14.7241 16.6008 14.6357 16.6002 14.5403V9.26425C16.6014 9.1686 16.5504 9.07989 16.4671 9.03284C16.3838 8.98578 16.2815 8.98786 16.2002 9.03825L11.2002 11.9043Z" fill="#31CB9E"/>
<path d="M16.094 7.77025L12.676 5.25625C12.6041 5.20107 12.5095 5.18531 12.4236 5.2142C12.3378 5.24309 12.2719 5.31285 12.248 5.40025L11 11.0002L16.064 8.20025C16.1424 8.15993 16.194 8.08161 16.2001 7.9937C16.2062 7.90578 16.166 7.82105 16.094 7.77025Z" fill="#31CB9E"/>
<path d="M12.672 18.5503L16.094 16.0363C16.167 15.985 16.208 15.8994 16.2023 15.8104C16.1966 15.7214 16.1449 15.6418 16.066 15.6003L11 12.8003L12.248 18.4003C12.269 18.4886 12.3331 18.5605 12.4185 18.5915C12.5039 18.6226 12.5992 18.6085 12.672 18.5543" fill="#31CB9E"/>
<path d="M9.89979 11.8003L11.1998 5.72025C11.2201 5.61719 11.1759 5.5121 11.088 5.45454C11.0001 5.39699 10.8862 5.39845 10.7998 5.45825L7.46979 8.01225C7.29886 8.14338 7.19899 8.34682 7.19979 8.56225V15.0423C7.19647 15.2605 7.2966 15.4674 7.46979 15.6003L10.7838 18.1463C10.8702 18.2061 10.9841 18.2075 11.072 18.15C11.1599 18.0924 11.2041 17.9873 11.1838 17.8843L9.89979 11.8003Z" fill="#31CB9E"/>
</svg>
