<svg width="24" height="24" viewBox="0 0 24 24" fill="none" xmlns="http://www.w3.org/2000/svg">
<circle cx="12" cy="12" r="12" fill="#EDF0F4"/>
<path d="M5.0213 12.3009H5.01067H5V11.648C5.0073 11.648 5.01461 11.648 5.02187 11.648C5.04628 11.6697 5.05975 11.7012 5.05857 11.7339C5.06509 11.8943 5.06509 12.0548 5.05857 12.2154C5.05975 12.2481 5.04606 12.2795 5.0213 12.3009Z" fill="#FEF5F6"/>
<path d="M10.7027 9.5775C10.9854 9.67986 11.2794 9.74197 11.5688 9.81953C13.0807 10.2246 14.5929 10.6285 16.1054 11.0312C17.0337 11.2787 17.9623 11.5252 18.8912 11.7704C18.9713 11.7915 19.0022 11.8261 18.9966 11.9113C18.9879 12.0437 18.9949 12.1771 18.9905 12.3099C18.9876 12.3976 18.9576 12.4347 18.8543 12.4037C18.5901 12.3244 18.3212 12.261 18.0549 12.1886C17.9906 12.1711 17.9616 12.1798 17.9832 12.2528C17.9866 12.2643 17.9873 12.2766 17.9905 12.2881C18.0497 12.5008 18.0107 12.4609 18.216 12.4683C18.4401 12.4763 18.6642 12.4886 18.8884 12.4931C18.962 12.4946 18.978 12.5274 18.9708 12.5901C18.9533 12.7415 18.9378 12.893 18.9189 13.0442C18.9116 13.1024 18.8807 13.1193 18.8175 13.1103C18.635 13.0843 18.4488 13.1103 18.266 13.0774C18.1916 13.0643 18.1794 13.0956 18.1971 13.1649C18.2358 13.3164 18.2678 13.4698 18.2996 13.6231C18.3127 13.6865 18.348 13.7043 18.4097 13.7052C18.5095 13.7065 18.6092 13.7203 18.7091 13.7241C18.7643 13.7262 18.7778 13.7423 18.76 13.7973C18.7094 13.9538 18.6642 14.1123 18.6164 14.2697C18.6084 14.296 18.603 14.3331 18.5675 14.3288C18.4423 14.3137 18.4817 14.3925 18.4944 14.4544C18.5017 14.4894 18.5216 14.5238 18.5075 14.5601C18.3954 14.8625 18.2565 15.1542 18.0926 15.432C18.0301 15.1699 17.9725 14.9352 17.9182 14.6997C17.761 14.0192 17.6045 13.3385 17.4487 12.6577C17.4046 12.466 17.3534 12.2758 17.3158 12.0829C17.3081 12.018 17.2569 11.9668 17.192 11.9589C17.0367 11.9202 16.8809 11.8823 16.728 11.835C16.6294 11.8044 16.6279 11.8393 16.647 11.9198C16.7532 12.369 16.8559 12.8191 16.96 13.2688C17.1763 14.2034 17.3931 15.1379 17.6104 16.0722C17.6262 16.1183 17.6184 16.1692 17.5896 16.2084C17.4661 16.3668 17.3446 16.5267 17.2073 16.6737C17.1449 16.7404 17.1278 16.7254 17.1088 16.6426C16.9455 15.9306 16.778 15.2195 16.613 14.5078C16.4562 13.8313 16.3002 13.1546 16.145 12.4778C16.0854 12.2197 16.0225 11.9623 15.9672 11.7035C15.9626 11.6553 15.9263 11.6162 15.8786 11.608C15.7118 11.5656 15.5445 11.5245 15.3793 11.4763C15.2865 11.4493 15.2807 11.4763 15.3006 11.56C15.431 12.1067 15.557 12.6543 15.684 13.2018C15.9497 14.3475 16.215 15.4933 16.4801 16.6392C16.4861 16.6748 16.49 16.7107 16.4917 16.7467C16.4797 16.7632 16.4593 16.7714 16.4392 16.7677C16.2257 16.7113 16.0062 16.6738 15.8097 16.5639C15.7845 16.5186 15.7688 16.4688 15.7633 16.4174C15.7254 16.2393 15.7225 16.2374 15.5414 16.2826C15.4414 16.3076 15.342 16.3351 15.241 16.3556C15.0415 16.3238 14.8716 16.2138 14.6873 16.1421C14.5919 16.1018 14.4992 16.0555 14.4097 16.0036C14.3703 15.9822 14.3162 15.97 14.3196 15.9066C14.3554 15.8612 14.4101 15.8579 14.4596 15.8451C14.7702 15.7649 15.084 15.6981 15.3943 15.6164C15.4256 15.6094 15.4565 15.6008 15.4869 15.5905C15.5175 15.579 15.5488 15.5661 15.5444 15.5245C15.5421 15.491 15.5165 15.4637 15.4832 15.4592C15.4249 15.4442 15.3651 15.4355 15.305 15.4333C15.0883 15.4367 14.873 15.4117 14.657 15.4058C14.5528 15.4053 14.4488 15.3992 14.3453 15.3875C14.139 15.3594 13.9385 15.3967 13.7405 15.455C13.6796 15.4754 13.6167 15.489 13.5528 15.4956C13.4963 15.4937 13.4418 15.4742 13.397 15.4398C13.0744 15.2288 12.7551 15.0131 12.4521 14.7738C12.4163 14.7479 12.384 14.7175 12.3559 14.6834C12.3308 14.6501 12.3492 14.633 12.3804 14.6211C12.629 14.5885 12.8764 14.6317 13.1234 14.6424C13.3426 14.6518 13.5635 14.6656 13.7826 14.6746C14.1907 14.6913 14.5978 14.7301 15.0065 14.7308C15.0908 14.7308 15.1731 14.7538 15.2578 14.753C15.3353 14.7524 15.369 14.7229 15.349 14.6415C15.3212 14.5282 15.2908 14.4156 15.2677 14.3012C15.2596 14.2385 15.2032 14.1936 15.1403 14.1997C14.8003 14.188 14.4605 14.1676 14.1209 14.1479C13.7172 14.1244 13.3129 14.1183 12.9097 14.0844C12.7146 14.068 12.5178 14.064 12.322 14.0582C12.1016 14.0515 11.8826 14.0249 11.6624 14.0246C11.6341 14.0237 11.6069 14.0137 11.5848 13.996C11.386 13.8099 11.1839 13.6267 11.0179 13.4088C10.9926 13.3755 10.9711 13.3372 11.033 13.3151C11.2618 13.296 11.4899 13.3242 11.717 13.337C11.9207 13.3485 12.1257 13.3606 12.3291 13.3696C12.7457 13.388 13.1622 13.4078 13.5787 13.4289C13.975 13.4486 14.3722 13.4548 14.7676 13.4935C14.8397 13.499 14.9121 13.4993 14.9842 13.4945C15.0458 13.4918 15.0704 13.4608 15.0589 13.3999C15.0357 13.2772 15.0061 13.1558 14.9702 13.0362C14.9476 12.96 14.8848 12.9448 14.8177 12.9443C14.6611 12.9436 14.5051 12.9248 14.3492 12.9215C13.7637 12.9092 13.1797 12.8661 12.5952 12.8399C12.0428 12.8151 11.4898 12.7925 10.9381 12.7516C10.7732 12.7394 10.7639 12.7472 10.7442 12.9086C10.7461 12.9452 10.7318 12.9808 10.7053 13.0061C10.646 12.9849 10.6492 12.931 10.6492 12.8851C10.6492 12.0969 10.6385 11.3088 10.6536 10.521C10.6699 10.4341 10.7617 10.4252 10.8096 10.3704C10.8264 10.3512 10.8654 10.3442 10.8533 10.3092C10.8451 10.2853 10.8148 10.2861 10.793 10.2783C10.7444 10.2608 10.6768 10.2783 10.6585 10.2043C10.6498 9.99782 10.6312 9.7914 10.6688 9.5859C10.6727 9.57501 10.6847 9.56932 10.6956 9.57322C10.6982 9.57414 10.7007 9.57562 10.7027 9.5775Z" fill="#ABACAC"/>
<path d="M10.9994 13.3452C11.1894 13.5761 11.3961 13.7928 11.6179 13.9935C11.7433 14.0469 11.8185 14.1617 11.9162 14.2477C12.0643 14.3784 12.2323 14.4883 12.3545 14.6477C12.7177 14.9564 13.1079 15.2318 13.5204 15.4706C13.6567 15.5083 13.7654 15.5987 13.8869 15.665C14.0017 15.7277 14.1149 15.7935 14.233 15.8502C14.2712 15.8623 14.3034 15.8888 14.3227 15.924C14.6161 16.0844 14.9214 16.2221 15.2358 16.3358C15.4395 16.3822 15.6397 16.4378 15.8186 16.5515C16.0378 16.6329 16.2628 16.6982 16.4916 16.7468C16.6519 16.813 16.8254 16.8289 17.0152 16.8855C16.919 16.9777 16.8327 17.0635 16.743 17.1456C16.4684 17.3973 16.4679 17.3968 16.1181 17.296C11.9424 16.0934 8.80391 12.7376 7.87426 8.4792C7.74785 7.87644 7.66518 7.26528 7.62699 6.65057C7.61439 6.57096 7.65057 6.49153 7.71885 6.4487C7.88423 6.33003 8.04477 6.20458 8.23216 6.08932C8.23504 7.2903 8.44439 8.48187 8.85106 9.61189V9.49029C8.85106 8.27772 8.85032 7.06511 8.84887 5.85255C8.84865 5.76366 8.87127 5.71301 8.95442 5.6785C9.12007 5.60978 9.28218 5.53249 9.44586 5.45865C9.46581 5.50244 9.47215 5.55121 9.4641 5.59863C9.46476 7.40337 9.46502 9.20816 9.46498 11.0129C9.46082 11.0488 9.46441 11.0852 9.47552 11.1195C9.64672 11.4676 9.84894 11.7995 10.0798 12.1112V11.9859C10.0798 9.78634 10.079 7.58678 10.0774 5.38722C10.0774 5.28246 10.0967 5.23146 10.2098 5.20981C10.37 5.17919 10.5271 5.13041 10.6891 5.10574C10.7292 5.15294 10.72 5.21072 10.7227 5.26571C10.7338 5.48442 10.7107 5.70221 10.6997 5.9203C10.7272 6.165 10.7409 6.40947 10.6891 6.65302C10.6889 6.87287 10.6887 7.09272 10.6886 7.31256C10.7063 7.3392 10.7163 7.37021 10.7173 7.40219C10.7203 7.59688 10.7203 7.79162 10.7173 7.98632C10.7142 8.02603 10.7043 8.06492 10.6883 8.10136L10.6893 8.7853C10.7062 8.81251 10.7159 8.84361 10.7173 8.87563C10.7203 9.07103 10.7203 9.26638 10.7173 9.46177C10.7145 9.50166 10.7046 9.54073 10.6882 9.57721L10.6965 10.2363C10.7346 10.3106 10.7341 10.3989 10.6951 10.4728C10.6931 11.2981 10.6911 12.1233 10.6894 12.9486C10.6915 12.9641 10.6956 12.9792 10.7017 12.9936C10.8258 13.0872 10.9275 13.2073 10.9994 13.3452Z" fill="#EE1D55"/>
<path d="M5.02153 12.3009L5.02209 11.6478C5.00517 11.341 5.18722 11.1162 5.33704 10.878C5.37304 10.8206 5.40702 10.7618 5.44162 10.7037C5.48974 10.5518 5.59345 10.4331 5.68505 10.3092C5.73942 10.2444 5.7535 10.1549 5.72161 10.0766C5.6927 9.99107 5.64537 9.90734 5.66869 9.81067C5.66195 9.76706 5.65119 9.7242 5.63662 9.68255C5.5204 9.42527 5.56786 9.18735 5.70442 8.95207C5.79856 8.78978 5.8709 8.6149 5.98875 8.43657C6.42105 10.7436 7.36058 12.795 8.82838 14.596C10.2979 16.3991 12.1173 17.7311 14.283 18.6198C13.9851 18.7242 13.6805 18.8081 13.3711 18.8708C13.331 18.875 13.2906 18.865 13.2571 18.8424C13.0908 18.7634 12.9245 18.684 12.7585 18.604C12.6342 18.5817 12.5344 18.5059 12.4273 18.4477C12.108 18.2741 11.8023 18.0777 11.4958 17.8827C11.2807 17.7278 11.0569 17.5853 10.8476 17.4218C10.8011 17.3772 10.7383 17.3508 10.7046 17.2927C10.7006 17.2867 10.6967 17.2736 10.6937 17.2736C10.6831 17.2736 10.6868 17.2771 10.6943 17.2858C10.7064 17.3018 10.714 17.3208 10.7161 17.3407C10.7216 17.7553 10.7213 18.1696 10.7154 18.5836C10.7125 18.6791 10.7028 18.7743 10.6864 18.8684C10.4987 18.8511 10.32 18.792 10.1375 18.7503C10.0619 18.7328 10.0803 18.6744 10.0802 18.6253C10.0796 18.0455 10.078 17.4657 10.0818 16.8859C10.0863 16.8104 10.053 16.7375 9.99292 16.6914C9.82009 16.5427 9.654 16.3862 9.48319 16.2309C9.4503 16.2719 9.4657 16.3132 9.4657 16.3507C9.46451 17.0312 9.46421 17.7116 9.46478 18.3921C9.46478 18.5246 9.46377 18.5261 9.33793 18.4713C9.20582 18.4139 9.07644 18.3499 8.94333 18.295C8.86853 18.2641 8.84915 18.217 8.84946 18.1378C8.85257 17.3205 8.85047 16.5031 8.85283 15.6858C8.8562 15.6143 8.83048 15.5444 8.78149 15.4921C8.60586 15.2956 8.43671 15.0932 8.24867 14.8739C8.24565 14.9376 8.24202 14.9793 8.24197 15.0209C8.24167 15.9389 8.24075 16.857 8.23931 17.775C8.23931 17.8022 8.28777 17.8705 8.19884 17.8637C8.1904 17.804 8.18843 17.7435 8.19294 17.6833C8.19268 16.8065 8.19101 15.9298 8.1946 15.0531C8.1995 14.9282 8.1562 14.8061 8.0737 14.7122C7.91312 14.5167 7.76379 14.3123 7.62644 14.0998C7.57307 13.9924 7.51105 13.8896 7.44106 13.7922C7.43857 13.7892 7.43669 13.7856 7.43415 13.7826C7.40182 13.7461 7.39426 13.6702 7.3363 13.679C7.29103 13.6859 7.28705 13.754 7.26832 13.7971C7.1825 13.9852 7.09839 14.1738 7.02009 14.3652C6.94135 14.5749 6.85894 14.7832 6.79088 14.9967C6.76228 15.0846 6.72999 15.1711 6.70707 15.2608C6.62584 15.5358 6.55328 15.8131 6.4864 16.0919C6.47686 16.1318 6.4811 16.183 6.42555 16.1976C6.25618 15.9983 6.12448 15.7733 5.98621 15.5527C5.95454 15.5022 5.9744 15.4608 5.98665 15.4157C6.20815 14.5981 6.51955 13.8075 6.91515 13.0585C6.95518 12.9987 6.95557 12.9208 6.9162 12.8605C6.817 12.6865 6.72934 12.5059 6.63704 12.3279C6.61075 12.2912 6.59295 12.2491 6.5849 12.2047C6.57353 12.2513 6.63184 12.2813 6.61552 12.3278C6.18641 13.0743 5.83512 13.8628 5.56712 14.6811C5.4907 14.5638 5.45999 14.4433 5.41861 14.3288C5.2174 13.772 5.21985 13.7719 5.46362 13.2309C5.69441 12.7135 5.95939 12.2121 6.25684 11.7299C6.29966 11.6718 6.30579 11.5945 6.27267 11.5304C6.19074 11.3437 6.1177 11.1531 6.03314 10.9445C5.66764 11.4887 5.34154 12.0585 5.05744 12.6494L5.02153 12.3009Z" fill="#EE1D55"/>
<path d="M7.04149 7.05634C7.50345 12.2205 11.0492 16.4323 15.8185 17.8515C15.7529 17.9287 15.6645 17.9665 15.585 18.0141C15.1235 18.29 15.1202 18.2959 14.6227 18.0902C10.6885 16.4634 8.10359 13.6063 6.86801 9.51882C6.70149 8.94296 6.57919 8.3552 6.50207 7.76071C6.49061 7.72182 6.4973 7.67987 6.52022 7.64646C6.68338 7.44061 6.85739 7.24364 7.04149 7.05634Z" fill="#EE1D55"/>
<path d="M17.2709 7.37338C17.3853 7.52739 17.3855 7.5277 17.2342 7.64537C17.1551 7.7066 17.0752 7.7671 16.9957 7.8279C16.9219 7.83066 16.9694 7.87313 16.972 7.90082C17.0124 8.06839 17.0573 8.23505 17.0917 8.40385C17.1121 8.50397 17.1377 8.51386 17.2167 8.4458C17.3686 8.31483 17.5316 8.19704 17.6843 8.06695C17.7455 8.01468 17.7764 8.02623 17.8138 8.0879C17.8866 8.20815 17.961 8.32743 18.0387 8.44453C18.0822 8.51014 18.081 8.55388 18.0102 8.60231C17.9111 8.66997 17.8194 8.74893 17.7263 8.82513C17.7068 8.84109 17.6718 8.85496 17.6848 8.88969C17.6943 8.91515 17.7244 8.91156 17.7473 8.91782C17.9211 8.96475 18.0938 9.01641 18.2688 9.05831C18.3369 9.06921 18.3932 9.11723 18.4147 9.18276C18.4778 9.35213 18.5459 9.51957 18.611 9.68824C18.6207 9.71357 18.6443 9.74287 18.6262 9.76785C18.6012 9.80249 18.5675 9.7738 18.5387 9.7661C17.73 9.55181 16.9213 9.33717 16.1127 9.12222C15.1301 8.86047 14.1477 8.59815 13.1654 8.33526C13.0958 8.31667 13.0262 8.29817 12.9565 8.27975C12.9524 8.24857 12.9768 8.23772 12.9974 8.22871C13.3057 8.08812 13.6254 7.974 13.953 7.88752C14.0222 7.89894 14.0768 7.95396 14.1472 7.95208C14.121 7.92269 14.0185 7.96783 14.0573 7.86512C14.1695 7.80257 14.2848 7.75223 14.4178 7.76657C14.4722 7.79986 14.4785 7.85891 14.49 7.9125C14.4999 7.9862 14.5578 8.04429 14.6314 8.05448C14.7873 8.08615 14.9364 8.14608 15.1047 8.17377C15.096 8.04014 15.0555 7.92006 15.0293 7.79759C15.0171 7.74072 14.9845 7.68351 15.0202 7.62336C15.2185 7.54323 15.4307 7.5029 15.6446 7.50474C15.7055 7.62402 15.7139 7.75783 15.7459 7.88498C15.7772 8.00943 15.8104 8.13383 15.8323 8.26051C15.8413 8.33876 15.9006 8.40179 15.9781 8.41557C16.1062 8.44777 16.2351 8.47681 16.362 8.51377C16.4383 8.53591 16.4578 8.50769 16.4398 8.43639C16.369 8.15609 16.3069 7.87374 16.243 7.59187C16.2285 7.52796 16.1624 7.50539 16.1525 7.4442C16.1708 7.4225 16.1978 7.40995 16.2262 7.40977C16.5389 7.38698 16.8524 7.3767 17.1653 7.35689C17.201 7.35842 17.2365 7.36397 17.2709 7.37338Z" fill="#ABACAC"/>
<path d="M12.1045 8.68387C12.7228 8.85009 13.3413 9.01631 13.9597 9.18253C15.5489 9.60796 17.1384 10.0325 18.728 10.4562C18.8047 10.4765 18.8425 10.5054 18.8549 10.588C18.8777 10.7385 18.9062 10.8882 18.9307 11.0386C18.9466 11.1363 18.934 11.1515 18.8394 11.1253C18.4846 11.0267 18.1279 10.935 17.7721 10.84C15.6568 10.275 13.5415 9.70979 11.4262 9.14443C11.3991 9.13721 11.3717 9.13131 11.3445 9.12479C11.3367 9.08783 11.3675 9.07693 11.3891 9.06211C11.5936 8.92108 11.8141 8.80722 12.03 8.68593C12.0521 8.67337 12.079 8.65325 12.1045 8.68387Z" fill="#ABACAC"/>
<path d="M12.1044 8.68387C11.8424 8.81545 11.5885 8.96272 11.3443 9.12488L10.7407 9.52551C10.7086 9.53045 10.6972 9.51155 10.6979 9.48443C10.7038 9.25527 10.6823 9.02562 10.7093 8.79681C12.1438 7.82071 13.7786 7.17806 15.4938 6.91591C15.8703 6.85717 16.2498 6.82292 16.6299 6.7965C16.6819 6.79387 16.7323 6.81522 16.7665 6.85441C16.944 7.01814 17.108 7.1949 17.2704 7.37332C17.1454 7.42144 17.0134 7.40044 16.8849 7.40805C16.6437 7.4224 16.4019 7.42712 16.1619 7.45831C16.1073 7.52274 16.0277 7.50551 15.9595 7.5129C15.854 7.52432 15.7477 7.56924 15.6402 7.52244C15.4329 7.5482 15.2273 7.58656 15.0246 7.63721C14.8329 7.72015 14.6283 7.76897 14.4198 7.78156C14.2959 7.80221 14.1745 7.83537 14.0573 7.88059C14.034 7.9078 13.9968 7.91856 13.9625 7.90806C13.619 8.00924 13.2826 8.13347 12.9558 8.27987C12.6629 8.39443 12.3784 8.52946 12.1044 8.68387Z" fill="#EE1D55"/>
<path d="M10.7563 7.31815C11.4374 6.9107 12.1573 6.57205 12.9053 6.30715C13.6104 6.05349 14.3362 5.86208 15.0747 5.73514C15.1133 5.72481 15.1544 5.72831 15.1908 5.74507C15.4674 5.88666 15.7336 6.04763 15.9875 6.22675C15.7508 6.26139 15.5318 6.29114 15.3134 6.32578C13.7256 6.57668 12.2035 7.14104 10.8359 7.98596C10.802 8.00682 10.7666 8.02533 10.7318 8.04488C10.6793 8.0402 10.6986 7.99856 10.6984 7.97218C10.6966 7.78794 10.6994 7.60361 10.6961 7.41941C10.6886 7.37545 10.7141 7.3325 10.7563 7.31815Z" fill="#EE1D55"/>
<path d="M10.7333 5.92175C11.3946 5.56849 12.0858 5.27429 12.7989 5.04258C12.921 5.00243 13.0435 5.05518 13.1641 5.07421C13.4868 5.12443 13.8047 5.20137 14.1146 5.30425C13.7106 5.40643 13.3291 5.51312 12.9535 5.6401C12.2087 5.89144 11.4872 6.20721 10.7973 6.58383C10.7693 6.59909 10.7396 6.61104 10.7108 6.62455C10.6816 6.40584 10.7034 6.18626 10.6995 5.96711C10.7007 5.9466 10.714 5.92879 10.7333 5.92175Z" fill="#EE1D55"/>
<path d="M11.5056 17.8606C11.9168 18.1195 12.3356 18.3649 12.7584 18.6038C12.7491 18.7012 12.7399 18.7987 12.7306 18.8961C12.7065 18.9286 12.7029 18.9746 12.6408 18.9752C12.4891 18.9768 12.3375 18.9884 12.1859 18.9978C12.1148 19.0021 12.0752 18.9982 12.0974 18.9012C12.1331 18.7455 12.1464 18.5848 12.1723 18.4268C12.183 18.3611 12.1664 18.3349 12.0973 18.3524C11.9347 18.3939 11.7718 18.4344 11.6086 18.4738C11.5597 18.4795 11.5234 18.5219 11.5255 18.5711C11.5172 18.6787 11.4926 18.7849 11.4805 18.8923C11.4737 18.9528 11.4471 18.9797 11.3875 18.9733C11.2289 18.9558 11.0702 18.9388 10.9118 18.9197C10.8759 18.9153 10.8524 18.895 10.8659 18.8528C10.8674 18.8491 10.8685 18.8452 10.8692 18.8413C10.887 18.6526 10.887 18.6526 10.7137 18.6838C10.6783 18.5263 10.7064 18.3666 10.6981 18.2081C10.6958 18.1643 10.6976 18.12 10.6978 18.0761C10.7018 18.0474 10.724 18.0247 10.7525 18.0199C10.9802 17.9501 11.2122 17.8953 11.447 17.856C11.4667 17.853 11.4867 17.8546 11.5056 17.8606Z" fill="#ABACAC"/>
<path d="M10.6875 5.91278C10.6879 5.64382 10.6884 5.3748 10.6889 5.10584C11.0713 5.02609 11.4617 4.99119 11.8521 5.0019C11.6202 5.15557 11.3883 5.30923 11.1563 5.4629C11.0528 5.53136 10.9526 5.60585 10.8442 5.66525C10.7427 5.72089 10.6846 5.79131 10.7015 5.91108C10.6986 5.92652 10.6938 5.92634 10.6875 5.91278Z" fill="#ABABAC"/>
<path d="M5.66856 9.81061C5.79703 10.0687 5.79396 10.3074 5.57377 10.5211C5.5243 10.5778 5.48003 10.6389 5.44145 10.7036L5.1084 10.9072C5.14492 10.6302 5.20336 10.3565 5.2831 10.0887C5.29859 10.0362 5.34872 10.0201 5.38708 9.99371C5.47929 9.93033 5.57456 9.87137 5.66856 9.81061Z" fill="#ABACAC"/>
<path d="M10.756 7.31818C10.7387 7.34766 10.7071 7.3663 10.7078 7.40908C10.7106 7.60745 10.7092 7.8059 10.7108 8.00431C10.7108 8.01792 10.7243 8.03139 10.7315 8.04491L10.688 8.10147C10.688 7.83858 10.6881 7.57565 10.6883 7.31271C10.7095 7.33074 10.733 7.32172 10.756 7.31818Z" fill="#EF4464"/>
<path d="M10.7094 8.79679C10.7094 8.99971 10.7084 9.20263 10.7094 9.40555C10.7096 9.44728 10.6948 9.49496 10.7407 9.52549L10.7027 9.57741L10.6954 9.57601L10.688 9.57728C10.6884 9.31334 10.6887 9.04945 10.6891 8.78555C10.697 8.78656 10.7043 8.79058 10.7094 8.79679Z" fill="#EF4263"/>
<path d="M10.6875 5.9128C10.6921 5.91468 10.6974 5.91407 10.7015 5.91118L10.7332 5.92181C10.6854 6.02097 10.7141 6.12643 10.7103 6.22883C10.7054 6.36058 10.7101 6.49264 10.7106 6.62456L10.6891 6.65313C10.6885 6.40647 10.688 6.15972 10.6875 5.9128Z" fill="#EF4263"/>
<path d="M16.972 7.9008C16.931 7.86528 16.9564 7.81432 16.9385 7.7708C16.9859 7.76599 16.9647 7.82215 16.9957 7.82766L16.972 7.9008Z" fill="#B1B2B2"/>
<path d="M7.62679 14.0661C7.77818 14.2663 7.92008 14.4747 8.08415 14.6637C8.20151 14.799 8.22986 14.9409 8.2285 15.1128C8.22194 15.9847 8.22579 16.8565 8.22461 17.7284C8.22461 17.7739 8.24407 17.8261 8.19788 17.8635C8.01491 17.7514 7.83951 17.6274 7.67276 17.4924C7.63471 17.4633 7.61502 17.4161 7.62115 17.3686C7.62141 17.217 7.6187 17.0654 7.61712 16.9137C7.59455 16.8805 7.58432 16.8405 7.58821 16.8005C7.58624 16.6098 7.58685 16.4191 7.58768 16.2284C7.5893 16.1846 7.59936 16.1415 7.6173 16.1015C7.61708 15.8414 7.61682 15.5813 7.6166 15.3212C7.59263 15.2835 7.58243 15.2387 7.58768 15.1943C7.58768 14.9325 7.58331 14.6706 7.58965 14.4088C7.59875 14.2943 7.5558 14.1742 7.62679 14.0661Z" fill="#ED1A47"/>
<path d="M7.61713 14.4057C7.61713 14.711 7.61713 15.0163 7.61713 15.3215C7.26606 15.5998 6.91612 15.8795 6.56212 16.154C6.528 16.1803 6.49607 16.2677 6.42529 16.1972C6.50923 15.882 6.57091 15.5607 6.68048 15.2524C6.77733 15.1585 6.87002 15.0591 6.99945 15.0081C7.04997 14.9959 7.10211 14.992 7.15386 14.9966C7.09572 14.9916 7.03715 14.9961 6.98042 15.0097C6.90584 15.0189 6.83004 15.0381 6.76517 14.9794C6.83082 14.7694 6.90777 14.5632 6.99573 14.3616C7.20342 14.3263 7.41653 14.3415 7.61713 14.4057Z" fill="#ABACAC"/>
<path d="M7.6178 16.1018C7.6178 16.3726 7.6178 16.6432 7.6178 16.9139C7.48137 16.9257 7.3525 16.9722 7.22032 17.0031C7.17518 17.0216 7.12334 17.0099 7.09045 16.9739C6.96312 16.8347 6.83456 16.6967 6.70473 16.5598C6.65933 16.5117 6.67971 16.4942 6.73338 16.4835C6.79602 16.471 6.85713 16.4485 6.9202 16.4406C7.18384 16.4081 7.42918 16.2889 7.6178 16.1018Z" fill="#ABACAC"/>
<path d="M10.7122 18.0558C10.7125 18.2652 10.7128 18.4746 10.7131 18.6841C10.6897 18.7434 10.7301 18.8122 10.686 18.8684C10.6875 18.3402 10.6889 17.8121 10.6904 17.2841C10.6944 17.2712 10.7006 17.2693 10.7094 17.2803L10.8531 17.3953C10.7575 17.4558 10.7421 17.5452 10.7417 17.6525C10.7408 17.7867 10.7749 17.9255 10.7122 18.0558Z" fill="#C1A0A4"/>
<path d="M6.61513 12.3273C6.60109 12.2869 6.56583 12.2543 6.57139 12.1886C6.60761 12.2267 6.63062 12.2753 6.637 12.3275L6.62615 12.3264L6.61513 12.3273Z" fill="#EF3C60"/>
<path d="M10.9994 13.3452C10.8905 13.2365 10.7909 13.119 10.7017 12.9938C10.703 12.9697 10.7054 12.9457 10.7056 12.9215C10.7076 12.7069 10.7076 12.7041 10.9269 12.7143C11.595 12.7455 12.2631 12.7759 12.9308 12.8128C13.4106 12.8393 13.8903 12.8665 14.3705 12.8866C14.5344 12.8935 14.6985 12.9041 14.8625 12.9081C14.9478 12.9102 15.0003 12.9405 15.0156 13.0363C15.0374 13.1707 15.0712 13.3035 15.1062 13.4353C15.1257 13.5089 15.1125 13.5407 15.0306 13.5363C14.5749 13.5118 14.119 13.4884 13.6631 13.4663C13.4791 13.4572 13.295 13.4519 13.111 13.4416C12.5191 13.4085 11.9265 13.3891 11.3344 13.3596C11.2229 13.3541 11.1119 13.334 10.9994 13.3452Z" fill="white"/>
<path d="M12.3543 14.6478C12.0917 14.4497 11.8454 14.2309 11.6177 13.9935C12.2378 14.0131 12.8573 14.0451 13.4767 14.0845C13.6685 14.0967 13.8606 14.096 14.0528 14.1094C14.4321 14.1357 14.8125 14.1478 15.1927 14.1612C15.2422 14.1546 15.2877 14.1895 15.2942 14.239C15.2946 14.242 15.2948 14.245 15.2949 14.248C15.326 14.3972 15.3639 14.545 15.4006 14.693C15.4192 14.7676 15.3944 14.7955 15.3169 14.7908C14.9255 14.7669 14.5339 14.747 14.1425 14.7232C13.9746 14.713 13.8066 14.714 13.6384 14.7029C13.2108 14.6749 12.7823 14.665 12.3543 14.6478Z" fill="white"/>
<path d="M12.033 11.016C11.7945 11.1782 11.579 11.3703 11.352 11.5473C11.1415 11.7115 10.9337 11.8791 10.7061 12.06C10.7061 11.7976 10.7063 11.5581 10.7061 11.3185C10.7061 11.2716 10.7374 11.2472 10.7691 11.2223C11.0583 10.9934 11.3482 10.7655 11.6354 10.5341C11.6654 10.5013 11.7129 10.4914 11.7535 10.5093C11.7689 10.5137 11.7846 10.5169 11.8005 10.519C12.122 10.6028 12.1219 10.6029 12.0614 10.9322C12.0587 10.9522 12.057 10.9722 12.0565 10.9923C12.0523 11.0031 12.0438 11.0117 12.033 11.016Z" fill="white"/>
<path d="M12.9308 12.2029C12.811 12.1955 12.6913 12.1855 12.5714 12.1817C12.5127 12.1799 12.4995 12.1648 12.5093 12.103C12.5667 11.7427 12.6137 11.3807 12.6734 11.0208C12.7164 10.7621 12.7241 10.7588 12.9763 10.8343C13.0828 10.8662 13.2278 10.8538 13.2863 10.9393C13.3411 11.0193 13.2717 11.1459 13.2583 11.2518C13.2233 11.5302 13.1696 11.8064 13.1383 12.0851C13.1209 12.2399 13.0199 12.2 12.9308 12.2029Z" fill="white"/>
<path d="M14.3223 15.9238C14.0423 15.7961 13.7739 15.6444 13.52 15.4704C13.633 15.4442 13.7481 15.4248 13.8586 15.3905C14.0437 15.333 14.2288 15.3468 14.4175 15.362C14.661 15.3817 14.9058 15.3843 15.1499 15.3958C15.2532 15.4081 15.3571 15.4139 15.4611 15.4133C15.5664 15.4051 15.5792 15.4689 15.5937 15.541C15.613 15.6375 15.5263 15.6185 15.4835 15.6294C15.1151 15.7233 14.7452 15.8112 14.3759 15.9015C14.3575 15.9075 14.3396 15.915 14.3223 15.9238Z" fill="white"/>
<path d="M14.4925 11.3169C14.4456 11.6141 14.3973 11.9111 14.3526 12.2087C14.3434 12.2699 14.3095 12.282 14.2607 12.2711C14.1299 12.2495 13.997 12.2434 13.8648 12.2531C13.7627 12.255 13.728 12.2221 13.7448 12.1211C13.783 11.8916 13.8169 11.6613 13.8521 11.4313C13.8654 11.344 13.8791 11.2568 13.8896 11.1692C13.8968 11.108 13.9202 11.0844 13.985 11.103C14.1313 11.1449 14.2791 11.1812 14.4262 11.2198C14.4685 11.2241 14.4993 11.2618 14.4949 11.3041C14.4945 11.3084 14.4937 11.3127 14.4925 11.3169Z" fill="white"/>
<path d="M15.8181 16.5516C15.6188 16.4941 15.424 16.422 15.2354 16.3359C15.3758 16.2787 15.5262 16.2589 15.6715 16.2194C15.7062 16.2049 15.7461 16.2212 15.7606 16.256C15.7641 16.2641 15.7659 16.2728 15.7659 16.2816C15.7819 16.3718 15.8006 16.4616 15.8181 16.5516Z" fill="#FDFCFC"/>
<path d="M11.9009 11.9014C11.9235 12.1494 11.9097 12.1607 11.6328 12.1226C11.7148 12.0404 11.8046 11.9663 11.9009 11.9014Z" fill="#F6F6F5"/>
<path d="M10.6948 10.473C10.6953 10.3942 10.6957 10.3154 10.6962 10.2365C10.7736 10.242 10.8822 10.237 10.9054 10.3032C10.9261 10.362 10.8107 10.3902 10.7655 10.4426C10.7469 10.4635 10.7267 10.4829 10.6948 10.473Z" fill="#FBF1F0"/>
<path d="M12.0333 11.016L12.0566 10.9922C12.0548 11.1228 12.0346 11.2525 11.9966 11.3774C11.9814 11.2543 12.0144 11.1357 12.0333 11.016Z" fill="#B0B1B1"/>
<path d="M12.186 12.1495C12.1283 12.1923 12.0672 12.1739 11.9854 12.1819C12.0598 12.1021 12.1258 12.1446 12.186 12.1495Z" fill="#B0B1B1"/>
<path d="M14.8621 12.4296C14.8483 12.2992 14.7606 12.2835 14.6543 12.2965C14.8489 12.2578 14.8762 12.2758 14.8621 12.4296Z" fill="#B2B3B3"/>
<path d="M14.7244 11.7898C14.68 11.7076 14.6581 11.615 14.6609 11.5216C14.7027 11.6048 14.7244 11.6967 14.7244 11.7898Z" fill="#B1B2B2"/>
<path d="M11.1252 12.1039C11.0731 12.1365 11.0078 12.1398 10.9526 12.1126C11.0166 12.0627 11.0717 12.0902 11.1252 12.1039Z" fill="#B0B1B1"/>
<path d="M16.0195 11.6569C16.0991 11.6499 16.1789 11.6673 16.2484 11.7066C16.1777 11.7155 16.1135 11.6953 16.0195 11.6569Z" fill="#B1B2B2"/>
<path d="M15.193 11.4265C15.1052 11.4273 15.0184 11.4066 14.9404 11.3662C15.0288 11.3594 15.1172 11.3805 15.193 11.4265Z" fill="#B1B2B2"/>
<path d="M18.3906 13.9433L18.4457 14.1569C18.3836 14.0983 18.3887 14.0211 18.3906 13.9433Z" fill="#B1B2B2"/>
<path d="M13.5223 15.3184H13.3627L13.3623 15.3063H13.522L13.5223 15.3184Z" fill="#B5B6B6"/>
<path d="M13.7666 15.3401H13.625L13.6252 15.3289H13.7668L13.7666 15.3401Z" fill="#B3B4B4"/>
<path d="M13.3628 12.2163C13.4127 12.2004 13.4663 12.2001 13.5164 12.2156C13.4665 12.2319 13.4128 12.2321 13.3628 12.2163Z" fill="#B4B4B5"/>
<path d="M12.4377 12.1754H12.3021L12.3018 12.1633H12.4396L12.4377 12.1754Z" fill="#B5B6B6"/>
<path d="M11.3772 12.1264H11.2407C11.2833 12.1035 11.3346 12.1035 11.3772 12.1264Z" fill="#B5B6B6"/>
<path d="M10.8494 12.0921C10.8121 12.1101 10.7691 12.1124 10.73 12.0986C10.7725 12.0682 10.8126 12.0921 10.8494 12.0921Z" fill="#B5B6B7"/>
<path d="M10.1875 12.3228C10.2524 12.3428 10.259 12.4045 10.2916 12.4476C10.227 12.4274 10.2202 12.3658 10.1875 12.3228Z" fill="#EE365D"/>
<path d="M9.13855 10.3839L9.19586 10.5043C9.14857 10.4849 9.12373 10.4328 9.13855 10.3839Z" fill="#EE375E"/>
<path d="M9.35376 10.8885C9.32205 10.8585 9.30411 10.8168 9.3042 10.7732C9.34182 10.7987 9.36115 10.8437 9.35376 10.8885Z" fill="#EE365E"/>
<path d="M10.5797 12.8341C10.5364 12.8234 10.5026 12.7895 10.4922 12.7461C10.5335 12.7601 10.5659 12.7927 10.5797 12.8341Z" fill="#EE355D"/>
<path d="M10.4118 12.6145C10.3741 12.6149 10.3593 12.5939 10.353 12.5601C10.3945 12.5607 10.3994 12.5907 10.4118 12.6145Z" fill="#EF385E"/>
<path d="M9.00091 10.0945C8.97288 10.0414 8.94269 10.0173 8.96032 9.97501C8.99838 10.0012 8.99733 10.0394 9.00091 10.0945Z" fill="#EF395E"/>
<path d="M8.99658 10.0583C9.02471 10.1117 9.05519 10.1357 9.03744 10.178C8.9989 10.1519 9.00052 10.1136 8.99658 10.0583Z" fill="#EE375D"/>
<path d="M10.7124 18.0558C10.7107 17.8724 10.7114 17.689 10.7061 17.5057C10.7029 17.3928 10.7874 17.4095 10.8531 17.3953L11.5054 17.8607L10.7124 18.0558Z" fill="#FFFDFD"/>
<path d="M7.45579 13.7742C7.38782 13.7731 7.31988 13.7718 7.25195 13.7705C7.27645 13.7167 7.3009 13.663 7.33069 13.5975C7.38458 13.6468 7.42727 13.707 7.45579 13.7742Z" fill="#B4A9AA"/>
<path d="M9.44652 16.1712L9.1657 15.8886L9.15625 15.8978L9.42509 16.1923L9.44652 16.1712Z" fill="#EE355C"/>
<path d="M5.9396 10.7109L5.86523 10.4933L5.88903 10.4845L5.96602 10.6989L5.9396 10.7109Z" fill="#EE375E"/>
<path d="M10.1255 16.8102C10.1716 16.8146 10.1904 16.8474 10.2309 16.8933C10.1838 16.8857 10.1439 16.8543 10.1255 16.8102Z" fill="#EE365D"/>
<path d="M10.3717 17.0148C10.4263 17.0174 10.4508 17.0567 10.493 17.1135C10.4409 17.0982 10.3972 17.0627 10.3716 17.0149L10.3717 17.0148Z" fill="#EE345C"/>
<path d="M6.39738 11.8172C6.34052 11.7932 6.3504 11.7375 6.33789 11.6925C6.38058 11.7231 6.38601 11.7716 6.39747 11.8171L6.39738 11.8172Z" fill="#EE365E"/>
<path d="M10.3715 17.0149C10.332 17.0131 10.2975 16.9873 10.2847 16.9498C10.3239 16.9526 10.3578 16.9779 10.3716 17.0148L10.3715 17.0149Z" fill="#EE375E"/>
<path d="M10.7094 17.2802C10.7036 17.2832 10.697 17.2845 10.6904 17.284C10.6648 17.2682 10.6333 17.2577 10.6304 17.2174C10.6756 17.2175 10.6903 17.2516 10.7094 17.2802Z" fill="#EF395E"/>
<path d="M6.39705 11.8172C6.42995 11.84 6.44561 11.8806 6.43664 11.9196C6.40598 11.8951 6.39084 11.856 6.39696 11.8172L6.39705 11.8172Z" fill="#EF385E"/>
<path d="M15.6406 7.52247L16.1622 7.45834C16.2094 7.45055 16.2539 7.4824 16.2618 7.52955C16.2621 7.53135 16.2623 7.53314 16.2625 7.53493C16.3351 7.85464 16.4124 8.1733 16.4865 8.49288C16.4996 8.54948 16.4932 8.5878 16.4146 8.56474C16.2501 8.51663 16.0834 8.47582 15.918 8.43063C15.8759 8.41913 15.8305 8.40797 15.8201 8.35461C15.7665 8.07576 15.6791 7.80443 15.6406 7.52247Z" fill="white"/>
<path d="M14.4199 7.78143C14.6166 7.71455 14.819 7.66622 15.0247 7.63708C15.0634 7.80409 15.1011 7.97136 15.1412 8.13802C15.1567 8.20219 15.1472 8.2276 15.0735 8.20599C14.917 8.16015 14.76 8.11497 14.6009 8.08002C14.5189 8.06199 14.4749 8.02753 14.4644 7.94205C14.4537 7.88746 14.4389 7.83375 14.4199 7.78143Z" fill="#FFFEFE"/>
<path d="M13.9624 7.90796C13.9941 7.89921 14.0197 7.86859 14.0573 7.88049C14.0672 7.95375 14.1546 7.90577 14.1809 7.96727C14.1036 7.97129 14.0271 7.95052 13.9624 7.90796Z" fill="#B1B2B1"/>
<path d="M16.7793 8.67229C16.8471 8.65537 16.9187 8.67404 16.9696 8.72185L16.7793 8.67229Z" fill="#B1B1B1"/>
<path d="M16.9061 7.59839C16.9392 7.62402 16.9535 7.6672 16.9421 7.70753C16.8975 7.68727 16.8993 7.6514 16.9061 7.59839Z" fill="#B1B2B2"/>
<path d="M16.8758 7.49213C16.9011 7.50744 16.9129 7.52607 16.9025 7.54899C16.9019 7.55022 16.886 7.54785 16.8853 7.54505C16.8806 7.52765 16.8785 7.5098 16.8758 7.49213Z" fill="#B1B2B2"/>
<path d="M11.3097 18.5467C11.252 18.6041 11.1698 18.5784 11.1016 18.6074C11.1616 18.5587 11.2345 18.553 11.3097 18.5467Z" fill="#B1B2B2"/>
<path d="M6.99561 15.0311C6.99626 15.0157 6.99696 15.0004 6.99762 14.9851H7.16213C7.1089 15.0131 7.04687 15.0001 6.99561 15.0311Z" fill="#B6B6B7"/>
<path d="M7.45754 15.0184C7.39442 15.0358 7.32798 15.0373 7.26416 15.0227C7.32728 15.0054 7.39372 15.0038 7.45754 15.0184Z" fill="#B2B4B3"/>
</svg>
