<svg width="24" height="24" viewBox="0 0 24 24" fill="none" xmlns="http://www.w3.org/2000/svg">
<circle cx="12" cy="12" r="12" fill="#00AEEF"/>
<path d="M11.8741 10.9296C12.0518 10.8988 12.2086 10.8321 12.346 10.7308C12.4834 10.6296 12.6133 10.4586 12.735 10.2246L15.4417 4.98436C15.5477 4.80887 15.6776 4.66937 15.8269 4.55987C15.9804 4.45326 16.1631 4.39742 16.3496 4.40012H18.0662L14.6957 10.5636C14.5464 10.8171 14.3769 11.0233 14.188 11.1831C13.9993 11.3407 13.7841 11.4634 13.5526 11.5453C13.914 11.6391 14.2164 11.7913 14.4635 12.0051C14.7069 12.2151 14.9391 12.5121 15.1549 12.8938L18.4 19.4H16.5109C16.1293 19.4 15.8225 19.1938 15.591 18.785L12.9314 13.2718C12.794 13.0258 12.6446 12.8511 12.4834 12.7453C12.3228 12.6403 12.1182 12.5781 11.8748 12.5623V15.3598H10.3897V12.5503H9.29808V19.4H7.19995V4.40012H9.29808V10.9536H10.3897V7.7121H11.8748V10.9296H11.8741Z" fill="white"/>
</svg>
