<svg width="24" height="24" viewBox="0 0 24 24" fill="none" xmlns="http://www.w3.org/2000/svg">
<circle cx="12" cy="12" r="12" fill="black"/>
<path d="M18.868 7.81495C18.6337 7.63017 18.3542 7.37777 17.8449 7.31467C17.3672 7.25157 16.8804 7.57157 16.5514 7.7834C16.2224 7.99524 15.6004 8.61721 15.3435 8.8065C15.0866 8.9958 14.4286 9.17157 13.3695 9.80706C12.3103 10.4426 8.15482 13.1107 8.15482 13.1107L9.23651 13.1242L4.41398 15.6076H4.89623L4.20215 16.1349C4.20215 16.1349 4.81511 16.2972 5.32891 15.9727V16.1214C5.32891 16.1214 11.0709 13.8589 12.1796 14.4448L11.5035 14.6431C11.5621 14.6431 12.6528 14.7152 12.6528 14.7152C12.7064 15.1725 12.9608 15.5822 13.3469 15.833C14.005 16.2656 14.0185 16.5045 14.0185 16.5045C14.0185 16.5045 13.6759 16.6442 13.6759 16.82C13.6759 16.82 14.1807 16.6668 14.6495 16.6803C14.9469 16.6916 15.242 16.7385 15.5283 16.82C15.5283 16.82 15.4923 16.6307 15.0371 16.5045C14.5819 16.3783 14.1311 15.8825 13.9103 15.6121C13.6351 15.2619 13.5649 14.7926 13.7255 14.3772C13.8833 13.9671 14.4331 13.7417 15.5689 13.1558C16.9075 12.4617 17.214 11.9479 17.4033 11.5468C17.5926 11.1457 17.872 10.3479 18.0297 9.97382C18.228 9.49157 18.4714 9.23467 18.6742 9.08143C18.8771 8.92819 19.7785 8.59016 19.7785 8.59016C19.7785 8.59016 19.0889 7.99073 18.868 7.81495Z" fill="white"/>
</svg>
