<svg width="24" height="24" viewBox="0 0 24 24" fill="none" xmlns="http://www.w3.org/2000/svg">
<circle cx="12" cy="12" r="12" fill="#EDF0F4"/>
<path fill-rule="evenodd" clip-rule="evenodd" d="M12.0035 5.8L15.1146 10.6706L12.0035 12.4836L8.89307 10.6706L12.0035 5.8ZM9.84555 10.4399L12.0036 7.06041L14.1624 10.4399L12.0036 11.6985L9.84555 10.4393V10.4399Z" fill="#273852"/>
<path d="M11.9993 13.5542L8.39092 11.4514L8.29222 11.6054C7.86738 12.2704 7.62918 13.0374 7.6026 13.826C7.57601 14.6146 7.76201 15.396 8.1411 16.088C8.5202 16.7801 9.07844 17.3574 9.75733 17.7596C10.4362 18.1618 11.2108 18.374 11.9999 18.374C12.789 18.374 13.5636 18.1618 14.2425 17.7596C14.9213 17.3574 15.4796 16.7801 15.8587 16.088C16.2378 15.396 16.4238 14.6146 16.3972 13.826C16.3706 13.0374 16.1324 12.2704 15.7076 11.6054L15.6089 11.4514L11.9993 13.5548V13.5542Z" fill="#273852"/>
</svg>
