<svg width="24" height="24" viewBox="0 0 24 24" fill="none" xmlns="http://www.w3.org/2000/svg">
<path fill-rule="evenodd" clip-rule="evenodd" d="M12 24C5.4 24 0 18.6001 0 11.9402C0.06 5.34038 5.4 -0.0595036 12.06 0.000495204C18.66 0.060494 24 5.40038 24 12.1202C23.94 18.6601 18.6 24 12 24Z" fill="black"/>
<path d="M8.12031 10.8551H8.12751L8.24993 10.8983L8.36514 10.9415L8.48755 10.9775L8.60276 11.0279L8.72517 11.0711L8.84038 11.1143L8.9628 11.1575L9.07801 11.2007L9.19322 11.2439L9.30843 11.2871L9.43084 11.3303L9.54606 11.3807L9.66847 11.4167L9.78368 11.4599L9.90609 11.5032L10.0213 11.5536L10.1437 11.5968L10.2589 11.6328L10.3741 11.676L10.4966 11.7264L10.619 11.7696V11.5824V11.5536V11.4023V11.2943V11.2151V11.0279V10.8479V10.6607V10.4806V10.2862V10.1062V10.0846H10.4749H10.3381H10.3237H10.1725H10.0573H10.0141H9.86289H9.78368H9.70447H9.54606H9.50285H9.39484H9.24363H9.23642H9.22922H9.08521H8.9556H8.93399H8.77558H8.67477H8.40114H8.12751H8.12031H7.9619L7.84669 10.1422L7.57306 10.2862L7.29223 10.4374L7.0114 10.5743L6.74498 10.7183L6.46415 10.8695L6.18332 11.0063L5.90969 11.1575L5.62886 11.3015L5.35524 11.4383L5.08161 11.5896L4.82958 11.7192L4.80078 15.8452L5.08161 16.0396L5.35524 16.234L5.62886 16.4212L5.90969 16.6229L6.18332 16.8173L6.46415 17.0117L6.58656 17.1053L6.74498 16.9037L7.0114 16.5437L7.04021 16.5077L7.0114 16.4861L6.74498 16.2916L6.46415 16.0972L6.18332 15.9028L5.90969 15.7084L5.62886 15.5068L5.55686 15.4635L5.57846 12.1224L5.62886 12.0936L5.90969 11.9568L6.18332 11.82L6.46415 11.6832L6.74498 11.5464L7.0114 11.4023L7.29223 11.2655L7.57306 11.1359L7.84669 10.9919L8.12031 10.8551Z" fill="url(#paint0_linear_300_8351)"/>
<path d="M12.8872 18.7255L12.6567 18.8191L12.3975 18.9271L12.1383 19.0279L11.8791 19.1359L11.7639 19.1791L11.627 19.1143L11.3678 18.9775L11.1086 18.8551L10.8566 18.7183L10.5973 18.5887L10.3381 18.4662L10.0789 18.3294L9.81966 18.1998L9.56043 18.0702L9.30121 17.9406L9.04198 17.8038L8.79716 17.6814L8.53793 17.5518L8.50913 17.5374V14.1674H8.27871H8.01948H7.76025V17.9982L8.01948 18.1206L8.27871 18.2502L8.53793 18.387L8.79716 18.5095L9.04198 18.6463L9.30121 18.7759L9.56043 18.9055L9.81966 19.0351L10.0789 19.1647L10.3381 19.2943L10.5973 19.4239L10.8566 19.5608L11.1086 19.6832L11.3678 19.82L11.627 19.9424L11.7279 20L11.8791 19.928L12.1383 19.8344L12.3975 19.7264L12.6567 19.6184L12.9088 19.5176L13.168 19.4167L12.9088 18.7687L12.8872 18.7255Z" fill="url(#paint1_linear_300_8351)"/>
<path d="M17.4888 14.045L17.5032 15.6292L17.4384 15.6868L16.9992 15.9892L16.5599 16.306L16.1207 16.6229L15.6814 16.9325L15.2422 17.2421L14.8102 17.559L14.3709 17.8686L14.1117 18.0558L13.9317 17.919L13.4996 17.5806L13.0604 17.2493L12.6211 16.9109L12.1891 16.5797L12.1099 16.5221V14.8155L12.1891 14.7435L12.6211 14.2826L13.0604 13.829L13.4996 13.3681L13.9317 12.9145L14.3565 12.468H13.9317H13.4996H13.0604H12.6211H12.1891H11.7426H11.3034H10.8714H10.4321H9.99287H9.56083H9.12158L9.56083 12.9289L9.99287 13.3825L10.4321 13.8362L10.8714 14.297L11.3034 14.7507L11.3682 14.8155V16.8821L11.7426 17.1773L12.1891 17.5158L12.6211 17.847L13.0604 18.1854L13.4996 18.5167L13.9317 18.8551L14.0901 18.9775L14.3709 18.7759L14.8102 18.4734L15.2422 18.1566L15.6814 17.8398L16.1207 17.5374L16.5599 17.2205L16.9992 16.9037L17.4384 16.6013L17.8777 16.2844L18.2377 16.018L18.3097 14.0738L17.8777 14.0594L17.4888 14.045Z" fill="url(#paint2_linear_300_8351)"/>
<path d="M5.5139 10.3582H5.5643L5.57151 8.24122L5.85233 8.0612L6.20517 7.85238L6.5508 7.64356L6.89644 7.42754L7.24207 7.21872L7.59491 7.0027L7.93334 6.79388L8.28618 6.58505L8.63181 6.36903L8.98465 6.15301H8.99185L9.32308 6.34743L9.67592 6.54185L10.0216 6.74347L10.3672 6.93789L10.7128 7.13231L11.0585 7.32673L11.4041 7.52835L11.7425 7.72277L11.7569 7.69397L12.1026 7.0675L11.7569 6.86588L11.4041 6.67146L11.0585 6.47704L10.7128 6.28262L10.3672 6.081L10.0216 5.88658L9.67592 5.69217L9.32308 5.49055L8.98465 5.29613L8.97024 5.28893L8.63181 5.49055L8.28618 5.70657L7.93334 5.92259L7.59491 6.13861L7.24207 6.34743L6.89644 6.55625L6.5508 6.77227L6.20517 6.98109L5.85233 7.19712L5.5139 7.40594L5.16106 7.61476L4.82983 7.82358L4.81543 10.351H5.16106L5.5139 10.3582Z" fill="url(#paint3_linear_300_8351)"/>
<path d="M19.0512 8.42124L18.8712 8.27723L18.6912 8.13322L18.5112 7.982L18.3312 7.83799L18.1512 7.69397L17.9639 7.54996L17.7839 7.40594L17.6039 7.26193L17.4167 7.11071L17.2799 7.0099L17.2295 7.06751L17.0494 7.29073L16.8694 7.52115L16.819 7.57876L16.8694 7.62916L17.0494 7.78038L17.2295 7.9316L17.4167 8.08281L17.6039 8.23403L17.7839 8.39244L17.9639 8.54366L18.1512 8.69487L18.2376 8.76688L18.2448 12.1728L18.1512 12.2376L17.9639 12.3528L17.7839 12.468L17.6039 12.5833L17.4167 12.6985L17.2295 12.8137L17.0494 12.9289L16.8694 13.0441L16.6894 13.1593L16.5094 13.2745L16.3294 13.3897L16.1422 13.505L15.9621 13.6202L15.7821 13.7354L15.6021 13.8506L15.4149 13.9658L15.2349 14.081L15.4149 14.369L15.6021 14.6571L15.6309 14.7075L15.7821 14.6139L15.9621 14.5059L16.1422 14.3906L16.3294 14.2826L16.5094 14.1602L16.6894 14.0522L16.8694 13.937L17.0494 13.829L17.2295 13.7138L17.4167 13.6058L17.6039 13.4834L17.7839 13.3753L17.9639 13.2601L18.1512 13.1521L18.3312 13.0369L18.5112 12.9289L18.6912 12.8065L18.8712 12.6985L19.0512 12.5833V8.42124Z" fill="url(#paint4_linear_300_8351)"/>
<path d="M13.1106 10.4518V10.6391V10.8263V11.0135V11.2079V11.4023V11.5896V11.7768V11.9208L13.1682 11.8992L13.413 11.8056L13.6578 11.7048L13.8955 11.6112L14.1403 11.5104L14.3851 11.4095L14.6227 11.3159L14.8676 11.2151L15.1124 11.1215L15.35 11.0207L15.5948 10.9271L15.8325 10.8263V10.6391V10.5671V10.0702V6.36904L15.5588 6.19622L15.278 6.0378L14.9972 5.87939L14.7235 5.70657L14.4427 5.54815L14.1619 5.38974L13.8883 5.22412L13.6074 5.05851L13.3338 4.89289L13.053 4.73447L12.7722 4.56886L12.4985 4.40324L12.2249 4.24482L11.9441 4.08641L11.7929 4L11.6632 4.07201L11.3824 4.22322L11.1016 4.36724L10.8352 4.52565L10.5543 4.67687L10.2735 4.82088L9.99268 4.9793L10.2735 5.13771L10.5543 5.29613L10.7271 5.40414L10.8352 5.34653L11.1016 5.20252L11.3824 5.05131L11.6632 4.90729L11.7713 4.84968L11.9441 4.9505L12.2249 5.10891L12.4985 5.26733L12.7722 5.43294L13.053 5.59856L13.3338 5.75698L13.6074 5.92259L13.8883 6.08821L14.1619 6.24662L14.4427 6.40504L14.7235 6.57786L14.9972 6.73627L15.0908 6.78668V10.0702H15.026H14.9972H14.8676H14.7235H14.7091H14.5435H14.4427H14.3851H14.2267H14.1619H14.0683H13.9099H13.8883H13.7515H13.6074H13.593H13.4274H13.3338H13.269H13.1466H13.125" fill="url(#paint5_linear_300_8351)"/>
<path d="M13.1104 11.9208L15.8322 10.8263L13.1104 10.0702" fill="url(#paint6_linear_300_8351)"/>
<path d="M10.6189 11.9208V10.099L8.12744 10.8407L10.6189 11.9136" fill="url(#paint7_linear_300_8351)"/>
<defs>
<linearGradient id="paint0_linear_300_8351" x1="4.80107" y1="10.0868" x2="4.80107" y2="17.1024" gradientUnits="userSpaceOnUse">
<stop stop-color="#F6E93D"/>
<stop offset="0.13" stop-color="#F8E330"/>
<stop offset="0.35" stop-color="#F7C730"/>
<stop offset="0.64" stop-color="#F59C2E"/>
<stop offset="0.98" stop-color="#EB5E2C"/>
<stop offset="1" stop-color="#EB5C2C"/>
</linearGradient>
<linearGradient id="paint1_linear_300_8351" x1="7.763" y1="14.1703" x2="7.763" y2="19.9993" gradientUnits="userSpaceOnUse">
<stop stop-color="#F6E93D"/>
<stop offset="0.13" stop-color="#F8E330"/>
<stop offset="0.35" stop-color="#F7C730"/>
<stop offset="0.64" stop-color="#F59C2E"/>
<stop offset="0.98" stop-color="#EB5E2C"/>
<stop offset="1" stop-color="#EB5C2C"/>
</linearGradient>
<linearGradient id="paint2_linear_300_8351" x1="9.11919" y1="12.4673" x2="9.11919" y2="18.9797" gradientUnits="userSpaceOnUse">
<stop stop-color="#F6E93D"/>
<stop offset="0.13" stop-color="#F8E330"/>
<stop offset="0.35" stop-color="#F7C730"/>
<stop offset="0.64" stop-color="#F59C2E"/>
<stop offset="0.98" stop-color="#EB5E2C"/>
<stop offset="1" stop-color="#EB5C2C"/>
</linearGradient>
<linearGradient id="paint3_linear_300_8351" x1="4.8161" y1="5.29109" x2="4.8161" y2="10.359" gradientUnits="userSpaceOnUse">
<stop stop-color="#F6E93D"/>
<stop offset="0.13" stop-color="#F8E330"/>
<stop offset="0.35" stop-color="#F7C730"/>
<stop offset="0.64" stop-color="#F59C2E"/>
<stop offset="0.98" stop-color="#EB5E2C"/>
<stop offset="1" stop-color="#EB5C2C"/>
</linearGradient>
<linearGradient id="paint4_linear_300_8351" x1="15.2372" y1="7.00846" x2="15.2372" y2="14.7082" gradientUnits="userSpaceOnUse">
<stop stop-color="#F6E93D"/>
<stop offset="0.13" stop-color="#F8E330"/>
<stop offset="0.35" stop-color="#F7C730"/>
<stop offset="0.64" stop-color="#F59C2E"/>
<stop offset="0.98" stop-color="#EB5E2C"/>
<stop offset="1" stop-color="#EB5C2C"/>
</linearGradient>
<linearGradient id="paint5_linear_300_8351" x1="9.99116" y1="4" x2="9.99116" y2="11.923" gradientUnits="userSpaceOnUse">
<stop stop-color="#F6E93D"/>
<stop offset="0.13" stop-color="#F8E330"/>
<stop offset="0.35" stop-color="#F7C730"/>
<stop offset="0.64" stop-color="#F59C2E"/>
<stop offset="0.98" stop-color="#EB5E2C"/>
<stop offset="1" stop-color="#EB5C2C"/>
</linearGradient>
<linearGradient id="paint6_linear_300_8351" x1="13.108" y1="10.0752" x2="13.108" y2="11.9251" gradientUnits="userSpaceOnUse">
<stop stop-color="#F6E93D"/>
<stop offset="0.13" stop-color="#F8E330"/>
<stop offset="0.35" stop-color="#F7C730"/>
<stop offset="0.64" stop-color="#F59C2E"/>
<stop offset="0.98" stop-color="#EB5E2C"/>
<stop offset="1" stop-color="#EB5C2C"/>
</linearGradient>
<linearGradient id="paint7_linear_300_8351" x1="10.447" y1="11.6782" x2="10.7712" y2="10.0125" gradientUnits="userSpaceOnUse">
<stop stop-color="#F6E93D"/>
<stop offset="0.13" stop-color="#F8E330"/>
<stop offset="0.35" stop-color="#F7C730"/>
<stop offset="0.64" stop-color="#F59C2E"/>
<stop offset="0.98" stop-color="#EB5E2C"/>
<stop offset="1" stop-color="#EB5C2C"/>
</linearGradient>
</defs>
</svg>
