<svg width="24" height="24" viewBox="0 0 24 24" fill="none" xmlns="http://www.w3.org/2000/svg">
<circle cx="12" cy="12" r="12" fill="#EDF0F4"/>
<path fill-rule="evenodd" clip-rule="evenodd" d="M11.4628 10.5312C11.3668 10.5331 11.28 10.4744 11.2461 10.3845C11.2123 10.2947 11.2388 10.1932 11.3122 10.1314C11.6929 9.81055 12.0219 9.43301 12.2877 9.01203C12.4756 8.68289 12.7794 8.51365 13.0965 8.5563C13.1817 8.5617 13.2567 8.61422 13.2909 8.69239C13.3251 8.77057 13.3127 8.8613 13.2589 8.92749C13.205 8.99369 13.1187 9.02425 13.0352 9.0067C12.85 8.98138 12.7261 9.15995 12.6808 9.23724C12.3921 9.70179 12.0324 10.1182 11.6147 10.4712C11.5735 10.5097 11.5192 10.5311 11.4628 10.5312ZM7.63555 14.3782C7.54105 14.377 7.45712 14.3176 7.42458 14.2288C7.39205 14.1401 7.41766 14.0405 7.48897 13.9785C7.75282 13.7707 8.03264 13.584 8.32582 13.4201C8.43232 13.3847 8.54874 13.4325 8.59948 13.5327C8.65021 13.6328 8.61996 13.755 8.52837 13.8199C8.26712 13.9682 8.01724 14.1356 7.7808 14.3209C7.74008 14.3551 7.6887 14.374 7.63555 14.3742" fill="#28646E"/>
<path fill-rule="evenodd" clip-rule="evenodd" d="M13.3439 12.2235C13.4345 12.3074 13.5398 12.2714 13.6357 12.1795C14.294 11.5505 14.991 10.5684 15.2228 10.0567C15.2392 10.0051 15.2759 9.96246 15.3244 9.93856C15.373 9.91466 15.4292 9.91161 15.48 9.93012C15.6066 9.98076 15.6053 10.1966 15.4907 10.4352C15.096 11.2428 14.569 11.9788 13.9316 12.6126C13.8952 12.6454 13.8744 12.6921 13.8744 12.7412C13.8744 12.7902 13.8952 12.8369 13.9316 12.8698C14.0049 12.9351 14.1248 12.9311 14.2354 12.8178C14.5907 12.4663 14.9165 12.0861 15.2095 11.6811C15.251 11.6009 15.3386 11.5555 15.428 11.5678C15.5373 11.5892 15.5546 11.6944 15.5213 11.821C15.4667 12.0249 14.8923 12.7791 14.6645 13.0323C14.0475 13.7213 13.4305 14.0984 12.2432 14.7154C11.8328 14.9286 11.5223 15.1378 11.3291 15.4616C11.1572 15.7494 11.1065 15.844 11.0892 15.88C11.0235 16.0219 11.0818 16.1903 11.2211 16.2611C11.2884 16.2935 11.3658 16.2976 11.4361 16.2725C11.5064 16.2475 11.5638 16.1954 11.5956 16.1279C11.5956 16.1279 11.5956 16.1172 11.5956 16.1132C11.5956 16.1092 11.5876 16.1132 11.8115 15.7401C11.9786 15.4699 12.222 15.2552 12.5111 15.1231C13.7024 14.5808 14.1888 14.153 14.879 13.4627C15.2042 13.0946 15.4946 12.6971 15.7465 12.2754C16.0783 11.7158 15.9038 11.2374 15.6039 11.1561C15.5839 11.1503 15.5721 11.1296 15.5773 11.1094C15.5767 11.1059 15.5767 11.1023 15.5773 11.0988C15.7519 10.8265 15.881 10.5277 15.9597 10.214C16.0184 9.92479 15.9357 9.573 15.54 9.48771C15.5195 9.48306 15.5065 9.46296 15.5107 9.4424C15.536 9.35046 15.5613 9.23452 15.5773 9.15857C15.6634 8.82318 15.4693 8.47965 15.1375 8.38035C14.952 8.34002 14.7581 8.38074 14.6045 8.49229C14.5826 8.5072 14.5531 8.5038 14.5352 8.48429C14.4585 8.40118 14.3511 8.35304 14.2381 8.35103C13.9889 8.35103 13.745 8.42299 13.5718 8.80544C13.4385 9.07195 13.2533 9.4464 12.6949 10.066C12.1876 10.6032 11.6202 11.0803 11.0039 11.4879C10.9253 11.5385 10.816 11.5265 10.828 11.4226C10.8493 11.256 11.0279 10.1313 11.0626 9.80619C11.1119 9.27317 10.824 9.02531 10.5002 8.98267C10.2337 8.94669 9.83393 9.02265 9.61006 9.62896C9.35527 10.2388 9.14506 10.8663 8.98109 11.5065C8.80771 12.2676 8.79049 13.056 8.93045 13.8239C8.9401 13.8771 8.93016 13.932 8.90247 13.9785C8.68772 14.3005 8.49409 14.6361 8.3228 14.9832C8.26355 15.1174 8.31463 15.2746 8.4414 15.3483C8.57691 15.4218 8.74631 15.3725 8.82118 15.2377L8.82918 15.2217C8.91446 15.0418 9.09569 14.702 9.15965 14.5555C9.24664 14.3904 9.32406 14.2204 9.39152 14.0464C9.43591 13.9009 9.43591 13.7455 9.39152 13.6C9.28026 12.9814 9.29613 12.3467 9.43816 11.7344C9.62068 11.0268 9.84313 10.3301 10.1044 9.64762C10.1724 9.47972 10.2683 9.42775 10.371 9.43707C10.4736 9.4464 10.6508 9.49171 10.5988 9.83684C10.5042 10.4485 10.371 11.2254 10.3323 11.4879C10.311 11.6211 10.287 11.9156 10.5229 12.0529C10.7081 12.1595 10.912 12.1009 11.1358 11.9503C11.8357 11.476 12.4814 10.9264 13.0614 10.3112C13.6357 9.66627 13.8183 9.28116 13.9662 8.93336C14.0209 8.82166 14.1479 8.76543 14.2674 8.80011C14.3287 8.81743 14.4006 8.90005 14.3513 9.07462C14.2181 9.4997 13.6984 10.4711 12.6883 11.3826C12.6428 11.4143 12.6125 11.4635 12.605 11.5184C12.5974 11.5734 12.6131 11.629 12.6483 11.6718C12.6839 11.7111 12.7345 11.7335 12.7876 11.7335C12.8406 11.7335 12.8912 11.7111 12.9268 11.6718C13.6237 11.0585 14.1855 10.307 14.5765 9.46506C14.6541 9.30005 14.7205 9.12998 14.7751 8.95602C14.7982 8.84543 14.8996 8.76905 15.0123 8.77745C15.1229 8.80011 15.1962 8.91071 15.1615 9.10127C15.1048 9.33941 15.0216 9.57048 14.9137 9.7902C14.6232 10.4085 14.0075 11.236 13.3439 11.9463C13.3063 11.9818 13.285 12.0312 13.285 12.0829C13.285 12.1346 13.3063 12.184 13.3439 12.2195M9.23827 9.14526C9.27292 9.11462 9.25959 9.07464 9.25026 9.04399C9.20096 8.88675 8.92245 8.23379 8.85049 8.1032C8.84075 8.0777 8.821 8.05729 8.79583 8.04672C8.77066 8.03615 8.74227 8.03633 8.71724 8.04723C8.61884 8.09786 8.52893 8.1635 8.45072 8.24179C8.3621 8.31023 8.28514 8.39259 8.22286 8.48565C8.21008 8.50839 8.20698 8.53532 8.21424 8.56037C8.22151 8.58543 8.23854 8.60652 8.2615 8.6189C8.38143 8.70952 8.99308 9.07064 9.14099 9.1386C9.17164 9.15326 9.20895 9.17192 9.2436 9.1386L9.23827 9.14526ZM7.90572 9.36511C7.82976 9.36511 7.79778 9.39709 7.78845 9.44906C7.7797 9.56075 7.78824 9.67312 7.81377 9.7822C7.82685 9.89321 7.85696 10.0015 7.90305 10.1034C7.92938 10.1505 7.98838 10.1682 8.03631 10.1433C8.16957 10.0874 8.8012 9.75289 8.93712 9.66227C8.96511 9.64362 8.99975 9.62096 8.99176 9.57432M14.2755 14.9286C14.2288 14.9286 14.2155 14.9726 14.2035 15.0032C14.1475 15.1565 13.973 15.8454 13.9503 15.9933C13.9422 16.0195 13.9454 16.0479 13.959 16.0716C13.9727 16.0954 13.9956 16.1124 14.0223 16.1186C14.1325 16.1397 14.2454 16.1433 14.3567 16.1293C14.4686 16.1279 14.5796 16.1095 14.6859 16.0746C14.7109 16.0644 14.7307 16.0444 14.7408 16.0193C14.7508 15.9942 14.7502 15.9661 14.7392 15.9414C14.6979 15.7974 14.4327 15.1418 14.3567 14.9939C14.3408 14.9646 14.3221 14.9273 14.2755 14.9299V14.9286ZM14.6752 14.6101C14.6525 14.6514 14.6752 14.6834 14.7005 14.7087C14.8031 14.842 15.3002 15.3444 15.4148 15.4403C15.4336 15.4603 15.4599 15.4716 15.4874 15.4716C15.5149 15.4716 15.5411 15.4603 15.56 15.4403C15.6347 15.3571 15.6959 15.2627 15.7412 15.1605C15.7973 15.0636 15.8374 14.9583 15.8598 14.8487C15.8598 14.7954 15.8465 14.7527 15.7732 14.7327C15.6293 14.6928 14.9284 14.5782 14.7645 14.5688C14.7312 14.5688 14.6898 14.5688 14.6685 14.6035L14.6752 14.6101ZM12.2392 18.4279C12.2397 18.5311 12.1779 18.6244 12.0827 18.6641C11.9875 18.7039 11.8777 18.6822 11.8047 18.6092C11.7317 18.5363 11.71 18.4265 11.7498 18.3312C11.7895 18.236 11.8828 18.1742 11.986 18.1747C12.0531 18.1747 12.1175 18.2014 12.165 18.2489C12.2125 18.2964 12.2392 18.3608 12.2392 18.4279ZM12.2392 5.54737C12.2392 5.65043 12.177 5.74332 12.0817 5.78264C11.9865 5.82196 11.8769 5.79993 11.8042 5.72687C11.7315 5.6538 11.7101 5.54411 11.7499 5.44904C11.7897 5.35398 11.8829 5.29231 11.986 5.29285C12.0534 5.29285 12.118 5.31971 12.1655 5.36748C12.213 5.41525 12.2395 5.47999 12.2392 5.54737ZM13.897 18.1427C13.9326 18.2778 13.8522 18.4162 13.7172 18.4521C13.5822 18.4879 13.4436 18.4076 13.4076 18.2727C13.3715 18.1377 13.4516 17.9991 13.5865 17.9628C13.6515 17.9454 13.7209 17.9545 13.7791 17.9883C13.8374 18.022 13.8798 18.0776 13.897 18.1427ZM10.5653 5.70062C10.5891 5.78822 10.5644 5.88186 10.5004 5.94628C10.4364 6.01069 10.343 6.03609 10.2552 6.0129C10.1674 5.98972 10.0987 5.92147 10.0749 5.83388C10.0381 5.69846 10.1181 5.55885 10.2535 5.52206C10.3889 5.48526 10.5285 5.5652 10.5653 5.70062ZM15.4267 17.4378C15.4741 17.5163 15.4755 17.6142 15.4302 17.6939C15.3849 17.7736 15.3 17.8226 15.2084 17.822C15.1167 17.8214 15.0325 17.7713 14.9883 17.691C14.9218 17.5703 14.964 17.4185 15.0834 17.3496C15.2028 17.2806 15.3553 17.3199 15.4267 17.4378ZM8.98501 6.28294C9.05639 6.40327 9.01672 6.55869 8.89639 6.63007C8.77606 6.70146 8.62064 6.66179 8.54926 6.54146C8.48275 6.42073 8.52504 6.26898 8.6444 6.20004C8.76377 6.13111 8.91634 6.17033 8.98767 6.28827M16.7164 16.3678C16.8154 16.4668 16.8154 16.6272 16.7164 16.7262C16.6174 16.8252 16.4569 16.8252 16.3579 16.7262C16.259 16.6272 16.259 16.4668 16.3579 16.3678C16.4569 16.2688 16.6174 16.2688 16.7164 16.3678ZM7.61111 7.25434C7.67515 7.31838 7.70015 7.41171 7.67672 7.49918C7.65328 7.58665 7.58496 7.65497 7.49749 7.67841C7.41002 7.70184 7.31669 7.67684 7.25265 7.6128C7.15367 7.51382 7.15367 7.35333 7.25265 7.25434C7.35164 7.15536 7.51213 7.15536 7.61111 7.25434ZM17.6894 14.9832C17.8116 15.0517 17.8551 15.2062 17.7867 15.3283C17.7182 15.4505 17.5637 15.4941 17.4415 15.4256C17.3201 15.3557 17.2783 15.2006 17.3482 15.0792C17.4182 14.9577 17.5733 14.916 17.6947 14.9859M6.5317 8.54831C6.612 8.59254 6.66211 8.67673 6.66272 8.7684C6.66333 8.86007 6.61433 8.94491 6.53462 8.9902C6.45492 9.0355 6.35696 9.03416 6.27851 8.98672C6.16057 8.91539 6.12135 8.76282 6.19028 8.64346C6.25922 8.52409 6.41097 8.4818 6.5317 8.54831ZM18.2717 13.4095C18.4075 13.4433 18.4901 13.5808 18.4563 13.7166C18.4224 13.8524 18.2849 13.935 18.1491 13.9012H18.1411C18.0538 13.8774 17.9858 13.8088 17.9627 13.7212C17.9396 13.6337 17.965 13.5404 18.0293 13.4767C18.0936 13.4129 18.187 13.3883 18.2744 13.4121M5.83343 10.0808C5.92126 10.1046 5.98973 10.1734 6.01303 10.2614C6.03633 10.3494 6.01094 10.4431 5.9464 10.5073C5.88187 10.5714 5.78801 10.5963 5.70017 10.5725C5.5724 10.5296 5.50022 10.3945 5.53556 10.2644C5.57091 10.1344 5.70152 10.0544 5.83343 10.0821M18.4263 11.7304C18.5661 11.7304 18.6795 11.8438 18.6795 11.9836C18.6795 12.1235 18.5661 12.2368 18.4263 12.2368C18.2865 12.2368 18.1731 12.1235 18.1731 11.9836C18.1731 11.8438 18.2865 11.7304 18.4263 11.7304ZM5.54567 11.7304C5.63612 11.7304 5.71971 11.7787 5.76494 11.857C5.81016 11.9354 5.81016 12.0319 5.76494 12.1102C5.71971 12.1886 5.63612 12.2368 5.54567 12.2368C5.40584 12.2368 5.29248 12.1235 5.29248 11.9836C5.29248 11.8438 5.40584 11.7304 5.54567 11.7304ZM18.1409 10.0714C18.2723 10.0432 18.4028 10.1226 18.4382 10.2522C18.4736 10.3819 18.4016 10.5166 18.2742 10.5591H18.2675C18.1321 10.5959 17.9925 10.516 17.9557 10.3806C17.9189 10.2452 17.9988 10.1056 18.1343 10.0688M5.69211 13.4002C5.78109 13.3705 5.8792 13.3924 5.94707 13.4572C6.01493 13.5219 6.04143 13.6189 6.01592 13.7092C5.99042 13.7995 5.91709 13.8682 5.82536 13.8879C5.738 13.9117 5.64458 13.8871 5.58028 13.8233C5.51599 13.7596 5.49059 13.6664 5.51365 13.5788C5.53672 13.4913 5.60474 13.4227 5.69211 13.3988M17.4294 8.53761C17.5078 8.49017 17.6058 8.48884 17.6855 8.53413C17.7652 8.57942 17.8142 8.66426 17.8136 8.75594C17.813 8.84761 17.7629 8.93179 17.6826 8.97603C17.5619 9.04253 17.4101 9.00024 17.3412 8.88088C17.2722 8.76152 17.3115 8.60894 17.4294 8.53761ZM6.28116 14.9872C6.36976 14.9347 6.48137 14.9411 6.56341 15.0034C6.64546 15.0656 6.68158 15.1714 6.65478 15.2709C6.62797 15.3704 6.54357 15.4437 6.44134 15.4563C6.3391 15.4689 6.23941 15.4183 6.18921 15.3284C6.12134 15.2078 6.16217 15.0551 6.28116 14.9846M16.3609 7.25573C16.4598 7.15701 16.62 7.15713 16.7188 7.25599C16.8176 7.35485 16.8176 7.51506 16.7188 7.61392C16.62 7.71278 16.4598 7.7129 16.3609 7.61419C16.2625 7.51496 16.2625 7.35495 16.3609 7.25573ZM7.2528 16.3624C7.35173 16.2637 7.51194 16.2638 7.61072 16.3627C7.70951 16.4615 7.70951 16.6217 7.61072 16.7206C7.51194 16.8195 7.35173 16.8196 7.2528 16.7209C7.20486 16.6736 7.17788 16.609 7.17788 16.5416C7.17788 16.4743 7.20486 16.4097 7.2528 16.3624ZM14.9815 6.28292C15.0515 6.162 15.2061 6.12059 15.3271 6.19038C15.4482 6.26016 15.4898 6.41478 15.4202 6.53589C15.3505 6.657 15.196 6.69884 15.0748 6.62939C14.9537 6.55918 14.9121 6.40442 14.9815 6.28292ZM8.54659 17.4378C8.58876 17.355 8.6729 17.302 8.76581 17.2996C8.85871 17.2973 8.94544 17.346 8.99174 17.4266C9.03805 17.5072 9.03648 17.6066 8.98767 17.6857C8.91634 17.8036 8.76377 17.8429 8.6444 17.7739C8.52504 17.705 8.48275 17.5533 8.54926 17.4325M13.408 5.70056C13.4289 5.61249 13.4952 5.54228 13.582 5.51638C13.6687 5.49048 13.7627 5.51283 13.8285 5.57501C13.8943 5.63719 13.922 5.72975 13.901 5.81783V5.83248C13.8642 5.96753 13.7249 6.04718 13.5899 6.01038C13.4548 5.97358 13.3752 5.83428 13.412 5.69923M10.0803 18.1414C10.1145 18.0056 10.2523 17.9233 10.3881 17.9575C10.5239 17.9917 10.6062 18.1296 10.572 18.2653C10.5482 18.3527 10.4796 18.4207 10.392 18.4438C10.3045 18.4669 10.2113 18.4415 10.1475 18.3772C10.0837 18.3129 10.0591 18.2195 10.0829 18.1321" fill="#28646E"/>
<path fill-rule="evenodd" clip-rule="evenodd" d="M19.3643 15.0421C18.1283 18.0265 15.2162 19.9724 11.9861 19.9724C7.57813 19.9672 4.00588 16.3956 4 11.9876C3.99946 8.75744 5.94486 5.84503 8.929 4.60852C11.9131 3.37201 15.3483 4.05493 17.6326 6.33882C19.9169 8.62272 20.6004 12.0578 19.3643 15.0421ZM19.2963 11.9877C19.2963 7.9502 16.0233 4.67721 11.9859 4.67721C7.95027 4.68161 4.67985 7.95203 4.67545 11.9877C4.67545 16.0251 7.94845 19.2981 11.9859 19.2981C16.0233 19.2981 19.2963 16.0251 19.2963 11.9877Z" fill="#28646E"/>
</svg>
