<svg width="24" height="24" viewBox="0 0 24 24" fill="none" xmlns="http://www.w3.org/2000/svg">
<path d="M12 24C18.6276 24 24 18.6276 24 12C24 5.3724 18.6276 0 12 0C5.3724 0 0 5.3724 0 12C0 18.6276 5.3724 24 12 24Z" fill="#EDF0F4"/>
<path fill-rule="evenodd" clip-rule="evenodd" d="M6.20085 12.772C6.20085 13.2249 6.46461 13.6539 7.00012 14.0775L13.0372 8.0404C13.3756 7.6754 13.5061 7.26777 13.4262 6.81485C13.3306 6.3338 13.066 5.90285 12.6802 5.59998L6.62713 11.6531C6.48604 11.8024 6.37577 11.9781 6.30263 12.1701C6.22949 12.3621 6.1949 12.5667 6.20085 12.772ZM9.15271 16.2302C8.62254 15.8119 8.35345 15.3777 8.35878 14.9301C8.35283 14.7247 8.38742 14.5202 8.46056 14.3282C8.5337 14.1362 8.64397 13.9605 8.78505 13.8111L14.8381 7.75803C15.2224 8.06067 15.486 8.49054 15.5814 8.97024C15.6614 9.42316 15.5308 9.83079 15.1925 10.1958L9.15271 16.2302ZM11.3107 18.3882C10.7752 17.9646 10.5115 17.5357 10.5141 17.0854C10.5082 16.88 10.5428 16.6755 10.6159 16.4835C10.689 16.2915 10.7993 16.1158 10.9404 15.9665L16.9935 9.91337C17.3777 10.216 17.6413 10.6459 17.7368 11.1256C17.8168 11.5785 17.6862 11.9861 17.3479 12.3511L11.3107 18.3882Z" fill="url(#paint0_linear_300_12158)"/>
<defs>
<linearGradient id="paint0_linear_300_12158" x1="7.58426" y1="12.6169" x2="13.0346" y2="17.0702" gradientUnits="userSpaceOnUse">
<stop stop-color="#7EB5FF"/>
<stop offset="0.9997" stop-color="#1A38F8"/>
</linearGradient>
</defs>
</svg>
