<svg width="24" height="24" viewBox="0 0 24 24" fill="none" xmlns="http://www.w3.org/2000/svg">
<circle cx="12" cy="12" r="12" fill="#EDF0F4"/>
<path d="M16.0444 14.1962C16.5266 13.473 16.7944 12.6159 16.7944 11.6963C16.7944 9.11597 14.6248 7.01779 11.9374 7.01779C10.7409 7.01779 9.64275 7.43743 8.80348 8.12492C8.77669 8.14278 8.74991 8.16063 8.72312 8.18742C8.71419 8.19635 8.70527 8.20527 8.68741 8.2142C8.67848 8.22313 8.66062 8.24099 8.6517 8.24992C8.61598 8.2767 8.5892 8.30349 8.55348 8.3392C8.50884 8.38384 8.4642 8.42849 8.42848 8.47313C7.91064 9.01776 7.5535 9.72311 7.366 10.482C7.366 10.491 7.35707 10.4999 7.35707 10.5177C6.99101 11.7499 6.95529 13.3123 7.74992 14.9998C9.0624 17.8123 12.2945 19.339 15.8837 19.2408C15.8927 19.2408 15.8927 19.2408 15.9016 19.2408C16.3123 19.2319 16.4641 19.7765 16.1069 19.964C14.8748 20.6069 13.4641 20.964 11.982 20.964C7.01779 20.964 3 16.9462 3 11.982C3 7.34815 6.5178 3.52678 11.0267 3.05357C11.3392 3.01786 11.6606 3 11.982 3C13.9552 3 15.7855 3.63392 17.2676 4.71426C17.6694 5.0089 18.0444 5.33032 18.3926 5.68746C19.223 6.62494 19.7229 7.83028 19.7229 9.15169C19.7229 11.482 18.1873 13.4641 16.0444 14.1962Z" fill="url(#paint0_linear_300_12432)"/>
<path d="M20.8569 11.9374C20.8569 11.9553 20.8569 11.9731 20.8569 11.991C20.839 14.9016 18.8837 17.3748 16.1605 17.9462C15.8302 18.0177 15.4641 18.0623 15.1873 18.0891C11.8927 18.3569 9.38386 16.8123 8.26781 14.3034C8.1071 13.9463 7.99103 13.5892 7.91067 13.2499C7.83924 12.9642 7.78567 12.6874 7.75889 12.4106C7.75889 12.4017 7.75889 12.3927 7.75889 12.3838C7.68746 11.7142 7.74996 11.0892 7.88388 10.5267C7.88388 10.5178 7.88388 10.5088 7.88388 10.4999C7.89281 10.4731 7.90174 10.4463 7.90174 10.4196C7.94638 10.2321 8.03567 10.0624 8.13388 9.91064C8.44638 9.45529 9.14279 9.59815 9.25886 10.1339C9.37493 10.7053 9.5535 11.366 9.77671 11.7588C10.6874 13.3659 12.4017 14.4552 14.3749 14.4552C14.9998 14.4552 15.607 14.3481 16.1695 14.1427C18.2141 13.4017 19.6694 11.4285 19.6694 9.10708C19.6694 7.78568 19.1873 6.58034 18.4016 5.64285C19.6873 7.01783 20.5712 8.8303 20.7944 10.8481C20.839 11.2142 20.8569 11.5713 20.8569 11.9374Z" fill="url(#paint1_linear_300_12432)"/>
<defs>
<linearGradient id="paint0_linear_300_12432" x1="3" y1="20.9672" x2="19.7202" y2="20.9672" gradientUnits="userSpaceOnUse">
<stop stop-color="#2D2D4C"/>
<stop offset="1" stop-color="#1E1E3A"/>
</linearGradient>
<linearGradient id="paint1_linear_300_12432" x1="7.72715" y1="18.122" x2="20.8569" y2="18.122" gradientUnits="userSpaceOnUse">
<stop stop-color="#8592B9"/>
<stop offset="1" stop-color="#6D5D91"/>
</linearGradient>
</defs>
</svg>
