<svg width="24" height="24" viewBox="0 0 24 24" fill="none" xmlns="http://www.w3.org/2000/svg">
<circle cx="12" cy="12" r="12" fill="#EDF0F4"/>
<path fill-rule="evenodd" clip-rule="evenodd" d="M6.05748 11.4792L15.6252 18.1955L17.9427 16.5772C18.6045 16.1131 18.9986 15.3555 18.9986 14.5472C18.9986 13.7389 18.6045 12.9813 17.9427 12.5172L8.37501 5.8L6.05748 7.41912C5.3953 7.88299 5.00098 8.64066 5.00098 9.44915C5.00098 10.2576 5.3953 11.0153 6.05748 11.4792ZM6.56764 8.14379L8.37406 6.88L17.4342 13.241C17.86 13.5394 18.1135 14.0268 18.1135 14.5468C18.1135 15.0668 17.86 15.5541 17.4342 15.8526L15.6277 17.1155L6.56764 10.7554C6.14146 10.4572 5.88762 9.96975 5.88762 9.44959C5.88762 8.92944 6.14146 8.44201 6.56764 8.14379Z" fill="#4BC0C8"/>
<path d="M8.36528 17.1094L6.56149 15.843C6.13567 15.5445 5.88213 15.0572 5.88213 14.5372C5.88213 14.0172 6.13567 13.5298 6.56149 13.2314L11.2307 9.96685L10.4605 9.42772L6.0565 12.5067C5.39432 12.9706 5 13.7282 5 14.5367C5 15.3452 5.39432 16.1029 6.0565 16.5668L8.36791 18.1894L11.2272 16.1887L10.457 15.6478L8.36528 17.1094Z" fill="#02819B"/>
<path d="M17.9466 7.42875L15.6344 5.80613L12.7724 7.80859L13.5426 8.34947L15.6335 6.88963L17.4381 8.15605C17.864 8.45451 18.1175 8.94185 18.1175 9.46185C18.1175 9.98185 17.864 10.4692 17.4381 10.7677L12.7681 14.0295L13.5382 14.5704L17.9431 11.4888C18.6053 11.025 18.9996 10.2673 18.9996 9.45879C18.9996 8.6503 18.6053 7.89262 17.9431 7.42875H17.9466Z" fill="#02819B"/>
<path d="M6.60693 12.1191L10.2455 9.57322L10.7528 10.2982L7.1142 12.8441L6.60693 12.1191Z" fill="#02819B"/>
<path d="M16.9676 11.0906L15.1953 12.3316L15.7021 13.0563L17.54 11.7689C17.3474 11.5466 17.1575 11.319 16.9676 11.0906Z" fill="#02819B"/>
</svg>
