<svg width="24" height="24" viewBox="0 0 24 24" fill="none" xmlns="http://www.w3.org/2000/svg">
<circle cx="12" cy="12" r="12" fill="#EDF0F4"/>
<path fill-rule="evenodd" clip-rule="evenodd" d="M13.2324 6.70267L12.0633 7.87182L12.3033 8.11191C12.3681 8.17758 12.4564 8.21455 12.5487 8.21455C12.6409 8.21455 12.7292 8.17758 12.794 8.11191L13.9631 6.94277L13.723 6.70267C13.6583 6.63701 13.5699 6.60004 13.4777 6.60004C13.3855 6.60004 13.2971 6.63701 13.2324 6.70267ZM10.2573 6.70271L9.97544 6.9428L11.1968 8.11195C11.2597 8.17701 11.3464 8.21374 11.4369 8.21374C11.5274 8.21374 11.614 8.17701 11.677 8.11195L11.9171 7.87186L10.7375 6.70271C10.6745 6.63765 10.5879 6.60091 10.4974 6.60091C10.4069 6.60091 10.3202 6.63765 10.2573 6.70271ZM12.1152 10.4607L14.3387 8.23721H14.3491C14.6011 7.98916 15.0054 7.98916 15.2573 8.23721L15.7062 8.68607L13.4827 10.92C13.2273 11.1693 12.8196 11.1693 12.5641 10.92L12.1152 10.4607ZM8.71239 8.23721L8.26352 8.68607L10.487 10.9095C10.6071 11.0346 10.7729 11.1053 10.9463 11.1053C11.1197 11.1053 11.2855 11.0346 11.4056 10.9095L11.8545 10.4607L9.63101 8.23721C9.37554 7.98791 8.96786 7.98791 8.71239 8.23721ZM11.5099 8.42506L11.7395 8.18497H11.75C11.8129 8.11991 11.8995 8.08317 11.9901 8.08317C12.0806 8.08317 12.1672 8.11991 12.2301 8.18497L12.4702 8.42506L11.9901 8.90524L11.5099 8.42506ZM15.9151 10.4084L12.2093 14.1038L12.9505 14.8554C13.1478 15.0662 13.4237 15.1858 13.7125 15.1858C14.0013 15.1858 14.2772 15.0662 14.4745 14.8554L18.1699 11.16L17.4287 10.4084C17.2313 10.1976 16.9555 10.078 16.6667 10.078C16.3779 10.078 16.102 10.1976 15.9046 10.4084H15.9151ZM5.7998 11.1496L6.52008 10.4084H6.5514C6.74877 10.1976 7.02465 10.078 7.31343 10.078C7.60222 10.078 7.8781 10.1976 8.07547 10.4084L11.7708 14.1038L11.0192 14.8554C10.8218 15.0662 10.546 15.1858 10.2572 15.1858C9.9684 15.1858 9.69252 15.0662 9.49515 14.8554L5.7998 11.1496ZM11.4994 11.0557L11.0505 11.5045L11.9587 12.4127L12.8982 11.5045L12.4493 11.0557C12.3278 10.9333 12.1624 10.8644 11.99 10.8644C11.8175 10.8644 11.6522 10.9333 11.5307 11.0557H11.4994ZM10.4765 15.8262L11.2281 15.085C11.4255 14.8742 11.7014 14.7546 11.9902 14.7546C12.2789 14.7546 12.5548 14.8742 12.7522 15.085L13.4934 15.8262L11.9902 17.3398L10.4765 15.8262Z" fill="url(#paint0_linear_300_13416)"/>
<defs>
<linearGradient id="paint0_linear_300_13416" x1="10.3903" y1="17.3114" x2="20.6574" y2="17.3114" gradientUnits="userSpaceOnUse">
<stop stop-color="#7CB7FF"/>
<stop offset="1" stop-color="#BA6DF6"/>
</linearGradient>
</defs>
</svg>
