<svg width="24" height="24" viewBox="0 0 24 24" fill="none" xmlns="http://www.w3.org/2000/svg">
<circle cx="12" cy="12" r="12" fill="#F55749"/>
<path fill-rule="evenodd" clip-rule="evenodd" d="M11.8588 4.43639C11.9462 4.3879 12.0526 4.3879 12.1399 4.43639L18.3543 7.89975C18.4408 7.94712 18.4946 8.03725 18.4949 8.13524C18.4949 8.23274 18.442 8.32274 18.3551 8.37074L12.9491 11.3961C12.7584 11.181 12.4987 11.0379 12.2139 10.9911V9.34645C12.7995 9.2497 13.246 8.75772 13.246 8.16299C13.246 7.49927 12.6899 6.96079 12.0031 6.96079C11.3163 6.96079 10.7603 7.49927 10.7603 8.16299C10.7603 8.75397 11.2023 9.24445 11.7833 9.34495V10.9934C11.5024 11.0414 11.2465 11.1832 11.0579 11.3954L5.6527 8.38274C5.56595 8.33576 5.51191 8.24556 5.51176 8.14747C5.5116 8.04938 5.56535 7.95901 5.65195 7.91175L11.8596 4.43864L11.8588 4.43639ZM18.3724 8.80122C18.4596 8.75221 18.5661 8.75193 18.6535 8.80047C18.74 8.84788 18.794 8.9379 18.7948 9.03596L18.8001 15.7602C18.8001 15.8577 18.7472 15.9469 18.6596 15.9957L12.6416 19.3631C12.4549 19.4681 12.2207 19.3368 12.2207 19.1276L12.2154 13.358C12.5071 13.31 12.7715 13.1623 12.9612 12.9418L14.4647 13.778C14.4233 13.9315 14.4138 14.0918 14.4368 14.249C14.532 14.9067 15.1613 15.3642 15.8406 15.272C16.5206 15.179 16.9936 14.5708 16.8984 13.913C16.8032 13.2553 16.173 12.7978 15.4938 12.8908C15.1525 12.9361 14.8455 13.12 14.6461 13.3985L13.1727 12.5788C13.2785 12.3006 13.2709 11.9939 13.1538 11.7201L18.3732 8.79972L18.3724 8.80122ZM5.48731 8.76299C5.34073 8.76299 5.20624 8.87623 5.20624 9.03523L5.2002 15.7595C5.20051 15.8575 5.2543 15.9476 5.34073 15.995L11.3595 19.3623C11.5469 19.4673 11.7811 19.3368 11.7811 19.1276L11.7856 13.3566C11.497 13.3071 11.2356 13.1601 11.0474 12.9411L9.54464 13.7773C9.58618 13.931 9.5957 14.0915 9.57259 14.249C9.47588 14.906 8.84877 15.3642 8.16877 15.2712C7.48877 15.1782 7.01504 14.57 7.11099 13.913C7.20695 13.2561 7.83482 12.7978 8.51482 12.8908C8.85604 12.9362 9.16301 13.1201 9.36255 13.3986L10.8351 12.5788C10.7309 12.3013 10.7369 11.9969 10.8525 11.7239L5.62784 8.80048C5.58553 8.77574 5.53642 8.76299 5.48731 8.76299Z" fill="white"/>
</svg>
