<svg width="24" height="24" viewBox="0 0 24 24" fill="none" xmlns="http://www.w3.org/2000/svg">
<circle cx="12" cy="12" r="12" fill="#172852"/>
<path d="M9.66561 5.36279C11.0708 4.83719 12.6524 4.83599 14.084 5.26799C15.9476 5.84639 17.5208 7.25279 18.3428 9.01799C18.5696 9.52079 18.7868 10.0452 18.8084 10.6044C17.7608 9.99719 16.6124 9.60359 15.4616 9.24479C13.6208 8.58119 11.6936 8.12039 9.95121 7.20839C9.54561 6.96599 9.02841 6.71759 8.91801 6.21239C8.87361 5.77559 9.33561 5.53199 9.66561 5.36279Z" fill="#FFD83D"/>
<path d="M5.42365 9.61078C5.83045 8.50678 6.49765 7.48198 7.40365 6.72238C7.63405 8.61718 8.44045 10.4484 9.77245 11.826C11.3697 13.4856 13.6449 14.5044 15.9597 14.466C16.8789 14.4948 17.7777 14.2824 18.6741 14.1108C17.7921 17.298 14.2989 19.4136 11.0625 18.9048C9.10885 18.6552 7.30525 17.4984 6.21685 15.8652C4.98925 14.0604 4.67965 11.664 5.42365 9.61078Z" fill="#FFD83D"/>
<path d="M15.4619 9.2448C16.6127 9.6036 17.7611 9.9972 18.8087 10.6044L18.8795 10.6416C18.9767 11.3724 19.0475 12.1176 18.9179 12.8496C18.3911 12.6264 17.9639 12.234 17.5175 11.8872C16.6583 11.172 15.7811 10.3536 15.4619 9.2448Z" fill="#FF6F03"/>
</svg>
