<svg width="24" height="24" viewBox="0 0 24 24" fill="none" xmlns="http://www.w3.org/2000/svg">
<circle cx="12" cy="12" r="12" fill="#EDF0F4"/>
<path d="M19.2973 14.1305C18.4942 16.8994 16.1917 18.9743 13.3544 19.4858V17.3228C13.8673 17.1275 14.3289 16.8176 14.704 16.4169C14.9124 16.1933 15.0906 15.9434 15.2338 15.6734C15.5066 15.1592 15.6478 14.5853 15.6448 14.0032C15.6448 12.0911 14.2644 11.3266 12.9702 10.7596L12.3148 10.47C11.6141 10.1557 11.0781 9.87613 11.0781 9.39762C11.0781 8.73622 11.6553 8.38076 12.1997 8.38076C12.7791 8.38076 13.1077 8.59453 13.4549 9.19632L13.724 9.66259L15.4557 8.5513L15.23 8.1323C14.8329 7.37506 14.1623 6.79751 13.3545 6.51709V4.53323C13.5229 4.56197 13.6893 4.59891 13.8578 4.64214C13.8742 4.6463 13.8927 4.65034 13.9113 4.65402C13.9301 4.65759 13.9486 4.66239 13.9667 4.66839C13.9724 4.66904 13.9779 4.67044 13.9831 4.67255C14.0284 4.68442 14.0755 4.69511 14.1228 4.70948C16.0583 5.27253 17.6909 6.58145 18.6613 8.34827C19.6317 10.1151 19.8605 12.1951 19.2973 14.1305Z" fill="#745DDF"/>
<path d="M13.5186 14.1081C13.5186 14.9791 12.7318 15.5173 12.0046 15.5173C11.1315 15.5173 10.6324 14.7962 10.5358 14.1265L10.4536 13.5452L8.35835 14.1352L8.45337 14.6036C8.75325 16.0806 9.76192 17.1427 11.1321 17.4631V19.5563C10.7604 19.5128 10.3924 19.4421 10.031 19.3447C9.97974 19.3328 9.93033 19.318 9.87903 19.3036C6.63499 18.359 4.40309 15.3874 4.3999 12.0087V4.7058C4.4001 4.54027 4.53425 4.40612 4.69978 4.40592H11.1316V6.49714C10.379 6.71507 9.7377 7.21163 9.33829 7.88575C9.08213 8.33408 8.9489 8.8421 8.95206 9.35844V9.39953C8.97237 11.1048 10.2257 11.8176 11.409 12.3537L12.0009 12.6105L12.0502 12.633C12.9887 13.0625 13.5186 13.3438 13.5186 14.1081Z" fill="#2EB6EA"/>
<path d="M15.6448 14.0032C15.6478 14.5853 15.5067 15.1591 15.234 15.6733C15.0906 15.9433 14.9124 16.1933 14.7039 16.4169C14.3288 16.8175 13.8672 17.1273 13.3543 17.3226L13.3552 19.496L12.7477 19.5497C12.7477 19.5497 11.445 19.5888 11.1348 19.5497L11.1316 17.4626C9.76148 17.1421 8.75281 16.0801 8.45292 14.6029L8.35791 14.1345L10.4532 13.5449L10.5354 14.1263C10.6324 14.7962 11.1316 15.5174 12.0046 15.5174C12.7318 15.5174 13.5186 14.9791 13.5186 14.1082C13.5186 13.3441 12.9886 13.0631 12.0499 12.6333L12.0006 12.6107L11.409 12.3539C10.2257 11.8176 8.97264 11.1048 8.95209 9.39977V9.35868C8.94893 8.84234 9.08216 8.33432 9.33832 7.88599C9.73766 7.21181 10.3789 6.71516 11.1316 6.49714V4.40379C12.5016 4.39215 12.6065 4.40022 13.3543 4.53158V6.51769C14.162 6.79811 14.8327 7.37566 15.2298 8.1329L15.4554 8.55191L13.7241 9.66224L13.455 9.19597C13.1078 8.59407 12.7791 8.38041 12.1999 8.38041C11.6554 8.38041 11.0782 8.73575 11.0782 9.39728C11.0782 9.8759 11.6143 10.1552 12.3149 10.4696L12.97 10.7596C14.2646 11.3266 15.6448 12.0908 15.6448 14.0032Z" fill="white"/>
</svg>
