<svg width="24" height="24" viewBox="0 0 24 24" fill="none" xmlns="http://www.w3.org/2000/svg">
<path fill-rule="evenodd" clip-rule="evenodd" d="M12 24C5.4 24 0 18.6001 0 11.9402C0.06 5.34038 5.4 -0.0595036 12.06 0.000495204C18.66 0.060494 24 5.40038 24 12.1202C23.94 18.6601 18.6 24 12 24Z" fill="#EDF0F4"/>
<path d="M14.9255 9.62686V18.9956L7.00831 14.3983C4.68371 13.0602 4.85795 12.1871 4.80029 10.3251L12.9449 15.0389V10.7325L14.9236 9.62686H14.9255Z" fill="#99BEE7"/>
<path d="M12.9449 15.0389L4.80029 10.3251L12.7143 5.78548C15.0402 4.448 15.682 5.03026 17.3692 5.96415L9.22266 10.6742L12.9449 12.8277V15.0389Z" fill="#5592D7"/>
<path d="M9.22217 10.6742L17.3719 5.96352V15.0433C17.3719 17.7785 16.5546 18.011 14.9275 19V9.62686L11.2179 11.8311L9.22217 10.6742Z" fill="#29578A"/>
</svg>
