<svg width="24" height="24" viewBox="0 0 24 24" fill="none" xmlns="http://www.w3.org/2000/svg">
<circle cx="12" cy="12" r="12" fill="url(#paint0_linear_300_8725)"/>
<path d="M8.50195 7.79999V16.8H16.002L8.50195 7.79999Z" fill="url(#paint1_linear_300_8725)"/>
<path d="M1.00195 16.8H8.50195V7.79999L1.00195 16.8Z" fill="white"/>
<path d="M2.3999 19.2C3.0839 20.106 3.8939 20.916 4.7999 21.6H19.1999C20.1059 20.916 20.9159 20.106 21.5999 19.2H2.3999Z" fill="#FC9965"/>
<path d="M4.7998 21.6C6.8038 23.106 9.2998 24 11.9998 24C14.6998 24 17.1958 23.106 19.1998 21.6H4.7998Z" fill="#FF2D55"/>
<path d="M16.0981 12.6V19.2H21.6001L16.0981 12.6Z" fill="url(#paint2_linear_300_8725)"/>
<path d="M16.098 16.8H1.00195C1.37395 17.658 1.84795 18.462 2.39995 19.2H16.104V16.8H16.098Z" fill="#FFBC5B"/>
<path d="M10.6021 19.2H16.0981V12.6L10.6021 19.2Z" fill="white"/>
<circle cx="16.0981" cy="7.79999" r="3" fill="#FFC95B"/>
<circle cx="8.50195" cy="4.5" r="1.5" fill="#FFC95B"/>
<defs>
<linearGradient id="paint0_linear_300_8725" x1="12" y1="-4.9704" x2="-4.9704" y2="12" gradientUnits="userSpaceOnUse">
<stop stop-color="#FF2D55"/>
<stop offset="1" stop-color="#FFBC5B"/>
</linearGradient>
<linearGradient id="paint1_linear_300_8725" x1="8.4994" y1="7.79999" x2="8.4994" y2="16.8" gradientUnits="userSpaceOnUse">
<stop stop-color="#A524B3"/>
<stop offset="1" stop-color="#FF2D55"/>
</linearGradient>
<linearGradient id="paint2_linear_300_8725" x1="16.0963" y1="12.6" x2="16.0963" y2="19.2" gradientUnits="userSpaceOnUse">
<stop stop-color="#A524B3"/>
<stop offset="1" stop-color="#FF2D55"/>
</linearGradient>
</defs>
</svg>
