<svg width="24" height="24" viewBox="0 0 24 24" fill="none" xmlns="http://www.w3.org/2000/svg">
<circle cx="12" cy="12" r="12" fill="#1C68F3"/>
<path fill-rule="evenodd" clip-rule="evenodd" d="M19.2003 6.23999C19.2003 5.4447 18.5556 4.79999 17.7603 4.79999H6.24029C5.445 4.79999 4.80029 5.4447 4.80029 6.23999V7.99999H19.2003V6.23999ZM19.2003 9.19995V13.2H7.20029V13.2L6.684 13.2C7.23045 15.627 9.39911 17.44 11.9912 17.44C14.1342 17.44 15.9877 16.2008 16.8745 14.4L19.2003 14.4V17.76C19.2003 18.5552 18.5556 19.2 17.7603 19.2H6.24029C5.445 19.2 4.80029 18.5552 4.80029 17.76V9.19995H19.2003ZM15.4934 14.4001C14.7297 15.5166 13.446 16.2493 11.9912 16.2493C10.5364 16.2493 9.25272 15.5166 8.48905 14.4001H15.4934ZM6.70284 12.08C6.85811 10.9944 7.79168 10.16 8.92016 10.16C10.0486 10.16 10.9822 10.9944 11.1375 12.08L9.91001 12.08C9.77504 11.6622 9.38289 11.36 8.92016 11.36C8.45742 11.36 8.06527 11.6622 7.93031 12.08L6.70284 12.08ZM15.0804 10.16C13.9519 10.16 13.0183 10.9944 12.8631 12.08L14.0905 12.08C14.2255 11.6622 14.6177 11.36 15.0804 11.36C15.5431 11.36 15.9353 11.6622 16.0702 12.08L17.2977 12.08C17.1424 10.9944 16.2089 10.16 15.0804 10.16Z" fill="white"/>
</svg>
