<svg width="24" height="24" viewBox="0 0 24 24" fill="none" xmlns="http://www.w3.org/2000/svg">
<path d="M12 24C18.6276 24 24 18.6276 24 12C24 5.3724 18.6276 0 12 0C5.3724 0 0 5.3724 0 12C0 18.6276 5.3724 24 12 24Z" fill="#EDF0F4"/>
<path fill-rule="evenodd" clip-rule="evenodd" d="M18.0817 17.1976C19.2777 15.7995 20 13.9841 20 12C20 7.58172 16.4183 4 12 4C7.58172 4 4 7.58172 4 12C4 16.4183 7.58172 20 12 20C13.9542 20 15.7447 19.2994 17.134 18.1356L12.1905 13.192L8.48568 16.8968C8.30408 17.0783 8.031 17.1327 7.79375 17.0344L7.43956 16.8877C7.20232 16.7895 7.04762 16.5579 7.04762 16.3011V8.19723C7.04762 7.94043 7.20232 7.70891 7.43956 7.61064L7.79375 7.46394C8.031 7.36566 8.30408 7.41998 8.48568 7.60157L12.1905 11.3063L15.7366 7.7603C15.9182 7.57872 16.1912 7.52439 16.4285 7.62267L16.7827 7.76937C17.0199 7.86764 17.1746 8.09916 17.1746 8.35596V14.9159L15.8413 13.5825V9.5412L13.1333 12.2492L18.0817 17.1976ZM8.38082 9.38246L11.2475 12.2492L8.38082 15.1159V9.38246Z" fill="#D55139"/>
</svg>
