<svg width="24" height="24" viewBox="0 0 24 24" fill="none" xmlns="http://www.w3.org/2000/svg">
<path d="M12 24C18.6276 24 24 18.6276 24 12C24 5.3724 18.6276 0 12 0C5.3724 0 0 5.3724 0 12C0 18.6276 5.3724 24 12 24Z" fill="#EDF0F4"/>
<ellipse cx="9.34895" cy="9.542" rx="0.742014" ry="0.742013" fill="black"/>
<circle cx="14.6492" cy="9.542" r="0.742013" fill="black"/>
<ellipse cx="8.03401" cy="10.8802" rx="0.742013" ry="0.742014" fill="black"/>
<ellipse cx="9.34895" cy="12.1926" rx="0.742014" ry="0.742013" fill="black"/>
<ellipse cx="14.6492" cy="12.1926" rx="0.742013" ry="0.742013" fill="black"/>
<ellipse cx="6.68855" cy="12.1927" rx="0.542552" ry="0.542551" fill="black"/>
<ellipse cx="8.00202" cy="13.5399" rx="0.542552" ry="0.542552" fill="black"/>
<ellipse cx="10.6656" cy="13.5399" rx="0.542552" ry="0.542552" fill="black"/>
<ellipse cx="13.3326" cy="13.5399" rx="0.542551" ry="0.542552" fill="black"/>
<ellipse cx="15.9659" cy="13.5399" rx="0.54255" ry="0.542552" fill="black"/>
<ellipse cx="5.36082" cy="13.54" rx="0.360815" ry="0.360814" fill="black"/>
<ellipse cx="6.68845" cy="14.86" rx="0.360815" ry="0.360814" fill="black"/>
<ellipse cx="11.9775" cy="14.86" rx="0.360816" ry="0.360814" fill="black"/>
<ellipse cx="17.2988" cy="14.86" rx="0.360816" ry="0.360814" fill="black"/>
<ellipse cx="18.6391" cy="13.54" rx="0.360816" ry="0.360814" fill="black"/>
<ellipse cx="11.9776" cy="12.1927" rx="0.542551" ry="0.542551" fill="black"/>
<ellipse cx="17.3096" cy="12.1927" rx="0.542553" ry="0.542551" fill="black"/>
<circle cx="10.6644" cy="10.8802" r="0.742014" fill="black"/>
<circle cx="13.3265" cy="10.8802" r="0.742014" fill="black"/>
<circle cx="15.9886" cy="10.8802" r="0.742014" fill="black"/>
</svg>
