<svg width="24" height="24" viewBox="0 0 24 24" fill="none" xmlns="http://www.w3.org/2000/svg">
<circle cx="12" cy="12" r="12" fill="#EDF0F4"/>
<path d="M15.6005 9.58991C15.3446 9.44273 15.0157 9.44273 14.7232 9.58991L12.6762 10.8042L11.2872 11.5769L9.27676 12.7911C9.02089 12.9383 8.69191 12.9383 8.39948 12.7911L6.82768 11.8344C6.5718 11.6872 6.38903 11.3929 6.38903 11.0617V9.22196C6.38903 8.9276 6.53525 8.63324 6.82768 8.44926L8.39948 7.52938C8.65535 7.3822 8.98433 7.3822 9.27676 7.52938L10.8486 8.48606C11.1044 8.63324 11.2872 8.9276 11.2872 9.25876V10.473L12.6762 9.6635V8.41247C12.6762 8.1181 12.53 7.82374 12.2376 7.63977L9.31332 5.91039C9.05744 5.76321 8.72846 5.76321 8.43603 5.91039L5.43864 7.67656C5.14621 7.82374 5 8.1181 5 8.41247V11.8712C5 12.1656 5.14621 12.4599 5.43864 12.6439L8.39948 14.3733C8.65535 14.5205 8.98433 14.5205 9.27676 14.3733L11.2872 13.1958L12.6762 12.3864L14.6867 11.2089C14.9426 11.0617 15.2715 11.0617 15.564 11.2089L17.1358 12.1288C17.3916 12.276 17.5744 12.5703 17.5744 12.9015V14.7412C17.5744 15.0356 17.4282 15.33 17.1358 15.5139L15.6005 16.4338C15.3446 16.581 15.0157 16.581 14.7232 16.4338L13.1514 15.5139C12.8956 15.3668 12.7128 15.0724 12.7128 14.7412V13.5638L11.3238 14.3733V15.5875C11.3238 15.8819 11.47 16.1763 11.7624 16.3602L14.7232 18.0896C14.9791 18.2368 15.3081 18.2368 15.6005 18.0896L18.5614 16.3602C18.8172 16.2131 19 15.9187 19 15.5875V12.092C19 11.7976 18.8538 11.5033 18.5614 11.3193L15.6005 9.58991Z" fill="#8247E5"/>
</svg>
