<svg width="24" height="24" viewBox="0 0 24 24" fill="none" xmlns="http://www.w3.org/2000/svg">
<circle cx="12" cy="12" r="12" fill="#103F68"/>
<path fill-rule="evenodd" clip-rule="evenodd" d="M19.2 7.89069L12.0851 3.80002H12.0357L5 7.89069V16.0974L12.0357 20.1858L12.0933 20.2L19.2 16.0974V7.89069ZM5.74754 8.31967L12.0621 4.64903L12.8326 5.07578L18.4528 8.32116V15.6662L12.8326 18.8929L12.0613 19.3383L5.74754 15.6684V8.31967ZM6.72568 12.5648L8.59485 11.1697L10.2473 12.2231V14.1181L11.4976 15.3208L11.4969 15.8848L10.2921 17.0113H9.27496L6.72643 12.5648H6.72568ZM12.6297 15.3193L12.632 15.8863L13.8352 16.9987H14.8397L17.3755 12.5656L15.5101 11.1563L13.8756 12.2231V14.1181L12.6297 15.3193ZM10.8607 12.2231L10.2524 10.6333H13.8681L13.2717 12.2231L13.4481 14.0003L12.0528 14.0032L10.6739 14.0055L10.8607 12.2231ZM8.61638 10.196L12.0528 10.1975L15.5064 10.1998L14.8337 7.34606H9.25538L8.61638 10.196Z" fill="white"/>
</svg>
