<svg width="24" height="24" viewBox="0 0 24 24" fill="none" xmlns="http://www.w3.org/2000/svg">
<circle cx="12" cy="12" r="12" fill="#01A64F"/>
<path fill-rule="evenodd" clip-rule="evenodd" d="M16.9997 9.72398C16.9997 8.29298 16.5316 7.06898 15.6149 6.09398C14.6771 5.07698 13.5162 4.59998 12.1103 4.59998C10.684 4.59998 9.52155 5.07698 8.58528 6.05198C7.64825 7.00673 7.19971 8.23073 7.19971 9.70373C7.19971 11.1557 7.6686 12.3805 8.60563 13.3555C9.33912 14.1227 10.2151 14.5795 11.2139 14.7452V15.6167H9.15594V16.5505H11.2335V17.0485H9.15518V17.92H11.2132V19.6H12.9862V17.9192H15.0638V17.0485H12.9651V16.5505H15.0638V15.6167H12.9862V14.7662C14.0047 14.5997 14.8806 14.1437 15.6141 13.3765C16.5316 12.4015 16.9997 11.1767 16.9997 9.72398ZM14.2903 9.70374C14.2903 10.492 14.086 11.1355 13.6992 11.6335C13.3118 12.1315 12.7622 12.3805 12.1094 12.3805C11.4784 12.3805 10.9492 12.1315 10.5414 11.6335C10.1335 11.1355 9.92925 10.492 9.92925 9.68349C9.92925 8.89449 10.1328 8.27274 10.5414 7.77474C10.9492 7.27674 11.4784 7.02774 12.1101 7.02774C12.7215 7.02774 13.2515 7.27674 13.6585 7.79499C14.0867 8.29374 14.2903 8.93649 14.2903 9.70374Z" fill="white"/>
</svg>
