<svg width="24" height="24" viewBox="0 0 24 24" fill="none" xmlns="http://www.w3.org/2000/svg">
<circle cx="12" cy="12" r="12" fill="#1E252C"/>
<path fill-rule="evenodd" clip-rule="evenodd" d="M10.7644 5.62713C10.5763 5.63432 10.3993 5.53807 10.3031 5.37627C10.207 5.21446 10.207 5.01302 10.3031 4.85121C10.3993 4.68941 10.5763 4.59316 10.7644 4.60035C11.0481 4.60035 11.2781 4.83037 11.2781 5.11411C11.2781 5.39786 11.0481 5.62788 10.7644 5.62788V5.62713ZM10.7643 8.70971C10.4648 8.71876 10.1841 8.56417 10.0317 8.30623C9.87934 8.04828 9.87934 7.72785 10.0317 7.46991C10.1841 7.21197 10.4648 7.05737 10.7643 7.06642C11.2084 7.07984 11.5614 7.44375 11.5614 7.88807C11.5614 8.33239 11.2084 8.69629 10.7643 8.70971ZM9.63495 10.6613C9.63495 11.2855 10.141 11.7915 10.7652 11.7915C11.3894 11.7915 11.8955 11.2855 11.8955 10.6613C11.8955 10.037 11.3894 9.53099 10.7652 9.53099C10.141 9.53099 9.63495 10.037 9.63495 10.6613ZM12.4082 10.6613C12.4082 11.2855 12.9143 11.7915 13.5385 11.7915C14.1627 11.7915 14.6687 11.2855 14.6687 10.6613C14.6687 10.037 14.1627 9.53099 13.5385 9.53099C12.9143 9.53099 12.4082 10.037 12.4082 10.6613ZM10.7644 14.5659C10.1402 14.5659 9.6342 14.0598 9.6342 13.4356C9.6342 12.8114 10.1402 12.3053 10.7644 12.3053C11.3887 12.3053 11.8947 12.8114 11.8947 13.4356C11.8947 14.0598 11.3887 14.5659 10.7644 14.5659ZM12.4082 13.4356C12.4082 14.0598 12.9143 14.5659 13.5385 14.5659C14.1627 14.5659 14.6687 14.0598 14.6687 13.4356C14.6687 12.8114 14.1627 12.3053 13.5385 12.3053C12.9143 12.3053 12.4082 12.8114 12.4082 13.4356ZM16.312 11.4833C16.0184 11.4833 15.747 11.3266 15.6002 11.0723C15.4533 10.818 15.4533 10.5046 15.6002 10.2503C15.747 9.99593 16.0184 9.83925 16.312 9.83925C16.766 9.83925 17.134 10.2073 17.134 10.6613C17.134 11.1153 16.766 11.4833 16.312 11.4833ZM15.49 13.4356C15.49 13.8895 15.8581 14.2576 16.312 14.2576C16.766 14.2576 17.134 13.8895 17.134 13.4356C17.134 12.9816 16.766 12.6135 16.312 12.6135C15.8581 12.6135 15.49 12.9816 15.49 13.4356ZM7.888 11.4833C7.43402 11.4833 7.066 11.1153 7.066 10.6613C7.066 10.2073 7.43402 9.83925 7.888 9.83925C8.34198 9.83925 8.71 10.2073 8.71 10.6613C8.71 11.1153 8.34198 11.4833 7.888 11.4833ZM7.066 13.4356C7.066 13.8895 7.43402 14.2576 7.888 14.2576C8.34198 14.2576 8.71 13.8895 8.71 13.4356C8.71 12.9816 8.34198 12.6135 7.888 12.6135C7.43402 12.6135 7.066 12.9816 7.066 13.4356ZM10.7643 17.0312C10.4648 17.0402 10.1841 16.8856 10.0317 16.6277C9.87934 16.3697 9.87934 16.0493 10.0317 15.7913C10.1841 15.5334 10.4648 15.3788 10.7643 15.3879C11.2084 15.4013 11.5614 15.7652 11.5614 16.2095C11.5614 16.6538 11.2084 17.0177 10.7643 17.0312ZM12.8061 16.6277C12.9585 16.8856 13.2392 17.0402 13.5387 17.0312C13.9828 17.0177 14.3358 16.6538 14.3358 16.2095C14.3358 15.7652 13.9828 15.4013 13.5387 15.3879C13.2392 15.3788 12.9585 15.5334 12.8061 15.7913C12.6537 16.0493 12.6537 16.3697 12.8061 16.6277ZM12.8061 8.30623C12.9585 8.56417 13.2392 8.71876 13.5387 8.70971C13.9828 8.69629 14.3358 8.33239 14.3358 7.88807C14.3358 7.44375 13.9828 7.07984 13.5387 7.06642C13.2392 7.05737 12.9585 7.21197 12.8061 7.46991C12.6537 7.72785 12.6537 8.04828 12.8061 8.30623ZM13.0775 5.37627C13.1737 5.53807 13.3507 5.63432 13.5388 5.62713V5.62788C13.8225 5.62788 14.0525 5.39786 14.0525 5.11411C14.0525 4.83037 13.8225 4.60035 13.5388 4.60035C13.3507 4.59316 13.1737 4.68941 13.0775 4.85121C12.9813 5.01302 12.9813 5.21446 13.0775 5.37627ZM19.0863 11.1757C18.8026 11.1757 18.5726 10.9457 18.5726 10.662C18.5726 10.3782 18.8026 10.1482 19.0863 10.1482C19.3701 10.1482 19.6001 10.3782 19.6001 10.662C19.6001 10.9457 19.3701 11.1757 19.0863 11.1757ZM18.5726 13.4363C18.5726 13.7201 18.8026 13.9501 19.0863 13.9501C19.3701 13.9501 19.6001 13.7201 19.6001 13.4363C19.6001 13.1526 19.3701 12.9226 19.0863 12.9226C18.8026 12.9226 18.5726 13.1526 18.5726 13.4363ZM5.11385 11.1757C4.83011 11.1757 4.6001 10.9457 4.6001 10.662C4.6001 10.3782 4.83011 10.1482 5.11385 10.1482C5.39758 10.1482 5.6276 10.3782 5.6276 10.662C5.6276 10.9457 5.39758 11.1757 5.11385 11.1757ZM4.6001 13.4363C4.6001 13.7201 4.83011 13.9501 5.11385 13.9501C5.39758 13.9501 5.6276 13.7201 5.6276 13.4363C5.6276 13.1526 5.39758 12.9226 5.11385 12.9226C4.83011 12.9226 4.6001 13.1526 4.6001 13.4363ZM10.7643 19.6C10.4805 19.6 10.2505 19.37 10.2505 19.0863C10.2505 18.8025 10.4805 18.5725 10.7643 18.5725C11.048 18.5725 11.278 18.8025 11.278 19.0863C11.278 19.37 11.048 19.6 10.7643 19.6ZM13.0249 19.0863C13.0249 19.37 13.2549 19.6 13.5386 19.6C13.8224 19.6 14.0524 19.37 14.0524 19.0863C14.0524 18.8025 13.8224 18.5725 13.5386 18.5725C13.2549 18.5725 13.0249 18.8025 13.0249 19.0863Z" fill="white"/>
</svg>
