<svg width="24" height="24" viewBox="0 0 24 24" fill="none" xmlns="http://www.w3.org/2000/svg">
<circle cx="12" cy="12" r="12" fill="#0FD297"/>
<path d="M12.7638 13.4642C12.9637 13.7363 13.1575 14.0043 13.3799 14.2589C13.7807 14.7178 14.239 15.094 14.8346 15.2739C15.1616 15.3728 15.4979 15.417 15.8365 15.4483C15.8632 15.4507 15.8831 15.4535 15.8984 15.4827C16.0753 15.8205 16.1732 16.1745 16.1272 16.5593C16.1235 16.5893 16.1187 16.6191 16.1131 16.6562C16.1119 16.6639 16.1025 16.6669 16.097 16.6616C16.0167 16.5825 15.9401 16.5114 15.8566 16.4485C15.5773 16.2381 15.27 16.0951 14.9157 16.0809C14.4443 16.062 14.0396 16.3421 13.8739 16.793C13.739 17.1601 13.7446 17.5326 13.8346 17.9078C13.839 17.926 13.8436 17.9442 13.8469 17.9627C13.8485 17.9713 13.8473 17.9823 13.8404 17.9804C13.7013 17.9398 13.5768 17.8697 13.4589 17.7884C13.2415 17.6387 13.0734 17.4428 12.9333 17.2204C12.9102 17.1837 12.9248 17.1588 12.9382 17.1295C13.0533 16.8785 13.1552 16.6228 13.2327 16.3572C13.3893 15.8203 13.3656 15.2852 13.2253 14.7499C13.1155 14.3309 12.9453 13.9346 12.7716 13.5394C12.7621 13.518 12.7537 13.496 12.7449 13.4743C12.7389 13.4588 12.7564 13.452 12.7638 13.4642Z" fill="white"/>
<path d="M11.9577 18.3885C11.9494 18.4119 11.9162 18.4122 11.9077 18.3889C11.7248 17.8849 11.4758 17.4317 11.2689 16.9598C11.1324 16.6487 11.0043 16.3344 10.9568 15.9944C10.9568 15.9943 10.9568 15.9943 10.9568 15.9941C10.954 15.9735 10.975 15.9581 10.9942 15.9665C11.6186 16.2422 12.2388 16.2421 12.8624 15.9633C12.8814 15.9547 12.9024 15.9708 12.8995 15.9916C12.8652 16.243 12.7896 16.467 12.7032 16.6882C12.541 17.1035 12.3344 17.4988 12.1528 17.9055C12.0838 18.0598 12.0191 18.2162 11.9577 18.3885Z" fill="white"/>
<path d="M11.8923 12.633C11.9037 12.6054 11.9429 12.6058 11.9538 12.6336C11.9791 12.6983 12.0037 12.7617 12.0306 12.8241C12.2099 13.2391 12.3919 13.653 12.5695 14.0688C12.6232 14.1942 12.6642 14.3249 12.7149 14.4517C12.7328 14.4969 12.7247 14.5157 12.6788 14.5333C12.1769 14.7243 11.6756 14.7254 11.173 14.5357C11.1256 14.5177 11.123 14.498 11.138 14.4536C11.2918 14 11.4979 13.5683 11.6862 13.1289C11.7567 12.9643 11.8235 12.7982 11.8923 12.633Z" fill="white"/>
<path d="M16.38 15.4968C16.3747 15.4835 16.385 15.4693 16.3993 15.4703C16.7346 15.4928 17.0598 15.526 17.3816 15.5903C17.4249 15.5988 17.4237 15.6263 17.4285 15.6556C17.5045 16.1246 17.4912 16.5913 17.3896 17.055C17.2676 17.6115 17.0364 18.1163 16.6492 18.5389C16.0576 19.1845 15.3118 19.4625 14.4465 19.4172C13.6551 19.3757 12.9572 19.0822 12.3411 18.5879C12.3106 18.5635 12.3039 18.5433 12.3167 18.5053C12.4208 18.1957 12.5564 17.8997 12.6992 17.6069C12.6992 17.6068 12.6993 17.6068 12.6993 17.6066C12.7054 17.5943 12.7228 17.5936 12.7314 17.6045C13.4513 18.5195 14.6424 18.7657 15.5772 18.1804C16.4312 17.6454 16.8042 16.5739 16.38 15.4968Z" fill="white"/>
<path d="M11.1025 13.482C10.9668 13.7912 10.8316 14.0931 10.7223 14.413C10.5254 14.9895 10.4287 15.5744 10.5707 16.1804C10.6486 16.513 10.7784 16.8262 10.9206 17.1352C10.9319 17.1594 10.9394 17.1782 10.9217 17.2061C10.7176 17.5282 10.4601 17.7899 10.1038 17.9425C10.076 17.9544 10.0478 17.9652 10.0128 17.9788C10.0055 17.9816 9.99815 17.9751 10.0002 17.9676C10.0284 17.8584 10.0518 17.7566 10.0645 17.6529C10.107 17.3059 10.0773 16.9681 9.91247 16.6542C9.6931 16.2365 9.24821 16.026 8.77476 16.1081C8.3894 16.1749 8.06961 16.3659 7.78964 16.6314C7.77597 16.6443 7.76242 16.6574 7.74821 16.6696C7.74151 16.6753 7.73145 16.6798 7.72957 16.6728C7.69525 16.5321 7.69364 16.3893 7.70517 16.2465C7.72622 15.9834 7.81177 15.7398 7.93419 15.5072C7.95443 15.4689 7.9834 15.4692 8.01544 15.4661C8.29031 15.4403 8.56277 15.4007 8.83148 15.335C9.37465 15.2021 9.82638 14.9139 10.2197 14.5249C10.5276 14.2203 10.7859 13.8748 11.0411 13.5268C11.055 13.5079 11.0697 13.4897 11.0842 13.4712C11.0947 13.4578 11.1094 13.4697 11.1025 13.482Z" fill="white"/>
<path d="M6.43443 15.2466C6.4099 15.2511 6.39314 15.2224 6.40909 15.2034C6.75423 14.793 7.02213 14.3508 7.3273 13.9356C7.52843 13.6618 7.73653 13.3937 8.00738 13.1825C8.00751 13.1825 8.00751 13.1823 8.00765 13.1823C8.02414 13.1696 8.04801 13.1802 8.05029 13.2008C8.12376 13.8794 8.4339 14.4165 8.98727 14.8171C9.00416 14.8293 9.00068 14.8554 8.98137 14.8634C8.74645 14.9594 8.51462 15.0059 8.27997 15.0417C7.8391 15.109 7.39341 15.1276 6.95053 15.1738C6.78212 15.1913 6.61438 15.2136 6.43443 15.2466Z" fill="white"/>
<path d="M11.3861 12.312C11.4158 12.3082 11.4351 12.3423 11.4164 12.3657C11.373 12.42 11.3303 12.4729 11.2899 12.5275C11.0201 12.8903 10.7526 13.2548 10.4815 13.6165C10.3997 13.7257 10.307 13.8267 10.2225 13.9339C10.1925 13.9721 10.172 13.9744 10.1339 13.9434C9.71744 13.6042 9.4659 13.1707 9.37901 12.6405C9.37083 12.5905 9.38666 12.5785 9.43265 12.5692C9.90235 12.4756 10.3794 12.4382 10.8539 12.3815C11.0315 12.3602 11.2086 12.335 11.3861 12.312Z" fill="white"/>
<path d="M11.1499 17.6302C11.1588 17.6191 11.1762 17.6208 11.1825 17.6337C11.3307 17.9354 11.4645 18.2336 11.5697 18.5444C11.584 18.5862 11.5595 18.599 11.5366 18.6176C11.1686 18.918 10.7576 19.1399 10.3052 19.2836C9.76228 19.4562 9.20959 19.5083 8.64992 19.3843C7.795 19.1948 7.18143 18.6879 6.78803 17.9158C6.42828 17.2099 6.33348 16.4586 6.45362 15.6778C6.45952 15.6392 6.4736 15.6234 6.51302 15.6155C6.83321 15.5508 7.15729 15.5204 7.48231 15.4976C7.48245 15.4976 7.48245 15.4976 7.48258 15.4976C7.49626 15.4967 7.50564 15.5114 7.50041 15.5241C7.06799 16.6051 7.4504 17.7597 8.42452 18.2766C9.31471 18.7489 10.4292 18.5364 11.1499 17.6302Z" fill="white"/>
<path d="M11.0885 10.5882C10.8886 10.3162 10.6949 10.0482 10.4724 9.79353C10.0717 9.33469 9.61335 8.95845 9.01775 8.77851C8.69072 8.67969 8.35443 8.63544 8.01587 8.6042C7.98919 8.60179 7.96921 8.59897 7.95392 8.56974C7.77706 8.23198 7.67918 7.878 7.72517 7.49318C7.72879 7.46314 7.73362 7.43338 7.73925 7.39624C7.74046 7.38859 7.74985 7.38551 7.75534 7.39087C7.83566 7.46998 7.91222 7.54105 7.99576 7.60393C8.27505 7.81431 8.58238 7.95738 8.93663 7.97159C9.40807 7.9905 9.81273 7.7104 9.97846 7.25947C10.1134 6.89235 10.1077 6.51986 10.0177 6.14469C10.0133 6.12646 10.0088 6.10822 10.0054 6.08972C10.0038 6.08114 10.005 6.07014 10.012 6.07202C10.151 6.11265 10.2756 6.18277 10.3935 6.26403C10.6108 6.4138 10.7789 6.6097 10.9191 6.83201C10.9421 6.86875 10.9275 6.89369 10.9141 6.92292C10.7991 7.17392 10.6972 7.42962 10.6197 7.69524C10.463 8.23212 10.4868 8.76725 10.627 9.30251C10.7368 9.72153 10.907 10.1179 11.0808 10.513C11.0903 10.5345 11.0986 10.5565 11.1075 10.5782C11.1135 10.5936 11.0958 10.6004 11.0885 10.5882Z" fill="white"/>
<path d="M11.8937 5.66387C11.902 5.6404 11.9353 5.64014 11.9437 5.66347C12.1266 6.16749 12.3756 6.62069 12.5825 7.09254C12.719 7.40361 12.8472 7.71791 12.8947 8.05794C12.8947 8.05808 12.8947 8.05808 12.8947 8.05821C12.8975 8.07886 12.8764 8.09428 12.8573 8.08583C12.2328 7.81016 11.6127 7.81029 10.9891 8.08905C10.97 8.09763 10.9491 8.08154 10.9519 8.06076C10.9862 7.80935 11.0619 7.5853 11.1482 7.36419C11.3105 6.9488 11.5171 6.55352 11.6986 6.14684C11.7678 5.99264 11.8323 5.8363 11.8937 5.66387Z" fill="white"/>
<path d="M11.9594 11.4193C11.948 11.4469 11.9087 11.4465 11.8978 11.4188C11.8725 11.354 11.848 11.2906 11.821 11.2282C11.6417 10.8133 11.4598 10.3993 11.2821 9.98354C11.2285 9.85817 11.1875 9.72744 11.1368 9.60059C11.1188 9.55541 11.127 9.53664 11.1728 9.51907C11.6747 9.328 12.1761 9.32693 12.6786 9.51666C12.7261 9.53462 12.7286 9.55433 12.7136 9.59872C12.5598 10.0523 12.3537 10.4841 12.1655 10.9235C12.0949 11.0881 12.0283 11.2543 11.9594 11.4193Z" fill="white"/>
<path d="M7.47216 8.55569C7.47738 8.56897 7.46706 8.58318 7.45285 8.58224C7.1175 8.55972 6.79235 8.52646 6.47055 8.46224C6.42724 8.45365 6.42844 8.42617 6.42362 8.39694C6.34759 7.92791 6.36086 7.46116 6.4625 6.9975C6.58452 6.44105 6.81568 5.93622 7.20291 5.51359C7.79449 4.86797 8.54027 4.59001 9.40565 4.63533C10.197 4.67677 10.8949 4.97028 11.511 5.46465C11.5415 5.48905 11.5482 5.50916 11.5354 5.54724C11.4313 5.85684 11.2957 6.15277 11.1529 6.44561C11.1529 6.44574 11.1528 6.44574 11.1528 6.44588C11.1467 6.45821 11.1293 6.45888 11.1207 6.44802C10.4008 5.53303 9.20975 5.28685 8.27492 5.87213C7.4208 6.40713 7.04778 7.47859 7.47216 8.55569Z" fill="white"/>
<path d="M12.7498 10.5704C12.8855 10.2612 13.0207 9.95937 13.1299 9.63944C13.3269 9.06288 13.4236 8.478 13.2816 7.87208C13.2037 7.53941 13.0739 7.22619 12.9316 6.91726C12.9204 6.89299 12.9129 6.87422 12.9305 6.84633C13.1346 6.52426 13.3922 6.26253 13.7485 6.10994C13.7762 6.09801 13.8045 6.08728 13.8395 6.0736C13.8467 6.07079 13.8541 6.07736 13.8521 6.08487C13.8238 6.19401 13.8005 6.29578 13.7877 6.39956C13.7452 6.74657 13.775 7.08433 13.9398 7.39822C14.1592 7.81589 14.6041 8.02641 15.0775 7.94435C15.4629 7.87757 15.7827 7.6865 16.0626 7.42102C16.0763 7.40814 16.0898 7.395 16.1041 7.3828C16.1108 7.37717 16.1208 7.37261 16.1227 7.37958C16.157 7.52037 16.1586 7.66317 16.1471 7.80597C16.126 8.06905 16.0405 8.31268 15.9181 8.54518C15.8978 8.58353 15.8689 8.58326 15.8368 8.58634C15.562 8.61209 15.2895 8.65178 15.0208 8.71748C14.4776 8.85036 14.0259 9.1385 13.6326 9.52748C13.3246 9.83212 13.0664 10.1777 12.8112 10.5256C12.7973 10.5445 12.7825 10.5627 12.768 10.5813C12.7576 10.5947 12.743 10.5827 12.7498 10.5704Z" fill="white"/>
<path d="M17.4172 8.80572C17.4417 8.80116 17.4585 8.82986 17.4425 8.8489C17.0974 9.25933 16.8295 9.70154 16.5243 10.1167C16.3232 10.3905 16.1151 10.6586 15.8443 10.8698C15.8441 10.8698 15.8441 10.8699 15.844 10.8699C15.8275 10.8827 15.8036 10.8721 15.8014 10.8514C15.7279 10.1728 15.4177 9.63584 14.8644 9.23519C14.8475 9.22299 14.851 9.19684 14.8703 9.18893C15.1052 9.09293 15.337 9.0464 15.5717 9.0106C16.0125 8.94329 16.4582 8.92465 16.9011 8.87853C17.0695 8.8611 17.2373 8.83884 17.4172 8.80572Z" fill="white"/>
<path d="M12.4654 11.7404C12.4357 11.7443 12.4164 11.7101 12.4351 11.6868C12.4785 11.6325 12.5212 11.5795 12.5617 11.525C12.8314 11.1621 13.0989 10.7977 13.37 10.4359C13.4518 10.3268 13.5445 10.2258 13.629 10.1185C13.659 10.0803 13.6795 10.078 13.7176 10.109C14.1341 10.4483 14.3856 10.8817 14.4725 11.4119C14.4807 11.4619 14.4648 11.474 14.4189 11.4833C13.9492 11.5768 13.4721 11.6143 12.9976 11.671C12.82 11.6922 12.6428 11.7175 12.4654 11.7404Z" fill="white"/>
<path d="M12.7019 6.42224C12.693 6.43337 12.6756 6.43163 12.6693 6.41876C12.5211 6.11707 12.3873 5.81886 12.282 5.50805C12.2678 5.46622 12.2922 5.45348 12.3152 5.43484C12.6832 5.1345 13.0942 4.91259 13.5466 4.76885C14.0895 4.59628 14.6422 4.54412 15.2019 4.66815C16.0568 4.85761 16.6704 5.36458 17.0638 6.13664C17.4235 6.8426 17.5183 7.59387 17.3982 8.37464C17.3923 8.41326 17.3782 8.42908 17.3388 8.43699C17.0186 8.50162 16.6945 8.53206 16.3695 8.55485C16.3693 8.55485 16.3693 8.55485 16.3692 8.55485C16.3555 8.55579 16.3461 8.54104 16.3514 8.5283C16.7838 7.44732 16.4014 6.29272 15.4273 5.77582C14.5371 5.30344 13.4226 5.5161 12.7019 6.42224Z" fill="white"/>
<path d="M13.6022 12.0083C13.9378 11.9712 14.2667 11.9374 14.5984 11.8721C15.1962 11.7544 15.7512 11.5456 16.2049 11.1198C16.454 10.8859 16.6604 10.6169 16.8568 10.3393C16.8723 10.3174 16.8847 10.3014 16.9177 10.3028C17.2986 10.3185 17.6541 10.4107 17.9644 10.643C17.9885 10.6611 18.012 10.6802 18.0413 10.7036C18.0474 10.7084 18.0454 10.7182 18.0379 10.7202C17.9292 10.7502 17.8293 10.7809 17.7331 10.8218C17.4113 10.9586 17.1337 11.1531 16.9443 11.4528C16.6922 11.8516 16.7324 12.3422 17.0401 12.7112C17.2906 13.0116 17.616 13.193 17.986 13.3027C18.0039 13.308 18.022 13.3131 18.0397 13.3194C18.048 13.3224 18.0569 13.3288 18.0518 13.3339C17.9471 13.4339 17.8241 13.5069 17.6947 13.5683C17.4563 13.6816 17.2026 13.7293 16.9401 13.7395C16.8968 13.7412 16.8824 13.716 16.8638 13.6898C16.704 13.4646 16.5334 13.2485 16.3422 13.0486C15.9555 12.6446 15.4802 12.3974 14.9467 12.2513C14.5289 12.1368 14.1006 12.086 13.6715 12.039C13.6482 12.0365 13.625 12.0327 13.6017 12.0295C13.585 12.0272 13.588 12.0086 13.6022 12.0083Z" fill="white"/>
<path d="M17.464 15.168C17.4801 15.187 17.4639 15.2159 17.4394 15.2116C16.9113 15.118 16.3945 15.107 15.8824 15.0503C15.5448 15.0129 15.2085 14.9669 14.8902 14.8379C14.89 14.8379 14.89 14.8378 14.8899 14.8378C14.8706 14.8299 14.8678 14.8039 14.8847 14.7917C15.4356 14.3887 15.7455 13.8516 15.8159 13.1721C15.818 13.1513 15.8423 13.1412 15.8589 13.1541C16.0595 13.3096 16.2157 13.487 16.364 13.6723C16.6426 14.0206 16.8817 14.3972 17.1432 14.7577C17.2424 14.8946 17.3455 15.0287 17.464 15.168Z" fill="white"/>
<path d="M12.4469 12.3473C12.4287 12.3236 12.4487 12.2898 12.4782 12.2942C12.5468 12.3046 12.6141 12.3151 12.6816 12.3229C13.1306 12.375 13.5801 12.4245 14.029 12.4784C14.1644 12.4946 14.2981 12.5245 14.4332 12.544C14.4814 12.551 14.4936 12.5676 14.4858 12.616C14.4003 13.1462 14.1506 13.5809 13.7349 13.9212C13.6956 13.9533 13.6773 13.9456 13.6464 13.9104C13.3305 13.5504 13.0597 13.1561 12.7733 12.7734C12.666 12.6303 12.5555 12.4895 12.4469 12.3473Z" fill="white"/>
<path d="M17.1705 9.89276C17.1564 9.89062 17.1492 9.87466 17.1571 9.86286C17.3443 9.5837 17.5357 9.31875 17.7521 9.07217C17.7812 9.03905 17.8044 9.05366 17.8322 9.06426C18.2764 9.23294 18.674 9.47777 19.0247 9.7977C19.4456 10.1816 19.7672 10.6341 19.9396 11.1808C20.2029 12.0159 20.0707 12.8008 19.5987 13.5274C19.1673 14.1919 18.564 14.6497 17.8278 14.9361C17.7914 14.9502 17.7706 14.946 17.7441 14.9158C17.5281 14.6709 17.3396 14.4055 17.1573 14.1353C17.1573 14.1352 17.1572 14.1352 17.1572 14.1351C17.1496 14.1237 17.1577 14.1082 17.1713 14.1062C18.3236 13.9402 19.1324 13.0318 19.093 11.9296C19.0569 10.9227 18.3156 10.0639 17.1705 9.89276Z" fill="white"/>
<path d="M10.2709 12.0342C9.9353 12.0713 9.60639 12.1051 9.27467 12.1704C8.67692 12.2882 8.12194 12.4969 7.6682 12.9228C7.41907 13.1566 7.21272 13.4256 7.01628 13.7033C7.00086 13.7251 6.98839 13.7411 6.95541 13.7397C6.57448 13.7241 6.21902 13.6318 5.90875 13.3996C5.88461 13.3815 5.86115 13.3623 5.83178 13.339C5.82575 13.3341 5.82776 13.3244 5.83527 13.3223C5.94388 13.2923 6.04377 13.2616 6.14004 13.2207C6.46185 13.0839 6.7394 12.8894 6.92886 12.5897C7.18094 12.1909 7.14071 11.7003 6.83299 11.3313C6.58252 11.031 6.2571 10.8496 5.88716 10.7399C5.86919 10.7345 5.85109 10.7294 5.83339 10.7231C5.82508 10.7202 5.81623 10.7137 5.82132 10.7086C5.92604 10.6086 6.049 10.5357 6.17839 10.4743C6.41679 10.361 6.67048 10.3132 6.93302 10.303C6.97633 10.3013 6.99067 10.3265 7.00931 10.3528C7.16914 10.5779 7.33969 10.7941 7.5309 10.994C7.9176 11.398 8.39293 11.6451 8.92645 11.7912C9.34425 11.9057 9.77252 11.9566 10.2016 12.0035C10.2249 12.006 10.2481 12.0098 10.2714 12.013C10.2881 12.0153 10.2851 12.0339 10.2709 12.0342Z" fill="white"/>
<path d="M6.40879 8.87448C6.3927 8.85557 6.40892 8.82661 6.43346 8.8309C6.96148 8.92449 7.47838 8.93549 7.99045 8.99221C8.32807 9.02962 8.66435 9.07561 8.98267 9.2046C8.9828 9.2046 8.9828 9.20473 8.98294 9.20473C9.00225 9.21264 9.00506 9.23865 8.98817 9.25085C8.43722 9.65378 8.12721 10.1909 8.05695 10.8705C8.05481 10.8912 8.03054 10.9013 8.01391 10.8884C7.81332 10.7329 7.65711 10.5555 7.50881 10.3702C7.23019 10.022 6.99111 9.64533 6.72965 9.28478C6.63043 9.14788 6.52732 9.01379 6.40879 8.87448Z" fill="white"/>
<path d="M11.4263 11.6952C11.4445 11.719 11.4246 11.7528 11.3951 11.7483C11.3264 11.7379 11.2591 11.7274 11.1917 11.7196C10.7426 11.6675 10.2932 11.618 9.84424 11.5641C9.70882 11.5479 9.57514 11.518 9.43998 11.4985C9.39184 11.4916 9.37964 11.4749 9.38742 11.4265C9.47296 10.8964 9.72263 10.4617 10.1383 10.1214C10.1776 10.0892 10.1959 10.097 10.2268 10.1321C10.5427 10.4921 10.8135 10.8864 11.0999 11.2691C11.2072 11.4122 11.3177 11.5531 11.4263 11.6952Z" fill="white"/>
<path d="M6.70254 14.1498C6.71662 14.1519 6.72386 14.1679 6.71595 14.1797C6.52877 14.4588 6.33729 14.7238 6.12088 14.9704C6.09179 15.0035 6.06859 14.9889 6.04083 14.9783C5.59661 14.8096 5.19905 14.5647 4.84829 14.2448C4.4274 13.8609 4.10586 13.4084 3.93343 12.8617C3.67009 12.0267 3.8023 11.2417 4.27427 10.5151C4.70576 9.85061 5.309 9.39285 6.04526 9.10645C6.0816 9.09237 6.10238 9.09652 6.12893 9.12669C6.34494 9.37167 6.53346 9.63702 6.71568 9.9072C6.71568 9.90733 6.71581 9.90733 6.71581 9.90747C6.72346 9.91886 6.71528 9.93428 6.70174 9.93629C5.54942 10.1023 4.74062 11.0107 4.78004 12.1129C4.81611 13.1199 5.55746 13.9787 6.70254 14.1498Z" fill="white"/>
</svg>
