<svg width="24" height="24" viewBox="0 0 24 24" fill="none" xmlns="http://www.w3.org/2000/svg">
<circle cx="12" cy="12" r="12" fill="black"/>
<path fill-rule="evenodd" clip-rule="evenodd" d="M11.9523 4.54019L9.01531 8.98172L8.13431 8.52091L11.5746 3.36764C12.036 2.99048 12.3299 3.36764 12.3299 3.36764L15.6864 8.39469L14.973 9.02354L11.9523 4.54019ZM11.7003 19.8327L6.49805 16.5645L7.16965 15.9364L11.9943 18.9111L16.6513 15.9364L17.4486 16.5645L12.3301 19.8327H11.7003Z" fill="white" fill-opacity="0.703"/>
<path d="M12.0363 17.9477C12.2039 17.3607 12.414 16.8162 12.5823 16.2299C13.3377 13.8833 14.0923 11.4949 14.8476 9.14903C14.8895 9.02355 14.9314 8.85551 14.9733 8.73079C15.0571 8.47835 15.1827 8.35288 15.4347 8.35288C15.6609 8.34693 15.8573 8.50744 15.8962 8.73004C16.1056 9.56801 16.2739 10.4478 16.4833 11.2858C16.861 12.8781 17.1968 14.5122 17.5744 16.1037C17.6582 16.4809 17.5326 16.7325 17.2386 16.8162C16.9447 16.8998 16.7353 16.6907 16.6515 16.3136C16.232 14.5122 15.8124 12.71 15.4347 10.8668C15.4347 10.7831 15.3929 10.7413 15.351 10.6151C15.3162 10.7297 15.2739 10.842 15.2246 10.9512C14.4281 13.3807 13.6727 15.8109 12.8755 18.2404C12.7498 18.7012 12.5816 19.1202 12.4559 19.581C12.3721 19.8746 12.2039 20 11.9526 20C11.7005 20 11.533 19.8746 11.4493 19.5818C10.5264 16.6907 9.60273 13.7997 8.72172 10.9086C8.67984 10.825 8.67984 10.7831 8.63796 10.6151C8.56312 10.9942 8.47933 11.3714 8.38667 11.7466C8.05012 13.2552 7.71507 14.8049 7.37927 16.3136C7.29551 16.7318 6.96045 16.9417 6.6239 16.7318C6.4145 16.6063 6.37262 16.3972 6.4145 16.1455C6.87594 14.0506 7.37927 11.9557 7.84071 9.86152C7.92448 9.52544 8.00899 9.19085 8.05012 8.85551C8.13463 8.52092 8.30216 8.35288 8.5542 8.35288C8.80623 8.35288 8.97301 8.52092 9.05752 8.85551C10.0223 11.8728 10.9871 14.9311 11.9107 17.9477H12.0363Z" fill="white"/>
</svg>
