<svg width="24" height="24" viewBox="0 0 24 24" fill="none" xmlns="http://www.w3.org/2000/svg">
<circle cx="12" cy="12" r="12" fill="#7967EF"/>
<path fill-rule="evenodd" clip-rule="evenodd" d="M12.0003 9.44019C11.4515 8.68748 10.5879 8.2 9.61044 8.2C7.93884 8.2 6.6001 9.62568 6.6001 11.3655V14.9966L6.60034 15.0139C6.60954 15.3487 6.8838 15.6172 7.22079 15.6172C7.56359 15.6172 7.84148 15.3394 7.84148 14.9966V11.3655L7.84172 11.3335C7.85751 10.2774 8.65218 9.44138 9.61044 9.44138C10.5784 9.44138 11.3794 10.2944 11.3794 11.3655V14.9966L11.3796 15.0139C11.3888 15.3487 11.6631 15.6172 12.0001 15.6172C12.3429 15.6172 12.6208 15.3394 12.6208 14.9966V11.3655L12.6204 11.3134C12.6096 10.6109 12.3806 9.96186 12.0003 9.44019Z" fill="white"/>
</svg>
