<svg width="24" height="24" viewBox="0 0 24 24" fill="none" xmlns="http://www.w3.org/2000/svg">
<circle cx="12" cy="12" r="12" fill="#EDF0F4"/>
<path fill-rule="evenodd" clip-rule="evenodd" d="M13.9874 11.0011H12.8121C12.5901 11.0011 12.3772 10.913 12.2202 10.756C12.0632 10.599 11.9751 10.3861 11.9751 10.1641V8.91192C11.9752 8.82917 11.9423 8.74979 11.8838 8.69128C11.8253 8.63276 11.7459 8.59992 11.6632 8.59998H10.1056C10.0229 8.59992 9.94352 8.63276 9.885 8.69128C9.82649 8.74979 9.79364 8.82917 9.7937 8.91192V10.4695C9.79364 10.5522 9.82649 10.6316 9.885 10.6901C9.94352 10.7486 10.0229 10.7815 10.1056 10.7814H10.6768C10.7081 10.777 10.7397 10.7748 10.7713 10.7748H11.2809C11.5029 10.7748 11.7159 10.8629 11.8728 11.0199C12.0298 11.1769 12.118 11.3898 12.1179 11.6118V15.0586C12.1179 15.1413 12.1507 15.2207 12.2092 15.2792C12.2677 15.3377 12.3471 15.3706 12.4299 15.3705H13.9874C14.0701 15.3706 14.1495 15.3377 14.208 15.2792C14.2666 15.2207 14.2994 15.1413 14.2993 15.0586V11.313C14.2994 11.2303 14.2666 11.1509 14.208 11.0924C14.1495 11.0339 14.0701 11.001 13.9874 11.0011ZM7.18142 10.4695V8.91192C7.18148 8.82917 7.14863 8.74979 7.09012 8.69128C7.03161 8.63276 6.95223 8.59992 6.86948 8.59998H5.31195C5.2292 8.59992 5.14982 8.63276 5.0913 8.69128C5.03279 8.74979 4.99994 8.82917 5 8.91192V10.4695C4.99994 10.5522 5.03279 10.6316 5.0913 10.6901C5.14982 10.7486 5.2292 10.7815 5.31195 10.7814H6.86948C6.95223 10.7815 7.03161 10.7486 7.09012 10.6901C7.14863 10.6316 7.18148 10.5522 7.18142 10.4695ZM7.78971 11.0011H9.34725C9.43 11.0011 9.50938 11.0339 9.56789 11.0924C9.6264 11.1509 9.65925 11.2303 9.65919 11.3131V15.0608C9.65925 15.1436 9.6264 15.2229 9.56789 15.2815C9.50938 15.34 9.43 15.3728 9.34725 15.3728H7.78971C7.70696 15.3728 7.62758 15.34 7.56907 15.2815C7.51055 15.2229 7.47771 15.1436 7.47777 15.0608V11.3131C7.47771 11.2303 7.51055 11.1509 7.56907 11.0924C7.62758 11.0339 7.70696 11.0011 7.78971 11.0011ZM17.3216 11.0011H18.4969C18.5796 11.0005 18.659 11.0332 18.7173 11.0919C18.7756 11.1506 18.8078 11.2303 18.8066 11.313V15.0586C18.8067 15.1413 18.7738 15.2207 18.7153 15.2792C18.6568 15.3377 18.5774 15.3706 18.4947 15.3705H16.9371C16.8544 15.3706 16.775 15.3377 16.7165 15.2792C16.658 15.2207 16.6251 15.1413 16.6252 15.0586V11.6118C16.6252 11.3898 16.5371 11.1769 16.3801 11.0199C16.2231 10.8629 16.0102 10.7748 15.7882 10.7748H15.2785C15.2469 10.7748 15.2154 10.777 15.1841 10.7814H14.6129C14.5302 10.7815 14.4508 10.7486 14.3923 10.6901C14.3338 10.6316 14.3009 10.5522 14.301 10.4695V8.91192C14.3009 8.82917 14.3338 8.74979 14.3923 8.69128C14.4508 8.63276 14.5302 8.59992 14.6129 8.59998H16.1726C16.2554 8.59992 16.3348 8.63276 16.3933 8.69128C16.4518 8.74979 16.4846 8.82917 16.4846 8.91192V10.1641C16.4845 10.3861 16.5727 10.599 16.7297 10.756C16.8866 10.913 17.0996 11.0011 17.3216 11.0011Z" fill="#231F20"/>
</svg>
