<svg width="24" height="24" viewBox="0 0 24 24" fill="none" xmlns="http://www.w3.org/2000/svg">
<circle cx="12" cy="12" r="12" fill="#7833F6"/>
<path fill-rule="evenodd" clip-rule="evenodd" d="M7.69984 12.0514C7.89234 12.2433 8.1531 12.3511 8.42496 12.3511C8.69681 12.3511 8.95757 12.2433 9.15007 12.0514L12.0513 9.15018C12.2432 8.95768 12.351 8.69692 12.351 8.42507C12.351 8.15321 12.2432 7.89245 12.0513 7.69995C11.8588 7.50788 11.5979 7.40001 11.326 7.40001C11.054 7.40001 10.7932 7.50788 10.6007 7.69995L7.69984 10.6008C7.50777 10.7933 7.3999 11.0541 7.3999 11.3261C7.3999 11.598 7.50777 11.8589 7.69984 12.0514ZM11.7493 14.6502L14.6501 11.7494C14.8427 11.5573 15.1035 11.4494 15.3755 11.4494C15.6474 11.4494 15.9082 11.5573 16.1007 11.7494C16.2928 11.9419 16.4007 12.2028 16.4007 12.4747C16.4007 12.7467 16.2928 13.0075 16.1007 13.2L13.1999 16.1008C13.0074 16.2929 12.7466 16.4008 12.4746 16.4008C12.2027 16.4008 11.9418 16.2929 11.7493 16.1008C11.5572 15.9083 11.4494 15.6475 11.4494 15.3755C11.4494 15.1036 11.5572 14.8428 11.7493 14.6502ZM11.537 13.2877C11.2651 13.2877 11.0042 13.1799 10.8117 12.9878C10.6197 12.7953 10.5118 12.5344 10.5118 12.2625C10.5118 11.9905 10.6197 11.7297 10.8117 11.5372L11.537 10.8119C11.7295 10.6198 11.9904 10.5119 12.2623 10.5119C12.5343 10.5119 12.7951 10.6198 12.9876 10.8119C13.1797 11.0044 13.2876 11.2652 13.2876 11.5372C13.2876 11.8091 13.1797 12.07 12.9876 12.2625L12.2623 12.9878C12.0698 13.1799 11.809 13.2877 11.537 13.2877Z" fill="white"/>
</svg>
