<svg width="24" height="24" viewBox="0 0 24 24" fill="none" xmlns="http://www.w3.org/2000/svg">
<path d="M12 24C18.6276 24 24 18.6276 24 12C24 5.3724 18.6276 0 12 0C5.3724 0 0 5.3724 0 12C0 18.6276 5.3724 24 12 24Z" fill="url(#paint0_linear_300_11062)"/>
<path fill-rule="evenodd" clip-rule="evenodd" d="M11.7162 15.4013H11.9823H12.2484C12.4296 15.4013 12.5455 15.3614 12.581 15.3348C12.7872 13.5477 13.2541 9.81508 13.4723 9.18182C13.6905 8.54856 14.3393 8.24834 14.6364 8.17738C14.6452 7.78492 14.8386 7 15.541 7C16.2435 7 16.3215 7.85587 16.2727 8.28381C16.3836 8.32151 16.6838 8.46874 16.9978 8.7561C17.3118 9.04346 17.3725 9.80709 17.3637 10.153V16.7051H15.9934V8.47672C15.9047 8.44346 15.6661 8.37162 15.4213 8.35033C15.1765 8.32905 14.9778 8.37251 14.9091 8.39689C14.7694 9.62749 14.4448 12.416 14.2639 13.7251C14.0829 15.0341 13.1996 15.5299 12.7805 15.6142C12.8404 15.6896 12.9029 15.9574 12.6741 16.4257C12.4465 16.8914 12.1182 16.8914 11.9845 16.8913H11.9823H11.98C11.8448 16.8914 11.518 16.8914 11.2905 16.4257C11.0617 15.9574 11.1242 15.6896 11.1841 15.6142C10.765 15.5299 9.88162 15.0341 9.70069 13.7251C9.51975 12.416 9.19514 9.62749 9.05545 8.39689C8.98671 8.37251 8.78805 8.32905 8.54326 8.35033C8.29847 8.37162 8.05988 8.44346 7.9712 8.47672V16.7051H6.6009V10.153C6.59203 9.80709 6.65279 9.04346 6.96676 8.7561C7.28072 8.46874 7.58095 8.32151 7.69181 8.28381C7.64303 7.85587 7.72108 7 8.42351 7C9.12595 7 9.31931 7.78492 9.32817 8.17738C9.62529 8.24834 10.2741 8.54856 10.4922 9.18182C10.7104 9.81508 11.1774 13.5477 11.3836 15.3348C11.4191 15.3614 11.535 15.4013 11.7162 15.4013Z" fill="#FFFFFD"/>
<defs>
<linearGradient id="paint0_linear_300_11062" x1="-6.10883" y1="8.12878" x2="8.44027" y2="30.4539" gradientUnits="userSpaceOnUse">
<stop stop-color="#E1804D"/>
<stop offset="1" stop-color="#9069DD"/>
</linearGradient>
</defs>
</svg>
