<svg width="24" height="24" viewBox="0 0 24 24" fill="none" xmlns="http://www.w3.org/2000/svg">
<circle cx="12" cy="12" r="12" fill="black"/>
<path fill-rule="evenodd" clip-rule="evenodd" d="M16.3219 5.09811C16.3219 5.59357 15.9251 5.99685 15.4366 5.99685C14.9482 5.99685 14.5513 5.59613 14.5513 5.10067C14.5513 4.60521 14.9482 4.20257 15.4366 4.20001C15.9251 4.20001 16.3219 4.60265 16.3219 5.09811ZM16.4473 7.57099C16.4505 7.98814 16.1149 8.32887 15.6977 8.33204C15.2829 8.33204 14.9481 7.99219 14.9481 7.57099C14.9481 7.14978 15.2836 6.80988 15.6977 6.80988C16.1119 6.80988 16.4473 7.15234 16.4473 7.57099ZM17.7556 8.62968C18.1678 8.62968 18.5033 8.28977 18.5033 7.87049C18.5033 7.4512 18.1678 7.1113 17.7556 7.1113C17.3434 7.1113 17.0079 7.4512 17.0079 7.87049C17.0079 8.28977 17.344 8.62968 17.7556 8.62968ZM18.1481 9.97908C18.1481 10.3369 17.8619 10.6275 17.5086 10.6275C17.1552 10.6275 16.8691 10.3369 16.8691 9.97908C16.8691 9.62125 17.1552 9.33063 17.5086 9.33063C17.8619 9.33063 18.1481 9.62125 18.1481 9.97908ZM19.1563 11.2753C19.5122 11.2753 19.8002 10.9828 19.8002 10.6224C19.8002 10.262 19.5122 9.96949 19.1563 9.96949C18.9843 9.97067 18.8198 10.0401 18.6991 10.1626C18.5783 10.285 18.5111 10.4504 18.5123 10.6224C18.5123 10.9828 18.801 11.2753 19.1563 11.2753ZM15.9029 10.1616C15.7799 10.2859 15.6126 10.3564 15.4378 10.3574C15.0754 10.3574 14.7823 10.0578 14.7823 9.69295C14.7823 9.32551 15.0748 9.02849 15.4378 9.02849C15.8007 9.02849 16.0932 9.32615 16.0932 9.69295V9.69423C16.0943 9.86909 16.0258 10.0372 15.9029 10.1616ZM14.8437 11.9468C15.1477 11.9468 15.3929 11.6972 15.3929 11.3906C15.3954 11.0858 15.1504 10.8368 14.8456 10.8343H14.8437C14.5396 10.8343 14.2944 11.0839 14.2944 11.3906C14.2944 11.6972 14.5396 11.9468 14.8437 11.9468ZM17.2916 12.0645C17.1895 12.1681 17.0504 12.2268 16.9049 12.2278H16.8996C16.7547 12.226 16.6164 12.1666 16.5152 12.0628C16.414 11.9589 16.3583 11.8192 16.3601 11.6742C16.3601 11.3682 16.6034 11.1205 16.9049 11.1205C17.2064 11.1205 17.4496 11.3682 17.4496 11.6742V11.6755C17.4506 11.821 17.3938 11.9609 17.2916 12.0645ZM18.5482 12.8731C18.8522 12.8731 19.0974 12.6234 19.0974 12.3149C19.0974 12.0064 18.8522 11.7567 18.5482 11.7567C18.2441 11.7567 17.9989 12.0064 17.9989 12.3149C17.9957 12.62 18.2405 12.8699 18.5455 12.8731H18.5482ZM18.2007 13.6086C18.2007 13.8672 17.9933 14.0791 17.7366 14.0791C17.4799 14.0791 17.2725 13.8672 17.2725 13.6086C17.2725 13.35 17.4799 13.1381 17.7366 13.1381C17.9933 13.1381 18.2007 13.35 18.2007 13.6086ZM16.0857 13.4441C16.3468 13.4441 16.5606 13.2277 16.5606 12.9621C16.5606 12.6964 16.3488 12.4801 16.0857 12.4801C15.8226 12.4801 15.6107 12.6964 15.6107 12.9621C15.6107 13.2277 15.8245 13.4441 16.0857 13.4441ZM14.4971 12.6724C14.4969 12.9331 14.2877 13.1455 14.027 13.1496H14.0264C13.7657 13.1452 13.5567 12.9325 13.5569 12.6718C13.5571 12.4111 13.7663 12.1987 14.027 12.1946H14.0277C14.2883 12.199 14.4973 12.4117 14.4971 12.6724ZM15.1714 14.2827C15.3986 14.2827 15.5811 14.0958 15.5811 13.8685C15.5832 13.6419 15.4012 13.4565 15.1747 13.4544H15.1714C14.9441 13.4544 14.7617 13.6413 14.7617 13.8685C14.7592 14.0948 14.9406 14.2802 15.1668 14.2827H15.1714ZM17.2359 14.5099C17.2359 14.7416 17.0489 14.9286 16.8217 14.9286C16.5905 14.9286 16.4031 14.7411 16.4031 14.5099C16.4031 14.2787 16.5905 14.0913 16.8217 14.0913C17.0515 14.0913 17.2359 14.2782 17.2359 14.5099ZM15.8922 15.4131C16.0721 15.4131 16.2187 15.2646 16.2187 15.0822C16.2198 14.9007 16.0737 14.7526 15.8922 14.7512C15.7124 14.7512 15.5658 14.8997 15.5658 15.0822C15.5654 15.2634 15.7111 15.411 15.8922 15.4131ZM15.2209 15.5847C15.1655 15.6408 15.0902 15.6725 15.0115 15.673L15.0056 15.673C14.843 15.6701 14.7135 15.536 14.7164 15.3734V15.3727C14.7159 15.2939 14.7467 15.2182 14.802 15.1622C14.8574 15.1061 14.9327 15.0744 15.0115 15.0739C15.1734 15.0739 15.3066 15.207 15.3066 15.3734V15.3742C15.307 15.453 15.2762 15.5287 15.2209 15.5847ZM14.2401 14.8114C14.434 14.8114 14.5915 14.6514 14.5915 14.4555C14.5915 14.2596 14.434 14.0996 14.2401 14.0996C14.0461 14.0996 13.8886 14.2596 13.8886 14.4555C13.8882 14.6505 14.0451 14.8093 14.2401 14.8114ZM13.5181 13.5811C13.5181 13.8109 13.3337 13.9952 13.1084 13.9952C12.8813 13.9931 12.6984 13.8082 12.6987 13.5811C12.6987 13.3513 12.8831 13.1669 13.1084 13.1669C13.3357 13.1669 13.5181 13.3513 13.5181 13.5811ZM16.4646 19.1841C16.9511 19.1841 17.3454 18.7834 17.3454 18.2899C17.3454 17.7963 16.9511 17.3956 16.4646 17.3956C15.9781 17.3956 15.5838 17.7963 15.5838 18.2899C15.5838 18.7834 15.9781 19.1841 16.4646 19.1841ZM14.9615 17.3073C14.9615 17.7189 14.6325 18.0524 14.2273 18.0524C13.8214 18.0524 13.4931 17.7189 13.4931 17.3073C13.4931 16.8957 13.8221 16.5622 14.2273 16.5622C14.6325 16.5622 14.9615 16.8957 14.9615 17.3073ZM12.9491 19.6905C13.3588 19.6905 13.6898 19.355 13.6898 18.9383C13.6898 18.5242 13.3588 18.1862 12.9491 18.1862C12.5395 18.1862 12.2085 18.5216 12.2085 18.9383C12.2053 19.3505 12.5369 19.6873 12.9491 19.6905H12.9491ZM13.0202 16.4797C12.8998 16.6018 12.7358 16.6711 12.5644 16.6723C12.211 16.6723 11.9229 16.3797 11.9223 16.0213C11.9211 15.8498 11.9881 15.6849 12.1085 15.5628C12.2289 15.4407 12.3929 15.3714 12.5644 15.3703C12.7358 15.3714 12.8998 15.4407 13.0202 15.5628C13.1406 15.6849 13.2076 15.8498 13.2064 16.0213C13.2076 16.1927 13.1406 16.3577 13.0202 16.4797ZM11.2891 18.3328C11.6425 18.3328 11.9286 18.0421 11.9286 17.6843C11.9286 17.3265 11.6425 17.0359 11.2891 17.0359C10.9358 17.0359 10.6496 17.3265 10.6496 17.6843C10.6461 18.0389 10.9307 18.3292 11.2852 18.3328H11.2891ZM10.5523 18.8128C10.5523 19.1688 10.2681 19.4594 9.91472 19.4594C9.56329 19.4594 9.27716 19.1688 9.27716 18.8128C9.27716 18.4569 9.56137 18.1663 9.91472 18.1663C10.2662 18.1663 10.5523 18.455 10.5523 18.8128ZM8.77088 17.9928C9.07332 17.9901 9.31673 17.7435 9.31562 17.441C9.31562 17.137 9.07238 16.8893 8.77088 16.8893C8.46941 16.8939 8.22743 17.1395 8.22743 17.441C8.22743 17.7426 8.46941 17.9882 8.77088 17.9928ZM10.6925 16.3093C10.6943 16.612 10.4505 16.859 10.1478 16.8611H10.1459C9.84439 16.856 9.6028 16.6099 9.60333 16.3084C9.60385 16.0068 9.84629 15.7616 10.1478 15.7575C10.4493 15.7575 10.6925 16.0033 10.6925 16.3093ZM11.4325 15.2012C11.578 15.2002 11.7171 15.1415 11.8193 15.0379C11.9214 14.9343 11.9782 14.7944 11.9772 14.6489V14.6476C11.9772 14.3416 11.734 14.0939 11.4325 14.0939C11.287 14.0949 11.1479 14.1536 11.0457 14.2572C10.9436 14.3608 10.8867 14.5007 10.8877 14.6462V14.6475C10.8877 14.9535 11.131 15.2012 11.4325 15.2012ZM9.94051 14.9503C9.94051 15.216 9.72863 15.4298 9.46746 15.4298C9.20629 15.4298 8.9944 15.216 8.9944 14.9503C8.9944 14.6847 9.20629 14.4709 9.46746 14.4709C9.72863 14.4709 9.94051 14.6847 9.94051 14.9503ZM8.09745 16.557C8.22241 16.5564 8.34197 16.5061 8.42985 16.4172C8.51772 16.3284 8.56671 16.2083 8.56603 16.0833V16.0821C8.56851 15.8222 8.3599 15.6096 8.10008 15.6071H8.09745C7.9725 15.6078 7.85293 15.6581 7.76506 15.7469C7.67718 15.8357 7.6282 15.9558 7.62888 16.0808V16.0821C7.62803 16.2072 7.67692 16.3275 7.76479 16.4166C7.85267 16.5057 7.97233 16.5562 8.09745 16.557ZM8.18762 14.8261C8.18833 15.0509 8.00722 15.2341 7.78242 15.2358C7.55965 15.2358 7.37722 15.0534 7.37722 14.8261C7.37722 14.6008 7.55965 14.4165 7.78242 14.4165C8.00518 14.4165 8.18762 14.5989 8.18762 14.8261ZM7.77104 14.0765C7.86391 14.0757 7.95263 14.038 8.0177 13.9717C8.08277 13.9055 8.11884 13.8161 8.11799 13.7232C8.11799 13.5292 7.96244 13.3698 7.77104 13.3698C7.57964 13.3698 7.42409 13.5273 7.42409 13.7232C7.42409 13.9191 7.57964 14.0765 7.77104 14.0765ZM8.25693 12.8129C8.25693 12.9774 8.12634 13.1125 7.96183 13.1125C7.79732 13.1125 7.66673 12.9774 7.66673 12.8129C7.66673 12.6484 7.79732 12.5133 7.96183 12.5133C8.12378 12.5133 8.25693 12.6484 8.25693 12.8129ZM9.14271 12.9512C9.33667 12.9512 9.49414 12.7912 9.49414 12.5953C9.49414 12.3994 9.33667 12.2394 9.14271 12.2394C8.94875 12.2394 8.79128 12.3994 8.79128 12.5953C8.79057 12.7904 8.9476 12.9494 9.14271 12.9512ZM10.8488 12.032C10.8488 12.2592 10.6644 12.4461 10.4391 12.4461H10.4372C10.3282 12.4453 10.224 12.4012 10.1475 12.3235C10.0711 12.2458 10.0286 12.141 10.0294 12.032C10.0294 11.8047 10.2138 11.6178 10.4391 11.6178H10.4424C10.669 11.62 10.8509 11.8054 10.8488 12.032ZM10.7476 13.761C11.0043 13.7604 11.212 13.552 11.2117 13.2954C11.2115 13.0387 11.0033 12.8307 10.7466 12.8307C10.4899 12.8307 10.2818 13.0387 10.2815 13.2954C10.2812 13.552 10.489 13.7604 10.7457 13.761H10.7476ZM9.56461 13.6989C9.56461 13.9268 9.38474 14.1111 9.15941 14.1111V14.111H9.1548C9.04702 14.1095 8.94426 14.0652 8.86914 13.9879C8.79401 13.9106 8.75267 13.8066 8.75421 13.6989V13.6969C8.75353 13.5887 8.79584 13.4848 8.87183 13.4078C8.94782 13.3309 9.05127 13.2873 9.15941 13.2866C9.38218 13.2866 9.56461 13.471 9.56461 13.6989ZM4.67855 13.4998C5.16249 13.4998 5.5568 13.101 5.5568 12.61C5.5568 12.119 5.16249 11.7202 4.67855 11.7202C4.19461 11.7202 3.80029 12.1197 3.80029 12.6107C3.80029 13.1016 4.19461 13.4998 4.67855 13.4998ZM7.42405 11.1473C7.42405 11.5685 7.08863 11.911 6.6719 11.911C6.25774 11.911 5.91975 11.5711 5.91975 11.1473V11.146C5.91695 10.7278 6.25369 10.3865 6.6719 10.3836C7.08606 10.3836 7.42405 10.7261 7.42405 11.1473ZM5.89416 9.95219C6.30832 9.95219 6.64183 9.61228 6.64183 9.193C6.64183 8.77371 6.3064 8.4338 5.89416 8.4338C5.69451 8.43514 5.50357 8.51574 5.36335 8.65787C5.22313 8.79999 5.14512 8.992 5.14649 9.19165V9.193C5.14226 9.60801 5.47523 9.9479 5.89025 9.95219H5.89416ZM8.45774 8.37299C8.45774 8.73339 8.16904 9.02401 7.81569 9.02401C7.46234 9.02401 7.17364 8.73339 7.17364 8.37299C7.17364 8.0126 7.4617 7.72198 7.81569 7.72198C8.16968 7.72198 8.45774 8.0126 8.45774 8.37299ZM8.60126 10.9783C8.95717 10.9783 9.24523 10.6858 9.24523 10.3254C9.24523 9.96498 8.95717 9.67244 8.60126 9.67244C8.24535 9.67244 7.95729 9.96498 7.95729 10.3254C7.95729 10.6858 8.24535 10.9783 8.60126 10.9783ZM10.8974 10.0163C10.8998 10.321 10.6548 10.57 10.35 10.5725L10.3461 10.5725C10.0425 10.569 9.79921 10.3199 9.80273 10.0163V9.9995C9.80573 9.80396 9.91282 9.62488 10.0837 9.52971C10.2545 9.43453 10.4631 9.43773 10.631 9.53809C10.7988 9.63845 10.9003 9.82073 10.8974 10.0163ZM11.8608 10.5776C12.1219 10.5776 12.3338 10.3638 12.3338 10.1001C12.3338 9.83633 12.1219 9.62253 11.8608 9.62253C11.597 9.62253 11.3832 9.83633 11.3832 10.1001C11.3832 10.3638 11.597 10.5776 11.8608 10.5776ZM13.5078 10.4617C13.5078 10.6851 13.3272 10.865 13.109 10.865C12.89 10.865 12.7127 10.6826 12.7102 10.4617C12.7094 10.2404 12.8877 10.0602 13.109 10.0584C13.3298 10.0584 13.5078 10.2383 13.5078 10.4617ZM13.2716 9.39401C13.4644 9.39263 13.6197 9.23537 13.6186 9.04258C13.6186 8.84862 13.463 8.69115 13.2716 8.69115C13.0802 8.69115 12.9247 8.84862 12.9247 9.04258C12.9236 9.23537 13.0789 9.39263 13.2716 9.39401ZM12.7104 8.51231C12.7106 8.73294 12.5322 8.91208 12.3115 8.91263H12.3096C12.0889 8.91208 11.9104 8.73294 11.9107 8.51231C11.911 8.29169 12.0899 8.11299 12.3105 8.11299C12.5312 8.11299 12.7101 8.29169 12.7104 8.51231ZM11.0778 8.62072C11.3382 8.61861 11.5478 8.40616 11.5464 8.14575C11.5464 7.88201 11.337 7.67077 11.0778 7.67077C10.8185 7.67077 10.6092 7.88457 10.6092 8.14575C10.6082 8.2707 10.6568 8.39094 10.7445 8.48002C10.8321 8.56909 10.9515 8.61971 11.0765 8.62072H11.0778ZM10.1189 8.06638C10.1189 8.373 9.87369 8.62265 9.56963 8.62265C9.26472 8.61984 9.01933 8.3713 9.0204 8.06638C9.0204 7.75976 9.26557 7.51011 9.56963 7.51011C9.87369 7.51011 10.1189 7.75976 10.1189 8.06638ZM7.53859 7.23165C7.88298 7.23165 8.16016 6.94999 8.16016 6.60112C8.16016 6.25225 7.88106 5.9706 7.53859 5.9706C7.19421 5.9706 6.91703 6.25225 6.91703 6.60112C6.91703 6.94999 7.19613 7.23165 7.53859 7.23165ZM9.83595 6.29324C9.83595 6.59986 9.59078 6.84951 9.28672 6.84951C8.98266 6.84951 8.73749 6.59986 8.73749 6.29324C8.73749 5.98662 8.98266 5.73697 9.28672 5.73697C9.59078 5.73697 9.83595 5.98662 9.83595 6.29324ZM10.7969 6.85653C11.0581 6.85653 11.27 6.64272 11.27 6.37707C11.27 6.11142 11.0581 5.89762 10.7969 5.89762C10.6708 5.89829 10.5501 5.94905 10.4614 6.03873C10.3727 6.1284 10.3232 6.24965 10.3239 6.37579V6.37707C10.3228 6.63983 10.5342 6.8541 10.7969 6.85653ZM12.4349 6.73875C12.4349 6.96216 12.2569 7.14203 12.0361 7.14203C11.8133 7.14203 11.6328 6.96148 11.6328 6.73875C11.6328 6.51603 11.8133 6.33547 12.0361 6.33547C12.2569 6.33547 12.4349 6.51535 12.4349 6.73875ZM12.9879 7.6362C13.1857 7.63479 13.3449 7.47354 13.3438 7.27581C13.3438 7.07545 13.1838 6.91542 12.9879 6.91542C12.7921 6.91542 12.632 7.07737 12.632 7.27581C12.632 7.47425 12.7921 7.6362 12.9879 7.6362ZM13.894 8.11576C13.8391 8.17134 13.7644 8.20285 13.6863 8.20336L13.6864 8.2033H13.6818C13.6043 8.20214 13.5303 8.17019 13.4763 8.1145C13.4223 8.0588 13.3926 7.98393 13.3938 7.90634V7.9057C13.3933 7.82761 13.4238 7.75251 13.4787 7.69692C13.5335 7.64134 13.6082 7.60983 13.6863 7.60932H13.687C13.7651 7.61 13.8397 7.64167 13.8944 7.69738C13.9492 7.75308 13.9795 7.82825 13.9789 7.90634V7.90698C13.9794 7.98508 13.9488 8.06018 13.894 8.11576Z" fill="white"/>
</svg>
