<svg width="24" height="24" viewBox="0 0 24 24" fill="none" xmlns="http://www.w3.org/2000/svg">
<circle cx="12" cy="12" r="12" fill="#00316D"/>
<path fill-rule="evenodd" clip-rule="evenodd" d="M10.5357 15.7984C11.0553 15.7985 11.5748 15.7985 12.0944 15.7985C12.7467 15.7985 13.399 15.7984 14.0513 15.7984C16.0075 15.7983 17.9636 15.7981 19.9197 15.7992C20.0956 15.7992 20.2631 15.7676 20.3536 15.6017C20.4457 15.4306 20.3876 15.261 20.2895 15.1064C20.2283 15.0103 20.1659 14.9155 20.1035 14.8206C20.0827 14.789 20.062 14.7574 20.0412 14.7257C19.8326 14.4053 19.6198 14.0874 19.4069 13.7695C18.9354 13.0653 18.4639 12.3612 18.0387 11.6289C17.2977 10.353 16.589 9.05721 15.8804 7.76177C15.6127 7.27229 15.345 6.78285 15.0756 6.29454C14.9782 6.11663 14.8522 5.99073 14.6447 6.00053C14.4463 6.00958 14.3444 6.15206 14.2675 6.31942L12.3102 10.5787C12.2136 10.7883 12.1668 10.7944 12.0363 10.6104C11.8593 10.3594 11.6823 10.1085 11.5052 9.85768C11.0473 9.20891 10.5895 8.56028 10.1341 7.91007C10.0254 7.75477 9.87979 7.65677 9.70926 7.7201C9.58551 7.76533 9.4678 7.88067 9.39084 7.9945C8.9035 8.71737 8.41994 9.44314 7.93636 10.1689C7.64128 10.6118 7.3462 11.0547 7.05025 11.497C6.98966 11.5871 6.93039 11.6785 6.87108 11.77C6.69181 12.0466 6.51229 12.3235 6.2957 12.5659C5.7298 13.2003 5.14607 13.8194 4.56234 14.4385C4.36776 14.6449 4.17318 14.8513 3.97925 15.0582C3.84419 15.2022 3.74761 15.3545 3.83061 15.5603C3.91814 15.7774 4.10074 15.8 4.30295 15.8C6.38053 15.7982 8.45811 15.7983 10.5357 15.7984ZM14.855 7.64242L14.9123 7.63262C14.9228 7.64689 14.9338 7.66096 14.9447 7.67505C14.9709 7.70859 14.997 7.74223 15.0172 7.77887C15.6714 8.96092 16.3241 10.1445 16.9753 11.3281C16.994 11.3625 17.0015 11.4034 17.009 11.4441L17.009 11.4441C17.0127 11.464 17.0163 11.4839 17.0213 11.5029C17.0026 11.5032 16.9836 11.5046 16.9647 11.506L16.9646 11.506C16.923 11.5091 16.8813 11.5123 16.8425 11.5029C16.5647 11.4347 16.2873 11.3654 16.0099 11.296C15.6346 11.2023 15.2594 11.1085 14.8837 11.0175C14.7758 10.9918 14.7448 10.9376 14.7486 10.8335L14.8324 7.9907C14.8349 7.91223 14.8408 7.8341 14.8467 7.75631L14.8467 7.75625L14.8468 7.75612L14.8468 7.75599C14.8496 7.71805 14.8525 7.68019 14.855 7.64242ZM9.39854 9.463L9.44532 9.561C9.43426 9.66993 9.42382 9.77634 9.41356 9.88083C9.38465 10.1755 9.35722 10.455 9.32157 10.7333C9.30686 10.8092 9.26333 10.8764 9.20009 10.921C8.84029 11.152 8.47707 11.3777 8.11053 11.5979C8.08073 11.6162 8.04332 11.6207 8.00558 11.6253L8.00558 11.6253C7.98885 11.6273 7.97207 11.6294 7.95585 11.6326C7.96018 11.6155 7.96288 11.5974 7.96557 11.5794L7.96557 11.5794C7.97085 11.544 7.97609 11.5088 7.99358 11.4818C8.42049 10.8358 8.85008 10.1915 9.28234 9.54894C9.30001 9.52297 9.32986 9.50523 9.35955 9.48759C9.37296 9.47962 9.38633 9.47167 9.39854 9.463ZM13.718 14.9433C13.7199 14.9476 13.7226 14.9533 13.7267 14.9609C13.6045 15.0559 11.7566 15.0552 11.6102 14.9474L11.7588 14.7825C11.9105 14.6138 12.0617 14.4459 12.2154 14.2809C12.2312 14.2636 12.2818 14.2606 12.3067 14.2726C12.7084 14.4591 13.1089 14.6483 13.5094 14.8375L13.7116 14.933C13.7138 14.9343 13.7152 14.9374 13.718 14.9433ZM18.4972 15.0266H19.1204C19.2404 15.0266 19.2864 14.9813 19.2102 14.866L18.8702 14.3466C18.5879 13.915 18.3056 13.4836 18.0218 13.0537C18.0072 13.0307 17.9794 13.0168 17.9518 13.0028C17.9395 12.9967 17.9273 12.9905 17.9162 12.9836C17.9103 12.9953 17.9031 13.0071 17.8959 13.0189C17.8799 13.045 17.8637 13.0714 17.8611 13.099C17.836 13.4204 17.8123 13.7418 17.7885 14.0633L17.7885 14.0633L17.7885 14.0633L17.7885 14.0634L17.7885 14.0634L17.7885 14.0634L17.7885 14.0634L17.7885 14.0635L17.7885 14.0635L17.7885 14.0635C17.7687 14.3315 17.7489 14.5995 17.7283 14.8675C17.72 14.9798 17.7592 15.0303 17.8739 15.0281C18.0221 15.0249 18.1703 15.0255 18.3187 15.0261C18.3782 15.0263 18.4376 15.0266 18.4972 15.0266ZM5.20636 15.0054L5.20632 15.0054C5.18151 14.9983 5.15234 14.9899 5.11618 14.9813L5.19381 14.896C5.31753 14.7601 5.42029 14.6472 5.52514 14.5343C5.63635 14.4155 5.7477 14.2969 5.85906 14.1782L5.85908 14.1782L5.85909 14.1782L5.85925 14.178L5.85929 14.178C6.10902 13.9119 6.35881 13.6458 6.60716 13.3778C6.69997 13.2783 6.75429 13.2716 6.81315 13.4125C7.01525 13.8955 7.222 14.3765 7.43338 14.8554C7.48846 14.9813 7.45526 15.0273 7.32473 15.0273C6.9882 15.0265 6.65149 15.0265 6.31468 15.0265C5.97787 15.0265 5.64096 15.0265 5.30406 15.0258C5.27555 15.0253 5.24675 15.017 5.20636 15.0054ZM15.0723 11.5038C15.0884 11.535 15.1004 11.5597 15.1104 11.5801C15.1276 11.6153 15.1384 11.6375 15.1523 11.6576L16.0638 12.9798L16.204 13.1834L16.2042 13.1836L16.2043 13.1839L16.2045 13.1841L16.2046 13.1843L16.2048 13.1845L16.205 13.1848L16.2051 13.185C16.5344 13.6631 16.8636 14.141 17.1956 14.6172C17.2131 14.643 17.2419 14.6606 17.2704 14.6781C17.2836 14.6862 17.2968 14.6943 17.3088 14.7032C17.3152 14.6885 17.3228 14.6741 17.3304 14.6597C17.3463 14.6297 17.3621 14.5998 17.3661 14.5682C17.3766 14.4791 17.3813 14.3899 17.386 14.3008C17.388 14.2618 17.39 14.2228 17.3926 14.1838C17.4049 14.0073 17.4176 13.8309 17.4303 13.6546L17.4303 13.6542L17.4304 13.6537C17.4597 13.2465 17.4891 12.8395 17.5133 12.4325C17.5284 12.1838 17.4205 12.0556 17.1843 11.9968L16.7395 11.8855C16.2577 11.7649 15.7758 11.6442 15.2934 11.5249C15.2576 11.5163 15.2206 11.514 15.1717 11.5111C15.1433 11.5093 15.1109 11.5074 15.0723 11.5038ZM11.9986 13.355L11.9986 13.355L11.9986 13.3549C12.0094 13.3026 12.0177 13.2622 12.0192 13.2218C12.0231 13.0954 12.0256 12.9691 12.0281 12.8428C12.0318 12.6532 12.0355 12.4637 12.0441 12.2742C12.0576 12.0335 11.9861 11.7958 11.8419 11.6025C11.2428 10.772 10.6454 9.94021 10.0498 9.1072C10.0314 9.08163 10.0203 9.05086 10.0091 9.02007L10.0091 9.02006L10.0091 9.02005L10.0091 9.02004L10.0091 9.02003L10.0091 9.02002L10.0091 9.02002C10.0038 9.00543 9.99855 8.99083 9.99249 8.97678L9.92156 9.019C9.91592 9.03959 9.90924 9.0601 9.90256 9.08062L9.90255 9.08063L9.90255 9.08063C9.88869 9.12319 9.87484 9.16574 9.87025 9.20897C9.8493 9.41234 9.82953 9.61571 9.80978 9.81898L9.80977 9.81904L9.80977 9.8191L9.80976 9.81916L9.80975 9.81922L9.80975 9.81928C9.77971 10.1283 9.7497 10.4371 9.71557 10.7453C9.6981 10.8544 9.73369 10.9653 9.8114 11.0439C10.2366 11.5171 10.66 11.9921 11.0834 12.4672L11.0835 12.4673C11.3326 12.7468 11.5818 13.0263 11.8313 13.3055C11.8552 13.3323 11.8824 13.3559 11.9183 13.3871L11.9183 13.3871L11.9183 13.3871L11.9183 13.3871L11.9185 13.3872C11.9369 13.4032 11.9577 13.4212 11.9815 13.4427C11.9874 13.4096 11.9933 13.3809 11.9986 13.355L11.9986 13.355ZM12.4167 13.2851L12.4166 13.2851V13.2859L12.4167 13.2851ZM12.4619 13.3153L12.4167 13.2851C12.419 13.1918 12.4198 13.0986 12.4207 13.0055V13.0054C12.4254 12.4925 12.43 11.9854 12.6777 11.4917C13.0545 10.7414 13.4086 9.97922 13.7627 9.21682C13.9292 8.85854 14.0957 8.50021 14.2645 8.14303C14.2803 8.11038 14.3121 8.08498 14.3438 8.05958C14.3589 8.04745 14.3741 8.03533 14.3875 8.02242C14.3923 8.03792 14.3983 8.0535 14.4044 8.0691C14.4183 8.10508 14.4323 8.1412 14.4313 8.17696C14.4101 9.10798 14.3867 10.039 14.3596 10.97C14.3562 11.0263 14.3357 11.0802 14.3007 11.1246C13.7311 11.8238 13.1594 12.5214 12.5857 13.2173C12.5631 13.2444 12.5333 13.2649 12.5036 13.2854L12.5035 13.2854L12.5035 13.2854C12.4894 13.2951 12.4753 13.3049 12.4619 13.3153ZM10.0555 15.028H10.0555H10.0557H10.0557H10.0557C10.3247 15.029 10.5939 15.03 10.8628 15.0227C10.9456 15.0188 11.0243 14.9854 11.0846 14.9285C11.2141 14.793 11.3394 14.6533 11.4647 14.5136L11.4647 14.5135C11.5841 14.3805 11.7034 14.2475 11.8263 14.1181C11.9206 14.0201 11.8995 13.9598 11.8195 13.8723C11.3937 13.4109 10.9716 12.946 10.5534 12.4777C10.4523 12.3646 10.3942 12.3654 10.3036 12.489C9.94133 12.9842 9.57662 13.4772 9.21179 13.9705L9.21175 13.9705L9.21135 13.9711L9.21125 13.9712L9.21114 13.9713C8.99798 14.2595 8.78476 14.5478 8.57196 14.8365C8.55277 14.8628 8.5417 14.8947 8.53059 14.9268C8.5251 14.9427 8.5196 14.9585 8.51311 14.9737C8.52849 14.9792 8.54387 14.9861 8.55928 14.9929C8.5945 15.0086 8.62983 15.0242 8.66553 15.0242C8.96116 15.0279 9.25583 15.0276 9.55108 15.0274H9.55119H9.5513H9.55141L9.7732 15.0273C9.8672 15.0273 9.96125 15.0276 10.0553 15.028H10.0554H10.0555ZM9.97591 11.838L9.97609 11.8382C10.0333 11.9039 10.0911 11.9701 10.1491 12.0375L9.20596 13.301L8.91544 13.6904L8.91538 13.6904L8.91531 13.6905C8.64012 14.0595 8.36471 14.4287 8.08848 14.7966C7.94738 14.9851 7.91267 14.9813 7.82062 14.7703C7.74242 14.5889 7.66453 14.4075 7.58665 14.2261L7.58662 14.2261C7.4233 13.8457 7.26003 13.4654 7.09399 13.0861C7.04495 12.9731 7.03287 12.872 7.12266 12.7801C7.14589 12.7563 7.16873 12.7318 7.1916 12.7072L7.1916 12.7072C7.26383 12.6296 7.33644 12.5516 7.42297 12.4966C7.76833 12.2778 8.11619 12.0628 8.46405 11.8477L8.46413 11.8477L8.46418 11.8477L8.46422 11.8476C8.75016 11.6709 9.03609 11.4942 9.32065 11.3153C9.42629 11.2497 9.48665 11.2595 9.56512 11.3553C9.69753 11.5186 9.83527 11.6766 9.97591 11.838ZM14.4802 11.5125L14.4802 11.5125L14.4802 11.5126C14.4561 11.5535 14.4383 11.5838 14.4161 11.61C13.8185 12.3382 13.2201 13.0665 12.618 13.7917C12.5199 13.91 12.5705 13.9568 12.6814 14.0073C12.9783 14.1432 13.2746 14.28 13.571 14.4168C13.9653 14.5989 14.3597 14.781 14.7556 14.9609C14.8444 15.0009 14.9404 15.0224 15.0378 15.0243C15.6083 15.0295 16.1795 15.028 16.7506 15.025C16.7873 15.025 16.8243 15.0134 16.8614 15.0018C16.8778 14.9966 16.8942 14.9915 16.9106 14.9873C16.9049 14.9704 16.9001 14.9527 16.8954 14.9349C16.8844 14.8942 16.8734 14.853 16.8502 14.82C16.3239 14.052 15.7959 13.285 15.2665 12.5192C15.0664 12.229 14.8651 11.9387 14.6387 11.6122L14.6385 11.6118L14.5217 11.4434C14.5055 11.4695 14.4921 11.4923 14.4802 11.5125Z" fill="white"/>
</svg>
