<svg width="24" height="24" viewBox="0 0 24 24" fill="none" xmlns="http://www.w3.org/2000/svg">
<circle cx="12" cy="12" r="12" fill="#EDF0F4"/>
<path fill-rule="evenodd" clip-rule="evenodd" d="M12.8409 6.02496L16.8237 8.23714C17.3902 8.55376 17.7402 9.15367 17.7402 9.79941V14.103C17.7402 14.7529 17.3861 15.3486 16.8195 15.6652L12.8367 17.8774C12.2993 18.1774 11.6411 18.1774 11.1037 17.8774L7.1209 15.6652C6.55431 15.3486 6.2002 14.7529 6.2002 14.103V9.79941C6.2002 9.15367 6.55431 8.55376 7.1209 8.23714L11.1078 6.02496C11.6452 5.725 12.3035 5.725 12.8409 6.02496ZM9.39974 15.2237C9.99132 15.2237 10.4746 14.7404 10.4746 14.1488V10.366C10.4746 9.77445 9.99132 9.29118 9.39974 9.29118C8.80816 9.29118 8.32489 9.77445 8.32489 10.366V14.1488C8.32489 14.7404 8.80816 15.2237 9.39974 15.2237ZM11.9703 12.1949C11.3745 12.1949 10.8913 11.7116 10.8913 11.1159C10.8913 10.5201 11.3745 10.0369 11.9703 10.0369C12.566 10.0369 13.0493 10.5201 13.0493 11.1159C13.0493 11.7116 12.566 12.1949 11.9703 12.1949ZM14.5447 15.2237C15.1363 15.2237 15.6196 14.7404 15.6196 14.1488V10.366C15.6196 9.77445 15.1363 9.29118 14.5447 9.29118C13.9531 9.29118 13.4699 9.77445 13.4699 10.366V14.1488C13.4699 14.7404 13.9531 15.2237 14.5447 15.2237Z" fill="#26A5A4"/>
</svg>
