<svg width="24" height="24" viewBox="0 0 24 24" fill="none" xmlns="http://www.w3.org/2000/svg">
<circle cx="12" cy="12" r="12" fill="url(#paint0_linear_300_11470)"/>
<path fill-rule="evenodd" clip-rule="evenodd" d="M14.4217 5.75009C14.9594 5.83174 15.4239 6.17817 15.6598 6.67338C15.692 6.74094 15.7323 6.84471 15.7493 6.904C15.8187 7.14432 15.8157 7.01864 15.8158 9.65949V12.0901H14.1813H12.5469V9.65949C12.547 7.58261 12.5495 7.21305 12.5645 7.12032C12.6793 6.41313 13.2287 5.86181 13.929 5.75108C14.0663 5.72936 14.2824 5.72892 14.4217 5.75009ZM19.1449 7.75798C19.252 7.7834 19.4241 7.86985 19.5141 7.94348C19.6183 8.02856 19.7021 8.13544 19.7642 8.26241C19.867 8.47261 19.8588 8.30237 19.8629 10.3085L19.8666 12.0902H18.9228H17.9792V10.3426C17.9792 8.45082 17.9771 8.51384 18.0442 8.33609C18.1266 8.11752 18.2939 7.9361 18.514 7.82681C18.706 7.73144 18.93 7.70699 19.1449 7.75798ZM8.266 7.87864C8.4673 7.91957 8.63999 8.01502 8.79727 8.17228C8.97799 8.35298 9.07896 8.55521 9.10909 8.7969C9.11743 8.86379 9.12178 9.44626 9.12178 10.4944V12.0902H8.05188H6.982L6.98528 10.4166L6.98858 8.74313L7.02173 8.63741C7.14541 8.24312 7.44633 7.96093 7.82984 7.8796C7.9426 7.8557 8.15089 7.85524 8.266 7.87864ZM3.31212 10.0357C3.67956 10.1007 3.97749 10.3428 4.11547 10.6883C4.18297 10.8573 4.1853 10.8829 4.19135 11.5163L4.19695 12.1021H3.15023H2.10352V11.5308C2.10352 11.0562 2.10675 10.9437 2.12256 10.8668C2.20781 10.4523 2.52583 10.1314 2.93877 10.043C3.03901 10.0215 3.2131 10.0181 3.31212 10.0357ZM6.97098 12.9464C6.97091 13.8739 6.96751 13.9304 6.89952 14.1334C6.82961 14.342 6.73662 14.4972 6.58762 14.6539C6.08609 15.1814 5.29054 15.2365 4.7203 14.7835C4.49928 14.6078 4.32387 14.3378 4.24572 14.0531L4.21328 13.9349L4.20966 13.0185L4.20605 12.1021H5.58855H6.97105L6.97098 12.9464ZM12.5323 14.5989L12.5285 17.0956L12.5011 17.2158C12.4283 17.5352 12.3075 17.7784 12.1071 18.0089C11.8596 18.2934 11.5056 18.4944 11.1293 18.5638C10.9602 18.595 10.67 18.5919 10.5057 18.5571C10.1495 18.4816 9.8607 18.3223 9.61196 18.064C9.38029 17.8235 9.24593 17.5718 9.16254 17.2218C9.14232 17.137 9.14084 16.983 9.13748 14.6169L9.13391 12.1021H10.835H12.536L12.5323 14.5989ZM17.9648 14.0881L17.9615 16.0741L17.9284 16.1796C17.7782 16.6584 17.3791 16.961 16.8979 16.961C16.4089 16.961 16.0044 16.6473 15.8623 16.1578L15.8346 16.0621L15.8311 14.0821L15.8277 12.1021H16.8979H17.968L17.9648 14.0881ZM21.918 12.688C21.9117 13.3278 21.9099 13.3466 21.8373 13.5279C21.7656 13.7072 21.6186 13.891 21.4593 14.0006C21.1985 14.18 20.8406 14.2297 20.5412 14.1278C20.1867 14.0072 19.926 13.7094 19.8493 13.3375C19.8335 13.2604 19.8302 13.1485 19.8302 12.6735V12.1021H20.877H21.9237L21.918 12.688Z" fill="white"/>
<defs>
<linearGradient id="paint0_linear_300_11470" x1="7.81773" y1="-5.48022" x2="-4.96945" y2="16.7291" gradientUnits="userSpaceOnUse">
<stop stop-color="#6B6EEC"/>
<stop offset="1" stop-color="#7CEECA"/>
</linearGradient>
</defs>
</svg>
