<svg width="24" height="24" viewBox="0 0 24 24" fill="none" xmlns="http://www.w3.org/2000/svg">
<path d="M23.6407 14.9032C22.0376 21.3313 15.5282 25.2439 9.09685 23.6407C2.66866 22.0376 -1.24075 15.525 0.362391 9.09685C1.96241 2.66866 8.47496 -1.24387 14.9 0.359268C21.3313 1.96241 25.2439 8.47497 23.6407 14.9032Z" fill="#0007BC"/>
<path fill-rule="evenodd" clip-rule="evenodd" d="M19.2062 12.7313L19.0562 12.4906L16.6437 8.66872C16.4531 8.37185 16.2031 8.11872 15.9093 7.92497C15.3625 7.57809 14.6937 7.46871 14.0656 7.62497C13.4437 7.77497 12.9124 8.17185 12.5906 8.72498C12.4281 8.99373 12.2249 9.32811 12.0187 9.65623L11.3624 8.64372L11.3374 8.60935V8.59997C11.1155 8.3031 10.8374 8.05309 10.5187 7.86559C10.0405 7.60621 9.4874 7.51871 8.94677 7.61247C8.42802 7.71559 7.95301 7.97809 7.58739 8.3656C7.48426 8.48122 7.39363 8.60622 7.31863 8.7406L5.53737 11.5656L4.79048 12.7438C4.44986 13.2875 4.33111 13.9438 4.46236 14.5719C4.58423 15.2 4.96236 15.75 5.50299 16.0938C5.87174 16.325 6.29675 16.4469 6.73113 16.4438C7.58426 16.4407 8.37489 16.0063 8.82802 15.2844L9.39678 14.3844L9.94678 15.2407C10.0937 15.4532 10.2687 15.65 10.4593 15.8219L10.4593 15.8219C10.5124 15.8688 10.5655 15.9157 10.6218 15.9563H10.628C10.6655 15.9844 10.703 16.0094 10.7468 16.0375C11.1155 16.275 11.5468 16.4032 11.9874 16.4032C12.4531 16.4 12.9093 16.2657 13.2968 16.0094L13.3437 15.9782L13.3874 15.95C13.5999 15.8 13.7906 15.6157 13.9468 15.4063L14.5937 14.4L15.1468 15.275C15.6062 15.9938 16.3968 16.4282 17.25 16.4282C17.6812 16.4313 18.1062 16.3094 18.475 16.0813C19.5844 15.3875 19.9156 13.8563 19.2062 12.7313ZM7.66549 8.94688C7.73112 8.83438 7.80612 8.73125 7.8905 8.63438C8.1905 8.3125 8.58738 8.09062 9.01863 7.99687C9.46864 7.91562 9.92802 7.99062 10.328 8.20625C10.5999 8.36875 10.8374 8.58438 11.0249 8.8375L11.0405 8.85938L11.7968 10.0219C11.6564 10.2319 11.5248 10.4271 11.4173 10.5866L11.4173 10.5867C11.2545 10.8283 11.1468 10.9881 11.1468 10.9938C10.8687 11.4188 10.4436 11.7282 9.95302 11.8563H9.92802C9.41551 12.0063 8.86863 11.9469 8.39675 11.6938L8.32175 11.65L8.25613 11.6063L8.19362 11.5625L8.1405 11.5188L8.0905 11.4782L8.04987 11.4438L8.02175 11.4188L8.00612 11.4032L7.96237 11.3532L7.90925 11.3063L7.89362 11.2907L7.86862 11.2657L7.853 11.25L7.83737 11.2344L7.7655 11.175L7.74987 11.1625L7.728 11.1469L7.6905 11.1188L7.67175 11.1063H7.66237L7.60924 11.0719L7.59049 11.0625H7.57487L7.52487 11.0344L7.49987 11.0188L7.43424 10.9875L7.40299 10.9656L7.36862 10.95L7.30612 10.925H7.30299L7.22487 10.9L7.19362 10.8938L7.13111 10.8781H7.09986L7.04049 10.8563H7.00611H6.98111H6.94986H6.90611H6.80924H6.77799H6.66861H6.65299L6.54673 10.8719H6.53736L6.42486 10.8969L7.66549 8.94688ZM7.24686 15.9876C7.76874 15.8563 8.22187 15.5313 8.5125 15.0751L9.19375 14.025L7.64999 11.5438L7.63124 11.5219L7.61874 11.5063L7.60936 11.4969L7.57499 11.4625H7.56874L7.51249 11.4125H7.50311L7.47811 11.3969L7.45624 11.3813H7.44686H7.43436L7.39686 11.3563L7.37186 11.3406H7.35936L7.33436 11.325L7.30936 11.3125H7.29374L7.26561 11.2969L7.24686 11.2906L7.18124 11.2656H7.16249L7.12186 11.25H7.10311H7.09061L7.05623 11.2438H7.03748H6.99373H6.96873H6.91873H6.89373H6.81873C6.53748 11.2438 6.2656 11.3531 6.06248 11.5469C5.99372 11.6157 5.93435 11.6875 5.88122 11.7688L5.13747 12.9469C4.54371 13.8969 4.81559 15.1813 5.73122 15.7563C6.18123 16.0407 6.73123 16.1219 7.24686 15.9876ZM13.6436 15.1687C13.5093 15.35 13.353 15.5094 13.1655 15.6406L13.1311 15.6656L13.0874 15.6938C12.4499 16.1219 11.6186 16.1313 10.9686 15.7219L10.8686 15.6531H10.8561L10.8271 15.6306L10.8271 15.6306C10.7921 15.6035 10.7559 15.5755 10.7217 15.5437C10.5561 15.3937 10.4061 15.225 10.278 15.0406L9.5686 13.9219L8.47484 12.1812L8.51234 12.1968L8.61547 12.2312L8.67485 12.25L8.77797 12.275L8.84672 12.2937L8.9561 12.3125L9.01547 12.3218L9.15923 12.3375H9.17798H9.34048H9.4061H9.52798H9.59048L9.70923 12.3218H9.76236C9.81861 12.3125 9.87486 12.3031 9.92486 12.2875C10.1186 12.2375 10.3061 12.1656 10.4842 12.0718H10.503C10.528 12.0593 10.5514 12.0468 10.5749 12.0343C10.5983 12.0218 10.6217 12.0093 10.6467 11.9968C10.978 11.8062 11.2592 11.5406 11.4655 11.2187C11.4655 11.2187 11.803 10.7093 12.1718 10.1343C12.4343 9.72494 12.7155 9.27807 12.9155 8.93431C13.1811 8.47493 13.628 8.14055 14.1436 8.01868C14.6718 7.89055 15.2249 7.97805 15.6843 8.26868C15.928 8.43118 16.1374 8.64681 16.2999 8.89369L18.1562 11.8375C18.1031 11.8125 18.0499 11.7937 17.9937 11.775L17.9656 11.7656C17.9222 11.7503 17.8768 11.7371 17.8327 11.7242L17.8327 11.7242L17.8031 11.7156H17.7874C17.7383 11.7011 17.6864 11.692 17.6369 11.6833L17.6249 11.6812H17.5999C17.5588 11.6739 17.5138 11.6686 17.4724 11.6636L17.4724 11.6636L17.4374 11.6593H17.4062C17.3499 11.6593 17.2937 11.6593 17.2437 11.6531H17.2374H17.0749H17.0405C16.9874 11.6531 16.9312 11.6593 16.878 11.6718H16.8437L16.8437 11.6718C16.7874 11.6812 16.7312 11.6906 16.6718 11.7062C16.5937 11.725 16.5187 11.7468 16.4405 11.7718C15.9218 11.95 15.478 12.3031 15.1937 12.7718L14.5187 13.8312L13.6436 15.1687ZM15.4968 15.0594C16.0906 16.0063 17.3656 16.3188 18.2812 15.7438C19.1968 15.1688 19.4656 13.8844 18.8656 12.925L18.725 12.7L18.7093 12.6844C18.7 12.674 18.6906 12.6632 18.6812 12.6524C18.6625 12.6309 18.6437 12.6094 18.625 12.5906L18.6093 12.575C18.5437 12.5094 18.4687 12.4469 18.3906 12.3906L18.3656 12.375C18.3531 12.3667 18.3423 12.3594 18.3315 12.3521C18.31 12.3375 18.2885 12.3229 18.2531 12.3C18.2 12.2656 18.1437 12.2375 18.0906 12.2125H18.0749L18.0187 12.1875L17.9843 12.1719L17.9437 12.1562L17.8906 12.1344H17.8687L17.7937 12.1094C16.9656 11.8562 16.0624 12.1687 15.5687 12.8844L15.5155 12.9688L14.8405 14.0281L15.4968 15.0594Z" fill="white"/>
</svg>
