<svg width="24" height="24" viewBox="0 0 24 24" fill="none" xmlns="http://www.w3.org/2000/svg">
<circle cx="12" cy="12" r="12" fill="black"/>
<path d="M21.3035 13.2864C20.6943 14.104 19.5378 14.2732 18.7199 13.6644C17.9023 13.0552 17.7331 11.8987 18.3419 11.0808C18.9511 10.2632 20.1076 10.094 20.9255 10.7028C21.0691 10.8098 21.1965 10.9371 21.3035 11.0808L21.8231 10.7088C21.0087 9.6014 19.451 9.36344 18.3431 10.1772C17.2357 10.9916 16.9977 12.5493 17.8115 13.6572C18.6259 14.7646 20.1836 15.0026 21.2915 14.1888C21.4946 14.0395 21.6738 13.8603 21.8231 13.6572L21.3035 13.2864Z" fill="white"/>
<path fill-rule="evenodd" clip-rule="evenodd" d="M14.7144 10.0644L15.0744 9.31561L15.4236 10.0644L17.5596 14.6712H16.86L16.3656 13.6044H13.7688L13.2756 14.6712H12.5796L14.7144 10.0644ZM15.0744 10.8109L14.0724 12.9709H16.074L15.0744 10.8109Z" fill="white"/>
<path d="M4.70883 12.1884L2.91003 10.3896L2.86083 10.3404L2.22363 9.70197V9.70317V10.6068V14.67H2.86083V11.244L4.25763 12.6408L4.70883 13.092L5.15883 12.6408L6.55563 11.244V14.67H7.19283V10.6068V9.70317L6.55563 10.3404L4.70883 12.1884Z" fill="white"/>
<path fill-rule="evenodd" clip-rule="evenodd" d="M7.82373 12.1932C7.82373 10.818 8.93854 9.70319 10.3137 9.70319C11.6889 9.70319 12.8037 10.818 12.8037 12.1932C12.8037 13.5684 11.6889 14.6832 10.3137 14.6832C9.65334 14.6832 9.02 14.4208 8.55303 13.9539C8.08607 13.4869 7.82373 12.8536 7.82373 12.1932ZM9.00593 13.4952C9.35298 13.8415 9.82346 14.0358 10.3138 14.0351V14.0399C10.8047 14.0393 11.2753 13.8433 11.6215 13.4953C11.9678 13.1472 12.1613 12.6757 12.1594 12.1847C12.1591 11.6946 11.9641 11.2247 11.6173 10.8784C11.2705 10.532 10.8003 10.3376 10.3102 10.3379C9.81986 10.3383 9.34976 10.5334 9.00338 10.8805C8.657 11.2275 8.46275 11.698 8.46339 12.1883C8.46371 12.6787 8.65887 13.1488 9.00593 13.4952Z" fill="white"/>
<circle cx="11.3662" cy="11.1325" r="0.1728" fill="white"/>
<ellipse cx="11.3662" cy="13.236" rx="0.1728" ry="0.172801" fill="white"/>
<ellipse cx="9.26167" cy="11.1325" rx="0.172801" ry="0.1728" fill="white"/>
<ellipse cx="8.82344" cy="12.1848" rx="0.0876002" ry="0.0875998" fill="white"/>
<ellipse cx="10.3142" cy="13.6776" rx="0.0875993" ry="0.0876002" fill="white"/>
<ellipse cx="11.8034" cy="12.1848" rx="0.0876002" ry="0.0875998" fill="white"/>
<ellipse cx="10.3142" cy="10.698" rx="0.0875993" ry="0.0875998" fill="white"/>
<ellipse cx="10.3142" cy="11.1324" rx="0.0875993" ry="0.0876007" fill="white"/>
<ellipse cx="9.26167" cy="13.236" rx="0.172801" ry="0.172801" fill="white"/>
<ellipse cx="10.3139" cy="13.236" rx="0.172801" ry="0.172801" fill="white"/>
<rect x="11.334" y="11.1324" width="0.0636005" height="2.1048" fill="white"/>
<rect x="9.26172" y="11.1216" width="2.1048" height="0.0215998" fill="white"/>
<path d="M10.3073 11.1374L10.3267 11.1278L11.3772 13.2321L11.3579 13.2417L10.3073 11.1374Z" fill="white"/>
<path d="M9.25361 13.2319L10.3062 11.1272L10.3255 11.1368L9.27293 13.2415L9.25361 13.2319Z" fill="white"/>
<rect x="9.229" y="11.1324" width="0.0635996" height="2.1048" fill="white"/>
<rect x="9.26172" y="13.2252" width="2.1048" height="0.0215998" fill="white"/>
<path d="M9.23483 11.1475L9.29171 11.119L10.3443 13.2237L10.2874 13.2521L9.23483 11.1475Z" fill="white"/>
<path d="M10.2861 13.2228L11.3387 11.1182L11.3955 11.1466L10.343 13.2513L10.2861 13.2228Z" fill="white"/>
<path d="M8.81484 12.1827L9.25091 11.1294L9.27087 11.1377L8.8348 12.191L8.81484 12.1827Z" fill="white"/>
<path d="M9.25174 13.242L8.81494 12.1908L8.83414 12.1812L9.27214 13.2324L9.25174 13.242Z" fill="white"/>
<rect x="10.3032" y="13.236" width="0.0216017" height="0.4392" fill="white"/>
<rect x="10.3032" y="10.6944" width="0.0216017" height="0.439199" fill="white"/>
<path d="M9.25873 11.1223L10.3109 10.6867L10.3192 10.7067L9.26699 11.1423L9.25873 11.1223Z" fill="white"/>
<path d="M10.3085 10.7074L10.3168 10.6875L11.3701 11.1236L11.3618 11.1435L10.3085 10.7074Z" fill="white"/>
<path d="M11.3563 11.1363L11.3763 11.1281L11.8127 12.1812L11.7928 12.1895L11.3563 11.1363Z" fill="white"/>
<path d="M11.3554 13.2369L11.7924 12.1814L11.8123 12.1897L11.3753 13.2452L11.3554 13.2369Z" fill="white"/>
<path d="M10.3082 13.6685L11.364 13.229L11.3723 13.2489L10.3165 13.6884L10.3082 13.6685Z" fill="white"/>
<path d="M10.3092 13.686L9.25439 13.2468L9.26159 13.2276L10.3176 13.6668L10.3092 13.686Z" fill="white"/>
</svg>
