<svg width="24" height="24" viewBox="0 0 24 24" fill="none" xmlns="http://www.w3.org/2000/svg">
<circle cx="12" cy="12" r="12" fill="#EDF0F4"/>
<path fill-rule="evenodd" clip-rule="evenodd" d="M11.6151 4.88808C10.9911 4.44049 10.0636 4.5238 9.52687 5.07289L9.52699 5.07315C8.94641 5.62218 8.87446 6.60446 9.36877 7.23286C9.68903 7.66631 10.2257 7.90585 10.7609 7.89597C10.8197 8.20523 10.8818 8.5139 10.944 8.8226L10.944 8.82265C11.0108 9.15402 11.0775 9.48543 11.14 9.81763C10.2851 10.103 9.64625 10.9552 9.66864 11.8636C9.64057 12.6221 10.0748 13.3472 10.7131 13.7409C10.5349 14.2469 10.3549 14.7522 10.175 15.2574L10.1749 15.2576C9.97512 15.8186 9.77531 16.3796 9.57797 16.9416C9.33618 16.8672 9.08115 16.7947 8.82639 16.846C8.58291 16.8805 8.36209 16.9993 8.1694 17.1471C8.10012 17.0993 8.03146 17.0507 7.9628 17.002C7.882 16.9448 7.80121 16.8875 7.71943 16.8317C7.78448 16.6452 7.84462 16.451 7.82881 16.2509C7.81552 15.8029 7.49416 15.3899 7.06935 15.2533C6.69011 15.1236 6.24426 15.2193 5.95446 15.4979C5.64149 15.7857 5.5163 16.2608 5.65826 16.663C5.79984 17.1045 6.24143 17.4338 6.70798 17.4231C6.93719 17.4359 7.15402 17.3467 7.35167 17.2393C7.44001 17.3024 7.52803 17.3658 7.61609 17.4293L7.61612 17.4293L7.6164 17.4295L7.61659 17.4296L7.61687 17.4298C7.69021 17.4827 7.76356 17.5356 7.83713 17.5883C7.76125 17.8233 7.69517 18.0737 7.74595 18.3221C7.8179 18.81 8.19347 19.2359 8.67009 19.365C9.04269 19.4788 9.46162 19.398 9.77602 19.1718C10.125 18.9264 10.33 18.4981 10.3162 18.0732C10.3078 17.7893 10.1831 17.5281 10.0314 17.2944C10.2339 16.742 10.43 16.1874 10.6261 15.6328L10.6261 15.6327C10.8231 15.0756 11.0201 14.5185 11.2236 13.9637C11.9683 14.1909 12.8086 13.9687 13.3651 13.4309C13.9199 13.9474 14.4722 14.4669 15.0245 14.9864L15.0248 14.9866L15.026 14.9879L15.0273 14.9891C15.2831 15.2296 15.5388 15.4702 15.7948 15.7104C15.6658 16.0155 15.6069 16.3586 15.6916 16.6838C15.8123 17.2107 16.2594 17.6429 16.7897 17.7474C17.1081 17.8056 17.4491 17.7712 17.7365 17.6163C18.2007 17.3783 18.5118 16.8724 18.5063 16.3497C18.5132 15.7615 18.114 15.2002 17.559 15.0074C17.0765 14.8315 16.5234 14.9508 16.1298 15.2726C15.3246 14.5128 14.5176 13.7546 13.7088 12.9981C14.1371 12.2746 14.112 11.309 13.6162 10.625C13.1864 10.0105 12.4298 9.65398 11.6822 9.70721C11.6228 9.40334 11.5618 9.09967 11.5008 8.79591L11.5007 8.79581L11.5007 8.79571L11.5007 8.79561L11.5007 8.79551C11.4325 8.456 11.3643 8.11637 11.2982 7.7762C11.7127 7.59384 12.0631 7.2577 12.2203 6.82844C12.4899 6.14236 12.2331 5.29514 11.6151 4.88808ZM9.7185 6.43983C9.59506 5.91791 9.98689 5.34617 10.5187 5.27519L10.5189 5.27525C10.7503 5.24299 10.9965 5.27616 11.1956 5.40431C11.5732 5.62417 11.759 6.1155 11.6244 6.53102C11.5056 6.9455 11.0849 7.2506 10.6525 7.22246C10.2064 7.22646 9.80278 6.87258 9.7185 6.43983ZM11.5141 10.6673C10.896 10.8152 10.4746 11.4864 10.6058 12.1075C10.7009 12.6846 11.2479 13.142 11.834 13.1291C12.4066 13.1449 12.9458 12.7112 13.0611 12.1513C13.179 11.656 12.9557 11.0991 12.5235 10.8284C12.2297 10.6348 11.8531 10.576 11.5141 10.6671V10.6673ZM16.3353 16.5307C16.2318 16.161 16.4708 15.7475 16.8306 15.6283C17.2825 15.4512 17.8296 15.8195 17.8395 16.303C17.8784 16.7003 17.5507 17.0792 17.1564 17.1133C16.7877 17.1581 16.4166 16.8915 16.3353 16.5307ZM6.53088 15.7783C6.12434 15.8985 6.01831 16.4946 6.35936 16.7477C6.67426 17.035 7.24207 16.8083 7.27801 16.3849C7.34854 15.9892 6.90496 15.622 6.53088 15.7784V15.7783ZM8.44049 17.8789C8.51489 17.7059 8.66815 17.5674 8.84955 17.5162V17.5161C9.23447 17.3939 9.67128 17.7187 9.65192 18.1244C9.66818 18.4957 9.29655 18.8124 8.93182 18.7474C8.53606 18.7059 8.27632 18.2403 8.44049 17.8789Z" fill="#6EA8F2"/>
</svg>
