<svg width="24" height="24" viewBox="0 0 24 24" fill="none" xmlns="http://www.w3.org/2000/svg">
<circle cx="12" cy="12" r="12" fill="#DEC799"/>
<path fill-rule="evenodd" clip-rule="evenodd" d="M17.5513 9.97547L16.4823 5.20007L14.3839 8.48642C12.7526 8.09552 11.051 8.09552 9.41966 8.48642L7.32728 5.20007L6.25446 9.97547C5.10286 10.8897 4.3999 12.0847 4.3999 13.3966C4.3999 16.2704 7.75791 18.6001 11.8999 18.6001C16.0419 18.6001 19.3999 16.2697 19.3999 13.3966C19.3992 12.0847 18.7022 10.8897 17.5506 9.97547H17.5513ZM7.73253 12.1614H7.23288L8.4535 10.7646H9.34177L7.73253 12.1614ZM9.78662 11.947L11.8617 15.5743L14.0186 11.9522L13.5115 11.6529L13.0283 12.4644H10.7619L10.299 11.6566L9.78662 11.947ZM16.0726 12.1614L14.4626 10.7646H15.3569L16.576 12.1614H16.0726ZM11.0964 13.0511L11.8714 14.4061L12.6779 13.0511H11.0964Z" fill="white"/>
</svg>
