<svg width="24" height="24" viewBox="0 0 24 24" fill="none" xmlns="http://www.w3.org/2000/svg">
<circle cx="12" cy="12" r="12" fill="#47B95C"/>
<path fill-rule="evenodd" clip-rule="evenodd" d="M4.3999 12.1C4.3999 7.95998 7.76108 4.59998 11.9025 4.59998C16.044 4.59998 19.4051 7.95998 19.3999 12.1C19.3999 12.1675 19.3954 12.2329 19.3909 12.2991C19.3888 12.3307 19.3866 12.3625 19.3849 12.3947H15.8639L14.1631 9.46973L11.9025 12.715L9.63673 9.46973L7.93589 12.3947H4.41491C4.41321 12.3625 4.41104 12.3307 4.40888 12.2991C4.40437 12.2329 4.3999 12.1675 4.3999 12.1ZM11.9026 6.89499C14.5683 6.89499 16.7696 8.90499 17.0742 11.4902H17.985C17.6744 8.40474 15.0687 5.98974 11.9026 5.98974C8.73654 5.98974 6.12562 8.40474 5.82027 11.4902H6.73109C7.03569 8.91024 9.23696 6.89499 11.9026 6.89499Z" fill="white"/>
<path fill-rule="evenodd" clip-rule="evenodd" d="M11.9025 14.2997L14.0985 11.1497L15.3484 13.2947H19.3C18.7246 16.87 15.6388 19.6 11.9025 19.6C8.16616 19.6 5.08033 16.87 4.50488 13.3H8.45651L9.70645 11.1497L11.9025 14.2997ZM17.6346 14.2H16.6645C15.8542 16.0247 14.028 17.305 11.9025 17.305C9.77705 17.305 7.95092 16.0247 7.14063 14.2H6.17054C7.03109 16.5347 9.27138 18.2102 11.9025 18.2102C14.5337 18.2102 16.774 16.5347 17.6346 14.2Z" fill="white"/>
</svg>
