<svg width="24" height="24" viewBox="0 0 24 24" fill="none" xmlns="http://www.w3.org/2000/svg">
<circle cx="12" cy="12" r="12" fill="#EDF0F4"/>
<path fill-rule="evenodd" clip-rule="evenodd" d="M5 14.9042C5.00122 15.6933 5.37084 16.4366 5.99933 16.9138L5.99734 16.9148L7.78186 18.276V8.97865C7.78191 8.19162 7.41541 7.44947 6.79046 6.97108L5 5.59998V14.9042ZM18.0082 16.9138L16.2237 18.275V8.97766C16.2237 8.19063 16.5901 7.44848 17.2151 6.97009L19.0001 5.59998V14.9032C19 15.6921 18.6317 16.4357 18.0042 16.9138H18.0082ZM12.5067 16.0889L14.3685 14.646C14.9496 14.195 15.2894 13.5008 15.2891 12.7653V8.45272L13.455 9.83274C12.8578 10.2823 12.5067 10.9863 12.5067 11.7337V16.0889ZM8.70876 12.7678C8.7088 13.5035 9.04919 14.1978 9.63076 14.6484H9.62928L11.4901 16.0914V11.7372C11.4901 10.9903 11.1393 10.2867 10.5428 9.83719L8.70876 8.45519V12.7678Z" fill="#0072FF"/>
</svg>
