<svg width="24" height="24" viewBox="0 0 24 24" fill="none" xmlns="http://www.w3.org/2000/svg">
<circle cx="12" cy="12" r="12" fill="#EDF0F4"/>
<path d="M6.75649 7.40002C6.33733 7.40002 6 7.73935 6 8.15651V11.937V13.5637V15.7413C6 16.1585 6.33733 16.4978 6.75649 16.4978C7.17565 16.4978 7.51297 16.1585 7.51297 15.7413V8.15651C7.51098 7.73935 7.17365 7.40002 6.75649 7.40002Z" fill="url(#paint0_linear_300_12358)"/>
<path d="M17.2433 7.40002C16.8261 7.40002 16.4868 7.73935 16.4868 8.15651V15.7413C16.4868 16.1585 16.8261 16.4978 17.2433 16.4978C17.6605 16.4978 17.9998 16.1585 17.9998 15.7413V8.15651C17.9998 7.73935 17.6605 7.40002 17.2433 7.40002Z" fill="url(#paint1_linear_300_12358)"/>
<path d="M10.2516 8.97687C9.83444 8.97687 9.49512 9.31419 9.49512 9.73335V14.1645C9.49512 14.5817 9.83444 14.921 10.2516 14.921C10.6688 14.921 11.0081 14.5817 11.0081 14.1645V9.73335C11.0081 9.31619 10.6688 8.97687 10.2516 8.97687Z" fill="url(#paint2_linear_300_12358)"/>
<path d="M13.7482 10.2504C13.331 10.2504 12.9917 10.5897 12.9917 11.0069V12.8771C12.9917 13.2943 13.331 13.6336 13.7482 13.6336C14.1654 13.6336 14.5047 13.2943 14.5047 12.8771V11.0069C14.5027 10.5877 14.1654 10.2504 13.7482 10.2504Z" fill="url(#paint3_linear_300_12358)"/>
<defs>
<linearGradient id="paint0_linear_300_12358" x1="6.12083" y1="60.3959" x2="22.2123" y2="60.3497" gradientUnits="userSpaceOnUse">
<stop stop-color="#4400E2"/>
<stop offset="0.0411" stop-color="#7013C5"/>
<stop offset="0.0866" stop-color="#9A25AA"/>
<stop offset="0.1333" stop-color="#BC3494"/>
<stop offset="0.1804" stop-color="#D73F82"/>
<stop offset="0.2284" stop-color="#EA4876"/>
<stop offset="0.2776" stop-color="#F54C6E"/>
<stop offset="0.33" stop-color="#F94E6C"/>
<stop offset="1" stop-color="#FFD402"/>
</linearGradient>
<linearGradient id="paint1_linear_300_12358" x1="6.23261" y1="61.4737" x2="22.3241" y2="61.4275" gradientUnits="userSpaceOnUse">
<stop stop-color="#4400E2"/>
<stop offset="0.0411" stop-color="#7013C5"/>
<stop offset="0.0866" stop-color="#9A25AA"/>
<stop offset="0.1333" stop-color="#BC3494"/>
<stop offset="0.1804" stop-color="#D73F82"/>
<stop offset="0.2284" stop-color="#EA4876"/>
<stop offset="0.2776" stop-color="#F54C6E"/>
<stop offset="0.33" stop-color="#F94E6C"/>
<stop offset="1" stop-color="#FFD402"/>
</linearGradient>
<linearGradient id="paint2_linear_300_12358" x1="6.23198" y1="43.9892" x2="22.3293" y2="43.8809" gradientUnits="userSpaceOnUse">
<stop stop-color="#4400E2"/>
<stop offset="0.0411" stop-color="#7013C5"/>
<stop offset="0.0866" stop-color="#9A25AA"/>
<stop offset="0.1333" stop-color="#BC3494"/>
<stop offset="0.1804" stop-color="#D73F82"/>
<stop offset="0.2284" stop-color="#EA4876"/>
<stop offset="0.2776" stop-color="#F54C6E"/>
<stop offset="0.33" stop-color="#F94E6C"/>
<stop offset="1" stop-color="#FFD402"/>
</linearGradient>
<linearGradient id="paint3_linear_300_12358" x1="6.42901" y1="30.726" x2="22.5436" y2="30.3912" gradientUnits="userSpaceOnUse">
<stop stop-color="#4400E2"/>
<stop offset="0.0411" stop-color="#7013C5"/>
<stop offset="0.0866" stop-color="#9A25AA"/>
<stop offset="0.1333" stop-color="#BC3494"/>
<stop offset="0.1804" stop-color="#D73F82"/>
<stop offset="0.2284" stop-color="#EA4876"/>
<stop offset="0.2776" stop-color="#F54C6E"/>
<stop offset="0.33" stop-color="#F94E6C"/>
<stop offset="1" stop-color="#FFD402"/>
</linearGradient>
</defs>
</svg>
