<svg width="24" height="24" viewBox="0 0 24 24" fill="none" xmlns="http://www.w3.org/2000/svg">
<circle opacity="0.98" cx="12" cy="12" r="12" fill="#002D3E"/>
<path d="M12.7569 15.685C12.6792 15.9884 12.4017 16.2141 12.0724 16.2141C11.7431 16.2141 11.4693 15.9884 11.3879 15.685L9.37891 7.7156C9.07552 6.49465 7.96927 5.5882 6.65583 5.5882C5.1056 5.5882 3.84766 6.84614 3.84766 8.39637V9.02904C3.84766 9.61731 4.32493 10.0909 4.90951 10.0909C5.49778 10.0909 5.97136 9.61361 5.97136 9.02904V8.39637C5.97136 8.01899 6.27845 7.7156 6.65213 7.7156C6.97032 7.7156 7.2404 7.93759 7.3144 8.23358L9.35671 16.3251C9.67489 17.5276 10.77 18.4118 12.0724 18.4118C13.371 18.4118 14.4699 17.5239 14.7881 16.3251L16.8304 8.23358C16.9044 7.93759 17.1708 7.7156 17.4926 7.7156C17.87 7.7156 18.1734 8.02269 18.1734 8.39637V17.35C18.1734 17.9382 18.6507 18.4118 19.2353 18.4118C19.8235 18.4118 20.2971 17.9345 20.2971 17.35V8.39637C20.2971 6.84614 19.0392 5.5882 17.4889 5.5882C16.1755 5.5882 15.0693 6.49465 14.7659 7.7156L12.7569 15.685Z" fill="white"/>
<path d="M5.97478 17.35C5.97478 17.9383 5.4975 18.4118 4.91293 18.4118C4.32465 18.4118 3.85107 17.9346 3.85107 17.35V14.971C3.85107 14.3827 4.32835 13.9091 4.91293 13.9091C5.5012 13.9091 5.97478 14.3864 5.97478 14.971V17.35Z" fill="white"/>
<path d="M4.1841 11.2748C4.3173 11.1416 4.42829 11.0343 4.52449 10.9492L4.53559 10.9418C4.75018 10.7494 5.07576 10.7494 5.29035 10.9381L5.30145 10.9492C5.39765 11.038 5.51234 11.1453 5.64184 11.2785C5.77133 11.408 5.88233 11.5227 5.96742 11.6189L5.97852 11.63C6.17091 11.8446 6.17091 12.1702 5.97852 12.3848L5.97112 12.3959C5.88233 12.492 5.77503 12.6067 5.64554 12.7362L5.64184 12.7399C5.51234 12.8694 5.39765 12.9767 5.30515 13.0655L5.29405 13.0729C5.07946 13.2653 4.75388 13.2653 4.53929 13.0729L4.52819 13.0618C4.43199 12.973 4.321 12.8657 4.1878 12.7362V12.7325C4.05461 12.5993 3.94731 12.4883 3.85852 12.3922L3.84742 12.3811C3.65503 12.1665 3.65503 11.8409 3.84742 11.6263L3.85482 11.6152C3.94731 11.519 4.05461 11.408 4.1841 11.2748Z" fill="#F5C117"/>
</svg>
