<svg width="24" height="24" viewBox="0 0 24 24" fill="none" xmlns="http://www.w3.org/2000/svg">
<circle cx="12" cy="12" r="12" fill="#EDF0F4"/>
<path d="M11.4664 12.9159L9.19039 15.1918C8.86526 15.517 8.33884 15.517 8.0137 15.1918L5.44356 12.6062C5.11842 12.2811 5.11842 11.7547 5.44356 11.4295L8.02919 8.84389C8.35432 8.51875 8.88074 8.51875 9.20588 8.84389L11.4818 11.1199C11.807 11.445 12.3334 11.445 12.6585 11.1199L14.919 8.84389C15.2442 8.51875 15.7706 8.51875 16.0957 8.84389L18.6659 11.4295C18.991 11.7547 18.991 12.2811 18.6659 12.6062L16.0957 15.1918C15.7706 15.517 15.2442 15.517 14.919 15.1918L12.6431 12.9159C12.3179 12.5907 11.7915 12.5907 11.4664 12.9159Z" fill="url(#paint0_linear_300_13813)"/>
<defs>
<linearGradient id="paint0_linear_300_13813" x1="38.3149" y1="4.35305" x2="7.58436" y2="4.35305" gradientUnits="userSpaceOnUse">
<stop stop-color="#3600C9"/>
<stop offset="1" stop-color="#9E00E7"/>
</linearGradient>
</defs>
</svg>
