<svg width="24" height="24" viewBox="0 0 24 24" fill="none" xmlns="http://www.w3.org/2000/svg">
<circle cx="12" cy="12" r="12" fill="#EDF0F4"/>
<path d="M18.0679 13.82L15.1649 8.86378C14.6396 7.97875 13.354 7.97875 12.8287 8.86378L9.92565 13.82C9.40034 14.705 10.0501 15.8079 11.1007 15.8079H16.9067C17.9435 15.8079 18.5794 14.705 18.0679 13.82Z" fill="#00B897"/>
<path d="M14.1971 13.9156L14.0312 13.6296C13.8791 13.3573 13.5335 12.7855 13.5335 12.7855L11.2249 8.86409C10.6996 7.97906 9.41402 7.97906 8.88871 8.86409L5.98571 13.8203C5.4604 14.7053 6.11012 15.8082 7.16073 15.8082H12.9114H15.303H16.9065C15.4689 15.8082 14.8606 15.0457 14.1971 13.9156Z" fill="#76FCB2"/>
<path d="M14.1972 13.9153L14.0313 13.6294C13.8793 13.3571 13.5337 12.7852 13.5337 12.7852L12.0269 10.2254L9.92565 13.82C9.40034 14.705 10.0501 15.8079 11.1007 15.8079H12.9116H15.3031H16.9067C15.469 15.8079 14.8608 15.0454 14.1972 13.9153Z" fill="url(#paint0_linear_300_13452)"/>
<defs>
<linearGradient id="paint0_linear_300_13452" x1="7.55107" y1="14.792" x2="13.5201" y2="18.4274" gradientUnits="userSpaceOnUse">
<stop stop-color="#53E57A" stop-opacity="0.01"/>
<stop offset="1" stop-color="#00A977"/>
</linearGradient>
</defs>
</svg>
