<svg width="24" height="24" viewBox="0 0 24 24" fill="none" xmlns="http://www.w3.org/2000/svg">
<path d="M12 24C18.6276 24 24 18.6276 24 12C24 5.3724 18.6276 0 12 0C5.3724 0 0 5.3724 0 12C0 18.6276 5.3724 24 12 24Z" fill="#EDF0F4"/>
<circle cx="12.1483" cy="12.026" r="7.54819" fill="#09006E"/>
<path d="M12.17 13.8196C11.5845 13.4815 11.3839 12.7329 11.7219 12.1474L16.7375 3.46013C17.0755 2.87464 17.8242 2.67404 18.4097 3.01207C18.9952 3.3501 19.1958 4.09877 18.8578 4.68426L13.8422 13.3715C13.5041 13.957 12.7555 14.1576 12.17 13.8196Z" fill="url(#paint0_linear_300_12977)"/>
<path d="M14.5686 16.0997L14.5445 12.2777L12.7235 15.3449H11.4773L9.65628 12.4094V16.0997H7.08008V7.71294H9.40454L12.1362 12.1819L14.7962 7.71294H17.1207L17.1445 16.0997H14.5686Z" fill="#00FFD9"/>
<path d="M12.0049 11.6573L15.5556 5.50774C15.7177 5.22649 15.985 5.02121 16.2986 4.93712C16.6122 4.85302 16.9463 4.89701 17.2275 5.05938C17.5087 5.22162 17.7139 5.48892 17.798 5.80248C17.882 6.11603 17.8381 6.45014 17.6758 6.7313L14.1252 12.8812C13.7872 13.4668 13.0385 13.6675 12.4529 13.3296C11.8676 12.9913 11.6671 12.2428 12.0049 11.6573Z" fill="url(#paint1_linear_300_12977)"/>
<defs>
<linearGradient id="paint0_linear_300_12977" x1="16.518" y1="7.33418" x2="18.7586" y2="3.45325" gradientUnits="userSpaceOnUse">
<stop stop-color="#00FFD9"/>
<stop offset="0.85" stop-color="#09006E"/>
</linearGradient>
<linearGradient id="paint1_linear_300_12977" x1="15.3861" y1="16.8059" x2="22.199" y2="11.0618" gradientUnits="userSpaceOnUse">
<stop offset="0.08" stop-color="#00FFD9"/>
<stop offset="0.68" stop-color="#064E8F"/>
<stop offset="1" stop-color="#09006E"/>
</linearGradient>
</defs>
</svg>
