<svg width="24" height="24" viewBox="0 0 24 24" fill="none" xmlns="http://www.w3.org/2000/svg">
<path fill-rule="evenodd" clip-rule="evenodd" d="M12 24C5.4 24 0 18.6001 0 11.9402C0.06 5.34038 5.4 -0.0595036 12.06 0.000495204C18.66 0.060494 24 5.40038 24 12.1202C23.94 18.6601 18.6 24 12 24Z" fill="#EDF0F4"/>
<path fill-rule="evenodd" clip-rule="evenodd" d="M19.9529 13.2346L14.7647 8.04632C14.7029 7.98456 14.5853 7.98456 14.5235 8.04632L11.9765 10.5846L9.47941 8.0875C9.41176 8.01985 9.30588 8.01985 9.23824 8.0875L8.45882 8.85221L5.59412 11.661L4.96765 12.2757L4.04706 13.1728C4.01176 13.2081 4 13.2493 4 13.2963C4 13.3434 4.02059 13.3846 4.04706 13.4199L6.63529 16.0081C6.70294 16.0757 6.81471 16.0757 6.87647 16.0081L9.36176 13.5257L11.8794 16.0434C11.9471 16.111 12.0588 16.111 12.1206 16.0434L14.6118 13.5522L17.1176 16.0581C17.1529 16.0934 17.1941 16.1052 17.2412 16.1052C17.2882 16.1052 17.3294 16.0904 17.3647 16.0581L19.9529 13.4699C19.9882 13.4346 20 13.3934 20 13.3463C20 13.2963 19.9853 13.261 19.9529 13.2346ZM19.4884 13.4492L18.0001 12.9022L17.3178 11.4316L17.7119 11.4875L19.5825 13.3581L19.4884 13.4492ZM18.206 13.3464L18.6472 14.2905L19.2207 13.7199L18.206 13.3464ZM8.40297 10.8875L6.30591 11.4522L8.40297 9.39042V10.8875ZM7.27075 11.5493L5.80016 11.9434L5.38545 12.3551L7.17369 13.2052L7.27075 11.5493ZM7.62365 11.4552L7.88541 11.3875L8.58247 12.4581L7.49129 13.6669L7.62365 11.4552ZM8.22943 11.2875L8.81472 12.1846L9.39708 11.5434L8.56178 11.1993L8.22943 11.2875ZM8.74718 10.9022V10.2757L10.7354 10.4404L11.2325 11.9316L8.74718 10.9022ZM11.1411 13.2757L10.4293 12.8404L10.2528 13.9375L11.2587 14.9375L11.1411 13.2757ZM11.397 13.0287L10.494 12.4699L10.5617 12.0346L11.4117 12.3875C11.4323 12.4022 11.4528 12.414 11.4793 12.414L12.3352 12.7728L12.694 13.8346L11.397 13.0287ZM13.6177 12.2404L12.6854 12.7228L12.9354 13.4551L13.6177 12.2404ZM13.9763 11.6758L13.1145 12.1228L13.3204 10.6611L14.5204 11.3934L13.9763 11.6758ZM13.2705 10.2257L14.8793 11.2052L15.4146 10.9287L15.2411 10.2257L13.4117 9.63163L12.9881 10.0522L13.2705 10.2257ZM15.7558 10.8669L15.3293 9.09341L17.3175 11.0817L15.7558 10.8669ZM16.1353 11.261L15.7706 11.214L15.4794 13.9228L16.5294 14.9728L16.1353 11.261ZM16.4825 11.3169L16.9178 11.3787L17.5384 12.7169L16.7796 14.1257L16.4825 11.3169ZM14.8529 8.62577L14.6382 8.41107L13.6882 9.36401L15.1441 9.83459L14.8529 8.62577ZM12.094 10.958L12.744 10.308L12.9999 10.4669L12.7382 12.3169L12.4705 12.4551L11.644 12.1169L10.9676 10.0816L11.8499 10.9639C11.9205 11.0198 12.0234 11.0198 12.094 10.958ZM10.4237 9.52865L9.35307 8.461L8.74718 9.05218V9.92865L10.6089 10.0875L10.4237 9.52865ZM5.11776 12.614L7.14717 13.5728L7.09129 14.4846L5.27658 14.1669L4.41482 13.3052L5.11776 12.614ZM5.69691 14.5934L6.75279 15.6492L7.02632 15.3669L7.06162 14.8345L5.69691 14.5934ZM9.23543 13.164L7.40014 14.9993L7.4472 14.214L7.45308 14.2081L9.72955 11.6904L10.2325 11.8963L10.1295 12.5316L9.95013 13.6346L9.47955 13.164C9.41484 13.0963 9.30602 13.0963 9.23543 13.164ZM11.6295 15.311L12.003 15.6846L12.9942 14.6963L12.8707 14.3375L11.506 13.4963L11.6295 15.311ZM14.6175 13.1434C14.5764 13.1434 14.5293 13.1581 14.494 13.1904L13.2587 14.4257L13.0793 13.8934L14.1764 11.9463L15.4116 11.311L15.1646 13.6081L14.744 13.1875C14.7087 13.1581 14.6587 13.1434 14.6175 13.1434ZM16.9088 15.364L17.2412 15.6963L18.3882 14.5493L17.7176 13.0993L16.8412 14.7287L16.9088 15.364Z" fill="url(#paint0_linear_300_16437)"/>
<defs>
<linearGradient id="paint0_linear_300_16437" x1="3.9997" y1="16.1048" x2="20" y2="16.1048" gradientUnits="userSpaceOnUse">
<stop stop-color="#C51F5D"/>
<stop offset="1" stop-color="#2F2361"/>
</linearGradient>
</defs>
</svg>
