<svg width="24" height="24" viewBox="0 0 24 24" fill="none" xmlns="http://www.w3.org/2000/svg">
<path d="M23.6383 14.9029C22.0356 21.3315 15.5244 25.2438 9.09503 23.6407C2.66833 22.0381 -1.24401 15.5265 0.359382 9.09837C1.96137 2.66903 8.47253 -1.24361 14.8999 0.359081C21.3289 1.96177 25.241 8.47405 23.6381 14.903L23.6382 14.9029H23.6383Z" fill="#4A90E2"/>
<ellipse cx="6.00751" cy="13.9955" rx="1.00751" ry="1.00751" fill="white"/>
<path fill-rule="evenodd" clip-rule="evenodd" d="M12.0104 11.015H12.0946C12.5979 11.0571 12.9969 11.4771 13.0179 11.9805C13.0179 12.5469 12.5769 12.988 12.0104 12.988C11.444 12.988 11.0029 12.5259 11.0029 11.9805C11.0029 11.2667 10.7723 10.994 9.9954 10.994C9.21852 10.994 8.98788 11.2667 8.98788 12.0015V12.0646C8.96684 12.568 8.5258 12.988 8.00141 12.988C7.43494 12.988 6.9939 12.5259 6.9939 11.9805C6.9939 11.4561 7.39286 11.0361 7.89621 10.994H7.98037C8.86164 10.994 8.98788 10.8054 8.98788 10.0075C8.98788 9.44104 9.44997 9 9.9954 9C10.5619 9 11.0029 9.46208 11.0029 10.0075C11.0029 10.8054 11.1292 11.015 12.0104 11.015ZM17.0059 10.0075C17.0059 9.44104 17.468 9 18.0134 9C18.5589 9 18.9999 9.44104 18.9999 9.96543C18.9999 10.5319 18.5378 10.9729 17.9924 10.9729C17.2155 10.9729 16.9849 11.2457 16.9849 11.9805V12.0436C16.9638 12.568 16.5228 12.988 15.9984 12.988H15.9774C15.2215 13.009 14.9909 13.2817 14.9909 13.9955V14.0797C14.9699 14.583 14.5288 15.003 14.0044 15.003C13.4379 15.003 12.9969 14.5409 12.9969 13.9955C12.9969 13.4921 13.3959 13.0721 13.8992 13.009C13.9203 12.988 13.9623 12.988 14.0044 12.988C14.8647 12.988 15.0119 12.7994 15.0119 12.0225V12.0015C15.0119 11.4771 15.4109 11.0571 15.9142 11.015H15.9984C16.8797 11.015 17.0059 10.8054 17.0059 10.0075Z" fill="white"/>
</svg>
