<svg width="24" height="24" viewBox="0 0 24 24" fill="none" xmlns="http://www.w3.org/2000/svg">
<circle cx="12" cy="12" r="12" fill="#222222"/>
<path fill-rule="evenodd" clip-rule="evenodd" d="M4.84024 11.586C4.4995 11.755 4.15396 11.9264 3.7998 12.1016C3.83856 12.1164 3.87057 12.129 3.89851 12.14C3.94293 12.1575 3.9771 12.171 4.01183 12.183C4.35067 12.2982 4.68947 12.4135 5.02827 12.5288C6.22784 12.9371 7.42745 13.3454 8.6289 13.7472C8.78273 13.7933 8.9082 13.9052 8.97146 14.0528C9.80603 15.7576 10.6456 17.4599 11.485 19.162C11.5692 19.3327 11.6534 19.5035 11.7376 19.6742C11.8092 19.8192 11.8817 19.964 11.959 20.1185C12.004 20.2084 12.0507 20.3016 12.0998 20.4C12.1115 20.3699 12.1212 20.3453 12.1295 20.3243C12.1453 20.2843 12.156 20.2572 12.1655 20.2295C12.2853 19.8776 12.4053 19.5257 12.5252 19.1738C12.9275 17.9944 13.3297 16.8149 13.7243 15.6328C13.7786 15.4424 13.915 15.286 14.0963 15.2065C15.696 14.4237 17.2933 13.635 18.8905 12.8463C19.2761 12.6559 19.6618 12.4654 20.0474 12.2751C20.1102 12.2442 20.1726 12.2122 20.2427 12.1763C20.2907 12.1518 20.3422 12.1254 20.3998 12.0963C20.363 12.0832 20.332 12.0721 20.3049 12.0624C20.2536 12.0441 20.216 12.0306 20.178 12.0178C19.8703 11.9132 19.5626 11.8087 19.2548 11.7043C18.0239 11.2863 16.7929 10.8683 15.5639 10.4446C15.4515 10.4061 15.3202 10.3231 15.2704 10.2235C14.3612 8.39712 13.4598 6.56718 12.5582 4.73684C12.4452 4.50733 12.3321 4.27781 12.219 4.04829C12.197 4.00385 12.1739 3.95969 12.1473 3.90889C12.1302 3.87601 12.1115 3.84036 12.0907 3.80005C12.0784 3.83227 12.0675 3.86001 12.0578 3.88484C12.039 3.9327 12.0244 3.9698 12.0115 4.00755C11.9218 4.27171 11.8321 4.53585 11.7424 4.79999C11.3067 6.08252 10.871 7.36498 10.4406 8.64951C10.3997 8.78912 10.2991 8.90349 10.1659 8.96189C8.97738 9.54299 7.79067 10.1283 6.60415 10.7136C6.46415 10.7826 6.32416 10.8517 6.18417 10.9207C5.7387 11.1404 5.29372 11.3611 4.84024 11.586ZM13.2933 7.52784L13.2924 7.52603L13.2886 7.51829C12.924 6.77905 12.5579 6.03699 12.188 5.28649L9.56218 13.0334L14.7459 10.474C14.2602 9.48803 13.778 8.5104 13.2933 7.52784ZM5.29162 12.014L8.88628 13.2341L10.1071 9.63495L5.29162 12.014ZM9.63239 14.1034L12.0062 18.9189L13.2255 15.3175L9.63314 14.1034H9.63239ZM9.8971 13.5723C9.88265 13.5638 9.86515 13.5535 9.84218 13.5413L10.1478 13.389L10.1481 13.3888L10.1482 13.3888C10.3533 13.2865 10.5501 13.1883 10.7476 13.0908L11.5747 12.6823L11.5748 12.6823C12.707 12.1229 13.8395 11.5634 14.9754 11.0113C15.0889 10.9616 15.2164 10.9536 15.3353 10.9886C16.3054 11.3079 17.2727 11.6367 18.2397 11.9653L18.7051 12.1235C18.7374 12.1344 18.7688 12.1467 18.8123 12.1637C18.8348 12.1725 18.8606 12.1826 18.8914 12.1944L18.5634 12.3583L18.5631 12.3584L18.5628 12.3586C18.2756 12.5022 18.0018 12.639 17.7272 12.7747L17.1776 13.0461C16.0357 13.61 14.8935 14.1742 13.7485 14.7327C13.6557 14.778 13.5213 14.8036 13.427 14.7734C12.4943 14.4652 11.5646 14.1486 10.6346 13.832L10.6345 13.832L9.94857 13.5986C9.93288 13.5932 9.91826 13.5847 9.8971 13.5723Z" fill="white"/>
</svg>
