<svg width="24" height="24" viewBox="0 0 24 24" fill="none" xmlns="http://www.w3.org/2000/svg">
<circle cx="12" cy="12" r="12" fill="#36A9CF"/>
<path fill-rule="evenodd" clip-rule="evenodd" d="M19.7671 14.2431C19.8386 14.0805 19.7897 13.9024 19.6573 13.845C19.5256 13.7876 19.3601 13.8718 19.2886 14.0343C19.2392 14.1365 19.2451 14.2565 19.3044 14.3534L17.6116 17.3174C17.5497 17.3099 17.4869 17.3186 17.4295 17.3427L16.3084 16.2111C16.3526 16.0146 16.2506 15.8145 16.0647 15.7333V8.43209C16.134 8.40159 16.1938 8.35319 16.2377 8.29194L18.9982 9.75679L19.0072 9.79407C19.0576 9.96403 19.2104 10.0669 19.3481 10.0222C19.485 9.97894 19.5557 9.80525 19.5046 9.63454C19.4579 9.47873 19.327 9.38033 19.1991 9.39747L17.8576 6.80323L17.8636 6.79577C17.9614 6.65413 17.8997 6.44092 17.7282 6.31867C17.6296 6.24423 17.5017 6.21943 17.3821 6.25157L16.4672 5.64178C16.449 5.50823 16.3696 5.39049 16.252 5.32271C16.1454 5.2575 16.0154 5.24171 15.8961 5.27948L13.7699 4.07777C13.7406 3.94806 13.6164 3.83549 13.4509 3.80716C13.2688 3.77511 13.1003 3.85413 13.0408 3.98832L8.43776 4.81728C8.33384 4.74756 8.20293 4.73018 8.08414 4.77032C7.89529 4.82921 7.77491 4.99545 7.80275 5.152L4.60362 8.47309C4.46067 8.46563 4.31546 8.57522 4.25527 8.74891C4.20587 8.87769 4.22569 9.0225 4.30793 9.13358L4.12812 13.3731C4.03256 13.4506 3.9814 13.596 4.00623 13.7503C4.03632 13.9218 4.15144 14.0515 4.28461 14.0776L5.50347 16.8783C5.45381 17.0065 5.50046 17.1757 5.62987 17.292C5.72163 17.3799 5.85038 17.4187 5.97597 17.3964L8.9396 19.515C8.93208 19.6694 9.06299 19.8192 9.25259 19.8602C9.37057 19.8889 9.49532 19.8631 9.59192 19.7901L13.4276 20.0563C13.5013 20.1644 13.6548 20.2225 13.8158 20.1919C13.955 20.1713 14.0726 20.0787 14.1243 19.9489L17.3889 18.0122C17.5097 18.0199 17.6279 17.9744 17.7116 17.8877C17.8172 17.7915 17.8636 17.6472 17.8335 17.5082L19.5076 14.4496C19.6249 14.4312 19.7237 14.3526 19.7671 14.2431ZM19.6159 14.0396C19.6686 14.0627 19.6889 14.1335 19.6603 14.1991C19.631 14.264 19.5655 14.2975 19.5129 14.2751C19.4594 14.2513 19.4399 14.1805 19.4685 14.1156C19.4971 14.0508 19.5633 14.0172 19.6159 14.0396ZM17.6551 17.7714C17.7152 17.7117 17.7258 17.6238 17.6784 17.5746C17.631 17.5254 17.5437 17.5336 17.4828 17.5925C17.4226 17.6521 17.412 17.7408 17.4594 17.79C17.5068 17.8392 17.5949 17.831 17.6551 17.7714ZM17.1905 17.5672L17.1822 17.585L14.193 18.6093C14.1554 18.5668 14.1058 18.5325 14.0501 18.5087L13.9094 16.4907C13.9847 16.448 14.0451 16.3835 14.0824 16.3058H15.5255C15.5931 16.4509 15.7396 16.544 15.9009 16.5444C15.9768 16.5442 16.0511 16.523 16.1154 16.4832L17.1905 17.5672ZM14.0459 19.6619L16.6544 18.1143L14.2769 18.9283C14.245 19.0477 14.1575 19.1449 14.0414 19.19L13.9692 19.6104C13.9971 19.6239 14.0229 19.6412 14.0459 19.6619ZM13.9287 19.9124C13.9408 19.981 13.8843 20.0481 13.8016 20.063C13.7188 20.0787 13.6413 20.0362 13.6285 19.9683C13.6165 19.9005 13.6737 19.8334 13.7557 19.8185C13.8384 19.8021 13.9167 19.8453 13.9287 19.9124ZM13.4226 19.7663C13.4725 19.6847 13.5506 19.6238 13.6423 19.5948L13.7107 19.196C13.6498 19.1735 13.5949 19.1373 13.5505 19.0902L10.5575 19.5688L13.4226 19.7663ZM9.64918 19.3794L10.6228 16.5339C10.669 16.5232 10.713 16.5048 10.7529 16.4795L13.4231 18.7755L9.64918 19.3794ZM9.36983 19.1841L10.2983 16.4713C10.2371 16.4293 10.1883 16.3719 10.1568 16.3051H8.45944C8.44901 16.3257 8.43719 16.3456 8.42408 16.3647L9.36983 19.1841ZM9.4291 19.6425C9.41556 19.7096 9.33731 19.7498 9.25455 19.732C9.17178 19.7141 9.11686 19.6455 9.13116 19.5769C9.14545 19.5098 9.2237 19.4703 9.30646 19.4874C9.38922 19.5061 9.44415 19.5754 9.4291 19.6425ZM6.17954 17.1884L9.04236 19.2355L8.13799 16.5399C8.00569 16.5569 7.87319 16.5098 7.78212 16.4131L6.18481 17.1027C6.1871 17.1313 6.18558 17.1602 6.1803 17.1884H6.17954ZM6.02482 16.812C5.99065 16.7838 5.95266 16.7604 5.91196 16.7426L5.20247 13.2777L7.74251 15.8786C7.69659 15.9452 7.67052 16.0232 7.66727 16.1038L6.02482 16.812ZM5.89437 17.1966C5.93951 17.1459 5.92447 17.058 5.86202 17.0013C5.79882 16.9454 5.71154 16.9409 5.6664 16.9924C5.62126 17.0445 5.6348 17.1325 5.698 17.1884C5.7612 17.2443 5.84923 17.2481 5.89362 17.1966H5.89437ZM5.42191 15.974L4.54764 13.9665C4.62177 13.8594 4.6428 13.7247 4.60482 13.6004L4.8358 13.1129L5.42191 15.974ZM4.52672 10.7311L4.42138 13.23L4.63054 12.7901C4.56024 12.658 4.56685 12.4986 4.64785 12.3727L4.52672 10.7311ZM4.44282 8.94202C4.37887 8.91891 4.34802 8.83541 4.37661 8.7549H4.37586C4.40445 8.67439 4.47818 8.62817 4.54289 8.65054C4.60759 8.67365 4.63694 8.75714 4.6091 8.83765C4.58126 8.91816 4.50753 8.96438 4.44282 8.94202ZM5.01109 12.5963C5.01109 12.5113 4.94864 12.4427 4.8734 12.4427C4.79741 12.4427 4.73496 12.5113 4.73496 12.5963C4.73496 12.682 4.79741 12.7506 4.8734 12.7506C4.94864 12.7506 5.01109 12.682 5.01109 12.5963ZM4.73537 9.12313C4.78204 9.07505 4.81726 9.01723 4.83845 8.95391C4.84825 8.92506 4.85531 8.89536 4.85952 8.8652L6.2928 7.9013L4.95357 12.0976L4.73537 9.12313ZM7.11532 6.28141L5.28402 8.18237L6.22224 7.5517C6.23484 7.4668 6.27194 7.38732 6.32908 7.32284C6.3879 7.25358 6.46751 7.20474 6.5563 7.18343L7.11532 6.28141ZM6.8646 7.30646L8.05863 5.38165V5.3824C8.12732 5.39362 8.19772 5.38851 8.26403 5.36749C8.35826 5.33968 8.44004 5.28075 8.49576 5.2005L10.9545 5.74022C10.9655 5.8104 10.994 5.87676 11.0373 5.9333L10.233 7.62851C10.1039 7.65549 9.99524 7.74111 9.93958 7.85961H8.45965C8.40314 7.73543 8.28768 7.64749 8.15203 7.62532C8.01639 7.60314 7.87854 7.64967 7.78476 7.74928L6.90071 7.48016C6.906 7.42001 6.89345 7.35964 6.8646 7.30646ZM8.10246 4.8948C8.02195 4.9194 7.97304 4.99321 7.99261 5.05881C8.01292 5.12515 8.09418 5.15796 8.17393 5.13336C8.25444 5.10875 8.30409 5.03495 8.28378 4.96935C8.26422 4.903 8.18371 4.86946 8.10246 4.8948ZM9.09261 4.99468L12.8034 4.32525L11.504 5.27647C11.3324 5.21632 11.1413 5.2748 11.0338 5.42035L9.09261 4.99468ZM13.2582 4.39762L11.8746 5.41146L15.6703 5.51583L15.6786 5.4875L13.6668 4.3514C13.5742 4.41863 13.4573 4.44431 13.3447 4.42222C13.3151 4.41694 13.2861 4.4087 13.2582 4.39762ZM13.2661 4.03307C13.2774 3.96449 13.3549 3.92125 13.4377 3.93616C13.5204 3.95107 13.5784 4.01816 13.5663 4.08525C13.5543 4.15384 13.4775 4.19707 13.3948 4.18216C13.3113 4.16725 13.2548 4.10016 13.2661 4.03307ZM15.8697 5.96755C15.8183 5.93612 15.7736 5.8951 15.738 5.84678L11.7782 5.73794C11.7752 5.76126 11.7699 5.78422 11.7624 5.80653L13.3605 7.63219C13.5506 7.59126 13.7441 7.68587 13.827 7.86031H15.5251C15.5665 7.77284 15.6372 7.70226 15.7252 7.66052L15.8697 5.96755ZM15.7341 8.04372C15.7341 7.95054 15.8086 7.8745 15.8997 7.8745H15.9004C15.9922 7.8745 16.0675 7.95054 16.0675 8.04372C16.0675 8.13691 15.9922 8.2122 15.8997 8.2122C15.8086 8.2122 15.7341 8.13691 15.7341 8.04372ZM15.9743 5.48899C15.933 5.56056 15.9638 5.65747 16.0436 5.70369C16.1226 5.7514 16.2211 5.73127 16.2618 5.65896C16.3039 5.5874 16.273 5.49123 16.1933 5.44426C16.1135 5.3973 16.0157 5.41743 15.9743 5.48899ZM16.1907 6.03393L18.9196 9.45342L16.3164 8.00869C16.3039 7.84969 16.202 7.71124 16.0531 7.65086L16.1907 6.03393ZM17.1946 6.47371L16.5822 6.06669L18.5587 8.61621L17.5971 6.91131C17.5168 6.90513 17.4397 6.877 17.3744 6.83005C17.2465 6.73985 17.1788 6.59895 17.1939 6.47371H17.1946ZM17.535 6.62206C17.4658 6.57286 17.4417 6.48787 17.4808 6.43122L17.4816 6.43196C17.5199 6.37456 17.6072 6.3686 17.6772 6.41705C17.7456 6.46551 17.7697 6.55124 17.7306 6.60715C17.6915 6.66455 17.6034 6.67051 17.535 6.62206ZM13.2896 8.04372C13.2896 8.13467 13.3611 8.20847 13.4522 8.20847C13.543 8.20725 13.6158 8.13372 13.6154 8.04372C13.6163 7.95343 13.5433 7.87945 13.4522 7.87823C13.361 7.87945 13.2881 7.95343 13.2889 8.04372H13.2896ZM13.261 11.6518C13.2923 11.6202 13.335 11.6023 13.3797 11.6019C13.4244 11.6023 13.467 11.6202 13.4982 11.6519C13.5294 11.6835 13.5466 11.7261 13.546 11.7703C13.5466 11.8146 13.5294 11.8573 13.4983 11.8891C13.4671 11.9208 13.4244 11.939 13.3797 11.9396C13.288 11.9396 13.2127 11.8635 13.2127 11.7703C13.2123 11.726 13.2297 11.6834 13.261 11.6518ZM11.2 5.62014C11.2 5.71333 11.2745 5.78862 11.3663 5.78862C11.411 5.78823 11.4537 5.77026 11.485 5.73866C11.5163 5.70706 11.5337 5.66443 11.5333 5.62014C11.5333 5.52696 11.4581 5.45092 11.3663 5.45092C11.3216 5.45151 11.279 5.46967 11.2478 5.50141C11.2166 5.53314 11.1994 5.57586 11.2 5.62014ZM10.5584 7.70155L11.3213 6.09505C11.3983 6.1028 11.476 6.08912 11.5455 6.05554L13.0954 7.8253C13.0312 7.92941 13.0157 8.05596 13.0528 8.17231C13.0898 8.28865 13.1759 8.3834 13.2888 8.43212V11.3588C13.2641 11.3641 13.2399 11.3716 13.2166 11.3812L10.6735 8.25767C10.7848 8.07049 10.7351 7.83021 10.5584 7.70155ZM10.1479 8.04372C10.1479 8.13691 10.2231 8.2122 10.3149 8.2122C10.406 8.2122 10.4812 8.13691 10.4812 8.04372C10.4812 7.95054 10.406 7.8745 10.3149 7.8745C10.2217 7.87573 10.1471 7.95137 10.1479 8.04372ZM8.08318 8.20847C7.9929 8.20847 7.92067 8.13467 7.92067 8.04372C7.92067 7.95277 7.9929 7.87823 8.08318 7.87823C8.17347 7.87823 8.24645 7.95203 8.24645 8.04372C8.24645 8.13467 8.17347 8.20847 8.08318 8.20847ZM8.0835 15.9532C8.039 15.9538 7.99656 15.9719 7.96551 16.0035C7.93447 16.0351 7.91737 16.0776 7.91797 16.1217C7.91797 16.2149 7.99171 16.2901 8.0835 16.2901C8.1282 16.2898 8.17091 16.2718 8.20223 16.2402C8.23355 16.2086 8.25093 16.166 8.25053 16.1217C8.25113 16.0773 8.23382 16.0346 8.20245 16.0029C8.17109 15.9713 8.12826 15.9534 8.0835 15.9532ZM6.4234 7.60831C6.37148 7.56284 6.376 7.47413 6.43092 7.41002C6.48735 7.34591 6.57312 7.331 6.62428 7.37722C6.67544 7.42269 6.67168 7.5114 6.61601 7.57477C6.56033 7.63962 6.47381 7.65304 6.4234 7.60831ZM5.20861 12.3742C5.25079 12.4407 5.27297 12.5177 5.27257 12.5963C5.27257 12.6783 5.24999 12.7544 5.21087 12.8162L7.92095 15.5909V8.43209C7.77075 8.36654 7.67206 8.22116 7.6674 8.05861L6.74799 7.77906C6.71942 7.80474 6.68755 7.82655 6.65319 7.84391L5.20861 12.3742ZM14.0971 15.9748C14.0384 15.8146 13.8856 15.699 13.7058 15.699C13.6695 15.6996 13.6333 15.7046 13.5982 15.7139L10.9777 12.486C11.028 12.3578 11.0114 12.2133 10.9332 12.0996C10.855 11.9859 10.7253 11.9177 10.5864 11.9172C10.4744 11.9182 10.3674 11.9633 10.2891 12.0426C10.2107 12.122 10.1675 12.2289 10.1689 12.3399C10.1686 12.4858 10.2442 12.6216 10.369 12.6992V15.7333C10.263 15.7796 10.1806 15.8669 10.141 15.9748H8.4745C8.43387 15.866 8.35186 15.778 8.24653 15.7333V8.43212C8.35257 8.38577 8.43492 8.29853 8.4745 8.19059H9.92359C9.99487 8.3881 10.2041 8.50151 10.4104 8.45448L12.9895 11.6213C12.9715 11.6682 12.9625 11.7182 12.9625 11.7704C12.9611 11.8812 13.0042 11.9881 13.0824 12.0673C13.1606 12.1466 13.2674 12.1919 13.3793 12.193C13.6121 12.1902 13.7986 12.001 13.7961 11.7704C13.7969 11.6319 13.7295 11.5017 13.6155 11.4215V8.43212C13.7213 8.38561 13.8033 8.29838 13.8427 8.19059H15.51C15.549 8.29866 15.6312 8.38604 15.7372 8.43212V15.7333C15.6312 15.7794 15.549 15.8668 15.51 15.9748H14.0971ZM13.8866 18.7159C13.7963 18.7159 13.7211 18.783 13.7211 18.8665C13.7211 18.95 13.7963 19.0164 13.8866 19.0164C13.9792 19.0164 14.0544 18.9493 14.0544 18.8673C14.0544 18.7853 13.9792 18.7159 13.8874 18.7159H13.8866ZM13.705 16.2901C13.614 16.2901 13.5395 16.2149 13.5395 16.1217C13.5387 16.0297 13.613 15.9544 13.7058 15.9532C13.7505 15.9536 13.7932 15.9716 13.8245 16.0032C13.8559 16.0347 13.8732 16.0774 13.8728 16.1217C13.8732 16.1661 13.8558 16.2088 13.8243 16.2404C13.7928 16.2721 13.7499 16.29 13.705 16.2901ZM10.4195 12.3399C10.4195 12.433 10.4948 12.5083 10.5865 12.5083C10.6783 12.5083 10.7528 12.433 10.7528 12.3399C10.7528 12.2459 10.6783 12.1714 10.5865 12.1714C10.4948 12.1714 10.4195 12.2459 10.4195 12.3399ZM10.4133 16.0032C10.4447 15.9716 10.4874 15.9536 10.5321 15.9532C10.5767 15.9536 10.6193 15.9716 10.6505 16.0032C10.6817 16.0348 10.699 16.0775 10.6984 16.1217C10.6984 16.2149 10.6239 16.2901 10.5321 16.2901C10.4403 16.2901 10.365 16.2149 10.365 16.1217C10.3646 16.0774 10.382 16.0347 10.4133 16.0032ZM10.6946 15.7332C10.8798 15.8138 10.9823 16.0122 10.9399 16.2081L13.6432 18.5318C13.6678 18.5176 13.6938 18.5058 13.7207 18.4967L13.5823 16.5257C13.4063 16.4684 13.2878 16.3052 13.2889 16.1216C13.2889 16.0471 13.3077 15.9778 13.3415 15.9181L10.7511 12.7275C10.7328 12.7354 10.714 12.7419 10.6946 12.7469V15.7332ZM16.0191 16.0029C16.0503 16.0344 16.0676 16.0768 16.0672 16.1209L16.068 16.1217C16.068 16.2149 15.9927 16.2901 15.9009 16.2901C15.8092 16.2901 15.7339 16.2149 15.7339 16.1217C15.7335 16.0774 15.7509 16.0347 15.7822 16.0032C15.8135 15.9716 15.8562 15.9536 15.9009 15.9532C15.9454 15.9536 15.988 15.9715 16.0191 16.0029ZM4.247 13.8688C4.31472 13.8576 4.3576 13.7801 4.34331 13.6966C4.32826 13.6124 4.2628 13.5535 4.19584 13.5654C4.12813 13.5766 4.08599 13.6548 4.10029 13.7383C4.11383 13.8226 4.18004 13.8815 4.247 13.8688ZM19.2109 9.76423C19.1906 9.69639 19.2192 9.62632 19.2734 9.60917H19.2741C19.3283 9.59203 19.39 9.63228 19.4095 9.70087C19.4291 9.7687 19.402 9.83878 19.3463 9.85592C19.2922 9.87307 19.2312 9.83207 19.2109 9.76423Z" fill="white"/>
</svg>
