<svg width="24" height="24" viewBox="0 0 24 24" fill="none" xmlns="http://www.w3.org/2000/svg">
<circle cx="12" cy="12" r="12" fill="#EDF0F4"/>
<path d="M7.30749 9.26275H13.3088C14.207 9.26275 14.9376 9.99343 14.9376 10.8916C14.9376 11.7897 14.207 12.5204 13.3088 12.5204H10.0615C9.80543 12.5204 9.59781 12.728 9.59781 12.9841C9.59781 13.2402 9.80543 13.4478 10.0615 13.4478H13.3087C14.7182 13.4478 15.865 12.3012 15.865 10.8916C15.865 9.48187 14.7182 8.33527 13.3087 8.33527H7.30749C7.05137 8.33527 6.84375 8.54289 6.84375 8.79901C6.84375 9.05512 7.05137 9.26275 7.30749 9.26275Z" fill="#8500FF"/>
<path d="M13.3084 6.20007H10.9807C10.7245 6.20007 10.5169 6.4077 10.5169 6.66381C10.5169 6.91993 10.7245 7.12756 10.9807 7.12756H13.3084C15.3839 7.12756 17.0723 8.81609 17.0723 10.8916C17.0723 12.9671 15.3838 14.6557 13.3083 14.6557H7.39572C7.22881 14.6538 7.07377 14.7418 6.98976 14.886C6.90576 15.0303 6.90576 15.2085 6.98976 15.3528C7.07377 15.497 7.22881 15.5849 7.39572 15.583H13.3083C15.8952 15.583 17.9998 13.4785 17.9998 10.8915C17.9998 8.30453 15.8954 6.20007 13.3084 6.20007Z" fill="#8500FF"/>
<path fill-rule="evenodd" clip-rule="evenodd" d="M10.1561 10.4279C10.4121 10.4282 10.6195 10.6356 10.6198 10.8916C10.6198 11.1646 10.3926 11.3553 10.0671 11.3553H8.93701C8.76728 11.3553 8.56217 11.1485 8.56217 10.8916C8.56247 10.6356 8.76992 10.4282 9.02591 10.4279H10.1561ZM6.46902 16.7911H9.15205C9.31897 16.7892 9.47404 16.8771 9.55806 17.0214C9.64207 17.1656 9.64207 17.3439 9.55806 17.4882C9.47404 17.6324 9.31897 17.7204 9.15205 17.7185H6.46902C6.3021 17.7204 6.14703 17.6324 6.06301 17.4882C5.979 17.3439 5.979 17.1656 6.06301 17.0214C6.14703 16.8771 6.3021 16.7892 6.46902 16.7911Z" fill="#8500FF"/>
</svg>
