<svg width="24" height="24" viewBox="0 0 24 24" fill="none" xmlns="http://www.w3.org/2000/svg">
<circle cx="12" cy="12" r="12" fill="#50479E"/>
<path fill-rule="evenodd" clip-rule="evenodd" d="M11.8501 8.02472L11.8691 8.03517L12.1411 7.88518V4.60037C11.788 4.59389 11.438 4.66747 11.1172 4.81561L8.57466 6.21878L8.58019 6.22183L5.98877 7.64518V7.64443C5.71075 7.82292 5.47607 8.06291 5.30268 8.34789C5.10463 8.67112 5 9.0446 5 9.42483L5.00535 11.3542L5 11.35V14.7743C5.00077 15.167 5.11274 15.5514 5.32286 15.8827C5.52257 16.1987 5.79903 16.4586 6.12628 16.638V16.6372L10.9737 19.3131C11.3313 19.5089 11.7337 19.6077 12.1411 19.5995V16.3567L11.8691 16.2067L8.56868 14.3858L8.31159 14.2336L8.30636 14.0851V13.9411L8.30628 13.9411V10.3023L8.30636 10.3023V10.0023L11.8608 8.03516L11.8501 8.02472ZM7.12212 10.9549L8.30628 10.3023V10.3015L7.12212 10.9549ZM5.58089 11.8052L7.12212 10.9549L5.58011 11.8046L5.00535 11.3542L5.00747 12.1202L5.58011 11.8046L5.58089 11.8052ZM5.00807 12.1213L8.30628 13.9411L5.58089 11.8052L5.00807 12.1213ZM5.00807 12.1213L5.00739 12.1209V12.1217L5.00807 12.1213ZM11.8501 8.02472L8.58019 6.22183L9.48421 5.72529L11.8501 8.02472ZM12.1412 7.88609V4.60128C12.5208 4.60706 12.8933 4.70565 13.2263 4.88851L15.6724 6.23798L12.4341 8.02468L12.4343 8.02475L12.4341 8.02483L12.1412 7.88609ZM12.4343 8.02475L15.6732 9.81108L15.9767 9.97832V10.0053L18.9168 8.38316C18.7153 8.03771 18.4239 7.75383 18.0738 7.56196L15.6732 6.23753L15.6724 6.23798L15.6732 6.23843L12.4343 8.02475ZM19.1999 14.7735V9.42633C19.1999 9.0551 19.099 8.69887 18.9167 8.38389L15.9765 10.006V14.2651L15.6732 14.4322V14.4315L12.4342 16.2179L12.4341 16.2179L12.1621 16.3679L12.1412 16.3567V19.5987C12.5207 19.5931 12.8932 19.4948 13.2263 19.3122L15.6343 17.9833L15.6344 17.9833L15.6732 17.9616V17.9615L18.0736 16.6379C18.4226 16.4452 18.7044 16.1714 18.8987 15.849C19.0953 15.5257 19.1999 15.1538 19.1999 14.7735ZM15.6343 17.9833L15.6344 17.9833L12.4342 16.2179L12.4341 16.2179L15.6343 17.9833ZM15.6732 17.9615L15.6731 17.9616V14.4323L15.6732 14.4322V17.9615ZM15.3586 13.9329V10.3451L15.3579 10.3466L12.1397 12.1217V15.708L15.3586 13.9329Z" fill="white"/>
</svg>
