<svg width="24" height="24" viewBox="0 0 24 24" fill="none" xmlns="http://www.w3.org/2000/svg">
<path d="M12 0C18.6264 0 24 5.3736 24 12C24 18.6264 18.6264 24 12 24C5.3736 24 0 18.6264 0 12C0 5.3736 5.3736 0 12 0Z" fill="black"/>
<path d="M17.1476 10.3752C17.6948 7.77839 16.4876 6.45599 14.21 6.45599C12.842 6.45599 11.7044 6.95759 10.6772 7.89119L10.9052 6.84239C10.9052 6.84239 10.5404 6.68399 9.81084 6.68399C9.01404 6.68399 8.62524 6.84239 8.62524 6.84239L6.43164 17.1456C6.43164 17.1456 6.75084 17.304 7.54764 17.304C8.27724 17.304 8.70924 17.1456 8.70924 17.1456L10.2884 9.76079C11.0852 8.84879 12.1796 8.30159 13.1828 8.30159C14.642 8.30159 15.1412 9.03119 14.87 10.308L13.4036 17.1456C13.4036 17.1456 13.7444 17.304 14.5196 17.304C15.2708 17.304 15.6812 17.1456 15.6812 17.1456L17.1476 10.3752Z" fill="white"/>
</svg>
