<svg width="24" height="24" viewBox="0 0 24 24" fill="none" xmlns="http://www.w3.org/2000/svg">
<circle cx="12" cy="12" r="12" fill="#B3BA00"/>
<path fill-rule="evenodd" clip-rule="evenodd" d="M9.75 8.05725L9.8475 7.998L12.003 6.75L14.25 8.05125V15L9.75 8.05725ZM12.102 17.25L9.75 15.8738V9L14.25 15.996L12.102 17.25ZM7.5 9.267V14.733L9 15.75V8.25L7.5 9.267ZM16.5 14.7098L15 15.75V8.25L16.5 9.29025V14.7098Z" fill="white"/>
<path fill-rule="evenodd" clip-rule="evenodd" d="M3 12C3 7.03125 7.03125 3 12 3C16.9688 3 21 7.03125 21 12C21 16.9688 16.9688 21 12 21C7.03125 21 3 16.9688 3 12ZM7.10563 14.835L11.9626 17.715L11.9634 17.7143L16.8204 14.8358V9.08402L11.9634 6.21152L7.10563 9.08402V14.835Z" fill="white"/>
</svg>
