<svg width="24" height="24" viewBox="0 0 24 24" fill="none" xmlns="http://www.w3.org/2000/svg">
<path d="M12 24C18.6276 24 24 18.6276 24 12C24 5.3724 18.6276 0 12 0C5.3724 0 0 5.3724 0 12C0 18.6276 5.3724 24 12 24Z" fill="#EDF0F4"/>
<path fill-rule="evenodd" clip-rule="evenodd" d="M18.8245 12.538C19.0338 12.6775 18.964 12.7938 18.6151 12.8868C18.4756 12.9333 18.4756 12.9566 18.4756 13.0264C18.4756 13.2124 18.4523 13.2822 18.057 13.352C17.9575 13.3438 17.864 13.3999 17.8244 13.4915C17.8477 13.6543 17.6616 13.7473 17.243 13.7939C17.1315 13.7951 17.0242 13.8364 16.9406 13.9101C16.8708 14.0729 16.6383 14.1427 16.1964 14.1427C16.0731 14.1351 15.9507 14.1677 15.8475 14.2357C15.708 14.3753 15.4056 14.4451 14.9637 14.4218C14.8283 14.4135 14.6928 14.4374 14.5684 14.4916C14.2713 14.632 13.9369 14.6728 13.6148 14.6079C13.4673 14.591 13.3179 14.5989 13.1729 14.6311C12.8507 14.741 12.5039 14.7571 12.1729 14.6776C12.0265 14.6544 11.8774 14.6544 11.731 14.6776C11.4021 14.764 11.0555 14.756 10.7309 14.6544C10.5877 14.6105 10.436 14.6026 10.289 14.6311C9.96761 14.7096 9.62861 14.6682 9.33547 14.5148C9.21033 14.4631 9.0754 14.4393 8.9401 14.4451C8.49821 14.4683 8.21912 14.4218 8.05632 14.259C7.9436 14.2234 7.82556 14.2077 7.70746 14.2125C7.26557 14.2125 7.00974 14.1195 6.96322 13.9799C6.87963 13.9062 6.77234 13.8649 6.66088 13.8636C6.24225 13.8171 6.03293 13.7241 6.05619 13.5845C6.05619 13.5148 5.98642 13.4683 5.82362 13.445C5.42824 13.3752 5.2887 13.2589 5.40498 13.1194C5.4515 13.0729 5.40498 13.0031 5.26544 12.9798C4.91658 12.8868 4.84681 12.7705 5.05612 12.631C5.1259 12.5845 5.10264 12.5147 5.00961 12.4682C4.73052 12.3519 4.73052 12.2356 5.00961 12.1193C5.10264 12.0728 5.1259 12.003 5.05612 11.9565C4.84681 11.817 4.91658 11.7007 5.26544 11.6077C5.40498 11.5612 5.4515 11.5146 5.40498 11.4681C5.2887 11.3286 5.42824 11.2123 5.82362 11.1425C5.92305 11.1507 6.01662 11.0946 6.05619 11.003C6.03293 10.8402 6.21899 10.7471 6.63762 10.7006C6.74908 10.6993 6.85637 10.6581 6.93997 10.5843C7.00974 10.4215 7.24231 10.3518 7.6842 10.3285C7.8075 10.3361 7.92993 10.3035 8.03306 10.2355C8.17261 10.0959 8.47495 10.0262 8.91684 10.0494C9.0523 10.0578 9.18779 10.0338 9.31222 9.97966C9.60925 9.83923 9.94369 9.79845 10.2658 9.86337C10.4133 9.88021 10.5627 9.87235 10.7077 9.84011C11.0299 9.73023 11.3767 9.7141 11.7077 9.7936C11.8541 9.81687 12.0032 9.81687 12.1496 9.7936C12.4785 9.70722 12.8251 9.71528 13.1497 9.81685C13.2928 9.86068 13.4446 9.86867 13.5916 9.84011C13.913 9.76164 14.252 9.80298 14.5451 9.9564C14.6703 10.0082 14.8052 10.032 14.9405 10.0262C15.3824 10.0029 15.6615 10.0494 15.8243 10.2122C15.9274 10.2802 16.0498 10.3129 16.1731 10.3053C16.615 10.3053 16.8708 10.3983 16.9174 10.5378C16.9979 10.6165 17.1072 10.6586 17.2197 10.6541C17.5453 10.6774 17.7314 10.7704 17.8244 10.9332C17.864 11.0248 17.9575 11.0809 18.057 11.0727C18.3593 11.0727 18.5919 11.2588 18.4756 11.3984C18.4291 11.4449 18.4756 11.5379 18.6151 11.5379C18.8942 11.5379 19.0338 11.7472 18.8245 11.8868C18.7547 11.9333 18.7547 12.003 18.871 12.0496C19.1501 12.1658 19.1501 12.2821 18.871 12.3984C18.7896 12.4217 18.7663 12.4914 18.8245 12.538Z" stroke="black" stroke-width="1.5"/>
<path d="M11.4631 7.07249C11.7562 6.96942 11.9459 6.68497 11.9283 6.37477C11.905 6.02591 11.5562 5.90962 11.1143 6.07242C10.2305 6.37477 9.99792 7.37483 9.85838 8.3749C9.81186 8.65399 9.78861 8.95633 9.76535 9.21216C9.4852 11.3243 9.36083 13.4543 9.39323 15.5847C9.41649 15.9568 9.53278 16.3754 9.23043 16.7708C8.71877 16.8173 8.85831 16.515 8.39317 16.6778C7.66056 16.9313 7.83499 17.9104 8.35828 17.8616C8.53375 17.8577 8.70397 17.8009 8.84668 17.6988C9.75372 17.2336 9.87001 16.0242 10.0328 14.8149C10.3109 12.6322 10.443 10.4333 10.4282 8.23303V8.2121C10.4282 7.81672 10.3584 7.16552 10.6142 7.02597C10.8701 6.88643 11.0561 7.23529 11.4515 7.07249" fill="black"/>
<path d="M14.8702 6.12592C13.9864 6.42826 13.7538 7.42833 13.6143 8.42839C13.5678 8.70748 13.5445 9.00982 13.5213 9.26566C13.2411 11.3778 13.1167 13.5077 13.1491 15.6382C13.1724 16.0103 13.2887 16.4289 12.9863 16.8243C12.4747 16.8941 12.6142 16.5685 12.1491 16.7313C11.4281 16.9871 11.5909 17.9639 12.1258 17.9174C12.3013 17.9135 12.4715 17.8568 12.6142 17.7546C13.5213 17.2894 13.6375 16.0801 13.8003 14.8707C14.0785 12.688 14.2106 10.4891 14.1957 8.28885V8.26559C14.1957 7.87022 14.1259 7.21901 14.3818 7.07947C14.6376 6.93992 14.8237 7.26552 15.219 7.10272C15.5121 6.99966 15.7018 6.7152 15.6842 6.405C15.6609 6.0794 15.3121 5.96311 14.8702 6.12592Z" fill="black"/>
</svg>
