<svg width="24" height="24" viewBox="0 0 24 24" fill="none" xmlns="http://www.w3.org/2000/svg">
<circle cx="12" cy="12" r="12" fill="#EDF0F4"/>
<path d="M8.606 6.07863L15.4192 10.0104V14.0208L5 8.00519L8.3392 6.07863C8.42245 6.03369 8.52274 6.03369 8.606 6.07863Z" fill="#3CA9E5"/>
<path d="M15.4188 6L11.9448 8.0052L15.4188 10.0104V6Z" fill="#2853C3"/>
<path d="M15.4189 6L18.761 7.92657C18.8426 7.97625 18.8934 8.06408 18.8958 8.15966V16.0232L15.4189 14.0208V6Z" fill="#1A4199"/>
<path d="M18.8933 16.026L15.5541 17.9526C15.4672 18.0028 15.3602 18.0028 15.2733 17.9526L8.46289 14.0208V10.0048L18.8933 16.026Z" fill="#2853C3"/>
<path d="M5 8.00522V15.8688C4.99943 15.9673 5.0506 16.059 5.13481 16.1103L8.474 18.0368V10.0048L5 8.00522Z" fill="#60BEFF"/>
<path d="M8.47412 18.0312L11.9453 16.026L8.47412 14.0208V18.0312Z" fill="#3CA9E5"/>
</svg>
