<svg width="24" height="24" viewBox="0 0 24 24" fill="none" xmlns="http://www.w3.org/2000/svg">
<path fill-rule="evenodd" clip-rule="evenodd" d="M12 24C5.4 24 0 18.6001 0 11.9402C0.06 5.34038 5.4 -0.0595036 12.06 0.000495204C18.66 0.060494 24 5.40038 24 12.1202C23.94 18.6601 18.6 24 12 24Z" fill="#EDF0F4"/>
<path fill-rule="evenodd" clip-rule="evenodd" d="M8.6226 7.17863C9.5417 6.28142 10.7672 5.79999 12.0583 5.79999C13.3494 5.79999 14.5748 6.28142 15.4939 7.20051C16.413 8.07584 16.9163 9.25754 16.9163 10.5268V18.1859H7.2002V10.5268C7.2002 9.25754 7.70351 8.07584 8.6226 7.17863ZM15.3189 7.35368C14.4655 6.50023 13.2838 6.04069 12.0583 6.04069C10.811 6.04069 9.65117 6.50023 8.79772 7.35368C7.9224 8.20712 7.44096 9.32317 7.44096 10.5267V17.9452H16.6757V10.5267C16.6757 9.32317 16.1943 8.20712 15.3189 7.35368Z" fill="#070001"/>
<path fill-rule="evenodd" clip-rule="evenodd" d="M14.6984 7.57584L14.9172 7.79467C15.6613 8.56058 16.0989 9.56721 16.0989 10.6614V17.3358H8.0459V10.6395C8.0459 9.56721 8.46168 8.56058 9.22759 7.79467C9.97162 7.02876 11.0001 6.61298 12.0724 6.61298C13.0572 6.61298 13.9763 6.94122 14.6984 7.57584ZM12.4663 17.1169C12.8821 17.1169 13.2979 17.0512 13.6699 16.9199C13.7575 16.8981 13.8231 16.8762 13.8888 16.8543V11.7774C13.8888 10.355 13.0353 9.47965 12.335 8.99822C11.5473 8.45114 10.6282 8.21042 9.94978 8.14477C9.84036 8.12289 9.73095 8.12289 9.64341 8.12289C8.98692 8.84504 8.6149 9.76413 8.6149 10.7489V13.2654C8.6149 14.097 8.8775 14.9067 9.38082 15.5632C9.42458 15.6288 9.49023 15.7164 9.55588 15.782V17.1169H12.4663Z" fill="#070001"/>
<path fill-rule="evenodd" clip-rule="evenodd" d="M12.3569 8.99819C11.5691 8.473 10.65 8.2104 9.9716 8.14475C9.91384 8.14475 9.85608 8.13865 9.80154 8.13289C9.75276 8.12774 9.70656 8.12286 9.66523 8.12286C9.00873 8.84501 8.63672 9.7641 8.63672 10.7488V13.2654C8.63672 14.097 8.89932 14.9067 9.40263 15.5632C9.43546 15.596 9.46281 15.6343 9.49016 15.6726L9.49016 15.6726L9.49017 15.6726C9.51752 15.7109 9.54487 15.7492 9.5777 15.782V17.1169H12.4882C12.9039 17.1169 13.2978 17.0512 13.6917 16.9199C13.7793 16.898 13.8449 16.8761 13.9325 16.8324V11.7555C13.9106 10.3331 13.0571 9.47962 12.3569 8.99819ZM9.79642 16.8762V16.0227C10.1903 16.3948 10.6499 16.7011 11.1532 16.8762H9.79642ZM12.4662 16.8761C12.882 16.8761 13.2978 16.8105 13.6698 16.6792H13.6479V11.7555C13.6479 9.4796 11.2626 8.42921 9.7308 8.36356C9.16184 9.02006 8.83359 9.8735 8.83359 10.7488V13.2435C8.83359 14.0094 9.0743 14.7535 9.53385 15.3662C9.5995 15.4756 9.68703 15.585 9.77457 15.6726L9.90587 15.8039C10.6061 16.5041 11.5033 16.8761 12.4662 16.8761Z" fill="#070001"/>
<path d="M11.1386 13.9493C11.073 13.9493 11.0073 13.8836 11.0073 13.818V11.5859C11.0073 10.995 11.4888 10.5136 12.0796 10.5136C12.6705 10.5136 13.1519 10.995 13.1519 11.5859C13.1519 11.6515 13.0862 11.7172 13.0206 11.7172C12.9549 11.7172 12.8893 11.6515 12.8893 11.5859C12.8893 11.1482 12.5173 10.7762 12.0796 10.7762C11.6419 10.7762 11.2699 11.1482 11.2699 11.5859V13.818C11.2699 13.8836 11.2043 13.9493 11.1386 13.9493Z" fill="#070001"/>
<path d="M12.4733 12.2205C12.4076 12.2205 12.342 12.1548 12.342 12.0892C12.342 11.936 12.2326 11.8266 12.0794 11.8266C11.9262 11.8266 11.8168 11.936 11.8168 12.0892C11.8168 12.1548 11.7511 12.2205 11.6855 12.2205C11.6198 12.2205 11.5542 12.1548 11.5542 12.0892C11.5542 11.7828 11.7949 11.5421 12.1013 11.5421C12.4076 11.5421 12.6484 11.7828 12.6484 12.0892C12.6046 12.1548 12.5389 12.2205 12.4733 12.2205Z" fill="#070001"/>
<path d="M11.1387 13.9493C10.7448 13.9493 10.4165 13.621 10.4165 13.2271C10.4165 13.1615 10.4822 13.0958 10.5478 13.0958C10.6135 13.0958 10.6791 13.1615 10.6791 13.2271C10.6791 13.4678 10.8761 13.6648 11.1168 13.6648C11.3575 13.6648 11.5544 13.4678 11.5544 13.2271C11.5544 13.1615 11.6201 13.0958 11.6857 13.0958C11.7514 13.0958 11.817 13.1615 11.817 13.2271C11.8389 13.621 11.5325 13.9493 11.1387 13.9493Z" fill="#070001"/>
<path d="M10.3725 12.4393C10.3288 12.4393 10.3069 12.4175 10.285 12.3956L9.69415 11.8047V12.308C9.69415 12.3737 9.6285 12.4393 9.56285 12.4393C9.4972 12.4393 9.40967 12.3737 9.40967 12.2862V11.4765C9.40967 11.4108 9.45343 11.3671 9.4972 11.3452C9.56285 11.3233 9.60662 11.3233 9.65038 11.3671L10.2412 11.9579V11.6078C10.2412 11.5421 10.3069 11.4765 10.3725 11.4765C10.4382 11.4765 10.5038 11.5421 10.5038 11.6078V12.2862C10.5038 12.3518 10.4601 12.3956 10.4163 12.4175C10.4163 12.4393 10.3944 12.4393 10.3725 12.4393Z" fill="#070001"/>
<path d="M11.1165 11.7391C11.0509 11.7391 10.9852 11.6735 10.9852 11.6078C10.9852 11.5859 10.9852 11.0388 10.6132 11.0388C10.5476 11.0388 10.4819 10.9732 10.4819 10.9075C10.4819 10.8419 10.5476 10.7762 10.6132 10.7762C11.1165 10.7762 11.2478 11.3233 11.2478 11.6078C11.2478 11.6735 11.1822 11.7391 11.1165 11.7391Z" fill="#070001"/>
</svg>
