<svg width="24" height="24" viewBox="0 0 24 24" fill="none" xmlns="http://www.w3.org/2000/svg">
<circle cx="12" cy="12" r="12" fill="#EDF0F4"/>
<path d="M12 4.2L6 10.2L12 15.9487L18 10.2L12 4.2Z" fill="url(#paint0_linear_300_14159)"/>
<path d="M8.98065 15.3057C9.11279 15.1288 9.23799 14.9609 9.38792 14.7976C7.58462 15.2322 6.34277 16.1423 6.34277 17.1956C6.34277 17.2349 6.3449 17.2739 6.34826 17.3126C6.52515 17.2455 6.71178 17.1652 6.91005 17.0677C8.10121 16.4825 8.56845 15.8573 8.98065 15.3057Z" fill="black"/>
<path d="M10.8589 17.2417C11.2195 16.7591 11.5309 16.3424 12.4111 15.9102C13.2913 15.478 13.8116 15.486 14.4139 15.4953C14.8174 15.5017 15.2525 15.5083 15.7833 15.3946C15.136 15.0469 14.3038 14.7838 13.3632 14.6427L12.0001 15.9482L11.0474 15.0355C10.3685 15.4926 10.0206 15.9575 9.70477 16.3795C9.34415 16.862 9.03277 17.2788 8.15254 17.7109C7.53514 18.0141 7.09498 18.1006 6.6792 18.122C7.00714 18.5569 7.55931 18.9388 8.26644 19.2324C8.43114 19.1685 8.60435 19.0929 8.78728 19.003C9.97911 18.4185 10.4464 17.7933 10.8589 17.2417Z" fill="black"/>
<path d="M13.9517 19.6406C15.3745 19.3342 16.4788 18.7368 16.9527 18.0017C16.5458 18.076 16.0828 18.2187 15.5317 18.4896C14.7636 18.8672 14.2971 19.2609 13.9517 19.6406Z" fill="black"/>
<path opacity="0.5" d="M12 10.2H6L12 4.2V10.2Z" fill="url(#paint1_linear_300_14159)"/>
<path fill-rule="evenodd" clip-rule="evenodd" d="M9.75977 19.5243C9.75977 19.5243 10.3431 19.6472 11.0011 19.7217C11.659 19.7963 12.0494 19.6998 12.0494 19.6998C12.0494 19.6998 13.0275 18.1515 14.0144 17.7391C14.0144 17.7391 14.975 17.2347 15.8479 17.3005L16.883 17.3444C16.883 17.3444 16.9208 16.9629 16.7473 16.4817C16.5739 16.0006 16.2997 15.9145 16.2997 15.9145C16.2997 15.9145 14.3653 15.8355 13.2117 16.5242C13.2117 16.5242 11.8345 17.4453 11.2423 18.4146C11.2423 18.4146 10.8388 18.919 10.5317 19.0989" fill="black"/>
<defs>
<linearGradient id="paint0_linear_300_14159" x1="12.0478" y1="4.58195" x2="6.59907" y2="10.2663" gradientUnits="userSpaceOnUse">
<stop offset="0.09" stop-color="#FF6D41"/>
<stop offset="0.5" stop-color="#FA297F"/>
<stop offset="1" stop-color="#FA297F"/>
</linearGradient>
<linearGradient id="paint1_linear_300_14159" x1="10.5533" y1="3.05483" x2="4.9614" y2="8.64666" gradientUnits="userSpaceOnUse">
<stop stop-color="#652CB4"/>
<stop offset="0.07" stop-color="#652CB4" stop-opacity="0.82"/>
<stop offset="0.19" stop-color="#652CB4" stop-opacity="0.53"/>
<stop offset="0.3" stop-color="#652CB4" stop-opacity="0.3"/>
<stop offset="0.4" stop-color="#652CB4" stop-opacity="0.14"/>
<stop offset="0.49" stop-color="#652CB4" stop-opacity="0.04"/>
<stop offset="0.55" stop-color="#652CB4" stop-opacity="0.01"/>
</linearGradient>
</defs>
</svg>
