<svg width="24" height="24" viewBox="0 0 24 24" fill="none" xmlns="http://www.w3.org/2000/svg">
<circle cx="12" cy="12" r="12" fill="#F80000"/>
<path fill-rule="evenodd" clip-rule="evenodd" d="M11.8583 7.07498L9.90226 8.69047L15.0825 8.08448L12.5453 7.02398C12.5453 7.02398 12.8093 5.10473 11.0648 4.59998L10.9058 5.20598C10.9058 5.20598 11.9633 5.45873 11.8583 7.07498ZM10.3779 19.6L15.3999 12.7315L13.4439 12.832L15.1884 8.38827L9.8754 9.12027L9.3999 14.0193H10.5632L10.3779 19.6ZM11.2764 16.2925V17.605C11.2764 17.7025 11.1946 17.782 11.0919 17.782C10.9891 17.782 10.9066 17.7025 10.9066 17.605V16.2917C10.9066 16.1942 10.9899 16.1155 11.0919 16.1155C11.1939 16.1155 11.2764 16.195 11.2764 16.2925ZM9.90226 13.6405H10.9598L10.911 15.6602C10.9103 15.7135 10.9313 15.7652 10.9703 15.8027C11.0093 15.8402 11.0625 15.8627 11.118 15.8627H11.127C11.2369 15.8649 11.3284 15.779 11.3333 15.6692L11.382 13.2865H10.3245L10.6793 9.37221C10.683 9.32721 10.6673 9.28221 10.635 9.24846C10.6028 9.21471 10.5578 9.19596 10.5098 9.19596H10.4798C10.3936 9.19422 10.3203 9.25816 10.3103 9.34371L9.90226 13.6405Z" fill="white"/>
</svg>
