<svg width="24" height="24" viewBox="0 0 24 24" fill="none" xmlns="http://www.w3.org/2000/svg">
<circle cx="12" cy="12" r="12" fill="#EDF0F4"/>
<path fill-rule="evenodd" clip-rule="evenodd" d="M13.7033 5.14465C14.5196 5.55635 15.0683 6.25769 15.2613 7.13631C15.2904 7.2688 15.2975 7.38244 15.2968 7.70397C15.2958 8.15342 15.2698 8.32142 15.1401 8.7173C15.0777 8.90785 14.8825 9.35124 14.861 9.35124C14.8223 9.35124 14.3189 9.06864 14.1701 8.96335C13.9232 8.78866 13.5436 8.40863 13.3922 8.18443C12.8251 7.34475 12.7432 6.34056 13.1635 5.38015C13.2012 5.29386 13.2626 5.17302 13.2998 5.11164L13.3675 5L13.449 5.02873C13.4938 5.04454 13.6082 5.0967 13.7033 5.14465ZM10.5586 5.42145C10.7694 5.45907 11.0069 5.54559 11.1974 5.65419C11.7914 5.99268 12.1517 6.58774 12.2326 7.36397C12.2527 7.55669 12.252 7.59171 12.2278 7.60703C12.184 7.63472 11.8086 7.6285 11.6014 7.59667C11.2412 7.54133 10.94 7.42894 10.6774 7.25198C10.5171 7.14395 10.2788 6.90572 10.1708 6.74547C9.93931 6.40193 9.79882 5.94919 9.79763 5.5428L9.79724 5.41133L9.86097 5.40063C10.0394 5.37064 10.321 5.37905 10.5586 5.42145ZM11.0328 7.97944C12.1878 8.12223 13.2797 8.79451 14.0466 9.8351C14.1144 9.92713 14.1699 10.0102 14.1699 10.0198C14.1699 10.0444 13.9094 10.2483 13.7106 10.3792C12.3463 11.2777 10.8313 11.4278 9.50181 10.7962C8.85047 10.4867 8.24251 9.95764 7.81361 9.32699L7.67671 9.12573L7.77096 9.04164C8.38988 8.48929 9.2041 8.10832 10.0202 7.98919C10.2398 7.95715 10.8081 7.95168 11.0328 7.97944ZM16.8271 10.5887C16.9869 10.6063 17.2443 10.6515 17.3321 10.6774C17.3756 10.6901 17.3774 10.8236 17.3378 11.1162C17.1884 12.221 16.6615 13.1833 15.846 13.8405C15.284 14.2933 14.6109 14.5751 13.7973 14.698C13.3846 14.7604 12.4543 14.7348 12.1844 14.6537C12.1387 14.64 12.1398 14.5619 12.1898 14.2552C12.355 13.2432 12.7831 12.3656 13.4246 11.724C14.3015 10.8472 15.5122 10.4432 16.8271 10.5887ZM8.6866 11.4287C8.96817 11.4852 9.26486 11.5839 9.52579 11.7078C9.64257 11.7633 9.73813 11.8126 9.73813 11.8174C9.73813 11.8222 9.69432 11.9137 9.64077 12.0207C9.31988 12.6616 8.8287 13.1807 8.27471 13.4643C7.63967 13.7895 6.95275 13.8646 6.25729 13.685C5.86196 13.5828 5.38833 13.36 5.40012 13.2817C5.40326 13.2609 5.45403 13.1439 5.51298 13.0216C5.92736 12.1618 6.68168 11.5738 7.58099 11.4095C7.86352 11.3579 8.37853 11.3669 8.6866 11.4287ZM10.498 12.6016C10.8292 13.0013 11.156 13.5916 11.3337 14.1115C11.502 14.6034 11.5653 14.9738 11.5658 15.4697C11.5669 16.4049 11.2614 17.2556 10.6535 18.0099C10.4023 18.3215 9.89738 18.7676 9.58761 18.9514L9.50576 19L9.34595 18.8085C8.8124 18.1695 8.46263 17.3692 8.36416 16.5622C8.33406 16.3155 8.35055 15.6762 8.39285 15.4502C8.46653 15.0568 8.55787 14.7754 8.72711 14.4205C8.99297 13.863 9.38269 13.3479 9.85245 12.9329C10.0495 12.7588 10.3755 12.5085 10.4051 12.5085C10.4137 12.5085 10.4555 12.5504 10.498 12.6016ZM17.2705 14.1257C17.6785 14.1972 18.0597 14.3889 18.3634 14.6754C18.4746 14.7803 18.4992 14.8137 18.485 14.8402C18.4435 14.9178 18.188 15.1717 18.0432 15.2791C17.5237 15.6649 16.8894 15.7896 16.2876 15.6244C15.9815 15.5403 15.5694 15.3098 15.3347 15.0913C15.1992 14.9652 15.1967 14.9732 15.4428 14.739C15.974 14.2335 16.6296 14.0135 17.2705 14.1257ZM8.0047 14.4815C8.02558 14.5647 7.99882 15.0559 7.96493 15.2115C7.89892 15.5146 7.79032 15.7759 7.63351 16.0089C7.53025 16.1624 7.28976 16.4018 7.13215 16.508C6.78907 16.7392 6.33585 16.88 5.93072 16.8812C5.80629 16.8816 5.7999 16.8793 5.78755 16.83C5.76284 16.7316 5.77472 16.2854 5.80645 16.1195C5.87071 15.7834 6.02326 15.4569 6.23947 15.1927C6.59996 14.752 7.2567 14.4531 7.90888 14.4329C7.98289 14.4306 7.99325 14.4358 8.0047 14.4815ZM13.974 15.3849C14.7153 15.5051 15.3983 15.9529 15.8309 16.6023C16.0229 16.8905 16.2391 17.3863 16.2539 17.5724C16.2584 17.6296 16.2519 17.6353 16.1214 17.6895C15.7631 17.838 15.3946 17.9082 14.9742 17.9079C14.6236 17.9076 14.4043 17.8741 14.0916 17.7731C13.2303 17.4946 12.5341 16.7708 12.2014 15.808L12.132 15.607L12.2032 15.5772C12.3272 15.5254 12.5845 15.4523 12.7906 15.4103C13.1818 15.3307 13.5861 15.322 13.974 15.3849Z" fill="#283A79"/>
</svg>
