<svg width="24" height="24" viewBox="0 0 24 24" fill="none" xmlns="http://www.w3.org/2000/svg">
<circle cx="12" cy="12" r="12" fill="#F28F01"/>
<path fill-rule="evenodd" clip-rule="evenodd" d="M13.7232 10.2825L12.2586 7.40929C12.5635 6.7467 12.7159 6.37023 12.7159 6.28365C12.7159 5.97268 12.5107 5.74529 12.1009 5.59998H16.589C16.0359 5.84845 15.5439 6.46962 15.1138 7.46426L13.7232 10.2825ZM11.5231 14.746L10.8402 16.1314H14.8673C16.691 16.1314 17.9103 15.7903 18.5253 15.1074L16.3733 18.4H5.36828C6.55669 18.1718 7.75566 16.7435 8.96444 14.1127C9.3719 13.3041 9.7454 12.5572 10.0865 11.8735L11.5231 14.746ZM7.95029 7.46429C7.95029 9.04697 4.69141 14.6722 3.80029 15.2H7.27422L9.97927 9.73215L12.7152 15.2H15.9123C15.8504 15.1586 15.8202 15.0547 15.8202 14.889C15.8202 14.0473 18.8633 6.81149 20.4003 6.40791H16.7732L13.8214 12.3727L10.7783 6.40791H7.27422C7.72468 6.73921 7.95029 7.09158 7.95029 7.46429Z" fill="white"/>
</svg>
