<svg width="24" height="24" viewBox="0 0 24 24" fill="none" xmlns="http://www.w3.org/2000/svg">
<circle cx="12" cy="12" r="12" fill="#2AB0FD"/>
<path d="M19.2361 11.0037C19.3598 11.0022 19.4386 11.0187 19.4881 11.0637C19.5406 11.1117 19.5616 11.1897 19.5728 11.312C19.9223 15.346 16.8713 18.9924 12.8244 19.3666C8.65142 19.7529 5.02896 16.7417 4.63296 12.5569C4.24747 8.49282 7.29919 4.80596 11.3724 4.43547C13.6794 4.22548 15.6714 4.94995 17.3483 6.54739C17.3656 6.56389 17.3618 6.63289 17.3423 6.65239C16.9658 7.03603 16.5858 7.41628 16.2024 7.79309C16.1806 7.81409 16.1026 7.81109 16.0786 7.78934C14.3484 6.2039 12.3436 5.73442 10.1514 6.53314C7.93443 7.34086 6.66619 9.01329 6.41495 11.3682C6.07745 14.5548 8.48268 17.3635 11.6911 17.6057C14.5996 17.8247 17.2351 15.766 17.7173 12.8921C17.7218 12.8636 17.6573 12.7924 17.6243 12.7924C15.8281 12.7871 14.0319 12.7886 12.2364 12.7819C12.1899 12.7819 12.1036 12.6957 12.1021 12.6484C12.0927 12.1465 12.0927 11.6444 12.1021 11.1425C12.1029 11.0975 12.1831 11.0165 12.2274 11.0157C13.4244 11.009 18.0968 11.0195 19.2353 11.003L19.2361 11.0037Z" fill="white"/>
</svg>
