<svg width="24" height="24" viewBox="0 0 24 24" fill="none" xmlns="http://www.w3.org/2000/svg">
<circle cx="12" cy="12" r="12" fill="#186C9D"/>
<path fill-rule="evenodd" clip-rule="evenodd" d="M14.4648 17.5985L14.4641 17.6L13.6934 17.5903H13.6911L9.0218 11.1705L7.29535 17.5679L5.2002 17.559L7.83557 7.77837C7.96931 7.16237 8.52917 6.59117 9.19028 6.43736C9.30395 6.41128 9.42041 6.39899 9.53708 6.40077V6.40002L10.3085 6.40525L10.3062 6.41272L10.3093 6.40973L14.9786 12.8288L16.7058 6.43138L18.8002 6.44184L16.1656 16.2202C16.0326 16.8369 15.4727 17.4081 14.8109 17.5612C14.6976 17.5882 14.5813 17.6008 14.4648 17.5985ZM9.84754 8.11437L9.48261 9.46584L9.48337 9.46509L14.1527 15.8864L14.5176 14.535L9.84754 8.11437Z" fill="white"/>
</svg>
