<svg width="24" height="24" viewBox="0 0 24 24" fill="none" xmlns="http://www.w3.org/2000/svg">
<circle cx="12" cy="12" r="12" fill="#EDF0F4"/>
<path d="M19.47 14.8782C19.4705 12.9473 19.4705 11.0165 19.47 9.08573C19.4779 8.88832 19.3787 8.69185 19.2203 8.57546C16.9194 6.89433 14.6186 5.21294 12.3177 3.53129C12.1769 3.4212 11.9954 3.37738 11.8199 3.41112C11.7127 3.43215 11.616 3.48579 11.5299 3.55034C9.24547 5.22009 6.96089 6.88975 4.67619 8.55933C4.50282 8.67983 4.39988 8.87795 4.40093 9.08908C4.39956 11.0194 4.39956 12.9497 4.40093 14.8798C4.39793 15.0889 4.50642 15.2918 4.67834 15.4096C6.96281 17.0784 9.24682 18.7477 11.5304 20.4173C11.7489 20.6043 12.0917 20.619 12.3173 20.4368C14.6108 18.7622 16.9034 17.0867 19.1952 15.4104C19.3678 15.2941 19.4795 15.0876 19.4699 14.8783" fill="#050708"/>
<path d="M11.1396 4.79308C11.2002 4.72441 11.2617 4.61738 11.3682 4.63163C11.7305 4.63378 12.0936 4.62597 12.4558 4.63549C12.5186 4.67446 12.5666 4.73291 12.6203 4.78312C12.6189 5.157 12.6189 5.53096 12.6203 5.90501C12.5125 5.9063 12.4043 5.91111 12.2965 5.90373C12.29 5.87729 12.2771 5.82536 12.2708 5.79901C12.2708 5.51981 12.295 5.24025 12.2716 4.96148C12.0054 4.96188 11.7393 4.96188 11.4734 4.96148C11.4721 5.05538 11.4717 5.14979 11.4708 5.24369C11.3587 5.24369 11.2462 5.24369 11.1337 5.24283C11.1345 5.0934 11.118 4.94148 11.1396 4.79308Z" fill="white"/>
<path d="M10.2361 5.24927C10.3586 5.24455 10.4811 5.24455 10.604 5.24756C10.6057 5.76477 10.6079 6.28156 10.6027 6.79835C10.4858 6.80092 10.369 6.80092 10.2525 6.80006C10.2136 6.28508 10.2447 5.76606 10.2361 5.24927Z" fill="white"/>
<path d="M13.3517 5.80503C13.6778 5.80074 14.0035 5.80203 14.3295 5.80417C14.3312 5.92365 14.3312 6.0427 14.3295 6.16209C14.0033 6.16552 13.6772 6.16681 13.351 6.16123C13.3498 6.04261 13.3498 5.92322 13.351 5.80503" fill="white"/>
<path d="M11.3745 5.98114C11.5061 5.97814 11.6377 5.97857 11.7693 5.97857C11.8952 6.22353 12.0533 6.45209 12.1556 6.70873C12.0348 6.71439 11.9136 6.71439 11.7929 6.71482C11.6493 6.47252 11.5108 6.22739 11.3745 5.98114Z" fill="white"/>
<path d="M12.7178 6.41186C12.8316 6.40928 12.9454 6.40971 13.0598 6.41143C13.3696 6.89208 13.6708 7.3784 13.983 7.85793C13.983 8.00384 13.983 8.14976 13.9804 8.29567C13.9466 8.28957 13.88 8.2779 13.8467 8.27232C13.5818 7.8775 13.3381 7.4686 13.0762 7.07207C13.0719 7.51839 13.0775 7.96471 13.0732 8.41102C12.9546 8.4132 12.8357 8.4132 12.7166 8.41102C12.7151 7.74489 12.713 7.07833 12.7178 6.41186Z" fill="white"/>
<path d="M14.1325 6.68232C14.2537 6.67974 14.3754 6.67974 14.4965 6.68317C14.4974 6.79742 14.4974 6.91217 14.4965 7.0265C14.3754 7.0295 14.2537 7.0295 14.133 7.02736C14.1321 6.91257 14.1321 6.79756 14.133 6.68232" fill="white"/>
<path d="M8.14049 6.79525C8.23611 6.79353 8.33181 6.79396 8.42743 6.79482C8.68277 6.77765 8.93769 6.78272 9.19312 6.79739C9.19398 6.9082 9.19312 7.01944 9.19226 7.13025C8.81461 7.35701 8.45172 7.60849 8.06865 7.82547C7.9557 7.78256 7.86953 7.69218 7.77734 7.61682C8.02797 7.46404 8.27336 7.30302 8.52656 7.15454C8.39841 7.14801 8.26993 7.14887 8.14178 7.14758C8.13955 7.02982 8.13912 6.91238 8.14049 6.79525Z" fill="white"/>
<path d="M11.1617 6.92686C11.2791 6.92342 11.3967 6.92385 11.5136 6.92686C11.5166 7.04461 11.5166 7.16186 11.5136 7.27962C11.3963 7.28305 11.279 7.2832 11.1617 7.28005C11.159 7.16229 11.159 7.04456 11.1617 6.92686Z" fill="white"/>
<path d="M9.43984 7.27136C9.62772 7.55614 9.80994 7.84488 10.0003 8.12795C10.1903 7.84145 10.3738 7.55057 10.5656 7.26535C10.5656 7.45418 10.5781 7.64498 10.5617 7.83364C10.3878 8.13181 10.1865 8.41359 9.99902 8.70361C9.81466 8.4184 9.61939 8.13919 9.44456 7.8484C9.42473 7.657 9.43898 7.46353 9.43984 7.27136Z" fill="white"/>
<path d="M14.6411 7.31943C15.2051 7.31685 15.769 7.31699 16.333 7.31986C16.333 7.43409 16.333 7.54885 16.3325 7.66318C15.769 7.66449 15.2052 7.66463 14.6411 7.6636C14.6406 7.54885 14.6403 7.43384 14.6411 7.31943Z" fill="white"/>
<path d="M11.656 7.76608C11.7694 7.76393 11.8832 7.76393 11.9971 7.76522C12.0028 8.26553 11.9971 8.76635 12.0001 9.26726C11.9473 9.31747 11.895 9.36854 11.8435 9.41961C11.4526 9.4239 11.0618 9.41961 10.6714 9.42175C10.6199 9.3724 10.5671 9.32519 10.5207 9.27198C10.5008 9.11877 10.5155 8.96247 10.5151 8.80849C10.6238 8.80763 10.7328 8.80763 10.8422 8.80849C10.8453 8.89681 10.8448 8.98505 10.8435 9.07337C11.1124 9.10366 11.3832 9.08195 11.6533 9.08847C11.6547 8.64773 11.6504 8.20631 11.656 7.76608Z" fill="white"/>
<path d="M17.1081 9.24504C17.1046 8.86738 17.1046 8.48953 17.1081 8.11147C17.2263 8.1089 17.3444 8.10847 17.463 8.11147C17.4669 8.48912 17.4669 8.86712 17.463 9.24546C17.3448 9.24744 17.2267 9.24701 17.1085 9.24546" fill="white"/>
<path d="M15.4243 8.39674C15.6474 8.39459 15.8718 8.35992 16.0937 8.39588C16.2391 8.86984 16.3638 9.35109 16.5084 9.8259C16.3941 9.82676 16.2794 9.82676 16.1651 9.82676C16.056 9.45846 15.9629 9.08579 15.8504 8.71826C15.7877 8.71912 15.7249 8.71998 15.6621 8.7204C15.5686 9.09136 15.4561 9.45666 15.3595 9.82625C15.2444 9.82665 15.1292 9.8265 15.0142 9.82582C15.1559 9.35109 15.2888 8.8731 15.4243 8.39674Z" fill="white"/>
<path d="M5.88352 8.57771C6.39773 8.5747 6.91237 8.57342 7.4265 8.57771C7.4295 8.6959 7.4295 8.81357 7.42692 8.93176C6.91194 8.93648 6.39764 8.93519 5.883 8.93219C5.88137 8.814 5.88137 8.69512 5.88352 8.57728" fill="white"/>
<path d="M7.669 8.57811C7.7859 8.57726 7.90272 8.57683 8.02005 8.57811C8.02262 8.69673 8.02262 8.81569 8.02005 8.93431C7.90272 8.9356 7.7859 8.93517 7.669 8.93431C7.66763 8.81569 7.66763 8.6975 7.669 8.57897" fill="white"/>
<path d="M8.96155 8.59273C9.07622 8.59187 9.1914 8.5923 9.30607 8.59359C9.30951 8.86825 9.30779 9.14368 9.30779 9.41859C9.19132 9.41945 9.07493 9.41988 8.95897 9.41859C8.95777 9.14394 8.95417 8.86782 8.96155 8.5923" fill="white"/>
<path d="M17.9498 8.83946C18.0818 8.83688 18.2142 8.83731 18.3462 8.83688C18.477 9.07927 18.6358 9.30895 18.7332 9.5679C18.613 9.57219 18.4921 9.57262 18.3717 9.57314C18.2294 9.32947 18.0939 9.08176 17.9497 8.83946" fill="white"/>
<path d="M12.7455 9.13343C12.86 9.13257 12.9744 9.13257 13.0889 9.13343C13.0914 9.50997 13.0896 9.88651 13.0896 10.2631C12.9745 10.264 12.8598 10.2644 12.7448 10.2644C12.7448 9.88754 12.7442 9.51014 12.7455 9.133" fill="white"/>
<path d="M13.9527 9.59139C13.9513 9.47363 13.9513 9.35561 13.9527 9.23734C14.0682 9.23562 14.1844 9.23562 14.3002 9.23862C14.3002 9.35638 14.3011 9.47406 14.2994 9.59181C14.184 9.59224 14.0676 9.59181 13.9523 9.59181" fill="white"/>
<path d="M7.42041 10.1133C7.69781 9.91075 7.99393 9.73462 8.27872 9.5433C8.46703 9.54545 8.65483 9.5433 8.84314 9.54588C8.5635 9.74587 8.26618 9.91856 7.98483 10.1159C8.274 10.2977 8.55749 10.4881 8.84485 10.6716C8.65139 10.6751 8.45793 10.6729 8.26447 10.6734C7.98526 10.4838 7.69524 10.3092 7.42041 10.1133" fill="white"/>
<path d="M17.1089 9.78484C17.2275 9.78227 17.3461 9.78184 17.4651 9.78484C17.468 9.90346 17.4677 10.0216 17.4643 10.1402C17.3461 10.1428 17.2275 10.1423 17.1094 10.1402C17.1068 10.022 17.1068 9.9038 17.1094 9.7857" fill="white"/>
<path d="M4.93221 9.83334C5.52444 9.8299 6.1177 9.82861 6.7107 9.83419C6.71199 9.94629 6.71199 10.0588 6.71242 10.1713C6.44755 10.3449 6.18267 10.5193 5.91042 10.6803C5.79532 10.6383 5.70829 10.543 5.61001 10.473C5.7567 10.3804 5.90561 10.2908 6.04775 10.1917C5.67593 10.19 5.3042 10.1938 4.93195 10.1895C4.93023 10.0709 4.93023 9.95218 4.93195 9.83334" fill="white"/>
<path d="M10.0035 10.177C10.5164 10.1791 11.0293 10.1744 11.5418 10.1791C11.5542 10.2957 11.5527 10.4135 11.5371 10.5297C11.0258 10.5319 10.5152 10.5301 10.0045 10.5306C10.0035 10.4123 10.0032 10.2944 10.0035 10.177Z" fill="white"/>
<path d="M11.8768 10.1792C12.0001 10.1766 12.123 10.1766 12.2465 10.1809C12.2469 10.296 12.2467 10.4108 12.246 10.5254C12.123 10.5288 11.9997 10.5288 11.8769 10.5267C11.8757 10.4107 11.8757 10.2949 11.8769 10.1792" fill="white"/>
<path d="M13.4897 10.6752C13.4736 10.5536 13.5984 10.4912 13.6624 10.4077C13.813 10.4077 13.9636 10.4069 14.1143 10.4099C14.1177 10.5233 14.1177 10.6366 14.1159 10.7505C14.0208 10.7523 13.925 10.7523 13.8299 10.7535V11.5612C14.2726 11.5642 14.7154 11.5595 15.1582 11.5638C15.1595 11.6785 15.1595 11.7932 15.1565 11.9071C14.6579 11.9105 14.1588 11.9075 13.6602 11.9088C13.5966 11.8257 13.4746 11.7629 13.4901 11.6422C13.4879 11.32 13.4879 10.9977 13.4901 10.6752" fill="white"/>
<path d="M15.169 10.5677C15.291 10.5634 15.414 10.5634 15.5364 10.5677C15.5377 10.6846 15.5377 10.8014 15.5364 10.9184C15.414 10.9226 15.2919 10.9226 15.1694 10.9184C15.1681 10.801 15.1681 10.6842 15.1694 10.5669" fill="white"/>
<path d="M16.3354 10.5678C16.8513 10.5608 17.3668 10.5656 17.8828 10.5652C17.8836 10.6843 17.8836 10.8037 17.8823 10.9227C17.3668 10.9227 16.8513 10.927 16.3358 10.9206C16.334 10.8028 16.334 10.6852 16.3358 10.5678" fill="white"/>
<path d="M9.18881 10.9794C9.47798 10.979 9.76663 10.9794 10.0557 10.979C10.0583 11.0992 10.0583 11.2193 10.0557 11.3395C9.76697 11.34 9.47841 11.34 9.19002 11.3395C9.18498 11.2193 9.18472 11.0993 9.18924 10.9794" fill="white"/>
<path d="M11.0951 10.9794C11.5488 10.979 12.0024 10.9794 12.4559 10.9786C12.6207 10.9528 12.7857 11.124 12.7649 11.2867C12.7639 11.6199 12.7637 11.9535 12.7644 12.2874C12.7064 12.3501 12.648 12.412 12.5895 12.4743C12.4393 12.4743 12.2896 12.4743 12.1394 12.4726C12.1382 12.3582 12.138 12.2439 12.139 12.1298C12.2329 12.1285 12.327 12.1277 12.4208 12.1264C12.4208 11.8641 12.4208 11.6014 12.4217 11.3391C11.981 11.2997 11.537 11.3325 11.0951 11.3209C11.094 11.2064 11.094 11.0926 11.0951 10.9794" fill="white"/>
<path d="M7.89849 11.085C8.1201 11.0837 8.34129 11.0824 8.5629 11.0858C8.69706 11.5649 8.84116 12.0415 8.96802 12.5228C8.85644 12.5228 8.74486 12.5228 8.63388 12.5237C8.52007 12.154 8.43218 11.7774 8.31485 11.4096C8.25168 11.4134 8.18851 11.4182 8.12525 11.423C8.04131 11.7935 7.9214 12.1544 7.82965 12.5232C7.71498 12.5232 7.60023 12.5232 7.48633 12.5219C7.6228 12.0429 7.75867 11.5632 7.89832 11.085" fill="white"/>
<path d="M17.5663 11.5178C17.9526 11.514 18.3393 11.51 18.725 11.5191C18.8224 11.5792 18.9323 11.6767 18.9111 11.8047C18.9111 12.0794 18.9094 12.3548 18.9111 12.6298C18.9077 12.7618 18.9137 12.8938 18.9098 13.0258C18.9159 13.1336 18.8865 13.2396 18.8927 13.3478C18.7827 13.3478 18.6728 13.3478 18.5628 13.3465C18.5641 12.8505 18.5628 12.3541 18.5637 11.858C18.2939 11.8507 18.0244 11.8563 17.7547 11.8542C17.7542 11.9464 17.7542 12.0385 17.7526 12.1312C17.6391 12.1329 17.5257 12.1334 17.4122 12.1329C17.4101 11.981 17.4106 11.8286 17.411 11.6767C17.4632 11.6243 17.5147 11.5715 17.5662 11.5178" fill="white"/>
<path d="M6.57496 11.5316H6.93373C6.93459 11.9086 6.93373 12.2851 6.93373 12.6617H6.57324C6.57496 12.2852 6.57367 11.9082 6.57453 11.5316" fill="white"/>
<path d="M5.44946 11.8468C5.56722 11.8451 5.68489 11.8485 5.80222 11.8563C5.80354 11.968 5.80354 12.0798 5.80222 12.1918C5.6836 12.193 5.56507 12.1935 5.44645 12.1918C5.44517 12.0766 5.44559 11.9619 5.44946 11.8472" fill="white"/>
<path d="M9.66503 13.9127C9.66194 13.2461 9.66179 12.5795 9.6646 11.9128C9.7815 11.9111 9.89832 11.9111 10.0152 11.9137C10.2899 12.3565 10.5731 12.7945 10.8536 13.2342C10.9748 13.3904 10.9021 13.5999 10.9216 13.7817C10.8809 13.7817 10.8402 13.7826 10.8 13.7834C10.5476 13.3826 10.284 12.9887 10.0425 12.5818C9.99882 13.0242 10.0347 13.4704 10.0205 13.9145C9.90158 13.9157 9.78313 13.9157 9.66503 13.9127Z" fill="white"/>
<path d="M11.2232 12.1692C11.3422 12.1666 11.4612 12.1663 11.5803 12.1683C11.582 12.4596 11.5816 12.751 11.5803 13.0422C11.4608 13.0443 11.3418 13.0443 11.2224 13.0413C11.2204 12.7505 11.2199 12.4596 11.2224 12.1692" fill="white"/>
<path d="M13.3814 12.5588C13.4979 12.5579 13.6147 12.5575 13.7316 12.5588C13.7338 12.6774 13.7338 12.796 13.7316 12.9146C13.6147 12.915 13.498 12.915 13.3814 12.9146C13.38 12.7964 13.38 12.678 13.3814 12.5592" fill="white"/>
<path d="M14.5163 12.5743C14.8791 12.5696 15.2418 12.5722 15.6049 12.573C15.6196 12.679 15.6287 12.7868 15.6183 12.8942C15.584 12.9639 15.5018 12.9362 15.4404 12.9427C15.1314 12.9336 14.8215 12.9605 14.5146 12.9255C14.5125 12.808 14.5125 12.6912 14.5163 12.5743Z" fill="white"/>
<path d="M15.9801 12.6245C16.097 12.6228 16.2151 12.615 16.332 12.6331C16.3432 13.0425 16.3367 13.4533 16.3346 13.8632C16.2164 13.8654 16.0984 13.8654 15.9805 13.8632C15.9766 13.4505 15.9766 13.0377 15.9805 12.6249" fill="white"/>
<path d="M12.7453 12.8671C12.8595 12.8671 12.9743 12.8662 13.0886 12.8671C13.0899 12.9848 13.0902 13.1029 13.0886 13.2215C12.9742 13.2233 12.8597 13.2233 12.7453 13.2215C12.7444 13.1034 12.7444 12.9848 12.7453 12.8666" fill="white"/>
<path d="M7.24268 13.1188C7.65038 13.0747 8.06202 13.1097 8.47143 13.0967C8.57693 13.0954 8.68242 13.1002 8.78737 13.111C8.78909 13.23 8.78866 13.3495 8.78737 13.4685C8.27239 13.4676 7.75852 13.471 7.2444 13.4668C7.24131 13.3508 7.24131 13.235 7.24225 13.1188" fill="white"/>
<path d="M4.93285 13.3821C4.98872 13.3276 5.04494 13.2726 5.10125 13.2181C5.25016 13.2172 5.39899 13.2168 5.54757 13.2198C5.54928 13.3323 5.54928 13.4453 5.54842 13.5578C5.45581 13.5599 5.36363 13.5604 5.27102 13.5612C5.27316 13.8296 5.26973 14.0979 5.27316 14.3663C5.71159 14.3676 6.1501 14.3633 6.58852 14.3685C6.59066 14.4793 6.59066 14.5896 6.58981 14.7005C6.48114 14.7009 6.37205 14.7013 6.26365 14.7013C5.87458 14.6974 5.48499 14.7078 5.09635 14.6966C5.03147 14.6598 4.96606 14.5992 4.93662 14.5304C4.92641 14.1479 4.93542 13.7648 4.93328 13.3821" fill="white"/>
<path d="M14.0287 13.6052C14.0871 13.5503 14.146 13.4953 14.2062 13.4417C14.5853 13.4447 14.9645 13.4417 15.3436 13.4429C15.4007 13.4974 15.4578 13.5525 15.5152 13.6065C15.5157 13.9818 15.5157 14.3569 15.5152 14.7319C15.3997 14.7327 15.2841 14.7319 15.169 14.7289C15.169 14.4133 15.1664 14.0983 15.1703 13.7827C14.9042 13.7823 14.6393 13.7827 14.3739 13.7823C14.3743 13.8784 14.3739 13.9745 14.3717 14.0705C14.2579 14.0722 14.1441 14.0722 14.0306 14.0718C14.0269 13.9163 14.0278 13.7609 14.0282 13.6052" fill="white"/>
<path d="M16.463 14.2676C16.8836 13.9936 17.3084 13.7268 17.7325 13.459C17.8337 13.5266 17.9333 13.5976 18.032 13.6686C17.7268 13.8631 17.4218 14.0572 17.1171 14.2507C17.565 14.2555 18.013 14.2507 18.4614 14.2533C18.4623 14.3724 18.4623 14.4918 18.4614 14.6108C17.7956 14.613 17.1299 14.613 16.4643 14.6108C16.4626 14.4961 16.4626 14.3814 16.4635 14.2675" fill="white"/>
<path d="M11.7031 14.3354C12.1252 14.0545 12.5606 13.7939 12.9825 13.5131C13.0829 13.5824 13.1821 13.6529 13.2842 13.7191C12.9924 13.9242 12.6826 14.103 12.3852 14.3008C12.8306 14.3086 13.276 14.2999 13.7213 14.3055C13.7244 14.428 13.7244 14.5509 13.7213 14.6733C13.0548 14.6772 12.3881 14.6746 11.7215 14.6746C11.7043 14.5623 11.7043 14.4485 11.7036 14.335" fill="white"/>
<path d="M7.32191 14.0325C7.50713 14.3158 7.69287 14.599 7.87594 14.883C8.07241 14.6025 8.24819 14.308 8.44294 14.026C8.4468 14.2169 8.4438 14.4082 8.44551 14.5991C8.25162 14.883 8.07413 15.1782 7.87508 15.4583C7.69072 15.1769 7.51193 14.8918 7.31976 14.6156C7.31787 14.4213 7.3159 14.2265 7.32191 14.0325Z" fill="white"/>
<path d="M9.35226 14.7592C9.34797 14.638 9.34754 14.5168 9.3544 14.3961C9.47088 14.3948 9.58812 14.3952 9.70459 14.4047C9.70717 14.5228 9.70717 14.6409 9.70459 14.7591C9.58752 14.7601 9.47019 14.7605 9.35269 14.7591" fill="white"/>
<path d="M11.0027 14.9342C11.1208 14.9329 11.2394 14.9325 11.3576 14.9342C11.3606 15.3743 11.3576 15.8145 11.3593 16.2547C11.2753 16.2581 11.1913 16.2621 11.1074 16.2698C11.0805 16.2646 11.0269 16.2551 11 16.2503C11.0027 15.8119 10.9979 15.373 11.0027 14.9346" fill="white"/>
<path d="M13.4475 15.2103C13.6707 15.206 13.8932 15.209 14.1162 15.2077C14.253 15.6868 14.3899 16.1659 14.527 16.6451C14.4119 16.6451 14.2967 16.6451 14.1821 16.6425C14.0842 16.2764 13.9782 15.9124 13.8787 15.5466C13.8163 15.5428 13.754 15.5401 13.6917 15.5371C13.5887 15.9067 13.486 16.2762 13.3836 16.6456C13.2685 16.6456 13.1537 16.6456 13.0391 16.6439C13.1792 16.1669 13.3186 15.69 13.4475 15.2105" fill="white"/>
<path d="M8.39451 16.004C8.81911 15.7313 9.24286 15.4569 9.67338 15.1933C9.77252 15.263 9.87251 15.3307 9.9707 15.402C9.66257 15.5937 9.36044 15.7954 9.04922 15.9819C9.50026 15.9905 9.95164 15.9807 10.4031 15.9872C10.4053 16.1058 10.4057 16.2243 10.4023 16.3429C9.73355 16.3451 9.06484 16.3482 8.39614 16.3417C8.39279 16.229 8.39322 16.1165 8.39451 16.004Z" fill="white"/>
<path d="M11.9014 15.2804C12.0257 15.2817 12.1499 15.2742 12.2732 15.2579C12.4191 15.4982 12.5913 15.7366 12.6662 16.0101C12.5497 16.011 12.4333 16.011 12.3174 16.0118C12.1804 15.7669 12.0417 15.5231 11.9014 15.2804Z" fill="white"/>
<path d="M16.8172 15.4271C16.9388 15.4232 17.0609 15.4232 17.1828 15.4258C17.1833 15.5422 17.1833 15.6588 17.1828 15.7756C17.0609 15.7786 16.9391 15.7786 16.8175 15.7734C16.8154 15.6578 16.8154 15.5427 16.8175 15.4271" fill="white"/>
<path d="M15.9207 16.3585C16.0679 16.1217 16.2254 15.8919 16.3734 15.6556C16.3777 15.8309 16.3804 16.0067 16.376 16.1823C16.3803 16.2482 16.3323 16.2992 16.3016 16.3525C16.1385 16.5936 15.9821 16.8394 15.8221 17.082C15.6295 16.7947 15.4429 16.5042 15.2525 16.2151C15.2516 16.023 15.2499 15.8308 15.2546 15.639C15.4416 15.9191 15.6182 16.2065 15.8095 16.4839C15.8635 16.461 15.8878 16.4031 15.9211 16.3585" fill="white"/>
<path d="M6.86241 16.018C7.17449 16.0076 7.487 16.0127 7.79951 16.015C7.80123 16.1305 7.80861 16.2467 7.79385 16.3621C7.48391 16.3772 7.17278 16.3699 6.86284 16.3642C6.86156 16.2487 6.86156 16.1335 6.86241 16.018Z" fill="white"/>
<path d="M10.6674 16.7724C11.1677 16.765 11.6677 16.7724 12.168 16.7685C12.2252 16.8257 12.2824 16.8833 12.3397 16.9412C12.3375 17.3234 12.3384 17.706 12.3388 18.089C12.2886 18.1414 12.239 18.1943 12.1899 18.2479C12.0297 18.2513 11.8696 18.2517 11.7092 18.247C11.7114 18.1388 11.6976 18.0284 11.7235 17.9224C11.8139 17.9129 11.9048 17.9163 11.9962 17.9155C11.997 17.6476 11.9962 17.38 11.9962 17.1126C11.5529 17.11 11.1093 17.1183 10.6666 17.1083C10.6652 16.9962 10.6652 16.8842 10.6666 16.7724" fill="white"/>
<path d="M8.26384 16.8996C8.38068 16.8979 8.4977 16.8981 8.61489 16.9004C8.6166 17.0172 8.61675 17.1344 8.61531 17.2519C8.49755 17.2536 8.38025 17.2538 8.26341 17.2523C8.26181 17.1346 8.26181 17.017 8.26341 16.8996" fill="white"/>
<path d="M14.4539 17.0887C14.5864 16.9771 14.7067 17.1631 14.8201 17.2174C14.8201 17.2278 14.8201 17.249 14.8201 17.2594C14.5241 17.4503 14.2211 17.6308 13.9315 17.8316L14.0995 17.8304C14.1886 17.8304 14.278 17.8314 14.3679 17.8334C14.3687 17.9503 14.3687 18.0675 14.367 18.1844C14.0026 18.1896 13.6381 18.1883 13.2737 18.1853C13.2663 18.0749 13.2651 17.9641 13.2642 17.8541C13.6532 17.5881 14.0592 17.3477 14.4535 17.0887" fill="white"/>
<path d="M8.92083 17.4132C9.39393 17.4115 9.86745 17.409 10.3405 17.4145C10.3413 17.5309 10.3413 17.6475 10.3405 17.7643C9.86694 17.7712 9.39384 17.7682 8.9204 17.766C8.91825 17.6483 8.91868 17.5306 8.9204 17.4132" fill="white"/>
<path d="M10.1821 18.3118C10.3154 18.3106 10.4487 18.3101 10.5821 18.3127C10.7054 18.5581 10.8695 18.7841 10.9643 19.0433C10.8448 19.0498 10.7258 19.0498 10.6064 19.0507C10.4605 18.807 10.3241 18.5575 10.1821 18.3118Z" fill="white"/>
<path d="M12.5445 18.6849C12.661 18.684 12.7774 18.6858 12.8934 18.6935C12.8955 18.8099 12.8947 18.9268 12.88 19.0428C12.7687 19.0433 12.6578 19.0433 12.5471 19.0428C12.5428 18.9226 12.5428 18.8039 12.5445 18.6849" fill="white"/>
<path d="M11.7332 19.8432C11.7332 19.5714 11.7271 19.2992 11.7375 19.0273C11.8548 19.0273 11.9725 19.0339 12.0894 19.0445C12.0907 19.3107 12.0907 19.577 12.0894 19.8435C11.9706 19.8453 11.8519 19.8453 11.7332 19.8435" fill="white"/>
</svg>
