<svg width="24" height="24" viewBox="0 0 24 24" fill="none" xmlns="http://www.w3.org/2000/svg">
<circle cx="12" cy="12" r="12" fill="#EDF0F4"/>
<path fill-rule="evenodd" clip-rule="evenodd" d="M17.724 10.0169C17.0014 9.63151 16.1344 9.63151 15.46 10.0169L12.04 11.9918L15.46 13.9667C16.1826 14.3521 17.0496 14.3521 17.724 13.9667C18.4465 13.5814 18.88 12.8107 18.88 11.9918C18.88 11.1729 18.4465 10.4022 17.724 10.0169Z" fill="#050505"/>
<path fill-rule="evenodd" clip-rule="evenodd" d="M6.35576 10.0169C5.63323 10.4022 5.19971 11.1729 5.19971 11.9918C5.19971 12.8107 5.63323 13.5332 6.35576 13.9667C7.0783 14.3521 7.94534 14.3521 8.61971 13.9667L12.0397 11.9918L8.61971 10.0169C7.89717 9.63151 7.03013 9.63151 6.35576 10.0169Z" fill="#050505"/>
<path fill-rule="evenodd" clip-rule="evenodd" d="M10.0649 17.6276C10.4502 18.3501 11.221 18.7355 12.0398 18.7355C12.8587 18.7355 13.6294 18.302 14.0148 17.6276C14.4001 16.9051 14.4001 16.0862 14.0148 15.3637L12.0398 11.9918L10.0649 15.3637C9.67954 16.0862 9.67954 16.9051 10.0649 17.6276Z" fill="#050505"/>
<path fill-rule="evenodd" clip-rule="evenodd" d="M14.0148 6.30787C13.6294 5.6335 12.8587 5.19998 12.0398 5.19998C11.221 5.19998 10.4502 5.6335 10.0649 6.30787C9.67954 7.0304 9.67954 7.84928 10.0649 8.57181L12.0398 11.9436L14.0148 8.57181C14.4001 7.89745 14.4001 7.0304 14.0148 6.30787Z" fill="#050505"/>
</svg>
