<svg width="24" height="24" viewBox="0 0 24 24" fill="none" xmlns="http://www.w3.org/2000/svg">
<path fill-rule="evenodd" clip-rule="evenodd" d="M12 0C18.6274 0 24 5.37257 24 12C24 18.6274 18.6274 24 12 24C5.37257 24 0 18.6274 0 12C0 5.37257 5.37257 0 12 0Z" fill="#0D251D"/>
<path d="M6.66383 13.5717L5.09766 12.0062L12.0028 5.10104L13.569 6.66721L6.66383 13.5717Z" fill="#0BC98D"/>
<path d="M11.9976 18.9058L10.4321 17.3397L17.3366 10.4352L18.9028 12.0007L11.9976 18.9058Z" fill="#0BC98D"/>
<path d="M11.9348 18.8428L5.16064 12.0686L6.72682 10.5031L13.501 17.2766L11.9348 18.8428Z" fill="#0BC98D"/>
<path d="M14.6255 10.8569L10.4365 6.66721L12.0027 5.10104L16.1917 9.29075L14.6255 10.8569Z" fill="#0BC98D"/>
<path d="M11.8865 13.5964L10.3203 12.0302L14.5093 7.84047L16.0755 9.40664L11.8865 13.5964Z" fill="#0BC98D"/>
</svg>
