<svg width="24" height="24" viewBox="0 0 24 24" fill="none" xmlns="http://www.w3.org/2000/svg">
<circle cx="12" cy="12" r="12" fill="#EDF0F4"/>
<path d="M16.2338 6.80579L14.8991 7.43857C14.8936 7.44133 14.8853 7.44686 14.8826 7.45238C14.877 7.45791 14.8743 7.46343 14.8715 7.47172C14.8687 7.48001 14.8687 7.48554 14.8687 7.49383C14.8687 7.50212 14.8715 7.50765 14.8743 7.51594L16.9025 11.7906C17.6568 13.3822 17.4551 14.587 16.3084 15.1341C15.3799 15.5734 14.5814 15.2667 13.9569 14.1946L11.5529 9.12964C10.5803 7.07659 9.25393 6.53224 7.6789 7.28106C6.65652 7.76739 6.06243 8.63503 6.07349 9.73755C6.07349 9.75136 6.07072 9.76242 6.06243 9.77347C6.05414 9.78452 6.04309 9.79005 6.02928 9.79281C6.01546 9.79557 6.00441 9.79557 5.99059 9.79005C5.97954 9.78452 5.96848 9.77623 5.96296 9.76242L5.43795 8.65714C5.43519 8.65161 5.42966 8.64332 5.42413 8.64056C5.41861 8.63503 5.41308 8.63227 5.40479 8.6295C5.39927 8.62398 5.39374 8.62398 5.38545 8.62398C5.37716 8.62398 5.37163 8.62674 5.36334 8.6295L4.03148 9.26228C4.01767 9.2678 4.00661 9.27886 4.00385 9.29544C3.99833 9.30925 3.99833 9.32583 4.00661 9.33965L7.68996 17.107C7.69548 17.1208 7.7093 17.1319 7.72311 17.1374C7.73693 17.1429 7.75351 17.1429 7.76733 17.1346L9.10195 16.5019C9.10748 16.4991 9.11577 16.4936 9.11853 16.488C9.12406 16.4825 9.12682 16.477 9.12958 16.4687C9.13235 16.4604 9.13235 16.4549 9.13235 16.4466C9.13235 16.4383 9.12958 16.4328 9.12682 16.4245L7.1539 12.2686C6.34981 10.572 6.50178 9.34517 7.7314 8.76214C8.67642 8.3145 9.41143 8.61569 10.0718 9.76518C10.0718 9.76518 10.0746 9.76794 10.0746 9.77071L12.4537 14.7831C13.3711 16.7174 14.7969 17.3806 16.3001 16.6676C17.4634 16.115 17.9469 15.286 17.9165 14.1918C17.9165 14.178 17.9193 14.167 17.9276 14.1559C17.9359 14.1448 17.9469 14.1393 17.9608 14.1366C17.9746 14.1338 17.9856 14.1338 17.9994 14.1393C18.0105 14.1448 18.0216 14.1531 18.0271 14.167L18.5576 15.2833C18.5604 15.2888 18.5659 15.2971 18.5714 15.2999C18.577 15.3054 18.5825 15.3082 18.5908 15.3109C18.5991 15.3137 18.6046 15.3137 18.6129 15.3137C18.6212 15.3137 18.6267 15.3109 18.635 15.3082L19.9696 14.6754C19.9751 14.6726 19.9834 14.6671 19.9862 14.6616C19.9917 14.656 19.9945 14.6505 19.9972 14.6422C20 14.6339 20 14.6284 20 14.6201C20 14.6118 19.9972 14.6063 19.9945 14.598L16.3084 6.83343C16.3028 6.81961 16.289 6.80856 16.2752 6.80303C16.2614 6.7975 16.2448 6.80027 16.2338 6.80579Z" fill="#1E65F3"/>
</svg>
