<svg width="24" height="24" viewBox="0 0 24 24" fill="none" xmlns="http://www.w3.org/2000/svg">
<circle cx="12" cy="12" r="12" fill="#82BD39"/>
<path d="M10.9023 14.62L12.1001 16.198V19.6L7.6001 17.6027V8.81424C7.6001 8.68449 7.65785 8.56074 7.7591 8.47449L8.27135 8.03574C8.37109 7.94948 8.50209 7.90835 8.63323 7.92214C8.76438 7.93592 8.88397 8.00338 8.9636 8.10849L13.0623 13.4815L15.3266 14.866V7.45599L13.3256 6.45774L13.2281 11.1047L12.1691 9.69999L12.1211 4.59999L16.6001 6.68424V15.4322L15.5823 16.2707L12.3768 14.4805L8.81885 9.81324L8.7701 16.9037L10.8888 17.989L10.9023 14.62Z" fill="white"/>
</svg>
