<svg width="24" height="24" viewBox="0 0 24 24" fill="none" xmlns="http://www.w3.org/2000/svg">
<circle cx="12" cy="12" r="12" fill="#EDF0F4"/>
<path d="M7.99744 14.6626L10.8467 16.313V17.6818L6.96597 15.4351V8.988L7.73499 8.54315L7.45241 8.05261L6.40039 8.66144V15.7619L11.4109 18.6631V15.9862L8.28016 14.172L7.99744 14.6626Z" fill="url(#paint0_linear_300_12478)"/>
<path d="M12.0015 6.0847L15.2544 8.05263L15.5375 7.53946L12.0015 5.39999L8.46387 7.53873L8.74699 8.05189L12.0015 6.0847Z" fill="url(#paint1_linear_300_12478)"/>
<path d="M12.0015 8.14741L15.2544 10.1158L15.5375 9.60249L12.0015 7.46313L8.46387 9.60175L8.74699 10.115L12.0015 8.14741Z" fill="url(#paint2_linear_300_12478)"/>
<path d="M16.5495 8.05261L16.2669 8.54317L17.0359 8.98803V15.4353L13.1547 17.6818V16.313L16.0351 14.6451L15.7525 14.1545L12.5898 15.9861V18.6631L17.6004 15.7619V8.66118L16.5495 8.05261Z" fill="url(#paint3_linear_300_12478)"/>
<path fill-rule="evenodd" clip-rule="evenodd" d="M13.5852 13.1205C13.6649 12.8169 13.612 12.4941 13.4396 12.2314L13.4291 12.2151L13.4216 12.2035L13.3323 12.0941C13.3195 12.0807 13.308 12.0662 13.2978 12.0508C13.2941 12.0446 13.2935 12.037 13.2963 12.0303C13.3103 12.004 13.3257 11.9785 13.3414 11.9532C13.4032 11.855 13.4464 11.7464 13.4689 11.6328C13.4964 11.4975 13.4998 11.3585 13.479 11.2221C13.4132 10.7806 13.0676 10.432 12.6243 10.3601C12.6209 10.3595 12.6176 10.3589 12.6144 10.3584C12.5747 10.3516 12.5541 10.3481 12.5435 10.336C12.5322 10.323 12.5322 10.3002 12.532 10.2531C12.532 10.251 12.532 10.2489 12.532 10.2466V10.0344C12.5319 10.0196 12.53 10.0048 12.5264 9.99041C12.5239 9.98349 12.5184 9.97804 12.5114 9.9755C12.497 9.97116 12.4821 9.96881 12.4671 9.96853H11.9055C11.8905 9.96801 11.8755 9.96989 11.8612 9.9741C11.8511 9.97801 11.8432 9.98589 11.8393 9.99584C11.8355 10.0142 11.8339 10.0329 11.8345 10.0516V10.0516C11.8345 10.1222 11.8345 10.1929 11.8337 10.2635C11.8342 10.2823 11.8322 10.301 11.8278 10.3192C11.8254 10.328 11.8145 10.336 11.8056 10.3418C11.799 10.3454 11.7915 10.347 11.784 10.3466L11.7318 10.3468C11.6969 10.347 11.6619 10.3473 11.6269 10.3466C11.5967 10.3466 11.5809 10.3287 11.5806 10.2958C11.5799 10.2563 11.5798 10.2169 11.5796 10.1775C11.5795 10.15 11.5794 10.1224 11.5791 10.0948C11.5791 10.0709 11.5779 10.047 11.5767 10.0229L11.5767 10.0229L11.5758 10.0056C11.5736 9.98648 11.5578 9.97181 11.5384 9.97104L11.5334 9.97066C11.5201 9.96966 11.507 9.96867 11.4935 9.96867H10.9543C10.9427 9.96867 10.9312 9.96959 10.9196 9.97052L10.9095 9.97132C10.8901 9.97353 10.8755 9.98997 10.8758 10.0094C10.8749 10.0618 10.8744 10.1146 10.874 10.1673V10.1673L10.8737 10.199C10.8737 10.2362 10.8729 10.2734 10.8713 10.3105C10.8688 10.3295 10.8529 10.344 10.8336 10.3447C10.8039 10.3463 10.7737 10.3474 10.7439 10.3474H10.4743C10.4519 10.3471 10.4296 10.3491 10.4077 10.3535C10.3973 10.3569 10.3887 10.3643 10.3838 10.374C10.38 10.3845 10.3787 10.3958 10.3798 10.4069V10.9874C10.3796 10.9986 10.3812 11.0098 10.3845 11.0205C10.3872 11.0275 10.3926 11.0331 10.3995 11.0361C10.4139 11.0399 10.4286 11.042 10.4434 11.0423C10.4752 11.0427 10.5071 11.0427 10.539 11.0427C10.5708 11.0427 10.6027 11.0427 10.6345 11.0431C10.6534 11.0427 10.6722 11.0445 10.6906 11.0487C10.7006 11.0528 10.7081 11.0614 10.7106 11.0718C10.7142 11.1013 10.716 11.1309 10.716 11.1606V11.6742V12.5896V12.6902L10.7136 12.8339L10.7146 12.8492C10.7156 12.8627 10.7165 12.8762 10.7165 12.8896V13.1464C10.7165 13.1613 10.7165 13.1763 10.7154 13.191C10.7162 13.2021 10.7123 13.2131 10.7047 13.2214C10.697 13.2296 10.6863 13.2343 10.675 13.2343C10.6428 13.235 10.6105 13.2353 10.5783 13.2355L10.5179 13.2361C10.4842 13.2361 10.4503 13.237 10.4166 13.2385C10.3972 13.2397 10.382 13.2555 10.3819 13.2749L10.3816 13.2816C10.3808 13.2979 10.38 13.3143 10.38 13.3306V13.833C10.38 13.8535 10.3813 13.8739 10.3826 13.8943L10.383 13.8999C10.387 13.9143 10.3989 13.9251 10.4137 13.9278L10.418 13.9281C10.4388 13.9298 10.4597 13.9316 10.4807 13.9318H10.7391C10.7692 13.9318 10.799 13.9318 10.8288 13.9339C10.8402 13.933 10.8514 13.9368 10.8597 13.9445C10.8681 13.9522 10.8728 13.963 10.8727 13.9743C10.8733 13.9979 10.8735 14.0214 10.8737 14.0449C10.8739 14.066 10.8741 14.0871 10.8745 14.1082C10.8745 14.1355 10.8758 14.1627 10.877 14.1899L10.8778 14.2084C10.8803 14.2232 10.8925 14.2346 10.9075 14.2363C10.9261 14.2381 10.9449 14.2398 10.9636 14.2398H11.4916C11.5086 14.2398 11.5255 14.2383 11.5426 14.2367L11.5477 14.2363C11.5623 14.2328 11.5734 14.2208 11.5757 14.206C11.5775 14.1875 11.5789 14.1691 11.5792 14.1503V14.0053C11.5789 13.9904 11.5807 13.9756 11.5845 13.9612C11.5889 13.9525 11.5961 13.9454 11.6049 13.941C11.6152 13.9366 11.6264 13.9345 11.6377 13.9349C11.6751 13.9341 11.7125 13.9341 11.7498 13.9341C11.8281 13.9341 11.8327 13.948 11.833 14.0177V14.1739C11.8338 14.2349 11.8407 14.2407 11.9067 14.2421H11.9292H12.4347C12.4494 14.2421 12.4645 14.2421 12.4796 14.241C12.5144 14.2395 12.5288 14.2271 12.5298 14.1956C12.5302 14.175 12.5302 14.1544 12.5302 14.1337C12.5303 14.1097 12.5303 14.0856 12.5309 14.0617C12.5309 14.0317 12.5317 14.0022 12.533 13.9722C12.5352 13.9533 12.55 13.9382 12.569 13.9356L12.5718 13.9353L12.5718 13.9353C12.5971 13.9325 12.6221 13.9297 12.6473 13.9276C13.1026 13.8884 13.481 13.5627 13.5852 13.1205ZM11.4188 11.1377C11.4188 11.1154 11.4206 11.0932 11.4241 11.0711C11.4255 11.0596 11.4344 11.0503 11.446 11.0486C11.4646 11.0459 11.4833 11.0444 11.5021 11.0438H12.4448C12.5397 11.0402 12.6316 11.0771 12.6972 11.1453C12.7511 11.1982 12.7827 11.2696 12.7857 11.3449C12.7868 11.3819 12.7868 11.4191 12.7857 11.4564C12.7742 11.6023 12.6636 11.7214 12.5181 11.7446C12.4918 11.7479 12.4653 11.7489 12.4387 11.7499H12.4387C12.4278 11.7503 12.4169 11.7507 12.406 11.7512H12.3835H11.9671H11.507C11.4847 11.7508 11.4625 11.7485 11.4407 11.7443C11.4335 11.7419 11.428 11.7362 11.4257 11.7291C11.4216 11.7108 11.4194 11.6921 11.4192 11.6734C11.4187 11.6089 11.4189 11.5446 11.419 11.4802L11.4192 11.3834C11.4185 11.3013 11.4182 11.2195 11.4188 11.1377ZM12.3969 13.2368C12.4531 13.2368 12.5091 13.2369 12.5654 13.2359C12.7195 13.2291 12.8526 13.1265 12.8977 12.9798C12.9154 12.919 12.9207 12.8552 12.9133 12.7923C12.9061 12.6467 12.8109 12.52 12.6725 12.4718C12.6231 12.4544 12.5707 12.4468 12.5183 12.4495H11.5186C11.4985 12.4495 11.4783 12.4505 11.4581 12.4516C11.4558 12.4517 11.4536 12.4518 11.4513 12.4519C11.4369 12.4556 11.4257 12.467 11.4222 12.4814C11.4219 12.4842 11.4216 12.4869 11.4214 12.4896C11.4202 12.5017 11.419 12.5138 11.419 12.5257V12.8271C11.419 12.8632 11.4189 12.8993 11.4188 12.9354C11.4186 13.0074 11.4184 13.0792 11.419 13.1511C11.4197 13.1731 11.4227 13.195 11.4278 13.2164C11.4302 13.2231 11.4357 13.2283 11.4425 13.2304C11.4644 13.2343 11.4866 13.2364 11.5088 13.2368H12.0256H12.3631C12.3744 13.2368 12.3856 13.2368 12.3969 13.2368Z" fill="url(#paint4_linear_300_12478)"/>
<defs>
<linearGradient id="paint0_linear_300_12478" x1="0.167007" y1="71.064" x2="46.7565" y2="63.1532" gradientUnits="userSpaceOnUse">
<stop offset="0.13" stop-color="#13AAE6"/>
<stop offset="1" stop-color="#023B90"/>
</linearGradient>
<linearGradient id="paint1_linear_300_12478" x1="357.578" y1="169.743" x2="358.918" y2="-93.6843" gradientUnits="userSpaceOnUse">
<stop offset="0.13" stop-color="#13AAE6"/>
<stop offset="1" stop-color="#023B90"/>
</linearGradient>
<linearGradient id="paint2_linear_300_12478" x1="358.313" y1="156.661" x2="359.652" y2="-106.903" gradientUnits="userSpaceOnUse">
<stop offset="0.13" stop-color="#13AAE6"/>
<stop offset="1" stop-color="#023B90"/>
</linearGradient>
<linearGradient id="paint3_linear_300_12478" x1="6.82441" y1="72.8948" x2="53.3889" y2="64.9862" gradientUnits="userSpaceOnUse">
<stop offset="0.13" stop-color="#13AAE6"/>
<stop offset="1" stop-color="#023B90"/>
</linearGradient>
<linearGradient id="paint4_linear_300_12478" x1="16.3545" y1="37.7556" x2="39.9218" y2="11.7901" gradientUnits="userSpaceOnUse">
<stop offset="0.13" stop-color="#13AAE6"/>
<stop offset="1" stop-color="#023B90"/>
</linearGradient>
</defs>
</svg>
