<svg width="24" height="24" viewBox="0 0 24 24" fill="none" xmlns="http://www.w3.org/2000/svg">
<circle cx="12" cy="12" r="12" fill="#EDF0F4"/>
<path fill-rule="evenodd" clip-rule="evenodd" d="M15.6176 13.7104C16.1448 14.2554 16.7708 14.47 17.4957 14.4865C18.8796 14.47 20.0163 13.3471 19.9998 11.9435C19.9998 10.5234 18.8796 9.4005 17.4792 9.4005C16.6555 9.4005 16.013 9.74727 15.4529 10.3252C14.9257 10.8867 14.1514 10.8867 13.6242 10.4078C13.1135 9.92892 13.0641 9.20234 13.5089 8.60786C13.5748 8.53355 13.6407 8.45511 13.7066 8.37667C13.7725 8.29824 13.8384 8.2198 13.9043 8.1455C14.6786 7.22076 14.6951 5.91622 13.9702 4.97497C13.2618 4.03372 11.9603 3.73648 10.8565 4.24839C9.78567 4.74379 9.24202 5.91622 9.48913 7.08865C9.60617 7.66054 9.94404 8.06314 10.2951 8.48148C10.3394 8.53424 10.3839 8.58726 10.4282 8.64089C10.8895 9.21885 10.8565 9.96194 10.3623 10.4408C9.85157 10.9362 9.07727 10.9362 8.51714 10.4243C8.46772 10.383 8.4183 10.3335 8.36887 10.2839C8.31945 10.2344 8.27003 10.1849 8.2206 10.1436C7.39688 9.45004 6.26014 9.33444 5.30463 9.84635C4.43148 10.3252 3.88783 11.3821 4.01962 12.3729C4.16789 13.4297 4.90924 14.2554 5.94713 14.5031C6.9356 14.7342 7.79227 14.4535 8.48419 13.7104C9.04432 13.1325 9.78567 13.0664 10.3458 13.5453C10.9389 14.0407 10.9554 14.7838 10.4282 15.4443C10.3722 15.5191 10.3115 15.5916 10.2505 15.6644C10.1501 15.7844 10.0489 15.9052 9.96689 16.0388C9.39029 16.9635 9.35734 17.9048 9.93394 18.8295C10.4776 19.7212 11.532 20.1506 12.5863 19.9524C13.5418 19.7873 14.3161 19.0112 14.5468 18.0369C14.7939 16.9965 14.3161 16.2039 13.6901 15.4443C13.1135 14.7508 13.1465 13.9912 13.7231 13.4958C14.2667 13.0169 15.0081 13.0994 15.6176 13.7104ZM12.0096 8.04643C12.8333 8.02991 13.4923 7.36939 13.4923 6.54373C13.4923 5.71807 12.7674 5.02452 11.9437 5.04103C11.087 5.07406 10.4116 5.7511 10.4445 6.57676C10.461 7.41893 11.1529 8.06294 12.0096 8.04643ZM6.60607 13.5618C7.42979 13.5618 8.08877 12.9013 8.08877 12.0756C8.08877 11.2335 7.41332 10.5564 6.57312 10.5729C5.69998 10.5894 5.041 11.25 5.05748 12.0756C5.05748 12.9343 5.73293 13.5618 6.60607 13.5618ZM18.9785 12.0261C18.9456 12.8517 18.2537 13.4792 17.4299 13.4462C16.5568 13.4297 15.9308 12.7692 15.9472 11.9105C15.9637 11.0683 16.6556 10.4408 17.5288 10.4573C18.3525 10.4739 19.0115 11.1839 18.9785 12.0261ZM12.092 18.9781C12.9158 18.9781 13.5747 18.3176 13.5912 17.5085C13.6077 16.6993 12.9322 16.0058 12.125 15.9892C11.2518 15.9727 10.5434 16.6498 10.5434 17.4919C10.5434 18.3011 11.2518 18.9616 12.092 18.9781Z" fill="#191F27"/>
<path fill-rule="evenodd" clip-rule="evenodd" d="M10.5601 17.4919C10.5601 18.3176 11.252 18.9781 12.1087 18.9781C12.9159 18.9781 13.5914 18.3176 13.6078 17.5085C13.6078 16.6828 12.9489 16.0058 12.1416 15.9892C11.2685 15.9727 10.5601 16.6498 10.5601 17.4919ZM13.0971 17.4919C13.0806 18.0534 12.6523 18.4827 12.0921 18.4827C11.5485 18.4993 11.0378 18.0039 11.0378 17.4589C11.0542 16.9635 11.5485 16.4846 12.0757 16.4681C12.6358 16.4516 13.0971 16.9305 13.0971 17.4919Z" fill="white"/>
<path fill-rule="evenodd" clip-rule="evenodd" d="M15.9471 11.9105C15.9306 12.7692 16.5566 13.4132 17.4298 13.4462C18.2535 13.4792 18.9454 12.8517 18.9784 12.0261C19.0278 11.2004 18.3688 10.4739 17.5286 10.4573C16.6555 10.4408 15.9636 11.0683 15.9471 11.9105ZM18.5006 11.9766C18.4842 12.538 18.0394 12.9673 17.4792 12.9508C16.8862 12.9508 16.4413 12.505 16.4413 11.927C16.4413 11.3986 16.9356 10.9197 17.4957 10.9197C18.0558 10.9362 18.5171 11.4151 18.5006 11.9766Z" fill="white"/>
<path fill-rule="evenodd" clip-rule="evenodd" d="M10.4446 6.57675C10.4611 7.41892 11.153 8.06293 12.0097 8.04642C12.8334 8.0299 13.4924 7.36938 13.4924 6.54372C13.4924 5.71806 12.7675 5.008 11.9438 5.04102C11.1036 5.07405 10.4282 5.75109 10.4446 6.57675ZM11.9931 5.55294C12.5533 5.55294 12.9981 5.99879 12.9981 6.56024C12.9981 7.10517 12.5533 7.56754 12.0096 7.58405C11.4824 7.60057 10.9388 7.08866 10.9388 6.56024C10.9388 6.0153 11.4165 5.55294 11.9931 5.55294Z" fill="white"/>
<path fill-rule="evenodd" clip-rule="evenodd" d="M5.05742 12.0921C5.05742 12.9343 5.73288 13.5618 6.60602 13.5618C7.42974 13.5618 8.08872 12.9013 8.08872 12.0921C8.08872 11.2335 7.41327 10.5729 6.57307 10.5894C5.7164 10.606 5.04095 11.2665 5.05742 12.0921ZM5.53505 12.0591C5.53505 11.5142 6.02928 11.0518 6.58941 11.0518C7.16602 11.0518 7.61083 11.5142 7.59435 12.0921C7.59435 12.6206 7.16602 13.0829 6.65531 13.0829C6.09518 13.0829 5.53505 12.571 5.53505 12.0591Z" fill="white"/>
<path d="M12.092 18.4827C11.5483 18.4827 11.0376 17.9873 11.0376 17.4589C11.0376 16.947 11.5318 16.4681 12.0755 16.4681C12.6356 16.4516 13.1134 16.9305 13.0969 17.4919C13.0969 18.0699 12.6686 18.4827 12.092 18.4827Z" fill="#378241"/>
<path d="M17.4793 12.9508C16.9027 12.9343 16.4414 12.505 16.4414 11.9435C16.4414 11.4151 16.9356 10.9362 17.4958 10.9362C18.0559 10.9362 18.5172 11.4316 18.5007 11.9931C18.4842 12.538 18.0394 12.9673 17.4793 12.9508Z" fill="#378241"/>
<path d="M12.9983 6.56023C12.9983 7.12167 12.5535 7.56753 12.0098 7.58404C11.4826 7.60056 10.939 7.08865 10.939 6.56023C10.939 6.01529 11.4167 5.55293 11.9933 5.55293C12.5535 5.55293 12.9983 5.99878 12.9983 6.56023Z" fill="#378241"/>
<path d="M6.58952 11.0518C7.16612 11.0518 7.61093 11.4977 7.59446 12.0921C7.59446 12.6371 7.16612 13.0829 6.65542 13.0829C6.09529 13.0829 5.53516 12.571 5.53516 12.0591C5.53516 11.5307 6.02939 11.0518 6.58952 11.0518Z" fill="#378241"/>
</svg>
