<svg width="24" height="24" viewBox="0 0 24 24" fill="none" xmlns="http://www.w3.org/2000/svg">
<circle cx="12" cy="12" r="12" fill="#008FBB"/>
<path fill-rule="evenodd" clip-rule="evenodd" d="M11.3981 12.5331C11.7806 12.5331 12.0908 12.8166 12.0908 13.1662C12.0908 13.5158 11.7806 13.8 11.3981 13.8H10.0135C9.90316 13.8003 9.79415 13.7759 9.69431 13.7286L5.65599 11.2662H4.49248C4.10992 11.2662 3.7998 10.9827 3.7998 10.6331C3.7998 10.2835 4.10917 10 4.49248 10H5.87707C6.01901 9.99948 6.1581 10.0401 6.27773 10.117L10.2255 12.5338H11.3981V12.5331ZM17.659 12.5331H16.2744V12.5338H15.7462L11.7984 10.117C11.6852 10.0433 11.5471 10 11.3977 10H10.0132C9.62985 10 9.32048 10.2835 9.32048 10.6331C9.32048 10.9827 9.6306 11.2662 10.0132 11.2662H11.1767L15.215 13.7286C15.3148 13.7759 15.4238 13.8003 15.5342 13.8H17.659C18.0423 13.8 18.3516 13.5158 18.3516 13.1662C18.3516 12.8166 18.0415 12.5331 17.659 12.5331ZM19.0145 11.9C19.0145 12.2496 19.3246 12.5331 19.7072 12.5331C20.0905 12.5331 20.3998 12.2496 20.3998 11.9V10.6331C20.3998 10.2835 20.0897 10 19.7072 10H15.5345C15.152 10 14.8418 10.2835 14.8418 10.6331C14.8418 10.9827 15.152 11.2662 15.5345 11.2662H19.0145V11.9ZM5.87707 12.5331H4.49248C4.10917 12.5331 3.7998 12.8173 3.7998 13.1669C3.7998 13.5165 4.10992 13.8 4.49248 13.8H5.87707C6.25962 13.8 6.56974 13.5165 6.56974 13.1669C6.56974 12.8166 6.25962 12.5331 5.87707 12.5331Z" fill="white"/>
</svg>
