<svg width="24" height="24" viewBox="0 0 24 24" fill="none" xmlns="http://www.w3.org/2000/svg">
<circle cx="12" cy="12" r="12" fill="#164B79"/>
<path fill-rule="evenodd" clip-rule="evenodd" d="M10.4592 14.0009L9.98911 14.9984H8.94638L11.778 9L13.6665 12.9997H12.5989L11.7539 11.2635L10.9073 13.0289L10.4592 14.0009ZM14.5746 14.9759L16.7853 12.0135L14.5588 9.02853H15.7773L17.3927 11.211L16.8049 12.0135L17.3927 12.8159L15.778 14.9984H13.5424L13.0701 14.0009H14.1128L14.5746 14.9759ZM17.3929 11.1854L17.9897 12.0007L20.2004 9.00299H19.0083L17.3929 11.1854ZM17.9894 12.0007L20.2 14.9991H19.0079L17.3933 12.8167L17.9894 12.0007ZM9.2651 12.0014C9.28838 11.2107 8.99378 10.4434 8.44646 9.86921H8.44571C7.93259 9.3057 7.19948 8.99015 6.43496 9.00372C5.84077 8.99434 5.26158 9.18934 4.79543 9.55571L5.48957 10.2907C5.76982 10.1106 6.09836 10.0191 6.43194 10.0282C6.94271 10.0179 7.4328 10.2286 7.77496 10.6057C8.12827 10.9959 8.32298 11.5027 8.32122 12.0277C8.33618 12.5546 8.13995 13.0658 7.77571 13.4489C7.42411 13.8366 6.93972 14.0564 6.4327 14.0564C5.91848 14.053 5.43006 13.832 5.08968 13.4489C4.48083 12.7749 4.37103 11.7904 4.81655 11.0002L4.12241 10.2652C3.77116 10.7759 3.58891 11.3829 3.60105 12.0014C3.58108 12.7914 3.87553 13.5574 4.42044 14.1329C4.93757 14.6923 5.66918 15.0074 6.43345 14.9998C7.22794 14.9998 7.90171 14.7396 8.44646 14.1329C8.98263 13.552 9.27545 12.7896 9.2651 12.0014Z" fill="white"/>
</svg>
