<svg width="24" height="24" viewBox="0 0 24 24" fill="none" xmlns="http://www.w3.org/2000/svg">
<path fill-rule="evenodd" clip-rule="evenodd" d="M12 24C5.4 24 0 18.6001 0 11.9402C0.06 5.34038 5.4 -0.0595036 12.06 0.000495204C18.66 0.060494 24 5.40038 24 12.1202C23.94 18.6601 18.6 24 12 24Z" fill="#EDF0F4"/>
<path fill-rule="evenodd" clip-rule="evenodd" d="M12.4973 6.1984C12.9244 6.02159 13.2029 5.60489 13.2029 5.14265C13.2029 4.51192 12.6918 4.00047 12.0611 4C11.5989 3.99966 11.182 4.27783 11.0048 4.70479C10.8277 5.13174 10.9253 5.62335 11.252 5.95032C11.5787 6.2773 12.0702 6.37521 12.4973 6.1984ZM5.68859 12.4367C6.00459 12.3056 6.21052 11.9972 6.21035 11.6551C6.21011 11.1882 5.83156 10.8098 5.36467 10.8098C5.02258 10.8098 4.71419 11.0159 4.58332 11.332C4.45245 11.648 4.52488 12.0118 4.76683 12.2536C5.00878 12.4955 5.3726 12.5677 5.68859 12.4367ZM19.1252 12.4367C19.4413 12.3057 19.6472 11.9972 19.6471 11.6551H19.6454C19.6451 11.189 19.2679 10.811 18.8018 10.8098C18.4597 10.8096 18.1512 11.0156 18.0202 11.3317C17.8891 11.6477 17.9615 12.0116 18.2034 12.2535C18.4453 12.4954 18.8092 12.5677 19.1252 12.4367ZM12.9291 14.9913C12.9293 15.3334 12.7233 15.6419 12.4072 15.7729C12.0912 15.9039 11.7273 15.8316 11.4854 15.5897C11.2435 15.3478 11.1712 14.9839 11.3022 14.6679C11.4332 14.3518 11.7417 14.1459 12.0838 14.146C12.5506 14.1463 12.9289 14.5246 12.9291 14.9913ZM9.0246 14.1256C9.34061 13.9947 9.54665 13.6863 9.54665 13.3443C9.54665 12.8772 9.16803 12.4986 8.70097 12.4986C8.35893 12.4986 8.05056 12.7047 7.91966 13.0207C7.78877 13.3367 7.86112 13.7004 8.10299 13.9423C8.34485 14.1841 8.70859 14.2565 9.0246 14.1256ZM16.2652 13.3443C16.2661 13.6867 16.0604 13.9958 15.7443 14.1273C15.4281 14.2588 15.0639 14.1866 14.8217 13.9446C14.5796 13.7025 14.5072 13.3383 14.6385 13.0221C14.7699 12.7059 15.0789 12.5001 15.4213 12.5008C15.8868 12.5017 16.2641 12.8787 16.2652 13.3443ZM5.36445 14.7856C5.67998 14.7859 5.93596 14.5303 5.9362 14.2147C5.93631 14.0632 5.87623 13.9178 5.76916 13.8106C5.6621 13.7034 5.51682 13.6431 5.3653 13.643C5.04977 13.6427 4.79378 13.8983 4.79355 14.2139C4.79331 14.5294 5.04891 14.7854 5.36445 14.7856ZM19.3727 14.2147C19.3725 14.5303 19.1165 14.7859 18.801 14.7856C18.4855 14.7854 18.2299 14.5294 18.2301 14.2139C18.2303 13.8983 18.4863 13.6427 18.8018 13.643C19.1173 13.6432 19.3729 13.8989 19.3732 14.2143L19.3727 14.2147ZM12.3022 18.1243C12.5157 18.0358 12.6549 17.8273 12.6547 17.5962C12.6542 17.2811 12.3989 17.0257 12.0838 17.0253C11.8527 17.0251 11.6442 17.1642 11.5556 17.3778C11.4671 17.5913 11.5159 17.8371 11.6794 18.0006C11.8428 18.164 12.0887 18.2129 12.3022 18.1243ZM9.27304 15.9044C9.27304 16.1355 9.1338 16.3439 8.92025 16.4323C8.70671 16.5207 8.46094 16.4717 8.29758 16.3082C8.13421 16.1447 8.08544 15.8989 8.174 15.6855C8.26257 15.472 8.47102 15.3329 8.70214 15.3331C8.85363 15.3331 8.9989 15.3933 9.10598 15.5004C9.21306 15.6076 9.27316 15.7529 9.27304 15.9044ZM15.6395 16.4333C15.8531 16.3445 15.9921 16.1357 15.9916 15.9044H15.9912C15.9905 15.59 15.7359 15.3353 15.4216 15.3343C15.1903 15.3338 14.9815 15.4728 14.8927 15.6864C14.8039 15.9 14.8527 16.1461 15.0163 16.3096C15.1799 16.4732 15.4259 16.522 15.6395 16.4333ZM5.66232 16.2252C5.66232 16.3902 5.52859 16.5239 5.36364 16.5239C5.19869 16.5239 5.06496 16.3902 5.06496 16.2252C5.06496 16.0603 5.19869 15.9266 5.36364 15.9266C5.52859 15.9266 5.66232 16.0603 5.66232 16.2252ZM18.8002 16.5239C18.9651 16.5239 19.0989 16.3902 19.0989 16.2252C19.0989 16.0603 18.9651 15.9266 18.8002 15.9266C18.6352 15.9266 18.5015 16.0603 18.5015 16.2252C18.5015 16.3902 18.6352 16.5239 18.8002 16.5239ZM12.3803 19.6075C12.3803 19.7725 12.2466 19.9062 12.0816 19.9062C11.9167 19.9062 11.7829 19.7725 11.7829 19.6075C11.7829 19.4426 11.9167 19.3089 12.0816 19.3089C12.2466 19.3089 12.3803 19.4426 12.3803 19.6075ZM8.69978 18.2153C8.86473 18.2153 8.99845 18.0816 8.99845 17.9166C8.99845 17.7516 8.86473 17.6179 8.69978 17.6179C8.53482 17.6179 8.4011 17.7516 8.4011 17.9166C8.4011 18.0816 8.53482 18.2153 8.69978 18.2153ZM15.7172 17.9166C15.7172 18.0816 15.5835 18.2153 15.4185 18.2153C15.2536 18.2153 15.1198 18.0816 15.1198 17.9166C15.1198 17.7516 15.2536 17.6179 15.4185 17.6179C15.5835 17.6179 15.7172 17.7516 15.7172 17.9166ZM13.2029 8.52281C13.2029 8.98501 12.9245 9.40168 12.4974 9.57852C12.0704 9.75535 11.5789 9.65752 11.2521 9.33063C10.9254 9.00375 10.8277 8.5122 11.0047 8.08524C11.1817 7.65827 11.5985 7.37998 12.0607 7.38016C12.6916 7.38039 13.2029 7.89191 13.2029 8.52281ZM12.4974 12.9152C12.9239 12.7385 13.2022 12.3227 13.2029 11.8612C13.2034 11.5579 13.0832 11.2669 12.869 11.0522C12.6547 10.8376 12.364 10.7169 12.0607 10.7168C11.5985 10.7166 11.1817 10.9949 11.0047 11.4219C10.8277 11.8488 10.9254 12.3404 11.2521 12.6673C11.5789 12.9942 12.0704 13.092 12.4974 12.9152ZM19.9217 8.52281C19.9217 9.15388 19.4101 9.66546 18.7791 9.66546C18.148 9.66546 17.6364 9.15388 17.6364 8.52281C17.6364 7.89174 18.148 7.38016 18.7791 7.38016C19.4101 7.38016 19.9217 7.89174 19.9217 8.52281ZM5.78085 9.57969C6.20777 9.40229 6.48573 8.98512 6.48504 8.52281C6.4841 7.8924 5.97279 7.38186 5.34239 7.38186C4.88008 7.38186 4.46332 7.66044 4.28656 8.08763C4.1098 8.51482 4.20787 9.00643 4.53502 9.33309C4.86217 9.65975 5.35392 9.75709 5.78085 9.57969ZM9.86684 6.83188C9.86778 7.46294 9.35696 7.97529 8.72589 7.97623C8.09483 7.97717 7.58248 7.46636 7.58154 6.83529C7.5806 6.20422 8.09141 5.69187 8.72248 5.69093C9.35355 5.69093 9.86513 6.20251 9.86513 6.83358L9.86684 6.83188ZM8.72278 11.3125C9.35385 11.3125 9.86543 10.8009 9.86543 10.1698C9.86543 9.86675 9.74505 9.57611 9.53076 9.36183C9.31647 9.14754 9.02583 9.02715 8.72278 9.02715C8.09172 9.02715 7.58013 9.53873 7.58013 10.1698C7.58013 10.8009 8.09172 11.3125 8.72278 11.3125ZM16.5854 6.83358C16.5854 7.29574 16.307 7.71239 15.8801 7.88925C15.4531 8.06611 14.9616 7.96835 14.6348 7.64156C14.308 7.31476 14.2103 6.82329 14.3871 6.39631C14.564 5.96933 14.9806 5.69093 15.4428 5.69093C16.0739 5.69093 16.5854 6.20251 16.5854 6.83358ZM15.8801 11.2255C16.307 11.0486 16.5854 10.632 16.5854 10.1698C16.5854 9.53873 16.0739 9.02715 15.4428 9.02715C14.9806 9.02715 14.564 9.30555 14.3871 9.73253C14.2103 10.1595 14.308 10.651 14.6348 10.9778C14.9616 11.3046 15.4531 11.4023 15.8801 11.2255Z" fill="#141414"/>
</svg>
