<svg width="24" height="24" viewBox="0 0 24 24" fill="none" xmlns="http://www.w3.org/2000/svg">
<circle cx="12" cy="12" r="12" fill="#EDF0F4"/>
<path d="M19.337 13.6034L16.5638 16.3751V16.1486C16.5655 16.0316 16.5192 15.9191 16.4357 15.8372L16.1068 15.5171L18.6751 12.9487C19.1959 12.4262 19.1959 11.5808 18.6751 11.0582L12.9381 5.31962C12.4157 4.79839 11.57 4.79839 11.0476 5.31962L5.31463 11.0558C4.79383 11.5784 4.79383 12.4238 5.31463 12.9463L11.0525 18.6841C11.5744 19.2057 12.4202 19.2057 12.9421 18.6841L15.0807 16.5456L15.1911 16.6256L15.1783 17.7989L13.6208 19.3356C12.73 20.2207 11.2918 20.2207 10.401 19.3356L4.66153 13.6034C3.77949 12.7185 3.77949 11.2868 4.66153 10.4019L10.3962 4.66252C11.2805 3.77916 12.7133 3.77916 13.5976 4.66252L19.337 10.4019C20.2186 11.287 20.2186 12.7183 19.337 13.6034Z" fill="#1EB3DE"/>
<path d="M16.4413 15.8372L16.1124 15.5171L13.0422 12.5061C13.2843 12.0034 13.135 11.3995 12.6864 11.0676C12.2378 10.7357 11.6167 10.7695 11.2067 11.148C10.7968 11.5266 10.7138 12.1431 11.009 12.6166C11.3042 13.0901 11.8943 13.287 12.4147 13.0856L14.0659 14.7055L15.5545 16.0717L15.6986 16.2046C15.7435 16.2454 15.7679 16.3041 15.765 16.3647L15.7634 17.1978V18.925L15.7394 19.2748C15.7233 19.513 15.9017 19.7198 16.1396 19.739H16.1468C16.3853 19.7243 16.5717 19.5274 16.5734 19.2884V16.3919V16.1582C16.5747 16.0377 16.5271 15.9219 16.4413 15.8372Z" fill="#1EB3DE"/>
<path d="M11.9664 12.643C11.6176 12.6251 11.3475 12.331 11.3593 11.9819C11.371 11.6329 11.6604 11.3576 12.0096 11.3633C12.3588 11.369 12.639 11.6534 12.6395 12.0027C12.6396 12.0356 12.6371 12.0685 12.6323 12.1011C12.5839 12.4122 12.3164 12.642 12.0016 12.643H11.9664Z" fill="#1EB3DE"/>
</svg>
