<svg width="24" height="24" viewBox="0 0 24 24" fill="none" xmlns="http://www.w3.org/2000/svg">
<path d="M12 0C18.6274 0 24 5.37257 24 12C24 18.6274 18.6274 24 12 24C5.37257 24 0 18.6274 0 12C0 5.37257 5.37257 0 12 0Z" fill="#1A82FF"/>
<path d="M16.3875 16.9413C15.3486 18.2139 13.8876 18.8503 12.0044 18.8503C10.1212 18.8503 8.65996 18.2139 7.62064 16.9413C6.5811 15.6679 6.06155 14.0219 6.06201 12.0034C6.06247 9.98491 6.58178 8.3392 7.61996 7.06628C8.65881 5.79291 10.1201 5.15634 12.0037 5.15657C13.8874 5.1568 15.3484 5.79337 16.3868 7.06628C17.4257 8.33897 17.9452 9.98468 17.9454 12.0034C17.9457 14.0222 17.4264 15.6681 16.3875 16.9413Z" fill="white"/>
<path d="M11.9823 16.189C12.478 16.189 12.8995 16.054 13.2467 15.7838C13.5939 15.5136 13.8453 15.1472 14.001 14.6846C14.1564 14.2217 14.2661 13.7781 14.3301 13.3536C14.3941 12.9291 14.4259 12.4791 14.4255 12.0034C14.4255 11.4178 14.39 10.8937 14.3192 10.4311L10.0479 14.8821C10.4428 15.7529 11.0876 16.1886 11.9823 16.189Z" fill="#1A82FF"/>
<path d="M12.0247 7.81783C11.529 7.81783 11.1075 7.95291 10.7603 8.22308C10.4131 8.49325 10.1617 8.85965 10.006 9.32228C9.84966 9.78514 9.73995 10.2288 9.67686 10.6533C9.61286 11.0777 9.58109 11.5278 9.58155 12.0034C9.58155 12.3168 9.5916 12.6126 9.61172 12.8907L13.6855 8.64617C13.2899 8.09417 12.7363 7.81805 12.0247 7.81783Z" fill="#1A82FF"/>
<path fill-rule="evenodd" clip-rule="evenodd" d="M13.364 11.4165L13.8885 11.9198L17.8664 7.77326L17.3418 7.26994L13.364 11.4165ZM5.86914 15.7433L6.39371 16.2466L10.3715 12.1001L9.84697 11.5968L5.86914 15.7433Z" fill="#1A82FF"/>
</svg>
