<svg width="24" height="24" viewBox="0 0 24 24" fill="none" xmlns="http://www.w3.org/2000/svg">
<circle cx="12" cy="12" r="12" fill="black"/>
<path fill-rule="evenodd" clip-rule="evenodd" d="M12.6575 9.82457C12.6763 10.2021 12.532 10.5609 12.384 10.8987C12.2184 11.2954 12.052 11.6916 11.8857 12.0878L11.8857 12.0879C11.6505 12.6479 11.4154 13.2078 11.1827 13.7685C11.1576 13.8271 11.1331 13.8863 11.1086 13.9455L11.1086 13.9455C10.9919 14.2272 10.8744 14.5109 10.6913 14.7572C10.5335 14.979 10.3142 15.1497 10.0602 15.2471C9.74011 15.3469 9.40114 15.3713 9.06999 15.3183C8.60757 15.2607 8.15501 15.149 7.70272 15.0374L7.70271 15.0374L7.70253 15.0373C7.5964 15.0111 7.49028 14.985 7.38405 14.9595C7.02321 14.8694 6.66119 14.7806 6.2991 14.6918L6.29907 14.6918L6.299 14.6918C5.89967 14.5939 5.50028 14.496 5.10233 14.3962C4.5982 14.2756 4.08957 14.146 3.62075 13.9168C3.41846 13.819 3.24657 13.6683 3.12339 13.4808C3.02825 13.3261 2.98631 13.1446 3.00393 12.9639C3.04375 12.6321 3.16696 12.3167 3.3007 12.0126L4.52533 9.07999C4.54866 9.02631 4.57131 8.97219 4.59397 8.91803L4.59398 8.91802C4.66619 8.74547 4.73862 8.57241 4.83412 8.41106C4.94146 8.21499 5.08408 8.04029 5.25485 7.8957C5.4562 7.74289 5.69286 7.64476 5.94305 7.60955C6.09569 7.59589 6.24833 7.59974 6.40098 7.60358C6.4324 7.60438 6.46383 7.60517 6.49526 7.60581C7.06449 7.6897 7.62821 7.80726 8.18344 7.95787C8.57615 8.05236 8.96829 8.14932 9.36034 8.24626L9.36037 8.24627L9.3604 8.24628C9.74537 8.34147 10.1303 8.43664 10.5155 8.52942C10.8731 8.61706 11.2292 8.70695 11.5786 8.82605L11.5826 8.82752C11.815 8.91244 12.0523 8.99919 12.2563 9.14666C12.4892 9.29722 12.6379 9.54816 12.6575 9.82457ZM21.0003 11.0972V11.1452C20.3676 11.5399 19.7322 11.9319 19.0963 12.3242C18.6848 12.578 18.2732 12.8319 17.8621 13.0868C17.8422 13.1011 17.8266 13.1205 17.817 13.143C17.881 13.1601 17.9456 13.1763 18.0103 13.1925L18.0103 13.1925C18.2278 13.2471 18.4465 13.3019 18.6509 13.3954C18.8959 13.504 19.1468 13.6456 19.285 13.8831C19.4173 14.1243 19.4503 14.4074 19.3767 14.6718C19.3432 14.8381 19.2789 14.9959 19.2147 15.1536L19.2147 15.1536C19.2025 15.1835 19.1903 15.2134 19.1784 15.2434C19.0869 15.4618 18.9954 15.6801 18.9039 15.8983C18.6809 16.43 18.458 16.9616 18.237 17.4958C18.2218 17.5331 18.2016 17.5682 18.1769 17.6C18.1037 17.5984 18.0329 17.579 17.9619 17.5596L17.9619 17.5596C17.9329 17.5517 17.904 17.5438 17.8748 17.537C17.672 17.4871 17.4688 17.4375 17.2654 17.3879L17.265 17.3878C16.9592 17.3132 16.6531 17.2385 16.3482 17.1625C16.279 17.1431 16.2091 17.1271 16.1392 17.1111L16.1392 17.111L16.1392 17.111C16.042 17.0888 15.9449 17.0665 15.8501 17.0352C15.8532 16.9633 15.8829 16.8988 15.9123 16.8349C15.9248 16.8076 15.9374 16.7804 15.9477 16.7528L16.6449 15.0891C16.6975 14.9737 16.7283 14.8299 16.6532 14.7175C16.5593 14.5572 16.3707 14.4965 16.2039 14.4508C15.8137 14.3507 15.4217 14.2555 15.0298 14.1602C14.806 14.1058 14.5821 14.0514 14.3587 13.9962C14.3335 13.9908 14.3084 13.9837 14.2833 13.9766L14.2833 13.9765C14.221 13.9589 14.1586 13.9412 14.0927 13.9497C14.0568 14.0124 14.0309 14.0803 14.0047 14.1487L14.0047 14.1487C13.9915 14.1833 13.9782 14.2181 13.9635 14.2523C13.8242 14.5782 13.6878 14.9051 13.5514 15.2319L13.5514 15.2321L13.5513 15.2321C13.4319 15.5183 13.3125 15.8045 13.1912 16.0898C13.1797 16.1159 13.1696 16.1428 13.1596 16.1697C13.1366 16.231 13.1136 16.2925 13.074 16.3445C13.0017 16.3445 12.9324 16.3246 12.8632 16.3048C12.8346 16.2966 12.806 16.2884 12.7772 16.2816C12.5818 16.2337 12.3864 16.1853 12.1909 16.1369L12.1907 16.1369C11.8608 16.0552 11.5306 15.9735 11.1995 15.8936C11.1437 15.8786 11.087 15.8658 11.0302 15.8529L11.0302 15.8529C10.9361 15.8316 10.8415 15.8102 10.7502 15.779C10.752 15.7375 10.7611 15.6967 10.7772 15.6584L13.4316 9.31369C13.4408 9.29242 13.4553 9.27386 13.4737 9.25975C13.5344 9.26369 13.5931 9.28119 13.6518 9.29868C13.6825 9.30783 13.7132 9.31697 13.7441 9.32418C14.0005 9.38516 14.257 9.44886 14.5137 9.51258C14.7046 9.56 14.8957 9.60743 15.0867 9.65377C15.1751 9.67658 15.2643 9.69743 15.3537 9.71832L15.3537 9.71832C15.4991 9.75231 15.6448 9.78637 15.7877 9.82905C15.7986 9.86854 15.7822 9.90864 15.7668 9.94655L15.7622 9.95789C15.6561 10.1985 15.5552 10.4412 15.4545 10.6835L15.4545 10.6835C15.384 10.8531 15.3136 11.0225 15.2415 11.1909L14.6998 12.4883C14.6798 12.5382 14.6578 12.5874 14.6358 12.6368C14.5907 12.7378 14.5455 12.839 14.5172 12.9467C14.5946 12.92 14.6609 12.875 14.7285 12.829L14.7306 12.8276L18.2663 10.6178C18.2843 10.6065 18.3018 10.5942 18.3194 10.5819C18.3647 10.55 18.41 10.5182 18.4631 10.5047C18.5429 10.4986 18.6194 10.5195 18.6954 10.5401L18.6954 10.5401C18.7224 10.5475 18.7494 10.5548 18.7764 10.5609C18.9793 10.6043 19.1803 10.6558 19.381 10.7072C19.537 10.7471 19.6929 10.787 19.8493 10.8231C20.0294 10.8631 20.2078 10.9075 20.3857 10.9517L20.3858 10.9517C20.5908 11.0027 20.7951 11.0535 21.0003 11.0972ZM9.78123 10.2396C9.87364 10.2875 9.95253 10.3819 9.9375 10.492L9.93825 10.4928C9.92162 10.6242 9.86602 10.7444 9.81116 10.8631C9.79663 10.8945 9.78215 10.9258 9.76846 10.9572L8.93826 12.943C8.8759 13.095 8.7895 13.2681 8.62046 13.3228C8.42384 13.3652 8.22221 13.3183 8.02955 13.2736C8.02491 13.2725 8.02028 13.2714 8.01566 13.2703L6.32146 12.8553L6.316 12.8539C6.17571 12.8169 6.03123 12.7788 5.89847 12.7108C5.80906 12.6673 5.73619 12.5759 5.73619 12.4711C5.7437 12.3797 5.77751 12.2943 5.81132 12.2089C5.98626 11.7974 6.15833 11.3847 6.3305 10.9717C6.46296 10.654 6.59548 10.3362 6.72942 10.0186C6.79177 9.85604 6.88419 9.67027 7.06826 9.61784C7.22729 9.5924 7.39002 9.60263 7.54459 9.6478C8.09003 9.77964 8.63248 9.91297 9.17492 10.0478C9.21513 10.0581 9.25572 10.0679 9.2964 10.0776C9.46252 10.1175 9.63036 10.1577 9.78123 10.2396Z" fill="white"/>
</svg>
