<svg width="24" height="24" viewBox="0 0 24 24" fill="none" xmlns="http://www.w3.org/2000/svg">
<circle cx="12" cy="12" r="12" fill="#E7EFF3"/>
<ellipse cx="12.0001" cy="7.62264" rx="3.62264" ry="3.62264" fill="#88BDF3"/>
<ellipse cx="12.0001" cy="16.3774" rx="3.62264" ry="3.62264" fill="#3075EE"/>
<ellipse cx="16.377" cy="12" rx="3.62264" ry="3.62264" fill="#5795F1"/>
<ellipse cx="7.62264" cy="12" rx="3.62264" ry="3.62264" fill="#205FEC"/>
<path d="M11.1471 11.1472C9.83074 10.8271 8.80298 9.79933 8.48291 8.483C9.79654 8.80785 10.8222 9.83352 11.1471 11.1472Z" fill="#134BEF"/>
<path d="M8.47559 15.5245C8.79566 14.2082 9.82341 13.1805 11.1397 12.8604C10.8149 14.174 9.78922 15.1997 8.47559 15.5245Z" fill="#0932E8"/>
<path d="M12.853 12.8528C14.1694 13.1729 15.1971 14.2006 15.5172 15.517C14.2035 15.1921 13.1779 14.1664 12.853 12.8528L12.853 12.8528Z" fill="#164BEA"/>
<path d="M15.525 8.47546C15.2049 9.79179 14.1772 10.8195 12.8608 11.1396C13.1857 9.82598 14.2114 8.80031 15.525 8.47546Z" fill="#3170F1"/>
</svg>
