<svg width="24" height="24" viewBox="0 0 24 24" fill="none" xmlns="http://www.w3.org/2000/svg">
<circle cx="12" cy="12" r="12" fill="#EDF0F4"/>
<circle cx="12" cy="12" r="8" fill="white"/>
<path fill-rule="evenodd" clip-rule="evenodd" d="M3.68506 12C3.68506 7.40774 7.40781 3.685 12 3.685C16.5923 3.685 20.315 7.40774 20.315 12C20.315 16.5922 16.5923 20.315 12 20.315C7.40781 20.315 3.68506 16.5922 3.68506 12ZM19.4242 12C19.4242 7.89972 16.1002 4.57576 11.9999 4.57576C7.89961 4.57576 4.57565 7.89972 4.57565 12C4.57565 16.1003 7.89961 19.4243 11.9999 19.4243C16.1002 19.4243 19.4242 16.1003 19.4242 12Z" fill="#EB1A6B"/>
<path d="M13.9674 13.4736C14.1768 13.6237 14.2834 13.7146 14.402 13.7897C15.121 14.2677 15.9032 14.3151 16.4128 13.8331C16.9541 13.3077 16.9975 12.6479 16.7447 11.9724C16.476 11.206 15.8439 10.7437 15.0815 10.8622C14.7378 10.9215 14.3308 11.1783 14.1373 11.4627C13.6592 12.1541 13.4933 13.039 12.6992 13.5013C12.5926 13.5605 12.6242 13.9042 12.6242 14.1176C12.64 15.6188 11.5457 16.7724 9.96937 16.9225C8.72492 17.041 6.86418 16.0376 6.87998 14.643C7.53974 14.9432 8.16788 15.362 8.87504 15.5121C9.45974 15.6464 10.1629 15.5872 10.7516 15.3936C11.518 15.1368 11.8775 14.402 11.7867 13.7422C11.6958 13.1734 11.4706 13.0232 10.317 12.8257C10.242 12.4939 10.1669 12.1343 10.0918 11.7314C10.2104 11.7156 10.3012 11.6879 10.3921 11.6879C10.9175 11.6445 11.4864 11.6287 11.5299 10.8939C11.5733 10.3092 11.0202 9.6178 10.3763 9.68101C9.74813 9.74027 9.16344 10.0721 8.44048 10.325C8.30616 10.1156 8.08097 9.77188 7.87159 9.42422C8.78813 8.3457 10.2854 8.13632 11.3797 8.93039C12.3832 9.64941 12.4741 10.8069 11.5891 12.1541C11.8459 12.3951 12.0987 12.6321 12.4583 12.9798C12.5768 12.6203 12.64 12.3635 12.7269 12.1264C12.8454 11.7827 12.9363 11.4074 13.1299 11.0914C13.6079 10.2657 14.2716 9.69681 15.3027 9.81533C16.3062 9.93385 16.8197 10.5304 17.2029 11.4627C17.6217 12.5531 17.4518 13.3748 17.2029 13.999C16.9541 14.6232 16.0375 15.2593 15.3778 15.1526C14.5086 15.0183 14.0148 14.4652 13.9674 13.4736Z" fill="black"/>
<path d="M11.0757 7.72943C12.4544 8.68943 13.6712 8.55511 14.8999 7.71362C15.1251 8.07313 15.3186 8.37338 15.5162 8.67362C14.0584 9.81535 11.688 9.23066 11.0757 7.72943Z" fill="black"/>
<path d="M12.1699 7.17633C12.4386 6.84447 12.6479 6.60744 12.9047 6.30719C13.205 6.62324 13.3986 6.83262 13.6396 7.10126C13.4144 7.35805 13.205 7.57929 12.9363 7.86768C12.6796 7.6425 12.4544 7.42917 12.1699 7.17633Z" fill="#F01871"/>
</svg>
