<svg width="24" height="24" viewBox="0 0 24 24" fill="none" xmlns="http://www.w3.org/2000/svg">
<circle cx="12" cy="12" r="12" fill="#E7EFF3"/>
<path fill-rule="evenodd" clip-rule="evenodd" d="M4.14304 10.4632C4.77807 7.10847 7.5555 4.51064 11.0064 4.04239C11.603 3.95901 12.8666 4.00391 13.5273 4.13219C15.1052 4.43367 16.696 5.31244 17.7929 6.46703C19.6594 8.44907 20.3971 11.1495 19.7941 13.8051C19.4478 15.3381 18.6652 16.698 17.485 17.8205C16.3689 18.8724 15.1052 19.5267 13.5401 19.8603C12.7832 20.0206 11.2181 20.0206 10.4612 19.8603C9.36435 19.6229 8.41502 19.2252 7.48494 18.6159C6.87557 18.2118 5.8172 17.147 5.39385 16.5184C4.18153 14.7031 3.74535 12.5799 4.14304 10.4632ZM17.6837 7.32013C16.5099 5.87048 14.7074 4.8955 12.8024 4.67741C11.2244 4.50422 9.72345 4.82494 8.28022 5.65239C6.95886 6.40287 5.76578 7.78197 5.1949 9.21237C4.07238 11.9898 4.69458 15.0687 6.80491 17.1855C10.5445 20.9507 16.9268 19.6101 18.8575 14.6518C19.2232 13.7281 19.3386 13.0418 19.3386 11.9257C19.3322 11.1431 19.3065 10.8865 19.1654 10.3221C18.8768 9.1354 18.4406 8.26305 17.6837 7.32013Z" fill="black"/>
<path fill-rule="evenodd" clip-rule="evenodd" d="M5.6507 12.4003C5.45827 11.4381 5.99066 10.4054 6.82453 10.104C7.13883 9.99491 7.76744 9.97566 8.09458 10.0655C8.93486 10.3028 9.50574 11.2265 9.41594 12.2143C9.34538 12.9327 9.03108 13.4394 8.4602 13.7601C8.15231 13.9269 8.06892 13.9462 7.51087 13.9462C6.8117 13.9462 6.55512 13.85 6.15743 13.4202C5.85596 13.1059 5.74691 12.8814 5.6507 12.4003ZM8.66532 12.3746C8.80002 11.8166 8.60759 11.1815 8.22914 10.9057C7.84428 10.6363 7.1836 10.6299 6.81157 10.8993C6.36256 11.2136 6.20861 12.118 6.50367 12.6953C6.99117 13.6639 8.40875 13.4522 8.66532 12.3746Z" fill="black"/>
<path d="M15.5029 10.1296C14.297 10.6107 13.9571 12.3875 14.8679 13.4651C15.3618 14.0552 16.5292 14.1643 17.0488 13.664L17.1899 13.5293L17.2091 13.7089C17.2284 13.8692 17.2476 13.8821 17.5491 13.8821H17.8698L17.8891 12.8686L17.9083 11.8615H17.0039H16.1059V12.1822V12.503H16.6511C17.2412 12.503 17.2605 12.5158 17.0937 12.8622C16.9782 13.0995 16.5677 13.3368 16.2598 13.3368C15.5222 13.3368 15.0796 12.8173 15.0796 11.977C15.086 11.0469 15.6825 10.5145 16.4972 10.7069C16.8115 10.7839 17.1322 11.0597 17.1322 11.2586C17.1322 11.3227 17.2284 11.3484 17.517 11.3484H17.8955L17.8057 11.0597C17.6068 10.3862 17.1129 10.0463 16.2983 10.0206C15.9391 10.0078 15.7403 10.0334 15.5029 10.1296Z" fill="black"/>
<path d="M9.94824 11.9898V13.9141H10.269H10.5897L10.6025 12.6184L10.6218 11.3163L11.0964 12.6184L11.5711 13.9205L11.8918 13.9013L12.2125 13.882L12.6808 12.5992L13.149 11.3163L13.1683 12.5992L13.1875 13.882L13.5275 13.9013L13.861 13.9205L13.8482 12.009L13.8289 10.0976H13.3864H12.9373L12.4242 11.5216C12.142 12.3105 11.8918 12.9327 11.8726 12.9006C11.8469 12.875 11.616 12.2656 11.3594 11.5408C11.1028 10.816 10.8591 10.1874 10.827 10.1425C10.7885 10.0976 10.6089 10.0655 10.3588 10.0655H9.94824V11.9898Z" fill="black"/>
</svg>
