<svg width="24" height="24" viewBox="0 0 24 24" fill="none" xmlns="http://www.w3.org/2000/svg">
<circle cx="12" cy="12" r="12" fill="#EDF0F4"/>
<path fill-rule="evenodd" clip-rule="evenodd" d="M12.0003 18.9956C15.864 18.9941 18.9964 15.8634 19 11.9997C18.9916 8.07273 15.8022 5.00422 12.0087 5C8.18153 4.99579 5.02544 8.08491 5.00015 11.9543C4.97532 15.848 8.13141 18.9956 12.0003 18.9956ZM12.0123 6.85506C14.8456 6.86793 17.1367 9.16637 17.1406 11.9997C17.1364 13.371 16.5861 14.6842 15.6115 15.6489C14.6368 16.6136 13.3181 17.1504 11.9468 17.1406C9.17845 17.1111 6.85646 14.8485 6.86068 11.9917C6.86068 9.14426 9.19016 6.8471 12.0123 6.85506Z" fill="#1C347A"/>
<path fill-rule="evenodd" clip-rule="evenodd" d="M7.90861 5.57938C6.97472 6.17915 6.17777 6.96908 5.56976 7.89763V5.5836C5.6194 5.5672 7.74563 5.56205 7.90861 5.57938ZM18.4196 5.56906C17.6441 5.56906 16.8685 5.56906 16.093 5.57702C17.0216 6.18272 17.8139 6.97508 18.4196 7.9037V5.56906ZM18.4196 18.4412V16.0925C17.8172 17.0298 17.0245 17.83 16.093 18.4412H18.4196ZM5.58394 18.4276H7.89797C6.9706 17.8197 6.18089 17.0243 5.57972 16.0925C5.56333 16.1885 5.56755 18.3733 5.58394 18.4276Z" fill="#1C347A"/>
</svg>
