<svg width="24" height="24" viewBox="0 0 24 24" fill="none" xmlns="http://www.w3.org/2000/svg">
<circle cx="12" cy="12" r="12" fill="#E7EFF3"/>
<path fill-rule="evenodd" clip-rule="evenodd" d="M15.4113 6C13.9842 5.99889 12.8257 7.15355 12.822 8.58067V11.442C12.5553 11.46 12.2827 11.4713 12 11.4713C11.7173 11.4713 11.446 11.4827 11.178 11.4987V8.58067C11.1553 7.167 10.0029 6.03288 8.589 6.03288C7.17515 6.03288 6.02269 7.167 6 8.58067V15.4193C6.02269 16.833 7.17515 17.9671 8.589 17.9671C10.0029 17.9671 11.1553 16.833 11.178 15.4193V12.558C11.4447 12.54 11.7173 12.5287 12 12.5287C12.2827 12.5287 12.554 12.5173 12.822 12.5013V15.4193C12.8447 16.833 13.9971 17.9671 15.411 17.9671C16.8249 17.9671 17.9773 16.833 18 15.4193V8.58067C17.9963 7.15381 16.8382 5.99926 15.4113 6ZM8.58869 7.05733C9.43091 7.05696 10.1145 7.73844 10.1167 8.58066V11.6107C9.35921 11.7204 8.6195 11.9296 7.91669 12.2327C7.61218 12.3663 7.32552 12.5374 7.06335 12.742V8.58066C7.06555 7.73948 7.7475 7.05842 8.58869 7.05733ZM8.58881 16.9473C9.4327 16.9473 10.1168 16.2632 10.1168 15.4193V12.678C9.50737 12.7774 8.91246 12.9514 8.34548 13.196C7.54081 13.5533 7.06081 14.1273 7.06081 14.7333V15.4193C7.06081 16.2632 7.74492 16.9473 8.58881 16.9473ZM15.4115 16.9427C14.5692 16.943 13.8857 16.2616 13.8835 15.4193V12.3893C14.6409 12.2796 15.3806 12.0704 16.0835 11.7673C16.388 11.6337 16.6746 11.4626 16.9368 11.258V15.4193C16.9346 16.2605 16.2526 16.9416 15.4115 16.9427ZM13.8835 11.318C14.4929 11.2186 15.0878 11.0446 15.6548 10.8C16.4595 10.444 16.9395 9.87002 16.9395 9.26669V8.58069C16.9395 7.73679 16.2553 7.05269 15.4115 7.05269C14.5676 7.05269 13.8835 7.73679 13.8835 8.58069V11.318Z" fill="url(#paint0_linear_300_8889)"/>
<defs>
<linearGradient id="paint0_linear_300_8889" x1="11.9801" y1="22.2812" x2="22.3915" y2="11.8411" gradientUnits="userSpaceOnUse">
<stop stop-color="#00AEE9"/>
<stop offset="1" stop-color="#69FABD"/>
</linearGradient>
</defs>
</svg>
