<svg width="24" height="24" viewBox="0 0 24 24" fill="none" xmlns="http://www.w3.org/2000/svg">
<path d="M12 24C18.6276 24 24 18.6276 24 12C24 5.3724 18.6276 0 12 0C5.3724 0 0 5.3724 0 12C0 18.6276 5.3724 24 12 24Z" fill="#EDF0F4"/>
<path fill-rule="evenodd" clip-rule="evenodd" d="M7.5368 5.66937C7.33201 5.4925 6.97361 5.67868 7.00154 5.94864V10.8405C7.03878 11.7667 7.33666 12.679 7.85331 13.4516C8.44442 14.3406 9.32877 15.0342 10.3388 15.3925C11.1347 15.6718 12.0051 15.7416 12.8336 15.5927C13.7272 15.4484 14.565 15.0202 15.2539 14.4384C15.4374 14.609 15.6101 14.7905 15.7828 14.9719C15.9869 15.1863 16.191 15.4007 16.4129 15.5973C16.6037 15.7649 16.9481 15.616 16.9528 15.36C16.9581 14.437 16.9573 13.5141 16.9566 12.5912C16.956 11.899 16.9554 11.2068 16.9574 10.5147C16.9342 9.23469 16.4036 7.97333 15.4959 7.07037C14.6395 6.19998 13.4526 5.67403 12.2378 5.60886C11.2138 5.55301 10.1759 5.83228 9.31481 6.3815C9.17302 6.46899 9.04296 6.57017 8.91323 6.67109C8.84281 6.72587 8.77248 6.78058 8.70042 6.83299C8.51558 6.6589 8.33968 6.47587 8.164 6.29308L8.16399 6.29308L8.16399 6.29308C7.95922 6.08002 7.75475 5.86728 7.5368 5.66937ZM9.19876 7.33566C9.72937 6.82367 10.4368 6.51648 11.1536 6.36288C11.5379 6.27351 11.9351 6.28281 12.3246 6.29193L12.3731 6.29306C13.3366 6.39081 14.2721 6.81902 14.961 7.50322C15.715 8.22932 16.1851 9.23934 16.2642 10.2773C16.2673 11.2082 16.2663 12.1391 16.2653 13.07C16.2648 13.5354 16.2642 14.0009 16.2642 14.4663C15.985 14.1995 15.7164 13.9234 15.4478 13.6472L15.4478 13.6472L15.4478 13.6472L15.4477 13.6471C15.2149 13.4077 14.9821 13.1684 14.7422 12.935C13.816 12.0041 12.8932 11.0697 11.9705 10.1353C11.0478 9.20095 10.125 8.26656 9.19876 7.33566ZM7.69539 6.79575C7.69007 7.51384 7.69083 8.23041 7.69159 8.9472C7.69216 9.48484 7.69273 10.0226 7.69073 10.5612C7.63954 11.9157 8.30047 13.2561 9.36634 14.0846C10.1111 14.6664 11.0559 14.9969 12.0054 14.9783C13.0108 14.9876 14.0068 14.6013 14.7655 13.945C14.3051 13.463 13.8336 12.991 13.3619 12.5186C12.9178 12.074 12.4735 11.6292 12.038 11.1756C10.5905 9.7141 9.14293 8.2526 7.69539 6.79575ZM7.57874 14.471C7.49031 14.3686 7.34602 14.3779 7.225 14.3965C7.09933 14.4337 7.00159 14.5641 7.00624 14.7037C7.00392 14.983 7.00392 15.2634 7.00392 15.5438C7.00392 15.8242 7.00392 16.1047 7.00159 16.3839C7.00242 16.4013 7.0028 16.4189 7.00319 16.4367C7.00499 16.519 7.00685 16.6036 7.05279 16.6725C7.15984 16.8447 7.42515 16.8773 7.56943 16.7423C7.67183 16.6539 7.69045 16.5096 7.69045 16.3839C7.69045 16.2135 7.68993 16.043 7.68942 15.8723V15.8723C7.68838 15.5304 7.68735 15.1879 7.69045 14.8433C7.69045 14.713 7.68114 14.5641 7.57874 14.471ZM16.5383 16.0256C16.7291 15.9557 16.9711 16.0768 16.9898 16.2862C17.0004 16.4804 16.9989 16.6745 16.9974 16.8687C16.9962 17.0143 16.9951 17.1599 16.9991 17.3055C16.9979 17.3381 16.9985 17.3712 16.9991 17.4044C17.0008 17.5042 17.0026 17.6046 16.9572 17.6919C16.8455 17.9106 16.4778 17.9106 16.3614 17.6919C16.3077 17.5879 16.3091 17.4703 16.3105 17.3558V17.3557C16.3109 17.3215 16.3113 17.2875 16.3102 17.2543C16.3145 17.1103 16.3128 16.9662 16.3112 16.8226V16.8226V16.8226C16.3093 16.6553 16.3073 16.4887 16.3149 16.3234C16.3195 16.1978 16.408 16.0674 16.5383 16.0256ZM12.2613 16.2583C12.1682 16.128 11.9821 16.1373 11.8424 16.1745C11.7214 16.2397 11.6469 16.3793 11.6563 16.5096C11.6563 16.702 11.6557 16.8944 11.6552 17.0868C11.6542 17.4715 11.6532 17.8563 11.6563 18.2411C11.6516 18.4226 11.8145 18.5995 12.0007 18.5855C12.1869 18.5995 12.3358 18.4179 12.3405 18.2411C12.3458 17.9406 12.345 17.6386 12.3443 17.336C12.3437 17.1089 12.3431 16.8814 12.3451 16.6539C12.3451 16.6475 12.3451 16.6411 12.3451 16.6346C12.3454 16.5049 12.3456 16.3647 12.2613 16.2583Z" fill="#169BB3"/>
</svg>
