<svg width="24" height="24" viewBox="0 0 24 24" fill="none" xmlns="http://www.w3.org/2000/svg">
<circle cx="12" cy="12" r="12" fill="#25AAE1"/>
<path fill-rule="evenodd" clip-rule="evenodd" d="M12.262 18.7947C11.023 18.8081 9.98261 18.5878 9.00194 18.1076C8.9415 18.0778 8.89616 18.0763 8.83572 18.1098C8.24007 18.4416 7.58613 18.6593 6.90837 18.7516L6.88615 18.7544C6.60328 18.7908 6.31766 18.8275 6.03347 18.7702C5.66785 18.6995 5.36929 18.44 5.25236 18.0914C5.13542 17.7428 5.21826 17.3592 5.4691 17.0877C5.81531 16.7002 6.07526 16.2455 6.23218 15.7529C6.25091 15.703 6.24326 15.6472 6.21178 15.604C5.67694 14.7675 5.34665 13.8199 5.24697 12.8361C5.02485 10.6608 5.71162 8.79741 7.29445 7.26978C8.29059 6.29752 9.57971 5.66959 10.9686 5.48011C12.8853 5.20391 14.6321 5.64016 16.1666 6.8112C17.5356 7.85642 18.3878 9.23292 18.6848 10.9139C19.061 13.0416 18.5163 14.937 17.0679 16.5569C15.9974 17.754 14.6374 18.4649 13.0372 18.7173C12.8153 18.7527 12.5909 18.7694 12.4225 18.7819H12.4225C12.3604 18.7865 12.306 18.7905 12.262 18.7947ZM7.40399 17.017L7.40485 17.0168L7.40474 17.017H7.40399ZM7.40485 17.0168L7.43123 17.0096L7.43128 17.0096C7.46461 17.0006 7.48743 16.9944 7.50976 16.9872C7.93948 16.8442 8.34532 16.6392 8.71407 16.379C8.98002 16.1944 9.24218 16.1854 9.52248 16.3433C10.1239 16.6827 10.7683 16.8942 11.4597 16.9664C12.5831 17.0848 13.6431 16.8741 14.5913 16.274C16.2308 15.2378 17.0468 13.7459 16.9584 11.814C16.9017 10.5767 16.4099 9.5084 15.5191 8.63813C14.4455 7.58993 13.1392 7.11199 11.6259 7.21472C10.6059 7.2847 9.68417 7.63013 8.89918 8.27558C7.3783 9.52627 6.79126 11.1298 7.12822 13.0528C7.23853 13.6856 7.49465 14.2662 7.85579 14.8022C7.99524 14.9961 8.04238 15.24 7.98499 15.4708C7.89862 15.841 7.77721 16.2024 7.62234 16.5502C7.57971 16.646 7.53496 16.7406 7.48808 16.8397C7.46104 16.8969 7.4333 16.9555 7.40485 17.0168ZM12.0064 9.26636L12.0061 9.26566H12.0068C12.0067 9.26589 12.0066 9.26612 12.0064 9.26636ZM12.4367 10.127L12.0064 9.26636C11.9979 9.28082 11.991 9.29246 11.985 9.30243C11.9751 9.31881 11.968 9.33066 11.9615 9.34308C11.866 9.53368 11.7704 9.7242 11.6748 9.91471C11.4836 10.2957 11.2923 10.6767 11.1025 11.0583C11.0737 11.1164 11.042 11.1529 10.9725 11.1625C10.6623 11.2044 10.3529 11.2481 10.0434 11.2919C9.91797 11.3096 9.7925 11.3273 9.66696 11.3449L8.9749 11.4432L8.95148 11.4789C8.96138 11.485 8.97173 11.4905 8.98206 11.496C9.00482 11.5082 9.02749 11.5203 9.04516 11.5377C9.49689 11.9716 9.94769 12.4063 10.3976 12.842C10.4001 12.8445 10.4026 12.8469 10.4052 12.8494C10.4447 12.8873 10.4814 12.9224 10.4686 12.9924C10.3858 13.4369 10.3076 13.8825 10.2295 14.3278C10.2186 14.3904 10.2076 14.453 10.1966 14.5156C10.1771 14.6266 10.1588 14.7381 10.1393 14.8569C10.1324 14.8989 10.1253 14.9419 10.118 14.9861C10.1344 14.9783 10.148 14.9721 10.1599 14.9666C10.1797 14.9576 10.1945 14.9508 10.2087 14.9429C10.2744 14.9089 10.3402 14.8749 10.406 14.8409C10.9046 14.5832 11.4029 14.3255 11.8995 14.0644C11.9781 14.0227 12.037 14.0265 12.1126 14.0667C12.5907 14.3198 13.0711 14.569 13.5513 14.8182C13.6318 14.86 13.7124 14.9018 13.7929 14.9436C13.8101 14.9526 13.8284 14.9594 13.8501 14.9673C13.8589 14.9706 13.8682 14.974 13.8783 14.9779C13.8774 14.9659 13.8768 14.9561 13.8764 14.9477C13.8756 14.9347 13.8751 14.9249 13.8737 14.9154C13.8563 14.8134 13.839 14.7114 13.8216 14.6094C13.732 14.0824 13.6423 13.5555 13.5473 13.0296C13.5307 12.9381 13.5557 12.8822 13.6184 12.8227C13.9795 12.4817 14.3384 12.1385 14.6965 11.7938C14.7746 11.7189 14.8502 11.6408 14.9278 11.5608C14.9635 11.524 14.9996 11.4867 15.0365 11.4492C15.0239 11.4467 15.0124 11.4442 15.0015 11.4417C14.989 11.4389 14.9772 11.4363 14.9655 11.4343C14.8099 11.4122 14.6542 11.3899 14.4986 11.3677C14.0203 11.2995 13.5419 11.2312 13.0631 11.1655C12.9784 11.1544 12.9278 11.1261 12.89 11.0457C12.7875 10.8301 12.6805 10.6159 12.5738 10.4022C12.5279 10.3104 12.4821 10.2187 12.4367 10.127Z" fill="white"/>
</svg>
