<svg width="24" height="24" viewBox="0 0 24 24" fill="none" xmlns="http://www.w3.org/2000/svg">
<circle cx="12" cy="12" r="12" fill="#EDF0F4"/>
<path d="M9.02438 13.9014C9.01934 13.9669 8.9742 14.0225 8.91107 14.0408C8.84794 14.0592 8.78004 14.0365 8.74062 13.9839L6.47053 11.8696C6.41262 11.8323 6.38295 11.7637 6.39538 11.6959C6.4078 11.6281 6.45988 11.5745 6.52728 11.5601L9.70541 10.2929C9.85297 10.2341 9.94171 10.3115 9.9025 10.4663L9.02438 13.9014Z" fill="#404A72"/>
<path d="M7.14681 15.9104C7.02608 16.0136 6.90432 15.9713 6.87646 15.8144L6.25734 12.3783C6.22845 12.2215 6.30068 12.1823 6.41728 12.2906L8.57387 14.3027C8.62945 14.3522 8.66063 14.4235 8.65924 14.4979C8.65786 14.5723 8.62403 14.6423 8.56665 14.6897L7.14681 15.9104Z" fill="#556195"/>
<path d="M9.74686 9.6088C9.7973 9.65678 9.81816 9.72811 9.80153 9.79571C9.78489 9.8633 9.73332 9.91681 9.66638 9.9359L6.50785 11.1999C6.35926 11.2588 6.28394 11.1855 6.33966 11.0359L7.63774 7.54715C7.6489 7.4822 7.69947 7.43117 7.7643 7.4194C7.82914 7.40763 7.89442 7.43765 7.92769 7.49452L9.74686 9.6088Z" fill="#556195"/>
<path d="M6.43658 15.3263C6.46547 15.4832 6.41697 15.5018 6.33339 15.3687L5.10341 13.4752C5.01722 13.3266 5.02364 13.1418 5.11992 12.9995L5.66681 12.2658C5.76277 12.1379 5.8639 12.1627 5.89176 12.3185L6.43658 15.3263Z" fill="#556195"/>
<path d="M6.05057 10.8212C5.99485 10.9708 5.90817 10.9698 5.85761 10.8212L5.43971 9.5613C5.39376 9.3941 5.44058 9.21509 5.5625 9.0918L7.0556 7.73903C7.17323 7.63584 7.22483 7.6668 7.16911 7.81642L6.05057 10.8212Z" fill="#556195"/>
<path d="M5.65651 11.3062C5.70327 11.4783 5.67356 11.6622 5.57499 11.8108L5.14677 12.3876C5.0508 12.5155 4.98683 12.4908 5.00231 12.3319L5.20662 10.3373C5.22209 10.1784 5.27781 10.1722 5.32734 10.3239L5.65651 11.3062Z" fill="#556195"/>
<path d="M7.3412 6.81452C7.39486 6.8754 7.3412 7.01367 7.22253 7.12408L6.5477 7.72978C6.42903 7.83297 6.41046 7.81955 6.50539 7.6916L7.06363 6.93525C7.16681 6.8073 7.28857 6.75467 7.3412 6.81452Z" fill="#556195"/>
<path d="M11.5794 17.4302C11.5539 17.4919 11.4949 17.533 11.4282 17.5354C11.3616 17.5379 11.2997 17.5012 11.2698 17.4416L9.51565 14.8867C9.46952 14.8399 9.45721 14.7694 9.48475 14.7097C9.51229 14.6501 9.57392 14.6137 9.63947 14.6184L13.1674 14.2542C13.3253 14.2377 13.3893 14.3367 13.3088 14.475L11.5794 17.4302Z" fill="#556195"/>
<path d="M10.8435 17.4323C10.9343 17.5644 10.8847 17.6294 10.733 17.5789L7.43109 16.4541C7.28044 16.4025 7.25567 16.2756 7.3764 16.1714L8.78902 14.9517C8.84427 14.9019 8.91854 14.8787 8.99234 14.8882C9.06613 14.8978 9.13208 14.9391 9.17287 15.0013L10.8435 17.4323Z" fill="#556195"/>
<path d="M13.2389 13.6609C13.3421 13.7816 13.2977 13.893 13.1357 13.9095L9.55518 14.2789C9.48784 14.293 9.41817 14.2694 9.37331 14.2173C9.32845 14.1651 9.3155 14.0927 9.33952 14.0282L10.2352 10.5426C10.2754 10.3888 10.3931 10.361 10.4962 10.4817L13.2389 13.6609Z" fill="#6ECCE0"/>
<path d="M15.8108 16.6471C15.8627 16.6883 15.8831 16.7576 15.8618 16.8203C15.8405 16.883 15.7821 16.9256 15.7159 16.9267L12.0734 17.6924C11.9176 17.7254 11.8557 17.6398 11.9362 17.5015L13.6542 14.5638C13.6835 14.501 13.744 14.4584 13.813 14.4521C13.882 14.4457 13.9493 14.4764 13.9896 14.5328L15.8108 16.6471Z" fill="#556195"/>
<path d="M9.95286 18.6077C9.79783 18.6813 9.61439 18.6601 9.48027 18.553L7.78595 17.0599C7.66729 16.9567 7.69308 16.9103 7.84373 16.9567L10.7329 17.9401C10.8846 17.9917 10.8929 18.0959 10.7525 18.1712L9.95286 18.6077Z" fill="#556195"/>
<path d="M13.8801 18.75C13.7402 18.8522 13.5565 18.8719 13.3982 18.8016L12.2229 18.2021C12.0805 18.1288 12.0919 18.0432 12.2477 18.0102L15.3856 17.3498C15.5414 17.3168 15.5682 17.3725 15.4454 17.4736L13.8801 18.75Z" fill="#556195"/>
<path d="M10.5937 18.8274C10.4338 18.8202 10.4194 18.7521 10.5597 18.6768L11.1912 18.3342C11.3541 18.2572 11.5424 18.2549 11.7071 18.328L12.6296 18.7975C12.772 18.8697 12.7576 18.9224 12.5986 18.9151L10.5937 18.8274Z" fill="#556195"/>
<path d="M16.3973 17.3281C16.4499 17.389 16.3787 17.5015 16.2384 17.5768L15.4067 18.0205C15.2654 18.0958 15.2509 18.0742 15.3747 17.9731L16.0764 17.3993C16.2002 17.2982 16.3447 17.2662 16.3973 17.3281Z" fill="#556195"/>
<path d="M14.2956 13.6238C14.1471 13.6826 14.0583 13.6052 14.0986 13.4504L14.9808 10.0164C14.9861 9.95077 15.0313 9.89519 15.0945 9.87665C15.1576 9.85811 15.2257 9.88045 15.2656 9.93282L17.5357 12.0481C17.5946 12.0849 17.6251 12.1539 17.6125 12.2222C17.6 12.2905 17.5471 12.3442 17.4789 12.3577L14.2956 13.6238Z" fill="#404A72"/>
<path d="M17.7457 11.5384C17.7736 11.6952 17.7024 11.7354 17.5858 11.6261L15.4282 9.61394C15.3727 9.56433 15.3417 9.49296 15.3433 9.41857C15.3449 9.34418 15.3789 9.2742 15.4364 9.22699L16.8532 8.0063C16.9739 7.90312 17.0967 7.94542 17.1246 8.10227L17.7457 11.5384Z" fill="#556195"/>
<path d="M16.3632 16.3705C16.3512 16.4352 16.3003 16.4856 16.2356 16.4971C16.1709 16.5085 16.1058 16.4787 16.0722 16.4221L14.252 14.3079C14.1999 14.2602 14.1778 14.188 14.1944 14.1193C14.2109 14.0507 14.2634 13.9964 14.3315 13.9777L17.4931 12.7136C17.6407 12.6548 17.717 12.7281 17.6613 12.8777L16.3632 16.3705Z" fill="#556195"/>
<path d="M18.8948 10.4415C18.9808 10.59 18.9748 10.7745 18.8793 10.9172L18.3314 11.6508C18.2365 11.7788 18.1354 11.754 18.1065 11.5982L17.5627 8.59031C17.5348 8.43347 17.5823 8.41489 17.6659 8.548L18.8948 10.4415Z" fill="#556195"/>
<path d="M18.5611 14.3553C18.6071 14.5225 18.5603 14.7015 18.4383 14.8248L16.9452 16.1776C16.8266 16.2808 16.776 16.2498 16.8317 16.1012L17.9503 13.0954C18.005 12.9458 18.0916 12.9468 18.1422 13.0954L18.5611 14.3553Z" fill="#556195"/>
<path d="M18.7917 13.5794C18.7752 13.7383 18.7205 13.7434 18.67 13.5928L18.3429 12.6104C18.2955 12.4377 18.3252 12.2529 18.4244 12.1038L18.8536 11.5291C18.9486 11.4011 19.0136 11.4259 18.9971 11.5848L18.7917 13.5794Z" fill="#556195"/>
<path d="M16.9284 16.9815C16.8324 17.1105 16.7117 17.1641 16.658 17.1022C16.6044 17.0403 16.658 16.903 16.7767 16.7926L17.4484 16.1838C17.5661 16.0807 17.5857 16.0941 17.4908 16.222L16.9284 16.9815Z" fill="#556195"/>
<path d="M14.4871 9.02989C14.5333 9.0767 14.5456 9.14719 14.518 9.20687C14.4905 9.26654 14.4289 9.30291 14.3633 9.29817L10.8354 9.66242C10.6765 9.67893 10.6125 9.57987 10.693 9.44263L12.4214 6.48635C12.4468 6.42473 12.5059 6.38363 12.5725 6.38119C12.6391 6.37875 12.701 6.41541 12.7309 6.475L14.4871 9.02989Z" fill="#404A72"/>
<path d="M15.2154 8.96489C15.1602 9.01472 15.0859 9.03793 15.0121 9.0284C14.9383 9.01888 14.8724 8.97759 14.8316 8.91536L13.1517 6.4843C13.0619 6.35222 13.1115 6.28721 13.2621 6.33881L16.5641 7.46147C16.7147 7.51306 16.7395 7.63998 16.6187 7.7442L15.2154 8.96489Z" fill="#556195"/>
<path d="M13.7609 13.374C13.7216 13.5288 13.604 13.5557 13.4998 13.4349L10.7623 10.2568C10.6591 10.1361 10.7024 10.0236 10.8655 10.0071L14.445 9.63768C14.5125 9.62311 14.5825 9.64655 14.6277 9.69879C14.6728 9.75103 14.6859 9.82375 14.6617 9.88842L13.7609 13.374Z" fill="#556195"/>
<path d="M10.3453 9.35287C10.3164 9.4162 10.2558 9.45922 10.1866 9.46561C10.1173 9.47201 10.0499 9.4408 10.0099 9.38383L8.1897 7.27058C8.13797 7.22951 8.11751 7.16043 8.13854 7.09782C8.15956 7.03521 8.21756 6.99247 8.28359 6.99095L11.9261 6.22427C12.0829 6.19125 12.1448 6.2769 12.0643 6.41517L10.3453 9.35287Z" fill="#556195"/>
<path d="M13.2612 5.97251C13.1106 5.92092 13.1023 5.81774 13.2426 5.74138L14.0496 5.31006C14.2046 5.23644 14.388 5.25767 14.5222 5.36475L16.2123 6.85785C16.332 6.96104 16.3062 7.00747 16.1556 6.96104L13.2612 5.97251Z" fill="#556195"/>
<path d="M8.61914 6.56685C8.46333 6.59987 8.4365 6.54828 8.56033 6.44509L10.1195 5.16662C10.2597 5.06446 10.4437 5.0448 10.6024 5.11503L11.7828 5.71557C11.9252 5.7878 11.9139 5.87344 11.7581 5.90646L8.61914 6.56685Z" fill="#556195"/>
<path d="M12.8096 5.58246C12.6467 5.65951 12.4584 5.66177 12.2937 5.58866L11.365 5.11916C11.2309 5.04693 11.2443 4.9943 11.4042 5.00049L13.407 5.09336C13.5649 5.10368 13.5814 5.16869 13.4411 5.24401L12.8096 5.58246Z" fill="#556195"/>
<path d="M7.92467 6.51733C7.80085 6.62052 7.65639 6.65044 7.60377 6.58956C7.55114 6.52869 7.62234 6.41518 7.76267 6.34089L8.59435 5.89615C8.73468 5.82083 8.74913 5.8425 8.62634 5.94362L7.92467 6.51733Z" fill="#556195"/>
<path d="M6.85783 16.6172C6.91871 16.5635 7.05698 16.6172 7.16739 16.7348L7.77619 17.4065C7.87937 17.5252 7.86596 17.5438 7.73801 17.4488L6.98062 16.8865C6.84855 16.7916 6.79489 16.6698 6.85783 16.6172Z" fill="#556195"/>
<path d="M17.3692 7.56158C17.4311 7.50792 17.5436 7.58015 17.6179 7.72049L18.0626 8.55217C18.1369 8.69353 18.1163 8.70695 18.0152 8.58416L17.4414 7.88249C17.3403 7.75867 17.3083 7.61421 17.3692 7.56158Z" fill="#556195"/>
<path d="M17.0235 7.03019C17.1515 7.12512 17.2062 7.24688 17.1442 7.2995C17.0823 7.35213 16.9451 7.2995 16.8347 7.18187L16.2259 6.51013C16.1227 6.39147 16.1361 6.37289 16.2641 6.46782L17.0235 7.03019Z" fill="#556195"/>
<path d="M6.55921 16.0342C6.66239 16.158 6.69232 16.3025 6.6304 16.3551C6.56849 16.4077 6.45705 16.3365 6.38173 16.1962L5.93802 15.3645C5.8627 15.2231 5.88437 15.2097 5.98549 15.3325L6.55921 16.0342Z" fill="#556195"/>
</svg>
