<svg width="24" height="24" viewBox="0 0 24 24" fill="none" xmlns="http://www.w3.org/2000/svg">
<circle cx="12" cy="12" r="12" fill="#EDF0F4"/>
<path fill-rule="evenodd" clip-rule="evenodd" d="M12.0002 5C15.8662 5 19.0002 8.13401 19.0002 12C19.0002 12.3362 18.7276 12.6087 18.3915 12.6087C18.061 12.6087 17.792 12.3453 17.783 12.017L17.7828 12C17.7828 8.80635 15.1938 6.21739 12.0002 6.21739C11.664 6.21739 11.3915 5.94487 11.3915 5.6087C11.3915 5.27252 11.664 5 12.0002 5ZM7.73905 12C7.73905 9.64678 9.6467 7.73913 11.9999 7.73913C14.3531 7.73913 16.2608 9.64678 16.2608 12C16.2608 14.3532 14.3531 16.2609 11.9999 16.2609C9.6467 16.2609 7.73905 14.3532 7.73905 12ZM14.4349 12C14.4349 10.6553 13.3448 9.56521 12.0001 9.56521C10.6554 9.56521 9.5653 10.6553 9.5653 12C9.5653 13.3447 10.6554 14.4348 12.0001 14.4348C13.3448 14.4348 14.4349 13.3447 14.4349 12ZM6.21739 12C6.21739 11.6638 5.94487 11.3913 5.6087 11.3913C5.27252 11.3913 5 11.6638 5 12C5 15.866 8.134 19 12 19C12.3362 19 12.6087 18.7275 12.6087 18.3913C12.6087 18.0551 12.3362 17.7826 12 17.7826L11.9044 17.7818C8.75483 17.7308 6.21739 15.1617 6.21739 12ZM6.62077 9.9458C6.62077 10.3253 6.31315 10.6329 5.93369 10.6329C5.55424 10.6329 5.24662 10.3253 5.24662 9.9458C5.24662 9.56634 5.55424 9.25872 5.93369 9.25872C6.31315 9.25872 6.62077 9.56634 6.62077 9.9458ZM18.0652 14.7356C18.4446 14.7356 18.7523 14.428 18.7523 14.0486C18.7523 13.6691 18.4446 13.3615 18.0652 13.3615C17.6857 13.3615 17.3781 13.6691 17.3781 14.0486C17.3781 14.428 17.6857 14.7356 18.0652 14.7356Z" fill="url(#paint0_linear_300_11981)"/>
<defs>
<linearGradient id="paint0_linear_300_11981" x1="1.33663" y1="10.3127" x2="10.3487" y2="22.9581" gradientUnits="userSpaceOnUse">
<stop stop-color="#126AB2"/>
<stop offset="1" stop-color="#14B088"/>
</linearGradient>
</defs>
</svg>
