<svg width="24" height="24" viewBox="0 0 24 24" fill="none" xmlns="http://www.w3.org/2000/svg">
<circle cx="12" cy="12" r="12" fill="#EDF0F4"/>
<path d="M12.0391 3.75965C12.7056 3.68419 13.3093 3.37608 13.9569 3.20001C14.045 3.37608 14.1519 3.58987 14.3845 3.58987C14.6172 3.6276 14.7492 3.40123 14.8561 3.23145C15.4158 3.45154 15.9314 3.75965 16.5036 3.94829C16.7992 4.0489 17.1576 4.03004 17.384 4.28156C17.6543 4.5771 17.6606 5.00469 17.6166 5.37569C17.56 5.67123 17.3902 5.98563 17.0758 6.06109C16.774 6.13654 16.4722 6.18685 16.1892 6.31261C15.7302 6.49497 15.3089 6.77793 14.8247 6.90998C14.7618 6.79679 14.6927 6.6899 14.6235 6.57671C14.4789 6.57671 14.3217 6.56413 14.1896 6.63959C14.1016 6.71505 14.045 6.82195 13.9821 6.91627C13.2778 6.87854 12.649 6.46352 11.9385 6.4761C11.2028 6.48868 10.4734 6.66474 9.80682 6.97286C8.36056 7.54507 7.19098 8.72094 6.5433 10.1295C6.19117 10.9155 5.97109 11.7644 5.93965 12.6258C5.9145 14.1035 6.36095 15.6064 7.26643 16.7823C7.70031 17.4111 8.2851 17.9267 8.91391 18.3543C10.247 19.2912 11.9511 19.637 13.5608 19.4421C15.5227 19.2095 17.3588 18.0839 18.4592 16.4427C19.1949 15.4177 19.6036 14.1853 19.698 12.934C19.8111 11.9404 19.6414 10.9343 19.3333 9.99114C19.0943 9.2177 18.673 8.51344 18.1888 7.87205C17.9436 7.5325 17.6355 7.25582 17.3462 6.96028C17.9247 7.38158 18.4026 7.92236 18.8051 8.51344C19.5345 9.54468 19.9621 10.7709 20.1193 12.0222C20.157 12.8082 20.1821 13.6068 19.9998 14.3739C19.6917 15.9522 18.8617 17.4174 17.6921 18.5178C17.1199 19.1026 16.4156 19.5239 15.6987 19.9074C15.0071 20.247 14.2588 20.4922 13.4916 20.5865C11.9259 20.8506 10.2784 20.6431 8.83216 19.9766C8.53034 19.8257 8.24108 19.6496 7.94554 19.4924C6.78225 18.7693 5.78245 17.7632 5.10333 16.5748C4.49339 15.4303 4.04065 14.179 4.00292 12.8837C4.00921 12.2548 3.96519 11.626 4.08466 11.0035C4.40536 9.11081 5.34857 7.3187 6.78225 6.03594C7.55568 5.30652 8.48003 4.75946 9.46097 4.36331C10.2784 4.01117 11.1588 3.85397 12.0391 3.75965Z" fill="black"/>
<path d="M11.4733 9.89051C11.8443 9.84021 12.2278 9.84021 12.6051 9.89051C13.4037 10.0666 14.1017 10.6451 14.4161 11.4059C14.7871 12.1668 14.6802 13.0911 14.2526 13.808C13.8879 14.3488 13.3534 14.7889 12.712 14.9461C12.4353 14.9964 12.1524 15.097 11.8631 15.0467C11.4733 14.9839 11.0708 14.9021 10.7313 14.6883C9.89496 14.223 9.35419 13.2609 9.41707 12.2988C9.41707 11.7518 9.66859 11.2362 9.98928 10.8023C10.3414 10.3307 10.8948 10.0226 11.4733 9.89051Z" fill="black"/>
</svg>
