<svg width="24" height="24" viewBox="0 0 24 24" fill="none" xmlns="http://www.w3.org/2000/svg">
<circle cx="12" cy="12" r="12" fill="#EDF0F4"/>
<path d="M8.27765 6.36727C8.02246 6.79686 7.46728 6.93845 7.03769 6.68326C6.6081 6.42807 6.46651 5.87289 6.7217 5.4433C6.97689 5.01371 7.53207 4.87212 7.96166 5.12731C8.39125 5.3825 8.53284 5.93768 8.27765 6.36727Z" fill="#5F45BA"/>
<path d="M5.18868 5.96567C5.00869 6.26886 4.6159 6.36886 4.31271 6.18886C4.00952 6.00887 3.90952 5.61688 4.08952 5.31289C4.26951 5.0089 4.6623 4.90971 4.96549 5.0897C5.26948 5.27049 5.36948 5.66248 5.18868 5.96567Z" fill="#5F45BA"/>
<path d="M13.7868 19.0613C17.1019 18.6717 19.7682 15.9614 19.9858 12.5119C20.2306 8.63039 17.2818 5.2857 13.4004 5.04171C12.9452 5.01291 12.4884 5.02891 12.0364 5.08811C11.1037 5.16411 10.3157 5.52009 10.3157 5.52009C9.6773 5.83208 9.26531 6.35367 9.26531 7.05124C9.26531 7.95841 10.0005 8.69439 10.9077 8.69439C11.0597 8.69439 11.5844 8.528 11.7092 8.4848C12.186 8.3184 12.6916 8.24961 13.1956 8.2824C14.5363 8.3672 15.6699 9.13838 16.2771 10.2319C16.6291 10.8655 16.7915 11.5863 16.7451 12.3095C16.6131 14.4014 14.8107 15.991 12.718 15.859C11.482 15.7806 10.4221 15.119 9.7877 14.1598V14.1606V14.1598C9.02932 13.1678 9.20451 11.5815 9.20371 11.5615C9.17252 10.6791 8.45014 9.97355 7.56057 9.97355C6.80059 9.97355 6.16302 10.4895 5.97342 11.1895C5.93662 11.3271 5.91742 11.7303 5.92302 11.7839C5.76623 15.5982 8.68533 18.8565 12.514 19.0973C12.9388 19.1237 13.3644 19.1117 13.7868 19.0613Z" fill="#5F45BA"/>
<path d="M7.33512 8.87918C7.00393 9.43676 6.28396 9.61995 5.72717 9.28877C5.17039 8.95758 4.9864 8.2376 5.31759 7.68082C5.64878 7.12404 6.36875 6.94004 6.92554 7.27123C7.48232 7.60242 7.66551 8.3224 7.33512 8.87918Z" fill="#5F45BA"/>
</svg>
