<svg width="24" height="24" viewBox="0 0 24 24" fill="none" xmlns="http://www.w3.org/2000/svg">
<circle cx="12" cy="12" r="12" fill="#EDF0F4"/>
<ellipse cx="12.0588" cy="18.8234" rx="1.17647" ry="1.17647" fill="#2261F6"/>
<ellipse cx="12.0588" cy="5.17647" rx="1.17647" ry="1.17647" fill="#2261F6"/>
<circle cx="12.0589" cy="8.62752" r="0.941181" fill="#2261F6"/>
<ellipse cx="8.76491" cy="6.90193" rx="0.94118" ry="0.94118" fill="#2261F6"/>
<circle cx="8.76491" cy="17.1765" r="0.94118" fill="#2261F6"/>
<ellipse cx="14.9998" cy="10.3922" rx="0.94118" ry="0.941179" fill="#2261F6"/>
<ellipse cx="14.9998" cy="13.647" rx="0.94118" ry="0.941178" fill="#2261F6"/>
<ellipse cx="12.0589" cy="15.3726" rx="0.941181" ry="0.94118" fill="#2261F6"/>
<circle cx="12.0591" cy="11.9999" r="0.7451" fill="#2261F6"/>
<ellipse cx="8.76463" cy="13.6864" rx="0.7451" ry="0.745099" fill="#2261F6"/>
<ellipse cx="8.76463" cy="10.3922" rx="0.7451" ry="0.745099" fill="#2261F6"/>
<ellipse cx="5.54902" cy="8.62751" rx="0.549021" ry="0.549021" fill="#2261F6"/>
<ellipse cx="5.54902" cy="12" rx="0.549021" ry="0.549022" fill="#2261F6"/>
<ellipse cx="5.54902" cy="15.3724" rx="0.549021" ry="0.549022" fill="#2261F6"/>
<circle cx="14.9997" cy="6.902" r="1.17647" fill="#2261F6"/>
<circle cx="14.9997" cy="17.1374" r="1.17647" fill="#2261F6"/>
<ellipse cx="17.9411" cy="8.6274" rx="1.17647" ry="1.17647" fill="#2261F6"/>
<ellipse cx="17.9411" cy="15.3726" rx="1.17647" ry="1.17647" fill="#2261F6"/>
<ellipse cx="17.9411" cy="11.9999" rx="1.17647" ry="1.17647" fill="#2261F6"/>
</svg>
