<svg width="24" height="24" viewBox="0 0 24 24" fill="none" xmlns="http://www.w3.org/2000/svg">
<circle cx="12" cy="12" r="12" fill="#03E8B0"/>
<path fill-rule="evenodd" clip-rule="evenodd" d="M15.379 5.90027C15.7385 5.90027 16.03 5.60928 16.03 5.25031H16.0307C16.0307 4.89114 15.7391 4.59998 15.3794 4.59998C15.0196 4.59998 14.728 4.89114 14.728 5.25031C14.728 5.60928 15.0195 5.90027 15.379 5.90027ZM8.8861 5.30199C8.8861 5.66096 8.59464 5.95196 8.23512 5.95196C7.87559 5.95196 7.58413 5.66096 7.58413 5.30199C7.59604 4.95182 7.88381 4.67409 8.23474 4.67409C8.58567 4.67409 8.87344 4.95182 8.88535 5.30199H8.8861ZM12.4944 5.16182C12.2187 4.8765 11.8982 4.54481 11.4684 4.73139C11.0109 4.90736 10.9344 5.56855 11.3079 5.87332C11.7 6.21847 12.0721 6.58591 12.4443 6.95343C12.6429 7.14961 12.8416 7.34581 13.0434 7.53866C13.2638 7.75731 13.6156 7.87562 13.9036 7.71837C14.2778 7.55139 14.3896 7.00251 14.1143 6.70224C13.6343 6.19605 13.1273 5.71607 12.5949 5.26454C12.562 5.23172 12.5286 5.19713 12.4944 5.16182ZM17.687 6.62437C17.5962 6.23424 17.0713 6.09122 16.7435 6.26719V6.26794C16.2823 6.65589 15.8782 7.10296 15.4742 7.54991L15.4742 7.54992C15.2481 7.80001 15.0221 8.05006 14.7861 8.28971C14.4936 8.58474 14.5986 9.16581 14.9863 9.32605C15.2548 9.4496 15.59 9.3882 15.7798 9.15907C16.301 8.61544 16.8223 8.07256 17.3585 7.54465C17.603 7.31327 17.8257 6.97106 17.687 6.62437ZM6.26791 6.375C6.60915 6.16907 7.03139 6.30536 7.28413 6.58466C7.63532 6.93853 7.99337 7.28497 8.35104 7.63104L8.35104 7.63104L8.35105 7.63105L8.35105 7.63105L8.35105 7.63105L8.35106 7.63106L8.35106 7.63106L8.35106 7.63106L8.35107 7.63107L8.35107 7.63107L8.35108 7.63107L8.35108 7.63108L8.35108 7.63108L8.35109 7.63108L8.35109 7.63109L8.35109 7.63109L8.3511 7.6311L8.3511 7.6311L8.35114 7.63113C8.57242 7.84524 8.79356 8.05921 9.01284 8.27471C9.39308 8.62515 9.12759 9.36796 8.59735 9.37096C8.27166 9.42039 8.05817 9.19785 7.85029 8.98117C7.77478 8.90246 7.70001 8.82453 7.62087 8.76068C7.10039 8.33012 6.6234 7.85089 6.15091 7.36791C5.88392 7.0931 5.96342 6.5884 6.26866 6.375H6.26791ZM7.48262 10.7555C7.83961 10.2591 7.28087 9.53874 6.70864 9.75964L6.70939 9.75889C6.20493 10.1005 5.79872 10.5616 5.39258 11.0227C5.15505 11.2923 4.91755 11.562 4.66044 11.8076C4.27495 12.1648 4.54119 12.9009 5.07143 12.9211C5.43685 12.9651 5.67191 12.6949 5.89178 12.4421C5.94491 12.3811 5.99716 12.321 6.05015 12.2666C6.24074 12.0519 6.44661 11.8502 6.6524 11.6486L6.65241 11.6486C6.94385 11.3631 7.23513 11.0777 7.48262 10.7555ZM18.3157 11.3523C18.7094 11.0955 19.3034 11.3875 19.3162 11.8615C19.3583 12.1862 19.1339 12.3992 18.9147 12.6071C18.8337 12.6839 18.7535 12.7601 18.6877 12.8409C18.2587 13.3561 17.7877 13.8368 17.3017 14.2996C16.9462 14.6343 16.2833 14.3992 16.2195 13.914C16.1526 13.5115 16.4434 13.2319 16.7143 12.9713C16.7807 12.9075 16.8458 12.8448 16.9042 12.7818C17.128 12.5743 17.336 12.3502 17.5437 12.1263L17.5437 12.1263L17.5437 12.1263C17.7925 11.8581 18.041 11.5903 18.3157 11.3523ZM9.17291 15.3816C9.16391 14.9181 8.58417 14.647 8.20168 14.8754C7.88689 15.1498 7.59945 15.453 7.31178 15.7565C7.08201 15.999 6.85209 16.2415 6.60797 16.4696L6.59677 16.4805C6.31481 16.7537 5.95448 17.1029 6.10399 17.5352C6.19248 17.9882 6.85997 18.1402 7.17271 17.8242C7.6542 17.3562 8.13119 16.8822 8.55867 16.3655C8.62293 16.2863 8.70134 16.2114 8.78053 16.1357C8.99987 15.926 9.22526 15.7106 9.17291 15.3816ZM14.9985 14.8582C15.21 14.7856 15.4785 14.7796 15.657 14.9323C15.8822 15.146 16.1123 15.3544 16.3425 15.5629C16.7891 15.9674 17.2359 16.3721 17.6467 16.8148C17.8387 17.0095 17.8559 17.3352 17.7284 17.5689C17.5484 17.9889 16.932 17.9994 16.6327 17.7022C16.3447 17.431 16.0621 17.1532 15.7794 16.8753L15.7793 16.8752L15.7793 16.8752L15.7793 16.8752L15.7793 16.8751L15.7792 16.8751L15.7792 16.8751L15.7792 16.8751L15.7792 16.875L15.7791 16.875L15.7791 16.875L15.7791 16.875L15.7791 16.8749L15.779 16.8749L15.779 16.8749C15.4686 16.5697 15.1581 16.2645 14.8403 15.9679C14.4728 15.6834 14.559 15.0229 14.9977 14.8582H14.9985ZM10.8102 16.695C10.5837 16.4554 10.2132 16.2944 9.89825 16.4644C9.52026 16.6291 9.40626 17.1847 9.68675 17.4828C10.147 17.9724 10.6353 18.4349 11.1492 18.8681C11.2305 18.9339 11.3069 19.0146 11.3839 19.0961C11.589 19.3129 11.7992 19.5352 12.1219 19.4971C12.6717 19.4911 12.9357 18.74 12.5457 18.3701C11.9563 17.8231 11.3777 17.2646 10.8102 16.695ZM10.1316 7.6798C10.4909 7.6798 10.7822 7.38898 10.7822 7.03022C10.7822 6.67146 10.4909 6.38063 10.1316 6.38063C9.77227 6.38063 9.48098 6.67146 9.48098 7.03022C9.48098 7.38898 9.77227 7.6798 10.1316 7.6798ZM5.7015 8.61768C5.70957 8.85502 5.58736 9.07786 5.38274 9.19891C5.17812 9.31997 4.92366 9.31997 4.71904 9.19891C4.51442 9.07786 4.39221 8.85502 4.40028 8.61768C4.41219 8.26751 4.69996 7.98978 5.05089 7.98978C5.40182 7.98978 5.68959 8.26751 5.7015 8.61768ZM19.3998 8.45517C19.3998 8.81393 19.1086 9.10476 18.7492 9.10476C18.3899 9.10476 18.0986 8.81393 18.0986 8.45517C18.0986 8.09642 18.3899 7.80559 18.7492 7.80559C19.1086 7.80559 19.3998 8.09642 19.3998 8.45517ZM16.9712 10.9708C17.3306 10.9708 17.6218 10.6799 17.6218 10.3212C17.6218 9.96243 17.3306 9.6716 16.9712 9.6716C16.6119 9.6716 16.3206 9.96243 16.3206 10.3212C16.3206 10.6799 16.6119 10.9708 16.9712 10.9708ZM19.3968 15.5673C19.3968 15.9261 19.1055 16.2169 18.7462 16.2169C18.3869 16.2169 18.0956 15.9261 18.0956 15.5673C18.0956 15.2086 18.3869 14.9177 18.7462 14.9177C19.1055 14.9177 19.3968 15.2086 19.3968 15.5673ZM14.0036 17.7331C14.2082 17.612 14.3304 17.3892 14.3223 17.1518C14.3104 16.8017 14.0227 16.5239 13.6717 16.5239C13.3208 16.5239 13.033 16.8017 13.0211 17.1518C13.0131 17.3892 13.1353 17.612 13.3399 17.7331C13.5445 17.8541 13.799 17.8541 14.0036 17.7331ZM16.1948 18.928C16.2028 19.1653 16.0806 19.3882 15.876 19.5092C15.6714 19.6303 15.4169 19.6303 15.2123 19.5092C15.0077 19.3882 14.8855 19.1653 14.8935 18.928C14.9054 18.5778 15.1932 18.3001 15.5441 18.3001C15.8951 18.3001 16.1828 18.5778 16.1948 18.928ZM8.41851 19.5779C8.77804 19.5779 9.06949 19.2869 9.06949 18.928H9.06874C9.05683 18.5778 8.76906 18.3001 8.41813 18.3001C8.0672 18.3001 7.77943 18.5778 7.76752 18.928C7.76752 19.2869 8.05898 19.5779 8.41851 19.5779ZM7.48215 13.8406C7.49022 14.078 7.36801 14.3008 7.16339 14.4219C6.95877 14.5429 6.70431 14.5429 6.49969 14.4219C6.29507 14.3008 6.17286 14.078 6.18093 13.8406C6.19284 13.4904 6.48061 13.2127 6.83154 13.2127C7.18247 13.2127 7.47024 13.4904 7.48215 13.8406ZM5.38274 16.3095C5.58736 16.1885 5.70957 15.9656 5.7015 15.7283C5.68959 15.3781 5.40182 15.1004 5.05089 15.1004C4.69996 15.1004 4.41219 15.3781 4.40028 15.7283C4.39221 15.9656 4.51442 16.1885 4.71904 16.3095C4.92366 16.4306 5.17812 16.4306 5.38274 16.3095Z" fill="white"/>
</svg>
