<svg width="24" height="24" viewBox="0 0 24 24" fill="none" xmlns="http://www.w3.org/2000/svg">
<circle cx="12" cy="12" r="12" fill="#EDF0F4"/>
<path fill-rule="evenodd" clip-rule="evenodd" d="M12 21C16.9706 21 21 16.9706 21 12C21 9.61305 20.0518 7.32387 18.364 5.63604C16.6761 3.94821 14.3869 3 12 3C7.02944 3 3 7.02944 3 12C3 16.9706 7.02944 21 12 21ZM15.7969 6.72655L15.6654 7.35936H16.5C17.432 7.35936 18.1875 8.11488 18.1875 9.04686V11.5781C18.1875 12.5101 17.432 13.2656 16.5 13.2656H14.4103L14.276 13.8984C14.2381 14.0579 14.0988 14.1728 13.935 14.1797H13.5131C13.4423 14.1826 13.3743 14.1514 13.3305 14.0957C13.2866 14.04 13.2722 13.9666 13.2916 13.8984L13.4259 13.2656H12.4416L12.3073 13.8984C12.2693 14.0579 12.13 14.1728 11.9662 14.1797H11.5444C11.4735 14.1826 11.4056 14.1514 11.3617 14.0957C11.3179 14.04 11.3034 13.9666 11.3229 13.8984L11.4572 13.2656H10.4025L9.47578 17.625H7.22578L8.86969 9.89061H11.1197L10.7611 11.5781H15.0938C15.5597 11.5781 15.9375 11.2004 15.9375 10.7344V9.89061C15.9375 9.42462 15.5597 9.04686 15.0938 9.04686H5.8125L7.21875 7.35936H12.7095L12.8438 6.72655C12.8817 6.56706 13.021 6.45218 13.1848 6.4453H13.6066C13.6775 6.44235 13.7454 6.47359 13.7893 6.5293C13.8332 6.585 13.8476 6.65838 13.8281 6.72655L13.6938 7.35936H14.6782L14.8125 6.72655C14.8504 6.56706 14.9897 6.45218 15.1535 6.4453H15.5754C15.6462 6.44235 15.7142 6.47359 15.758 6.5293C15.8019 6.585 15.8164 6.65838 15.7969 6.72655Z" fill="#F7931E"/>
</svg>
