<svg width="24" height="24" viewBox="0 0 24 24" fill="none" xmlns="http://www.w3.org/2000/svg">
<circle cx="12" cy="12" r="12" fill="#EDF0F4"/>
<path d="M7.63623 17.6042C7.92714 17.9422 8.43623 18.447 9.20201 18.8534C10.0918 19.324 10.9132 19.4352 11.3838 19.4652C11.6619 19.4523 12.1154 19.401 12.6245 19.1743C13.1336 18.9475 13.4758 18.6481 13.6726 18.447C13.8865 18.2545 14.1988 17.9807 14.5838 17.6556C15.4352 16.9283 15.8715 16.5604 16.3721 16.2224C16.6287 16.047 16.9753 15.8331 17.4031 15.6106C17.6298 15.4951 17.8608 15.3925 18.0961 15.2983C18.4127 15.17 18.9432 14.8919 19.3796 14.3272C19.9058 13.6384 19.9828 12.924 19.9999 12.6588C19.9785 12.3208 19.9143 11.863 19.7304 11.354C19.5849 10.9475 19.4095 10.6181 19.2469 10.37C18.6181 11.4951 17.2533 13.57 14.7336 15.247C11.8116 17.1935 8.94104 17.5315 7.63623 17.6042Z" fill="#0293D6"/>
<path d="M9.27441 5.45876C9.44126 5.28764 9.65516 5.0994 9.93324 4.92828C10.652 4.48336 11.3707 4.41491 11.7557 4.40636C11.9354 4.39352 12.1878 4.39352 12.483 4.47053C12.9151 4.58176 13.2102 4.79994 13.3728 4.93256C13.7536 5.1978 14.2498 5.49299 14.8701 5.74112C15.7429 6.09192 16.5258 6.2117 17.0947 6.25448C17.2102 6.25876 17.3771 6.26732 17.5739 6.30154C17.9247 6.36571 18.7076 6.50261 19.2124 7.14005C19.606 7.6363 19.6487 8.20956 19.653 8.47908C19.6402 8.75716 19.6017 9.08229 19.5247 9.44165C19.4477 9.80101 19.3493 10.1133 19.2466 10.3743C15.9225 8.73577 12.5985 7.09727 9.27441 5.45876H9.27441Z" fill="#EBE638"/>
<path d="M7.63636 17.6042C7.26845 17.5572 6.74225 17.4545 6.15615 17.2021C5.55294 16.9411 4.79144 16.616 4.34225 15.8245C4.05561 15.3197 4 14.8106 4 14.4684C4.00428 14.1518 4.02995 13.7753 4.11551 13.3561C4.23957 12.7272 4.4492 12.2138 4.63743 11.8374C4.79572 11.4609 4.94973 11.0331 5.08663 10.5668C5.28342 9.89512 5.39893 9.27908 5.47166 8.73577C5.52299 8.37213 5.59144 8.07694 5.65134 7.86732C5.7754 7.41812 5.89091 7.0117 6.19465 6.59245C6.36578 6.35288 6.54545 6.18176 6.66524 6.07908C6.95187 5.89512 7.41818 5.64272 8.04706 5.51438C8.54759 5.4117 8.97968 5.42454 9.27914 5.45876C8.59893 6.42561 7.39679 8.40635 6.99037 11.2128C6.56257 14.1475 7.23422 16.4834 7.63636 17.6042Z" fill="#BAD147"/>
<path d="M9.27479 5.45873C9.20634 5.45446 11.5721 5.60847 13.0224 6.11328C13.4545 6.26301 13.8481 6.43414 14.2074 6.60954C13.7411 6.57959 10.7636 6.44697 8.48763 8.73574C5.63415 11.6063 6.56249 15.6063 6.61383 15.8288C6.33576 15.4737 5.9165 14.832 5.74966 13.9336C5.67265 13.5272 5.66838 13.1678 5.68549 12.8726C5.71543 12.0598 5.85661 10.9732 6.29297 9.76676C7.10153 7.54644 8.48763 6.14323 9.27479 5.45873Z" fill="#78B650"/>
<path d="M14.9905 16.0427C15.3798 15.3454 16.1199 13.7839 16.0686 11.6962C16.0002 9.03098 14.6868 7.20852 14.2119 6.60959C14.4814 6.65237 14.8707 6.73793 15.3199 6.90478C16.3039 7.27697 16.9285 7.82456 17.4932 8.32937C17.9766 8.76146 18.6269 9.42456 19.2472 10.3743C18.9606 11.1272 18.5328 12.0342 17.8868 12.9839C16.9114 14.4256 15.8162 15.4139 14.9905 16.0427Z" fill="#2F8260"/>
<path fill-rule="evenodd" clip-rule="evenodd" d="M14.2799 6.60958C14.6992 6.81493 15.6617 7.35825 16.3762 8.49194C17.1591 9.73686 17.1762 10.9561 17.1591 11.4139C17.0607 14.1903 15.1612 15.9529 14.9815 16.1069C13.6951 17.2102 12.2347 17.4906 11.5845 17.6155L11.5762 17.6171C11.0115 17.724 10.5323 17.754 10.1858 17.7583C9.77083 17.7839 9.29596 17.7882 8.77404 17.7454C8.38473 17.7155 8.02965 17.6641 7.70452 17.6042C7.39222 17.2064 7.02858 16.6545 6.7334 15.9486C6.26709 14.832 6.18152 13.8224 6.17725 13.1807C6.19008 12.6845 6.29703 10.2588 8.26067 8.37643C10.712 6.02777 13.9377 6.54969 14.2799 6.60958ZM11.6788 16.0941C11.9398 16.0941 13.6467 16.0812 14.836 14.6952C15.7827 13.5957 15.7942 12.3235 15.7985 11.8483L15.7986 11.8374L15.7985 11.8364C15.794 11.665 15.7264 9.08882 13.7579 8.01708C12.8467 7.52082 11.944 7.57216 11.6831 7.58927C10.6307 7.662 9.91194 8.14114 9.6082 8.34649C9.24884 8.59462 7.62745 9.77536 7.56756 11.8417C7.5205 13.3775 8.36756 14.4256 8.52157 14.6096C9.71943 16.047 11.4349 16.0898 11.6788 16.0941Z" fill="#085229"/>
</svg>
