<svg width="24" height="24" viewBox="0 0 24 24" fill="none" xmlns="http://www.w3.org/2000/svg">
<circle cx="12" cy="12" r="12" fill="#E7EFF3"/>
<path d="M8.80837 6.96555C9.08237 6.65355 9.33437 6.38955 9.57437 6.16555C5.52237 6.03555 6.70237 8.96555 5.37437 11.9395C3.85437 15.3675 5.55437 16.6735 8.08637 17.0815C7.73278 16.6602 7.44425 16.1883 7.23037 15.6815C5.59637 13.6155 6.25837 9.84955 8.80837 6.96555Z" fill="#EFE812"/>
<path d="M18.5582 10.6176C18.0797 11.8694 17.3874 13.0286 16.5122 14.0436C15.8106 14.8962 14.9701 15.6245 14.0262 16.1976C12.93 16.8922 11.6559 17.2541 10.3582 17.2396C9.6006 17.2464 8.84359 17.1935 8.09424 17.0816C8.51029 17.5785 9.02609 17.9826 9.60824 18.2676C13.2722 20.0396 13.5022 16.7496 17.3782 15.0796C19.5542 14.1416 19.5622 12.3096 18.5562 10.6176" fill="#EDE70A"/>
<path d="M14.0262 7.19754C14.5566 7.29038 15.0677 7.47156 15.5382 7.73354C16.7707 8.42652 17.8092 9.41825 18.5582 10.6175C19.2182 8.75754 18.9102 7.29754 17.4682 7.03354C15.8802 6.74354 14.6402 6.64954 13.4482 5.81754C11.9802 4.79754 10.6922 5.12954 9.57617 6.16754L9.81817 6.17754C11.3662 6.26954 12.8462 6.57754 14.0182 7.19354" fill="#EDE70A"/>
<path d="M8.80827 6.96556C6.25827 9.84956 5.59627 13.6156 7.23827 15.6816C6.46814 13.8632 6.5993 11.7884 7.59227 10.0816C8.97427 7.77756 11.7483 6.77756 14.0263 7.19756C12.8463 6.57356 11.3663 6.27356 9.82627 6.18156L9.58427 6.16956C9.33627 6.39756 9.08427 6.65356 8.80827 6.96556Z" fill="#DEC21C"/>
<path d="M15.5384 7.72951C15.0676 7.46893 14.5566 7.2891 14.0264 7.19751C15.5784 8.01351 16.6084 9.39751 16.6084 11.5855C16.5901 13.4625 15.6169 15.2008 14.0264 16.1975C14.9707 15.625 15.8113 14.8967 16.5124 14.0435C17.3876 13.0286 18.0799 11.8694 18.5584 10.6175C17.8099 9.41676 16.7713 8.42361 15.5384 7.72951Z" fill="#E5CB22"/>
<path fill-rule="evenodd" clip-rule="evenodd" d="M7.59259 10.0715C8.97459 7.77752 11.7486 6.77752 14.0266 7.19752C15.5786 8.01352 16.6086 9.39752 16.6086 11.5855C16.5907 13.4626 15.6174 15.2011 14.0266 16.1975C12.9304 16.8922 11.6563 17.2541 10.3586 17.2395C9.60095 17.2463 8.84394 17.1935 8.09459 17.0815C7.74031 16.6607 7.45171 16.1887 7.23859 15.6815C6.46414 13.8605 6.59538 11.7807 7.59259 10.0715ZM8.54672 14.0335C9.68213 15.7818 12.0168 16.2841 13.7707 15.1575C15.5247 14.0355 15.7627 11.8495 14.8967 9.95753C14.0087 8.01553 11.5727 7.48353 9.67272 8.83353C7.97472 10.0335 7.41472 12.2875 8.54672 14.0335Z" fill="#CCA727"/>
</svg>
