<svg width="24" height="24" viewBox="0 0 24 24" fill="none" xmlns="http://www.w3.org/2000/svg">
<circle cx="12" cy="12" r="12" fill="#302C2C"/>
<path fill-rule="evenodd" clip-rule="evenodd" d="M20.1319 11.8698C20.0905 11.7857 20.0357 11.709 19.9697 11.6427C18.5346 10.0118 15.6139 6.79999 15.6139 6.79999L11.9039 10.8719L8.14647 6.8386C8.14647 6.8386 5.19179 10.0784 3.74388 11.7267C3.55525 11.913 3.55525 12.2491 3.72426 12.4475C4.47651 13.3076 8.17137 17.3962 8.17137 17.3962L11.8987 13.297L15.6003 17.4L20.0648 12.4437C20.0648 12.4437 20.1591 12.3453 20.1795 12.2794C20.2232 12.1431 20.1915 11.9947 20.1319 11.8698ZM5.80209 12.3233C5.68137 12.1802 5.72211 11.9554 5.83454 11.8198C6.30686 11.28 8.19692 9.24556 8.19692 9.24556L10.8302 12.0508L8.19239 14.9461C8.19239 14.9461 6.57773 13.2168 5.80209 12.3233ZM17.6721 12.6875C17.745 12.6044 17.8097 12.5144 17.8653 12.4188L17.8645 12.418C17.9468 12.2507 17.9868 12.0493 17.9241 11.8683C17.9003 11.7934 17.8506 11.7339 17.8017 11.6754C17.7903 11.6617 17.7789 11.6481 17.7679 11.6344C17.0821 10.7977 15.5851 9.24179 15.5851 9.24179L12.9866 12.1L15.6274 14.9173L17.6721 12.6875Z" fill="white"/>
</svg>
