<svg width="24" height="24" viewBox="0 0 24 24" fill="none" xmlns="http://www.w3.org/2000/svg">
<circle cx="12" cy="12" r="12" fill="#663300"/>
<path d="M8.85205 7.50624L9.78652 5.19995L16.1873 5.22329C17.1218 5.29407 18.2431 5.29407 18.8741 6.09446C19.6217 6.96487 19.458 8.21176 19.0842 9.19963C18.3515 11.3616 16.555 12.984 14.3415 13.4824C12.8 13.7181 11.2346 13.6473 9.66915 13.6473C9.9809 12.8816 10.2926 12.1128 10.6036 11.341C11.8887 11.341 13.197 11.4118 14.5052 11.2002C15.6969 10.8945 16.7951 9.69432 16.6082 8.37666C16.4908 7.81194 15.8606 7.55293 15.3223 7.55293C13.1738 7.45881 11.0238 7.55293 8.87523 7.50549H8.85205L8.85205 7.50624Z" fill="white"/>
<path fill-rule="evenodd" clip-rule="evenodd" d="M13.6879 8.14099H6.09549V8.14174V8.16433L5.06682 10.753H12.6839L13.6879 8.14099ZM9.94977 11.3411H7.33325L4.6001 18.4H7.1942L9.94977 11.3411Z" fill="white"/>
</svg>
