<svg width="24" height="24" viewBox="0 0 24 24" fill="none" xmlns="http://www.w3.org/2000/svg">
<path d="M3.51812 3.51812C-1.17271 8.20895 -1.17271 15.8031 3.51812 20.4819L20.4819 3.51812C15.8031 -1.17271 8.19695 -1.17271 3.51812 3.51812Z" fill="#FF6666"/>
<path d="M20.4818 20.4819C15.803 15.7911 8.1969 15.7911 3.51807 20.4819L20.4818 3.51813C25.1727 8.19696 25.1727 15.8031 20.4818 20.4819Z" fill="#DA5F5A"/>
<ellipse cx="12.0001" cy="12" rx="7.66609" ry="7.69008" fill="#FFF4C7"/>
<path d="M20.4818 20.4819C15.803 25.1727 8.1969 25.1727 3.51807 20.4819C8.1969 15.8031 15.803 15.8031 20.4818 20.4819Z" fill="#FFF4C7"/>
<circle cx="12.0001" cy="12" r="6.55036" fill="#F7931A"/>
<path fill-rule="evenodd" clip-rule="evenodd" d="M13.6799 9.52861C14.5797 9.84053 15.2515 10.3084 15.1196 11.1842C15.0236 11.82 14.6757 12.132 14.2198 12.2279C14.8676 12.5639 15.1916 13.0797 14.8796 13.9675C14.4837 15.0832 13.56 15.1672 12.3363 14.9393L12.0363 16.127L11.3165 15.947L11.6165 14.7713C11.4885 14.7473 11.3605 14.7126 11.2325 14.678C11.1686 14.6607 11.1046 14.6433 11.0406 14.6273L10.7407 15.815L10.0209 15.6351L10.3208 14.4354C10.2251 14.408 10.1294 14.3846 10.0314 14.3606C9.95752 14.3425 9.88232 14.3241 9.80491 14.3034L8.86914 14.0755L9.22905 13.2477C9.22905 13.2477 9.76892 13.3916 9.75692 13.3796C9.94887 13.4276 10.0448 13.2957 10.0808 13.2117L10.5487 11.3282L10.8846 9.9845C10.8966 9.82854 10.8366 9.63658 10.5487 9.5646C10.5607 9.5526 10.0209 9.43263 10.0209 9.43263L10.2128 8.66483L11.2086 8.91676C11.3525 8.95275 11.5085 8.98874 11.6644 9.02473L11.6644 9.02474L11.9644 7.84903L12.6842 8.02898L12.3963 9.19269C12.5882 9.22868 12.7802 9.27667 12.9721 9.32466L12.9721 9.32466L13.26 8.17295L13.9799 8.3529L13.6799 9.52861ZM13.704 11.1722C13.5201 11.9078 12.4876 11.6387 11.9873 11.5083C11.9328 11.4941 11.8846 11.4816 11.8445 11.4721L12.2044 10.0325C12.2517 10.0454 12.312 10.0593 12.3812 10.0753C12.8912 10.1931 13.8836 10.4222 13.704 11.1722ZM13.4761 13.4876C13.2677 14.2993 11.9962 13.9677 11.4038 13.8132C11.3483 13.7987 11.2988 13.7858 11.2566 13.7755L11.6525 12.1919C11.7094 12.2072 11.7808 12.2239 11.8621 12.243C12.4837 12.3886 13.6883 12.6707 13.4761 13.4876Z" fill="white"/>
</svg>
