<svg width="24" height="24" viewBox="0 0 24 24" fill="none" xmlns="http://www.w3.org/2000/svg">
<path fill-rule="evenodd" clip-rule="evenodd" d="M12 24C5.4 24 0 18.6001 0 11.9402C0.06 5.34038 5.4 -0.0595036 12.06 0.000495204C18.66 0.060494 24 5.40038 24 12.1202C23.94 18.6601 18.6 24 12 24Z" fill="#EDF0F4"/>
<path d="M11.9914 11.25C11.819 11.3017 11.6466 11.4052 11.5086 11.5259C11.3879 11.6466 11.3017 11.819 11.25 11.9914C11.3017 12.1638 11.4052 12.3362 11.5259 12.4741C11.6638 12.5948 11.819 12.6983 11.9914 12.75C12.1638 12.6983 12.3362 12.5948 12.4741 12.4741C12.5948 12.3534 12.6983 12.181 12.75 12.0086C12.6983 11.8362 12.5948 11.6638 12.4741 11.5259C12.3362 11.3879 12.181 11.3017 11.9914 11.25Z" fill="#172026"/>
<path fill-rule="evenodd" clip-rule="evenodd" d="M3 12C3 7.032 7.032 3 12 3C16.968 3 21 7.032 21 12C21 16.968 16.968 21 12 21C7.032 21 3 16.968 3 12ZM15.762 15.744C16.086 15.42 16.284 15.006 16.32 14.538C16.356 14.088 16.194 13.638 15.87 13.314L14.556 12L15.366 11.244L14.79 10.668L14.016 11.442L13.386 10.812L13.296 10.722C13.278 10.704 13.2645 10.686 13.251 10.668C13.2375 10.65 13.224 10.632 13.206 10.614L12.576 9.98401L13.89 8.67001C14.052 8.52601 14.268 8.45401 14.484 8.47201C15.06 8.52601 15.51 8.99401 15.528 9.57001C15.546 9.76801 15.456 9.94801 15.33 10.092L15.042 10.38L15.618 10.956L15.906 10.65C16.554 10.02 16.482 8.92201 15.78 8.22001C15.456 7.89601 15.042 7.69801 14.574 7.66201C14.106 7.60801 13.674 7.77001 13.35 8.09401L12.036 9.40801L11.262 8.63401L10.686 9.21001L11.46 9.98401L10.83 10.614L10.74 10.704C10.722 10.722 10.704 10.7355 10.686 10.749C10.668 10.7625 10.65 10.776 10.632 10.794L10.002 11.424L8.68797 10.11C8.54397 9.94801 8.47197 9.73201 8.48997 9.51601C8.54397 8.94001 9.01197 8.49001 9.58797 8.47201C9.78597 8.45401 9.96597 8.54401 10.11 8.67001L10.398 8.95801L10.974 8.38201L10.686 8.09401C10.056 7.44601 8.95797 7.51801 8.25597 8.22001C7.93197 8.54401 7.73397 8.95801 7.69797 9.42601C7.64397 9.89401 7.80597 10.326 8.12997 10.65L9.44397 11.964L8.66997 12.738L9.24597 13.314L10.02 12.54L10.65 13.17L10.74 13.26C10.758 13.278 10.7715 13.296 10.785 13.314C10.7985 13.332 10.812 13.35 10.83 13.368L11.46 13.998L10.146 15.312C9.98397 15.456 9.76797 15.528 9.55197 15.51C8.97597 15.456 8.52597 14.988 8.50797 14.412C8.48997 14.214 8.57997 14.034 8.70597 13.89L8.99397 13.602L8.41797 13.026L8.12997 13.314C7.48197 13.944 7.55397 15.042 8.25597 15.744C8.57997 16.068 8.99397 16.266 9.46197 16.302C9.92997 16.356 10.362 16.194 10.686 15.87L12 14.556L12.738 15.33L13.314 14.754L12.54 13.98L13.17 13.35L13.26 13.26C13.278 13.242 13.296 13.2285 13.314 13.215C13.332 13.2015 13.35 13.188 13.368 13.17L13.998 12.54L15.312 13.854C15.456 14.016 15.528 14.232 15.51 14.448C15.456 15.024 14.988 15.474 14.412 15.492C14.214 15.51 14.034 15.42 13.89 15.294L13.602 15.006L13.026 15.582L13.332 15.87C13.962 16.518 15.06 16.446 15.762 15.744Z" fill="#172026"/>
</svg>
