<svg width="24" height="24" viewBox="0 0 24 24" fill="none" xmlns="http://www.w3.org/2000/svg">
<circle cx="12" cy="12" r="12" fill="#EDF0F4"/>
<path d="M12 10.9453C11.4188 10.9453 10.9453 11.4188 10.9453 12C10.9453 12.1945 11.1023 12.3516 11.2969 12.3516C11.4914 12.3516 11.6484 12.1945 11.6484 12C11.6484 11.8055 11.8055 11.6484 12 11.6484C12.1945 11.6484 12.3516 11.4914 12.3516 11.2969C12.3516 11.1023 12.1945 10.9453 12 10.9453Z" fill="black"/>
<path fill-rule="evenodd" clip-rule="evenodd" d="M17.1516 12.6234C17.6742 12.232 18 11.6156 18 10.9453C18 10.0406 17.4094 9.24375 16.5586 8.95312C16.4414 7.69219 15.3867 6.70312 14.1094 6.70312C13.9898 6.70312 13.868 6.7125 13.7414 6.73594C13.2773 6.26484 12.6539 6 12 6C11.3461 6 10.7227 6.26484 10.2586 6.73594C10.1297 6.71484 10.0078 6.70312 9.89062 6.70312C8.60156 6.70312 7.53516 7.70859 7.41797 8.95312C6.58125 9.24375 6 10.0406 6 10.9453C6 11.6203 6.32344 12.2391 6.83906 12.6281C6.28125 12.9516 6 13.3313 6 13.7578V13.7883C6.02344 16.1133 8.70469 18 12 18C15.2953 18 17.9766 16.1133 18 13.7859V13.7555C18 13.3289 17.7141 12.9469 17.1516 12.6234ZM17.297 10.9453C17.297 11.5336 16.9126 12.0633 16.3525 12.2672C15.8205 12.0797 15.1759 11.9273 14.4564 11.8219C14.4376 11.5617 14.3767 11.3133 14.283 11.0812L16.2611 9.59766C16.8681 9.76875 17.297 10.3195 17.297 10.9453ZM14.1091 7.40625C13.9966 7.40625 13.8771 7.42031 13.7458 7.44844L12.9654 9.73828C13.3427 9.9 13.6708 10.1531 13.924 10.4695L15.8575 9.01875C15.7732 8.11406 15.0232 7.40625 14.1091 7.40625ZM13.7578 12C13.7578 12.9703 12.9703 13.7578 12 13.7578C11.0297 13.7578 10.2422 12.9703 10.2422 12C10.2422 11.0297 11.0297 10.2422 12 10.2422C12.9703 10.2422 13.7578 11.0297 13.7578 12ZM13.1182 7.11563C12.8042 6.85078 12.4104 6.70312 12.0003 6.70312C11.5901 6.70312 11.1964 6.85078 10.8823 7.11563L11.7167 9.55547C11.8104 9.54375 11.9042 9.53906 12.0003 9.53906C12.0964 9.53906 12.1901 9.54375 12.2839 9.55547L13.1182 7.11563ZM9.89076 7.40625C10.0033 7.40625 10.1204 7.42031 10.254 7.44844L11.0345 9.73594C10.6572 9.89766 10.3267 10.1508 10.0736 10.4695L8.11888 9.01641C8.20795 8.12813 8.98373 7.40625 9.89076 7.40625ZM7.71797 9.59529C7.12266 9.76639 6.70312 10.3172 6.70312 10.9453C6.70312 11.5406 7.08281 12.0726 7.63828 12.2719C8.17266 12.082 8.81953 11.9297 9.54609 11.8219C9.56484 11.5617 9.62344 11.3133 9.71719 11.0812L7.71797 9.59529ZM11.9999 17.2969C9.73815 17.2969 7.80221 16.3242 7.04518 15C8.37643 15.6656 10.4905 15.8672 11.9999 15.8672C13.5092 15.8672 15.6233 15.6633 16.9546 15C16.1788 16.357 14.2147 17.2969 11.9999 17.2969ZM6.70312 13.7578C6.70312 14.3015 8.71406 15.164 12 15.164C15.3141 15.164 17.2969 14.2945 17.2969 13.7554C17.2969 13.4086 16.3734 12.8226 14.4047 12.5226C14.3789 12.6445 14.3438 12.7617 14.2992 12.8765C14.7656 13.1812 15.0609 13.507 15.075 13.5234C15.2039 13.6687 15.1922 13.8914 15.0469 14.0203C14.9016 14.1492 14.6789 14.1375 14.55 13.9921C14.5499 13.9921 14.5496 13.9917 14.549 13.9911C14.5323 13.9732 14.3038 13.7287 13.9547 13.4929C13.5047 14.0812 12.7969 14.4609 12 14.4609C11.2031 14.4609 10.4953 14.0812 10.0453 13.4929C9.69444 13.7284 9.4682 13.9725 9.45103 13.991C9.45043 13.9917 9.45008 13.9921 9.45 13.9921C9.32109 14.1375 9.09844 14.1515 8.95312 14.0203C8.80781 13.889 8.79609 13.6687 8.925 13.5234C8.93906 13.507 9.23438 13.1789 9.70078 12.8765C9.65625 12.7617 9.62109 12.6445 9.59531 12.5226C8.75391 12.6515 8.01797 12.8461 7.49297 13.0828C6.91172 13.3476 6.70312 13.6054 6.70312 13.7578Z" fill="black"/>
<path d="M17.2968 10.9453C17.2968 11.5336 16.9124 12.0633 16.3522 12.2672C15.8202 12.0797 15.1757 11.9273 14.4562 11.8219C14.4374 11.5617 14.3765 11.3133 14.2827 11.0812L16.2608 9.59766C16.8679 9.76875 17.2968 10.3195 17.2968 10.9453Z" fill="#8A67AC"/>
<path d="M13.7458 7.44844C13.8771 7.42031 13.9966 7.40625 14.1091 7.40625C15.0231 7.40625 15.7731 8.11406 15.8575 9.01875L13.9239 10.4695C13.6708 10.1531 13.3427 9.9 12.9653 9.73828L13.7458 7.44844Z" fill="#8A67AC"/>
<circle cx="12" cy="12" r="1.75781" fill="black"/>
<path d="M12.0003 6.70312C12.4105 6.70312 12.8042 6.85078 13.1183 7.11563L12.2839 9.55547C12.1901 9.54375 12.0964 9.53906 12.0003 9.53906C11.9042 9.53906 11.8105 9.54375 11.7167 9.55547L10.8823 7.11563C11.1964 6.85078 11.5901 6.70312 12.0003 6.70312Z" fill="#8A67AC"/>
<path d="M9.89053 7.40625C10.003 7.40625 10.1202 7.42031 10.2538 7.44844L11.0343 9.73594C10.6569 9.89766 10.3265 10.1508 10.0733 10.4695L8.11865 9.01641C8.20771 8.12813 8.9835 7.40625 9.89053 7.40625Z" fill="#8A67AC"/>
<path d="M6.70312 10.9453C6.70312 10.3172 7.12266 9.76637 7.71797 9.59528L9.71719 11.0812C9.62344 11.3132 9.56484 11.5617 9.54609 11.8218C8.81953 11.9297 8.17266 12.082 7.63828 12.2718C7.08281 12.0726 6.70312 11.5406 6.70312 10.9453Z" fill="#8A67AC"/>
<path d="M12.0001 17.2969C9.73838 17.2969 7.80244 16.3242 7.04541 15C8.37666 15.6656 10.4907 15.8672 12.0001 15.8672C13.5095 15.8672 15.6235 15.6633 16.9548 15C16.179 16.357 14.2149 17.2969 12.0001 17.2969Z" fill="#8C69AF"/>
<path d="M12 15.1641C8.71406 15.1641 6.70312 14.3016 6.70312 13.7578C6.70312 13.6055 6.91172 13.3476 7.49297 13.0828C8.01797 12.8461 8.75391 12.6516 9.59531 12.5226C9.62109 12.6445 9.65625 12.7617 9.70078 12.8766C9.23438 13.1789 8.93906 13.507 8.925 13.5234C8.79609 13.6687 8.80781 13.8891 8.95312 14.0203C9.09844 14.1516 9.32109 14.1375 9.45 13.9922C9.45234 13.9898 9.68203 13.7367 10.0453 13.493C10.4953 14.0812 11.2031 14.4609 12 14.4609C12.7969 14.4609 13.5047 14.0812 13.9547 13.493C14.3156 13.7367 14.5477 13.9898 14.55 13.9922C14.6789 14.1375 14.9016 14.1492 15.0469 14.0203C15.1922 13.8914 15.2039 13.6687 15.075 13.5234C15.0609 13.507 14.7656 13.1812 14.2992 12.8766C14.3438 12.7617 14.3789 12.6445 14.4047 12.5226C16.3734 12.8226 17.2969 13.4086 17.2969 13.7555C17.2969 14.2945 15.3141 15.1641 12 15.1641Z" fill="#B49AC9"/>
<ellipse cx="11.9976" cy="12.0024" rx="1.75781" ry="1.75781" fill="#E5E5E5"/>
<circle cx="11.5547" cy="11.5571" r="0.855469" fill="url(#paint0_linear_300_16697)"/>
<defs>
<linearGradient id="paint0_linear_300_16697" x1="10.6985" y1="12.4123" x2="12.4095" y2="12.4123" gradientUnits="userSpaceOnUse">
<stop offset="0.00558659" stop-color="#F2F2F2"/>
<stop offset="1" stop-color="white"/>
</linearGradient>
</defs>
</svg>
