<svg width="24" height="24" viewBox="0 0 24 24" fill="none" xmlns="http://www.w3.org/2000/svg">
<circle cx="12" cy="12" r="12" fill="#303642"/>
<path fill-rule="evenodd" clip-rule="evenodd" d="M12.398 3.6398C12.3184 3.6398 12.2487 3.62985 12.1791 3.6199C12.1094 3.60994 12.0397 3.59999 11.9601 3.59999C7.34221 3.59999 3.6001 7.34209 3.6001 11.96C3.6001 13.2339 3.87877 14.4282 4.39629 15.5031C4.39629 15.5429 4.4361 15.5827 4.4361 15.5827L4.47591 15.6225C5.71001 18.1703 8.218 20.0015 11.1639 20.2802H11.2435C11.3232 20.2802 11.4127 20.2902 11.5023 20.3001C11.5919 20.3101 11.6815 20.32 11.7611 20.32H11.9203H11.9601C16.578 20.32 20.3201 16.5779 20.3201 11.96C20.3201 7.54116 16.8169 3.87866 12.398 3.6398ZM15.7816 7.93922C15.7816 10.0491 14.0697 11.7609 11.9598 11.7609C9.57125 11.7609 7.66039 13.6718 7.66039 16.0604C7.66039 17.1751 8.09829 18.2101 8.77507 18.9665C8.4964 18.7675 8.29736 18.6082 8.09829 18.4092C7.26229 17.5732 6.74478 16.4187 6.74478 15.3438C6.74478 13.1145 8.13811 11.8406 11.0044 11.4425C13.5124 11.0842 14.7465 9.85008 14.7465 7.78C14.7465 6.70514 14.2688 5.70989 13.3532 4.99331C12.8754 4.59521 12.2783 4.31655 11.6812 4.15731H11.9598C14.0697 4.1175 15.7816 5.82931 15.7816 7.93922ZM4.87392 11.9202C4.19716 13.1941 4.71468 14.9457 4.83411 15.3438C4.96024 15.6276 5.11135 15.8864 5.24786 16.1203L5.24786 16.1203L5.24788 16.1203L5.248 16.1205L5.24805 16.1206C5.28382 16.1819 5.31858 16.2414 5.35164 16.2992C5.15259 15.8215 5.03316 15.3438 4.99335 14.9059C4.75449 11.5619 7.58098 10.8055 9.85013 10.2084C10.0109 10.1441 10.1718 10.1057 10.3116 10.0724L10.3116 10.0724C10.3448 10.0644 10.3769 10.0568 10.4075 10.0492C11.8804 9.65105 12.5174 8.85487 12.5174 7.54115C12.5174 6.58571 12.1193 5.86913 11.3231 5.47104C10.6463 5.11275 9.77049 5.03313 8.8947 5.19237C9.13356 5.23218 9.41221 5.3118 9.61127 5.39142C10.5667 5.78951 11.124 6.58571 11.0842 7.50133C11.0444 9.33258 9.7307 9.73066 7.34213 10.4074L6.50612 10.6463C5.74973 10.8453 5.1924 11.2832 4.87392 11.9202ZM5.35195 7.7402C6.26757 6.54591 7.34244 6.30705 8.01919 6.46629C8.45709 6.58572 8.73576 6.86438 8.81537 7.22266C8.89501 7.58095 8.85519 7.89945 8.65616 8.09849C8.25805 8.61602 7.30262 8.77524 6.46662 8.81506C5.55099 8.89467 4.83442 9.25295 4.35671 9.88992C4.59557 9.13353 4.91404 8.41695 5.35195 7.7402ZM13.0749 5.35161C12.1195 4.55542 10.7262 4.27675 9.41243 4.55542C9.35272 4.57533 9.30296 4.58528 9.2532 4.59523C9.20344 4.60518 9.15368 4.61514 9.09397 4.63504C9.96979 4.55542 10.8456 4.67485 11.5224 5.03314C12.4778 5.51085 12.9953 6.42647 12.9953 7.54115C12.9953 9.09373 12.1991 10.0492 10.5271 10.5269C10.3281 10.6065 10.1688 10.6463 9.96979 10.6861L9.91983 10.6999C7.62651 11.3324 5.27368 11.9813 5.47129 14.9059C5.5111 15.9012 6.10825 16.9362 6.98407 17.812C6.50634 17.0158 6.22768 16.14 6.22768 15.304C6.22768 12.8358 7.82007 11.3629 10.9252 10.9249C13.1944 10.6065 14.2692 9.57144 14.2692 7.74019C14.2692 6.82458 13.8313 5.94876 13.0749 5.35161ZM4.15732 12.4775C4.15732 11.761 4.23694 10.8453 4.75446 10.2084C5.15256 9.69087 5.7497 9.37238 6.50609 9.33259C7.46153 9.25295 8.53639 9.09373 9.0141 8.41695C9.25296 8.05866 9.37239 7.66058 9.25296 7.14305C9.13353 6.58571 8.6956 6.1478 8.05867 5.98857C7.77999 5.90895 7.46153 5.90895 7.10324 5.98857C7.97903 5.55066 8.81503 5.59047 9.41218 5.82933C10.1686 6.14781 10.6065 6.78476 10.5667 7.50134C10.5271 8.96617 9.54256 9.24983 7.22162 9.91856L7.18285 9.92973L6.34685 10.1686C5.43123 10.4472 4.79427 10.9648 4.43598 11.7212C4.31655 11.96 4.23694 12.1989 4.15732 12.4775ZM8.13872 16.0604C8.13872 18.1703 9.85054 19.8423 11.9604 19.8821C16.2997 19.8821 19.8427 16.3391 19.8427 11.9998C19.8427 8.61601 17.693 5.7497 14.7073 4.63503C15.6627 5.43123 16.2599 6.62551 16.2599 7.93923C16.2599 10.3278 14.349 12.2387 11.9604 12.2387C9.85054 12.2387 8.13872 13.9505 8.13872 16.0604Z" fill="url(#paint0_linear_300_14524)"/>
<defs>
<linearGradient id="paint0_linear_300_14524" x1="3.59731" y1="20.3496" x2="20.3173" y2="20.3496" gradientUnits="userSpaceOnUse">
<stop stop-color="#45DCA3"/>
<stop offset="1" stop-color="#128D89"/>
</linearGradient>
</defs>
</svg>
