<svg width="24" height="24" viewBox="0 0 24 24" fill="none" xmlns="http://www.w3.org/2000/svg">
<circle cx="12" cy="12" r="12" fill="#EDF0F4"/>
<path d="M11.4834 3.45007V3.83303C11.6175 3.7789 11.7437 3.70703 11.8586 3.61935C11.7307 3.61935 11.6029 3.45007 11.4751 3.45007H11.4834Z" fill="black"/>
<path fill-rule="evenodd" clip-rule="evenodd" d="M11.9363 3.4778C11.8002 3.4778 11.6585 3.45559 11.5279 3.45282H11.4862C7.86207 3.64762 4.76253 6.12105 3.77268 9.60818C2.78284 13.0953 4.12152 16.8252 7.10412 18.8904C6.55503 18.3938 6.24292 17.6877 6.24549 16.9479C6.25459 15.5018 7.42618 14.3318 8.87417 14.3227L9.39935 14.306V14.1923C9.39868 13.0648 10.1242 12.0648 11.1972 11.7141C11.4597 11.6269 11.7347 11.5828 12.0114 11.5837C13.0398 11.5827 13.9732 12.1846 14.3955 13.1211C16.2309 11.8637 17.0857 9.59621 16.5364 7.4422C15.9871 5.28818 14.1504 3.70526 11.9363 3.4778Z" fill="#B4E1FF"/>
<path fill-rule="evenodd" clip-rule="evenodd" d="M12.214 3.45007C16.8045 4.00508 18.2244 7.37122 18.2272 10.4099C18.2272 13.518 15.6124 15.7852 13.3255 16.3846C12.4729 16.5938 11.6079 16.7495 10.7358 16.8508L10.3884 16.8924C10.3057 16.9036 10.2239 16.9212 10.1439 16.9451C9.6468 17.0909 9.24298 17.4544 9.04628 17.9331C8.96132 18.138 8.91788 18.3578 8.91846 18.5796C8.91791 19.3055 9.37719 19.9523 10.0633 20.1919C10.1828 20.2197 10.3051 20.2419 10.4301 20.2669C10.9282 20.355 11.4331 20.3995 11.9389 20.4001C16.5622 20.3849 20.3232 16.6777 20.3989 12.0611C20.4746 7.44457 16.8371 3.61642 12.2168 3.45007L12.214 3.45007Z" fill="#90D595"/>
<path fill-rule="evenodd" clip-rule="evenodd" d="M12.2141 3.45007C12.1224 3.45007 12.0335 3.45007 11.9362 3.45007C11.8001 3.45007 11.6584 3.45007 11.5278 3.45007C11.6667 3.45007 11.8056 3.46395 11.9362 3.47782C14.1554 3.6996 15.9986 5.2839 16.5487 7.44234C17.0988 9.60078 16.2383 11.8723 14.3954 13.1267C13.8956 11.9952 12.6688 11.3697 11.458 11.629C10.2471 11.8883 9.38502 12.9611 9.39369 14.1978V14.3088L8.86573 14.3283C7.78204 14.3305 6.81103 14.9973 6.4211 16.0071C6.03117 17.0169 6.30242 18.1621 7.10401 18.8904C7.27074 19.007 7.44024 19.1124 7.6153 19.2179C8.37431 19.6698 9.20075 19.9977 10.0634 20.1892C9.37769 19.9506 8.91832 19.3048 8.91853 18.5796C8.91765 18.3569 8.96109 18.1361 9.04635 17.9303C9.24473 17.4528 9.64787 17.09 10.1439 16.9424C10.2244 16.9207 10.306 16.904 10.3885 16.8924L10.7358 16.8536C11.6078 16.7498 12.4726 16.5932 13.3256 16.3846C15.6125 15.7824 18.2301 13.518 18.2273 10.4099C18.2273 7.35734 16.8046 3.99398 12.2141 3.45007Z" fill="white"/>
<path d="M14.6958 13.4318L14.3901 13.1266L14.6958 13.4318Z" fill="black"/>
<path fill-rule="evenodd" clip-rule="evenodd" d="M11.9193 3.00142C11.7747 3.00142 11.6413 3.00142 11.4883 3.00142H11.4717C7.66079 3.19315 4.39395 5.78869 3.34454 9.45853C2.29512 13.1284 3.69562 17.0595 6.82863 19.2383C6.99201 19.3841 7.16996 19.5127 7.35966 19.6221C7.40733 19.647 7.45915 19.6631 7.51258 19.6694C8.26886 20.1014 9.0849 20.4192 9.93418 20.6122C10.0719 20.6603 10.2146 20.693 10.3596 20.7096C10.8754 20.8011 11.3982 20.8476 11.9221 20.8486C15.1466 20.9051 18.1505 19.2163 19.779 16.4317C21.4075 13.6471 21.407 10.2 19.7776 7.4159C18.1483 4.63177 15.1438 2.94397 11.9193 3.00142ZM8.58311 19.2688C8.1383 19.0684 7.71297 18.8272 7.31253 18.5485C6.66744 17.922 6.46718 16.9665 6.80645 16.1337C7.14572 15.3008 7.95653 14.7574 8.85557 14.7604C9.02795 14.7604 9.22535 14.7604 9.38938 14.7437C9.61714 14.7334 9.79684 14.5463 9.79808 14.3182V14.207C9.79738 13.173 10.5191 12.2792 11.5298 12.0625C12.5404 11.8458 13.565 12.3652 13.9879 13.3086C14.0829 13.5208 14.3313 13.6165 14.544 13.5228C14.5654 13.5105 14.5859 13.4965 14.6051 13.4811C17.0096 11.8459 17.8041 8.66576 16.4512 6.09131C17.5856 7.56259 17.7746 9.37873 17.7746 10.405C17.7746 13.2419 15.4114 15.3946 13.1872 15.9675C12.2351 16.1955 11.2693 16.3617 10.2957 16.4653C9.24356 16.6158 8.4611 17.5158 8.458 18.5791C8.46234 18.8072 8.50172 19.0332 8.57477 19.2493L8.58311 19.2688ZM3.85658 11.9264C3.85311 7.59494 7.27031 4.0341 11.5968 3.86084C13.6102 3.94673 15.3634 5.26265 16.0088 7.17239C16.6542 9.08214 16.0588 11.1923 14.5105 12.4827C13.7921 11.424 12.4879 10.9286 11.2481 11.2437C10.0083 11.5587 9.09849 12.6166 8.97225 13.89H8.8388C7.14976 13.89 5.78052 15.2597 5.78052 16.9494C5.78052 17.0244 5.78052 17.0968 5.7972 17.1719C4.54079 15.7133 3.8501 13.8518 3.85102 11.9264H3.85658ZM11.9192 19.9919C11.3222 19.99 10.7273 19.9219 10.1454 19.7889C9.60009 19.5822 9.26299 19.0334 9.32509 18.4534C9.38719 17.8734 9.83283 17.4084 10.4095 17.322C11.4216 17.2128 12.4255 17.0381 13.415 16.7991C15.945 16.1344 18.6363 13.6646 18.6335 10.4022C18.6712 8.88604 18.2758 7.39054 17.4936 6.09131C19.881 8.36583 20.6436 11.8652 19.4191 14.9274C18.1947 17.9896 15.23 19.9975 11.9331 19.9975L11.9192 19.9919Z" fill="#41474E"/>
</svg>
