<svg width="24" height="24" viewBox="0 0 24 24" fill="none" xmlns="http://www.w3.org/2000/svg">
<circle cx="12" cy="12" r="12" fill="#EDF0F4"/>
<path d="M14.7774 13.648C15.2488 13.1761 16.0134 13.1757 16.4853 13.647C16.9525 14.1137 16.9576 14.8678 16.5003 15.3407L16.4863 15.3549L12.8541 18.9911C12.3827 19.463 11.6181 19.4634 11.1462 18.9921C10.679 18.5254 10.6739 17.7713 11.1312 17.2984L11.1452 17.2842L14.7774 13.648Z" fill="#2E5B70"/>
<path fill-rule="evenodd" clip-rule="evenodd" d="M9.61354 8.48233L12.7743 5.3256C13.246 4.85448 14.0102 4.85473 14.4816 5.32613L19.6463 10.4908C20.1181 10.9626 20.1179 11.7277 19.6458 12.1992L16.485 15.3559C16.0133 15.827 15.249 15.8268 14.7776 15.3554L9.61299 10.1908C9.14116 9.71893 9.1414 8.95386 9.61354 8.48233ZM17.084 11.3442L13.6273 7.88744L12.1755 9.33736L15.6323 12.7941L17.084 11.3442Z" fill="#2E5B70"/>
<path d="M7.51484 13.6468C7.98201 13.1802 8.73611 13.1759 9.20851 13.6338L9.22274 13.6478L12.8549 17.284C13.3263 17.7559 13.3258 18.5206 12.854 18.9919C12.3868 19.4586 11.6327 19.4628 11.1603 19.005L11.1461 18.991L7.51388 15.3547C7.04253 14.8828 7.04295 14.1182 7.51484 13.6468Z" fill="#74E1AC"/>
<path fill-rule="evenodd" clip-rule="evenodd" d="M4.35371 10.4906L9.69059 5.15371C10.162 4.68231 10.9262 4.68206 11.3979 5.15316L14.5587 8.30986C15.0309 8.7814 15.0311 9.54647 14.5593 10.0183L9.22239 15.3552C8.75099 15.8266 7.98676 15.8268 7.51505 15.3557L4.35427 12.1991C3.88213 11.7275 3.88188 10.9625 4.35371 10.4906ZM11.9967 9.16491L10.5449 7.715L6.91595 11.344L8.36772 12.7939L11.9967 9.16491Z" fill="#74E1AC"/>
<path fill-rule="evenodd" clip-rule="evenodd" d="M11.9076 9.06973L12.7615 9.92367L12.7615 9.92373L16.4851 13.6474L14.7772 15.3553L11.0535 11.6316L11.0536 11.6315L10.1997 10.7776L11.9076 9.06973Z" fill="#2E5B70"/>
<path d="M14.7773 15.3553C15.249 15.8269 16.0136 15.8269 16.4852 15.3553C16.9569 14.8837 16.9569 14.119 16.4852 13.6474L14.7773 15.3553Z" fill="#2E5B70"/>
<path d="M14.7774 13.648C15.2488 13.1761 16.0134 13.1757 16.4853 13.647C16.9525 14.1137 16.9576 14.8678 16.5003 15.3407L16.4863 15.3549L12.8541 18.9911C12.3827 19.463 11.6181 19.4634 11.1462 18.9921C10.679 18.5254 10.6739 17.7713 11.1312 17.2984L11.1452 17.2842L14.7774 13.648Z" fill="#2E5B70"/>
</svg>
