<svg width="24" height="24" viewBox="0 0 24 24" fill="none" xmlns="http://www.w3.org/2000/svg">
<circle cx="12" cy="12" r="12" fill="#ED79AA"/>
<path opacity="0.5" fill-rule="evenodd" clip-rule="evenodd" d="M16.1878 8.00896L17.5998 6.59671C16.1992 5.18972 14.2897 4.39856 12.2977 4.39997C8.15687 4.39997 4.79982 7.75771 4.79982 11.9C4.79609 13.7877 5.50896 15.6074 6.79623 16.9962V11.6547H6.80227C6.92912 8.72971 9.34157 6.39721 12.2977 6.39721C13.7592 6.39619 15.1602 6.97667 16.1878 8.00896ZM12.42 19.4C14.3695 19.3693 16.2292 18.5806 17.5998 17.2032L16.1878 15.7917C15.19 16.794 13.8388 17.3715 12.42 17.402V19.4Z" fill="white"/>
<path fill-rule="evenodd" clip-rule="evenodd" d="M8.71191 11.6555V18.488V18.4887C9.28905 18.8035 9.90583 19.0406 10.546 19.1937V15.0605C11.1137 15.3939 11.7613 15.5693 12.4208 15.5682C14.4678 15.5682 16.1282 13.9077 16.1282 11.8595C16.1282 9.81046 14.4678 8.14996 12.4201 8.14996C10.4403 8.14996 8.82291 9.70171 8.7172 11.6555H8.71191ZM13.7487 13.1827C13.3971 13.5343 12.9192 13.7328 12.4202 13.7344C11.385 13.7344 10.5461 12.8944 10.5461 11.8594C10.5443 11.3639 10.7408 10.888 11.0922 10.5364C11.4437 10.1847 11.9214 9.98619 12.4202 9.9844C13.4554 9.9844 14.2951 10.8237 14.2951 11.8594C14.2969 12.355 14.1003 12.831 13.7487 13.1827Z" fill="white"/>
</svg>
