<svg width="24" height="24" viewBox="0 0 24 24" fill="none" xmlns="http://www.w3.org/2000/svg">
<circle cx="12" cy="12" r="12" fill="#96B73D"/>
<path fill-rule="evenodd" clip-rule="evenodd" d="M9.07811 12.5172C8.95511 12.3537 8.85986 12.1722 8.79536 11.9787C8.86446 12.1695 8.96372 12.3481 9.08936 12.5075L9.11186 12.5367L9.07811 12.497C9.12136 12.5589 9.16818 12.6182 9.21836 12.6747L9.28736 12.7437C9.29827 12.7546 9.30833 12.7653 9.31787 12.7754C9.33194 12.7903 9.3449 12.8041 9.35785 12.8157L10.8548 14.3232C11.1161 14.5872 11.499 14.6906 11.8576 14.5939C12.2162 14.4943 12.4952 14.2122 12.5908 13.8526C12.6864 13.4929 12.5844 13.1095 12.3226 12.845L9.4006 9.89972L9.40585 9.89373L9.45085 9.85623L12.4081 6.89824L12.4261 6.91774L12.4321 6.92524L17.9595 12.5052C18.3833 12.7776 18.9398 12.7167 19.2945 12.359C19.6544 11.9955 19.7021 11.4265 19.4078 11.0082L13.1506 4.706C12.9571 4.51055 12.6937 4.40039 12.4187 4.39996C12.1437 4.39954 11.8799 4.50889 11.6858 4.70375L9.7756 6.61549L9.70735 6.67549C9.66235 6.71599 9.61585 6.75499 9.5671 6.79099L7.20837 9.15123C6.80284 9.56025 6.80284 10.2197 7.20837 10.6287L9.07811 12.5172ZM11.979 10.9617L14.9047 13.9085L14.9002 13.913L14.8567 13.9482L11.9055 16.8987L11.8868 16.8762L6.34879 11.285C5.95386 10.918 5.34363 10.9147 4.9448 11.2775C4.5451 11.6418 4.4852 12.2491 4.80605 12.6845L11.1638 19.0947C11.3575 19.2901 11.6213 19.4 11.8965 19.4C12.1717 19.4 12.4355 19.2901 12.6292 19.0947L14.5972 17.1267C14.6428 17.0865 14.6903 17.0487 14.7397 17.0134L17.1 14.6525C17.5061 14.2431 17.5061 13.5828 17.1 13.1735L15.1425 11.2032C15.1644 11.2327 15.1859 11.2624 15.207 11.2925L15.1905 11.2722C15.1575 11.225 15.1215 11.1785 15.0825 11.135L15.0142 11.066C15.0007 11.0532 14.9887 11.0405 14.9774 11.0286C14.9655 11.016 14.9545 11.0044 14.9437 10.9947L13.446 9.48724C13.2524 9.29137 12.9885 9.18089 12.7131 9.18032C12.4377 9.17976 12.1734 9.28916 11.979 9.48424C11.5735 9.89326 11.5735 10.5527 11.979 10.9617Z" fill="white"/>
</svg>
