<svg width="24" height="24" viewBox="0 0 24 24" fill="none" xmlns="http://www.w3.org/2000/svg">
<circle cx="12" cy="12" r="12" fill="#EDF0F4"/>
<path fill-rule="evenodd" clip-rule="evenodd" d="M5.2002 5.02072L11.9971 3.59999L18.8078 5.02072V14.4417C18.8078 17.3797 12.3899 20.1108 12.1142 20.2143L12.0039 20.2559L11.8937 20.2143C10.5977 19.6142 9.34287 18.9245 8.14367 18.1383C6.61334 17.1245 5.2002 15.821 5.2002 14.4417V5.02072ZM11.9972 19.3935C13.8378 18.6693 18.2565 16.4969 18.2565 14.4416L18.2569 14.4417L18.25 5.52421L12.0248 4.52437H11.9697L5.74428 5.52421V14.5299C5.74428 14.5348 5.74341 14.538 5.74259 14.5409C5.74111 14.5463 5.73981 14.5511 5.74428 14.5644C5.75144 14.5844 5.75609 14.6053 5.7581 14.6264C5.7581 14.6328 5.75951 14.6377 5.76106 14.643C5.76293 14.6495 5.76501 14.6567 5.76501 14.6681C5.76501 14.6795 5.76711 14.6909 5.76899 14.7011C5.77053 14.7095 5.77192 14.7171 5.77192 14.7233C5.77131 14.7375 5.77367 14.7517 5.77884 14.7649C5.78229 14.7753 5.78402 14.7839 5.78575 14.7925C5.78748 14.8012 5.7892 14.8098 5.79266 14.8201C5.79569 14.8292 5.79739 14.837 5.79893 14.844C5.8009 14.8529 5.8026 14.8607 5.80648 14.8684C5.81424 14.8835 5.81894 14.8999 5.82031 14.9167C5.82031 14.9237 5.82376 14.9323 5.82722 14.9409C5.83068 14.9495 5.83413 14.9581 5.83413 14.965C5.8355 14.9819 5.8402 14.9983 5.84796 15.0134C5.85609 15.0289 5.863 15.045 5.86861 15.0617C5.87206 15.0721 5.87552 15.0791 5.879 15.086C5.88241 15.0929 5.88584 15.0997 5.88926 15.11C5.895 15.1288 5.9019 15.1472 5.90992 15.1652C5.91819 15.1783 5.92511 15.1923 5.93057 15.2068C5.93403 15.2172 5.93921 15.2259 5.94439 15.2345C5.94954 15.2431 5.95469 15.2517 5.95813 15.262L5.97879 15.3037C5.98516 15.3233 5.99445 15.342 6.00635 15.3589L6.03392 15.4005C6.04227 15.4087 6.04806 15.4196 6.05439 15.4315C6.05854 15.4393 6.06292 15.4475 6.06839 15.4557L6.08905 15.4974L6.13069 15.5594L6.15134 15.5939L6.19298 15.6559L6.22054 15.6904L6.26876 15.7524L6.29633 15.7869L6.34455 15.849L6.37211 15.8765L6.42724 15.9455L6.44789 15.973L6.50994 16.042L6.53059 16.0696L6.59263 16.1385L6.61328 16.1661L6.68224 16.235L6.70289 16.2557L6.77876 16.3246L6.79941 16.3453L6.87528 16.4212L6.89593 16.4418L6.9718 16.5177L6.99245 16.5315L7.07515 16.6074L7.08897 16.6212L7.17858 16.6971L7.1924 16.7109L7.28892 16.7868L7.30275 16.7937L7.40618 16.8695L7.42 16.8765L7.53026 16.9592L7.53717 16.9661L7.6476 17.0483L7.65451 17.0552L7.76477 17.1379L7.77169 17.1449L7.88886 17.2276L8.01294 17.3173L8.13703 17.4001C9.18483 18.1036 10.3774 18.7036 11.2942 19.1105H11.3011L11.4045 19.1521H11.4113L11.5009 19.1866L11.5147 19.1935L11.5974 19.228L11.6181 19.2349L11.6939 19.2694L11.7146 19.2763L11.7766 19.3038L11.8111 19.3177L11.8731 19.3452L11.9076 19.3591L11.9972 19.3935Z" fill="#5E4778"/>
<path fill-rule="evenodd" clip-rule="evenodd" d="M11.9971 5.21384L7.28217 5.9725L6.31006 6.12423V14.2003C6.31006 16.0693 10.3289 18.0487 11.9971 18.7039C12.9691 18.3246 14.7338 17.497 16.0367 16.5039C16.0689 16.4786 16.1018 16.4533 16.1348 16.428L16.1348 16.428C16.2006 16.3774 16.2665 16.3268 16.3263 16.2763C16.7743 15.9108 17.1466 15.5245 17.3879 15.1314C17.574 14.828 17.6843 14.5176 17.6843 14.2071V6.12423L11.9971 5.21384ZM9.25352 9.49666H12.5692V10.1864H9.25352V9.49666ZM13.0104 12.5108C14.5821 12.5108 15.7195 11.4554 15.7195 9.82088H15.7194C15.7194 8.18637 14.582 7.16563 13.0033 7.16563H9.81878V7.95186L11.9971 7.94495H12.9072C14.0654 7.94495 14.8305 8.63466 14.8305 9.82088C14.8305 11.0209 14.0654 11.7313 12.8935 11.7313H9.97043V15.9592H10.8321V12.5108H13.0104Z" fill="#5E4778"/>
<path d="M11.9967 3.59999V4.52438H12.0243L18.2495 5.52422V14.4345C18.2495 16.4897 13.8309 18.6622 11.9902 19.3864V20.2485L12.1005 20.2068C12.3762 20.1034 18.7941 17.3723 18.7941 14.4342V5.02072L11.9967 3.59999Z" fill="#5E4778"/>
<path fill-rule="evenodd" clip-rule="evenodd" d="M10.8322 12.5037H13.0034V12.5038C14.5821 12.5038 15.7126 11.4484 15.7126 9.81388C15.7126 8.19328 14.5752 7.16563 13.0034 7.16563H9.81888V7.95186L11.9972 7.94495H12.9075C14.0657 7.94495 14.8308 8.63466 14.8308 9.82087C14.8308 11.0209 14.0657 11.7313 12.8938 11.7313H9.9707V12.1175C8.15773 10.1933 7.50283 7.745 7.28223 5.9725L12.0041 5.21384L17.6912 6.12423V14.2001C17.6912 14.5106 17.5809 14.821 17.3948 15.1245C15.1406 15.021 13.3759 14.49 12.0041 13.7037C11.5932 13.4706 11.2013 13.2054 10.8322 12.9105V12.5037ZM12.5619 9.49666H11.997H9.25342V10.1864H12.5619V9.49666Z" fill="#5E4778"/>
<path d="M11.9144 19.3591L11.8799 19.3452L11.8179 19.3246L11.7834 19.3108L11.7214 19.2832L11.7007 19.2763L11.6249 19.2418L11.6042 19.2349L11.5215 19.2004L11.5077 19.1935L11.4181 19.1519H11.4044L11.301 19.1102H11.2941C10.3842 18.7033 9.19156 18.1033 8.14375 17.393L8.01967 17.3102L7.89558 17.2137L7.77841 17.1309L7.7715 17.124L7.66124 17.0412L7.65432 17.0343L7.54406 16.9515L7.53715 16.9446L7.42689 16.8618L7.41307 16.8549L7.30963 16.779L7.29581 16.7721L7.19929 16.6962L7.18555 16.683L7.09594 16.6071L7.08212 16.5933L6.99942 16.5174L6.97877 16.5036L6.9029 16.4278L6.88225 16.4071L6.80638 16.3312L6.78573 16.3106L6.70986 16.2416L6.68921 16.221L6.62026 16.152L6.5996 16.1245L6.53756 16.0555L6.51691 16.0279L6.45487 15.959L6.43421 15.9314L6.37217 15.8762L6.34461 15.8486L6.29639 15.7866L6.26882 15.7521L6.2206 15.6901L6.19304 15.6556L6.1514 15.5936L6.13075 15.5591L6.08911 15.497L6.06845 15.4626C6.05463 15.4419 6.0478 15.4209 6.03398 15.4073L6.00641 15.3657L5.97885 15.3105L5.95819 15.2689C5.95128 15.2482 5.93754 15.2344 5.93063 15.2136C5.92517 15.1991 5.91825 15.1852 5.90998 15.172C5.90196 15.154 5.89506 15.1356 5.88932 15.1168C5.88241 15.0961 5.8755 15.0892 5.86867 15.0685C5.86306 15.0519 5.85615 15.0357 5.84802 15.0202C5.83937 15.0055 5.83461 14.9889 5.83419 14.9719C5.83419 14.9512 5.82037 14.9302 5.82037 14.9167C5.819 14.8998 5.8143 14.8834 5.80654 14.8684C5.79963 14.8545 5.79963 14.8408 5.79272 14.8201C5.78581 14.7993 5.78581 14.7856 5.7789 14.7649C5.77373 14.7516 5.77137 14.7374 5.77198 14.7232C5.77198 14.7094 5.76507 14.6887 5.76507 14.668C5.76507 14.6473 5.75816 14.6404 5.75816 14.6264C5.75615 14.6052 5.7515 14.5843 5.74434 14.5643C5.73742 14.5437 5.74434 14.5437 5.74434 14.5298V5.52422L11.9696 4.52438H11.9971V3.59999L5.2002 5.02072V14.4417C5.2002 15.821 6.61334 17.1245 8.14367 18.1383C9.34287 18.9245 10.5977 19.6142 11.8937 20.2143L12.0039 20.2559V19.3935L11.9143 19.3591" fill="#3D3144"/>
<path d="M11.9971 13.7037C11.5862 13.4706 11.1944 13.2054 10.8252 12.9105V15.9585H9.96373V12.1174C8.15059 10.1864 7.5026 7.738 7.28217 5.9725L6.31006 6.12424V14.2003C6.31006 16.0693 10.3289 18.0487 11.9971 18.7039C12.9691 18.3246 14.7338 17.497 16.0367 16.5039C16.1332 16.428 16.2366 16.3521 16.3263 16.2763C16.7743 15.9108 17.1466 15.5245 17.3879 15.1314C15.1337 15.0142 13.3759 14.4831 11.9972 13.7038" fill="#3D3144"/>
</svg>
