<svg width="24" height="24" viewBox="0 0 24 24" fill="none" xmlns="http://www.w3.org/2000/svg">
<circle cx="12" cy="12" r="12" fill="#303642"/>
<path fill-rule="evenodd" clip-rule="evenodd" d="M15.6151 12.3842H10.6618V7.40001H13.0276C13.5083 7.40001 13.9147 7.51071 14.2848 7.69534C14.6494 7.87766 14.9755 8.12838 15.2455 8.43385C15.5044 8.72918 15.7262 9.06127 15.8741 9.46769C16.0219 9.87372 16.0955 10.2426 16.0955 10.649C16.0955 11.0918 16.0219 11.4611 15.8741 11.8675C15.8002 12.0517 15.7262 12.1996 15.6151 12.3842ZM13.2863 9.87371C13.1013 9.72585 12.9534 9.65232 12.8055 9.65232H11.5487V11.6457H12.8795C13.0273 11.6457 13.1752 11.5717 13.323 11.4243C13.4337 11.2768 13.5081 11.0183 13.5081 10.649C13.5081 10.2797 13.4341 10.0212 13.2863 9.87371ZM9.88543 13.1227V16.7405H8.99826V13.8608H8V13.1227H9.88543ZM9.88543 12.3842V7.40001H8.99826V11.6461H8V12.3842H9.88543ZM10.6618 16.7409V13.1227H14.9869C14.7836 13.3238 14.5456 13.4864 14.2844 13.6027C13.9147 13.7873 13.5083 13.8608 13.0647 13.8608H11.5489V16.7409H10.6618Z" fill="url(#paint0_linear_300_14312)"/>
<defs>
<linearGradient id="paint0_linear_300_14312" x1="8" y1="7.40001" x2="8" y2="16.7409" gradientUnits="userSpaceOnUse">
<stop stop-color="#F0F0F0"/>
<stop offset="1" stop-color="#999797"/>
</linearGradient>
</defs>
</svg>
