<svg width="24" height="24" viewBox="0 0 24 24" fill="none" xmlns="http://www.w3.org/2000/svg">
<circle cx="12" cy="12" r="12" fill="url(#paint0_linear_300_14559)"/>
<path fill-rule="evenodd" clip-rule="evenodd" d="M13.5249 7.45L11.9874 7.125L10.4624 7.45L11.9999 5.625L13.5249 7.45Z" fill="url(#paint1_linear_300_14559)"/>
<path fill-rule="evenodd" clip-rule="evenodd" d="M13.5872 7.45L12.1122 10.25L11.9997 10.475L10.4497 7.45L11.9997 7.125L13.5872 7.45Z" fill="url(#paint2_linear_300_14559)"/>
<path fill-rule="evenodd" clip-rule="evenodd" d="M15.2625 9.50001L12 10.475L13.5375 7.46251L15.2625 9.50001Z" fill="url(#paint3_linear_300_14559)"/>
<path fill-rule="evenodd" clip-rule="evenodd" d="M15.725 8.85L15.2625 9.4875L12 5.6375L15.725 8.85Z" fill="url(#paint4_linear_300_14559)"/>
<path fill-rule="evenodd" clip-rule="evenodd" d="M15.2625 9.5L12 10.4625L13.0125 12.55L15.2625 9.5Z" fill="url(#paint5_linear_300_14559)"/>
<path fill-rule="evenodd" clip-rule="evenodd" d="M17.4997 12.525L15.2622 9.50001L15.7372 8.83751L17.4997 12.525Z" fill="url(#paint6_linear_300_14559)"/>
<path fill-rule="evenodd" clip-rule="evenodd" d="M15.2622 15.25V9.5L17.5122 12.5375L15.2622 15.25Z" fill="url(#paint7_linear_300_14559)"/>
<path fill-rule="evenodd" clip-rule="evenodd" d="M15.2622 15.25V9.4875L13.0122 12.5375L15.2622 15.25Z" fill="url(#paint8_linear_300_14559)"/>
<path fill-rule="evenodd" clip-rule="evenodd" d="M17.5247 17.825V12.525L15.2622 15.25L17.5247 17.9875V17.825Z" fill="url(#paint9_linear_300_14559)"/>
<path fill-rule="evenodd" clip-rule="evenodd" d="M8.73779 9.50001L12.0003 10.475L10.4628 7.45L8.73779 9.50001Z" fill="url(#paint10_linear_300_14559)"/>
<path fill-rule="evenodd" clip-rule="evenodd" d="M8.2749 8.85L8.7374 9.4875L11.9999 5.6375L8.2749 8.85Z" fill="url(#paint11_linear_300_14559)"/>
<path fill-rule="evenodd" clip-rule="evenodd" d="M8.73779 9.5L12.0003 10.4625L10.9878 12.55L8.73779 9.5Z" fill="url(#paint12_linear_300_14559)"/>
<path fill-rule="evenodd" clip-rule="evenodd" d="M6.5 12.525L8.7375 9.50001L8.2625 8.83751L6.5 12.525Z" fill="url(#paint13_linear_300_14559)"/>
<path fill-rule="evenodd" clip-rule="evenodd" d="M8.73779 15.25V9.5L6.48779 12.5375L8.73779 15.25Z" fill="url(#paint14_linear_300_14559)"/>
<path fill-rule="evenodd" clip-rule="evenodd" d="M8.73779 15.25V9.4875L10.9878 12.5375L8.73779 15.25Z" fill="url(#paint15_linear_300_14559)"/>
<path fill-rule="evenodd" clip-rule="evenodd" d="M6.4751 17.825V12.525L8.7376 15.25L6.4751 17.9875C6.4751 17.9875 6.4751 17.825 6.4751 17.825Z" fill="url(#paint16_linear_300_14559)"/>
<defs>
<linearGradient id="paint0_linear_300_14559" x1="-37.3848" y1="-1.48779" x2="0.258863" y2="50.4177" gradientUnits="userSpaceOnUse">
<stop/>
<stop offset="1" stop-color="#050606"/>
</linearGradient>
<linearGradient id="paint1_linear_300_14559" x1="14.1802" y1="7.43566" x2="13.7454" y2="4.89586" gradientUnits="userSpaceOnUse">
<stop stop-color="#46EFFA"/>
<stop offset="0.9369" stop-color="#2000E3"/>
</linearGradient>
<linearGradient id="paint2_linear_300_14559" x1="15.0404" y1="8.43369" x2="12.1548" y2="5.49867" gradientUnits="userSpaceOnUse">
<stop stop-color="#46EFFA"/>
<stop offset="0.9369" stop-color="#2000E3"/>
</linearGradient>
<linearGradient id="paint3_linear_300_14559" x1="15.8914" y1="9.6442" x2="13.7885" y2="6.33383" gradientUnits="userSpaceOnUse">
<stop stop-color="#46EFFA"/>
<stop offset="0.9369" stop-color="#2000E3"/>
</linearGradient>
<linearGradient id="paint4_linear_300_14559" x1="17.183" y1="7.48304" x2="13.9785" y2="3.89203" gradientUnits="userSpaceOnUse">
<stop stop-color="#46EFFA"/>
<stop offset="0.9369" stop-color="#2000E3"/>
</linearGradient>
<linearGradient id="paint5_linear_300_14559" x1="16.7036" y1="11.0683" x2="14.5253" y2="7.77035" gradientUnits="userSpaceOnUse">
<stop stop-color="#46EFFA"/>
<stop offset="0.9369" stop-color="#2000E3"/>
</linearGradient>
<linearGradient id="paint6_linear_300_14559" x1="18.4086" y1="9.1575" x2="15.1719" y2="8.25981" gradientUnits="userSpaceOnUse">
<stop stop-color="#46EFFA"/>
<stop offset="0.9369" stop-color="#2000E3"/>
</linearGradient>
<linearGradient id="paint7_linear_300_14559" x1="18.1501" y1="8.9208" x2="14.3729" y2="8.64068" gradientUnits="userSpaceOnUse">
<stop stop-color="#46EFFA"/>
<stop offset="0.9369" stop-color="#2000E3"/>
</linearGradient>
<linearGradient id="paint8_linear_300_14559" x1="16.3326" y1="8.01741" x2="12.5516" y2="7.73918" gradientUnits="userSpaceOnUse">
<stop stop-color="#46EFFA"/>
<stop offset="0.9369" stop-color="#2000E3"/>
</linearGradient>
<linearGradient id="paint9_linear_300_14559" x1="18.612" y1="11.2626" x2="14.8706" y2="10.9332" gradientUnits="userSpaceOnUse">
<stop stop-color="#46EFFA"/>
<stop offset="0.9369" stop-color="#2000E3"/>
</linearGradient>
<linearGradient id="paint10_linear_300_14559" x1="12.854" y1="9.47034" x2="10.7382" y2="6.167" gradientUnits="userSpaceOnUse">
<stop stop-color="#46EFFA"/>
<stop offset="0.9369" stop-color="#2000E3"/>
</linearGradient>
<linearGradient id="paint11_linear_300_14559" x1="13.4366" y1="7.49946" x2="10.2321" y2="3.90843" gradientUnits="userSpaceOnUse">
<stop stop-color="#46EFFA"/>
<stop offset="0.9369" stop-color="#2000E3"/>
</linearGradient>
<linearGradient id="paint12_linear_300_14559" x1="13.6039" y1="10.9458" x2="11.4255" y2="7.6478" gradientUnits="userSpaceOnUse">
<stop stop-color="#46EFFA"/>
<stop offset="0.9369" stop-color="#2000E3"/>
</linearGradient>
<linearGradient id="paint13_linear_300_14559" x1="9.47585" y1="9.38681" x2="6.23913" y2="8.48911" gradientUnits="userSpaceOnUse">
<stop stop-color="#46EFFA"/>
<stop offset="0.9369" stop-color="#2000E3"/>
</linearGradient>
<linearGradient id="paint14_linear_300_14559" x1="9.80393" y1="8.03843" x2="6.02675" y2="7.75831" gradientUnits="userSpaceOnUse">
<stop stop-color="#46EFFA"/>
<stop offset="0.9369" stop-color="#2000E3"/>
</linearGradient>
<linearGradient id="paint15_linear_300_14559" x1="11.6234" y1="8.8937" x2="7.84253" y2="8.61547" gradientUnits="userSpaceOnUse">
<stop stop-color="#46EFFA"/>
<stop offset="0.9369" stop-color="#2000E3"/>
</linearGradient>
<linearGradient id="paint16_linear_300_14559" x1="9.36014" y1="12.185" x2="5.6187" y2="11.8556" gradientUnits="userSpaceOnUse">
<stop stop-color="#46EFFA"/>
<stop offset="0.9369" stop-color="#2000E3"/>
</linearGradient>
</defs>
</svg>
