<svg width="24" height="24" viewBox="0 0 24 24" fill="none" xmlns="http://www.w3.org/2000/svg">
<circle cx="12" cy="12" r="12" fill="#EDF0F4"/>
<mask id="mask0_300_13905" style="mask-type:alpha" maskUnits="userSpaceOnUse" x="7" y="5" width="10" height="13">
<path fill-rule="evenodd" clip-rule="evenodd" d="M11.9993 5.39996L10.0597 7.33812L12.6256 9.90401L12.6343 9.91084L12.688 9.96186L13.195 9.45502L11.0797 7.33812L11.0891 7.32902L11.9994 6.41657L12.9195 7.33844L12.9104 7.34754L12.2349 8.02598L12.7419 8.53299L12.8054 8.47237L12.8064 8.47319L13.9395 7.33812L11.9996 5.39996H11.9993ZM12.2329 10.8857L12.7422 11.3932L14.8593 9.27643L15.7797 10.1986L15.7707 10.2077L15.0938 10.8834L15.6043 11.3938L16.7992 10.1977L14.8593 8.2595L12.2329 10.8857ZM7.19971 10.1977L9.82573 12.8222L10.3331 12.315L10.2736 12.2525L10.2742 12.2518L8.21989 10.1977L8.22915 10.1886L9.13981 9.27643L9.82768 9.96251L10.3353 9.45502L9.14144 8.2595L7.19971 10.1977ZM9.37535 10.8862L9.88268 11.395L11.6866 9.59125L11.7635 9.51114L11.256 9.00349L9.37535 10.8862ZM13.6656 10.9424L15.7791 13.0577L15.7699 13.0668L14.8592 13.9789L14.1728 13.2929L13.6672 13.8021L13.7293 13.8642L13.7279 13.866L14.8592 14.9975L16.7991 13.0575L14.173 10.433L13.6656 10.9424ZM10.8057 10.9424L12.6874 12.8223L13.1946 12.3148L11.3148 10.4332L10.8057 10.9424ZM14.0532 11.9253L12.1652 13.8131V16.8532H11.8345V13.8126L11.3132 13.2915L10.8028 13.8021L11.1122 14.1133V16.6158L11.1083 16.6194L10.8748 16.8532H9.13977V17.5719H14.8592V16.8532H13.1232L13.1194 16.8495L12.8856 16.6156V14.1126L12.8895 14.1089L14.6255 12.3713L14.1157 11.8615L14.0532 11.9253ZM9.13999 13.9803L9.13105 13.971L8.22007 13.0574L8.22933 13.0482L8.82669 12.4508L8.90371 12.3706L8.39622 11.8629L7.20151 13.0574L9.13983 14.9974L11.7634 12.3706L11.2559 11.8629L9.13999 13.9803Z" fill="white"/>
</mask>
<g mask="url(#mask0_300_13905)">
<path fill-rule="evenodd" clip-rule="evenodd" d="M10.0597 7.33812L11.9993 5.39996H11.9996L13.9395 7.33812L12.8064 8.47319L12.8054 8.47237L12.7419 8.53299L12.2349 8.02598L12.9104 7.34754L12.9195 7.33844L11.9994 6.41657L11.0891 7.32902L11.0797 7.33812L13.195 9.45502L12.688 9.96186L12.6343 9.91084L12.6256 9.90401L10.0597 7.33812ZM12.7422 11.3932L12.2329 10.8857L14.8593 8.2595L16.7992 10.1977L15.6043 11.3938L15.0938 10.8834L15.7707 10.2077L15.7797 10.1986L14.8593 9.27643L12.7422 11.3932ZM7.19971 10.1977L9.82573 12.8222L10.3331 12.315L10.2736 12.2525L10.2742 12.2518L8.21989 10.1977L8.22915 10.1886L9.13981 9.27643L9.82768 9.96251L10.3353 9.45502L9.14144 8.2595L7.19971 10.1977ZM9.88268 11.395L9.37535 10.8862L11.256 9.00349L11.7635 9.51114L11.6866 9.59125L9.88268 11.395ZM13.6656 10.9424L15.7791 13.0577L15.7699 13.0668L14.8592 13.9789L14.1728 13.2929L13.6672 13.8021L13.7293 13.8642L13.7279 13.866L14.8592 14.9975L16.7991 13.0575L14.173 10.433L13.6656 10.9424ZM12.6874 12.8223L10.8057 10.9424L11.3148 10.4332L13.1946 12.3148L12.6874 12.8223ZM14.0532 11.9253L12.1652 13.8131V16.8532H11.8345V13.8126L11.3132 13.2915L10.8028 13.8021L11.1122 14.1133V16.6158L11.1083 16.6194L10.8748 16.8532H9.13977V17.5719H14.8592V16.8532H13.1232L13.1194 16.8495L12.8856 16.6156V14.1126L12.8895 14.1089L14.6255 12.3713L14.1157 11.8615L14.0532 11.9253ZM9.13105 13.971L9.13999 13.9803L11.2559 11.8629L11.7634 12.3706L9.13983 14.9974L7.20151 13.0574L8.39622 11.8629L8.90371 12.3706L8.82669 12.4508L8.22933 13.0482L8.22007 13.0574L9.13105 13.971Z" fill="url(#paint0_linear_300_13905)"/>
</g>
<defs>
<linearGradient id="paint0_linear_300_13905" x1="18.0988" y1="11.4508" x2="9.49666" y2="6.10051" gradientUnits="userSpaceOnUse">
<stop stop-color="#24B1C6"/>
<stop offset="1" stop-color="#D852D8"/>
</linearGradient>
</defs>
</svg>
