<svg width="24" height="24" viewBox="0 0 24 24" fill="none" xmlns="http://www.w3.org/2000/svg">
<circle cx="12" cy="12" r="12" fill="black"/>
<path fill-rule="evenodd" clip-rule="evenodd" d="M11.2859 13.2896C11.2303 13.2176 11.1723 13.1416 11.115 13.0614C11.0512 12.9715 11.0292 12.8848 11.0488 12.794C11.0913 12.5962 11.3276 12.4228 11.4151 12.3729L11.3072 12.1783C11.2908 12.1873 10.9065 12.4089 10.8337 12.745C10.8002 12.8987 10.8345 13.0492 10.9359 13.1915C10.9948 13.2741 11.0545 13.3517 11.1118 13.4262C11.3972 13.7982 11.5264 13.9879 11.3505 14.2243C11.2753 14.3249 11.1886 14.3903 11.0962 14.459C10.8673 14.6307 10.6301 14.8081 10.7102 15.4689L10.9286 15.4419C10.864 14.9095 11.0161 14.7959 11.2271 14.6381C11.3236 14.5661 11.4323 14.4843 11.5272 14.3576C11.8126 13.9749 11.5566 13.642 11.2859 13.2896Z" fill="#DEC685"/>
<path fill-rule="evenodd" clip-rule="evenodd" d="M11.2934 12.2322C11.1945 12.2951 10.9295 12.4865 10.8715 12.7531C10.8404 12.8954 10.8723 13.0352 10.968 13.1685C11.0268 13.2511 11.0857 13.3279 11.1421 13.4015C11.4316 13.7793 11.5739 13.9879 11.3817 14.2463C11.3032 14.3518 11.2141 14.418 11.1193 14.4891C10.8936 14.6584 10.6801 14.8179 10.7439 15.4246L10.8854 15.4066C10.8306 14.8849 10.995 14.7614 11.2027 14.6061C11.2975 14.5349 11.4038 14.4556 11.4954 14.3338C11.7636 13.974 11.5281 13.6673 11.255 13.3116C11.1994 13.2388 11.1405 13.1628 11.0833 13.0818C11.0121 12.982 10.9884 12.8847 11.0105 12.7833C11.0522 12.5928 11.2558 12.4268 11.3629 12.3573L11.2934 12.2322ZM10.6758 15.5121L10.6709 15.4737C10.5875 14.7901 10.8451 14.5979 11.0716 14.4278C11.1615 14.3608 11.2474 14.2962 11.3185 14.2005C11.4714 13.9952 11.3799 13.8407 11.0797 13.4498C11.0192 13.3721 10.9604 13.2936 10.9031 13.2143C10.7952 13.063 10.7584 12.9019 10.7944 12.7367C10.8688 12.3941 11.2433 12.1692 11.2866 12.1447L11.321 12.125L11.4665 12.3875L11.4338 12.4064C11.3561 12.4505 11.1255 12.6181 11.0863 12.8021C11.0691 12.8806 11.0887 12.9583 11.146 13.0393C11.2032 13.1194 11.2605 13.1947 11.3161 13.2666C11.5835 13.615 11.8599 13.9756 11.5573 14.382C11.4592 14.5129 11.348 14.5963 11.2498 14.6699C11.0421 14.8252 10.9048 14.9283 10.9669 15.4377L10.9718 15.4762L10.6758 15.5121ZM8.64792 8.62758C7.50881 8.58261 7.24141 9.01274 7.21769 9.38236C7.20706 9.54918 7.21933 9.7348 7.23323 9.93188C7.26267 10.3636 7.29292 10.811 7.06723 11.0367C6.93475 11.1691 6.71887 11.2215 6.40731 11.1969L6.39014 11.4194C6.44493 11.4234 6.49726 11.4259 6.54796 11.4259C6.84562 11.4259 7.06723 11.3498 7.22178 11.1953C7.51944 10.8976 7.48428 10.3767 7.4532 9.91716C7.44012 9.72826 7.42867 9.54999 7.43766 9.39708C7.46301 9.00374 7.86698 8.81893 8.63974 8.85082L8.64792 8.62758Z" fill="#DEC685"/>
<path fill-rule="evenodd" clip-rule="evenodd" d="M6.43115 11.3843C6.77869 11.4055 7.02729 11.3352 7.19411 11.1684C7.47868 10.883 7.44434 10.3711 7.41408 9.9197C7.401 9.72999 7.38955 9.5509 7.39854 9.39471C7.42471 8.98257 7.82949 8.78631 8.60226 8.81084L8.60798 8.66529C7.75344 8.6383 7.28733 8.88771 7.25625 9.3849C7.24562 9.5509 7.25789 9.73408 7.27179 9.9287C7.30123 10.3695 7.3323 10.8258 7.09434 11.0637C6.95941 11.1987 6.7468 11.2559 6.44342 11.2379L6.43115 11.3843ZM6.54816 11.4644C6.49664 11.4644 6.44349 11.4628 6.38707 11.4579L6.34863 11.4546L6.37153 11.1553L6.40996 11.1586C6.70926 11.1823 6.91533 11.1333 7.03881 11.009C7.25224 10.7955 7.22198 10.3572 7.19418 9.93362C7.1811 9.73655 7.16801 9.5501 7.17864 9.37919C7.20317 8.9924 7.47794 8.54264 8.64894 8.58844L8.68738 8.59007L8.67593 8.89018L8.6375 8.88855C7.8909 8.85829 7.4992 9.03002 7.47548 9.39882C7.46567 9.54928 7.47794 9.72673 7.49102 9.914C7.52291 10.3817 7.55807 10.9125 7.24897 11.2224C7.08624 11.3859 6.85645 11.4644 6.54816 11.4644Z" fill="#DEC685"/>
<path fill-rule="evenodd" clip-rule="evenodd" d="M10.332 12.3753C10.2764 12.3025 10.2183 12.2273 10.1611 12.1464C10.0899 12.0466 10.0654 11.9534 10.0858 11.8601C10.121 11.7015 10.2755 11.5813 10.3467 11.5339C10.5004 11.5952 10.6869 11.6361 10.9142 11.6451V11.6467C10.9297 11.6467 10.9461 11.6467 10.9616 11.6459C10.9772 11.6467 10.9927 11.6467 11.0091 11.6467V11.6451C11.6412 11.6205 11.9609 11.3458 12.1228 11.0759C12.2741 11.1373 12.7075 11.3597 12.6879 11.8969C12.6781 12.1619 12.4565 12.4146 12.2414 12.6591C11.9364 13.0074 11.5897 13.4024 11.8783 13.871L12.0656 13.7532C11.8775 13.4474 12.0689 13.1914 12.4066 12.8071C12.647 12.5332 12.8956 12.2494 12.9079 11.9051C12.925 11.4251 12.6511 11.1225 12.3927 10.9631C12.6086 10.941 12.8825 10.8674 12.9487 10.73C12.9725 10.681 13.0346 10.5509 12.4393 9.13461C12.3968 8.93181 12.2766 8.3504 12.2414 8.06746C12.6838 7.45906 12.4859 6.83512 12.086 6.48022C11.6722 6.11387 10.9878 5.97976 10.4595 6.39599C10.3083 6.05009 9.92555 5.8064 9.41691 5.74343C8.51249 5.63222 7.85257 6.11469 7.62279 6.61024C7.32595 7.25053 7.4895 7.70111 7.6465 7.94153C7.15667 7.94643 6.81568 8.06664 6.6096 8.3046C6.27924 8.68567 6.38963 9.26054 6.47795 9.72339C6.51883 9.93845 6.57035 10.2059 6.51802 10.2713C6.34629 10.4872 6.15167 10.425 6.07562 10.3882C5.9456 10.3252 5.86382 10.2001 5.88672 10.0971L5.67165 10.0497C5.62749 10.2541 5.75752 10.4814 5.98158 10.5894C6.17947 10.6851 6.46977 10.6883 6.69056 10.4103C6.80668 10.2647 6.75762 10.0071 6.69465 9.68086C6.61615 9.26627 6.5172 8.75109 6.77642 8.45098C6.96532 8.23264 7.33739 8.13942 7.88283 8.17049L7.95724 7.97178C7.95152 7.96769 7.43471 7.54165 7.82313 6.7051C8.10444 6.09833 8.83305 5.89553 9.39156 5.96422C9.77836 6.01165 10.2191 6.20709 10.2993 6.61433L10.4857 6.67075C10.8185 6.32894 11.4416 6.20464 11.9413 6.64786C12.2439 6.91608 12.4507 7.41572 12.055 7.94725C11.0418 7.79024 10.2837 7.92517 9.80452 8.35203C9.51341 8.61044 9.38748 8.92118 9.33269 9.15587C9.30897 9.13707 9.28362 9.12153 9.25664 9.10844C9.1814 9.0741 9.0293 9.0373 8.8494 9.17223C8.67113 9.30634 8.59835 9.5075 8.64415 9.73729C8.69812 10.0112 8.9091 10.2884 9.11844 10.4446C9.01867 10.5419 8.91646 10.6728 8.88211 10.8306C8.84858 10.9843 8.88293 11.1348 8.98433 11.2771C9.04321 11.3597 9.1029 11.4374 9.16014 11.5118C9.44554 11.8839 9.57474 12.0736 9.39892 12.3099C9.32369 12.4105 9.23619 12.4759 9.14379 12.5446C8.91482 12.7163 8.67768 12.8938 8.75781 13.5545L8.97615 13.5275C8.91155 12.9952 9.06365 12.8815 9.27463 12.7245C9.37112 12.6525 9.47988 12.5708 9.57474 12.444C9.86013 12.0613 9.60418 11.7285 9.3335 11.3752C9.27544 11.3 9.2182 11.2239 9.1626 11.1471C9.09881 11.0571 9.07755 10.9696 9.09636 10.8797C9.12334 10.7537 9.22883 10.6376 9.32451 10.5575C9.33105 10.5599 9.35068 10.5362 9.35068 10.5362C9.39565 10.5011 9.43572 10.4741 9.46271 10.4594L9.40874 10.362L9.35477 10.2647C9.33514 10.2762 9.31633 10.2876 9.29752 10.3007C9.12825 10.1936 8.90664 9.93682 8.8584 9.69477C8.82896 9.54757 8.86903 9.43554 8.97942 9.35131C9.04729 9.2998 9.10863 9.28671 9.16341 9.31206C9.22883 9.3415 9.2828 9.42736 9.28853 9.51077L9.39238 9.5026L9.5085 9.49769C9.50768 9.49197 9.49378 8.92036 9.94927 8.51803C10.3802 8.13697 11.081 8.02166 12.0312 8.17049C12.086 8.54747 12.2308 9.22293 12.2373 9.25482L12.2471 9.25237C12.4867 9.82315 12.7329 10.488 12.7427 10.6384C12.6732 10.699 12.3804 10.7537 12.2545 10.7529C12.2864 10.6278 12.2872 10.5395 12.2872 10.5362H12.0664C12.0664 10.5722 12.0533 11.4014 10.96 11.4243C9.87403 11.4006 9.85522 10.5714 9.85441 10.5354L9.74483 10.5362H9.63443C9.63443 10.5444 9.64261 11.098 10.1292 11.421C10.0294 11.5061 9.9092 11.6385 9.87076 11.8111C9.8356 11.9681 9.8724 12.1251 9.98197 12.278C10.0409 12.3606 10.1005 12.4383 10.1578 12.5127C10.4432 12.8848 10.5724 13.0737 10.3966 13.31C10.3213 13.4106 10.2338 13.476 10.1423 13.5455C9.91328 13.7172 9.67614 13.8939 9.75628 14.5554L9.97462 14.5284C9.91001 13.9961 10.0621 13.8824 10.2731 13.7246C10.3696 13.6526 10.4783 13.5709 10.5732 13.4441C10.8578 13.0606 10.6018 12.7278 10.332 12.3753Z" fill="#DEC685"/>
<path fill-rule="evenodd" clip-rule="evenodd" d="M9.67521 10.5746C9.68666 10.7038 9.75535 11.1266 10.1511 11.3882L10.1937 11.4169L10.1544 11.4504C10.062 11.5289 9.94506 11.6556 9.90908 11.8192C9.87637 11.9656 9.91153 12.1119 10.0138 12.255C10.0726 12.3376 10.1315 12.4153 10.1887 12.4889C10.4774 12.8659 10.6197 13.0744 10.4275 13.3328C10.349 13.4375 10.2607 13.5046 10.1667 13.5749C9.93934 13.745 9.72591 13.9044 9.78969 14.512L9.93198 14.494C9.87719 13.9723 10.0416 13.848 10.2493 13.6935C10.3441 13.6223 10.4504 13.543 10.5412 13.4211C10.8086 13.0622 10.5739 12.7555 10.3016 12.3998L10.3319 12.3752L10.3008 12.399C10.2452 12.3262 10.1871 12.2501 10.1291 12.1692C10.0514 12.0604 10.0244 11.9557 10.0481 11.8519C10.0865 11.6777 10.255 11.5485 10.3253 11.5011L10.3425 11.4896L10.3613 11.497C10.5208 11.5608 10.708 11.5976 10.9157 11.6058L10.9517 11.6074H10.9615H10.9901L11.0081 11.6058C11.5192 11.5853 11.8831 11.4005 12.0908 11.0554L12.108 11.0276L12.1382 11.0399C12.2814 11.0979 12.7483 11.331 12.7278 11.8985C12.7172 12.1765 12.4907 12.4349 12.2724 12.6844C11.9829 13.0139 11.6566 13.386 11.8929 13.8169L12.0148 13.7401C11.8463 13.4269 12.0507 13.1546 12.3787 12.7809C12.615 12.5118 12.8587 12.2338 12.8709 11.9034C12.8898 11.3931 12.5676 11.1151 12.3738 10.9957L12.2773 10.936L12.3901 10.9246C12.6125 10.9017 12.8603 10.8273 12.9151 10.7136C12.9674 10.6048 12.7957 10.079 12.4048 9.15007C12.3656 8.96444 12.2405 8.36095 12.2045 8.07229L12.202 8.05757L12.211 8.04448C12.6395 7.45571 12.4441 6.84894 12.0606 6.50876C11.6672 6.1604 10.9999 6.01975 10.484 6.42617L10.4447 6.45725L10.4251 6.41145C10.2787 6.07699 9.90009 5.84149 9.41353 5.78179C8.52791 5.67303 7.88353 6.14323 7.65947 6.62652C7.37735 7.23492 7.51473 7.66587 7.67991 7.92101L7.71835 7.97988L7.64802 7.9807C7.16882 7.98561 6.83927 8.10009 6.64056 8.32988C6.32246 8.69704 6.4304 9.2621 6.51708 9.71595C6.57351 10.0087 6.60867 10.2213 6.54979 10.2949C6.36089 10.5321 6.14419 10.4634 6.05997 10.4225C5.92749 10.3587 5.84245 10.2385 5.8449 10.1265L5.70343 10.0954C5.68626 10.272 5.80483 10.4601 5.99782 10.5541C6.18181 10.6433 6.45248 10.6457 6.65937 10.3865C6.76404 10.254 6.71661 10.0046 6.6561 9.68815C6.57514 9.26537 6.47538 8.73957 6.74605 8.42637C6.93904 8.20313 7.31193 8.10336 7.85573 8.13116L7.91134 7.98315C7.81402 7.88911 7.43132 7.45571 7.78786 6.68867C8.07734 6.06391 8.82394 5.8562 9.39554 5.92653C9.78805 5.97478 10.2362 6.17267 10.3319 6.584L10.4741 6.62734C10.8233 6.2847 11.4571 6.16695 11.9665 6.61916C12.2789 6.89637 12.4972 7.41646 12.0851 7.97089L12.0712 7.9897L12.0483 7.98642C11.0457 7.83105 10.2991 7.96353 9.82976 8.38139C9.5411 8.63817 9.42007 8.94891 9.37019 9.16479L9.35629 9.22367L9.30886 9.18605C9.28433 9.16724 9.26225 9.15334 9.24099 9.14271C9.17393 9.11164 9.03655 9.07893 8.87382 9.20241C8.70782 9.32752 8.63994 9.51479 8.68247 9.72903C8.73726 10.0062 8.95314 10.272 9.14204 10.4127L9.17884 10.4397L9.14613 10.4715C9.02347 10.5893 8.94823 10.7128 8.92043 10.8379C8.88936 10.9802 8.92125 11.12 9.01692 11.2533C9.07253 11.331 9.12895 11.4046 9.18293 11.4749L9.19192 11.4872C9.4814 11.8642 9.62369 12.0727 9.43152 12.3311C9.35302 12.4366 9.26306 12.5036 9.16821 12.574C8.94251 12.7432 8.72908 12.9027 8.79286 13.5103L8.93515 13.4931C8.88036 12.9706 9.04554 12.8471 9.25325 12.6925C9.34893 12.6206 9.45523 12.5413 9.54519 12.4202C9.81341 12.0604 9.5779 11.7538 9.30477 11.398C9.24753 11.3236 9.19028 11.2484 9.13304 11.1691C9.0619 11.0701 9.03818 10.972 9.06026 10.8714C9.09134 10.7291 9.20909 10.6057 9.3015 10.5272L9.31785 10.5132L9.32031 10.5141L9.32358 10.5108C9.35629 10.4838 9.38654 10.4617 9.41353 10.4446L9.3432 10.3178C9.33584 10.3227 9.3293 10.3268 9.32194 10.3317L9.29904 10.3456L9.27778 10.3325C9.09216 10.2156 8.86973 9.94737 8.82148 9.70205C8.78959 9.54095 8.83538 9.41257 8.95723 9.32016C9.03737 9.25965 9.1126 9.24411 9.18047 9.276C9.24835 9.30708 9.30477 9.38476 9.32276 9.46817L9.47159 9.46C9.4765 9.32098 9.52392 8.8426 9.92544 8.48852C10.3646 8.10009 11.0752 7.9807 12.0385 8.13198L12.0671 8.13689L12.0712 8.16469C12.1178 8.48279 12.2266 9.00942 12.2683 9.20895L12.2715 9.20813L12.2838 9.23757C12.5177 9.79609 12.772 10.4765 12.7826 10.6359L12.7843 10.6555L12.7695 10.6678C12.687 10.7389 12.3836 10.7913 12.2593 10.7913H12.256H12.2069L12.2184 10.7439C12.2323 10.6882 12.2421 10.6318 12.2478 10.5754H12.1055C12.0916 10.7504 11.9722 11.4422 10.9623 11.4635C9.95651 11.4422 9.83303 10.7496 9.81749 10.5754L9.67521 10.5746ZM9.72177 14.5971L9.71686 14.5587C9.63345 13.875 9.89104 13.6829 10.1184 13.5136C10.2091 13.4457 10.2934 13.3819 10.3653 13.2863C10.5182 13.081 10.4275 12.9265 10.1274 12.5356C10.0701 12.4612 10.0104 12.3827 9.95073 12.2992C9.83543 12.1373 9.79618 11.9705 9.8338 11.8012C9.87059 11.6393 9.97445 11.5109 10.0677 11.4234C9.60237 11.0849 9.59665 10.5403 9.59665 10.5346V10.4961L9.89349 10.4953L9.89431 10.5337C9.89431 10.5681 9.91312 11.3613 10.9639 11.3842C12.0188 11.3621 12.0311 10.5689 12.0311 10.5346V10.4961H12.3287V10.5346C12.3287 10.5354 12.3279 10.6049 12.3058 10.7112C12.435 10.7022 12.6337 10.6588 12.7041 10.6188C12.6779 10.456 12.4759 9.89508 12.2265 9.29567L12.2102 9.29976L12.202 9.26214C12.166 9.09369 12.0515 8.5458 12 8.20317C11.0751 8.06252 10.3948 8.17782 9.97772 8.5458C9.53614 8.93505 9.54922 9.48948 9.55004 9.4952L9.55086 9.53364L9.25565 9.55081L9.25238 9.51237C9.24666 9.44287 9.20168 9.37009 9.14935 9.34555C9.10846 9.32675 9.06103 9.33819 9.0046 9.38072C8.90566 9.45595 8.87131 9.55244 8.8983 9.68574C8.94082 9.89917 9.13463 10.1396 9.29899 10.2524C9.32107 10.2385 9.33497 10.2304 9.33743 10.2287L9.37095 10.2107L9.51569 10.4716L9.48217 10.4904C9.45273 10.5076 9.41184 10.5354 9.37504 10.5648C9.36686 10.5763 9.35542 10.5861 9.34233 10.5918C9.27282 10.6515 9.16079 10.7635 9.13381 10.8862C9.11664 10.9655 9.13626 11.0432 9.1935 11.1233C9.24993 11.2026 9.30717 11.2771 9.36196 11.3482C9.631 11.699 9.90739 12.0596 9.60483 12.4661C9.50833 12.5961 9.39712 12.6787 9.29981 12.7523C9.08965 12.9093 8.95309 13.0115 9.01442 13.5218L9.01932 13.5602L8.72412 13.597L8.71921 13.5586C8.63662 12.8749 8.89339 12.6828 9.12072 12.5127C9.21068 12.4456 9.29572 12.3818 9.36768 12.2853C9.5206 12.0801 9.42901 11.9255 9.1289 11.5347L9.11991 11.5224C9.06512 11.4512 9.00869 11.3768 8.95309 11.2991C8.84433 11.1479 8.80835 10.9868 8.84433 10.8216C8.87213 10.6932 8.94491 10.5681 9.06021 10.4479C8.86804 10.2925 8.66115 10.0243 8.60555 9.74461C8.5573 9.49929 8.63499 9.28504 8.82552 9.14112C9.02096 8.99311 9.1886 9.03481 9.27201 9.07243C9.28427 9.07815 9.29654 9.08469 9.30799 9.09124C9.38567 8.7944 9.54922 8.52699 9.77737 8.32256C10.2623 7.89242 11.022 7.75259 12.036 7.90551C12.3982 7.40096 12.1987 6.92912 11.9141 6.67644C11.4325 6.24958 10.8323 6.36815 10.5117 6.6977L10.4953 6.71406L10.2639 6.64455L10.2598 6.62165C10.1838 6.23486 9.75775 6.04841 9.38486 6.00262C8.84106 5.93557 8.12962 6.13182 7.85649 6.72142C7.4836 7.52526 7.97507 7.9374 7.97997 7.94231L8.00123 7.95948L7.90801 8.21134L7.87939 8.20971C7.34622 8.17782 6.98478 8.26859 6.80406 8.47711C6.5571 8.7625 6.65359 9.26787 6.73128 9.67429C6.79588 10.0104 6.84658 10.2753 6.71901 10.4348C6.4835 10.73 6.1744 10.7267 5.96342 10.6237C5.72382 10.5084 5.58481 10.2631 5.63305 10.0406L5.64123 10.003L5.93235 10.0668L5.92417 10.1044C5.90618 10.1895 5.97977 10.299 6.09262 10.353C6.17603 10.3931 6.33876 10.4332 6.48759 10.2467C6.52848 10.1952 6.47042 9.89262 6.43935 9.73071C6.34939 9.26051 6.23736 8.675 6.58 8.28004C6.78443 8.04289 7.11153 7.92105 7.57764 7.90551C7.41982 7.62911 7.31024 7.19162 7.58746 6.59467C7.82297 6.08685 8.4976 5.59211 9.42084 5.70578C9.91393 5.76629 10.3032 6.00099 10.4733 6.33708C11.0163 5.94129 11.7032 6.09094 12.1104 6.45238C12.5168 6.813 12.7253 7.45493 12.2805 8.07887C12.3189 8.36999 12.4399 8.95386 12.4759 9.12885C13.0761 10.5534 13.0132 10.685 12.9829 10.7488C12.9208 10.878 12.7065 10.9549 12.498 10.99C12.7024 11.1413 12.9633 11.4292 12.9461 11.9092C12.933 12.2674 12.6804 12.556 12.435 12.8349C12.0793 13.2405 11.9297 13.4621 12.0981 13.736L12.1178 13.7687L11.8659 13.9274L11.8454 13.8938C11.5421 13.4007 11.8978 12.9943 12.2126 12.6362C12.4228 12.3966 12.6395 12.1488 12.6493 11.8985C12.6665 11.4234 12.3189 11.2067 12.1382 11.1274C11.982 11.3703 11.6688 11.65 11.0473 11.6843V11.6859L11.0089 11.6876H10.8756V11.6843C10.6818 11.6737 10.506 11.6377 10.3514 11.5796C10.2819 11.6287 10.1527 11.7358 10.1233 11.8707C10.1053 11.9525 10.1274 12.0359 10.192 12.1267C10.2492 12.2068 10.3073 12.2821 10.3621 12.354L10.3318 12.3777L10.3629 12.3548C10.6303 12.7032 10.9059 13.0638 10.6033 13.4694C10.506 13.6003 10.3939 13.6837 10.2958 13.7573C10.0873 13.9135 9.95073 14.0157 10.0121 14.526L10.017 14.5644L9.72177 14.5971Z" fill="#DEC685"/>
<path fill-rule="evenodd" clip-rule="evenodd" d="M8.50088 7.51225C8.3406 7.71914 8.33815 7.98245 8.49433 8.18362C8.59246 8.30955 8.72903 8.37824 8.86477 8.37824C8.9212 8.37824 8.97762 8.36597 9.03077 8.34144C9.25811 8.23677 9.31208 8.15173 9.45764 7.92194C9.53042 7.80827 9.62936 7.65209 9.78964 7.43048C9.91312 7.26039 10.0448 7.17044 10.183 7.16471C10.407 7.15653 10.5951 7.36751 10.5968 7.36996L10.6802 7.29719L10.7636 7.22441C10.7538 7.21296 10.5191 6.94147 10.1985 6.94147C10.1912 6.94147 10.1838 6.94147 10.1756 6.94229C9.96709 6.95046 9.77737 7.07067 9.61219 7.29882C9.49362 7.46237 9.38077 7.63082 9.27283 7.80173C9.13626 8.0168 9.10764 8.06177 8.93919 8.13946C8.83779 8.18607 8.72984 8.12638 8.6677 8.04542C8.59492 7.9522 8.55894 7.79928 8.67506 7.64963L8.50088 7.51225Z" fill="#DEC685"/>
<path fill-rule="evenodd" clip-rule="evenodd" d="M8.50838 7.56707C8.38245 7.75434 8.38735 7.98249 8.52473 8.15912C8.64985 8.32022 8.8502 8.38155 9.01375 8.30631C9.23045 8.20655 9.27951 8.12968 9.42425 7.90071C9.49703 7.78705 9.59598 7.63086 9.75789 7.4068C9.88791 7.22608 10.0302 7.13203 10.1798 7.12549C10.372 7.11813 10.5339 7.25551 10.5969 7.31603L10.7065 7.22035C10.6386 7.15084 10.4448 6.9783 10.1962 6.9783C10.1897 6.9783 10.1831 6.9783 10.1758 6.97912C9.97868 6.98648 9.7996 7.10096 9.64177 7.32012C9.47741 7.54827 9.37682 7.70609 9.30404 7.82057C9.16503 8.03891 9.13232 8.09043 8.95405 8.1722C8.83384 8.22699 8.70709 8.15912 8.63595 8.06753C8.54027 7.94896 8.53455 7.78132 8.62041 7.65539L8.50838 7.56707ZM8.86425 8.41665C8.71378 8.41665 8.56741 8.33978 8.46355 8.20649C8.29592 7.99142 8.29919 7.7093 8.4701 7.48769L8.49381 7.45662L8.72768 7.64224L8.70479 7.6725C8.60257 7.80416 8.63364 7.93908 8.69743 8.02086C8.74976 8.08873 8.84053 8.14025 8.92231 8.10263C9.08013 8.02985 9.10385 7.99142 9.23877 7.77962C9.31237 7.6635 9.41377 7.50486 9.57977 7.27508C9.75232 7.03629 9.95184 6.91118 10.1726 6.90218C10.18 6.90137 10.1882 6.90137 10.1963 6.90137C10.5365 6.90137 10.781 7.18594 10.7908 7.19821L10.8154 7.22765L10.5905 7.42309L10.5652 7.39447C10.5635 7.39283 10.3926 7.2023 10.1931 7.2023H10.1824C10.0573 7.20802 9.93549 7.29143 9.81937 7.45171C9.70407 7.61117 9.59367 7.77472 9.489 7.94154C9.34263 8.17132 9.28211 8.26618 9.04497 8.37576C8.98936 8.40274 8.92721 8.41665 8.86425 8.41665ZM15.1533 16.5508C15.6947 16.3905 15.9564 15.7257 15.7895 14.9063L15.5737 14.9513C15.6939 15.5393 15.5818 16.2278 15.0536 16.348C14.5482 16.4633 14.06 16.0177 13.867 15.2637C13.7517 14.8123 13.7828 14.3912 13.9537 14.1082C14.0567 13.9373 14.2039 13.8286 14.3904 13.786C14.5122 13.7566 14.639 13.7599 14.7592 13.795L14.8213 13.5808C14.6652 13.535 14.5 13.5309 14.3421 13.5677C14.2489 13.589 14.1598 13.6249 14.0772 13.6748L14.0731 13.6666C13.468 13.9807 12.7933 14.1368 12.1122 14.1221L12.1081 14.3446C12.1375 14.3454 12.1661 14.3454 12.1956 14.3454C12.7222 14.3454 13.2439 14.2481 13.7288 14.0641C13.562 14.3936 13.5334 14.8442 13.6544 15.3185C13.8 15.886 14.1009 16.2998 14.4648 16.483C14.0118 16.568 13.4868 16.6342 13.1245 16.6342C12.5905 16.6342 12.0639 16.5582 11.5602 16.4069L11.498 16.6203C12.0263 16.7782 12.5742 16.8575 13.1253 16.8567C13.7158 16.8567 14.6692 16.6956 15.155 16.5516L15.1533 16.5508Z" fill="#DEC685"/>
<path fill-rule="evenodd" clip-rule="evenodd" d="M11.5453 16.5965C12.0548 16.7454 12.5855 16.8206 13.1244 16.8206C13.6984 16.8206 14.6159 16.6677 15.109 16.527L15.1426 16.5139C15.6618 16.3602 15.9071 15.7354 15.7591 14.952L15.6193 14.9815C15.7305 15.5784 15.6046 16.2621 15.0624 16.3864C14.535 16.5058 14.0288 16.0486 13.8301 15.2734C13.7123 14.813 13.745 14.3813 13.9208 14.0893C14.0296 13.9086 14.185 13.7941 14.3821 13.7491C14.4974 13.7222 14.6176 13.7222 14.7329 13.7491L14.7738 13.6093C14.6356 13.575 14.49 13.5741 14.3518 13.6069C14.2627 13.6273 14.1768 13.6616 14.0983 13.7091L14.0623 13.7312L14.0566 13.7205C13.4662 14.0198 12.812 14.1719 12.1504 14.1629L12.148 14.3085C12.6869 14.3142 13.2143 14.221 13.7156 14.0296L13.8088 13.9936L13.7638 14.0828C13.6011 14.4042 13.5749 14.8515 13.6919 15.3102C13.8309 15.8516 14.1187 16.267 14.4826 16.4501L14.5849 16.5017L14.472 16.5229C13.9642 16.6178 13.4605 16.675 13.1244 16.675C12.6035 16.6758 12.0858 16.6022 11.5854 16.4567L11.5453 16.5965ZM13.1244 16.8982C12.5699 16.899 12.018 16.8189 11.4864 16.6603L11.4496 16.6496L11.5339 16.3618L11.5715 16.3724C12.0711 16.5221 12.5945 16.5981 13.1244 16.5981C13.4278 16.5981 13.8906 16.5482 14.3534 16.4665C14.0141 16.253 13.7491 15.8466 13.6175 15.3306C13.5038 14.8866 13.5177 14.4663 13.6551 14.1351C13.1587 14.3117 12.6345 14.3968 12.1071 14.3861L12.0687 14.3853L12.0744 14.0852L12.1128 14.086C12.1406 14.0868 12.1676 14.0868 12.1954 14.0868C12.8463 14.0868 13.4899 13.9306 14.0558 13.6354L14.0901 13.6174L14.0942 13.6248C14.1695 13.5831 14.2504 13.5528 14.3346 13.534C14.499 13.4956 14.6707 13.4997 14.8326 13.5471L14.8694 13.5577L14.786 13.8456L14.7484 13.8341C14.6347 13.8014 14.5145 13.7982 14.3992 13.8252C14.2226 13.866 14.0844 13.9683 13.9871 14.1302C13.8219 14.4049 13.7917 14.8146 13.9045 15.2554C14.0918 15.9881 14.562 16.4223 15.0444 16.3119C15.5482 16.1974 15.652 15.531 15.5359 14.9602L15.5285 14.9226L15.8197 14.8612L15.8278 14.8997C15.9955 15.724 15.7436 16.3912 15.2006 16.5769L15.2014 16.5801L15.1655 16.5908C14.6773 16.7363 13.7189 16.8982 13.1244 16.8982ZM12.0007 9.17633L11.4847 8.95636L11.398 8.95718L10.5337 9.33579L10.6212 9.54023L11.443 9.18124L11.9157 9.3824L12.0007 9.17633Z" fill="#DEC685"/>
<path fill-rule="evenodd" clip-rule="evenodd" d="M10.5842 9.35559L10.6414 9.48888L11.442 9.13888L11.8942 9.33106L11.9498 9.19694L11.4763 8.99496L11.406 8.99578L10.5842 9.35559ZM10.6007 9.59103L10.4829 9.31545L11.398 8.91885L11.4928 8.91803L11.5002 8.9213L12.0513 9.15599L11.936 9.43239L11.4429 9.22305L10.6007 9.59103Z" fill="#DEC685"/>
<path fill-rule="evenodd" clip-rule="evenodd" d="M11.3311 9.60068C11.3311 9.70208 11.4177 9.78467 11.524 9.78467C11.6303 9.78467 11.717 9.70208 11.717 9.60068C11.717 9.49928 11.6303 9.41669 11.524 9.41669C11.4177 9.41669 11.3311 9.5001 11.3311 9.60068Z" fill="#DEC685"/>
<path fill-rule="evenodd" clip-rule="evenodd" d="M11.524 9.45601C11.4389 9.45601 11.3694 9.52143 11.3694 9.60157C11.3694 9.6817 11.4381 9.74712 11.524 9.74712C11.6098 9.74712 11.6785 9.6817 11.6785 9.60157C11.6785 9.52143 11.609 9.45601 11.524 9.45601ZM11.5239 9.82315C11.3963 9.82315 11.2925 9.72338 11.2925 9.60072C11.2925 9.47806 11.3963 9.3783 11.5239 9.3783C11.6515 9.3783 11.7561 9.47806 11.7561 9.60072C11.7561 9.72338 11.6515 9.82315 11.5239 9.82315Z" fill="#DEC685"/>
<path fill-rule="evenodd" clip-rule="evenodd" d="M15.5301 11.9059L13.6444 12.6631L14.4041 10.2712C14.4074 10.2712 14.4106 10.272 14.4139 10.272C14.4205 10.272 14.4262 10.2704 14.4327 10.2704L15.5579 11.7619C15.5383 11.7971 15.5277 11.8364 15.5277 11.8764C15.5277 11.8862 15.5293 11.896 15.5301 11.9059ZM9.69579 15.4254C9.74322 15.4802 9.81273 15.5162 9.89205 15.5162C9.89777 15.5162 9.9035 15.5145 9.90922 15.5145L10.9404 17.2571C10.57 17.1844 10.2077 17.0731 9.86016 16.9243C9.21987 16.6504 8.63845 16.257 8.14617 15.7647L9.69579 15.4254ZM7.20232 12.5773C7.21786 12.6632 7.27837 12.7343 7.36096 12.7654L7.76084 15.3421C7.41902 14.925 7.14099 14.463 6.93165 13.9617L6.78363 13.9045L6.70186 13.9429C6.52523 13.4253 6.42383 12.8848 6.40175 12.3377L7.20232 12.5773ZM17.5478 17.4085C16.8347 18.1322 15.9884 18.7095 15.0545 19.1086C14.0896 19.5223 13.0502 19.7341 12.0002 19.7325C10.9413 19.7325 9.91418 19.5223 8.94598 19.1086C8.01211 18.7095 7.16493 18.1314 6.45268 17.4085C5.78131 16.7306 5.23833 15.9365 4.84909 15.0648L6.77405 14.1547C7.05863 14.7999 7.4585 15.3878 7.95487 15.8883C8.47496 16.4157 9.09235 16.8377 9.77353 17.1288C10.4768 17.4297 11.2348 17.5851 11.9994 17.5835C12.459 17.5835 12.9153 17.5287 13.3544 17.4207L13.3021 17.2049C12.6217 17.3709 11.916 17.4052 11.2234 17.3054L10.1014 15.4083C10.1301 15.3674 10.1464 15.3191 10.1464 15.2693C10.1464 15.1327 10.0319 15.0215 9.89047 15.0215C9.77108 15.0215 9.67131 15.1016 9.64351 15.2087L8.01784 15.5645L7.58198 12.749C7.65803 12.7064 7.71037 12.6271 7.71037 12.5355C7.71037 12.399 7.59588 12.2886 7.45441 12.2886C7.38245 12.2886 7.31703 12.318 7.27042 12.3646L6.39625 12.1038C6.39625 12.0997 6.35619 12.0923 6.35619 12.0923H6.17546C6.17546 12.7612 6.28586 13.4146 6.50174 14.0377L5.72898 14.4033C5.46239 13.6624 5.32665 12.8798 5.32746 12.0923C5.32746 11.9263 5.33319 11.7603 5.34464 11.5976L5.12466 11.5812C5.1124 11.7489 5.10667 11.9214 5.10667 12.0923C5.10667 12.9207 5.24814 13.7294 5.52781 14.4981L4.75832 14.862C4.42713 13.9764 4.25786 13.0385 4.25949 12.0923C4.25949 11.035 4.46475 10.0095 4.86789 9.04378C5.2555 8.11482 5.81811 7.27009 6.52628 6.55457C7.22953 5.84068 8.06527 5.27071 8.98686 4.87656C9.93953 4.46932 10.9642 4.25998 12.0002 4.26162C13.0453 4.26162 14.0593 4.46851 15.0136 4.87738C15.9352 5.27153 16.771 5.8415 17.4742 6.55539C18.1824 7.27009 18.7458 8.11564 19.1326 9.04378C19.5366 10.0095 19.7426 11.0456 19.741 12.0923C19.741 13.0196 19.5807 13.9257 19.2683 14.7884L18.4727 14.4973C18.7523 13.7262 18.8946 12.9125 18.8938 12.0923C18.8938 8.2473 15.8019 5.11943 12.0011 5.11943C11.4638 5.11943 10.929 5.18158 10.4106 5.30587L10.4613 5.52258C10.9633 5.40319 11.481 5.34186 12.0011 5.34186C13.6922 5.34186 15.2369 5.98297 16.4136 7.03458L16.6295 8.81563C16.5436 8.8557 16.488 8.94156 16.4872 9.03642V9.03805L14.55 9.81573C14.5091 9.79038 14.4625 9.77729 14.4142 9.77729C14.4052 9.77729 14.3971 9.77893 14.3889 9.77975L13.5441 7.9709C13.5826 7.92756 13.6038 7.87113 13.6047 7.81307C13.6047 7.74684 13.5769 7.68305 13.5286 7.63726L13.8475 6.73856C13.9596 6.77781 14.0716 6.82115 14.1812 6.86776C14.8484 7.15316 15.4536 7.56612 15.963 8.08375L16.1184 7.92592C15.5893 7.38867 14.9605 6.95935 14.267 6.66251C13.8524 6.48506 13.4182 6.35749 12.9742 6.28144L12.9382 6.50141C13.1753 6.54148 13.4092 6.59873 13.639 6.67069L13.3201 7.56939C13.1933 7.58411 13.0944 7.68714 13.0944 7.81389C13.0944 7.948 13.2056 8.05676 13.343 8.06003L14.1992 9.89423C14.1738 9.93266 14.1599 9.97846 14.1591 10.0251C14.1591 10.0782 14.1771 10.1273 14.2065 10.1682L13.4305 12.6108C13.3078 12.6288 13.213 12.7302 13.213 12.8545C13.213 12.991 13.3274 13.1014 13.4689 13.1014C13.6038 13.1014 13.7126 13 13.7224 12.8716L15.6253 12.1079L15.2704 13.9159C15.16 13.9429 15.0815 14.0402 15.0799 14.1539C15.0799 14.2904 15.1943 14.4008 15.3358 14.4008C15.4748 14.4008 15.5869 14.2937 15.591 14.1596L18.0728 13.0335C18.1161 13.0679 18.1709 13.0883 18.2314 13.0883C18.3721 13.0883 18.4874 12.9771 18.4874 12.8414C18.4874 12.7048 18.3729 12.5936 18.2314 12.5936C18.0932 12.5936 17.9804 12.7007 17.9763 12.8332L15.4936 13.96L15.4879 13.9551L15.8494 12.1152C15.9598 12.0882 16.0383 11.9901 16.0399 11.8773C16.0399 11.7407 15.9254 11.6303 15.7839 11.6303C15.7684 11.6303 15.7537 11.6319 15.739 11.6344L14.6277 10.1616C14.6546 10.1224 14.6702 10.0766 14.6702 10.0259C14.6702 10.0202 14.6685 10.0153 14.6685 10.0095L16.5927 9.23676C16.6352 9.2662 16.6867 9.28501 16.7432 9.28501C16.8838 9.28501 16.9991 9.1738 16.9991 9.03805C16.9991 8.93911 16.9378 8.85406 16.8511 8.81481L16.6638 7.27091C17.9518 8.54414 18.6755 10.281 18.673 12.0923C18.673 12.8937 18.5365 13.6763 18.2658 14.4213L17.3638 14.0909L17.3262 14.1956L17.3638 14.0909L17.1586 14.0157L17.0204 14.0745C16.8078 14.5545 16.5273 15.0027 16.1887 15.4042L16.3564 15.5489C16.6867 15.158 16.9631 14.7246 17.179 14.2602L17.2886 14.3002L19.1825 14.9945C18.7916 15.8932 18.2372 16.7118 17.5478 17.4085ZM19.9617 12.0924C19.9617 11.0056 19.7507 9.95068 19.3361 8.95713C18.9379 8.002 18.3581 7.13274 17.6303 6.39759C16.9066 5.66326 16.0471 5.07775 15.1002 4.67215C14.1205 4.25265 13.0665 4.03676 12.0009 4.0384C10.9272 4.0384 9.88381 4.25183 8.9017 4.67215C7.95394 5.07775 7.09449 5.66326 6.3716 6.39759C5.64381 7.13274 5.06403 8.002 4.66579 8.95713C4.24956 9.94987 4.03695 11.0162 4.03858 12.0924C4.03858 13.0965 4.22421 14.0787 4.58075 15.0076L4.60446 15.0559C5.00679 15.9914 5.58085 16.8426 6.29719 17.5663C7.02989 18.3097 7.90078 18.9033 8.86 19.3138C9.85192 19.7391 10.9207 19.9574 12.0001 19.9558C13.0885 19.9558 14.1451 19.7399 15.1403 19.3138C16.1003 18.9033 16.9704 18.3097 17.7031 17.5663C18.4407 16.8214 19.0278 15.9407 19.431 14.9733L19.4375 14.9594C19.785 14.0435 19.9625 13.072 19.9617 12.0924Z" fill="#DEC685"/>
<path fill-rule="evenodd" clip-rule="evenodd" d="M14.427 10.3268L13.7058 12.5968L15.4885 11.8805V11.8764C15.4885 11.8388 15.4966 11.802 15.5122 11.766L14.427 10.3268ZM13.5832 12.7294L14.3772 10.2312L14.4205 10.2328L14.4516 10.2303L15.6046 11.7587L15.5923 11.7808C15.576 11.8102 15.567 11.8429 15.5662 11.8773C15.5662 11.883 15.567 11.8879 15.5678 11.8928L15.5719 11.9223L15.5449 11.9419L13.5832 12.7294ZM6.78209 13.8629L6.96118 13.9324L6.96772 13.9471C7.1558 14.3968 7.40194 14.8196 7.70123 15.2048L7.32671 12.7932C7.24984 12.7573 7.1926 12.6894 7.17052 12.6076L6.44273 12.3909C6.46889 12.9028 6.56375 13.4066 6.72485 13.8898L6.78209 13.8629ZM7.82117 15.4762L7.73122 15.3666C7.39022 14.9504 7.11056 14.4876 6.90203 13.992L6.7851 13.9462L6.67879 13.9961L6.66489 13.9552C6.48744 13.4335 6.38522 12.8897 6.36232 12.3394L6.35987 12.2846L7.23649 12.5454L7.24058 12.5691C7.25284 12.6403 7.30436 12.7016 7.37469 12.7286L7.39595 12.7368L7.82117 15.4762ZM8.22363 15.7869C8.70201 16.2522 9.26135 16.6259 9.87465 16.8884C10.1911 17.0241 10.5231 17.1288 10.8617 17.2016L9.88692 15.5538C9.81005 15.553 9.73646 15.5219 9.68167 15.4671L8.22363 15.7869ZM11.0169 17.3121L10.9319 17.2949C10.559 17.2213 10.1943 17.1093 9.84426 16.9596C9.19988 16.6841 8.61356 16.2875 8.118 15.7919L8.06812 15.742L9.70933 15.383L9.72487 15.4002C9.76657 15.4493 9.82791 15.4771 9.89169 15.4771L9.93012 15.4746L11.0169 17.3121ZM4.90017 15.0846C5.28614 15.9383 5.82095 16.7159 6.48005 17.3816C7.18903 18.1012 8.03212 18.6761 8.96108 19.0735C9.92111 19.4848 10.9556 19.6966 11.9998 19.6942C13.0531 19.6942 14.0761 19.4848 15.0385 19.0735C15.9675 18.6761 16.8106 18.1012 17.5196 17.3816L17.5466 17.4086L17.5196 17.3816C18.1967 16.698 18.7421 15.8966 19.1297 15.0167L17.1974 14.3085C16.9823 14.764 16.7092 15.1892 16.3845 15.5736L16.3592 15.6038L16.1335 15.4084L16.158 15.3789C16.4941 14.9799 16.7722 14.5358 16.984 14.0591L16.9905 14.0452L17.1565 13.9741L18.2416 14.3715C18.5025 13.6396 18.635 12.8693 18.6333 12.0924C18.6333 10.3138 17.953 8.64401 16.7149 7.37814L16.8858 8.78793C16.9782 8.83863 17.0371 8.93349 17.0371 9.03652C17.0371 9.19435 16.9046 9.32273 16.7427 9.32273C16.6879 9.32273 16.6348 9.30802 16.5882 9.27939L14.709 10.0342C14.7074 10.0783 14.6959 10.1209 14.6746 10.1593L15.7557 11.5928C15.7647 11.592 15.7737 11.5912 15.7835 11.5912C15.9454 11.5912 16.0779 11.7195 16.0779 11.8765C16.0779 11.9976 15.9986 12.1047 15.8825 12.1448L15.5382 13.8972L17.9391 12.8071C17.9579 12.6608 18.0838 12.5528 18.231 12.5545C18.3937 12.5545 18.5254 12.6828 18.5254 12.8407C18.5254 12.9985 18.3929 13.1261 18.231 13.1261C18.1729 13.1261 18.1173 13.1097 18.0683 13.0778L15.6281 14.185C15.6118 14.3273 15.4858 14.4385 15.3362 14.4385C15.1743 14.4385 15.0418 14.3101 15.0418 14.1523C15.0418 14.0313 15.1211 13.9242 15.2373 13.8841L15.5742 12.1685L13.758 12.8979C13.7359 13.0345 13.6124 13.1383 13.4685 13.1383C13.3066 13.1383 13.1741 13.0099 13.1741 12.8529C13.1741 12.7213 13.2698 12.606 13.3998 12.5757L14.1636 10.1732C14.1096 10.0881 14.1055 9.9802 14.1546 9.89107L13.3172 8.09694C13.1708 8.0814 13.0547 7.95874 13.0547 7.81318C13.0547 7.67662 13.1545 7.56132 13.2902 7.53433L13.5879 6.69533C13.372 6.62991 13.1528 6.57757 12.9304 6.53914L12.8928 6.5326L12.9418 6.23657L12.9803 6.24312C13.4276 6.31917 13.8643 6.44837 14.2821 6.62664C14.9805 6.92511 15.6134 7.35688 16.1458 7.89823L16.1728 7.92521L15.9626 8.13783L15.9348 8.11002C15.4286 7.59648 14.8276 7.18597 14.1652 6.90303C14.0679 6.86215 13.9698 6.82371 13.87 6.78773L13.5723 7.62755C13.659 7.72568 13.6664 7.87042 13.5887 7.97591L14.4113 9.73815C14.4604 9.74142 14.5086 9.7496 14.552 9.77249L16.4491 9.01117C16.4573 8.92122 16.508 8.8419 16.5873 8.79447L16.3764 7.05432C15.1637 5.9749 13.6099 5.3804 11.9998 5.3804C11.4822 5.3804 10.967 5.44091 10.469 5.55948L10.4314 5.56848L10.3627 5.27654L10.4003 5.26755C10.9245 5.14243 11.4609 5.07947 11.9998 5.07947C15.8219 5.07947 18.931 8.22532 18.931 12.0908C18.931 12.9094 18.7928 13.7099 18.5205 14.4721L19.2434 14.737C19.5468 13.8874 19.7021 12.9928 19.7013 12.0908C19.7013 11.0392 19.4977 10.0186 19.0962 9.05697C18.7102 8.13292 18.1501 7.29146 17.446 6.58003C16.746 5.86941 15.9143 5.30271 14.9977 4.91019C14.0507 4.50705 13.0302 4.29852 11.9998 4.30016C10.9605 4.30016 9.95218 4.50623 9.00115 4.91265C8.08446 5.30516 7.25281 5.87186 6.55282 6.58166C5.1046 8.04951 4.2934 10.0301 4.29749 12.0924C4.29749 13.0247 4.46022 13.9389 4.77996 14.809L5.47995 14.4778C5.206 13.7124 5.06699 12.9053 5.0678 12.0916C5.0678 11.9199 5.07353 11.7473 5.08579 11.5781L5.08825 11.5396L5.38509 11.5617L5.38263 11.6001C5.37119 11.7637 5.36546 11.9281 5.36546 12.0924C5.36546 12.8685 5.49467 13.6282 5.75062 14.3502L6.45388 14.0174C6.24372 13.3975 6.13578 12.7466 6.13659 12.0924V12.054H6.35657C6.37537 12.0564 6.39418 12.0614 6.41136 12.0687L7.26017 12.3222C7.31414 12.2764 7.38202 12.2511 7.4548 12.2511C7.61671 12.2511 7.74918 12.3795 7.74918 12.5373C7.74918 12.6297 7.70175 12.7164 7.62407 12.7695L8.05093 15.5188L9.61445 15.1761C9.65698 15.0592 9.76819 14.9823 9.89249 14.9832C10.0552 14.9832 10.1869 15.1115 10.1869 15.2694C10.1869 15.3184 10.1738 15.3667 10.1484 15.41L11.2491 17.2712C11.945 17.3677 12.6385 17.3293 13.2943 17.1682L13.3319 17.1592L13.4022 17.4503L13.3646 17.4593C12.9181 17.5689 12.4602 17.6236 11.9998 17.6228C11.2221 17.6228 10.4682 17.4691 9.75838 17.1657C9.07229 16.8721 8.45081 16.4485 7.92745 15.917C7.4368 15.4223 7.0402 14.8433 6.75481 14.2079L4.90017 15.0846ZM12.0001 19.7718C10.9362 19.7718 9.90341 19.5608 8.93111 19.1446C7.99316 18.7431 7.14189 18.1625 6.42555 17.4355C5.75091 16.7543 5.20547 15.957 4.81459 15.0812L4.79906 15.0469L6.79435 14.1032L6.80989 14.1392C7.09201 14.7803 7.49025 15.3633 7.98253 15.8613C8.49852 16.3855 9.11265 16.8042 9.78892 17.0937C10.4873 17.393 11.2396 17.5467 12.0001 17.5451C12.4433 17.5451 12.8841 17.4936 13.3085 17.3922L13.2741 17.2507C12.6011 17.4101 11.9036 17.4412 11.2192 17.3431L11.2012 17.3406L10.0563 15.4059L10.071 15.3854C10.0956 15.3511 10.1087 15.3102 10.1087 15.2685C10.1087 15.1532 10.0113 15.0591 9.89114 15.0591C9.79301 15.0583 9.70715 15.1229 9.68098 15.2178L9.67526 15.2407L7.9858 15.6103L7.53849 12.7277L7.56221 12.7147C7.62845 12.6795 7.67015 12.6108 7.67097 12.5356C7.67097 12.4203 7.57366 12.3271 7.45427 12.3271C7.39539 12.3271 7.33897 12.35 7.29726 12.3917L7.28091 12.408L6.35686 12.1316L6.34868 12.13L6.21375 12.1308C6.21702 12.776 6.3266 13.4155 6.53758 14.0247L6.54903 14.0574L5.70675 14.4556L5.69203 14.4156C5.42381 13.6698 5.28725 12.8839 5.28888 12.0915C5.28888 11.9386 5.29379 11.7841 5.3036 11.632L5.16132 11.6213C5.15069 11.7775 5.14578 11.9345 5.14578 12.0907C5.14578 12.9134 5.28725 13.7189 5.56528 14.4834L5.57755 14.5162L4.73772 14.9136L4.72301 14.8743C4.38937 13.9863 4.21928 13.0434 4.22091 12.0924C4.22091 11.0301 4.42698 9.99976 4.83258 9.0291C5.22183 8.09605 5.78771 7.24642 6.49914 6.52762C7.20567 5.81046 8.0455 5.23804 8.97118 4.84226C9.92794 4.43257 10.9583 4.22159 12.0001 4.22322C13.0501 4.22322 14.069 4.43093 15.029 4.84226C15.9547 5.23804 16.7953 5.81046 17.5019 6.52844C18.2133 7.24724 18.7792 8.09605 19.1693 9.02992C19.5749 10.0006 19.7826 11.0416 19.7801 12.0932C19.7809 13.0172 19.6198 13.9339 19.305 14.8024L19.2919 14.8392L18.4235 14.5211L18.4366 14.4851C18.7146 13.7189 18.8561 12.9093 18.8552 12.094C18.8552 8.27023 15.7805 5.15954 12.0009 5.15954C11.4792 5.15954 10.9599 5.21924 10.457 5.33617L10.4897 5.47764C10.9853 5.36234 11.4923 5.3051 12.0009 5.3051C13.6356 5.3051 15.2114 5.91023 16.4396 7.00764L16.4503 7.01745L16.671 8.8402L16.6465 8.85247C16.5737 8.88599 16.5271 8.95795 16.5263 9.03809V9.06426L16.5018 9.07571L14.5466 9.86074L14.5302 9.85093C14.4909 9.82722 14.4452 9.8125 14.4018 9.81904L14.374 9.82313L14.3544 9.79859L13.499 7.96685L13.5154 7.94804C13.5481 7.91124 13.5661 7.86463 13.5669 7.81557C13.5669 7.75914 13.5432 7.70599 13.5031 7.66756L13.4851 7.65038L13.8253 6.69117L13.8621 6.70426C13.9839 6.7476 14.0943 6.7893 14.1974 6.83428C14.8573 7.1164 15.4567 7.52282 15.9637 8.03063L16.0651 7.92842C15.545 7.4067 14.9301 6.99047 14.253 6.70099C13.8531 6.53008 13.4352 6.40496 13.0067 6.32891L12.983 6.47283C13.2005 6.51127 13.4246 6.56688 13.6503 6.63638L13.6887 6.64865L13.3486 7.60786L13.324 7.61031C13.2153 7.6234 13.1327 7.71172 13.1327 7.81639C13.1327 7.92842 13.2275 8.02164 13.3437 8.02409L13.3674 8.02491L14.2424 9.89999L14.2309 9.91798C14.2096 9.95069 14.1974 9.98913 14.1974 10.0276C14.1974 10.0701 14.2113 10.1118 14.2374 10.147L14.2489 10.1633L13.459 12.6476L13.4352 12.6509C13.3306 12.6664 13.2512 12.7547 13.2512 12.8561C13.2512 12.9714 13.3486 13.0647 13.4688 13.0647C13.5808 13.0647 13.6757 12.9796 13.6838 12.8709L13.6855 12.8471L13.7075 12.8381L15.6767 12.0474L15.303 13.9495L15.2793 13.9552C15.186 13.9773 15.1198 14.0599 15.1182 14.1555C15.1182 14.2708 15.2155 14.3641 15.3357 14.3641C15.4518 14.3641 15.5491 14.2725 15.5516 14.1604L15.5524 14.1359L18.0767 12.9902L18.0956 13.0041C18.134 13.0344 18.1814 13.0508 18.2297 13.0508C18.3491 13.0508 18.4472 12.9575 18.4472 12.8422C18.4472 12.7269 18.3499 12.6337 18.2297 12.6337C18.1119 12.6337 18.0171 12.722 18.0138 12.8357L18.013 12.8594L17.9909 12.8692L15.487 14.0059L15.4461 13.9764L15.4485 13.9486L15.8149 12.0842L15.8386 12.0785C15.9318 12.0564 15.998 11.9738 15.9997 11.8781C15.9997 11.7636 15.9024 11.6696 15.783 11.6696C15.7699 11.6696 15.7576 11.6712 15.7445 11.6729L15.7216 11.6769L14.5801 10.1633L14.5956 10.1404C14.6185 10.1069 14.6316 10.0668 14.6316 10.0259C14.6308 10.021 14.63 10.0161 14.63 10.0112L14.6283 9.9834L14.6537 9.97277L16.5975 9.19265L16.6146 9.20491C16.6522 9.2319 16.6964 9.2458 16.743 9.2458C16.8624 9.2458 16.9605 9.15176 16.9605 9.03728C16.9589 8.9555 16.9098 8.88191 16.8354 8.8492L16.8158 8.8402L16.6114 7.16465L16.6907 7.24315C17.9942 8.53273 18.7113 10.2557 18.7113 12.0924C18.7113 12.8978 18.5731 13.6861 18.3016 14.4344L18.2885 14.4712L17.3866 14.14L17.362 14.2079L17.2893 14.1817L17.3138 14.113L17.1592 14.0558L17.0497 14.1032C16.8411 14.5701 16.5696 15.006 16.2426 15.3985L16.3513 15.4925C16.6678 15.1115 16.9344 14.6911 17.1429 14.2422L17.1584 14.2103L19.2339 14.9708L19.2175 15.0084C18.825 15.912 18.2681 16.7347 17.5747 17.4347C16.8583 18.1616 16.0079 18.7422 15.0691 19.1438C14.0992 19.56 13.055 19.7734 12.0001 19.7718ZM12 4.07772C10.9312 4.07772 9.89352 4.28951 8.91632 4.7082C7.97346 5.11135 7.1181 5.69522 6.39849 6.42546C5.67315 7.15652 5.09664 8.02169 4.70085 8.97191C4.28708 9.96056 4.07528 11.0212 4.07692 12.0924C4.07692 13.0852 4.25846 14.0607 4.61663 14.9938L4.63871 15.0387C5.0394 15.9702 5.611 16.8182 6.32407 17.5394C7.0535 18.2795 7.91949 18.8707 8.87462 19.2787C9.86163 19.7015 10.9247 19.919 11.9992 19.9174C13.0827 19.9174 14.1335 19.7023 15.1238 19.2787C16.0789 18.8699 16.9457 18.2795 17.6743 17.5394C18.4087 16.7977 18.9925 15.9219 19.3941 14.9586L19.4014 14.9431C19.7457 14.0321 19.9223 13.0664 19.9215 12.0932C19.9231 11.022 19.7113 9.96138 19.2984 8.97273C18.9018 8.02251 18.3253 7.15734 17.6008 6.42546C16.8811 5.69522 16.0258 5.11135 15.0829 4.7082C14.1098 4.29033 13.0606 4.07608 12 4.07772ZM12 19.9942C10.9067 19.9942 9.84441 19.7775 8.84513 19.349C7.88101 18.9369 7.00602 18.3399 6.26924 17.5934C5.54962 16.8664 4.9723 16.0102 4.56833 15.0706L4.54543 15.024C4.18481 14.0893 4 13.0949 4 12.0924C4 10.9999 4.2118 9.94009 4.62966 8.94163C5.02954 7.98242 5.61095 7.10907 6.34283 6.37065C7.06981 5.63304 7.93334 5.04427 8.8852 4.63703C9.86976 4.21508 10.9296 3.99837 12 4.00001C13.0786 4.00001 14.1269 4.21426 15.1148 4.63621C16.0666 5.04345 16.9302 5.63222 17.6571 6.36983C18.389 7.10907 18.9704 7.9816 19.3711 8.94163C19.7882 9.93928 20.0024 11.0105 20 12.0924C20 13.0802 19.8233 14.0493 19.4742 14.9725L19.466 14.9897C19.0612 15.9611 18.4716 16.8451 17.7307 17.5934C16.9948 18.3408 16.1198 18.9369 15.1548 19.349C14.158 19.7767 13.0843 19.9967 12 19.9942Z" fill="#DEC685"/>
<path fill-rule="evenodd" clip-rule="evenodd" d="M17.1646 9.88618C17.4565 10.5845 17.6061 11.3352 17.6045 12.0924H17.8253C17.8253 11.2968 17.6716 10.5257 17.3682 9.7995L17.1646 9.88618Z" fill="#DEC685"/>
<path fill-rule="evenodd" clip-rule="evenodd" d="M17.6428 12.0538H17.7859C17.7826 11.2974 17.6338 10.5492 17.3468 9.85L17.2151 9.90643C17.494 10.5876 17.6395 11.317 17.6428 12.0538ZM17.8629 12.1307H17.5653V12.0923C17.5669 11.34 17.4181 10.595 17.1286 9.90076L17.1139 9.86559L17.3878 9.74866L17.4025 9.78464C17.7084 10.5157 17.8646 11.3007 17.8629 12.0931V12.1307ZM6.82242 15.7542L6.9091 15.8589C6.9181 15.8695 6.99333 15.966 6.90338 16.042C6.88375 16.0608 6.85759 16.0715 6.8306 16.0723C6.77172 16.0723 6.72429 16.0159 6.72348 16.0159L6.6368 15.9112L6.82242 15.7542ZM6.84455 15.3918L5.96875 16.1327L6.13557 16.3347L6.44713 16.0714L6.53381 16.1761C6.53953 16.1826 6.6671 16.3347 6.84455 16.3347C6.92387 16.3347 6.99992 16.3044 7.07025 16.2447C7.29349 16.0559 7.18555 15.8048 7.09805 15.6993L6.84455 15.3918Z" fill="#DEC685"/>
<path fill-rule="evenodd" clip-rule="evenodd" d="M6.69142 15.9162L6.75357 15.9914C6.76338 16.0029 6.79773 16.0339 6.83044 16.0339C6.84025 16.0339 6.85579 16.0315 6.87868 16.0127C6.93511 15.9644 6.89831 15.9064 6.8795 15.8827L6.81817 15.8083L6.69142 15.9162ZM6.83137 16.1116C6.7545 16.1116 6.69725 16.0437 6.6948 16.0413L6.58359 15.9072L6.82809 15.7003L6.93931 15.8352C6.9941 15.9022 7.01209 16.002 6.92868 16.0723C6.90169 16.0961 6.86735 16.1108 6.83137 16.1116ZM6.45252 16.0158L6.56373 16.1508C6.56537 16.1524 6.68312 16.2955 6.84422 16.2955C6.91372 16.2955 6.9816 16.2685 7.04456 16.2146C7.24491 16.0453 7.14678 15.8188 7.06746 15.7223L6.83849 15.4451L6.02238 16.1361L6.14014 16.2783L6.45252 16.0158ZM6.13125 16.3896L5.91455 16.1279L6.84923 15.3372L7.12808 15.6749C7.22457 15.791 7.34151 16.0658 7.09537 16.2743C7.01769 16.3405 6.93346 16.3732 6.84514 16.3732C6.64643 16.3732 6.50578 16.2015 6.50496 16.2007L6.44363 16.1263L6.13125 16.3896ZM8.20736 16.7502L7.56461 17.707L8.08879 18.0668L8.22698 17.8599L7.91951 17.6481L8.42324 16.8982L8.20736 16.7502Z" fill="#DEC685"/>
<path fill-rule="evenodd" clip-rule="evenodd" d="M7.6189 17.6963L8.07929 18.0128L8.17497 17.8705L7.86668 17.6587L8.37041 16.9089L8.21831 16.8042L7.6189 17.6963ZM8.09968 18.1208L7.51172 17.7168L8.19699 16.6963L8.47666 16.8876L7.97293 17.6383L8.2804 17.8501L8.09968 18.1208ZM9.94539 18.497C9.94457 18.4978 9.91759 18.5804 9.83418 18.5804C9.81537 18.5804 9.79656 18.5771 9.77857 18.5706C9.65754 18.5305 9.68208 18.4307 9.6878 18.4119L9.92903 17.6678L9.68126 17.5852L9.44084 18.3293C9.44002 18.3326 9.33126 18.6842 9.70252 18.8069C9.75486 18.8241 9.80474 18.8331 9.85217 18.8331C10.0566 18.8331 10.1645 18.6662 10.1932 18.5779L10.4336 17.8338L10.1858 17.752L9.94539 18.497Z" fill="#DEC685"/>
<path fill-rule="evenodd" clip-rule="evenodd" d="M9.7053 17.6351L9.47715 18.3416C9.47306 18.3547 9.38229 18.6605 9.71429 18.7709C9.76254 18.7865 9.80915 18.7955 9.85168 18.7955C10.0332 18.7955 10.1297 18.6458 10.1559 18.5673L10.3848 17.86L10.2107 17.8019L9.9817 18.5101C9.95062 18.5951 9.85658 18.6393 9.77072 18.6082C9.7699 18.6074 9.76827 18.6074 9.76745 18.6066C9.63824 18.564 9.63416 18.4561 9.65133 18.3997L9.8803 17.6915L9.7053 17.6351ZM9.85183 18.8723C9.80032 18.8723 9.74553 18.8625 9.68992 18.8445C9.28105 18.7096 9.40207 18.322 9.40371 18.3179L9.65639 17.5369L9.97777 17.6432L9.72508 18.4234C9.71772 18.4471 9.70873 18.506 9.79132 18.5338C9.80522 18.5387 9.81994 18.5411 9.83466 18.5419C9.88618 18.5419 9.9058 18.4921 9.90908 18.4847L10.1618 17.7046L10.4831 17.8109L10.2304 18.591C10.1977 18.6883 10.0783 18.8723 9.85183 18.8723ZM11.4677 18.2696L11.7319 18.2777L11.7041 19.1822L11.9649 19.1903L11.9927 18.2851L12.2585 18.2933L12.2667 18.0439L11.4751 18.0193L11.4677 18.2696Z" fill="#DEC685"/>
<path fill-rule="evenodd" clip-rule="evenodd" d="M11.7438 19.1455L11.927 19.1513L11.9548 18.246L12.2205 18.2542L12.2262 18.0825L11.5124 18.0596L11.5075 18.2321L11.7716 18.2403L11.7438 19.1455ZM12.0023 19.2314L11.6645 19.2207L11.6924 18.3163L11.4282 18.3081L11.438 17.9819L12.3073 18.0089L12.2967 18.3351L12.0309 18.327L12.0023 19.2314ZM13.91 18.7072C13.8945 18.7113 13.8781 18.7138 13.8626 18.7146C13.7767 18.7146 13.7514 18.6336 13.7489 18.6247L13.6443 18.2264C13.6443 18.2256 13.6369 18.1953 13.6451 18.1618C13.6557 18.1168 13.6884 18.0874 13.744 18.0727C13.7596 18.0686 13.7759 18.0661 13.7923 18.0661C13.8781 18.0661 13.9035 18.1471 13.9059 18.1561L14.0106 18.5543C14.0139 18.5731 14.0327 18.6745 13.91 18.7072ZM14.1571 18.0873C14.1326 17.9925 14.0271 17.8126 13.8079 17.8126C13.7646 17.8134 13.7221 17.8191 13.6804 17.8306C13.4833 17.8829 13.4154 18.0072 13.3925 18.1012C13.368 18.2018 13.3909 18.2893 13.3917 18.2926L13.4964 18.6916C13.5209 18.7865 13.6264 18.9664 13.8455 18.9664C13.8856 18.9664 13.9281 18.9607 13.9731 18.9484C14.3517 18.847 14.2626 18.4896 14.2618 18.4864L14.1571 18.0873Z" fill="#DEC685"/>
<path fill-rule="evenodd" clip-rule="evenodd" d="M13.7916 18.1036C13.7785 18.1036 13.7662 18.1053 13.7532 18.1094C13.6992 18.1241 13.6869 18.1494 13.682 18.1699C13.6763 18.1936 13.6812 18.2165 13.6812 18.2165L13.7859 18.6147C13.7891 18.6262 13.8129 18.6924 13.9004 18.6703C13.9805 18.6491 13.9797 18.5943 13.9723 18.5632L13.8685 18.165C13.866 18.1584 13.8497 18.1036 13.7916 18.1036ZM13.8619 18.7529C13.7744 18.7529 13.7261 18.6892 13.7106 18.6344L13.6059 18.2353C13.6051 18.2329 13.5961 18.1944 13.6067 18.1519C13.6214 18.093 13.664 18.0538 13.7335 18.035C13.7523 18.0301 13.7719 18.0268 13.7915 18.0268C13.8856 18.0268 13.9306 18.1012 13.9428 18.1454L14.0467 18.5436C14.0647 18.6164 14.0418 18.7121 13.9199 18.744C13.9011 18.7497 13.8815 18.7521 13.8619 18.7529ZM13.8078 17.8508C13.771 17.8508 13.731 17.8566 13.6901 17.8672C13.5118 17.9154 13.4505 18.025 13.43 18.1092C13.408 18.2008 13.4284 18.281 13.4284 18.2818L13.5331 18.6809C13.5552 18.7659 13.6492 18.927 13.8446 18.927C13.8814 18.927 13.9215 18.9213 13.9624 18.9098C14.3001 18.8191 14.2273 18.5075 14.2232 18.4944L14.1186 18.0962C14.0973 18.0119 14.0033 17.8508 13.8078 17.8508ZM13.8448 19.0048C13.6027 19.0048 13.4866 18.8061 13.4588 18.7014L13.3542 18.3023C13.3378 18.2328 13.3386 18.1609 13.355 18.0922C13.3803 17.9875 13.4547 17.8509 13.6706 17.7937C13.718 17.7806 13.7647 17.7741 13.8088 17.7741C14.0517 17.7741 14.1678 17.9728 14.1948 18.0775L14.2995 18.4765C14.3338 18.6139 14.3125 18.8977 13.983 18.986C13.9356 18.9982 13.889 19.0048 13.8448 19.0048ZM15.5996 16.9915L15.8907 17.4723L15.3551 17.1428L15.1466 17.272L15.7435 18.2573L15.9659 18.12L15.6748 17.6391L16.2104 17.9687L16.419 17.8395L15.822 16.8533L15.5996 16.9915Z" fill="#DEC685"/>
<path fill-rule="evenodd" clip-rule="evenodd" d="M15.1998 17.2843L15.7567 18.2043L15.9137 18.1078L15.5596 17.5231L16.2105 17.9238L16.3659 17.8273L15.809 16.9074L15.652 17.0039L16.0061 17.5885L15.3551 17.1878L15.1998 17.2843ZM15.7313 18.3114L15.0942 17.259L15.3551 17.0971L15.7746 17.3555L15.5464 16.9785L15.8343 16.8002L16.4713 17.8527L16.2105 18.0146L15.791 17.7562L16.0191 18.1332L15.7313 18.3114ZM16.9547 15.814C16.7977 15.9931 16.7887 16.2 16.9318 16.3283C16.9752 16.3676 17.034 16.3872 17.1052 16.3872C17.2033 16.3872 17.3145 16.3512 17.4126 16.3185C17.4912 16.2932 17.5647 16.2686 17.613 16.2686C17.6244 16.2686 17.6408 16.2703 17.649 16.2768C17.7029 16.3251 17.6302 16.4117 17.6277 16.415L17.4233 16.6481L17.6065 16.8124L17.8109 16.5786C17.8968 16.4804 17.9409 16.37 17.9344 16.2678C17.9295 16.1893 17.8935 16.1157 17.8338 16.0642C17.7904 16.025 17.7324 16.0053 17.6612 16.0053C17.5631 16.0053 17.4511 16.0421 17.353 16.074C17.2745 16.1002 17.2 16.1239 17.1518 16.1239C17.1403 16.1239 17.124 16.1223 17.1158 16.1149C17.0627 16.0667 17.1363 15.9808 17.1395 15.9767L17.3423 15.7445L17.1575 15.5793L16.9547 15.814Z" fill="#DEC685"/>
<path fill-rule="evenodd" clip-rule="evenodd" d="M17.4773 16.6463L17.6033 16.7592L17.7815 16.5548C17.8608 16.464 17.9017 16.3642 17.896 16.2718C17.8919 16.2031 17.86 16.1393 17.8085 16.0944C17.7725 16.0617 17.7226 16.0453 17.6613 16.0453C17.5697 16.0453 17.461 16.0813 17.3653 16.1124C17.2435 16.1524 17.1322 16.1835 17.0897 16.1459C17.0308 16.0927 17.0611 16.0118 17.1093 15.9537L17.2884 15.7493L17.1609 15.6356L16.9834 15.8384C16.8419 16.0003 16.8305 16.1851 16.9564 16.298C16.9932 16.3307 17.0423 16.3471 17.1044 16.3471C17.196 16.3471 17.304 16.3119 17.3988 16.2808C17.5207 16.2407 17.6311 16.2097 17.6736 16.2473C17.7333 16.3004 17.7014 16.3838 17.6564 16.4386L17.4773 16.6463ZM17.6105 16.8688L17.3693 16.6529L17.599 16.3904C17.6113 16.3757 17.6432 16.3274 17.6252 16.3078C17.6252 16.3086 17.6211 16.3078 17.6138 16.3078C17.5712 16.3078 17.4968 16.3315 17.4249 16.3552C17.3235 16.3888 17.2098 16.4256 17.1059 16.4256C17.025 16.4256 16.9579 16.4027 16.9064 16.3569C16.7461 16.2129 16.7543 15.9848 16.926 15.7885L17.155 15.5269L17.3971 15.7436L17.1689 16.0044C17.1558 16.02 17.1231 16.0682 17.1403 16.0878C17.1411 16.087 17.1452 16.0878 17.1517 16.0878C17.1951 16.0878 17.2687 16.0633 17.3415 16.0396C17.4429 16.0061 17.5573 15.9684 17.662 15.9684C17.743 15.9684 17.81 15.9913 17.8607 16.0371C17.9294 16.0985 17.9687 16.1786 17.9736 16.2669C17.9801 16.3789 17.9327 16.4991 17.8403 16.6046L17.6105 16.8688Z" fill="#DEC685"/>
</svg>
