<svg width="24" height="24" viewBox="0 0 24 24" fill="none" xmlns="http://www.w3.org/2000/svg">
<circle cx="12" cy="12" r="12" fill="#EDF0F4"/>
<rect x="8.91064" y="4.05615" width="6.46007" height="6.46007" fill="white"/>
<path fill-rule="evenodd" clip-rule="evenodd" d="M5.64355 18.3514L18.3607 5.63434C19.9941 7.25858 21.0001 9.51038 21.0001 11.9837C21.0001 14.4754 19.9941 16.7272 18.3607 18.3514C14.8538 14.8445 9.15968 14.8445 5.64355 18.3514ZM12.6482 20.9725C12.8697 20.954 13.0819 20.9263 13.2942 20.8986L13.2942 20.8986C13.082 20.9263 12.8605 20.954 12.6482 20.9725Z" fill="#D95E59"/>
<path fill-rule="evenodd" clip-rule="evenodd" d="M18.2024 5.47804C18.2157 5.49033 18.2286 5.50232 18.2406 5.5143C18.2526 5.52628 18.2656 5.53826 18.2789 5.55056C18.3065 5.57615 18.3357 5.6031 18.3606 5.63427L5.62504 18.3698C4.44377 17.1886 3.58551 15.6843 3.20713 13.9954C3.20252 13.9678 3.1956 13.9378 3.18867 13.9078C3.18175 13.8778 3.17483 13.8478 3.17022 13.8201C3.1656 13.7878 3.15868 13.7532 3.15176 13.7186C3.14484 13.684 3.13792 13.6494 3.1333 13.6171V13.5894C3.12869 13.5617 3.12407 13.5317 3.11946 13.5017C3.11485 13.4717 3.11023 13.4417 3.10562 13.414C3.10562 13.4048 3.10331 13.3956 3.101 13.3864C3.0987 13.3771 3.09639 13.3679 3.09639 13.3587C3.09177 13.3402 3.08947 13.3194 3.08716 13.2987C3.08485 13.2779 3.08255 13.2571 3.07793 13.2387C3.07332 13.2156 3.07101 13.1925 3.0687 13.1695C3.0664 13.1464 3.06409 13.1233 3.05947 13.1003V13.0818C3.05502 13.0462 3.05272 13.0128 3.05049 12.9804C3.0481 12.9457 3.0458 12.9122 3.04102 12.8788C3.03179 12.8142 3.02256 12.7403 3.02256 12.6757C3.02256 12.6376 3.0201 12.6019 3.01771 12.5674C3.01549 12.5352 3.01333 12.5039 3.01333 12.4727C3.0041 12.4173 3.0041 12.3712 3.0041 12.3158C3.0041 12.2611 3.0031 12.2054 3.00209 12.149C3.00003 12.0342 2.99791 11.9166 3.0041 11.799V11.6606C3.00861 11.611 3.01092 11.5614 3.01317 11.5129C3.01553 11.4621 3.01784 11.4125 3.02256 11.3653C3.02717 11.3099 3.03179 11.2568 3.0364 11.2038C3.04102 11.1507 3.04563 11.0976 3.05024 11.0423C3.05947 10.9315 3.0687 10.83 3.08716 10.7193C3.09177 10.6824 3.0987 10.6477 3.10562 10.6131C3.11254 10.5785 3.11946 10.5439 3.12407 10.507C3.1333 10.4332 3.14253 10.3686 3.16099 10.2947C3.1656 10.2624 3.17252 10.2325 3.17945 10.2025C3.18637 10.1725 3.19329 10.1425 3.1979 10.1102C3.20195 10.098 3.20422 10.0877 3.20628 10.0783C3.20891 10.0663 3.21118 10.0559 3.21636 10.0456C3.22098 10.0225 3.22559 10.0017 3.2302 9.98097C3.23482 9.96021 3.23943 9.93944 3.24405 9.91637C3.24405 9.88869 3.25328 9.861 3.2625 9.83331C3.27173 9.80563 3.27865 9.77794 3.28558 9.75026C3.2925 9.72257 3.29942 9.69488 3.30865 9.6672C3.31788 9.65797 3.31788 9.64874 3.31788 9.63951C3.3271 9.58414 3.34556 9.51954 3.36402 9.46417C3.36863 9.45494 3.37094 9.44571 3.37325 9.43648C3.37556 9.42725 3.37786 9.41802 3.38248 9.4088C3.39171 9.38572 3.39863 9.36265 3.40555 9.33958C3.41247 9.31651 3.41939 9.29344 3.42862 9.27037C3.43323 9.25652 3.43785 9.24037 3.44246 9.22422C3.44708 9.20807 3.45169 9.19192 3.45631 9.17808C3.46092 9.15962 3.46784 9.14116 3.47476 9.12271C3.48168 9.10425 3.48861 9.08579 3.49322 9.06734L3.54859 8.90122C3.57628 8.82739 3.60396 8.76279 3.64088 8.68896C3.66395 8.6382 3.68472 8.58745 3.70548 8.53669C3.72624 8.48593 3.74701 8.43517 3.77008 8.38441C3.79315 8.33365 3.81623 8.2852 3.8393 8.23675C3.86237 8.1883 3.88544 8.13985 3.90851 8.0891L3.99157 7.92298L4.07463 7.75686C4.91444 6.18799 6.20645 4.89598 7.77532 4.05617L7.94144 3.97311L8.10755 3.89005C8.19983 3.84391 8.30134 3.79777 8.40285 3.75163L8.40287 3.75162L8.40288 3.75162C8.50439 3.70548 8.6059 3.65934 8.70742 3.62242C8.77202 3.59474 8.83662 3.56705 8.91045 3.54859C8.94275 3.53936 8.97274 3.52783 9.00273 3.51629C9.03273 3.50476 9.06272 3.49322 9.09502 3.48399C9.09997 3.48152 9.10425 3.47905 9.10823 3.47675C9.11909 3.47048 9.12765 3.46553 9.14116 3.46553C9.1873 3.44708 9.24267 3.42862 9.29804 3.41017L9.29805 3.41016C9.31189 3.40555 9.32343 3.40093 9.33497 3.39632C9.3465 3.39171 9.35804 3.38709 9.37188 3.38248C9.38755 3.37856 9.40322 3.37298 9.41959 3.36715C9.44179 3.35924 9.46529 3.35087 9.49185 3.34556L9.6026 3.31788C9.63028 3.30865 9.65797 3.29942 9.67643 3.29942C9.72257 3.28096 9.75948 3.27173 9.80563 3.2625C9.85177 3.25328 9.88869 3.24405 9.9256 3.23482C9.94271 3.22911 9.95982 3.22694 9.98347 3.22393C9.99808 3.22206 10.0152 3.21989 10.0363 3.21636C10.0669 3.21636 10.0912 3.21003 10.1196 3.20261C10.1255 3.20107 10.1315 3.19949 10.1379 3.1979C10.1932 3.17945 10.2486 3.17022 10.304 3.16099C10.3409 3.15637 10.3755 3.14945 10.4101 3.14253C10.4447 3.13561 10.4793 3.12869 10.5162 3.12407C10.5485 3.11946 10.5785 3.11485 10.6085 3.11023C10.6385 3.10562 10.6685 3.101 10.7008 3.09639C10.7147 3.09639 10.7285 3.09408 10.7423 3.09177C10.7562 3.08947 10.77 3.08716 10.7839 3.08716C10.8116 3.08255 10.8369 3.08024 10.8623 3.07793C10.8877 3.07562 10.9131 3.07332 10.9408 3.0687C10.9844 3.05623 11.0323 3.05218 11.0815 3.04803C11.1051 3.04603 11.1291 3.04401 11.153 3.04102C11.2176 3.03179 11.2914 3.02256 11.356 3.02256C11.3883 3.02256 11.4206 3.02025 11.4529 3.01794C11.4852 3.01564 11.5175 3.01333 11.5498 3.01333C11.6052 3.0041 11.6514 3.0041 11.7067 3.0041C11.7614 3.0041 11.8171 3.0031 11.8735 3.00209C11.9883 3.00003 12.1059 2.99791 12.2235 3.0041H12.362C12.4116 3.00861 12.4612 3.01092 12.5097 3.01317C12.5605 3.01553 12.6101 3.01784 12.6573 3.02256C12.7127 3.02717 12.7657 3.03179 12.8188 3.0364C12.8719 3.04102 12.9249 3.04563 12.9803 3.05024C13.091 3.05947 13.1925 3.0687 13.3033 3.08716L13.3033 3.08716C13.3494 3.09639 13.3956 3.10562 13.451 3.11485C13.8478 3.17945 14.2354 3.27173 14.6138 3.38248C14.6414 3.39171 14.6668 3.39863 14.6922 3.40555C14.7176 3.41247 14.743 3.41939 14.7706 3.42862C14.8168 3.44246 14.8606 3.45861 14.9045 3.47476C14.9483 3.49091 14.9921 3.50706 15.0383 3.52091C15.2229 3.58551 15.4167 3.65934 15.6012 3.74239C15.7304 3.79777 15.8689 3.86237 15.9981 3.92697C16.0304 3.94543 16.0627 3.96158 16.095 3.97773C16.1273 3.99388 16.1596 4.01003 16.1919 4.02848C16.3857 4.13 16.5795 4.24074 16.7733 4.36072C16.7946 4.37493 16.8173 4.38915 16.8408 4.4039C16.8784 4.42744 16.9181 4.45232 16.9578 4.48069C16.9924 4.50458 17.0276 4.52847 17.0632 4.55259C17.1514 4.6123 17.2415 4.67335 17.327 4.73909C17.4193 4.80369 17.5023 4.86829 17.5946 4.94212L17.7607 5.08055C17.77 5.08978 17.7815 5.09901 17.793 5.10824C17.8046 5.11746 17.8161 5.12669 17.8253 5.13592C17.9269 5.21898 18.0284 5.30204 18.1207 5.39433C18.1456 5.42549 18.1747 5.45245 18.2024 5.47804ZM10.4056 8.80899C11.2916 9.69494 12.7128 9.69494 13.5803 8.80899C14.457 7.94149 14.4478 6.51105 13.5803 5.63433C12.7128 4.7576 11.2823 4.76683 10.4056 5.63433C9.52889 6.50182 9.52889 7.93226 10.4056 8.80899Z" fill="#FF6666"/>
<path d="M18.3607 18.3605C17.6501 19.0712 16.8195 19.6618 15.9058 20.1048C15.712 20.1971 15.509 20.2893 15.306 20.3632C15.2414 20.3909 15.1675 20.4185 15.1029 20.437C15.0476 20.4555 14.9922 20.4739 14.9461 20.4924C14.9091 20.5016 14.8722 20.5201 14.8353 20.5293C14.8076 20.5385 14.7707 20.5477 14.743 20.557C14.6969 20.5754 14.6507 20.5847 14.6046 20.6031C14.5861 20.6123 14.5677 20.6123 14.5492 20.6216C14.4938 20.64 14.4292 20.6585 14.3739 20.6677C14.3646 20.6677 14.3554 20.6677 14.3462 20.6769C14.2908 20.6954 14.2354 20.7046 14.1801 20.7231C14.1524 20.7323 14.1247 20.7415 14.097 20.7415C14.0509 20.7508 14.014 20.76 13.9678 20.7692C13.9494 20.7785 13.9309 20.7785 13.9032 20.7877C13.8386 20.7969 13.7832 20.8154 13.7186 20.8246C13.6448 20.8431 13.5802 20.8523 13.5064 20.8615C13.4325 20.8707 13.3679 20.8892 13.2941 20.8984C13.0819 20.9261 12.8696 20.9538 12.6481 20.9723C12.5558 20.9815 12.4543 20.9815 12.3528 20.9907C12.3067 20.9907 12.2605 20.9907 12.2144 20.9907C12.039 20.9999 11.8637 20.9907 11.6976 20.9907C11.6422 20.9907 11.596 20.9907 11.5407 20.9815C11.4761 20.9815 11.4115 20.9723 11.3376 20.9723C11.273 20.9723 11.1992 20.963 11.1346 20.9538C11.07 20.9446 11.0054 20.9446 10.9316 20.9353C10.9224 20.9353 10.9224 20.9353 10.9131 20.9353C10.867 20.9261 10.8208 20.9261 10.7747 20.9169C10.7378 20.9077 10.6916 20.9077 10.6547 20.8984C10.6363 20.8984 10.6178 20.8892 10.5993 20.8892C10.544 20.88 10.4794 20.8707 10.424 20.8615C10.4148 20.8615 10.4055 20.8615 10.3963 20.8615C10.3317 20.8523 10.2579 20.8338 10.1933 20.8246C8.43984 20.4647 6.86174 19.5972 5.64355 18.3698C9.15968 14.8444 14.8445 14.8444 18.3607 18.3605Z" fill="#FFF4C7"/>
<path d="M11.2082 6.42794C10.7652 6.87091 10.7652 7.58152 11.2082 8.0245C11.6512 8.46747 12.3618 8.46747 12.8048 8.0245C13.2477 7.58152 13.2477 6.87091 12.8048 6.42794C12.3526 5.98496 11.642 5.98496 11.2082 6.42794Z" fill="#016273"/>
</svg>
