<svg width="24" height="24" viewBox="0 0 24 24" fill="none" xmlns="http://www.w3.org/2000/svg">
<circle cx="12" cy="12" r="12" fill="#EDF0F4"/>
<path d="M21 12C21 16.9712 16.9712 21 12 21C7.02876 21 3 16.9712 3 12C3 7.02876 7.02876 3 12 3C16.9712 3 21 7.02876 21 12Z" fill="#393534"/>
<path d="M19.9531 12.0772C19.9531 16.4266 16.4265 19.9532 12.0771 19.9532C7.72778 19.9532 4.20117 16.4266 4.20117 12.0772C4.20117 7.72784 7.72778 4.20123 12.0771 4.20123C16.4265 4.20123 19.9531 7.72784 19.9531 12.0772Z" fill="#F2F2F2"/>
<path d="M15.0569 9.80932L9.40193 15.5917L9.27832 13.2625L12.6891 9.80932L14.1028 8.34151L15.0182 8.04022L15.6826 8.21404L16.3045 8.73164L15.5551 9.59301L15.0569 9.80932Z" fill="white"/>
<path d="M15.5702 9.97116L14.4385 11.1377H16.1535L16.3466 10.9407C16.4818 10.8016 16.59 10.6317 16.6634 10.4501C16.7368 10.2647 16.7715 10.0677 16.7715 9.87073C16.7715 9.47674 16.6247 9.10206 16.3621 8.81622L15.5818 9.62738C15.6243 9.67373 15.6436 9.7394 15.6436 9.8012C15.6398 9.863 15.6127 9.92481 15.5702 9.97116Z" fill="#E1DED9"/>
<path d="M10.9198 14.8803L9.99658 15.8382H11.7116L12.6425 14.8803H10.9198Z" fill="#E1DED9"/>
<path d="M11.3838 14.3944H13.0988L14.1224 13.3322H12.4074L11.3838 14.3944Z" fill="#E1DED9"/>
<path d="M15.686 11.71H13.971L12.874 12.8418H14.589L15.686 11.71Z" fill="#E1DED9"/>
<path fill-rule="evenodd" clip-rule="evenodd" d="M15.631 7.96351C15.8627 8.06394 16.0752 8.21072 16.2529 8.39613C16.4305 8.58154 16.5735 8.79784 16.6623 9.04892C16.7589 9.2884 16.8091 9.5472 16.8052 9.80986C16.8091 10.3352 16.6082 10.8412 16.249 11.2159L16.2413 11.2236L11.8262 15.797C11.8069 15.8202 11.7799 15.8433 11.7529 15.8549C11.722 15.8704 11.6911 15.8742 11.6602 15.8742H9.38891L8.48118 16.8129H7.80908L9.03355 15.5343V13.1704C9.02968 13.1047 9.05672 13.039 9.09921 12.9888L13.5413 8.39999C13.719 8.21458 13.9314 8.06394 14.1632 7.96351C14.3949 7.86308 14.646 7.81287 14.8971 7.81287C15.1481 7.81287 15.3992 7.86308 15.631 7.96351ZM13.8656 8.73221L13.6725 8.92921V10.7331L14.8119 9.5511C14.8544 9.50861 14.9162 9.48157 14.978 9.48157C15.0398 9.48157 15.1016 9.50475 15.1441 9.5511C15.1441 9.55438 15.1441 9.55627 15.1447 9.55795C15.1455 9.56022 15.1474 9.56211 15.1519 9.56655C15.1944 9.6129 15.2137 9.6747 15.2137 9.73651C15.2137 9.79831 15.1866 9.86011 15.1441 9.9026L14.0201 11.0691H15.7351L15.9283 10.8721C16.1986 10.5902 16.3493 10.2116 16.3531 9.81376C16.3531 9.4159 16.2064 9.0335 15.9437 8.74766C15.9389 8.74766 15.9371 8.74471 15.9346 8.74064C15.933 8.73812 15.9312 8.73516 15.9283 8.73221C15.654 8.45024 15.2832 8.29187 14.8969 8.29187C14.5107 8.29187 14.1398 8.45024 13.8656 8.73221ZM9.85637 15.3838L10.7795 14.4258H12.4946L11.5714 15.3838H9.85637ZM13.6456 11.4516L12.5486 12.591H14.2636L15.3606 11.4516H13.6456ZM13.8889 12.9773L12.8653 14.0395H11.1503L12.1739 12.9773H13.8889ZM13.298 9.31152L12.201 10.451V12.2549L13.298 11.1154V9.31152ZM10.8027 11.8995L11.8263 10.8373V12.6411L10.8027 13.7034V11.8995ZM10.4358 12.2896L9.49714 13.2553V15.0592L10.4358 14.0935V12.2896Z" fill="#393534"/>
</svg>
