<svg width="24" height="24" viewBox="0 0 24 24" fill="none" xmlns="http://www.w3.org/2000/svg">
<circle cx="12" cy="12" r="12" fill="#2C3E50"/>
<path fill-rule="evenodd" clip-rule="evenodd" d="M19.149 17.0987V16.3494C19.149 16.201 19.0491 16.1021 18.8974 16.1021H18.3979V15.3498C18.3979 15.2007 18.298 15.0995 18.1493 15.0995H17.649V9.59568H18.1463C18.2957 9.59568 18.3979 9.49677 18.3979 9.3454V8.59607H18.8974C19.0192 8.60117 19.1257 8.51512 19.146 8.39525C19.1716 8.27086 19.1212 8.17195 19.0221 8.1195L12.0231 4.61862C11.9505 4.59384 11.8718 4.59384 11.7993 4.61862L4.54938 8.1195C4.4516 8.1726 4.40077 8.28378 4.42469 8.39225C4.42469 8.51964 4.52459 8.59607 4.64853 8.59607H5.39965V9.3454C5.39965 9.49377 5.49955 9.59268 5.64828 9.59268H6.14853V15.0995H5.65128C5.50105 15.0995 5.39965 15.1984 5.39965 15.3468V16.0991H4.90015C4.74993 16.0991 4.65078 16.198 4.65078 16.3472V17.0987C4.50206 17.0987 4.3999 17.1984 4.3999 17.3498C4.3999 17.5011 4.49905 17.6 4.64853 17.6H19.149C19.2978 17.6 19.3999 17.5011 19.3999 17.3528C19.3999 17.2029 19.3008 17.0987 19.152 17.0987H19.149ZM5.89681 9.09446V8.59616H17.8953V9.09446H5.89681ZM16.1445 15.0995V9.59641V9.59566H15.147V15.0995H16.1445ZM13.6448 9.59641V15.0995H12.645V9.59566H13.644L13.6448 9.59641ZM11.1449 15.0995V9.59641V9.59566H10.1474V15.0995H11.1449ZM8.64529 9.59641V15.0995H7.64854V9.59566H8.64529V9.59641ZM5.8999 16.0991H17.8954H17.8976V15.5978H5.8999V16.0991Z" fill="white"/>
</svg>
