<svg width="24" height="24" viewBox="0 0 24 24" fill="none" xmlns="http://www.w3.org/2000/svg">
<path d="M12 0C18.6264 0 24 5.3736 24 12C24 18.6264 18.6264 24 12 24C5.3736 24 0 18.6264 0 12C0 5.3736 5.3736 0 12 0Z" fill="#FFCCD5"/>
<path fill-rule="evenodd" clip-rule="evenodd" d="M14.1792 6.03119C15.4416 6.03119 16.488 6.44639 17.3088 7.27679C18.1344 8.10719 18.5496 9.15839 18.5496 10.4304C18.5496 11.7072 18.1344 12.756 17.3136 13.5864C16.4928 14.4168 15.4464 14.832 14.184 14.832H11.8152V18.2064H9V16.3608C10.1304 16.0032 10.9488 14.9448 10.9488 13.6968C10.9488 12.4488 10.1304 11.3904 9 11.0328V9.29279V6.03119H14.1792ZM13.7424 12.5424C14.3136 12.5424 14.7792 12.3432 15.144 11.9496C15.5088 11.556 15.6936 11.052 15.6912 10.4376C15.6912 9.82317 15.5088 9.31917 15.144 8.92557C14.7768 8.53197 14.3088 8.33277 13.7424 8.33277H11.8104V12.5424H13.7424Z" fill="black"/>
<path d="M7.54586 15.7584C8.67386 15.7584 9.58586 14.844 9.58586 13.7184C9.58586 12.5904 8.67146 11.6784 7.54586 11.6784C6.42026 11.6784 5.50586 12.5928 5.50586 13.7184C5.50586 14.8464 6.42026 15.7584 7.54586 15.7584Z" fill="#FF3465"/>
</svg>
