<svg width="24" height="24" viewBox="0 0 24 24" fill="none" xmlns="http://www.w3.org/2000/svg">
<circle cx="12" cy="12" r="12" fill="#EDF0F4"/>
<path d="M17.6018 8.57484L16.9438 8.09664L18.4827 7.32001L17.6018 8.57484Z" fill="#3F4B80"/>
<path d="M13.6899 7.00003L15.6063 7.9852L15.8365 9.57441L13.6899 7.00003Z" fill="#313A62"/>
<path d="M15.8365 9.57441L15.5308 10.9263L13.6899 7.00003L15.8365 9.57441Z" fill="#3F4B80"/>
<path d="M15.5311 10.9263L12.5972 7.22293L13.6938 7.0072L15.5311 10.9263Z" fill="#4B5897"/>
<path d="M15.5307 10.9263L12.3486 9.68229L12.5967 7.22296L15.5307 10.9263Z" fill="#5161A4"/>
<path d="M12.597 7.22296L12.3489 9.68229L9.06982 10.1425L12.597 7.22296Z" fill="#4B5897"/>
<path d="M15.5307 10.9263L12.0215 11.8791L12.3487 9.68225L15.5307 10.9263Z" fill="#4B5897"/>
<path d="M12.0215 11.8791L15.5307 10.9263L13.9487 11.6634L12.0215 11.8791Z" fill="#3F4B80"/>
<path d="M10.0835 12.2099L12.0215 11.8791L12.0538 12.5407L10.0835 12.2099Z" fill="#3F4B80"/>
<path d="M12.0538 12.5408L12.0215 11.8792L13.9487 11.6635L12.0538 12.5408Z" fill="#313A62"/>
<path d="M9.06982 10.1425L12.3489 9.68225L12.0217 11.8791L9.06982 10.1425Z" fill="#3F4B80"/>
<path d="M9.06982 10.1425L12.0217 11.8791L10.0838 12.2099L9.06982 10.1425Z" fill="#4B5897"/>
<path d="M9.06982 10.1425L10.0838 12.2099L9.10578 12.9254L9.06982 10.1425Z" fill="#313A62"/>
<path d="M7.405 10.6998L7.79691 13.0548L6.71826 11.4333L7.405 10.6998Z" fill="#5161A4"/>
<path d="M5.47412 11.4477L6.71817 11.4333L6.72536 12.1919L5.47412 11.4477Z" fill="#313A62"/>
<path d="M5.5748 11.9619L5.47412 11.4477L6.72536 12.192L5.5748 11.9619Z" fill="#3F4B80"/>
<path d="M5.5747 11.9618L4.86279 12.5911L5.47403 11.4477L5.5747 11.9618Z" fill="#4B5897"/>
<path d="M4.86292 12.5911L4.81258 12.9722L4 12.8392L4.86292 12.5911Z" fill="#313A62"/>
<path d="M4.86284 12.591L5.57475 11.9618L4.8125 12.9721L4.86284 12.591Z" fill="#5161A4"/>
<path d="M6.71826 11.4333L7.79691 13.0549L6.72545 13.267L6.71826 11.4333Z" fill="#3F4B80"/>
<path d="M7.03444 14.4751L6.25422 16.0895L6.13916 14.8454L7.03444 14.4751Z" fill="#3F4B80"/>
<path d="M6.13907 14.8454L6.25413 16.0894L5.80469 16.3052L6.13907 14.8454Z" fill="#1F243E"/>
<path d="M6.2543 16.0894L6.37295 16.6971L5.44531 16.8876L6.2543 16.0894Z" fill="#3F4B80"/>
<path d="M5.80486 16.3051L6.2543 16.0894L5.44531 16.8876L5.80486 16.3051Z" fill="#313A62"/>
<path d="M6.72523 13.2669L7.79669 13.0548L6.13916 14.8454L6.72523 13.2669Z" fill="#313A62"/>
<path d="M7.79669 13.0548L8.52657 13.8854L6.13916 14.8454L7.79669 13.0548Z" fill="#4B5897"/>
<path d="M7.40479 10.6998L9.0695 10.1425L7.79669 13.0549L7.40479 10.6998Z" fill="#4B5897"/>
<path d="M7.79688 13.0549L9.06968 10.1425L9.10564 12.9254L7.79688 13.0549Z" fill="#3F4B80"/>
<path d="M8.52676 13.8854L7.79688 13.0549L9.10564 12.9254L8.52676 13.8854Z" fill="#313A62"/>
<path d="M13.9487 11.6634L15.4912 11.6526L14.506 13.1556L13.9487 11.6634Z" fill="#4B5897"/>
<path d="M13.9487 11.6634L15.5308 10.9263L15.4912 11.6526L13.9487 11.6634Z" fill="#5161A4"/>
<path d="M13.6465 12.9938L13.9485 11.6635L14.5058 13.1556L13.6465 12.9938Z" fill="#3F4B80"/>
<path d="M13.2764 13.6913L13.6467 12.9938L14.506 13.1556L13.2764 13.6913Z" fill="#4B5897"/>
<path d="M12.5283 14.1911L12.762 13.0477L13.6465 12.9938L12.5283 14.1911Z" fill="#3F4B80"/>
<path d="M12.5283 14.1911L13.6465 12.9938L13.2762 13.6913L12.5283 14.1911Z" fill="#313A62"/>
<path d="M16.9438 8.09667L18.4108 7.06836L18.4827 7.32004L16.9438 8.09667Z" fill="#495692"/>
<path d="M18.4106 7.06833L19.6115 7.0072L18.4826 7.32001L18.4106 7.06833Z" fill="#5D6CAC"/>
<path d="M17.6414 9.4162L16.9727 8.94519L19.2342 8.94879L17.6414 9.4162Z" fill="#4F60A3"/>
<path d="M16.9727 8.94523L18.9178 8.69354L19.2342 8.94882L16.9727 8.94523Z" fill="#495692"/>
<path d="M18.9175 8.69352L19.8092 7.9133L19.2339 8.94881L18.9175 8.69352Z" fill="#3F4B80"/>
<path d="M19.2339 8.94881L19.8092 7.9133L19.9997 8.00319L19.2339 8.94881Z" fill="#4F60A3"/>
<path d="M19.8096 7.91331L19.9678 7.46387L20.0001 8.00319L19.8096 7.91331Z" fill="#313A62"/>
<path d="M15.8364 9.5744L16.0521 11.4656L15.5308 10.9263L15.8364 9.5744Z" fill="#313A62"/>
<path d="M16.0522 11.4656L15.8364 9.5744L17.6414 9.4162L16.0522 11.4656Z" fill="#3F4B80"/>
<path d="M17.6415 9.41624L15.8366 9.57444L15.6064 7.98523L17.6415 9.41624Z" fill="#4B5897"/>
<path d="M17.6019 8.57483L17.8931 8.8373L16.9727 8.94517L17.6019 8.57483Z" fill="#313A62"/>
<path d="M15.6064 7.98523L17.602 8.57489L16.9727 8.94523L15.6064 7.98523Z" fill="#3F4B80"/>
<path d="M15.6064 7.98523L16.944 8.09669L17.602 8.57489L15.6064 7.98523Z" fill="#313A62"/>
<path d="M17.5586 12.4077L17.6413 9.4162L18.3604 10.0023L17.5586 12.4077Z" fill="#3F4B80"/>
<path d="M17.5588 12.4077L17.6415 9.4162L16.0522 11.4656L17.5588 12.4077Z" fill="#495692"/>
<path d="M18.3602 10.0023L18.1301 9.25439L17.6411 9.41619L18.3602 10.0023Z" fill="#313A62"/>
<path d="M18.4575 11.9942L17.5586 12.4077L18.3604 10.0023L18.4575 11.9942Z" fill="#313A62"/>
</svg>
