<svg width="24" height="24" viewBox="0 0 24 24" fill="none" xmlns="http://www.w3.org/2000/svg">
<path d="M12 24C18.6276 24 24 18.6276 24 12C24 5.3724 18.6276 0 12 0C5.3724 0 0 5.3724 0 12C0 18.6276 5.3724 24 12 24Z" fill="#EDF0F4"/>
<path fill-rule="evenodd" clip-rule="evenodd" d="M3.3999 12C3.3999 7.25031 7.25025 3.39996 11.9999 3.39996C16.7496 3.39996 20.5999 7.25031 20.5999 12C20.5999 16.7496 16.7496 20.6 11.9999 20.6C7.25025 20.6 3.3999 16.7496 3.3999 12ZM19.3996 11.9999C19.3996 7.91304 16.0865 4.59995 11.9996 4.59995C7.91272 4.59995 4.59963 7.91304 4.59963 11.9999C4.59963 16.0869 7.91272 19.3999 11.9996 19.3999C16.0865 19.3999 19.3996 16.0869 19.3996 11.9999Z" fill="#3740C2"/>
<path d="M13.1704 8.70913C13.0479 8.5866 12.8816 8.51795 12.7083 8.51837H12.7067C12.533 8.51833 12.3666 8.58801 12.2448 8.71175L7.13949 13.8415C7.01667 13.9641 6.94799 14.1307 6.94874 14.3043C6.94918 14.479 7.01782 14.6432 7.14164 14.7666C7.26387 14.8891 7.42993 14.9577 7.60298 14.9573C7.7782 14.9573 7.94337 14.8887 8.06719 14.7647L13.1723 9.63468C13.4267 9.37829 13.4258 8.96446 13.1704 8.70913H13.1704Z" fill="#2DB8E3"/>
<path d="M16.1347 8.58073C15.8899 8.47848 15.6075 8.53514 15.4211 8.72391L10.3153 13.8541C10.0606 14.1105 10.0617 14.5246 10.3177 14.7797C10.5742 15.0343 10.9884 15.0331 11.2435 14.7771L15.2301 10.7713V14.3155C15.2304 14.6768 15.5233 14.9697 15.8846 14.97C16.246 14.9697 16.5388 14.6768 16.5391 14.3155V9.18573C16.5399 8.92058 16.38 8.68137 16.1347 8.58073H16.1347Z" fill="#3840C7"/>
</svg>
