<svg width="24" height="24" viewBox="0 0 24 24" fill="none" xmlns="http://www.w3.org/2000/svg">
<circle cx="12" cy="12" r="12" fill="#105B2F"/>
<path fill-rule="evenodd" clip-rule="evenodd" d="M8.73229 15.1252L9.02479 13.635V13.6358H9.22879C9.48284 13.6359 9.73688 13.6362 9.99093 13.6365C10.7531 13.6373 11.5154 13.6382 12.2776 13.6365C13.0591 13.635 13.8346 13.5698 14.5906 13.3605C15.5439 13.0965 16.3974 12.6623 17.0199 11.8883C17.8629 10.8368 18.1412 9.63006 17.9349 8.31683C17.8022 7.47159 17.3244 6.8611 16.5309 6.5086C16.2549 6.3856 15.9526 6.30611 15.6549 6.24461C14.7901 6.06686 13.9089 6.02186 13.0298 6.01061C12.0617 5.99807 11.0932 5.99949 10.1248 6.0009C9.58684 6.00168 9.04889 6.00247 8.51103 6.00086C8.37303 6.00086 8.34978 6.07361 8.32878 6.17936C8.26168 6.51946 8.19348 6.85934 8.12527 7.19925C8.01509 7.74833 7.90489 8.2975 7.79927 8.84782C7.77077 8.99182 7.71452 9.03382 7.56827 9.02932C7.38343 9.02297 7.19805 9.02457 7.01245 9.02616C6.89078 9.02721 6.76902 9.02825 6.64726 9.02707C6.54226 9.02632 6.49201 9.05482 6.47251 9.16732C6.4241 9.44786 6.36919 9.72732 6.3143 10.0067C6.29009 10.1299 6.26589 10.2531 6.24225 10.3763C6.23826 10.3972 6.23759 10.4189 6.2367 10.4473C6.23626 10.4616 6.23576 10.4777 6.23475 10.4963H7.49252L6 17.9512C6.01468 17.9567 6.02625 17.9616 6.03576 17.9656C6.05345 17.973 6.06401 17.9774 6.07425 17.9774C6.29472 17.9799 6.51519 17.9822 6.73567 17.9844C7.1767 17.9889 7.61774 17.9934 8.05878 17.9999C8.16378 18.0014 8.18478 17.9459 8.19978 17.8634L8.73229 15.1252ZM9.65316 11.5815H9.44091L9.65841 10.4895H12.7357L13.0177 9.03606H9.95017L10.1332 8.10007C10.1504 8.09861 10.1663 8.09699 10.1812 8.09548C10.2122 8.09231 10.2391 8.08957 10.2659 8.08957C10.5786 8.09042 10.8912 8.09037 11.2038 8.09031C11.9956 8.09018 12.7872 8.09005 13.5787 8.10457C13.9738 8.11545 14.3673 8.15809 14.7555 8.23207C15.2857 8.32807 15.5977 8.66931 15.6862 9.19205C15.7561 9.55961 15.6953 9.94002 15.5145 10.2675C15.093 11.0228 14.4337 11.439 13.566 11.5425C13.3387 11.5703 13.107 11.58 12.8782 11.58C12.096 11.5827 11.3142 11.5823 10.5325 11.5819C10.2394 11.5817 9.94627 11.5815 9.65316 11.5815Z" fill="white"/>
</svg>
