<svg width="24" height="24" viewBox="0 0 24 24" fill="none" xmlns="http://www.w3.org/2000/svg">
<circle cx="12" cy="12" r="12" fill="#EDF0F4"/>
<path d="M19.8166 11.8297C19.3704 11.3995 18.9485 10.9457 18.5024 10.5155C18.3713 10.4145 18.3253 10.2375 18.3911 10.0853C18.5746 9.464 18.7337 8.84269 18.9089 8.22137C18.9568 8.06988 18.9325 8.00659 18.7657 7.96632C18.1284 7.80716 17.4994 7.61603 16.8538 7.45623C16.6704 7.4166 16.5988 7.32072 16.5591 7.15324C16.4 6.53193 16.2248 5.92659 16.0733 5.30527C16.0254 5.12182 15.9698 5.08219 15.7863 5.1378C15.165 5.31295 14.536 5.47211 13.9147 5.63191C13.8112 5.66387 13.7153 5.68752 13.62 5.59228C13.1099 5.06749 12.5762 4.5657 12.0827 4.01598C12.0265 4.01726 11.9702 4.01215 11.9153 4C11.9184 4.04219 11.8967 4.0831 11.8596 4.10355C11.3815 4.57337 10.904 5.0432 10.4336 5.52133C10.3434 5.63191 10.1913 5.67091 10.059 5.61721C9.43766 5.44207 8.81634 5.2829 8.19502 5.10712C8.01988 5.05918 7.94829 5.09114 7.90035 5.27459C7.74118 5.89591 7.55773 6.51722 7.39856 7.13854C7.38194 7.26894 7.28159 7.37313 7.15183 7.39359C6.52284 7.55275 5.90919 7.7279 5.28021 7.87939C5.0731 7.92733 5.01749 7.99892 5.08077 8.2137C5.26423 8.82734 5.40741 9.45633 5.58256 10.0776C5.63881 10.21 5.59982 10.3627 5.48667 10.4522C5.01685 10.9061 4.56237 11.3765 4.09255 11.8304C3.96534 11.9499 3.97302 12.0215 4.09255 12.141C4.5547 12.5949 5.00087 13.057 5.46238 13.5109C5.57616 13.5952 5.61899 13.7461 5.56594 13.8771C5.39079 14.4908 5.2393 15.1038 5.05584 15.7174C4.99192 15.9322 5.02388 16.0204 5.25528 16.076C5.8766 16.2275 6.48193 16.4103 7.10325 16.5618C7.2867 16.6015 7.35829 16.6973 7.39792 16.8648C7.55709 17.4938 7.73223 18.1075 7.89204 18.7364C7.93167 18.8956 7.98792 18.9359 8.14708 18.8879C8.76073 18.7128 9.38141 18.5696 9.99505 18.3938C10.1581 18.3325 10.3421 18.3842 10.4489 18.521C10.8868 18.9749 11.3329 19.4134 11.7714 19.8672C11.9069 20.0104 11.9862 20.0187 12.13 19.8749C12.5679 19.4127 13.03 18.9749 13.4762 18.5127C13.5766 18.3804 13.7524 18.3318 13.9064 18.3932C14.52 18.5766 15.1331 18.7275 15.7467 18.9033C15.9218 18.9512 15.9934 18.9193 16.0414 18.7358C16.1929 18.1222 16.384 17.5091 16.5355 16.8955C16.5751 16.712 16.6627 16.6405 16.8385 16.6008C17.4598 16.4493 18.0651 16.2742 18.6864 16.1227C18.8699 16.0831 18.9255 16.0115 18.8699 15.8197C18.6948 15.1984 18.5356 14.5611 18.3598 13.9321C18.3036 13.7998 18.3425 13.647 18.4557 13.5575C18.9095 13.1197 19.3557 12.6575 19.8179 12.2197C19.984 12.0611 19.9681 11.9812 19.8166 11.8297Z" fill="#05BCA9"/>
<path d="M8.00384 11.4718C8.00384 11.4725 8.00384 11.4731 8.00384 11.4737C8.00128 11.7441 7.78012 11.9608 7.50973 11.9583H7.01562C6.80851 11.9583 6.60141 11.9583 6.38663 11.9659C6.27541 11.9659 6.24345 11.9263 6.2671 11.8144C6.32271 11.5837 6.37832 11.4002 6.68131 11.3523C7.07187 11.2967 7.44581 11.1612 7.82806 11.0493C7.96357 11.0173 8.01918 11.0333 8.0032 11.1765C7.99617 11.2724 8.00384 11.3759 8.00384 11.4718Z" fill="#EDF0F4"/>
<path d="M7.98046 15.8177C7.6519 15.5083 7.35786 15.2226 7.05615 14.9369C7.3112 14.7937 7.55794 14.6582 7.797 14.515C7.93251 14.4351 7.98046 14.4511 7.98046 14.6186C7.97279 15.0072 7.98046 15.4048 7.98046 15.8177Z" fill="#EDF0F4"/>
<path d="M7.09607 14.7696C7.00019 14.8252 6.97653 14.8015 6.95288 14.7056C6.88129 14.4186 6.79372 14.1323 6.72213 13.8453C6.70615 13.7813 6.69848 13.7021 6.76176 13.6618C6.82568 13.6222 6.87298 13.6778 6.92092 13.7014C7.24756 13.8849 7.5742 14.076 7.94878 14.2831C7.64579 14.4506 7.36645 14.6021 7.09607 14.7696Z" fill="#EDF0F4"/>
<path d="M6.49122 10.4995C6.41132 10.699 6.13262 10.7303 5.9498 10.8581C5.76635 10.3883 5.76635 10.3883 6.08532 10.0617C6.3084 9.8386 6.53149 9.62382 6.75457 9.40074C6.77503 9.38795 6.79612 9.37772 6.8185 9.36877C6.70599 9.76701 6.6344 10.1493 6.49122 10.4995Z" fill="#EDF0F4"/>
<path d="M6.96838 9.28114C6.98436 9.20955 7.03997 9.22553 7.07961 9.24918C7.35063 9.40835 7.61335 9.56751 7.9157 9.74329C7.48551 9.99003 7.09495 10.2131 6.64941 10.4522C6.76128 10.0297 6.86483 9.65508 6.96838 9.28114Z" fill="#EDF0F4"/>
<path d="M6.1322 11.3759C6.04463 11.3759 6.04463 11.2883 6.02865 11.2327C5.94107 10.97 5.95705 10.954 6.43519 10.7546C6.39044 10.938 6.34761 11.0889 6.31118 11.2327C6.29903 11.3203 6.22041 11.3836 6.1322 11.3759Z" fill="#EDF0F4"/>
<path d="M5.65414 11.5115C5.35115 11.5914 5.04881 11.663 4.74582 11.7345L4.72217 11.7026L5.82162 11.0576C6.00507 11.4002 5.99676 11.4239 5.65414 11.5115Z" fill="#EDF0F4"/>
<path d="M5.8852 11.5754C6.09231 11.5274 6.02839 11.7428 6.06866 11.8304C6.10829 11.918 6.05268 11.9576 5.95743 11.9576H4.65855C4.65855 11.9416 4.65088 11.918 4.65088 11.902C5.05678 11.7984 5.46268 11.6789 5.8852 11.5754Z" fill="#EDF0F4"/>
<path d="M6.19717 12.329C6.27644 12.63 6.3557 12.9311 6.44583 13.2558C5.84177 12.9618 5.91976 13.1274 6.19717 12.329Z" fill="#EDF0F4"/>
<path d="M5.99237 13.1842C6.19181 13.1765 6.54977 13.5108 6.54977 13.6942C6.49863 13.8298 6.3906 13.957 6.28705 14.1008C6.27938 14.1008 6.27107 14.1085 6.2634 14.1085C6.1835 14.1244 5.79358 13.6463 5.80956 13.5587C5.81723 13.5428 5.81723 13.5268 5.82554 13.5108C5.88051 13.3989 5.81723 13.1918 5.99237 13.1842Z" fill="#EDF0F4"/>
<path d="M6.16742 14.4984C6.24732 14.3789 6.30294 14.331 6.41416 14.4665C6.51707 14.5841 6.62574 14.6953 6.7408 14.8008C6.78043 14.8487 6.86033 14.8884 6.75678 14.9523C6.30293 15.2073 5.84078 15.47 5.38694 15.7251C5.37416 15.7136 5.36393 15.7002 5.35498 15.6855C5.62217 15.2872 5.8932 14.8967 6.16742 14.4984Z" fill="#EDF0F4"/>
<path d="M6.61076 13.8931C6.68235 14.1482 6.74627 14.4032 6.81787 14.6736C6.3001 14.3073 6.28412 14.2594 6.61076 13.8931Z" fill="#EDF0F4"/>
<path d="M6.80183 13.3435C6.71426 13.479 6.61837 13.4234 6.58705 13.3115C6.47583 12.9293 6.37228 12.547 6.27639 12.1648C6.23676 12.0376 6.34799 12.0689 6.41191 12.0689H7.67819C7.36689 12.5234 7.0882 12.9376 6.80183 13.3435Z" fill="#EDF0F4"/>
<path d="M7.93238 10.906C7.44658 11.0332 6.96078 11.1611 6.45068 11.2966C6.48264 10.8344 6.64181 10.5321 7.06433 10.3646C7.38266 10.2374 7.66967 10.0303 8.01228 9.83917V10.7948C8.01932 10.8466 7.9848 10.8958 7.93238 10.906Z" fill="#EDF0F4"/>
<path d="M8.00392 8.46048V9.6475C7.70924 9.48003 7.44653 9.32086 7.19148 9.16937C7.10391 9.12143 7.08026 9.07349 7.16783 8.98591C7.38261 8.77881 7.58971 8.5717 7.79682 8.35693C7.83581 8.30004 7.90996 8.28022 7.97196 8.30899C8.03588 8.33328 8.00392 8.40487 8.00392 8.46048Z" fill="#EDF0F4"/>
<path d="M7.11963 8.78715C7.19953 8.22145 7.23916 8.18182 7.65337 8.30902C7.46992 8.47649 7.2871 8.63566 7.11963 8.78715Z" fill="#EDF0F4"/>
<path d="M7.94093 5.72076C7.95691 5.72843 7.98057 5.72843 7.99655 5.73674V6.79592C7.99655 7.23378 7.99655 7.23378 7.51074 7.2977C7.65393 6.76396 7.79711 6.23853 7.94093 5.72076Z" fill="#EDF0F4"/>
<path d="M7.41444 7.62441C7.4464 7.41731 7.60556 7.44096 7.74107 7.38535C7.97183 7.28947 8.01977 7.39302 7.99612 7.59245V7.68833C7.99612 8.11853 7.78134 8.27769 7.38248 8.13451C7.33454 8.11853 7.30257 8.10255 7.31088 8.0546C7.34284 7.91078 7.39079 7.7676 7.41444 7.62441Z" fill="#EDF0F4"/>
<path d="M5.58223 7.95099C6.15113 7.80781 6.72131 7.65632 7.31897 7.50482C7.27103 7.69595 7.2314 7.84744 7.19177 8.0066C7.15981 8.13381 7.06456 8.11016 6.97699 8.10249C6.51484 8.06286 6.04502 8.03089 5.5752 7.99126C5.58095 7.97848 5.58351 7.96442 5.58223 7.95099Z" fill="#EDF0F4"/>
<path d="M6.98402 8.2214C7.09525 8.22907 7.11954 8.26934 7.09525 8.38056C6.95206 9.03384 6.95973 9.03384 6.39403 8.69889C6.09935 8.52375 5.79636 8.3486 5.46973 8.15748C6.00475 8.11017 6.49822 8.19775 6.98402 8.2214Z" fill="#EDF0F4"/>
<path d="M5.25573 8.26161C5.24806 8.23796 5.24806 8.22198 5.23975 8.19769C5.2634 8.19769 5.27938 8.20536 5.30367 8.20536C5.7818 8.48406 6.2676 8.77107 6.76107 9.04976C6.80902 9.08172 6.88061 9.09771 6.80071 9.18528C6.47407 9.51959 6.15574 9.8622 5.83677 10.2048C5.80609 10.1946 5.77669 10.1818 5.7492 10.1652C5.58236 9.5279 5.4232 8.89891 5.25573 8.26161Z" fill="#EDF0F4"/>
<path d="M5.6705 10.4758C5.69416 10.4995 5.71845 10.5078 5.71845 10.5155C5.82967 10.922 5.82967 10.922 5.4634 11.1291C5.19237 11.2883 4.91368 11.4398 4.61133 11.6072C4.9776 11.2084 5.32022 10.8421 5.6705 10.4758Z" fill="#EDF0F4"/>
<path d="M4.38023 12.0688C4.89032 12.0688 5.3921 12.0688 5.90156 12.0611C6.03707 12.0611 6.09268 12.0847 6.03707 12.2445C5.95717 12.4593 5.96548 12.8019 5.8223 12.8735C5.65482 12.9611 5.42407 12.6984 5.22463 12.5948C4.93762 12.4433 4.65893 12.2682 4.37256 12.109C4.37512 12.0956 4.37831 12.0822 4.38023 12.0688Z" fill="#EDF0F4"/>
<path d="M4.5791 12.4198L4.58677 12.4121C4.99331 12.5636 5.3436 12.8186 5.71754 13.0258C5.82109 13.0814 5.79744 13.2252 5.64595 13.5275C5.28032 13.16 4.91341 12.8097 4.5791 12.4198Z" fill="#EDF0F4"/>
<path d="M5.7256 13.8292C5.74925 13.8369 5.77354 13.8369 5.78121 13.8452C6.19542 14.2434 6.19542 14.2434 5.86878 14.7133C5.69364 14.9683 5.51019 15.215 5.33504 15.4618L5.29541 15.4298L5.7256 13.8292Z" fill="#EDF0F4"/>
<path d="M5.23975 15.9559C5.79714 15.6376 6.29892 15.3506 6.80902 15.0635C6.87294 15.0239 6.9049 15.0316 6.92855 15.1115C7.04808 15.5653 7.16762 16.0115 7.30313 16.5133C6.59424 16.3145 5.94864 16.1393 5.23975 15.9559Z" fill="#EDF0F4"/>
<path d="M7.95983 18.282C7.94385 18.282 7.92787 18.2897 7.91189 18.2897C7.76871 17.7719 7.6332 17.2542 7.49001 16.7204H7.48682C7.54243 16.7127 7.55841 16.7044 7.57758 16.7127C7.95983 16.8003 7.95983 16.8003 7.95983 17.1986V18.282Z" fill="#EDF0F4"/>
<path d="M7.97247 16.6571C7.91685 16.6647 7.90854 16.6731 7.90854 16.6731C7.55825 16.6494 7.36713 16.4736 7.31919 16.1157C7.27125 15.8127 7.176 15.5263 7.14404 15.2073C7.39909 15.4624 7.66948 15.7014 7.90087 15.9801C8.06771 16.1789 7.90854 16.4263 7.97247 16.6571Z" fill="#EDF0F4"/>
<path d="M8.00402 12.834L7.98037 13.9494C7.98037 14.0926 7.95672 14.1566 7.80523 14.0607C7.5342 13.9015 7.26381 13.7423 6.98448 13.5985C6.86494 13.5346 6.86494 13.479 6.93654 13.3754C7.21523 12.9772 7.49393 12.579 7.76496 12.1724C7.79628 12.1021 7.87235 12.0625 7.94841 12.0765C8.05963 12.0925 8.00402 12.1801 8.00402 12.2357C8.01233 12.4351 8.00402 12.6346 8.00402 12.834Z" fill="#EDF0F4"/>
<path d="M14.8544 9.07409C14.6153 8.91492 14.3207 8.851 14.2171 8.54034C14.1756 8.45149 14.1788 8.34794 14.2248 8.26165C14.4319 7.91903 14.6313 7.57641 14.8225 7.23379C14.9024 7.09828 14.9497 7.12257 15.0532 7.21014C15.2284 7.36163 15.2923 7.51313 15.2124 7.74388C15.0775 8.18174 14.9739 8.62792 14.8544 9.07409Z" fill="#EDF0F4"/>
<path d="M15.85 15.0801C15.85 15.741 15.85 15.741 15.1891 15.6854C14.8708 15.6618 14.5441 15.6298 14.2251 15.6055C14.1452 15.5978 14.082 15.5895 14.0577 15.4943C14.034 15.3984 14.1216 15.3907 14.1772 15.3588C14.679 15.0801 15.1731 14.8014 15.6666 14.5144C15.8181 14.4268 15.866 14.4664 15.85 14.6339C15.8417 14.7854 15.85 14.9286 15.85 15.0801Z" fill="#EDF0F4"/>
<path d="M12.9744 17.095C12.7033 16.8956 12.3927 16.7447 12.082 16.5613C12.369 16.4021 12.6318 16.2506 12.9028 16.0914C12.9494 16.0556 13.0159 16.0627 13.0543 16.1074C13.4046 16.4577 13.7632 16.8086 14.1294 17.1749C14.0815 17.2145 14.0738 17.2228 14.0738 17.2228C13.6833 17.398 13.3253 17.366 12.9744 17.095Z" fill="#EDF0F4"/>
<path d="M13.301 17.4299C12.8867 17.5335 12.5205 17.637 12.1542 17.7329C12.0666 17.7566 12.0347 17.7329 12.0347 17.637V16.6814C12.4725 16.9358 12.8631 17.1666 13.301 17.4299Z" fill="#EDF0F4"/>
<path d="M9.25463 17.0393C9.14341 17.0073 9.19902 16.9434 9.23098 16.8878C9.43809 16.5292 9.65287 16.1706 9.87595 15.7807C10.1067 16.2665 10.3221 16.7127 10.5292 17.1588C10.6091 17.318 10.5292 17.3736 10.402 17.3423C10.0191 17.2547 9.63688 17.1429 9.25463 17.0393Z" fill="#EDF0F4"/>
<path d="M10.3063 17.4458C9.78087 17.7961 9.76489 17.7884 9.30273 17.1747C9.64471 17.27 9.96368 17.3499 10.3063 17.4458Z" fill="#EDF0F4"/>
<path d="M9.09875 15.0558C9.10642 15.0162 9.13071 14.9759 9.17865 15.0079C9.34612 15.1115 9.54492 15.1594 9.66445 15.3345C9.78398 15.5097 9.83192 15.6848 9.68043 15.8919C9.49889 16.1585 9.33653 16.4385 9.19463 16.728C9.0751 16.9588 8.97985 16.9428 8.84434 16.76C8.78873 16.6801 8.67687 16.6405 8.70116 16.5133C8.83219 16.0281 8.96004 15.5417 9.09875 15.0558Z" fill="#EDF0F4"/>
<path d="M8.11586 7.44096C8.11459 7.43456 8.11331 7.42753 8.11331 7.42114C8.10628 7.33357 8.17212 7.25686 8.25969 7.24983C8.43483 7.21787 8.60998 7.16993 8.78512 7.12263C8.80621 7.11879 8.82795 7.11879 8.84904 7.12263C8.83434 7.13222 8.82283 7.14628 8.81708 7.16226C8.594 7.37703 8.37091 7.60012 8.11586 7.8475C8.11586 7.696 8.12354 7.5688 8.11586 7.44096Z" fill="#EDF0F4"/>
<path d="M8.17133 7.99901C8.45834 7.69602 8.75302 7.40135 9.07134 7.07471C9.31808 7.5049 9.5335 7.88715 9.78854 8.31734C9.22284 8.27771 8.70507 8.24575 8.19562 8.19014C8.04413 8.17415 8.10741 8.06229 8.17133 7.99901Z" fill="#EDF0F4"/>
<path d="M10.8874 6.87586C11.1821 7.10661 11.5324 7.27409 11.891 7.48119C11.604 7.64867 11.3496 7.79185 11.0945 7.94335C11.0306 7.98298 10.9833 8.00727 10.9194 7.94335C10.5691 7.58475 10.2105 7.23446 9.83594 6.85988C10.2188 6.70838 10.5372 6.60483 10.8874 6.87586Z" fill="#EDF0F4"/>
<path d="M10.6724 6.62084C11.0789 6.50961 11.4369 6.41373 11.8031 6.31785C11.8907 6.2942 11.9386 6.30187 11.9386 6.41373V7.36168C11.5085 7.11431 11.1102 6.87588 10.6724 6.62084Z" fill="#EDF0F4"/>
<path d="M11.6397 9.95811C11.5598 9.86223 11.4326 9.96578 11.3367 9.99007C10.9384 10.086 10.9461 10.0936 10.739 9.73503C10.5639 9.4167 10.3887 9.09773 10.1976 8.78707C10.126 8.65987 10.1337 8.59595 10.2692 8.54033C10.3491 8.50837 10.4207 8.46874 10.4923 8.43678C10.6597 8.36519 10.8106 8.17406 10.9704 8.20603C11.1539 8.24566 11.2651 8.46107 11.4083 8.59659C11.8512 9.04276 12.2891 9.4966 12.7436 9.92679C12.9149 10.084 13.0204 10.3001 13.0383 10.5321C12.5237 10.4446 12.0187 10.3647 11.5201 10.2694C11.5201 10.2534 11.5125 10.2374 11.5201 10.2215C11.5438 10.1256 11.7272 10.0693 11.6397 9.95811Z" fill="#EDF0F4"/>
<path d="M8.1236 8.94626L8.1268 8.86635C8.1268 8.30065 8.1268 8.30065 8.67652 8.34092C9.02681 8.36457 9.38541 8.40484 9.7357 8.42849C9.8156 8.43616 9.884 8.43616 9.90765 8.53205C9.9313 8.62793 9.84373 8.6356 9.79643 8.66756L8.29108 9.52794C8.13191 9.62382 8.11593 9.55159 8.1236 9.41672C8.13191 9.25691 8.1236 9.10606 8.1236 8.94626Z" fill="#EDF0F4"/>
<path d="M8.62514 9.47994C9.04702 9.27284 9.43758 9.03377 9.83581 8.79471C9.98731 8.69882 10.0429 8.74676 10.1145 8.88228C10.3056 9.24855 10.5127 9.60715 10.7282 9.95743C10.8157 10.1006 10.7921 10.1409 10.6323 10.1805C9.87544 10.3716 9.11861 10.5788 8.36242 10.7859C8.19495 10.8338 8.13167 10.8178 8.15532 10.6344C8.16299 10.5231 8.15532 10.4036 8.15532 10.2202C8.01981 9.84685 8.26718 9.64742 8.62514 9.47994Z" fill="#EDF0F4"/>
<path d="M8.13173 11.7901C8.1394 11.6866 8.15538 11.5754 8.15538 11.4718C8.16305 10.97 8.16305 10.97 8.63351 10.8428C9.24716 10.6837 9.86017 10.5245 10.4738 10.3487C10.7205 10.2771 10.9596 10.2452 11.2223 10.3724C10.888 10.7706 10.5614 11.1688 10.2424 11.567C10.1312 11.4871 10.1785 11.28 10.043 11.296C9.92345 11.312 9.95541 11.4871 9.91578 11.5907C9.88701 11.668 9.86592 11.7479 9.85186 11.8298C9.85186 11.8317 9.85122 11.8342 9.85122 11.8362C9.83651 11.9263 9.7515 11.9876 9.66073 11.9729C9.20689 11.9653 8.75241 11.957 8.29857 11.9653C8.15538 11.9653 8.11575 11.9097 8.13173 11.7901Z" fill="#EDF0F4"/>
<path d="M9.8286 6.71601C9.74742 6.74541 9.65729 6.70706 9.62149 6.62844C9.56588 6.54086 9.65345 6.5089 9.69308 6.46927C9.88421 6.26217 9.89252 6.26217 10.3304 6.5805C10.1469 6.62844 9.98009 6.6604 9.8286 6.71601Z" fill="#EDF0F4"/>
<path d="M9.64788 6.32609C9.54432 6.47758 9.44844 6.48525 9.31357 6.33376C9.11413 6.11067 8.89169 5.90357 8.67627 5.68879C8.68394 5.67281 8.69225 5.64916 8.69992 5.63318C9.0713 5.77636 9.38196 6.03141 9.71947 6.19888C9.72778 6.26983 9.67217 6.28582 9.64788 6.32609Z" fill="#EDF0F4"/>
<path d="M9.94775 7.14621C10.2507 7.44089 10.5454 7.73557 10.8721 8.05453C10.7231 8.15297 10.5691 8.24374 10.4099 8.32556C10.1875 8.42592 9.92538 8.33515 9.81223 8.11846C9.60513 7.75219 9.39802 7.39359 9.19092 7.02732C9.64476 6.84386 9.64476 6.85153 9.94775 7.14621Z" fill="#EDF0F4"/>
<path d="M8.10757 12.2758C8.10757 12.1243 8.13122 12.0611 8.30701 12.0687C8.7372 12.0847 9.16739 12.0764 9.59758 12.0764C9.70881 12.0764 9.77273 12.0924 9.7331 12.2279C9.50234 13.064 9.27925 13.9007 9.04786 14.7611C8.90467 14.6735 8.78514 14.6096 8.67328 14.5463C8.08392 14.212 8.08392 14.212 8.0999 13.5428C8.11588 13.1202 8.11588 12.6984 8.10757 12.2758Z" fill="#EDF0F4"/>
<path d="M10.0117 15.757C9.9721 15.6854 9.94781 15.6215 10.0194 15.5576C10.075 15.5019 10.123 15.5576 10.1709 15.5812C10.7206 15.8995 11.262 16.2262 11.8354 16.5611C11.4928 16.7606 11.1821 16.9434 10.8798 17.1268C10.7762 17.1984 10.7046 17.2227 10.6407 17.0712C10.4419 16.6333 10.2265 16.1948 10.0117 15.757Z" fill="#EDF0F4"/>
<path d="M9.86026 15.2394C9.79634 15.1998 9.74073 15.1518 9.67681 15.1122C9.50933 14.9927 9.23064 14.969 9.19101 14.7779C9.15137 14.6027 9.27091 14.3873 9.32652 14.1885C9.48568 13.6152 9.65316 13.0494 9.78867 12.4678C9.83533 12.2229 9.97532 12.0062 10.1792 11.8624C10.3384 12.3003 10.4899 12.7305 10.665 13.137C10.713 13.2802 10.7047 13.3365 10.5378 13.3045C10.4822 13.2968 10.4106 13.2725 10.3787 13.3365C10.3467 13.4004 10.4183 13.4323 10.4503 13.4796C10.5615 13.6311 10.8165 13.7187 10.8005 13.9175C10.7846 14.085 10.6331 14.2441 10.5378 14.4116C10.3863 14.6667 10.2348 14.9217 10.0917 15.1844C10.0277 15.3033 9.96381 15.3187 9.86026 15.2394Z" fill="#EDF0F4"/>
<path d="M10.7998 13.2322C10.6323 12.7783 10.4655 12.3162 10.298 11.8623C10.2539 11.7805 10.2705 11.6795 10.3376 11.6156C10.6642 11.241 10.9826 10.8588 11.2932 10.4765C11.3399 10.4056 11.4268 10.373 11.508 10.3966C11.9861 10.4842 12.4719 10.5718 12.9494 10.6517C13.0568 10.6619 13.1463 10.7386 13.1725 10.8428C13.3317 11.2806 13.4909 11.7268 13.6583 12.1653C13.7075 12.2612 13.6877 12.3775 13.6104 12.4523C13.2997 12.8109 12.9967 13.1849 12.6861 13.5518C12.6305 13.6157 12.5902 13.695 12.5026 13.6553C11.9772 13.5678 11.4748 13.4802 10.9653 13.3926C10.8637 13.3753 10.8317 13.3114 10.7998 13.2322Z" fill="#EDF0F4"/>
<path d="M12.4564 13.7735C12.4564 13.909 12.2416 13.973 12.3292 14.0765C12.4167 14.1801 12.5682 14.0842 12.6718 14.0369C12.9505 13.9097 13.0937 14.0132 13.2215 14.2676C13.3807 14.6019 13.5801 14.9209 13.7712 15.2392C13.8511 15.3748 13.8352 15.4463 13.6913 15.502C13.5987 15.5397 13.5085 15.5819 13.4203 15.6292C12.9825 15.8682 12.9825 15.8682 12.6398 15.5256C12.186 15.0718 11.7398 14.6173 11.286 14.1718C11.1108 13.9966 10.9434 13.8215 10.9434 13.5108C11.4528 13.5984 11.9546 13.6859 12.4564 13.7735Z" fill="#EDF0F4"/>
<path d="M14.1382 17.3339C14.22 17.3033 14.3114 17.3371 14.3529 17.4138C14.4009 17.4937 14.3133 17.5251 14.273 17.573C14.0819 17.7801 14.0819 17.7801 13.644 17.4618C13.8275 17.4138 13.9867 17.3819 14.1382 17.3339Z" fill="#EDF0F4"/>
<path d="M14.0344 16.9441C13.7793 16.6494 13.493 16.3867 13.2136 16.1157C13.1024 16.0045 13.1101 15.9565 13.2533 15.8926C13.4284 15.8127 13.5639 15.6535 13.787 15.7015C13.9781 15.6535 14.074 15.7654 14.1616 15.9322C14.3367 16.2589 14.5202 16.5772 14.7113 16.8962C14.7669 16.9997 14.7592 17.0394 14.6397 17.0873C14.4006 17.1825 14.2172 17.1589 14.0344 16.9441Z" fill="#EDF0F4"/>
<path d="M15.3434 14.5623C14.9292 14.7694 14.531 15.0161 14.1328 15.2475C14.0056 15.3191 13.9416 15.3274 13.8617 15.1836C13.6623 14.8013 13.4475 14.4268 13.2244 14.0605C13.1445 13.9333 13.1925 13.893 13.312 13.861C14.0925 13.6616 14.8653 13.4628 15.6381 13.2474C15.7896 13.2078 15.8375 13.2314 15.8216 13.3829C15.8139 13.5025 15.8216 13.6297 15.8216 13.8208H15.8184C15.9539 14.1954 15.7097 14.3948 15.3434 14.5623Z" fill="#EDF0F4"/>
<path d="M15.8421 12.2841C15.8344 12.38 15.8184 12.4836 15.8184 12.5788C15.8107 13.0806 15.8107 13.0729 15.3166 13.2078C14.719 13.367 14.1219 13.5261 13.5243 13.6936C13.2692 13.7652 13.0142 13.8208 12.7515 13.67L13.7391 12.4912C13.8503 12.5628 13.7947 12.7782 13.9302 12.754C14.0657 12.7303 14.0414 12.5468 14.0734 12.4356C14.1769 12.077 14.1769 12.077 14.5432 12.077C14.9095 12.077 15.284 12.0847 15.6586 12.077C15.8184 12.077 15.858 12.1403 15.8421 12.2841Z" fill="#EDF0F4"/>
<path d="M14.1688 11.6706C14.1132 11.8936 13.9937 12.0368 13.8026 12.1883C13.6191 11.6942 13.4523 11.2244 13.2771 10.7546C13.3883 10.6747 13.559 10.8185 13.5954 10.683C13.6351 10.5794 13.4759 10.5078 13.396 10.4279C13.1333 10.1569 13.1333 10.1652 13.3244 9.83025C13.5079 9.51959 13.699 9.22492 13.8582 8.90595C13.954 8.71482 14.0493 8.7308 14.1925 8.84203C14.2385 8.8791 14.2864 8.91362 14.3357 8.94558C14.4788 9.0568 14.7422 9.08876 14.7818 9.25624C14.8215 9.42371 14.7102 9.62251 14.6623 9.80596C14.5038 10.4279 14.3203 11.0492 14.1688 11.6706Z" fill="#EDF0F4"/>
<path d="M14.7188 7.01075C14.8224 7.0344 14.7744 7.10663 14.7425 7.16224C14.5354 7.52084 14.3283 7.87944 14.0975 8.26936C13.8584 7.78356 13.6513 7.32971 13.4442 6.89121C13.3726 6.73972 13.4366 6.67644 13.5714 6.70776C13.9543 6.79597 14.3366 6.90719 14.7188 7.01075Z" fill="#EDF0F4"/>
<path d="M13.6758 6.59648C14.2492 6.24619 14.0261 6.16629 14.6953 6.87518C14.3208 6.77993 14.0101 6.69236 13.6758 6.59648Z" fill="#EDF0F4"/>
<path d="M13.962 8.26937C13.994 8.33329 14.0336 8.40488 13.9697 8.47648C13.8898 8.56405 13.8342 8.47648 13.7786 8.44452C13.2371 8.13386 12.7034 7.81553 12.1377 7.48058C12.4963 7.27348 12.8306 7.08235 13.1496 6.89123C13.2531 6.82731 13.2928 6.86758 13.333 6.95515C13.5401 7.39301 13.7549 7.83151 13.962 8.26937Z" fill="#EDF0F4"/>
<path d="M15.1011 6.98707C14.9899 6.98707 15.0372 6.8995 15.0691 6.84389C15.2685 6.50127 15.4673 6.16696 15.6668 5.82434C15.6885 5.82562 15.7102 5.83137 15.7307 5.84032C15.6303 6.2149 15.5396 6.60482 15.4124 6.9794C15.3561 7.16222 15.2129 6.98707 15.1011 6.98707Z" fill="#EDF0F4"/>
<path d="M15.4995 5.864C15.3084 6.19831 15.109 6.53326 14.9178 6.86756C14.7031 6.64448 14.5113 6.43737 14.3042 6.2226C14.758 5.95988 15.2202 5.64922 15.7143 5.41016C15.7066 5.59297 15.5794 5.72081 15.4995 5.864Z" fill="#EDF0F4"/>
<path d="M14.0771 5.73677C14.499 5.61724 14.9215 5.51369 15.3517 5.40247L15.3754 5.45041H15.3722C14.9931 5.66518 14.6154 5.91256 14.2286 6.11135C14.0695 6.19125 13.9659 5.98415 13.902 5.85631C13.8381 5.72846 14.0132 5.75211 14.0771 5.73677Z" fill="#EDF0F4"/>
<path d="M13.6274 5.84027C13.8026 5.89588 13.8901 6.06336 14.018 6.16691C14.0244 6.18928 14.018 6.21357 14.002 6.23083C13.8333 6.34461 13.6543 6.44305 13.4683 6.52551C13.3327 6.57345 13.0061 6.17522 13.0464 6.0314C13.0464 6.00775 13.086 5.98345 13.1103 5.97578C13.2771 5.92784 13.444 5.88757 13.6274 5.84027Z" fill="#EDF0F4"/>
<path d="M13.5241 5.72079C13.5196 5.72463 13.5164 5.73038 13.5164 5.73677C12.991 5.92023 12.9827 5.92023 12.7436 5.41845C12.6164 5.14742 12.4885 4.8847 12.353 4.59003C12.5525 4.66929 13.3969 5.49771 13.5241 5.72079Z" fill="#EDF0F4"/>
<path d="M12.0669 4.44621C12.0905 4.44621 12.1065 4.43854 12.1308 4.43854C12.3456 4.89238 12.561 5.34686 12.7758 5.78472C12.8154 5.86462 12.8237 5.91193 12.7202 5.9522C12.0989 6.19893 12.0669 6.18295 12.0669 5.53031V4.44621Z" fill="#EDF0F4"/>
<path d="M12.2099 6.32617C12.4886 6.41375 12.7673 6.48534 13.046 6.55693C13.1099 6.57291 13.1732 6.58889 13.1892 6.66815C13.1969 6.71609 13.1655 6.73974 13.1253 6.76403C12.775 6.96347 12.4324 7.17058 12.0501 7.39302V6.44571C12.0424 6.31786 12.0904 6.2859 12.2099 6.32617Z" fill="#EDF0F4"/>
<path d="M12.1896 7.648C12.6997 7.95866 13.2092 8.26164 13.7269 8.55632C13.8541 8.62791 13.8625 8.68353 13.7909 8.80306C13.5601 9.16933 13.353 9.54391 13.1376 9.91849C13.082 10.022 13.0417 10.07 12.9305 9.95812C12.3168 9.35278 11.7038 8.75512 11.0589 8.12613H11.0557C11.374 7.94268 11.6373 7.79949 11.895 7.64033C11.9844 7.57896 12.1033 7.58216 12.1896 7.648Z" fill="#EDF0F4"/>
<path d="M10.5327 5.63319C10.9833 5.17104 11.4295 4.70889 11.8757 4.24738C11.8993 4.26336 11.9153 4.27934 11.9396 4.29532L11.9428 5.97581C11.9428 6.09534 11.8948 6.12731 11.7913 6.09534C11.3611 5.97581 10.9232 5.85628 10.4688 5.72907C10.4873 5.69456 10.5084 5.6626 10.5327 5.63319Z" fill="#EDF0F4"/>
<path d="M10.4335 5.86397C10.8317 5.96752 11.2382 6.07108 11.6365 6.1823V6.23791C11.3181 6.32548 10.9915 6.41306 10.6649 6.50894C10.3938 6.57286 10.2347 6.34146 10.0276 6.24622C10.0116 6.23855 10.0039 6.19828 10.0039 6.1823C10.0116 6.09473 10.3459 5.84032 10.4335 5.86397Z" fill="#EDF0F4"/>
<path d="M10.1549 5.768C9.91584 6.15856 9.89219 6.16623 9.54957 5.95913C9.25489 5.77567 8.92825 5.62482 8.65723 5.40173C9.17819 5.46565 9.65632 5.67276 10.1549 5.768Z" fill="#EDF0F4"/>
<path d="M8.52179 5.6889C8.79281 5.95993 9.07151 6.23032 9.32656 6.51733C9.46207 6.67649 9.23899 6.70845 9.19104 6.79602C9.15141 6.86761 9.09516 6.87592 9.04786 6.78835C8.84843 6.43806 8.64963 6.09544 8.4502 5.74515C8.47449 5.72854 8.49814 5.70488 8.52179 5.6889Z" fill="#EDF0F4"/>
<path d="M8.11612 6.4852C8.10014 6.15089 8.10845 5.82426 8.10845 5.48931C8.12507 5.48739 8.14169 5.48228 8.15639 5.47333C8.41143 5.9195 8.66648 6.36567 8.92089 6.81951C8.9765 6.90709 8.96052 6.95503 8.85697 6.97101C8.84929 6.97101 8.84098 6.97868 8.83331 6.97868C8.61023 7.03429 8.33153 7.20176 8.18004 7.12186C8.00425 7.02662 8.12379 6.70829 8.11612 6.4852Z" fill="#EDF0F4"/>
<path d="M8.08352 15.6771C8.12315 15.2629 8.09119 14.841 8.09119 14.3705C8.40185 14.554 8.66457 14.7049 8.92729 14.8563C9.01486 14.912 8.99121 14.9759 8.96692 15.0475C8.83971 15.5096 8.72018 15.9718 8.58467 16.4812C8.35455 16.2268 8.04389 16.0913 8.08352 15.6771Z" fill="#EDF0F4"/>
<path d="M8.1159 16.2032C8.2431 16.3304 8.36264 16.4499 8.48217 16.5618C8.55376 16.6257 8.53011 16.689 8.50582 16.7612C8.47386 16.8724 8.3946 16.7932 8.34665 16.7849C8.04431 16.7209 8.01235 16.657 8.1159 16.2032Z" fill="#EDF0F4"/>
<path d="M8.09138 18.2904C8.08371 18.2904 8.0754 18.2827 8.06773 18.2827C8.06773 17.8129 8.06773 17.3507 8.06006 16.8886C8.08371 16.8809 8.09969 16.8649 8.108 16.8649C8.45829 16.9365 8.45062 16.9448 8.36305 17.2791C8.27484 17.6128 8.17959 17.9554 8.09138 18.2904Z" fill="#EDF0F4"/>
<path d="M8.23535 18.2263C8.3389 17.8517 8.43479 17.4695 8.54601 17.0955C8.60993 16.8648 8.7691 17.0559 8.86434 17.0636C9.0235 17.0872 8.91228 17.1908 8.88032 17.247C8.71285 17.5417 8.54601 17.8287 8.37023 18.1234C8.3389 18.1707 8.33059 18.234 8.23535 18.2263Z" fill="#EDF0F4"/>
<path d="M8.24316 18.6162C8.51419 18.1381 8.78458 17.6523 9.0556 17.1665C9.30234 17.3659 9.4858 17.5884 9.70057 17.8115C9.20646 18.0902 8.75262 18.3932 8.25914 18.6322L8.24316 18.6162Z" fill="#EDF0F4"/>
<path d="M8.60156 18.6322C8.94418 18.3535 9.3341 18.1541 9.71699 17.9553C9.9241 17.8594 9.97204 18.1388 10.1791 18.25C9.59746 18.3855 9.11933 18.569 8.60156 18.6322Z" fill="#EDF0F4"/>
<path d="M10.3622 18.2021C10.2823 18.1944 9.95568 17.915 9.95568 17.8594C9.95057 17.8435 9.95312 17.8256 9.96335 17.8115C9.99531 17.7476 10.4971 17.5085 10.5687 17.5168C10.8314 17.5488 10.8154 17.8115 10.9273 17.9707C10.9592 18.0186 10.9196 18.0582 10.8793 18.0665C10.7048 18.1145 10.5297 18.1624 10.3622 18.2021Z" fill="#EDF0F4"/>
<path d="M10.9194 17.6127C11.1905 17.6843 11.4212 17.7482 11.6763 17.8122C11.1585 18.0749 11.0633 18.0512 10.9194 17.6127Z" fill="#EDF0F4"/>
<path d="M10.521 18.4494C10.4097 18.3535 10.4174 18.3139 10.5689 18.2743C11.0068 18.1548 11.0068 18.1471 11.1979 18.553C11.3494 18.8796 11.5086 19.2063 11.66 19.5329C11.2778 19.1583 10.8955 18.7997 10.521 18.4494Z" fill="#EDF0F4"/>
<path d="M11.8909 19.0708V19.6122C11.8749 19.6122 11.8673 19.6199 11.8513 19.6199C11.6365 19.1737 11.4211 18.7199 11.198 18.2737C11.1424 18.1542 11.1584 18.1146 11.2939 18.0743C11.8992 17.8991 11.8992 17.8908 11.8992 18.5281C11.8992 18.7122 11.8909 18.8874 11.8909 19.0708Z" fill="#EDF0F4"/>
<path d="M11.923 17.1986C11.923 17.7643 11.923 17.7643 11.3816 17.6204C11.2224 17.5808 11.0633 17.5329 10.9035 17.4932C10.8395 17.4773 10.7922 17.4453 10.7839 17.382C10.7762 17.3181 10.8319 17.3021 10.8715 17.2785C11.1662 17.1033 11.4692 16.9358 11.7638 16.753C11.9153 16.6572 11.9313 16.7294 11.923 16.8566V17.1986Z" fill="#EDF0F4"/>
<path d="M11.799 16.3943C11.2812 16.0837 10.7634 15.7807 10.238 15.4783C10.1421 15.4227 10.1108 15.3748 10.1741 15.2712C10.4291 14.8493 10.6682 14.4268 10.9309 13.9807C11.5682 14.6179 12.178 15.231 12.8025 15.8446C12.8741 15.9162 12.8824 15.9482 12.7866 16.0038C12.5475 16.131 12.3167 16.2748 12.0777 16.4103C11.9901 16.4608 11.8801 16.4551 11.799 16.3943Z" fill="#EDF0F4"/>
<path d="M13.4048 18.4412C12.9747 18.8951 12.5368 19.3412 12.1066 19.7951L12.035 19.7471C12.035 19.1814 12.035 18.6164 12.0273 18.0423C12.0273 17.9311 12.083 17.9228 12.1705 17.9465C12.5771 18.0577 12.983 18.1772 13.3895 18.2808C13.5563 18.3217 13.4605 18.3856 13.4048 18.4412Z" fill="#EDF0F4"/>
<path d="M13.5083 18.1868C13.1177 18.0833 12.7195 17.972 12.3296 17.8685C12.336 17.8506 12.3385 17.8314 12.3373 17.8129C12.6639 17.7253 13.0014 17.6218 13.3332 17.5502C13.5882 17.4945 13.7397 17.7176 13.9468 17.8129C13.957 17.8327 13.9621 17.8544 13.9628 17.8768C13.9462 17.9797 13.6119 18.2105 13.5083 18.1868Z" fill="#EDF0F4"/>
<path d="M15.2368 18.6483C14.7669 18.5211 14.2971 18.4015 13.8267 18.2737C13.9941 17.9151 14.0894 17.8831 14.4083 18.0742L15.2687 18.576C15.2547 18.599 15.2444 18.6233 15.2368 18.6483Z" fill="#EDF0F4"/>
<path d="M15.3034 18.4654C14.9448 18.2506 14.5945 18.0352 14.1963 17.8045C14.2647 17.7488 14.3126 17.7245 14.3395 17.6849C14.443 17.5417 14.5229 17.5577 14.6425 17.6849C14.8176 17.8844 15.017 18.0595 15.1999 18.2506C15.2555 18.3056 15.343 18.3459 15.3034 18.4654Z" fill="#EDF0F4"/>
<path d="M15.4439 18.3376C15.1729 18.0749 14.9185 17.8122 14.6711 17.5488C14.5196 17.3737 14.735 17.3341 14.7983 17.2542C14.8859 17.1186 14.9255 17.2618 14.9575 17.3181L15.4113 18.1069C15.4695 18.1702 15.4823 18.2616 15.4439 18.3376Z" fill="#EDF0F4"/>
<path d="M15.858 18.5529C15.842 18.5606 15.8343 18.5606 15.8183 18.5689C15.5633 18.1311 15.3114 17.6849 15.0538 17.2387C14.9982 17.1428 15.0059 17.0955 15.1254 17.0713C15.3645 17.0156 15.6036 16.944 15.858 16.8801V18.5529Z" fill="#EDF0F4"/>
<path d="M15.2524 16.8879C15.4519 16.6968 15.6667 16.4896 15.8578 16.2985C15.8821 16.8246 15.8258 16.8802 15.2524 16.8879Z" fill="#EDF0F4"/>
<path d="M15.794 16.0677C15.5153 16.3707 15.2283 16.6814 14.9176 17.0157C14.6549 16.5535 14.4395 16.1636 14.1851 15.7334C14.7425 15.7813 15.2525 15.8133 15.7543 15.8606C15.9295 15.8766 15.8662 15.9878 15.794 16.0677Z" fill="#EDF0F4"/>
<path d="M15.8694 10.0297C15.8618 10.6031 15.8618 11.1688 15.8618 11.7422C15.8694 11.9096 15.8298 11.9889 15.631 11.9812C15.2091 11.9576 14.7866 11.9736 14.3647 11.9736C14.2612 11.9736 14.2056 11.9659 14.2375 11.838C14.4683 10.9943 14.699 10.1505 14.9298 9.29077C15.2155 9.4493 15.4776 9.60015 15.7346 9.76699C15.8285 9.81876 15.8822 9.92295 15.8694 10.0297Z" fill="#EDF0F4"/>
<path d="M15.8897 8.48474C15.8418 8.85932 15.8821 9.24157 15.8821 9.67176C15.5714 9.49662 15.3119 9.33745 15.046 9.19363C15.046 9.19363 15.0453 9.19363 15.0453 9.19299C14.9904 9.1687 14.9661 9.10478 14.9904 9.04981C15.1259 8.57167 15.2531 8.08587 15.3886 7.57642C15.6903 7.82315 15.9453 8.04624 15.8897 8.48474Z" fill="#EDF0F4"/>
<path d="M15.8421 7.90302C15.7098 7.74386 15.6113 7.61601 15.4995 7.49648C15.4464 7.44407 15.4336 7.36352 15.4675 7.29705C15.5071 7.20116 15.5787 7.24911 15.635 7.25742C15.9297 7.31367 15.9539 7.38526 15.8421 7.90302Z" fill="#EDF0F4"/>
<path d="M15.7894 7.17052C15.7019 7.13089 15.4947 7.21015 15.5504 6.98707C15.6539 6.58884 15.7651 6.19828 15.8687 5.80005H15.9051C15.9051 6.21426 15.9051 6.6208 15.9006 7.03437C15.9006 7.1066 15.9326 7.24212 15.7894 7.17052Z" fill="#EDF0F4"/>
<path d="M19.3469 11.6074C19.3392 11.615 19.3392 11.631 19.3309 11.6393C18.9647 11.4322 18.5901 11.2488 18.2475 11.018C18.0723 10.8908 18.2871 10.7073 18.2871 10.5558C18.6463 10.9061 18.9966 11.2564 19.3469 11.6074Z" fill="#EDF0F4"/>
<path d="M16.0096 12.3955C16.1208 12.1647 16.2806 11.9973 16.5989 12.1008C16.9051 12.1008 17.2279 12.1085 17.5629 12.1008C17.6901 12.1008 17.7144 12.1488 17.6901 12.2683C17.6421 12.4914 17.5705 12.6429 17.2995 12.6902C16.9173 12.7618 16.535 12.8813 16.1528 12.9932C16.0173 13.0328 15.9457 13.0092 15.9693 12.8577C15.9936 12.7062 15.9297 12.547 16.0096 12.3955Z" fill="#EDF0F4"/>
<path d="M15.9937 8.22137C16.3203 8.5397 16.615 8.81904 16.918 9.11372C16.6552 9.26521 16.4002 9.40839 16.1451 9.55158C16.0416 9.60719 15.9937 9.59952 15.9937 9.47168V8.22137H15.9937Z" fill="#EDF0F4"/>
<path d="M16.8773 9.2811C16.9732 9.22549 16.9968 9.25745 17.0205 9.3527C17.092 9.6397 17.1796 9.92607 17.2512 10.2131C17.2793 10.2764 17.2627 10.3505 17.2116 10.3965C17.1477 10.4362 17.108 10.3729 17.0601 10.3486C16.7258 10.1651 16.3908 9.97401 16.0322 9.76691C16.3359 9.59176 16.6069 9.44027 16.8773 9.2811Z" fill="#EDF0F4"/>
<path d="M17.693 8.82736C17.9717 8.66819 18.2504 8.5167 18.5291 8.35754C18.5451 8.34986 18.561 8.35754 18.6326 8.35754H18.6294C18.3264 8.7954 18.0477 9.20194 17.7806 9.60017C17.7249 9.68774 17.693 9.68774 17.6131 9.61615C17.1119 9.15336 17.1036 9.16167 17.693 8.82736Z" fill="#EDF0F4"/>
<path d="M17.3791 10.7386C17.4903 11.1132 17.5862 11.4871 17.6821 11.8617C17.7217 11.9889 17.6265 11.9729 17.5549 11.9729H16.2886C16.6069 11.5191 16.8862 11.1125 17.149 10.6983C17.2519 10.5558 17.3394 10.6114 17.3791 10.7386Z" fill="#EDF0F4"/>
<path d="M17.5625 13.2795C17.5549 13.096 17.6341 12.9369 17.6738 12.7777C17.6897 12.7061 17.7537 12.6818 17.8252 12.6742C17.9211 12.6665 17.9211 12.7458 17.9365 12.8014C18.0324 13.0724 17.9844 13.1363 17.5625 13.2795Z" fill="#EDF0F4"/>
<path d="M15.9935 13.2322C16.129 12.9854 16.5509 13.0327 16.8456 12.9375C17.0687 12.8659 17.2918 12.8179 17.5468 12.754C17.4912 12.9611 17.4432 13.1286 17.4036 13.3038C17.3844 13.3849 17.3282 13.4527 17.2521 13.4872C17.0687 13.5831 16.8935 13.6866 16.7107 13.7902C16.48 13.9257 16.2409 14.0529 15.9858 14.1967L15.9935 13.2322Z" fill="#EDF0F4"/>
<path d="M17.3234 13.5901C17.2122 14.012 17.1086 14.3865 17.0051 14.7611C16.9731 14.8724 16.9015 14.8091 16.8536 14.7771C16.5985 14.6339 16.3518 14.4824 16.0571 14.3073C16.4873 14.0605 16.8772 13.8375 17.3234 13.5901Z" fill="#EDF0F4"/>
<path d="M17.4352 13.654C17.4672 13.5268 17.8814 13.2079 17.9926 13.2162C18.0144 13.2206 18.0335 13.2315 18.0482 13.2481C18.1678 13.3836 18.1518 13.7263 18.0246 13.8535C17.8015 14.0765 17.5784 14.2996 17.3553 14.5144C17.3074 14.554 17.2678 14.618 17.1719 14.5943C17.2594 14.2677 17.347 13.957 17.4352 13.654Z" fill="#EDF0F4"/>
<path d="M18.0835 12.8735C18.0758 12.7859 17.9639 12.6504 18.1071 12.6025C18.4728 12.4912 18.8378 12.38 19.2347 12.3634C18.8844 12.5545 18.5418 12.7533 18.1947 12.9445C18.1154 12.993 18.0912 12.9291 18.0835 12.8735Z" fill="#EDF0F4"/>
<path d="M18.088 12.467C17.8885 12.5149 17.9448 12.3078 17.9128 12.2119C17.8649 12.0764 17.9927 12.1007 18.0643 12.1007H19.3466C19.3485 12.1128 19.3543 12.1237 19.3626 12.1327C18.9407 12.2439 18.5182 12.3634 18.088 12.467Z" fill="#EDF0F4"/>
<path d="M17.7935 11.7901C17.6976 11.4238 17.6183 11.1208 17.5225 10.7705C18.0645 11.0492 18.0645 11.0492 17.7935 11.7901Z" fill="#EDF0F4"/>
<path d="M17.9684 10.8742C17.8124 10.7988 17.6635 10.7112 17.5222 10.6115C17.5158 10.607 17.5101 10.6025 17.5043 10.5974C17.4033 10.5124 17.3899 10.3622 17.4749 10.2605C17.5229 10.1889 17.5708 10.125 17.6104 10.0534C17.682 9.90194 17.7536 9.9339 17.8412 10.0375C17.9524 10.173 18.1039 10.2765 18.1915 10.412C18.1518 10.5635 18.1199 10.6907 18.0803 10.8339C18.0643 10.8902 18.0246 10.9061 17.9684 10.8742Z" fill="#EDF0F4"/>
<path d="M18.2394 10.2209C18.2157 10.2132 18.1914 10.2132 18.1837 10.2049C17.7619 9.82263 17.7619 9.82263 18.0802 9.36048C18.2553 9.11374 18.4228 8.86637 18.598 8.61963C18.6216 8.6273 18.6459 8.64328 18.6695 8.65159C18.5264 9.16935 18.3909 9.69542 18.2394 10.2209Z" fill="#EDF0F4"/>
<path d="M18.7336 8.09417C18.152 8.4208 17.6182 8.72315 17.0691 9.03381C16.9336 8.5397 16.8064 8.0539 16.6709 7.53613C17.3632 7.71959 18.0164 7.90304 18.7336 8.09417Z" fill="#EDF0F4"/>
<path d="M16.5826 7.71183C16.6785 8.07043 16.7737 8.4367 16.8696 8.80297C16.8575 8.81256 16.844 8.82087 16.83 8.82662C16.5749 8.57158 16.3199 8.31653 16.0655 8.06979C16.0099 8.00587 15.9779 7.48811 16.0258 7.42483C16.038 7.40565 16.0591 7.3935 16.0815 7.39287C16.2643 7.35323 16.5347 7.52838 16.5826 7.71183Z" fill="#EDF0F4"/>
<path d="M16.0041 6.92308C16.036 6.52485 16.0118 6.12662 16.0118 5.72839H16.0565C16.192 6.22251 16.3192 6.71598 16.4503 7.21009C16.4822 7.32962 16.4426 7.3456 16.3231 7.32131C16.0923 7.28168 15.9804 7.19411 16.0041 6.92308Z" fill="#EDF0F4"/>
<path d="M15.9696 11.7901V11.1688L15.9856 10.0776C15.9856 9.94213 16.0176 9.89418 16.1531 9.97409C16.4241 10.1416 16.7028 10.3007 16.9892 10.4522C17.1004 10.5078 17.1004 10.5634 17.0371 10.6593C16.7584 11.0576 16.4797 11.4558 16.2087 11.8623C16.1608 11.9422 16.0975 11.9895 16.0093 11.9582C15.9217 11.9256 15.9696 11.8457 15.9696 11.7901Z" fill="#EDF0F4"/>
<path d="M15.9613 15.5819V14.3949C16.2675 14.57 16.5187 14.7292 16.7821 14.8807C16.8779 14.9363 16.8856 14.9843 16.8057 15.0642C16.5986 15.2636 16.3915 15.4707 16.1921 15.6778C16.1505 15.7315 16.084 15.759 16.0169 15.7494C15.9217 15.7174 15.9613 15.6375 15.9613 15.5819Z" fill="#EDF0F4"/>
<path d="M16.8617 15.1753C16.7185 15.9161 16.7658 15.8286 16.3203 15.7487C16.4718 15.5339 16.6629 15.3824 16.8617 15.1753Z" fill="#EDF0F4"/>
<path d="M16.0328 18.3216C16.0168 18.3216 15.9932 18.3139 15.9772 18.3139C15.9772 17.9074 15.9849 17.4932 15.9695 17.0873C15.9619 16.9038 16.0092 16.8086 16.2003 16.7926C16.2891 16.7773 16.3773 16.7562 16.463 16.7287C16.3115 17.2784 16.1766 17.8039 16.0328 18.3216Z" fill="#EDF0F4"/>
<path d="M16.3362 16.6335C15.9143 16.737 15.9859 16.753 15.9776 16.3624C15.9776 15.9878 16.0415 15.8766 16.2882 15.9003C16.4154 15.9079 16.5989 15.8287 16.6628 15.9878C16.7261 16.147 16.4793 16.5932 16.3362 16.6335Z" fill="#EDF0F4"/>
<path d="M18.3987 16.0913C17.8253 16.2428 17.2596 16.3943 16.6543 16.5612C16.7022 16.37 16.7419 16.2026 16.7815 16.0434C16.8135 15.9162 16.917 15.9475 17.0046 15.9558C17.4667 15.9878 17.9206 16.0198 18.3827 16.0594C18.391 16.0677 18.391 16.0837 18.3987 16.0913Z" fill="#EDF0F4"/>
<path d="M17.0369 15.8363C16.9097 15.8286 16.8534 15.7967 16.8937 15.6369C17.0529 15.0315 17.0452 15.0315 17.5866 15.3499L18.5422 15.9475C18.0168 15.9085 17.5233 15.8683 17.0369 15.8363Z" fill="#EDF0F4"/>
<path d="M18.7658 15.9085C18.1924 15.5659 17.6663 15.2552 17.1646 14.9605C17.5231 14.6019 17.8658 14.2517 18.232 13.9014C18.3989 14.5463 18.574 15.1996 18.7658 15.9085Z" fill="#EDF0F4"/>
<path d="M18.2792 13.5345C18.2697 13.5249 18.262 13.5141 18.2556 13.5025C18.1361 13.112 18.1284 13.112 18.4947 12.9132C18.7734 12.7617 19.0604 12.6102 19.3391 12.4594L19.371 12.483C19.0041 12.8339 18.6462 13.1842 18.2792 13.5345Z" fill="#EDF0F4"/>
<path d="M19.5624 11.9735H18.0647C17.9535 11.9735 17.8896 11.9658 17.9375 11.822C18.0014 11.6225 18.0487 11.4237 18.0967 11.2243C18.1203 11.1284 18.1523 11.0971 18.2482 11.1527C18.6943 11.4154 19.1405 11.6628 19.586 11.9172C19.5796 11.9364 19.5713 11.9556 19.5624 11.9735Z" fill="#EDF0F4"/>
</svg>
