<svg width="24" height="24" viewBox="0 0 24 24" fill="none" xmlns="http://www.w3.org/2000/svg">
<circle cx="12" cy="12" r="12" fill="#348F8D"/>
<path fill-rule="evenodd" clip-rule="evenodd" d="M17.5637 6.76783C17.9348 6.38149 17.9348 5.76978 17.5637 5.38344H17.5645C17.3878 5.20062 17.1449 5.09743 16.8911 5.09743C16.6374 5.09743 16.3945 5.20062 16.2178 5.38344L14.4788 7.17279L12.2489 4.88323C12.204 4.83598 12.1532 4.79474 12.0994 4.75799C11.7534 4.51234 11.2805 4.55728 10.9867 4.86373L10.968 4.88323L10.9672 4.88398H10.9665L5.26899 10.7485C5.2657 10.7524 5.26221 10.7562 5.25853 10.7597L5.24657 10.771C4.91781 11.1123 4.91781 11.6536 5.24657 11.9949L6.96987 13.7595C7.12598 13.9187 7.33952 14.0079 7.56209 14.0069C7.78466 14.0059 7.99741 13.9148 8.15211 13.7543C8.47813 13.4162 8.48044 12.8802 8.15734 12.5394L7.07374 11.4272L11.5613 6.80832L13.8914 9.20363C14.1727 9.49674 14.6159 9.56183 14.9691 9.36186C15.064 9.31393 15.1503 9.25058 15.2246 9.17438L17.5637 6.76783ZM18.953 13.4295C19.2827 13.09 19.2823 12.5485 18.9522 12.2094L18.9313 12.1876L18.9291 12.1861L18.9276 12.1846L17.2289 10.441C17.0728 10.2818 16.8593 10.1926 16.6367 10.1936C16.4142 10.1946 16.2014 10.2857 16.0467 10.4463C15.7207 10.7843 15.7184 11.3203 16.0415 11.6612L17.1251 12.7733L12.6457 17.3809L10.3096 14.9826C10.0907 14.7577 9.77529 14.6632 9.47338 14.7307C9.28655 14.7682 9.11542 14.8626 8.9824 15.0021L6.64407 17.4079C6.40119 17.6547 6.30628 18.0161 6.39372 18.3544C6.4819 18.6933 6.73972 18.9573 7.06929 19.0481C7.39885 19.1388 7.75008 19.0406 7.99072 18.7916L9.71924 17.0082L11.8991 19.246C12.0484 19.4516 12.2806 19.5804 12.5335 19.5979C12.7863 19.6154 13.0339 19.5198 13.2099 19.3368L18.9298 13.452C18.9334 13.4481 18.9371 13.4443 18.941 13.4408L18.953 13.4295Z" fill="white"/>
</svg>
