<svg width="24" height="24" viewBox="0 0 24 24" fill="none" xmlns="http://www.w3.org/2000/svg">
<circle cx="12" cy="12" r="12" fill="#152743"/>
<path fill-rule="evenodd" clip-rule="evenodd" d="M12.1367 6.24925C11.1638 6.24925 10.375 5.70124 10.375 5.02464C10.375 4.34803 11.1638 3.80002 12.1367 3.80002C13.1095 3.80002 13.8976 4.34803 13.8976 5.02464C13.8976 5.70124 13.1095 6.24925 12.1367 6.24925ZM11.2247 19.9189V6.83835H15.1516C15.2972 6.83835 15.4 6.94825 15.4 7.09553V14.3535C15.4 14.5001 15.2965 14.6257 15.1516 14.6257H12.9871V19.9189C12.9871 20.0662 12.8762 20.2 12.7306 20.2H11.4975C11.3476 20.1941 11.2281 20.0713 11.2247 19.9196V19.9189ZM9.07677 14.6249H10.5627V6.83835H9.07603C8.93114 6.83835 8.80029 6.94825 8.80029 7.09553V14.3528C8.80581 14.5036 8.92754 14.6234 9.07677 14.6249Z" fill="white"/>
</svg>
