<svg width="24" height="24" viewBox="0 0 24 24" fill="none" xmlns="http://www.w3.org/2000/svg">
<circle cx="12" cy="12" r="12" fill="#EDF0F4"/>
<rect x="6.58057" y="6.53409" width="10.7381" height="10.7381" fill="white"/>
<path fill-rule="evenodd" clip-rule="evenodd" d="M11.368 13.3713H10.22L10.2395 15.6126H8.28711V8.2756H11.3094C11.6407 8.27254 11.9677 8.35028 12.2622 8.50208C12.5487 8.64534 12.8046 8.84294 13.0158 9.08388C13.225 9.32378 13.3926 9.59698 13.5117 9.89217C13.6338 10.184 13.6962 10.4973 13.6952 10.8137C13.6956 11.139 13.6374 11.4618 13.5234 11.7665C13.4186 12.0673 13.2598 12.3465 13.0548 12.5904C12.8486 12.8259 12.5978 13.0183 12.3168 13.1565C12.0203 13.2975 11.6962 13.3708 11.368 13.3713ZM11.1962 10.0484H10.22V11.6103H11.2391C11.3685 11.6044 11.4886 11.5415 11.5671 11.4384C11.6985 11.2686 11.7587 11.0544 11.735 10.841C11.7572 10.6181 11.6913 10.3953 11.5515 10.2202C11.46 10.1187 11.3325 10.057 11.1962 10.0484Z" fill="#2D8EFF"/>
<path fill-rule="evenodd" clip-rule="evenodd" d="M5.7998 17.3932V6.50675C5.7998 6.11642 6.11623 5.79999 6.50657 5.79999H17.393C17.5805 5.79999 17.7603 5.87445 17.8928 6.00699C18.0253 6.13954 18.0998 6.3193 18.0998 6.50675V17.3932C18.0998 17.7836 17.7834 18.1 17.393 18.1H6.50657C6.11623 18.1 5.7998 17.7836 5.7998 17.3932ZM7.93972 16.6591H15.9523V16.6513C16.3396 16.6514 16.6548 16.3397 16.6591 15.9524V7.93981C16.6591 7.54948 16.3426 7.23305 15.9523 7.23305H7.93972C7.54939 7.23305 7.23296 7.54948 7.23296 7.93981V15.9524C7.23296 16.3427 7.54939 16.6591 7.93972 16.6591Z" fill="#2D8EFF"/>
<rect x="11.083" y="14.2343" width="4.52562" height="1.39009" fill="#2D8EFF"/>
</svg>
