<svg width="24" height="24" viewBox="0 0 24 24" fill="none" xmlns="http://www.w3.org/2000/svg">
<circle cx="12" cy="12" r="12" fill="#EDF0F4"/>
<path fill-rule="evenodd" clip-rule="evenodd" d="M17.7215 10.9838V15.7418C17.7338 16.1402 17.637 16.5344 17.4415 16.8818C17.2676 17.1422 17.0255 17.3498 16.7415 17.4818C16.4316 17.6415 16.09 17.7304 15.7415 17.7418H8.40148C8.05473 17.7189 7.71544 17.6307 7.40148 17.4818C7.12322 17.3492 6.88766 17.1414 6.72148 16.8818C6.49693 16.5377 6.38509 16.1323 6.40148 15.7218V10.9618C6.40546 10.1567 6.8105 9.40664 7.48148 8.96177L10.8415 6.76177C11.5906 6.27944 12.5524 6.27944 13.3015 6.76177L14.1415 7.32177V6.82177C14.1387 6.70955 14.1821 6.6011 14.2614 6.52173C14.3408 6.44235 14.4493 6.39899 14.5615 6.40177H15.2215C15.4538 6.40287 15.6415 6.59148 15.6415 6.82377V8.32377L16.6415 8.98377C17.3053 9.43512 17.7082 10.1811 17.7215 10.9838ZM14.1016 10.0838C14.1093 10.5028 13.9341 10.9044 13.6216 11.1838C13.4531 11.3299 13.2645 11.4511 13.0616 11.5438L10.6016 12.3638C9.14162 12.8438 8.42162 13.6838 8.08162 14.3038C8.02 14.4199 7.96654 14.5402 7.92162 14.6638C7.92162 14.6738 7.91662 14.6788 7.91162 14.6838C7.90662 14.6888 7.90162 14.6938 7.90162 14.7038V10.9838C7.91161 10.688 8.05968 10.4141 8.30162 10.2438L11.6616 8.04375C11.9004 7.89513 12.2029 7.89513 12.4416 8.04375L14.1016 9.14375V10.0838ZM16.2016 15.8238C16.1919 16.0484 16.0063 16.2251 15.7816 16.2238H9.62155C9.38927 16.2227 9.20155 16.0341 9.20155 15.8018V15.6618C9.22416 15.4371 9.2922 15.2194 9.40155 15.0218C9.70155 14.4618 10.2616 14.0618 11.0616 13.7818L13.5216 12.9618C13.9028 12.8197 14.2552 12.6096 14.5616 12.3418C15.2255 11.7861 15.6128 10.9675 15.6216 10.1018L15.8016 10.2218C16.0462 10.3897 16.1951 10.6651 16.2016 10.9618V15.8218V15.8238Z" fill="#38A6FA"/>
</svg>
