<svg width="24" height="24" viewBox="0 0 24 24" fill="none" xmlns="http://www.w3.org/2000/svg">
<circle cx="12" cy="12" r="12" fill="#EDF0F4"/>
<path fill-rule="evenodd" clip-rule="evenodd" d="M11.2171 20H12.7326C11.3709 17.8147 10.0201 15.6184 8.65843 13.4331C8.44979 13.1036 8.39488 12.7962 8.54862 12.4008C8.62549 12.2141 8.77923 12.0384 8.92199 11.9067C8.87806 11.8517 8.83414 11.7859 8.79021 11.72C8.57058 11.3795 8.41684 11.0062 8.31801 10.6108C6.94532 11.2807 6.63784 12.6314 7.42851 13.9712L11.2171 20ZM10.635 15.1902C11.5245 15.289 12.3481 15.289 13.2266 15.1902C14.3028 15.0694 15.2692 14.8168 15.8622 14.4214C16.4881 14.0151 16.9054 13.3672 16.9054 12.6095C16.9054 11.731 16.3673 11.0501 15.6316 10.6548C15.5657 10.9842 15.4559 11.2917 15.3131 11.5663C15.2362 11.72 15.1484 11.8628 15.0386 11.9945C15.2033 12.1702 15.357 12.3899 15.357 12.5985C15.357 12.9499 14.9617 13.3343 14.6652 13.499C14.3248 13.6857 13.8306 13.8065 13.4463 13.8504C12.9411 13.9053 12.436 13.9273 11.9308 13.9383C11.6673 13.9383 11.3817 13.9273 11.1182 13.9053C10.668 13.8834 10.1848 13.8504 9.74551 13.7296L10.635 15.1902Z" fill="#020202"/>
<path fill-rule="evenodd" clip-rule="evenodd" d="M11.9857 4C13.3474 6.22924 12.8752 7.558 12.6886 8.39259C12.403 9.6884 14.0393 10.1167 14.1601 8.61222C14.193 8.26081 14.1711 7.85449 14.1491 7.47014C15.8293 10.1716 14.7311 12.6095 11.9857 12.6095C9.67963 12.6095 8.38382 10.501 9.29528 8.40357C9.19645 9.5127 9.97613 9.87508 9.84435 9.35896C9.81141 9.22718 9.74552 9.00755 9.69061 8.55731C9.48197 6.40494 12.1285 5.85587 11.9857 4Z" fill="#EA7437"/>
</svg>
