<svg width="24" height="24" viewBox="0 0 24 24" fill="none" xmlns="http://www.w3.org/2000/svg">
<path d="M12 24C18.6276 24 24 18.6276 24 12C24 5.3724 18.6276 0 12 0C5.3724 0 0 5.3724 0 12C0 18.6276 5.3724 24 12 24Z" fill="#EDF0F4"/>
<path d="M7.64913 14.8368V16.5107H9.32298V16.084H11.6532V19.7927C7.78042 19.563 4.59683 16.3794 4.3999 12.5066H8.10862V14.804L7.64913 14.8368Z" fill="#005CC7"/>
<path d="M14.8044 16.084V16.5107H16.4782V14.8369H16.0516V12.5394H19.7603C19.5634 16.4123 16.3469 19.563 12.4741 19.7928V16.084H14.8044Z" fill="#005CC7"/>
<path d="M11.6532 8.17432H14.8368V7.68201H16.5435V9.55278H14.8696V9.02766H11.6861V12.5066L15.2963 12.5395V14.8369H14.8696V15.2307H9.32298V14.8041H8.92913V9.35586H9.3558V7.68201H7.68195V9.35586H8.10862V11.6533H4.3999C4.59683 7.74766 7.81324 4.59689 11.6532 4.39996V8.17432Z" fill="#005CC7"/>
</svg>
