<svg width="24" height="24" viewBox="0 0 24 24" fill="none" xmlns="http://www.w3.org/2000/svg">
<circle cx="12" cy="12" r="12" fill="#EDF0F4"/>
<path d="M8.96744 7.7052V8.77497C8.96744 9.45404 8.4186 9.99822 7.74419 9.99822H5.37674C4.6186 9.99357 4 10.6168 4 11.375V13.3936C4 14.1517 4.6186 14.7703 5.37674 14.7703H7.74419C8.42326 14.7703 8.96744 15.3238 8.96744 15.9936V18.361C8.96744 19.1192 9.58605 19.7378 10.3442 19.7378H12.3628C13.1209 19.7378 13.7395 19.1192 13.7395 18.361V15.9936C13.7395 15.3145 14.2884 14.7703 14.9628 14.7703H16.0326C12.1442 14.7703 8.96744 11.5936 8.96744 7.7052Z" fill="black"/>
<path d="M18.7068 13.3935V11.3749C18.7068 10.6167 18.0882 9.99814 17.3301 9.99814H14.9626C14.2836 9.99814 13.7394 9.4493 13.7394 8.77489V6.40744C13.7394 5.64931 13.1208 5.0307 12.3626 5.0307H10.344C9.58589 5.0307 8.96729 5.64931 8.96729 6.40744V7.70512C8.96729 11.5935 12.1487 14.7702 16.0324 14.7702H17.3301C18.0882 14.7702 18.7068 14.1516 18.7068 13.3935Z" fill="#42B34F"/>
<path d="M15.1771 8.21679C15.1771 8.21679 14.7167 3.41214 20.0004 4.58423C19.9027 5.99819 20.0329 9.47726 15.1771 8.21679Z" fill="#42B34F"/>
</svg>
