<svg width="24" height="24" viewBox="0 0 24 24" fill="none" xmlns="http://www.w3.org/2000/svg">
<circle cx="12" cy="12" r="12" fill="#EDF0F4"/>
<path d="M14.7656 12.9468L11.5471 18.7734L8.27309 12.9098C8.31626 12.9406 8.56535 13.0726 9.21644 13.3538C9.86754 13.6349 10.5606 13.7545 10.8257 13.7792C10.5667 13.6682 9.89344 13.3575 9.27194 13.0023C8.49506 12.5584 7.53321 11.8555 6.86731 11.2636C6.3346 10.7901 4.89429 9.30289 4.24072 8.61849C4.9991 9.14873 6.76003 10.3535 7.73668 10.9306C8.71332 11.5077 11.1278 12.5522 12.213 13.0023C12.0773 12.8728 11.7284 12.5177 11.4176 12.1329C11.1068 11.7482 10.8195 11.2328 10.7147 11.0231C11.0415 11.2266 11.8097 11.6927 12.2685 11.9295C12.7272 12.1662 14.1244 12.7064 14.7656 12.9468Z" fill="url(#paint0_linear_300_14284)"/>
<path d="M14.5434 12.022C16.4375 12.8802 18.9703 13.1811 20 13.2243C19.106 12.9283 16.9813 12.1847 15.6347 11.578C14.2881 10.9713 13.3472 10.1291 13.0451 9.78382C13.2301 9.92562 13.7628 10.2684 14.4139 10.5052C15.065 10.742 15.6964 10.8505 15.9306 10.8752L18.9827 5.40001H14.0809L11.5838 10.2093L8.56879 5.40001H4C4.4316 5.9056 5.53156 7.12024 6.47861 7.93411C7.42566 8.74799 8.93255 9.827 9.56763 10.2647C9.33335 9.9688 8.82775 9.2955 8.67977 8.96995C8.53179 8.6444 8.40849 8.08209 8.36532 7.84163C8.77843 8.2424 9.71561 9.13273 10.1595 9.48787C10.7145 9.9318 12.1757 10.9491 14.5434 12.022Z" fill="url(#paint1_linear_300_14284)"/>
<defs>
<linearGradient id="paint0_linear_300_14284" x1="2.15067" y1="8.5618" x2="9.2066" y2="20.4588" gradientUnits="userSpaceOnUse">
<stop stop-color="#721951"/>
<stop offset="1" stop-color="#E4662E"/>
</linearGradient>
<linearGradient id="paint1_linear_300_14284" x1="-3.73496" y1="6.7927" x2="-1.82843" y2="19.3068" gradientUnits="userSpaceOnUse">
<stop stop-color="#721951"/>
<stop offset="1" stop-color="#E4662E"/>
</linearGradient>
</defs>
</svg>
