<svg width="24" height="24" viewBox="0 0 24 24" fill="none" xmlns="http://www.w3.org/2000/svg">
<circle cx="12" cy="12" r="12" fill="#EDF0F4"/>
<circle cx="12" cy="12" r="9" fill="#1347E8"/>
<path fill-rule="evenodd" clip-rule="evenodd" d="M12.0751 5.85001C8.6372 5.85001 5.8501 8.63711 5.8501 12.075C5.8501 15.5129 8.6372 18.3 12.0751 18.3C15.513 18.3 18.3001 15.5129 18.3001 12.075C18.3001 8.63711 15.513 5.85001 12.0751 5.85001ZM17.9831 11.8204L17.4794 11.8255L17.4772 11.6144L17.9814 11.6098L17.9836 11.8204H17.9831ZM17.854 10.7321L17.854 10.7321V10.7327L17.854 10.7321ZM17.8246 10.5233L17.854 10.7321L17.3543 10.8017L17.3255 10.5923L17.8246 10.5233ZM17.424 9.40675L17.5111 9.59916L17.0521 9.80741L16.965 9.61557L17.4234 9.40675H17.424ZM16.9339 8.60598L16.7947 8.44753L16.4161 8.78028L16.5548 8.93874L16.9339 8.60598ZM16.0562 7.6592L16.2158 7.79728L15.887 8.1787L15.7269 8.04119L16.0562 7.6592ZM15.3528 7.0616L15.1762 6.94672L14.9018 7.37002L15.0783 7.48433L15.3528 7.0616ZM14.1746 6.4527L14.3789 6.50646L14.251 6.99371L14.0467 6.93995L14.1752 6.45327L14.1746 6.4527ZM13.2838 6.19917L13.0739 6.18219L13.032 6.68415L13.2419 6.70169L13.2838 6.19917ZM11.9342 6.04919H12.1447V6.55341H11.9342V6.04919ZM11.0401 6.68417L10.9982 6.18221L10.7877 6.19975L10.8295 6.70228L11.0401 6.68417ZM9.89691 6.4527L10.0248 6.93995L9.82108 6.99371L9.69262 6.50703L9.89634 6.4527H9.89691ZM9.17026 7.37002L8.89579 6.94672L8.71866 7.0616L8.99313 7.48433L9.17026 7.37002ZM8.0158 7.65977L8.34459 8.04119L8.185 8.1787L7.85621 7.79728L8.0158 7.6592V7.65977ZM7.65689 8.77913L7.27773 8.44638V8.44694L7.13852 8.6054L7.51711 8.93759L7.65689 8.77913ZM6.64906 9.40619L7.10744 9.61501L7.02086 9.80742L6.56191 9.59804L6.64906 9.40619ZM6.74749 10.5918L6.24779 10.5227V10.5222L6.21893 10.7315L6.71806 10.8011L6.74749 10.5918ZM6.09159 11.6092L6.59525 11.6138L6.59356 11.8249L6.0899 11.8198L6.09159 11.6092ZM6.63962 12.7422L6.13822 12.7931L6.15916 13.0025L6.66056 12.9516L6.63962 12.7422ZM6.36611 13.865L6.85732 13.7506L6.90542 13.9561L6.41422 14.0704L6.36611 13.865ZM6.81175 14.9623L6.91587 15.1456L7.35389 14.8955L7.24919 14.7122L6.81175 14.9623ZM7.62992 16.0437L7.47656 15.8989L7.82346 15.5327L7.97626 15.6776L7.62992 16.0437ZM8.26499 16.6385L8.43646 16.7607L8.72904 16.3505L8.55757 16.2276L8.26499 16.6385ZM9.37811 17.3894L9.19136 17.2915L9.42565 16.8456L9.6124 16.9435L9.37811 17.3894ZM10.2117 17.755L10.42 17.7901L10.5032 17.2933L10.2949 17.2582L10.2117 17.755ZM11.3302 17.961L11.3263 17.4568L11.5373 17.4545L11.5413 17.9588L11.3302 17.961ZM12.0751 6.83467C9.18558 6.83467 6.83479 9.18546 6.83479 12.075C6.83479 14.9645 9.18558 17.3153 12.0751 17.3153C14.9646 17.3153 17.3154 14.9645 17.3154 12.075C17.3154 9.18546 14.9646 6.83467 12.0751 6.83467ZM12.4861 18.0063L12.4793 18.0069L12.4335 17.5055L12.6434 17.4862L12.6502 17.4851L12.6961 17.987L12.4861 18.0063ZM13.5216 17.2735L13.6093 17.7698L13.817 17.7335L13.7293 17.2367L13.5216 17.2735ZM14.681 17.3996L14.5084 16.926L14.7064 16.8541L14.879 17.3278L14.681 17.3996ZM15.321 16.4206L15.6323 16.8168V16.8162L15.7981 16.6855L15.4863 16.2893L15.321 16.4206ZM16.4438 16.0262L16.0816 15.6764L16.2276 15.5242L16.5898 15.8751L16.4438 16.0262ZM16.6997 14.8774L17.1072 15.1745L17.2317 15.0036L16.8242 14.707L16.6997 14.8774ZM17.6458 14.1615L17.1693 13.9951L17.2389 13.7959L17.7148 13.9623L17.6458 14.161V14.1615ZM17.4393 12.9901L17.943 13.0127L17.9526 12.8022L17.4489 12.779L17.4393 12.9901ZM14.0761 14.7529H14.0756C14.1599 14.8434 14.1621 14.9815 14.079 15.0641C13.9958 15.1462 13.8583 15.1422 13.7683 15.0562V15.0568L13.6109 14.8983L13.2533 14.5356C13.0212 14.6462 12.7654 14.6981 12.5086 14.6867H11.525C10.6343 14.7195 9.81144 14.2747 9.87821 12.8282C9.87984 12.7847 9.87709 12.371 9.87541 12.1183L9.8754 12.1181C9.87475 12.019 9.87425 11.9447 9.87425 11.9273L9.87595 11.3433C9.87425 9.9002 10.2268 9.24601 11.199 9.01455C11.3094 8.98795 11.911 8.97494 12.0258 8.97494H12.0773C12.1928 8.97494 12.7236 8.98795 12.834 9.01455C13.8062 9.24601 14.1587 9.9002 14.1571 11.3433L14.1587 11.9279L14.1577 12.0971V12.0972C14.1561 12.347 14.1533 12.7836 14.1554 12.8288C14.1916 13.6097 13.9675 13.9493 13.6138 14.2854L13.9194 14.5938L14.0761 14.7529ZM12.9029 14.1802C12.7954 14.2119 12.6839 14.2277 12.5713 14.2277C12.556 14.2277 12.5407 14.2277 12.5255 14.2266H11.5164L11.5079 14.2271L11.4621 14.2283C11.2505 14.2283 10.9466 14.1739 10.7015 13.917C10.4378 13.6409 10.3116 13.41 10.3371 12.8497C10.3393 12.8107 10.3393 12.8095 10.3354 12.1067C10.3352 11.9152 10.3352 11.7237 10.3354 11.5323C10.3358 11.3574 10.3362 11.3543 10.3364 11.3529C10.3365 11.3523 10.3365 11.352 10.3365 11.3427C10.3354 10.7032 10.4078 10.1475 10.5634 9.89681C10.6557 9.74741 10.8153 9.5799 11.2986 9.46332C11.3936 9.44917 11.8803 9.43446 12.0258 9.43446H12.0778C12.2973 9.43574 12.5167 9.44537 12.7354 9.46332C13.2181 9.5799 13.3777 9.74741 13.47 9.89681C13.6256 10.1475 13.698 10.7032 13.6974 11.3427C13.6974 11.3518 13.6975 11.3521 13.6976 11.3526C13.6978 11.354 13.6982 11.357 13.6986 11.5323L13.6991 11.9273L13.698 12.1067C13.6941 12.7986 13.6946 12.8099 13.6962 12.8479L13.6963 12.8497C13.7218 13.41 13.5962 13.6409 13.3324 13.917C13.319 13.9314 13.3051 13.9451 13.2906 13.9583L13.0082 13.672L12.8514 13.5135C12.7614 13.4281 12.6239 13.4241 12.5407 13.5067C12.4575 13.5888 12.4592 13.7263 12.5441 13.8169L12.7014 13.9764L12.9029 14.1802Z" fill="white"/>
</svg>
