<svg width="24" height="24" viewBox="0 0 24 24" fill="none" xmlns="http://www.w3.org/2000/svg">
<path d="M12 0C18.624 0 24 5.376 24 12C24 18.624 18.624 24 12 24C5.376 24 0 18.624 0 12C0 5.376 5.376 0 12 0Z" fill="#071630"/>
<path opacity="0.9" d="M19.7516 17.3739C19.7516 17.711 19.462 17.9518 19.0275 17.9518C18.6413 17.9518 18.3516 17.711 18.3516 17.3739V8.56001C18.3516 8.51185 18.3516 8.51185 18.3034 8.51185C18.2551 8.51185 18.2551 8.51185 18.2068 8.51185L12.6551 15.5918C12.4137 15.8327 11.9792 15.929 11.6896 15.7363C11.593 15.6882 11.5447 15.64 11.4965 15.5918L5.94473 8.51185C5.89645 8.51185 5.89645 8.51185 5.84818 8.51185L5.7999 8.56001V17.4221C5.7999 17.7592 5.46197 18 5.07576 18C4.68956 18 4.3999 17.7592 4.3999 17.4221V6.82613C4.3999 6.63348 4.54473 6.44083 4.68956 6.3445C5.02749 6.15185 5.4137 6.24818 5.65508 6.48899L11.7861 14.2433C11.9309 14.3878 12.124 14.3878 12.2689 14.2914C12.2689 14.2914 12.3171 14.2914 12.3171 14.2433L18.4482 6.48899C18.593 6.29634 18.8344 6.20001 19.0758 6.20001C19.462 6.20001 19.7999 6.44083 19.7999 6.77797L19.7516 17.3739Z" fill="url(#paint0_linear_300_12374)"/>
<path d="M19.8001 17.2091C19.8001 17.495 19.5124 17.7809 19.0809 17.7809C18.8411 17.7809 18.6014 17.6856 18.4575 17.495L12.4159 9.82203C12.272 9.67906 12.0802 9.67906 11.9364 9.77438C11.9364 9.77438 11.8884 9.82203 11.8405 9.91735L5.84679 17.5427C5.60704 17.8286 5.22344 17.8763 4.88779 17.6856C4.696 17.5903 4.6001 17.3997 4.6001 17.2091V6.77191C4.6001 6.4383 4.88779 6.20001 5.27139 6.20001C5.65499 6.20001 5.99063 6.4383 5.99063 6.77191V15.541C5.99063 15.5887 5.99063 15.5887 6.03858 15.5887C6.08653 15.5887 6.08653 15.5887 6.13448 15.5887L11.5048 8.77355C11.5528 8.67824 11.7446 8.4876 11.8405 8.43995C12.1761 8.24931 12.5597 8.29697 12.7995 8.58292L18.2657 15.5887C18.2657 15.5887 18.3137 15.5887 18.3616 15.5887C18.4096 15.5887 18.4096 15.541 18.4096 15.541V6.77191C18.4096 6.4383 18.6973 6.20001 19.0809 6.20001C19.4644 6.20001 19.8001 6.4383 19.8001 6.77191V17.2091Z" fill="url(#paint1_linear_300_12374)"/>
<defs>
<linearGradient id="paint0_linear_300_12374" x1="19.7404" y1="17.9616" x2="19.7404" y2="6.25275" gradientUnits="userSpaceOnUse">
<stop stop-color="#3F5CAA"/>
<stop offset="0.2" stop-color="#3F5FAC"/>
<stop offset="0.33" stop-color="#4168B2"/>
<stop offset="0.46" stop-color="#4378BD"/>
<stop offset="0.57" stop-color="#468ECC"/>
<stop offset="0.64" stop-color="#48A0D9"/>
<stop offset="0.8" stop-color="#3ABBEC"/>
<stop offset="0.9" stop-color="#35C6F4"/>
</linearGradient>
<linearGradient id="paint1_linear_300_12374" x1="19.8001" y1="17.8001" x2="19.8001" y2="6.20001" gradientUnits="userSpaceOnUse">
<stop stop-color="#4068B1"/>
<stop offset="0.13" stop-color="#3D7FC1"/>
<stop offset="0.39" stop-color="#39A5DD"/>
<stop offset="0.59" stop-color="#36BDEE"/>
<stop offset="0.72" stop-color="#35C6F4"/>
</linearGradient>
</defs>
</svg>
