<svg width="24" height="24" viewBox="0 0 24 24" fill="none" xmlns="http://www.w3.org/2000/svg">
<circle cx="12" cy="12" r="12" fill="#610089"/>
<path fill-rule="evenodd" clip-rule="evenodd" d="M20.0424 10.4128C19.2735 6.66169 16.1407 4.00785 12.2699 3.8021C12.2283 3.8021 12.1868 3.80157 12.1453 3.80104C12.0563 3.79991 11.9673 3.79878 11.8783 3.80285C11.4995 3.82148 11.2278 4.08836 11.2173 4.44692C11.2067 4.80922 11.4557 5.09473 11.8315 5.13647C12.0038 5.15574 12.1775 5.16846 12.351 5.18118L12.3511 5.18118C12.6745 5.20487 12.9976 5.22854 13.3119 5.29451C16.5398 5.97661 18.7755 8.67368 18.8487 11.944C18.8585 12.3883 19.1204 12.6746 19.5203 12.6746C19.9285 12.6753 20.2235 12.3734 20.1986 11.9261L20.1974 11.9045L20.1974 11.9044C20.1699 11.4053 20.1421 10.9007 20.0424 10.4128ZM3.78655 13.7056C4.4913 17.3076 7.83241 20.0897 11.547 20.2C11.6072 20.1961 11.6681 20.1947 11.7291 20.1934H11.7292H11.7292C11.8646 20.1904 12.0003 20.1874 12.1288 20.156C12.4178 20.0852 12.6079 19.752 12.5664 19.4538C12.5227 19.1385 12.2601 18.9186 11.9326 18.885C11.7867 18.8697 11.6401 18.8568 11.4934 18.844L11.4934 18.844L11.4933 18.844L11.4933 18.8439L11.4933 18.8439C11.0632 18.8063 10.6323 18.7685 10.2183 18.6673C7.13974 17.9174 4.99458 15.2203 4.93949 12.0864C4.93648 11.9396 4.90403 11.7785 4.83612 11.6511C4.7003 11.3999 4.38943 11.2873 4.12232 11.3559C3.80013 11.4379 3.57905 11.6839 3.60169 12.0268C3.63866 12.5881 3.67941 13.1539 3.78655 13.7056ZM11.888 9.01586C13.5307 9.01064 14.91 10.3413 14.9213 11.9418C14.9251 12.4934 14.4135 12.8408 13.9404 12.603C13.6839 12.4748 13.5737 12.2601 13.5631 11.9746C13.5468 11.177 12.9525 10.5065 12.1544 10.3853C11.2852 10.2392 10.4401 10.8221 10.271 11.6846C10.0983 12.5657 10.6566 13.4238 11.5259 13.6094C11.6451 13.6347 11.7673 13.6489 11.888 13.6556C12.2925 13.6765 12.5762 13.9515 12.5732 14.3265C12.5701 14.7067 12.2661 14.9885 11.8541 14.9922C10.5593 15.0034 9.33843 14.0701 8.98531 12.7998C8.45788 10.9026 9.90057 9.02182 11.888 9.01586ZM17.5787 11.9367C17.5815 11.8947 17.5842 11.8542 17.5887 11.8165C17.5812 11.747 17.5745 11.6803 17.5679 11.6156L17.5679 11.6156L17.5679 11.6154C17.5547 11.484 17.5422 11.3607 17.526 11.2373C17.1752 8.51115 14.7553 6.39404 11.9862 6.38883C11.5259 6.38734 11.2226 6.64899 11.2188 7.05005C11.2158 7.45111 11.5168 7.71351 11.9703 7.73587C13.825 7.82235 15.1326 8.71615 15.897 10.3823C16.1279 10.8869 16.2192 11.4266 16.2244 11.9828C16.2282 12.348 16.4629 12.6149 16.7926 12.6686C17.1095 12.7193 17.434 12.5448 17.5321 12.2437C17.5649 12.1441 17.5721 12.0361 17.5787 11.9367ZM6.22437 12.1602C6.18589 11.8568 6.26436 11.5579 6.61523 11.3983C7.07701 11.1874 7.56067 11.5139 7.56973 12.0499C7.57878 12.5635 7.66782 13.0577 7.85494 13.5363C8.47768 15.1559 10.0315 16.2412 11.7846 16.2811C12.3701 16.296 12.7104 16.715 12.5241 17.1906C12.4199 17.4589 12.1905 17.6147 11.8767 17.6118C10.2152 17.5969 8.81397 16.9818 7.69347 15.7764C6.77052 14.7907 6.24752 13.5036 6.22437 12.161V12.1602ZM14.5306 14.9236C14.7841 14.8066 14.8996 14.5956 14.9275 14.2624V14.2616C14.9183 14.24 14.9097 14.2123 14.9002 14.1813C14.8751 14.1003 14.8432 13.9974 14.7766 13.9262C14.4272 13.5542 14.0688 13.1889 13.6901 12.8475C13.4343 12.6157 13.0162 12.6671 12.7823 12.9153C12.553 13.1591 12.5303 13.549 12.7642 13.7965C13.1037 14.1562 13.4563 14.5036 13.8213 14.8379C14.0228 15.022 14.2786 15.0399 14.5306 14.9236Z" fill="white"/>
</svg>
