<svg width="24" height="24" viewBox="0 0 24 24" fill="none" xmlns="http://www.w3.org/2000/svg">
<circle cx="12" cy="12" r="12" fill="#EDF0F4"/>
<path d="M15.1997 10.1407V13.8308L18.3997 11.9891V8.2923L15.1997 10.1407Z" fill="#9290B0"/>
<path d="M18.3997 15.6792L15.1997 13.8308V17.5276L18.3997 19.3692V15.6792Z" fill="#A2EEE3"/>
<path d="M11.9996 8.29006V4.60001L5.59961 8.29006L8.79622 10.1385L11.9996 8.29006Z" fill="#46DDC8"/>
<path d="M11.9996 15.6792L8.79622 13.8308L5.59961 15.6792L8.79622 17.5276L11.9996 19.3692V15.6792Z" fill="#262261"/>
<path d="M5.59961 8.2923V11.988V15.6769L8.79961 13.8291V10.1401L5.59961 8.2923Z" fill="#9290B0"/>
<path d="M15.2 13.8308L12 15.6792V19.3692L15.2 17.5276V13.8308Z" fill="#46DDC8"/>
<path d="M15.2 10.1385L18.4 8.29006L15.2 6.44842L12 4.60001V8.29006L15.2 10.1385Z" fill="#262261"/>
</svg>
