<svg width="24" height="24" viewBox="0 0 24 24" fill="none" xmlns="http://www.w3.org/2000/svg">
<circle cx="12" cy="12" r="12" fill="#252525"/>
<path fill-rule="evenodd" clip-rule="evenodd" d="M19.3214 15.8817C19.4775 15.8852 19.6017 16.0136 19.6001 16.1697V17.6H14.8908L14.8728 16.355C14.8734 16.2728 14.9098 16.195 14.9726 16.142C14.9912 16.118 15.0123 16.0962 15.0356 16.0767C17.1108 14.6292 17.9081 11.873 16.9421 9.48873C15.9753 7.10448 13.5131 5.75523 11.0568 6.26373C8.60134 6.77148 6.83359 8.99673 6.83284 11.5812C6.83134 13.3475 7.67284 15.0012 9.08359 16.0025C9.11431 16.0197 9.13933 16.0455 9.15559 16.0767C9.2602 16.1256 9.32713 16.2305 9.32734 16.346L9.30934 17.591H4.6001V16.16C4.6001 16.001 4.72535 15.872 4.8791 15.872C5.03285 15.872 5.1581 16.001 5.1581 16.16V17.024H8.75959L8.76859 16.4855H8.75959C6.68884 14.984 5.80009 12.272 6.56209 9.78198C7.32634 7.29198 9.56509 5.59998 12.0963 5.59998C14.6276 5.59998 16.8663 7.29198 17.6291 9.78198C18.3918 12.272 17.5031 14.984 15.4316 16.4855L15.4413 17.033H19.0428V16.1697C19.0411 16.0136 19.1654 15.8852 19.3214 15.8817ZM19.3214 15.8817L19.3211 15.8817H19.3218L19.3214 15.8817ZM15.6026 11.9997C16.2236 12.7895 16.4126 13.4952 16.1426 13.9595C15.9356 14.3217 15.4946 14.5167 14.8548 14.5167C14.4531 14.5069 14.0541 14.4477 13.6668 14.3405C13.3158 15.5667 12.7481 16.3565 12.1001 16.3565C11.4521 16.3565 10.8851 15.5667 10.5423 14.3405C10.1551 14.4477 9.75607 14.5069 9.35434 14.5167C8.71459 14.5167 8.27359 14.3217 8.06659 13.9595C7.7336 13.3835 8.11159 12.4827 8.97559 11.5632C8.84494 11.4275 8.72176 11.2848 8.60659 11.1357C7.98559 10.346 7.7966 9.64923 8.06659 9.16623C8.27359 8.80398 8.71459 8.60898 9.35434 8.60898C9.7561 8.61901 10.1551 8.67846 10.5423 8.78598C10.8933 7.55973 11.4611 6.76998 12.1091 6.76998C12.7571 6.76998 13.3241 7.55973 13.6668 8.79498C14.0541 8.68771 14.4531 8.62852 14.8548 8.61873C15.4946 8.61873 15.9356 8.81373 16.1426 9.17598C16.4126 9.65898 16.2236 10.3557 15.6026 11.1455C15.4873 11.2945 15.3641 11.4372 15.2336 11.573C15.3641 11.708 15.4871 11.8505 15.6026 11.9997ZM13.7569 9.11973C14.119 9.02681 14.4902 8.97399 14.8639 8.96223C15.2156 8.96223 15.6746 9.02748 15.8456 9.34323C16.0346 9.68673 15.8456 10.253 15.3326 10.913C15.2246 11.0427 15.1076 11.1822 14.9816 11.3127C14.6591 11.006 14.3194 10.7202 13.9639 10.4577C13.9219 10.0077 13.8536 9.56073 13.7569 9.11973ZM12.8837 12.9657C13.1447 12.8082 13.3967 12.641 13.6307 12.4737C13.6577 12.176 13.6667 11.879 13.6667 11.5632C13.6667 11.2475 13.6487 10.9407 13.6307 10.6527C13.3876 10.4823 13.1382 10.3212 12.8829 10.1697C12.6258 10.0233 12.3647 9.88398 12.0999 9.75198C11.8314 9.87648 11.5704 10.016 11.3169 10.1697C11.0469 10.3272 10.8032 10.4855 10.5692 10.6527C10.5422 10.9407 10.5332 11.2475 10.5332 11.5632C10.5332 11.8782 10.5512 12.1857 10.5692 12.4737C11.0557 12.8153 11.5674 13.1194 12.0999 13.3835C12.3684 13.259 12.6294 13.1195 12.8829 12.9657H12.8837ZM13.3133 13.1152C13.4064 13.056 13.4994 12.9969 13.595 12.938C13.55 13.2905 13.496 13.616 13.433 13.9227C13.1232 13.8267 12.8195 13.712 12.524 13.5785C12.704 13.4862 12.884 13.3835 13.064 13.2725C13.1483 13.2201 13.2307 13.1677 13.313 13.1154L13.313 13.1154L13.313 13.1154L13.3131 13.1154L13.3131 13.1154L13.3131 13.1153L13.3131 13.1153L13.3131 13.1153L13.3132 13.1153L13.3132 13.1153L13.3132 13.1153L13.3132 13.1153L13.3133 13.1152ZM11.695 13.5785L11.155 13.2725C10.975 13.1607 10.795 13.049 10.6232 12.938C10.6555 13.2695 10.7095 13.598 10.7852 13.9227C11.0942 13.8252 11.398 13.7105 11.695 13.5785ZM10.2003 11.5632C10.2016 11.7768 10.2076 11.9904 10.2183 12.2037C9.95808 12.005 9.70833 11.7905 9.47133 11.5632C9.70683 11.3337 9.95658 11.12 10.2183 10.922L10.2173 10.946L10.2173 10.946C10.2087 11.1511 10.2003 11.3488 10.2003 11.5632ZM10.6232 10.2072C10.7924 10.0884 10.9666 9.97679 11.1452 9.87272C11.335 9.76097 11.515 9.65897 11.695 9.56597C11.3987 9.43247 11.095 9.31847 10.7852 9.22247C10.7222 9.52847 10.6682 9.85397 10.6232 10.2072ZM13.0542 9.87272C12.8742 9.76097 12.6942 9.65897 12.5142 9.56597C12.8112 9.43397 13.115 9.31997 13.424 9.22247C13.5 9.54673 13.5541 9.87572 13.586 10.2072C13.4142 10.0955 13.2342 9.98372 13.0542 9.87272ZM13.9997 10.931L13.9997 10.9318L13.9997 10.9317V10.931ZM13.9997 10.9318C14.2597 11.1286 14.5063 11.3426 14.7377 11.5722C14.5127 11.786 14.2607 11.9997 13.9997 12.2135C14.0087 12.0087 14.0177 11.795 14.0177 11.5722C14.0177 11.3591 14.0095 11.1631 14.0009 10.9587L14.0009 10.9586L13.9997 10.9318ZM10.8753 8.87821C11.1821 7.77346 11.6501 7.12321 12.1091 7.12321C12.5591 7.12321 13.0361 7.77346 13.3428 8.87896C12.9212 9.01163 12.5091 9.17249 12.1091 9.36046C11.7086 9.17221 11.2968 9.01096 10.8753 8.87821ZM8.37253 9.34323C8.17453 9.68673 8.36353 10.2627 8.88553 10.9032C8.99353 11.042 9.11052 11.1717 9.23652 11.3112C9.55752 11.0037 9.89652 10.7187 10.2543 10.4577C10.2955 10.0077 10.3645 9.56073 10.4613 9.12048C10.0998 9.02298 9.72777 8.97048 9.35427 8.96223C9.00252 8.96223 8.55253 9.02748 8.37253 9.34323ZM10.4612 14.0052C10.1005 14.1095 9.72849 14.1657 9.35424 14.1732C9.00249 14.1732 8.54349 14.108 8.37249 13.7922C8.14749 13.3835 8.45349 12.641 9.22749 11.8137C9.54924 12.125 9.89198 12.4107 10.2542 12.6687C10.2956 13.1181 10.3647 13.5644 10.4612 14.0052ZM12.1091 16.0122C12.5591 16.0122 13.0361 15.362 13.3428 14.2572C12.9212 14.124 12.509 13.9627 12.1091 13.7742C11.709 13.9623 11.2968 14.1237 10.8753 14.2572C11.1821 15.362 11.6591 16.0122 12.1091 16.0122ZM15.3326 12.2225C15.8456 12.8825 16.0346 13.4577 15.8456 13.7922C15.6656 14.108 15.2156 14.1732 14.8639 14.1732C14.4904 14.1657 14.1184 14.1125 13.7569 14.0157C13.8535 13.5747 13.9227 13.1281 13.9639 12.6785C14.3216 12.416 14.6606 12.131 14.9816 11.8235C15.1037 11.9519 15.2208 12.085 15.3326 12.2225ZM12.109 10.2072C12.8365 10.2072 13.4275 10.8125 13.4327 11.5632C13.4327 12.311 12.8455 12.9177 12.121 12.9192C11.3965 12.9207 10.807 12.317 10.8032 11.5692C10.8002 10.8215 11.3845 10.2117 12.109 10.2072ZM13.0819 11.5722C13.0774 12.125 12.6446 12.5712 12.1091 12.5757C11.5721 12.5757 11.1364 12.1265 11.1364 11.5722C11.1364 11.018 11.5714 10.5695 12.1091 10.5695C12.6469 10.5695 13.0819 11.018 13.0819 11.5722Z" fill="white"/>
</svg>
