<svg width="24" height="24" viewBox="0 0 24 24" fill="none" xmlns="http://www.w3.org/2000/svg">
<circle cx="12" cy="12" r="12" fill="#454545"/>
<path fill-rule="evenodd" clip-rule="evenodd" d="M16.634 8.99441C17.2167 9.88845 17.5265 10.9328 17.5256 12C17.5264 13.0673 17.2163 14.1117 16.6333 15.0056L18.8002 17.1725L17.1727 18.8L15.0058 16.6331C14.1399 17.196 13.1094 17.5254 12.0002 17.5254C10.891 17.5254 9.86046 17.196 8.9946 16.6331L6.82766 18.8L5.2002 17.1725L7.36713 15.0056C6.805 14.1397 6.47482 13.1092 6.47482 12C6.47482 10.8909 6.80424 9.86028 7.36713 8.99441L5.2002 6.82748L6.82766 5.20001L8.9946 7.36619C9.86046 6.80406 10.891 6.47463 12.0002 6.47463C13.1094 6.47463 14.1399 6.80406 15.0058 7.36695L17.1727 5.20001L18.8002 6.82748L16.634 8.99441ZM12 8.60002C10.1255 8.60002 8.60003 10.1255 8.60003 12C8.60212 13.8769 10.1231 15.3979 12 15.4C12.4778 15.4 12.9501 15.2985 13.3857 15.1023L11.1417 12.8583L12.8583 11.141L15.1023 13.385C15.292 12.9611 15.4 12.4934 15.4 12C15.4 10.1255 13.8746 8.60002 12 8.60002Z" fill="white"/>
</svg>
