<svg width="24" height="24" viewBox="0 0 24 24" fill="none" xmlns="http://www.w3.org/2000/svg">
<circle cx="12" cy="12" r="12" fill="#EDF0F4"/>
<path fill-rule="evenodd" clip-rule="evenodd" d="M19.9606 18.5565L19.955 18.5485L17.1981 16.0564L18.5093 12.0043L18.5133 11.9923V11.8874L17.1717 7.7153C17.1701 7.7041 17.1661 7.6929 17.1597 7.6825V7.6721L17.1237 7.6361C17.1133 7.61529 17.0965 7.60009 17.0749 7.59209L13.5419 5.0152L13.5211 5H9.05698C9.03058 5 9.02498 5.004 8.96898 5.044L8.96898 5.044C8.94258 5.0632 8.90338 5.0912 8.85377 5.1264L8.44656 5.41922C8.23479 5.57178 7.96387 5.76729 7.63784 6.00257L7.63736 6.00292L7.21452 6.30805C6.32968 6.94727 5.43445 7.59449 5.42565 7.60089L5.42085 7.60489L5.35285 7.6729V7.7201L4.004 11.8754L4 11.8874V11.9931L5.35365 16.1604V16.1612C5.35285 16.19 5.36325 16.2172 5.38325 16.2372L5.42085 16.2748L8.94418 18.8237C8.95858 18.8485 8.98418 18.8645 9.01218 18.8669C9.02818 18.8757 9.04658 18.8805 9.06498 18.8805H13.4939L13.5099 18.8645C13.5195 18.8621 13.5291 18.8589 13.5371 18.8533H13.5403L16.9669 16.37L19.679 18.8317C19.6966 18.8485 19.7182 18.8613 19.7414 18.8693C19.7886 18.8837 19.8382 18.8837 19.8854 18.8693C19.9166 18.8581 19.943 18.8365 19.959 18.8069C19.987 18.7733 20.0014 18.7309 19.9998 18.6869C20.0006 18.6405 19.987 18.5949 19.9606 18.5565ZM16.9227 11.7539L17.1059 8.78735L18.0563 11.7539H16.9227ZM17.1069 15.0932L18.0573 12.1267H16.9237L17.1069 15.0932ZM7.46895 15.4883L8.60899 18.1244L5.91289 16.1652L7.46895 15.4883ZM13.4037 5.57206L11.6076 8.03215L14.6341 8.41296L13.4037 5.57206ZM15.0436 8.39214L13.9036 5.75525L16.5997 7.71452L15.0436 8.39214ZM16.7653 8.05774L15.2204 8.73537L16.5708 11.2459L16.5724 11.2115L16.7653 8.05774ZM5.94249 11.2458L5.94089 11.213L5.74808 8.05847L6.66092 8.46169L7.29294 8.7361L5.94249 11.2458ZM11.2626 7.85287L13.0643 5.38638H9.44973L11.2626 7.85287ZM16.4108 12.1267L14.9667 14.806L14.1755 13.1131L13.7307 12.1267H16.4108ZM14.9674 9.07536L13.7322 11.7539H16.4107L14.9674 9.07536ZM11.6129 8.42016L14.6706 8.80258L13.413 11.5275L11.6129 8.42016ZM13.4131 12.353L11.9883 14.8211L11.6139 15.4596L14.6708 15.0771L13.4131 12.353ZM9.41684 11.7538L11.2625 8.5617L12.1729 10.157L13.0962 11.7538H9.41684ZM11.2625 15.3196L13.0962 12.1267H9.41684L10.3393 13.7235L11.2625 15.3196ZM10.5643 9.00658L9.11301 11.5267L7.85537 8.80258L10.9011 8.42016L10.5643 9.00658ZM7.85447 15.0779L10.9002 15.4604L9.11132 12.353L8.8009 13.0187L7.85447 15.0779ZM6.11536 11.7539L7.55861 9.07618L8.34984 10.8074L8.79305 11.7539H6.11536ZM7.55861 14.8052L8.79385 12.1267H6.11536L7.55861 14.8052ZM16.5716 12.6322V12.6402L16.7653 15.822L15.8524 15.4187L15.2204 15.1443L16.5716 12.6322ZM8.60899 5.75606L5.91289 7.71533L7.46895 8.39215L8.60899 5.75606ZM7.29294 15.1451L5.74808 15.8228L5.94089 12.6418L5.94169 12.6322L7.29294 15.1451ZM13.0643 18.4949L11.2626 16.0276L9.44973 18.4949H13.0643ZM16.5997 16.1652L13.9036 18.1244L15.0436 15.4883L16.5997 16.1652ZM9.10974 5.57279L7.87929 8.41369L10.9058 8.03208L9.10974 5.57279ZM4.45612 11.7539L5.40655 8.78735L5.58976 11.7539H4.45612ZM5.40735 15.0932L5.59056 12.1267H4.45612L5.40735 15.0932ZM10.9058 15.8484L9.10974 18.3076L7.87929 15.4667L10.9058 15.8484ZM13.4037 18.3076L14.6341 15.4667L11.6076 15.8484L13.4037 18.3076Z" fill="#2E9AD0"/>
</svg>
