<svg width="24" height="24" viewBox="0 0 24 24" fill="none" xmlns="http://www.w3.org/2000/svg">
<circle cx="12" cy="12" r="12" fill="#EDF0F4"/>
<path fill-rule="evenodd" clip-rule="evenodd" d="M13.9947 3.93651L18.3802 6.70223H18.3806C19.3445 7.26055 19.5329 8.51077 18.5889 9.10254L15.0163 11.283C14.735 11.4588 14.5259 11.7301 14.3632 12.0202L12.4146 15.3544C12.3319 15.5019 12.1769 15.5929 12.009 15.5924C11.8411 15.592 11.6866 15.5002 11.6046 15.3522L9.94695 12.5036C9.9112 12.439 9.87265 12.3647 9.83142 12.2852C9.65152 11.9384 9.42064 11.4933 9.14914 11.3219L5.29713 8.97366C4.47207 8.45275 4.48965 7.40547 5.31842 6.89029L9.89962 4.00068C11.1499 3.22346 12.7211 3.19884 13.9947 3.93651ZM14.1186 10.3462L17.1126 8.46941C17.8057 8.03499 17.7844 7.1658 17.0768 6.75595L13.4862 4.51906C12.5512 3.97749 11.3977 3.99554 10.4798 4.5661L6.85293 6.82073C6.24443 7.19891 6.24132 8.0911 6.84698 8.47337L9.91984 10.4144C10.1648 10.5692 10.3671 10.7839 10.5081 11.0385L11.7115 13.2948C11.7715 13.4038 11.8851 13.4715 12.0086 13.4718C12.132 13.4722 12.246 13.405 12.3065 13.2964L13.6226 10.8683C13.742 10.6551 13.9126 10.4756 14.1186 10.3462Z" fill="#000300"/>
<path d="M4.6001 10.2476V16.0674C4.59996 16.1723 4.65514 16.2693 4.74492 16.322L11.6258 20.3746C11.8215 20.4893 12.0636 20.4906 12.26 20.4032L19.2186 16.349C19.3089 16.2696 19.3645 16.1723 19.3645 16.0671V10.2876C19.3644 9.99837 19.1321 9.76396 18.8456 9.76407C18.559 9.76418 18.3269 9.99878 18.327 10.2881V15.4772C18.327 15.5819 18.272 15.6787 18.1824 15.7315L12.3138 19.2185C12.117 19.3344 11.8738 19.3344 11.677 19.2185L5.7027 15.6781C5.61296 15.6254 5.55775 15.5285 5.55774 15.4236V10.2476C5.55774 9.98058 5.34337 9.76414 5.07892 9.76414C4.81447 9.76414 4.6001 9.98058 4.6001 10.2476Z" fill="#000300"/>
</svg>
