<svg width="24" height="24" viewBox="0 0 24 24" fill="none" xmlns="http://www.w3.org/2000/svg">
<circle cx="12" cy="12" r="12" fill="#EDF0F4"/>
<path d="M14.1367 13.2106L12.0752 14.4163L10.0137 13.2106V10.7943L12.0752 9.58374L14.1367 10.7943V13.2106Z" fill="#00B5D1"/>
<path fill-rule="evenodd" clip-rule="evenodd" d="M5.3999 8.10246L12.0999 4.2L18.7999 8.10246V15.8975L12.0999 19.8L5.3999 15.8975V8.10246ZM8.83551 10.0906V13.8897L12.0751 15.7844L15.3146 13.8897V10.0906L12.0751 8.19597L8.83551 10.0906ZM8.83551 16.0796V14.7608L13.2187 17.3296L12.0996 17.9841L8.83551 16.0796ZM13.9649 16.8965L17.229 14.992V9.00795L12.1046 6.02082L6.97528 9.00795V14.992L8.10421 15.6515V14.3129V9.8347V9.66738L12.08 7.33968L16.0559 9.66738V14.3129L12.8065 16.2174L13.9649 16.8965Z" fill="#0D285A"/>
</svg>
