<svg width="24" height="24" viewBox="0 0 24 24" fill="none" xmlns="http://www.w3.org/2000/svg">
<path d="M12 24C18.6276 24 24 18.6276 24 12C24 5.3724 18.6276 0 12 0C5.3724 0 0 5.3724 0 12C0 18.6276 5.3724 24 12 24Z" fill="#EDF0F4"/>
<path d="M10.5389 10.2527V4.92554C10.5389 4.92554 8.8125 5.78381 8.8125 7.60886C8.8125 9.43391 10.5389 10.2527 10.5389 10.2527Z" fill="#006E3C"/>
<path d="M10.5386 4.92554C10.5386 4.92554 12.265 5.78381 12.265 7.60886C12.265 9.43391 10.5386 10.2527 10.5386 10.2527V4.92554Z" fill="#00B43C"/>
<path d="M14.5537 12.7486L16.9214 11.407C16.9214 11.407 16.1025 10.8545 15.2936 11.3182C14.4847 11.7818 14.5537 12.7486 14.5537 12.7486Z" fill="#006E3C"/>
<path d="M16.9213 11.407C16.9213 11.407 16.9707 12.3935 16.1617 12.8473C15.3528 13.3109 14.5537 12.7486 14.5537 12.7486L16.9213 11.407Z" fill="#00B43C"/>
<path fill-rule="evenodd" clip-rule="evenodd" d="M17.0357 11.1878L17.0398 11.1899L17.178 11.2787V11.4267C17.178 11.4661 17.1286 12.6006 16.2901 13.084C16.0336 13.232 15.7672 13.2813 15.5206 13.2813C15.1161 13.2813 14.7511 13.1432 14.5736 13.0544L14.2579 13.232C14.2677 13.2912 14.2776 13.3603 14.2776 13.4293C14.2776 13.8239 14.0112 14.1495 13.6561 14.258V15.9745C14.0112 16.0732 14.2776 16.4086 14.2776 16.8032C14.2776 17.2866 13.883 17.6713 13.4095 17.6713C13.153 17.6713 12.9261 17.5628 12.7682 17.3852L11.3772 18.1843C11.397 18.2534 11.4068 18.3224 11.4068 18.3915C11.4068 18.865 11.0122 19.2498 10.5387 19.2498C10.0553 19.2498 9.67057 18.865 9.67057 18.3915C9.67057 18.3224 9.68043 18.2534 9.70016 18.1843L8.30918 17.3852C8.15133 17.5628 7.92443 17.6713 7.66794 17.6713C7.18455 17.6713 6.7998 17.2767 6.7998 16.8032C6.7998 16.4086 7.06616 16.083 7.42131 15.9745V14.258C7.06616 14.1593 6.7998 13.8239 6.7998 13.4293C6.7998 12.9459 7.19441 12.5612 7.66794 12.5612C7.9047 12.5612 8.11187 12.6598 8.26971 12.8078L9.70016 11.9791C9.68043 11.9101 9.67057 11.841 9.67057 11.772C9.67057 11.3774 9.92706 11.0419 10.2921 10.9433V10.4303C9.87774 10.1541 8.5558 9.18729 8.5558 7.63846C8.5558 5.843 10.3315 4.72824 10.4105 4.67891L10.5387 4.59999L10.6669 4.67891C10.7459 4.72824 12.5216 5.843 12.5216 7.63846C12.5216 9.18729 11.1997 10.1639 10.7853 10.4303V10.9433C11.1405 11.0419 11.4068 11.3774 11.4068 11.772C11.4068 11.841 11.397 11.9101 11.3772 11.9791L12.7978 12.8078C12.9557 12.65 13.1628 12.5612 13.3996 12.5612C13.6364 12.5612 13.8435 12.6598 14.0014 12.8078L14.3171 12.6302C14.3467 12.3047 14.4749 11.5253 15.1556 11.1307C15.9846 10.6487 16.9549 11.1464 17.0357 11.1878ZM13.4095 13.8042C13.4982 13.8042 13.5772 13.7746 13.6462 13.7253C13.7153 13.6661 13.7646 13.5872 13.7745 13.4688C13.7843 13.449 13.7843 13.4293 13.7843 13.4096C13.7843 13.2517 13.6857 13.1136 13.5476 13.0544C13.5081 13.0347 13.4489 13.0248 13.3996 13.0248C13.3503 13.0248 13.3009 13.0347 13.2615 13.0544C13.1332 13.1038 13.0444 13.2221 13.0247 13.3603V13.4096V13.4688C13.0444 13.5674 13.0938 13.6562 13.1727 13.7154C13.2023 13.745 13.2319 13.7647 13.2713 13.7746C13.3207 13.7943 13.3601 13.8042 13.4095 13.8042ZM13.7845 16.8032C13.7845 17.0202 13.6069 17.1879 13.3997 17.1879C13.3307 17.1879 13.2518 17.1682 13.2024 17.1288C13.0939 17.0597 13.015 16.9413 13.015 16.8032V16.7933C13.015 16.7539 13.0249 16.7144 13.0347 16.675L13.0347 16.675C13.0545 16.6059 13.1038 16.5467 13.163 16.4974C13.2123 16.4579 13.2715 16.4283 13.3307 16.4185C13.3396 16.4185 13.3484 16.4165 13.3582 16.4143C13.3702 16.4116 13.3835 16.4086 13.3997 16.4086C13.4885 16.4086 13.5773 16.4382 13.6365 16.4875C13.7352 16.5664 13.7845 16.675 13.7845 16.8032ZM12.847 16.1422C12.9358 16.0633 13.0444 16.0041 13.1627 15.9745V14.258C13.0246 14.2185 12.9062 14.1495 12.8076 14.0508L11.3673 14.8894C11.3969 14.9584 11.4067 15.0472 11.4067 15.1261C11.4067 15.1778 11.3992 15.222 11.3907 15.2717L11.387 15.2938L12.847 16.1422ZM10.5388 18.7762C10.3415 18.7762 10.1836 18.6381 10.154 18.4507V18.3915C10.154 18.2336 10.2527 18.0955 10.3908 18.0363C10.4401 18.0166 10.4895 18.0067 10.5388 18.0067C10.5881 18.0067 10.6374 18.0166 10.6868 18.0363C10.8249 18.0955 10.9235 18.2336 10.9235 18.3915V18.4507C10.8939 18.6282 10.7262 18.7762 10.5388 18.7762ZM8.23019 16.1422L9.69024 15.2938C9.68037 15.2445 9.67051 15.1853 9.67051 15.1261C9.67051 15.0373 9.69024 14.9584 9.70997 14.8795L8.26965 14.0508C8.171 14.1495 8.05262 14.2185 7.91451 14.258V15.9745C8.03289 16.0041 8.14141 16.0633 8.23019 16.1422ZM8.06258 16.8032C8.06258 16.9413 7.99352 17.0597 7.87514 17.1288C7.81595 17.1682 7.7469 17.1879 7.67784 17.1879C7.46081 17.1879 7.2931 17.0104 7.2931 16.8032C7.2931 16.6848 7.35229 16.5664 7.44108 16.4974C7.51013 16.4481 7.58905 16.4185 7.67784 16.4185C7.69757 16.4185 7.72717 16.4185 7.7469 16.4283C7.81595 16.4382 7.86528 16.4678 7.9146 16.5072C7.97379 16.5467 8.01325 16.6158 8.04285 16.6848C8.05271 16.7243 8.06258 16.7637 8.06258 16.8032ZM7.66809 13.0446C7.46092 13.0446 7.28334 13.2123 7.28334 13.4293C7.28334 13.5477 7.34253 13.6562 7.42146 13.7549C7.48065 13.8042 7.56943 13.8338 7.65822 13.8338C7.70755 13.8338 7.75687 13.8239 7.79633 13.8042C7.83579 13.7845 7.86538 13.7647 7.89497 13.745L7.89498 13.745C7.9739 13.6858 8.0331 13.597 8.04296 13.4984V13.4392V13.38C8.02323 13.2419 7.93444 13.1235 7.8062 13.0742C7.76674 13.0544 7.71741 13.0446 7.66809 13.0446ZM10.3018 11.4661C10.3709 11.4168 10.4498 11.3872 10.5386 11.3872C10.6274 11.3872 10.7161 11.4168 10.7753 11.4661C10.8543 11.5253 10.9036 11.6141 10.9134 11.7128V11.772C10.9134 11.8903 10.8543 12.0087 10.7655 12.0778L10.7655 12.0778C10.7359 12.0975 10.7063 12.1172 10.6668 12.137C10.6274 12.1567 10.578 12.1666 10.5287 12.1666C10.4794 12.1666 10.43 12.1567 10.3906 12.137C10.3511 12.1271 10.3215 12.1074 10.2919 12.0778C10.2032 12.0087 10.144 11.9002 10.144 11.772V11.7128C10.1736 11.6141 10.2229 11.5253 10.3018 11.4661ZM10.7753 15.4221C10.8641 15.353 10.9233 15.2544 10.9233 15.136C10.9233 15.136 10.9233 15.1261 10.9036 15.1163C10.9036 15.0768 10.9036 15.0373 10.8937 15.0077C10.874 14.9288 10.8247 14.8598 10.7655 14.8104C10.726 14.7808 10.6767 14.7513 10.6274 14.7414C10.5978 14.7315 10.5682 14.7315 10.5287 14.7315C10.4892 14.7315 10.4596 14.7315 10.43 14.7414C10.3709 14.7513 10.3215 14.7808 10.2821 14.8104C10.2229 14.8696 10.1736 14.9387 10.1538 15.0176C10.144 15.0472 10.144 15.0768 10.144 15.1163V15.1261C10.144 15.2445 10.2032 15.353 10.2919 15.4221C10.3117 15.4418 10.3314 15.4517 10.3511 15.4615C10.4005 15.4911 10.4596 15.5109 10.5287 15.5109C10.5978 15.5109 10.6569 15.4911 10.7161 15.4615C10.726 15.4566 10.7359 15.4492 10.7457 15.4418C10.7556 15.4344 10.7655 15.427 10.7753 15.4221ZM12.5611 13.2221C12.5413 13.2912 12.5315 13.3602 12.5315 13.4293C12.5315 13.4984 12.5413 13.5773 12.5611 13.6463L11.1109 14.4849C11.0122 14.3961 10.9037 14.3369 10.7755 14.2974V12.6006C10.9136 12.5612 11.032 12.4921 11.1306 12.3935L12.5611 13.2221ZM10.5389 5.18202C10.1541 5.45825 9.03935 6.37571 9.03935 7.64831C9.03935 8.71375 9.8187 9.48323 10.3021 9.84825V7.83575C10.3021 7.70751 10.4007 7.59899 10.5389 7.59899C10.6671 7.59899 10.7756 7.70751 10.7756 7.83575V9.84825C11.2491 9.48323 12.0384 8.71375 12.0384 7.64831C12.0384 6.37571 10.9236 5.45825 10.5389 5.18202ZM9.93692 12.3935C10.0356 12.4921 10.1638 12.5612 10.2921 12.6006V14.2974C10.1638 14.3369 10.0553 14.3961 9.95665 14.475L8.49661 13.6365C8.51634 13.5674 8.5262 13.4984 8.5262 13.4293C8.5262 13.3602 8.51634 13.2912 8.49661 13.2221L9.93692 12.3935ZM8.53607 16.8032C8.53607 16.8525 8.53607 16.9018 8.5262 16.9512L9.93692 17.77C10.0454 17.6713 10.1638 17.6023 10.3019 17.5628V15.9548C10.154 15.9055 10.0158 15.8265 9.91719 15.718L8.49661 16.5368C8.5262 16.6256 8.53607 16.7144 8.53607 16.8032ZM11.1405 17.77C11.0418 17.6713 10.9136 17.6023 10.7755 17.5628V15.9548C10.9234 15.9153 11.0616 15.8265 11.1602 15.718L12.5808 16.5368C12.5512 16.6158 12.5413 16.7045 12.5413 16.8032C12.5413 16.8525 12.5413 16.9018 12.5512 16.9512L11.1405 17.77ZM15.0864 12.7387C15.3626 12.8078 15.7178 12.8374 16.0335 12.6598C16.4971 12.3935 16.6254 11.8213 16.6648 11.5549C16.4083 11.4464 15.846 11.2787 15.3922 11.5451C15.0765 11.7325 14.9187 12.058 14.8496 12.3244L15.3232 12.0482C15.4415 11.9791 15.5797 12.0186 15.6487 12.137C15.7178 12.2554 15.6783 12.3935 15.5599 12.4625L15.0864 12.7387Z" fill="black"/>
</svg>
