<svg width="24" height="24" viewBox="0 0 24 24" fill="none" xmlns="http://www.w3.org/2000/svg">
<circle cx="12" cy="12" r="12" fill="#3555F9"/>
<path fill-rule="evenodd" clip-rule="evenodd" d="M12.7007 5.02238C12.0596 4.99025 11.411 4.97679 10.7774 5.09488C10.5747 5.12906 10.3749 5.1766 10.1754 5.22405C10.1437 5.23158 10.112 5.23912 10.0804 5.24659C7.58679 5.89307 5.52932 7.96777 4.95532 10.452C4.73736 11.3355 4.69681 12.2537 4.83604 13.153C4.85095 13.2584 4.86213 13.378 4.78162 13.4624C4.40666 13.9497 4.07195 14.4714 3.82744 15.0349C3.71338 15.3077 3.97131 15.6141 4.25533 15.6141C4.4247 15.6024 4.57527 15.5018 4.65117 15.3496L4.66569 15.3219C4.81962 15.0292 4.97367 14.7362 5.15436 14.4572C5.20511 14.5674 5.25297 14.6791 5.30084 14.7909C5.41399 15.0551 5.52725 15.3196 5.67916 15.5648C6.66764 17.2882 8.40605 18.5872 10.3711 19.0139C11.7263 19.3353 13.1695 19.2314 14.4801 18.7718C15.6177 18.3627 16.6364 17.6771 17.4448 16.7763C18.847 15.2352 19.5052 13.0581 19.1593 11.0126C19.1582 11 19.1566 10.9871 19.1549 10.9741C19.1469 10.9098 19.1384 10.8423 19.1862 10.7913C19.497 10.3668 19.7974 9.93186 20.03 9.46102C20.0458 9.42783 20.0633 9.39467 20.0809 9.3613C20.1459 9.23838 20.2124 9.11256 20.1978 8.97149C20.1693 8.74015 19.9644 8.57219 19.7326 8.59033C19.5649 8.58286 19.421 8.69422 19.3524 8.83846C19.1929 9.14488 19.0289 9.44981 18.8455 9.74278L18.8341 9.71543C18.6404 9.24835 18.4455 8.77869 18.1582 8.35865C17.3697 7.11287 16.2188 6.1398 14.861 5.57095C14.1811 5.26453 13.4402 5.10908 12.7007 5.02238ZM6.0794 9.83472C6.63105 8.45881 7.69482 7.29366 9.01652 6.59711C10.38 5.88337 12.0148 5.66588 13.5139 6.04779C15.7644 6.56646 17.6557 8.40201 18.17 10.6322C16.8267 12.2024 14.8773 13.1553 12.8758 13.6187C12.8182 13.6307 12.7606 13.6429 12.7031 13.6551C12.371 13.7256 12.0391 13.796 11.7024 13.8317C11.5612 13.8452 11.4201 13.8615 11.2791 13.8778C10.8738 13.9248 10.4687 13.9718 10.0594 13.9512C10.2808 13.7273 10.5071 13.508 10.7334 13.2887C11.0215 13.0095 11.3096 12.7303 11.5876 12.4415C11.4451 12.2688 11.2827 12.1141 11.1205 11.9595C11.0715 11.9128 11.0225 11.8661 10.9741 11.819C10.6447 12.1303 10.3228 12.4494 10.0009 12.7685C9.77723 12.9902 9.55356 13.212 9.32738 13.4311C9.1807 13.5819 9.0258 13.7246 8.87088 13.8673C8.68645 14.0372 8.50201 14.2071 8.33144 14.3907C8.41465 14.4981 8.50693 14.5981 8.60726 14.6896C8.9122 14.9878 9.21607 15.287 9.5199 15.5862C9.93802 15.9979 10.356 16.4095 10.7766 16.8182C10.837 16.8762 10.8961 16.9353 10.9551 16.9944C11.0852 17.1246 11.2149 17.2545 11.358 17.3712C11.4131 17.3172 11.469 17.2638 11.525 17.2105C11.6795 17.063 11.8343 16.9154 11.9723 16.7524C11.6377 16.4359 11.3097 16.1131 10.9817 15.7902C10.8311 15.6419 10.6804 15.4936 10.5291 15.3458C10.4905 15.3071 10.4513 15.269 10.4122 15.2308C10.2858 15.1077 10.1597 14.9847 10.0527 14.8443C11.6592 14.7988 13.2634 14.5088 14.7692 13.9482C15.928 13.5343 17.0005 12.9095 17.933 12.1052C17.9708 12.071 18.0082 12.0363 18.0456 12.0016C18.1437 11.9106 18.2419 11.8196 18.3482 11.7368C18.4682 13.5746 17.6885 15.4467 16.2982 16.6754C15.3265 17.551 14.111 18.1078 12.8146 18.271C11.8873 18.4003 10.9361 18.2942 10.0445 18.0192C8.52004 17.5349 7.19312 16.4624 6.4253 15.0745C6.19271 14.6366 5.98026 14.1837 5.86769 13.6994C5.85278 13.6291 5.84458 13.5462 5.90124 13.4901C6.85319 12.4064 8.10184 11.5963 9.4556 11.0881C9.5077 11.0705 9.55982 11.0529 9.61195 11.0353C10.2064 10.8345 10.8032 10.6329 11.4221 10.5223C12.2555 10.3564 13.1024 10.2353 13.9537 10.2233C13.686 10.5271 13.3901 10.8045 13.0943 11.0819C12.8653 11.2966 12.6362 11.5113 12.4203 11.7383C12.5335 11.9054 12.6822 12.0432 12.8306 12.1807C12.8952 12.2405 12.9597 12.3002 13.0211 12.3623C13.0953 12.3058 13.1665 12.2455 13.2343 12.1815C13.6369 11.779 14.0446 11.3816 14.4524 10.9842C14.8602 10.5868 15.268 10.1893 15.6705 9.78688C15.2165 9.32003 14.7496 8.86506 14.2825 8.40996C13.9727 8.10809 13.6628 7.80617 13.3566 7.50068C13.2574 7.40651 13.1605 7.30998 13.0636 7.21346C12.929 7.07939 12.7945 6.94533 12.6536 6.81758C12.4404 7.01788 12.2272 7.21817 12.0304 7.43491C12.3424 7.75927 12.6676 8.07111 12.9928 8.38295C13.318 8.69479 13.6432 9.00663 13.9552 9.33099C12.1094 9.42067 10.2517 9.75176 8.56477 10.5208C7.6568 10.9304 6.78834 11.4446 6.0466 12.1082C5.92046 12.2299 5.78702 12.3437 5.64704 12.449C5.59784 11.5596 5.76035 10.6658 6.0794 9.83472Z" fill="white"/>
</svg>
