<svg width="24" height="24" viewBox="0 0 24 24" fill="none" xmlns="http://www.w3.org/2000/svg">
<path d="M12 24C18.6276 24 24 18.6276 24 12C24 5.3724 18.6276 0 12 0C5.3724 0 0 5.3724 0 12C0 18.6276 5.3724 24 12 24Z" fill="#EDF0F4"/>
<path d="M12.3833 5.10878C12.1312 5.08324 11.878 5.07046 11.6246 5.0705C9.4316 5.0705 7.46079 6.02191 6.10156 7.53334L7.29489 10.7561L12.6734 8.89511L12.3833 5.10878Z" fill="#0089CE"/>
<path d="M9.80825 17.3973L13.1314 14.6939L12.6737 8.89508L9.06396 15.5326L9.80825 17.3973Z" fill="#E30613"/>
<path d="M13.0936 14.7178L9.80811 17.3972L10.7256 19.8661C11.6599 19.9794 12.6072 19.9151 13.5176 19.6765L13.1313 14.6934L13.0936 14.7238L13.0936 14.7178Z" fill="#E9453F"/>
<path d="M12.6758 8.9223L12.6738 8.89508L7.29541 10.756L9.06411 15.5326L12.6758 8.9223Z" fill="#CA1416"/>
<path d="M6.10175 7.53333C5.06499 8.68646 4.38446 10.1659 4.23242 11.7989L7.29508 10.7561L6.10175 7.53333Z" fill="#0156A3"/>
<path d="M7.29516 10.7561L4.2325 11.7989C4.21117 12.0283 4.19971 12.2606 4.19971 12.4955C4.19971 15.0544 5.49413 17.3108 7.46392 18.646L9.06394 15.5325" fill="#149F39"/>
<path d="M9.06389 15.5326L7.46387 18.646C7.65157 18.7734 7.84527 18.892 8.04497 19.0019L9.8081 17.3972L9.06389 15.5326Z" fill="#28A737"/>
<path d="M8.04492 19.0018C8.87464 19.4595 9.78478 19.753 10.7256 19.8663L9.80806 17.3972" fill="#82BB2B"/>
<path d="M13.5179 19.6768C16.702 18.8398 19.0503 15.9421 19.0503 12.4955C19.051 11.7143 18.9282 10.9379 18.6865 10.195L13.1318 14.6935L13.5179 19.6768Z" fill="#FECC00"/>
<path d="M14.3457 5.58502L12.6733 8.89516L12.6753 8.92239L13.1311 14.6936L18.6859 10.1951C17.9995 8.08711 16.3959 6.39299 14.3457 5.58502" fill="#EF7900"/>
<path d="M12.6739 8.89509L14.3463 5.58495C13.7171 5.33704 13.0567 5.17681 12.3838 5.10876L12.672 8.87169L12.6739 8.89509Z" fill="#23A9E1"/>
<path d="M12.9082 7.20236L13.0787 6.43817C15.3028 7.36531 16.6855 8.79483 17.4345 10.6131L16.7674 11.0816C15.8846 9.26528 14.6397 7.91815 12.9082 7.20236" fill="black"/>
<path d="M19.9633 7.12888C19.9633 5.40102 18.5623 4 16.8345 4C15.1066 4 13.7056 5.40102 13.7056 7.12888C13.7056 7.29347 13.7185 7.45779 13.7443 7.62035C14.7859 8.2333 15.6229 9.11236 16.2916 10.2098C16.4709 10.2415 16.6527 10.2575 16.8348 10.2576C18.5623 10.2578 19.9633 8.85691 19.9633 7.12888Z" fill="#E30613"/>
</svg>
