<svg width="24" height="24" viewBox="0 0 24 24" fill="none" xmlns="http://www.w3.org/2000/svg">
<circle cx="12" cy="12" r="12" fill="#2A2A2A"/>
<path fill-rule="evenodd" clip-rule="evenodd" d="M13.5142 4.60449H7.3999C7.43972 4.62645 7.48167 4.64415 7.52362 4.66185C7.5476 4.67197 7.57157 4.68209 7.59514 4.69299C8.76357 5.2045 9.88525 5.8375 10.8818 6.63925C11.7969 7.375 12.602 8.26075 13.1787 9.2875C13.7177 10.246 14.0599 11.3282 14.0923 12.4315C14.0966 12.5877 14.0911 12.744 14.0758 12.8995H17.1928C17.238 11.7295 17.0662 10.552 16.7028 9.439C16.3551 8.38563 15.8542 7.38857 15.2163 6.4795C14.7673 5.82945 14.2503 5.22859 13.674 4.68699C13.6622 4.67787 13.6511 4.66697 13.64 4.65602C13.6052 4.62198 13.5701 4.58747 13.5142 4.60449ZM12.7951 15.7495C11.7528 13.8653 10.7088 11.982 9.66299 10.0997H9.66148V19.6C10.2668 19.2138 10.8714 18.8262 11.476 18.4385C12.1666 17.9957 12.8572 17.5529 13.5489 17.1122C13.3924 16.8258 13.2339 16.5403 13.0753 16.2548C12.9817 16.0864 12.8882 15.9181 12.7951 15.7495Z" fill="white"/>
</svg>
