<svg width="24" height="24" viewBox="0 0 24 24" fill="none" xmlns="http://www.w3.org/2000/svg">
<circle cx="12" cy="12" r="12" fill="#EDF0F4"/>
<path d="M16.8081 8.50404C16.5319 6.95413 15.1979 5.88881 13.2226 5.64069C12.9024 5.60046 12.2422 5.58727 11.8805 5.61384C10.1334 5.74227 8.46178 6.47402 7.35694 7.59411C6.54369 8.41855 6.19224 9.40284 6.52424 9.9263C6.6705 10.157 6.88504 10.2539 7.24921 10.2539C7.488 10.2539 7.66226 10.1972 7.84372 10.0603C8.08621 9.87737 8.23232 9.67315 8.70922 8.85051C9.24695 7.92289 9.80566 7.45402 10.7321 7.15287C11.3007 6.96805 11.9564 6.89427 12.6175 6.94073C13.2102 6.98236 13.5314 7.05893 13.9139 7.24975C14.1619 7.37344 14.2887 7.46385 14.4668 7.64408C14.9678 8.15081 15.1038 8.95141 14.8281 9.76979C14.6405 10.3268 14.3034 10.8445 13.8322 11.299C13.1139 11.9919 12.194 12.3881 11.3663 12.361L11.1129 12.3527L11.3621 11.8182C11.9014 10.661 12.198 9.88427 12.2243 9.56C12.2374 9.39807 12.231 9.35625 12.1739 9.23147C12.1202 9.1142 12.0876 9.0784 11.9927 9.03244C11.7365 8.90844 11.5079 8.99294 11.1617 9.33951C10.8873 9.61422 10.72 9.82478 10.4145 10.28C9.99445 10.9061 9.66946 11.4668 8.7446 13.1609C8.4941 13.6198 8.00039 14.5232 7.64745 15.1684C6.85696 16.6137 6.77015 16.7859 6.71944 17.0088C6.63726 17.3701 6.68051 17.727 6.83188 17.9359C7.07573 18.2725 7.61552 18.3528 8.01337 18.1115C8.19379 18.0022 8.47419 17.7068 8.65841 17.4321C8.96571 16.9739 9.35603 16.0453 9.93318 14.3993C10.0348 14.1096 10.1717 13.7656 10.1951 13.7414C10.2053 13.7309 10.2814 13.9245 10.3643 14.1716C10.9314 15.8619 11.6381 17.0498 12.4279 17.6407C12.8445 17.9524 13.2262 18.0819 13.7234 18.0802C14.7869 18.0765 15.939 17.521 17.0005 16.4999C17.3751 16.1396 17.5676 15.7725 17.5453 15.4614C17.5149 15.0374 17.0443 14.9344 16.702 15.277C16.6455 15.3335 16.5095 15.4797 16.3997 15.6019C16.1457 15.8846 15.8198 16.13 15.4391 16.3251C14.8964 16.6033 14.5756 16.6776 13.9817 16.6625C13.6534 16.6542 13.5849 16.6449 13.4832 16.5949C12.9387 16.3276 12.3306 15.3536 12.0074 14.2315C11.9576 14.0585 11.9101 13.8683 11.9019 13.8087L11.887 13.7004L12.0401 13.6706C13.0305 13.4779 14.3016 12.8807 15.1393 12.2146C15.41 11.9994 15.8396 11.573 16.0245 11.3359C16.4323 10.8131 16.7039 10.2464 16.8069 9.70362C16.8592 9.42768 16.8599 8.79466 16.8081 8.50404Z" fill="#681BFF"/>
</svg>
