<svg width="24" height="24" viewBox="0 0 24 24" fill="none" xmlns="http://www.w3.org/2000/svg">
<circle cx="12" cy="12" r="12" fill="url(#paint0_linear_300_10749)"/>
<path fill-rule="evenodd" clip-rule="evenodd" d="M6.78422 6.98956L8.05088 6.31652L8.1999 6.61565L12.8195 3.92347L12.5215 3.69912L12.1489 3.47478L11.9999 3.39999L4.3999 7.81217V7.96173L6.56069 6.76521L6.78422 6.98956ZM6.78422 9.8313L10.4352 7.6626L10.5842 7.96173L15.2783 5.26956L14.9058 5.04521L14.5332 4.89564L14.3842 4.82086L4.3999 10.5791V10.7287L6.56069 9.53217L6.78422 9.8313ZM11.6274 8.41042L6.78422 11.1774L6.56069 10.8782L4.3999 12.1496V11.9252L15.5764 5.4939L15.7254 5.56868L16.0979 5.79303L16.4705 5.9426L11.7764 8.63477L11.6274 8.41042ZM6.78422 12.5235L12.8195 9.08347L12.9685 9.30781L17.6626 6.69042L17.2901 6.46607L16.9175 6.24173L16.7685 6.16694L4.3999 13.3461V13.4956L6.56069 12.2991L6.78422 12.5235ZM14.0117 9.75652L6.78422 13.9443L6.56069 13.6452L4.3999 14.9165V14.6922L17.9607 6.84L18.1842 6.98956L18.4823 7.13913L18.8548 7.36348L14.1607 10.0556L14.0117 9.75652ZM19.3019 7.66261L19.1528 7.51304L4.3999 16.113V16.2626L6.56069 15.0661L6.78422 15.3652L14.0117 11.1026L14.1607 11.4017L19.5999 8.33565V7.81217L19.3019 7.66261ZM6.56082 16.4122L5.36866 17.16L5.14514 17.0104L19.6 8.70956V9.68173L14.1608 12.8226L14.0118 12.5235L6.70984 16.7113L6.56082 16.4122ZM14.0118 13.9443L14.1608 14.2435L19.6 11.0278V10.0556L6.33728 17.7582L6.56081 17.833L7.75297 17.0852L7.9765 17.3843L14.0118 13.9443ZM9.01962 17.833L7.75295 18.5061L7.52942 18.4313L19.6 11.4765V12.4487L14.1608 15.5896L14.0118 15.2904L9.16864 18.1322L9.01962 17.833ZM8.94514 19.1791L10.2118 18.5061L10.3608 18.8052L14.0118 16.7113L14.1608 17.0104L19.6 13.8696V12.8226L8.72161 19.1043L8.94514 19.1791ZM10.1373 19.927L9.91376 19.7774L19.6 14.2435V15.2156L14.1608 18.3565L14.0118 18.0574L11.553 19.4783L11.404 19.1791L10.1373 19.927ZM11.3294 20.6L12.5216 19.8522L12.7451 20.1513L14.0118 19.4783L14.1608 19.7774L19.6 16.6365V15.5896L11.1804 20.5252L11.3294 20.6ZM13.7136 4.37217L14.0862 4.59651L9.39206 7.28869L9.24304 6.98956L6.78422 8.41043L6.56069 8.1113L4.3999 9.3826V9.15825L13.1921 4.07304L13.3411 4.2226L13.7136 4.37217Z" fill="white"/>
<defs>
<linearGradient id="paint0_linear_300_10749" x1="0" y1="24" x2="24" y2="24" gradientUnits="userSpaceOnUse">
<stop stop-color="#001C3A"/>
<stop offset="0.6" stop-color="#001E3D"/>
<stop offset="0.7" stop-color="#001F3F"/>
<stop offset="1" stop-color="#002042"/>
</linearGradient>
</defs>
</svg>
