<svg width="24" height="24" viewBox="0 0 24 24" fill="none" xmlns="http://www.w3.org/2000/svg">
<path d="M23.641 14.9029C22.0381 21.3315 15.5262 25.2438 9.09606 23.6407C2.66863 22.0381 -1.24415 15.5265 0.359423 9.09837C1.96159 2.66903 8.47349 -1.24361 14.9016 0.359081C21.3313 1.96177 25.2438 8.47405 23.6408 14.903L23.6409 14.9029H23.641Z" fill="#B2B8C0"/>
<path fill-rule="evenodd" clip-rule="evenodd" d="M17.2923 10.2903C17.5312 8.69335 16.3153 7.83494 14.6526 7.26229L15.192 5.0991L13.875 4.77098L13.3499 6.87722C13.0037 6.79088 12.6482 6.70952 12.2948 6.62887L12.8237 4.50873L11.5075 4.18062L10.9679 6.34311C10.6814 6.27788 10.4 6.21342 10.1269 6.1455L10.1285 6.1387L8.31237 5.68523L7.96204 7.09166C7.96204 7.09166 8.93911 7.31561 8.91852 7.32939C9.45181 7.46248 9.54825 7.81546 9.53224 8.09525L8.91781 10.5596C8.95454 10.569 9.00217 10.5824 9.05473 10.6036L9.01646 10.594C8.98397 10.5859 8.9502 10.5774 8.91553 10.5691L8.05432 14.0214C7.98914 14.1834 7.82372 14.4265 7.45087 14.3342C7.46406 14.3533 6.49369 14.0954 6.49369 14.0954L5.83984 15.6027L7.55364 16.0298C7.74131 16.0769 7.92676 16.1252 8.11033 16.1731L8.11034 16.1731C8.23863 16.2065 8.36601 16.2397 8.49258 16.2721L7.94761 18.4601L9.26304 18.7882L9.80272 16.6234C10.1621 16.721 10.5108 16.811 10.8522 16.8958L10.3144 19.0503L11.6314 19.3785L12.1763 17.1946C14.422 17.6195 16.1105 17.4482 16.8213 15.4172C17.394 13.782 16.7928 12.8388 15.6113 12.2238C16.4718 12.0254 17.12 11.4595 17.2928 10.2905L17.2924 10.2902L17.2923 10.2903ZM14.2832 14.5091C13.9098 16.0093 11.5613 15.3891 10.4868 15.1053C10.3901 15.0798 10.3038 15.057 10.2301 15.0387L10.9533 12.14C11.043 12.1624 11.1528 12.187 11.277 12.2149L11.2771 12.2149C12.3886 12.4643 14.6658 12.9753 14.2833 14.5091H14.2832ZM11.5003 10.8696C12.3961 11.1086 14.3504 11.6301 14.6907 10.2666H14.6909C15.0384 8.87205 13.1392 8.45161 12.2116 8.24627C12.1072 8.22317 12.0152 8.20279 11.94 8.18405L11.2843 10.813C11.3462 10.8285 11.4189 10.8478 11.5003 10.8696Z" fill="white"/>
</svg>
