<svg width="24" height="24" viewBox="0 0 24 24" fill="none" xmlns="http://www.w3.org/2000/svg">
<circle cx="12" cy="12" r="12" fill="#0E0E21"/>
<path d="M18.7469 14.7099L17.3277 12.2933C17.2779 12.1936 17.1534 12.1687 17.0787 12.2435L16.1574 12.8414C16.0827 12.8912 16.0578 13.0158 16.1076 13.0905L16.9293 14.4608C16.9542 14.5106 16.9293 14.5605 16.9044 14.5854L12.1237 17.6747C12.0988 17.6996 12.049 17.6996 12.0241 17.6747L7.29322 14.5854C7.24342 14.5605 7.24342 14.5106 7.26832 14.4608L8.09 13.0905C8.13979 13.0158 8.11489 12.8912 8.0402 12.8414L7.11892 12.2435C7.01932 12.1936 6.91973 12.2185 6.86993 12.2933L5.45066 14.7099C5.35107 14.8843 5.40087 15.1086 5.57516 15.2082L11.9245 19.3439C12.049 19.4187 12.1984 19.4187 12.3229 19.3439L18.6722 15.2082C18.7967 15.0837 18.8465 14.8594 18.7469 14.7099Z" fill="white"/>
<path d="M7.67565 10.9536L8.59509 11.5562C8.69449 11.6064 8.79389 11.5813 8.84359 11.506L11.8255 6.38366C11.8504 6.33344 11.9498 6.33344 11.9746 6.38366L14.9566 11.506C15.0063 11.6064 15.1306 11.6315 15.2051 11.5562L16.1245 10.9536C16.1991 10.9034 16.2239 10.7778 16.1742 10.7025L12.6704 4.57578C12.5959 4.45023 12.4965 4.40001 12.3474 4.40001H11.5025C11.3783 4.40001 11.254 4.47534 11.1795 4.57578L7.62595 10.7025C7.57625 10.7778 7.6011 10.9034 7.67565 10.9536Z" fill="#2AE7A8"/>
</svg>
