<svg width="24" height="24" viewBox="0 0 24 24" fill="none" xmlns="http://www.w3.org/2000/svg">
<circle cx="12" cy="12" r="12" fill="#EDF0F4"/>
<path d="M14.1407 12.7662L17.4304 9.48668C17.6773 9.24074 17.8157 8.90638 17.8149 8.55791L17.8205 5.90718C17.8202 5.7712 17.7676 5.64053 17.6737 5.54218L11.3627 11.8393C11.115 12.0848 10.9756 12.4192 10.9756 12.768C10.9756 13.1169 11.115 13.4512 11.3627 13.6968L15.8125 18.1326C16.1443 18.4628 16.627 18.5909 17.0789 18.4686C17.5307 18.3463 17.883 17.9922 18.003 17.5398C18.123 17.0874 17.9925 16.6053 17.6607 16.2751L14.1407 12.7662Z" fill="#008C62"/>
<path d="M17.3061 5.40009H7.39327C6.59174 5.40009 6.00011 6.00565 6.00011 6.83226V17.1742C5.99557 17.5292 6.13465 17.871 6.38579 18.1219C6.63693 18.3729 6.97882 18.5117 7.33383 18.507C7.68914 18.513 8.03169 18.3746 8.28297 18.1233C8.53426 17.872 8.67272 17.5295 8.66662 17.1742V7.95143H15.2609L17.6757 5.54869C17.578 5.45071 17.4444 5.39701 17.3061 5.40009Z" fill="#00E6A0"/>
</svg>
