<svg width="24" height="24" viewBox="0 0 24 24" fill="none" xmlns="http://www.w3.org/2000/svg">
<circle cx="12" cy="12" r="12" fill="#CC1E46"/>
<path fill-rule="evenodd" clip-rule="evenodd" d="M8.92674 6.86742C10.177 5.91755 11.6662 5.34188 13.2244 5.20603C13.3828 5.17356 13.5546 5.27475 13.5493 5.45146C13.5599 5.75099 13.5578 6.05053 13.5556 6.35006V6.35012C13.5547 6.47347 13.5538 6.59681 13.5538 6.72016C13.5643 6.85156 13.4956 7.02223 13.3462 7.026C11.9671 7.18006 10.6569 7.74946 9.51839 8.53636C9.41977 8.59244 9.43166 8.7158 9.44122 8.81508V8.81509L9.44369 8.84145C9.49421 9.31457 9.4906 9.78985 9.487 10.2651C9.48495 10.5348 9.48291 10.8045 9.49075 11.0737C11.4813 11.0794 13.4723 11.0786 15.4634 11.0777C17.1891 11.077 18.915 11.0763 20.6409 11.0798C20.8179 11.0647 21.0047 11.1666 20.9905 11.3668C21.0025 12.18 21.0006 12.9932 20.9987 13.8062C20.9977 14.2578 20.9966 14.7093 20.9979 15.1608C21.0009 15.848 20.856 16.5594 20.4444 17.1212C19.7945 18.004 18.6515 18.5334 17.5654 18.3385C16.7959 18.2222 16.1311 17.7397 15.6649 17.1272C14.3961 18.092 12.882 18.6721 11.2993 18.8C11.1387 18.8022 11.0184 18.6429 11.0431 18.4873C11.0451 18.3156 11.0442 18.1437 11.0433 17.9717V17.9716C11.0419 17.7004 11.0405 17.429 11.0505 17.1582C11.079 16.9799 11.2513 16.9637 11.4068 16.9491C11.4554 16.9445 11.5024 16.9401 11.5428 16.9309C12.8456 16.7255 14.0917 16.1735 15.1554 15.3903C15.1006 14.5687 15.0814 13.745 15.0979 12.9217C12.9167 12.9075 10.735 12.9094 8.55335 12.9113C7.00511 12.9126 5.45691 12.914 3.90897 12.9096C3.74462 12.9285 3.58625 12.8039 3.60194 12.6279C3.59895 11.2965 3.5997 9.9644 3.60344 8.63302C3.61091 7.93675 3.82829 7.23292 4.28472 6.70203C4.88608 6.01029 5.79297 5.56851 6.71331 5.62289C7.5948 5.65838 8.40383 6.1651 8.92674 6.86742ZM5.10503 8.86259C5.10353 9.64269 5.10279 10.4235 5.10652 11.2051C5.38021 11.2049 5.65376 11.206 5.92724 11.207H5.92737H5.92739C6.575 11.2095 7.2222 11.2119 7.86977 11.1976C7.87014 11.0115 7.87099 10.8254 7.87185 10.6394V10.6393C7.8745 10.0644 7.87714 9.48977 7.86529 8.9147C7.8511 8.18519 7.19894 7.54027 6.47433 7.55538C5.76689 7.52593 5.12221 8.15197 5.10503 8.86183V8.86259ZM16.8362 14.1928C16.8358 13.7476 16.8355 13.3024 16.8399 12.8575V12.8567C16.9933 12.8565 17.1467 12.8562 17.3 12.8558C18.067 12.8543 18.834 12.8527 19.601 12.859C19.6059 13.4076 19.6052 13.9554 19.6045 14.5036C19.6042 14.6994 19.6039 14.8953 19.6039 15.0913C19.6099 15.6577 19.2581 16.221 18.7254 16.4204C18.1487 16.6462 17.4435 16.4227 17.0895 15.9114C16.9199 15.6698 16.831 15.3798 16.8355 15.083C16.8367 14.7863 16.8364 14.4896 16.8362 14.1928Z" fill="white"/>
</svg>
