<svg width="24" height="24" viewBox="0 0 24 24" fill="none" xmlns="http://www.w3.org/2000/svg">
<circle cx="12" cy="12" r="12" fill="#EDF0F4"/>
<path d="M5.13584 14.8138C5.11884 14.8523 5.09896 14.8895 5.07637 14.9252C4.9586 15.1183 4.88772 15.335 4.86914 15.5589C5.05765 15.9299 5.27512 16.2863 5.51962 16.6249C5.53281 16.4926 5.5628 16.3624 5.60892 16.2373C5.66165 16.0775 5.65967 15.9053 5.60326 15.7467C5.42575 15.4465 5.26958 15.1348 5.13584 14.8138V14.8138Z" fill="black"/>
<path d="M4.54566 9.96432C4.69788 9.89665 4.8227 9.78157 4.90047 9.63718C5.00511 9.30033 5.13357 8.97096 5.28493 8.65142C5.24356 8.66521 5.20115 8.67582 5.15809 8.68317C4.93657 8.72419 4.72842 8.8165 4.55115 8.95233C4.39732 9.34707 4.27508 9.75283 4.18555 10.166C4.29583 10.0834 4.41694 10.0156 4.54566 9.96432Z" fill="black"/>
<path d="M9.99813 4.36923C10.1316 4.46844 10.2963 4.5194 10.464 4.51342C10.8054 4.43819 11.1518 4.38677 11.5007 4.35954C11.4638 4.32772 11.4298 4.2929 11.399 4.25545C11.2675 4.09906 11.1023 3.97282 10.9151 3.88571C10.493 3.94738 10.0767 4.04237 9.67041 4.16974C9.78772 4.22273 9.8978 4.28975 9.99813 4.36923Z" fill="black"/>
<path d="M8.48343 4.97222C8.63282 5.04025 8.80163 5.05623 8.96165 5.0175C9.28111 4.87065 9.61107 4.74658 9.94893 4.64625C9.90756 4.62332 9.86823 4.59705 9.83135 4.56772C9.66727 4.4404 9.47588 4.35074 9.27137 4.30541C8.87152 4.45399 8.48471 4.63396 8.11475 4.84357C8.24277 4.87095 8.36667 4.91418 8.48343 4.97222Z" fill="black"/>
<path d="M5.11241 8.43037C5.2743 8.3961 5.4197 8.30984 5.52532 8.18544C5.699 7.87735 5.89453 7.58146 6.11049 7.29993C6.06501 7.30531 6.01915 7.30704 5.97337 7.30511C5.75363 7.29911 5.53556 7.34406 5.33712 7.43626C5.10163 7.79217 4.89519 8.16557 4.71973 8.55301C4.8444 8.49518 4.97648 8.45394 5.11241 8.43037Z" fill="black"/>
<path d="M7.12607 5.87877C7.2902 5.91443 7.46195 5.89329 7.61183 5.81895C7.89164 5.61038 8.18621 5.42133 8.49335 5.25323C8.44847 5.23947 8.40484 5.22209 8.36292 5.20127C8.1737 5.10961 7.96538 5.06164 7.75409 5.06109C7.39476 5.29075 7.05461 5.54774 6.73682 5.82964C6.8682 5.82957 6.99904 5.84608 7.12607 5.87877Z" fill="black"/>
<path d="M5.9857 7.04847C6.15761 7.04893 6.32417 6.99024 6.45603 6.88273C6.55567 6.77034 6.65886 6.66035 6.76559 6.55275C6.90511 6.41274 7.04914 6.27908 7.19769 6.15177C7.15052 6.1476 7.10379 6.13955 7.058 6.12771C6.85129 6.07711 6.63535 6.07408 6.42724 6.11885C6.40547 6.14024 6.38353 6.16113 6.3621 6.18285C6.08108 6.46493 5.82135 6.76645 5.58496 7.08506C5.71629 7.05564 5.85105 7.04334 5.9857 7.04847Z" fill="black"/>
<path d="M4.30784 11.583C4.44688 11.4814 4.54695 11.3374 4.59203 11.1738C4.62467 10.8275 4.68114 10.4838 4.76103 10.1449C4.72362 10.1668 4.68454 10.1859 4.64413 10.2019C4.43467 10.289 4.24952 10.4234 4.10404 10.5942C4.03708 11.0106 4.0023 11.4312 4 11.8526C4.09008 11.75 4.19357 11.6594 4.30784 11.583Z" fill="black"/>
<path d="M17.074 17.9209C16.9099 17.8852 16.7381 17.9063 16.5882 17.9805C16.3085 18.189 16.014 18.378 15.707 18.5461C15.7518 18.5599 15.7953 18.5774 15.8371 18.5982C16.0264 18.6898 16.2347 18.7378 16.4459 18.7384C16.8053 18.5088 17.1455 18.2518 17.4632 17.9698C17.3319 17.9699 17.201 17.9535 17.074 17.9209Z" fill="black"/>
<path d="M19.892 12.2169C19.7531 12.3181 19.6531 12.4618 19.608 12.625C19.5753 12.9713 19.5188 13.3151 19.439 13.6541C19.4763 13.6322 19.5153 13.6131 19.5557 13.5971C19.7653 13.5096 19.9505 13.3748 20.0961 13.2038C20.163 12.7877 20.1978 12.3673 20.2 11.9462C20.1099 12.0492 20.0064 12.1402 19.892 12.2169Z" fill="black"/>
<path d="M14.2017 19.4306C14.0683 19.3315 13.9038 19.2805 13.7362 19.2862C13.3947 19.3615 13.0482 19.413 12.6992 19.4403C12.736 19.4721 12.77 19.5068 12.8009 19.5442C12.9323 19.7006 13.0975 19.8269 13.2847 19.9141C13.7069 19.8524 14.1232 19.7574 14.5296 19.6301C14.4123 19.5771 14.3021 19.5101 14.2017 19.4306Z" fill="black"/>
<path d="M10.9666 19.6386C10.8847 19.4927 10.7542 19.3783 10.5967 19.3145C10.2567 19.2458 9.92223 19.1536 9.5957 19.0386C9.61474 19.0803 9.63045 19.1234 9.64267 19.1675C9.70054 19.3673 9.80231 19.5526 9.94091 19.7103C10.3464 19.8215 10.7604 19.9009 11.179 19.9477C11.0958 19.8533 11.0245 19.7495 10.9666 19.6386Z" fill="black"/>
<path fill-rule="evenodd" clip-rule="evenodd" d="M19.0655 14.0809C19.0637 14.0833 19.0465 14.0856 19.0465 14.0856C18.1189 17.0502 15.3559 19.2067 12.0997 19.2065C8.90013 19.2065 6.17722 17.1233 5.20399 14.2368C5.20365 14.2347 5.20502 14.2323 5.20502 14.2323H5.21256C5.06246 13.745 4.95546 13.2461 4.89272 12.741V12.7303H4.86873C4.83518 12.453 4.81904 12.1741 4.82039 11.8949C4.8197 11.1571 4.93136 10.4232 5.15171 9.71738C5.15274 9.71521 5.15394 9.71371 5.15394 9.71371C6.08175 6.74908 8.84528 4.59278 12.1004 4.59278C15.3007 4.59278 18.026 6.67607 18.9989 9.563C18.9992 9.56534 19.0028 9.56801 19.0028 9.56801H19.0049C19.1615 10.0548 19.275 10.5537 19.3442 11.0593V11.07H19.3293C19.3683 11.347 19.3908 11.6259 19.3967 11.9054C19.3967 12.022 19.3932 12.1366 19.3898 12.2505C19.3864 12.3631 19.383 12.475 19.383 12.5874C19.383 13.0685 19.2363 13.5361 19.0954 13.9857C19.0854 14.0175 19.0754 14.0493 19.0655 14.0809ZM12.0997 5.72874C8.72396 5.72874 5.97756 8.49705 5.97756 11.8999C5.97756 15.3028 8.72396 18.0711 12.0997 18.0711C15.4755 18.0711 18.2219 15.3026 18.2219 11.8999C18.2219 8.49721 15.4755 5.72874 12.0997 5.72874Z" fill="black"/>
<path d="M9.38815 19.2343C9.33881 19.0765 9.23725 18.9391 9.09934 18.8435C8.77879 18.704 8.46885 18.5424 8.17188 18.36C8.18173 18.404 8.18809 18.4487 8.1909 18.4936C8.20654 18.7048 8.26925 18.91 8.37464 19.0951C8.74727 19.2887 9.13527 19.4529 9.53487 19.586C9.47175 19.4749 9.4225 19.3568 9.38815 19.2343Z" fill="black"/>
<path d="M7.92662 18.5097C7.91028 18.3407 7.8365 18.1819 7.71699 18.0586C7.43573 17.8563 7.16897 17.6355 6.9186 17.3978C6.91916 17.4433 6.91607 17.4887 6.90934 17.5338C6.88059 17.7469 6.90019 17.9637 6.96676 18.1687C7.29076 18.4349 7.63571 18.676 7.99844 18.8896C7.95894 18.7662 7.93482 18.6387 7.92662 18.5097Z" fill="black"/>
<path d="M14.8121 4.56553C14.8613 4.72335 14.9628 4.8608 15.1008 4.95632C15.4213 5.09582 15.7313 5.25741 16.0282 5.43984C16.0184 5.39582 16.0121 5.35114 16.0092 5.30618C15.9936 5.09503 15.9308 4.88975 15.8253 4.7047C15.4525 4.51057 15.0644 4.34597 14.6646 4.21249C14.7281 4.32398 14.7776 4.44251 14.8121 4.56553Z" fill="black"/>
<path d="M19.6548 13.8355C19.5026 13.903 19.3778 14.018 19.3002 14.1623C19.1955 14.4992 19.067 14.8286 18.9155 15.1481C18.9569 15.1344 18.9993 15.1238 19.0424 15.1165C19.2642 15.075 19.4725 14.9823 19.65 14.8462C19.8036 14.4517 19.9257 14.0463 20.0153 13.6335C19.9049 13.7162 19.7836 13.7841 19.6548 13.8355Z" fill="black"/>
<path d="M18.2144 16.7513C18.0426 16.7506 17.876 16.8093 17.7443 16.9169C17.6445 17.0294 17.5413 17.1395 17.4345 17.2471C17.295 17.3871 17.151 17.5207 17.0024 17.6481C17.0496 17.6522 17.0962 17.6602 17.142 17.6719C17.3487 17.7226 17.5646 17.7257 17.7727 17.6808C17.7945 17.6596 17.8164 17.6385 17.838 17.617C18.1191 17.3349 18.3789 17.0334 18.6153 16.7148C18.4839 16.7441 18.3491 16.7564 18.2144 16.7513Z" fill="black"/>
<path d="M17.5505 6.30382C17.5314 6.4762 17.5723 6.64982 17.6665 6.79687C17.8981 7.05044 18.112 7.31887 18.3067 7.60034C18.3155 7.55753 18.3276 7.51542 18.3429 7.47437C18.4162 7.26704 18.4413 7.0464 18.4164 6.82844C18.2352 6.60346 18.0421 6.38792 17.8377 6.18269C17.7463 6.09113 17.6533 6.00202 17.5585 5.91537C17.572 6.04469 17.5693 6.17513 17.5505 6.30382Z" fill="black"/>
<path d="M19.0871 15.3693C18.925 15.4035 18.7793 15.4898 18.6735 15.6144C18.4999 15.9224 18.3043 16.2183 18.0884 16.4999C18.1339 16.4946 18.1797 16.4929 18.2255 16.4949C18.4451 16.501 18.663 16.4562 18.8614 16.3642C19.0973 16.0084 19.3042 15.635 19.48 15.2475C19.3552 15.305 19.2231 15.346 19.0871 15.3693Z" fill="black"/>
<path d="M11.6054 4.09472C11.7193 4.22372 11.8763 4.30934 12.0486 4.33648C12.0658 4.33648 12.0829 4.33648 12.1 4.33648C12.4258 4.33654 12.7513 4.35742 13.0743 4.39897C13.0455 4.36075 13.02 4.3203 12.998 4.278C12.9023 4.09832 12.7678 3.94095 12.6038 3.8167C12.4368 3.80651 12.269 3.8 12.1004 3.8C11.8425 3.8 11.5867 3.81197 11.333 3.83592C11.4342 3.91116 11.5256 3.99806 11.6054 4.09472Z" fill="black"/>
<path d="M12.5948 19.7049C12.4809 19.5759 12.3238 19.4903 12.1513 19.4633C12.1342 19.4633 12.1171 19.4633 12.0999 19.4633C11.7741 19.4633 11.4485 19.4424 11.1255 19.4009C11.1544 19.4391 11.1799 19.4796 11.2019 19.522C11.2976 19.7017 11.4321 19.8591 11.5962 19.9833C11.7631 19.9935 11.9311 20 12.0997 20C12.3575 20 12.6133 19.988 12.8669 19.9641C12.7658 19.8887 12.6744 19.8017 12.5948 19.7049Z" fill="black"/>
<path d="M4.41205 13.2152C4.52732 13.087 4.59553 12.9251 4.60591 12.755C4.57405 12.471 4.55803 12.1856 4.55791 11.8999C4.55791 11.838 4.55866 11.7762 4.56014 11.7145C4.52804 11.744 4.49365 11.7711 4.4573 11.7955C4.2702 11.925 4.1169 12.0956 4.00977 12.2934C4.02968 12.7138 4.08223 13.1322 4.16694 13.545C4.23361 13.4251 4.31601 13.3143 4.41205 13.2152Z" fill="black"/>
<path d="M6.64914 17.496C6.66816 17.3236 6.62724 17.1499 6.53293 17.0028C6.30134 16.7493 6.08746 16.4809 5.89274 16.1995C5.88398 16.2423 5.87195 16.2845 5.85675 16.3256C5.78315 16.5326 5.75785 16.7529 5.7827 16.9705C5.96406 17.1959 6.15744 17.4118 6.36204 17.6173C6.45346 17.7089 6.54647 17.798 6.64109 17.8846C6.62765 17.7552 6.63035 17.6248 6.64914 17.496Z" fill="black"/>
<path d="M16.2725 5.29033C16.289 5.45923 16.3628 5.61796 16.4821 5.74144C16.7634 5.94376 17.0302 6.1646 17.2805 6.4024C17.28 6.3569 17.2831 6.31143 17.2898 6.2664C17.3186 6.05322 17.299 5.83648 17.2324 5.6315C16.9084 5.36522 16.5634 5.12416 16.2007 4.91056C16.2402 5.03386 16.2644 5.16138 16.2725 5.29033Z" fill="black"/>
<path d="M13.2332 4.16123C13.3151 4.30707 13.4455 4.42139 13.6029 4.48536C13.943 4.55399 14.2776 4.64618 14.6042 4.7612C14.5852 4.71952 14.5695 4.67645 14.5573 4.63239C14.4994 4.43246 14.3976 4.24718 14.259 4.08938C13.8535 3.97822 13.4395 3.89882 13.021 3.85197C13.1041 3.94642 13.1754 4.05025 13.2332 4.16123Z" fill="black"/>
<path d="M4.85177 14.7899C4.93564 14.6454 4.96948 14.4785 4.94827 14.3139C4.83681 13.9804 4.7489 13.6399 4.68517 13.2947C4.66015 13.3295 4.63248 13.3625 4.60238 13.3933C4.44563 13.5591 4.33066 13.7582 4.2666 13.9749C4.37319 14.38 4.51158 14.7766 4.68054 15.1611C4.72108 15.0307 4.77863 14.906 4.85177 14.7899Z" fill="black"/>
<path d="M19.7437 12.0045C19.9309 11.8749 20.0843 11.7043 20.1916 11.5064C20.1715 11.0859 20.1189 10.6675 20.0342 10.2547C19.9673 10.3746 19.8847 10.4855 19.7884 10.5845C19.6731 10.7126 19.6049 10.8746 19.5947 11.0448C19.6265 11.3288 19.6424 11.6142 19.6425 11.8999C19.6425 11.9618 19.6418 12.0237 19.6403 12.0854C19.6726 12.0559 19.7072 12.0288 19.7437 12.0045Z" fill="black"/>
<path d="M19.0641 8.98609C19.0812 8.94764 19.101 8.91045 19.1236 8.87482C19.2416 8.68205 19.3126 8.46548 19.3312 8.24176C19.1425 7.87019 18.9247 7.51332 18.6798 7.1743C18.6666 7.30666 18.6366 7.43692 18.5905 7.56209C18.5377 7.72178 18.5396 7.89393 18.596 8.05246C18.7738 8.35285 18.9302 8.66479 19.0641 8.98609Z" fill="black"/>
<path d="M19.3483 9.00997C19.2644 9.15433 19.2306 9.32121 19.2518 9.48581C19.3632 9.81929 19.4511 10.1598 19.5149 10.505C19.5399 10.4702 19.5676 10.4373 19.5977 10.4066C19.7545 10.2407 19.8695 10.0415 19.9336 9.82481C19.8271 9.41962 19.6887 9.02303 19.5197 8.63856C19.4791 8.769 19.4215 8.89383 19.3483 9.00997Z" fill="black"/>
<path d="M15.7168 18.8271C15.5674 18.7591 15.3986 18.7431 15.2386 18.7818C14.9192 18.9286 14.5893 19.0526 14.2515 19.1529C14.2927 19.176 14.3319 19.2023 14.3687 19.2316C14.5328 19.359 14.7242 19.4486 14.9287 19.4939C15.3286 19.3454 15.7155 19.1654 16.0855 18.9558C15.9575 18.9284 15.8336 18.8851 15.7168 18.8271Z" fill="black"/>
<path d="M15.1602 14.4104L13.7336 12.5248C13.9683 12.4342 14.1853 12.3048 14.3748 12.1422C14.7207 11.8436 15.1333 11.2812 15.1333 10.2968C15.1571 9.69484 14.914 9.11198 14.4662 8.69687C13.7608 8.06582 12.8313 8.08587 12.5331 8.08587H9.69857C9.24567 8.08909 8.8806 8.44853 8.88184 8.89002C8.88184 8.90672 8.88441 8.93229 8.88441 8.9495V9.67194H12.8781C13.2414 9.6829 13.5307 9.9721 13.5327 10.3264V10.4781C13.5286 10.8273 13.2364 11.108 12.8781 11.107H12.248C11.9397 11.1072 11.6577 11.2765 11.5187 11.5448C11.3797 11.8131 11.4073 12.1347 11.5902 12.3768L13.8438 15.3557C14.017 15.5848 14.3024 15.7064 14.5925 15.6747C14.8826 15.643 15.1334 15.4629 15.2503 15.2021C15.3672 14.9414 15.3325 14.6397 15.1593 14.4106L15.1602 14.4104Z" fill="#FF0000"/>
<path d="M8.88428 11.1068V14.8455H8.89405C8.94698 15.3293 9.36817 15.6948 9.86728 15.6901C10.363 15.6901 10.7808 15.3294 10.8405 14.8497L10.8511 11.1071L8.88428 11.1068Z" fill="black"/>
</svg>
