<svg width="24" height="24" viewBox="0 0 24 24" fill="none" xmlns="http://www.w3.org/2000/svg">
<circle cx="12" cy="12" r="12" fill="#EDF0F4"/>
<path d="M14.2468 10.8645L10.7037 13.3667V12.3858C10.6503 12.3458 10.4595 12.2897 10.1232 12.3858C9.70283 12.5059 8.20151 13.0664 7.70107 14.888C7.30072 16.3453 7.98799 17.7772 8.38167 18.311H17.4897C17.096 17.3902 16.2606 15.4645 16.0684 15.1282C15.8763 14.7919 15.9884 14.5344 16.0684 14.4476C16.7023 13.9405 17.834 12.2577 17.2895 9.58332C16.745 6.90897 14.3002 5.94678 13.1459 5.79999H6.6001V10.9846C6.90036 10.731 7.69706 10.1638 8.48176 9.92362C9.26645 9.68341 10.3301 9.65005 10.7638 9.66339V8.58244L14.2468 10.8645Z" fill="url(#paint0_linear_300_13472)"/>
<defs>
<linearGradient id="paint0_linear_300_13472" x1="6.6001" y1="5.79999" x2="6.6001" y2="18.311" gradientUnits="userSpaceOnUse">
<stop stop-color="#E34D67"/>
<stop offset="1" stop-color="#7746F4"/>
</linearGradient>
</defs>
</svg>
