<svg width="24" height="24" viewBox="0 0 24 24" fill="none" xmlns="http://www.w3.org/2000/svg">
<circle cx="12" cy="12" r="12" fill="#149DD9"/>
<path fill-rule="evenodd" clip-rule="evenodd" d="M10.2092 5.24996H11.3781C11.3997 5.24835 11.417 5.2311 11.4186 5.20942V4.04054C11.417 4.01885 11.3997 4.00161 11.3781 4H10.2092C10.1875 4.00161 10.1703 4.01885 10.1686 4.04054V5.20942C10.1683 5.22028 10.1724 5.23082 10.1801 5.2385C10.1878 5.24619 10.1983 5.25034 10.2092 5.24996ZM11.3781 7.39852H10.2092C10.1875 7.39691 10.1703 7.37967 10.1687 7.35798V6.18911C10.1703 6.16742 10.1875 6.15018 10.2092 6.14857H11.3781C11.3998 6.15018 11.417 6.16742 11.4187 6.18911V7.35798C11.417 7.37967 11.3998 7.39691 11.3781 7.39852ZM11.3781 9.54032H7.76341C7.75254 9.5407 7.74201 9.53655 7.73432 9.52887C7.72664 9.52118 7.72249 9.51065 7.72287 9.49978V8.3309C7.72448 8.30922 7.74172 8.29198 7.76341 8.29036H11.3781C11.3998 8.29198 11.4171 8.30922 11.4187 8.3309V9.49978C11.4171 9.52147 11.3998 9.53871 11.3781 9.54032ZM5.20942 12.5808H4.04054C4.01885 12.5824 4.00161 12.5996 4 12.6213V13.7902C4.00161 13.8119 4.01885 13.8291 4.04054 13.8307H5.20942C5.2311 13.8291 5.24834 13.8119 5.24996 13.7902V12.6213C5.24834 12.5996 5.2311 12.5824 5.20942 12.5808ZM8.33087 12.5808H9.49974C9.52143 12.5824 9.53867 12.5996 9.54028 12.6213V16.2361C9.53867 16.2577 9.52143 16.275 9.49974 16.2766H8.33087C8.30918 16.275 8.29194 16.2577 8.29033 16.2361V12.6213C8.29194 12.5996 8.30918 12.5824 8.33087 12.5808ZM16.6483 11.4119H17.8172C17.8389 11.4103 17.8561 11.393 17.8577 11.3714V10.2025C17.8561 10.1808 17.8389 10.1636 17.8172 10.1619H16.6483C16.6266 10.1636 16.6094 10.1808 16.6077 10.2025V11.3714C16.6061 11.3825 16.6099 11.3938 16.6179 11.4018C16.6259 11.4097 16.6371 11.4135 16.6483 11.4119ZM15.6684 11.4119H14.4995C14.4886 11.4123 14.4781 11.4081 14.4704 11.4004C14.4627 11.3927 14.4586 11.3822 14.459 11.3713V7.75659C14.4606 7.73491 14.4778 7.71767 14.4995 7.71605H15.6684C15.6901 7.71767 15.7073 7.73491 15.7089 7.75659V11.3713C15.7073 11.393 15.6901 11.4103 15.6684 11.4119ZM6.18907 12.5808H7.35795C7.37864 12.5844 7.39483 12.6006 7.39849 12.6213V13.7902C7.39688 13.8119 7.37964 13.8291 7.35795 13.8307H6.18907C6.16739 13.8291 6.15015 13.8119 6.14853 13.7902V12.6213C6.15015 12.5996 6.16739 12.5824 6.18907 12.5808ZM16.2427 14.4591H12.628C12.6063 14.4607 12.589 14.478 12.5874 14.4996V15.6685C12.589 15.6902 12.6063 15.7075 12.628 15.7091H16.2427C16.2644 15.7075 16.2816 15.6902 16.2832 15.6685V14.4996C16.2819 14.4778 16.2645 14.4604 16.2427 14.4591ZM13.5874 12.3308H18.7088C18.7197 12.3304 18.7302 12.3346 18.7379 12.3423C18.7456 12.35 18.7498 12.3605 18.7494 12.3714V13.5065C18.7478 13.5281 18.7305 13.5454 18.7088 13.547H13.5874C13.5657 13.5454 13.5485 13.5281 13.5468 13.5065V12.3714C13.5485 12.3497 13.5657 12.3324 13.5874 12.3308ZM13.7901 16.6009H12.6212C12.5995 16.6026 12.5823 16.6198 12.5807 16.6415V17.8104C12.5823 17.832 12.5995 17.8493 12.6212 17.8509H13.7901C13.8118 17.8493 13.829 17.832 13.8307 17.8104V16.6415C13.831 16.6306 13.8269 16.6201 13.8192 16.6124C13.8115 16.6047 13.801 16.6006 13.7901 16.6009ZM10.4119 10.4525C10.4335 10.4541 10.4508 10.4713 10.4524 10.493V11.6281C10.4508 11.6498 10.4335 11.6671 10.4119 11.6687H5.29041C5.26873 11.6671 5.25149 11.6498 5.24987 11.6281V10.493C5.25149 10.4713 5.26873 10.4541 5.29041 10.4525H10.4119ZM19.9588 10.1687H18.7899C18.7683 10.1703 18.751 10.1875 18.7494 10.2092V11.3781C18.751 11.3998 18.7683 11.417 18.7899 11.4186H19.9588C19.9805 11.417 19.9977 11.3998 19.9994 11.3781V10.2092C20.001 10.1981 19.9972 10.1868 19.9892 10.1788C19.9813 10.1708 19.97 10.1671 19.9588 10.1687ZM10.4929 13.547H11.628C11.6497 13.5486 11.6669 13.5658 11.6685 13.5875V18.709C11.6669 18.7307 11.6497 18.7479 11.628 18.7495H10.4929C10.4712 18.7479 10.454 18.7307 10.4524 18.709V13.5875C10.454 13.5658 10.4712 13.5486 10.4929 13.547ZM13.5469 10.4187V5.29046C13.5453 5.26878 13.5281 5.25154 13.5064 5.24992H12.3713C12.3496 5.25154 12.3324 5.26878 12.3307 5.29046V10.4187C12.3324 10.4404 12.3496 10.4576 12.3713 10.4592H13.5064C13.5281 10.4576 13.5453 10.4404 13.5469 10.4187ZM12.6212 18.7495H13.7901C13.8013 18.7479 13.8126 18.7517 13.8205 18.7597C13.8285 18.7676 13.8323 18.7789 13.8307 18.7901V19.959C13.829 19.9806 13.8118 19.9979 13.7901 19.9995H12.6212C12.5995 19.9979 12.5823 19.9806 12.5807 19.959V18.7901C12.5823 18.7684 12.5995 18.7512 12.6212 18.7495Z" fill="white"/>
</svg>
