<svg width="24" height="24" viewBox="0 0 24 24" fill="none" xmlns="http://www.w3.org/2000/svg">
<circle cx="12" cy="12" r="12" fill="#EDF0F4"/>
<ellipse cx="9.29653" cy="5.40901" rx="1.21303" ry="1.21303" fill="#8352A1"/>
<ellipse cx="14.7345" cy="18.6269" rx="1.21303" ry="1.21303" fill="#3E99D3"/>
<path d="M8.37253 10.4104C7.99231 9.91823 8.08303 9.21106 8.57515 8.83084L14.1956 4.48846C14.6877 4.10824 15.3949 4.19896 15.7751 4.69108C16.1553 5.1832 16.0646 5.89037 15.5725 6.27059L9.95204 10.613C9.45992 10.9932 8.75274 10.9025 8.37253 10.4104Z" fill="#E53C54"/>
<path d="M8.37155 14.8442C7.99133 14.352 8.08205 13.6449 8.57417 13.2646L14.1946 8.92227C14.6867 8.54205 15.3939 8.63276 15.7741 9.12489C16.1543 9.61701 16.0636 10.3242 15.5715 10.7044L9.95106 15.0468C9.45894 15.427 8.75177 15.3363 8.37155 14.8442Z" fill="#F49352"/>
<path d="M8.28854 19.4458C7.90833 18.9537 7.99904 18.2465 8.49116 17.8663L14.1116 13.5239C14.6037 13.1437 15.3109 13.2344 15.6911 13.7265C16.0713 14.2186 15.9806 14.9258 15.4885 15.306L9.86805 19.6484C9.37593 20.0286 8.66876 19.9379 8.28854 19.4458Z" fill="#3EBB90"/>
</svg>
