<svg width="24" height="24" viewBox="0 0 24 24" fill="none" xmlns="http://www.w3.org/2000/svg">
<path d="M23.6383 14.9029C22.0356 21.3315 15.5244 25.2438 9.09503 23.6407C2.66833 22.0381 -1.24401 15.5265 0.359382 9.09837C1.96137 2.66903 8.47253 -1.24361 14.8999 0.359081C21.3289 1.96177 25.241 8.47405 23.6381 14.903L23.6382 14.9029H23.6383Z" fill="black"/>
<mask id="mask0_300_11012" style="mask-type:alpha" maskUnits="userSpaceOnUse" x="5" y="9" width="16" height="12">
<path fill-rule="evenodd" clip-rule="evenodd" d="M17.872 9.64401C16.5857 9.78455 15.6352 10.9083 15.71 12.2C15.732 12.5397 15.5621 12.8633 15.27 13.038C15.124 13.1277 14.9553 13.1735 14.784 13.17C14.614 13.1678 14.4475 13.1224 14.3 13.038C13.9098 12.8146 13.4695 12.6935 13.02 12.686H12.756C11.4779 12.8337 10.5437 13.9629 10.638 15.246C10.6609 15.5854 10.4917 15.9091 10.2 16.084C10.0547 16.1737 9.88664 16.2196 9.71596 16.216C9.55841 16.2195 9.40376 16.1734 9.27396 16.084C8.88567 15.8614 8.44747 15.7403 7.99996 15.732H7.72596C6.46965 15.8937 5.55202 16.999 5.62409 18.2636C5.69615 19.5282 6.73342 20.5221 7.99996 20.54H8.21996C9.36271 20.4274 10.2656 19.5212 10.374 18.378V17.978C10.3524 17.6384 10.5221 17.3151 10.814 17.14C10.96 17.0503 11.1287 17.0045 11.3 17.008C11.4699 17.0102 11.6365 17.0556 11.784 17.14C12.1736 17.3649 12.6141 17.4867 13.064 17.494H13.328C14.456 17.3656 15.3397 16.4643 15.446 15.334V14.934C15.424 14.5933 15.5947 14.2689 15.888 14.094C16.0332 14.0043 16.2013 13.9585 16.372 13.962C16.5295 13.9585 16.6841 14.0047 16.814 14.094C17.2029 14.3188 17.6428 14.4407 18.092 14.448H18.358C19.548 14.228 20.474 13.248 20.474 12.022C20.4798 11.3848 20.232 10.7714 19.7852 10.3171C19.3384 9.86274 18.7292 9.60476 18.092 9.60001C18.0157 9.58853 17.9379 9.6041 17.872 9.64401Z" fill="white"/>
</mask>
<g mask="url(#mask0_300_11012)">
<path d="M16.8 9.55401L6.50004 15.774C5.20766 16.5546 4.78629 18.2311 5.55604 19.53C5.93027 20.164 6.54307 20.6215 7.25729 20.8C7.97151 20.9786 8.7275 20.8633 9.35604 20.48L19.682 14.2C20.9386 13.4171 21.3452 11.7773 20.6 10.498C20.2271 9.86248 19.6138 9.40409 18.8987 9.22644C18.1835 9.04878 17.427 9.16687 16.8 9.55401Z" fill="url(#paint0_linear_300_11012)"/>
</g>
<mask id="mask1_300_11012" style="mask-type:alpha" maskUnits="userSpaceOnUse" x="5" y="6" width="11" height="9">
<path fill-rule="evenodd" clip-rule="evenodd" d="M12.8003 6.6C11.5133 6.74057 10.5625 7.86554 10.6383 9.158C10.6632 9.4989 10.4938 9.82471 10.2003 10C10.0551 10.0897 9.88699 10.1356 9.71631 10.132C9.55741 10.1364 9.40123 10.0902 9.27031 10C8.88358 9.7766 8.44682 9.65417 8.00031 9.644H7.72631C6.54749 9.79428 5.6618 10.7937 5.65431 11.982C5.64983 13.3053 6.71313 14.3846 8.03631 14.4H8.25631C9.39947 14.2917 10.3057 13.3888 10.4183 12.246V11.846C10.3958 11.5062 10.5658 11.1824 10.8583 11.008C11.0037 10.9168 11.1727 10.8702 11.3443 10.874C11.5016 10.8702 11.6559 10.9172 11.7843 11.008C12.1745 11.2314 12.6148 11.3525 13.0643 11.36H13.3283C14.5613 11.1766 15.4519 10.0844 15.3835 8.83971C15.315 7.59498 14.31 6.6071 13.0643 6.56C12.9743 6.54788 12.8827 6.56175 12.8003 6.6Z" fill="white"/>
</mask>
<g mask="url(#mask1_300_11012)">
<path d="M14.9582 7.11C14.1275 6.27816 12.8392 6.11363 11.8262 6.71L6.72616 9.782C6.03665 10.1896 5.57349 10.8923 5.47073 11.6866C5.36796 12.481 5.63707 13.2784 6.20016 13.848C7.03833 14.6845 8.33582 14.8489 9.35616 14.248L14.4602 11.138C15.1398 10.7301 15.5937 10.032 15.691 9.24539C15.7883 8.45876 15.518 7.67115 14.9582 7.11Z" fill="url(#paint1_linear_300_11012)"/>
</g>
<mask id="mask2_300_11012" style="mask-type:alpha" maskUnits="userSpaceOnUse" x="5" y="3" width="6" height="6">
<ellipse cx="7.94792" cy="5.938" rx="2.382" ry="2.382" fill="white"/>
</mask>
<g mask="url(#mask2_300_11012)">
<rect x="4.36719" y="5.93813" width="5.06003" height="5.06002" rx="2.53001" transform="rotate(-45 4.36719 5.93813)" fill="url(#paint2_linear_300_11012)"/>
</g>
<defs>
<linearGradient id="paint0_linear_300_11012" x1="5.49204" y1="4.16343" x2="14.01" y2="4.16343" gradientUnits="userSpaceOnUse">
<stop stop-color="#F4C503"/>
<stop offset="1" stop-color="#FFE800"/>
</linearGradient>
<linearGradient id="paint1_linear_300_11012" x1="2.19416" y1="4.25056" x2="10.2762" y2="4.25056" gradientUnits="userSpaceOnUse">
<stop stop-color="#F4C503"/>
<stop offset="1" stop-color="#FFE800"/>
</linearGradient>
<linearGradient id="paint2_linear_300_11012" x1="-1.22264" y1="7.24703" x2="6.2112" y2="7.24703" gradientUnits="userSpaceOnUse">
<stop stop-color="#F4C503"/>
<stop offset="1" stop-color="#FFE800"/>
</linearGradient>
</defs>
</svg>
