<svg width="24" height="24" viewBox="0 0 24 24" fill="none" xmlns="http://www.w3.org/2000/svg">
<circle cx="12" cy="12" r="12" fill="#FFD800"/>
<path fill-rule="evenodd" clip-rule="evenodd" d="M10.5373 6.10046C10.5373 4.83021 9.5216 3.79999 8.26901 3.79999C7.01642 3.79999 6 4.83021 6 6.10046C6 7.37072 7.01567 8.40019 8.26901 8.40019C9.52085 8.40019 10.5373 7.37072 10.5373 6.10046ZM12.8908 6.73933C12.9745 6.69684 13.0171 6.69684 13.1426 6.69684C14.4035 6.69684 15.4117 7.76134 15.4117 9.0398C15.3698 10.2325 14.5298 11.2121 13.3945 11.3395H13.1426C12.7226 11.3395 12.3026 11.2121 11.9244 10.9989C11.8017 10.9127 11.6545 10.868 11.5044 10.8714C11.3363 10.8714 11.1681 10.9139 11.0425 10.9989C10.7481 11.1696 10.6218 11.4677 10.6218 11.8084V12.1916C10.5381 13.2986 9.65617 14.1506 8.56352 14.2789H8.35351C7.09345 14.2789 6.0845 13.2143 6.0845 11.9359C6.0845 10.7864 6.92529 9.84862 8.05905 9.67865H8.31166C8.73168 9.67865 9.1517 9.80613 9.52987 10.0193C9.6526 10.1055 9.79982 10.1502 9.94989 10.1468C10.118 10.1468 10.2862 10.1043 10.4118 10.0193C10.7062 9.84862 10.8318 9.55044 10.8318 9.20976C10.7481 7.97455 11.6726 6.8668 12.8908 6.73933ZM17.7208 9.67864C17.7634 9.63615 17.8479 9.63615 17.9309 9.63615C19.1917 9.63615 20.1999 10.7007 20.1999 11.9791C20.1999 13.1718 19.318 14.1089 18.1835 14.3213H17.9309C17.5108 14.3213 17.0908 14.1939 16.7126 13.9807C16.5899 13.8945 16.4427 13.8498 16.2926 13.8532C16.1245 13.8532 15.9563 13.8957 15.8307 13.9807C15.5363 14.1514 15.4107 14.4495 15.4107 14.7902V15.1734C15.3194 16.2581 14.477 17.1298 13.3936 17.2607H13.1417C12.7217 17.2607 12.3017 17.1332 11.9235 16.92C11.7554 16.835 11.6298 16.7925 11.4616 16.7925C11.2935 16.7925 11.1253 16.835 10.999 16.92C10.7053 17.0907 10.579 17.3889 10.579 17.7295V18.1127C10.4953 19.2205 9.61264 20.0725 8.52074 20.2H8.31073C7.04992 20.2 6.04172 19.1347 6.04172 17.857C6.08357 16.6643 6.92361 15.6848 8.05812 15.5565H8.31073C8.73075 15.5565 9.15077 15.6848 9.52894 15.898C9.65168 15.9842 9.79889 16.0288 9.94896 16.0254C10.1171 16.0254 10.2853 15.9829 10.4108 15.898C10.7053 15.7273 10.8309 15.4291 10.8309 15.0884C10.7471 13.8532 11.6298 12.7454 12.848 12.618H13.0999C13.5199 12.618 13.9399 12.7454 14.3181 12.9586C14.4862 13.0436 14.6125 13.0861 14.7807 13.0861C14.9481 13.0861 15.117 13.0436 15.2426 12.9586C15.5363 12.7879 15.6626 12.4897 15.6626 12.1491C15.5789 10.9139 16.5026 9.80611 17.7208 9.67864Z" fill="white"/>
</svg>
