<svg width="24" height="24" viewBox="0 0 24 24" fill="none" xmlns="http://www.w3.org/2000/svg">
<circle cx="12" cy="12" r="12" fill="url(#paint0_linear_300_12292)"/>
<path fill-rule="evenodd" clip-rule="evenodd" d="M12.0997 19.7997L12.1002 19.8H12.0997V19.7997ZM5.2002 15.797L12.0997 19.7997V11.7833L14.4102 10.4457L12.084 9.0933L9.77358 10.4346H9.77635V15.7784H9.77358L7.47881 14.4474V9.10118L12.084 6.42926L16.7053 9.11819L14.6669 10.2978L14.4103 10.4462L12.1003 11.7838V19.8L12.1008 19.7996L19.0003 15.798V7.79007L18.872 7.86433L19.0002 7.79004L12.1076 3.80002L5.2002 7.79004V15.797ZM18.872 7.86433L16.7053 9.11819L16.7063 9.11881L14.9174 10.1562L18.872 7.86433Z" fill="white"/>
<defs>
<linearGradient id="paint0_linear_300_12292" x1="0" y1="0" x2="0" y2="24" gradientUnits="userSpaceOnUse">
<stop stop-color="#FF4400"/>
<stop offset="1" stop-color="#FFCD05"/>
</linearGradient>
</defs>
</svg>
