<svg width="24" height="24" viewBox="0 0 24 24" fill="none" xmlns="http://www.w3.org/2000/svg">
<circle cx="12" cy="12" r="12" fill="#EDF0F4"/>
<path fill-rule="evenodd" clip-rule="evenodd" d="M17.578 7.77806C16.5171 6.42181 14.9639 5.55775 13.2467 5.55775C9.92174 5.55775 7.48268 8.65306 7.48268 11.9999C7.48268 14.3296 9.0358 16.0796 10.753 16.0796C10.9171 16.0796 11.0702 16.0687 11.2342 16.0359C10.0749 15.1937 9.34205 13.6624 9.34205 11.9999C9.34205 9.35306 11.1358 7.28587 13.2467 7.28587C15.5546 7.28587 17.1514 9.57181 17.1514 11.9999C17.1405 13.7937 16.5061 15.5765 15.3796 16.889C14.3952 18.0374 13.1264 18.7593 11.7264 18.989C11.7264 18.989 11.8467 18.9999 11.9999 18.9999C15.8608 18.9999 18.9999 15.8609 18.9999 11.9999C18.9999 10.414 18.4749 8.94837 17.578 7.77806ZM16.5172 12C16.5172 9.67028 14.9641 7.92028 13.2469 7.92028C13.0828 7.92028 12.9297 7.93122 12.7656 7.96403C13.925 8.80622 14.6578 10.3375 14.6578 12C14.6578 14.6468 12.8641 16.714 10.7531 16.714C8.44531 16.714 6.84844 14.4281 6.84844 12C6.85937 10.2062 7.49375 8.42341 8.62031 7.11091C9.60469 5.96247 10.8734 5.24059 12.2734 5.01091C12.2734 5.01091 12.1531 4.99997 12 4.99997C8.13906 4.99997 5 8.13903 5 12C5 13.5859 5.525 15.0515 6.42187 16.2218C7.48281 17.5781 9.03594 18.4312 10.7531 18.4312C14.0781 18.4422 16.5172 15.3468 16.5172 12Z" fill="#0089DB"/>
</svg>
