<svg width="24" height="24" viewBox="0 0 24 24" fill="none" xmlns="http://www.w3.org/2000/svg">
<path d="M12 24C18.6096 24 24 18.6096 24 12C24 5.3916 18.6096 0 12 0C5.3916 0 2.00273e-07 5.3916 2.00273e-07 12C-0.0011998 18.6096 5.3904 24 12 24Z" fill="black"/>
<path fill-rule="evenodd" clip-rule="evenodd" d="M8.92197 5.7804H10.65C10.716 5.7804 10.7688 5.8344 10.7688 5.9004V8.4252C10.7688 8.4924 10.8228 8.5452 10.8888 8.5452H13.1076C13.1736 8.5452 13.2276 8.4924 13.2276 8.4252V5.9004C13.2276 5.8344 13.2804 5.7804 13.3476 5.7804H15.0744C15.1404 5.7804 15.1944 5.8344 15.1944 5.9004V8.4252C15.1944 8.4924 15.2472 8.5452 15.3144 8.5452H17.4264C17.4936 8.5452 17.5464 8.5992 17.5464 8.66519V10.3884C17.5464 10.4556 17.4936 10.5084 17.4264 10.5084H15.3144C15.2472 10.5084 15.1944 10.5624 15.1944 10.6284V13.3104C15.1944 13.3764 15.2472 13.4304 15.3144 13.4304H17.4264C17.4936 13.4304 17.5464 13.4832 17.5464 13.5504V15.2736C17.5464 15.3396 17.4936 15.3936 17.4264 15.3936H15.3144C15.2472 15.3936 15.1944 15.4476 15.1944 15.5136V18.0384C15.1944 18.1044 15.1404 18.1584 15.0744 18.1584H13.3476C13.2804 18.1584 13.2276 18.1044 13.2276 18.0384V15.5136C13.2276 15.4464 13.1736 15.3936 13.1076 15.3936H10.89C10.824 15.3936 10.77 15.4476 10.77 15.5136V18.0384C10.77 18.1044 10.7172 18.1584 10.6512 18.1584H8.92317C8.85717 18.1584 8.80317 18.1044 8.80317 18.0384V15.5136C8.80317 15.4464 8.75037 15.3936 8.68317 15.3936H6.57117C6.50397 15.3936 6.45117 15.3396 6.45117 15.2736V13.5504C6.45117 13.4832 6.50397 13.4304 6.57117 13.4304H8.68317C8.75037 13.4304 8.80317 13.3764 8.80317 13.3104V10.6284C8.80317 10.5624 8.75037 10.5084 8.68317 10.5084H6.57117C6.50397 10.5084 6.45117 10.4556 6.45117 10.3884V8.66519C6.45117 8.5992 6.50397 8.5452 6.57117 8.5452H8.68317C8.75037 8.5452 8.80317 8.4924 8.80317 8.4252V5.9004C8.80077 5.8344 8.85597 5.7804 8.92197 5.7804ZM13.2288 13.3116V10.6284C13.2288 10.5624 13.1748 10.5084 13.1088 10.5084H10.8899C10.8239 10.5084 10.7699 10.5624 10.7699 10.6284V13.3104C10.7699 13.3764 10.8239 13.4304 10.8899 13.4304H13.1088C13.1748 13.4316 13.2288 13.3764 13.2288 13.3116Z" fill="white"/>
</svg>
