<svg width="24" height="24" viewBox="0 0 24 24" fill="none" xmlns="http://www.w3.org/2000/svg">
<path d="M12 0C18.6274 0 24 5.37257 24 12C24 18.6274 18.6274 24 12 24C5.37257 24 0 18.6274 0 12C0 5.37257 5.37257 0 12 0Z" fill="black"/>
<path d="M6.23633 9.79612C6.23633 9.88594 6.32616 9.97577 6.41599 9.97577H8.59861V11.0853H6.41599C6.32616 11.0853 6.23633 11.1751 6.23633 11.2649V13.0944C6.23633 13.1842 6.32616 13.2741 6.41599 13.2741H8.59861V17.653C8.59861 17.7429 8.65827 17.8032 8.7481 17.8032H10.8416C10.9314 17.8032 10.9911 17.7435 10.9911 17.653V13.5154C10.9911 13.4256 11.0507 13.3653 11.1406 13.3653H12.8158C12.8754 13.3653 12.9351 13.3954 12.9652 13.4551L14.8194 17.7442C14.8496 17.8039 14.9092 17.8341 14.9689 17.8341H17.2119C17.3312 17.8341 17.3915 17.7141 17.3614 17.6242L15.5072 13.4249C15.477 13.3351 15.5072 13.2453 15.597 13.2151C16.4939 12.8853 17.0624 12.0754 17.0624 10.9954V8.29577C17.0624 6.91612 15.9262 5.77646 14.5499 5.77646H8.7481C8.65827 5.77646 8.59861 5.8368 8.59861 5.92663V7.78629H6.41599C6.32616 7.78629 6.23633 7.87612 6.23633 7.96594V9.79612Z" fill="white"/>
<path d="M10.9907 8.20596C10.9907 8.11613 11.0504 8.05579 11.1402 8.05579H13.9516C14.3404 8.05579 14.6696 8.38561 14.6696 8.77579V10.3954C14.6696 10.7856 14.3404 11.1154 13.9516 11.1154H11.1402C11.0504 11.1154 10.9907 11.0551 10.9907 10.9653V8.20596Z" fill="black"/>
</svg>
