<svg width="24" height="24" viewBox="0 0 24 24" fill="none" xmlns="http://www.w3.org/2000/svg">
<circle cx="12" cy="12" r="12" fill="#EDF0F4"/>
<path d="M12.1594 13.7719C12.269 14.558 12.1758 15.4235 12.8611 16.129C13.2617 16.5409 13.1042 17.1758 12.6835 17.5361C12.2568 17.9141 11.6173 17.9216 11.1818 17.5537C10.7309 17.1758 10.552 16.5258 10.9652 16.0987C11.6429 15.3907 11.5812 14.5379 11.6618 13.6938C11.682 13.4872 11.7878 13.2126 11.4464 13.1282C11.1352 13.0514 10.8997 12.6558 10.494 12.9934C9.83138 13.5439 8.99868 13.8752 8.71901 14.8465C8.54768 15.4373 7.85104 15.6251 7.298 15.4033C6.78453 15.2165 6.47735 14.6901 6.56734 14.1511C6.6782 13.5464 7.22872 13.0388 7.83592 13.1937C8.74169 13.4242 9.41692 12.972 10.1564 12.6482C10.3139 12.5789 10.6263 12.5223 10.5242 12.3081C10.3529 11.9566 10.6641 11.4439 10.2005 11.2323C9.47361 10.9009 8.8072 10.4008 7.89261 10.6591C7.26273 10.8354 6.71347 10.3756 6.5875 9.7659C6.46142 9.16181 6.81636 8.56114 7.40634 8.38017C7.99339 8.21514 8.6661 8.49859 8.81475 9.12217C9.04655 10.0569 9.89941 10.2874 10.5016 10.8027C10.5431 10.838 10.6464 10.8682 10.6691 10.8468C10.9437 10.5835 11.2889 10.4248 11.5887 10.2068C11.784 10.0645 11.6354 9.73315 11.6127 9.48876C11.5585 8.86895 11.5043 8.27309 11.013 7.76288C10.5709 7.30433 10.6868 6.64044 11.139 6.24361C11.5834 5.84426 12.2604 5.85469 12.6923 6.26755C13.1294 6.67571 13.2138 7.32575 12.778 7.79564C12.3887 8.21514 12.264 8.67747 12.2023 9.21035C12.0851 10.1766 12.1884 10.3807 13.0702 10.7838C13.1534 10.8228 13.2252 10.8556 13.297 10.7964C13.8928 10.3013 14.7256 10.0808 14.9712 9.18515C15.1158 8.57736 15.7247 8.20104 16.333 8.34363C16.3714 8.35246 16.4092 8.3634 16.4464 8.37639C16.9969 8.55779 17.3282 9.19271 17.1909 9.80118C17.0712 10.3977 16.4914 10.7848 15.8946 10.6666C15.8593 10.6591 15.8241 10.6503 15.79 10.6402C14.8641 10.3605 14.204 10.9198 13.5111 11.2814C13.1647 11.4603 13.3726 12.0083 13.2353 12.3774C13.1584 12.5852 13.5174 12.6293 13.6925 12.71C14.4245 13.0564 15.1161 13.4469 16.0168 13.2139C16.595 13.0627 17.1254 13.5918 17.206 14.1751C17.3003 14.7167 16.9843 15.2458 16.4628 15.4197C15.8996 15.6188 15.2395 15.4033 15.0695 14.7898C14.7898 13.782 13.918 13.4545 13.2101 12.9367C12.8334 12.6684 12.138 13.2113 12.1594 13.7719Z" fill="#09CBCD"/>
<path d="M12.6685 3.20001L19.0933 6.90119C18.0011 7.74397 17.7882 7.75909 16.6997 7.1292C15.6491 6.52032 14.5993 5.91396 13.5503 5.31011C12.5665 4.74322 12.4329 4.43206 12.6685 3.20001Z" fill="#09CBCD"/>
<path d="M4.70703 16.9075C5.51706 16.1831 6.25276 16.0698 7.13963 16.6757C8.10713 17.3358 9.15525 17.8674 10.1769 18.4583C11.2326 19.0705 11.3283 19.2834 11.1205 20.6125L4.70703 16.9075Z" fill="#09CBCD"/>
<path d="M4.72949 6.89615L11.1291 3.20001C11.3672 4.44591 11.245 4.73062 10.2472 5.30633C9.21424 5.90598 8.14218 6.44893 7.15579 7.11787C6.28026 7.71373 5.54078 7.63437 4.72949 6.89615Z" fill="#09CBCD"/>
<path d="M19.0756 16.8722L12.6924 20.6023C12.4316 19.4119 12.5765 19.073 13.5528 18.5074C14.6047 17.8989 15.6944 17.3421 16.7022 16.6656C17.5501 16.0911 18.2719 16.1478 19.0756 16.8722Z" fill="#09CBCD"/>
<path d="M4 8.17731C5.04686 8.47713 5.45628 9.09315 5.38574 10.1501C5.30007 11.338 5.36684 12.5436 5.36558 13.7316C5.36558 14.8805 5.19173 15.1173 4.00378 15.528L4 8.17731Z" fill="#08CBCD"/>
<path d="M19.7959 15.5456C18.5563 15.0417 18.4492 14.8918 18.4492 13.6484V9.62477C18.4484 8.95088 18.9291 8.37262 19.5918 8.25037C19.9521 8.17856 19.8438 8.45067 19.8438 8.59932C19.8538 9.64618 19.8438 10.693 19.8438 11.7399V15.3869C19.8334 15.4413 19.8174 15.4946 19.7959 15.5456Z" fill="#08CBCD"/>
</svg>
