<svg width="24" height="24" viewBox="0 0 24 24" fill="none" xmlns="http://www.w3.org/2000/svg">
<circle cx="12" cy="12" r="12" fill="#EDF0F4"/>
<path fill-rule="evenodd" clip-rule="evenodd" d="M13.2118 6.20221L10.3707 8.11574L14.5222 6.77211L13.2118 6.20221ZM11.5021 16.4354L7.7998 19.0936L10.1501 8.27798L11.5021 16.4354ZM11.577 16.4105L13.8316 16.4396L10.2375 8.31957L11.577 16.4105ZM15.77 9.83375L14.0436 16.2316L15.1169 9.03506L15.77 9.83375ZM11.0901 6.26045L12.8539 6.20221L10.8322 6.99674L11.0901 6.26045Z" fill="#384182"/>
<path fill-rule="evenodd" clip-rule="evenodd" d="M13.9148 6.38522L14.1643 5.70717L12.854 5.13727L13.9148 6.38522ZM14.992 8.78959L10.4453 8.16562L14.5428 6.87606L14.992 8.78959ZM14.5887 6.70555L14.2933 5.64063L16.3358 6.24381L14.5887 6.70555Z" fill="#F79534"/>
<path fill-rule="evenodd" clip-rule="evenodd" d="M13.678 5H12.7212L14.2022 5.57406L13.678 5ZM11.7725 5.46588L12.6627 5.05406L13.8025 6.36025L11.7725 5.46588ZM11.681 5.53663L11.1195 6.15645L12.9831 6.11069L11.681 5.53663ZM10.8284 7.07993L13.0747 6.2022L10.2876 8.0783L10.8284 7.07993ZM10.2876 8.24468L13.9316 16.398L15.0381 8.91026L10.2876 8.24468ZM14.0025 6.44346L14.2313 5.76124L14.46 6.66393L14.0025 6.44346Z" fill="#F0513A"/>
</svg>
