<svg width="24" height="24" viewBox="0 0 24 24" fill="none" xmlns="http://www.w3.org/2000/svg">
<circle cx="12" cy="12" r="12" fill="#3D58B0"/>
<path fill-rule="evenodd" clip-rule="evenodd" d="M3 12.0008C3 7.03705 7.03705 3 12.0008 3C16.9637 3 21.0008 7.03705 21 12.0008C21 16.9637 16.9645 21 12.0008 21C7.03705 21 3 16.9645 3 12.0008ZM17.5013 6.50004C16.0427 5.04132 14.0636 4.22295 12.0008 4.22555C9.93785 4.22296 7.95869 5.04129 6.49999 6.49999C5.04129 7.95869 4.22295 9.93786 4.22555 12.0008C4.22295 14.0636 5.04131 16.0427 6.50003 17.5013C7.95876 18.9599 9.93792 19.778 12.0008 19.7752C14.0635 19.7778 16.0425 18.9596 17.501 17.501C18.9596 16.0425 19.7778 14.0635 19.7752 12.0008C19.778 9.93793 18.9599 7.95876 17.5013 6.50004Z" fill="white"/>
<path fill-rule="evenodd" clip-rule="evenodd" d="M8.65674 15.3229V8.67706H15.3438V15.3229H8.65674ZM14.2544 9.76591H9.74649V14.234H14.2544V9.76591Z" fill="white"/>
</svg>
