<svg width="24" height="24" viewBox="0 0 24 24" fill="none" xmlns="http://www.w3.org/2000/svg">
<circle cx="12" cy="12" r="12" fill="#030000"/>
<path d="M11.4482 13.5934L11.5635 14.1601L11.7762 13.8768L11.9849 14.9407L12.1925 13.8768L12.4052 14.1601L12.5205 13.5934H11.4482Z" fill="url(#paint0_linear_300_11770)"/>
<path d="M12.5494 12.6925V11.0961C12.5494 10.7847 11.9889 9.99689 11.9889 9.99689C11.9889 9.99689 11.4232 10.7847 11.4232 11.0961V12.6925C11.0557 12.8118 10.7355 13.0448 10.5088 13.3578H13.4597C13.2341 13.0455 12.9155 12.8126 12.5494 12.6925Z" fill="white"/>
<path fill-rule="evenodd" clip-rule="evenodd" d="M17.9489 13.4772C18.4109 13.4772 18.7855 13.8517 18.7855 14.3138C18.7849 14.7756 18.4107 15.1498 17.9489 15.1503C17.4869 15.1503 17.1123 14.7758 17.1123 14.3138C17.1123 13.8517 17.4869 13.4772 17.9489 13.4772ZM17.7607 13.8604C17.5777 13.9365 17.4586 14.1155 17.459 14.3138C17.4601 14.5837 17.679 14.8021 17.9489 14.8026C18.1472 14.8026 18.3259 14.6832 18.4016 14.5C18.4774 14.3168 18.4353 14.106 18.295 13.9659C18.1546 13.8259 17.9438 13.7842 17.7607 13.8604Z" fill="url(#paint1_linear_300_11770)"/>
<path fill-rule="evenodd" clip-rule="evenodd" d="M3 11.9835C3.00629 7.02427 7.02531 3.00572 11.9846 3C16.9087 3.05264 20.8728 7.05917 20.8731 11.9835C20.8734 16.9079 16.9097 20.9149 11.9856 20.9681C9.21945 20.9681 7.28781 20.2581 5.90628 18.7334C5.90628 18.7334 8.27491 20.2664 11.968 19.8129C16.5858 19.2492 19.8149 16.042 19.8149 11.9835C19.813 11.5265 19.771 11.0704 19.6893 10.6207H19.6136C18.9299 10.621 18.3188 10.1944 18.0836 9.5525C17.8484 8.9106 18.0391 8.19013 18.5611 7.74866C17.4256 5.98117 15.6263 4.74522 13.5691 4.31952C11.5119 3.89382 9.36989 4.31422 7.62618 5.48591L7.63778 5.50478L7.63779 5.5048C7.66191 5.54398 7.68582 5.58281 7.70818 5.62396C8.08238 6.32744 8.06073 7.17552 7.65112 7.85899C7.24151 8.54245 6.5038 8.9614 5.707 8.96307C5.41087 8.96237 5.11766 8.90458 4.84341 8.79285C4.3924 9.79605 4.15961 10.8836 4.16044 11.9835V12.1548C4.50232 12.2683 4.75135 12.5644 4.80463 12.9207C4.8579 13.2769 4.70638 13.6329 4.41266 13.8415C4.95448 15.7399 6.3142 17.1027 7.99051 17.2418C10.6726 17.465 13.3702 15.4181 13.3972 15.3974L13.5093 15.3112C14.4082 14.5193 15.4358 13.117 15.5178 10.8335L12.023 8.43475L8.52713 10.8335C8.62885 13.6588 10.1619 15.1441 11.2196 15.8312C10.8054 16.015 10.382 16.1727 9.9564 16.3264C9.82769 16.2205 9.70314 16.1105 9.58481 15.9984C8.57176 15.0382 7.36462 13.3111 7.36462 10.5325V10.2273L12.023 7.03247L16.6803 10.2273V10.5335C16.6803 13.3121 15.4731 15.0393 14.4601 15.9994C14.3823 16.0731 14.3013 16.1457 14.2141 16.2215L14.0979 16.318C13.5632 16.7671 12.9624 17.1309 12.3167 17.3965C11.2352 17.93 9.59311 18.5351 7.89501 18.395C5.10394 18.1635 3 15.4088 3 11.9835ZM4.31503 13.4647C4.38367 13.3874 4.43122 13.2938 4.45308 13.1928C4.50687 12.9419 4.39719 12.6843 4.17906 12.5492C4.20387 12.8571 4.24929 13.1629 4.31503 13.4647ZM7.40083 5.78691C7.78035 6.49991 7.67424 7.37402 7.13516 7.9755C6.59608 8.57698 5.73875 8.77782 4.98862 8.47834C5.54368 7.37662 6.34966 6.42062 7.34167 5.68727C7.35028 5.70297 7.36037 5.71892 7.37062 5.73511L7.37063 5.73512C7.38138 5.75211 7.3923 5.76938 7.40187 5.78691H7.40083ZM18.4182 9.45764C18.6102 9.95026 19.0849 10.2745 19.6137 10.274L19.6209 10.273C19.4453 9.49065 19.1502 8.74005 18.7459 8.0476C18.3563 8.40504 18.2262 8.96501 18.4182 9.45764Z" fill="url(#paint2_linear_300_11770)"/>
<defs>
<linearGradient id="paint0_linear_300_11770" x1="12.521" y1="14.9407" x2="12.521" y2="13.5934" gradientUnits="userSpaceOnUse">
<stop stop-color="#B5E0DA"/>
<stop offset="0.63" stop-color="#3CBAB2"/>
<stop offset="0.97" stop-color="#00A89E"/>
<stop offset="1" stop-color="#00A69C"/>
</linearGradient>
<linearGradient id="paint1_linear_300_11770" x1="18.7855" y1="15.1535" x2="18.7855" y2="13.4803" gradientUnits="userSpaceOnUse">
<stop stop-color="#B5E0DA"/>
<stop offset="0.63" stop-color="#3CBAB2"/>
<stop offset="0.97" stop-color="#00A89E"/>
<stop offset="1" stop-color="#00A69C"/>
</linearGradient>
<linearGradient id="paint2_linear_300_11770" x1="20.9211" y1="20.9681" x2="20.9211" y2="3" gradientUnits="userSpaceOnUse">
<stop stop-color="#B5E0DA"/>
<stop offset="0.63" stop-color="#3CBAB2"/>
<stop offset="0.97" stop-color="#00A89E"/>
<stop offset="1" stop-color="#00A69C"/>
</linearGradient>
</defs>
</svg>
