<svg width="24" height="24" viewBox="0 0 24 24" fill="none" xmlns="http://www.w3.org/2000/svg">
<circle cx="12" cy="12" r="12" fill="#2B77B3"/>
<path fill-rule="evenodd" clip-rule="evenodd" d="M20.1999 12.0294C20.1644 16.5827 16.4295 20.234 11.842 20.1997C7.25075 20.1662 3.5634 16.4597 3.60037 11.9161C3.6381 7.41569 7.38355 3.77035 11.9378 3.80017C16.5253 3.83073 20.2331 7.52453 20.1999 12.0302V12.0294ZM4.20081 12.0033C4.20911 16.1929 7.63992 19.5751 11.8886 19.5847C16.1419 19.5922 19.6119 16.1869 19.5976 11.9929C19.5818 7.62443 15.9193 4.32946 11.7038 4.40102C7.62785 4.46961 4.19251 7.8928 4.20081 12.0033ZM13.9229 8.4436L13.9231 8.44296V8.44371L13.9229 8.4436ZM11.1427 8.08588C12.0895 7.86375 13.0077 7.96435 13.9229 8.4436L13.616 9.41356C13.4464 9.38593 13.2805 9.35673 13.1171 9.32796L13.1171 9.32795L13.117 9.32794C12.7293 9.25968 12.3553 9.19383 11.9779 9.15712C11.6595 9.12656 11.329 9.20856 11.206 9.56266C11.0793 9.9257 11.0642 10.3126 11.3683 10.5929C11.5829 10.7901 11.8232 10.9591 12.0636 11.1283C12.1731 11.2054 12.2827 11.2824 12.3899 11.3622C12.4853 11.4332 12.5836 11.5014 12.6819 11.5696L12.6819 11.5696L12.6819 11.5697C12.9079 11.7265 13.1341 11.8835 13.3255 12.0741C14.0702 12.8166 14.2023 13.7172 13.8967 14.6878C13.7156 15.2633 13.284 15.6271 12.7317 15.8477C11.8866 16.1862 10.4478 16.0192 9.63966 15.4824L9.99428 14.4656C10.152 14.5067 10.3057 14.5504 10.4568 14.5934L10.4568 14.5934C10.7988 14.6905 11.1282 14.7841 11.4641 14.8369C11.9259 14.9092 12.4095 14.8391 12.6464 14.3732C12.8849 13.9035 12.8094 13.4093 12.4359 13.0321C12.2164 12.8107 11.9545 12.6295 11.6931 12.4487L11.6931 12.4487L11.6931 12.4486L11.693 12.4486C11.6112 12.392 11.5294 12.3354 11.449 12.2777C11.3478 12.2052 11.2412 12.1396 11.1346 12.0741L11.1346 12.0741L11.1346 12.0741C11.0045 11.994 10.8744 11.914 10.7541 11.8214C9.88055 11.1615 9.58205 9.99418 10.0335 9.00355C10.2297 8.53727 10.6436 8.19478 11.1427 8.08588ZM7.82647 11.8646C7.82649 12.3837 7.40342 12.8061 6.87803 12.8114C6.34986 12.8136 5.89866 12.3589 5.91073 11.8393C5.93139 11.3213 6.36241 10.9119 6.88708 10.9119C7.41525 10.9194 7.83024 11.3406 7.82722 11.8646H7.82647ZM17.8766 11.8445C17.8698 11.3212 17.4775 10.9373 16.9508 10.938C16.3691 10.938 15.9692 11.313 15.9692 11.8587C15.967 12.3782 16.3881 12.8028 16.9138 12.8114C17.1725 12.8131 17.4208 12.7112 17.6021 12.5291C17.7835 12.3469 17.8825 12.1 17.8766 11.8445Z" fill="white"/>
</svg>
