<svg width="24" height="24" viewBox="0 0 24 24" fill="none" xmlns="http://www.w3.org/2000/svg">
<path d="M12 24C18.6276 24 24 18.6276 24 12C24 5.3724 18.6276 0 12 0C5.3724 0 0 5.3724 0 12C0 18.6276 5.3724 24 12 24Z" fill="#EDF0F4"/>
<path d="M16.5941 6.40482C16.5435 6.40482 16.4974 6.40482 16.4467 6.40962H15.1341V6.69735C15.5992 6.69735 16.0598 6.70214 16.525 6.69735C16.6402 6.70214 16.7645 6.69255 16.8705 6.73091C16.9626 6.77407 17.0409 6.86519 17.1146 6.93712C17.8607 7.74275 18.6253 8.52441 19.3715 9.33005C16.9165 11.91 14.457 14.4899 12.0021 17.0699C9.53792 14.4852 7.08298 11.9052 4.62345 9.32046C5.36039 8.55318 6.08351 7.78112 6.82045 7.01385C6.95402 6.88437 7.07377 6.70214 7.28104 6.70694C7.8752 6.69735 8.47396 6.71173 9.07272 6.70214C9.08193 6.70214 9.09575 6.70214 9.10496 6.70214H10.1413L10.2933 6.40482H8.21142H7.55739C7.38697 6.40482 7.21656 6.39523 7.05074 6.42401C6.94481 6.44798 6.8573 6.5343 6.7836 6.60623C6.0743 7.34953 5.3696 8.09282 4.6649 8.84091C4.51751 8.99916 4.37012 9.17659 4.19971 9.30607V9.32525C4.59121 9.70409 4.95507 10.1117 5.33275 10.5049C7.55739 12.8403 9.78203 15.1709 12.0067 17.5015C14.4708 14.9167 16.9303 12.3368 19.3899 9.75205C19.5281 9.60818 19.6524 9.46432 19.8044 9.33484V9.31087C19.6662 9.18618 19.5419 9.04232 19.4129 8.90805C18.676 8.13119 17.9344 7.35912 17.2021 6.57746C17.133 6.51032 17.0547 6.4288 16.9534 6.41442C16.8336 6.40962 16.7139 6.40482 16.5941 6.40482Z" fill="#6666FF"/>
<path fill-rule="evenodd" clip-rule="evenodd" d="M15.134 6.93713V7.22965H16.0414C16.0952 7.23102 16.1485 7.23161 16.2016 7.23219C16.3351 7.23366 16.4669 7.23511 16.5987 7.24884C16.6748 7.25301 16.7265 7.3043 16.7781 7.35545C16.7858 7.36313 16.7936 7.3708 16.8014 7.37831C17.0615 7.65121 17.3208 7.92585 17.5803 8.20075L17.5804 8.20081C17.9274 8.56838 18.2748 8.9364 18.6253 9.30129L12.3659 15.8902C12.2893 15.9732 12.2107 16.054 12.1314 16.1355L12.1314 16.1355C12.0914 16.1765 12.0514 16.2177 12.0113 16.2595C9.80966 13.9385 7.60805 11.6223 5.40183 9.30608C5.99138 8.67309 6.58554 8.04968 7.1797 7.42627L7.1797 7.42627C7.23958 7.35913 7.30867 7.30159 7.38236 7.25843C7.47448 7.23925 7.5666 7.22965 7.65871 7.23445C8.42329 7.23925 9.18786 7.23925 9.95244 7.23925C9.95244 7.23138 9.95261 7.22356 9.95295 7.21578C9.95433 7.19853 9.95574 7.18128 9.95756 7.16417C9.96486 7.1102 9.9795 7.0585 9.9985 7.00906V7.00427C9.9985 6.99947 9.9985 6.99947 10.0077 6.98988C10.01 6.98269 10.0135 6.97669 10.0169 6.9707C10.0204 6.96471 10.0238 6.95871 10.0261 6.95152H8.28051H7.52054H7.51593L7.48081 6.95264C7.36053 6.95621 7.24825 6.95955 7.14746 7.04263C7.04419 7.12588 6.95537 7.22668 6.86707 7.3269L6.86707 7.3269C6.83329 7.36524 6.79958 7.4035 6.76517 7.44065C6.17101 8.05447 5.57225 8.67788 4.9873 9.30608C7.32709 11.7709 9.66687 14.231 12.0113 16.6911L12.078 16.6208L12.0794 16.6194C14.2766 14.308 16.4694 12.0012 18.6668 9.69451C18.7012 9.65726 18.7376 9.62044 18.7744 9.58328C18.8608 9.49605 18.949 9.40696 19.0168 9.30608C18.98 9.24854 18.9385 9.19099 18.8878 9.14304C18.6624 8.9064 18.4385 8.66977 18.2148 8.43344C17.881 8.0807 17.5478 7.72865 17.2113 7.37831C17.1781 7.34376 17.1456 7.3081 17.1131 7.27236C17.0282 7.17913 16.9427 7.08533 16.8428 7.00906C16.7427 6.93655 16.5973 6.93685 16.4767 6.9371L16.4559 6.93713H15.134ZM9.97019 7.08663C9.97316 7.07531 9.97651 7.06387 9.98024 7.05223C9.9763 7.06349 9.973 7.07497 9.97019 7.08663ZM9.97019 7.08663C9.95847 7.1313 9.9526 7.17416 9.9526 7.22007C9.95272 7.21864 9.95283 7.21721 9.95295 7.21578C9.9537 7.19835 9.95527 7.18115 9.95756 7.16417C9.96036 7.13783 9.96412 7.11183 9.97019 7.08663Z" fill="#6666FF"/>
<path d="M7.97638 7.49338C7.9119 7.49817 7.84741 7.49817 7.78293 7.49817C7.76911 7.49817 7.7599 7.49817 7.74609 7.49817C7.66318 7.49817 7.58027 7.50776 7.49737 7.52695C7.40525 7.56051 7.32695 7.64204 7.26247 7.70438C6.75582 8.23667 6.25839 8.76897 5.75635 9.30126C7.8336 11.4976 9.92466 13.6795 12.0019 15.8758C12.2184 15.66 12.4303 15.4298 12.6421 15.2093C14.5075 13.2383 16.3775 11.2722 18.2521 9.30606C17.7961 8.80253 17.3171 8.31819 16.8519 7.81947C16.7644 7.71876 16.6723 7.63245 16.5663 7.55572C16.4788 7.50297 16.3637 7.50297 16.2623 7.50297H15.1339V7.80029C15.4655 7.80029 15.7925 7.80029 16.1242 7.79549C16.2439 7.80029 16.3821 7.7859 16.4742 7.87222C16.594 7.98251 16.7091 8.0976 16.8197 8.22229C17.1513 8.58194 17.5059 8.92722 17.8237 9.29647C17.7316 9.43074 17.6027 9.55062 17.4875 9.67051C15.6544 11.5887 13.8351 13.5213 11.9973 15.4346C10.1918 13.5356 8.3863 11.6366 6.5808 9.73765C6.44723 9.59378 6.29523 9.45951 6.18009 9.30126C6.26299 9.17178 6.38735 9.06149 6.48868 8.95119C6.78346 8.63949 7.08745 8.32299 7.38222 8.01129C7.4467 7.93935 7.5204 7.87222 7.60791 7.82426C7.69542 7.80029 7.78293 7.7907 7.87044 7.79549C8.57514 7.80029 9.27524 7.80029 9.97993 7.80029V7.79549H10.2655C10.2609 7.79549 10.2563 7.79549 10.2517 7.7907C10.1365 7.72356 10.0444 7.61806 9.99375 7.49338H7.97638Z" fill="#6666FF"/>
<path d="M8.24387 8.04962C8.02279 8.04962 7.80171 8.0736 7.60826 8.18869C7.43324 8.28939 7.30427 8.47642 7.1707 8.62508C6.96344 8.85526 6.74696 9.07585 6.52588 9.29644C6.8575 9.66569 7.20755 10.0158 7.54838 10.3802C9.03148 11.9435 10.5146 13.502 12.0023 15.0606C13.8262 13.1424 15.6501 11.2242 17.474 9.31082C17.1977 9.00392 16.9029 8.72098 16.6312 8.41887C16.5483 8.31817 16.4561 8.22226 16.3502 8.14553C16.2443 8.0736 16.1015 8.07839 15.9817 8.0736H15.1297V8.36133C15.429 8.36612 15.7284 8.37092 16.0278 8.37092C16.1844 8.36612 16.2673 8.47642 16.3686 8.57712C16.5943 8.82169 16.8246 9.06626 17.0549 9.30603C15.3784 11.0899 13.6788 12.8547 12.0023 14.6338C10.4271 12.9841 8.86106 11.3345 7.29045 9.68007C7.17531 9.56019 7.04634 9.4403 6.95423 9.30123C7.07858 9.13339 7.23979 8.99432 7.37797 8.83608C7.51614 8.69701 7.63589 8.53876 7.78789 8.41887C7.85237 8.36612 7.93067 8.37092 8.00897 8.36612C8.66301 8.34694 9.32165 8.35653 9.98029 8.35653V8.35173H10.5837C10.5146 8.27021 10.4685 8.1743 10.4409 8.0688V8.06401H9.37231C9.35389 8.06401 9.33546 8.06401 9.32165 8.06401C8.96239 8.05442 8.60313 8.04962 8.24387 8.04962Z" fill="#6666FF"/>
<path d="M8.23437 8.6203C8.13765 8.6251 8.0225 8.6155 7.93039 8.65866C7.81985 8.721 7.73233 8.8313 7.64482 8.92241C7.53428 9.0423 7.40532 9.15739 7.30859 9.29166C7.36847 9.41155 7.48362 9.50746 7.57573 9.60816C9.04961 11.1523 10.5143 12.706 11.9882 14.2454C13.5496 12.5957 15.1156 10.9509 16.6816 9.30605C16.4973 9.10944 16.3177 8.89844 16.115 8.721C16.0183 8.6203 15.9078 8.63469 15.7788 8.62989H15.1248V8.91762H15.5024C15.659 8.92241 15.8295 8.91762 15.9676 9.00873C16.0828 9.08546 16.1749 9.21014 16.267 9.31564C14.8392 10.8166 13.4114 12.3128 11.9882 13.8186C10.5557 12.3176 9.13252 10.807 7.70009 9.31084C7.80603 9.19575 7.89815 9.08066 8.04093 9.00873C8.22516 8.91282 8.44164 8.90803 8.6443 8.91282C9.08646 8.92721 9.52863 8.91762 9.97079 8.91762H10.9518C10.915 8.8265 10.9058 8.7258 10.9196 8.62989H9.79116C9.2753 8.6203 8.75484 8.6251 8.23437 8.6203Z" fill="#6666FF"/>
<path fill-rule="evenodd" clip-rule="evenodd" d="M14.5942 7.67677C14.5963 7.84629 14.5983 8.0162 14.5999 8.18393C14.6016 8.33411 14.6032 8.48684 14.6049 8.63956C14.6078 8.90623 14.6108 9.17287 14.6137 9.42595C14.6183 9.53625 14.5815 9.64175 14.5078 9.71848C14.4341 9.79041 14.3374 9.82877 14.2406 9.82398H14.2084C13.9274 9.80959 13.7063 9.5842 13.6833 9.29648C13.6741 9.19577 13.6741 9.09507 13.6741 9.00395V8.92723C13.6695 8.83132 13.6603 8.73541 13.6419 8.6395C13.6373 8.59154 13.6004 8.55798 13.559 8.55318H13.5451C13.5405 8.55318 13.5267 8.55318 13.5083 8.58675C13.3793 8.82652 13.2504 9.07589 13.1076 9.36361C13.0534 9.47651 12.9938 9.59308 12.9301 9.7179C12.891 9.79456 12.8503 9.87432 12.8082 9.95825C12.7621 10.0446 12.7023 10.1597 12.6378 10.2891C12.5365 10.5001 12.4029 10.7543 12.2693 11.0085C12.1864 11.1715 12.0206 11.2722 11.8456 11.2722C11.6844 11.2722 11.5278 11.1907 11.431 11.0564C11.3113 10.8934 11.3021 10.6728 11.3988 10.5001C11.4677 10.3651 11.5366 10.2306 11.6052 10.0964C11.7341 9.84488 11.8622 9.59465 11.9884 9.34443L12.0298 9.26291H11.993C11.9008 9.26291 11.8133 9.23893 11.735 9.19098C11.4817 9.04232 11.385 8.74979 11.5047 8.50043L11.5093 8.49084H11.4725C11.3205 8.48605 11.1777 8.41411 11.0856 8.28943C10.9705 8.15036 10.9428 7.95855 11.0119 7.7907H10.9797C10.9198 7.7907 10.8645 7.78111 10.8139 7.76193C10.5559 7.66602 10.4224 7.36871 10.5145 7.10016C10.5421 7.02823 10.5744 6.9515 10.6158 6.86998C10.6204 6.85799 10.6296 6.83881 10.6406 6.81603C10.6515 6.79325 10.6642 6.76688 10.6757 6.7405C10.6918 6.70454 10.7091 6.66857 10.724 6.6374C10.739 6.60623 10.7517 6.57985 10.7586 6.56307L10.8369 6.40002H14.5861V6.69734C14.5861 7.00924 14.5901 7.34225 14.5942 7.67677ZM13.9735 9.26767C13.9781 9.41153 14.0887 9.52183 14.2268 9.52662C14.2959 9.52662 14.3282 9.50744 14.3374 9.41633C14.3354 9.03491 14.3298 8.62943 14.3242 8.22102C14.317 7.70003 14.3097 7.17428 14.3097 6.68772H11.0212C11.0073 6.71649 10.9785 6.77763 10.9498 6.83878C10.921 6.89992 10.8922 6.96106 10.8784 6.98983L10.8784 6.98983C10.8461 7.05697 10.8139 7.1241 10.7863 7.19603C10.754 7.29674 10.8001 7.40703 10.8922 7.45499C10.8922 7.45499 10.8968 7.45978 10.9014 7.45978C10.9889 7.50774 11.0902 7.46937 11.1317 7.38306C11.1455 7.35908 11.1582 7.3339 11.1708 7.30873C11.1835 7.28355 11.1962 7.25838 11.21 7.2344C11.2699 7.11931 11.3712 7.08574 11.4633 7.14328C11.5554 7.20083 11.5785 7.30633 11.5232 7.41663L11.2883 7.87699C11.2514 7.94412 11.2607 8.02565 11.3113 8.08319C11.4173 8.21267 11.5646 8.20308 11.6429 8.06401C11.6637 8.02565 11.6832 7.98608 11.7028 7.94652C11.7224 7.90696 11.742 7.8674 11.7627 7.82903C11.7903 7.77149 11.8502 7.73792 11.9147 7.74272C11.9423 7.74272 11.97 7.75231 11.993 7.76669C12.0805 7.81465 12.1127 7.92974 12.0621 8.02085C12.0137 8.12155 11.9631 8.22106 11.9124 8.32056C11.8617 8.42007 11.8111 8.51958 11.7627 8.62028C11.712 8.73058 11.7581 8.84567 11.8778 8.9176C11.9838 8.98474 12.0897 8.96076 12.1496 8.85046C12.1795 8.79532 12.2083 8.73897 12.2371 8.68262C12.2659 8.62628 12.2947 8.56993 12.3246 8.51478C12.3845 8.39969 12.4766 8.37092 12.5733 8.42846C12.6701 8.48601 12.6931 8.59151 12.6378 8.7018C12.6056 8.76414 12.5745 8.82528 12.5434 8.88642C12.5123 8.94757 12.4812 9.00871 12.449 9.07105C12.3816 9.20388 12.3143 9.33703 12.2469 9.47032C12.0515 9.85676 11.8554 10.2445 11.6568 10.6296C11.6107 10.7015 11.6107 10.8022 11.666 10.8693C11.7489 10.9796 11.9423 11.0132 12.0252 10.855C12.154 10.6102 12.2793 10.362 12.3847 10.1532C12.4527 10.0183 12.5125 9.89989 12.5595 9.80955C12.6662 9.60119 12.7597 9.41484 12.8458 9.2432C12.9974 8.94081 13.1261 8.68411 13.2642 8.43326C13.3287 8.29899 13.4715 8.22706 13.6143 8.25583C13.7709 8.2846 13.8952 8.40928 13.9275 8.57233C13.9505 8.68742 13.9643 8.80251 13.9643 8.9176C13.9643 9.03749 13.9643 9.15258 13.9735 9.26767Z" fill="#6666FF"/>
<path d="M13.0385 10.1885L12.8635 10.5337C12.8911 10.6344 12.9049 10.7447 12.9049 10.8502C12.9049 11.4784 12.4121 11.9916 11.8087 11.9916C11.2053 11.9916 10.7125 11.4784 10.7125 10.8502C10.7125 10.3755 10.9935 9.95349 11.4218 9.78565L11.6014 9.43079C10.8461 9.55067 10.3256 10.2796 10.4408 11.066C10.5559 11.8525 11.256 12.3944 12.0114 12.2745C12.7667 12.1546 13.2872 11.4257 13.172 10.6392C13.1536 10.481 13.1076 10.3275 13.0385 10.1885Z" fill="#6666FF"/>
</svg>
