<svg width="24" height="24" viewBox="0 0 24 24" fill="none" xmlns="http://www.w3.org/2000/svg">
<circle cx="12" cy="12" r="12" fill="#EDF0F4"/>
<path fill-rule="evenodd" clip-rule="evenodd" d="M14.4667 8.72103C14.7102 7.99156 15.3092 7.39228 15.8896 6.90536L15.8894 6.90493C16.021 6.81065 16.1143 6.84896 16.0946 6.9609C16.0853 7.06412 16.0666 7.16236 16.048 7.26057C16.0293 7.35882 16.0107 7.45703 16.0013 7.56018C15.964 7.84115 15.964 8.10334 15.9827 8.3842C16.0019 8.73967 16.0768 9.07648 16.2074 9.39464C16.3378 9.69412 16.4882 9.9936 16.6374 10.2745C17.0126 11.061 17.3867 11.8466 17.7422 12.6331C17.7825 12.7271 17.8228 12.8199 17.8628 12.9122C17.9905 13.2065 18.1155 13.4948 18.2291 13.7938C18.3784 14.2051 18.453 14.5991 18.3224 15.0291C18.0602 15.8903 17.3493 16.5264 16.6944 17.0883C16.6775 17.1024 16.6559 17.122 16.6317 17.144C16.4954 17.2679 16.2755 17.4678 16.3389 17.1815C16.3807 16.9554 16.4376 16.7332 16.4944 16.5114C16.5647 16.2372 16.6347 15.9637 16.676 15.6841C16.7585 15.0543 16.4606 14.3961 16.1964 13.8121C16.1619 13.7359 16.128 13.661 16.0956 13.5876C15.878 13.0946 15.639 12.6159 15.4005 12.1383C15.2495 11.8359 15.0986 11.5339 14.9536 11.2289C14.5786 10.462 14.1858 9.58218 14.4667 8.72103ZM5.89516 8.72207C6.13873 7.99143 6.73769 7.39246 7.31804 6.9064L7.3182 6.90629C7.44881 6.81201 7.54207 6.85032 7.52238 6.96125C7.51305 7.06429 7.49441 7.16241 7.47577 7.26054C7.4571 7.35879 7.43844 7.45703 7.42912 7.56021C7.39182 7.84118 7.39182 8.10336 7.41045 8.38423C7.42896 8.73968 7.50462 9.07645 7.63518 9.39461C7.76563 9.69415 7.91604 9.99363 8.06527 10.2745C8.44041 11.0611 8.81454 11.8466 9.16999 12.6332C9.21015 12.7269 9.25033 12.8195 9.29024 12.9115C9.41804 13.2061 9.54319 13.4945 9.65691 13.7938C9.80614 14.2051 9.88073 14.599 9.75017 15.0291C9.48798 15.8903 8.77703 16.5265 8.1221 17.0883C8.1052 17.1024 8.08362 17.122 8.05939 17.144C7.92308 17.268 7.70327 17.4678 7.76665 17.1816C7.80844 16.9549 7.86543 16.7323 7.92232 16.51C7.99237 16.2363 8.06226 15.9632 8.10342 15.6841C8.18593 15.0543 7.88808 14.396 7.62382 13.812C7.58937 13.7359 7.55548 13.661 7.52308 13.5876C7.30393 13.0918 7.06351 12.6097 6.82367 12.1289C6.67449 11.8298 6.52555 11.5312 6.38208 11.23C6.0071 10.463 5.61436 9.58322 5.89516 8.72207Z" fill="#165098"/>
<path d="M11.4728 5.48248C10.8178 6.0258 10.1069 6.68046 9.71313 7.44733C9.43226 7.99038 9.39497 8.5521 9.5442 9.11276C9.73175 9.78636 9.99292 10.46 10.2738 11.1149C10.8168 12.3689 11.5277 13.5482 12.0521 14.8208C12.2394 15.2696 12.4448 15.7753 12.4821 16.281C12.5196 16.8986 12.3132 17.5536 12.1454 18.134C12.1079 18.3029 11.9961 18.5267 12.0148 18.6958C12.0334 18.8264 12.1081 18.7704 12.1837 18.7145C12.5064 18.4661 12.8128 18.1971 13.1009 17.9092C13.8677 17.1797 14.7476 16.2055 14.673 15.0645C14.6355 14.5961 14.4108 14.1473 14.2242 13.7173C14.018 13.2126 13.7942 12.7266 13.5693 12.2395C13.1578 11.3224 12.7267 10.4239 12.278 9.52535C12.1288 9.2072 11.9409 8.90771 11.8293 8.58956C11.6604 8.15946 11.5857 7.70968 11.5671 7.26097C11.5484 6.92419 11.5671 6.56874 11.6046 6.23191C11.6232 6.00718 11.6978 5.80181 11.6978 5.57692C11.7538 5.3707 11.6419 5.35219 11.4731 5.48264L11.4728 5.48248Z" fill="#5C9DD5"/>
</svg>
