<svg width="24" height="24" viewBox="0 0 24 24" fill="none" xmlns="http://www.w3.org/2000/svg">
<circle cx="12" cy="12" r="12" fill="#E7EFF3"/>
<path fill-rule="evenodd" clip-rule="evenodd" d="M8.07105 9.63363C8.91616 8.26535 10.427 7.45186 12.0346 7.49961C14.516 7.51743 16.4985 9.57117 16.4985 12.0526V16.4987H11.7673C10.1597 16.4509 8.69981 15.5492 7.9374 14.1331C7.17499 12.7171 7.22593 11.0019 8.07105 9.63363ZM14.7009 14.6988V11.9991H14.6987C14.6987 10.5081 13.49 9.29942 11.999 9.29942C10.508 9.29942 9.29929 10.5081 9.29929 11.9991C9.29929 13.4901 10.508 14.6988 11.999 14.6988H14.7009Z" fill="#20EE82"/>
<path d="M18.3627 5.63609C15.3393 2.61248 10.6056 2.1339 7.03818 4.49117C7.13944 4.60313 7.22624 4.72735 7.29656 4.86093C10.6861 2.6361 15.1714 3.09356 18.042 5.95685C21.3743 9.28472 21.3743 14.7064 18.042 18.0387C14.7096 21.3711 9.28794 21.3711 5.95562 18.0387C3.09375 15.167 2.63817 10.6818 4.86415 7.29334C4.73047 7.22318 4.60623 7.13636 4.49439 7.03496C1.75235 11.1781 2.8906 16.7633 7.03372 19.5053C11.1768 22.2473 16.762 21.1091 19.5041 16.966C21.8652 13.3982 21.388 8.66125 18.3627 5.63609Z" fill="#7F8C8D"/>
<path d="M5.06872 5.06591C5.41932 4.71367 5.98907 4.71232 6.34133 5.06288C6.6936 5.41345 6.69499 5.9832 6.34445 6.33549C5.99391 6.68778 5.42416 6.68922 5.07184 6.3387L5.06872 6.33558C4.71928 5.98449 4.71928 5.417 5.06872 5.06591Z" fill="#20EE82"/>
</svg>
