<svg width="24" height="24" viewBox="0 0 24 24" fill="none" xmlns="http://www.w3.org/2000/svg">
<path d="M12 24C18.6276 24 24 18.6276 24 12C24 5.3724 18.6276 0 12 0C5.3724 0 0 5.3724 0 12C0 18.6276 5.3724 24 12 24Z" fill="#EDF0F4"/>
<circle cx="12" cy="12" r="9" fill="#1B1B1B" stroke="white" stroke-width="4"/>
<path fill-rule="evenodd" clip-rule="evenodd" d="M14.7247 9.42562C14.8476 9.54754 15.0474 9.5323 15.1395 9.39514C15.2317 9.28846 15.2164 9.12082 15.1088 9.02938C14.0948 8.06924 13.1884 7.58156 11.6827 7.65776C10.1003 7.73396 8.70221 8.55693 8.79439 10.2943C8.87121 11.8336 10.3768 12.3975 11.6981 12.9004C12.7121 13.2814 13.6032 13.6167 13.6493 14.333C13.6954 15.1254 12.8811 15.5979 12.1744 15.6436C10.8377 15.7198 10.0542 15.2474 9.17848 14.4092C9.07094 14.3025 8.90194 14.3025 8.79439 14.3939C8.67148 14.5006 8.67148 14.6835 8.77903 14.8054C9.7623 15.7808 10.7763 16.2685 12.2512 16.1923C13.7261 16.0856 15.539 15.2626 15.4468 13.5252C15.37 12.0165 13.9258 11.4526 12.6199 10.9649C11.5445 10.5534 10.5458 10.1724 10.4997 9.3037C10.469 8.67885 11.2218 8.22165 11.7596 8.19117C13.0655 8.1302 13.8797 8.58741 14.7247 9.42562ZM14.8937 13.5557C14.8937 14.2263 14.5249 14.8054 13.9719 15.1407L13.9411 15.1254C14.1409 14.8511 14.1716 14.5006 14.1716 14.1653C14.1716 13.1747 13.0808 12.7937 11.9285 12.3822C10.6533 11.925 9.3167 11.4526 9.3167 10.1114C9.3167 9.50183 9.59325 8.8465 10.131 8.5417L10.1463 8.57218C10.0081 8.86174 9.94661 9.18178 9.94661 9.50183C9.94661 10.5991 11.1603 11.0411 12.3894 11.4983C13.6492 11.9555 14.8937 12.4127 14.8937 13.5557Z" fill="white"/>
<path fill-rule="evenodd" clip-rule="evenodd" d="M11.9249 19.2C15.9376 19.2 19.1999 15.9377 19.1999 11.925C19.1999 7.91227 15.9376 4.65001 11.9249 4.65001C7.91217 4.65001 4.6499 7.91227 4.6499 11.925C4.6499 15.9377 7.91217 19.2 11.9249 19.2Z" stroke="white" stroke-width="2" stroke-linecap="round"/>
</svg>
