<svg width="24" height="24" viewBox="0 0 24 24" fill="none" xmlns="http://www.w3.org/2000/svg">
<circle cx="12" cy="12" r="12" fill="#EDF0F4"/>
<ellipse cx="12.0025" cy="11.9631" rx="1.95662" ry="1.95662" fill="black"/>
<path d="M5.16528 15.0381C5.60143 14.746 5.80113 14.2072 5.66069 13.7014C4.71068 10.2272 6.7298 6.63473 10.1914 5.64009C10.8175 5.43994 11.1703 4.77759 10.9871 4.14636C10.8038 3.51513 10.1512 3.14468 9.51524 3.31092C4.78062 4.67711 2.02143 9.59303 3.32136 14.3463C3.42397 14.7226 3.7012 15.0267 4.06648 15.1636C4.43176 15.3005 4.84058 15.2536 5.16528 15.0374V15.0381Z" fill="black"/>
<path d="M12.7046 4.41446C12.7032 4.96786 13.0778 5.45152 13.614 5.58843C17.0769 6.465 19.2062 9.94618 18.4093 13.4282C18.285 13.9891 18.5714 14.5603 19.0953 14.7961C19.6192 15.0319 20.2367 14.8676 20.5741 14.4026C20.6704 14.2697 20.7391 14.1188 20.7761 13.9589C21.8521 9.20295 18.951 4.45357 14.2284 3.2397C13.9156 3.15782 13.583 3.20372 13.3041 3.36727C13.0251 3.53082 12.8227 3.7986 12.7414 4.11157C12.7167 4.21064 12.7043 4.31237 12.7046 4.41446Z" fill="black"/>
<path d="M18.3511 16.3154C17.8642 15.9667 17.194 16.0337 16.7858 16.472C15.589 17.7401 13.9374 18.4808 12.1944 18.5312C10.4514 18.5815 8.75984 17.9373 7.49182 16.7404C7.45895 16.7091 7.42608 16.6778 7.39399 16.6457C6.9956 16.2578 6.37973 16.2026 5.9187 16.5134L5.86704 16.5479C5.60578 16.7207 5.42393 16.9902 5.36154 17.2972C5.29915 17.6042 5.36134 17.9233 5.53442 18.1844C5.57742 18.2507 5.62755 18.3121 5.6839 18.3675C9.22141 21.8596 14.92 21.8228 18.4121 18.2854C18.4646 18.2321 18.5162 18.1781 18.5686 18.1234C19.0168 17.6468 18.9944 16.8974 18.5186 16.4485C18.4813 16.4133 18.4419 16.3806 18.4004 16.3507L18.3511 16.3154Z" fill="black"/>
</svg>
