<svg width="24" height="24" viewBox="0 0 24 24" fill="none" xmlns="http://www.w3.org/2000/svg">
<circle cx="12" cy="12" r="12" fill="#EDF0F4"/>
<path fill-rule="evenodd" clip-rule="evenodd" d="M17.1999 12.9452V13.7677C17.1999 16.071 13.8437 17.3871 12.8237 17.7161L12.4618 17.8477V16.4329L12.6592 16.3671C14.2715 15.7748 15.8837 14.7548 15.8837 13.7677V12.9452H17.1999ZM12.1001 6.20007L13.4821 6.62782V8.07556L12.1001 7.64781L12.0014 7.68072V10.9381H13.4492V12.2872H12.0014V17.8149L11.6066 17.6833C11.4421 17.6175 11.1459 17.5188 10.784 17.3543L10.6195 17.2885V6.62782L12.1001 6.20007ZM10.2245 6.79235V8.24009L8.34903 8.79945V10.9382H10.2245V17.1569L9.79677 16.9594C8.51355 16.3014 7 15.2156 7 13.6691V12.9453H8.34903V13.6691C8.34903 13.9982 8.51355 14.3272 8.84258 14.6562V12.2872H7V7.74654L10.2245 6.79235ZM13.8767 6.75946L17.167 7.77946V12.3201H15.2257V14.2943C15.2257 14.2943 14.798 14.8537 13.8767 15.3143C13.8767 15.0511 13.8767 11.0698 13.8767 8.63494V6.75946ZM15.2587 8.60195V10.9381H15.8509V8.79937L15.2587 8.60195Z" fill="#050101"/>
</svg>
