<svg width="24" height="24" viewBox="0 0 24 24" fill="none" xmlns="http://www.w3.org/2000/svg">
<circle cx="12" cy="12" r="12" fill="#EDF0F4"/>
<path d="M15.3565 11.4414L13.9261 10.0101V9.8453C13.9261 8.75377 13.0411 7.85789 11.94 7.85789C10.8389 7.85789 9.95394 8.74347 9.95394 9.8453V11.5959C9.95394 11.7091 9.9951 11.8121 10.0774 11.8842L11.5078 13.3052V14.0878C11.5078 14.3144 11.6931 14.4997 11.9194 14.4997C12.1458 14.4997 12.3311 14.3144 12.3311 14.0878V13.1405C12.3311 13.0272 12.2899 12.9242 12.2076 12.8521L10.7772 11.4208V9.8453C10.7772 9.20686 11.302 8.68169 11.94 8.68169C12.5781 8.68169 13.1029 9.20686 13.1029 9.8453V10.1542C13.1029 10.1954 13.1029 10.2366 13.1132 10.2778C13.1132 10.2778 13.1132 10.2778 13.1132 10.2881C13.1132 10.3087 13.1235 10.3293 13.1337 10.3499C13.1543 10.4117 13.2058 10.4734 13.2572 10.5146L14.6671 11.9254V14.0981C14.6671 15.5913 13.4528 16.8167 11.9503 16.8167C10.5096 16.7961 9.32621 15.6839 9.23359 14.2629C9.2233 14.0364 9.01749 13.8613 8.79109 13.8819C8.5647 13.8922 8.38976 14.0981 8.41034 14.3247C8.53383 16.1782 10.0877 17.6302 11.94 17.6302C13.8953 17.6302 15.48 16.0444 15.48 14.0878V11.74C15.48 11.6268 15.4286 11.5238 15.3565 11.4414Z" fill="#80225F"/>
<path d="M9.95379 13.7583V14.0878C9.95379 15.1794 10.8388 16.0752 11.9399 16.0752C13.041 16.0752 13.926 15.1897 13.926 14.0878V12.3682C13.926 12.2549 13.8848 12.1519 13.8025 12.0798L12.3412 10.6176V9.835C12.3412 9.60845 12.156 9.4231 11.9296 9.4231C11.7032 9.4231 11.518 9.60845 11.518 9.835V10.7927C11.518 10.9059 11.5591 11.0089 11.6415 11.081L13.1027 12.5329V14.0775C13.1027 14.716 12.5779 15.2411 11.9399 15.2411C11.3019 15.2411 10.777 14.716 10.777 14.0775V13.6965C10.8079 13.5627 10.777 13.4185 10.6741 13.3052H10.6638L10.6536 13.2949L9.22315 11.8636V9.74232C9.22315 8.2389 10.4375 7.0238 11.9399 7.0238C13.3188 7.0238 14.5023 8.09473 14.636 9.46429V9.50548C14.6566 9.73202 14.8521 9.89678 15.0785 9.88649C15.3049 9.86589 15.4696 9.67024 15.4593 9.4437L15.449 9.38191C15.2741 7.56956 13.7613 6.2 11.9399 6.2C9.98466 6.2 8.3999 7.78581 8.3999 9.74232V12.0386C8.3999 12.1519 8.44106 12.2549 8.52339 12.327L9.95379 13.7583Z" fill="#80225F"/>
</svg>
