<svg width="24" height="24" viewBox="0 0 24 24" fill="none" xmlns="http://www.w3.org/2000/svg">
<path fill-rule="evenodd" clip-rule="evenodd" d="M12 24C5.4 24 0 18.6001 0 11.9402C0.06 5.34038 5.4 -0.0595036 12.06 0.000495204C18.66 0.060494 24 5.40038 24 12.1202C23.94 18.6601 18.6 24 12 24Z" fill="#E42D04"/>
<path fill-rule="evenodd" clip-rule="evenodd" d="M12.2338 20.8C13.1048 20.8 15.339 20.4073 17.3082 18.8367C19.5725 17.0307 19.7859 16.0234 19.9235 15.374C19.9355 15.3175 19.9468 15.2637 19.959 15.2122C19.982 15.1149 19.9954 14.9828 20 14.8257C19.5244 14.7487 18.8577 14.7046 18.0797 14.7969C16.8073 14.948 15.8076 15.8163 15.4668 16.2316C15.2774 15.2877 14.3534 13.4 12.1722 13.4C9.99094 13.4 8.81449 15.2877 8.49891 16.2316C8.29694 15.8792 7.54461 15.099 6.15104 14.7969C5.28938 14.6102 4.53776 14.7025 4 14.8596C4.04246 15.5615 4.27316 16.3101 4.88718 17.1C5.94372 18.4592 7.58307 19.2985 8.31447 19.6729C8.39573 19.7145 8.46579 19.7504 8.52259 19.7806C9.09063 20.0826 10.6433 20.8 12.2338 20.8Z" fill="white"/>
<path fill-rule="evenodd" clip-rule="evenodd" d="M19.9987 14.7981C19.5233 14.7213 18.8571 14.6773 18.0795 14.7694C16.8079 14.92 15.8087 15.7859 15.4681 16.2C15.2789 15.2588 14.3554 13.3765 12.1754 13.3765C9.99544 13.3765 8.81966 15.2588 8.50427 16.2C8.30242 15.8486 7.55053 15.0706 6.15776 14.7694C5.29661 14.5832 4.54542 14.6752 4.00797 14.832C3.96928 14.1937 4.08703 13.5943 4.21339 13.0376C4.42533 12.104 4.95771 10.8667 5.19741 10.3647C4.98294 9.85019 4.48589 8.39199 4.21339 6.67529C3.94089 4.95858 4.40262 3.80156 4.66755 3.43764C5.09648 3.55058 6.12088 3.90446 6.78698 4.41646C7.45309 4.92846 8.47747 6.06038 8.90641 6.56235C9.46149 6.41176 10.8896 6.11058 12.1613 6.11058C13.4329 6.11058 14.6592 6.41176 15.1133 6.56235C15.4918 6.11058 16.4228 5.04894 17.1192 4.41646C17.8156 3.78399 18.9484 3.47529 19.4279 3.39999C19.554 3.56313 19.8215 4.03999 19.882 4.64235C19.9577 5.39529 19.7306 6.97646 19.4279 8.03058C19.1856 8.87388 18.8727 9.86274 18.7466 10.2518C18.8097 10.3898 19.0267 10.8391 19.39 11.5318C19.7753 12.2663 20.0243 13.922 19.9987 14.7981Z" fill="#FFAA35"/>
<path d="M13.7875 18.1484C13.6975 18.2688 13.6 18.4997 13.5625 18.6V18.5624L13.45 17.6592C13.2375 17.6842 12.685 17.7344 12.175 17.7344C11.665 17.7344 11.0625 17.6842 10.825 17.6592L10.7875 18.5624C10.7625 18.5247 10.6975 18.4194 10.6375 18.2989C10.5625 18.1484 10.3 17.9226 10.3 17.8097C10.3 17.7194 10.175 17.5212 10.1125 17.4334L10 17.2828H10.675L10.825 17.3957C10.95 17.3832 11.2675 17.3732 11.5375 17.4334C11.8075 17.4936 11.975 17.2578 12.025 17.1323V16.5302C11.9125 16.4549 11.635 16.2818 11.425 16.1915C11.1625 16.0786 10.9 15.627 10.975 15.1754C11.05 14.7238 11.275 14.5732 11.425 14.6109C11.575 14.6485 12.55 14.5732 12.7 14.6109C12.85 14.6485 13.1125 14.7238 13.225 14.9119C13.3375 15.1001 13.2625 15.8528 13.0375 16.1162C12.8575 16.327 12.5125 16.48 12.3625 16.5302V17.1323C12.3625 17.2076 12.625 17.3957 12.6625 17.4334C12.7 17.471 13.2625 17.4334 13.375 17.4334C13.465 17.4334 13.5375 17.3581 13.5625 17.3205H14.2V17.471C14.2 17.5463 14.0875 17.885 14.05 17.9226C14.0125 17.9602 13.9 17.9979 13.7875 18.1484Z" fill="black"/>
<path d="M12.5809 17.9L12.1999 18.2L11.8951 17.9L11.6285 18.0333L11.3999 17.8H12.9999L12.7713 18.0667L12.5809 17.9Z" fill="black"/>
<path d="M8.48127 11.7461C8.03496 11.5615 7.55146 11.4385 7.36549 11.4C7.3159 11.4256 7.21673 11.5077 7.21673 11.6308C7.21673 11.7846 7.17953 11.9385 7.21673 12.2461C7.25392 12.5538 7.55146 12.7461 8.07215 12.9769C8.59285 13.2077 9.48546 13.4 10.1177 13.4C10.75 13.4 10.1549 12.7461 9.93177 12.5923C9.70862 12.4385 9.03915 11.9769 8.48127 11.7461Z" fill="black"/>
<path d="M9.09177 10.7254C8.75823 10.7851 8.29584 10.8 8.10633 10.8C7.91682 10.7752 7.51507 10.6583 7.42411 10.3899C7.3104 10.0544 7.61361 9.68165 7.99263 9.49526C8.37164 9.30887 8.86436 9.38343 9.16757 9.83076C9.47078 10.2781 9.50868 10.6509 9.09177 10.7254Z" fill="white"/>
<path d="M15.9189 11.5462C16.3652 11.3615 16.8487 11.2385 17.0347 11.2C17.0843 11.2256 17.1835 11.3077 17.1835 11.4308C17.1835 11.5846 17.2207 11.7385 17.1835 12.0462C17.1463 12.3538 16.8487 12.5462 16.328 12.7769C15.8074 13.0077 14.9147 13.2 14.2825 13.2C13.6502 13.2 14.2453 12.5462 14.4684 12.3923C14.6916 12.2385 15.361 11.7769 15.9189 11.5462Z" fill="black"/>
<path d="M14.708 10.7254C15.0416 10.7851 15.504 10.8 15.6935 10.8C15.883 10.7751 16.2847 10.6583 16.3757 10.3899C16.4894 10.0544 16.1862 9.68165 15.8072 9.49526C15.4282 9.30887 14.9354 9.38343 14.6322 9.83076C14.329 10.2781 14.2911 10.6509 14.708 10.7254Z" fill="white"/>
<path d="M6.48566 7.93488C6.21311 8.23255 5.69073 8.90232 5.46361 9.19999C5.31219 8.87752 4.97908 8.01674 4.85795 7.15348C4.73681 6.29023 4.83271 4.95813 4.8958 4.39999C5.05984 4.4124 5.53931 4.54883 6.14497 4.99534C6.75063 5.44185 7.63389 6.27286 7.9998 6.63255C7.60865 6.94263 6.7582 7.6372 6.48566 7.93488Z" fill="#FF8C30"/>
<path fill-rule="evenodd" clip-rule="evenodd" d="M4.7998 5.10878C5.3951 5.35719 6.17869 5.73693 6.50707 6.08014C6.84019 6.4283 7.13324 6.88917 7.30722 7.19999C7.56841 6.98343 7.82795 6.77539 7.9998 6.64019C7.62981 6.27927 6.73673 5.44542 6.12432 4.99738C5.51192 4.54934 5.02711 4.41244 4.86124 4.39999C4.84144 4.57385 4.81844 4.82255 4.7998 5.10878Z" fill="#FF9A32"/>
<path d="M17.314 7.93488C17.5865 8.23255 18.1089 8.90232 18.336 9.19999C18.4874 8.87752 18.8205 8.01674 18.9417 7.15348C19.0628 6.29023 18.9669 4.95813 18.9038 4.39999C18.7398 4.4124 18.2603 4.54883 17.6546 4.99534C17.049 5.44185 16.1657 6.27286 15.7998 6.63255C16.191 6.94263 17.0414 7.6372 17.314 7.93488Z" fill="#FF8C30"/>
<path fill-rule="evenodd" clip-rule="evenodd" d="M18.9998 5.10878C18.4045 5.35719 17.6209 5.73693 17.2925 6.08014C16.9594 6.4283 16.6663 6.88917 16.4924 7.19999C16.2312 6.98343 15.9717 6.77539 15.7998 6.64019C16.1698 6.27927 17.0629 5.44542 17.6753 4.99738C18.2877 4.54934 18.7725 4.41244 18.9383 4.39999C18.9582 4.57385 18.9811 4.82255 18.9998 5.10878Z" fill="#FF9A32"/>
</svg>
