<svg width="24" height="24" viewBox="0 0 24 24" fill="none" xmlns="http://www.w3.org/2000/svg">
<path d="M23.6321 14.9146C22.0235 21.3393 15.5142 25.2447 9.09011 23.6395C2.66603 22.0343 -1.24231 15.5257 0.35872 9.09917C1.95975 2.67261 8.4644 -1.24052 14.8904 0.357083C17.9868 1.11601 20.6519 3.08056 22.2934 5.81416C23.9349 8.54776 24.4169 11.8239 23.6321 14.9146Z" fill="#EC672F"/>
<path fill-rule="evenodd" clip-rule="evenodd" d="M11.5268 11.0364H7.25438C7.18718 11.0433 7.12035 11.0203 7.07148 10.9734C7.02262 10.9266 6.99663 10.8606 7.00035 10.7929V10.2362C7.00161 10.0958 7.11461 9.98236 7.25438 9.9811H11.469V4.06688H7.26593C7.12616 4.06562 7.01315 3.95213 7.0119 3.81176V3.25512C7.01292 3.1191 7.11914 3.00735 7.25438 3H16.746C16.8857 3.00126 16.9987 3.11475 17 3.25512V3.80016C16.9987 3.94053 16.8857 4.05402 16.746 4.05528H12.4043V9.9695H16.746C16.8857 9.97076 16.9987 10.0842 17 10.2246V10.7813C16.9987 10.9216 16.8857 11.0351 16.746 11.0364H12.5198V14.4226C13.1802 14.6519 13.6245 15.2748 13.6283 15.9765C13.6283 16.8731 12.9045 17.6 12.0117 17.6C11.1189 17.6 10.3952 16.8731 10.3952 15.9765C10.4016 15.2684 10.8568 14.6433 11.5268 14.4226V11.0364ZM12.0232 16.7767C12.4441 16.7767 12.7853 16.434 12.7853 16.0113C12.7872 15.8077 12.7075 15.612 12.5642 15.468C12.4209 15.3241 12.2259 15.2441 12.0232 15.2459C11.6024 15.2459 11.2612 15.5886 11.2612 16.0113C11.2612 16.434 11.6024 16.7767 12.0232 16.7767Z" fill="white"/>
<path d="M15.7201 12.4698L15.697 12.4467C15.6321 12.3857 15.5309 12.3857 15.466 12.4467L15.05 12.8624C15.0091 12.8973 14.9841 12.9473 14.9807 13.001C14.9772 13.0335 14.9854 13.0662 15.0038 13.0933C15.0038 13.1061 15.0142 13.1164 15.0269 13.1164L15.05 13.1395C15.7385 13.9181 16.124 14.9182 16.1361 15.9572C16.1361 18.2405 14.2842 20.0914 11.9998 20.0914C9.7154 20.0914 7.86353 18.2405 7.86353 15.9572C7.86353 14.8948 8.30257 13.971 8.94959 13.1395L8.9727 13.1164C8.9727 13.1037 8.98304 13.0933 8.9958 13.0933C9.01891 13.0703 9.01891 13.0472 9.01891 13.001C9.02047 12.9461 8.99445 12.8941 8.94959 12.8624L8.53365 12.4467C8.46919 12.3845 8.36704 12.3845 8.30257 12.4467L8.27947 12.4698C7.31363 13.3794 6.77663 14.6541 6.80057 15.9803C6.79546 18.8562 9.1225 21.1924 11.9998 21.2C14.8771 21.1924 17.2041 18.8562 17.199 15.9803C17.223 14.6541 16.686 13.3794 15.7201 12.4698Z" fill="white"/>
</svg>
