<svg width="24" height="24" viewBox="0 0 24 24" fill="none" xmlns="http://www.w3.org/2000/svg">
<path fill-rule="evenodd" clip-rule="evenodd" d="M12 24C5.4 24 0 18.6001 0 11.9402C0.06 5.34038 5.4 -0.0595036 12.06 0.000495204C18.66 0.060494 24 5.40038 24 12.1202C23.94 18.6601 18.6 24 12 24Z" fill="#EDF0F4"/>
<path fill-rule="evenodd" clip-rule="evenodd" d="M19.8341 10.4738C19.1504 6.72282 15.8697 3.95831 12.0137 3.95831C8.1577 3.95831 4.87703 6.72282 4.1933 10.4738L4.11719 10.8913L11.2537 15.5909L14.2971 12.3853L14.3109 12.3703C14.5406 12.1127 14.5256 11.7174 14.2735 11.4781L14.2585 11.4643C14.001 11.2346 13.6057 11.2496 13.3664 11.5017L11.0625 13.9284L5.54393 10.2943L5.5579 10.2387C6.30521 7.33421 8.94206 5.24164 12.0137 5.24164C15.247 5.24164 17.9986 7.56028 18.5716 10.7039C18.6351 11.0525 18.9693 11.2837 19.3179 11.2201C19.6665 11.1566 19.8976 10.8224 19.8341 10.4738ZM12.7797 8.30489L9.63226 11.4927L9.61791 11.5077C9.38347 11.7607 9.39081 12.156 9.63804 12.4001L9.65305 12.4145C9.90609 12.6489 10.3014 12.6416 10.5455 12.3943L12.9591 9.94971L18.4826 13.5249L18.4697 13.5769C17.7224 16.4815 15.0855 18.574 12.0139 18.574C8.73199 18.574 5.95223 16.1864 5.43362 12.9817L5.43033 12.9631C5.36524 12.6235 5.04128 12.3952 4.69769 12.4508C4.34786 12.5074 4.11016 12.8369 4.16677 13.1867C4.78557 17.0105 8.09991 19.8574 12.0139 19.8574C15.8699 19.8574 19.1505 17.0929 19.8343 13.3419L19.911 12.9208L12.7797 8.30489Z" fill="url(#paint0_linear_300_13608)"/>
<defs>
<linearGradient id="paint0_linear_300_13608" x1="-0.543723" y1="7.75847" x2="4.757" y2="22.4719" gradientUnits="userSpaceOnUse">
<stop offset="0.119792" stop-color="#053F92"/>
<stop offset="1" stop-color="#4CDADF"/>
</linearGradient>
</defs>
</svg>
