<svg width="24" height="24" viewBox="0 0 24 24" fill="none" xmlns="http://www.w3.org/2000/svg">
<circle cx="12" cy="12" r="12" fill="#EDF0F4"/>
<rect x="3.59375" y="3.79999" width="16.3433" height="16.3433" fill="white" fill-opacity="0.01"/>
<rect x="17.8267" y="11.5216" width="1.05657" height="1.05657" fill="#BCBEC0"/>
<path d="M14.6474 13.6347H13.5908H12.5279H11.4713H10.4116H9.35498V14.6945V15.7511V16.8076H10.4116V17.8642H11.4713H12.5279H13.5908H14.6474H15.7072V16.8076V15.7511V14.6945V13.6347H14.6474Z" fill="white"/>
<path d="M14.6476 12.5781H13.591H12.5281V11.5216H11.4715V12.5781H10.4117H9.35517H8.29541V13.6347V14.6945V15.7511V16.8076V17.8642H9.35517H10.4117V16.8076H9.35517V15.7511V14.6945V13.6347H10.4117H11.4715H12.5281H13.591H14.6476H15.7074V12.5781H14.6476Z" fill="#BCBEC0"/>
<path d="M11.4719 18.9208H12.5284H13.5914V17.8642H12.5284H11.4719H10.4121V18.9208H11.4719Z" fill="#BCBEC0"/>
<path d="M18.8805 10.465V9.40842H17.8271V10.465H16.7642V11.5216H17.8271H18.8805H19.9434V10.465H18.8805Z" fill="white"/>
<path d="M13.5908 6.23874V7.29531H14.6474V8.35188H15.7072V7.29531V6.23874H14.6474H13.5908Z" fill="white"/>
<path d="M12.5284 9.40842H11.4719V10.465H10.4121V11.5216H11.4719H12.5284H13.5914V10.465H12.5284V9.40842Z" fill="white"/>
<rect x="10.4121" y="5.18533" width="1.05976" height="1.05338" fill="white"/>
<path d="M10.4119 7.29531H9.35536V6.23874H8.2956V7.29531H7.23584V8.35188H8.2956V9.40845H9.35536V8.35188H10.4119V7.29531Z" fill="white"/>
<rect x="18.8809" y="9.40842" width="1.05976" height="1.05657" fill="#ED1C24"/>
<path d="M17.827 8.35185V7.29528H16.7641H15.7075V8.35185H14.6477V7.29528H13.5912V6.23871V5.18533H12.5282H11.4716V6.23871H10.4119H9.35529V7.29528H10.4119V8.35185H9.35529V9.40842H8.29553V8.35185H7.23577V7.29528H6.1792V8.35185V9.40842H7.23577V10.465H8.29553V11.5216H9.35529H10.4119V10.465H11.4716V9.40842H12.5282V10.465H13.5912V11.5216H14.6477H15.7075H16.7641V10.465H17.827V9.40842H18.8804V8.35185H17.827Z" fill="#ED1C24"/>
<rect x="5.1167" y="11.5216" width="1.05976" height="1.05657" fill="#BCBEC0"/>
<rect x="4.05957" y="10.465" width="1.05657" height="1.05657" fill="#BCBEC0"/>
<path d="M16.7642 11.5216H15.7076H14.6478H13.5913H12.5283V12.5781H13.5913H14.6478H15.7076H16.7642H17.8271V11.5216H16.7642Z" fill="#BE1E2D"/>
<path d="M9.35519 11.5216H8.29543V10.465H7.23567V9.40844H6.1791V8.35187H5.11614V9.40844H4.05957V10.465H5.11614V11.5216H6.1791V12.5781H7.23567H8.29543H9.35519H10.4118H11.4715V11.5216H10.4118H9.35519Z" fill="#BE1E2D"/>
<path d="M19.9434 9.40842V10.465V11.5216H20.9999V10.465V9.40842H19.9434Z" fill="#231F20"/>
<rect x="18.8809" y="11.5216" width="1.05976" height="1.05657" fill="#231F20"/>
<rect x="18.8809" y="8.35187" width="1.05976" height="1.05657" fill="#231F20"/>
<rect x="17.8267" y="7.29529" width="1.05657" height="1.05657" fill="#231F20"/>
<path d="M16.7641 12.5781H15.7075V13.6347V14.6945V15.751V16.8076V17.8642H16.7641V16.8076V15.751V14.6945V13.6347H17.827H18.8804V12.5781H17.827H16.7641Z" fill="#231F20"/>
<path d="M16.7641 7.29531H17.827V6.23874H16.7641H15.7075V7.29531H16.7641Z" fill="#231F20"/>
<path d="M13.5908 17.8642V18.9208H14.6474H15.7072V17.8642H14.6474H13.5908Z" fill="#231F20"/>
<path d="M14.6474 6.23871H15.7072V5.18533H14.6474H13.5908V6.23871H14.6474Z" fill="#231F20"/>
<path d="M11.4719 18.9207H10.4121V19.9773H11.4719H12.5284H13.5914V18.9207H12.5284H11.4719Z" fill="#231F20"/>
<path d="M12.5284 5.18535H13.5914V4.12878H12.5284H11.4719H10.4121V5.18535H11.4719H12.5284Z" fill="#231F20"/>
<path d="M9.35517 17.8642H8.29541V18.9208H9.35517H10.4117V17.8642H9.35517Z" fill="#231F20"/>
<path d="M10.4117 6.23871V5.18533H9.35517H8.29541V6.23871H9.35517H10.4117Z" fill="#231F20"/>
<path d="M8.29599 15.751V14.6945V13.6347V12.5781H7.23622H6.17965H5.1167V13.6347H6.17965H7.23622V14.6945V15.751V16.8076V17.8642H8.29599V16.8076V15.751Z" fill="#231F20"/>
<path d="M8.29553 7.29531V6.23874H7.23577H6.1792V7.29531H7.23577H8.29553Z" fill="#231F20"/>
<rect x="5.1167" y="7.29529" width="1.05976" height="1.05657" fill="#231F20"/>
<rect x="4.05957" y="11.5216" width="1.05657" height="1.05657" fill="#231F20"/>
<rect x="4.05957" y="8.35187" width="1.05657" height="1.05657" fill="#231F20"/>
<path d="M4.05976 9.40842H3V10.465V11.5216H4.05976V10.465V9.40842Z" fill="#231F20"/>
<path d="M9.92676 13.5996V14.6594H10.9833V13.5996V12.543H9.92676V13.5996Z" fill="#231F20"/>
<path d="M13.1665 12.543V13.5996V14.6594H14.2231V13.5996V12.543H13.1665Z" fill="#231F20"/>
</svg>
