<svg width="24" height="24" viewBox="0 0 24 24" fill="none" xmlns="http://www.w3.org/2000/svg">
<circle cx="12" cy="12" r="12" fill="#EDF0F4"/>
<circle cx="12" cy="12" r="9" fill="#057BC1"/>
<path fill-rule="evenodd" clip-rule="evenodd" d="M5.25 12C5.25 8.27231 8.27231 5.25 12 5.25C15.7279 5.25 18.75 8.27208 18.75 12C18.75 15.7277 15.7277 18.75 12 18.75C8.27231 18.75 5.25 15.7277 5.25 12ZM14.0748 14.5464H14.3493V13.9761H14.1074V8.78418H13.1635C13.1556 9.87372 13.1589 10.7699 13.1615 11.473C13.1626 11.7616 13.1635 12.0177 13.1635 12.2413C12.5409 12.6153 11.7975 12.7335 11.0896 12.5709C10.5513 12.4061 10.2003 11.8571 10.1783 11.3087V8.78418H9.24515V11.2209C9.23156 11.6888 9.3455 12.1516 9.57478 12.5597C9.81609 12.9771 10.2768 13.2291 10.738 13.3387C11.5715 13.4965 12.4338 13.3568 13.1748 12.9439V13.9755H11.7477V14.5464H13.1523V16.0832H14.0748V14.5464Z" fill="white"/>
</svg>
