<svg width="24" height="24" viewBox="0 0 24 24" fill="none" xmlns="http://www.w3.org/2000/svg">
<circle cx="12" cy="12" r="12" fill="black"/>
<path fill-rule="evenodd" clip-rule="evenodd" d="M15.7676 13.6592C15.8216 14.0498 15.9281 14.3415 16.0866 14.5348C16.3766 14.8868 16.8733 15.0626 17.577 15.0626C17.9985 15.0626 18.3407 15.0163 18.6036 14.9235C19.1023 14.7456 19.3517 14.415 19.3517 13.9318C19.3517 13.6494 19.2279 13.431 18.9806 13.2763C18.7331 13.1256 18.3446 12.9923 17.8147 12.8762L16.9101 12.6733C16.0207 12.4721 15.4061 12.2537 15.0658 12.0178C14.4898 11.6235 14.2016 11.0068 14.2016 10.1678C14.2016 9.40219 14.4801 8.76619 15.0367 8.25975C15.5936 7.75331 16.4113 7.5 17.49 7.5C18.3909 7.5 19.1593 7.73869 19.7953 8.21625C20.4315 8.69381 20.7649 9.38681 20.7958 10.2954H19.0791C19.0481 9.78113 18.8239 9.41588 18.4063 9.19931C18.1281 9.05625 17.7819 8.98463 17.3683 8.98463C16.9082 8.98463 16.5409 9.07744 16.2664 9.26306C15.9919 9.44869 15.8546 9.70763 15.8546 10.0403C15.8546 10.3457 15.9898 10.5739 16.2606 10.7246C16.4346 10.8251 16.8056 10.9431 17.3741 11.0784L18.8471 11.4321C19.4929 11.5868 19.98 11.7936 20.3087 12.0527C20.8191 12.4549 21.0742 13.0367 21.0742 13.7983C21.0742 14.5794 20.7756 15.228 20.1782 15.7442C19.5808 16.2604 18.7371 16.5184 17.6466 16.5184C16.5332 16.5184 15.6574 16.2641 15.0195 15.7556C14.3814 15.2473 14.0625 14.5485 14.0625 13.6592H15.7676Z" fill="white"/>
<path fill-rule="evenodd" clip-rule="evenodd" d="M5.25 4.875V19.125H17.625V17.8125H6.75V6.1875H17.625V4.875H5.25Z" fill="white"/>
</svg>
