<svg width="24" height="24" viewBox="0 0 24 24" fill="none" xmlns="http://www.w3.org/2000/svg">
<circle cx="12" cy="12" r="12" fill="#EDF0F4"/>
<path fill-rule="evenodd" clip-rule="evenodd" d="M12.0147 6C12.5816 6.00224 13.1193 6.12323 13.6077 6.34057L8.20346 18.0319H7.99956C7.49767 18.0319 7.01819 17.9356 6.57679 17.7653L12.0147 6ZM11.7143 6.01345L6.33021 17.6622C4.95673 17.0282 4 15.639 4 14.0213C4 11.8054 5.79023 10.0107 7.99944 10.0107C7.99944 7.89106 9.63955 6.16133 11.7143 6.01345ZM17.8379 10.461L14.3381 18.0319H12.9399L16.6235 10.0622C17.0559 10.1316 17.4637 10.2661 17.8379 10.461ZM12.2927 18.0319L16.0009 10.0106C16.0009 9.26003 15.7925 8.56097 15.434 7.96049L10.7781 18.0319H12.2927ZM17.3783 17.7832L19.7533 12.6478C19.9102 13.078 19.9998 13.5396 19.9998 14.0235C19.9998 15.7488 18.9086 17.2186 17.3783 17.7832ZM19.2896 11.7426C19.0521 11.3953 18.7586 11.0929 18.427 10.8374L15.102 18.0319H16.0005C16.1304 18.0319 16.2626 18.0252 16.3903 18.0118L19.2896 11.7426ZM10.2488 18.0319L15.1175 7.49895C14.7949 7.09788 14.3961 6.75955 13.9435 6.50637L8.61537 18.0319H10.2488Z" fill="#0072FF"/>
</svg>
