<svg width="24" height="24" viewBox="0 0 24 24" fill="none" xmlns="http://www.w3.org/2000/svg">
<circle cx="12" cy="12" r="12" fill="#EDF0F4"/>
<path fill-rule="evenodd" clip-rule="evenodd" d="M11.1386 5.31181C10.7145 5.4141 10.3103 5.57585 10.2266 5.67677C10.1852 5.72666 10.1827 5.70416 10.3158 6.4902C10.4153 7.07799 10.4643 7.19021 10.7331 7.44762C10.9481 7.65362 10.9338 7.6886 10.6578 7.63115C10.4892 7.59609 10.3741 7.54746 10.2459 7.45728C10.2017 7.42612 10.1619 7.43703 9.99825 7.52514C8.99547 8.06508 7.8538 9.35086 7.15238 10.7303C6.78805 11.4468 6.56648 12.0969 6.42489 12.8648C6.3486 13.2786 6.3486 14.2409 6.42489 14.6497C6.71311 16.1943 7.5986 17.43 8.91876 18.1298C9.68579 18.5364 10.7157 18.7748 11.7023 18.7742C12.328 18.7739 13.0629 18.672 13.6135 18.5092C15.6604 17.9042 16.9782 16.6309 17.3611 14.888C17.5605 13.9806 17.4744 12.8289 17.1353 11.8674C16.9002 11.2009 16.6495 10.7137 16.19 10.03C15.4474 8.92507 14.4316 7.99524 13.3494 7.42966C13.2289 7.36669 13.1037 7.31515 13.0712 7.31515C13.0387 7.31515 12.9456 7.3609 12.8643 7.41682C12.7397 7.50255 12.4694 7.58514 12.3136 7.58514C12.2564 7.58514 12.31 7.49694 12.446 7.36729C12.533 7.28425 12.6327 7.14866 12.6784 7.05105C12.756 6.88558 12.7588 6.86038 12.7677 6.25447C12.7759 5.70047 12.7711 5.62232 12.7262 5.57264C12.6667 5.50695 12.4373 5.41896 12.2036 5.3722C12.1128 5.35405 11.9667 5.3248 11.8788 5.30722C11.6881 5.26909 11.3059 5.27146 11.1386 5.31181Z" fill="#81B797"/>
<path d="M11.4847 7.72801C10.8847 7.764 10.5347 7.50302 10.4348 7.36803C10.3748 7.26303 10.2458 7.01405 10.2098 6.85806C10.1738 6.70207 10.0748 6.02311 10.0298 5.70313C10.1948 5.53814 10.7167 5.19916 11.4847 5.16316C12.2527 5.12716 12.7346 5.40814 12.8796 5.55314C12.8896 5.95311 12.8946 6.80406 12.8346 7.00805C12.7596 7.26303 12.6696 7.32303 12.5796 7.41303C12.4896 7.50302 12.2347 7.68301 11.4847 7.72801Z" fill="#D28B52"/>
<path d="M11.4247 5.97929C10.3928 6.07528 10.0648 5.68931 10.0298 5.48432C10.1498 5.33933 10.5908 5.03135 11.3947 4.95935C12.1987 4.88735 12.7296 5.24933 12.8946 5.43932C12.8346 5.57931 12.4566 5.8833 11.4247 5.97929Z" fill="#E4B85D"/>
<path d="M10.7204 8.80477C10.6004 8.70877 10.4704 7.93482 10.4204 7.55984C10.5404 7.58484 10.9394 7.63184 11.5753 7.61984C12.2113 7.60784 12.5803 7.45485 12.6853 7.37985C12.6803 7.69983 12.6643 8.38479 12.6403 8.56478C12.6103 8.78977 12.3253 8.87976 11.7553 8.96976C11.1854 9.05975 10.8704 8.92476 10.7204 8.80477Z" fill="#95B77A"/>
<path fill-rule="evenodd" clip-rule="evenodd" d="M11.9844 4.82227C12.0635 4.83706 12.2228 4.8652 12.3383 4.88479C12.7757 4.95891 13.1958 5.1224 13.2904 5.25539C13.3704 5.3677 13.3743 5.53269 13.3139 6.25877C13.2893 6.55413 13.2842 6.75755 13.3008 6.77327C13.3159 6.78757 13.47 6.87238 13.6432 6.96175C14.6022 7.45639 15.4774 8.19237 16.2212 9.12978C17.0669 10.1955 17.6767 11.4777 17.9336 12.7299C18.2617 14.329 17.8595 15.9284 16.8173 17.1696C16.1303 17.9878 15.3078 18.4846 13.8397 18.9681C13.5797 19.0538 13.2246 19.1491 12.9505 19.2069C12.0689 19.3926 10.8869 19.3386 9.90846 19.0677C8.28139 18.6174 7.09469 17.6614 6.38094 16.2261C6.09731 15.6558 5.95554 15.2596 5.85378 14.7532C5.78188 14.3954 5.7826 13.5102 5.85516 13.0449C6.14243 11.2024 6.97359 9.5431 8.28748 8.18889C8.74981 7.71233 9.18496 7.36723 9.78484 7.00143C9.86796 6.95074 9.87051 6.94237 9.85248 6.77948C9.84219 6.68639 9.82077 6.54273 9.80493 6.46023C9.73927 6.11858 9.70855 5.93922 9.68179 5.74154C9.66625 5.62673 9.64654 5.5107 9.63796 5.48367C9.58562 5.31877 10.3535 4.95609 11.0184 4.83166C11.2182 4.79428 11.8043 4.78858 11.9844 4.82227ZM11.1386 5.31186C10.7145 5.41415 10.3103 5.5759 10.2266 5.67682C10.1851 5.7267 10.1827 5.70421 10.3158 6.49025C10.4153 7.07804 10.4643 7.19026 10.733 7.44767C10.9481 7.65367 10.9338 7.68865 10.6577 7.6312C10.4892 7.59613 10.3741 7.54751 10.2459 7.45733C10.2017 7.42616 10.1618 7.43708 9.99823 7.52519C8.99545 8.06513 7.85378 9.35092 7.15236 10.7303C6.78803 11.4468 6.56647 12.097 6.42487 12.8649C6.34859 13.2786 6.34859 14.241 6.42487 14.6498C6.7131 16.1944 7.59859 17.43 8.91874 18.1298C9.68577 18.5364 10.7156 18.7749 11.7023 18.7743C12.328 18.7739 13.0629 18.672 13.6135 18.5093C15.6604 17.9043 16.9782 16.6309 17.3611 14.888C17.5605 13.9806 17.4744 12.8289 17.1353 11.8675C16.9002 11.201 16.6495 10.7137 16.19 10.03C15.4473 8.92512 14.4316 7.9953 13.3494 7.42971C13.2289 7.36674 13.1037 7.3152 13.0712 7.3152C13.0386 7.3152 12.9456 7.36095 12.8643 7.41686C12.7396 7.5026 12.4694 7.58518 12.3136 7.58518C12.2564 7.58518 12.31 7.49699 12.4459 7.36734C12.533 7.2843 12.6327 7.14871 12.6784 7.05109C12.756 6.88562 12.7588 6.86043 12.7677 6.25452C12.7759 5.70051 12.7711 5.62237 12.7261 5.57269C12.6667 5.507 12.4373 5.41901 12.2035 5.37225C12.1128 5.3541 11.9667 5.32485 11.8788 5.30727C11.6881 5.26914 11.3059 5.27151 11.1386 5.31186Z" fill="#1A4432"/>
<mask id="mask0_300_11362" style="mask-type:alpha" maskUnits="userSpaceOnUse" x="7" y="10" width="10" height="8">
<path fill-rule="evenodd" clip-rule="evenodd" d="M16.0749 15.7494C15.01 17.6243 12.8501 17.9393 11.8602 17.9993C11.5552 17.9993 10.7173 17.9123 9.80531 17.5643C8.66537 17.1293 8.17041 16.4544 7.58544 15.2994C7.00048 14.1445 7.60044 11.9096 7.87042 11.6397C8.14041 11.3697 9.52032 10.9047 11.8602 10.8147C13.7321 10.7427 15.38 11.0447 15.9699 11.2047C16.3599 12.0946 16.9269 14.2495 16.0749 15.7494Z" fill="white"/>
</mask>
<g mask="url(#mask0_300_11362)">
<path d="M16.0749 15.7494C15.01 17.6243 12.8501 17.9393 11.8602 17.9993C11.5552 17.9993 10.7173 17.9123 9.80531 17.5643C8.66537 17.1293 8.17041 16.4544 7.58544 15.2994C7.00048 14.1445 7.60044 11.9096 7.87042 11.6397C8.14041 11.3697 9.52032 10.9047 11.8602 10.8147C13.7321 10.7427 15.38 11.0447 15.9699 11.2047C16.3599 12.0946 16.9269 14.2495 16.0749 15.7494Z" fill="#F3B3BD"/>
<path d="M11.8004 12.1946C8.36856 12.2186 7.62061 11.6946 7.67561 11.4297C8.32557 11.0947 10.1265 10.4247 12.1303 10.4247C14.6352 10.4247 16.3151 10.9647 16.3301 11.0697C16.3451 11.1747 16.0901 12.1646 11.8004 12.1946Z" fill="#F8D5DA"/>
</g>
<path d="M8.8751 13.2746C8.8901 13.5445 8.66512 13.8595 8.20015 14.2495C8.12515 14.1845 7.96916 14.0065 7.94517 13.8145C7.91517 13.5745 8.09516 13.1996 8.33514 12.9146C8.57513 12.6296 8.8601 13.0046 8.8751 13.2746Z" fill="#F098A2"/>
<path d="M10.1502 16.5443C10.0752 15.8694 11.3351 14.2795 12.37 13.7395C13.615 13.0345 15.3699 12.7796 15.8048 13.6645C16.2398 14.5494 15.9098 15.6444 15.2649 16.2144C14.6199 16.7843 13.825 17.3393 12.505 17.5793C11.1851 17.8193 10.2252 17.2193 10.1502 16.5443Z" fill="#F098A2"/>
<path d="M10.1503 10.0947C10.0453 10.5747 9.82032 10.9947 9.05537 11.5946C7.96043 12.3596 7.87044 11.2946 8.05043 10.8297C8.23042 10.3647 8.4554 9.70473 9.34035 9.22476C10.2253 8.74479 10.2553 9.61474 10.1503 10.0947Z" fill="white"/>
<path d="M15.8796 16.0944C16.0446 16.3794 15.8796 16.7693 15.2796 17.1293C15.0996 17.2793 14.9946 17.3843 14.7096 17.2343C14.4246 17.0843 14.5896 16.7693 14.8296 16.4094C15.0696 16.0494 15.7146 15.8094 15.8796 16.0944Z" fill="white"/>
<path d="M6.96975 14.7595L6.75977 12.9746L7.07475 13.9345C7.39473 13.6845 8.08869 13.1426 8.30467 12.9746C8.57466 12.7646 8.48466 12.6446 8.91964 12.9746C9.35461 13.3045 10.5995 14.4145 10.7945 14.3695C10.9895 14.3245 12.9244 12.4346 13.0744 12.5546C13.1944 12.6506 14.5543 13.3345 15.2193 13.6645L16.5242 12.0446L17.3041 13.2745L16.5242 12.5546C16.1692 13.0745 15.4383 14.1295 15.3543 14.1895C15.2493 14.2645 13.4794 12.9746 13.1494 12.9746C12.8854 12.9746 11.5295 14.4545 10.8845 15.1944L8.64965 13.2745L6.96975 14.7595Z" fill="#BDF5E8"/>
</svg>
