<svg width="24" height="24" viewBox="0 0 24 24" fill="none" xmlns="http://www.w3.org/2000/svg">
<circle cx="12" cy="12" r="12" fill="#FDA616"/>
<path fill-rule="evenodd" clip-rule="evenodd" d="M9.0317 16.6C9.11892 16.873 10.1984 17.998 11.3218 17.998C12.9873 17.998 13.9601 16.987 13.9601 15.5245C13.9601 14.17 13.2862 13.396 11.5835 12.643C9.52521 11.8045 8.25267 10.5783 8.25267 8.53526C8.25267 6.27776 9.88081 4.60001 12.332 4.60001C13.6232 4.60001 14.9315 5.41751 15.3654 5.96351L14.3239 7.05476C14.2343 6.99857 14.1408 6.92386 14.0375 6.84135C13.6664 6.54497 13.1695 6.14801 12.2761 6.14801C10.5547 6.14801 9.89945 7.33076 9.89945 8.32001C9.89945 9.67526 10.6673 10.342 12.4065 11.116C14.5401 12.0625 15.6255 13.2453 15.6255 15.3738C15.6255 17.611 14.1763 19.6 11.2011 19.6C9.98444 19.6 8.68505 18.7825 7.90378 17.782L9.0317 16.6ZM10.4202 8.87275C10.16 8.3275 10.3337 7.78225 10.3337 7.78225C16.9268 6.691 15.7124 13.1448 15.7124 13.1448C15.1921 12.1458 14.6717 11.9635 14.6717 11.9635C14.7582 8.236 10.4202 8.87275 10.4202 8.87275ZM13.3295 16.081C13.3295 16.081 13.6307 15.4188 13.3698 14.782C13.3698 14.782 8.59938 15.7818 8.74102 11.4573C8.74102 11.4573 8.24601 11.209 7.84792 10.1485C7.84796 10.1485 7.8474 10.1506 7.84628 10.1546C7.78295 10.3847 5.9521 17.0377 13.3295 16.081Z" fill="white"/>
</svg>
