<svg width="24" height="24" viewBox="0 0 24 24" fill="none" xmlns="http://www.w3.org/2000/svg">
<circle cx="12" cy="12" r="12" fill="#8E9495"/>
<path d="M5.67091 15.4669C5.49785 15.0929 5.36952 14.6998 5.2886 14.2956C5.24197 14.0828 5.21241 13.8666 5.2002 13.649H5.87566C5.8911 13.8239 5.91632 13.9979 5.95122 14.1699C6.02451 14.525 6.13482 14.8779 6.28593 15.1996C6.69091 16.0598 7.30593 16.5504 8.199 16.5504C8.89713 16.5504 9.43811 16.2702 9.81891 15.7766C10.1423 15.3594 10.3251 14.8059 10.3251 14.341C10.3251 13.7452 10.1 13.306 9.65042 12.9343C9.28473 12.6314 8.86388 12.4194 7.995 12.0575L7.84162 11.9939C6.93797 11.6191 6.52091 11.4132 6.11517 11.0922C5.55455 10.6485 5.25686 10.098 5.25686 9.39315C5.25686 8.54894 5.55984 7.83344 6.10233 7.32767C6.61677 6.85578 7.29003 6.59592 7.98744 6.60006C8.95455 6.60006 9.69273 7.00361 10.1838 7.71078V6.74922H12.3659V16.4005H13.0142V13.6922C13.0131 13.67 13.0131 13.6477 13.0142 13.6256L13.6896 13.6483V13.6823C13.7029 13.8465 13.7256 14.0099 13.7576 14.1715C13.8279 14.5235 13.9367 14.8771 14.0878 15.1989C14.4905 16.0582 15.1063 16.5496 15.9986 16.5496C16.6967 16.5496 17.2377 16.2695 17.6185 15.7758C17.9419 15.3586 18.1247 14.8052 18.1247 14.3403C18.1247 13.7444 17.8996 13.3053 17.45 12.9335C17.0843 12.6307 16.6635 12.4187 15.7946 12.0568L15.6412 11.9932C14.7376 11.6184 14.3205 11.4124 13.9148 11.0914C13.3542 10.6477 13.0565 10.0973 13.0565 9.39239C13.0565 8.54818 13.3594 7.83268 13.9019 7.32691C14.4165 6.8553 15.0897 6.59571 15.787 6.60006C16.7542 6.60006 17.4923 7.00361 17.9834 7.71078V6.7901H18.6597V10.1382H17.9834C17.9834 9.43857 17.8233 8.72989 17.5082 8.20671C17.1365 7.58813 16.5774 7.25044 15.787 7.25044C15.2638 7.24664 14.7585 7.44077 14.3719 7.79407C13.9639 8.17567 13.7319 8.72156 13.7319 9.39239C13.7319 9.8921 13.9329 10.2631 14.3439 10.5887C14.6839 10.8575 15.0647 11.0452 15.9087 11.3958L16.0621 11.4594C16.9937 11.8463 17.4553 12.0802 17.8905 12.4399C18.4851 12.932 18.8002 13.5483 18.8002 14.3403C18.8002 14.943 18.572 15.632 18.161 16.165C17.6555 16.8184 16.9174 17.2 15.9986 17.2C15.3617 17.2 14.8154 17.0062 14.3666 16.6473C14.098 16.4296 13.869 16.1671 13.6896 15.8712V17.0508H11.6904V7.3996H10.8593V10.1382H10.1838C10.1838 9.43857 10.0237 8.72989 9.7086 8.20671C9.33686 7.58813 8.77775 7.25044 7.98744 7.25044C7.46424 7.24664 6.95887 7.44077 6.57228 7.79407C6.16428 8.17567 5.93233 8.72156 5.93233 9.39239C5.93233 9.8921 6.13331 10.2631 6.54433 10.5887C6.88433 10.8575 7.26513 11.0452 8.10908 11.3958L8.26246 11.4594C9.19406 11.8463 9.65571 12.0802 10.0909 12.4399C10.6855 12.932 11.0006 13.5483 11.0006 14.3403C11.0006 14.943 10.7724 15.632 10.3614 16.165C9.85593 16.8184 9.11775 17.2 8.199 17.2C7.56206 17.2 7.0158 17.0062 6.567 16.6473C6.29166 16.4242 6.05765 16.1544 5.87566 15.85V17.01H5.2002V13.6483H5.87566V15.85C5.80056 15.7261 5.73221 15.5982 5.67091 15.4669Z" fill="white"/>
</svg>
