<svg width="24" height="24" viewBox="0 0 24 24" fill="none" xmlns="http://www.w3.org/2000/svg">
<circle cx="12" cy="12" r="12" fill="#FEC60D"/>
<path fill-rule="evenodd" clip-rule="evenodd" d="M17.3879 6.11653L19.9515 7.59842C19.9856 7.61929 20.0193 7.63838 20.0525 7.6572C20.1027 7.68565 20.1518 7.71349 20.1998 7.74593V17.267C20.1637 17.275 20.1317 17.2944 20.1002 17.3135C20.0874 17.3213 20.0747 17.329 20.0619 17.3359C20.0186 17.3599 19.9776 17.3846 19.9366 17.4093L17.1232 19.0462C16.9097 19.175 16.6928 19.2974 16.4759 19.4199C16.264 19.5395 16.0522 19.6591 15.8437 19.7845L14.4306 20.6059C14.4267 20.6084 14.4227 20.6108 14.4187 20.6133C14.3807 20.6368 14.3446 20.659 14.3061 20.6801L14.0548 20.8246C13.9654 20.8748 13.8826 20.9227 13.7976 20.9721L12.2571 21.8647C12.2084 21.8914 12.1701 21.9172 12.1377 21.939C12.053 21.9962 12.0091 22.0257 11.9282 21.971L11.2251 21.5622C10.9054 21.3695 10.5813 21.1849 10.2572 21.0002C9.98176 20.8433 9.70625 20.6863 9.43325 20.5243L8.53324 20.0001C8.40858 19.9247 8.28134 19.853 8.154 19.7812C8.02465 19.7083 7.89519 19.6353 7.7682 19.5583C7.76174 19.5545 7.75545 19.5507 7.74929 19.5471C7.7135 19.5257 7.68184 19.5068 7.64367 19.4857L6.99793 19.1121C6.97277 19.0968 6.94759 19.0813 6.92233 19.0658C6.82258 19.0046 6.72177 18.9427 6.61765 18.8889C6.58843 18.8745 6.56534 18.8605 6.54135 18.8461C6.52432 18.8358 6.50684 18.8252 6.48641 18.814C6.4671 18.8034 6.44891 18.7926 6.43098 18.7819C6.40737 18.7679 6.38423 18.7542 6.35965 18.7414L5.8526 18.4479C5.82391 18.4312 5.79513 18.4148 5.7663 18.3983C5.70971 18.366 5.6529 18.3336 5.59609 18.2989L4.57007 17.7028L4.55857 17.6959C4.44854 17.6303 3.84553 17.2706 3.7998 17.2663V7.74593C3.83719 7.73595 4.09197 7.58455 4.30234 7.45954C4.42347 7.38756 4.52987 7.32433 4.57156 7.30189C4.73835 7.21093 4.9039 7.11377 5.06882 7.017C5.16048 6.96321 5.25195 6.90953 5.34332 6.8571L5.8526 6.55533C5.89161 6.5329 5.92972 6.51181 5.96794 6.49067C6.0152 6.46453 6.06262 6.43829 6.11209 6.40931L6.75634 6.03491C6.77256 6.02564 6.78794 6.01638 6.80318 6.00719C6.8286 5.99188 6.85365 5.97678 6.88161 5.96228L7.39686 5.6665C7.43219 5.646 7.46691 5.62638 7.50161 5.60677C7.55185 5.57837 7.60207 5.54999 7.65411 5.51898L7.90465 5.37372C7.94875 5.34861 7.9925 5.3229 8.03589 5.29659L8.2909 5.14683C8.33211 5.12144 8.37388 5.09697 8.41617 5.07344C8.44497 5.05767 8.46841 5.04369 8.49261 5.02925C8.50977 5.01902 8.5273 5.00856 8.54741 4.99707L11.8745 3.07263C11.8766 3.07131 11.8795 3.06947 11.883 3.06724C11.9131 3.04807 11.9884 3 11.9998 3C12.0311 3 12.7634 3.43206 12.905 3.51817L15.3404 4.93042C15.6993 5.14637 16.0619 5.35259 16.4251 5.55913C16.5758 5.6448 16.7265 5.73052 16.8772 5.81701C16.9177 5.84053 16.9575 5.86455 16.997 5.88845C17.0418 5.91551 17.0863 5.94242 17.1314 5.96827C17.1551 5.9819 17.1784 5.9952 17.2015 6.0084C17.2633 6.04376 17.3238 6.07836 17.3879 6.11653ZM12.491 16.9166H14.8883V15.1352C14.8883 15.1217 14.8509 15.1233 14.82 15.1247C14.8113 15.1251 14.8032 15.1254 14.7965 15.1254H11.5902L11.808 14.8843C11.8102 14.882 11.8125 14.88 11.8146 14.878C11.8187 14.8741 11.8227 14.8705 11.8266 14.8656L11.8997 14.7847C11.9049 14.7776 11.9107 14.7709 11.9168 14.7645C11.9358 14.7458 11.9535 14.7252 11.9712 14.7046C11.989 14.684 12.0067 14.6634 12.0257 14.6447C12.0323 14.6386 12.0385 14.6321 12.0443 14.6252C12.0495 14.6183 12.0553 14.6118 12.0615 14.6058L12.1495 14.5084L12.151 14.5062L12.1577 14.4987L12.1621 14.4934L12.3538 14.2845L12.3612 14.2755C12.3903 14.2407 12.4211 14.2076 12.4518 14.1747C12.4739 14.151 12.4959 14.1274 12.5171 14.1033C12.522 14.0972 12.5266 14.0927 12.5317 14.0878C12.5334 14.0861 12.5353 14.0843 12.5372 14.0823C12.5557 14.0624 12.5734 14.0421 12.5912 14.0218C12.6148 13.9947 12.6384 13.9677 12.664 13.9416L12.7534 13.8442C12.776 13.8173 12.7997 13.7922 12.8233 13.767C12.8498 13.7388 12.8763 13.7107 12.9011 13.6802L13.1196 13.4406C13.1325 13.424 13.1614 13.3936 13.1903 13.3631C13.2163 13.3357 13.2423 13.3082 13.2568 13.2908L13.4104 13.1194C13.4298 13.1007 13.4522 13.0752 13.4733 13.051C13.4904 13.0315 13.5067 13.0129 13.52 12.9996C13.5274 12.9924 13.533 12.9859 13.5386 12.9793C13.5442 12.9728 13.5498 12.9662 13.5573 12.9591L13.7772 12.7173C13.7834 12.7109 13.7891 12.7041 13.7944 12.697L13.8861 12.5975C13.8922 12.5911 13.898 12.5843 13.9032 12.5772C13.906 12.5742 13.9085 12.5718 13.9107 12.5696C13.9152 12.5654 13.9189 12.5617 13.9234 12.5548C13.9122 12.5379 13.8985 12.5236 13.8848 12.5093C13.8802 12.5045 13.8757 12.4997 13.8712 12.4949L13.4327 12.0134C13.4163 11.9969 13.4014 11.9793 13.3865 11.9617C13.3716 11.9441 13.3567 11.9265 13.3403 11.91L13.3216 11.8921L13.0778 11.6225L13.0733 11.6165L12.3925 10.8655C12.3714 10.8433 12.3512 10.8201 12.3309 10.797C12.3034 10.7654 12.2757 10.7338 12.2457 10.7045L11.9787 10.4102C11.9628 10.3907 11.9457 10.3726 11.9285 10.3545C11.9127 10.3378 11.8968 10.3211 11.8818 10.3031C11.8765 10.2969 11.8715 10.2915 11.8665 10.2863C11.8594 10.2787 11.8526 10.2715 11.846 10.2627L11.6625 10.0605C11.6541 10.0507 11.6448 10.0412 11.6355 10.0316C11.6191 10.0149 11.6025 9.99793 11.5902 9.97888H14.8883V8.17351H12.4977C12.4895 8.17351 12.4872 8.17051 12.4872 8.16227V7.45091C12.2926 7.45091 12.0991 7.44904 11.9056 7.44716C11.7121 7.44529 11.5186 7.44342 11.324 7.44342V8.18624H9.11091V9.97513C9.11091 9.98181 9.12852 10.0003 9.13878 10.011C9.14118 10.0135 9.14319 10.0156 9.14446 10.0171C9.14702 10.02 9.14957 10.0224 9.15213 10.0249C9.15554 10.0282 9.15895 10.0315 9.16236 10.0358C9.19139 10.0641 9.21858 10.0941 9.24573 10.124C9.26737 10.1478 9.28899 10.1716 9.31149 10.1945C9.31641 10.1995 9.31907 10.2031 9.32184 10.2068C9.3241 10.2098 9.32644 10.213 9.33013 10.217C9.34356 10.2321 9.35767 10.2466 9.37183 10.2611C9.3836 10.2732 9.39542 10.2853 9.40693 10.2979L9.46211 10.3585L9.4636 10.36L9.48001 10.378C9.50834 10.4064 9.53577 10.4365 9.56316 10.4665C9.58552 10.491 9.60785 10.5154 9.63063 10.539L9.70519 10.6214C9.70749 10.6237 9.7097 10.6257 9.71185 10.6277C9.71599 10.6315 9.71991 10.6351 9.72384 10.6401L10.0049 10.9441L10.0064 10.9456L10.1332 11.0826C10.1399 11.0897 10.1461 11.0972 10.1518 11.1051L11.0094 12.0291C11.0158 12.0354 11.0218 12.0421 11.0272 12.0493L11.1205 12.1504C11.1496 12.1801 11.1775 12.2105 11.2053 12.2409C11.2329 12.271 11.2604 12.301 11.289 12.3301C11.2948 12.3359 11.2977 12.3399 11.3011 12.3443C11.303 12.3468 11.305 12.3494 11.3076 12.3526L11.327 12.3713L11.4001 12.4522C11.4337 12.4847 11.4653 12.5192 11.4948 12.5555C11.4891 12.5636 11.4824 12.5699 11.4755 12.5764C11.4697 12.5819 11.4637 12.5876 11.4582 12.5945C11.4455 12.6116 11.4029 12.6568 11.3652 12.6969C11.3434 12.7199 11.3233 12.7413 11.3113 12.7547C11.3057 12.7614 11.2997 12.7672 11.2939 12.7728C11.2866 12.7799 11.2795 12.7868 11.2733 12.7951L11.2174 12.8558C11.2124 12.8619 11.2078 12.8664 11.2028 12.8713C11.201 12.873 11.1992 12.8748 11.1973 12.8768L11.1234 12.9569C11.1178 12.9636 11.1118 12.9693 11.106 12.975C11.0987 12.9821 11.0916 12.989 11.0854 12.9973C11.0778 13.0076 11.0691 13.0157 11.0598 13.0244C11.0555 13.0284 11.0511 13.0325 11.0466 13.037L10.9736 13.1179L10.9549 13.1366L10.7871 13.3178C10.761 13.344 10.7368 13.3713 10.7126 13.3987C10.6883 13.426 10.6641 13.4533 10.638 13.4795L10.5642 13.5597C10.5582 13.5668 10.5517 13.5729 10.5452 13.5792C10.5385 13.5855 10.5318 13.5918 10.5254 13.5994L10.5209 13.6053C10.5025 13.6277 10.478 13.6527 10.4534 13.6779C10.4252 13.7066 10.3969 13.7356 10.377 13.7611L10.348 13.791L10.3435 13.7963L10.342 13.7978L10.1518 14.0015C10.1466 14.0088 10.1408 14.0158 10.1347 14.0224L10.1161 14.0412L10.0027 14.1625C9.99491 14.1726 9.98795 14.1796 9.98062 14.187C9.97605 14.1916 9.97133 14.1964 9.96618 14.2021L9.87222 14.3025L9.86775 14.3085L9.86626 14.31C9.84357 14.337 9.81993 14.361 9.7961 14.3853C9.79016 14.3914 9.78422 14.3975 9.77827 14.4036L9.63883 14.5548L9.63436 14.5601L9.5926 14.6043L9.57545 14.6252L9.53668 14.6649L9.53518 14.6672L9.4047 14.8064C9.39846 14.8127 9.39272 14.8195 9.38754 14.8266C9.38175 14.8335 9.37552 14.84 9.3689 14.8461L9.14446 15.0895C9.1426 15.0912 9.14042 15.0931 9.13809 15.0951C9.12644 15.1053 9.11091 15.1188 9.11091 15.1344V16.9166H11.3248V17.5568H12.4805C12.488 17.5568 12.491 17.5545 12.491 17.5471V16.9166Z" fill="white"/>
</svg>
