<svg width="24" height="24" viewBox="0 0 24 24" fill="none" xmlns="http://www.w3.org/2000/svg">
<circle cx="12" cy="12" r="12" fill="#B30D23"/>
<path fill-rule="evenodd" clip-rule="evenodd" d="M11.9998 17.2L12.6958 15.8883H12.695C16.8992 15.5581 20.1998 12.3861 20.1998 12.3861C20.1998 12.3861 16.9925 9.29728 12.875 8.89984L12.5599 8.34448L11.9998 7.39999L11.6697 7.95535L11.1246 8.89984C7.00632 9.30484 3.7998 12.3786 3.7998 12.3861C3.7998 12.3861 7.09967 15.5581 11.3038 15.8883L11.9998 17.2ZM10.8586 15.0481C7.66625 14.5834 4.48811 12.3861 4.49558 12.3861C4.49558 12.3861 7.52288 10.2947 10.6361 9.76198L10.1417 10.6241L10.5285 11.3888L11.5762 9.64939L11.5762 9.64939C11.7196 9.64184 11.863 9.63428 11.9996 9.63428C12.1384 9.63558 12.2771 9.64061 12.4155 9.64939L13.4416 11.3888L13.8359 10.5871L13.3624 9.75442C16.4763 10.2796 19.5029 12.3257 19.5029 12.3786C19.5029 12.439 16.3255 14.5834 13.1332 15.0405L14.6894 12.0862L14.2667 11.3442L13.4558 12.8735L12.3439 15.1161C12.2221 15.1236 12.1072 15.1236 11.9854 15.1236H11.9854H11.9854C11.8629 15.1236 11.7412 15.1236 11.6195 15.1161L10.1059 12.1013L10.1133 12.0937L9.72503 11.3593L9.30237 12.1013L10.8586 15.0481Z" fill="white"/>
</svg>
