<svg width="24" height="24" viewBox="0 0 24 24" fill="none" xmlns="http://www.w3.org/2000/svg">
<circle cx="12" cy="12" r="12" fill="#0B1C26"/>
<path fill-rule="evenodd" clip-rule="evenodd" d="M12.0998 20.4C7.52122 20.3864 3.7998 16.6703 3.7998 12.1C3.7998 7.52971 7.52122 3.81357 12.0998 3.79999C16.6784 3.81357 20.3998 7.52971 20.3998 12.1C20.3998 16.6703 16.6784 20.3909 12.0998 20.4ZM19.4604 13.4205C19.2781 13.8407 18.7931 14.0379 18.3693 13.8641C18.6628 14.1705 18.8462 14.5817 18.8462 15.0337C18.8462 15.1665 18.8281 15.2902 18.8009 15.414C19.1118 14.7832 19.3344 14.1124 19.4604 13.4212V13.4205ZM19.1079 13.0877C19.1075 13.3177 18.9207 13.5039 18.6907 13.5035H18.6899C18.4599 13.5028 18.2739 13.3159 18.2745 13.0858C18.2751 12.8558 18.4621 12.6698 18.6922 12.6704C18.9222 12.6709 19.1083 12.8577 19.1079 13.0877ZM18.8782 8.9558C19.2965 10.1264 19.059 11.4311 18.255 12.3792C18.3852 12.3001 18.5342 12.2574 18.6866 12.2554C19.122 12.2554 19.4789 12.5889 19.5158 13.019C19.5528 12.7172 19.5754 12.4154 19.5754 12.1045C19.5805 11.0161 19.3423 9.94032 18.8782 8.9558ZM15.5648 7.24149C17.1567 7.24065 18.4487 8.52893 18.4524 10.1208C18.447 11.712 17.156 12.9994 15.5648 13.0002C13.9729 13.001 12.6809 11.7127 12.6771 10.1208C12.6809 8.52893 13.9729 7.24065 15.5648 7.24149ZM15.45 15.0351C15.45 14.4089 15.7971 13.8332 16.3532 13.5411C15.6487 13.7048 14.9109 13.6471 14.2404 13.3759C14.8105 13.813 15.2327 14.4145 15.45 15.0993C15.4531 15.0802 15.4519 15.0657 15.4509 15.0526C15.4504 15.0466 15.45 15.0409 15.45 15.0351ZM15.5141 16.9728C15.5804 16.7037 15.6143 16.4276 15.6152 16.1504C15.6145 15.9972 15.6024 15.8448 15.5782 15.6939C15.7348 16.0587 16.0137 16.3575 16.3667 16.539C16.3246 16.5297 16.2816 16.5252 16.2385 16.5254C15.9314 16.5254 15.6514 16.6989 15.5141 16.9728ZM17.1455 16.0998C17.7352 16.1007 18.2147 15.6248 18.2184 15.0352C18.2184 14.4459 17.737 13.9705 17.1455 13.9705C16.5539 13.9705 16.0778 14.4504 16.0778 15.0344C16.0778 15.6242 16.5588 16.0994 17.1455 16.0998ZM17.9564 12.69C17.8885 12.8138 17.8523 12.9519 17.8508 13.093L17.8516 13.0922C17.8511 13.2684 17.9071 13.44 18.0115 13.5819C17.7497 13.4256 17.4503 13.3435 17.1453 13.3442C17.0739 13.3442 17.0062 13.3519 16.9383 13.3596L16.9205 13.3616C17.3015 13.1984 17.6519 12.9713 17.9564 12.69ZM12.0988 12.6402C12.5515 12.6402 12.9997 12.727 13.4192 12.896C12.7148 12.3564 12.2425 11.5685 12.0988 10.6928C11.9544 11.568 11.4827 12.3557 10.7791 12.896C11.1993 12.7286 11.6472 12.6416 12.0995 12.6395L12.0988 12.6402ZM11.1968 7.72212C11.4668 7.89279 11.7798 7.98308 12.0992 7.98244L12.1 7.98169C12.4197 7.98247 12.7329 7.89218 13.0032 7.72137C12.5298 8.22552 12.2157 8.85804 12.1 9.53982C11.9871 8.85736 11.6725 8.22431 11.1968 7.72212ZM13.8136 6.2734C13.8136 6.65596 13.6846 7.02795 13.4469 7.32977C13.8032 7.06015 14.2079 6.86138 14.6391 6.74424C14.6289 6.74424 14.6202 6.74556 14.6123 6.74678C14.6055 6.74781 14.5993 6.74877 14.593 6.74877C14.2399 6.74877 13.9366 6.52995 13.8136 6.21832C13.8111 6.23042 13.8119 6.24286 13.8128 6.25518L13.8128 6.25523C13.8132 6.26133 13.8136 6.26741 13.8136 6.2734ZM15.4269 5.90819C15.4269 5.64712 15.3039 5.41925 15.1153 5.26381L15.116 5.26306C16.3751 5.82465 17.457 6.71924 18.2451 7.85039C17.4293 6.89277 16.1646 6.44319 14.9274 6.67104C15.2307 6.53824 15.4269 6.23868 15.4269 5.90819ZM14.5882 5.49697C14.4394 5.49657 14.3016 5.57558 14.2269 5.70424C14.1521 5.83291 14.1517 5.99168 14.2258 6.12075C14.2998 6.24982 14.4371 6.32958 14.5859 6.32999C14.8161 6.33061 15.0033 6.14447 15.0039 5.91423C15.0045 5.68399 14.8184 5.49684 14.5882 5.49622V5.49697ZM13.7548 5.84407C13.6081 5.27425 13.1785 4.82007 12.6177 4.64208C13.3175 4.69264 14.007 4.84018 14.6663 5.08047C14.6394 5.07525 14.6121 5.07222 14.5848 5.07141C14.1486 5.07221 13.7867 5.40906 13.7548 5.84407ZM11.0181 6.27338C11.0336 6.85963 11.5133 7.32683 12.0997 7.32683C12.6862 7.32683 13.1659 6.85963 13.1814 6.27338C13.1596 5.69193 12.682 5.23177 12.1001 5.23177C11.5182 5.23177 11.0406 5.69193 11.0188 6.27338H11.0181ZM9.61156 5.07141C9.58394 5.07218 9.55643 5.07521 9.52931 5.08047C10.1744 4.84278 10.8626 4.6964 11.5779 4.64208C11.0174 4.82029 10.588 5.27443 10.4416 5.84407C10.4114 5.4082 10.0485 5.07037 9.61156 5.07141ZM10.3858 6.2734C10.385 6.25493 10.3865 6.23642 10.3903 6.21832C10.2639 6.53794 9.9553 6.74813 9.61159 6.74877C9.60138 6.74877 9.59273 6.74744 9.58478 6.74623C9.57803 6.74519 9.5718 6.74424 9.56556 6.74424C9.99565 6.86195 10.4008 7.06115 10.7577 7.32901C10.5169 7.0299 10.3857 6.65741 10.3858 6.2734ZM9.40278 6.2725C9.27385 6.19821 9.19433 6.06078 9.1942 5.91198C9.19399 5.68195 9.3803 5.4953 9.61033 5.49509C9.84036 5.49488 10.027 5.68119 10.0272 5.91122C10.0274 6.06003 9.94809 6.1976 9.81929 6.27212C9.69049 6.34664 9.53172 6.34678 9.40278 6.2725ZM5.9542 7.85492C6.76825 6.89477 8.03451 6.44465 9.27194 6.67557C9.00564 6.55943 8.81945 6.31252 8.78102 6.02455C8.74259 5.73658 8.85753 5.44948 9.08406 5.26759C7.82287 5.82608 6.73995 6.72129 5.9542 7.85492ZM8.63518 13.0009C7.04327 13.0018 5.75128 11.7135 5.74754 10.1216C5.74754 8.53552 7.0446 7.24675 8.63518 7.24223C10.2271 7.24139 11.5191 8.52967 11.5228 10.1216C11.5191 11.7135 10.2271 13.0018 8.63518 13.0009ZM8.74935 15.0352C8.74935 15.0442 8.74822 15.0546 8.74709 15.065C8.74595 15.0754 8.74482 15.0857 8.74482 15.0948C8.96329 14.4107 9.38525 13.8095 9.95436 13.3714C9.28382 13.6423 8.54602 13.6998 7.84163 13.5359C8.39884 13.8286 8.74824 14.4058 8.74935 15.0352ZM6.1826 13.5812C6.2905 13.4416 6.3486 13.2695 6.34785 13.0922C6.34785 12.9511 6.31012 12.8115 6.23768 12.6908C6.53984 12.9751 6.89079 13.2026 7.27367 13.3624C7.19973 13.3495 7.12427 13.3435 7.04882 13.3442C6.74397 13.3434 6.4446 13.4253 6.1826 13.5812ZM5.98109 15.0352C5.98109 15.6248 6.45911 16.1029 7.04877 16.1029C7.63843 16.1029 8.11645 15.6248 8.11645 15.0352C8.11645 14.4451 7.63581 13.9698 7.04877 13.9698C6.76569 13.9687 6.49388 14.0806 6.2935 14.2806C6.09312 14.4805 5.98068 14.7521 5.98109 15.0352ZM7.87031 16.5332C7.85617 16.5353 7.84218 16.5375 7.82818 16.539C8.18207 16.3564 8.45899 16.0553 8.61216 15.6886C8.59179 15.841 8.58122 15.9957 8.57971 16.1504C8.5806 16.4276 8.61454 16.7037 8.68082 16.9728C8.5435 16.6982 8.26356 16.5254 7.95646 16.5246C7.92646 16.5246 7.89811 16.5289 7.87033 16.5332L7.87031 16.5332ZM4.67986 13.0152C4.71733 12.5843 5.07731 12.2531 5.50986 12.2516C5.66152 12.2524 5.81092 12.2954 5.93995 12.3754C5.13594 11.4274 4.89839 10.1226 5.31669 8.95201C4.72419 10.2186 4.50335 11.6273 4.67986 13.0145V13.0152ZM5.14825 12.8841C5.22289 12.7553 5.36053 12.6762 5.50933 12.6765C5.73937 12.6769 5.92551 12.8637 5.92509 13.0937C5.92467 13.3237 5.73786 13.5099 5.50783 13.5095C5.35902 13.5092 5.22166 13.4296 5.1475 13.3006C5.07333 13.1716 5.07361 13.0128 5.14825 12.8841ZM5.35439 15.0352C5.35439 14.5975 5.52492 14.178 5.83051 13.8656C5.40668 14.039 4.92199 13.8419 4.73943 13.422C4.86771 14.1252 5.08879 14.793 5.39966 15.4139C5.37043 15.2898 5.35524 15.1627 5.35439 15.0352ZM5.89867 16.2734C6.32798 16.6723 6.93299 16.821 7.4983 16.6665V16.6673C7.27496 16.8182 7.14065 17.0694 7.14065 17.3388C7.14209 17.526 7.2085 17.7068 7.32853 17.8504C6.77997 17.3946 6.29857 16.8642 5.89867 16.2734ZM7.56246 17.338C7.56246 17.5556 7.7388 17.7319 7.95633 17.7319C8.17386 17.7319 8.3502 17.5556 8.3502 17.338C8.3502 17.1205 8.17386 16.9442 7.95633 16.9442C7.7388 16.9442 7.56246 17.1205 7.56246 17.338ZM8.76821 17.2656C9.13353 18.344 9.99708 19.1798 11.0869 19.5096C9.82372 19.3344 8.62631 18.839 7.60847 18.0707C7.86062 18.1927 8.15779 18.1765 8.39521 18.0279C8.63262 17.8792 8.77693 17.6189 8.77726 17.3388C8.77726 17.3241 8.77475 17.3109 8.77238 17.2983C8.77024 17.287 8.76821 17.2763 8.76821 17.2656ZM14.9829 16.1504C14.9829 14.5583 13.6922 13.2676 12.1001 13.2676C10.5081 13.2676 9.21741 14.5583 9.21741 16.1504C9.22073 17.7403 10.5099 19.0277 12.0998 19.029C13.6893 19.0261 14.9776 17.7391 14.9821 16.1496L14.9829 16.1504ZM16.594 18.071L16.5962 18.0699H16.5954L16.594 18.071ZM16.594 18.071C16.3421 18.1928 16.0451 18.1768 15.8077 18.0284C15.5701 17.8798 15.4262 17.619 15.4274 17.3388C15.4281 17.3142 15.4311 17.2897 15.4364 17.2656C15.0709 18.3442 14.2071 19.18 13.1169 19.5096C14.3792 19.3324 15.5756 18.8373 16.594 18.071ZM16.6375 17.338C16.6375 17.1206 16.4613 16.9443 16.2439 16.9442C16.0265 16.944 15.8501 17.1201 15.8498 17.3375C15.8495 17.555 16.0255 17.7315 16.2429 17.7319C16.4595 17.7303 16.6347 17.5553 16.6368 17.3388L16.6375 17.338ZM18.2992 16.2754C18.2996 16.275 18.3001 16.2746 18.3005 16.2741V16.2734C18.3001 16.2741 18.2996 16.2747 18.2992 16.2754ZM18.2992 16.2754C17.8699 16.6734 17.2655 16.8213 16.7009 16.6665C16.9242 16.8174 17.0586 17.0694 17.0586 17.3381C17.0586 17.535 16.9854 17.7085 16.8707 17.8504C17.4188 17.3954 17.8997 16.8652 18.2992 16.2754Z" fill="white"/>
</svg>
