<svg width="24" height="24" viewBox="0 0 24 24" fill="none" xmlns="http://www.w3.org/2000/svg">
<path fill-rule="evenodd" clip-rule="evenodd" d="M12 24C18.6 24 24 18.6 24 12C24 5.4 18.6 0 12 0C5.4 0 0 5.4 0 12C0 18.6 5.4 24 12 24Z" fill="url(#paint0_linear_300_17335)"/>
<path fill-rule="evenodd" clip-rule="evenodd" d="M17.7402 15.3L19.1403 16.1C19.4403 16.3 19.4403 16.6 19.0403 16.9C18.9403 17.2 18.6402 17.2 18.3402 17.1L16.9401 16.3L17.2401 17.4C17.3402 17.8 17.0401 18.1 16.7401 18.1C16.5401 18.1 16.3401 17.9 16.2401 17.7L15.9401 16.4C15.8401 15.9 15.44 15.4 14.94 15.1C14.44 14.8 13.8399 14.8 13.3399 15.1L13.2399 15.2C12.7399 15.5 12.4398 16 12.4398 16.6C12.4398 17.2 12.7399 17.8 13.1399 18.2L14.0399 19.1C14.34 19.4 14.1399 20 13.6399 20C13.4399 20 13.3399 19.9 13.2399 19.8L12.4398 19V20.7C12.4398 21 12.2398 21.2 11.9398 21.2C11.6398 21.2 11.4398 21 11.4398 20.7V19L10.6397 19.8C10.4397 20 10.1397 20 9.93967 19.8C9.73966 19.5 9.73966 19.2 9.93967 19L10.7397 18.2C11.2398 17.8 11.4398 17.2 11.4398 16.6C11.4398 16 11.1398 15.5 10.6397 15.2L10.5397 15.1C10.0397 14.8 9.43964 14.8 8.93961 15.1C8.43958 15.4 8.03955 15.8 7.93954 16.4L7.63953 17.7C7.63953 18 7.33951 18.2 7.03949 18.1C6.73947 18 6.53945 17.7 6.63946 17.4L6.93948 16.3C5.56732 17.0718 5.44539 17.1817 5.31236 17.1974C5.29027 17.2 5.26786 17.2 5.23937 17.2C4.63933 17.2 4.43932 16.5 4.93935 16.2L6.33944 15.4L5.23937 15.1C4.93935 15 4.73934 14.7 4.83934 14.4C4.83934 14.1 5.13936 13.9 5.43938 14L6.63946 14.2C7.2395 14.4 7.83954 14.3 8.33957 14C8.8396 13.7 9.13962 13.2 9.13962 12.6V12.4C9.13962 11.8 8.8396 11.3 8.33957 11C7.83954 10.7 7.2395 10.6 6.63946 10.8C5.40142 11.1537 5.33632 11.1946 5.26869 11.1994C5.25984 11.2 5.25094 11.2 5.23937 11.2C5.03936 11.2 4.83934 11 4.73934 10.8C4.63933 10.5 4.83934 10.2 5.13936 10.1L6.23943 9.8L4.83934 9C4.63933 8.9 4.53932 8.5 4.63933 8.3C4.83934 8 5.13936 7.9 5.43938 8.1L6.83947 8.9L6.53945 7.8C6.43945 7.5 6.63946 7.2 6.83947 7.1C7.13949 7 7.43951 7.2 7.53952 7.5L8.03955 8.8C8.13956 9.3 8.53958 9.8 9.03962 10.1C9.53965 10.4 10.1397 10.4 10.6397 10.1L10.7397 10C11.2398 9.7 11.5398 9.2 11.5398 8.6C11.5398 8 11.2398 7.4 10.8397 7L10.3397 6.2C10.1397 5.9 10.1397 5.6 10.3397 5.4C10.5397 5.2 10.8397 5.2 11.0397 5.4L11.8398 6.2V4.5C11.8398 4.2 12.0398 4 12.3398 4C12.6399 4 12.8399 4.2 12.8399 4.5V6.1L13.6399 5.3C13.8399 5.1 14.1399 5.1 14.34 5.3C14.54 5.6 14.54 5.9 14.34 6.1L13.4399 7C12.9399 7.4 12.7399 8 12.7399 8.6C12.7399 9.2 13.0399 9.7 13.5399 10L13.6399 10.1C14.1399 10.4 14.74 10.4 15.24 10.1C15.7401 9.8 16.1401 9.4 16.2401 8.8L16.5401 7.5C16.5401 7.2 16.8401 7 17.1401 7.1C17.4402 7.2 17.6402 7.5 17.5402 7.8L17.2401 8.9L18.6402 8.1C18.8403 8 19.2403 8 19.3403 8.3C19.4403 8.5 19.4403 8.9 19.1403 9L17.8402 9.8L18.9403 10.1C19.2403 10.2 19.4403 10.5 19.3403 10.8C19.2403 11 19.0403 11.2 18.8403 11.2C18.8287 11.2 18.8198 11.2 18.8109 11.1994C18.7433 11.1946 18.6782 11.1537 17.4402 10.8C16.8401 10.6 16.2401 10.7 15.7401 11C15.24 11.3 14.94 11.8 14.94 12.4V12.6C14.94 13.2 15.24 13.7 15.7401 14C16.2401 14.3 16.8401 14.4 17.4402 14.2L18.6402 13.9C18.8403 13.8 19.1403 14 19.2403 14.3C19.3403 14.6 19.1403 14.9 18.8403 15L17.7402 15.3ZM12.8398 14.1C13.4398 13.8 13.7398 13.2 13.7398 12.6C13.7398 11.9 13.4398 11.3 12.8398 11.1C12.2397 10.8 11.6397 10.8 11.0397 11.1C10.4396 11.4 10.1396 12 10.1396 12.6C10.1396 13.2 10.5396 13.8 11.0397 14.1C11.6397 14.4 12.2397 14.4 12.8398 14.1Z" fill="white"/>
<defs>
<linearGradient id="paint0_linear_300_17335" x1="23.4507" y1="-2.34695" x2="-2.5108" y2="0.417051" gradientUnits="userSpaceOnUse">
<stop stop-color="#1ADBC5"/>
<stop offset="1" stop-color="#04D3DD"/>
</linearGradient>
</defs>
</svg>
