<svg width="24" height="24" viewBox="0 0 24 24" fill="none" xmlns="http://www.w3.org/2000/svg">
<circle cx="12" cy="12" r="12" fill="url(#paint0_linear_300_8712)"/>
<path fill-rule="evenodd" clip-rule="evenodd" d="M16.1908 6.49945C15.3275 6.49945 14.5866 6.84675 13.968 7.53804L10.3661 11.9405L8.04743 14.7718C7.9482 14.8875 7.80267 14.957 7.65052 14.957H4.44545C4.42229 14.9537 4.39914 14.9636 4.3826 14.9835C4.36937 15 4.36276 15.0198 4.36276 15.043V17.2029C4.35945 17.226 4.36606 17.2525 4.3826 17.2723C4.39583 17.2889 4.42229 17.3021 4.44545 17.2988H7.82582C8.68911 17.2988 9.43001 16.9482 10.0485 16.2503L12.0133 13.8523L13.978 16.2503C14.5932 16.9482 15.3275 17.2988 16.1908 17.2988H19.5645C19.5877 17.3021 19.6108 17.2922 19.6274 17.2723C19.6406 17.2558 19.6472 17.2359 19.6472 17.2128V15.0529C19.6505 15.0298 19.6406 15.0033 19.6274 14.9835C19.6141 14.9669 19.5877 14.9537 19.5645 14.957H16.3594C16.2139 14.9603 16.0717 14.8942 15.9758 14.785L13.6042 11.8909L15.9658 9.01654C16.0651 8.89747 16.2106 8.82801 16.3628 8.83131H19.5678C19.591 8.83462 19.6141 8.8247 19.6307 8.80485C19.6439 8.78832 19.6505 8.76847 19.6505 8.74532V6.58545C19.6538 6.55899 19.6472 6.53583 19.6307 6.5193C19.6141 6.50607 19.591 6.49614 19.5678 6.49945H16.1908ZM7.6506 8.83135C7.80606 8.83135 7.95159 8.8975 8.04751 9.01658L9.26471 10.5083L10.8689 8.55351L10.0453 7.548C9.42348 6.8501 8.68588 6.49949 7.83252 6.49949H4.44553C4.41907 6.49618 4.39592 6.5061 4.37607 6.52595C4.35953 6.54249 4.34961 6.56233 4.34961 6.58549V8.74535C4.34961 8.76851 4.35953 8.78835 4.37607 8.80489C4.39592 8.82143 4.41907 8.83135 4.44553 8.83135H7.6506Z" fill="#00D1FF"/>
<defs>
<linearGradient id="paint0_linear_300_8712" x1="8.82635" y1="-6.94598e-05" x2="8.82635" y2="6.35054" gradientUnits="userSpaceOnUse">
<stop stop-color="#090220"/>
<stop offset="1" stop-color="#170659"/>
</linearGradient>
</defs>
</svg>
