<svg width="24" height="24" viewBox="0 0 24 24" fill="none" xmlns="http://www.w3.org/2000/svg">
<circle cx="12" cy="12" r="12" fill="#199248"/>
<path fill-rule="evenodd" clip-rule="evenodd" d="M3 12C3 7.02975 7.02975 3 12 3C16.9706 3 21 7.02944 21 12C21 16.9703 16.9703 21 12 21C7.02975 21 3 16.9703 3 12ZM6.23046 17.4512C8.23292 19.5739 11.2377 20.4284 14.0575 19.677C18.1655 18.5726 20.6756 14.4295 19.7525 10.277C18.8293 6.12451 14.8003 3.43511 10.6113 4.17525C7.73871 4.68934 5.37898 6.73645 4.46452 9.50768C3.55006 12.2789 4.22801 15.3284 6.23046 17.4512Z" fill="white"/>
<path fill-rule="evenodd" clip-rule="evenodd" d="M14.2127 6.62775C14.1977 6.24 14.1977 5.853 14.1977 5.46525H14.1984L14.1999 5.4705C17.0073 6.41436 18.8992 9.0446 18.9011 12.0064C18.903 14.9682 17.0144 17.6009 14.2082 18.5483C14.1963 18.1684 14.1963 17.7882 14.2082 17.4083C13.6897 17.6024 13.1515 17.7392 12.6032 17.8163C12.6041 18.1632 12.6141 18.5101 12.6332 18.8565C12.2132 18.9165 11.7872 18.9165 11.3672 18.8565C11.3882 18.5085 11.3882 18.1568 11.3882 17.805C10.8403 17.7329 10.3031 17.5947 9.78845 17.3933C9.79595 17.7758 9.7997 18.1583 9.7997 18.5423C6.99232 17.597 5.10156 14.9653 5.10156 12.003C5.10156 9.04075 6.99232 6.40904 9.7997 5.46375C9.80495 5.856 9.8012 6.24675 9.78995 6.63825C10.3085 6.43461 10.8484 6.29019 11.3994 6.20775C11.3874 5.84475 11.3799 5.48175 11.3994 5.12025C11.7924 5.10177 12.1861 5.10653 12.5784 5.1345C12.6425 5.34254 12.6276 5.57098 12.6127 5.79874C12.6037 5.93637 12.5947 6.07376 12.6032 6.20625C13.154 6.28506 13.694 6.42648 14.2127 6.62775ZM11.8501 16.9147C13.0321 16.932 14.3191 16.7377 15.2251 15.9165L15.2243 15.9157C16.3508 14.8927 16.2188 12.8438 14.9536 11.9858C14.2953 11.4702 13.4955 11.3197 12.6943 11.1689C12.1691 11.0701 11.6433 10.9712 11.1563 10.7693C10.5938 10.5698 10.4783 9.7725 10.9283 9.39825C11.7188 8.736 13.3096 9.006 13.4978 10.1423C13.9715 10.0623 14.4448 9.97976 14.9182 9.89719C15.1599 9.85501 15.4017 9.81284 15.6436 9.771C15.2446 8.67975 14.4158 7.69425 13.2533 7.40025C11.9678 7.08825 10.4858 7.185 9.37734 7.96275C7.92759 8.97075 8.03709 11.4473 9.51834 12.381C10.1049 12.7868 10.7931 12.9119 11.4823 13.0372C12.0568 13.1416 12.6318 13.2462 13.1491 13.5135C13.6343 13.7565 13.6231 14.4668 13.2316 14.7915C12.6796 15.264 11.8591 15.2347 11.1968 15.0278C10.7613 14.8845 10.4357 14.5191 10.3433 14.07C10.0311 14.1367 9.71561 14.1865 9.40004 14.2362C8.97801 14.3027 8.55587 14.3692 8.14134 14.4765C8.34309 14.9857 8.56809 15.4987 8.96559 15.8827C9.71484 16.6335 10.8128 16.9147 11.8501 16.9147Z" fill="white"/>
</svg>
