<svg width="24" height="24" viewBox="0 0 24 24" fill="none" xmlns="http://www.w3.org/2000/svg">
<path fill-rule="evenodd" clip-rule="evenodd" d="M12 24C5.4 24 0 18.6001 0 11.9402C0.06 5.34038 5.4 -0.0595036 12.06 0.000495204C18.66 0.060494 24 5.40038 24 12.1202C23.94 18.6601 18.6 24 12 24Z" fill="white"/>
<path fill-rule="evenodd" clip-rule="evenodd" d="M0 12C0 5.37108 5.37372 0 12 0C18.6289 0 24 5.37108 24 12C24 18.6263 18.6263 24 12 24C5.37372 24 0 18.6263 0 12ZM11.8016 18.3404C13.3132 18.3406 14.5581 17.9675 15.5361 17.2211L15.5368 17.2207C16.5179 16.4759 17.0805 15.4875 17.2245 14.2555H14.646C14.5156 14.8074 14.2104 15.2814 13.7304 15.6778C13.2467 16.0763 12.6136 16.2742 11.8251 16.2742C11.0531 16.2742 10.4907 16.1098 10.1374 15.7878C9.78484 15.4626 9.60856 15.0893 9.60856 14.6678C9.60856 14.052 9.85192 13.6336 10.3439 13.416C10.8326 13.1969 11.5109 12.9982 12.3788 12.82C13.0624 12.6729 13.735 12.4782 14.3915 12.2374C15.058 11.9944 15.6131 11.6495 16.0569 11.2026C16.4978 10.7582 16.7182 10.1542 16.7182 9.3906C16.7182 8.33928 16.3164 7.45668 15.5141 6.75324C14.7111 6.04844 13.586 5.69604 12.1388 5.69604C10.8045 5.69604 9.72496 6.02004 8.89648 6.66804C8.068 7.31604 7.5844 8.23116 7.43752 9.41604H9.89644C9.9784 8.89632 10.2136 8.49192 10.6089 8.20032C11.0018 7.9084 11.5277 7.76244 12.1864 7.76244C12.8313 7.76244 13.329 7.8966 13.6821 8.1642C14.0351 8.4318 14.2101 8.7744 14.2101 9.19524C14.2101 9.61932 13.9673 9.95028 13.4753 10.1934C12.9864 10.4365 12.3389 10.657 11.536 10.849C10.7334 11.0289 9.98992 11.2362 9.30568 11.4709C8.62328 11.7052 8.07296 12.0492 7.65472 12.5029C7.23648 12.9567 7.02736 13.6219 7.02736 14.4986C7.01104 15.6014 7.43316 16.5174 8.29372 17.2466C9.15428 17.9758 10.3236 18.3404 11.8016 18.3404Z" fill="#D81D3C"/>
</svg>
