<svg width="24" height="24" viewBox="0 0 24 24" fill="none" xmlns="http://www.w3.org/2000/svg">
<circle cx="12" cy="12" r="12" fill="#FF3B81"/>
<path fill-rule="evenodd" clip-rule="evenodd" d="M6.37894 16.7337V16.84H5.27785V14.8277L5.24356 14.9393L4.19167 14.6179L4.78583 12.6787L4.71277 12.7874L3.80029 12.1739L4.94089 10.4883L4.83205 10.5758L4.13874 9.72317L5.77956 8.39819L5.57083 8.47892L5.17572 7.45425L7.13561 6.70423L6.906 6.71932L6.82996 5.62523L8.88154 5.48187L8.69592 5.43962L8.94342 4.37042L10.9041 4.82164L10.7803 4.75072L11.3297 3.79999L13.0391 4.78392L12.972 4.71299L13.7772 3.96448L15.1086 5.38755L15.0803 5.33021L16.0695 4.84881L16.9239 6.59482L16.9164 6.54578L18.0026 6.37374L18.3232 8.39064L18.3455 8.24728L19.4332 8.41856L19.1082 10.4649L19.1879 10.3004L20.1772 10.7818L19.2617 12.6538L19.3959 12.5105L20.2003 13.2597L18.7772 14.7809L18.9494 14.682L19.4995 15.6328L17.7111 16.662L17.8908 16.6205L18.139 17.6897L16.162 18.1447L16.3148 18.1552L16.238 19.2501L14.2595 19.112L14.3601 19.1505L13.965 20.1751L12.0715 19.4508L12.1915 19.5474L11.499 20.4L9.93566 19.1376L10.0132 19.2516L9.10072 19.8658L7.98248 18.2133L8.01603 18.322L6.9634 18.6434L6.37894 16.7337ZM6.37871 15.4298L7.06605 15.22L7.59982 16.963L8.19472 16.5631L9.21008 18.0647L9.66408 17.5063L11.0716 18.6427L11.3235 17.9885L13.0203 18.6374L13.0695 17.9289L14.8855 18.0556L14.7215 17.3501L16.5017 16.9404L16.1327 16.3036L17.7213 15.3891L17.1771 14.8835L18.4318 13.5419L17.7623 13.216L18.5697 11.5665L17.8376 11.4503L18.1254 9.63942L17.4246 9.74959L17.1376 7.93868L16.5069 8.24502L15.7055 6.60766L15.1911 7.08529L13.9521 5.75955L13.5973 6.37224L12.028 5.46905L11.8655 6.16927L10.1002 5.76257L10.1516 6.49372L8.33935 6.61973L8.60698 7.31618L6.89981 7.96961L7.35977 8.53477L5.92694 9.69149L6.53154 10.0982L5.49978 11.6246L6.19532 11.8374L5.65633 13.5963H6.37946L6.37871 15.4298ZM11.494 12.7368C11.6871 12.884 11.784 13.096 11.784 13.3737C11.7931 13.6096 11.684 13.8343 11.494 13.9713C11.3009 14.1124 11.0318 14.1825 10.6874 14.1825C9.76075 14.1825 9.29706 13.7887 9.29706 13.0017H7.84336C7.84336 13.462 7.95965 13.8671 8.1915 14.2165C8.42633 14.5659 8.76627 14.842 9.20984 15.045C9.67608 15.2488 10.1796 15.3506 10.6874 15.3438C11.4664 15.3438 12.0859 15.1687 12.5466 14.8194C13.0066 14.4663 13.237 13.9818 13.237 13.3639C13.237 12.8093 13.0491 12.3452 12.6719 11.9725C12.2954 11.6005 11.6953 11.2881 10.8708 11.0368C10.4235 10.8995 10.0835 10.7524 9.85245 10.5962C9.62358 10.4392 9.50952 10.2446 9.50952 10.0129C9.50376 9.77664 9.61404 9.55281 9.80399 9.41532C10.0001 9.2614 10.2759 9.18519 10.63 9.18519C10.9968 9.18519 11.2815 9.27649 11.4843 9.45909C11.6871 9.63867 11.7885 9.8922 11.7885 10.2189H13.237C13.2432 9.81203 13.129 9.41257 12.9089 9.07201C12.6928 8.73548 12.3886 8.47592 11.9957 8.29332C11.6036 8.10694 11.1563 8.01413 10.6538 8.01413C10.1551 8.01413 9.70409 8.09864 9.30153 8.26842C8.90269 8.43819 8.59555 8.67512 8.37936 8.9792C8.1669 9.27951 8.06104 9.62282 8.06104 10.0084C8.06104 10.7501 8.46062 11.3387 9.25829 11.7763C9.55127 11.937 9.94862 12.1008 10.4511 12.2668C10.9535 12.4297 11.3002 12.5867 11.494 12.7368ZM16.2045 8.99881L14.8082 14.169L13.6579 14.0875L14.5279 8.75735L16.2045 8.99881ZM14.6233 16.5344L14.9863 14.7077L13.4446 14.3304L13.0935 16.0825L14.6233 16.5344Z" fill="white"/>
</svg>
