<svg width="24" height="24" viewBox="0 0 24 24" fill="none" xmlns="http://www.w3.org/2000/svg">
<circle cx="12" cy="12" r="12" fill="#00B098"/>
<path fill-rule="evenodd" clip-rule="evenodd" d="M4.6001 8.20001V8.46539H10.9128V8.20001H4.6001ZM4.6001 8.97156V9.23694H10.9128V8.97156H4.6001ZM7.26233 16.397V9.7677H7.51583V16.397H7.26233ZM7.99731 9.7677V16.397H8.25006V9.7677H7.99731ZM19.4216 15.8544L16.5731 12.8628L16.7516 12.6757L19.6001 15.6665L19.4216 15.8544ZM15.3381 11.1915L12.4896 8.20002L12.3111 8.38788L15.1596 11.3786L15.3381 11.1915ZM18.9022 16.4L16.0537 13.4085L16.2322 13.2207L19.0807 16.2122L18.9022 16.4ZM14.8186 11.7365L11.9701 8.7457L11.7908 8.93356L14.6393 11.9243L14.8186 11.7365ZM16.036 12.3L16.2152 12.1122L19.4215 8.7457L19.6 8.93356L16.3937 12.3L16.2152 12.4879L15.8747 12.8457L15.6955 13.0336L12.49 16.4L12.3115 16.2122L15.5177 12.8457L15.6962 12.6579L16.036 12.3ZM18.9026 8.20002L15.6956 11.5665L15.5179 11.7543L15.1766 12.1122L14.9981 12.3L11.7919 15.6665L11.9711 15.8543L15.1766 12.4879L15.3559 12.3L15.6964 11.9422L15.8749 11.7543L19.0811 8.38788L18.9026 8.20002Z" fill="white"/>
</svg>
