<svg width="24" height="24" viewBox="0 0 24 24" fill="none" xmlns="http://www.w3.org/2000/svg">
<circle cx="12" cy="12" r="12" fill="#EDF0F4"/>
<path fill-rule="evenodd" clip-rule="evenodd" d="M7.67139 12.7802C7.67139 15.2094 9.644 17.182 12.0731 17.182C14.5023 17.182 16.4749 15.2094 16.4749 12.7746C16.4749 10.4131 12.4226 6.24243 12.2478 6.06772L12.0337 5.85355L11.8251 6.07335C11.6561 6.24807 7.67139 10.4187 7.67139 12.7802ZM10.23 8.85756C10.957 7.89943 11.6897 7.08221 12.0391 6.7046C12.3942 7.08221 13.1438 7.90507 13.8821 8.85756C15.1953 10.5596 15.8885 11.9123 15.8885 12.7746C15.8885 14.8768 14.1752 16.5902 12.073 16.5902C9.97071 16.5902 8.25736 14.8768 8.25736 12.7746C8.25736 11.9123 8.93932 10.5596 10.23 8.85756Z" fill="url(#paint0_linear_300_11431)"/>
<path d="M12.0734 18.591C8.86654 18.591 6.2627 15.9815 6.2627 12.7803C6.2627 9.64662 10.6363 5.27306 10.8222 5.09271C10.935 4.97999 11.1266 4.97999 11.2393 5.09271C11.352 5.20543 11.352 5.39706 11.2393 5.50978C11.1942 5.55486 6.85448 9.89461 6.85448 12.7803C6.85448 15.6603 9.19907 18.0049 12.0791 18.0049C14.9591 18.0049 17.3037 15.6603 17.3037 12.7803C17.3037 11.5967 16.5372 9.96224 15.0831 8.04035C13.9671 6.56935 12.8456 5.45342 12.8343 5.44214C12.716 5.32942 12.716 5.14343 12.8343 5.02508C12.947 4.90672 13.133 4.90672 13.2514 5.02508C13.443 5.21107 17.8955 9.64099 17.8955 12.7803C17.8842 15.9815 15.2803 18.591 12.0734 18.591Z" fill="url(#paint1_linear_300_11431)"/>
<path d="M12.0732 20C8.17309 20 5 16.8269 5 12.9268C5 11.3149 5.81159 9.33099 7.40659 7.03713C8.58452 5.34632 9.7399 4.14021 9.79063 4.08948C9.90335 3.97113 10.0893 3.97113 10.2077 4.08385C10.326 4.19657 10.326 4.38256 10.2133 4.50092C10.2021 4.51219 9.0354 5.72957 7.88565 7.38093C6.38083 9.53953 5.58615 11.4558 5.58615 12.9268C5.58615 16.5 8.49434 19.4139 12.0732 19.4139C15.6521 19.4139 18.5603 16.5057 18.5603 12.9268C18.5603 11.4558 17.76 9.53953 16.2439 7.38093C15.0829 5.72957 13.9049 4.51219 13.8937 4.50092C13.7809 4.38256 13.7809 4.19657 13.8993 4.08385C14.0177 3.97113 14.2036 3.97113 14.3164 4.08948C14.5136 4.29238 19.1464 9.10555 19.1464 12.9268C19.1464 16.8269 15.9734 20 12.0732 20Z" fill="url(#paint2_linear_300_11431)"/>
<defs>
<linearGradient id="paint0_linear_300_11431" x1="16.4749" y1="17.1813" x2="16.4749" y2="5.85285" gradientUnits="userSpaceOnUse">
<stop stop-color="#05AAC5"/>
<stop offset="1" stop-color="#71E0EC"/>
</linearGradient>
<linearGradient id="paint1_linear_300_11431" x1="17.8955" y1="18.5903" x2="17.8955" y2="4.93562" gradientUnits="userSpaceOnUse">
<stop stop-color="#05AAC5"/>
<stop offset="1" stop-color="#71E0EC"/>
</linearGradient>
<linearGradient id="paint2_linear_300_11431" x1="19.1464" y1="19.9993" x2="19.1464" y2="3.99931" gradientUnits="userSpaceOnUse">
<stop stop-color="#05AAC5"/>
<stop offset="1" stop-color="#71E0EC"/>
</linearGradient>
</defs>
</svg>
