<svg width="24" height="24" viewBox="0 0 24 24" fill="none" xmlns="http://www.w3.org/2000/svg">
<circle cx="12" cy="12" r="12" fill="#1C1C1C"/>
<path fill-rule="evenodd" clip-rule="evenodd" d="M13.9319 8.43067C14.1067 8.29643 14.1559 7.99109 14.1996 7.71921L14.2055 7.68292C14.2055 7.63567 14.2055 7.40167 14.4336 7.40167C14.5483 7.37829 14.7207 7.60317 14.9102 7.85038C15.0975 8.09475 15.3016 8.36095 15.4832 8.43067C15.6196 9.03892 15.5279 9.64716 15.0725 9.69441C14.4336 9.78741 14.1145 8.94592 13.9319 8.43067ZM9.8722 7.6829C9.8722 7.9634 9.91842 8.2904 10.1458 8.43065C9.96389 8.9924 9.59861 9.74089 9.00522 9.69439C8.59522 9.64714 8.50427 8.9459 8.59522 8.43065C8.80607 8.35852 9.00509 8.08845 9.18589 7.84309C9.35667 7.61134 9.5112 7.40165 9.64409 7.40165C9.8722 7.40165 9.8722 7.63565 9.8722 7.6829ZM7.72772 8.43065C7.5913 8.2904 7.63677 8.0099 7.72772 7.7294C7.72772 7.7294 7.81941 7.4954 7.68299 7.4489C7.55541 7.4489 7.30064 7.7251 7.05275 7.99385C6.85596 8.20719 6.6635 8.41584 6.54243 8.4779C6.49621 8.5709 6.13168 9.64715 6.58716 9.7409C6.99791 9.78815 7.45413 8.9924 7.72772 8.43065ZM5.39804 8.24801L5.39804 8.24801C5.31018 8.34524 5.2448 8.4176 5.2192 8.43069C4.76298 9.13269 4.76298 9.74018 4.94562 9.74018C5.1482 9.74018 5.67416 8.81859 5.88542 8.44841L5.88542 8.44841L5.88543 8.44839C5.91204 8.40175 5.93366 8.36387 5.94901 8.33769C5.92677 8.22322 6.03546 8.05276 6.13092 7.90304C6.23062 7.74668 6.31589 7.61294 6.2226 7.58919C5.99332 7.58919 5.62239 7.99971 5.39804 8.24801ZM7.59131 10.8637C7.95584 10.8637 8.23017 10.4429 8.50301 9.69443H8.50375C8.36659 9.50693 8.18395 9.17918 8.27564 8.47793H7.95584L7.95404 8.48162C7.72629 8.94887 7.45393 9.50767 7.08961 9.78743C7.08961 9.88118 7.13508 10.8637 7.59131 10.8637ZM8.09316 10.9574C8.2758 10.8637 8.64033 10.3492 8.82297 9.88117C9.00561 9.97492 9.18824 9.97492 9.41561 9.92767C9.5073 10.4429 9.64372 10.7699 9.96353 10.9574C9.82636 11.7989 9.55278 12.6412 8.96013 12.6412C8.41222 12.6412 8.13863 11.5184 8.09316 10.9574ZM5.76659 10.9574C6.07321 10.8397 6.28318 10.2601 6.3696 10.0215C6.38614 9.97587 6.39815 9.94271 6.40545 9.92765C6.50938 10.0214 6.6668 10.0214 6.77073 9.92765C6.77073 10.5359 6.95262 10.8171 7.08979 10.9101C6.95262 11.7051 6.76999 12.6411 6.35924 12.6411C5.9947 12.6411 5.81207 11.7989 5.76659 10.9574ZM11.788 9.97492L11.7886 9.9752C11.606 10.6762 11.1953 10.9574 11.0582 11.0512C11.0582 11.2844 11.378 12.6412 12.0161 12.6412C12.4723 12.6412 12.8831 12.2204 13.0195 11.0504C12.7921 10.8637 12.564 10.4429 12.4268 9.97492C12.2444 10.0214 12.0165 10.0686 11.7886 9.9752L11.7887 9.97492H11.788ZM11.1033 14.0917C11.3776 13.8577 11.5595 13.4834 11.7876 12.8752C11.9703 12.9689 12.2439 12.9217 12.4265 12.8752C12.5637 13.5299 12.7001 13.9514 13.0191 14.1382C12.9282 14.8867 12.472 15.4012 12.0612 15.4012C11.4686 15.4012 11.195 14.4659 11.1033 14.0917ZM7.54591 14.2319C7.63686 14.9339 7.63686 15.3074 7.45422 15.5414H7.45496C7.68233 15.9157 8.13855 16.5239 8.64025 16.2899C8.77741 16.2434 8.82289 15.8692 8.77741 15.5414C8.41214 15.3074 8.18403 14.8867 7.91119 14.2319C7.81949 14.2784 7.68233 14.2784 7.54591 14.2319ZM5.5384 14.2784C5.63009 14.2784 5.67557 14.2784 5.76651 14.3257C6.08632 15.1672 6.63349 15.6352 6.63349 15.6352C6.81612 16.0094 6.90707 16.3837 6.7699 16.3837C6.3599 16.4302 6.0401 16.1497 5.72104 15.5414C5.75381 15.4403 5.73935 15.3634 5.66036 14.9432C5.62974 14.7804 5.58942 14.5659 5.5384 14.2784ZM5.58438 16.0559C5.62985 16.1497 4.76288 16.2434 4.30666 14.2784C4.30666 14.2267 4.35019 14.315 4.42571 14.4682C4.55491 14.7303 4.77773 15.1824 5.03647 15.4484C5.2191 15.5887 5.40174 15.7289 5.58438 16.0559ZM9.87206 15.5414C10.1919 15.3074 10.2373 14.7929 10.2828 14.1389C10.4654 14.1846 10.6928 14.1846 10.83 14.1389C10.9217 14.5589 11.0581 15.1672 11.4688 15.4484C11.4234 15.9629 11.2862 16.2434 10.9671 16.2899C10.739 16.3837 10.1002 16.3837 9.87206 15.5414ZM5.94934 14.0914L5.94915 14.0917V14.0909L5.94934 14.0914ZM7.08971 15.4484C6.67985 15.4484 6.13217 14.5595 5.94934 14.0914C6.13182 13.8574 6.17727 13.4832 6.22273 12.9689C6.3599 13.0154 6.54254 13.0154 6.63274 12.9689C6.7699 13.5764 6.99801 13.9514 7.27235 14.1389C7.36329 15.1207 7.27235 15.4484 7.08971 15.4484ZM4.53485 14.0917C4.53485 13.9979 4.58033 13.3897 4.62654 12.9689H4.80844C5.03655 13.8577 5.35635 14.1389 5.35635 14.1389C5.58446 15.2144 5.58446 15.4949 5.40108 15.4012C4.99108 15.2609 4.67202 14.4659 4.53485 14.0917ZM8.64016 12.9689C8.54921 13.5772 8.41204 13.9042 8.18393 14.0917C8.23015 14.2784 8.68563 15.2144 9.23354 15.3539C9.87166 15.4949 9.91788 14.6527 9.91788 14.1389C9.59882 13.9514 9.36996 13.5764 9.23354 12.9689C9.09638 13.0154 8.86827 13.0619 8.64016 12.9689ZM7.77403 13.9514C7.22611 13.9514 6.90705 13.0619 6.90705 12.7814C7.18064 12.5009 7.31706 11.9864 7.45422 11.0977C7.54592 11.1442 7.68234 11.1442 7.8195 11.0977C7.86497 12.0802 8.13856 12.5009 8.36667 12.7349C8.27573 13.5299 8.04761 13.9514 7.77403 13.9514ZM5.21329 11.615C5.03486 12.5627 5.02418 12.6194 4.9456 12.7814C5.17371 13.7174 5.40182 13.9514 5.58372 13.9514C5.9067 13.9514 5.91948 13.5174 5.9323 13.0817V13.0817C5.93579 12.9633 5.93928 12.8449 5.94899 12.7349C5.81183 12.5474 5.53824 12.0802 5.53824 11.0977H5.31088C5.2737 11.2942 5.24155 11.4649 5.21354 11.6136L5.21334 11.6147L5.21329 11.615ZM4.03347 11.1442C4.09882 11.1667 4.11222 11.4544 4.12809 11.7951C4.14553 12.1696 4.16595 12.608 4.26158 12.8287C4.26158 12.8287 4.26158 13.9979 4.17063 13.9042C3.4863 13.0619 3.94252 11.0977 4.03347 11.1442ZM10.2827 11.0977C10.0092 12.0329 9.82651 12.5474 9.50746 12.7814L9.51702 12.8122C9.58427 13.0314 9.86649 13.9514 10.5563 13.9514C11.0125 13.9514 11.3778 13.4362 11.4688 12.6877C11.1035 12.3142 10.9216 11.7989 10.8299 11.0977C10.6927 11.1442 10.4654 11.1442 10.2827 11.0977ZM4.30717 10.9574C4.21622 11.4719 4.30717 12.6876 4.62622 12.6876H4.62697C4.85508 12.6876 5.08245 10.9574 5.08245 10.9574C4.9915 10.8171 4.90055 10.5359 4.94603 9.92765C4.9143 9.96061 4.86008 9.94758 4.81476 9.93669C4.79511 9.93197 4.77714 9.92765 4.76339 9.92765C4.58075 10.5359 4.30717 10.9574 4.30717 10.9574ZM6.26844 8.52441C6.04032 9.17916 6.13202 9.50691 6.22371 9.7409C5.85843 10.6762 5.67579 10.9109 5.40221 10.9109C5.12862 10.8637 5.12862 10.3019 5.21957 9.83465C5.49315 9.64715 6.08654 8.57166 6.08654 8.52441H6.26844ZM4.86538 8.82985C4.94652 8.66622 5.00335 8.55163 4.94552 8.57166C4.26119 9.03891 3.89666 10.7234 4.07855 10.7699C4.12402 10.8172 4.67119 10.0214 4.62646 9.55416C4.59984 9.36533 4.75508 9.05228 4.86538 8.82986L4.86538 8.82985ZM11.4231 9.69443C11.286 10.2089 11.1033 10.8637 10.328 10.8637C9.91803 10.8172 9.68992 10.2562 9.59823 9.78743C10.0545 9.46043 10.2826 8.89868 10.4197 8.47793C10.5561 8.52443 10.785 8.52443 10.9214 8.47793C11.0124 9.17918 11.2405 9.50693 11.4231 9.69443ZM16.4411 14.2319C16.3948 14.9332 16.3948 15.3074 16.532 15.5414C16.3494 15.9164 15.8477 16.4774 15.3467 16.2899C15.1633 16.2434 15.1633 15.8692 15.2088 15.5414C15.6196 15.3074 15.8932 14.8402 16.0758 14.2319C16.1667 14.2784 16.3039 14.2784 16.4411 14.2319ZM18.4929 14.1847C18.4019 14.2784 18.3102 14.2784 18.2648 14.2319C17.9457 15.0742 17.3985 15.5414 17.3985 15.5414C17.1704 15.9629 17.0787 16.2899 17.2614 16.2899C17.6721 16.2899 17.9912 16.0559 18.3102 15.4484C18.2775 15.3469 18.2919 15.2703 18.3707 14.851C18.4013 14.6879 18.4417 14.473 18.4929 14.1847ZM18.8585 15.5767L18.8585 15.5767C18.7238 15.697 18.596 15.8111 18.4933 16.0559C18.4478 16.1497 19.3148 16.2434 19.7703 14.2784C19.7269 14.2115 19.6419 14.3786 19.5203 14.6174L19.5203 14.6174L19.5203 14.6175C19.3869 14.8795 19.2095 15.2279 18.995 15.4484H18.9958C18.9497 15.4953 18.9038 15.5363 18.8586 15.5766L18.8586 15.5766L18.8586 15.5766L18.8586 15.5766L18.8586 15.5767L18.8586 15.5767L18.8586 15.5767L18.8586 15.5767L18.8586 15.5767L18.8585 15.5767L18.8585 15.5767L18.8585 15.5767L18.8585 15.5767L18.8585 15.5767L18.8585 15.5767L18.8585 15.5767L18.8585 15.5767ZM14.1598 15.6352C13.8862 15.3074 13.749 14.7929 13.749 14.2319C13.5671 14.2784 13.3845 14.2784 13.2018 14.2319C13.1109 14.6527 12.9283 15.2144 12.5637 15.5414C12.6547 16.0094 12.7456 16.2899 13.0654 16.3837C13.2935 16.4302 13.9317 16.4302 14.1598 15.6352ZM17.854 12.9217C17.854 13.4834 17.9002 13.8577 18.1283 14.0444C17.9457 14.5124 17.353 15.4019 16.9878 15.4019C16.8051 15.4019 16.7142 15.0742 16.8051 14.0917C17.0787 13.9042 17.3068 13.4362 17.444 12.9217C17.5713 12.9935 17.7267 12.9935 17.854 12.9217ZM19.5881 14.1382C19.4964 13.9979 19.4964 13.3904 19.4964 13.0154H19.3145C19.0864 13.8577 18.7666 14.1847 18.7666 14.1847C18.5385 15.2144 18.4931 15.4949 18.7212 15.4484C19.034 15.3283 19.313 14.7278 19.5013 14.3224L19.5014 14.3224L19.5014 14.3223C19.5329 14.2544 19.5619 14.192 19.5881 14.1382ZM15.4364 12.9217C15.5281 13.5772 15.619 13.9042 15.8926 14.0444C15.8479 14.2784 15.3454 15.2144 14.8437 15.3074C14.2049 15.4484 14.1594 14.5589 14.1594 14.0917C14.4785 13.9042 14.7066 13.4834 14.8437 12.9217C14.9809 12.9689 15.209 13.0154 15.4364 12.9217ZM16.3039 13.9514C16.7602 13.9514 17.1247 13.0619 17.1709 12.7814C16.9428 12.5009 16.8056 11.9399 16.6237 11.0977C16.5064 11.1445 16.3758 11.1445 16.2585 11.0977C16.213 12.0802 15.9394 12.5474 15.7113 12.7349C15.8022 13.4834 16.0304 13.9514 16.3039 13.9514ZM18.767 11.0977C18.9853 12.4852 19.0363 12.588 19.1207 12.758L19.1323 12.7814C18.9042 13.6702 18.676 13.9514 18.4934 13.9514C18.1727 13.9514 18.1585 13.4933 18.1454 13.0698V13.0698V13.0698V13.0698V13.0698C18.1418 12.952 18.1382 12.8368 18.1281 12.7349C18.3108 12.5474 18.5389 12.0802 18.5389 11.0977C18.5981 11.1277 18.6381 11.1189 18.6835 11.109C18.7083 11.1035 18.7348 11.0977 18.767 11.0977ZM19.8999 11.6026V11.6027C19.8845 12.0115 19.8641 12.5531 19.7249 12.7814C19.7249 12.7814 19.7249 13.9514 19.8166 13.8576C20.5002 13.1091 20.0902 11.0504 19.9531 11.0976C19.9176 11.1342 19.9098 11.3413 19.8999 11.6026ZM13.8862 11.0977C14.0233 12.0329 14.2515 12.5474 14.6615 12.7814C14.616 12.9217 14.2515 13.9514 13.6126 13.9514C13.1109 13.9979 12.8373 13.3897 12.7002 12.6877C13.0192 12.3142 13.2473 11.7989 13.339 11.0977C13.43 11.1442 13.6581 11.1442 13.8862 11.0977ZM18.2652 11.0504C17.9462 10.8171 17.6726 10.0214 17.6726 9.92765H17.6718C17.5517 10.0116 17.3977 10.0293 17.2618 9.9749C17.2618 10.5359 17.0792 10.8636 16.942 11.0039C17.0792 11.8461 17.2618 12.7349 17.6726 12.7349C18.0371 12.7349 18.2652 11.8454 18.2652 11.0504ZM19.7243 10.9574C19.7698 11.4719 19.6788 12.6876 19.4507 12.6411C19.2226 12.6411 18.9945 10.9101 18.9945 10.9101C19.0862 10.7699 19.1771 10.4429 19.1317 9.92765C19.1836 9.9747 19.2624 9.9747 19.3143 9.92765C19.4962 10.5359 19.7243 10.9574 19.7243 10.9574ZM16.0298 11.0039C15.7562 10.8636 15.4364 10.3491 15.2545 9.92765C15.0711 10.0214 14.8437 10.0214 14.6611 9.9749C14.6156 10.4429 14.433 10.8164 14.1594 11.0039C14.2966 11.8926 14.4785 12.7349 15.1628 12.6876C15.6645 12.6876 15.9843 11.5656 16.0298 11.0039ZM16.3955 10.8172C16.0757 10.8637 15.8022 10.4422 15.4831 9.69443C15.665 9.50693 15.8022 9.13268 15.7112 8.47793C15.8476 8.52443 15.9393 8.52443 16.0303 8.47793C16.3039 8.99243 16.5774 9.50693 16.8965 9.74093C16.8965 9.88118 16.8518 10.8172 16.3948 10.8172H16.3955ZM17.8542 9.69399L17.8541 9.69443V9.69368L17.8542 9.69399ZM18.5839 10.8637C18.3566 10.8637 18.174 10.6297 17.8542 9.69399L17.8572 9.6822C17.9041 9.49273 17.9854 9.16417 17.7177 8.47793H17.9004C17.9004 8.52443 18.5385 9.64793 18.7666 9.78743C18.8583 10.3019 18.8583 10.8172 18.5839 10.8637ZM19.0755 8.64201L19.0755 8.64201C19.0458 8.58843 19.0302 8.56034 19.0405 8.57091C19.7711 9.0389 20.0447 10.7234 19.9075 10.7699C19.862 10.8172 19.3603 9.9749 19.4058 9.5534H19.4051C19.4408 9.30073 19.1765 8.82416 19.0755 8.64201ZM12.6094 9.69443C12.7458 10.2089 12.9284 10.8637 13.6128 10.8172H13.612C14.069 10.7699 14.2971 10.3019 14.3426 9.74093C13.978 9.46043 13.7492 8.89868 13.6128 8.47793C13.4763 8.52443 13.2475 8.52443 13.1111 8.47793C13.0656 9.13268 12.8375 9.55343 12.6094 9.69443ZM17.8542 7.58919C18.0564 7.58919 18.6172 8.21399 18.7736 8.3882L18.7736 8.38821C18.7936 8.4105 18.807 8.42541 18.8121 8.43069C19.3146 9.17919 19.3146 9.74094 19.1319 9.74094C18.8993 9.74094 18.4356 8.89539 18.2181 8.49862L18.218 8.49854L18.2178 8.49816C18.1796 8.42842 18.1489 8.37258 18.1285 8.33769C18.1511 8.21967 18.0348 8.03028 17.9374 7.87155C17.8416 7.71557 17.764 7.58919 17.8542 7.58919ZM16.3501 7.7294C16.441 8.01065 16.441 8.2904 16.3501 8.43065H16.3493L16.4029 8.5321C16.6751 9.04887 17.0625 9.78446 17.4899 9.7409C17.9453 9.6479 17.5808 8.57165 17.5353 8.4779C17.4142 8.41579 17.2214 8.20686 17.0243 7.99335C16.7764 7.72476 16.5219 7.4489 16.3948 7.4489C16.2881 7.4489 16.3209 7.59187 16.3403 7.67651C16.3457 7.70015 16.3501 7.71925 16.3501 7.7294ZM12.4953 7.95401C12.3823 7.67733 12.2698 7.40165 12.0157 7.40165C11.7604 7.40165 11.6824 7.6204 11.5949 7.86592C11.5108 8.10215 11.4178 8.36315 11.1494 8.4779C11.1949 8.89865 11.3313 9.74089 11.9702 9.74089C12.7 9.74089 12.8372 8.7119 12.8372 8.4779C12.6753 8.39483 12.5852 8.1741 12.4953 7.95401Z" fill="white"/>
</svg>
