<svg width="24" height="24" viewBox="0 0 24 24" fill="none" xmlns="http://www.w3.org/2000/svg">
<circle cx="12" cy="12" r="12" fill="#F2941B"/>
<path fill-rule="evenodd" clip-rule="evenodd" d="M12.4727 3.79999H12.4644C12.5578 4.55713 12.6151 5.32203 12.6723 6.08406C12.6985 6.43436 12.7247 6.78406 12.7544 7.13211C12.8085 7.46659 12.8369 7.80468 12.8395 8.14347L15.722 11.0078C15.1342 11.8469 14.5391 12.6841 13.9434 13.5221C13.2598 14.4838 12.5756 15.4464 11.901 16.4137C11.9438 16.8965 11.9847 17.3793 12.0257 17.8622C12.1073 18.8243 12.1889 19.7866 12.2851 20.7489L20.9997 8.44079H17.1282C16.6356 7.94951 16.1439 7.45756 15.6521 6.96562C14.595 5.90803 13.5379 4.85051 12.4727 3.79999ZM8.4305 8.52293C6.62611 11.0707 4.82212 13.6179 3.00829 16.1584H3V16.193C3.70517 16.1791 4.41035 16.1803 5.1154 16.1815C5.70638 16.1826 6.29728 16.1836 6.88802 16.1757L11.518 20.8H11.536C11.4411 19.8512 11.361 18.8987 11.2812 17.9497C11.2387 17.4448 11.1964 16.9409 11.1519 16.4392C10.5177 15.8185 9.89142 15.1905 9.26756 14.5651C8.94296 14.2396 8.61903 13.9149 8.295 13.5921C8.84915 12.8063 9.40488 12.0236 9.9608 11.2406C10.6796 10.2282 11.3987 9.21528 12.1152 8.19452L11.7484 3.84278C10.6407 5.40211 9.53554 6.96262 8.4305 8.52293Z" fill="white"/>
</svg>
