<svg width="24" height="24" viewBox="0 0 24 24" fill="none" xmlns="http://www.w3.org/2000/svg">
<circle cx="12" cy="12" r="12" fill="#01AEF0"/>
<path d="M15.7017 14.2674C15.6919 15.8229 14.7935 17.1474 13.3602 17.6912C13.0242 17.8187 12.6747 17.9124 12.3267 17.9994C12.119 18.0519 12.0057 18.1547 11.9892 18.3819C11.9682 18.6684 11.939 18.9542 11.8992 19.2369C11.8512 19.5714 11.7365 19.6479 11.429 19.5744C10.8995 19.4484 10.8425 19.3629 10.913 18.8072C10.919 18.7599 10.9257 18.7127 10.931 18.6647C10.9835 18.2094 10.919 18.1442 10.4833 18.1659C10.2875 18.1757 10.2058 18.2724 10.187 18.4644C10.1615 18.7404 10.1345 19.0172 10.0895 19.2894C10.0445 19.5684 9.92751 19.6374 9.65901 19.5789C9.08601 19.4552 9.04402 19.3914 9.11901 18.7854C9.21351 18.0332 9.21126 18.0414 8.51677 17.8322C8.20927 17.7392 7.91078 17.6102 7.61003 17.4909C7.42703 17.4189 7.36703 17.2824 7.41653 17.0792C7.47953 16.8204 7.52303 16.5557 7.57703 16.2939C7.67003 15.8476 7.88603 15.7127 8.29852 15.8747C9.02902 16.1619 9.77901 16.3389 10.5597 16.3577C11.264 16.3749 11.9607 16.3284 12.6035 15.9827C13.028 15.7539 13.34 15.4186 13.4967 14.9379C13.7292 14.2239 13.5207 13.6464 12.8517 13.3591C12.3005 13.1229 11.7087 12.9916 11.153 12.7651C10.6595 12.5641 10.1465 12.3631 9.72051 12.0474C8.76277 11.3394 8.59552 10.2924 8.80552 9.17414C9.04402 7.91339 9.81576 7.09589 10.961 6.66164C11.2662 6.54689 11.4042 6.38639 11.4095 6.04363C11.414 5.67238 11.4732 5.30113 11.5182 4.93138C11.5527 4.64713 11.6637 4.56763 11.9292 4.61113C12.4932 4.70338 12.5607 4.79263 12.5052 5.37838C12.4835 5.60713 12.4647 5.83588 12.4377 6.06313C12.4152 6.25439 12.476 6.34214 12.6762 6.34814C13.133 6.36164 13.1525 6.35339 13.2065 5.88088C13.241 5.57713 13.2665 5.27263 13.3077 4.96963C13.3527 4.63363 13.4615 4.55713 13.7712 4.62013C14.2925 4.72738 14.3502 4.80688 14.2992 5.34988C14.2767 5.58763 14.2655 5.82763 14.2242 6.06238C14.177 6.33239 14.2595 6.45764 14.528 6.51989C15.0387 6.63839 15.5442 6.78839 16.0459 6.94439C16.4232 7.06139 16.4382 7.10414 16.3654 7.49639C16.3227 7.73114 16.2799 7.96664 16.2244 8.19839C16.1209 8.63489 15.9034 8.76464 15.4879 8.62514C14.777 8.38514 14.063 8.16839 13.3092 8.13614C12.6492 8.10839 11.9982 8.11814 11.4252 8.53289C10.6182 9.11639 10.6137 10.3029 11.4717 10.8024C12.0177 11.1204 12.6485 11.2824 13.2402 11.5164C13.601 11.6589 13.9715 11.7819 14.318 11.9544C15.2465 12.4179 15.7122 13.1926 15.7017 14.2681" fill="white"/>
</svg>
