<svg width="24" height="24" viewBox="0 0 24 24" fill="none" xmlns="http://www.w3.org/2000/svg">
<circle cx="12" cy="12" r="12" fill="white"/>
<path fill-rule="evenodd" clip-rule="evenodd" d="M0 12C0 5.37259 5.37259 0 12 0C18.6274 0 24 5.37259 24 12C24 18.6274 18.6274 24 12 24C5.37259 24 0 18.6274 0 12ZM8.88498 16.2599L8.99868 16.1462C9.44538 15.6995 9.66061 15.0782 9.59564 14.4528L9.57127 14.2294C9.55503 14.0832 9.52254 13.9411 9.47787 13.803L9.32762 13.3563L7.93878 10.0873C7.84538 9.86802 7.75604 9.64467 7.68295 9.41726L7.61797 9.22234C7.43523 8.65787 7.4068 8.0528 7.53675 7.47615L7.65452 6.94417C7.6667 6.89544 7.6464 6.85077 7.60579 6.8264C7.56518 6.80203 7.51645 6.8061 7.4799 6.83452L7.17939 7.07005C6.91949 7.27716 6.66772 7.50051 6.43219 7.73604L6.31848 7.84975C5.87178 8.29645 5.65655 8.91371 5.72559 9.54315L5.74995 9.7665C5.7662 9.91269 5.79868 10.0548 5.84335 10.1929L5.99361 10.6396L7.37838 13.9086C7.47178 14.1279 7.56112 14.3513 7.63422 14.5787L7.69919 14.7736C7.88193 15.3381 7.91036 15.9431 7.78041 16.5198L7.66264 17.0518C7.65046 17.1005 7.67076 17.1452 7.71137 17.1695C7.72762 17.1817 7.74792 17.1858 7.76823 17.1858C7.79259 17.1858 7.81696 17.1777 7.83726 17.1614L8.13777 16.9259C8.39767 16.7188 8.64944 16.4954 8.88498 16.2599ZM13.685 17.2183L13.5388 17.3645C13.2423 17.6609 12.9256 17.9452 12.5966 18.201L12.2068 18.5096C12.1865 18.5259 12.1581 18.534 12.1337 18.534C12.1134 18.534 12.089 18.5259 12.0687 18.5137C12.024 18.4853 12.0037 18.4365 12.0159 18.3878L12.1702 17.7015C12.3327 16.9705 12.2961 16.2071 12.0647 15.4964L11.9834 15.2487C11.89 14.9604 11.7804 14.6761 11.6586 14.4L9.90831 10.2782L9.72151 9.71775C9.66466 9.54719 9.62405 9.36445 9.60374 9.18577L9.57125 8.90151C9.48192 8.11369 9.754 7.34211 10.3103 6.77765L10.4565 6.63145C10.753 6.33501 11.0697 6.05074 11.3987 5.79491L11.7885 5.48628C11.8291 5.45379 11.8819 5.44973 11.9266 5.47816C11.9713 5.50658 11.9916 5.55531 11.9794 5.60404L11.8251 6.29034C11.6626 7.0213 11.6992 7.78475 11.9306 8.49541L12.0119 8.74313C12.1053 9.02739 12.2149 9.31572 12.3367 9.59186L14.087 13.7177L14.2738 14.2782C14.3306 14.4487 14.3713 14.6315 14.3916 14.8101L14.424 15.0944C14.5134 15.8822 14.2413 16.6579 13.685 17.2183ZM17.5672 16.2599L17.6809 16.1462C18.1276 15.6995 18.3428 15.0782 18.2738 14.4528L18.2494 14.2294C18.2332 14.0832 18.2007 13.9411 18.156 13.803L18.0058 13.3563L16.6169 10.0873C16.5235 9.86802 16.4342 9.64467 16.3611 9.41726L16.2961 9.22234C16.1134 8.65787 16.0849 8.0528 16.2149 7.47615L16.3327 6.94417C16.3448 6.89544 16.3245 6.85077 16.2839 6.8264C16.2433 6.80203 16.1946 6.8061 16.158 6.83452L15.8575 7.07005C15.5976 7.27716 15.3459 7.50051 15.1103 7.73604L14.9966 7.84975C14.5499 8.29645 14.3347 8.91371 14.4037 9.54315L14.4281 9.7665C14.4443 9.91269 14.4768 10.0548 14.5215 10.1929L14.6717 10.6396L16.0606 13.9086C16.154 14.1279 16.2433 14.3513 16.3164 14.5787L16.3814 14.7736C16.5641 15.3381 16.5926 15.9431 16.4626 16.5198L16.3448 17.0518C16.3327 17.1005 16.353 17.1452 16.3936 17.1695C16.4098 17.1817 16.4301 17.1858 16.4504 17.1858C16.4748 17.1858 16.4992 17.1777 16.5195 17.1614L16.82 16.9259C17.0799 16.7188 17.3316 16.4954 17.5672 16.2599Z" fill="#171FC9"/>
</svg>
