<svg width="24" height="24" viewBox="0 0 24 24" fill="none" xmlns="http://www.w3.org/2000/svg">
<circle cx="12" cy="12" r="12" fill="#EDF0F4"/>
<path fill-rule="evenodd" clip-rule="evenodd" d="M12.0932 13.8785L7.50959 11.2598C6.81229 12.1622 6.3999 13.2792 6.3999 14.4886C6.3999 17.487 8.93517 19.9177 12.0626 19.9177C12.0728 19.9177 12.083 19.9177 12.0932 19.9176V13.8785Z" fill="#47A2F8"/>
<path fill-rule="evenodd" clip-rule="evenodd" d="M12.0933 13.8785L16.6768 11.2598C17.3741 12.1622 17.7865 13.2792 17.7865 14.4885C17.7865 17.487 15.2513 19.9177 12.1239 19.9177C12.1136 19.9177 12.1035 19.9177 12.0933 19.9177V13.8785Z" fill="#7EC6F9"/>
<path d="M12.0933 4.2L8.12939 10.2759L12.0933 8.02613V4.2Z" fill="#47A2F8"/>
<path d="M12.0933 4.2L16.0571 10.2759L12.0933 8.02613V4.2Z" fill="#7EC6F9"/>
<path d="M12.0933 12.5716L8.12939 10.2759L12.0933 8.02614V12.5716Z" fill="#7EC6F9"/>
<path d="M12.0933 12.5716L16.0571 10.2759L12.0933 8.02614V12.5716Z" fill="#D2ECFD"/>
<path d="M12.0933 13.8878L16.6846 11.2554L12.0933 19.9178V13.8878Z" fill="#D2ECFD"/>
<path d="M12.0933 13.8878L7.50195 11.2554L12.0933 19.9178V13.8878Z" fill="#7EC6F9"/>
</svg>
