<svg width="24" height="24" viewBox="0 0 24 24" fill="none" xmlns="http://www.w3.org/2000/svg">
<circle cx="12" cy="12" r="12" fill="#FD2E53"/>
<path fill-rule="evenodd" clip-rule="evenodd" d="M6.00031 6.6442C6.01532 6.66852 6.90593 7.7138 7.97944 8.96712C10.0475 11.3815 10.0807 11.428 10.0807 11.9084C10.0807 12.3889 10.0475 12.4354 7.97944 14.8497C6.90593 16.1031 6.01532 17.1483 6.00031 17.1727C5.98395 17.1991 6.61869 17.2158 7.58044 17.2141L9.18788 17.2113L10.9734 15.1195C13.066 12.668 13.0486 12.695 13.0486 11.9084C13.0486 11.1219 13.066 11.1489 10.9734 8.69741L9.18788 6.60554L7.58044 6.60279C6.61869 6.6011 5.98395 6.61775 6.00031 6.6442ZM13.1784 7.67009C12.6942 8.25865 12.3148 8.75547 12.3354 8.77415C12.356 8.79283 12.7948 8.91106 13.3106 9.03687C14.3429 9.28868 14.5384 9.29698 14.9152 9.1052C15.0754 9.02365 17.6319 6.99684 17.9932 6.66491C18.0525 6.61043 17.7418 6.60001 16.0614 6.60001H14.0589L13.1784 7.67009ZM13.2416 14.7956C12.6852 14.9374 12.3292 15.0507 12.3362 15.0839C12.3426 15.114 12.733 15.6062 13.2037 16.1777L14.0597 17.2169H16.0619C17.742 17.2169 18.0527 17.2065 17.9933 17.152C17.6257 16.8142 15.074 14.7925 14.91 14.709C14.5387 14.52 14.2683 14.534 13.2416 14.7956Z" fill="white"/>
</svg>
