<svg width="24" height="24" viewBox="0 0 24 24" fill="none" xmlns="http://www.w3.org/2000/svg">
<path fill-rule="evenodd" clip-rule="evenodd" d="M12 24C5.4 24 0 18.6001 0 11.9402C0.06 5.34038 5.4 -0.0595036 12.06 0.000495204C18.66 0.060494 24 5.40038 24 12.1202C23.94 18.6601 18.6 24 12 24Z" fill="#EDF0F4"/>
<path fill-rule="evenodd" clip-rule="evenodd" d="M11.9589 4.92432C12.2005 4.92432 12.3964 5.1202 12.3964 5.36183C12.3951 5.6029 12.2 5.79799 11.9589 5.79935C11.7173 5.79935 11.5214 5.60347 11.5214 5.36183C11.5214 5.1202 11.7173 4.92432 11.9589 4.92432ZM5.77766 15.3182C5.77766 15.0766 5.97354 14.8807 6.21518 14.8807V14.8808C6.37186 14.8814 6.51664 14.9645 6.59621 15.0995C6.63149 15.1701 6.65269 15.2406 6.65269 15.3182C6.65269 15.5599 6.45681 15.7558 6.21518 15.7558C5.97354 15.7558 5.77766 15.5599 5.77766 15.3182ZM17.7318 9.15813C17.9734 9.15813 18.1693 8.96225 18.1693 8.72061C18.1693 8.47898 17.9734 8.2831 17.7318 8.2831C17.4901 8.2831 17.2942 8.47898 17.2942 8.72061C17.2945 8.79486 17.314 8.86778 17.3507 8.93229C17.4273 9.07123 17.5731 9.15769 17.7318 9.15813ZM5.82682 8.48068C5.94674 8.26901 6.20786 8.19837 6.41954 8.31837C6.63121 8.43828 6.70185 8.70644 6.58185 8.91108C6.46193 9.12276 6.20082 9.19332 5.98914 9.0734C5.77746 8.95348 5.7069 8.69236 5.82682 8.48068ZM17.9072 14.9654C17.8437 14.923 17.7661 14.9089 17.6885 14.9018C17.5307 14.8997 17.3841 14.9826 17.3046 15.1189C17.2252 15.2551 17.2252 15.4236 17.3046 15.5598C17.3841 15.696 17.5307 15.7789 17.6885 15.7768C17.8437 15.7768 17.9845 15.6922 18.0695 15.5581C18.1895 15.3534 18.1189 15.0853 17.9072 14.9654ZM11.8036 19.072C11.6202 19.0014 11.5002 18.8109 11.5214 18.6133V18.6133C11.5221 18.6079 11.5246 18.603 11.5284 18.5992C11.5654 18.3633 11.7856 18.2013 12.0218 18.2362C12.258 18.271 12.422 18.4897 12.3893 18.7262C12.3478 18.943 12.1584 19.0998 11.9377 19.1002C11.8954 19.1002 11.8459 19.086 11.8036 19.072Z" fill="#2683FF"/>
<path fill-rule="evenodd" clip-rule="evenodd" d="M18.1757 14.0834C18.2318 14.1049 18.286 14.1309 18.338 14.161C18.959 14.542 19.1707 15.3464 18.8181 16.0027C18.451 16.6589 17.6181 16.8918 16.9621 16.5249C16.8989 16.4897 16.8427 16.4476 16.7865 16.4055L16.7857 16.4049L13.2717 18.43C13.2801 18.4955 13.2848 18.5615 13.2857 18.6276C13.2857 18.7053 13.2857 18.7758 13.2717 18.8534C13.1517 19.5944 12.4532 20.1024 11.7122 19.9824C10.9713 19.8624 10.4632 19.1639 10.5832 18.423L7.04802 16.3837C6.99154 16.4261 6.93514 16.4613 6.87866 16.4966C6.86265 16.5046 6.84662 16.5132 6.83044 16.5219C6.78962 16.5437 6.74775 16.5661 6.70226 16.5813C6.00363 16.8635 5.21332 16.5245 4.93108 15.8262C4.64884 15.1279 4.98764 14.3374 5.68627 14.0551V9.9766C5.62203 9.95564 5.56047 9.92723 5.50283 9.89196C5.44643 9.85668 5.39699 9.8214 5.34763 9.78612C4.95437 9.49212 4.74946 9.00945 4.81111 8.52233C4.87276 8.0352 5.19146 7.6188 5.64556 7.43205C6.09967 7.24529 6.6191 7.317 7.00562 7.61981L10.5761 5.55231C10.5754 5.54656 10.5748 5.54086 10.5742 5.53522C10.5678 5.47857 10.562 5.42663 10.562 5.36887C10.562 4.62096 11.19 4 11.938 4C12.686 4 13.2996 4.6068 13.2997 5.36175C13.2997 5.41938 13.2938 5.47127 13.2875 5.5279C13.2869 5.53361 13.2862 5.53937 13.2856 5.54519L16.8843 7.62677C16.9336 7.59149 16.983 7.55621 17.0395 7.52797C17.6959 7.16118 18.5287 7.40078 18.8955 8.05717C19.2623 8.71357 19.0223 9.5462 18.3663 9.91316C18.3449 9.92261 18.3236 9.93288 18.3023 9.94314C18.2601 9.96343 18.2179 9.98372 18.1757 9.9978V14.0834ZM17.1598 16.2425C17.6537 16.5318 18.2959 16.3625 18.5852 15.8685H18.5853C18.8813 15.3676 18.7122 14.7325 18.2253 14.4432C17.8316 14.211 17.332 14.2656 16.9976 14.5773L15.3816 13.6388C15.7838 12.8132 15.5157 11.8254 14.7606 11.3103C14.7183 11.1547 14.6548 11.0068 14.5842 10.8587L17.0257 9.47579C17.28 9.7159 17.6371 9.81378 17.9783 9.73691C18.5429 9.60995 18.8885 9.04548 18.7616 8.48092C18.6346 7.91637 18.0701 7.57069 17.5056 7.69765C16.941 7.82461 16.5953 8.38916 16.7223 8.95364L14.2526 10.3578C13.7728 9.78627 12.2487 9.40523 12.2487 9.40523V6.29326C12.5606 6.20006 12.8047 5.95602 12.8979 5.64406C13.0531 5.12895 12.7638 4.58559 12.2487 4.43039C11.7335 4.27519 11.1898 4.55743 11.0346 5.07255C10.8794 5.58766 11.1687 6.13102 11.6838 6.28622V9.46147C11.6838 9.46147 10.8518 9.73667 10.5271 10.0047C10.1818 10.0127 9.84331 10.1022 9.53916 10.2658L7.21766 8.9322C7.29534 8.59348 7.20366 8.24068 6.96366 7.98668C6.56854 7.56333 5.91935 7.54221 5.49599 7.93733C5.29305 8.12587 5.17371 8.38759 5.16444 8.66445C5.15518 8.94131 5.25675 9.21042 5.44663 9.41211C5.84175 9.83547 6.4983 9.85659 6.9143 9.46147L9.01028 10.6611C8.24813 11.4231 8.14933 12.6227 8.77029 13.4977L6.92862 14.5632C6.66718 14.3233 6.30734 14.2246 5.96863 14.3092C5.40577 14.4438 5.05856 15.0092 5.19308 15.572C5.32759 16.1349 5.89289 16.4822 6.45579 16.3478C7.01869 16.2134 7.36607 15.6481 7.23174 15.0852L9.20044 13.9492C9.70662 14.3584 10.3686 14.5213 11.0068 14.3938C11.2037 14.4848 11.4065 14.5626 11.6137 14.6266V17.5903C11.3317 17.6821 11.0918 17.8796 10.9577 18.1477C10.6896 18.684 10.9012 19.3472 11.4446 19.6154C11.4869 19.6366 11.5293 19.6578 11.5787 19.6719C11.5822 19.6719 11.5858 19.6736 11.5893 19.6754C11.5928 19.6772 11.5964 19.6789 11.5999 19.6789C12.1785 19.8549 12.7928 19.5375 12.9688 18.9589C13.1448 18.3804 12.8275 17.7665 12.2488 17.5901V14.6829C12.2488 14.6829 12.7779 14.6334 13.0248 14.5558C13.7135 14.8322 14.5007 14.6682 15.0218 14.1398L16.6729 15.1066C16.5671 15.551 16.7647 16.0097 17.1598 16.2425Z" fill="#2683FF"/>
<path d="M14.0337 11.8607C14.0267 11.8042 14.0196 11.7548 14.0125 11.6983C14.0056 11.6601 13.9962 11.6224 13.9843 11.5855C13.9843 11.5714 13.9772 11.5572 13.9772 11.5431C13.9631 11.5008 13.949 11.4514 13.9349 11.4091V11.402C13.8452 11.1653 13.7083 10.9493 13.5327 10.767C13.4903 10.7247 13.4551 10.6894 13.4056 10.647L13.3986 10.64C13.3563 10.6047 13.3139 10.5694 13.2645 10.5412L13.2575 10.5341C13.2151 10.5059 13.1657 10.4706 13.1234 10.4495L13.1163 10.4424C13.0708 10.4161 13.0236 10.3926 12.9752 10.3719L12.9611 10.3648C12.9118 10.3436 12.8623 10.3225 12.8059 10.3013L12.7989 10.2943C12.7424 10.2802 12.6931 10.259 12.6366 10.252H12.6295C12.5737 10.2391 12.5172 10.2297 12.4602 10.2237H12.4531C12.1526 10.181 11.8461 10.2175 11.564 10.3296L11.5287 10.3578C11.4864 10.3719 11.4159 10.4072 11.3736 10.4284C11.3515 10.4429 11.3278 10.4547 11.303 10.4636C11.2818 10.4707 11.2465 10.4989 11.2254 10.513C11.2043 10.5271 11.1548 10.5624 11.1266 10.5836L11.1054 10.5976C11.0631 10.6259 11.0278 10.6612 10.9854 10.6964L10.9501 10.7317C10.9078 10.774 10.8725 10.8093 10.8372 10.8517C10.7533 10.8377 10.6683 10.8306 10.5832 10.8305C10.555 10.8305 10.5339 10.8305 10.5127 10.8376C10.1881 10.8516 9.87764 10.9857 9.63772 11.2045C9.51772 11.3103 9.419 11.4445 9.34172 11.5855L9.3342 11.5999C9.31245 11.6409 9.29358 11.6834 9.27773 11.727C9.27069 11.7411 9.27069 11.7482 9.26365 11.7623C9.24869 11.7988 9.23689 11.8366 9.22837 11.8751C9.22133 11.8892 9.22133 11.9104 9.21429 11.9245C9.20725 11.9598 9.20021 11.9951 9.19309 12.0374C9.19309 12.0515 9.18605 12.0656 9.18605 12.0867C9.18018 12.1406 9.17783 12.1949 9.17901 12.2491C9.17783 12.2939 9.18018 12.3387 9.18605 12.3831C9.18605 12.3972 9.19309 12.4114 9.19309 12.4325C9.20013 12.4607 9.20013 12.489 9.20717 12.5171C9.21421 12.5453 9.21421 12.5524 9.22125 12.5736C9.22927 12.5939 9.23403 12.6154 9.23533 12.6371C9.23533 12.6583 9.24941 12.6795 9.25653 12.7007C9.26229 12.7176 9.26938 12.7341 9.27773 12.75C9.28835 12.773 9.29778 12.7966 9.30597 12.8206C9.31301 12.8347 9.32005 12.8418 9.32005 12.8559C9.41921 13.0883 9.58659 13.2851 9.80004 13.4203C9.90588 13.4839 10.0117 13.5403 10.1246 13.5755C10.1684 13.5906 10.2132 13.6024 10.2587 13.6108L10.2728 13.6179L10.3998 13.6391L10.428 13.6461C10.4774 13.6531 10.5268 13.6531 10.5832 13.6531C10.7738 13.6531 10.9572 13.6179 11.1266 13.5403C11.1689 13.5685 11.2042 13.5967 11.2466 13.6249L11.2607 13.6319C11.296 13.6531 11.3383 13.6743 11.3807 13.6955H11.3876C11.7909 13.901 12.2563 13.9488 12.693 13.8295H12.7C12.7635 13.8158 12.8251 13.7945 12.8835 13.766L13.074 13.6814C13.2555 13.8229 13.4789 13.8999 13.7091 13.9001C13.7584 13.9001 13.8008 13.893 13.8502 13.893L13.8855 13.886C13.9307 13.8793 13.9754 13.8698 14.0195 13.8578C14.063 13.8444 14.1055 13.8279 14.1466 13.8084L14.1678 13.8014C14.2101 13.7802 14.2454 13.7591 14.2878 13.7379C14.4642 13.625 14.5982 13.4556 14.6758 13.2651C14.7041 13.2015 14.7182 13.138 14.7323 13.0746V13.0534C14.7394 13.0251 14.7394 12.9969 14.7464 12.9687C14.7464 12.9335 14.7534 12.8982 14.7534 12.8629C14.7534 12.3972 14.4642 11.995 14.0335 11.8609" fill="#2683FF"/>
</svg>
