<svg width="24" height="24" viewBox="0 0 24 24" fill="none" xmlns="http://www.w3.org/2000/svg">
<circle cx="12" cy="12" r="12" fill="#2DC4E7"/>
<path fill-rule="evenodd" clip-rule="evenodd" d="M3.83005 6.81933C4.06954 6.81933 4.31143 6.81453 4.55432 6.80972C5.12436 6.79842 5.69985 6.78701 6.26246 6.83724C6.47309 7.07325 6.58718 7.36534 6.70234 7.66016L6.70234 7.66016C6.78195 7.864 6.86208 8.06913 6.97497 8.25793C9.37559 8.26987 11.7839 8.26589 14.1896 8.26191L14.1898 8.26191C15.3916 8.25992 16.5928 8.25793 17.7921 8.25793L17.8292 8.26036C18.0891 8.2772 18.3947 8.29701 18.5226 8.55117C18.6827 8.84442 18.5675 9.19064 18.4155 9.45702C17.9289 10.2797 17.4579 11.1103 16.987 11.9407C16.751 12.3568 16.5151 12.7729 16.2773 13.1878C16.2029 13.3115 16.1354 13.4393 16.0681 13.5667C15.8934 13.8974 15.7198 14.226 15.4308 14.4765C15.1015 14.7518 14.6464 14.769 14.2281 14.769H9.23749C8.9703 14.769 8.68514 14.7428 8.52498 14.5294C8.12394 14.0809 7.86734 13.5361 7.61426 12.9988L7.61426 12.9988C7.54145 12.8443 7.46893 12.6903 7.39335 12.5394C6.8075 11.3701 6.23417 10.1946 5.67344 9.01305C5.5863 8.81294 5.48437 8.628 5.38226 8.44271L5.38226 8.44271C5.34844 8.38134 5.3146 8.31994 5.28126 8.25793C4.80975 8.25793 4.33674 8.25793 3.87421 8.24002C3.7844 7.76994 3.7844 7.29016 3.8293 6.81933H3.83005ZM9.45207 15.7285C9.81462 15.6427 10.1916 15.6365 10.5568 15.7106C10.9661 15.8002 11.3232 16.1106 11.4212 16.5195C11.5275 16.9896 11.5275 17.4969 11.3404 17.9491C11.1622 18.358 10.7169 18.5535 10.2985 18.5893C9.8173 18.6244 9.26496 18.5893 8.90796 18.2334C8.52551 17.8074 8.52551 17.1858 8.60559 16.6523C8.65873 16.2083 9.01498 15.8263 9.45132 15.7285H9.45207ZM15.2617 15.7994C14.8336 15.6397 14.3523 15.6315 13.907 15.7285C13.4707 15.827 13.1324 16.1904 13.0426 16.6254C12.9341 17.0951 12.9909 17.5878 13.2035 18.0207C13.4265 18.4199 13.889 18.5803 14.3171 18.5975C14.7535 18.6065 15.2347 18.5624 15.564 18.2513C15.9203 17.8782 15.9742 17.3186 15.9203 16.8298C15.8851 16.4127 15.6711 15.9688 15.2617 15.7994Z" fill="white"/>
</svg>
