<svg width="24" height="24" viewBox="0 0 24 24" fill="none" xmlns="http://www.w3.org/2000/svg">
<path d="M12 24C18.6276 24 24 18.6276 24 12C24 5.3724 18.6276 0 12 0C5.3724 0 0 5.3724 0 12C0 18.6276 5.3724 24 12 24Z" fill="#EDF0F4"/>
<path fill-rule="evenodd" clip-rule="evenodd" d="M11.927 19.025C12.002 19.0737 12.0896 19.0995 12.179 19.0994L12.1792 19.099C12.267 19.0983 12.3528 19.0733 12.4273 19.0269L19.2659 14.6329C19.5917 14.4239 19.7882 14.063 19.787 13.676V12.3632C19.791 12.2262 19.7365 12.094 19.6373 11.9995C19.4819 11.8593 19.2518 11.8404 19.0756 11.9533L12.1084 16.3981C12.104 16.4012 12.0981 16.4012 12.0937 16.3981L5.26292 12.0564C5.09521 11.95 4.99392 11.7648 4.99467 11.5662V10.3289C4.99443 10.3265 4.99496 10.324 4.99621 10.3219C5.00015 10.3156 5.0084 10.3136 5.01483 10.3173L11.9389 14.6766C12.0908 14.7712 12.2833 14.7712 12.4352 14.6766L19.573 10.1698C19.708 10.0841 19.7898 9.93538 19.7898 9.77549C19.7898 9.61561 19.708 9.46683 19.573 9.38119L12.4957 4.87286C12.35 4.78009 12.1649 4.77562 12.0149 4.86124L12.0072 4.86585L4.6864 9.6369L4.55381 9.72763L4.53072 9.74625C4.44654 9.83312 4.3996 9.94941 4.3999 10.0704V11.5669C4.39978 11.97 4.60722 12.3448 4.94888 12.5587L11.85 16.9492C12.0027 17.0462 12.1976 17.0462 12.3502 16.9492L19.1795 12.5999C19.1814 12.599 19.1835 12.5985 19.1857 12.5983C19.1933 12.5982 19.1997 12.6039 19.2004 12.6115V13.6811C19.2008 13.865 19.1072 14.0362 18.9522 14.1352L12.1905 18.4799C12.1861 18.483 12.1802 18.483 12.1758 18.4799L5.04107 13.8847C5.03574 13.88 5.02778 13.88 5.02245 13.8847L4.71541 14.3623C4.71075 14.3677 4.71075 14.3756 4.71541 14.3809L11.927 19.025ZM12.1789 14.1243L5.44509 9.88116C5.44414 9.88028 5.44336 9.87924 5.44278 9.87808C5.4403 9.87514 5.43914 9.87132 5.43958 9.8675C5.44001 9.86368 5.44201 9.86021 5.44509 9.85792L12.242 5.42477C12.2464 5.42169 12.2523 5.42169 12.2567 5.42477L19.0631 9.76257C19.0648 9.76344 19.0661 9.76478 19.067 9.76642C19.0691 9.76936 19.0699 9.77304 19.0691 9.77658C19.0684 9.78011 19.0662 9.78318 19.0631 9.78504L12.1936 14.1243C12.1892 14.1274 12.1833 14.1274 12.1789 14.1243Z" fill="url(#paint0_linear_300_11056)"/>
<defs>
<linearGradient id="paint0_linear_300_11056" x1="4.3999" y1="11.3342" x2="19.7904" y2="11.3342" gradientUnits="userSpaceOnUse">
<stop stop-color="white"/>
<stop stop-color="#21BBC0"/>
<stop offset="0.34" stop-color="#20B9C0"/>
<stop offset="1" stop-color="#1387C9"/>
</linearGradient>
</defs>
</svg>
