<svg width="24" height="24" viewBox="0 0 24 24" fill="none" xmlns="http://www.w3.org/2000/svg">
<circle cx="12" cy="12" r="12" fill="#EDF0F4"/>
<path d="M6.33703 6.8H13.9881C14.011 6.8 14.0306 6.8064 14.0469 6.81921L17.1597 9.06059C17.2054 9.09261 17.212 9.15344 17.1793 9.19827C17.1597 9.22389 17.1302 9.2367 17.0975 9.2367H9.01817C8.96258 9.2367 8.91681 9.28152 8.91681 9.33596V12.2081C8.91681 12.2626 8.96258 12.3074 9.01817 12.3074H14.1679C14.2235 12.3074 14.2693 12.3522 14.2693 12.4066V14.5007C14.2693 14.5552 14.2235 14.6 14.1679 14.6H6.30107C6.24548 14.6 6.19971 14.5552 6.19971 14.5007L6.23567 6.90246C6.23567 6.84482 6.27818 6.8032 6.33703 6.8C6.33703 6.8 6.33376 6.8 6.33703 6.8Z" fill="#0E67AE"/>
<path d="M17.4638 17.6H9.59109C9.56845 17.6 9.54905 17.5935 9.53289 17.5805L6.63922 15.4254C6.59395 15.3928 6.58749 15.331 6.61982 15.2854C6.63922 15.2593 6.66831 15.2463 6.70065 15.2463H14.8159C14.8708 15.2463 14.9161 15.2007 14.9161 15.1454V11.9779C14.9161 11.9225 14.8708 11.877 14.8159 11.877H9.79801C9.74304 11.877 9.69778 11.8314 9.69778 11.7793V9.90091C9.69778 9.84557 9.74304 9.8 9.79477 9.8H17.4994C17.5543 9.8 17.5996 9.84557 17.5996 9.90091L17.564 17.5023C17.5608 17.5577 17.5188 17.6 17.4638 17.6Z" fill="#0E67AE"/>
<path fill-rule="evenodd" clip-rule="evenodd" d="M2.7998 12C2.7998 6.91898 6.91879 2.8 11.9998 2.8C17.0808 2.8 21.1998 6.91898 21.1998 12C21.1998 17.081 17.0808 21.2 11.9998 21.2C6.91879 21.2 2.7998 17.081 2.7998 12ZM20.3503 12C20.3503 7.38809 16.6116 3.64942 11.9997 3.64942C7.38785 3.64942 3.64917 7.38809 3.64917 12C3.64917 16.6119 7.38785 20.3506 11.9997 20.3506C16.6116 20.3506 20.3503 16.6119 20.3503 12Z" fill="#0E67AE"/>
</svg>
