<svg width="24" height="24" viewBox="0 0 24 24" fill="none" xmlns="http://www.w3.org/2000/svg">
<circle cx="12" cy="12" r="12" fill="#E53431"/>
<path fill-rule="evenodd" clip-rule="evenodd" d="M12.2679 4.03733C12.2008 3.987 12.1082 3.98762 12.0418 4.03883L8.13075 6.95823C8.04709 7.02058 8.03005 7.13863 8.09269 7.2219C8.15533 7.30516 8.27392 7.32212 8.35757 7.25978L12.1556 4.42439L17.6416 8.51995H15.246L11.3221 5.59155C11.268 5.55121 11.1964 5.54268 11.1342 5.56917C11.0721 5.59565 11.0289 5.65312 11.0208 5.71994C11.0128 5.78675 11.0412 5.85276 11.0953 5.89309L15.0689 8.85899C15.1016 8.8831 15.1412 8.89624 15.1819 8.8965H18.209C18.2904 8.89657 18.3625 8.84447 18.3876 8.76748C18.4145 8.69112 18.3882 8.60628 18.3228 8.5582L12.2679 4.03733ZM9.12785 4.00132C9.087 4.00075 9.04716 4.01397 9.01481 4.03882V4.03957L5.98846 6.30039C5.94045 6.33543 5.91208 6.39114 5.91208 6.45041C5.91208 6.50967 5.94045 6.56538 5.98846 6.60043L17.8957 15.4906L17.2227 15.9932C17.1391 16.0554 17.1219 16.1732 17.1843 16.2565C17.2467 16.3398 17.3652 16.3569 17.4488 16.2948L18.3237 15.6422C18.3715 15.6065 18.3996 15.5505 18.3996 15.491C18.3996 15.4316 18.3715 15.3756 18.3237 15.3399L6.41724 6.44816L9.12785 4.42513L9.9613 5.04546C10.0151 5.0858 10.0865 5.09447 10.1485 5.06822C10.2105 5.04197 10.2538 4.98478 10.2619 4.9182C10.2701 4.85162 10.242 4.78575 10.1881 4.74542L9.24089 4.03882C9.20828 4.01448 9.16861 4.00132 9.12785 4.00132ZM6.82457 7.93561C6.9082 7.88531 7.01653 7.9064 7.07497 7.98434C7.13341 8.06229 7.12289 8.17166 7.05064 8.23715L6.41689 8.70972L18.3241 17.6014C18.3721 17.6368 18.4005 17.6927 18.4005 17.7522C18.4005 17.8117 18.3721 17.8676 18.3241 17.903L15.297 20.163C15.2298 20.2123 15.1382 20.2123 15.0709 20.163L14.1945 19.5089C14.1404 19.4683 14.1122 19.4021 14.1204 19.3351C14.1287 19.2682 14.1722 19.2107 14.2346 19.1844C14.297 19.158 14.3687 19.1668 14.4229 19.2074L15.184 19.7752L17.8968 17.75L5.9866 8.86049C5.93941 8.82458 5.91173 8.76884 5.91173 8.70972C5.91173 8.6506 5.93941 8.59485 5.9866 8.55895L6.82307 7.93636L6.82457 7.93561ZM6.10171 15.3024V15.3009C6.03585 15.2525 5.94623 15.2518 5.87962 15.2991C5.813 15.3464 5.78449 15.431 5.80896 15.5087C5.83344 15.5864 5.90534 15.6397 5.98716 15.6407L12.0436 20.16C12.0763 20.1847 12.1164 20.1979 12.1574 20.1975C12.1982 20.1975 12.2379 20.1844 12.2705 20.16L16.1747 17.2466C16.2288 17.2062 16.2572 17.14 16.249 17.0732C16.2409 17.0063 16.1975 16.9488 16.1352 16.9224C16.073 16.896 16.0013 16.9046 15.9471 16.9451L12.1567 19.7745L6.6699 15.6789H9.06702L12.9449 18.5751C12.999 18.6153 13.0706 18.6237 13.1326 18.5971C13.1946 18.5706 13.2377 18.5131 13.2456 18.4463C13.2536 18.3796 13.2251 18.3137 13.171 18.2735L9.24034 15.3399C9.208 15.315 9.16816 15.3018 9.12731 15.3024H6.10171Z" fill="white"/>
</svg>
