<svg width="24" height="24" viewBox="0 0 24 24" fill="none" xmlns="http://www.w3.org/2000/svg">
<circle cx="12" cy="12" r="12" fill="#2D9CDB"/>
<path fill-rule="evenodd" clip-rule="evenodd" d="M10.6706 6.54026C11.3733 5.68151 11.6604 5.26376 12.0382 4.60001C12.4084 5.28401 12.6948 5.70626 13.368 6.54026H10.6706ZM13.5574 6.91299C16.1293 9.58749 16.7821 10.06 17.4069 10.2302C15.2347 9.96024 14.0092 9.80724 11.9624 8.74074L10.6704 10.2332L18.8002 12.025C16.257 14.1715 15.1554 15.3152 13.5574 17.2855H10.4815C9.12984 15.322 8.22846 14.6845 6.4922 13.8902C8.80268 14.1017 10.0871 14.2427 11.9624 15.3452L13.3685 13.7777L5.2002 12.025C7.09966 10.471 8.20504 9.43449 10.4808 6.91299H13.5574ZM12.0004 19.6C12.3767 18.9363 12.6645 18.5185 13.368 17.6598H10.6706C11.3431 18.4938 11.6302 18.916 12.0004 19.6Z" fill="white"/>
</svg>
