<svg width="24" height="24" viewBox="0 0 24 24" fill="none" xmlns="http://www.w3.org/2000/svg">
<circle cx="12" cy="12" r="12" fill="#7012FE"/>
<path d="M10.2306 17.7789C8.87456 17.9339 7.88985 18.8444 7.56699 19.2802C7.40556 18.6991 7.2183 17.2753 7.7607 16.2292C8.30311 15.1832 11.861 14.3728 13.5722 14.0983C11.522 13.6463 7.4217 12.229 7.4217 10.1756C7.4217 7.60887 10.8601 6.59187 13.1363 6.25286C14.9572 5.98166 16.155 5.17128 16.5263 4.8C16.494 5.49414 16.0905 7.15364 14.7345 8.23845C13.3785 9.32326 11.1669 9.75589 10.2306 9.8366C12.2646 10.1595 16.3229 11.4057 16.2842 13.8078C16.2358 16.8104 11.9256 17.5852 10.2306 17.7789Z" fill="white"/>
<path d="M14.2497 10.4177C13.8622 10.1853 13.1519 9.93345 12.8452 9.83659C13.2488 9.69131 14.1915 9.33293 14.734 9.06173C15.2764 8.79053 15.8963 8.07701 16.1384 7.75415C16.1868 8.1093 16.2546 8.98424 16.1384 9.64288C16.0221 10.3015 15.5088 10.9182 15.2667 11.1442C15.0891 10.9989 14.6371 10.6502 14.2497 10.4177Z" fill="white"/>
</svg>
