<svg width="24" height="24" viewBox="0 0 24 24" fill="none" xmlns="http://www.w3.org/2000/svg">
<circle cx="12" cy="12" r="12" fill="#EDF0F4"/>
<path fill-rule="evenodd" clip-rule="evenodd" d="M12.0005 3C12.3043 3 12.6045 3.01505 12.9006 3.04445V14.2747L6.20708 6.67708V18.8876C4.24634 17.2367 3.00049 14.7638 3.00049 12C3.00049 7.02943 7.02991 3 12.0005 3ZM21.0007 12C21.0007 7.83064 18.1656 4.32348 14.3181 3.30116V17.9635L7.72206 10.4392V19.9198C8.99465 20.6088 10.452 21 12.0008 21C16.9713 21 21.0007 16.9705 21.0007 12ZM15.587 11.4621C15.54 11.772 15.6317 12.0403 15.8326 12.2139C16.0252 12.3802 16.2847 12.4299 16.5221 12.3824C16.7539 12.3359 16.9159 12.1932 17.0319 12.0465C17.1353 11.9159 17.2194 11.7595 17.2893 11.6293C17.2955 11.6179 17.3015 11.6067 17.3073 11.5958C17.3877 11.4468 17.4512 11.3366 17.5207 11.2609C17.5822 11.1941 17.6291 11.1751 17.6816 11.1751C17.9176 11.1751 18.0143 11.2495 18.0584 11.3077C18.1105 11.3764 18.1354 11.4837 18.1218 11.6124C18.102 11.8009 17.9113 11.9492 17.7162 11.9492V12.4892C18.1274 12.4892 18.6042 12.1883 18.6589 11.669C18.6814 11.4555 18.6506 11.195 18.4888 10.9815C18.3188 10.7574 18.0432 10.6351 17.6816 10.6351C17.4355 10.6351 17.2541 10.7531 17.1233 10.8953C17.0005 11.0288 16.9074 11.1999 16.8321 11.3394L16.8197 11.3624C16.7432 11.5043 16.6809 11.62 16.6086 11.7114C16.536 11.803 16.4755 11.841 16.416 11.8529C16.3174 11.8727 16.2342 11.8471 16.1856 11.8052C16.1454 11.7704 16.0975 11.6976 16.121 11.5431C16.1422 11.4026 16.2106 11.3329 16.286 11.2901C16.3729 11.2408 16.4747 11.2264 16.5292 11.2264V10.6864C16.4096 10.6864 16.2091 10.7128 16.0194 10.8205C15.8184 10.9347 15.6361 11.1381 15.587 11.4621ZM15.8831 8.25914C15.6801 8.52761 15.6109 8.84327 15.5876 9.10848C15.5709 9.29871 15.5771 9.49443 15.5813 9.62895V9.629C15.5829 9.67516 15.584 9.71412 15.584 9.74317V10.0132H15.854H18.3646H18.5904L18.6303 9.7909C18.6745 9.54472 18.6732 9.20555 18.6024 8.88206C18.533 8.56436 18.3849 8.2103 18.091 7.99547C17.7753 7.76482 17.3165 7.71457 16.9248 7.76124C16.5377 7.80733 16.1084 7.9613 15.8831 8.25914ZM18.1195 9.47319H16.1174C16.1151 9.37542 16.1153 9.27114 16.1255 9.15579C16.1446 8.93836 16.1976 8.73836 16.3137 8.58484C16.4076 8.46069 16.6574 8.33688 16.9885 8.29745C17.3148 8.25859 17.613 8.31509 17.7723 8.43146C17.9112 8.53301 18.0172 8.73421 18.0748 8.99745C18.1106 9.16089 18.1231 9.32838 18.1195 9.47319ZM18.0745 13.2967C18.3543 13.4601 18.5595 13.7588 18.5595 14.215C18.5595 14.6706 18.3552 14.9717 18.0799 15.1412C17.8283 15.2962 17.5393 15.3289 17.3432 15.3151H15.7228V14.7752H17.3534H17.3643L17.3751 14.7761C17.4909 14.7854 17.6635 14.7635 17.7968 14.6814C17.9116 14.6106 18.0195 14.484 18.0195 14.215C18.0195 13.9464 17.9125 13.8274 17.8022 13.763C17.6714 13.6866 17.5003 13.6698 17.3836 13.6829L17.3685 13.6846H17.3534H15.7228V13.1446H17.3393C17.5345 13.1255 17.8224 13.1494 18.0745 13.2967Z" fill="url(#paint0_radial_300_11993)"/>
<defs>
<radialGradient id="paint0_radial_300_11993" cx="0" cy="0" r="1" gradientUnits="userSpaceOnUse" gradientTransform="translate(12.0006 12) scale(9.00012 9)">
<stop stop-color="#6573AB"/>
<stop offset="1" stop-color="#57628F"/>
</radialGradient>
</defs>
</svg>
