<svg width="24" height="24" viewBox="0 0 24 24" fill="none" xmlns="http://www.w3.org/2000/svg">
<circle cx="12" cy="12" r="12" fill="#EDF0F4"/>
<path d="M7.25364 5.79999L19.6002 14.1364L16.5467 18.6L4.2002 10.1979L7.25364 5.79999Z" fill="url(#paint0_linear_300_8807)"/>
<path d="M19.7343 14.1533C18.679 15.6939 15.1172 15.091 11.7534 12.6797C8.32356 10.3354 6.47674 7.18725 7.46611 5.64669C8.52144 4.10612 12.0832 4.70895 15.447 7.12027C18.8768 9.39763 20.7237 12.6127 19.7343 14.1533Z" fill="url(#paint1_linear_300_8807)"/>
<path d="M16.5328 18.5588C15.4741 20.0894 11.901 19.4905 8.52635 17.0949C5.15172 14.6993 3.23281 11.6382 4.29152 10.0412C5.35022 8.51067 8.92337 9.10957 12.298 11.5052C15.6726 13.9007 17.5254 17.0283 16.5328 18.5588Z" fill="url(#paint2_linear_300_8807)"/>
<path d="M19.551 14.0838L16.4959 18.5809C15.4333 20.102 11.8469 19.4407 8.45972 17.126C7.79557 16.663 7.19783 16.2001 6.6001 15.671C7.065 15.6049 7.66274 15.3404 8.26048 14.679C9.32312 13.5547 9.85444 13.2902 10.3193 13.3563C10.7842 13.3563 11.3156 13.8193 12.179 14.9436C13.0424 16.0678 14.2378 16.3985 14.9684 15.8033C15.0348 15.7372 15.1012 15.7372 15.1676 15.671C15.7654 15.2081 15.9646 15.0097 17.0937 12.8934C17.3593 12.3643 18.2892 11.5046 19.551 11.9014C19.8831 12.7611 19.8831 13.4886 19.551 14.0838Z" fill="#0E0F23"/>
<path fill-rule="evenodd" clip-rule="evenodd" d="M18.9897 13.9177C18.0657 15.2457 14.8318 14.5817 11.7299 12.3904C8.56207 10.1992 6.71413 7.41034 7.6381 6.08231C8.56207 4.75429 11.7959 5.4183 14.8978 7.60954C17.9997 9.80079 19.8477 12.5896 18.9897 13.9177ZM16.0854 11.9256C15.6234 12.5896 14.0395 12.2576 12.4555 11.1952C10.9376 10.1328 10.0136 8.73835 10.4756 8.07433C10.9376 7.41032 12.5215 7.74233 14.1055 8.80475C15.6234 9.86717 16.5474 11.2616 16.0854 11.9256Z" fill="white"/>
<path d="M6.97767 7.07836C6.97767 7.02295 6.91767 6.96754 6.85767 7.02295C6.79767 7.07836 6.73767 7.07836 6.73767 7.13377C6.79767 7.3 6.85767 7.41082 6.85767 7.52164C6.85767 7.57705 6.91767 7.63246 6.97767 7.57705C7.03767 7.57705 7.09767 7.52164 7.03767 7.46623C7.03767 7.35541 7.03767 7.24459 6.97767 7.07836Z" fill="white"/>
<path d="M7.39591 8.09446C7.39591 8.02767 7.33067 7.96087 7.26543 8.02767C7.2002 8.09446 7.2002 8.09446 7.2002 8.16125C7.91782 9.83107 9.41832 11.6345 11.3755 12.9703C11.4407 13.0371 11.506 12.9703 11.5712 12.9703C11.6364 12.9035 11.5712 12.8367 11.5712 12.7699C9.54879 11.4341 8.11354 9.69748 7.39591 8.09446Z" fill="white"/>
<path d="M15.3233 14.72C15.2617 14.72 15.2002 14.72 15.2002 14.78C15.2002 14.84 15.2002 14.9 15.2617 14.9C15.4463 14.96 15.6925 15.02 15.8771 15.08C15.9387 15.08 16.0002 15.08 16.0002 15.02C16.0002 14.96 16.0002 14.9 15.9387 14.9C15.754 14.84 15.5079 14.78 15.3233 14.72Z" fill="white"/>
<path d="M16.5285 14.9376C16.4642 14.9376 16.3999 14.9976 16.3999 15.0576C16.3999 15.1176 16.4642 15.1776 16.5285 15.1776C17.0428 15.2376 17.6213 15.2976 18.0713 15.2376C18.1356 15.2376 18.1999 15.1776 18.1999 15.1176C18.1999 15.0576 18.1356 14.9976 18.0713 14.9976C17.557 15.0576 17.0428 14.9976 16.5285 14.9376Z" fill="white"/>
<defs>
<linearGradient id="paint0_linear_300_8807" x1="4.67111" y1="5.63225" x2="6.3927" y2="14.0944" gradientUnits="userSpaceOnUse">
<stop stop-color="#03B8FF"/>
<stop offset="1" stop-color="#FA52A0"/>
</linearGradient>
<linearGradient id="paint1_linear_300_8807" x1="6.54997" y1="4.81402" x2="8.12345" y2="13.4546" gradientUnits="userSpaceOnUse">
<stop stop-color="#03B8FF"/>
<stop offset="1" stop-color="#FA52A0"/>
</linearGradient>
<linearGradient id="paint2_linear_300_8807" x1="2.38815" y1="6.00697" x2="3.96722" y2="14.5941" gradientUnits="userSpaceOnUse">
<stop stop-color="#03B8FF"/>
<stop offset="1" stop-color="#FA52A0"/>
</linearGradient>
</defs>
</svg>
