<svg width="24" height="24" viewBox="0 0 24 24" fill="none" xmlns="http://www.w3.org/2000/svg">
<circle cx="12" cy="12" r="12" fill="#EDF0F4"/>
<path fill-rule="evenodd" clip-rule="evenodd" d="M8.44695 10.6188C8.31808 10.4908 8.24561 10.3167 8.24561 10.1351C8.24561 9.95352 8.31808 9.77942 8.44695 9.65145L12.2919 5.79833C12.5617 5.53386 12.9935 5.53386 13.2633 5.79833C13.5278 6.06814 13.5278 6.49996 13.2633 6.76977L9.41431 10.6188C9.28634 10.7477 9.11224 10.8202 8.93063 10.8202C8.74902 10.8202 8.57491 10.7477 8.44695 10.6188Z" fill="#242328"/>
<path fill-rule="evenodd" clip-rule="evenodd" d="M15.3945 13.2352C15.5236 13.3639 15.5962 13.5387 15.5962 13.7209C15.5962 13.9032 15.5236 14.078 15.3945 14.2067L11.5496 18.0557C11.3784 18.2371 11.1223 18.3114 10.8806 18.2495C10.639 18.1876 10.45 17.9994 10.3871 17.7581C10.3243 17.5167 10.3974 17.2602 10.5781 17.0883L14.4272 13.2352C14.6947 12.969 15.127 12.969 15.3945 13.2352ZM8.19835 14.0516C7.93388 13.7817 7.93388 13.3499 8.19835 13.0801L10.6474 10.6311C10.7753 10.5022 10.9494 10.4297 11.1311 10.4297C11.3127 10.4297 11.4868 10.5022 11.6147 10.6311C11.8792 10.9009 11.8792 11.3327 11.6147 11.6025L9.16572 14.0516C8.8982 14.3177 8.46587 14.3177 8.19835 14.0516Z" fill="#242328"/>
<path fill-rule="evenodd" clip-rule="evenodd" d="M15.6433 9.79838C15.9095 10.0659 15.9095 10.4982 15.6433 10.7657L13.1943 13.2148C13.0224 13.3955 12.7659 13.4686 12.5246 13.4057C12.2832 13.3428 12.095 13.1539 12.0332 12.9122C11.9713 12.6706 12.0455 12.4145 12.227 12.2433L14.676 9.7943C14.8039 9.66543 14.978 9.59296 15.1597 9.59296C15.3413 9.59296 15.5154 9.66543 15.6433 9.7943" fill="#A573FF"/>
</svg>
