<svg width="24" height="24" viewBox="0 0 24 24" fill="none" xmlns="http://www.w3.org/2000/svg">
<path d="M12 24C18.6276 24 24 18.6276 24 12C24 5.3724 18.6276 0 12 0C5.3724 0 0 5.3724 0 12C0 18.6276 5.3724 24 12 24Z" fill="#071377"/>
<path fill-rule="evenodd" clip-rule="evenodd" d="M8.00078 6.9875V7.37496L7.85647 7.39974C7.59148 7.44526 7.26028 7.53662 6.95108 7.64944C5.4591 8.19395 4.32615 9.61397 4.05632 11.2776C3.68094 13.5921 5.2206 15.8776 7.5236 16.4245C8.74565 16.7148 10.1228 16.4759 11.1725 15.7917C11.7775 15.3974 12.0203 15.0965 12.6518 13.9587C13.0232 13.2896 14.0965 11.1881 14.0669 11.1881C14.0398 11.1881 10.1843 13.7002 9.97003 13.8575C9.70813 14.0498 9.41245 14.1741 9.0351 14.2506C8.27307 14.4049 7.50729 14.158 6.92061 13.5687C6.62684 13.2736 6.37603 12.8105 6.30995 12.4412C6.25254 12.1203 6.25997 11.6301 6.32604 11.3805C6.49451 10.7436 6.98275 10.1435 7.57247 9.84836C7.74945 9.75977 7.91762 9.68731 7.94621 9.68731C7.98585 9.68731 8.00078 9.78302 8.00909 10.0905L8.02002 10.4937L9.48229 9.54782C10.2865 9.0276 10.958 8.58938 10.9745 8.57402C10.991 8.55867 10.3676 8.13346 9.58923 7.62916C8.8108 7.12487 8.13496 6.687 8.08736 6.65614L8.00078 6.59999V6.9875ZM14.9657 7.35752C14.934 7.36522 14.7781 7.39223 14.6194 7.41755C14.2238 7.48066 13.5847 7.69123 13.2174 7.87948C12.3528 8.32259 12.0084 8.71802 11.2236 10.1683C10.8367 10.8834 9.91439 12.6916 9.93002 12.7046C9.94391 12.7162 12.1365 11.2978 13.5996 10.3307C14.4856 9.74511 14.7089 9.6496 15.263 9.61935C15.7193 9.59442 16.0187 9.65325 16.423 9.84728C17.0347 10.1408 17.5457 10.7758 17.6799 11.409C17.7527 11.7528 17.7508 12.2176 17.6753 12.5101C17.4925 13.2188 16.8887 13.8918 16.2015 14.1529L16.0047 14.2277V13.8206C16.0047 13.5443 15.9912 13.418 15.9628 13.4275C15.8947 13.4502 13.006 15.323 13.0067 15.344C13.0073 15.364 15.9026 17.2391 15.9676 17.2616C15.9898 17.2693 16.0047 17.1202 16.0047 16.8914V16.5083L16.1976 16.4827C16.3037 16.4687 16.5401 16.4138 16.7229 16.3608C19.0707 15.6805 20.4797 13.1484 19.8495 10.7422C19.6462 9.96618 19.242 9.29207 18.6055 8.66757C17.7298 7.80848 16.7587 7.3907 15.5622 7.35818C15.2659 7.3501 14.9974 7.34983 14.9657 7.35752Z" fill="white"/>
</svg>
