<svg width="24" height="24" viewBox="0 0 24 24" fill="none" xmlns="http://www.w3.org/2000/svg">
<circle cx="12" cy="12" r="12" fill="url(#paint0_linear_300_11110)"/>
<path fill-rule="evenodd" clip-rule="evenodd" d="M11.5656 4.32904C10.8689 4.40934 10.2211 4.72725 9.73125 5.22924C9.36348 5.59337 9.01513 5.96721 8.64251 6.33498C8.456 6.52634 8.26746 6.71245 8.07892 6.9014C7.89039 7.09034 7.68243 7.29101 7.48661 7.48926C7.29079 7.6875 7.12815 7.86148 6.94689 8.04556C6.66368 8.32877 6.38047 8.61198 6.09727 8.89802C5.88 9.12257 5.6676 9.3544 5.45276 9.57854C5.32613 9.71245 5.18978 9.83666 5.07043 9.97746C4.57787 10.5784 4.30867 11.3314 4.30859 12.1084C4.30859 12.1541 4.30859 12.2011 4.31143 12.2464C4.3215 12.6925 4.43861 13.1298 4.6529 13.5212C4.77488 13.7578 4.91616 13.9839 5.07528 14.1973C5.18047 14.3454 5.25694 14.3429 5.39531 14.2284C5.42174 14.2064 5.44649 14.1825 5.46935 14.1568C5.60569 14.0132 5.73921 13.87 5.87798 13.7267C6.0738 13.5212 6.27447 13.3161 6.47029 13.1081C6.66611 12.9002 6.87852 12.6712 7.08405 12.4564C7.18196 12.3512 7.28634 12.2541 7.38506 12.1505C7.59504 11.9284 7.80057 11.6994 8.01055 11.4797C8.22053 11.26 8.43334 11.0545 8.63887 10.8396C8.8444 10.6248 9.09726 10.3618 9.32869 10.1231C9.56011 9.8844 9.75633 9.68373 9.97117 9.46404C10.2507 9.17476 10.523 8.8786 10.7998 8.58973C10.9717 8.41293 11.1485 8.2434 11.3205 8.06903C11.5592 7.83032 11.7813 7.59162 12.0155 7.35291C12.2498 7.11421 12.4238 6.95399 12.6244 6.74846C13.073 6.29533 13.5209 5.83949 13.9681 5.38096C13.9969 5.3525 14.024 5.32223 14.049 5.29034C14.159 5.15156 14.1683 5.12082 14.0324 5.02291C13.8248 4.85937 13.6026 4.7154 13.3685 4.59283C12.9547 4.39933 12.5035 4.29905 12.0467 4.2991H12.024C11.8715 4.29913 11.719 4.30873 11.5677 4.32783L11.5652 4.3254L11.5656 4.32904ZM15.518 7.26874H15.4892C15.0926 7.26888 14.7161 7.44366 14.46 7.74656C14.4373 7.77163 14.4134 7.79553 14.3884 7.81817L13.6577 8.53469C13.419 8.7738 13.1608 9.03395 12.91 9.28479C12.7024 9.49234 12.4945 9.69544 12.2894 9.9034C12.0842 10.1114 11.8641 10.3428 11.642 10.56C11.4199 10.7773 11.1836 11.0051 10.9542 11.2288L10.1398 12.0501L8.62585 13.5645C7.95693 14.2361 7.28896 14.9064 6.62194 15.5753C6.49328 15.7019 6.49085 15.7185 6.62194 15.8544C6.94196 16.1781 7.26684 16.4994 7.57716 16.8254C7.76916 17.029 8.02254 17.164 8.29854 17.2098C8.55893 17.2622 8.82794 17.2532 9.08424 17.1835C9.27626 17.136 9.4535 17.0416 9.60009 16.9088L10.3931 16.1429C10.5792 15.9641 10.7681 15.7873 10.9518 15.6056C11.3196 15.2415 11.6825 14.8749 12.0503 14.5132C12.3488 14.2195 12.6547 13.9282 12.9577 13.6345L14.201 12.4228C14.5878 12.0428 14.977 11.6609 15.3687 11.281C15.4219 11.2019 15.5146 11.159 15.6094 11.1696C15.7041 11.1802 15.785 11.2427 15.8194 11.3316C16.0184 11.6223 16.1249 11.9664 16.1248 12.3188C16.1248 12.379 16.1217 12.4393 16.1155 12.4992C16.0834 12.8544 15.9369 13.1896 15.698 13.4544C15.4111 13.7627 15.1057 14.054 14.8079 14.3502C14.5955 14.5602 14.3782 14.7657 14.1654 14.9781C13.8907 15.2504 13.6209 15.5275 13.3461 15.7998C13.3057 15.8451 13.2677 15.8929 13.2248 15.9358L12.9549 16.2153C12.7526 16.4176 12.5467 16.6143 12.348 16.817C12.1494 17.0197 11.9212 17.2567 11.7088 17.478C11.6898 17.4995 11.6683 17.5136 11.6493 17.5327C11.4102 17.7548 11.1905 17.9777 10.9635 18.2014C10.8563 18.3066 10.7536 18.4139 10.6484 18.519C10.4671 18.7031 10.2806 18.8832 10.1062 19.0709C9.99901 19.183 9.99901 19.2522 10.1256 19.3408C10.3336 19.5004 10.5549 19.6417 10.7871 19.7631C11.3649 20.0244 12.0052 20.1155 12.6329 20.0257C13.2559 19.9518 13.8404 19.6855 14.305 19.2639C14.6582 18.9536 14.9738 18.6048 15.3031 18.2706C15.5418 18.0315 15.7809 17.7762 16.0362 17.5302L16.7265 16.8352C16.9368 16.6228 17.1444 16.4099 17.3572 16.2C17.57 15.99 17.8346 15.7391 18.0733 15.5025C18.312 15.2658 18.5511 15.025 18.7898 14.7718C18.9802 14.578 19.156 14.3704 19.3158 14.1507C19.6138 13.7005 19.7998 13.1856 19.8583 12.6489C19.8907 12.3823 19.8907 12.1128 19.8583 11.8462C19.7873 11.3719 19.6154 10.9182 19.3542 10.5159C19.1664 10.2313 18.9416 9.9728 18.6859 9.74723C18.0244 9.09059 17.3649 8.42909 16.718 7.75789C16.4328 7.44033 16.0261 7.25885 15.5993 7.25863H15.5904L15.5188 7.26834L15.518 7.26874Z" fill="white"/>
<defs>
<linearGradient id="paint0_linear_300_11110" x1="-4.95355" y1="14.6647" x2="14.3057" y2="27.8421" gradientUnits="userSpaceOnUse">
<stop stop-color="#FF3B3B"/>
<stop offset="1" stop-color="#FF9914"/>
</linearGradient>
</defs>
</svg>
