<svg width="24" height="24" viewBox="0 0 24 24" fill="none" xmlns="http://www.w3.org/2000/svg">
<circle cx="12" cy="12" r="12" fill="#E7EFF3"/>
<path fill-rule="evenodd" clip-rule="evenodd" d="M16.8846 10.542C16.2898 9.97922 15.4498 9.51042 14.36 9.21277H14.3537C11.7604 8.50721 10.8364 10.1761 12.9363 11.2281C15.3202 12.4208 15.6514 14.3742 14.3059 15.5958C13.9631 15.9066 12.8491 16.4883 11.8244 16.6279C10.197 16.8536 8.39114 16.5077 6.92334 16.0415C7.72167 16.6616 8.63399 17.1189 9.60854 17.3875C11.8969 18.0175 14.6608 17.5534 16.4924 15.9612C18.3371 14.3553 18.5135 12.0791 16.8846 10.542ZM14.361 9.21336L14.3846 9.22019L14.361 9.21336Z" fill="#008DD0"/>
<path fill-rule="evenodd" clip-rule="evenodd" d="M9.3751 6.7769C11.9454 5.72927 14.8788 6.12694 17.0774 7.82106C14.3371 6.94962 12.211 7.02521 10.8161 7.5864L10.7957 7.5948C9.07324 8.2993 8.47636 9.74138 9.22601 11.0454C9.62971 11.7483 10.3416 12.2738 11.0634 12.6345C12.9722 13.5904 12.3852 15.0546 10.3185 14.7868C10.0891 14.7562 9.8621 14.7097 9.63916 14.6477C5.58065 13.5395 4.98692 10.0931 7.5078 7.90138C8.06428 7.42659 8.69516 7.04668 9.3751 6.7769Z" fill="#008DD0"/>
</svg>
