<svg width="24" height="24" viewBox="0 0 24 24" fill="none" xmlns="http://www.w3.org/2000/svg">
<circle cx="12" cy="12" r="12" fill="#EDF0F4"/>
<path d="M6.47202 10.3746L5 11.8463H7.94381L6.47202 10.3746Z" fill="#A02870"/>
<path d="M7.9434 12.1537H5.00049L6.47189 13.6254L7.9434 12.1537Z" fill="#80286C"/>
<path d="M9.94016 10.1572L8.46826 8.68536V11.6288L9.94016 10.1572Z" fill="#C42C79"/>
<path d="M8.16125 11.6288V8.68536L6.68945 10.1572L8.16125 11.6288Z" fill="#A02870"/>
<path d="M10.1576 9.93977L11.6292 8.46826H8.68555L10.1576 9.93977Z" fill="#C42C79"/>
<path d="M10.1577 6.68909L8.68555 8.16099H11.6292L10.1577 6.68909Z" fill="#E4327F"/>
<path d="M13.6254 6.47179L12.1538 5V7.94342L13.6254 6.47179Z" fill="#0A8B4B"/>
<path d="M11.8462 7.94353V5L10.3745 6.47179L11.8462 7.94353Z" fill="#E4327F"/>
<path d="M9.94016 13.8424L8.46826 12.3709V15.3143L9.94016 13.8424Z" fill="#632A69"/>
<path d="M6.68896 13.8424L8.1607 15.314V12.3709L6.68896 13.8424Z" fill="#80286C"/>
<path d="M13.8428 9.93977L15.3145 8.46826H12.3711L13.8428 9.93977Z" fill="#167B55"/>
<path d="M12.3706 8.16088H15.3141L13.8424 6.68909L12.3706 8.16088Z" fill="#0A8B4B"/>
<path d="M11.6294 15.8387H8.68555L10.1573 17.3106L11.6294 15.8387Z" fill="#402863"/>
<path d="M10.1575 14.0599L8.68555 15.5314H11.6287L10.1575 14.0599Z" fill="#632A69"/>
<path d="M17.3106 10.1572L15.8389 8.68561V11.6287L17.3106 10.1572Z" fill="#21695E"/>
<path d="M14.0601 10.1572L15.532 11.6289V8.68536L14.0601 10.1572Z" fill="#167B55"/>
<path d="M10.3745 17.528L11.8461 18.9996V16.0562L10.3745 17.528Z" fill="#402863"/>
<path fill-rule="evenodd" clip-rule="evenodd" d="M15.3146 15.8388L13.8427 17.3107L12.3708 15.8388H15.3146ZM12.1538 18.9995V16.0563L13.6255 17.528L12.1538 18.9995Z" fill="#223160"/>
<path d="M13.8426 14.0599L12.3711 15.5314H15.3141L13.8426 14.0599Z" fill="#1E4561"/>
<path d="M15.8394 12.3709V15.3142L17.311 13.8424L15.8394 12.3709Z" fill="#245661"/>
<path d="M14.0601 13.8424L15.532 15.3142V12.3708L14.0601 13.8424Z" fill="#1E4561"/>
<path d="M17.5283 13.6254L19.0002 12.1536H16.0566L17.5283 13.6254Z" fill="#245661"/>
<path d="M17.5282 10.3746L16.0562 11.8463H19.0001L17.5282 10.3746Z" fill="#21695E"/>
</svg>
