<svg width="24" height="24" viewBox="0 0 24 24" fill="none" xmlns="http://www.w3.org/2000/svg">
<circle cx="12" cy="12" r="12" fill="#EDF0F4"/>
<path fill-rule="evenodd" clip-rule="evenodd" d="M10.4362 10.9079C10.2443 12.0042 9.83558 12.8189 9.32976 13.4269C9.61367 13.7834 10.4217 14.5524 12.1108 14.524C12.1108 14.524 13.4368 14.6437 14.7003 13.4846C14.1965 12.8778 13.7901 12.0639 13.5951 10.9672C13.5951 10.9672 13.0538 7.7221 15.4846 6.16173C14.5568 5.60811 13.5113 5.28165 12.4333 5.20898V7.82193H11.6451V5.20001C10.5544 5.24761 9.49091 5.55514 8.54314 6.097C10.9798 7.65697 10.4362 10.9079 10.4362 10.9079ZM6.15601 5.28461C4.92364 5.32751 3.95958 6.36996 4.00131 7.61365C4.02721 8.40784 4.46935 9.12973 5.16504 9.5137C5.91032 7.14644 7.44689 6.33486 7.97026 6.12076C7.53186 5.57071 6.85899 5.2606 6.15601 5.28461ZM9.79625 9.44082H5.59018C6.07445 8.28002 6.86605 7.27322 7.87982 6.52875C7.94378 6.56853 8.02646 6.62351 8.12279 6.69449C9.02006 7.35425 9.62129 8.34093 9.79625 9.44082ZM14.247 9.44079H18.3283C17.8595 8.31761 17.1028 7.33791 16.1346 6.60047C16.0738 6.63947 15.9977 6.69017 15.9115 6.75374C15.0306 7.40096 14.4342 8.36382 14.247 9.44079ZM9.84688 9.93492C9.89574 10.9715 9.57064 11.9911 8.93079 12.808H8.93157C8.26819 13.6566 7.19571 14.4627 5.50353 14.522C5.43411 14.3408 5.3734 14.1562 5.3214 13.9682C6.07721 13.9269 7.16802 13.6917 7.88639 12.7713L7.45271 12.2683C7.45271 12.2683 6.81001 13.3357 5.17945 13.3602C4.96651 12.2176 5.04415 11.0397 5.40525 9.93492H9.84688ZM16.0237 6.08142C16.5386 5.47704 17.3335 5.18804 18.1164 5.32055C19.3437 5.52607 20.1732 6.67889 19.9692 7.89489C19.8528 8.58855 19.415 9.1862 18.7887 9.50634C18.5789 8.81839 18.006 7.16833 16.0237 6.08142ZM16.1844 12.6465L16.6524 12.1481C16.6524 12.1481 17.2331 13.1418 18.7646 13.2113C18.8252 12.8402 18.8555 12.4648 18.8555 12.0889C18.8561 11.3572 18.7401 10.6301 18.5119 9.93492H14.19C14.1257 10.9911 14.4505 12.0343 15.103 12.8673C15.748 13.6929 16.7799 14.4787 18.3937 14.5735C18.4895 14.3257 18.5708 14.0726 18.6371 13.8153C17.8891 13.7615 16.8712 13.5131 16.1844 12.6465ZM11.6235 15.4135V15.9057C11.6273 16.5983 11.3753 17.268 10.9156 17.7862C10.5915 18.1455 10.194 18.4309 9.74992 18.6231C8.02788 18.0386 6.60535 16.7993 5.79033 15.1737C6.41939 15.1183 7.69427 14.8929 8.76714 13.9924C9.75148 14.9311 10.7304 15.3269 11.6235 15.4135ZM10.8497 18.8958C11.6333 19.0222 12.4327 19.0138 13.2134 18.8708C12.7138 18.3331 12.3126 17.7118 12.0282 17.0351C11.7482 17.72 11.3492 18.3499 10.8497 18.8958ZM12.4383 15.9189V15.412C13.8439 15.2708 14.9374 14.4615 15.3461 14.118C16.3277 14.905 17.4583 15.1468 18.1057 15.2201C17.3091 16.7797 15.9507 17.9792 14.3044 18.5767C13.851 18.3831 13.4454 18.0925 13.1161 17.7254C12.6754 17.2273 12.434 16.584 12.4383 15.9189Z" fill="url(#paint0_linear_300_17575)"/>
<defs>
<linearGradient id="paint0_linear_300_17575" x1="1.46824" y1="11.9602" x2="12.033" y2="23.7395" gradientUnits="userSpaceOnUse">
<stop stop-color="#EA3570"/>
<stop offset="0.88" stop-color="#138FC9"/>
</linearGradient>
</defs>
</svg>
