<svg width="24" height="24" viewBox="0 0 24 24" fill="none" xmlns="http://www.w3.org/2000/svg">
<circle cx="12" cy="12" r="12" fill="#14C8FF"/>
<path fill-rule="evenodd" clip-rule="evenodd" d="M19.3789 10.2733C19.4839 9.68909 19.1847 8.89334 18.7099 8.50859L14.1694 4.8201C13.6947 4.4361 12.8344 4.2876 12.2547 4.4916L6.68965 6.4461C6.1099 6.6501 5.5474 7.29659 5.44165 7.88459L4.42165 13.5276C4.3144 14.1156 4.6144 14.9076 5.08915 15.2923L9.63266 18.9801C10.1067 19.3648 10.9677 19.5118 11.5467 19.3086L17.1109 17.3548C17.6899 17.1516 18.2524 16.5043 18.3589 15.9163L19.3789 10.2733ZM14.2029 9.8946L13.9764 11.0421L11.8546 11.0391L11.4594 13.0356C11.3356 13.6543 11.3019 14.0031 11.9394 14.0031H13.3749L13.0749 15.2706H11.3589C10.3449 15.2706 9.6849 14.3241 9.9474 12.9891C10.0531 12.4648 10.3674 11.0443 10.3674 11.0443H9.43889L9.63165 10.0551C10.4766 9.72872 11.1976 9.14495 11.6926 8.38635H12.3789L12.0789 9.89835L14.2029 9.8946Z" fill="white"/>
</svg>
