<svg width="24" height="24" viewBox="0 0 24 24" fill="none" xmlns="http://www.w3.org/2000/svg">
<circle cx="12" cy="12" r="12" fill="#0899CD"/>
<path fill-rule="evenodd" clip-rule="evenodd" d="M6.22491 6.2251C4.63735 7.81719 3.82999 9.73298 3.7998 11.9717L3.80056 11.9725C3.80282 11.7997 3.81037 11.6292 3.82169 11.4601C3.85262 11.4615 3.8834 11.4653 3.91374 11.4715L7.45331 5.33247C7.42917 5.30531 7.4088 5.27512 7.39144 5.24494C7.74834 4.99368 8.11958 4.77562 8.50515 4.59C8.52557 4.62402 8.54275 4.6599 8.55646 4.69714H15.6432C15.6569 4.65992 15.6741 4.62405 15.6945 4.59C16.0835 4.77814 16.4563 4.99821 16.8089 5.24796C16.7916 5.27668 16.7719 5.30394 16.7501 5.32945L20.2859 11.4715C20.316 11.4654 20.3465 11.4616 20.3772 11.4601C20.3849 11.5666 20.3907 11.6733 20.3945 11.78C20.3977 11.8757 20.3995 11.9721 20.3998 12.0691C20.3997 11.9727 20.3979 11.8763 20.3945 11.78C20.3218 9.62375 19.5125 7.77192 17.9664 6.22585C16.3494 4.60886 14.3936 3.79999 12.0998 3.79999C9.80599 3.79999 7.84794 4.60886 6.22491 6.2251ZM7.3951 18.955C6.97757 18.6598 6.58627 18.3291 6.22556 17.9666C4.764 16.505 3.96343 14.7673 3.82233 12.7542C3.85299 12.753 3.88351 12.7495 3.91363 12.7436L7.4532 18.8743C7.43158 18.8995 7.41214 18.9265 7.3951 18.955ZM17.9663 17.9666C19.4324 16.505 20.236 14.7681 20.3771 12.7542C20.3454 12.7527 20.3152 12.7489 20.2851 12.7436L16.7462 18.8743C16.7672 18.8987 16.7866 18.9244 16.8043 18.9513C17.2095 18.6653 17.5966 18.3371 17.9663 17.9666ZM12.0999 20.4C13.7078 20.4 15.1505 20.0016 16.4257 19.2041C16.1865 19.3527 15.942 19.4885 15.6907 19.6093C15.6719 19.5781 15.656 19.5453 15.6432 19.5112H8.55651C8.54343 19.5453 8.52727 19.5781 8.50822 19.6093C8.31581 19.5172 8.12718 19.4169 7.94156 19.3074C9.17675 20.0356 10.5628 20.4 12.0999 20.4ZM19.9063 11.691L19.906 11.6913L16.4731 5.74068V11.4964C16.5618 11.5302 16.6422 11.583 16.7085 11.651C16.7764 11.7171 16.8292 11.7972 16.8632 11.8857H19.7885C19.8156 11.8143 19.8554 11.7485 19.906 11.6913L19.9063 11.6918V11.691ZM19.9063 12.5218C19.8556 12.4645 19.8157 12.3986 19.7885 12.3271H16.8632C16.8293 12.4158 16.7765 12.4962 16.7085 12.5625C16.6421 12.6303 16.5618 12.6828 16.4731 12.7164V18.4661L19.9063 12.5218ZM4.41084 11.8865C4.38369 11.815 4.34381 11.749 4.29313 11.6918L7.72631 5.74068V11.4971C7.63755 11.531 7.55721 11.5838 7.49089 11.6518C7.42297 11.7179 7.3702 11.798 7.33621 11.8865H4.41084ZM8.55725 5.13779C8.55525 5.14306 8.55273 5.14812 8.5497 5.15288L13.1622 9.1482C13.2931 9.07173 13.4474 9.0457 13.5961 9.07501L15.7616 5.33246C15.7113 5.27501 15.6714 5.2091 15.6439 5.13779H8.55725ZM8.55715 11.8865C8.52318 11.798 8.4704 11.7179 8.40247 11.6518C8.33613 11.5838 8.2558 11.531 8.16705 11.4971V5.74068L11.604 11.6842C11.5543 11.7442 11.516 11.8127 11.4908 11.8865H8.55715ZM14.0898 9.94142L14.0896 9.942V9.94124L14.0898 9.94142ZM15.9383 11.5409L14.0898 9.94142C14.1168 9.8674 14.1303 9.78914 14.1296 9.71035C14.1314 9.55828 14.0777 9.41077 13.9787 9.29535L16.0341 5.74144V11.4964C16.0009 11.5084 15.9689 11.5233 15.9383 11.5409ZM12.8801 9.47944C12.8502 9.55272 12.835 9.63118 12.8356 9.71033C12.8356 9.86878 12.8869 10.0076 12.9902 10.1261L12.2146 11.4639C12.1394 11.4489 12.0619 11.4489 11.9867 11.4639L8.79196 5.94288L12.8793 9.47944H12.8801ZM12.5972 11.685C12.6479 11.7446 12.6875 11.8129 12.7142 11.8864V11.8872H15.6441C15.647 11.8824 15.6495 11.8773 15.6516 11.8721L13.803 10.2732C13.6721 10.3497 13.5178 10.3757 13.3691 10.3464L12.5972 11.685ZM15.7987 12.5633C15.8651 12.6313 15.9454 12.6841 16.0342 12.718V18.4661L12.5972 12.512C12.6443 12.4574 12.6815 12.3951 12.7074 12.3279H15.6441C15.678 12.4166 15.7308 12.4969 15.7987 12.5633ZM12.2144 12.7361C12.1416 12.7484 12.0673 12.7497 11.9941 12.7399L11.2146 14.089C11.3137 14.2044 11.3674 14.3519 11.3655 14.504C11.366 14.583 11.3522 14.6615 11.3248 14.7356L15.4084 18.2677L12.2144 12.7361ZM15.6514 19.0547C15.6493 19.0599 15.6468 19.0649 15.6439 19.0697H8.5572C8.53117 18.9983 8.49259 18.9321 8.44326 18.8743L10.6043 15.1393C10.753 15.1687 10.9073 15.1427 11.0381 15.0661L15.6514 19.0547ZM10.3983 13.9411C10.5292 13.8645 10.6835 13.8385 10.8322 13.8679L11.6079 12.5188C11.5573 12.4599 11.5196 12.3958 11.4939 12.3279H8.55725C8.5552 12.3331 8.55267 12.3382 8.5497 12.343L10.3983 13.9411ZM10.1153 14.2723L10.1151 14.2729L8.26288 12.6734C8.23225 12.6908 8.20019 12.7054 8.16705 12.7172V18.4699L10.2262 14.919C10.1228 14.8005 10.0715 14.6624 10.0715 14.504C10.0706 14.4248 10.0854 14.3463 10.1151 14.2729L10.1153 14.2731V14.2723ZM7.72631 12.718C7.63757 12.6841 7.55725 12.6313 7.49089 12.5633C7.4229 12.4969 7.37013 12.4166 7.33621 12.3279H4.41084C4.38368 12.3993 4.3438 12.4653 4.29313 12.5225L7.72631 18.4661V12.718Z" fill="white"/>
</svg>
