<svg width="24" height="24" viewBox="0 0 24 24" fill="none" xmlns="http://www.w3.org/2000/svg">
<circle cx="12" cy="12" r="12" fill="#EDF0F4"/>
<path d="M19.9855 18.3731V18.3652C19.9858 18.3616 19.9858 18.3581 19.9855 18.3546L12.1779 5.50851L12.1673 5.49259C12.138 5.44732 12.0919 5.41558 12.0391 5.40439C11.9864 5.39319 11.9313 5.40345 11.8861 5.43291C11.8623 5.44777 11.8416 5.46714 11.8251 5.48994L11.8145 5.50718C11.2911 6.37189 10.7641 7.2344 10.2336 8.09469C10.1264 8.24897 10.1264 8.45367 10.2336 8.60795C10.9348 9.74853 11.6337 10.8895 12.3304 12.031C12.4469 12.1979 12.4469 12.4198 12.3304 12.5867C11.1819 14.4753 9.96838 16.4607 8.80924 18.3572C8.75627 18.4569 8.79357 18.5806 8.89279 18.6344C8.92214 18.6502 8.95496 18.6584 8.98828 18.6583H12.3556C12.431 18.6588 12.5005 18.6174 12.536 18.5508L12.6514 18.3572L14.2124 15.7922C14.2382 15.7445 14.282 15.7091 14.3341 15.6939C14.3861 15.6787 14.4422 15.685 14.4896 15.7113C14.518 15.7263 14.5421 15.7482 14.5599 15.775L16.1063 18.2949L16.2495 18.5296C16.2855 18.5948 16.354 18.6354 16.4285 18.6357H16.5227C16.5386 18.6371 16.5546 18.6371 16.5704 18.6357H19.7959C19.9082 18.6357 19.9994 18.5451 20.0001 18.4328C19.9983 18.4123 19.9933 18.3922 19.9855 18.3731Z" fill="black"/>
<path d="M11.0094 12.714L11.1221 12.5283C11.2173 12.3916 11.2173 12.2101 11.1221 12.0734L10.4298 10.9514L9.63403 9.66889C9.60579 9.62253 9.56015 9.58941 9.50731 9.57695C9.45448 9.56449 9.39885 9.57372 9.35287 9.60258C9.32226 9.62084 9.29708 9.64693 9.27992 9.67818L4.024 18.3585C3.97115 18.4578 4.0085 18.5811 4.10755 18.6343C4.13696 18.6513 4.17041 18.66 4.20437 18.6595H7.29187C7.36645 18.6595 7.43508 18.6188 7.47092 18.5534L7.58895 18.3572C7.59428 18.3499 7.59915 18.3424 7.60354 18.3346L7.73617 18.1224C8.83563 16.2988 9.88867 14.5574 10.9908 12.7431C10.9976 12.7338 11.0038 12.7241 11.0094 12.714Z" fill="black"/>
</svg>
