<svg width="24" height="24" viewBox="0 0 24 24" fill="none" xmlns="http://www.w3.org/2000/svg">
<circle cx="12" cy="12" r="12" fill="#1B2D45"/>
<path fill-rule="evenodd" clip-rule="evenodd" d="M18.792 11.0268V8.08067L12.0003 4.15082L8.49127 6.18151L11.269 7.80711L10.5798 8.24902L7.77579 6.59711L5.2085 8.08594L5.21902 15.9404L8.73853 17.9553V14.7672L9.41192 15.1565V18.3393L12.0423 19.8597L18.7973 15.9141V11.8211L16.0616 13.4257V12.6471L18.792 11.0268ZM8.71758 10.1061L9.0911 9.90096L11.8583 11.5003L14.8044 9.85361L15.2463 10.1061V10.548L12.458 12.1684V15.4827L12.0003 15.7931L11.6426 15.5406V12.3683L8.71758 10.6585V10.1061ZM10.2062 13.9436L10.2114 13.9465H10.2062V13.9436ZM10.2062 13.1416V13.9436L7.31795 12.3525V15.5248L6.56564 15.0987L6.54986 8.90137L7.70725 8.2122L8.41746 8.65411L7.28638 9.33802L7.29164 11.4318L10.2062 13.1416ZM17.4295 14.2727V15.1302L11.9793 18.2657L10.8324 17.587V16.7716L12.0003 17.4292L13.8732 16.3455V12.9733L14.5781 12.5208L14.5992 15.9141L17.4295 14.2727ZM11.8791 9.89041L14.7884 8.20694L16.6507 9.32224V10.6638L17.4083 10.2166V8.9119L12.0001 5.77643L11.2794 6.1973L14.0729 7.81238L11.232 9.49059L11.8791 9.89041Z" fill="#719CD0"/>
</svg>
