<svg width="24" height="24" viewBox="0 0 24 24" fill="none" xmlns="http://www.w3.org/2000/svg">
<path d="M12 0C18.6264 0 24 5.3736 24 12C24 18.6264 18.6264 24 12 24C5.3736 24 0 18.6264 0 12C0 5.3736 5.3736 0 12 0Z" fill="url(#paint0_linear_300_8588)"/>
<path d="M16.608 8.32801C16.4568 8.50801 16.4664 8.90641 16.224 8.78401C16.224 8.78401 14.5368 8.13841 15.576 6.24001C15.8568 5.80081 16.1472 5.77201 16.104 4.70401C16.3632 5.09761 17.2128 5.88721 17.28 7.12801C17.3472 7.95601 16.8528 8.06641 16.608 8.32801Z" fill="white"/>
<path d="M15.2638 11.28C15.679 11.1408 16.351 10.92 16.3918 9.50399C17.0326 10.4856 19.207 11.8632 18.1678 16.08C17.7454 17.724 16.171 18.5232 14.6878 19.128C13.7614 19.5216 12.8158 20.1792 12.4318 21.168C12.4318 21.168 5.42136 20.2824 5.63976 13.32C5.81496 9.70799 9.19896 8.32799 10.6318 5.68799C11.395 4.02239 11.1358 2.35199 11.1358 2.35199C11.1358 2.35199 15.5998 5.12879 13.5838 9.40799C12.9286 10.92 14.4934 11.4312 15.2638 11.28Z" fill="white"/>
<path d="M8.37598 12.528V14.856H10.848V17.328H13.176V14.856H15.648V12.528H8.37598Z" fill="url(#paint1_linear_300_8588)"/>
<defs>
<linearGradient id="paint0_linear_300_8588" x1="0" y1="24" x2="24" y2="24" gradientUnits="userSpaceOnUse">
<stop stop-color="#FFA50D"/>
<stop offset="1" stop-color="#FE5413"/>
</linearGradient>
<linearGradient id="paint1_linear_300_8588" x1="8.37598" y1="17.328" x2="15.648" y2="17.328" gradientUnits="userSpaceOnUse">
<stop stop-color="#FFA50D"/>
<stop offset="1" stop-color="#FE5413"/>
</linearGradient>
</defs>
</svg>
