<svg width="24" height="24" viewBox="0 0 24 24" fill="none" xmlns="http://www.w3.org/2000/svg">
<path d="M12 0C18.628 0 24 5.37305 24 12C24 18.628 18.628 24 12 24C5.37305 24 0 18.6275 0 12C0 5.37305 5.37305 0 12 0Z" fill="#29BCE1"/>
<path fill-rule="evenodd" clip-rule="evenodd" d="M7.63193 3.8H16.3677L17.1998 4.62451V19.5755L16.3677 20.4H7.63193L6.7998 19.5755V4.62451L7.63193 3.8ZM15.5357 18.751V5.44902H8.46424V18.751H15.5357Z" fill="white"/>
<path fill-rule="evenodd" clip-rule="evenodd" d="M12.8083 9.88014H14.6V11.4995H9.39996V9.88014H11.1916V8H12.8083V9.88014ZM12.8082 14.5199H14.5999V12.9005H9.3999V14.5199H11.1916V16.4H12.8082V14.5199Z" fill="white"/>
</svg>
