<svg width="24" height="24" viewBox="0 0 24 24" fill="none" xmlns="http://www.w3.org/2000/svg">
<circle cx="12" cy="12" r="12" fill="#EDF0F4"/>
<circle cx="8.8795" cy="12.0795" r="4.8795" fill="url(#paint0_linear_300_17481)"/>
<ellipse cx="8.31439" cy="13.3646" rx="0.365663" ry="0.365664" fill="black"/>
<ellipse cx="9.39447" cy="13.3646" rx="0.365663" ry="0.365664" fill="black"/>
<ellipse cx="10.4741" cy="13.3646" rx="0.365663" ry="0.365664" fill="black"/>
<ellipse cx="11.5546" cy="13.3646" rx="0.365662" ry="0.365664" fill="black"/>
<ellipse cx="12.6352" cy="13.3646" rx="0.365665" ry="0.365664" fill="black"/>
<ellipse cx="13.7148" cy="13.3646" rx="0.365662" ry="0.365664" fill="black"/>
<ellipse cx="14.7954" cy="13.3646" rx="0.365663" ry="0.365664" fill="black"/>
<ellipse cx="15.8754" cy="13.3646" rx="0.365662" ry="0.365664" fill="black"/>
<circle cx="16.955" cy="13.3646" r="0.365664" fill="black"/>
<ellipse cx="17.5565" cy="14.4593" rx="0.251768" ry="0.251768" fill="black"/>
<ellipse cx="16.4402" cy="14.4593" rx="0.251766" ry="0.251768" fill="black"/>
<ellipse cx="15.324" cy="14.4593" rx="0.251768" ry="0.251768" fill="black"/>
<ellipse cx="14.2083" cy="14.4593" rx="0.251767" ry="0.251768" fill="black"/>
<ellipse cx="13.0921" cy="14.4593" rx="0.251768" ry="0.251768" fill="black"/>
<ellipse cx="11.9759" cy="14.4593" rx="0.251768" ry="0.251768" fill="black"/>
<ellipse cx="10.8597" cy="14.4593" rx="0.251767" ry="0.251768" fill="black"/>
<ellipse cx="9.74347" cy="14.4593" rx="0.251769" ry="0.251768" fill="black"/>
<ellipse cx="8.62774" cy="14.4593" rx="0.251769" ry="0.251768" fill="black"/>
<ellipse cx="18.1491" cy="15.2288" rx="0.244275" ry="0.244274" fill="black"/>
<ellipse cx="17.0172" cy="15.2288" rx="0.244277" ry="0.244274" fill="black"/>
<ellipse cx="15.8849" cy="15.2288" rx="0.244275" ry="0.244274" fill="black"/>
<ellipse cx="14.7536" cy="15.2288" rx="0.244277" ry="0.244274" fill="black"/>
<ellipse cx="13.6212" cy="15.2288" rx="0.244275" ry="0.244274" fill="black"/>
<circle cx="12.4889" cy="15.2288" r="0.244274" fill="black"/>
<ellipse cx="11.3576" cy="15.2288" rx="0.244275" ry="0.244274" fill="black"/>
<ellipse cx="10.2252" cy="15.2288" rx="0.244275" ry="0.244274" fill="black"/>
<ellipse cx="9.0934" cy="15.2288" rx="0.244275" ry="0.244274" fill="black"/>
<ellipse cx="18.938" cy="16.0052" rx="0.186579" ry="0.186578" fill="black"/>
<ellipse cx="17.7911" cy="16.0052" rx="0.186577" ry="0.186578" fill="black"/>
<ellipse cx="16.6436" cy="16.0052" rx="0.186577" ry="0.186578" fill="black"/>
<ellipse cx="15.4971" cy="16.0052" rx="0.186577" ry="0.186578" fill="black"/>
<ellipse cx="14.3502" cy="16.0052" rx="0.186579" ry="0.186578" fill="black"/>
<circle cx="13.2032" cy="16.0052" r="0.186578" fill="black"/>
<circle cx="12.0557" cy="16.0052" r="0.186578" fill="black"/>
<ellipse cx="10.9092" cy="16.0052" rx="0.186578" ry="0.186578" fill="black"/>
<ellipse cx="9.76226" cy="16.0052" rx="0.186576" ry="0.186578" fill="black"/>
<ellipse cx="19.857" cy="16.6968" rx="0.143119" ry="0.143118" fill="black"/>
<circle cx="18.7007" cy="16.6968" r="0.143118" fill="black"/>
<ellipse cx="17.5435" cy="16.6968" rx="0.143119" ry="0.143118" fill="black"/>
<ellipse cx="16.3877" cy="16.6968" rx="0.143119" ry="0.143118" fill="black"/>
<circle cx="15.231" cy="16.6968" r="0.143118" fill="black"/>
<ellipse cx="14.0743" cy="16.6968" rx="0.143117" ry="0.143118" fill="black"/>
<ellipse cx="12.9185" cy="16.6968" rx="0.143119" ry="0.143118" fill="black"/>
<ellipse cx="11.7623" cy="16.6968" rx="0.143118" ry="0.143118" fill="black"/>
<ellipse cx="10.6055" cy="16.6968" rx="0.143117" ry="0.143118" fill="black"/>
<ellipse cx="7.78839" cy="12.3312" rx="0.251769" ry="0.251766" fill="black"/>
<ellipse cx="8.90411" cy="12.3312" rx="0.25177" ry="0.251766" fill="black"/>
<ellipse cx="10.0208" cy="12.3312" rx="0.251767" ry="0.251766" fill="black"/>
<ellipse cx="11.1365" cy="12.3312" rx="0.251768" ry="0.251766" fill="black"/>
<ellipse cx="12.2532" cy="12.3312" rx="0.251768" ry="0.251766" fill="black"/>
<ellipse cx="13.3694" cy="12.3312" rx="0.251769" ry="0.251766" fill="black"/>
<ellipse cx="14.4852" cy="12.3312" rx="0.251768" ry="0.251766" fill="black"/>
<ellipse cx="15.6019" cy="12.3312" rx="0.251768" ry="0.251766" fill="black"/>
<ellipse cx="16.7176" cy="12.3312" rx="0.251768" ry="0.251766" fill="black"/>
<ellipse cx="7.19594" cy="11.5617" rx="0.244275" ry="0.244275" fill="black"/>
<circle cx="8.32826" cy="11.5617" r="0.244275" fill="black"/>
<ellipse cx="9.46009" cy="11.5617" rx="0.244274" ry="0.244275" fill="black"/>
<ellipse cx="10.5919" cy="11.5617" rx="0.244276" ry="0.244275" fill="black"/>
<ellipse cx="11.7238" cy="11.5617" rx="0.244276" ry="0.244275" fill="black"/>
<ellipse cx="12.8556" cy="11.5617" rx="0.244274" ry="0.244275" fill="black"/>
<ellipse cx="13.9874" cy="11.5617" rx="0.244277" ry="0.244275" fill="black"/>
<circle cx="15.1198" cy="11.5617" r="0.244275" fill="black"/>
<ellipse cx="16.2511" cy="11.5617" rx="0.244274" ry="0.244275" fill="black"/>
<circle cx="6.40679" cy="10.7855" r="0.186579" fill="black"/>
<ellipse cx="7.55425" cy="10.7855" rx="0.186578" ry="0.186579" fill="black"/>
<ellipse cx="8.70123" cy="10.7855" rx="0.186578" ry="0.186579" fill="black"/>
<circle cx="9.84771" cy="10.7855" r="0.186579" fill="black"/>
<ellipse cx="10.9947" cy="10.7855" rx="0.186578" ry="0.186579" fill="black"/>
<ellipse cx="12.1421" cy="10.7855" rx="0.186578" ry="0.186579" fill="black"/>
<ellipse cx="13.2891" cy="10.7855" rx="0.186578" ry="0.186579" fill="black"/>
<circle cx="14.4356" cy="10.7855" r="0.186579" fill="black"/>
<ellipse cx="15.5831" cy="10.7855" rx="0.186577" ry="0.186579" fill="black"/>
<circle cx="5.48833" cy="10.0939" r="0.143118" fill="black"/>
<ellipse cx="6.64409" cy="10.0939" rx="0.143118" ry="0.143118" fill="black"/>
<ellipse cx="7.80034" cy="10.0939" rx="0.143118" ry="0.143118" fill="black"/>
<circle cx="8.95757" cy="10.0939" r="0.143118" fill="black"/>
<circle cx="10.1133" cy="10.0939" r="0.143118" fill="black"/>
<circle cx="11.2706" cy="10.0939" r="0.143118" fill="black"/>
<ellipse cx="12.4268" cy="10.0939" rx="0.143118" ry="0.143118" fill="black"/>
<ellipse cx="13.5831" cy="10.0939" rx="0.143117" ry="0.143118" fill="black"/>
<ellipse cx="14.7398" cy="10.0939" rx="0.143119" ry="0.143118" fill="black"/>
<defs>
<linearGradient id="paint0_linear_300_17481" x1="1.69812" y1="16.9729" x2="11.4848" y2="16.9729" gradientUnits="userSpaceOnUse">
<stop stop-color="#3B007F"/>
<stop offset="1" stop-color="#AA003D"/>
</linearGradient>
</defs>
</svg>
