<svg width="24" height="24" viewBox="0 0 24 24" fill="none" xmlns="http://www.w3.org/2000/svg">
<path fill-rule="evenodd" clip-rule="evenodd" d="M12 0C18.6264 0 24 5.3736 24 12C24 18.6264 18.6264 24 12 24C5.3736 24 0 18.6264 0 12C0 5.3736 5.3736 0 12 0Z" fill="#070510"/>
<path fill-rule="evenodd" clip-rule="evenodd" d="M21.1199 8.592C20.8871 9.48 19.9295 10.7016 18.6407 11.4888C18.6455 11.5992 18.6479 11.7096 18.6479 11.82C18.6479 15.4848 15.6767 18.456 12.0119 18.456C10.1183 18.456 8.41194 17.664 7.20234 16.392C6.48714 16.5648 1.96314 17.5536 2.73594 14.568C3.15114 13.3248 4.55034 12.3768 5.37594 11.9112C5.37594 11.88 5.37594 11.8488 5.37594 11.82C5.37594 8.1552 8.34714 5.184 12.0119 5.184C13.8719 5.184 15.5543 5.9496 16.7591 7.1856C17.8367 6.9696 21.4679 6.4008 21.1199 8.592ZM12.036 6.888C9.31201 6.888 7.10401 9.096 7.10401 11.82C7.10401 12.1656 7.14001 12.5016 7.20721 12.828L7.20001 12.84C7.20001 12.84 6.05521 13.5456 5.27521 14.1864C5.05441 14.3784 4.84321 14.5824 4.66081 14.796C4.64641 14.8176 4.63441 14.8368 4.62241 14.856C4.80481 14.8584 5.00401 14.8584 5.22481 14.8464C6.30481 14.7408 8.37601 14.3496 11.4768 13.0896C11.4744 13.0512 11.4744 13.0128 11.4744 12.972C11.4744 11.8128 12.4152 10.872 13.5744 10.872C14.1408 10.872 14.6568 11.0976 15.0336 11.4624C15.5856 11.184 16.1592 10.884 16.7544 10.56C16.7712 10.5528 16.788 10.548 16.8024 10.5432C16.2384 8.4384 14.3184 6.888 12.036 6.888ZM12.5278 12.972C12.5278 13.548 12.9958 14.016 13.5718 14.016C14.1478 14.016 14.6158 13.548 14.6158 12.972C14.6158 12.396 14.1478 11.928 13.5718 11.928C12.9958 11.928 12.5278 12.396 12.5278 12.972ZM15.6575 13.2144C15.5375 14.2608 14.6495 15.072 13.5719 15.072C13.1111 15.072 12.6863 14.9232 12.3407 14.6736C11.1791 15.1464 10.0103 15.5736 9.11507 15.7944C9.93347 16.3968 10.9439 16.7544 12.0359 16.7544C14.4863 16.7544 16.5215 14.9664 16.9031 12.6216C16.7207 12.708 16.2695 12.9288 15.6575 13.2144ZM17.9518 8.76C17.9518 8.76 18.199 9.144 18.2878 9.528C18.7414 9.0936 19.1278 8.712 19.1278 8.712L17.9518 8.76Z" fill="url(#paint0_linear_300_11933)"/>
<defs>
<linearGradient id="paint0_linear_300_11933" x1="2.6472" y1="18.4561" x2="21.1433" y2="18.4561" gradientUnits="userSpaceOnUse">
<stop stop-color="#06D6FE"/>
<stop offset="1" stop-color="#7A61FB"/>
</linearGradient>
</defs>
</svg>
