<svg width="24" height="24" viewBox="0 0 24 24" fill="none" xmlns="http://www.w3.org/2000/svg">
<circle cx="12" cy="12" r="12" fill="#EF494D"/>
<path fill-rule="evenodd" clip-rule="evenodd" d="M4.3999 8.49337C4.3999 8.33149 4.52966 8.20001 4.69017 8.20001H8.45835C10.1969 8.20001 11.2845 9.10897 11.2845 10.3926C11.2845 10.9284 11.043 11.4156 10.56 11.8541C11.2357 12.244 11.574 12.8284 11.574 13.6074C11.574 15.4352 9.83467 15.8 8.67511 15.8H4.68942C4.52952 15.8 4.3999 15.6687 4.3999 15.5066V14.6326C4.3999 14.47 4.52966 14.3385 4.68942 14.3385H8.67511C9.49641 14.3385 9.90743 14.0702 9.90743 13.5344C9.90743 12.9986 9.49641 12.706 8.67511 12.6574H4.68942C4.52982 12.6574 4.40032 12.5265 4.3999 12.3648V11.4908C4.3999 11.3282 4.52966 11.1967 4.68942 11.1967H8.67511C9.25489 11.0994 9.54516 10.8562 9.54516 10.4663C9.54516 9.93053 9.25489 9.66225 8.67511 9.66225H4.68942C4.6125 9.66225 4.53875 9.63124 4.48443 9.57606C4.43012 9.52088 4.3997 9.44607 4.3999 9.36813V8.49413V8.49337ZM12.2266 8.49337C12.2266 8.33149 12.3563 8.20001 12.5161 8.20001H16.357C16.5168 8.20001 16.6473 8.33149 16.6473 8.49337V15.5067C16.6473 15.5846 16.6167 15.6593 16.5622 15.7144C16.5078 15.7694 16.434 15.8002 16.357 15.8H15.2695C15.1096 15.8 14.98 15.6687 14.98 15.5067V9.95561C14.9802 9.87768 14.9498 9.80286 14.8954 9.74768C14.8411 9.6925 14.7674 9.66149 14.6905 9.66149H12.5153C12.3555 9.66149 12.2258 9.53015 12.2258 9.36813L12.2266 8.49337ZM19.1104 8.20001H17.6605C17.5008 8.20001 17.371 8.33149 17.371 8.49413V9.36813C17.371 9.53015 17.5006 9.66149 17.6605 9.66149H19.1104C19.1873 9.66149 19.261 9.63048 19.3153 9.5753C19.3697 9.52012 19.4001 9.44531 19.3999 9.36737V8.49337C19.3999 8.33149 19.2701 8.20001 19.1104 8.20001Z" fill="white"/>
</svg>
