<svg width="24" height="24" viewBox="0 0 24 24" fill="none" xmlns="http://www.w3.org/2000/svg">
<path fill-rule="evenodd" clip-rule="evenodd" d="M12 24C5.4 24 0 18.6001 0 11.9402C0.06 5.34038 5.4 -0.0595036 12.06 0.000495204C18.66 0.060494 24 5.40038 24 12.1202C23.94 18.6601 18.6 24 12 24Z" fill="#EDF0F4"/>
<path fill-rule="evenodd" clip-rule="evenodd" d="M15.1139 18.0292V7.59543C15.1139 7.42041 15.0224 7.26129 14.8712 7.17378L10.977 4.86665C10.8298 4.77914 10.6468 4.77914 10.4957 4.8587L9.25856 5.52697C9.09945 5.6105 9 5.77757 9 5.95657V16.6529C9 16.8279 9.09547 16.987 9.24662 17.0746L12.9977 19.2425C13.1489 19.33 13.3358 19.33 13.487 19.2425L14.8673 18.4549C15.0184 18.3673 15.1139 18.2043 15.1139 18.0292ZM9.69204 6.50946C9.62043 6.46968 9.53292 6.49355 9.49314 6.56515C9.48121 6.58901 9.47326 6.61288 9.47326 6.63675L9.45734 16.5176C9.45734 16.5892 9.49314 16.6529 9.55679 16.6887L13.0095 18.6696C13.0811 18.7094 13.1686 18.6855 13.2084 18.6139C13.2204 18.5901 13.2283 18.5662 13.2283 18.5423V8.82056C13.2283 8.64554 13.1328 8.48245 12.9817 8.39494L9.69204 6.50946ZM9.83545 6.87543L12.8109 8.58191C12.9342 8.64954 13.0097 8.78081 13.0097 8.92401V14.5645C13.0097 14.5805 13.0018 14.6003 12.9859 14.6083L9.75987 16.4381C9.73601 16.45 9.70816 16.4421 9.69225 16.4182C9.68827 16.4102 9.6843 16.4023 9.6843 16.3943L9.68827 6.96295C9.68827 6.91123 9.73203 6.86748 9.78374 6.86748C9.80363 6.8635 9.81954 6.86748 9.83545 6.87543Z" fill="black"/>
</svg>
