<svg width="24" height="24" viewBox="0 0 24 24" fill="none" xmlns="http://www.w3.org/2000/svg">
<path fill-rule="evenodd" clip-rule="evenodd" d="M12 24C5.4 24 0 18.6001 0 11.9402C0.06 5.34038 5.4 -0.0595036 12.06 0.000495204C18.66 0.060494 24 5.40038 24 12.1202C23.94 18.6601 18.6 24 12 24Z" fill="#EDF0F4"/>
<path d="M12.0218 12.628L11.7319 12.6396C11.0818 12.6396 10.5826 13.1391 10.4982 13.8C10.4566 14.1297 10.455 14.2357 10.4455 14.3486C10.4313 14.6123 10.3627 14.7231 10.096 14.5696C9.71449 14.3544 9.34923 14.1117 9.00309 13.8433C6.98921 11.956 7.179 8.86352 9.65154 7.16512C10.2315 6.76899 10.5762 6.32593 10.4313 5.58854C10.2262 4.55895 9.33681 4.0932 8.42793 4.61591C6.05239 5.98467 4.89572 8.08553 4.80029 10.4C4.80131 11.0663 4.88418 11.7299 5.04702 12.3759C5.04952 12.4115 5.05534 12.4468 5.06442 12.4813C5.47932 14.588 6.67183 16.1604 8.69205 17.171C9.12741 17.3768 9.5792 17.5458 10.0427 17.6763C10.1557 17.6974 10.2574 17.7583 10.3294 17.848C10.4013 17.9377 10.4388 18.0503 10.4349 18.1652C10.4405 18.3114 10.4563 18.457 10.4824 18.6009C10.6 19.2586 11.115 19.6706 11.8004 19.6764H12.0113V19.6638L12.0218 12.628Z" fill="#17A84B"/>
<path d="M15.6038 4.61856C14.6964 4.09585 13.8071 4.56159 13.6041 5.59119C13.4586 6.32963 13.8055 6.77111 14.3817 7.16776C16.8485 8.86617 17.0456 11.9587 15.0317 13.8459C14.6854 14.1143 14.3198 14.3569 13.9378 14.5717C13.6705 14.7257 13.6041 14.6123 13.5878 14.3512C13.5878 14.1673 13.5714 13.9837 13.5387 13.8027C13.4544 13.1449 12.9588 12.648 12.3051 12.6422L12.0151 12.6306V19.6632V19.6764H12.2355C12.9235 19.6764 13.437 19.2581 13.5562 18.6004C13.5819 18.4566 13.5974 18.3112 13.6025 18.1652C13.5988 18.0501 13.6364 17.9375 13.7086 17.8477C13.7807 17.7578 13.8826 17.6969 13.9958 17.6758C14.4591 17.5456 14.9105 17.3765 15.3454 17.1705C17.3635 16.1546 18.555 14.5859 18.9731 12.4813C18.9799 12.4434 18.9846 12.4086 18.9889 12.3759C19.1523 11.7299 19.2352 11.0663 19.2356 10.4C19.1381 8.08818 17.9787 5.98731 15.6038 4.61856Z" fill="#077FA2"/>
<path d="M11.9582 9.20743C11.1052 9.21639 10.5274 9.81559 10.5347 10.6843C10.5347 11.6074 11.1147 12.2045 11.9945 12.2055H12.0235V9.21059L11.9582 9.20743Z" fill="#17A84B"/>
<path d="M13.5108 10.6928C13.5068 10.2996 13.3484 9.92384 13.0699 9.64654C12.7913 9.36924 12.4149 9.21265 12.022 9.2106V12.2071C12.2189 12.2058 12.4136 12.1657 12.595 12.0891C12.7764 12.0125 12.9409 11.9009 13.0792 11.7606C13.2175 11.6204 13.3268 11.4543 13.401 11.2718C13.4752 11.0893 13.5126 10.894 13.5113 10.697L13.5108 10.6928Z" fill="#077FA2"/>
</svg>
