<svg width="24" height="24" viewBox="0 0 24 24" fill="none" xmlns="http://www.w3.org/2000/svg">
<circle cx="12" cy="12" r="12" fill="#895AF8"/>
<path fill-rule="evenodd" clip-rule="evenodd" d="M11.16 10.68C10.8254 10.4027 10.6237 9.99673 10.605 9.56253V9.50253C10.605 8.63253 12.0075 7.25253 12.0525 7.25253L12.0612 7.26106C12.1878 7.38493 13.5 8.66827 13.5 9.50253V9.57003C13.4866 9.95522 13.3255 10.3205 13.05 10.59L16.5 8.73753L12 6.53253L7.5 8.71503L11.16 10.68ZM13.3274 10.6875C13.4472 10.6803 13.5675 10.6803 13.6874 10.6875C14.2818 10.7277 14.7041 11.1786 15.0765 11.5762C15.3995 11.9211 15.6849 12.2258 16.0124 12.1875C15.3516 12.7276 14.5852 13.1236 13.7624 13.35C13.0571 13.4529 12.3768 13.0454 12.1349 12.375V15.375L16.4999 12.885V9L13.3274 10.6875ZM10.2675 13.3875C10.9748 13.4895 11.6558 13.0784 11.895 12.405L11.9025 15.435L7.5 12.8925V9L10.7025 10.725C10.5826 10.7178 10.4624 10.7178 10.3425 10.725C9.73329 10.7454 9.30686 11.205 8.93075 11.6103C8.61694 11.9485 8.33817 12.2489 8.0175 12.225C8.67824 12.7651 9.44465 13.1611 10.2675 13.3875Z" fill="white"/>
<path fill-rule="evenodd" clip-rule="evenodd" d="M12 3C7.02975 3 3 7.02975 3 12C3 16.9703 7.02975 21 12 21C16.9703 21 21 16.9703 21 12C21 7.02944 16.9706 3 12 3ZM6.97487 8.39248L11.9999 5.95498L17.0324 8.39248V13.185L11.9999 16.0875L6.97487 13.185V8.39248ZM12.0374 18.0375L17.0474 15.1425V14.865L12.0374 17.76L6.96739 14.835V15.1125L12.0374 18.0375ZM17.0474 14.58L12.0374 17.475L6.96739 14.55V14.25L12.0374 17.1825L17.0474 14.2875V14.58ZM12.0374 16.9125L17.0474 14.0175V13.7475L12.0374 16.6425L6.96739 13.71V13.9875L12.0374 16.9125Z" fill="white"/>
</svg>
