<svg width="24" height="24" viewBox="0 0 24 24" fill="none" xmlns="http://www.w3.org/2000/svg">
<path fill-rule="evenodd" clip-rule="evenodd" d="M12 24C5.4 24 0 18.6001 0 11.9402C0.06 5.34038 5.4 -0.0595036 12.06 0.000495204C18.66 0.060494 24 5.40038 24 12.1202C23.94 18.6601 18.6 24 12 24Z" fill="#EDF0F4"/>
<path fill-rule="evenodd" clip-rule="evenodd" d="M11.7237 6.02218C11.4565 6.08926 11.3199 6.21894 11.1829 6.53574C11.1345 6.64779 10.9559 7.02469 10.7862 7.37331L10.4775 8.00716L10.4784 8.15507C10.4798 8.3972 10.6392 8.72505 10.8868 8.99509C11.0075 9.12682 11.2785 9.31548 11.4486 9.38626C11.9991 9.61533 12.7097 9.37593 13.0962 8.83117C13.2999 8.54396 13.3927 8.27839 13.3766 8.02808C13.3677 7.88895 13.3493 7.84221 13.0973 7.31986C12.949 7.01225 12.7935 6.67502 12.7519 6.57044C12.6874 6.40836 12.6558 6.35983 12.5375 6.24176C12.413 6.11744 12.3825 6.09853 12.2403 6.05725C12.0237 5.99435 11.8748 5.98425 11.7237 6.02218ZM13.416 9.11182C13.2432 9.35256 13.1051 9.55905 13.109 9.57067C13.1153 9.58962 14.3839 10.1951 14.4835 10.2267C14.5222 10.239 14.5228 10.2359 14.4945 10.1693C14.4335 10.0254 13.7527 8.67273 13.7416 8.67341C13.7352 8.67379 13.5887 8.87106 13.416 9.11182ZM9.80689 9.40633C9.49007 10.0778 9.458 10.1525 9.48728 10.1505C9.52901 10.1476 10.7487 9.58964 10.7547 9.57067C10.7612 9.54996 10.1612 8.77347 10.1297 8.76192C10.1209 8.75868 9.97564 9.04867 9.80689 9.40633ZM11.3853 9.97395C10.8478 10.0575 10.2586 10.2824 9.68397 10.6235L9.48325 10.7426L11.8021 10.7429C13.0854 10.7431 14.1209 10.7351 14.1209 10.7251C14.1209 10.6973 13.8275 10.4787 13.6342 10.3625C13.3026 10.1632 12.8237 10.0151 12.3417 9.96269C12.0653 9.93267 11.6171 9.93793 11.3853 9.97395ZM10.9623 11.2079L9.0819 11.2187L8.99468 11.2653C8.86493 11.3347 8.74554 11.4843 8.66409 11.6795L8.59185 11.8525L10.1151 11.8631C10.9529 11.8689 11.6503 11.8813 11.6648 11.8907C11.6858 11.9043 11.6912 12.5348 11.6912 14.9267C11.6912 16.8777 11.6986 17.9501 11.712 17.9584C11.7234 17.9654 11.8119 17.9768 11.9087 17.9836C12.1088 17.9977 12.1576 17.9812 12.2205 17.878C12.2606 17.8122 12.2616 17.7442 12.2616 14.8369L12.2617 11.8631L12.9959 11.8601C13.3997 11.8585 14.0852 11.8514 14.5191 11.8443L15.3082 11.8314L15.1828 11.6405C15.0457 11.4318 14.931 11.321 14.768 11.2398L14.662 11.187L13.7524 11.192C13.2521 11.1948 11.9966 11.2019 10.9623 11.2079ZM8.55342 12.3687C8.38832 12.3967 8.32984 12.4566 8.18598 12.7447C7.99231 13.1326 7.90893 13.5019 7.90912 13.9714C7.90919 14.1424 7.92349 14.3768 7.9409 14.4923C8.04107 15.157 8.3392 15.8773 8.72902 16.3967C9.10628 16.8994 9.68313 17.3537 10.2531 17.597C10.5078 17.7058 11.1342 17.9338 11.2454 17.9582L11.314 17.9733L11.3009 15.2932C11.2937 13.8192 11.2829 12.573 11.2769 12.5239C11.2693 12.4615 11.2496 12.4219 11.2115 12.3919C11.1581 12.3499 11.1328 12.3491 9.8975 12.3517C9.20474 12.3531 8.5999 12.3608 8.55342 12.3687ZM12.9648 12.3887C12.7981 12.3989 12.7404 12.4104 12.7113 12.4395C12.6782 12.4727 12.6723 12.5339 12.6625 12.9466C12.6473 13.5819 12.6494 17.9836 12.6649 17.9991C12.6854 18.0196 13.5863 17.6804 13.8357 17.5584C14.7323 17.1196 15.4351 16.3377 15.7739 15.4021C15.9601 14.8878 16.021 14.5889 16.0366 14.1132C16.0501 13.7034 16.0245 13.5026 15.9147 13.1577C15.8455 12.9402 15.704 12.635 15.6188 12.5193C15.5146 12.3776 15.5605 12.3826 14.3111 12.3789C13.6894 12.3771 13.0836 12.3815 12.9648 12.3887ZM16.3638 14.2242C16.2796 14.6167 16.1436 15.3716 16.155 15.383C16.1722 15.4002 16.9095 15.1969 16.9098 15.1748C16.9102 15.1508 16.4079 14.1238 16.3958 14.1238C16.39 14.1238 16.3756 14.169 16.3638 14.2242ZM7.40395 14.3826C7.38237 14.432 7.27781 14.657 7.17153 14.8826C7.06528 15.1083 6.98579 15.3001 6.99492 15.3089C7.00405 15.3177 7.14937 15.3623 7.31787 15.408C7.75816 15.5275 7.74043 15.5241 7.74043 15.4869C7.74043 15.4692 7.68339 15.1981 7.61366 14.8844C7.54394 14.5708 7.48689 14.3094 7.48689 14.3035C7.48689 14.2976 7.47705 14.2929 7.46501 14.2929C7.45298 14.2929 7.4255 14.3333 7.40395 14.3826ZM16.668 15.7211C16.1109 15.8446 15.6697 16.2537 15.538 16.7691C15.4768 17.0083 15.4665 17.1757 15.5013 17.367C15.5459 17.6127 15.6113 17.7683 15.7157 17.8773L15.8061 17.9716L16.7258 17.9651L17.6456 17.9586L17.7367 17.8946C17.7867 17.8594 17.856 17.7847 17.8907 17.7287C17.9446 17.6415 17.9535 17.6067 17.9524 17.4864C17.9507 17.3023 17.9209 17.2273 17.5434 16.4585C17.3345 16.0332 17.2101 15.804 17.1653 15.7619C17.1066 15.7069 17.081 15.6985 16.9565 15.6939C16.8784 15.691 16.7486 15.7033 16.668 15.7211ZM6.78942 15.8289C6.72318 15.8629 6.68665 15.9244 6.43907 16.4181C6.05878 17.1765 6.00503 17.3085 6.00063 17.4954C5.9975 17.6282 6.00424 17.6564 6.06125 17.7489C6.1045 17.8191 6.16269 17.8753 6.23991 17.9216L6.35443 17.9903L7.12654 17.989C7.5512 17.9884 7.94556 17.9801 8.00288 17.9707C8.23276 17.9329 8.36329 17.6669 8.36124 17.2402C8.36034 17.0476 8.35057 16.9789 8.30424 16.8388C8.13612 16.3304 7.75137 15.9828 7.20852 15.8489C6.97515 15.7913 6.87192 15.7864 6.78942 15.8289ZM8.80927 17.2244C8.79778 17.2611 8.72763 17.6769 8.70055 17.8688L8.68639 17.9692H9.28508H9.88377L9.44065 17.6395C8.81445 17.1736 8.8233 17.1795 8.80927 17.2244ZM14.5753 17.5167C14.3312 17.6977 14.1008 17.8665 14.0632 17.8917C14.0255 17.9169 13.9947 17.9422 13.9946 17.948C13.9945 17.9538 14.2678 17.9586 14.6018 17.9586C14.994 17.9586 15.2084 17.9511 15.207 17.9375C15.2006 17.8729 15.0384 17.1876 15.0295 17.1876C15.0237 17.1876 14.8193 17.3357 14.5753 17.5167Z" fill="black"/>
</svg>
