<svg width="24" height="24" viewBox="0 0 24 24" fill="none" xmlns="http://www.w3.org/2000/svg">
<path d="M12 0C11.8035 0 11.6072 0.00485542 11.4112 0.0145663C11.215 0.024277 11.0192 0.0385877 10.8237 0.0580093C10.6285 0.0771754 10.4335 0.101197 10.2393 0.130074C10.0451 0.158695 9.85161 0.192427 9.65893 0.230759C9.46625 0.269092 9.27484 0.312024 9.0842 0.359811C8.89382 0.407343 8.70446 0.45973 8.51663 0.516717C8.3288 0.573704 8.14225 0.635291 7.95724 0.701478C7.77248 0.767665 7.58925 0.838451 7.40781 0.913582C7.22637 0.988713 7.04698 1.06819 6.86937 1.15226C6.69177 1.23608 6.51646 1.3245 6.3432 1.41701C6.17019 1.50952 5.99923 1.60637 5.83083 1.70731C5.66242 1.80825 5.49657 1.91328 5.33328 2.0224C5.16998 2.13152 5.0095 2.24473 4.85157 2.36151C4.6939 2.47856 4.53904 2.59943 4.38724 2.72388C4.23544 2.84859 4.08697 2.97687 3.94131 3.10874C3.7959 3.2406 3.65356 3.37604 3.5148 3.5148C3.37604 3.65356 3.2406 3.7959 3.10874 3.94131C2.97687 4.08697 2.84859 4.23544 2.72388 4.38724C2.59943 4.53904 2.47856 4.6939 2.36151 4.85157C2.24473 5.0095 2.13152 5.16998 2.0224 5.33328C1.91328 5.49657 1.80825 5.66242 1.70731 5.83083C1.60637 5.99923 1.50952 6.17019 1.41701 6.3432C1.3245 6.51646 1.23608 6.69177 1.15226 6.86937C1.06819 7.04698 0.988713 7.22637 0.913582 7.40781C0.838451 7.58925 0.767665 7.77248 0.701478 7.95724C0.635291 8.14225 0.573704 8.3288 0.516717 8.51663C0.45973 8.70446 0.407343 8.89382 0.359811 9.0842C0.312024 9.27484 0.269092 9.46625 0.230759 9.65893C0.192427 9.85161 0.158695 10.0451 0.130074 10.2393C0.101197 10.4335 0.0771754 10.6285 0.0580093 10.8237C0.0385877 11.0192 0.024277 11.215 0.0145663 11.4112C0.00485542 11.6072 0 11.8035 0 12C0 12.1963 0.00485542 12.3928 0.0145663 12.5888C0.024277 12.785 0.0385877 12.9808 0.0580093 13.1763C0.0771754 13.3715 0.101197 13.5665 0.130074 13.7607C0.158695 13.9549 0.192427 14.1484 0.230759 14.3411C0.269092 14.5338 0.312024 14.7252 0.359811 14.9158C0.407343 15.1062 0.45973 15.2955 0.516717 15.4834C0.573704 15.6712 0.635291 15.8577 0.701478 16.0428C0.767665 16.2275 0.838451 16.4108 0.913582 16.5922C0.988713 16.7736 1.06819 16.953 1.15226 17.1306C1.23608 17.3082 1.3245 17.4835 1.41701 17.6568C1.50952 17.8298 1.60637 18.0008 1.70731 18.1692C1.80825 18.3376 1.91328 18.5034 2.0224 18.6667C2.13152 18.83 2.24473 18.9905 2.36151 19.1484C2.47856 19.3061 2.59943 19.461 2.72388 19.6128C2.84859 19.7646 2.97687 19.913 3.10874 20.0587C3.2406 20.2041 3.37604 20.3464 3.5148 20.4852C3.65356 20.624 3.7959 20.7594 3.94131 20.8913C4.08697 21.0231 4.23544 21.1514 4.38724 21.2761C4.53904 21.4006 4.6939 21.5214 4.85157 21.6385C5.0095 21.7553 5.16998 21.8685 5.33328 21.9776C5.49657 22.0867 5.66242 22.1917 5.83083 22.2927C5.99923 22.3936 6.17019 22.4905 6.3432 22.583C6.51646 22.6755 6.69177 22.7639 6.86937 22.8477C7.04698 22.9318 7.22637 23.0113 7.40781 23.0864C7.58925 23.1615 7.77248 23.2323 7.95724 23.2985C8.14225 23.3647 8.3288 23.426 8.51663 23.4833C8.70446 23.5403 8.89382 23.5927 9.0842 23.6402C9.27484 23.688 9.46625 23.7309 9.65893 23.7692C9.85161 23.8076 10.0451 23.8413 10.2393 23.8699C10.4335 23.8988 10.6285 23.9228 10.8237 23.942C11.0192 23.9614 11.215 23.9757 11.4112 23.9854C11.6072 23.9951 11.8035 24 12 24C12.1963 24 12.3928 23.9951 12.5888 23.9854C12.785 23.9757 12.9808 23.9614 13.1763 23.942C13.3715 23.9228 13.5665 23.8988 13.7607 23.8699C13.9549 23.8413 14.1484 23.8076 14.3411 23.7692C14.5338 23.7309 14.7252 23.688 14.9158 23.6402C15.1062 23.5927 15.2955 23.5403 15.4834 23.4833C15.6712 23.426 15.8577 23.3645 16.0428 23.2985C16.2275 23.2323 16.4108 23.1615 16.5922 23.0864C16.7736 23.0113 16.953 22.9318 17.1306 22.8477C17.3082 22.7639 17.4835 22.6755 17.6568 22.583C17.8298 22.4905 18.0008 22.3936 18.1692 22.2927C18.3376 22.1917 18.5034 22.0867 18.6667 21.9776C18.83 21.8685 18.9905 21.7553 19.1484 21.6385C19.3061 21.5214 19.461 21.4006 19.6128 21.2761C19.7646 21.1514 19.913 21.0231 20.0587 20.8913C20.2041 20.7594 20.3464 20.624 20.4852 20.4852C20.624 20.3464 20.7594 20.2041 20.8913 20.0587C21.0231 19.913 21.1514 19.7646 21.2761 19.6128C21.4006 19.461 21.5214 19.3061 21.6385 19.1484C21.7553 18.9905 21.8685 18.83 21.9776 18.6667C22.0867 18.5034 22.1917 18.3376 22.2927 18.1692C22.3936 18.0008 22.4905 17.8298 22.583 17.6568C22.6755 17.4835 22.7639 17.3082 22.8477 17.1306C22.9318 16.953 23.0113 16.7736 23.0864 16.5922C23.1615 16.4108 23.2323 16.2275 23.2985 16.0428C23.3647 15.8577 23.426 15.6712 23.4833 15.4834C23.5403 15.2955 23.5927 15.1062 23.6402 14.9158C23.688 14.7252 23.7309 14.5338 23.7692 14.3411C23.8076 14.1484 23.8413 13.9549 23.8699 13.7607C23.8988 13.5665 23.9228 13.3715 23.942 13.1763C23.9614 12.9808 23.9757 12.785 23.9854 12.5888C23.9951 12.3928 24 12.1963 24 12C24 11.8035 23.9951 11.6072 23.9854 11.4112C23.9757 11.215 23.9614 11.0192 23.942 10.8237C23.9228 10.6285 23.8988 10.4335 23.8699 10.2393C23.8413 10.0451 23.8076 9.85161 23.7692 9.65893C23.7309 9.46625 23.688 9.27484 23.6402 9.0842C23.5927 8.89382 23.5403 8.70446 23.4833 8.51663C23.426 8.3288 23.3645 8.14225 23.2985 7.95724C23.2323 7.77248 23.1615 7.58925 23.0864 7.40781C23.0113 7.22637 22.9318 7.04698 22.8477 6.86937C22.7639 6.69177 22.6755 6.51646 22.583 6.3432C22.4905 6.17019 22.3936 5.99923 22.2927 5.83083C22.1917 5.66242 22.0867 5.49657 21.9776 5.33328C21.8685 5.16998 21.7553 5.0095 21.6385 4.85157C21.5214 4.6939 21.4006 4.53904 21.2761 4.38724C21.1514 4.23544 21.0231 4.08697 20.8913 3.94131C20.7594 3.7959 20.624 3.65356 20.4852 3.5148C20.3464 3.37604 20.2041 3.2406 20.0587 3.10874C19.913 2.97687 19.7646 2.84859 19.6128 2.72388C19.461 2.59943 19.3061 2.47856 19.1484 2.36151C18.9905 2.24473 18.83 2.13152 18.6667 2.0224C18.5034 1.91328 18.3376 1.80825 18.1692 1.70731C18.0008 1.60637 17.8298 1.50952 17.6568 1.41701C17.4835 1.3245 17.3082 1.23608 17.1306 1.15226C16.953 1.06819 16.7736 0.988713 16.5922 0.913582C16.4108 0.838451 16.2275 0.767665 16.0428 0.701478C15.8577 0.635291 15.6712 0.573704 15.4834 0.516717C15.2955 0.45973 15.1062 0.407343 14.9158 0.359811C14.7252 0.312024 14.5338 0.269092 14.3411 0.230759C14.1484 0.192427 13.9549 0.158695 13.7607 0.130074C13.5665 0.101197 13.3715 0.0771754 13.1763 0.0580093C12.9808 0.0385877 12.785 0.024277 12.5888 0.0145663C12.3928 0.00485542 12.1963 0 12 0Z" fill="#571AFF"/>
<mask id="mask0_300_14014" style="mask-type:alpha" maskUnits="userSpaceOnUse" x="0" y="0" width="24" height="24">
<path fill-rule="evenodd" clip-rule="evenodd" d="M0.748535 0.799866H23.0732V23.1245H0.748535V0.799866Z" fill="white"/>
</mask>
<g mask="url(#mask0_300_14014)">
<path fill-rule="evenodd" clip-rule="evenodd" d="M8.03038 0.877045C5.85056 1.63679 3.86777 3.07194 2.55119 4.84263C2.50008 4.91137 2.45204 4.9727 2.44437 4.97884C2.41038 5.00593 1.94989 5.70817 1.80141 5.95912C1.4531 6.54815 1.06671 7.38865 0.818578 8.09652L0.748047 8.29789L0.753924 12.0631L0.759802 15.8286L0.866621 16.0967C0.925397 16.2441 0.989539 16.4102 1.00922 16.4654C1.20701 17.0264 1.69868 17.9596 2.16889 18.6667C2.5839 19.2908 2.97233 19.7638 3.55166 20.3505C4.73765 21.5521 6.1171 22.4506 7.69332 23.0486L7.95321 23.1472H15.9794L16.292 23.0266C17.4992 22.561 18.5183 21.9623 19.621 21.0702C19.8883 20.854 20.7278 20.0268 20.9033 19.8065C20.9718 19.7204 21.0792 19.5898 21.1412 19.5159C21.35 19.2688 21.7579 18.7084 21.9005 18.473C21.9127 18.4526 22.0014 18.3067 22.0975 18.149C22.1936 17.9913 22.3847 17.6358 22.5222 17.3593C22.7729 16.8557 22.8015 16.7933 22.8948 16.5436C22.9222 16.47 22.9595 16.3763 22.9774 16.3359C23.1054 16.0458 23.0957 16.4008 23.0962 12.0194C23.0964 7.63372 23.1064 7.99225 22.9774 7.70067C22.9595 7.6603 22.9119 7.54147 22.8721 7.43695C22.7297 7.06589 22.3387 6.28801 22.0628 5.82802C20.727 3.60041 18.6249 1.87521 16.1113 0.943743L15.7242 0.800125L11.9852 0.801147L8.24607 0.801914L8.03038 0.877045ZM5.96549 1.89131C5.92741 1.92478 5.77664 2.01039 5.77664 1.99838C5.77664 1.99199 5.81932 1.96107 5.87171 1.9299C5.96805 1.87189 6.00382 1.85732 5.96549 1.89131ZM5.08408 2.46323C5.08408 2.46859 5.05137 2.4944 5.0115 2.52098L4.93893 2.56902L5.00588 2.51127C5.07462 2.45224 5.08408 2.44636 5.08408 2.46323ZM4.7487 2.70777C4.7487 2.71237 4.70116 2.75352 4.64264 2.799L4.53659 2.8818L4.63702 2.79057C4.73669 2.70036 4.7487 2.69142 4.7487 2.70777ZM4.10057 3.24212C4.10057 3.24545 4.04282 3.3032 3.97229 3.37041L3.84375 3.49256L3.9659 3.36428C4.07936 3.24468 4.10057 3.22551 4.10057 3.24212ZM20.1687 3.53729C20.2354 3.60501 20.285 3.66021 20.2789 3.66021C20.2727 3.66021 20.2132 3.60501 20.1465 3.53729C20.0795 3.46982 20.0299 3.41437 20.0361 3.41437C20.0422 3.41437 20.102 3.46982 20.1687 3.53729ZM20.4478 3.81662C20.5084 3.8782 20.5528 3.92854 20.5467 3.92854C20.5406 3.92854 20.4859 3.8782 20.4256 3.81662C20.365 3.75528 20.3206 3.70494 20.3267 3.70494C20.3328 3.70494 20.3873 3.75528 20.4478 3.81662ZM3.45245 3.88994C3.45245 3.89351 3.38473 3.96123 3.30168 4.04096L3.1509 4.18535L3.29554 4.03458C3.42971 3.89454 3.45245 3.87358 3.45245 3.88994ZM17.9077 3.94873C18.1356 4.05147 18.196 4.25871 18.0802 4.54033C18.0503 4.61239 17.7871 5.11531 17.495 5.65758C16.9185 6.72756 16.8625 6.84434 16.862 6.97902C16.861 7.19726 16.7347 6.99895 18.6971 9.86185C20.2511 12.1291 20.1391 11.9315 20.1177 12.3626C20.0972 12.783 19.6531 15.3541 19.5741 15.511C19.428 15.8015 19.4159 15.8051 17.7889 16.0303C16.7851 16.1693 16.7559 16.1846 16.6617 16.6193C16.5663 17.0583 16.6479 16.9926 13.8445 18.8906C13.0574 19.4234 13.474 19.2918 10.2778 20.0173C7.56339 20.6337 7.55522 20.6352 7.39908 20.6002C7.07325 20.5271 7.04208 20.4758 6.61915 19.3036C6.45279 18.8428 6.0802 17.8101 5.79092 17.009C5.50164 16.2079 5.24839 15.4939 5.22795 15.4223C5.18501 15.2723 5.14004 12.8773 5.15895 11.7613C5.17224 10.9829 5.19421 10.8981 5.47455 10.5546C5.78964 10.1683 5.79015 10.1739 5.34294 9.20458C4.91694 8.28078 4.77358 7.87395 4.80169 7.66797C4.83466 7.42776 4.87759 7.38278 5.99127 6.4163C7.15375 5.4074 7.20435 5.36983 7.60249 5.21855L7.73231 5.16923L10.47 5.15773L13.2074 5.14649L13.3354 5.08362C13.4954 5.00491 13.5473 4.9423 13.7556 4.57355C14.1575 3.86236 14.0691 3.88689 16.2022 3.89149L17.7889 3.89481L17.9077 3.94873ZM14.851 4.6681C14.598 4.7118 14.5208 4.78718 14.2671 5.23618C14.0399 5.63867 13.8868 5.79251 13.6321 5.87556C13.5613 5.89856 12.9495 5.90725 10.7045 5.9167L7.86639 5.92846L7.72098 5.99746C7.55411 6.07668 7.51731 6.10632 6.61497 6.88906C5.43665 7.91074 5.48724 7.68458 6.12611 9.07399C6.69752 10.3167 6.69956 10.3586 6.213 10.9006C6.1302 10.9929 6.0359 11.1186 6.00345 11.1802L5.94442 11.2919V13.2026C5.94442 14.9907 5.94697 15.1228 5.98556 15.2585C6.02159 15.3853 6.74454 17.4046 7.30623 18.9478C7.6272 19.829 7.64406 19.8384 8.53669 19.6294C8.78253 19.5719 9.24507 19.4656 9.56476 19.3933C13.0338 18.6092 12.7841 18.677 13.1851 18.4122C13.7243 18.056 15.6008 16.7611 15.6846 16.6873C15.8226 16.5659 15.8911 16.4141 15.946 16.1085C16.0526 15.5146 16.0879 15.4931 17.2179 15.3362C19.1112 15.073 18.8779 15.2846 19.1652 13.5714C19.4115 12.105 19.458 12.3266 18.6566 11.1577C18.3617 10.7276 17.6792 9.73203 17.1397 8.94545C15.738 6.90133 15.8057 7.18448 16.4367 6.00691C17.0362 4.88812 17.0503 4.82884 16.7495 4.69135C16.6577 4.64944 15.0708 4.63002 14.851 4.6681ZM20.7273 19.9352C20.7273 19.9383 20.5489 20.1169 20.3307 20.3319L19.9341 20.7226L20.3248 20.326C20.6879 19.9575 20.7273 19.9191 20.7273 19.9352ZM3.66494 20.3764C3.86145 20.5729 4.01708 20.7339 4.01095 20.7339C4.00482 20.7339 3.83897 20.5729 3.6427 20.3764C3.44619 20.1796 3.29056 20.0188 3.29669 20.0188C3.30283 20.0188 3.46868 20.1796 3.66494 20.3764ZM6.22357 22.3106C6.22357 22.3167 6.19341 22.306 6.15661 22.2871C6.11981 22.2679 6.0894 22.2472 6.0894 22.2411C6.0894 22.2349 6.11981 22.2457 6.15661 22.2646C6.19341 22.2837 6.22357 22.3044 6.22357 22.3106ZM6.52702 22.4716C6.51705 22.4818 6.29089 22.3691 6.29089 22.354C6.29089 22.3482 6.34584 22.3704 6.41305 22.4033C6.48026 22.4363 6.53162 22.4672 6.52702 22.4716Z" fill="#541BFC"/>
</g>
<path fill-rule="evenodd" clip-rule="evenodd" d="M5.87217 1.92989C5.81978 1.96107 5.77711 1.99199 5.77711 1.99838C5.77711 2.01039 5.92788 1.92478 5.96596 1.89131C6.00429 1.85732 5.96851 1.87189 5.87217 1.92989ZM5.00601 2.51127L4.93905 2.56902L5.01163 2.52098C5.05149 2.4944 5.0842 2.46859 5.0842 2.46322C5.0842 2.44636 5.07475 2.45223 5.00601 2.51127ZM4.63753 2.79058L4.5371 2.88181L4.64315 2.79901C4.73617 2.72644 4.76377 2.69909 4.74384 2.69935C4.74077 2.69935 4.69298 2.74049 4.63753 2.79058ZM3.96636 3.36428L3.84421 3.49256L3.97275 3.37041C4.09209 3.25695 4.11126 3.23574 4.09465 3.23574C4.09133 3.23574 4.03357 3.29349 3.96636 3.36428ZM20.1469 3.53729C20.2136 3.60501 20.2732 3.6602 20.2793 3.6602C20.2855 3.6602 20.2359 3.60501 20.1692 3.53729C20.1025 3.46982 20.0427 3.41437 20.0366 3.41437C20.0304 3.41437 20.08 3.46982 20.1469 3.53729ZM20.4261 3.81659C20.4864 3.87818 20.541 3.92852 20.5472 3.92852C20.5533 3.92852 20.5089 3.87818 20.4483 3.81659C20.3877 3.75526 20.3333 3.70492 20.3272 3.70492C20.321 3.70492 20.3655 3.75526 20.4261 3.81659ZM3.29601 4.03457L3.15137 4.18535L3.30214 4.04096C3.38519 3.96123 3.45291 3.89351 3.45291 3.88993C3.45291 3.87358 3.43017 3.89453 3.29601 4.03457ZM14.4927 3.90861C14.1873 3.95972 14.0143 4.11586 13.7557 4.57355C13.5474 4.9423 13.4955 5.00491 13.3356 5.08362L13.2075 5.14649L10.4701 5.15773L7.73244 5.16923L7.60262 5.21855C7.20448 5.36984 7.15388 5.4074 5.99139 6.4163C4.87772 7.38278 4.83478 7.42776 4.80182 7.66797C4.77371 7.87395 4.91707 8.28078 5.34307 9.20458C5.79028 10.1739 5.78977 10.1683 5.47468 10.5546C5.19434 10.8981 5.17236 10.9829 5.15907 11.7613C5.14016 12.8773 5.18514 15.2723 5.22807 15.4223C5.24852 15.4939 5.50176 16.2079 5.79104 17.009C6.08032 17.8101 6.45291 18.8428 6.61927 19.3036C7.0422 20.4758 7.07338 20.5271 7.3992 20.6002C7.55534 20.6352 7.56352 20.6337 10.2779 20.0173C13.4741 19.2918 13.0575 19.4234 13.8446 18.8906C16.648 16.9927 16.5665 17.0583 16.6618 16.6193C16.7561 16.1846 16.7852 16.1693 17.789 16.0303C19.4161 15.8051 19.4281 15.8015 19.5742 15.511C19.6532 15.3541 20.0974 12.783 20.1178 12.3626C20.1393 11.9315 20.2512 12.1291 18.6972 9.86185C16.7349 6.99895 16.8611 7.19726 16.8621 6.97902C16.8626 6.84434 16.9186 6.72756 17.4951 5.65758C17.7872 5.11531 18.0504 4.61239 18.0803 4.54033C18.1961 4.25871 18.1358 4.05147 17.9078 3.94874L17.789 3.89481L16.2023 3.89149C15.323 3.8897 14.5607 3.89737 14.4927 3.90861ZM16.75 4.69133C17.0508 4.82882 17.0367 4.88811 16.4372 6.00689C15.8062 7.18446 15.7385 6.90131 17.1402 8.94543C17.6797 9.73201 18.3622 10.7276 18.6571 11.1577C19.4585 12.3266 19.412 12.105 19.1657 13.5714C18.9336 14.9557 18.9298 14.9682 18.6942 15.0852C18.5626 15.1506 18.6076 15.1432 17.2184 15.3362C16.0884 15.4931 16.0531 15.5145 15.9465 16.1084C15.8916 16.4141 15.8231 16.5659 15.6851 16.6872C15.6013 16.7611 13.7248 18.056 13.1856 18.4122C12.7847 18.6769 13.0343 18.6092 9.56526 19.3932C9.24557 19.4656 8.78303 19.5719 8.5372 19.6294C7.64457 19.8384 7.6277 19.8289 7.30674 18.9478C6.74504 17.4046 6.0221 15.3852 5.98607 15.2585C5.94748 15.1228 5.94492 14.9907 5.94492 13.2026V11.2919L6.00395 11.1802C6.03641 11.1186 6.13071 10.9929 6.2135 10.9006C6.70007 10.3586 6.69802 10.3167 6.12662 9.07397C5.48775 7.68456 5.43715 7.91072 6.61548 6.88904C7.51782 6.1063 7.55462 6.07666 7.72149 5.99744L7.8669 5.92844L10.705 5.91668C12.95 5.90723 13.5618 5.89854 13.6326 5.87554C13.8873 5.79249 14.0404 5.63865 14.2676 5.23616C14.6108 4.62873 14.5676 4.64482 15.8226 4.65121C16.5468 4.65505 16.6833 4.66092 16.75 4.69133ZM20.3253 20.326L19.9345 20.7226L20.3311 20.3319C20.5494 20.1169 20.7277 19.9383 20.7277 19.9352C20.7277 19.9191 20.6884 19.9575 20.3253 20.326ZM3.64317 20.3763C3.83943 20.5729 4.00528 20.7338 4.01141 20.7338C4.01755 20.7338 3.86192 20.5729 3.6654 20.3763C3.46914 20.1796 3.30329 20.0188 3.29716 20.0188C3.29103 20.0188 3.44665 20.1796 3.64317 20.3763ZM6.08987 22.2411C6.08987 22.2472 6.12028 22.2679 6.15708 22.2871C6.19388 22.306 6.22403 22.3167 6.22403 22.3106C6.22403 22.3044 6.19388 22.2837 6.15708 22.2646C6.12028 22.2457 6.08987 22.2349 6.08987 22.2411ZM6.29136 22.354C6.29136 22.3691 6.51752 22.4818 6.52748 22.4716C6.53208 22.4672 6.48072 22.4363 6.41351 22.4033C6.3463 22.3704 6.29136 22.3481 6.29136 22.354Z" fill="#F7F5FC"/>
<path d="M4.51008 3.34539C4.45923 3.34539 4.40838 3.34795 4.35752 3.35306C4.30692 3.35791 4.25658 3.36532 4.20675 3.37529C4.15666 3.38526 4.10734 3.39752 4.05879 3.41234C4.00998 3.42717 3.96194 3.44429 3.91491 3.46396C3.86789 3.48339 3.8219 3.50511 3.77717 3.52913C3.7322 3.55315 3.6885 3.57922 3.64608 3.60758C3.60391 3.63595 3.56303 3.6661 3.52367 3.69856C3.48432 3.73076 3.4465 3.765 3.41046 3.80103C3.37443 3.83681 3.34044 3.87463 3.30799 3.91398C3.27579 3.95334 3.24538 3.99423 3.21727 4.03665C3.1889 4.07881 3.16258 4.12251 3.13882 4.16749C3.1148 4.21246 3.09307 4.25821 3.0734 4.30548C3.05397 4.3525 3.03685 4.40029 3.02203 4.4491C3.00721 4.49791 2.99494 4.54723 2.98498 4.59706C2.97501 4.64715 2.9676 4.69724 2.96249 4.74809C2.95763 4.79869 2.95508 4.84954 2.95508 4.9004C2.95508 4.95125 2.95763 5.0021 2.96249 5.05296C2.9676 5.10356 2.97501 5.1539 2.98498 5.20373C2.99494 5.25382 3.00721 5.30314 3.02203 5.35195C3.03685 5.4005 3.05397 5.44855 3.0734 5.49557C3.09307 5.54259 3.1148 5.58859 3.13882 5.63356C3.16258 5.67828 3.1889 5.72198 3.21727 5.7644C3.24538 5.80657 3.27579 5.84746 3.30799 5.88681C3.34044 5.92616 3.37443 5.96399 3.41046 6.00002C3.4465 6.03605 3.48432 6.07004 3.52367 6.10249C3.56303 6.13469 3.60391 6.1651 3.64608 6.19347C3.6885 6.22158 3.7322 6.2479 3.77717 6.27192C3.8219 6.29569 3.86789 6.31766 3.91491 6.33709C3.96194 6.35651 4.00998 6.37363 4.05879 6.38845C4.10734 6.40327 4.15666 6.41554 4.20675 6.4255C4.25658 6.43547 4.30692 6.44288 4.35752 6.44799C4.40838 6.45285 4.45923 6.4554 4.51008 6.4554C4.56094 6.4554 4.61179 6.45285 4.66239 6.44799C4.71324 6.44288 4.76359 6.43547 4.81342 6.4255C4.86325 6.41554 4.91283 6.40327 4.96138 6.38845C5.01019 6.37363 5.05798 6.35651 5.105 6.33709C5.15228 6.31766 5.19827 6.29569 5.24299 6.27192C5.28797 6.2479 5.33167 6.22158 5.37384 6.19347C5.41626 6.1651 5.45714 6.13469 5.4965 6.10249C5.53585 6.07004 5.57367 6.03605 5.60971 6.00002C5.64548 5.96399 5.67973 5.92616 5.71218 5.88681C5.74438 5.84746 5.77479 5.80657 5.8029 5.7644C5.83127 5.72198 5.85733 5.67828 5.88135 5.63356C5.90537 5.58859 5.9271 5.54259 5.94677 5.49557C5.96619 5.44855 5.98332 5.4005 5.99814 5.35195C6.01296 5.30314 6.02523 5.25382 6.03519 5.20373C6.04516 5.1539 6.05257 5.10356 6.05742 5.05296C6.06254 5.0021 6.06509 4.95125 6.06509 4.9004C6.06509 4.84954 6.06254 4.79869 6.05742 4.74809C6.05257 4.69724 6.04516 4.64715 6.03519 4.59706C6.02523 4.54723 6.01296 4.49791 5.99814 4.4491C5.98332 4.40029 5.96619 4.3525 5.94677 4.30548C5.9271 4.25821 5.90537 4.21246 5.88135 4.16749C5.85733 4.12251 5.83127 4.07881 5.8029 4.03665C5.77479 3.99423 5.74438 3.95334 5.71218 3.91398C5.67973 3.87463 5.64548 3.83681 5.60971 3.80103C5.57367 3.765 5.53585 3.73076 5.4965 3.69856C5.45714 3.6661 5.41626 3.63595 5.37384 3.60758C5.33167 3.57922 5.28797 3.55315 5.24299 3.52913C5.19827 3.50511 5.15228 3.48339 5.105 3.46396C5.05798 3.44429 5.01019 3.42717 4.96138 3.41234C4.91283 3.39752 4.86325 3.38526 4.81342 3.37529C4.76359 3.36532 4.71324 3.35791 4.66239 3.35306C4.61179 3.34795 4.56094 3.34539 4.51008 3.34539Z" fill="#571AFF"/>
<path d="M5.19319 2.54218C5.14234 2.54218 5.09148 2.54448 5.04088 2.54959C4.99028 2.55445 4.93994 2.56212 4.88985 2.57183C4.84002 2.58179 4.7907 2.59431 4.74189 2.60914C4.69308 2.6237 4.6453 2.64082 4.59828 2.6605C4.55125 2.67992 4.50526 2.70164 4.46028 2.72567C4.4153 2.74969 4.3716 2.77575 4.32944 2.80412C4.28702 2.83248 4.24613 2.86264 4.20678 2.89509C4.16742 2.92729 4.12986 2.96154 4.09382 2.99757C4.05779 3.0336 4.02355 3.07117 3.99135 3.11052C3.9589 3.14987 3.92874 3.19076 3.90038 3.23318C3.87201 3.2756 3.84594 3.31905 3.82192 3.36402C3.7979 3.409 3.77618 3.455 3.75676 3.50202C3.73708 3.54904 3.71996 3.59683 3.70514 3.64564C3.69057 3.69445 3.67805 3.74377 3.66808 3.7936C3.65837 3.84369 3.65071 3.89403 3.64585 3.94463C3.64074 3.99523 3.63818 4.04608 3.63818 4.09693C3.63818 4.14804 3.64074 4.1989 3.64585 4.2495C3.65071 4.30009 3.65837 4.35044 3.66808 4.40052C3.67805 4.45036 3.69057 4.49968 3.70514 4.54849C3.71996 4.59704 3.73708 4.64508 3.75676 4.6921C3.77618 4.73913 3.7979 4.78512 3.82192 4.8301C3.84594 4.87508 3.87201 4.91852 3.90038 4.96094C3.92874 5.00336 3.9589 5.04425 3.99135 5.0836C4.02355 5.12296 4.05779 5.16052 4.09382 5.19655C4.12986 5.23259 4.16742 5.26683 4.20678 5.29903C4.24613 5.33123 4.28702 5.36164 4.32944 5.39C4.3716 5.41837 4.4153 5.44444 4.46028 5.46846C4.50526 5.49248 4.55125 5.5142 4.59828 5.53362C4.6453 5.55304 4.69308 5.57017 4.74189 5.58499C4.7907 5.59981 4.84002 5.61208 4.88985 5.62204C4.93994 5.63201 4.99028 5.63942 5.04088 5.64453C5.09148 5.64964 5.14234 5.65194 5.19319 5.65194C5.2443 5.65194 5.2949 5.64964 5.34575 5.64453C5.39635 5.63942 5.44669 5.63201 5.49652 5.62204C5.54661 5.61208 5.59593 5.59981 5.64474 5.58499C5.6933 5.57017 5.74134 5.55304 5.78836 5.53362C5.83538 5.5142 5.88138 5.49248 5.92635 5.46846C5.97108 5.44444 6.01477 5.41837 6.05719 5.39C6.09962 5.36164 6.14025 5.33123 6.17986 5.29903C6.21921 5.26683 6.25678 5.23259 6.29281 5.19655C6.32884 5.16052 6.36309 5.12296 6.39528 5.0836C6.42748 5.04425 6.45789 5.00336 6.48626 4.96094C6.51437 4.91852 6.54069 4.87508 6.56471 4.8301C6.58873 4.78512 6.61046 4.73913 6.62988 4.6921C6.6493 4.64508 6.66642 4.59704 6.68124 4.54849C6.69606 4.49968 6.70833 4.45036 6.7183 4.40052C6.72826 4.35044 6.73567 4.30009 6.74078 4.2495C6.74564 4.1989 6.7482 4.14804 6.7482 4.09693C6.7482 4.04608 6.74564 3.99523 6.74078 3.94463C6.73567 3.89403 6.72826 3.84369 6.7183 3.7936C6.70833 3.74377 6.69606 3.69445 6.68124 3.64564C6.66642 3.59683 6.6493 3.54904 6.62988 3.50202C6.61046 3.455 6.58873 3.409 6.56471 3.36402C6.54069 3.31905 6.51437 3.2756 6.48626 3.23318C6.45789 3.19076 6.42748 3.14987 6.39528 3.11052C6.36309 3.07117 6.32884 3.0336 6.29281 2.99757C6.25678 2.96154 6.21921 2.92729 6.17986 2.89509C6.14025 2.86264 6.09962 2.83248 6.05719 2.80412C6.01477 2.77575 5.97108 2.74969 5.92635 2.72567C5.88138 2.70164 5.83538 2.67992 5.78836 2.6605C5.74134 2.64082 5.6933 2.6237 5.64474 2.60914C5.59593 2.59431 5.54661 2.58179 5.49652 2.57183C5.44669 2.56212 5.39635 2.55445 5.34575 2.54959C5.2949 2.54448 5.2443 2.54218 5.19319 2.54218Z" fill="#571AFF"/>
<path d="M6.01594 2.1379C5.96483 2.1379 5.91424 2.14046 5.86338 2.14531C5.81278 2.15042 5.76244 2.15783 5.71261 2.1678C5.66252 2.17777 5.6132 2.19003 5.56439 2.20485C5.51584 2.21968 5.46779 2.2368 5.42077 2.25622C5.37375 2.27564 5.32775 2.29762 5.28278 2.32138C5.23806 2.34541 5.19436 2.37173 5.15194 2.39984C5.10952 2.4282 5.06889 2.45861 5.02953 2.49081C4.99018 2.52327 4.95236 2.55725 4.91632 2.59329C4.88029 2.62932 4.8463 2.66714 4.81385 2.70649C4.78165 2.74585 4.75124 2.78674 4.72287 2.8289C4.69476 2.87132 4.66844 2.91502 4.64442 2.95974C4.6204 3.00472 4.59868 3.05072 4.57926 3.09774C4.55983 3.14476 4.54271 3.1928 4.52789 3.24161C4.51307 3.29016 4.5008 3.33949 4.49084 3.38957C4.48087 3.4394 4.47346 3.48975 4.46835 3.54035C4.46349 3.5912 4.46094 3.64205 4.46094 3.69291C4.46094 3.74376 4.46349 3.79462 4.46835 3.84521C4.47346 3.89607 4.48087 3.94616 4.49084 3.99624C4.5008 4.04607 4.51307 4.0954 4.52789 4.1442C4.54271 4.19301 4.55983 4.2408 4.57926 4.28782C4.59868 4.3351 4.6204 4.38084 4.64442 4.42582C4.66844 4.47079 4.69476 4.51449 4.72287 4.55666C4.75124 4.59908 4.78165 4.63997 4.81385 4.67932C4.8463 4.71868 4.88029 4.7565 4.91632 4.79227C4.95236 4.82831 4.99018 4.86255 5.02953 4.89475C5.06889 4.9272 5.10952 4.95736 5.15194 4.98572C5.19436 5.01409 5.23806 5.04015 5.28278 5.06418C5.32775 5.0882 5.37375 5.10992 5.42077 5.1296C5.46779 5.14902 5.51584 5.16614 5.56439 5.18096C5.6132 5.19578 5.66252 5.20805 5.71261 5.21802C5.76244 5.22798 5.81278 5.23539 5.86338 5.24025C5.91424 5.24536 5.96483 5.24791 6.01594 5.24791C6.0668 5.24791 6.11765 5.24536 6.16825 5.24025C6.2191 5.23539 6.26919 5.22798 6.31928 5.21802C6.36911 5.20805 6.41843 5.19578 6.46724 5.18096C6.51605 5.16614 6.56384 5.14902 6.61086 5.1296C6.65788 5.10992 6.70388 5.0882 6.74885 5.06418C6.79383 5.04015 6.83753 5.01409 6.87969 4.98572C6.92212 4.95736 6.963 4.9272 7.00236 4.89475C7.04171 4.86255 7.07928 4.82831 7.11531 4.79227C7.15134 4.7565 7.18559 4.71868 7.21778 4.67932C7.25024 4.63997 7.28039 4.59908 7.30876 4.55666C7.33712 4.51449 7.36319 4.47079 7.38721 4.42582C7.41123 4.38084 7.43296 4.3351 7.45238 4.28782C7.47205 4.2408 7.48918 4.19301 7.504 4.1442C7.51856 4.0954 7.53109 4.04607 7.54105 3.99624C7.55102 3.94616 7.55843 3.89607 7.56328 3.84521C7.5684 3.79462 7.57095 3.74376 7.57095 3.69291C7.57095 3.64205 7.5684 3.5912 7.56328 3.54035C7.55843 3.48975 7.55102 3.4394 7.54105 3.38957C7.53109 3.33949 7.51856 3.29016 7.504 3.24161C7.48918 3.1928 7.47205 3.14476 7.45238 3.09774C7.43296 3.05072 7.41123 3.00472 7.38721 2.95974C7.36319 2.91502 7.33712 2.87132 7.30876 2.8289C7.28039 2.78674 7.25024 2.74585 7.21778 2.70649C7.18559 2.66714 7.15134 2.62932 7.11531 2.59329C7.07928 2.55725 7.04171 2.52327 7.00236 2.49081C6.963 2.45861 6.92212 2.4282 6.87969 2.39984C6.83753 2.37173 6.79383 2.34541 6.74885 2.32138C6.70388 2.29762 6.65788 2.27564 6.61086 2.25622C6.56384 2.2368 6.51605 2.21968 6.46724 2.20485C6.41843 2.19003 6.36911 2.17777 6.31928 2.1678C6.26919 2.15783 6.2191 2.15042 6.16825 2.14531C6.11765 2.14046 6.0668 2.1379 6.01594 2.1379Z" fill="#571AFF"/>
<path d="M6.74837 1.45228C6.69751 1.45228 6.64666 1.45483 6.59606 1.45969C6.54521 1.4648 6.49512 1.47221 6.44503 1.48218C6.3952 1.49214 6.34588 1.50441 6.29707 1.51923C6.24826 1.53405 6.20047 1.55118 6.15345 1.5706C6.10617 1.59002 6.06043 1.61174 6.01546 1.63576C5.97048 1.65978 5.92678 1.6861 5.88462 1.71421C5.84219 1.74258 5.80131 1.77299 5.76195 1.80519C5.7226 1.83739 5.68478 1.87163 5.649 1.90766C5.61297 1.9437 5.57872 1.98126 5.54653 2.02087C5.51407 2.06023 5.48392 2.10086 5.45555 2.14328C5.42719 2.1857 5.40112 2.2294 5.3771 2.27412C5.35308 2.3191 5.33136 2.36509 5.31193 2.41211C5.29226 2.45914 5.27513 2.50718 5.26031 2.55573C5.24549 2.60454 5.23322 2.65386 5.22326 2.70395C5.21329 2.75378 5.20588 2.80412 5.20103 2.85472C5.19591 2.90558 5.19336 2.95617 5.19336 3.00728C5.19336 3.05814 5.19591 3.10899 5.20103 3.15959C5.20588 3.21019 5.21329 3.26053 5.22326 3.31062C5.23322 3.36045 5.24549 3.40977 5.26031 3.45858C5.27513 3.50739 5.29226 3.55518 5.31193 3.6022C5.33136 3.64922 5.35308 3.69522 5.3771 3.74019C5.40112 3.78517 5.42719 3.82887 5.45555 3.87103C5.48392 3.91346 5.51407 3.95434 5.54653 3.9937C5.57872 4.03305 5.61297 4.07062 5.649 4.10665C5.68478 4.14268 5.7226 4.17693 5.76195 4.20912C5.80131 4.24158 5.84219 4.27173 5.88462 4.3001C5.92678 4.32846 5.97048 4.35453 6.01546 4.37855C6.06043 4.40257 6.10617 4.4243 6.15345 4.44372C6.20047 4.46339 6.24826 4.48052 6.29707 4.49534C6.34588 4.5099 6.3952 4.52243 6.44503 4.53239C6.49512 4.54236 6.54521 4.54977 6.59606 4.55462C6.64666 4.55974 6.69751 4.56229 6.74837 4.56229C6.79922 4.56229 6.85007 4.55974 6.90093 4.55462C6.95153 4.54977 7.00187 4.54236 7.0517 4.53239C7.10179 4.52243 7.15111 4.5099 7.19992 4.49534C7.24847 4.48052 7.29651 4.46339 7.34354 4.44372C7.39056 4.4243 7.43656 4.40257 7.48153 4.37855C7.52625 4.35453 7.56995 4.32846 7.61237 4.3001C7.65454 4.27173 7.69542 4.24158 7.73478 4.20912C7.77413 4.17693 7.81195 4.14268 7.84799 4.10665C7.88402 4.07062 7.91801 4.03305 7.95046 3.9937C7.98266 3.95434 8.01307 3.91346 8.04144 3.87103C8.06955 3.82887 8.09587 3.78517 8.11989 3.74019C8.14365 3.69522 8.16563 3.64922 8.18505 3.6022C8.20447 3.55518 8.2216 3.50739 8.23642 3.45858C8.25124 3.40977 8.26351 3.36045 8.27347 3.31062C8.28344 3.26053 8.29085 3.21019 8.29596 3.15959C8.30082 3.10899 8.30337 3.05814 8.30337 3.00728C8.30337 2.95617 8.30082 2.90558 8.29596 2.85472C8.29085 2.80412 8.28344 2.75378 8.27347 2.70395C8.26351 2.65386 8.25124 2.60454 8.23642 2.55573C8.2216 2.50718 8.20447 2.45914 8.18505 2.41211C8.16563 2.36509 8.14365 2.3191 8.11989 2.27412C8.09587 2.2294 8.06955 2.1857 8.04144 2.14328C8.01307 2.10086 7.98266 2.06023 7.95046 2.02087C7.91801 1.98126 7.88402 1.9437 7.84799 1.90766C7.81195 1.87163 7.77413 1.83739 7.73478 1.80519C7.69542 1.77299 7.65454 1.74258 7.61237 1.71421C7.56995 1.6861 7.52625 1.65978 7.48153 1.63576C7.43656 1.61174 7.39056 1.59002 7.34354 1.5706C7.29651 1.55118 7.24847 1.53405 7.19992 1.51923C7.15111 1.50441 7.10179 1.49214 7.0517 1.48218C7.00187 1.47221 6.95153 1.4648 6.90093 1.45969C6.85007 1.45483 6.79922 1.45228 6.74837 1.45228Z" fill="#571AFF"/>
<path d="M19.8953 3.34539C19.8365 3.34539 19.7785 3.35127 19.721 3.36251C19.6635 3.37401 19.6078 3.39088 19.5536 3.41337C19.4995 3.43585 19.4481 3.4632 19.3995 3.49591C19.3507 3.52836 19.3058 3.56542 19.2641 3.60682C19.2227 3.64821 19.1859 3.69345 19.1532 3.742C19.1207 3.79081 19.0931 3.84217 19.0706 3.89635C19.0484 3.95053 19.0313 4.00624 19.0201 4.06373C19.0086 4.12123 19.0029 4.17924 19.0029 4.23776C19.0029 4.29628 19.0086 4.35455 19.0201 4.41179C19.0313 4.46929 19.0484 4.52525 19.0706 4.57917C19.0931 4.63335 19.1207 4.68497 19.1532 4.73352C19.1859 4.78233 19.2227 4.82731 19.2641 4.86871C19.3058 4.91011 19.3507 4.94716 19.3995 4.97987C19.4481 5.01233 19.4995 5.03992 19.5536 5.06216C19.6078 5.08465 19.6635 5.10151 19.721 5.11301C19.7785 5.12451 19.8365 5.13013 19.8953 5.13013C19.9538 5.13013 20.0118 5.12451 20.0693 5.11301C20.1268 5.10151 20.1825 5.08465 20.2367 5.06216C20.2909 5.03992 20.3423 5.01233 20.3908 4.97987C20.4396 4.94716 20.4849 4.91011 20.5263 4.86871C20.5676 4.82731 20.6047 4.78233 20.6372 4.73352C20.6696 4.68497 20.6972 4.63335 20.7197 4.57917C20.7419 4.52525 20.7591 4.46929 20.7703 4.41179C20.7818 4.35455 20.7874 4.29628 20.7874 4.23776C20.7874 4.17924 20.7818 4.12123 20.7703 4.06373C20.7591 4.00624 20.7419 3.95053 20.7197 3.89635C20.6972 3.84217 20.6696 3.79081 20.6372 3.742C20.6047 3.69345 20.5676 3.64821 20.5263 3.60682C20.4849 3.56542 20.4396 3.52836 20.3908 3.49591C20.3423 3.4632 20.2909 3.43585 20.2367 3.41337C20.1825 3.39088 20.1268 3.37401 20.0693 3.36251C20.0118 3.35127 19.9538 3.34539 19.8953 3.34539Z" fill="#571AFF"/>
<path d="M19.2816 17.7115C19.2305 17.7115 19.1796 17.7138 19.129 17.7189C19.0784 17.7238 19.0281 17.7314 18.978 17.7411C18.9281 17.7511 18.8788 17.7636 18.83 17.7784C18.7812 17.793 18.7334 17.8101 18.6864 17.8298C18.6394 17.8492 18.5934 17.871 18.5484 17.895C18.5034 17.919 18.46 17.9451 18.4176 17.9734C18.3751 18.0018 18.3343 18.032 18.2949 18.0644C18.2555 18.0966 18.218 18.1308 18.1819 18.1669C18.1459 18.2029 18.1117 18.2405 18.0795 18.2798C18.047 18.3192 18.0169 18.3601 17.9885 18.4025C17.9601 18.4449 17.9341 18.4884 17.91 18.5333C17.886 18.5783 17.8643 18.6243 17.8449 18.6713C17.8255 18.7184 17.8083 18.7661 17.7935 18.8149C17.7787 18.8638 17.7662 18.9131 17.7565 18.9629C17.7465 19.013 17.7391 19.0633 17.734 19.1139C17.7289 19.1645 17.7266 19.2154 17.7266 19.2662C17.7266 19.3174 17.7289 19.3682 17.734 19.4188C17.7391 19.4694 17.7465 19.5197 17.7565 19.5698C17.7662 19.6197 17.7787 19.669 17.7935 19.7178C17.8083 19.7664 17.8255 19.8144 17.8449 19.8614C17.8643 19.9084 17.886 19.9544 17.91 19.9994C17.9341 20.0444 17.9601 20.0878 17.9885 20.1303C18.0169 20.1727 18.047 20.2136 18.0795 20.2529C18.1117 20.2923 18.1459 20.3298 18.1819 20.3659C18.218 20.4019 18.2555 20.4361 18.2949 20.4683C18.3343 20.5005 18.3751 20.531 18.4176 20.5593C18.46 20.5877 18.5034 20.6137 18.5484 20.6378C18.5934 20.6618 18.6394 20.6835 18.6864 20.7029C18.7334 20.7224 18.7812 20.7395 18.83 20.7543C18.8788 20.7691 18.9281 20.7814 18.978 20.7914C19.0281 20.8013 19.0784 20.8087 19.129 20.8138C19.1796 20.819 19.2305 20.8213 19.2816 20.8213C19.3324 20.8213 19.3833 20.819 19.4339 20.8138C19.4845 20.8087 19.5348 20.8013 19.5849 20.7914C19.6347 20.7814 19.6841 20.7691 19.7329 20.7543C19.7817 20.7395 19.8295 20.7224 19.8765 20.7029C19.9235 20.6835 19.9695 20.6618 20.0145 20.6378C20.0595 20.6137 20.1029 20.5877 20.1453 20.5593C20.1877 20.531 20.2286 20.5005 20.268 20.4683C20.3073 20.4361 20.3449 20.4019 20.3809 20.3659C20.417 20.3298 20.4512 20.2923 20.4834 20.2529C20.5159 20.2136 20.546 20.1727 20.5744 20.1303C20.6027 20.0878 20.6288 20.0444 20.6528 19.9994C20.6769 19.9544 20.6986 19.9084 20.718 19.8614C20.7374 19.8144 20.7548 19.7664 20.7694 19.7178C20.7842 19.669 20.7967 19.6197 20.8064 19.5698C20.8164 19.5197 20.8241 19.4694 20.8289 19.4188C20.834 19.3682 20.8363 19.3174 20.8363 19.2662C20.8363 19.2154 20.834 19.1645 20.8289 19.1139C20.8241 19.0633 20.8164 19.013 20.8064 18.9629C20.7967 18.9131 20.7842 18.8638 20.7694 18.8149C20.7548 18.7661 20.7374 18.7184 20.718 18.6713C20.6986 18.6243 20.6769 18.5783 20.6528 18.5333C20.6288 18.4884 20.6027 18.4449 20.5744 18.4025C20.546 18.3601 20.5159 18.3192 20.4834 18.2798C20.4512 18.2405 20.417 18.2029 20.3809 18.1669C20.3449 18.1308 20.3073 18.0966 20.268 18.0644C20.2286 18.032 20.1877 18.0018 20.1453 17.9734C20.1029 17.9451 20.0595 17.919 20.0145 17.895C19.9695 17.871 19.9235 17.8492 19.8765 17.8298C19.8295 17.8101 19.7817 17.793 19.7329 17.7784C19.6841 17.7636 19.6347 17.7511 19.5849 17.7411C19.5348 17.7314 19.4845 17.7238 19.4339 17.7189C19.3833 17.7138 19.3324 17.7115 19.2816 17.7115Z" fill="#571AFF"/>
<path d="M19.6253 17.3093C19.5742 17.3093 19.5234 17.3118 19.4728 17.3167C19.4222 17.3218 19.3718 17.3292 19.3217 17.3392C19.2719 17.3491 19.2226 17.3614 19.1738 17.3762C19.125 17.391 19.0772 17.4082 19.0301 17.4276C18.9831 17.447 18.9371 17.4687 18.8922 17.4927C18.8472 17.5168 18.8037 17.5431 18.7613 17.5712C18.7189 17.5996 18.678 17.63 18.6387 17.6622C18.5993 17.6944 18.5617 17.7286 18.5257 17.7647C18.4897 17.8007 18.4554 17.8382 18.4232 17.8776C18.3908 17.917 18.3606 17.9578 18.3322 18.0003C18.3039 18.0427 18.2778 18.0861 18.2538 18.1311C18.2298 18.1761 18.2081 18.2221 18.1886 18.2691C18.1692 18.3161 18.1521 18.3642 18.1373 18.4127C18.1224 18.4615 18.1099 18.5108 18.1002 18.5609C18.0902 18.6108 18.0828 18.6611 18.0777 18.7117C18.0726 18.7626 18.0703 18.8132 18.0703 18.8643C18.0703 18.9151 18.0726 18.966 18.0777 19.0166C18.0828 19.0672 18.0902 19.1175 18.1002 19.1676C18.1099 19.2174 18.1224 19.2668 18.1373 19.3156C18.1521 19.3644 18.1692 19.4122 18.1886 19.4592C18.2081 19.5062 18.2298 19.5522 18.2538 19.5972C18.2778 19.6422 18.3039 19.6856 18.3322 19.728C18.3606 19.7704 18.3908 19.8113 18.4232 19.8507C18.4554 19.89 18.4897 19.9276 18.5257 19.9636C18.5617 19.9997 18.5993 20.0339 18.6387 20.0661C18.678 20.0986 18.7189 20.1287 18.7613 20.1571C18.8037 20.1855 18.8472 20.2115 18.8922 20.2355C18.9371 20.2596 18.9831 20.2813 19.0301 20.3007C19.0772 20.3204 19.125 20.3375 19.1738 20.3521C19.2226 20.3669 19.2719 20.3794 19.3217 20.3894C19.3718 20.3991 19.4222 20.4068 19.4728 20.4116C19.5234 20.4167 19.5742 20.419 19.6253 20.419C19.6762 20.419 19.727 20.4167 19.7776 20.4116C19.8282 20.4068 19.8786 20.3991 19.9287 20.3894C19.9785 20.3794 20.0278 20.3669 20.0766 20.3521C20.1254 20.3375 20.1732 20.3204 20.2202 20.3007C20.2673 20.2813 20.3133 20.2596 20.3582 20.2355C20.4032 20.2115 20.4467 20.1855 20.4891 20.1571C20.5315 20.1287 20.5724 20.0986 20.6117 20.0661C20.6511 20.0339 20.6887 19.9997 20.7247 19.9636C20.7607 19.9276 20.795 19.89 20.8272 19.8507C20.8596 19.8113 20.8898 19.7704 20.9181 19.728C20.9465 19.6856 20.9726 19.6422 20.9966 19.5972C21.0206 19.5522 21.0423 19.5062 21.0618 19.4592C21.0812 19.4122 21.0986 19.3644 21.1131 19.3156C21.1279 19.2668 21.1405 19.2174 21.1502 19.1676C21.1601 19.1175 21.1678 19.0672 21.1727 19.0166C21.1778 18.966 21.1801 18.9151 21.1801 18.8643C21.1801 18.8132 21.1778 18.7626 21.1727 18.7117C21.1678 18.6611 21.1601 18.6108 21.1502 18.5609C21.1405 18.5108 21.1279 18.4615 21.1131 18.4127C21.0986 18.3642 21.0812 18.3161 21.0618 18.2691C21.0423 18.2221 21.0206 18.1761 20.9966 18.1311C20.9726 18.0861 20.9465 18.0427 20.9181 18.0003C20.8898 17.9578 20.8596 17.917 20.8272 17.8776C20.795 17.8382 20.7607 17.8007 20.7247 17.7647C20.6887 17.7286 20.6511 17.6944 20.6117 17.6622C20.5724 17.63 20.5315 17.5996 20.4891 17.5712C20.4467 17.5431 20.4032 17.5168 20.3582 17.4927C20.3133 17.4687 20.2673 17.447 20.2202 17.4276C20.1732 17.4082 20.1254 17.391 20.0766 17.3762C20.0278 17.3614 19.9785 17.3491 19.9287 17.3392C19.8786 17.3292 19.8282 17.3218 19.7776 17.3167C19.727 17.3118 19.6762 17.3093 19.6253 17.3093Z" fill="#571AFF"/>
<path d="M4.51001 18.6062C4.47295 18.6062 4.4359 18.6079 4.3991 18.6115C4.36204 18.6154 4.3255 18.6207 4.28921 18.6279C4.25267 18.6353 4.21689 18.6442 4.18137 18.655C4.14585 18.6657 4.1111 18.6782 4.07685 18.6923C4.04261 18.7066 4.00913 18.7224 3.97642 18.7398C3.94371 18.7574 3.91177 18.7763 3.8811 18.797C3.85018 18.8175 3.82054 18.8397 3.79192 18.8632C3.76304 18.8867 3.7357 18.9115 3.70937 18.9379C3.68331 18.9639 3.65827 18.9915 3.63475 19.0201C3.61124 19.0488 3.58927 19.0784 3.56857 19.1093C3.54812 19.1402 3.52896 19.1719 3.51158 19.2046C3.4942 19.2374 3.47836 19.2708 3.46405 19.3051C3.44999 19.3393 3.43747 19.3741 3.42674 19.4096C3.41575 19.4451 3.40681 19.4811 3.39965 19.5174C3.3925 19.5537 3.38687 19.5905 3.3833 19.6273C3.37972 19.6641 3.37793 19.7012 3.37793 19.7382C3.37793 19.7753 3.37972 19.8123 3.3833 19.8491C3.38687 19.8862 3.3925 19.9227 3.39965 19.959C3.40681 19.9956 3.41575 20.0313 3.42674 20.0669C3.43747 20.1024 3.44999 20.1371 3.46405 20.1716C3.47836 20.2059 3.4942 20.2394 3.51158 20.2721C3.52896 20.3045 3.54812 20.3365 3.56857 20.3671C3.58927 20.3981 3.61124 20.4277 3.63475 20.4566C3.65827 20.4852 3.68331 20.5125 3.70937 20.5389C3.7357 20.5649 3.76304 20.59 3.79192 20.6135C3.82054 20.637 3.85018 20.659 3.8811 20.6797C3.91177 20.7001 3.94371 20.7193 3.97642 20.7367C4.00913 20.7543 4.04261 20.7701 4.07685 20.7842C4.1111 20.7985 4.14585 20.8108 4.18137 20.8218C4.21689 20.8325 4.25267 20.8414 4.28921 20.8486C4.3255 20.8557 4.36204 20.8614 4.3991 20.8649C4.4359 20.8685 4.47295 20.8703 4.51001 20.8703C4.54706 20.8703 4.58411 20.8685 4.62091 20.8649C4.65797 20.8614 4.69451 20.8557 4.7308 20.8486C4.76709 20.8414 4.80312 20.8325 4.83864 20.8218C4.87416 20.8108 4.90891 20.7985 4.94316 20.7842C4.9774 20.7701 5.01088 20.7543 5.04359 20.7367C5.0763 20.7193 5.10799 20.7001 5.13891 20.6797C5.16983 20.659 5.19947 20.637 5.22809 20.6135C5.25671 20.59 5.28431 20.5649 5.31038 20.5389C5.3367 20.5125 5.36149 20.4852 5.385 20.4566C5.40851 20.4277 5.43074 20.3981 5.45119 20.3671C5.47189 20.3365 5.4908 20.3045 5.50843 20.2721C5.52581 20.2394 5.54165 20.2059 5.55596 20.1716C5.57002 20.1371 5.58254 20.1024 5.59327 20.0669C5.604 20.0313 5.6132 19.9956 5.62036 19.959C5.62751 19.9227 5.63288 19.8862 5.63671 19.8491C5.64029 19.8123 5.64208 19.7753 5.64208 19.7382C5.64208 19.7012 5.64029 19.6641 5.63671 19.6273C5.63288 19.5905 5.62751 19.5537 5.62036 19.5174C5.6132 19.4811 5.604 19.4451 5.59327 19.4096C5.58254 19.3741 5.57002 19.3393 5.55596 19.3051C5.54165 19.2708 5.52581 19.2374 5.50843 19.2046C5.4908 19.1719 5.47189 19.1402 5.45119 19.1093C5.43074 19.0784 5.40851 19.0488 5.385 19.0201C5.36149 18.9915 5.3367 18.9639 5.31038 18.9379C5.28431 18.9115 5.25671 18.8867 5.22809 18.8632C5.19947 18.8397 5.16983 18.8175 5.13891 18.797C5.10799 18.7763 5.0763 18.7574 5.04359 18.7398C5.01088 18.7224 4.9774 18.7066 4.94316 18.6923C4.90891 18.6782 4.87416 18.6657 4.83864 18.655C4.80312 18.6442 4.76709 18.6353 4.7308 18.6279C4.69451 18.6207 4.65797 18.6154 4.62091 18.6115C4.58411 18.6079 4.54706 18.6062 4.51001 18.6062Z" fill="#571AFF"/>
<path d="M4.46126 17.4565C4.4104 17.4565 4.35955 17.459 4.30869 17.4639C4.2581 17.469 4.20775 17.4764 4.15792 17.4864C4.10783 17.4963 4.05851 17.5086 4.00996 17.5234C3.96115 17.5382 3.91311 17.5554 3.86609 17.5748C3.81907 17.5942 3.77307 17.6159 3.72835 17.6399C3.68337 17.664 3.63967 17.6903 3.59725 17.7184C3.55508 17.7468 3.5142 17.7772 3.47484 17.8094C3.43549 17.8416 3.39767 17.8758 3.36164 17.9118C3.3256 17.9479 3.29162 17.9854 3.25916 18.0248C3.22696 18.0642 3.19655 18.105 3.16844 18.1475C3.14008 18.1899 3.11375 18.2333 3.08999 18.2783C3.06597 18.3233 3.04425 18.3693 3.02457 18.4163C3.00515 18.4633 2.98803 18.5114 2.9732 18.5599C2.95838 18.6087 2.94612 18.658 2.93615 18.7081C2.92618 18.758 2.91877 18.8083 2.91366 18.8589C2.90881 18.9098 2.90625 18.9604 2.90625 19.0115C2.90625 19.0623 2.90881 19.1132 2.91366 19.1638C2.91877 19.2144 2.92618 19.2647 2.93615 19.3148C2.94612 19.3646 2.95838 19.414 2.9732 19.4628C2.98803 19.5116 3.00515 19.5594 3.02457 19.6064C3.04425 19.6534 3.06597 19.6994 3.08999 19.7444C3.11375 19.7894 3.14008 19.8328 3.16844 19.8752C3.19655 19.9176 3.22696 19.9585 3.25916 19.9979C3.29162 20.0372 3.3256 20.0748 3.36164 20.1108C3.39767 20.1469 3.43549 20.1811 3.47484 20.2133C3.5142 20.2458 3.55508 20.2759 3.59725 20.3043C3.63967 20.3326 3.68337 20.3587 3.72835 20.3827C3.77307 20.4068 3.81907 20.4285 3.86609 20.4479C3.91311 20.4676 3.96115 20.4847 4.00996 20.4993C4.05851 20.5141 4.10783 20.5266 4.15792 20.5366C4.20775 20.5463 4.2581 20.5539 4.30869 20.5588C4.35955 20.5639 4.4104 20.5662 4.46126 20.5662C4.51211 20.5662 4.56296 20.5639 4.61356 20.5588C4.66442 20.5539 4.71476 20.5463 4.76459 20.5366C4.81442 20.5266 4.864 20.5141 4.91255 20.4993C4.96136 20.4847 5.00915 20.4676 5.05617 20.4479C5.10345 20.4285 5.14945 20.4068 5.19417 20.3827C5.23914 20.3587 5.28284 20.3326 5.32501 20.3043C5.36743 20.2759 5.40832 20.2458 5.44767 20.2133C5.48702 20.1811 5.52484 20.1469 5.56088 20.1108C5.59665 20.0748 5.6309 20.0372 5.66335 19.9979C5.69555 19.9585 5.72596 19.9176 5.75407 19.8752C5.78244 19.8328 5.8085 19.7894 5.83252 19.7444C5.85655 19.6994 5.87827 19.6534 5.89794 19.6064C5.91737 19.5594 5.93449 19.5116 5.94931 19.4628C5.96413 19.414 5.9764 19.3646 5.98636 19.3148C5.99633 19.2647 6.00374 19.2144 6.0086 19.1638C6.01371 19.1132 6.01626 19.0623 6.01626 19.0115C6.01626 18.9604 6.01371 18.9098 6.0086 18.8589C6.00374 18.8083 5.99633 18.758 5.98636 18.7081C5.9764 18.658 5.96413 18.6087 5.94931 18.5599C5.93449 18.5114 5.91737 18.4633 5.89794 18.4163C5.87827 18.3693 5.85655 18.3233 5.83252 18.2783C5.8085 18.2333 5.78244 18.1899 5.75407 18.1475C5.72596 18.105 5.69555 18.0642 5.66335 18.0248C5.6309 17.9854 5.59665 17.9479 5.56088 17.9118C5.52484 17.8758 5.48702 17.8416 5.44767 17.8094C5.40832 17.7772 5.36743 17.7468 5.32501 17.7184C5.28284 17.6903 5.23914 17.664 5.19417 17.6399C5.14945 17.6159 5.10345 17.5942 5.05617 17.5748C5.00915 17.5554 4.96136 17.5382 4.91255 17.5234C4.864 17.5086 4.81442 17.4963 4.76459 17.4864C4.71476 17.4764 4.66442 17.469 4.61356 17.4639C4.56296 17.459 4.51211 17.4565 4.46126 17.4565Z" fill="#571AFF"/>
<path d="M7.47298 21.3466C7.37076 21.3466 7.26956 21.351 7.16964 21.3594C7.06947 21.3679 6.9721 21.3804 6.87781 21.397C6.78351 21.4139 6.69381 21.434 6.60897 21.4583C6.52413 21.4826 6.44542 21.5099 6.37335 21.5406C6.30103 21.5715 6.23664 21.605 6.1799 21.641C6.12317 21.6773 6.07539 21.7154 6.03629 21.7558C5.99719 21.7959 5.9678 21.8373 5.94787 21.88C5.92794 21.9226 5.91797 21.9658 5.91797 22.0093C5.91797 22.0527 5.92794 22.0959 5.94787 22.1386C5.9678 22.1813 5.99719 22.2227 6.03629 22.2628C6.07539 22.3032 6.12317 22.3412 6.1799 22.3775C6.23664 22.4136 6.30103 22.447 6.37335 22.478C6.44542 22.5086 6.52413 22.536 6.60897 22.5602C6.69381 22.5845 6.78351 22.6047 6.87781 22.6216C6.9721 22.6382 7.06947 22.6507 7.16964 22.6591C7.26956 22.6676 7.37076 22.6719 7.47298 22.6719C7.57494 22.6719 7.67614 22.6676 7.77631 22.6591C7.87649 22.6507 7.97359 22.6382 8.06789 22.6216C8.16219 22.6047 8.25188 22.5845 8.33673 22.5602C8.42157 22.536 8.50028 22.5086 8.57234 22.478C8.64466 22.447 8.70906 22.4136 8.76579 22.3775C8.82252 22.3412 8.87031 22.3032 8.90941 22.2628C8.94851 22.2227 8.97815 22.1813 8.99808 22.1386C9.01776 22.0959 9.02773 22.0527 9.02773 22.0093C9.02773 21.9658 9.01776 21.9226 8.99808 21.88C8.97815 21.8373 8.94851 21.7959 8.90941 21.7558C8.87031 21.7154 8.82252 21.6773 8.76579 21.641C8.70906 21.605 8.64466 21.5715 8.57234 21.5406C8.50028 21.5099 8.42157 21.4826 8.33673 21.4583C8.25188 21.434 8.16219 21.4139 8.06789 21.397C7.97359 21.3804 7.87649 21.3679 7.77631 21.3594C7.67614 21.351 7.57494 21.3466 7.47298 21.3466Z" fill="#571AFF"/>
</svg>
