<svg width="24" height="24" viewBox="0 0 24 24" fill="none" xmlns="http://www.w3.org/2000/svg">
<circle cx="12" cy="12" r="12" fill="#FFC04E"/>
<path fill-rule="evenodd" clip-rule="evenodd" d="M5.55261 9.89505H3.7998L4.12879 8.60004H5.88159L5.55261 9.89505ZM11.7986 8.86977H11.7964L11.853 8.60004H6.31988L4.67648 15.4H6.48437L7.72635 9.89506H9.93868L8.62049 15.4H10.2646L11.5572 9.89506H11.5798L11.776 8.96799L11.7986 8.86977ZM17.6601 8.60004H14.9211L13.277 15.3464H16.7245C17.1389 15.3484 17.5512 15.2865 17.9469 15.1628C18.601 14.955 19.3971 14.5183 19.5231 13.6192H20.0166L20.1811 12.9717H19.5782C19.5782 12.9717 19.6325 12 18.3724 11.8383C18.3724 11.8383 19.4688 11.5142 19.6325 10.9203H20.1811L20.3999 10.2728H19.797C19.797 10.2728 20.0166 8.70808 17.6601 8.60004ZM11.6341 11.2981L13.0587 14.6444L13.6608 11.892L12.237 8.70805L11.6341 11.2981ZM17.2496 11.2982C17.4458 11.2982 17.6344 11.2226 17.7725 11.0851C17.9106 10.9476 17.9891 10.7632 17.9891 10.5698C17.9891 10.3764 17.9114 10.1913 17.7725 10.0545C17.6337 9.91775 17.4458 9.84144 17.2496 9.84144H16.1819L15.8537 11.2982H17.2496ZM17.7703 13.2686C17.7703 13.7302 17.3719 14.105 16.8807 14.105H15.201L15.5964 12.4314H16.8807C17.3741 12.4314 17.7703 12.8062 17.7703 13.2686Z" fill="white"/>
</svg>
