<svg width="24" height="24" viewBox="0 0 24 24" fill="none" xmlns="http://www.w3.org/2000/svg">
<path d="M23.6383 14.9029C22.0356 21.3315 15.5244 25.2438 9.09503 23.6407C2.66833 22.0381 -1.24401 15.5265 0.359382 9.09837C1.96137 2.66903 8.47253 -1.24361 14.8999 0.359081C21.3289 1.96177 25.241 8.47405 23.6381 14.903L23.6382 14.9029H23.6383Z" fill="#EDF0F4"/>
<path d="M9.26867 4V9.33143L6.6001 12V6.66857L9.26867 4Z" fill="#242828"/>
<path d="M17.2687 14.6686C17.2687 17.6114 14.8801 20 11.9372 20C8.98867 20 6.6001 17.6114 6.6001 14.6686V12H9.26867V14.6686C9.26867 16.1429 10.463 17.3371 11.9372 17.3371C13.4115 17.3371 14.6058 16.1429 14.6058 14.6686H17.2687Z" fill="#242828"/>
<path d="M17.2687 9.33144L14.6001 12H6.6001L9.26867 9.33144H17.2687Z" fill="#00E8B5"/>
</svg>
