<svg width="24" height="24" viewBox="0 0 24 24" fill="none" xmlns="http://www.w3.org/2000/svg">
<circle cx="12" cy="12" r="12" fill="black"/>
<path fill-rule="evenodd" clip-rule="evenodd" d="M15.3011 8.01323C17.2982 8.18842 18.8749 9.80015 18.98 11.7973C18.8749 8.50376 16.142 5.87594 12.8134 5.98105C10.8513 6.05113 9.02932 7.03218 7.9782 8.67895C8.15338 6.6818 9.76511 5.10511 11.7623 5C8.43368 5.14015 5.87594 7.9782 6.01609 11.3068C6.08617 13.1988 7.06722 14.9507 8.64391 16.0018C6.64677 15.8266 5.10511 14.2149 5 12.2177C5.07008 15.5113 7.83805 18.1391 11.1316 18.069C13.0937 18.034 14.8806 17.0179 15.9668 15.4062C15.7916 17.3683 14.1799 18.9099 12.2177 19.015C15.5113 18.9099 18.1041 16.142 17.9989 12.8134C17.9289 10.8863 16.9478 9.06436 15.3011 8.01323ZM11.9724 14.5302C11.3067 14.5302 10.676 14.285 10.2205 13.7944C9.23948 12.8134 9.27452 11.2367 10.2205 10.2907C11.1665 9.34466 12.7783 9.34466 13.7243 10.2907C14.6703 11.2367 14.6703 12.8484 13.7243 13.7944C13.2688 14.285 12.6381 14.5302 11.9724 14.5302Z" fill="#94FEBF"/>
</svg>
