<svg width="24" height="24" viewBox="0 0 24 24" fill="none" xmlns="http://www.w3.org/2000/svg">
<circle cx="12" cy="12" r="12" fill="#3058A6"/>
<path fill-rule="evenodd" clip-rule="evenodd" d="M3 12C3 7.03711 7.03711 3 12 3C16.9629 3 21 7.03711 21 12C21 16.9629 16.9629 21 12 21C7.03711 21 3 16.9629 3 12ZM3.53897 12C3.53897 16.6727 7.3273 20.461 11.9999 20.461C16.6726 20.461 20.4609 16.6727 20.4609 12C20.4609 7.32738 16.6726 3.53905 11.9999 3.53905C7.3273 3.53905 3.53897 7.32738 3.53897 12Z" fill="white"/>
<path fill-rule="evenodd" clip-rule="evenodd" d="M13.9821 5.72461L14.3531 6.49584L14.1171 7.56939H13.5773L13.9294 5.96586L13.9821 5.72461ZM14.6999 17.254L15.1696 15.2192L15.2269 14.9712L15.5933 15.7484L15.1236 17.7832L15.0098 18.2755H14.5047L11.9083 18.274H11.8977C10.5256 18.2514 9.54253 17.7787 9.07964 16.9622C9.61566 17.4507 10.4329 17.7274 11.474 17.7448H11.4846L14.0817 17.7463H14.5868L14.6999 17.254ZM16.2283 8.35117L15.7609 10.3301L15.6448 10.8187H12.8305L12.1158 14.0815C12.1007 14.175 12.0917 14.27 12.0917 14.3228C12.0917 14.3688 12.0969 14.3982 12.1015 14.4125C12.1552 14.4326 12.2122 14.4423 12.2696 14.4411H12.5772L13.2542 11.3487H16.0685L16.1838 10.8594L16.6512 8.8804L16.2878 8.09937L16.2275 8.35117H16.2283ZM7.28467 10.8187H9.24555L9.1302 11.3487H7.96016L7.28467 10.8187Z" fill="white"/>
<path d="M12.3309 15.0767H12.2593C11.7135 15.0623 11.4556 14.7781 11.4556 14.3228C11.4556 14.2142 11.4737 14.0702 11.4918 13.9624L12.3196 10.1839H15.1422L15.6096 8.20491H12.787L13.3087 5.83014H11.0063L10.4839 8.20491H7.98545L7.53613 10.1839H10.0345L9.06202 14.6281C9.00924 14.8437 8.9904 15.0955 8.9904 15.2214C8.9904 16.4895 9.99082 17.085 11.4843 17.1099L14.0807 17.1107L14.5504 15.0767H12.3309Z" fill="white"/>
</svg>
