<svg width="24" height="24" viewBox="0 0 24 24" fill="none" xmlns="http://www.w3.org/2000/svg">
<circle cx="12" cy="12" r="12" fill="#EDF0F4"/>
<path fill-rule="evenodd" clip-rule="evenodd" d="M14.5283 14.0133L16.9968 16.1141V16.0616C17.2069 15.799 17.4169 15.4839 17.627 15.1688L14.8434 13.5406C14.7384 13.6982 14.6334 13.8558 14.5283 14.0133Z" fill="url(#paint0_linear_300_12490)"/>
<path fill-rule="evenodd" clip-rule="evenodd" d="M15.2638 11.9125H18.4675V11.9651C18.4675 12.2802 18.415 12.5953 18.3625 12.9104V13.0155V13.1205C18.31 13.4356 18.2049 13.7507 18.0999 14.0659V14.1184L15.0537 13.0155C15.2113 12.7003 15.2638 12.3327 15.2638 11.9125Z" fill="url(#paint1_linear_300_12490)"/>
<path fill-rule="evenodd" clip-rule="evenodd" d="M17.6798 8.65624C17.8373 8.97136 17.9949 9.28649 18.0999 9.60161L18.1524 9.65413V9.70665C18.2575 10.0218 18.3625 10.3369 18.415 10.652V10.7045L15.2638 11.2823C15.1588 10.7045 14.9487 10.1793 14.5811 9.75917L17.0495 7.65836V7.71088C17.2596 8.026 17.4697 8.34112 17.6798 8.65624Z" fill="url(#paint2_linear_300_12490)"/>
<path fill-rule="evenodd" clip-rule="evenodd" d="M12.6378 8.70877C12.4277 8.65625 12.2701 8.65625 12.0601 8.65625V5.39999C12.4277 5.39999 12.7953 5.45251 13.163 5.50503C13.5306 5.55755 13.8457 5.6626 14.2134 5.76764C14.5285 5.87268 14.8962 6.03024 15.2113 6.24032C15.5264 6.39788 15.789 6.60796 16.1041 6.87056H16.1566L14.1084 9.33902C13.8457 9.07642 13.4781 8.91886 13.163 8.76129C13.0054 8.76129 12.7953 8.70877 12.6378 8.70877Z" fill="url(#paint3_linear_300_12490)"/>
<path fill-rule="evenodd" clip-rule="evenodd" d="M12.0601 8.65625V5.39999C8.43619 5.39999 5.6001 8.28861 5.6001 11.9125C5.6001 15.5364 8.48871 18.425 12.0601 18.425C13.9508 18.425 15.789 17.5847 16.997 16.1141L14.5286 14.0133C13.9508 14.7486 13.0055 15.1688 12.0601 15.1688C10.2744 15.1688 8.80384 13.6982 8.80384 11.9125C8.80384 10.1268 10.2744 8.65625 12.0601 8.65625ZM18.1527 14.1184L15.1066 13.0155C15.0753 13.1404 15.0255 13.2468 14.9792 13.3457L14.9792 13.3457C14.9476 13.413 14.9178 13.4768 14.8965 13.5407L17.6801 15.1688C17.7392 15.0307 17.8058 14.9 17.8715 14.7712C17.9806 14.557 18.0871 14.3479 18.1527 14.1184ZM18.415 10.7571L18.415 10.7571C18.4675 11.1247 18.52 11.4924 18.52 11.9125H15.3163C15.3163 11.7025 15.3163 11.5449 15.2637 11.3348L18.415 10.7571ZM16.4832 7.18565C16.3898 7.09812 16.2965 7.01058 16.2089 6.92305L14.1081 9.39151C14.1627 9.44613 14.2174 9.49444 14.2698 9.54082C14.3686 9.62821 14.4596 9.70873 14.5283 9.81167L16.9967 7.71086C16.8567 7.53579 16.6699 7.36072 16.4832 7.18565Z" fill="#1D2667"/>
<defs>
<linearGradient id="paint0_linear_300_12490" x1="15.8554" y1="13.9215" x2="15.1007" y2="15.0119" gradientUnits="userSpaceOnUse">
<stop stop-color="white" stop-opacity="0.01"/>
<stop offset="1" stop-opacity="0.1"/>
</linearGradient>
<linearGradient id="paint1_linear_300_12490" x1="16.4531" y1="12.4505" x2="16.1637" y2="13.3032" gradientUnits="userSpaceOnUse">
<stop stop-color="white" stop-opacity="0.01"/>
<stop offset="1" stop-opacity="0.1"/>
</linearGradient>
<linearGradient id="paint2_linear_300_12490" x1="14.7234" y1="9.64556" x2="15.9497" y2="11.7821" gradientUnits="userSpaceOnUse">
<stop stop-color="white" stop-opacity="0.01"/>
<stop offset="1" stop-opacity="0.1"/>
</linearGradient>
<linearGradient id="paint3_linear_300_12490" x1="10.7185" y1="7.9832" x2="14.1743" y2="10.6324" gradientUnits="userSpaceOnUse">
<stop stop-color="white" stop-opacity="0.01"/>
<stop offset="1" stop-opacity="0.1"/>
</linearGradient>
</defs>
</svg>
