<svg width="24" height="24" viewBox="0 0 24 24" fill="none" xmlns="http://www.w3.org/2000/svg">
<circle cx="12" cy="12" r="12" fill="#00843D"/>
<path fill-rule="evenodd" clip-rule="evenodd" d="M10.578 3.38324C11.0104 3.13343 11.5009 3.00179 12.0002 3.0015L11.9994 3C12.4992 3.00003 12.9902 3.13168 13.4231 3.38174L18.7769 6.47682C19.6562 6.98683 20.1982 7.92656 20.1998 8.94391V15.2568C20.1982 16.2742 19.6562 17.2139 18.7769 17.7239L13.4224 20.8183C12.5423 21.3272 11.4573 21.3272 10.5765 20.8183L5.22274 17.7239C4.34337 17.2139 3.80137 16.2742 3.7998 15.2568V8.94391C3.80137 7.92656 4.34337 6.98683 5.22274 6.47682L10.578 3.38324ZM12.8405 4.39446C12.5855 4.24701 12.2961 4.16991 12.0015 4.16991L12.0008 4.16916H11.9993C11.7054 4.16916 11.4153 4.24701 11.1596 4.39446L5.80581 7.4888C5.28614 7.7897 4.96611 8.34435 4.96611 8.94465V15.2576C4.9664 15.8579 5.28646 16.4125 5.80581 16.7127L11.1611 19.8078C11.6804 20.1079 12.3203 20.1079 12.8397 19.8078L18.1942 16.7127C18.7139 16.4125 19.0332 15.8579 19.0332 15.2576V8.94465C19.0335 8.34417 18.7136 7.78917 18.1942 7.4888L12.8405 4.39446Z" fill="white"/>
<path fill-rule="evenodd" clip-rule="evenodd" d="M12.1695 7.14747C12.065 7.09049 11.9389 7.09049 11.8345 7.14747L10.2448 8.01574L11.0419 9.39749C11.1043 9.5058 11.2198 9.57256 11.3447 9.57264H12.6592C12.7842 9.57271 12.8997 9.50591 12.962 9.39749L13.7591 8.01649L12.1695 7.14822V7.14747ZM9.58838 11.3324C9.71351 11.3322 9.82913 11.2655 9.89196 11.1572L10.5358 10.0397C10.5983 9.9313 10.5983 9.79777 10.5358 9.68938L9.73269 8.29641L8.1647 9.1527C8.05011 9.21555 7.98005 9.33707 7.983 9.46783C7.99571 10.0951 8.06899 10.7193 8.20059 11.3324H9.58838ZM11.3448 13.0921C11.2196 13.0923 11.1038 13.0255 11.0412 12.9169L10.3974 11.7994C10.3349 11.691 10.3349 11.5575 10.3974 11.4491L11.0412 10.3316C11.1038 10.223 11.2196 10.1563 11.3448 10.1564H12.6593C12.7842 10.1568 12.8995 10.2235 12.9622 10.3316L13.6067 11.4491C13.6692 11.5575 13.6692 11.691 13.6067 11.7994L12.9622 12.9169C12.8997 13.0253 12.7843 13.092 12.6593 13.0921H11.3448ZM14.1122 11.1572C14.1747 11.2655 14.2901 11.3323 14.415 11.3324H15.8036C15.9351 10.7189 16.0077 10.0943 16.0204 9.46708C16.0229 9.33642 15.9526 9.21523 15.838 9.1527L14.2707 8.29641L13.4677 9.68938C13.4052 9.79777 13.4052 9.9313 13.4677 10.0397L14.1122 11.1572ZM9.76271 14.9005C9.1248 13.9934 8.64566 12.9842 8.34576 11.9162H9.58924C9.71418 11.9163 9.8296 11.983 9.89207 12.0914L10.5366 13.2089C10.5991 13.3173 10.5991 13.4508 10.5366 13.5592L9.76271 14.9005ZM15.657 11.9162C15.3574 12.9841 14.8785 13.9933 14.2408 14.9005L13.4669 13.5592C13.4044 13.4508 13.4044 13.3173 13.4669 13.2089L14.1122 12.0914C14.1747 11.983 14.2901 11.9163 14.415 11.9162H15.657ZM11.0413 13.8511C11.1039 13.7426 11.2197 13.6758 11.3449 13.676H12.6601C12.7851 13.6761 12.9005 13.7428 12.963 13.8511L13.8603 15.4073C13.3773 16.0086 12.8257 16.5512 12.2167 17.0241C12.0904 17.1213 11.9146 17.1213 11.7883 17.0241C11.1791 16.5515 10.6273 16.0091 10.144 15.408L11.0413 13.8511Z" fill="white"/>
</svg>
