<svg width="24" height="24" viewBox="0 0 24 24" fill="none" xmlns="http://www.w3.org/2000/svg">
<path fill-rule="evenodd" clip-rule="evenodd" d="M12 24C5.4 24 0 18.6001 0 11.9402C0.06 5.34038 5.4 -0.0595036 12.06 0.000495204C18.66 0.060494 24 5.40038 24 12.1202C23.94 18.6601 18.6 24 12 24Z" fill="#FC070C"/>
<path fill-rule="evenodd" clip-rule="evenodd" d="M20.5498 9.4612C20.2223 9.15881 19.8426 8.79015 19.4469 8.40599C18.8911 7.86638 18.3039 7.29621 17.7856 6.83621L17.7331 6.79946C17.6458 6.72931 17.5473 6.6743 17.4418 6.63671L17.0418 6.56209L17.0418 6.56208L17.0417 6.56207L17.0417 6.56206C14.2816 6.04706 5.33558 4.37784 5.15155 4.40022C5.09712 4.40784 5.0451 4.42757 4.9993 4.45797L4.94943 4.49734C4.88802 4.55971 4.84137 4.63506 4.81293 4.71784L4.7998 4.75197V4.93834V4.96722C5.40717 6.65844 6.9849 10.4353 8.44171 13.9227L8.44175 13.9228L8.44177 13.9229L8.44179 13.9229L8.44182 13.923C9.67347 16.8713 10.8187 19.6128 11.2179 20.7119L11.2181 20.7124C11.2706 20.8752 11.3703 21.1844 11.5565 21.2002H11.5985C11.6983 21.2002 12.1235 20.6384 12.1235 20.6384C12.1235 20.6384 19.7255 11.4194 20.4946 10.4377C20.5942 10.3168 20.6821 10.1867 20.7571 10.0492C20.7961 9.83038 20.7174 9.60716 20.5498 9.4612ZM14.0741 10.5348L17.3186 7.84421L19.2217 9.5977L14.0741 10.5348ZM7.22807 5.78097L12.814 10.359L16.2659 7.44784L7.22807 5.78097ZM13.3181 11.5586L19.0353 10.6372L12.4991 18.5122L13.3181 11.5586ZM12.3469 11.2252L6.4695 6.23772L11.4964 18.5174L12.3469 11.2252Z" fill="white"/>
</svg>
