<svg width="52" height="51" viewBox="0 0 52 51" fill="none" xmlns="http://www.w3.org/2000/svg">
<ellipse cx="25.4352" cy="25.4321" rx="23.9333" ry="23.9303" fill="#2F80ED"/>
<path d="M41.5186 34.9867C39.4249 38.5204 36.2209 41.2624 32.4059 42.7855C28.591 44.3086 24.3793 44.5271 20.4272 43.4071C16.475 42.2871 13.0044 39.8914 10.5561 36.5933C8.10773 33.2953 6.81921 29.2801 6.89129 25.1735C6.96335 21.0668 8.39196 17.0993 10.9545 13.8892C13.5171 10.679 17.0696 8.40657 21.0586 7.42588C25.0476 6.44519 29.249 6.81134 33.0082 8.46729C36.7674 10.1232 39.8731 12.976 41.8416 16.581L25.5032 25.5L41.5186 34.9867Z" fill="white"/>
<ellipse cx="25.4352" cy="25.4321" rx="13.2963" ry="13.2946" fill="#2F80ED"/>
<ellipse cx="25.5682" cy="25.5651" rx="6.51519" ry="6.51436" fill="white"/>
</svg>
