<svg width="24" height="24" viewBox="0 0 24 24" fill="none" xmlns="http://www.w3.org/2000/svg">
<path d="M12 0C18.6274 0 24 5.37257 24 12C24 18.6274 18.6274 24 12 24C5.37257 24 0 18.6274 0 12C0 5.37257 5.37257 0 12 0Z" fill="#FFE81C"/>
<path d="M19.7981 6.50948L18.3862 11.0955H14.837L14.2891 11.5131L12.3656 19.4736H7.0205L8.02027 16.501L8.0957 16.211L5.90896 17.8711L8.93639 13.4709L9.64884 11.0955H4.8125L6.21136 6.50948H12.269H12.7387L15.2203 4.91999L14.2082 6.50948H19.7981Z" fill="#3F3F3F"/>
<path d="M17.8928 10.4092L18.8974 7.32138H14.4293L13.1978 9.33601L16.0085 10.3961L17.8928 10.4092Z" fill="#FFE81C"/>
<path d="M8.13184 15.5355L14.4973 10.7115L11.6866 9.52936L11.8587 9.25028L13.5373 6.61919L13.5504 6.59314L8.72704 9.68365L11.2512 11.0016L8.13184 15.5355Z" fill="#FFE81C"/>
<path d="M11.7029 18.5787L13.1278 13.1362L8.8949 16.4331L8.2085 18.576H11.7029V18.5787Z" fill="#FFE81C"/>
<path d="M6.93933 9.76938L10.7574 7.33167L6.66299 7.32138L5.71533 10.3934L8.44242 10.4092L6.93933 9.76938Z" fill="#FFE81C"/>
</svg>
