<svg width="24" height="24" viewBox="0 0 24 24" fill="none" xmlns="http://www.w3.org/2000/svg">
<circle cx="12" cy="12" r="12" fill="#EDF0F4"/>
<path d="M9.69336 17.8696H17.544L18.6798 15.8352H10.8416L9.69336 17.8696Z" fill="#5569FF"/>
<path d="M17.2944 13.3764H15.0103L13.8745 15.3984H16.1461L17.2944 13.3764Z" fill="#5569FF"/>
<path d="M17.2945 12.9395L13.3754 6H11.0913L15.0229 12.9395H17.2945Z" fill="#5C00E9"/>
<path d="M5.3999 15.623L6.53569 17.6325L10.4673 10.6929L9.319 8.68346L5.3999 15.623Z" fill="#00BFE9"/>
<path d="M9.3189 17.6325L10.4672 15.623L9.3189 13.6011L8.18311 15.623L9.3189 17.6325Z" fill="#00BFE9"/>
<path d="M9.70605 8.4588L10.8418 10.4808H13.1259L11.9776 8.4588H9.70605Z" fill="#5C00E9"/>
<path d="M18.6797 15.3984L17.6687 13.6135L16.6577 15.3984H18.6797Z" fill="#243269"/>
<path d="M13.5003 15.1737L14.6361 13.1642L13.5003 11.1423L12.3521 13.1642L13.5003 15.1737Z" fill="#243269"/>
<path d="M9.69336 13.3764L10.8416 15.3984H11.0913H13.1257L11.9774 13.3764H9.69336Z" fill="#243269"/>
<path d="M10.8416 10.9176L9.69336 12.9395H11.9774L13.1132 10.9176H10.8416Z" fill="#243269"/>
<path d="M6.91016 17.8696H8.94459L7.93361 16.0723L6.91016 17.8696Z" fill="#243269"/>
<path d="M10.7168 6.22466L9.69336 8.02196H11.7278L10.7168 6.22466Z" fill="#243269"/>
</svg>
