<svg width="24" height="24" viewBox="0 0 24 24" fill="none" xmlns="http://www.w3.org/2000/svg">
<circle cx="12" cy="12" r="12" fill="#2B2E7F"/>
<path d="M12.8252 14.227V9.82572H13.4218C15.2865 9.82572 15.8085 8.03537 15.8085 8.03537H10.8114C8.42468 8.03537 8.05176 9.82572 8.05176 9.82572H10.9606V16.465C10.886 16.465 12.8252 15.8682 12.8252 14.227Z" fill="white"/>
<path d="M18.2697 17.6585C19.9105 15.9428 20.5818 13.481 19.9851 11.1685C19.6868 9.97492 19.0155 8.85595 18.1205 7.96078C18.0459 7.88618 17.9713 7.81158 17.8968 7.73698L17.8222 7.66238C17.7476 7.58779 17.673 7.58779 17.673 7.51319L17.5984 7.43859L17.4493 7.28939H17.2255C17.1509 7.2148 17.0763 7.2148 17.0017 7.1402L16.8526 7.0656C16.778 7.0656 16.778 6.991 16.7034 6.991L16.5542 6.9164C16.6288 6.84181 16.5542 6.76721 16.4797 6.76721L16.3305 6.69261C16.2559 6.69261 16.2559 6.61801 16.1813 6.61801H16.1067C16.3305 6.76721 16.4797 6.84181 16.6288 6.991C19.1647 9.52734 19.2393 13.6302 16.7034 16.2412C16.7034 16.2412 16.7034 16.2412 16.6288 16.3158C13.3471 19.5981 8.05161 19.5981 4.76989 16.3158C4.62072 16.1666 4.54614 16.092 4.39697 15.9428L4.32239 15.8682C4.2478 15.7936 4.17322 15.719 4.09863 15.6444C4.54614 16.465 5.06823 17.2109 5.73949 17.8823C9.17038 21.2392 14.6896 21.2392 18.1205 17.8823C18.1951 17.7331 18.1951 17.7331 18.2697 17.6585Z" fill="white"/>
<path d="M7.82789 16.7633C7.67872 16.6141 7.52955 16.5395 7.38038 16.3904C4.84451 13.854 4.76992 9.67653 7.30579 7.14019C7.30579 7.14019 7.30579 7.14019 7.38038 7.06559C10.6621 3.78328 15.9576 3.78328 19.2393 7.06559C19.4631 7.28939 19.6868 7.51318 19.9106 7.81158C19.4631 6.991 18.941 6.24502 18.2697 5.57363C14.8388 2.14212 9.31957 2.14212 5.88869 5.57363C5.8141 5.64823 5.8141 5.64823 5.73952 5.72283C3.50199 8.10997 3.12906 11.6161 4.99367 14.3016C5.66494 15.346 6.70912 16.2412 7.82789 16.7633Z" fill="white"/>
</svg>
