<svg width="24" height="24" viewBox="0 0 24 24" fill="none" xmlns="http://www.w3.org/2000/svg">
<circle cx="12" cy="12" r="12" fill="#EDF0F4"/>
<path d="M16.1 7.62568C15.7987 7.79961 14.6984 7.85313 14.6198 7.87989C14.515 7.90665 12.5371 7.90665 12.4978 7.87989C12.4716 7.86651 12.1834 7.66581 12.0524 7.57216C12.0131 7.5454 12 7.53202 12 7.53202C12 7.53202 12.1965 7.4785 12.4847 7.39822C13.2182 7.2109 14.5674 6.86302 14.8163 6.90316C14.9735 6.92992 15.1962 6.97006 15.4189 7.05034C15.5105 7.11724 15.6022 7.18414 15.6939 7.25104C15.8118 7.3447 15.9166 7.43836 16.0214 7.53202C16.0476 7.57216 16.0738 7.59892 16.1 7.62568Z" fill="url(#paint0_linear_300_13755)"/>
<path d="M6.21283 10.5073C7.95855 10.1651 9.70427 9.74397 11.4631 9.44126C13.2351 9.13855 15.2827 8.75687 17.1465 8.95429C17.1728 8.95429 17.199 8.95429 17.2253 8.96745C17.2647 9.04642 17.3172 9.12539 17.3565 9.20436C17.6584 9.78345 17.8685 10.402 17.9603 11.0733C17.9735 11.1785 17.9866 11.297 17.9997 11.4023C17.9341 11.4813 17.8553 11.5602 17.7897 11.6392C17.5141 11.626 17.2515 11.626 16.9759 11.6392C16.9497 11.6392 16.9103 11.6392 16.884 11.6524C16.6084 10.9943 15.1252 11.1654 14.482 11.2707C13.7076 11.376 12.9332 11.5076 12.1588 11.6524C12.0931 11.6655 12.0144 11.6787 11.9488 11.6918C11.555 11.7576 11.1481 11.8366 10.7543 11.9024C9.06111 12.192 7.80104 12.4552 6.77724 12.6C6.76411 12.5342 6.73786 12.4815 6.72473 12.4157C6.69848 12.3236 6.67223 12.2183 6.63285 12.1262C6.59348 12.0209 6.56723 11.9156 6.52785 11.8103C6.4491 11.5997 6.38347 11.376 6.31784 11.1654C6.26534 11.0074 6.22596 10.8495 6.19971 10.6916" fill="url(#paint1_linear_300_13755)"/>
<path d="M15.7003 7.23219C14.7012 6.99872 13.6101 7.16734 12.5848 7.41377C12.4139 7.45268 12.2299 7.50457 12.059 7.54348C11.8486 7.59536 11.6383 7.64724 11.4411 7.71209C10.7576 7.89368 10.074 8.1012 9.39043 8.26982C8.96978 8.37358 8.49654 8.5422 8.04959 8.49032C7.79982 8.46438 7.48433 8.39952 7.30029 8.26982C7.95757 7.43971 8.83832 6.79119 9.86367 6.40208C10.5341 6.14267 11.2702 6 12.0327 6C13.2947 6 14.4646 6.38911 15.4374 7.03763C15.5294 7.10248 15.6083 7.16734 15.7003 7.23219Z" fill="url(#paint2_linear_300_13755)"/>
<path d="M16.8003 15.6338C16.6044 15.8967 16.3955 16.1334 16.1605 16.3568C15.9255 16.5803 15.6774 16.7775 15.4163 16.9615C14.8679 17.3427 14.2542 17.6188 13.6014 17.8028C13.523 17.8291 13.4447 17.8422 13.3663 17.8554C12.9485 17.9474 12.5046 18 12.0476 18C11.447 18 10.8725 17.9079 10.3241 17.7502C10.2066 17.7108 10.0891 17.6713 9.98462 17.6319C9.54069 17.461 9.12287 17.2507 8.73117 16.9878C8.58754 16.8826 8.44392 16.7775 8.30029 16.6723C8.32641 16.6855 8.35252 16.6855 8.37863 16.6986C9.38401 16.9484 10.4808 16.7775 11.5253 16.5277C11.917 16.4357 12.3087 16.3174 12.6743 16.2254C13.3533 16.0413 14.0322 15.8179 14.7243 15.6338C15.1421 15.5155 15.6252 15.3578 16.0561 15.4104C16.1605 15.4235 16.265 15.4367 16.3825 15.463C16.5392 15.5024 16.6958 15.555 16.8003 15.6338Z" fill="#61C0E2"/>
<path d="M12.1 11.7012C12.0473 11.7146 11.9946 11.7414 11.9419 11.7548C11.9287 11.7548 11.9156 11.7548 11.9156 11.7682C10.9143 12.0896 9.89978 12.3843 8.87214 12.5986C8.17387 12.7459 7.44924 12.9066 6.7378 12.7057C6.48747 12.6387 6.23715 12.5182 6.01317 12.3441C6.01317 12.2503 6 12.1432 6 12.0494C6 11.5941 6.0527 11.1387 6.14492 10.7101C6.1581 10.6565 6.17127 10.603 6.18445 10.5494C6.2635 10.5226 6.32937 10.5092 6.40842 10.4824C7.46242 10.2547 8.60864 10.536 9.60994 10.8708C10.4268 11.1387 11.2568 11.4333 12.1 11.7012Z" fill="url(#paint3_linear_300_13755)"/>
<path d="M17.974 11.3763C17.987 11.5736 18.0001 11.7577 18.0001 11.955C18.0001 12.2048 17.987 12.4415 17.9609 12.6782C17.8174 12.7045 17.6607 12.7045 17.5041 12.6914C15.6766 12.573 13.9014 12.1522 12.1523 11.6262C12.1393 11.6262 12.1132 11.613 12.1001 11.613C12.1523 11.5999 12.1915 11.5867 12.2437 11.5604C13.4576 11.1396 14.6716 10.6268 15.9508 10.5216C16.512 10.469 17.1386 10.4953 17.6477 10.7977C17.726 10.8503 17.8435 10.9292 17.9348 11.0344C17.9479 11.1659 17.9609 11.2711 17.974 11.3763Z" fill="url(#paint4_linear_300_13755)"/>
<path d="M17.7997 13.4845C17.6031 14.2864 17.2362 15.0094 16.7513 15.6404C16.5547 15.9033 16.345 16.14 16.1092 16.3634C16.2009 16.2188 16.2664 16.0874 16.3188 15.9559C16.3581 15.8376 16.3975 15.7193 16.3713 15.601C16.3581 15.5484 16.345 15.509 16.3319 15.4695C16.0829 14.9043 15.0739 15.062 14.6283 15.154C13.724 15.3381 12.8329 15.5615 11.9417 15.7719C10.1463 16.2057 9.01931 16.5606 8.12816 16.6001C7.55154 16.1137 7.06665 15.509 6.69971 14.8254C7.06665 14.7728 7.51222 14.6939 8.03642 14.5493C9.5173 14.1681 10.972 13.6948 12.4528 13.3399C13.8289 13.0113 15.4408 12.5906 16.8561 12.9192C17.2493 13.0113 17.5638 13.2084 17.7997 13.4845Z" fill="url(#paint5_linear_300_13755)"/>
<path d="M15.4 16.9775C14.8535 17.3709 14.2419 17.6558 13.5913 17.8457C13.5133 17.8729 13.4352 17.8864 13.3571 17.9L10.3383 17.7915C10.2212 17.7508 10.1041 17.7101 10 17.6694C10.5205 17.6151 11.1581 17.5202 11.8737 17.3574C12.0689 17.3167 12.2771 17.2624 12.4983 17.1946C14.0728 16.7605 14.9836 16.6791 15.4 16.9775Z" fill="url(#paint6_linear_300_13755)"/>
<path d="M13.5997 17.7946C13.5209 17.822 13.4421 17.8356 13.3632 17.8493C12.9429 17.9452 12.4962 18 12.0364 18C11.4321 18 10.8541 17.9041 10.3024 17.7398C10.1842 17.6987 10.0659 17.6576 9.96083 17.6166C9.51418 17.4385 9.09381 17.2195 8.69971 16.9456C9.22518 16.8497 10.171 16.8771 11.8525 17.3016C12.3649 17.4249 12.9429 17.5892 13.5997 17.7946Z" fill="url(#paint7_linear_300_13755)"/>
<path d="M17.1691 9.0098C17.2084 9.08849 17.2607 9.16718 17.3 9.24587C17.2345 9.15406 17.156 9.07538 17.0905 8.99669C15.3102 7.16062 11.8018 8.40652 11.1865 8.55078C10.5189 8.70816 7.99236 9.49505 6.5 9.59997C6.70945 9.12783 6.97127 8.69505 7.28545 8.28849C7.94 7.44914 8.81709 6.79341 9.83818 6.39996C10.5189 6.62291 11.1865 6.89832 11.8018 7.16062C12.0113 7.25242 12.2338 7.33111 12.4433 7.39669C12.4825 7.4098 12.5087 7.42292 12.548 7.42292C13.1764 7.61964 13.8309 7.73767 14.5116 7.73767C14.9436 7.73767 15.572 7.75078 15.9909 7.52783C16.0171 7.55406 16.0433 7.58029 16.0825 7.60652C16.5015 8.02619 16.8811 8.49833 17.1691 9.0098Z" fill="url(#paint8_linear_300_13755)"/>
<defs>
<linearGradient id="paint0_linear_300_13755" x1="11.9967" y1="7.90648" x2="16.1022" y2="7.90648" gradientUnits="userSpaceOnUse">
<stop offset="0.211" stop-color="#61BFE1"/>
<stop offset="0.9997" stop-color="#736C94"/>
</linearGradient>
<linearGradient id="paint1_linear_300_13755" x1="3.37653" y1="13.0294" x2="18.0076" y2="13.0294" gradientUnits="userSpaceOnUse">
<stop offset="0.3795" stop-color="#078B7B"/>
<stop offset="0.9091" stop-color="#4DB0B7"/>
</linearGradient>
<linearGradient id="paint2_linear_300_13755" x1="7.30165" y1="8.49127" x2="15.7024" y2="8.49127" gradientUnits="userSpaceOnUse">
<stop stop-color="#F1E931"/>
<stop offset="0.1119" stop-color="#ECE735"/>
<stop offset="0.2515" stop-color="#DCE242"/>
<stop offset="0.4059" stop-color="#C3D957"/>
<stop offset="0.571" stop-color="#9FCD74"/>
<stop offset="0.7427" stop-color="#72BD99"/>
<stop offset="0.8663" stop-color="#4DB0B7"/>
</linearGradient>
<linearGradient id="paint3_linear_300_13755" x1="6.18144" y1="14.0066" x2="18.3602" y2="13.4353" gradientUnits="userSpaceOnUse">
<stop stop-color="#61BFE1"/>
<stop offset="0.0931388" stop-color="#63B4D7"/>
<stop offset="0.2566" stop-color="#6A97BC"/>
<stop offset="0.4519" stop-color="#736C94"/>
</linearGradient>
<linearGradient id="paint4_linear_300_13755" x1="16.7344" y1="10.221" x2="11.3208" y2="13.6364" gradientUnits="userSpaceOnUse">
<stop stop-color="#804C88"/>
<stop offset="0.2619" stop-color="#6C5F8B"/>
<stop offset="0.658" stop-color="#51788F"/>
<stop offset="0.8911" stop-color="#61C1E3"/>
</linearGradient>
<linearGradient id="paint5_linear_300_13755" x1="6.69675" y1="16.6012" x2="17.7964" y2="16.6012" gradientUnits="userSpaceOnUse">
<stop stop-color="#F1E931"/>
<stop offset="0.1373" stop-color="#EDE834"/>
<stop offset="0.2777" stop-color="#E1E33E"/>
<stop offset="0.4194" stop-color="#CCDC4F"/>
<stop offset="0.5622" stop-color="#AFD267"/>
<stop offset="0.7058" stop-color="#8AC585"/>
<stop offset="0.8481" stop-color="#5EB6A9"/>
<stop offset="0.8963" stop-color="#4DB0B7"/>
</linearGradient>
<linearGradient id="paint6_linear_300_13755" x1="9.98938" y1="17.9028" x2="15.3957" y2="17.9028" gradientUnits="userSpaceOnUse">
<stop offset="0.2004" stop-color="#F1E931"/>
<stop offset="0.9285" stop-color="#4DB0B7"/>
</linearGradient>
<linearGradient id="paint7_linear_300_13755" x1="8.70592" y1="18.0035" x2="13.5934" y2="18.0035" gradientUnits="userSpaceOnUse">
<stop stop-color="#804C88"/>
<stop offset="0.2619" stop-color="#6C5F8B"/>
<stop offset="0.658" stop-color="#51788F"/>
<stop offset="0.8911" stop-color="#61C1E3"/>
</linearGradient>
<linearGradient id="paint8_linear_300_13755" x1="4.84347" y1="6.26492" x2="4.84347" y2="10.4482" gradientUnits="userSpaceOnUse">
<stop offset="0.1684" stop-color="#44518C"/>
<stop offset="0.9831" stop-color="#008181"/>
</linearGradient>
</defs>
</svg>
