<svg width="24" height="24" viewBox="0 0 24 24" fill="none" xmlns="http://www.w3.org/2000/svg">
<circle cx="12" cy="12" r="12" fill="#EDF0F4"/>
<path fill-rule="evenodd" clip-rule="evenodd" d="M5.47688 7.38872C5 8.32497 5 9.54997 5 12C5 14.45 5 15.675 5.47688 16.6112C5.89688 17.4337 6.56625 18.1031 7.38875 18.5231C8.325 19 9.55 19 12 19C14.45 19 15.675 19 16.6113 18.5231C17.4338 18.1031 18.1031 17.4337 18.5231 16.6112C19 15.675 19 14.45 19 12C19 9.54997 19 8.32497 18.5231 7.38872C18.1031 6.56622 17.4338 5.89685 16.6113 5.47685C15.675 4.99997 14.45 4.99997 12 4.99997C9.55 4.99997 8.325 4.99997 7.38875 5.47685C6.56625 5.89685 5.89688 6.56622 5.47688 7.38872ZM15.4936 8.77556C15.6161 8.77556 15.7321 8.82589 15.8174 8.91121C15.9027 8.99871 15.9509 9.11683 15.9486 9.23712C15.9268 10.5409 15.8765 11.5384 15.7824 12.3281C15.6905 13.1178 15.5527 13.704 15.3449 14.1787C15.2049 14.4959 15.0321 14.7584 14.8286 14.9815C14.5552 15.2768 14.2424 15.4912 13.9011 15.6947C13.7553 15.7819 13.6036 15.868 13.4445 15.9584C13.105 16.1512 12.7317 16.3632 12.3086 16.6462C12.1555 16.749 11.9565 16.749 11.8034 16.6462C11.3739 16.3599 10.9956 16.1453 10.653 15.9509C10.5768 15.9077 10.5024 15.8655 10.4296 15.8237C10.0293 15.5918 9.66836 15.3709 9.35336 15.0515C9.14336 14.8415 8.9618 14.5856 8.81742 14.2815C8.62054 13.8746 8.4871 13.3824 8.38866 12.7459C8.25741 11.8949 8.19179 10.7815 8.16772 9.23712C8.16554 9.11683 8.21147 8.99871 8.29679 8.91121C8.3821 8.82589 8.50022 8.77556 8.62272 8.77556H8.81086C9.39053 8.77777 10.6702 8.72089 11.7771 7.85901C11.9411 7.73213 12.1709 7.73213 12.3349 7.85901C13.4418 8.72089 14.7215 8.77777 15.3034 8.77556H15.4936ZM14.476 13.8878C14.6181 13.5947 14.7363 13.19 14.826 12.6081C14.9331 11.9125 14.9988 10.9675 15.0294 9.68127C14.3469 9.66156 13.1744 9.53033 12.0566 8.77783C10.9388 9.52811 9.76628 9.65938 9.08596 9.68127C9.11002 10.7444 9.15813 11.5713 9.23469 12.2209C9.32219 12.9603 9.4469 13.4613 9.60219 13.8134C9.70502 14.0475 9.81878 14.2159 9.9544 14.3647C10.136 14.5638 10.3656 14.7278 10.6785 14.9159C10.8082 14.9938 10.9513 15.0748 11.107 15.1629C11.3845 15.32 11.7021 15.4997 12.0566 15.7253C12.4045 15.5034 12.7176 15.3255 12.9918 15.1696C13.0745 15.1226 13.1536 15.0776 13.2291 15.0341C13.6141 14.8131 13.8985 14.6294 14.1106 14.415C14.2528 14.2684 14.3688 14.1088 14.476 13.8878Z" fill="#3375BB"/>
</svg>
