<svg width="24" height="24" viewBox="0 0 24 24" fill="none" xmlns="http://www.w3.org/2000/svg">
<circle cx="12" cy="12" r="12" fill="#374851"/>
<path fill-rule="evenodd" clip-rule="evenodd" d="M14.4251 16.974V19.2314C17.4288 18.2527 19.6001 15.4292 19.6001 12.0994C19.6001 7.95752 16.2423 4.60004 12.1001 4.60004C7.95785 4.60004 4.6001 7.95752 4.6001 12.0994C4.6001 15.4292 6.77135 18.2527 9.7751 19.2314V16.974C7.49782 15.8878 6.27637 13.3695 6.83328 10.9088C7.39018 8.44809 9.57698 6.70102 12.1001 6.70102C14.6232 6.70102 16.81 8.44809 17.3669 10.9088C17.9238 13.3695 16.7024 15.8878 14.4251 16.974ZM13.375 17.3475V11.6495H16V9.54965H8.19996V11.6495H10.825V19.4908C11.8209 19.6624 12.8412 19.6316 13.825 19.4001V17.2178C13.678 17.2673 13.528 17.31 13.375 17.3475Z" fill="white"/>
</svg>
