<svg width="24" height="24" viewBox="0 0 24 24" fill="none" xmlns="http://www.w3.org/2000/svg">
<circle cx="12" cy="12" r="12" fill="#EDF0F4"/>
<path d="M14.2506 14H13.5735C13.4481 14 13.3415 13.8997 13.3415 13.768V11.9875L12.1566 12.7273C12.0563 12.79 11.9309 12.79 11.8306 12.7273L10.6519 11.9875V13.768C10.6519 13.8934 10.5516 14 10.4199 14H9.74906C9.62367 14 9.51709 13.8997 9.51709 13.768V10.3323C9.51709 10.163 9.65502 10.0251 9.8243 10.0251C9.887 10.0251 9.94342 10.0439 9.99358 10.0815L11.8619 11.3668C11.9372 11.4232 12.0437 11.4232 12.119 11.3668L13.9873 10.0815C14.1252 9.98747 14.3196 10.0251 14.4136 10.163C14.4513 10.2132 14.4638 10.2759 14.4701 10.3323V13.768C14.4763 13.8934 14.376 14 14.2506 14Z" fill="#FF4A4A"/>
<path d="M8.50784 13.9937H4.30721C4.13793 13.9937 4 13.8558 4 13.6865V10.232C4.00627 10.1003 4.10658 10 4.23824 10H4.91536C5.04075 10 5.14734 10.1003 5.14734 10.232V12.8589H7.69279V10.232C7.69279 10.1066 7.7931 10 7.92477 10H8.58307C8.70846 10 8.81505 10.1003 8.81505 10.232V13.6865C8.81505 13.8558 8.67712 13.9937 8.50784 13.9937Z" fill="#FF4A4A"/>
<path d="M15.4923 10H19.6929C19.8622 10 20.0001 10.1379 20.0001 10.3072V13.7618C20.0001 13.8871 19.8998 13.9937 19.7744 13.9937H19.0973C18.9719 13.9937 18.8653 13.8934 18.8653 13.7618V11.2853C18.8653 11.2038 18.7963 11.1348 18.7148 11.1348H16.4766C16.3951 11.1348 16.3261 11.2038 16.3261 11.2853V13.7618C16.3261 13.8871 16.2258 13.9937 16.0941 13.9937H15.417C15.2916 13.9937 15.1851 13.8934 15.1851 13.7618V10.3072C15.1851 10.1379 15.323 10 15.4923 10Z" fill="#FF4A4A"/>
<path d="M17.2539 11.8621H17.9248C18.0502 11.8621 18.1568 11.9624 18.1568 12.0941V12.7774C18.1568 12.9028 18.0565 13.0094 17.9248 13.0094H17.2539C17.1286 13.0094 17.022 12.9091 17.022 12.7774V12.0878C17.022 11.9624 17.1286 11.8621 17.2539 11.8621Z" fill="#FF4A4A"/>
</svg>
