<svg width="24" height="24" viewBox="0 0 24 24" fill="none" xmlns="http://www.w3.org/2000/svg">
<path d="M21.7002 14.4191L21.6872 14.4713C20.3295 19.7968 14.9211 23.0318 9.57987 21.7001C4.22419 20.3647 0.963796 14.9386 2.29995 9.58246L2.30007 9.58197C3.63511 4.22458 9.06144 0.96421 14.4178 2.29967L14.4179 2.2997C19.7756 3.6352 23.036 9.06189 21.7002 14.4191Z" fill="url(#paint0_linear_300_8180)" stroke="#FFD9EC" stroke-width="4"/>
<path d="M10.1072 7.41156C9.94472 7.38835 9.93699 7.38061 10.0144 7.37288C10.1614 7.34967 10.5018 7.38061 10.7416 7.43477C11.2987 7.56628 11.8016 7.90666 12.3354 8.50233L12.4747 8.66478L12.6758 8.63384C13.5346 8.49459 14.4166 8.60289 15.1516 8.94327C15.3528 9.03611 15.67 9.22177 15.7087 9.26818C15.7241 9.28366 15.7473 9.38422 15.7628 9.48479C15.817 9.84838 15.7938 10.1191 15.6777 10.328C15.6158 10.444 15.6158 10.475 15.6545 10.5756C15.6854 10.6529 15.7783 10.7071 15.8634 10.7071C16.0491 10.7071 16.2425 10.4131 16.3353 10.0031L16.374 9.84064L16.4437 9.918C16.8382 10.359 17.1477 10.9701 17.1941 11.4033L17.2096 11.5193L17.14 11.4188C17.0239 11.2409 16.9156 11.1248 16.7686 11.0242C16.5055 10.8463 16.227 10.7922 15.492 10.7535C14.8267 10.7148 14.4476 10.6607 14.0762 10.5369C13.4418 10.328 13.1168 10.0573 12.3663 9.05931C12.0337 8.61837 11.8248 8.37855 11.6159 8.17742C11.1594 7.73647 10.7029 7.50439 10.1072 7.41156Z" fill="#FF007A"/>
<path d="M15.8711 8.39402C15.8866 8.10005 15.9253 7.90665 16.0104 7.72872C16.0413 7.6591 16.0723 7.59721 16.08 7.59721C16.0877 7.59721 16.0723 7.65137 16.049 7.71325C15.9871 7.88344 15.9794 8.12326 16.0181 8.39402C16.0723 8.74213 16.0955 8.78855 16.4668 9.16761C16.637 9.34554 16.8382 9.56988 16.9156 9.66271L17.0471 9.8329L16.9156 9.70913C16.7531 9.55441 16.3817 9.26044 16.2966 9.22176C16.2425 9.19082 16.2347 9.19082 16.196 9.2295C16.1651 9.26044 16.1574 9.30686 16.1574 9.5312C16.1496 9.87932 16.1032 10.0959 15.9871 10.3203C15.9253 10.4363 15.9175 10.4131 15.9717 10.2816C16.0104 10.181 16.0181 10.1346 16.0181 9.80196C16.0181 9.12893 15.9407 8.96648 15.4688 8.69572C15.3527 8.62609 15.1516 8.52553 15.0355 8.47138C14.9117 8.41722 14.8189 8.37081 14.8266 8.37081C14.8421 8.35534 15.2986 8.48685 15.4765 8.56421C15.7473 8.67251 15.7937 8.68025 15.8247 8.67251C15.8479 8.6493 15.8634 8.58741 15.8711 8.39402Z" fill="#FF007A"/>
<path d="M10.4245 9.54668C10.0996 9.09799 9.89068 8.40176 9.9371 7.88345L9.95258 7.72099L10.0299 7.73646C10.1692 7.75967 10.409 7.8525 10.5251 7.92213C10.8346 8.10779 10.9738 8.36308 11.1054 8.99742C11.144 9.18309 11.1982 9.39969 11.2214 9.46932C11.2601 9.58536 11.4071 9.85611 11.5309 10.0263C11.616 10.1501 11.5618 10.212 11.3684 10.1965C11.0744 10.1656 10.6798 9.89479 10.4245 9.54668Z" fill="#FF007A"/>
<path d="M15.4768 12.9118C13.9449 12.2929 13.4033 11.7591 13.4033 10.854C13.4033 10.7225 13.4111 10.6142 13.4111 10.6142C13.4188 10.6142 13.473 10.6606 13.5426 10.7148C13.8521 10.9623 14.2002 11.0706 15.1673 11.2099C15.7321 11.295 16.057 11.3569 16.351 11.4574C17.2872 11.7669 17.8675 12.4012 18.0067 13.2599C18.0454 13.5075 18.0222 13.9794 17.9603 14.2269C17.9061 14.4203 17.7514 14.7762 17.7127 14.7839C17.705 14.7839 17.6895 14.7452 17.6895 14.6833C17.674 14.3584 17.5116 14.049 17.2408 13.8092C16.9158 13.5307 16.498 13.3218 15.4768 12.9118Z" fill="#FF007A"/>
<path d="M14.3934 13.1671C14.3779 13.0511 14.3392 12.9041 14.316 12.8422L14.2773 12.7262L14.3469 12.8112C14.4475 12.9273 14.5249 13.0665 14.5945 13.2599C14.6487 13.4069 14.6487 13.4533 14.6487 13.6931C14.6487 13.9252 14.6409 13.9794 14.5945 14.1109C14.5171 14.3198 14.4243 14.4667 14.2696 14.6292C13.991 14.9154 13.6274 15.0701 13.109 15.1398C13.0162 15.1475 12.7531 15.1707 12.521 15.1862C11.9408 15.2171 11.5539 15.279 11.2058 15.4028C11.1594 15.4183 11.1129 15.4337 11.1052 15.426C11.0897 15.4105 11.3296 15.2713 11.523 15.1784C11.7938 15.0469 12.0723 14.9773 12.6835 14.869C12.9853 14.8226 13.2947 14.7607 13.3721 14.7298C14.138 14.4899 14.5171 13.8943 14.3934 13.1671Z" fill="#FF007A"/>
<path d="M15.0975 14.4126C14.8963 13.9716 14.8499 13.5539 14.9582 13.1594C14.9737 13.1207 14.9892 13.082 15.0047 13.082C15.0201 13.082 15.0665 13.1052 15.113 13.1362C15.2058 13.198 15.3992 13.3063 15.8944 13.5771C16.5211 13.9175 16.877 14.1805 17.1245 14.4822C17.3412 14.7452 17.4727 15.0469 17.5346 15.4183C17.5733 15.6271 17.5501 16.13 17.4959 16.3388C17.3257 16.9964 16.9389 17.5224 16.3741 17.8241C16.289 17.8706 16.2193 17.9015 16.2116 17.9015C16.2039 17.9015 16.2348 17.8241 16.2812 17.7313C16.4669 17.3368 16.4901 16.9577 16.3509 16.5322C16.2658 16.2692 16.0878 15.952 15.7319 15.4183C15.3064 14.7994 15.2058 14.6369 15.0975 14.4126Z" fill="#FF007A"/>
<path d="M9.33337 16.7798C9.9059 16.3002 10.6099 15.9598 11.2598 15.8515C11.5384 15.8051 12.0026 15.8205 12.2579 15.8901C12.6679 15.9985 13.0393 16.2305 13.2327 16.5168C13.4184 16.7953 13.5035 17.0351 13.5886 17.5688C13.6196 17.7777 13.6583 17.9943 13.666 18.0407C13.7279 18.3192 13.8517 18.5358 14.0064 18.6519C14.2463 18.8298 14.664 18.8375 15.0741 18.6828C15.1437 18.6596 15.2056 18.6364 15.2056 18.6441C15.2211 18.6596 15.0122 18.7989 14.8729 18.8685C14.6795 18.9691 14.5248 19 14.3159 19C13.9445 19 13.6273 18.8066 13.372 18.4198C13.3178 18.3424 13.2095 18.1181 13.1167 17.9092C12.8459 17.2826 12.7066 17.097 12.3894 16.8881C12.1109 16.7102 11.755 16.6715 11.4842 16.803C11.1283 16.9732 11.0355 17.4296 11.2831 17.7081C11.3836 17.8241 11.5693 17.917 11.724 17.9402C12.0103 17.9789 12.2579 17.7545 12.2579 17.4683C12.2579 17.2826 12.1883 17.1743 12.0026 17.0892C11.755 16.9809 11.4842 17.1047 11.4919 17.3445C11.4919 17.4451 11.5384 17.507 11.6389 17.5534C11.7008 17.5843 11.7008 17.5843 11.6544 17.5766C11.43 17.5302 11.3759 17.2517 11.5538 17.0737C11.7705 16.8571 12.2269 16.95 12.3817 17.2517C12.4436 17.3754 12.4513 17.623 12.3972 17.7777C12.2656 18.1181 11.8943 18.296 11.5152 18.1955C11.2598 18.1258 11.1515 18.0562 10.8421 17.739C10.3005 17.1821 10.0916 17.0737 9.3179 16.9577L9.1709 16.9345L9.33337 16.7798Z" fill="#FF007A"/>
<path fill-rule="evenodd" clip-rule="evenodd" d="M5.26388 4.33265C7.06656 6.52192 9.84408 9.92574 9.98335 10.1114C10.0994 10.2661 10.053 10.4131 9.85956 10.5214C9.75124 10.5833 9.52687 10.6452 9.41856 10.6452C9.29477 10.6452 9.14777 10.5833 9.04719 10.4827C8.97756 10.4131 8.67582 9.97215 7.99498 8.91233C7.47661 8.10005 7.03562 7.42702 7.02788 7.41929C6.99693 7.40382 6.99693 7.40382 7.94082 9.09025C8.53656 10.1501 8.72998 10.5291 8.72998 10.5756C8.72998 10.6761 8.69903 10.7303 8.57524 10.8695C8.36635 11.1016 8.27351 11.3646 8.20388 11.9139C8.12651 12.525 7.91761 12.9582 7.32188 13.6931C6.97372 14.1264 6.91956 14.2037 6.83446 14.3816C6.72614 14.5982 6.6952 14.722 6.67972 15.0005C6.66425 15.2945 6.6952 15.4801 6.7803 15.7586C6.85767 16.0062 6.94277 16.1686 7.15167 16.4858C7.32962 16.7643 7.43793 16.9732 7.43793 17.0505C7.43793 17.1124 7.4534 17.1124 7.73193 17.0505C8.3973 16.8958 8.94661 16.6328 9.24835 16.3079C9.43403 16.1068 9.48045 15.9985 9.48045 15.72C9.48045 15.542 9.47271 15.5034 9.42629 15.3951C9.34893 15.2249 9.20193 15.0856 8.88472 14.869C8.46693 14.5828 8.28898 14.3507 8.24256 14.0413C8.20388 13.7782 8.2503 13.6003 8.4824 13.1129C8.72224 12.6101 8.78414 12.4012 8.82282 11.8907C8.84603 11.5658 8.88472 11.4342 8.97756 11.3337C9.07814 11.2254 9.16324 11.1867 9.40308 11.1558C9.79766 11.1016 10.053 11.001 10.2541 10.8076C10.4321 10.6452 10.5094 10.4827 10.5172 10.2429L10.5249 10.065L10.4243 9.95668C10.0607 9.53894 5.02404 4 5.00083 4C4.9931 4 5.11688 4.14698 5.26388 4.33265ZM7.63909 15.3332C7.7242 15.1862 7.67778 15.0005 7.53851 14.9077C7.40699 14.8226 7.20583 14.8613 7.20583 14.9773C7.20583 15.0083 7.2213 15.0392 7.26772 15.0547C7.33736 15.0933 7.34509 15.132 7.29093 15.2171C7.23678 15.3022 7.23678 15.3796 7.30641 15.4337C7.41472 15.5188 7.56172 15.4724 7.63909 15.3332Z" fill="#FF007A"/>
<path fill-rule="evenodd" clip-rule="evenodd" d="M10.7724 11.2641C10.5867 11.3182 10.4088 11.5193 10.3546 11.7205C10.3237 11.8443 10.3392 12.0686 10.3933 12.1382C10.4784 12.2465 10.5558 12.2775 10.7724 12.2775C11.198 12.2775 11.5616 12.0918 11.6003 11.8675C11.639 11.6818 11.4765 11.4265 11.2521 11.3105C11.1361 11.2486 10.8962 11.2254 10.7724 11.2641ZM11.2678 11.6509C11.3297 11.558 11.3065 11.4575 11.1905 11.3878C10.9816 11.2563 10.6644 11.3646 10.6644 11.5658C10.6644 11.6663 10.8268 11.7746 10.9816 11.7746C11.0822 11.7746 11.2214 11.7127 11.2678 11.6509Z" fill="#FF007A"/>
<defs>
<linearGradient id="paint0_linear_300_8180" x1="0" y1="0" x2="0" y2="24" gradientUnits="userSpaceOnUse">
<stop stop-color="#FEF3F9"/>
<stop offset="1" stop-color="#FDE5F2"/>
</linearGradient>
</defs>
</svg>
