<svg width="24" height="24" viewBox="0 0 24 24" fill="none" xmlns="http://www.w3.org/2000/svg">
<circle cx="12" cy="12" r="12" fill="#AD7DE2"/>
<path d="M11.068 7.85516H12.9019V11.5229C12.9019 11.8952 12.8054 12.1158 12.6675 12.2537C12.5296 12.433 12.2952 12.5295 11.978 12.5295C11.6609 12.5295 11.4679 12.433 11.2886 12.2537C11.1507 12.0745 11.0542 11.8401 11.0542 11.5229V7.85516H11.068Z" fill="white"/>
<path d="M16.5831 11.6195C16.5831 12.957 16.1695 14.1428 15.3008 15.0115C14.4321 15.8388 13.329 16.2524 11.9915 16.2524C10.654 16.2524 9.56471 15.8801 8.68224 15.0115C7.79977 14.1428 7.3999 12.9432 7.3999 11.6195V7.85517H9.23379V11.6195C9.23379 12.5847 9.50956 13.2327 9.96458 13.6464C10.4196 14.1014 11.0677 14.3358 11.9915 14.3358C12.9567 14.3358 13.5496 14.06 14.0184 13.6464C14.4735 13.1914 14.7492 12.5433 14.7492 11.5781V7.80002H16.5831V11.6195Z" fill="white"/>
</svg>
