<svg width="24" height="24" viewBox="0 0 24 24" fill="none" xmlns="http://www.w3.org/2000/svg">
<circle cx="12" cy="12" r="12" fill="#EDF0F4"/>
<path d="M9.97436 6.21565C9.98462 6.21976 9.99078 6.22797 9.98872 6.23823C9.98872 6.25876 9.98872 6.27723 9.98872 6.29776V13.5458C9.98872 13.5705 9.98667 13.593 9.98667 13.6177C9.99694 13.6382 10.0154 13.6279 10.0277 13.6279C11.3291 13.6279 12.6305 13.6279 13.934 13.63C13.9751 13.63 13.9935 13.6197 13.9874 13.5766C13.9874 13.5623 13.9874 13.5499 13.9874 13.5356C13.9874 11.1216 13.9874 8.70968 13.9874 6.29571C13.9874 6.27108 13.973 6.23823 14.0038 6.21976C14.0141 6.21155 14.0305 6.2136 14.0387 6.22386C14.0387 6.22386 14.0387 6.22592 14.0408 6.22592C14.051 6.24028 14.0613 6.25465 14.0695 6.27108C14.2173 6.56461 14.3692 6.8602 14.5149 7.15374C14.636 7.40006 14.7592 7.64638 14.8803 7.89065C15.0158 8.16161 15.1533 8.43462 15.2888 8.70558C15.412 8.94985 15.5331 9.19617 15.6542 9.44044C15.763 9.66213 15.8759 9.87972 15.9826 10.1014C15.999 10.1343 16.0237 10.1609 16.0339 10.1958C16.0401 10.2369 16.0401 10.28 16.038 10.321V17.3823C16.038 17.4029 16.038 17.4213 16.038 17.4419C16.038 17.5199 16.038 17.5199 16.114 17.5342C16.1242 17.5363 16.1325 17.5404 16.1407 17.5486C16.0893 17.5732 16.036 17.5814 15.9806 17.5938C15.7383 17.6512 15.4941 17.6882 15.2457 17.7067C15.1307 17.7149 15.0158 17.7169 14.9008 17.719C14.3076 17.7292 13.7123 17.7251 13.1191 17.7251C12.0886 17.7251 11.0561 17.7251 10.0236 17.7231C10.0031 17.7231 9.98051 17.7292 9.95999 17.7169C9.96614 17.7128 9.9723 17.7067 9.98051 17.7046C10.0175 17.6964 10.0544 17.6943 10.0934 17.6964H13.8683C13.9012 17.6984 13.9361 17.6964 13.9689 17.6923C13.9997 17.6779 13.9874 17.6512 13.9894 17.6287C13.9894 16.7912 13.9894 15.9516 13.9894 15.1141V13.8024C13.9874 13.7757 13.9894 13.7491 13.9915 13.7224C13.9607 13.8188 13.9094 13.9092 13.8642 14.0015C13.698 14.3484 13.5358 14.6974 13.3695 15.0464C13.2792 15.2373 13.1889 15.4261 13.0986 15.617C13.0862 15.6437 13.0739 15.6724 13.0452 15.6868C13.0165 15.695 12.9857 15.6971 12.9569 15.695H11.0151C10.9884 15.6971 10.9638 15.695 10.9371 15.6889C10.8981 15.6765 10.8858 15.6416 10.8714 15.6088C10.7585 15.3686 10.6435 15.1285 10.5306 14.8862C10.4075 14.6256 10.2843 14.3669 10.1612 14.1062C10.1016 13.9831 10.0462 13.8578 9.98051 13.7285C9.98051 13.7634 9.98051 13.7922 9.98051 13.8209C9.98051 15.0813 9.98051 16.3396 9.98051 17.5999C9.98051 17.6389 9.99078 17.68 9.96204 17.7149C9.94151 17.7149 9.92304 17.719 9.90251 17.719C9.60898 17.719 9.31544 17.719 9.0219 17.719C8.94595 17.719 8.87206 17.7149 8.79611 17.7128C8.78174 17.7128 8.76737 17.7149 8.75711 17.7046C8.77147 17.6923 8.7879 17.6984 8.80226 17.6984C9.16149 17.6984 9.52071 17.6984 9.87993 17.6984C9.8943 17.6984 9.90662 17.6964 9.91072 17.6984C9.55355 17.6984 9.18817 17.6984 8.82074 17.6984C8.80021 17.6984 8.77763 17.6902 8.75711 17.7067C8.66679 17.7108 8.57441 17.6984 8.4841 17.6882C8.30756 17.6718 8.13514 17.6348 7.96271 17.6061C7.95655 17.604 7.95245 17.602 7.94629 17.5979C7.96682 17.5527 7.96476 17.5055 7.96476 17.4583C7.96476 15.0895 7.96476 12.7207 7.96476 10.3518C7.96271 10.3108 7.96476 10.2677 7.96887 10.2266C7.97913 10.1835 7.99555 10.1425 8.01608 10.1055C8.13924 9.86124 8.2624 9.61697 8.38351 9.37065C8.831 8.45309 9.29286 7.54375 9.74651 6.6303C9.80398 6.51535 9.86146 6.4045 9.91688 6.28955C9.92509 6.27108 9.93125 6.23207 9.9682 6.26492C9.9682 8.5311 9.9682 10.7973 9.9682 13.0635C9.9682 13.24 9.9682 13.4165 9.9682 13.5951C9.9682 11.1709 9.9682 8.74868 9.9682 6.32445C9.96614 6.28544 9.95383 6.25055 9.97436 6.21565Z" fill="#E85C50"/>
<path d="M7.98092 10.1999C7.98092 12.6344 7.98092 15.0689 7.98092 17.5014C7.98092 17.5219 7.98092 17.5404 7.98092 17.5609C7.98297 17.5897 7.9645 17.5938 7.94397 17.5958C7.65043 17.5281 7.36511 17.4378 7.09826 17.3002C6.95046 17.2243 6.80677 17.1442 6.67951 17.0395C6.32644 16.7501 6.08012 16.395 6.02675 15.929C6.02675 15.9126 6.02675 15.8982 6.02675 15.8818C6.02059 15.8613 6.01854 15.8387 6.02264 15.8161C6.02264 12.657 6.02264 9.49997 6.02264 6.34086C6.02059 6.31828 6.02264 6.29776 6.02675 6.27518C6.05549 6.27723 6.06164 6.30186 6.06986 6.32034C6.17865 6.54203 6.28744 6.76167 6.39829 6.98131C6.53171 7.2461 6.66514 7.50885 6.79651 7.7757C6.91967 8.02202 7.04489 8.26835 7.166 8.51672C7.24195 8.67273 7.322 8.82668 7.39795 8.98063C7.4698 9.12227 7.54164 9.26391 7.61143 9.40759C7.69354 9.58002 7.77975 9.7504 7.86802 9.91872C7.90702 9.99056 7.93576 10.0665 7.97271 10.1404C7.98502 10.1568 7.98708 10.1794 7.98092 10.1999Z" fill="#CF3339"/>
<path d="M16.1404 17.5486C16.1117 17.5465 16.085 17.5506 16.0583 17.5589C16.0358 17.563 16.0193 17.5568 16.0193 17.5281C16.0193 17.5137 16.0193 17.5014 16.0193 17.487V10.1773C16.0009 10.1445 16.0255 10.1199 16.0378 10.0952C16.2349 9.71139 16.4299 9.32548 16.6228 8.93752C16.6269 8.92931 16.6331 8.91904 16.6393 8.91083C16.6413 8.90673 16.6434 8.90262 16.6454 8.89852C16.6495 8.89236 16.6516 8.8862 16.6557 8.88004C16.6598 8.87388 16.6598 8.87183 16.6618 8.86773C16.668 8.85541 16.6741 8.84104 16.6803 8.82873C16.6824 8.82462 16.6865 8.81846 16.6885 8.81436C16.7912 8.6214 16.8856 8.42434 16.9841 8.22729C17.0375 8.12465 17.0867 8.02202 17.1381 7.91733C17.1853 7.82496 17.2304 7.73464 17.2756 7.64227C17.2797 7.63611 17.2817 7.62995 17.2859 7.62584C17.4378 7.33026 17.5814 7.03056 17.7333 6.73703C17.797 6.61592 17.8586 6.49276 17.9222 6.37165C17.9325 6.34907 17.9407 6.32238 17.9735 6.31622C17.9858 6.34086 17.9797 6.36549 17.9797 6.39012C17.9797 8.26629 17.9797 10.1425 17.9797 12.0166C17.9797 13.2626 17.9797 14.5085 17.9797 15.7545C17.9817 15.7792 17.9817 15.8017 17.9756 15.8264C17.9838 15.9126 17.9509 15.9906 17.9304 16.0706C17.8647 16.3252 17.7251 16.5366 17.5527 16.7296C17.4234 16.8794 17.2735 17.0128 17.1073 17.1216C16.8979 17.2592 16.6721 17.3721 16.436 17.4583C16.3416 17.4911 16.241 17.524 16.1404 17.5486Z" fill="#CF3339"/>
<path d="M7.98066 10.1999C7.97655 10.1794 7.97039 10.1609 7.95808 10.1445C7.90265 10.0275 7.84107 9.91459 7.7877 9.79758C7.73433 9.68468 7.66865 9.57794 7.61938 9.46299C7.57422 9.35625 7.51059 9.25977 7.46543 9.15509C7.40795 9.02166 7.3279 8.90055 7.27453 8.76507C7.254 8.7117 7.2191 8.66449 7.19447 8.61317C7.15547 8.53517 7.12468 8.45306 7.08157 8.37711C6.99741 8.22932 6.92967 8.07126 6.85167 7.92141C6.80035 7.82289 6.74698 7.72641 6.70182 7.62377C6.65256 7.51293 6.58687 7.41029 6.53966 7.29945C6.48219 7.16397 6.40213 7.04081 6.34465 6.90533C6.31797 6.83964 6.27486 6.78011 6.24612 6.71443C6.18044 6.57074 6.09628 6.43526 6.02443 6.28952V15.8099C6.02443 15.8346 6.02443 15.8571 6.02443 15.8818C6.00391 15.8161 6.01006 15.7484 6.01006 15.6806C6.00801 14.839 6.00801 13.9953 6.01006 13.1537V6.39421C6.01212 6.33468 6.01006 6.27515 6.00391 6.21562C6.02238 6.20946 6.04291 6.20741 6.06138 6.21152C7.34021 6.21152 8.6211 6.21152 9.89993 6.21152H9.93483C9.97793 6.21152 9.96151 6.2341 9.94919 6.25257L9.17122 7.80236C9.00906 8.12668 8.84689 8.44896 8.68678 8.77328C8.62726 8.89234 8.57183 9.01345 8.51231 9.13251C8.34809 9.46094 8.18387 9.78937 8.01966 10.1178L7.98066 10.1999Z" fill="#E33936"/>
<path d="M16.6393 8.92519C16.6372 8.94161 16.631 8.95598 16.6228 8.9683C16.4935 9.22899 16.3642 9.49174 16.2308 9.75038C16.1671 9.87354 16.1056 9.9967 16.0419 10.1219C16.0317 10.1383 16.0234 10.1568 16.0193 10.1773C15.9968 10.1773 15.9906 10.1568 15.9844 10.1424C15.9578 10.0911 15.9372 10.0378 15.9105 9.98644C15.8798 9.92486 15.8449 9.86328 15.8141 9.80169C15.7566 9.6888 15.6971 9.5759 15.6437 9.46095C15.5883 9.33984 15.5185 9.22694 15.4651 9.10378C15.4076 8.9724 15.3317 8.85129 15.2763 8.71992C15.2455 8.64808 15.2024 8.58034 15.1675 8.50849C15.112 8.39765 15.0525 8.2868 15.0012 8.1739C14.9417 8.04458 14.8678 7.92142 14.8124 7.79005C14.7816 7.7182 14.7364 7.65047 14.7036 7.57862C14.642 7.44109 14.564 7.31177 14.5044 7.17219C14.4737 7.10034 14.4305 7.0326 14.3957 6.96076C14.2828 6.73291 14.1678 6.50711 14.0549 6.27926C14.0426 6.26079 14.0344 6.24026 14.0303 6.21973L14.0405 6.21358C14.8185 6.21152 15.5965 6.21358 16.3765 6.21358C16.8938 6.21358 17.409 6.21358 17.9263 6.21358C17.9468 6.21358 17.9694 6.20742 17.9899 6.21973C17.992 6.23616 18.0105 6.25052 17.992 6.269C17.9345 6.33674 17.9078 6.4209 17.8688 6.49685C17.6718 6.87865 17.4809 7.26456 17.2879 7.65047C17.2386 7.74078 17.1914 7.83316 17.1483 7.92553C17.095 8.02816 17.0436 8.1308 16.9923 8.23548C16.8897 8.43254 16.7953 8.63576 16.6906 8.83077C16.6803 8.84514 16.6721 8.86156 16.6659 8.87798C16.6577 8.88414 16.6598 8.89645 16.6536 8.90261C16.6434 8.90672 16.6454 8.91903 16.6393 8.92519Z" fill="#E33936"/>
<path d="M17.2837 7.64844C17.3145 7.5417 17.372 7.44522 17.4253 7.34875C17.4438 7.3159 17.4561 7.28101 17.4725 7.24611C17.5444 7.10653 17.6121 6.96694 17.6819 6.82736C17.7373 6.71857 17.7887 6.60772 17.8461 6.49893C17.8851 6.42708 17.918 6.35524 17.9549 6.28134C17.9631 6.26492 17.9693 6.25261 17.9898 6.26492C17.9898 6.65083 17.9898 7.03674 17.9898 7.42059C17.9898 10.1671 17.9898 12.9136 17.9898 15.6601C17.9898 15.7135 17.9939 15.7669 17.9796 15.8202C17.9796 15.7997 17.9775 15.7812 17.9775 15.7607V6.32445C17.959 6.3265 17.957 6.34087 17.9529 6.35319C17.9323 6.39219 17.9139 6.43119 17.8933 6.47019C17.6983 6.84584 17.5095 7.22353 17.3206 7.60328C17.3104 7.6197 17.3042 7.64023 17.2837 7.64844Z" fill="#E34C37"/>
<path d="M14.0282 6.21769C14.0036 6.22179 13.9871 6.24437 13.9912 6.269V6.27106C13.9912 6.28748 13.9912 6.30185 13.9912 6.31827C13.9912 8.72814 13.9912 11.1401 13.9912 13.5499C13.9912 13.6443 14.0015 13.6361 13.905 13.6361C12.6241 13.6361 11.3412 13.6361 10.0603 13.6361C10.0357 13.6361 10.0049 13.6505 9.98438 13.6197C10.0049 13.6279 10.0275 13.63 10.048 13.6279H13.9194C13.9276 13.6279 13.9358 13.6279 13.944 13.6279C13.9728 13.63 13.9851 13.6197 13.983 13.591C13.981 13.5725 13.983 13.5561 13.983 13.5376V6.29569C13.983 6.28132 13.983 6.269 13.983 6.25464C13.9789 6.21974 13.9974 6.20742 14.0282 6.20948V6.21769Z" fill="#E9654C"/>
<path d="M9.94734 6.25463C9.94734 6.23821 9.96171 6.21563 9.92681 6.21973C9.91039 6.21973 9.89397 6.21973 9.8796 6.21973H6C6.01642 6.19715 6.04105 6.20947 6.05953 6.20947C6.33254 6.20742 6.60349 6.20947 6.87445 6.20947C7.88027 6.20947 8.88815 6.20947 9.89397 6.20947C9.9186 6.20947 9.94529 6.20126 9.96992 6.21973C9.96992 7.04697 9.96992 7.87421 9.96992 8.69939V13.6115C9.95144 13.6033 9.95966 13.5889 9.9576 13.5787C9.9576 13.5643 9.9576 13.552 9.9576 13.5376C9.9576 11.138 9.9576 8.73634 9.9576 6.33468C9.95966 6.30595 9.96992 6.27721 9.94734 6.25463Z" fill="#E7563D"/>
<path d="M14.0283 6.21769C14.0283 6.21563 14.0283 6.21153 14.0283 6.20948C14.0509 6.20742 14.0714 6.20537 14.094 6.20537C15.3708 6.20537 16.6455 6.20537 17.9223 6.20537C17.9449 6.20537 17.9695 6.19511 17.988 6.21563L14.0283 6.21769Z" fill="#E85C50"/>
<path d="M13.9914 17.7128C13.9647 17.7128 13.9401 17.7128 13.9134 17.7128H10.0441C10.0195 17.7128 9.99688 17.7108 9.97224 17.7108C9.96814 17.6861 9.97224 17.6636 9.98456 17.641C10.0872 17.4254 10.1878 17.2099 10.2904 16.9944C10.4936 16.5695 10.6927 16.1425 10.896 15.7197C10.9021 15.7032 10.9124 15.6868 10.9247 15.6765H13.0472C13.0985 15.7669 13.1396 15.8613 13.1827 15.9537C13.2648 16.1322 13.351 16.3088 13.4351 16.4874C13.6158 16.8671 13.7964 17.2489 13.975 17.6287C13.9914 17.6553 13.9976 17.6841 13.9914 17.7128Z" fill="#CF3339"/>
<path d="M10.9268 15.6765C10.9186 15.7114 10.9063 15.7442 10.8878 15.7771C10.7893 15.9823 10.6887 16.1876 10.5922 16.3929C10.5265 16.5325 10.4608 16.672 10.3951 16.8116C10.3192 16.9738 10.2432 17.1339 10.1652 17.294C10.1078 17.4131 10.0523 17.5342 9.99691 17.6553C9.9887 17.6738 9.98254 17.6922 9.97433 17.7107L9.95996 17.7148C9.95996 17.6881 9.95996 17.6635 9.95996 17.6368V13.6751C9.97844 13.6874 9.9928 13.7059 9.99896 13.7264C10.038 13.8126 10.077 13.9009 10.118 13.9851C10.1817 14.1185 10.2473 14.2499 10.3089 14.3812C10.4177 14.6152 10.5286 14.8472 10.6394 15.0792C10.7051 15.2167 10.7687 15.3563 10.8365 15.4938C10.8652 15.5554 10.8857 15.6211 10.9268 15.6765Z" fill="#E33937"/>
<path d="M13.9911 17.7128C13.9767 17.641 13.9357 17.5814 13.909 17.5158C13.8741 17.4316 13.8331 17.3515 13.792 17.2674C13.6996 17.0744 13.6052 16.8815 13.5149 16.6885C13.441 16.5325 13.3671 16.3765 13.2932 16.2205C13.2131 16.0563 13.1392 15.89 13.0612 15.7258C13.053 15.7094 13.0469 15.693 13.0469 15.6745C13.1659 15.4241 13.287 15.1736 13.404 14.9212C13.4738 14.7734 13.5436 14.6276 13.6134 14.4798C13.6914 14.3156 13.7674 14.1534 13.8454 13.9913C13.8864 13.9051 13.9254 13.8189 13.9644 13.7326C13.9706 13.7121 13.9829 13.6916 14.0014 13.6772V13.7388C14.0014 15.0402 14.0014 16.3437 14.0014 17.6451C14.0034 17.6697 14.0116 17.6943 13.9911 17.7128Z" fill="#E33937"/>
<path d="M8.75244 17.7046C8.76476 17.6882 8.78528 17.6902 8.80171 17.6902H9.91632C9.92453 17.6902 9.93274 17.6923 9.94095 17.6943C9.91837 17.7025 9.89579 17.7046 9.87321 17.7005H8.80581C8.78939 17.7025 8.77092 17.7046 8.75244 17.7046Z" fill="#E75840"/>
<path d="M16.6865 8.82873C16.6886 8.81436 16.6927 8.80204 16.7009 8.78973C16.7892 8.6132 16.8774 8.43666 16.9657 8.26013C16.9698 8.24782 16.976 8.23961 16.9862 8.23139C16.9903 8.22524 16.9944 8.22524 16.9985 8.23139C16.9082 8.41408 16.8158 8.59472 16.7255 8.77741C16.7153 8.79589 16.7091 8.82052 16.6865 8.82873Z" fill="#E04437"/>
<path d="M16.9962 8.23343H16.9839C17.0085 8.15953 17.0516 8.09179 17.0845 8.01995C17.1009 7.98711 17.1112 7.95016 17.1378 7.92347C17.1419 7.91731 17.146 7.91731 17.1502 7.92347L16.9962 8.23343Z" fill="#E24837"/>
<path d="M17.1525 7.9235H17.1401C17.1791 7.82702 17.2202 7.7326 17.2838 7.64844C17.2859 7.66075 17.2818 7.67307 17.2777 7.68333C17.2284 7.75928 17.1935 7.84344 17.1525 7.9235Z" fill="#E34C37"/>
<path d="M16.6635 8.87595C16.6594 8.85542 16.6697 8.83695 16.6881 8.82874C16.6861 8.84721 16.6779 8.86568 16.6635 8.87595Z" fill="#E04437"/>
<path d="M16.6513 8.90262C16.6492 8.89236 16.6554 8.88415 16.6636 8.87799C16.6636 8.88825 16.6595 8.89647 16.6513 8.90262Z" fill="#E04437"/>
<path d="M16.6391 8.92517C16.637 8.91491 16.6432 8.9067 16.6514 8.90054C16.6514 8.91081 16.6473 8.91902 16.6391 8.92517Z" fill="#E04437"/>
</svg>
