<svg width="24" height="24" viewBox="0 0 24 24" fill="none" xmlns="http://www.w3.org/2000/svg">
<circle cx="12" cy="12" r="12" fill="#EDF0F4"/>
<path d="M7.93455 10.4202C8.80763 10.2751 9.62612 10.3238 10.4409 10.5399C10.7815 10.6303 11.1194 10.7491 11.4719 10.8985L11.4997 10.9103L11.5189 10.9186L11.5382 10.9269L11.5574 10.9352L11.5862 10.9478L11.6151 10.9605L11.644 10.9733L11.673 10.9862L11.702 10.9993L11.7312 11.0125L11.7507 11.0214L11.78 11.0349L11.7996 11.044L11.8292 11.0578L11.859 11.0717L11.889 11.0858L11.9091 11.0953L11.9292 11.1049L11.9597 11.1195L11.9904 11.1343L12.0214 11.1493L12.0422 11.1594L12.0737 11.1748L12.1054 11.1904L12.1268 11.2009L12.1591 11.2169L12.1808 11.2278L12.2248 11.2497L12.2583 11.2665L12.3035 11.2894L12.3379 11.3068L12.3845 11.3306L12.4509 11.3646L12.4887 11.3839L12.5261 11.4028C12.5323 11.406 12.5385 11.4091 12.5446 11.4122L12.5815 11.4307C12.6059 11.4429 12.6301 11.455 12.6541 11.4668L12.6899 11.4845C13.2008 11.7352 13.61 11.8973 14.0206 12.0074C14.5463 12.1484 15.0868 12.2042 15.7343 12.1788C16.3474 12.1547 16.8457 12.0536 17.2626 11.8851C17.5939 11.7511 17.8638 11.5811 18.139 11.3506L18.1476 11.3433L18.5984 11.8788C18.2671 12.1578 17.9336 12.3688 17.525 12.534C17.0306 12.7339 16.453 12.8511 15.7617 12.8782C15.0457 12.9063 14.4351 12.8433 13.8393 12.6835C13.3119 12.5421 12.7987 12.3288 12.1326 11.988L12.0784 11.9603L12.0229 11.932L11.9686 11.9044L11.9365 11.8883L11.9049 11.8724L11.8737 11.8568L11.8326 11.8364L11.8022 11.8214L11.7721 11.8066L11.7424 11.792L11.7129 11.7777L11.6934 11.7682L11.6644 11.7543L11.6452 11.7451L11.6167 11.7314L11.5883 11.718L11.5695 11.7091L11.5508 11.7003L11.5322 11.6916L11.5137 11.683L11.4861 11.6702L11.4586 11.6576L11.4404 11.6493L11.4131 11.6369L11.3859 11.6247L11.3679 11.6166L11.3499 11.6086L11.323 11.5967L11.305 11.5888L11.2692 11.5732L11.2424 11.5617L11.2156 11.5502C10.8858 11.4096 10.5734 11.2993 10.2614 11.2165C9.54 11.0252 8.82141 10.9824 8.04925 11.1107C7.44736 11.2107 6.95268 11.3941 6.55382 11.6353C6.34137 11.7638 6.17091 11.8998 6.03877 12.0337L6.02939 12.0433C6.02785 12.0449 6.02632 12.0465 6.0248 12.048L6.01579 12.0574L6.00704 12.0666C6.0056 12.0682 6.00418 12.0697 6.00276 12.0712L5.99438 12.0803C5.99301 12.0817 5.99164 12.0832 5.99029 12.0847L5.98229 12.0935L5.97454 12.1022C5.97327 12.1036 5.972 12.1051 5.97075 12.1065L5.96337 12.115L5.95624 12.1233L5.94935 12.1314C5.94822 12.1327 5.9471 12.1341 5.94599 12.1354L5.93947 12.1433C5.9384 12.1446 5.93735 12.1459 5.9363 12.1472L5.93014 12.1549L5.92612 12.16L5.92058 12.1671L5.9172 12.1715L5.91408 12.1756L5.91121 12.1795L5.90728 12.185L5.90581 12.187L5.90727 12.1848L5.32129 11.8019L5.3253 11.7959L5.32977 11.7893L5.33301 11.7846L5.33826 11.7772L5.34202 11.772L5.34599 11.7665L5.35234 11.7579L5.35684 11.7519L5.36399 11.7425L5.37162 11.7327L5.37697 11.7259L5.38254 11.7188C5.42595 11.6643 5.47845 11.605 5.54051 11.5421C5.71251 11.3677 5.92837 11.1955 6.19155 11.0363C6.66622 10.7493 7.24489 10.5347 7.93455 10.4202Z" fill="#00F5FF"/>
<path fill-rule="evenodd" clip-rule="evenodd" d="M5 12L12 5L19 12L12 19L5 12ZM12.0001 5.7L5.70007 12L12.0001 18.3L18.3001 12L12.0001 5.7Z" fill="#00F5FF"/>
<path fill-rule="evenodd" clip-rule="evenodd" d="M14.3332 13.113C14.3332 13.5802 14.1571 13.9761 13.8048 14.3008C13.4525 14.6254 12.9359 14.8058 12.2552 14.842V15.8887H11.8072V14.8512C11.3712 14.8269 10.9605 14.7405 10.5752 14.5918C10.1898 14.4432 9.88691 14.2536 9.6665 14.023L9.92627 13.5042C10.1353 13.7105 10.4085 13.8834 10.7458 14.023C11.0838 14.1627 11.4424 14.2457 11.8073 14.2688V11.8748C11.3952 11.7716 11.0519 11.6609 10.7772 11.5428C10.5025 11.4247 10.2741 11.2518 10.092 11.024C9.90996 10.7965 9.81896 10.4946 9.81896 10.1184C9.81896 9.65118 9.98617 9.25829 10.3206 8.93974C10.655 8.6212 11.1506 8.43453 11.8075 8.37974V7.33331H12.2555V8.37085C12.5914 8.38226 12.9243 8.43891 13.2452 8.53927C13.5647 8.63937 13.8408 8.77135 14.0737 8.93519L13.8497 9.47216C13.6068 9.31529 13.345 9.1899 13.0705 9.09899C12.7958 9.00799 12.5241 8.95643 12.2554 8.94429V11.356C12.6972 11.4652 13.0585 11.5759 13.3392 11.6882C13.6148 11.797 13.8582 11.9742 14.0465 12.203C14.2376 12.4334 14.3332 12.7367 14.3332 13.113ZM10.4727 10.1002C10.4727 10.4157 10.5876 10.6554 10.8175 10.8192C11.0474 10.9831 11.3773 11.1227 11.8073 11.2379V8.96249C11.3654 8.99889 11.0325 9.12177 10.8086 9.33111C10.5846 9.54046 10.4726 9.79682 10.4727 10.1002ZM13.321 13.9138C13.0821 14.114 12.7268 14.2323 12.2551 14.2688L12.255 11.9934C12.7149 12.1087 13.0672 12.2482 13.312 12.412C13.5568 12.5758 13.6792 12.8216 13.6792 13.1493C13.6793 13.4588 13.5599 13.7136 13.321 13.9138Z" fill="#00F5FF"/>
<path d="M12.0389 18.6536L5.4375 12.0374C5.4375 12.0374 6.85647 10.9588 8.51288 10.5524C10.1693 10.146 11.4166 10.9594 12.5254 11.7999C13.6341 12.6404 14.4674 12.8536 15.7765 12.7778C17.0856 12.702 18.6403 12.0374 18.6403 12.0374L12.0389 18.6536Z" fill="#00F5FF"/>
<path fill-rule="evenodd" clip-rule="evenodd" d="M14.3332 13.0809C14.3332 13.5481 14.1571 13.9441 13.8048 14.2686C13.4525 14.5933 12.9361 14.7738 12.2557 14.8102V15.857H11.8077V14.8196C11.3714 14.7953 10.9608 14.7088 10.5757 14.5602C10.1906 14.4115 9.88752 14.2219 9.6665 13.9914L9.92627 13.4725C10.1353 13.6788 10.4085 13.8518 10.7458 13.9914C11.0838 14.131 11.4424 14.214 11.8073 14.2371V11.8431C11.3953 11.7399 11.0519 11.6292 10.7771 11.5108C10.5022 11.3925 10.2738 11.2196 10.0918 10.9921C9.97166 10.8419 9.89113 10.6594 9.85025 10.4445C10.1312 10.4841 10.4068 10.5552 10.6719 10.6564C10.7151 10.7056 10.7639 10.7495 10.8174 10.7872C11.0232 10.934 11.3093 11.0612 11.6756 11.169C11.9699 11.3549 12.2521 11.5607 12.5251 11.7679C13.1628 12.2513 13.7118 12.5988 14.3122 12.7923C14.3265 12.8878 14.3335 12.9843 14.3332 13.0809ZM12.2552 14.2368C12.727 14.2004 13.0823 14.0821 13.3211 13.8818C13.56 13.6816 13.6794 13.4268 13.6795 13.1173C13.6796 12.7896 13.5571 12.5438 13.3122 12.38C13.0673 12.2162 12.715 12.0767 12.2552 11.9614V14.2368Z" fill="black"/>
</svg>
