<svg width="24" height="24" viewBox="0 0 24 24" fill="none" xmlns="http://www.w3.org/2000/svg">
<path d="M12 24C18.6276 24 24 18.6276 24 12C24 5.3724 18.6276 0 12 0C5.3724 0 0 5.3724 0 12C0 18.6276 5.3724 24 12 24Z" fill="#EDF0F4"/>
<path d="M11.3431 16.3813C10.6644 15.3859 11.1357 14.4207 11.4562 14.0625C11.7729 13.7005 12.5684 13.233 12.9266 13.0445C14.3971 13.3838 17.3494 14.153 17.3946 14.5149C17.4512 14.9674 17.1118 15.3494 16.4897 15.9288C15.8676 16.5083 14.1143 17.8517 13.4922 17.9648C12.8701 18.078 12.1914 17.6255 11.3431 16.3813Z" fill="#2D46A9"/>
<path d="M9.4196 9.76419C8.60519 9.35699 8.17536 8.23717 8.06224 7.72816C7.87372 7.78472 7.58717 7.73947 7.94913 7.10604C8.40158 6.31425 12.0212 5.23967 14.2835 6.14458C16.0933 6.8685 16.6588 7.76586 16.7154 8.12405C14.6228 8.84043 10.234 10.1714 9.4196 9.76419Z" fill="#2D46A9"/>
<path d="M7.77567 12.6433C7.23273 11.9194 6.19209 10.4565 5.73964 9.81551C5.62652 10.1171 5.4003 10.8901 5.4003 11.5688C5.4003 12.4171 5.34374 14.0572 6.13553 15.4712C6.76897 16.6023 8.43549 17.6392 9.18959 18.0162C9.265 17.7711 9.38188 17.0661 9.24614 16.2064C9.07647 15.1318 8.45435 13.5482 7.77567 12.6433Z" fill="#6294F1"/>
<path d="M9.18933 11.1729C8.51066 9.70239 9.92457 8.5147 10.9426 7.94914C11.5836 7.6098 13.1935 6.93112 14.5056 6.93112C16.1458 6.93112 17.1638 7.94914 17.7859 9.41961C18.4081 10.8901 18.7474 13.1523 17.9556 14.1138C17.1638 15.0753 15.0147 14.34 14.1098 13.9441C13.2048 13.5482 9.86801 12.6433 9.18933 11.1729Z" fill="#6294F1"/>
<path d="M8.34087 8.45815C7.52646 8.86536 6.49337 9.11798 6.07861 9.19339C6.30484 8.77864 6.8704 7.83603 7.32286 7.38358C7.88842 6.81801 8.963 6.19589 9.64168 6.19589C10.3204 6.19589 10.1507 6.81801 9.92446 7.15735C9.69823 7.49669 9.35889 7.94915 8.34087 8.45815Z" fill="#6294F1"/>
<path d="M14.11 17.79C13.7933 17.428 14.3928 16.7343 14.7321 16.4326C15.2298 16.0707 16.8247 15.49 17.56 15.2449C17.2772 15.6785 16.5759 16.6588 16.0329 17.1113C15.3543 17.6769 14.5059 18.2424 14.11 17.79Z" fill="#6294F1"/>
</svg>
