<svg width="24" height="24" viewBox="0 0 24 24" fill="none" xmlns="http://www.w3.org/2000/svg">
<path d="M12 24C18.6273 24 24 18.6273 24 12C24 5.37273 18.6273 0 12 0C5.37273 0 0 5.37273 0 12C0 18.6273 5.37273 24 12 24Z" fill="#73BB59"/>
<path fill-rule="evenodd" clip-rule="evenodd" d="M18.124 11.2855H5.87696V11.2852C5.46836 11.284 5.13743 10.9531 5.13623 10.5445C5.13743 10.1359 5.46836 9.80498 5.87696 9.80378H7.30796L5.78096 5.77151C5.63734 5.38897 5.82962 4.96226 6.21132 4.81642C6.59394 4.673 7.02057 4.86536 7.16641 5.24706L8.89196 9.80378H14.6462L16.372 5.24706C16.5178 4.86525 16.9445 4.67283 17.3271 4.81642C17.7088 4.96226 17.9011 5.38897 17.7575 5.77151L16.2308 9.80378H18.124C18.5326 9.80498 18.8636 10.1359 18.8648 10.5445C18.8637 10.9532 18.5328 11.2843 18.124 11.2855ZM18.1238 12.6682H5.87696C5.46847 12.6694 5.13758 13.0002 5.13623 13.4087C5.13728 13.8174 5.46826 14.1485 5.87696 14.1497H8.95387L11.0389 19.6558C11.1536 19.9561 11.4484 20.1485 11.7695 20.1328C12.0906 20.1485 12.3854 19.9561 12.5001 19.6558L14.5851 14.1494H18.124C18.5326 14.1482 18.8636 13.8173 18.8648 13.4087C18.8636 13.0001 18.5326 12.6692 18.124 12.668L18.1238 12.6682ZM11.7694 17.4017L10.5378 14.1492H13.001L11.7694 17.4015V17.4017Z" fill="white"/>
</svg>
