<svg width="24" height="24" viewBox="0 0 24 24" fill="none" xmlns="http://www.w3.org/2000/svg">
<path d="M12 24C18.6273 24 24 18.6273 24 12C24 5.37273 18.6273 0 12 0C5.37273 0 0 5.37273 0 12C0 18.6273 5.37273 24 12 24Z" fill="url(#paint0_linear_300_11872)"/>
<path fill-rule="evenodd" clip-rule="evenodd" d="M18.124 11.2855H5.87696V11.2852C5.46836 11.284 5.13743 10.9531 5.13623 10.5445C5.13743 10.1359 5.46836 9.80493 5.87696 9.80373H7.30796L5.78096 5.77146C5.63734 5.38892 5.82962 4.9622 6.21132 4.81637C6.59394 4.67294 7.02057 4.86531 7.16641 5.247L8.89196 9.80373H14.6462L16.372 5.247C16.5178 4.86519 16.9445 4.67278 17.3271 4.81637C17.7088 4.9622 17.9011 5.38892 17.7575 5.77146L16.2308 9.80373H18.124C18.5326 9.80493 18.8636 10.1359 18.8648 10.5445C18.8637 10.9532 18.5328 11.2843 18.124 11.2855ZM18.1238 12.6682H5.87696C5.46847 12.6694 5.13758 13.0002 5.13623 13.4086C5.13728 13.8173 5.46826 14.1484 5.87696 14.1496H8.95387L11.0389 19.6557C11.1536 19.956 11.4484 20.1485 11.7695 20.1327C12.0906 20.1485 12.3854 19.956 12.5001 19.6557L14.5851 14.1494H18.124C18.5326 14.1482 18.8636 13.8172 18.8648 13.4086C18.8636 13.0001 18.5326 12.6691 18.124 12.6679L18.1238 12.6682ZM11.7694 17.4016L10.5377 14.1491H13.001L11.7694 17.4014V17.4016Z" fill="white"/>
<defs>
<linearGradient id="paint0_linear_300_11872" x1="9.96668" y1="28.89" x2="28.654" y2="14.0065" gradientUnits="userSpaceOnUse">
<stop stop-color="#F8B342"/>
<stop offset="1" stop-color="#F2C35E"/>
</linearGradient>
</defs>
</svg>
