<svg width="24" height="24" viewBox="0 0 24 24" fill="none" xmlns="http://www.w3.org/2000/svg">
<circle cx="12" cy="12" r="12" fill="#EDF0F4"/>
<path d="M13.6341 16.2808L12.0651 19.302C12.0105 19.4071 11.8605 19.4082 11.8043 19.3039L5.61794 7.81747C5.56501 7.71918 5.63619 7.59999 5.74783 7.59999H8.97149C9.02589 7.59999 9.07588 7.62993 9.10155 7.67789L13.6333 16.1431C13.6563 16.1861 13.6566 16.2376 13.6341 16.2808Z" fill="url(#paint0_linear_300_14170)"/>
<mask id="mask0_300_14170" style="mask-type:alpha" maskUnits="userSpaceOnUse" x="5" y="7" width="9" height="13">
<path fill-rule="evenodd" clip-rule="evenodd" d="M13.6341 16.2808L12.0651 19.302C12.0105 19.4071 11.8605 19.4082 11.8043 19.3039L5.61794 7.81747C5.56501 7.71918 5.63619 7.59999 5.74783 7.59999H8.97149C9.02589 7.59999 9.07588 7.62993 9.10155 7.67789L13.6333 16.1431C13.6563 16.1861 13.6566 16.2376 13.6341 16.2808Z" fill="white"/>
</mask>
<g mask="url(#mask0_300_14170)">
<path d="M5.28705 6.89334L6.19969 1.88279C6.21072 1.82223 6.26907 1.78229 6.32952 1.79398L14.2439 3.32289C14.296 3.33296 14.3336 3.3785 14.3336 3.43154V17.1622C14.3336 17.2549 14.2268 17.3065 14.1548 17.2481C13.1629 16.4436 11.16 14.7212 9.81564 13.2244C8.39638 11.6442 6.23099 8.42175 5.30204 6.97173C5.28696 6.94819 5.28204 6.92085 5.28705 6.89334Z" fill="#768B97"/>
</g>
<ellipse cx="16.0488" cy="9.81286" rx="2.21287" ry="2.21287" fill="url(#paint1_linear_300_14170)"/>
<defs>
<linearGradient id="paint0_linear_300_14170" x1="5.50268" y1="7.59999" x2="5.50268" y2="19.5495" gradientUnits="userSpaceOnUse">
<stop stop-color="#758A96"/>
<stop offset="1" stop-color="#42515A"/>
</linearGradient>
<linearGradient id="paint1_linear_300_14170" x1="13.8359" y1="7.59999" x2="13.8359" y2="12.0257" gradientUnits="userSpaceOnUse">
<stop stop-color="#7C919D"/>
<stop offset="1" stop-color="#6F8490"/>
</linearGradient>
</defs>
</svg>
