<svg width="24" height="24" viewBox="0 0 24 24" fill="none" xmlns="http://www.w3.org/2000/svg">
<circle cx="12" cy="12" r="12" fill="#FF9933"/>
<path fill-rule="evenodd" clip-rule="evenodd" d="M4.6001 6C5.42809 6.0015 6.25684 6.0015 7.08409 6L8.65233 14.3851C8.67708 14.5089 8.70708 14.6311 8.73933 14.7526C8.81828 14.4397 8.87838 14.1225 8.93847 13.8053L8.93848 13.8053C8.972 13.6283 9.00553 13.4513 9.04233 13.2751L10.4703 6L12.8733 6.00075L12.6314 7.07798L12.6313 7.07836C11.8307 10.6433 11.03 14.2088 10.2281 17.7737H7.24534C6.36259 13.8519 5.48134 9.93006 4.6001 6.0075V6ZM13.8354 9.69906C14.3582 9.04205 15.1937 8.74429 15.9992 8.69179C16.7942 8.63629 17.6507 8.70829 18.3242 9.1823C18.9204 9.59931 19.2474 10.3043 19.4027 11.0056C19.5909 11.8846 19.6007 12.7876 19.5999 13.6831H15.1974C15.198 13.7799 15.1976 13.8772 15.1971 13.9747V13.9747C15.1947 14.5441 15.1923 15.1214 15.3812 15.6631C15.4884 15.9752 15.6887 16.2857 16.0067 16.3989C16.3457 16.5092 16.7537 16.4372 17.0012 16.1642C17.3203 15.8029 17.3954 15.3013 17.4651 14.8352L17.4722 14.7879H19.4702C19.4252 15.5829 19.2782 16.4229 18.7577 17.0477C18.2357 17.6972 17.3942 17.9627 16.5977 17.9949C15.7322 18.0279 14.7924 17.9102 14.1024 17.3274C13.4612 16.7927 13.1814 15.9452 13.0704 15.1329C12.9594 14.1976 12.9534 13.2511 13.0052 12.3113C13.0749 11.3948 13.2407 10.4243 13.8347 9.69831L13.8354 9.69906ZM15.1975 12.3331C15.1915 11.7548 15.2005 11.1233 15.541 10.6328V10.6336H15.5425C15.913 10.0763 16.885 10.0786 17.1925 10.6996C17.406 11.1337 17.4326 11.6254 17.4584 12.1052C17.4626 12.1815 17.4667 12.2576 17.4715 12.3331H15.1975Z" fill="white"/>
</svg>
