<svg width="24" height="24" viewBox="0 0 24 24" fill="none" xmlns="http://www.w3.org/2000/svg">
<circle cx="12" cy="12" r="12" fill="#51CBFF"/>
<path d="M10.9757 18.3699L4.63263 5.45011C4.52956 5.24397 4.68454 5 4.91293 5H7.11084C7.22875 5 7.33923 5.06674 7.39114 5.16981L12.0235 14.5428C12.4365 15.3837 13.6312 15.3837 14.0442 14.5428L18.6617 5.17723C18.7136 5.07415 18.8241 5.00742 18.942 5.00742H19.2149C19.3773 5.00742 19.4804 5.17723 19.407 5.31738L12.9971 18.3699C12.5841 19.21 11.3888 19.21 10.9757 18.3699Z" fill="white"/>
<path opacity="0.1" d="M10.9759 18.3705L7.39137 5.17784C7.33946 5.06735 7.22156 5.00803 7.1259 5.00803H4.92057C4.67735 5.00803 4.5372 5.25125 4.63286 5.45814L10.9759 18.3705Z" fill="white"/>
<path opacity="0.1" d="M12.0236 14.5495L4.63272 5.45011C4.54448 5.23655 4.67721 5.02225 4.88336 5H7.11835C7.24367 5.00742 7.33932 5.08824 7.38382 5.16981L12.0236 14.5495Z" fill="white"/>
</svg>
