<svg width="24" height="24" viewBox="0 0 24 24" fill="none" xmlns="http://www.w3.org/2000/svg">
<circle cx="12" cy="12" r="12" fill="url(#paint0_linear_300_10668)"/>
<mask id="mask0_300_10668" style="mask-type:alpha" maskUnits="userSpaceOnUse" x="0" y="0" width="24" height="24">
<circle cx="12" cy="12" r="12" fill="white"/>
</mask>
<g mask="url(#mask0_300_10668)">
<path d="M17.0758 0H29.8678L29.8798 25.2L4.48779 25.044L17.0758 0Z" fill="url(#paint1_linear_300_10668)"/>
</g>
<path fill-rule="evenodd" clip-rule="evenodd" d="M19.6001 6.60001L12.6949 20.234L12.6881 20.2478L12.6846 20.256C12.5832 20.4891 12.3869 20.5978 12.1147 20.6L12.1062 20.6H12.0942C11.8148 20.6 11.6143 20.4894 11.5128 20.2489L11.5123 20.2478L11.506 20.2351L4.6001 6.61207L8.02138 6.61208L8.05195 6.61221L8.07348 6.61246L8.08721 6.6127L8.10047 6.613L8.11329 6.61339L8.12568 6.61385L8.13767 6.6144L8.14928 6.61505L8.15495 6.61541L8.16604 6.6162L8.17681 6.6171L8.18208 6.61759L8.19241 6.61866L8.19747 6.61924L8.20742 6.62049L8.21713 6.62187L8.22664 6.62339L8.23597 6.62504L8.24514 6.62685C8.27547 6.63311 8.30352 6.64191 8.33314 6.65421C8.40707 6.68489 8.469 6.7349 8.51377 6.80219C8.53807 6.8387 8.55456 6.87486 8.5673 6.91459L8.56902 6.92011L12.094 13.8429L15.6111 6.92446L15.6115 6.92315L15.6127 6.9187C15.6477 6.79188 15.7393 6.69911 15.8599 6.64962L15.8655 6.64736C15.9512 6.6134 16.0505 6.60001 16.1735 6.60001H19.6001ZM5.61593 7.23904L12.0598 19.9507L12.0707 19.9725L12.077 19.9727L12.0853 19.973L12.0942 19.973H12.1062L12.1152 19.973L12.1234 19.9727L12.1298 19.9725L12.1399 19.952L18.5847 7.22697L16.1677 7.22699L16.1566 7.22712L16.1556 7.22714L12.0945 15.2158L8.03281 7.23908L5.61593 7.23904Z" fill="white"/>
<path d="M14.0631 6.60001C13.797 6.60001 13.7123 6.63626 13.5913 6.87792L10.6759 12.5933L7.76055 6.87792C7.70007 6.66042 7.5549 6.72084 7.28876 6.72084H4.82096C4.69999 6.72084 4.57902 6.85376 4.60321 6.93834L10.1921 17.8979C10.2767 18.0913 10.434 18.2 10.6759 18.2H10.688C10.93 18.2 11.0993 18.1033 11.1719 17.8979L16.7729 6.87792C16.8092 6.79334 16.8092 6.73292 16.7729 6.68459C16.7366 6.63626 16.6519 6.60001 16.5551 6.60001H14.0631Z" fill="white"/>
<defs>
<linearGradient id="paint0_linear_300_10668" x1="-8.292" y1="5.016" x2="-8.292" y2="21.6" gradientUnits="userSpaceOnUse">
<stop stop-color="#5B62FE"/>
<stop offset="1" stop-color="#3831AB"/>
</linearGradient>
<linearGradient id="paint1_linear_300_10668" x1="-1752.14" y1="3.69" x2="-1752.14" y2="20.7504" gradientUnits="userSpaceOnUse">
<stop stop-color="#1F1B55" stop-opacity="0.98"/>
<stop offset="1" stop-color="#493ED1"/>
</linearGradient>
</defs>
</svg>
