<svg width="24" height="24" viewBox="0 0 24 24" fill="none" xmlns="http://www.w3.org/2000/svg">
<circle cx="12" cy="12" r="12" fill="#338BE5"/>
<path fill-rule="evenodd" clip-rule="evenodd" d="M12.1217 13.349L16.2326 6.79999H7.95615L12.1217 13.349ZM18.6461 13.355C18.1601 13.0558 17.6201 12.8855 17.0725 12.7385H17.0733C16.9112 12.6962 16.7492 12.6579 16.5843 12.619L16.5843 12.619L16.5842 12.619C16.4745 12.5931 16.3635 12.5669 16.2505 12.539C17.3691 10.8604 18.4857 9.18039 19.6001 7.49901C19.5656 7.49451 19.5318 7.49301 19.4981 7.49301C18.7841 7.49301 18.0693 7.49301 17.3553 7.48701C17.2476 7.48701 17.2115 7.54 17.1636 7.61026L17.1633 7.61076C15.8425 9.60201 14.5217 11.5948 13.2017 13.5898C12.9784 13.9289 12.7528 14.2677 12.5235 14.6122C12.3831 14.8231 12.2412 15.0361 12.0977 15.2525C12.0659 15.2161 12.0378 15.1767 12.0137 15.1348C10.3749 12.6268 8.73388 10.121 7.09135 7.61601C7.0474 7.52823 6.95534 7.47512 6.85735 7.48101C6.51834 7.48401 6.17933 7.48401 5.84023 7.48401C5.50113 7.48401 5.16194 7.48401 4.82255 7.48701C4.79083 7.48701 4.75567 7.49043 4.71192 7.49469L4.66655 7.49901C5.61856 8.9442 6.55198 10.3719 7.49122 11.8086L7.49123 11.8086L7.92612 12.4738C7.90062 12.481 7.88176 12.4839 7.8655 12.4864C7.85498 12.488 7.84555 12.4894 7.83611 12.4918C7.68939 12.5293 7.54272 12.5652 7.39625 12.6012L7.39623 12.6012C7.03883 12.6888 6.68257 12.7762 6.32933 12.8848C5.83132 13.0378 5.35131 13.2373 4.96131 13.5898C4.46855 14.0308 4.4813 14.489 4.99131 14.9173C5.00007 14.926 5.01057 14.9334 5.02124 14.9409C5.03158 14.9482 5.04208 14.9556 5.05131 14.9645C5.39932 15.2405 5.80132 15.4228 6.22133 15.5698C7.54811 16.0453 8.93414 16.2275 10.3389 16.3273C10.4256 16.3286 10.5053 16.3753 10.5489 16.4503C11.0578 17.237 11.5721 18.0203 12.0917 18.8C12.1241 18.7466 12.1602 18.6954 12.1997 18.647C12.4358 18.2947 12.6705 17.9423 12.9052 17.5901L12.9054 17.5898L12.9054 17.5897L12.9054 17.5897C13.1597 17.208 13.4139 16.8264 13.6697 16.445C13.7067 16.3877 13.765 16.3475 13.8317 16.3333C14.0987 16.2999 14.3665 16.2706 14.634 16.2413L14.6341 16.2413C15.0709 16.1934 15.5072 16.1456 15.9393 16.0805C16.7973 15.9515 17.6373 15.734 18.4293 15.3523C18.7421 15.2053 19.0361 15.029 19.2521 14.753C19.4981 14.4358 19.5161 14.1193 19.2461 13.8193C19.0638 13.6438 18.8621 13.4878 18.6461 13.355ZM7.25931 14.5415C7.07705 14.4372 6.9128 14.3037 6.7733 14.1485V14.1477C6.62508 13.9949 6.62776 13.7512 6.7793 13.6017C6.90955 13.4498 7.06604 13.3225 7.24131 13.226C7.51206 13.0962 7.79107 12.9845 8.07607 12.8907C8.13075 12.8816 8.18652 12.8991 8.22608 12.938C8.46572 13.3 8.7039 13.6633 8.94216 14.0268L8.9424 14.0271L8.94245 14.0272C9.18729 14.4007 9.43221 14.7743 9.67885 15.1467C9.68185 15.1523 9.68335 15.1597 9.6856 15.1706L9.68561 15.1706C9.68786 15.1816 9.69086 15.1962 9.69685 15.2165C8.83809 15.0875 8.00932 14.9412 7.25931 14.5415ZM16.2267 14.7823C16.5537 14.694 16.8531 14.5242 17.0967 14.2888C17.3375 14.0488 17.3375 13.778 17.0967 13.5313C17.0372 13.4669 16.9687 13.4113 16.8934 13.3663C16.744 13.2916 16.5906 13.2189 16.4364 13.1458L16.4364 13.1458C16.3244 13.0928 16.2121 13.0395 16.1007 12.9853C16.0107 12.938 15.9567 12.9733 15.9027 13.0558C15.6546 13.4384 15.4019 13.8153 15.1486 14.193L15.1486 14.193L15.0447 14.348C14.9264 14.5254 14.8081 14.7054 14.6881 14.888L14.688 14.8883C14.6254 14.9835 14.5624 15.0794 14.4987 15.176C14.5465 15.182 14.5948 15.182 14.6427 15.176C14.7921 15.1395 14.9421 15.1039 15.0921 15.0683L15.0921 15.0683C15.4721 14.978 15.8525 14.8877 16.2267 14.7823Z" fill="white"/>
</svg>
