<svg width="24" height="24" viewBox="0 0 24 24" fill="none" xmlns="http://www.w3.org/2000/svg">
<circle cx="12" cy="12" r="12" fill="#418BCA"/>
<path fill-rule="evenodd" clip-rule="evenodd" d="M15.2226 6H18.8002L12.0002 19.6L5.2002 6H8.75433L12.0236 12.8854L15.2226 6ZM12.0003 9.74681C11.405 9.74681 10.9222 9.25117 10.9222 8.63992C10.9222 8.02868 11.405 7.53228 12.0003 7.53228C12.5957 7.53228 13.0785 8.02868 13.0785 8.63992C13.0785 9.25117 12.595 9.74681 12.0003 9.74681ZM17.9622 13.9069C17.963 13.2957 17.4802 12.7993 16.8848 12.7993V12.8C16.2894 12.8 15.8066 13.2957 15.8066 13.9069C15.8066 14.5181 16.2894 15.0138 16.8848 15.0138C17.4802 15.0138 17.9622 14.5189 17.9622 13.9069Z" fill="white"/>
</svg>
