<svg width="24" height="24" viewBox="0 0 24 24" fill="none" xmlns="http://www.w3.org/2000/svg">
<circle cx="12" cy="12" r="12" fill="#EDF0F4"/>
<path fill-rule="evenodd" clip-rule="evenodd" d="M12 4C16.4153 4 20 7.58468 20 12C20 16.4153 16.4153 20 12 20C7.58468 20 4 16.4153 4 12C4 7.58468 7.58468 4 12 4ZM8.07783 6.89382C8.37994 6.63514 8.80383 6.42263 9.17235 6.57227C9.835 6.84134 11.6154 10.4307 11.6154 10.4307C11.6154 10.4307 14.1057 6.89272 15.0001 6.57011C15.3053 6.46004 15.7236 6.65362 16.0426 6.89216C17.1624 7.72933 17.2781 8.8973 17.1813 9.22132C17.0596 9.62868 10.8738 17.4774 10.8738 17.4774C10.6888 17.402 7.02365 10.5993 6.82503 9.43529C6.63521 8.32293 7.28101 7.56713 8.07783 6.89382Z" fill="#3165D4"/>
</svg>
