<svg width="24" height="24" viewBox="0 0 24 24" fill="none" xmlns="http://www.w3.org/2000/svg">
<circle cx="12" cy="12" r="12" fill="#F8D948"/>
<path d="M9.22401 5.8H5.70753C5.62843 5.8 5.57652 5.88266 5.61089 5.9539L12.0369 19.2762C12.0762 19.3577 12.1926 19.3569 12.2308 19.2748L13.9112 15.6631C13.9247 15.6342 13.9246 15.6008 13.911 15.572L9.32102 5.86144C9.30328 5.82392 9.26551 5.8 9.22401 5.8Z" fill="black"/>
<path d="M14.4252 14.2072L12.7205 10.6473C12.7066 10.6183 12.7065 10.5845 12.7201 10.5554L14.9227 5.86171C14.9404 5.82405 14.9783 5.8 15.0199 5.8H18.4302C18.509 5.8 18.5609 5.88203 18.5272 5.95321L14.6189 14.2068C14.5803 14.2884 14.4642 14.2887 14.4252 14.2072Z" fill="black"/>
</svg>
