<svg width="24" height="24" viewBox="0 0 24 24" fill="none" xmlns="http://www.w3.org/2000/svg">
<circle cx="12" cy="12" r="12" fill="#EDF0F4"/>
<path fill-rule="evenodd" clip-rule="evenodd" d="M6.30229 7.40003H9.56629C9.58371 7.39969 9.60092 7.40382 9.61629 7.41203C9.63095 7.42016 9.64333 7.43186 9.65229 7.44603L13.6263 13.8C13.6479 13.8328 13.6479 13.8753 13.6263 13.908L12.0003 16.502C11.9913 16.5162 11.979 16.5279 11.9643 16.536C11.9338 16.5527 11.8968 16.5527 11.8663 16.536C11.8516 16.5279 11.8393 16.5162 11.8303 16.502L6.21629 7.55403C6.2066 7.53908 6.20107 7.52182 6.20029 7.50403C6.1995 7.48593 6.20365 7.46795 6.21229 7.45203C6.22125 7.43613 6.23439 7.42299 6.25029 7.41403C6.26602 7.40469 6.284 7.39985 6.30229 7.40003ZM13.1442 7.40004H17.5162C17.5345 7.39987 17.5525 7.40471 17.5682 7.41404C17.5819 7.42382 17.5929 7.43688 17.6002 7.45204C17.6087 7.468 17.6129 7.48595 17.6122 7.50404C17.6126 7.52147 17.6085 7.53871 17.6002 7.55404L15.4162 11.042C15.4072 11.0562 15.3949 11.0679 15.3802 11.076C15.3497 11.0928 15.3127 11.0928 15.2822 11.076C15.2675 11.0679 15.2552 11.0562 15.2462 11.042L13.0602 7.55404C13.0505 7.5391 13.045 7.52184 13.0442 7.50404C13.0434 7.48594 13.0476 7.46797 13.0562 7.45204C13.0652 7.43615 13.0783 7.423 13.0942 7.41404C13.1093 7.40505 13.1266 7.40022 13.1442 7.40004Z" fill="#FF8836"/>
</svg>
