<svg width="24" height="24" viewBox="0 0 24 24" fill="none" xmlns="http://www.w3.org/2000/svg">
<path fill-rule="evenodd" clip-rule="evenodd" d="M12 24C5.4 24 0 18.6001 0 11.9402C0.06 5.34038 5.4 -0.0595036 12.06 0.000495204C18.66 0.060494 24 5.40038 24 12.1202C23.94 18.6601 18.6 24 12 24Z" fill="#048657"/>
<path fill-rule="evenodd" clip-rule="evenodd" d="M18.3127 5.58492C18.2604 5.53522 18.2076 5.48647 18.1543 5.43866L11.8787 14.1341L9.48083 11.0741H5.5776L4.48067 12.3236H6.52151L11.3941 18.6221C11.5567 18.7751 11.7182 18.8515 11.8787 18.8515C12.0392 18.8515 12.1923 18.7751 12.338 18.6221L20.0422 7.96314C19.9976 7.87188 19.9515 7.7815 19.9039 7.69199C20.6027 8.9715 21 10.4394 21 11.9999C21 16.9701 16.9705 21 11.9999 21C7.02935 21 3 16.9706 3 11.9999C3 7.02933 7.02999 3 12.0002 3C14.4593 3 16.6882 3.98635 18.3127 5.58492Z" fill="#048657"/>
<path fill-rule="evenodd" clip-rule="evenodd" d="M4.48096 12.3236L5.57788 11.0741H9.48112L11.879 14.1341L18.1546 5.43866C18.5283 5.77394 18.877 6.15653 19.2006 6.58644C19.5251 7.01766 19.807 7.47875 20.0424 7.96335L12.3383 18.6221C12.1927 18.7751 12.0396 18.8516 11.879 18.8516C11.7185 18.8516 11.5569 18.7751 11.3944 18.6221L6.52179 12.3236H4.48096Z" fill="white"/>
</svg>
