<svg width="24" height="24" viewBox="0 0 24 24" fill="none" xmlns="http://www.w3.org/2000/svg">
<circle cx="12" cy="12" r="12" fill="#F89022"/>
<path fill-rule="evenodd" clip-rule="evenodd" d="M19.227 14.2465H21L15.3863 9.39999H13.605L17.0753 12.3985L15.9788 13.3412L13.6995 10.5602H12.192L9.453 13.894L9.1545 14.2585L10.4955 10.5662H9.27675L8.38875 13.06L7.5 10.567H6L5.109 13.0652L4.215 10.5557H3L4.32975 14.2405H5.913L6.75 11.893L7.59375 14.2585H9.1545L8.22 15.4H9.71775L12.9465 11.4692L13.8713 12.6002H12.657L12.0323 13.372H14.5013L15.2175 14.242H16.716L17.9693 13.1695L19.227 14.2465ZM18.4051 11.3005L19.2414 12.0175L20.9274 10.591L19.2399 10.5895L18.4051 11.3005Z" fill="white"/>
</svg>
