<svg width="24" height="24" viewBox="0 0 24 24" fill="none" xmlns="http://www.w3.org/2000/svg">
<circle cx="12" cy="12" r="12" fill="#EDF0F4"/>
<circle cx="12" cy="12" r="8" fill="white"/>
<path d="M16.9748 7.34363L16.5327 7.78534C18.7193 10.1744 18.7193 13.8359 16.5327 16.225L16.9748 16.6667C19.4076 14.0303 19.4076 9.96972 16.9748 7.33333V7.34363Z" fill="#5A5564"/>
<path d="M7.78551 7.46666C10.1746 5.28005 13.8361 5.28005 16.2251 7.46666L16.6668 7.02456C14.0304 4.59181 9.96989 4.59181 7.3335 7.02456L7.78551 7.46666Z" fill="#5A5564"/>
<path d="M7.46686 16.2102C5.28294 13.8218 5.28294 10.1635 7.46686 7.77504L7.02475 7.33333C4.59201 9.96972 4.59201 14.0303 7.02475 16.6667L7.46686 16.2102Z" fill="#5A5564"/>
<path d="M16.2148 16.5333C13.8257 18.72 10.1643 18.72 7.77521 16.5333L7.3335 16.9754C9.96989 19.4082 14.0304 19.4082 16.6668 16.9754L16.2148 16.5333Z" fill="#5A5564"/>
<path fill-rule="evenodd" clip-rule="evenodd" d="M14.7481 10.5835C14.6611 9.66563 13.8785 9.35772 12.8886 9.26389V8H12.1234V9.24043H11.5118V8H10.7524V9.27268H9.2002V10.1011C9.2002 10.1011 9.76542 10.0908 9.75672 10.1011C9.96855 10.0775 10.1608 10.2279 10.1915 10.4413V13.925C10.1871 13.9981 10.1537 14.0664 10.0988 14.1142C10.0449 14.1629 9.97369 14.1872 9.90165 14.1816C9.9118 14.1904 9.34512 14.1816 9.34512 14.1816L9.2002 15.1068H10.7379V16.4H11.5031V15.1259H12.1147V16.3941H12.8814V15.1156C14.1741 15.0364 15.0756 14.7138 15.1886 13.4895C15.28 12.5042 14.822 12.0644 14.0901 11.887C14.535 11.6656 14.8104 11.255 14.7481 10.5835ZM13.6757 13.337C13.6757 14.22 12.3029 14.1997 11.6764 14.1905L11.6763 14.1905C11.6204 14.1897 11.5704 14.1889 11.5279 14.1889V12.4822C11.581 12.4824 11.6458 12.4809 11.7193 12.4793C12.3633 12.4649 13.6757 12.4355 13.6757 13.337ZM11.6593 11.7068C12.1843 11.7163 13.3203 11.7367 13.3203 10.9325C13.3203 10.1079 12.2197 10.1369 11.6845 10.1509C11.6249 10.1525 11.5723 10.1539 11.529 10.1539V11.7052C11.5661 11.7052 11.61 11.7059 11.6593 11.7068Z" fill="#F09242"/>
<path fill-rule="evenodd" clip-rule="evenodd" d="M4 11.9995C3.99973 16.4174 7.58064 19.9992 11.9985 20C14.1208 20.0004 16.1562 19.1575 17.6569 17.6569C19.1575 16.1562 20.0004 14.1208 20 11.9985C19.9992 7.58064 16.4174 3.99973 11.9995 4C7.58162 4.00027 4.00027 7.58162 4 11.9995ZM4.63281 11.9985C4.6312 7.92836 7.92855 4.62707 11.9987 4.62383C13.9554 4.62228 15.8324 5.39866 17.2162 6.78194C18.6 8.16522 19.3771 10.0419 19.3764 11.9985C19.3747 16.0687 16.0748 19.3674 12.0046 19.3674C7.93441 19.3674 4.63443 16.0687 4.63281 11.9985Z" fill="#282138"/>
</svg>
