<svg width="24" height="24" viewBox="0 0 24 24" fill="none" xmlns="http://www.w3.org/2000/svg">
<circle cx="12" cy="12" r="12" fill="#B80000"/>
<path fill-rule="evenodd" clip-rule="evenodd" d="M19.5197 8.49023C19.6367 8.68896 19.621 8.89743 19.5048 9.10141C19.3824 9.29644 19.2668 9.49406 19.1513 9.69142C19.1025 9.77484 19.0537 9.85821 19.0045 9.94131L19.0028 9.94427C18.5488 10.7202 18.0949 11.4961 17.6395 12.272C16.7294 13.8179 15.8184 15.3632 14.9065 16.908C14.8021 17.102 14.5929 17.2159 14.3733 17.1982C14.143 17.1877 13.9795 17.0737 13.8708 16.875C13.7616 16.6808 13.6481 16.4888 13.5338 16.2954L13.5258 16.2818C13.1874 15.7033 12.8478 15.126 12.5087 14.5493L12.5081 14.5484L12.376 14.3238C12.3043 14.1999 12.231 14.0782 12.1513 13.9457L12.1045 13.8679C12.0634 13.9376 12.0232 14.004 11.984 14.0688L11.984 14.0688C11.9317 14.1553 11.8811 14.2389 11.8323 14.3238L10.6825 16.2811C10.5651 16.4776 10.4501 16.6756 10.3375 16.875C10.2288 17.0737 10.066 17.1877 9.83501 17.1982C9.61566 17.2147 9.407 17.1011 9.30176 16.908C8.9058 16.2417 8.51423 15.5755 8.12131 14.9069L8.12116 14.9066L8.01176 14.7205C7.52912 13.9053 7.04812 13.0892 6.56876 12.272C6.11501 11.4951 5.65976 10.7182 5.20376 9.94131C5.1649 9.87542 5.12612 9.80937 5.0873 9.74326L5.08728 9.74323C4.96131 9.52868 4.83498 9.31351 4.70426 9.10141C4.57976 8.89743 4.56176 8.68896 4.67801 8.49023C4.79201 8.2945 4.97576 8.20001 5.21201 8.20001L5.94973 8.20289C7.18002 8.20789 8.41065 8.21289 9.64076 8.20226C10.0135 8.20001 10.2363 8.3425 10.4103 8.65296C10.6496 9.08002 10.8988 9.50028 11.148 9.92048L11.148 9.92049C11.2869 10.1548 11.4258 10.3891 11.563 10.6245C11.6239 10.7298 11.6845 10.8354 11.7451 10.9411L11.7451 10.9411C11.8443 11.1139 11.9435 11.287 12.0445 11.4591C12.0543 11.4748 12.0691 11.4877 12.0839 11.5007L12.097 11.5124C12.117 11.4981 12.1343 11.4803 12.148 11.4599C12.2149 11.3448 12.2811 11.2292 12.3474 11.1136C12.4409 10.9503 12.5346 10.7869 12.6303 10.6245C12.7497 10.4207 12.87 10.2176 12.9902 10.0145C13.2581 9.56205 13.5257 9.11 13.783 8.65296C13.9563 8.3425 14.179 8.20001 14.5518 8.20301C15.7752 8.21295 16.9982 8.20797 18.2215 8.20298L18.9812 8.20001C19.222 8.20001 19.4057 8.2945 19.5197 8.49023ZM11.3876 12.806C11.4168 12.7442 11.4176 12.6727 11.3898 12.6103C11.3403 12.5092 11.2803 12.4118 11.22 12.3138L11.2199 12.3138C11.1889 12.2634 11.1579 12.213 11.1281 12.1618C10.9739 11.8985 10.8196 11.6355 10.6653 11.3725L10.6652 11.3723L10.6651 11.3722C10.2913 10.7349 9.9177 10.098 9.54558 9.45838C9.49158 9.36614 9.42934 9.33314 9.32059 9.33314C8.63185 9.33682 7.94274 9.33792 7.25378 9.33902C6.95843 9.33949 6.6631 9.33997 6.36784 9.34064C6.3385 9.34064 6.30916 9.34363 6.27455 9.34715L6.27454 9.34715C6.2543 9.34921 6.23225 9.35145 6.20734 9.35339C6.70928 10.2096 7.2094 11.0632 7.70948 11.9168L7.7099 11.9175C8.40672 13.1068 9.10349 14.2961 9.80508 15.4922C9.84929 15.4185 9.89061 15.3511 9.92995 15.287L9.92995 15.287C9.98272 15.201 10.0319 15.1209 10.0796 15.0392C10.5191 14.2968 10.9548 13.5522 11.3876 12.806ZM14.5171 15.2838L14.395 15.4922C14.3622 15.4382 14.3309 15.3872 14.3008 15.3382C14.236 15.2328 14.1769 15.1365 14.1205 15.0392C13.6825 14.2961 13.2468 13.5514 12.8118 12.806C12.7834 12.7438 12.7834 12.6724 12.8118 12.6103C12.8685 12.4968 12.9348 12.3893 13.0007 12.2823C13.0255 12.2422 13.0502 12.2021 13.0743 12.1618C13.6025 11.2608 14.13 10.3594 14.6568 9.45763C14.7108 9.36614 14.773 9.33314 14.8818 9.33314C15.5707 9.33682 16.2596 9.33792 16.9488 9.33902C17.244 9.33949 17.5392 9.33997 17.8345 9.34064C17.8631 9.34064 17.8908 9.34347 17.9241 9.34687C17.945 9.34901 17.9681 9.35137 17.995 9.35339C16.8313 11.3336 15.6794 13.2998 14.5171 15.2838Z" fill="white"/>
</svg>
