<svg width="24" height="24" viewBox="0 0 24 24" fill="none" xmlns="http://www.w3.org/2000/svg">
<circle cx="12" cy="12" r="12" fill="#EDF0F4"/>
<path d="M18.7358 11.7566H18.7201L18.2214 9.34816C18.3195 9.31197 18.3777 9.21078 18.3596 9.10776C18.3415 9.00475 18.2524 8.9294 18.1478 8.92876C18.1094 8.92878 18.0717 8.93935 18.0389 8.95933L16.0766 6.63874C16.1619 6.55735 16.1651 6.42219 16.0837 6.33685C16.0023 6.2515 15.8672 6.24829 15.7818 6.32968C15.7645 6.34606 15.7501 6.36528 15.7393 6.38652L13.7655 5.4923C13.7733 5.47035 13.7773 5.44727 13.7775 5.42399C13.7771 5.31144 13.6905 5.21797 13.5783 5.20899C13.4661 5.20002 13.3658 5.27854 13.3475 5.3896H12.1471C12.0612 5.31754 11.9359 5.31754 11.85 5.3896H10.6472C10.6376 5.31116 10.5858 5.24425 10.5124 5.21516C10.4389 5.18608 10.3554 5.19946 10.2947 5.25006C10.234 5.30066 10.2057 5.38038 10.2211 5.45791C10.2226 5.46962 10.2253 5.48115 10.2292 5.4923L8.25878 6.38652C8.20483 6.28166 8.07608 6.24038 7.97122 6.29433C7.86635 6.34828 7.82507 6.47703 7.87902 6.5819C7.89008 6.60298 7.90443 6.62217 7.92154 6.63874L5.95061 8.95264C5.91779 8.93267 5.88012 8.92209 5.8417 8.92207C5.73712 8.92271 5.64796 8.99806 5.62989 9.10107C5.61182 9.20409 5.67001 9.30528 5.76814 9.34148L5.27851 11.7581H5.26275C5.1159 11.7642 5 11.885 5 12.032C5 12.179 5.1159 12.2998 5.26275 12.306H5.27851L5.771 14.7173C5.67288 14.7535 5.61468 14.8547 5.63275 14.9577C5.65082 15.0607 5.73998 15.1361 5.84457 15.1367C5.88292 15.1363 5.92048 15.1257 5.95348 15.1062L7.92201 17.4253C7.86064 17.4839 7.83975 17.5732 7.86879 17.6529C7.89784 17.7326 7.97131 17.7876 8.05598 17.7929C8.14064 17.7982 8.22043 17.753 8.25926 17.6775L10.2316 18.5722C10.2241 18.5942 10.22 18.6173 10.2197 18.6405C10.22 18.7531 10.3066 18.8466 10.4188 18.8555C10.531 18.8645 10.6313 18.786 10.6496 18.6749H11.85C11.9361 18.7466 12.0611 18.7466 12.1471 18.6749H13.3475C13.3658 18.786 13.4661 18.8645 13.5783 18.8555C13.6905 18.8466 13.7771 18.7531 13.7775 18.6405C13.7773 18.6173 13.7733 18.5942 13.7655 18.5722L15.7398 17.6756C15.7786 17.751 15.8584 17.7963 15.9431 17.791C16.0277 17.7857 16.1012 17.7307 16.1303 17.651C16.1593 17.5713 16.1384 17.482 16.077 17.4234L18.0408 15.1157C18.0738 15.1353 18.1113 15.1458 18.1497 15.1463C18.2543 15.1457 18.3434 15.0703 18.3615 14.9673C18.3796 14.8643 18.3214 14.7631 18.2233 14.7269L18.7215 12.3031H18.7373C18.8841 12.297 19 12.1761 19 12.0292C19 11.8822 18.8841 11.7613 18.7373 11.7552L18.7358 11.7566Z" fill="#0432A9"/>
<path d="M18.1304 9.36154L18.3511 11.1371L17.6484 9.66295C17.7401 9.59441 17.776 9.47386 17.7368 9.36631L17.9637 9.26122C18.0004 9.31906 18.0622 9.35623 18.1304 9.36154Z" fill="#EDF0F4"/>
<path d="M17.1689 13.9726L17.1211 12.1985C17.1908 12.1932 17.25 12.1455 17.2701 12.0786H17.6246C17.6246 12.0872 17.6284 12.0958 17.6308 12.1049C17.6332 12.114 17.6365 12.1245 17.6399 12.134V12.1397C17.6674 12.209 17.7224 12.2636 17.7918 12.2907L17.6074 13.5518L17.273 14.1618L17.1689 13.9726Z" fill="#EDF0F4"/>
<path d="M6.71949 14.1608L6.38511 13.5508L6.20264 12.2892C6.29283 12.254 6.35708 12.173 6.37078 12.0771H6.73239C6.73728 12.0879 6.74303 12.0983 6.74958 12.1082C6.77501 12.1559 6.8217 12.1886 6.87522 12.1961L6.82745 13.9716L6.71949 14.1608Z" fill="#EDF0F4"/>
<path d="M6.82895 10.0886L6.87672 11.8641C6.82306 11.8713 6.77621 11.904 6.75109 11.952C6.74434 11.9618 6.73858 11.9722 6.73389 11.9831H6.3742C6.36079 11.8871 6.29643 11.8059 6.20605 11.771L6.39044 10.508L6.72482 9.89796L6.82895 10.0886Z" fill="#EDF0F4"/>
<path d="M17.2765 9.90085L17.6109 10.5109L17.7952 11.7719C17.7257 11.7987 17.6705 11.8535 17.6433 11.9229V11.9286C17.6397 11.9381 17.6367 11.9479 17.6343 11.9578C17.6317 11.9664 17.6296 11.9752 17.6281 11.984H17.2765C17.2567 11.9169 17.1973 11.8691 17.1274 11.8641L17.1752 10.09L17.2765 9.90085Z" fill="#EDF0F4"/>
<path d="M17.3101 9.84113L17.3903 9.70117C17.4208 9.71303 17.4531 9.71934 17.4858 9.7198H17.494L17.5852 10.3408L17.3101 9.84113Z" fill="#EDF0F4"/>
<path d="M18.2935 11.9907H18.165C18.1518 11.9105 18.1034 11.8405 18.0332 11.7996C18.0278 11.7963 18.0222 11.7933 18.0165 11.7906C18.0104 11.7872 18.0042 11.7841 17.9978 11.7815C17.9641 11.7661 17.9274 11.7581 17.8903 11.7581H17.8755L17.7236 10.722L18.3556 11.8761C18.322 11.9057 18.2993 11.9457 18.2911 11.9898L18.2935 11.9907Z" fill="#EDF0F4"/>
<path d="M18.3561 12.189L17.7256 13.343L17.8775 12.3069H17.8923C17.9294 12.3066 17.9659 12.2987 17.9998 12.2835C18.006 12.2835 18.0122 12.2773 18.0179 12.2745C18.0237 12.2717 18.0292 12.2687 18.0346 12.2654C18.1047 12.2244 18.153 12.1544 18.1665 12.0743H18.295C18.3023 12.1179 18.3236 12.158 18.3556 12.1885L18.3561 12.189Z" fill="#EDF0F4"/>
<path d="M17.1738 9.91039L17.1772 9.78428C17.188 9.78334 17.1987 9.78142 17.2092 9.77855L17.2288 9.81438L17.1738 9.91039Z" fill="#EDF0F4"/>
<path d="M17.2218 9.45324V9.45706C17.2041 9.45038 17.1853 9.44698 17.1664 9.44703C17.1528 9.44703 17.1393 9.44896 17.1263 9.45276V9.44416L17.0747 9.33047L17.2309 9.38541C17.2236 9.40719 17.2191 9.42983 17.2175 9.45276L17.2218 9.45324Z" fill="#EDF0F4"/>
<path d="M17.1193 9.77855L17.1131 10.0174L16.4123 11.2364L15.7188 10.4559C15.743 10.4261 15.7564 10.3888 15.7565 10.3503C15.7565 10.3341 15.7541 10.318 15.7493 10.3026L17.0185 9.70355C17.0404 9.73898 17.0743 9.76529 17.1141 9.77759L17.1193 9.77855Z" fill="#EDF0F4"/>
<path d="M14.8217 15.6139L14.9143 15.5815L14.8312 15.8203C14.8229 15.8188 14.8144 15.818 14.8059 15.8179C14.7948 15.8178 14.7838 15.819 14.7729 15.8213C14.8179 15.7626 14.8353 15.6874 14.8207 15.6149L14.8217 15.6139Z" fill="#EDF0F4"/>
<path d="M14.7933 15.5337C14.7711 15.4924 14.738 15.4579 14.6978 15.4338L15.3617 13.7811L15.4315 13.7686C15.4459 13.8098 15.4754 13.844 15.5141 13.8642L14.9466 15.4759L14.7933 15.5337Z" fill="#EDF0F4"/>
<path d="M14.6351 15.9889L14.2529 16.0591L14.412 15.8843C14.4836 15.9317 14.5738 15.9411 14.6537 15.9096C14.6423 15.9317 14.6359 15.956 14.6351 15.9808L14.6322 15.9875L14.6351 15.9889Z" fill="#EDF0F4"/>
<path d="M12.1654 16.502L14.0565 16.1537L12.9578 17.3666L12.1357 16.6023C12.1549 16.5741 12.1652 16.5408 12.1654 16.5067C12.1637 16.505 12.1623 16.5031 12.1611 16.501L12.1654 16.502Z" fill="#EDF0F4"/>
<path d="M12.1547 16.4465C12.1453 16.419 12.1289 16.3945 12.1069 16.3754L12.5177 15.7037H14.299C14.3066 15.7484 14.3255 15.7903 14.354 15.8256L14.1237 16.0821L12.1547 16.4465Z" fill="#EDF0F4"/>
<path d="M11.8685 16.6004L11.0464 17.3647L9.94775 16.1518L11.8389 16.5V16.5029C11.8372 16.5364 11.8453 16.5696 11.8623 16.5984L11.8685 16.6004Z" fill="#EDF0F4"/>
<path d="M11.8497 16.4465L9.88498 16.084L9.65234 15.8275C9.68079 15.7922 9.69971 15.7503 9.70728 15.7057H11.4886L11.8932 16.3744C11.8713 16.3934 11.8548 16.4178 11.8454 16.4451L11.8497 16.4465Z" fill="#EDF0F4"/>
<path d="M9.3658 15.9803C9.36493 15.9555 9.35857 15.9312 9.34717 15.9091C9.42704 15.9406 9.51726 15.9312 9.58887 15.8838L9.74794 16.0587L9.3658 15.9884V15.9803Z" fill="#EDF0F4"/>
<path d="M9.22929 15.8203C9.2101 15.816 9.1902 15.816 9.17101 15.8203L9.08789 15.5815L9.18056 15.6139C9.17751 15.6297 9.17591 15.6457 9.17578 15.6617C9.17473 15.718 9.19145 15.7731 9.22355 15.8194L9.22929 15.8203Z" fill="#EDF0F4"/>
<path d="M9.20909 15.5337L9.05193 15.4788L8.4873 13.8623C8.526 13.8421 8.55556 13.8079 8.56994 13.7667L8.63969 13.7792L9.30367 15.432C9.26227 15.4561 9.22825 15.4911 9.20526 15.5332L9.20909 15.5337Z" fill="#EDF0F4"/>
<path d="M9.18007 8.44869L9.0874 8.48117L9.17052 8.24233C9.17895 8.2428 9.1874 8.2428 9.19584 8.24233C9.20688 8.24192 9.21789 8.24081 9.2288 8.23898C9.18701 8.29938 9.16835 8.3728 9.17625 8.44582L9.18007 8.44869Z" fill="#EDF0F4"/>
<path d="M9.2091 8.52893C9.2316 8.57004 9.26456 8.60448 9.30464 8.62877L8.64066 10.2816L8.57092 10.294C8.55684 10.2526 8.5272 10.2183 8.48828 10.1984L9.05481 8.58195L9.2091 8.52893Z" fill="#EDF0F4"/>
<path d="M9.36873 8.0718L9.75088 8.00158L9.59181 8.17641C9.52036 8.12858 9.4299 8.1191 9.3501 8.15109C9.36138 8.129 9.36774 8.10471 9.36873 8.07992L9.37159 8.07323L9.36873 8.0718Z" fill="#EDF0F4"/>
<path d="M11.8379 7.56066L9.94678 7.90889L11.0455 6.69605L11.8675 7.46035C11.8482 7.48846 11.8379 7.52177 11.8379 7.55588C11.8379 7.55588 11.8341 7.55923 11.8341 7.56018L11.8379 7.56066Z" fill="#EDF0F4"/>
<path d="M11.8487 7.61608C11.8583 7.64348 11.8747 7.66797 11.8964 7.68726L11.4851 8.3584H9.70386C9.69648 8.3137 9.67754 8.27171 9.64893 8.23659L9.88156 7.98008L11.8487 7.61608Z" fill="#EDF0F4"/>
<path d="M12.1352 7.46226L12.9573 6.69797L14.056 7.9108L12.1653 7.56257V7.55971C12.1654 7.52455 12.1544 7.49027 12.1338 7.46178L12.1352 7.46226Z" fill="#EDF0F4"/>
<path d="M12.1537 7.61608L14.1184 7.97864L14.351 8.23516C14.3222 8.27069 14.3032 8.3132 14.2961 8.3584H12.5148L12.104 7.68678C12.1255 7.66787 12.1419 7.6439 12.1518 7.61704L12.1537 7.61608Z" fill="#EDF0F4"/>
<path d="M14.6375 8.08231C14.6385 8.1071 14.6449 8.13138 14.6561 8.15348C14.5763 8.12149 14.4859 8.13096 14.4144 8.1788L14.2554 8.00397L14.6375 8.07419V8.08231Z" fill="#EDF0F4"/>
<path d="M14.7739 8.24232C14.7848 8.24415 14.7958 8.24526 14.8069 8.24567C14.8153 8.24616 14.8238 8.24616 14.8322 8.24567L14.9153 8.48451L14.8226 8.45203C14.8374 8.37957 14.82 8.30428 14.7749 8.24567L14.7739 8.24232Z" fill="#EDF0F4"/>
<path d="M14.7942 8.52893L14.9514 8.58387L15.516 10.2003C15.4771 10.2202 15.4474 10.2545 15.4334 10.2959L15.3636 10.2835L14.6968 8.63068C14.7371 8.60546 14.7701 8.57003 14.7923 8.52798L14.7942 8.52893Z" fill="#EDF0F4"/>
<path d="M16.1063 11.7691C16.0583 11.7513 16.006 11.7491 15.9568 11.7629L15.6926 11.106L15.6372 10.5132C15.6541 10.5085 15.6702 10.5013 15.685 10.4917L16.3838 11.2861L16.1063 11.7691Z" fill="#EDF0F4"/>
<path d="M16.4454 11.3563L16.9613 11.941L16.945 11.9797H16.2834C16.2726 11.9136 16.2371 11.854 16.1841 11.813L16.4454 11.3563Z" fill="#EDF0F4"/>
<path d="M15.8034 11.8689C15.7904 11.8648 15.7769 11.8625 15.7632 11.8622L15.7217 11.4161L15.875 11.7982C15.8462 11.8165 15.8214 11.8404 15.8019 11.8684L15.8034 11.8689Z" fill="#EDF0F4"/>
<path d="M15.874 12.2639L15.7207 12.6461L15.7623 12.1999C15.7758 12.1992 15.7893 12.1969 15.8024 12.1932C15.8212 12.221 15.845 12.245 15.8726 12.2639H15.874Z" fill="#EDF0F4"/>
<path d="M15.6522 11.2412L15.7119 11.8689C15.6588 11.8838 15.6166 11.9241 15.5992 11.9764H14.4164C14.4106 11.9591 14.4019 11.9429 14.3906 11.9286L15.4071 10.6336L15.6522 11.2412Z" fill="#EDF0F4"/>
<path d="M11.8118 11.8312C11.7723 11.8698 11.7459 11.92 11.7364 11.9745L9.89345 11.9769C9.87818 11.9453 9.85348 11.9192 9.82275 11.9023L10.4968 10.132C10.5321 10.1414 10.5695 10.1389 10.6033 10.1249L11.8118 11.8312Z" fill="#EDF0F4"/>
<path d="M10.6753 10.0637C10.6915 10.0414 10.702 10.0155 10.7059 9.98826H13.294C13.2978 10.0155 13.3083 10.0414 13.3245 10.0637L12.1088 11.7786C12.0747 11.7629 12.0375 11.7547 11.9999 11.7547H11.9966C11.959 11.7547 11.9218 11.7629 11.8877 11.7786L10.6753 10.0637Z" fill="#EDF0F4"/>
<path d="M9.89247 12.0867H11.7354C11.745 12.1412 11.7714 12.1913 11.8109 12.23L10.6023 13.9387C10.5687 13.9242 10.5311 13.9216 10.4958 13.9315L9.82178 12.1641C9.85278 12.1462 9.87748 12.1192 9.89247 12.0867V12.0867Z" fill="#EDF0F4"/>
<path d="M11.8886 12.2826C11.9229 12.2979 11.9599 12.306 11.9975 12.3064H12.0008C12.0384 12.306 12.0755 12.2979 12.1098 12.2826L13.3226 13.9951C13.3062 14.0173 13.2957 14.0432 13.292 14.0705H10.7049C10.7012 14.0432 10.6907 14.0173 10.6743 13.9951L11.8886 12.2826Z" fill="#EDF0F4"/>
<path d="M12.187 12.23C12.2265 12.1913 12.2529 12.1412 12.2625 12.0867H14.0973C14.1107 12.1239 14.1365 12.1552 14.1704 12.1756L13.5016 13.932C13.4662 13.9219 13.4283 13.9244 13.3946 13.9392L12.187 12.23Z" fill="#EDF0F4"/>
<path d="M14.0972 11.974L12.2605 11.9716C12.251 11.9171 12.2246 11.867 12.1851 11.8283L13.3931 10.1191C13.4278 10.1338 13.4664 10.1361 13.5025 10.1258L14.1713 11.8823C14.1363 11.9029 14.11 11.9355 14.0972 11.974Z" fill="#EDF0F4"/>
<path d="M13.4602 9.79526C13.4396 9.79523 13.4191 9.79912 13.4 9.80673L12.5674 8.44533H14.2942C14.3036 8.49957 14.3294 8.5496 14.3683 8.58863L13.5084 9.80195C13.4929 9.79735 13.4768 9.79526 13.4607 9.79574L13.4602 9.79526Z" fill="#EDF0F4"/>
<path d="M13.3558 9.83254C13.3224 9.85851 13.3002 9.89628 13.2937 9.93811H10.7047C10.6982 9.89628 10.676 9.85851 10.6426 9.83254L11.4933 8.44726H12.5046L13.3558 9.83254Z" fill="#EDF0F4"/>
<path d="M10.5997 9.80722C10.5651 9.79323 10.5266 9.79205 10.4912 9.80388L9.63379 8.59056C9.67275 8.55164 9.69863 8.50156 9.70783 8.44726H11.4347L10.5997 9.80722Z" fill="#EDF0F4"/>
<path d="M10.451 10.1096L9.77697 11.8813C9.76539 11.8786 9.75352 11.8773 9.74162 11.8775C9.71059 11.8775 9.68016 11.8861 9.65373 11.9023L8.61572 10.5768L8.71842 10.3207L10.3784 10.0179C10.3906 10.0557 10.4156 10.0882 10.4491 10.1096H10.451Z" fill="#EDF0F4"/>
<path d="M9.73975 12.1837C9.75225 12.1835 9.76472 12.1822 9.777 12.1799L10.4515 13.9516C10.4175 13.9725 10.3921 14.0049 10.3798 14.0428L8.71989 13.74L8.61719 13.4839L9.65281 12.1584C9.67907 12.1743 9.70905 12.183 9.73975 12.1837Z" fill="#EDF0F4"/>
<path d="M10.4892 14.2578C10.5247 14.2691 10.563 14.268 10.5977 14.2545L11.4303 15.6149H9.70344C9.69445 15.5605 9.66854 15.5104 9.62939 15.4716L10.4892 14.2578Z" fill="#EDF0F4"/>
<path d="M10.6426 14.2286C10.6758 14.2025 10.698 14.1648 10.7047 14.1231H13.2937C13.3004 14.1648 13.3226 14.2025 13.3558 14.2286L12.5051 15.6139H11.4929L10.6426 14.2286Z" fill="#EDF0F4"/>
<path d="M13.401 14.2545C13.4357 14.268 13.4739 14.2691 13.5094 14.2578L14.3692 15.4711C14.3302 15.51 14.3044 15.5601 14.2952 15.6144H12.5684L13.401 14.2545Z" fill="#EDF0F4"/>
<path d="M13.5507 13.9521L14.2195 12.1952C14.2665 12.2067 14.3163 12.1971 14.3556 12.1689L15.3855 13.4844L15.2823 13.74L13.621 14.0428C13.6086 14.0048 13.583 13.9724 13.5488 13.9516L13.5507 13.9521Z" fill="#EDF0F4"/>
<path d="M14.2582 11.8617C14.2452 11.8617 14.2322 11.8633 14.2195 11.8665L13.5508 10.1096C13.5846 10.0885 13.61 10.0562 13.6224 10.0183L15.2824 10.3212L15.3851 10.5772L14.3538 11.8932C14.3253 11.8727 14.291 11.8617 14.2558 11.8617H14.2582Z" fill="#EDF0F4"/>
<path d="M15.4698 10.4698L15.4483 10.497L15.3853 10.3403L15.4211 10.347V10.3513C15.4212 10.3953 15.4383 10.4376 15.4688 10.4693L15.4698 10.4698Z" fill="#EDF0F4"/>
<path d="M15.4697 10.5524L15.5103 10.5003C15.5328 10.512 15.5576 10.5187 15.5829 10.5199L15.6216 10.9312L15.4697 10.5524Z" fill="#EDF0F4"/>
<path d="M15.2583 10.2605L13.6309 9.9658C13.6307 9.92383 13.6149 9.88344 13.5864 9.85259L14.4424 8.64118C14.4959 8.66741 14.5567 8.67466 14.6149 8.66172L15.2583 10.2605Z" fill="#EDF0F4"/>
<path d="M12.4521 8.35839H11.5493L11.9444 7.71495C11.9804 7.73035 12.0211 7.73035 12.0571 7.71495L12.4521 8.35839Z" fill="#EDF0F4"/>
<path d="M9.38462 8.66172C9.44275 8.67489 9.50365 8.66764 9.55706 8.64118L10.4131 9.85259C10.3846 9.88344 10.3688 9.92383 10.3686 9.9658L8.73975 10.2605L9.38462 8.66172Z" fill="#EDF0F4"/>
<path d="M8.57802 10.3465L8.61385 10.3398L8.55079 10.4965L8.5293 10.4693C8.56026 10.4375 8.57742 10.3947 8.57707 10.3503C8.57756 10.3491 8.57789 10.3478 8.57802 10.3465Z" fill="#EDF0F4"/>
<path d="M8.48728 10.4994L8.52836 10.5515L8.37598 10.9293L8.41467 10.518C8.43994 10.5172 8.46472 10.5108 8.48728 10.4994V10.4994Z" fill="#EDF0F4"/>
<path d="M8.59143 10.6322L9.61319 11.9324C9.60218 11.9446 9.59301 11.9582 9.58596 11.973H8.38889C8.37284 11.9251 8.33596 11.887 8.28857 11.8694L8.34781 11.2379L8.59143 10.6322Z" fill="#EDF0F4"/>
<path d="M8.30498 11.1051L8.04082 11.7619C7.99157 11.7482 7.93924 11.7503 7.8913 11.7681L7.61377 11.2852L8.31262 10.4908C8.3274 10.5003 8.3435 10.5075 8.36039 10.5123L8.30498 11.1051Z" fill="#EDF0F4"/>
<path d="M8.23386 11.8617H8.22717C8.21495 11.8613 8.20274 11.8626 8.19087 11.8656C8.17243 11.839 8.14928 11.816 8.12256 11.7977L8.27589 11.4156L8.23386 11.8617Z" fill="#EDF0F4"/>
<path d="M8.27541 12.6451L8.12207 12.263C8.14874 12.2445 8.17201 12.2216 8.19086 12.1952C8.20281 12.1976 8.21496 12.1989 8.22716 12.199H8.23385L8.27541 12.6451Z" fill="#EDF0F4"/>
<path d="M7.81199 11.8111C7.75899 11.8521 7.72349 11.9117 7.71263 11.9778H7.05963C7.05534 11.9628 7.0489 11.9485 7.04053 11.9353L7.55308 11.3525L7.81199 11.8111Z" fill="#EDF0F4"/>
<path d="M7.0019 11.899C6.98159 11.8822 6.95749 11.8705 6.93168 11.8651L6.88965 10.1975L7.52401 11.3076L7.0019 11.899Z" fill="#EDF0F4"/>
<path d="M6.93168 12.1961C6.95735 12.1902 6.98135 12.1786 7.0019 12.1622L7.52401 12.7531L6.88965 13.8637L6.93168 12.1961Z" fill="#EDF0F4"/>
<path d="M7.03906 12.1226C7.04726 12.1093 7.05368 12.095 7.05817 12.08L7.71212 12.0829C7.7232 12.149 7.75866 12.2084 7.81148 12.2496L7.55162 12.7053L7.03906 12.1226Z" fill="#EDF0F4"/>
<path d="M7.89134 12.2926C7.93937 12.3099 7.99155 12.3121 8.04085 12.2988L8.30597 12.9561L8.36138 13.5489C8.34434 13.5533 8.32818 13.5606 8.31361 13.5704L7.61523 12.776L7.89134 12.2926Z" fill="#EDF0F4"/>
<path d="M8.34585 12.818L8.28662 12.1865C8.33382 12.1686 8.37059 12.1306 8.38693 12.0829H9.58544C9.59274 12.0975 9.60189 12.1112 9.61267 12.1235L8.59282 13.429L8.34585 12.818Z" fill="#EDF0F4"/>
<path d="M8.52881 13.59L8.5503 13.5628L8.61336 13.7194L8.57753 13.7127V13.7084C8.57731 13.6649 8.56019 13.6231 8.52976 13.5919L8.52881 13.59Z" fill="#EDF0F4"/>
<path d="M8.52884 13.5074L8.48728 13.5594C8.46486 13.5475 8.44004 13.5408 8.41467 13.5399L8.37598 13.1286L8.52884 13.5074Z" fill="#EDF0F4"/>
<path d="M8.73975 13.7968L10.3677 14.0906C10.368 14.1325 10.3838 14.1729 10.4121 14.2038L9.55515 15.4195C9.50181 15.3928 9.44083 15.3856 9.38271 15.399L8.73975 13.7968Z" fill="#EDF0F4"/>
<path d="M11.5469 15.7009H12.4516L12.0566 16.3443C12.0206 16.3286 11.9798 16.3286 11.9438 16.3443L11.5469 15.7009Z" fill="#EDF0F4"/>
<path d="M14.6139 15.3976C14.5558 15.3841 14.4948 15.3914 14.4415 15.4181L13.5854 14.2067C13.6137 14.1757 13.6296 14.1354 13.6299 14.0935L15.2573 13.7988L14.6139 15.3976Z" fill="#EDF0F4"/>
<path d="M15.4196 13.7128L15.3838 13.7194L15.4473 13.5651L15.4688 13.5924C15.4377 13.6241 15.4205 13.6669 15.421 13.7113C15.4209 13.7132 15.4209 13.7151 15.421 13.717L15.4196 13.7128Z" fill="#EDF0F4"/>
<path d="M15.5094 13.5594L15.4688 13.5074L15.6211 13.1286L15.5824 13.5398C15.5565 13.5409 15.5313 13.5483 15.5089 13.5613L15.5094 13.5594Z" fill="#EDF0F4"/>
<path d="M15.4052 13.4266L14.3892 12.1321C14.4002 12.1177 14.4089 12.1015 14.415 12.0843H15.5963C15.614 12.1365 15.6561 12.1766 15.709 12.1918L15.6522 12.819L15.4052 13.4266Z" fill="#EDF0F4"/>
<path d="M15.6916 12.9537L15.9558 12.2969C16.0051 12.3102 16.0573 12.308 16.1053 12.2907L16.3829 12.7736L15.684 13.568C15.6695 13.5581 15.6533 13.5508 15.6362 13.5465L15.6916 12.9537Z" fill="#EDF0F4"/>
<path d="M16.1851 12.2477C16.2379 12.2065 16.2733 12.147 16.2844 12.081L16.9451 12.0781L16.9613 12.1168L16.4459 12.7053L16.1851 12.2477Z" fill="#EDF0F4"/>
<path d="M16.9966 12.1545C17.0157 12.1711 17.0382 12.1834 17.0626 12.1904L17.1046 13.8623L16.4707 12.7531L16.9966 12.1545Z" fill="#EDF0F4"/>
<path d="M17.0631 11.868C17.0386 11.8746 17.016 11.8868 16.9971 11.9038L16.4717 11.3072L17.106 10.197L17.0631 11.868Z" fill="#EDF0F4"/>
<path d="M17.0376 9.50198L16.4233 9.10072L16.9574 9.28845L16.9603 9.29419L17.0477 9.49195C17.0448 9.49625 17.041 9.49911 17.0381 9.50293L17.0376 9.50198Z" fill="#EDF0F4"/>
<path d="M17.0061 9.5526C16.9933 9.58446 16.9908 9.61955 16.999 9.65291L15.7302 10.2567C15.6953 10.2002 15.6294 10.1708 15.564 10.1827L15.0151 8.60631L16.1931 9.01855L17.0061 9.5526Z" fill="#EDF0F4"/>
<path d="M14.9783 8.5017L14.8828 8.2213C14.899 8.21239 14.9138 8.20112 14.9268 8.18787L15.9012 8.8294L14.9783 8.5017Z" fill="#EDF0F4"/>
<path d="M14.8511 7.91082C14.807 7.89647 14.7588 7.90223 14.7193 7.92658L13.4883 6.40754C13.5025 6.39148 13.5138 6.37305 13.5217 6.35309L15.6235 6.64352C15.6255 6.68715 15.6424 6.72879 15.6713 6.76151L15.5982 6.86469L14.8511 7.91082Z" fill="#EDF0F4"/>
<path d="M15.6339 6.57997L13.5321 6.28667C13.5322 6.21179 13.4869 6.14434 13.4175 6.11614L13.4447 6.00293L13.4552 5.96997L15.3182 6.40514L15.6363 6.57567L15.6339 6.57997Z" fill="#EDF0F4"/>
<path d="M13.4368 6.44623L14.6721 7.96526C14.6591 7.98036 14.6489 7.99767 14.642 8.01637L14.1858 7.9323L13.0107 6.64256L13.2343 6.43381C13.2922 6.47978 13.3722 6.48583 13.4364 6.44909L13.4368 6.44623Z" fill="#EDF0F4"/>
<path d="M13.3596 6.10469H13.3491C13.2928 6.10513 13.2399 6.13158 13.2058 6.17634L12.3564 5.7149L13.3935 5.95756L13.3596 6.10469Z" fill="#EDF0F4"/>
<path d="M12.9729 6.59814L12.7192 6.31917H13.1687C13.1728 6.34452 13.1821 6.36876 13.196 6.39034L12.9729 6.59814Z" fill="#EDF0F4"/>
<path d="M12.9149 6.65211L12.0942 7.42166C12.0384 7.37677 11.9589 7.37677 11.9031 7.42166L11.0811 6.65163L11.382 6.31725H12.6144L12.9149 6.65211Z" fill="#EDF0F4"/>
<path d="M11.0234 6.59813L10.8008 6.3913C10.8147 6.36971 10.824 6.34548 10.828 6.32012H11.2766L11.0234 6.59813Z" fill="#EDF0F4"/>
<path d="M10.6469 6.4725C10.6878 6.47213 10.7275 6.45819 10.7596 6.43285L10.9832 6.6416L9.80808 7.93135L9.35285 8.01542C9.34615 7.99663 9.33594 7.97928 9.32275 7.96431L10.5585 6.44766C10.5856 6.46322 10.6161 6.47176 10.6474 6.4725H10.6469Z" fill="#EDF0F4"/>
<path d="M10.6021 5.95756L11.6401 5.7149L10.7912 6.17491C10.7571 6.13015 10.7042 6.1037 10.6479 6.10325H10.6369L10.6021 5.95756Z" fill="#EDF0F4"/>
<path d="M10.4617 6.28811L8.35986 6.58141V6.57472L8.678 6.40419L10.541 5.96997L10.5491 6.00436L10.5763 6.11757C10.5068 6.14606 10.4616 6.21395 10.4621 6.28906L10.4617 6.28811Z" fill="#EDF0F4"/>
<path d="M8.37257 6.64591L10.4744 6.35548C10.4824 6.37535 10.4937 6.39375 10.5078 6.40993L9.27683 7.92849C9.23732 7.90414 9.18912 7.89838 9.14499 7.91272L8.40219 6.8666L8.3291 6.76342C8.3569 6.73051 8.37243 6.68898 8.37305 6.64591H8.37257Z" fill="#EDF0F4"/>
<path d="M9.01709 8.50505L8.09277 8.83178L9.07059 8.19121C9.08351 8.20446 9.09832 8.21573 9.11454 8.22465L9.01709 8.50505Z" fill="#EDF0F4"/>
<path d="M8.98122 8.60726L8.43236 10.1836C8.36701 10.1719 8.30112 10.2012 8.26613 10.2577L6.9974 9.65387C7.00037 9.64134 7.00197 9.62853 7.00218 9.61565C7.00209 9.59439 6.99804 9.57333 6.99023 9.55355L7.8023 9.02094L8.98122 8.60726Z" fill="#EDF0F4"/>
<path d="M6.95827 9.50484L6.94824 9.49481L7.03566 9.29705L7.03852 9.29131L7.57257 9.10358L6.95827 9.50484Z" fill="#EDF0F4"/>
<path d="M6.97542 9.70739L8.24797 10.3045C8.24319 10.32 8.24078 10.3361 8.24081 10.3523C8.24094 10.3907 8.25426 10.428 8.27854 10.4578L7.58686 11.2393L6.88609 10.0203L6.87988 9.78143C6.91999 9.76872 6.954 9.74168 6.97542 9.70547V9.70739Z" fill="#EDF0F4"/>
<path d="M6.87218 9.44512V9.45372C6.85914 9.44992 6.84563 9.44799 6.83205 9.44799C6.81313 9.44794 6.79435 9.45133 6.77664 9.45802V9.45467C6.77654 9.43095 6.77333 9.40734 6.76709 9.38445L6.92329 9.32952L6.87218 9.44512Z" fill="#EDF0F4"/>
<path d="M6.82495 9.91182L6.77002 9.81628L6.78961 9.78046C6.80008 9.78333 6.81079 9.78525 6.82161 9.78619L6.82495 9.91182Z" fill="#EDF0F4"/>
<path d="M6.10836 11.7557C5.97445 11.7563 5.86169 11.856 5.84468 11.9888H5.70711C5.70017 11.9438 5.67809 11.9025 5.64453 11.8718L6.27651 10.7177L6.1246 11.7538C6.11953 11.7544 6.1144 11.7544 6.10932 11.7538L6.10836 11.7557Z" fill="#EDF0F4"/>
<path d="M6.27506 13.3445L5.64404 12.1885C5.67742 12.1576 5.69946 12.1164 5.70662 12.0714H5.84419C5.86056 12.2053 5.97399 12.306 6.10883 12.3065H6.12364L6.27506 13.3445Z" fill="#EDF0F4"/>
<path d="M6.41309 10.3432L6.50432 9.72218H6.51244C6.54515 9.72177 6.57752 9.71546 6.60798 9.70355L6.68823 9.84351L6.41309 10.3432Z" fill="#EDF0F4"/>
<path d="M6.29976 10.5491L5.5904 11.8388C5.58419 11.8359 5.57798 11.834 5.57129 11.8316L5.61906 11.3778L6.42157 9.70595L6.29976 10.5491Z" fill="#EDF0F4"/>
<path d="M5.59094 12.2229L6.3003 13.5126L6.4245 14.3572L5.62199 12.6853L5.57422 12.2315C5.57892 12.2281 5.58406 12.2253 5.5895 12.2233L5.59094 12.2229Z" fill="#EDF0F4"/>
<path d="M6.41406 13.719L6.68921 14.2191L6.60896 14.359C6.57862 14.3467 6.54617 14.3404 6.51342 14.3404H6.5053L6.41406 13.719Z" fill="#EDF0F4"/>
<path d="M6.82593 14.1489L6.82259 14.275C6.81171 14.2755 6.80095 14.2774 6.79058 14.2807L6.771 14.2449L6.82593 14.1489Z" fill="#EDF0F4"/>
<path d="M6.7776 14.6075V14.6041C6.79543 14.6104 6.81413 14.6137 6.83301 14.6142C6.84661 14.6136 6.8601 14.6114 6.87314 14.6075V14.6161L6.92473 14.7298L6.76709 14.6748C6.77344 14.6529 6.77697 14.6303 6.7776 14.6075Z" fill="#EDF0F4"/>
<path d="M6.87988 14.2817L6.88609 14.0428L7.58686 12.8238L8.27663 13.6043C8.24253 13.6471 8.2318 13.704 8.24797 13.7562L6.97685 14.3567C6.95525 14.3212 6.92117 14.2952 6.88132 14.2836L6.87988 14.2817Z" fill="#EDF0F4"/>
<path d="M6.95878 14.5597L7.57308 14.961L7.03999 14.7732L7.03712 14.7675L6.94971 14.5683C6.95305 14.565 6.95878 14.5597 6.95878 14.5597Z" fill="#EDF0F4"/>
<path d="M6.99023 14.5091C6.99796 14.4893 7.002 14.4682 7.00218 14.447C7.00203 14.4341 7.00043 14.4213 6.9974 14.4087L8.26708 13.804C8.30235 13.8601 8.36802 13.8894 8.43332 13.878L8.98217 15.4544L7.80468 15.0412L6.99023 14.5091Z" fill="#EDF0F4"/>
<path d="M9.01662 15.56L9.11216 15.8404C9.09574 15.8489 9.08088 15.8603 9.06821 15.8738L8.09326 15.2284L9.01662 15.56Z" fill="#EDF0F4"/>
<path d="M9.14587 16.1518C9.19005 16.1656 9.23803 16.1599 9.27771 16.136L10.5087 17.6551C10.4944 17.6711 10.4831 17.6895 10.4753 17.7095L8.37345 17.4191C8.37192 17.3754 8.355 17.3336 8.32568 17.3011L8.39972 17.1955L9.14587 16.1518Z" fill="#EDF0F4"/>
<path d="M8.36377 17.4783L10.4656 17.7716C10.4658 17.8464 10.511 17.9138 10.5802 17.9422L10.553 18.0554L10.5449 18.0898L8.68191 17.6546L8.36377 17.4822V17.4783Z" fill="#EDF0F4"/>
<path d="M10.5604 17.6126L9.32324 16.0969C9.33623 16.0818 9.34642 16.0645 9.35334 16.0458L9.80952 16.1298L10.9846 17.4196L10.7611 17.6255C10.7033 17.5791 10.6231 17.573 10.559 17.6102L10.5604 17.6126Z" fill="#EDF0F4"/>
<path d="M10.6393 17.957H10.6498C10.706 17.9561 10.7587 17.9297 10.7931 17.8853L11.6396 18.3453L10.6011 18.1032L10.6393 17.957Z" fill="#EDF0F4"/>
<path d="M11.0267 17.4635L11.2804 17.7425H10.828C10.8241 17.7171 10.8148 17.6928 10.8008 17.6713L11.0267 17.4635Z" fill="#EDF0F4"/>
<path d="M11.0835 17.4096L11.9046 16.6395C11.9606 16.6839 12.0397 16.6839 12.0957 16.6395L12.9168 17.4096L12.6159 17.7439H11.3835L11.0835 17.4096Z" fill="#EDF0F4"/>
<path d="M12.9753 17.4635L13.1974 17.6723C13.1833 17.6938 13.1741 17.7181 13.1702 17.7435H12.7192L12.9753 17.4635Z" fill="#EDF0F4"/>
<path d="M13.3519 17.5887C13.3109 17.5886 13.2711 17.6026 13.2392 17.6283L13.0156 17.4196L14.1907 16.1298L14.6469 16.0458C14.654 16.0644 14.6642 16.0817 14.677 16.0969L13.4422 17.6145C13.4143 17.5975 13.3822 17.5886 13.3495 17.5887H13.3519Z" fill="#EDF0F4"/>
<path d="M13.3968 18.1036L12.3564 18.3463L13.2039 17.8863C13.2383 17.9307 13.291 17.9571 13.3472 17.9579H13.3596L13.3968 18.1036Z" fill="#EDF0F4"/>
<path d="M13.537 17.7731L15.6388 17.4798V17.4865L15.3182 17.657L13.4553 18.0922L13.4471 18.0578L13.4199 17.9446C13.4895 17.9161 13.5349 17.8483 13.5346 17.7731H13.537Z" fill="#EDF0F4"/>
<path d="M15.6265 17.4153L13.5246 17.7057C13.517 17.6856 13.5056 17.6672 13.4912 17.6513L14.7222 16.1322C14.7619 16.1561 14.8099 16.1618 14.854 16.148L15.5988 17.1955L15.6718 17.2987C15.6428 17.3308 15.6259 17.3721 15.6241 17.4153H15.6265Z" fill="#EDF0F4"/>
<path d="M14.9822 15.5561L15.9046 15.2284L14.9268 15.8685C14.9141 15.855 14.8992 15.8437 14.8828 15.8351L14.9822 15.5561Z" fill="#EDF0F4"/>
<path d="M15.0176 15.4539L15.5664 13.8776C15.6318 13.889 15.6975 13.8597 15.7327 13.8035L17.0028 14.4078C16.9947 14.4412 16.9972 14.4762 17.01 14.5081L16.1979 15.0407L15.0176 15.4539Z" fill="#EDF0F4"/>
<path d="M17.0376 14.5597L17.0477 14.5697L16.9603 14.7675L16.9574 14.7732L16.4233 14.961L17.0376 14.5597Z" fill="#EDF0F4"/>
<path d="M17.0205 14.3572L15.7513 13.7562C15.7674 13.7032 15.756 13.6457 15.7207 13.6029L16.41 12.8214L17.1108 14.0428L17.117 14.2817C17.077 14.2938 17.0429 14.3204 17.0214 14.3562L17.0205 14.3572Z" fill="#EDF0F4"/>
<path d="M17.1244 14.6194V14.6075C17.1375 14.6108 17.151 14.6127 17.1645 14.6132C17.1834 14.6128 17.2021 14.6094 17.2199 14.6032V14.6065C17.2204 14.6296 17.2238 14.6526 17.2299 14.6748L17.0737 14.7298L17.1244 14.6194Z" fill="#EDF0F4"/>
<path d="M17.1719 14.1527L17.2268 14.2482L17.2072 14.2841C17.1969 14.2807 17.1861 14.2788 17.1752 14.2783L17.1719 14.1527Z" fill="#EDF0F4"/>
<path d="M17.5837 13.7228L17.4925 14.3438H17.4844C17.4516 14.3438 17.4192 14.3501 17.3888 14.3624L17.3086 14.2225L17.5837 13.7228Z" fill="#EDF0F4"/>
<path d="M17.6975 13.5164L18.4068 12.2267C18.4131 12.2296 18.4193 12.2315 18.426 12.2339L18.3782 12.6877L17.5757 14.3595L17.6975 13.5164Z" fill="#EDF0F4"/>
<path d="M18.4073 11.8369L17.6979 10.5471L17.5732 9.70308L18.3758 11.375L18.4235 11.8288C18.4194 11.8335 18.4135 11.8364 18.4073 11.8369Z" fill="#EDF0F4"/>
<path d="M17.9586 9.00612L17.9634 9.01042L17.9715 9.01998C17.9347 9.07012 17.9221 9.13399 17.9371 9.19433L17.7035 9.29703C17.6539 9.22607 17.5727 9.1838 17.4861 9.18382C17.462 9.18378 17.4379 9.18766 17.415 9.19529L16.3555 7.24729L17.7498 8.71712L17.9586 9.00612Z" fill="#EDF0F4"/>
<path d="M16.9492 7.7785L16.2398 7.03331L16.1108 6.79447L16.9492 7.7785Z" fill="#EDF0F4"/>
<path d="M15.9864 6.71851L16.0447 6.8298L15.9673 6.7486C15.9744 6.73907 15.9808 6.72901 15.9864 6.71851V6.71851Z" fill="#EDF0F4"/>
<path d="M16.1566 7.03714L17.3303 9.23448C17.3024 9.25459 17.2787 9.27989 17.2605 9.309L17.1244 9.26123L17.0288 9.22684L15.9302 6.79447L16.1566 7.03714Z" fill="#EDF0F4"/>
<path d="M15.8133 6.8298C15.8319 6.82942 15.8504 6.82637 15.8682 6.82072L16.9129 9.18717H16.9062L16.1343 8.91441L14.9568 8.14534C14.9854 8.08201 14.9721 8.0076 14.9233 7.95809L15.7354 6.81165C15.7598 6.82312 15.7863 6.82931 15.8133 6.8298Z" fill="#EDF0F4"/>
<path d="M15.6951 6.49544C15.6845 6.50372 15.6749 6.51317 15.6664 6.52362L15.5518 6.462L15.6951 6.49544Z" fill="#EDF0F4"/>
<path d="M15.5443 6.38605L15.3098 6.33112L14.77 6.04021L15.5443 6.38605Z" fill="#EDF0F4"/>
<path d="M13.5352 5.6356C13.604 5.64663 13.6736 5.62091 13.7186 5.56777L13.9575 5.67477L15.0719 6.27331L13.4712 5.89833L13.5352 5.6356Z" fill="#EDF0F4"/>
<path d="M13.3527 5.4789C13.3651 5.52283 13.391 5.56176 13.4267 5.5902L13.4401 5.60215H13.4439C13.4529 5.60771 13.4621 5.61281 13.4716 5.61743L13.4105 5.88302L12.4623 5.66234L12.2354 5.60215V5.59498L13.3527 5.4789Z" fill="#EDF0F4"/>
<path d="M12.7215 5.45791L12.2247 5.5009C12.22 5.48628 12.2137 5.47219 12.2061 5.45886L12.7215 5.45791Z" fill="#EDF0F4"/>
<path d="M12.2017 5.70343L13.1757 6.22888C13.1724 6.23784 13.17 6.24713 13.1686 6.25659H12.6641L12.1826 5.73114C12.1896 5.72314 12.1959 5.71468 12.2017 5.70582V5.70343Z" fill="#EDF0F4"/>
<path d="M11.8708 5.77892C11.9486 5.82961 12.049 5.82961 12.1268 5.77892L12.5601 6.2566H11.4375L11.8708 5.77892Z" fill="#EDF0F4"/>
<path d="M11.8144 5.73113L11.3329 6.25658H10.8275C10.8261 6.24696 10.8237 6.23751 10.8203 6.2284L11.7943 5.70295C11.8001 5.71154 11.8063 5.71983 11.8129 5.72779L11.8144 5.73113Z" fill="#EDF0F4"/>
<path d="M11.7913 5.46077C11.7836 5.4741 11.7774 5.48819 11.7727 5.50281L11.2759 5.45982L11.7913 5.46077Z" fill="#EDF0F4"/>
<path d="M10.5536 5.60408H10.5574L10.5708 5.59214C10.6065 5.56369 10.6324 5.52476 10.6448 5.48083L11.7611 5.59643V5.6036L11.5342 5.66379L10.586 5.884L10.5249 5.61841C10.5341 5.61394 10.543 5.609 10.5517 5.6036L10.5536 5.60408Z" fill="#EDF0F4"/>
<path d="M10.279 5.56873C10.3243 5.62151 10.3938 5.64686 10.4625 5.6356L10.5255 5.89833L8.9248 6.27235L10.0392 5.67477L10.279 5.56873Z" fill="#EDF0F4"/>
<path d="M9.22795 6.03829L8.68864 6.32872L8.4541 6.38366L9.22795 6.03829Z" fill="#EDF0F4"/>
<path d="M8.44555 6.45865L8.33091 6.52027C8.32245 6.50982 8.31283 6.50037 8.30225 6.49209L8.44555 6.45865Z" fill="#EDF0F4"/>
<path d="M8.18408 6.82982C8.2113 6.82949 8.23814 6.82347 8.2629 6.81215L9.07496 7.95859C9.02619 8.0081 9.0129 8.08251 9.04152 8.14584L7.86212 8.91348L7.09018 9.18624H7.0835L8.12867 6.82123C8.14645 6.82687 8.16495 6.82993 8.1836 6.8303L8.18408 6.82982Z" fill="#EDF0F4"/>
<path d="M8.01186 6.71803C8.01692 6.72884 8.02283 6.73922 8.02953 6.74908L7.95215 6.82981L8.01186 6.71803Z" fill="#EDF0F4"/>
<path d="M8.06806 6.79638L6.96939 9.22874L6.87385 9.26314L6.73771 9.31091C6.71949 9.2818 6.69581 9.25649 6.66797 9.23639L7.84164 7.03904L8.06806 6.79638Z" fill="#EDF0F4"/>
<path d="M7.88424 6.79638L7.75526 7.03522L7.0459 7.77993L7.88424 6.79638Z" fill="#EDF0F4"/>
<path d="M6.02138 9.00326L6.02616 8.99896L6.24446 8.7176L7.63881 7.24729L6.57979 9.19672C6.55684 9.18909 6.5328 9.18522 6.50862 9.18525C6.42152 9.18476 6.33974 9.22708 6.28984 9.29846L6.05099 9.18764C6.0547 9.17198 6.05678 9.15597 6.0572 9.13987C6.05721 9.09492 6.043 9.05111 6.0166 9.01472L6.02138 9.00326Z" fill="#EDF0F4"/>
<path d="M5.86 9.35294C5.92836 9.34752 5.99015 9.31016 6.02671 9.25214L6.26269 9.36536C6.22345 9.4729 6.25937 9.59345 6.35106 9.662L5.646 11.1371L5.86 9.35294Z" fill="#EDF0F4"/>
<path d="M5.70185 9.96342L5.55855 11.3239L5.3584 11.7437L5.70185 9.96342Z" fill="#EDF0F4"/>
<path d="M5.5316 11.5589L5.50438 11.8163C5.48439 11.8162 5.46452 11.8194 5.44562 11.8259C5.43627 11.8168 5.42621 11.8085 5.41553 11.8011L5.5316 11.5589Z" fill="#EDF0F4"/>
<path d="M5.44561 12.2305C5.46462 12.2365 5.48442 12.2398 5.50437 12.2401L5.53159 12.4975L5.41504 12.2563C5.42547 12.249 5.43552 12.2412 5.44513 12.2329L5.44561 12.2305Z" fill="#EDF0F4"/>
<path d="M5.35596 12.3131L5.55611 12.733L5.69941 14.0935L5.35596 12.3131Z" fill="#EDF0F4"/>
<path d="M5.8595 14.7016L5.64502 12.9232L6.34769 14.3973C6.256 14.4658 6.22009 14.5864 6.25932 14.6939L6.02573 14.8019C5.98934 14.7442 5.92754 14.7075 5.8595 14.703V14.7016Z" fill="#EDF0F4"/>
<path d="M6.03145 15.0565L6.02668 15.0522L6.01855 15.0426C6.04484 15.0062 6.05904 14.9624 6.05916 14.9175C6.0588 14.9014 6.05672 14.8854 6.05295 14.8697L6.29179 14.7636C6.34168 14.8343 6.42265 14.8765 6.50914 14.8769C6.53328 14.8764 6.55725 14.8726 6.58031 14.8654L7.63934 16.8148L6.24498 15.3464L6.03145 15.0565Z" fill="#EDF0F4"/>
<path d="M7.04785 16.2813L7.75721 17.0264L7.88619 17.2653L7.04785 16.2813Z" fill="#EDF0F4"/>
<path d="M8.00942 17.3436L7.94971 17.2314L8.02709 17.3126C8.02009 17.3219 8.01416 17.332 8.00942 17.3427V17.3436Z" fill="#EDF0F4"/>
<path d="M7.8392 17.025L6.66553 14.8277C6.69315 14.8073 6.71679 14.7821 6.73527 14.7531L6.87141 14.8009L6.96695 14.8353L8.06562 17.2677L7.8392 17.025Z" fill="#EDF0F4"/>
<path d="M8.18267 17.2318C8.16398 17.2318 8.1454 17.2348 8.12773 17.2409L7.08447 14.8745H7.09116L7.8631 15.1472L9.04059 15.9163C9.01196 15.9796 9.02525 16.0541 9.07403 16.1036L8.26196 17.25C8.23774 17.238 8.21115 17.2314 8.1841 17.2309L8.18267 17.2318Z" fill="#EDF0F4"/>
<path d="M8.30029 17.5691C8.31066 17.5606 8.32025 17.5511 8.32895 17.5409L8.4436 17.6025L8.30029 17.5691Z" fill="#EDF0F4"/>
<path d="M8.45166 17.6785L8.6862 17.7334L9.22599 18.0243L8.45166 17.6785Z" fill="#EDF0F4"/>
<path d="M10.4601 18.4265C10.3912 18.4151 10.3215 18.4409 10.2767 18.4944L10.0378 18.3874L8.9248 17.7888L10.5255 18.1638L10.4601 18.4265Z" fill="#EDF0F4"/>
<path d="M10.6429 18.5832C10.6307 18.5392 10.6047 18.5002 10.5688 18.4719L10.5555 18.46H10.5516C10.5429 18.454 10.5337 18.4488 10.5239 18.4447L10.5851 18.1791L11.5333 18.4012L11.7602 18.4614V18.4686L10.6429 18.5832Z" fill="#EDF0F4"/>
<path d="M11.2734 18.6042L11.7702 18.5612C11.775 18.5758 11.7813 18.5899 11.7889 18.6033L11.2734 18.6042Z" fill="#EDF0F4"/>
<path d="M11.7919 18.3573L10.8179 17.8318C10.8212 17.8227 10.8236 17.8133 10.825 17.8036H11.329L11.8129 18.3334C11.8058 18.3409 11.7992 18.3488 11.7933 18.3573H11.7919Z" fill="#EDF0F4"/>
<path d="M12.1234 18.2808C12.0457 18.2298 11.945 18.2298 11.8673 18.2808L11.4341 17.8032H12.5566L12.1234 18.2808Z" fill="#EDF0F4"/>
<path d="M12.1792 18.3315L12.6607 17.8027H13.1685C13.17 17.8123 13.1724 17.8217 13.1756 17.8309L12.2017 18.3563C12.1966 18.3483 12.191 18.3406 12.1849 18.3334L12.1792 18.3315Z" fill="#EDF0F4"/>
<path d="M12.2021 18.6019C12.2097 18.5885 12.216 18.5744 12.2208 18.5598L12.7176 18.6028L12.2021 18.6019Z" fill="#EDF0F4"/>
<path d="M13.4405 18.4585H13.4367L13.4233 18.4705C13.3874 18.4988 13.3614 18.5377 13.3493 18.5818L12.2329 18.4662V18.459L12.4598 18.3988L13.4075 18.1767L13.4687 18.4423C13.4596 18.4468 13.4508 18.4519 13.4424 18.4576L13.4405 18.4585Z" fill="#EDF0F4"/>
<path d="M13.7147 18.4939C13.6699 18.4404 13.6002 18.4146 13.5313 18.4261L13.4683 18.1633L15.069 17.7884L13.9565 18.3859L13.7147 18.4939Z" fill="#EDF0F4"/>
<path d="M14.7656 18.0243L15.3054 17.7334L15.5399 17.6785L14.7656 18.0243Z" fill="#EDF0F4"/>
<path d="M15.5483 17.6021L15.663 17.5404C15.6717 17.5507 15.6813 17.5601 15.6916 17.5686L15.5483 17.6021Z" fill="#EDF0F4"/>
<path d="M15.8093 17.2314C15.7821 17.2313 15.7551 17.2373 15.7305 17.2491L14.9185 16.1026C14.9672 16.0531 14.9805 15.9787 14.9519 15.9154L16.1299 15.1463L16.9037 14.875H16.9104L15.8671 17.24C15.8494 17.2341 15.8309 17.231 15.8122 17.2309L15.8093 17.2314Z" fill="#EDF0F4"/>
<path d="M15.982 17.3431C15.9772 17.3322 15.9713 17.3218 15.9644 17.3121L16.0417 17.2309L15.982 17.3431Z" fill="#EDF0F4"/>
<path d="M15.9229 17.2653L17.0215 14.8329L17.1171 14.7985L17.2532 14.7508C17.2717 14.7797 17.2953 14.8049 17.3229 14.8253L16.1493 17.0226L15.9229 17.2653Z" fill="#EDF0F4"/>
<path d="M16.1069 17.2653L16.2359 17.0264L16.9453 16.2813L16.1069 17.2653Z" fill="#EDF0F4"/>
<path d="M17.9591 15.0641L17.9543 15.0684L17.7446 15.344L16.3555 16.8134L17.4145 14.864C17.4376 14.8711 17.4615 14.875 17.4857 14.8754C17.5722 14.8751 17.6531 14.8329 17.703 14.7622L17.9371 14.8793C17.9222 14.9396 17.9348 15.0034 17.9715 15.0536L17.9591 15.0641Z" fill="#EDF0F4"/>
<path d="M18.127 14.7145C18.0585 14.7194 17.9965 14.7569 17.9603 14.8153L17.7329 14.6963C17.7721 14.5888 17.7362 14.4682 17.6445 14.3997L18.3472 12.9251L18.127 14.7145Z" fill="#EDF0F4"/>
<path d="M18.291 14.0978L18.4343 12.7373L18.6345 12.3174L18.291 14.0978Z" fill="#EDF0F4"/>
<path d="M18.4887 12.2434C18.5086 12.2431 18.5284 12.2399 18.5474 12.2339C18.557 12.2426 18.5671 12.2509 18.5775 12.2587L18.4614 12.5014L18.4887 12.2434Z" fill="#EDF0F4"/>
<path d="M18.4614 11.5617L18.5775 11.8044C18.5668 11.8119 18.5568 11.8202 18.5474 11.8292C18.5285 11.8227 18.5086 11.8195 18.4887 11.8197L18.4614 11.5617Z" fill="#EDF0F4"/>
<path d="M18.4363 11.3253L18.293 9.96484L18.6383 11.7452L18.4363 11.3253Z" fill="#EDF0F4"/>
</svg>
