<svg width="24" height="24" viewBox="0 0 24 24" fill="none" xmlns="http://www.w3.org/2000/svg">
<circle opacity="0.98" cx="12" cy="12" r="12" fill="#0A142E"/>
<path fill-rule="evenodd" clip-rule="evenodd" d="M16.7946 5.40004V5.4L16.7947 5.39999C16.9476 5.40001 17.0715 5.52316 17.0715 5.67508C17.0714 5.77334 17.0185 5.86409 16.9328 5.91314L16.933 5.91356L16.0008 6.42147L16.933 6.92939L16.9328 6.92981C17.0185 6.97886 17.0713 7.06961 17.0714 7.16787C17.0715 7.31978 16.9475 7.44294 16.7946 7.44296C16.746 7.44286 16.6983 7.43004 16.6563 7.40581L16.6561 7.40606C16.6561 7.40606 15.8995 6.97487 15.5783 6.79861C15.3151 6.65414 15.296 6.48026 15.2975 6.42152C15.296 6.36277 15.3151 6.18889 15.5783 6.04442C15.8995 5.86816 16.6561 5.43697 16.6561 5.43697L16.6563 5.43719C16.6983 5.41295 16.746 5.40014 16.7946 5.40004ZM9.78237 5.82424C9.96088 5.64688 10.203 5.54724 10.4554 5.54725C10.9811 5.54726 11.4072 5.97068 11.4072 6.493C11.4072 6.74384 11.307 6.9844 11.1285 7.16177C10.95 7.33914 10.7079 7.43879 10.4554 7.43879C10.203 7.4388 9.96087 7.33916 9.78236 7.16179C9.60385 6.98441 9.50357 6.74384 9.50358 6.493C9.50358 6.24217 9.60387 6.00161 9.78237 5.82424ZM20.2366 8.69997C19.9955 8.70032 19.7687 8.81392 19.625 9.00635L19.6236 9.00538L18.1117 11.1177L18.1145 11.1186C18.0174 11.2479 17.9643 11.4047 17.9631 11.5661C17.9644 11.7274 18.0174 11.8842 18.1145 12.0135L18.1117 12.0144L19.6236 14.1267L19.625 14.1258C19.7687 14.3182 19.9955 14.4318 20.2366 14.4321C20.439 14.4321 20.6331 14.3523 20.7763 14.2101C20.9194 14.0679 20.9998 13.875 20.9998 13.6739C20.9995 13.5176 20.9506 13.3653 20.8598 13.2377L20.8607 13.2371L19.6637 11.5661L20.8607 9.89508L20.8598 9.8944C20.9505 9.76683 20.9994 9.6145 20.9998 9.45826C20.9998 9.25715 20.9194 9.06427 20.7763 8.92207C20.6332 8.77986 20.439 8.69997 20.2366 8.69998V8.69997ZM9.0791 15.9808C9.07912 15.7602 9.25069 15.5814 9.46234 15.5814C9.54316 15.5816 9.62188 15.6083 9.68722 15.6579L9.72066 15.68C9.72066 15.68 11.3856 16.8432 13.4647 16.8076C15.5439 16.8432 17.2087 15.68 17.2087 15.68L17.2422 15.6579C17.3075 15.6083 17.3862 15.5816 17.4671 15.5814C17.6787 15.5814 17.8503 15.7602 17.8503 15.9808C17.8502 16.133 17.7671 16.272 17.6359 16.339C15.4159 17.7226 13.4647 17.597 13.4647 17.597C13.4647 17.597 11.5135 17.7226 9.29346 16.339C9.16234 16.272 9.07919 16.133 9.0791 15.9808Z" fill="white"/>
</svg>
