<svg width="24" height="24" viewBox="0 0 24 24" fill="none" xmlns="http://www.w3.org/2000/svg">
<path d="M12.1001 22.6C17.8991 22.6 22.6001 17.899 22.6001 12.1C22.6001 6.30098 17.8991 1.59998 12.1001 1.59998C6.3011 1.59998 1.6001 6.30098 1.6001 12.1C1.6001 17.899 6.3011 22.6 12.1001 22.6Z" fill="white"/>
<path fill-rule="evenodd" clip-rule="evenodd" d="M0 12C0 5.37225 5.37225 0 12 0C18.6278 0 24 5.37225 24 12C24 18.6278 18.6278 24 12 24C5.37225 24 0 18.6278 0 12Z" fill="#252C35"/>
<path fill-rule="evenodd" clip-rule="evenodd" d="M6.60545 13.5624C7.42925 13.5624 8.08845 12.9024 8.08845 12.0766C8.0901 11.8774 8.05186 11.6798 7.97606 11.4956C7.90027 11.3115 7.78841 11.1444 7.64707 11.0043C7.5058 10.8642 7.33789 10.7539 7.1533 10.6799C6.96879 10.6059 6.77126 10.5697 6.57252 10.5736C5.69933 10.5901 5.04089 11.2508 5.05735 12.0766C5.05735 12.9354 5.73226 13.5624 6.60619 13.5624H6.60545ZM12.0095 8.04753C12.4042 8.04281 12.7812 7.88245 13.0588 7.60112C13.3364 7.31979 13.4921 6.94021 13.4925 6.54451C13.4925 5.71949 12.7667 5.02498 11.9437 5.04148C11.0869 5.07448 10.4113 5.75174 10.4442 6.57751C10.4607 7.41977 11.1528 8.06403 12.0095 8.04753ZM15.9469 11.9108C15.9305 12.7696 16.5567 13.4296 17.4299 13.4461C17.6248 13.4556 17.8196 13.4263 18.0031 13.3599C18.1867 13.2936 18.3553 13.1915 18.4993 13.0595C18.6433 12.9276 18.7598 12.7683 18.8421 12.591C18.9244 12.4137 18.9708 12.2218 18.9788 12.0264C19.0109 11.1841 18.3525 10.4738 17.5287 10.4573C16.6555 10.4408 15.9634 11.0686 15.9469 11.9108ZM12.0915 18.9782C12.9153 18.9782 13.5745 18.3182 13.591 17.5082C13.6075 16.6997 12.9318 16.0059 12.1245 15.9894C11.2513 15.9729 10.5427 16.6494 10.5427 17.4925C10.5427 18.301 11.2513 18.9625 12.0915 18.9782ZM17.4955 14.4864C16.7704 14.4699 16.1442 14.2554 15.6174 13.7109C15.0076 13.0996 14.2668 13.0171 13.7229 13.4956C13.1467 13.9906 13.1131 14.7511 13.69 15.4441C14.3162 16.2039 14.7936 16.9967 14.5467 18.0369C14.3162 19.012 13.5418 19.7875 12.5863 19.9525C11.5313 20.1505 10.477 19.7215 9.93382 18.8297C9.35767 17.9049 9.38985 16.9637 9.96674 16.0389C10.049 15.9054 10.1501 15.7839 10.2503 15.6639C10.3109 15.5919 10.3723 15.5191 10.4277 15.4441C10.9552 14.7841 10.9387 14.0409 10.3453 13.5451C9.78567 13.0666 9.04342 13.1326 8.48374 13.7101C7.79237 14.4534 6.93489 14.7346 5.94722 14.5029C4.90942 14.2554 4.16794 13.4304 4.01979 12.3728C3.88735 11.3828 4.43132 10.3253 5.30448 9.8468C5.76375 9.59577 6.28796 9.48987 6.80829 9.54282C7.32868 9.59585 7.82095 9.80533 8.22036 10.1438C8.26974 10.1851 8.31912 10.2338 8.36851 10.2841C8.41789 10.3336 8.46727 10.3831 8.51666 10.4243C9.07709 10.9366 9.85151 10.9366 10.3618 10.4408C10.8556 9.9623 10.8893 9.21829 10.4277 8.64078L10.2945 8.48178C9.94354 8.06327 9.60609 7.66052 9.48862 7.08901C9.2417 5.91599 9.78567 4.74372 10.8564 4.24873C11.96 3.73647 13.2612 4.03347 13.9698 4.97472C14.3242 5.43035 14.5111 5.99444 14.4992 6.57202C14.4872 7.14961 14.2769 7.70537 13.904 8.14577C13.8381 8.22003 13.7723 8.29803 13.7064 8.37678C13.6406 8.45478 13.5747 8.53428 13.5089 8.60778C13.0637 9.20254 13.1131 9.9293 13.6241 10.4078C14.1509 10.8871 14.926 10.8871 15.4528 10.3253C16.0125 9.7478 16.6552 9.40055 17.479 9.40055C17.8117 9.39965 18.1411 9.4649 18.4484 9.59255C18.7557 9.7202 19.0347 9.9077 19.2691 10.1442C19.5036 10.3807 19.6889 10.6615 19.8143 10.9702C19.9397 11.279 20.0028 11.6097 19.9998 11.9431C20.0163 13.3471 18.879 14.4706 17.4955 14.4864ZM12.0914 18.4832C11.5482 18.4832 11.0372 17.9882 11.0372 17.4594C11.0372 16.9472 11.531 16.4679 12.075 16.4679C12.2098 16.4658 12.3436 16.4909 12.4686 16.5416C12.5934 16.5924 12.7069 16.6677 12.8022 16.7633C12.8974 16.8589 12.9726 16.9727 13.0231 17.0979C13.0736 17.2232 13.0986 17.3574 13.0963 17.4924C13.0963 18.07 12.6683 18.4825 12.0914 18.4825V18.4832ZM16.4412 11.9431C16.4412 12.5056 16.9021 12.9346 17.479 12.9511C17.609 12.9564 17.7389 12.9358 17.8608 12.8903C17.9829 12.8449 18.0947 12.7756 18.1897 12.6865C18.2847 12.5974 18.3611 12.4902 18.4144 12.3712C18.4678 12.2522 18.497 12.1238 18.5003 11.9933C18.5168 11.4316 18.0551 10.9358 17.4955 10.9358C16.935 10.9358 16.4405 11.4158 16.4405 11.9438L16.4412 11.9431ZM12.9979 6.56024C12.9979 7.122 12.5534 7.5675 12.0094 7.584C11.4819 7.6005 10.9387 7.08899 10.9387 6.56024C10.9387 6.01498 11.4161 5.55297 11.993 5.55297C12.5534 5.55297 12.9979 5.99848 12.9979 6.56024ZM7.59424 12.0923C7.60127 11.9566 7.58032 11.821 7.53273 11.6938C7.48515 11.5666 7.41197 11.4506 7.31769 11.3529C7.22341 11.2554 7.11006 11.1783 6.9848 11.1265C6.85947 11.0748 6.72486 11.0494 6.58936 11.052C6.02968 11.052 5.5351 11.5306 5.5351 12.0593C5.5351 12.5708 6.09552 13.0831 6.6552 13.0831C7.16625 13.0831 7.59424 12.6368 7.59424 12.0923Z" fill="white"/>
</svg>
