<svg width="24" height="24" viewBox="0 0 24 24" fill="none" xmlns="http://www.w3.org/2000/svg">
<path fill-rule="evenodd" clip-rule="evenodd" d="M12 24C5.4 24 0 18.6001 0 11.9402C0.06 5.34038 5.4 -0.0595036 12.06 0.000495204C18.66 0.060494 24 5.40038 24 12.1202C23.94 18.6601 18.6 24 12 24Z" fill="#EDF0F4"/>
<path fill-rule="evenodd" clip-rule="evenodd" d="M4.40001 6.82086C4.4043 6.83246 5.0783 9.04449 5.89779 11.7365C6.86537 14.9149 7.40578 16.665 7.43913 16.7279C7.54312 16.9242 7.79582 17.1116 8.01936 17.1582C8.07727 17.1702 8.39413 17.1767 8.92673 17.1767C9.82917 17.1767 9.84942 17.1748 10.0442 17.0713C10.1633 17.0079 10.3159 16.864 10.3775 16.7569C10.4014 16.7154 10.7703 15.8102 11.1973 14.7454C11.6243 13.6806 11.9792 12.8155 11.9859 12.8229C11.9926 12.8303 12.3475 13.6939 12.7744 14.742C13.2014 15.7902 13.5705 16.6856 13.5948 16.7318C13.6942 16.9207 13.9202 17.0928 14.1464 17.1517C14.2878 17.1886 15.8284 17.1886 15.9698 17.1517C16.2109 17.0889 16.4317 16.9142 16.5324 16.7066C16.5764 16.6159 17.9965 12.0067 17.9965 11.9546C17.9965 11.9434 17.5746 11.9392 16.7502 11.9421L15.504 11.9464L15.274 12.702L15.0441 13.4575L15.0156 13.3904C14.9999 13.3534 14.7006 12.6394 14.3505 11.8036C13.969 10.893 13.6827 10.2323 13.636 10.1549C13.4157 9.78926 13.0576 9.49131 12.659 9.342C11.784 9.01431 10.7922 9.37055 10.3218 10.1814C10.2878 10.24 9.95181 10.9992 9.57516 11.8686C9.19851 12.7379 8.88785 13.4467 8.88479 13.4437C8.88175 13.4406 8.43459 11.9464 7.89112 10.1233L6.90298 6.80836L5.64759 6.80407C4.64551 6.80062 4.3938 6.80401 4.40001 6.82086ZM16.4862 8.70996C16.1682 9.76041 15.9048 10.6294 15.9009 10.641C15.8952 10.6578 16.1476 10.6612 17.1506 10.6578L18.4074 10.6535L19.0076 8.73092C19.3378 7.67351 19.608 6.80647 19.6081 6.80417C19.6082 6.80187 19.0359 6.79999 18.3363 6.8L17.0644 6.80002L16.4862 8.70996Z" fill="black"/>
</svg>
