<svg width="24" height="24" viewBox="0 0 24 24" fill="none" xmlns="http://www.w3.org/2000/svg">
<circle cx="12" cy="12" r="12" fill="#EDF0F4"/>
<path d="M8.31737 13.8469L4.50784 14.9897L4.38086 7.75162L8.19038 6.86273L8.31737 13.8469Z" fill="#8400FD"/>
<path fill-rule="evenodd" clip-rule="evenodd" d="M4.30476 15.1041C4.44444 15.1929 4.59683 15.2437 4.7619 15.2437C4.82842 15.2437 4.88525 15.2341 4.94931 15.2232C4.95863 15.2216 4.9681 15.22 4.97778 15.2183L8.11429 14.4183C8.45714 14.3295 8.69841 14.0374 8.69841 13.7199V7.33263C8.69841 7.10406 8.58413 6.88818 8.38095 6.7485C8.17778 6.60882 7.92381 6.57072 7.68254 6.62152L4.57143 7.31993C4.24127 7.39612 4 7.66279 4 7.98025V14.558C4 14.7739 4.11429 14.9771 4.30476 15.1041ZM7.41572 7.40888C7.45381 7.39618 7.50461 7.39618 7.5427 7.39618C7.65699 7.39618 7.77127 7.43428 7.88556 7.51047C8.01254 7.61206 8.08873 7.76444 8.08873 7.92952V13.466C8.08873 13.7073 7.92365 13.9232 7.69508 13.9867L5.25699 14.6851C5.10461 14.7359 4.95223 14.6978 4.82524 14.6089C4.69826 14.52 4.62207 14.3676 4.62207 14.2152V8.50095C4.62207 8.27237 4.78715 8.0692 5.00302 8.01841L7.41572 7.40888Z" fill="white"/>
<path d="M10.9839 16.2596L7.17435 17.4024L7.04736 10.1643L10.8569 9.27545L10.9839 16.2596Z" fill="#02FFDB"/>
<path fill-rule="evenodd" clip-rule="evenodd" d="M7.08552 17.3771C7.2125 17.466 7.36489 17.5168 7.51727 17.5168C7.58076 17.5168 7.64425 17.5041 7.70774 17.4914L10.6792 16.7168C11.0093 16.6406 11.2379 16.3612 11.2379 16.0438V9.85966C11.2379 9.64379 11.1363 9.44061 10.9458 9.30093C10.7554 9.17394 10.5141 9.12315 10.2855 9.17394L7.33949 9.84696C7.02203 9.91045 6.79346 10.1771 6.79346 10.4819V16.8438C6.79346 17.0597 6.90774 17.2501 7.08552 17.3771ZM10.0824 9.69455C10.1205 9.68186 10.1713 9.68186 10.2094 9.68186C10.3237 9.68186 10.438 9.71995 10.5523 9.79614C10.6793 9.89773 10.7555 10.0501 10.7555 10.2152V15.7517C10.7555 15.993 10.5904 16.2088 10.3618 16.2723L7.92372 16.9707C7.77134 17.0215 7.61896 16.9834 7.49197 16.8946C7.36499 16.8057 7.2888 16.6533 7.2888 16.5009V10.7866C7.2888 10.558 7.45388 10.3549 7.66975 10.3041L10.0824 9.69455Z" fill="white"/>
<path d="M13.9048 13.9739L10.0952 15.1168L9.96826 7.8787L13.7778 6.98981L13.9048 13.9739Z" fill="#8400FD"/>
<path fill-rule="evenodd" clip-rule="evenodd" d="M10.0064 15.104C10.1334 15.1929 10.2858 15.2437 10.4382 15.2437C10.5017 15.2437 10.5651 15.231 10.6286 15.2056L13.5874 14.431C13.9175 14.3548 14.1461 14.0754 14.1461 13.758V7.56114C14.1461 7.34526 14.0445 7.14209 13.854 7.00241C13.6636 6.87542 13.4223 6.82463 13.1937 6.87542L10.2604 7.54844C9.94293 7.61193 9.71436 7.8786 9.71436 8.18336V14.5707C9.71436 14.7865 9.82864 14.977 10.0064 15.104ZM13.0032 7.40874C13.0413 7.39604 13.0921 7.39604 13.1301 7.39604C13.2444 7.39604 13.3587 7.43413 13.4603 7.51033C13.5873 7.61191 13.6635 7.76429 13.6635 7.92937V13.4659C13.6635 13.7072 13.4984 13.923 13.2698 13.9865L10.8444 14.6849C10.6921 14.7357 10.527 14.6976 10.4 14.6087C10.273 14.5199 10.1968 14.3675 10.1968 14.2151V8.5008C10.1968 8.27223 10.3619 8.06906 10.5778 8.01826L13.0032 7.40874Z" fill="white"/>
<path d="M16.8257 16.2596L13.0161 17.4024L12.8892 10.1643L16.6987 9.27545L16.8257 16.2596Z" fill="#02FFDB"/>
<path fill-rule="evenodd" clip-rule="evenodd" d="M12.8126 17.3898C12.9523 17.4787 13.1046 17.5295 13.2697 17.5295C13.3459 17.5295 13.4094 17.5168 13.4856 17.4914L16.6221 16.6914C16.965 16.6025 17.2062 16.3105 17.2062 15.993V9.6057C17.2062 9.38982 17.0919 9.17395 16.8888 9.03427C16.6856 8.89459 16.4316 8.85649 16.1904 8.90728L13.0792 9.6057C12.7491 9.68189 12.5078 9.94855 12.5078 10.266V16.8438C12.5078 17.0597 12.6221 17.2628 12.8126 17.3898ZM15.9235 9.69465C15.9616 9.68195 16.0124 9.68195 16.0505 9.68195C16.1648 9.68195 16.2791 9.72005 16.3934 9.79624C16.5204 9.89782 16.5965 10.0502 16.5965 10.2153V15.7518C16.5965 15.9931 16.4315 16.2089 16.2029 16.2724L13.7648 16.9708C13.6124 17.0216 13.46 16.9835 13.3331 16.8946C13.2061 16.8058 13.1299 16.6534 13.1299 16.501V10.7867C13.1299 10.5581 13.295 10.355 13.5108 10.3042L15.9235 9.69465Z" fill="white"/>
<path d="M19.7461 13.8469L15.9366 14.9897L15.8096 7.75162L19.6191 6.86273L19.7461 13.8469Z" fill="#8400FD"/>
<path fill-rule="evenodd" clip-rule="evenodd" d="M15.6065 15.1041C15.7462 15.1929 15.8986 15.2437 16.0637 15.2437C16.1399 15.2437 16.2033 15.231 16.2795 15.2056L19.416 14.4056C19.7589 14.3168 20.0002 14.0247 20.0002 13.7072V7.31993C20.0002 7.10406 19.8859 6.88818 19.6827 6.7485C19.4795 6.60882 19.2256 6.57072 18.9843 6.62152L15.8732 7.31993C15.543 7.39612 15.3018 7.66279 15.3018 7.98025V14.558C15.3018 14.7739 15.416 14.9771 15.6065 15.1041ZM18.7175 7.40888C18.7556 7.39618 18.8064 7.39618 18.8445 7.39618C18.9587 7.39618 19.073 7.43428 19.1873 7.51047C19.3143 7.61206 19.3905 7.76444 19.3905 7.92952V13.466C19.3905 13.7073 19.2254 13.9232 18.9968 13.9867L16.5587 14.6851C16.4064 14.7359 16.254 14.6978 16.127 14.6089C16 14.52 15.9238 14.3676 15.9238 14.2152V8.50095C15.9238 8.27237 16.0889 8.0692 16.3048 8.01841L18.7175 7.40888Z" fill="white"/>
</svg>
