<svg width="24" height="24" viewBox="0 0 24 24" fill="none" xmlns="http://www.w3.org/2000/svg">
<circle cx="12" cy="12" r="12" fill="#FAA00D"/>
<path fill-rule="evenodd" clip-rule="evenodd" d="M19.5941 10.8892L12.4923 19.2079L12.1736 19.6L4.60535 10.9731L4.62935 10.9632L4.6001 10.9587L7.5416 6.00453L7.5431 6.00604L7.5416 6H16.7321L16.7306 6.00529L19.6001 10.8884L19.5941 10.8892ZM9.74235 11.236L8.11485 14.0119L12.1289 18.6299L16.1511 13.9741L14.5596 11.2277L9.74235 11.236ZM8.97861 11.2367L7.65861 13.4875L5.70711 11.242L8.97861 11.2367ZM14.9511 10.5817L18.6666 10.5756L16.3341 6.64072L12.6726 6.64827L14.9511 10.5817ZM15.3246 11.2262L18.5294 11.2209L16.6094 13.4437L15.3246 11.2262ZM14.1855 10.5832L12.1673 7.09857L10.1198 10.5892L14.1855 10.5832ZM5.56147 10.5976L7.88647 6.65885L11.6665 6.65129L9.35647 10.5908L5.56147 10.5976Z" fill="white"/>
</svg>
