<svg width="24" height="24" viewBox="0 0 24 24" fill="none" xmlns="http://www.w3.org/2000/svg">
<circle cx="12" cy="12" r="12" fill="#F7931A"/>
<path fill-rule="evenodd" clip-rule="evenodd" d="M14.0632 11.9667C14.7897 11.7905 15.3393 11.2966 15.4909 10.2802C15.7 8.89179 14.6777 8.15168 13.2768 7.66229L13.7421 5.78077L12.6317 5.50219L12.1784 7.33402C11.8872 7.26023 11.5877 7.19097 11.2898 7.1232L11.746 5.27858L10.6364 5L10.1712 6.88077C9.92924 6.8258 9.69178 6.77084 9.46178 6.71287L9.46328 6.7076L7.93247 6.32211L7.63005 7.54483C7.63005 7.54483 8.45369 7.73532 8.43577 7.74661C8.88605 7.8603 8.96595 8.16598 8.95102 8.40917L8.42084 10.5527C8.46022 10.5626 8.49889 10.5752 8.53658 10.5903L8.4186 10.561L7.67634 13.5636C7.62034 13.7044 7.47995 13.9159 7.16483 13.8384C7.17603 13.8542 6.35836 13.6351 6.35836 13.6351L5.7998 14.9467L7.24473 15.3103C7.40756 15.3514 7.56819 15.3935 7.7273 15.4353L7.7274 15.4353C7.83094 15.4625 7.93384 15.4895 8.03627 15.5159L7.56583 17.4192L8.67398 17.6978L9.13994 15.8155C9.4338 15.8959 9.72853 15.9729 10.0241 16.0467L9.56035 17.9214L10.67 18.2L11.1404 16.3012C13.0342 16.6588 14.4604 16.5022 15.0697 14.7351C15.5604 13.3121 15.0571 12.496 14.0632 11.9667ZM19.0915 16.4367L19.4985 14.7931L21.1286 15.2034L21.3997 14.1072L19.7695 13.6976L20.1758 12.054L19.0893 11.7807L18.6823 13.4243L17.0522 13.0147L16.7811 14.1102L18.4112 14.5198L18.005 16.1642L19.0915 16.4367ZM12.9319 13.9582C13.2615 12.6249 11.3441 12.192 10.4063 11.9803L10.4062 11.9802C10.3008 11.9564 10.2078 11.9354 10.1317 11.9163L9.50966 14.4362C9.572 14.4518 9.64508 14.4713 9.72691 14.4931L9.72694 14.4931C10.6332 14.7346 12.6115 15.2618 12.9334 13.9574L12.9319 13.9582ZM11.2116 8.5281C11.9934 8.70202 13.5949 9.05828 13.2955 10.2718C13.0015 11.4589 11.351 11.0132 10.5971 10.8096C10.5295 10.7913 10.4692 10.775 10.4176 10.762L10.9829 8.47541C11.0462 8.49131 11.1237 8.50855 11.2116 8.5281Z" fill="white"/>
</svg>
