<svg width="24" height="24" viewBox="0 0 24 24" fill="none" xmlns="http://www.w3.org/2000/svg">
<circle cx="12" cy="12" r="12" fill="#56F4F1"/>
<path fill-rule="evenodd" clip-rule="evenodd" d="M6.7886 6.80149C4.7576 6.79999 4.6001 6.80074 4.6001 6.81203C4.6001 6.81956 5.70035 8.70192 7.0451 10.9961C8.7791 13.9544 9.49385 15.1667 9.5021 15.1652C9.51335 15.1629 14.3996 6.82258 14.3996 6.80752C14.3996 6.803 13.3751 6.79999 12.0956 6.79999C10.1201 6.79999 9.79085 6.80149 9.79085 6.81128C9.79085 6.81655 10.2656 7.62295 10.8453 8.60328C11.4251 9.58361 11.9013 10.3908 11.9028 10.3953C11.9043 10.3998 11.8158 10.5557 11.7078 10.7424L11.5098 11.0812L11.4888 11.0458L10.2228 8.90672L8.97785 6.80375L6.7886 6.80149ZM17.4035 6.79999C16.1952 6.79999 15.2052 6.80225 15.2052 6.80526H15.2045C15.1242 6.93928 9.91245 15.8534 9.9087 15.8616C9.9042 15.8805 12.0867 19.603 12.101 19.6C12.11 19.5977 14.3052 15.8631 14.312 15.8368C13.9853 15.2649 13.6528 14.6964 13.3145 14.1314L13.1522 13.8571C12.6778 13.0552 12.3116 12.4361 12.311 12.4327C12.308 12.4237 12.7017 11.7528 12.7077 11.7566C12.7106 11.7581 13.1395 12.4815 13.67 13.3765L13.7105 13.4447C14.48 14.745 14.7095 15.1283 14.7192 15.1268C14.7297 15.1253 15.545 13.7406 17.1642 10.9796C18.5 8.69966 19.595 6.82634 19.5972 6.81655L19.6002 6.79999H17.4035Z" fill="white"/>
</svg>
