<svg width="24" height="24" viewBox="0 0 24 24" fill="none" xmlns="http://www.w3.org/2000/svg">
<path d="M12 24C18.6276 24 24 18.6276 24 12C24 5.3724 18.6276 0 12 0C5.3724 0 0 5.3724 0 12C0 18.6276 5.3724 24 12 24Z" fill="#EDF0F4"/>
<path d="M12.1 3C17.1092 3 21.2 7.05421 21.2 12.0248C21.2 16.9954 17.1092 21.0496 12.1 21.0496C7.063 21.0496 3 17.0231 3 12.0248C3 7.02645 7.063 3 12.1 3Z" fill="#32407B"/>
<path d="M12.1003 4.35376C16.3789 4.35376 19.8466 7.7786 19.8466 12.0109C19.8466 16.2432 16.3509 19.6959 12.1003 19.6959C7.82165 19.6959 4.354 16.2432 4.354 12.0109C4.354 7.7786 7.82165 4.35376 12.1003 4.35376Z" fill="#32407B"/>
<path fill-rule="evenodd" clip-rule="evenodd" d="M4.20312 12.0248C4.20312 16.3391 7.74687 19.8463 12.0998 19.8463C16.4249 19.8463 19.9965 16.3391 19.9965 12.0248C19.9965 7.71045 16.4528 4.20331 12.0998 4.20331C7.74687 4.20331 4.20312 7.71045 4.20312 12.0248ZM4.56594 12.0248C4.56594 7.90527 7.94226 4.5373 12.0999 4.5373C16.2575 4.5373 19.6338 7.90527 19.6338 12.0248C19.6338 16.1443 16.2575 19.5122 12.0999 19.5122C7.94226 19.5122 4.56594 16.1443 4.56594 12.0248Z" fill="white"/>
<path fill-rule="evenodd" clip-rule="evenodd" d="M8.73308 15.0331H15.4393C15.551 15.0331 15.6069 14.9506 15.6349 14.8681V9.09418C15.6349 8.13186 14.8245 7.362 13.8465 7.362H10.3537C9.34782 7.362 8.56543 8.13186 8.56543 9.09418V14.8681C8.56543 14.9506 8.64926 15.0331 8.73308 15.0331ZM15.2715 14.7032H8.92856V9.1217C8.92856 8.35184 9.57123 7.71946 10.3536 7.71946H13.8464C14.6288 7.71946 15.2715 8.35184 15.2715 9.1217V14.7032Z" fill="white"/>
<path fill-rule="evenodd" clip-rule="evenodd" d="M11.1016 8.74141H13.1131C13.2234 8.74141 13.2785 8.65977 13.2785 8.57813C13.2785 8.4965 13.1958 8.41486 13.1131 8.41486H11.1016C11.0189 8.41486 10.9363 8.4965 10.9363 8.57813C10.9363 8.65977 11.0189 8.74141 11.1016 8.74141ZM10.3575 14.1024C9.97169 14.1024 9.66858 13.803 9.66858 13.422C9.66858 13.0411 9.97169 12.7417 10.3575 12.7417C10.7432 12.7417 11.0463 13.0411 11.0463 13.422C11.0463 13.803 10.7157 14.1024 10.3575 14.1024ZM10.3578 13.0683C10.1649 13.0683 9.99954 13.2316 9.99954 13.4221C9.99954 13.6125 10.1649 13.7758 10.3578 13.7758C10.5506 13.7758 10.716 13.6125 10.716 13.4221C10.6884 13.2044 10.5506 13.0683 10.3578 13.0683ZM13.1957 13.422C13.1957 13.803 13.4988 14.1024 13.8845 14.1024C14.2703 14.1024 14.5734 13.803 14.5734 13.422C14.5734 13.0411 14.2703 12.7417 13.8845 12.7417C13.4988 12.7417 13.1957 13.0411 13.1957 13.422ZM13.8848 13.0683C13.6919 13.0683 13.5266 13.2316 13.5266 13.4221C13.5266 13.6125 13.6919 13.7758 13.8848 13.7758C14.0777 13.7758 14.243 13.6125 14.243 13.4221C14.243 13.2044 14.0777 13.0683 13.8848 13.0683ZM15.3172 16.6876C15.2621 16.6876 15.207 16.6603 15.1795 16.6331L14.1048 15.1364C14.0497 15.0548 14.0773 14.9731 14.1599 14.9187C14.2426 14.8643 14.3252 14.8915 14.3804 14.9731L15.455 16.4698C15.5101 16.5515 15.4826 16.6331 15.3999 16.6876H15.3172ZM8.78692 16.6604C8.84203 16.6876 8.86959 16.6876 8.89714 16.6876C8.95225 16.6876 9.00736 16.6604 9.00736 16.606L10.082 15.1092C10.1371 15.0548 10.082 14.946 10.0269 14.8915C9.97179 14.8371 9.86157 14.8643 9.80646 14.946L8.73181 16.4427C8.70426 16.4971 8.70426 16.606 8.78692 16.6604Z" fill="white"/>
<path fill-rule="evenodd" clip-rule="evenodd" d="M15.4696 10.1001H8.88007C8.7977 10.1001 8.71533 10.0173 8.71533 9.93438C8.71533 9.8515 8.7977 9.76862 8.88007 9.76862H15.4696C15.552 9.76862 15.6343 9.8515 15.6343 9.93438C15.6343 10.0173 15.5794 10.1001 15.4696 10.1001ZM9.26419 16.5372C9.23673 16.5372 9.20928 16.5372 9.15436 16.5096C9.072 16.4543 9.072 16.3438 9.09945 16.2885L9.89568 15.1558C9.9506 15.073 10.0604 15.0453 10.1153 15.1006C10.1702 15.1558 10.2252 15.2663 10.1702 15.3216L9.37401 16.4543C9.37401 16.5096 9.3191 16.5372 9.26419 16.5372ZM8.88007 12.2274H15.4696C15.5794 12.2274 15.6343 12.1445 15.6343 12.0616C15.6343 11.9787 15.552 11.8959 15.4696 11.8959H8.88007C8.7977 11.8959 8.71533 11.9787 8.71533 12.0616C8.71533 12.1445 8.7977 12.2274 8.88007 12.2274Z" fill="white"/>
<path fill-rule="evenodd" clip-rule="evenodd" d="M11.2345 12.0639C11.2619 12.1186 11.2893 12.1186 11.3441 12.1186C11.3989 12.1186 11.4262 12.0912 11.4536 12.0639L12.9872 10.3401C13.0693 10.2854 13.042 10.176 12.9872 10.1213C12.9324 10.0392 12.8229 10.0665 12.7681 10.1213L11.2345 11.845C11.1524 11.8997 11.1798 12.0091 11.2345 12.0639ZM10.2489 12.0639C10.2763 12.1186 10.3037 12.1186 10.3584 12.1186C10.3858 12.1186 10.4406 12.0912 10.4406 12.0639L11.2074 11.2157C11.2895 11.161 11.2621 11.0515 11.2074 10.9968C11.1526 10.9147 11.0431 10.9421 10.9883 10.9968L10.2215 11.845C10.1667 11.8997 10.1667 12.0092 10.2489 12.0639ZM14.4934 15.6755H9.70097C9.61882 15.6755 9.53666 15.5934 9.53666 15.5113C9.53666 15.4292 9.61882 15.3471 9.70097 15.3471H14.4934C14.5755 15.3471 14.6577 15.4292 14.6577 15.5113C14.6577 15.5934 14.6029 15.6755 14.4934 15.6755ZM9.18091 16.3868H15.0139C15.1235 16.3868 15.2056 16.3047 15.1782 16.2226C15.1782 16.1406 15.0961 16.0585 15.0139 16.0585H9.18091C9.09876 16.0585 9.0166 16.1406 9.0166 16.2226C9.0166 16.3047 9.09876 16.3868 9.18091 16.3868Z" fill="white"/>
<path fill-rule="evenodd" clip-rule="evenodd" d="M5.25586 12.0248C5.25586 15.7697 8.29482 18.7934 12.0521 18.7934C15.7817 18.7934 18.7931 15.7697 18.7931 12.0248C18.7931 8.2799 15.7541 5.25623 12.0245 5.25623C8.29482 5.25623 5.25586 8.30764 5.25586 12.0248ZM5.61512 12.0248C5.61512 8.47405 8.48832 5.58908 12.0522 5.58908C15.5884 5.58908 18.4893 8.47405 18.4893 12.0248C18.4893 15.5755 15.5884 18.4605 12.0522 18.4605C8.51595 18.4605 5.61512 15.5755 5.61512 12.0248Z" fill="white"/>
</svg>
