<svg width="24" height="24" viewBox="0 0 24 24" fill="none" xmlns="http://www.w3.org/2000/svg">
<circle cx="12" cy="12" r="12" fill="#EDF0F4"/>
<path d="M20 12.5466L17.6713 14.8768H15.4587C15.2087 14.8773 15.0061 15.0799 15.0056 15.3299V16.6579C15.0031 16.8035 14.8843 16.9201 14.7387 16.92H13.0494C12.9786 16.92 12.9107 16.8919 12.8607 16.8419C12.8106 16.7918 12.7825 16.7239 12.7826 16.6531V13.427L14.1654 12.0442C14.2702 11.9456 14.4342 11.9478 14.5363 12.049L15.1467 12.6594H16.7467L17.7787 11.6282V10.2744L16.7214 9.21248H15.299L9.64432 14.8671H6.3488L4 12.52V9.3528L6.35128 7.0016H9.56528L10.9586 8.39488C11.0578 8.49831 11.0578 8.66153 10.9586 8.76496L9.77416 9.94544C9.67969 10.0544 9.51484 10.0663 9.40568 9.97208C9.3992 9.9664 9.3928 9.96 9.38632 9.95432L8.64776 9.21832H7.26888L6.21664 10.2704V11.604L7.2656 12.6546H8.72592L14.3815 7H17.64L20 9.36V12.5466Z" fill="#EC1550"/>
</svg>
