<svg width="24" height="24" viewBox="0 0 24 24" fill="none" xmlns="http://www.w3.org/2000/svg">
<path fill-rule="evenodd" clip-rule="evenodd" d="M0 12C0 5.37261 5.37265 0 12.0001 0C18.6275 0 24 5.37261 24 12C24 18.6273 18.6275 24 12.0001 24C5.37265 24 0 18.6273 0 12Z" fill="#278DC1"/>
<path fill-rule="evenodd" clip-rule="evenodd" d="M8.56134 11.0626C7.76777 11.0626 7.12461 10.4194 7.12461 9.62581C7.12461 8.83231 7.76777 8.1891 8.56134 8.1891C9.3548 8.1891 9.99803 8.83231 9.99803 9.62581C9.99803 10.4194 9.3548 11.0626 8.56134 11.0626ZM11.1596 5.65194H10.0008V7.46273C9.58871 7.1879 9.09381 7.02746 8.56129 7.02746C7.12624 7.02746 5.96289 8.19082 5.96289 9.62581C5.96289 11.0609 7.12624 12.2241 8.56129 12.2241C9.99628 12.2241 11.1596 11.0609 11.1596 9.62581C11.1596 9.61816 11.1591 9.61051 11.1591 9.60292H11.1596V5.65194Z" fill="#FFFFFE"/>
<path fill-rule="evenodd" clip-rule="evenodd" d="M15.4388 12.9374C16.2323 12.9374 16.8755 13.5806 16.8755 14.3742C16.8755 15.1676 16.2323 15.8108 15.4388 15.8108C14.6453 15.8108 14.002 15.1676 14.002 14.3742C14.002 13.5806 14.6453 12.9374 15.4388 12.9374ZM12.8403 18.348H13.9993V16.5372C14.4114 16.8121 14.9062 16.9725 15.4388 16.9725C16.8737 16.9725 18.0371 15.8091 18.0371 14.3742C18.0371 12.9391 16.8737 11.7758 15.4388 11.7758C14.0037 11.7758 12.8403 12.9391 12.8403 14.3742C12.8403 14.3818 12.8409 14.3894 12.841 14.3971H12.8403V18.348Z" fill="#FFFFFE"/>
<path fill-rule="evenodd" clip-rule="evenodd" d="M14.0916 7.50129C14.885 7.50129 15.5284 8.14455 15.5284 8.93804C15.5284 9.73148 14.885 10.3748 14.0916 10.3748C13.2981 10.3748 12.6549 9.73148 12.6549 8.93804C12.6549 8.14455 13.2981 7.50129 14.0916 7.50129ZM14.1145 6.33969V6.34028C14.1069 6.34018 14.0993 6.33969 14.0915 6.33969C12.6566 6.33969 11.4932 7.50306 11.4932 8.93805C11.4932 10.3731 12.6566 11.5365 14.0915 11.5365C15.5266 11.5365 16.69 10.3731 16.69 8.93805C16.69 8.40554 16.5295 7.91063 16.2547 7.49857H18.0655V6.33969H14.1145Z" fill="#FFFFFE"/>
<path fill-rule="evenodd" clip-rule="evenodd" d="M9.90856 16.4987C9.11504 16.4987 8.47188 15.8554 8.47188 15.0619C8.47188 14.2685 9.11504 13.6252 9.90856 13.6252C10.702 13.6252 11.3453 14.2685 11.3453 15.0619C11.3453 15.8554 10.702 16.4987 9.90856 16.4987ZM9.88555 17.6604V17.6597C9.89325 17.6598 9.90089 17.6604 9.90854 17.6604C11.3436 17.6604 12.5068 16.497 12.5068 15.0619C12.5068 13.627 11.3436 12.4636 9.90854 12.4636C8.47355 12.4636 7.3102 13.627 7.3102 15.0619C7.3102 15.5944 7.47065 16.0893 7.74546 16.5014H5.93457V17.6604H9.88555Z" fill="#FFFFFE"/>
</svg>
