<svg width="24" height="24" viewBox="0 0 24 24" fill="none" xmlns="http://www.w3.org/2000/svg">
<circle cx="12" cy="12" r="12" fill="#EDF0F4"/>
<path fill-rule="evenodd" clip-rule="evenodd" d="M3.00657 11.1406C3.28583 1.47672 18.9319 -0.842053 21 11.1406C19.9435 11.6712 19.4863 11.889 19.4863 11.889C19.4863 11.889 20.0193 12.2054 20.997 12.8047C20.1795 22.8596 4.80311 24.5656 3 12.8182C3.9982 12.1805 4.47681 11.894 4.47681 11.894C4.47681 11.894 3.90969 11.6092 3.00657 11.1406ZM11.834 12.8015L13.3016 15.3245L14.5594 15.2986L12.5939 11.6429L14.376 8.605L13.3015 8.57931L11.9386 10.7676L10.5759 8.47624L9.42285 8.57931L11.3359 11.6687L9.21328 15.2473L10.3401 15.3245L11.834 12.8015Z" fill="#B7B5B1"/>
<path fill-rule="evenodd" clip-rule="evenodd" d="M3.75605 10.6804C4.63409 2.93215 17.4529 0.058594 20.25 10.6804C19.9101 10.86 18.028 11.912 18.028 11.912C18.028 11.912 18.8513 12.4219 20.2472 13.2968C19.4892 21.5582 5.65812 23.5207 3.75 13.3092C5.25089 12.3559 5.93832 11.9165 5.93832 11.9165C5.93832 11.9165 5.53472 11.6812 3.75605 10.6804ZM11.8343 12.8136L13.2982 15.33L14.5528 15.3042L12.5923 11.6581L14.3699 8.62828L13.2982 8.60265L11.9388 10.7851L10.5795 8.49983L9.42948 8.60265L11.3375 11.6838L9.22031 15.2529L10.3443 15.33L11.8343 12.8136Z" fill="#244B81"/>
</svg>
