<svg width="24" height="24" viewBox="0 0 24 24" fill="none" xmlns="http://www.w3.org/2000/svg">
<circle cx="12" cy="12" r="12" fill="#4F7AA2"/>
<path fill-rule="evenodd" clip-rule="evenodd" d="M3.7998 9H5.22439V10.5H3.7998V9ZM10.0693 9H12.1352C13.1327 9 14.9142 9.60225 14.9142 12C14.9142 14.3978 13.1335 15 12.1352 15H10.07L10.0693 9ZM11.2086 13.7849H12.0643C12.7765 13.7849 13.6314 13.3514 13.6314 11.9999C13.6314 10.6484 12.7765 10.2149 12.0643 10.2149H11.2094L11.2086 13.7849ZM16.1261 9H15.699L15.6975 15H16.1254V9.846L19.972 15H20.3999V9H19.9728V14.2695L16.1261 9ZM7.36141 9H5.93759V10.5H7.36141V9ZM8.07425 9H9.49958V10.5H8.07425V9ZM9.49958 11.25H8.07425V12.75H9.49958V11.25ZM8.07425 13.5H9.49958V15H8.07425V13.5ZM7.36141 11.25H5.93759V12.75H7.36141V11.25Z" fill="white"/>
</svg>
