<svg width="24" height="24" viewBox="0 0 24 24" fill="none" xmlns="http://www.w3.org/2000/svg">
<circle cx="12" cy="12" r="12" fill="#EDF0F4"/>
<path d="M12.02 20.9996L11.9282 20.9537C8.34709 18.8576 5.63831 15.3998 4.53645 11.2684C4.36075 10.6185 4.23033 9.95292 4.13855 9.27968C4.0543 8.60441 4.0083 7.92492 4.00076 7.24446C4.00076 7.12967 3.98545 7.14498 4.09262 7.09144C5.92939 6.04561 7.95552 5.37484 10.0535 5.11802C10.833 5.02623 11.6179 4.9879 12.4026 5.00332C12.8464 5.01133 13.2826 5.04155 13.7187 5.08748C15.9151 5.32465 17.976 5.98256 19.9015 7.06122C19.9321 7.07653 19.955 7.09184 19.9857 7.10715C20.0163 7.12246 20.0316 7.14538 20.0316 7.18362V7.29841C20.0236 7.69623 20.0087 8.08636 19.978 8.48419C19.9321 9.04905 19.8555 9.61099 19.7485 10.1675C19.5189 11.3686 19.1593 12.5238 18.6619 13.633C17.8738 15.4002 16.7974 16.9735 15.4328 18.3531C14.4554 19.3473 13.3518 20.2089 12.1501 20.9158C12.1042 20.9465 12.0659 20.9694 12.02 21V20.9996Z" fill="black"/>
<path d="M4.73523 7.63492C5.70721 7.0715 6.74225 6.62471 7.81892 6.30382C9.28806 5.86776 10.7802 5.66119 12.3107 5.69181C13.0223 5.70712 14.2083 5.82183 14.4073 5.89838C14.4153 5.91369 14.3993 5.9213 14.3844 5.9213C14.3155 5.95192 14.2389 5.97485 14.1701 6.00547C12.9075 6.53331 12.0122 7.64262 11.752 8.98895C11.714 9.2089 11.691 9.43119 11.6832 9.65427C11.6752 9.99093 11.6449 10.3276 11.5455 10.6562C11.2088 11.842 10.237 12.7677 9.03564 13.043C7.45933 13.4031 5.86755 12.6231 5.17899 11.1616C5.14075 11.0775 5.11013 10.9933 5.09482 10.9092C4.98151 10.4144 4.89466 9.91387 4.83463 9.40979C4.76577 8.85132 4.72754 8.29286 4.72754 7.73448C4.73401 7.70174 4.7367 7.66836 4.73555 7.635L4.73523 7.63492Z" fill="#F7A800"/>
<path d="M16.0221 16.7997C16.0374 16.6544 16.0527 16.5243 16.0603 16.3866C16.0986 15.6292 15.9379 14.9101 15.5783 14.2446C15.2336 13.6097 14.7518 13.1047 14.132 12.7222C14.0785 12.684 14.0173 12.6534 13.9637 12.6151C13.114 12.0796 12.594 11.3223 12.4103 10.3354C12.0817 8.56065 13.1984 6.84703 14.9508 6.42628C15.5706 6.28095 16.1751 6.29626 16.7796 6.48744C17.2766 6.64046 17.7514 6.84703 18.2258 7.06883C18.5544 7.22185 18.8686 7.3901 19.1823 7.56581C19.2206 7.58873 19.2512 7.60404 19.2971 7.63467C19.2971 7.66529 19.3051 7.68821 19.3051 7.71883C19.3051 8.12427 19.2822 8.53741 19.2516 8.94285C19.1972 9.53918 19.1078 10.1318 18.9838 10.7176C18.6088 12.4466 17.9431 14.0454 16.9789 15.5295C16.7111 15.9427 16.4203 16.3404 16.1143 16.7229C16.0833 16.7462 16.068 16.7768 16.0221 16.7997Z" fill="#67B2E8"/>
<path d="M12.02 20.2193C11.9052 20.1733 11.5532 19.9592 11.1783 19.7067C10.3441 19.1479 9.56966 18.5044 8.86746 17.7866C8.16349 17.0694 7.53761 16.2796 7.00034 15.4304C6.49664 14.6462 6.07362 13.8131 5.73777 12.9437C5.728 12.9189 5.72033 12.8933 5.71484 12.8673C5.75308 12.8902 5.76839 12.8979 5.79139 12.9132C6.0592 13.1197 6.34232 13.2957 6.64845 13.4257C7.03874 13.594 7.44426 13.7088 7.87278 13.747C8.73745 13.8312 9.54857 13.6552 10.3138 13.2268C10.709 13.005 11.1425 12.8596 11.5916 12.7984C13.1909 12.5995 14.7825 13.5481 15.2799 15.2005C15.5324 16.0497 15.4562 16.8758 15.0656 17.6791C15.0121 17.7862 14.9661 17.8857 14.9126 17.9851C14.882 18.0463 14.8437 18.1075 14.7902 18.1534C13.9791 18.9185 13.0915 19.5916 12.1273 20.1574C12.0891 20.1803 12.0508 20.2033 12.0202 20.2186L12.02 20.2193Z" fill="#00C4B3"/>
</svg>
