<svg width="24" height="24" viewBox="0 0 24 24" fill="none" xmlns="http://www.w3.org/2000/svg">
<circle cx="12" cy="12" r="12" fill="#1EB5FA"/>
<path fill-rule="evenodd" clip-rule="evenodd" d="M6.80816 6.62397L4.17399 5.43081C4.09523 5.38794 3.99956 5.38987 3.92261 5.43588C3.84565 5.4819 3.79892 5.5651 3.79982 5.65452V18.1379C3.79988 18.2301 3.84996 18.315 3.93071 18.3599C4.01146 18.4047 4.11026 18.4026 4.18896 18.3542L6.83809 16.9597C6.98689 16.8694 7.07766 16.7083 7.07756 16.5346V7.06394C7.07175 6.88025 6.96942 6.71314 6.80816 6.62397ZM19.8179 5.43823L17.1014 6.63884C16.94 6.72682 16.8396 6.8955 16.8395 7.07882V16.7583C16.8389 16.9439 16.9431 17.114 17.1089 17.1983L19.8254 18.3691C19.9042 18.4119 19.9998 18.41 20.0768 18.364C20.1537 18.318 20.2005 18.2348 20.1996 18.1454V5.66194C20.1967 5.57247 20.148 5.49071 20.0706 5.44532C19.9932 5.39994 19.8978 5.39726 19.8179 5.43823ZM12.2337 8.30931L15.07 9.92754C15.2286 10.0173 15.3259 10.1857 15.3244 10.3675V13.6487C15.3241 13.83 15.2272 13.9975 15.07 14.0887L12.2337 15.7293C12.0788 15.8188 11.8872 15.8188 11.7323 15.7293L8.84374 14.0738C8.68658 13.9828 8.5893 13.815 8.5893 13.6338V10.3526C8.58962 10.1713 8.68649 10.0038 8.84374 9.91262L11.7323 8.30931C11.8874 8.21975 12.0787 8.21975 12.2337 8.30931Z" fill="white"/>
</svg>
