<svg width="24" height="24" viewBox="0 0 24 24" fill="none" xmlns="http://www.w3.org/2000/svg">
<circle cx="12" cy="12" r="12" fill="black"/>
<path d="M18.1221 6.67218L16.0861 7.70946L6.25483 12.717C6.22159 12.4635 6.20486 12.208 6.20475 11.9523C6.20749 9.87619 7.30914 7.95668 9.10036 6.90701C10.8916 5.85734 13.1046 5.8344 14.9172 6.84673L16.0826 6.25297L16.2564 6.16426C14.0797 4.5844 11.2009 4.35894 8.80477 5.58068C6.40869 6.80242 4.90036 9.26487 4.90064 11.9545C4.90064 12.1366 4.90755 12.3181 4.92138 12.4989C4.96099 13.0222 4.68227 13.5182 4.2146 13.7565L3.6001 14.0698V15.5313L5.40926 14.6092L5.99515 14.3102L6.57245 14.0161L16.9367 8.7353L18.1013 8.14226L20.5085 6.9154V5.45462L18.1221 6.67218Z" fill="white"/>
<path d="M20.5081 8.37761L7.16071 15.1736L5.99609 15.7681L3.59961 16.9892V18.4493L5.97964 17.2367L8.01558 16.1994L17.8569 11.1847C17.8902 11.4399 17.9069 11.6971 17.907 11.9545C17.9057 14.0331 16.8028 15.9552 15.0089 17.0053C13.215 18.0553 10.999 18.0759 9.18592 17.0593L9.11438 17.0972L7.85104 17.7411C10.0272 19.321 12.9056 19.547 15.3016 18.3261C17.6977 17.1052 19.2066 14.6436 19.2075 11.9545C19.2075 11.7706 19.2004 11.5868 19.1868 11.405C19.1472 10.8819 19.4256 10.3861 19.8928 10.1474L20.5081 9.8341V8.37761Z" fill="white"/>
</svg>
