<svg width="24" height="24" viewBox="0 0 24 24" fill="none" xmlns="http://www.w3.org/2000/svg">
<circle cx="12" cy="12" r="12" fill="white"/>
<path d="M24.0003 11.9988C24.0003 18.6254 18.6288 23.9976 12.0019 23.9976C5.37486 23.9976 0.00341797 18.6254 0.00341797 11.9988C0.00341797 5.37227 5.37499 0 12.0019 0C18.6287 0 24.0003 5.37176 24.0003 11.9988Z" fill="white"/>
<path d="M12.002 0C5.37742 0 -0.00354069 5.37987 0.00489271 11.9984C0.00655384 13.3226 0.217708 14.5964 0.614015 15.7878H4.20383V5.69415L12.002 13.4923L19.7999 5.69415V15.788H23.3905C23.7873 14.5966 23.9974 13.3229 23.9998 11.9986C24.0111 5.37317 18.6274 0.00159724 12.002 0.00159724V0Z" fill="#F26822"/>
<path d="M10.2083 15.285L6.80515 11.8816V18.2331H4.20325L1.74805 18.2336C3.85403 21.6887 7.66006 24 12.0017 24C16.3434 24 20.1496 21.6882 22.256 18.2331H17.1975V11.8816L13.7941 15.285L12.0013 17.0778L10.2085 15.285H10.2083Z" fill="#4D4D4D"/>
</svg>
