<svg width="24" height="24" viewBox="0 0 24 24" fill="none" xmlns="http://www.w3.org/2000/svg">
<circle cx="12" cy="12" r="12" fill="#EDF0F4"/>
<path fill-rule="evenodd" clip-rule="evenodd" d="M12.0499 6.87458L6 5.39996V6.19705L12.0499 7.67167V6.87458ZM11.9782 9.9274L18.044 6.9702V7.82308L6 13.6936V12.8408L10.8941 10.4495L6 9.25784V8.46076L11.9782 9.9274ZM11.9779 13.2273H11.9978L18.0437 10.2781V11.131L13.1735 13.5023L18.0357 14.698V15.4951L12.1014 14.0284L6.02361 16.9936V16.1606L11.9779 13.2273ZM6 7.72743V6.93034L12.0579 8.41293V9.21001L6 7.72743ZM18.044 8.62416L6 14.5027V15.3396L18.044 9.47705V8.62416ZM18.0363 17.0175L11.9784 15.5349V14.7378L18.0283 16.2164L18.0363 17.0175ZM11.9784 16.2643V17.0614L18.0443 18.552V17.7549L11.9784 16.2643Z" fill="#FF0033"/>
</svg>
