<svg width="24" height="24" viewBox="0 0 24 24" fill="none" xmlns="http://www.w3.org/2000/svg">
<path fill-rule="evenodd" clip-rule="evenodd" d="M12 24C5.4 24 0 18.6001 0 11.9402C0.06 5.34038 5.4 -0.0595036 12.06 0.000495204C18.66 0.060494 24 5.40038 24 12.1202C23.94 18.6601 18.6 24 12 24Z" fill="#EDF0F4"/>
<path d="M20.9953 11.8185C20.9971 11.8795 20.9978 11.9395 20.9978 12.0002C21.0001 13.4409 20.6547 14.8609 19.991 16.1397L15.0845 18.1198L15.0944 18.0974L20.9953 11.8185Z" fill="#0F6089"/>
<path d="M20.995 11.8164L15.0952 18.0974L20.5758 9.27045C20.8378 10.0944 20.979 10.9519 20.995 11.8164Z" fill="#078FA4"/>
<path d="M20.5759 9.27039L15.0953 18.0974L15.0804 18.1212L14.4233 6.69818L19.9334 8.75992L20.5759 9.27039Z" fill="#00AAA6"/>
<path d="M20.5756 9.27048L19.9331 8.76001L20.4706 8.96058C20.5082 9.06317 20.5437 9.16682 20.5756 9.27048Z" fill="#00AAA6"/>
<path fill-rule="evenodd" clip-rule="evenodd" d="M15.1605 3.57196L15.1604 3.5719H15.1603H15.1597L14.8828 4.74796L19.9335 8.75997L20.4708 8.96048L20.4709 8.96054C20.4708 8.96052 20.4708 8.96051 20.4708 8.9605L20.4709 8.96054L20.4708 8.96038C19.5766 6.47237 17.6352 4.50239 15.1605 3.57196ZM15.1605 3.57196C15.1604 3.57194 15.1604 3.57192 15.1603 3.5719L20.4708 8.96048L20.4708 8.9605C20.4708 8.96046 20.4708 8.96042 20.4708 8.96038L15.1605 3.57196Z" fill="#1EAAE2"/>
<path d="M15.0844 18.1198L19.9903 16.1382C18.748 18.5346 16.4964 20.2474 13.8555 20.8052L15.0329 18.2337L15.0844 18.1198Z" fill="#0C7392"/>
<path d="M19.9334 8.75994L14.4233 6.6982L14.8827 4.74792L19.9334 8.75994Z" fill="#1EAAE2"/>
<path d="M15.1594 3.57187L14.8822 4.74793L12.7168 3.02875C13.5526 3.09356 14.3749 3.27642 15.1594 3.57187Z" fill="#ABCF3A"/>
<path d="M15.0801 18.1213L15.095 18.0975L15.0851 18.1198L15.0801 18.1213Z" fill="#CD1685"/>
<path d="M15.0853 18.1197L15.0328 18.2337L8.67041 13.5923L8.75277 13.5192L14.4233 6.69818L15.0803 18.1212L15.0853 18.1197Z" fill="#8F9990"/>
<path d="M15.0327 18.2337L13.8552 20.8052C13.2451 20.9338 12.6232 20.9983 11.9997 20.9976C11.7512 20.9976 11.5081 20.9877 11.2667 20.9681L5.66895 16.1013L5.83188 16.1368L15.0327 18.2337Z" fill="#CD1685"/>
<path d="M15.0328 18.2337L5.83203 16.1383L8.67047 13.5923L15.0328 18.2337Z" fill="#EC1076"/>
<path d="M14.8825 4.74793L14.4232 6.6982L12.7168 3.02875L14.8825 4.74793Z" fill="#ABCF3A"/>
<path d="M12.7168 3.02877L14.4229 6.69822L8.15674 3.85836C9.35794 3.29098 10.6703 2.99779 11.9987 3.00001C12.2405 3.00001 12.4794 3.00995 12.7168 3.02877Z" fill="#E0E224"/>
<path d="M14.4233 6.69818L8.75282 13.5192L6.28711 10.4784L14.4233 6.69818V6.69818Z" fill="#F9A516"/>
<path d="M14.4233 6.69824L6.28711 10.4785L8.1568 3.8598L14.4233 6.69824Z" fill="#FDCD11"/>
<path d="M11.3004 20.9976L11.2397 20.9656L11.266 20.9681L11.3004 20.9976Z" fill="#CD1685"/>
<path fill-rule="evenodd" clip-rule="evenodd" d="M11.2655 20.9682L5.66884 16.1014L5.62943 16.0666L5.0132 17.6718L5.01318 17.6718C5.01319 17.6718 5.01319 17.6718 5.01319 17.6718L5.01318 17.6718L5.01324 17.6719C6.55329 19.5719 8.80184 20.7615 11.2391 20.9657L11.2392 20.9657L11.2655 20.9682ZM11.2391 20.9657C11.2392 20.9657 11.2392 20.9657 11.2392 20.9657L5.0132 17.6718L5.01319 17.6718C5.01321 17.6718 5.01323 17.6718 5.01324 17.6719L11.2391 20.9657Z" fill="#B9204A"/>
<path d="M6.28736 10.4785L8.75307 13.5192L8.67071 13.5924L4.30762 13.5004L6.28736 10.4785V10.4785Z" fill="#F05B28"/>
<path d="M8.67071 13.5923L5.83227 16.1382L4.30762 13.5004L8.67071 13.5923Z" fill="#F05B28"/>
<path d="M8.15706 3.85938L6.28737 10.4784L4.30763 13.5003L4.31508 13.4368L3.01514 11.5064C3.19582 8.12059 5.24869 5.23351 8.15706 3.85938Z" fill="#FDCD11"/>
<path fill-rule="evenodd" clip-rule="evenodd" d="M5.83222 16.1382L4.30757 13.5004L5.66929 16.1013L5.83222 16.1382ZM5.62982 16.0658L5.66922 16.1013L4.30751 13.5011L4.00684 16.1383C4.28924 16.6824 4.62658 17.1963 5.01357 17.6718L5.62982 16.0658Z" fill="#AB1F25"/>
<path d="M3.01318 11.5065L4.3149 13.4369L4.30745 13.5004L4.00678 16.1376L3.01318 11.5065Z" fill="#CB0010"/>
<path d="M3.01491 11.5065L4.00887 16.1376C3.34451 14.8592 2.99843 13.4395 3.00001 11.9988C3.00001 11.8338 3.00391 11.6701 3.01491 11.5065V11.5065Z" fill="#CB0010"/>
<path d="M17.0531 13.5193L17.4627 11.7933C17.6317 11.3259 17.7159 10.8321 17.7112 10.3351C17.7112 10.0052 17.5864 9.68755 17.3619 9.44583L17.3009 9.38016C16.8813 8.92791 16.1294 8.6702 15.511 8.6702H15.2949C14.7347 8.66985 14.1952 8.88152 13.7848 9.26266L13.2739 9.73869L13.1866 9.53848C13.1411 9.43305 13.0768 9.33682 12.9967 9.2545C12.576 8.82779 12.0017 8.58775 11.4025 8.5882C10.9603 8.58813 10.528 8.71893 10.16 8.96412L9.65667 9.32798V9.29248C9.65647 8.94835 9.37744 8.66949 9.03332 8.66949H3.5751L3.08203 10.4785L7.60203 10.5608L6.93785 14.1305C6.82497 14.6165 7.13274 15.0954 7.62971 15.1554C8.02708 15.2048 8.40212 14.9603 8.51717 14.5768L9.75358 10.7571C9.88705 10.3116 10.4884 10.0284 10.9499 10.0887C11.2234 10.1244 11.4679 10.2773 11.6197 10.5077C11.7714 10.7381 11.8153 11.0231 11.7401 11.2885L11.089 14.1259C11.0026 14.4302 11.064 14.7574 11.2548 15.0098C11.4455 15.2621 11.7436 15.4104 12.0599 15.4103C12.4905 15.4103 12.7095 15.1373 12.8497 14.7301L14.0904 11.0422C14.2345 10.6244 14.7457 10.3755 15.1802 10.4582C15.4276 10.5055 15.6433 10.6554 15.7739 10.8707C15.9045 11.086 15.9377 11.3466 15.8653 11.5878L15.2072 14.0091C15.1068 14.3376 15.1681 14.6942 15.3724 14.9703C15.5768 15.2464 15.8999 15.4092 16.2434 15.4092L20.4932 15.3272L20.9863 13.5193H17.0531Z" fill="white"/>
</svg>
