<svg width="24" height="24" viewBox="0 0 24 24" fill="none" xmlns="http://www.w3.org/2000/svg">
<path d="M12 24C18.6274 24 24 18.6274 24 12C24 5.37258 18.6274 0 12 0C5.37258 0 0 5.37258 0 12C0 18.6274 5.37258 24 12 24Z" fill="#1F5B35"/>
<path fill-rule="evenodd" clip-rule="evenodd" d="M9.04344 2.14559C8.89909 2.26693 8.62631 2.514 8.39893 2.86353C8.17161 3.21306 7.98976 3.66504 7.87002 3.90309C7.75029 4.14114 7.69267 4.16526 7.61692 4.18183C7.54117 4.1984 7.44722 4.20741 7.30638 4.1035C7.16555 3.99957 6.97796 3.78272 6.62178 3.82049C6.26566 3.85813 5.741 4.15028 5.30139 4.45156C4.86179 4.75284 4.50712 5.06314 4.20552 5.4564C3.90391 5.84966 3.65537 6.32577 3.39016 6.87644C3.12495 7.42711 2.84308 8.05229 2.65435 8.49908C2.46561 8.94582 2.37014 9.21398 2.40813 9.78047C2.446 10.3471 2.61721 11.212 2.85447 11.8854C3.09162 12.5589 3.39482 13.0408 3.63723 13.3888C3.87976 13.7367 4.06164 13.9506 4.2647 14.0275C4.46778 14.1044 4.69205 14.0441 5.04979 13.9326C5.40753 13.8211 5.89849 13.6584 6.07436 13.672C6.25011 13.6855 6.11076 13.8754 5.84248 14.2144C5.5742 14.5534 5.17712 15.0415 4.83912 15.4845C4.50112 15.9274 4.2223 16.3252 4.10257 16.6551C3.98283 16.985 4.02217 17.2472 4.38897 17.6856C4.75578 18.1241 5.44993 18.7387 5.88794 19.1575C6.32592 19.5764 6.50784 19.7993 6.77452 19.8627C7.04119 19.9261 7.39287 19.8296 8.02023 19.8115C8.64772 19.7935 9.55095 19.8537 10.4815 20.0766C11.4121 20.2996 12.3699 20.6853 13.3284 21.1425C14.2871 21.5998 15.2464 22.1286 15.7299 22.3885C16.2134 22.6483 16.221 22.6393 16.2627 22.5188C16.3043 22.3984 16.3802 22.1663 16.5021 21.7942C16.6242 21.422 16.7923 20.9098 17.0608 19.7879C17.3294 18.666 17.6983 16.9343 17.9877 15.836C18.2772 14.7378 18.4874 14.2727 18.6091 14.0034C18.7308 13.734 18.7641 13.6602 18.7224 13.5005C18.6808 13.3408 18.5641 13.0952 18.5179 12.9061C18.4717 12.717 18.4959 12.5844 18.7467 12.4865C18.9976 12.3886 19.4749 12.3253 19.7388 12.2075C20.0026 12.0897 20.0529 11.9174 19.9505 11.6447C19.8482 11.372 19.5934 10.999 19.2697 10.4848C18.9461 9.97051 18.5536 9.31516 18.3277 8.93668C18.1018 8.55814 18.0427 8.4564 18.042 8.2598C18.0412 8.06314 18.0989 7.77162 17.9684 7.32415C17.8382 6.87668 17.5199 6.27327 17.1955 5.83602C16.8712 5.39877 16.5408 5.12758 16.4104 4.84275C16.2802 4.55803 16.3498 4.25968 16.3972 3.93842C16.4445 3.61716 16.4696 3.27287 16.4624 3.03299C16.4552 2.79311 16.4158 2.65751 16.2858 2.49475C16.1559 2.33199 15.9353 2.14218 15.6167 2.06799C15.298 1.99379 14.8812 2.03522 14.441 2.25024C14.0006 2.46527 13.5369 2.85403 13.1395 3.21792C12.742 3.58183 12.411 3.92076 12.0844 4.15954C11.7578 4.39832 11.4356 4.53696 11.2329 4.51735C11.0302 4.49773 10.9467 4.31999 10.9581 4.08425C10.9695 3.84851 11.0756 3.55466 11.1941 3.22645C11.3124 2.89825 11.4432 2.53545 11.504 2.31554C11.5648 2.09564 11.5557 2.0184 11.5268 2.00293C11.4977 1.98746 11.4489 2.03387 11.2867 2.1127C11.1245 2.19164 10.849 2.30311 10.6255 2.41179C10.402 2.52046 10.2302 2.62633 10.1032 2.73122C9.9761 2.83611 9.8935 2.94004 9.78894 3.0794C9.68444 3.21878 9.55779 3.39348 9.49117 3.43125C9.42449 3.46889 9.41764 3.36948 9.38248 3.11376C9.34713 2.85804 9.28353 2.4459 9.24374 2.2377C9.20389 2.02937 9.1881 2.02486 9.04369 2.1462L9.04344 2.14559Z" fill="#1F5B35"/>
<path fill-rule="evenodd" clip-rule="evenodd" d="M18.4446 13.9019C18.2763 14.0655 17.964 14.3253 17.7891 14.4767C17.6142 14.628 17.5768 14.671 17.5234 15.0757C17.4701 15.4804 17.401 16.2468 17.3252 16.7117C17.2494 17.1767 17.1671 17.3403 17.0847 17.5039C16.9163 17.3375 16.748 17.1712 16.6279 17.0094C16.5078 16.8477 16.4357 16.6908 16.4357 16.7351C16.4357 16.7795 16.5078 17.0253 16.5797 17.2711C16.5797 17.2711 16.5797 17.2711 16.432 17.145C16.2842 17.0188 15.9887 16.7664 15.7602 16.4257C15.5315 16.0852 15.3698 15.6562 15.2781 15.4192C15.1865 15.1823 15.1649 15.1374 15.0794 15.1287C14.9938 15.1198 14.8441 15.1468 14.7465 15.1572C14.6487 15.1675 14.6029 15.161 14.4889 15.0829C14.3748 15.0048 14.1925 14.8554 14.084 14.7497C13.9755 14.6441 13.9409 14.5824 13.8969 14.6572C13.853 14.732 13.7997 14.9432 13.7913 15.1395C13.7828 15.3358 13.8193 15.5171 13.8558 15.6984C13.7455 15.6368 13.6351 15.575 13.5112 15.4022C13.3873 15.2293 13.2499 14.9452 13.1539 14.626C13.0581 14.3069 13.0039 13.9525 12.9598 13.7661C12.9158 13.5797 12.8822 13.5609 12.84 13.6796C12.7979 13.7984 12.7475 14.0544 12.7157 14.2768C12.6838 14.4993 12.6707 14.6881 12.6576 14.8768C12.5716 14.6175 12.4857 14.3581 12.4463 14.0777C12.4071 13.7974 12.4145 13.4959 12.3492 13.1518C12.2838 12.8076 12.1456 12.4205 11.9941 12.1195C11.8426 11.8185 11.6779 11.6037 11.5806 11.3551C11.4833 11.1067 11.4534 10.8243 11.5014 10.559C11.5493 10.2935 11.6752 10.0448 11.7481 9.91785C11.8211 9.79073 11.8411 9.78514 11.8642 9.91128C11.8874 10.0374 11.9135 10.2953 11.9378 10.4786C11.9621 10.6617 11.9846 10.7701 12.1314 10.9188C12.2783 11.0674 12.5495 11.2561 12.6178 11.1888C12.686 11.1214 12.5513 10.7981 12.4504 10.5747C12.3494 10.3513 12.282 10.228 12.2616 10.141C12.2409 10.0541 12.2672 10.0036 12.3644 9.81953C12.4618 9.63543 12.6301 9.31763 13.1173 8.85412C13.6045 8.39054 14.4106 7.78112 14.9876 7.39706C15.5646 7.01289 15.9126 6.85402 16.1397 6.75779C16.3669 6.6615 16.4733 6.62785 16.4145 6.69884C16.3555 6.76989 16.1313 6.94564 16.2715 6.97924C16.4119 7.01289 16.9168 6.90444 16.914 6.97739C16.9112 7.05035 16.4006 7.30446 16.1201 7.47186C15.8395 7.63914 15.789 7.71952 15.4541 8.18875C15.1194 8.65798 14.5002 9.51586 14.2159 9.93369C13.9316 10.3515 13.9822 10.329 14.1963 10.2085C14.4104 10.0879 14.7882 9.86921 14.9874 9.73276C15.1867 9.59625 15.2072 9.54208 15.3868 9.21035C15.5663 8.87856 15.9048 8.26926 16.1003 7.95988C16.2957 7.65044 16.3481 7.64123 16.5042 7.629C16.6604 7.61678 16.9204 7.60192 17.1046 7.64485C17.2888 7.68777 17.3973 7.78879 17.5067 7.86543C17.6161 7.94207 17.7264 7.99439 17.8209 8.00839C17.9154 8.02245 17.9939 7.9982 18.0528 7.85984C18.1118 7.72149 18.151 7.46916 18.165 7.30839C18.179 7.14756 18.1679 7.07841 18.0472 6.79986C17.9266 6.52137 17.6966 6.03347 17.5713 5.77934C17.4459 5.52509 17.4254 5.50459 17.3814 5.48397C17.3375 5.46347 17.2703 5.44286 17.1814 5.31207C17.0925 5.18116 16.9821 4.94009 16.8782 4.77649C16.7744 4.61288 16.6771 4.527 16.6079 4.48588C16.5386 4.44476 16.4976 4.44855 16.4846 4.41024C16.4715 4.37193 16.4865 4.29153 16.5341 4.01959C16.5819 3.74765 16.6623 3.28405 16.6752 3.01491C16.6883 2.74578 16.634 2.67099 16.4838 2.46774C16.3337 2.26448 16.0878 1.93264 15.9452 1.76025C15.8026 1.58786 15.7634 1.57469 15.3799 1.62703C14.9965 1.67936 14.2689 1.7971 13.8528 1.90458C13.4366 2.01207 13.3319 2.1093 12.9653 2.53167C12.5987 2.95416 11.9703 3.70178 11.6533 4.07047C11.3362 4.43915 11.3306 4.42891 11.302 4.39951C11.2735 4.3701 11.2221 4.32142 11.1973 4.28971C11.1725 4.25786 11.1745 4.24297 11.2408 4.09341C11.3072 3.94383 11.438 3.65981 11.5105 3.2677C11.583 2.87559 11.5971 2.37563 11.6111 1.87555C11.1163 2.0494 10.6217 2.22325 10.2682 2.442C9.91464 2.66074 9.70235 2.92427 9.49011 3.18779C9.5284 2.99246 9.56674 2.79714 9.53024 2.54765C9.49374 2.29816 9.38252 1.99437 9.27118 1.69059C8.84567 2.00926 8.4201 2.32805 8.13775 2.72614C7.85541 3.12423 7.71599 3.60186 7.57669 4.07937C7.46259 3.8738 7.34854 3.6681 7.20728 3.57941C7.06608 3.49059 6.89771 3.51865 6.41991 3.73362C5.94198 3.94859 5.15463 4.35046 4.72163 4.57385C4.28863 4.79723 4.21014 4.842 4.1502 4.9113C4.09039 4.98047 4.04924 5.07392 3.87895 5.46555C3.70878 5.85717 3.40946 6.54698 3.10928 7.20117C2.80909 7.8553 2.50794 8.47412 2.34985 8.81518C2.19177 9.15631 2.17687 9.21987 2.22168 9.64421C2.2666 10.0685 2.37134 10.8536 2.43298 11.2723C2.49463 11.691 2.51343 11.7434 2.72096 12.1845C2.92861 12.6257 3.3251 13.4556 3.56266 13.9005C3.80022 14.3453 3.87871 14.4052 3.97979 14.4333C4.08074 14.4613 4.20416 14.4575 4.46979 14.3641C4.73542 14.2706 5.14315 14.0873 5.40122 13.9827C5.65927 13.878 5.76779 13.8519 5.69675 13.9715C5.62572 14.0911 5.37509 14.3565 5.05147 14.7435C4.72786 15.1305 4.33136 15.6388 4.12005 15.9529C3.90874 16.2669 3.88249 16.3866 3.85637 16.5866C3.83012 16.7865 3.804 17.067 3.804 17.2445C3.804 17.4222 3.83012 17.4968 4.27154 17.9959C4.71296 18.495 5.56956 19.4183 6.09701 20.153C6.62453 20.8876 6.823 21.4334 6.95388 21.7494C7.08488 22.0652 7.14823 22.1513 7.21355 22.2018C7.27886 22.2523 7.34621 22.2672 7.39112 22.2411C7.43604 22.2148 7.45841 22.1476 7.37244 21.8374C7.28642 21.5271 7.09194 20.9737 7.01526 20.6298C6.93876 20.2859 6.97999 20.1513 7.06792 20.1475C7.15579 20.1438 7.29029 20.2709 7.45294 20.3288C7.61552 20.3868 7.80631 20.3756 8.20657 20.3326C8.60689 20.2897 9.21662 20.2149 9.96103 20.2951C10.7055 20.3756 11.5845 20.611 12.4561 20.9625C13.3277 21.3138 14.1918 21.7812 14.7735 22.1849C15.3551 22.5886 15.6545 22.9289 15.9083 23.228C15.9582 23.2867 16.0064 23.3441 16.0531 23.4C16.2643 23.3257 16.4727 23.2457 16.6783 23.1601C16.6541 23.0389 16.6334 22.9195 16.6185 22.8028C16.5792 22.4962 16.5792 22.2084 16.6203 21.9662C16.6615 21.7242 16.7439 21.5279 16.8384 21.3979C16.9328 21.268 17.0394 21.2044 17.218 21.1727C17.3966 21.141 17.6472 21.141 17.8179 21.1278C17.9884 21.1148 18.0788 21.0885 18.2247 20.983C18.3706 20.8773 18.5719 20.6924 18.7989 20.469C19.0258 20.2456 19.2783 19.9839 19.4504 19.77C19.6224 19.5559 19.714 19.3895 19.8318 19.126C19.9496 18.8625 20.0937 18.5017 20.1573 18.226C20.2209 17.9503 20.2041 17.7596 20.1649 17.5849C20.1255 17.4102 20.0639 17.2512 20.0021 17.1269C19.9405 17.0026 19.8787 16.9129 19.6299 16.6998C19.3811 16.4867 18.9453 16.1501 18.7172 15.9689C18.489 15.7876 18.4684 15.7614 18.4581 15.6511C18.4479 15.5408 18.4479 15.3464 18.4543 15.2333C18.461 15.1202 18.474 15.0885 18.6087 14.9754C18.7433 14.8623 18.9995 14.668 19.0174 14.5557C19.0352 14.4436 18.8145 14.4137 18.7041 14.3865C18.5937 14.3594 18.5937 14.3351 18.7051 14.2501C18.8164 14.1651 19.039 14.0193 19.1465 13.9277C19.254 13.8361 19.2466 13.7987 19.1427 13.6539C19.039 13.5091 18.8388 13.2567 18.7406 13.0717C18.6425 12.8866 18.6462 12.7689 18.6892 12.6979C18.7323 12.6269 18.8146 12.6026 19.0277 12.5848C19.241 12.567 19.5851 12.5558 19.7871 12.5231C19.9892 12.4904 20.049 12.4362 20.0967 12.3623C20.1445 12.2885 20.18 12.1949 20.1622 12.0659C20.1445 11.937 20.0733 11.7725 19.9798 11.5884C19.8863 11.4043 19.7703 11.2006 19.5281 10.779C19.2859 10.3575 18.9175 9.71827 18.6444 9.29018C18.3714 8.86204 18.1937 8.64526 18.1085 8.58551C18.0234 8.5257 18.0309 8.62279 18.1394 8.84435C18.2479 9.06592 18.4574 9.41165 18.7548 9.92663C19.0521 10.4416 19.4374 11.1256 19.6188 11.5163C19.8002 11.9069 19.7777 12.0041 19.6748 12.0957C19.5721 12.1873 19.3887 12.2733 19.1726 12.3052C18.9567 12.337 18.7079 12.3146 18.5733 12.3052C18.4386 12.2958 18.4179 12.2995 18.3768 12.4561C18.3357 12.6126 18.2739 12.922 18.1225 13.1472C17.9709 13.3724 17.7297 13.5136 17.4885 13.6548C17.6063 13.4865 17.7242 13.3183 17.7943 13.2099C17.8644 13.1015 17.8868 13.0529 17.886 12.8622C17.885 12.6716 17.8607 12.3388 17.842 12.1491C17.8233 11.9595 17.8102 11.9127 17.8657 11.7948C17.9213 11.6771 18.0454 11.4883 18.1074 11.3724C18.1695 11.2564 18.1695 11.2135 18.1008 11.1013C18.0322 10.9891 17.895 10.8078 17.8114 10.7143C17.7278 10.6209 17.6979 10.6152 17.5734 10.6882C17.4491 10.761 17.2302 10.9126 17.0993 10.9966C16.9684 11.0808 16.9254 11.0975 16.6747 11.0088C16.4242 10.92 15.9659 10.7256 15.705 10.6266C15.4442 10.5275 15.3806 10.5237 15.1635 10.5331C14.9466 10.5425 14.5762 10.565 14.5368 10.5967C14.4976 10.6284 14.7895 10.6695 15.198 10.8313C15.6067 10.9929 16.1323 11.2752 16.4109 11.4323C16.6897 11.5893 16.7214 11.6211 16.8355 11.9444C16.9496 12.2679 17.146 12.8827 17.2105 13.3436C17.2751 13.8043 17.2077 14.1109 17.2021 14.2613C17.1965 14.4119 17.2526 14.4063 17.3246 14.3221C17.3966 14.238 17.4845 14.0753 17.535 13.9828C17.5855 13.8903 17.5986 13.8679 17.7248 13.8127C17.8511 13.7576 18.0904 13.6698 18.2654 13.6296C18.4402 13.5895 18.5507 13.5969 18.5936 13.6343C18.6366 13.6717 18.6123 13.7389 18.444 13.9026L18.4446 13.9019ZM11.2471 10.9095C11.2471 11.2365 11.292 11.588 11.2957 11.8085C11.2994 12.0291 11.2619 12.1189 11.2068 12.1562C11.1516 12.1937 11.0787 12.1787 10.9524 12.0132C10.8262 11.8478 10.6466 11.5319 10.5278 11.1393C10.409 10.7469 10.3511 10.2776 10.2724 9.88701C10.194 9.49633 10.0947 9.18412 9.98651 9.01445C9.87837 8.84459 9.76107 8.81726 9.57335 8.86252C9.3857 8.90766 9.1275 9.02556 8.90396 9.27323C8.68048 9.52089 8.4916 9.89843 8.41215 10.2985C8.3327 10.6985 8.36256 11.1209 8.559 11.5733C8.75545 12.0256 9.11822 12.508 9.48106 12.9902C9.19306 12.4089 8.90494 11.8275 8.79741 11.3182C8.68988 10.8088 8.76276 10.3715 8.84516 10.0967C8.92743 9.82198 9.01911 9.70985 9.1154 9.65753C9.21174 9.60514 9.3127 9.61257 9.39878 9.91919C9.48481 10.2258 9.55584 10.8314 9.61384 11.2866C9.67185 11.7418 9.71677 12.0464 9.7728 12.2137C9.82897 12.381 9.89619 12.4108 9.9682 12.408C10.0403 12.4052 10.1169 12.3697 10.2011 12.3912C10.2853 12.4126 10.3769 12.4913 10.4471 12.637C10.5172 12.7828 10.5659 12.9959 10.5977 13.3539C10.6294 13.7118 10.6444 14.2148 10.722 14.6269C10.7997 15.039 10.94 15.3606 11.0802 15.6821C11.1167 15.6016 11.1532 15.5212 11.1873 15.4913C11.2215 15.4615 11.2532 15.4821 11.3229 15.6825C11.3926 15.883 11.5001 16.2634 11.5988 16.5433C11.6974 16.8232 11.7872 17.0026 11.877 17.182C11.8892 17.0802 11.9013 16.9783 11.9242 16.9316C11.9472 16.8848 11.9809 16.8932 12.0631 17.0787C12.1454 17.2643 12.2764 17.6268 12.4928 17.9656C12.7093 18.3045 13.0114 18.6195 13.2485 18.8273C13.4855 19.0353 13.6577 19.1363 13.8297 19.2372C13.8016 19.1062 13.7735 18.9754 13.763 18.8754C13.7525 18.7754 13.7595 18.7062 13.7778 18.6759C13.7961 18.6457 13.8259 18.6543 13.9115 18.774C13.997 18.8938 14.1384 19.1247 14.3415 19.3387C14.5446 19.5526 14.8092 19.7499 15.0739 19.9471C15.0524 19.8667 15.0309 19.7863 15.0202 19.7101C15.0094 19.634 15.0094 19.562 15.0155 19.5238C15.0216 19.4854 15.0337 19.4808 15.1254 19.5714C15.217 19.6621 15.3882 19.8481 15.5499 19.9986C15.7117 20.1491 15.8642 20.264 16.0166 20.3789C15.9877 20.2677 15.9586 20.1566 15.9559 20.0808C15.953 20.0051 15.9765 19.9649 16.0264 19.972C16.0765 19.9789 16.1531 20.0332 16.2701 20.1846C16.387 20.336 16.544 20.5847 16.5739 20.7856C16.6038 20.9865 16.5065 21.1397 16.4056 21.323C16.3046 21.5061 16.1999 21.7193 16.1521 21.9024C16.1044 22.0855 16.1138 22.2388 16.1044 22.3351C16.095 22.4314 16.0671 22.4707 15.9492 22.4212C15.8313 22.3716 15.6237 22.2333 15.2711 21.9772C14.9186 21.7211 14.4211 21.3473 13.8641 21.0257C13.3072 20.7042 12.6909 20.4351 12.0895 20.2033C11.4882 19.9715 10.902 19.7771 10.2694 19.6901C9.63682 19.6033 8.95785 19.6238 8.55569 19.635C8.15358 19.6462 8.02823 19.6481 7.98903 19.5536C7.94971 19.4592 7.99647 19.2686 8.23967 18.9199C8.48281 18.5714 8.92227 18.0647 9.23737 17.675C9.55258 17.2854 9.74325 17.0124 9.82282 16.6872C9.90233 16.3619 9.87056 15.9844 9.75363 15.4844C9.6367 14.9845 9.43479 14.3619 9.18415 13.7928C8.93352 13.2236 8.63421 12.7077 8.38554 12.4039C8.13675 12.1001 7.93852 12.0086 7.76555 11.9627C7.59252 11.917 7.44474 11.917 7.33814 11.903C7.23159 11.8889 7.16615 11.8608 7.11281 11.8272C7.05948 11.7935 7.01831 11.7542 7.02212 11.7309C7.02587 11.7075 7.07447 11.7001 7.13991 11.6804C7.20535 11.6608 7.28763 11.6291 7.4252 11.4131C7.56266 11.1972 7.75529 10.7971 7.88623 10.4616C8.01711 10.1261 8.08636 9.85502 8.10879 9.69713C8.13128 9.53925 8.10682 9.49436 8.12735 9.45512C8.14787 9.41582 8.21343 9.38229 8.35365 9.25794C8.49393 9.13364 8.70905 8.91865 8.88116 8.65416C9.05315 8.38967 9.18231 8.07563 9.27386 7.81771C9.36554 7.55979 9.41974 7.35788 9.48432 7.23641C9.5489 7.11488 9.62374 7.07374 9.81637 6.94858C10.009 6.82331 10.3195 6.61397 10.5263 6.38687C10.7329 6.15973 10.8357 5.91487 10.9171 5.80934C10.9984 5.70369 11.0584 5.73736 11.2211 6.02895C11.3838 6.32055 11.6494 6.87016 11.7597 7.36168C11.87 7.8532 11.8251 8.28693 11.7288 8.71324C11.6325 9.13935 11.4846 9.55804 11.3883 9.91882C11.292 10.2796 11.2471 10.5824 11.2471 10.9095ZM15.8615 6.14094C15.854 6.20633 15.7514 6.25867 15.3484 6.48304C14.9454 6.70725 14.2422 7.10364 13.6465 7.56716C13.0507 8.03074 12.5627 8.56156 12.3185 8.75045C12.0745 8.93916 12.0745 8.78595 12.1016 8.4065C12.1287 8.02705 12.1829 7.42143 12.1034 6.82134C12.0239 6.22134 11.8107 5.62695 11.719 5.23813C11.6274 4.84931 11.6572 4.66619 11.8649 4.52967C12.0725 4.39327 12.4578 4.30348 12.8599 4.3801C13.262 4.45671 13.681 4.69974 13.9279 4.8437C14.1749 4.98766 14.2496 5.03244 14.3356 4.81003C14.4217 4.58762 14.5189 4.09791 14.5339 3.80999C14.5489 3.52219 14.4815 3.43617 14.5058 3.42312C14.5301 3.41007 14.6461 3.46985 14.736 3.56147C14.8257 3.65309 14.8893 3.77643 14.9567 3.97274C15.024 4.16904 15.0951 4.43817 15.1894 4.34277C15.2838 4.24749 15.4015 3.78766 15.3604 3.42691C15.3192 3.06615 15.1193 2.80445 15.0006 2.64C14.882 2.47554 14.8445 2.4082 14.9444 2.45126C15.0444 2.49421 15.2817 2.64756 15.4248 2.76932C15.5679 2.89107 15.6167 2.98148 15.6646 3.10763C15.7123 3.23377 15.7592 3.39579 15.8059 3.55781C16.0079 3.33162 16.2099 3.10543 16.1669 2.85411C16.1238 2.60266 15.8358 2.32609 15.8239 2.29986C15.812 2.27362 16.0762 2.49799 16.2084 2.64756C16.3405 2.79713 16.3405 2.8718 16.3057 3.16155C16.2708 3.4513 16.2011 3.9559 16.1663 4.25126C16.1314 4.54663 16.1314 4.63264 15.9275 4.82699C15.7236 5.02133 15.3159 5.32414 15.0689 5.54289C14.8221 5.76152 14.7361 5.8962 14.8669 5.94476C14.9979 5.99332 15.3457 5.95599 15.5635 5.97661C15.7813 5.99722 15.869 6.07567 15.8615 6.14106V6.14094ZM7.71593 14.6626C7.84399 15.1403 8.0011 15.7346 8.01794 16.2037C8.03478 16.6729 7.91127 17.0167 7.68312 17.3725C7.45491 17.7282 7.12206 18.0957 6.99069 18.4701C6.85932 18.8446 6.92967 19.2257 6.99997 19.6069C6.92599 19.5574 6.85188 19.5077 6.68561 19.2157C6.51934 18.9236 6.26071 18.389 6.24578 17.8394C6.23079 17.2899 6.45943 16.7254 6.42047 16.2935C6.38139 15.8618 6.07478 15.5626 5.97929 15.2841C5.88399 15.0055 5.99994 14.7476 6.10833 14.5192C6.21684 14.2908 6.3178 14.0921 6.48493 13.8956C6.65206 13.699 6.88537 13.5048 7.03303 13.3817C7.18074 13.2586 7.24305 13.2069 7.28833 13.2323C7.3335 13.2578 7.3617 13.3605 7.4253 13.5923C7.48889 13.8241 7.58788 14.1849 7.71593 14.6625V14.6626ZM6.00488 13.2638C5.59749 13.5311 5.11176 13.7258 4.84417 13.8269C4.57646 13.928 4.5269 13.9354 4.44047 13.6943C4.35392 13.4533 4.2305 12.9635 4.18937 12.4513C4.14823 11.9392 4.18937 11.4045 4.24552 11.0756C4.30155 10.7466 4.37272 10.6232 4.41288 10.5625C4.45305 10.5017 4.46244 10.5035 4.52458 10.5671C4.58672 10.6306 4.70183 10.7559 4.7719 10.8788C4.84198 11.0017 4.86724 11.1223 4.89252 11.2429C4.87286 11.0027 4.8532 10.7624 4.85284 10.4489C4.85235 10.1353 4.87103 9.74838 4.94171 9.34652C5.01227 8.9446 5.13483 8.52775 5.20026 8.31472C5.2657 8.10157 5.27412 8.0923 5.33161 8.16237C5.38911 8.23237 5.49568 8.38197 5.59114 8.54691C5.68647 8.71185 5.77071 8.89215 5.85483 9.07257C5.91462 8.52394 5.97459 7.97531 6.06909 7.56829C6.16354 7.16134 6.29257 6.89586 6.3636 6.75382C6.4347 6.61172 6.44772 6.59306 6.51415 6.70531C6.58057 6.81738 6.7002 7.06044 6.77222 7.28379C6.84423 7.50719 6.8685 7.71095 6.89284 7.9147C6.90402 7.26978 6.91526 6.62487 7.01819 6.03148C7.12111 5.43794 7.31558 4.89589 7.42029 4.61736C7.52505 4.33883 7.54005 4.32395 7.59424 4.38653C7.64844 4.44912 7.74196 4.5893 7.81311 4.7407C7.8842 4.8921 7.93287 5.05473 7.98147 5.21736C8.07315 4.71459 8.1647 4.21171 8.35187 3.72199C8.53885 3.23228 8.82138 2.75562 8.97186 2.51735C9.1224 2.27896 9.14108 2.27896 9.18514 2.45282C9.22907 2.62666 9.29832 2.97437 9.31135 3.29023C9.32443 3.60609 9.28142 3.89023 9.23835 4.17437C9.49273 3.78372 9.74706 3.39307 9.99579 3.10332C10.2446 2.81357 10.4878 2.62483 10.7272 2.48466C10.9666 2.34448 11.2023 2.25285 11.4379 2.16123C11.4323 2.27896 11.4267 2.39682 11.3181 2.68364C11.2096 2.97059 10.9983 3.42663 10.7683 3.78372C10.5382 4.1407 10.2895 4.39874 10.0408 4.65664C10.3756 4.58747 10.7103 4.51829 10.8179 4.60711C10.9254 4.69592 10.8056 4.94261 10.6487 5.23053C10.4915 5.51846 10.2971 5.84738 10.0016 6.14091C9.70601 6.43431 9.3095 6.69235 8.96903 6.9017C8.62862 7.11104 8.34437 7.27175 8.06006 7.43252C8.31451 7.35213 8.56877 7.27175 8.77363 7.21476C8.97843 7.15777 9.13358 7.12412 9.186 7.1727C9.23835 7.22121 9.18796 7.35213 9.02605 7.65678C8.86433 7.96143 8.59126 8.44 8.25454 8.84094C7.91788 9.24182 7.51762 9.56526 7.18655 9.77558C6.85548 9.98579 6.5936 10.083 6.42904 10.2269C6.26449 10.3709 6.19715 10.5616 6.12986 10.7522C6.16538 10.7129 6.20089 10.6738 6.37485 10.5363C6.5488 10.3989 6.86119 10.1633 7.14175 10.0203C7.42225 9.87734 7.67105 9.8268 7.7964 9.81096C7.92181 9.79511 7.92359 9.81378 7.89176 9.93347C7.85987 10.0531 7.79443 10.2736 7.64395 10.5409C7.49341 10.8082 7.25795 11.1222 6.90623 11.4138C6.55458 11.7054 6.08691 11.9745 5.61922 12.2438C5.92881 12.1802 6.2385 12.1166 6.48779 12.0789C6.73707 12.041 6.92589 12.0288 7.01296 12.0727C7.09985 12.1166 7.08498 12.2167 6.91311 12.4365C6.74119 12.6565 6.41221 12.9964 6.00494 13.2637L6.00488 13.2638ZM6.89213 4.02317C7.08292 4.01194 7.14369 4.10162 7.14369 4.20446C7.14369 4.30731 7.08292 4.42321 7.0525 4.53716C7.02215 4.65123 7.02215 4.76335 6.99075 4.81008C6.95948 4.8568 6.89674 4.83814 6.61292 4.85314C6.3291 4.86803 5.82408 4.91671 5.42942 5.0409C5.03476 5.1651 4.75045 5.36469 4.6064 5.44143C4.46235 5.51805 4.45857 5.47169 4.53913 5.34749C4.61958 5.22329 4.78414 5.02138 5.0516 4.82703C5.31907 4.63268 5.68945 4.44566 6.0349 4.29621C6.38053 4.14664 6.70122 4.03452 6.89201 4.02329L6.89213 4.02317ZM5.63073 7.57831C5.61854 7.75585 5.67651 7.94468 5.68406 8.03158C5.69156 8.11841 5.64855 8.10355 5.5625 8.0344C5.47644 7.96519 5.34741 7.84188 5.27636 7.73718C5.20532 7.63248 5.19213 7.5465 5.15576 7.58396C5.11925 7.6213 5.05944 7.78207 4.98363 7.97557C4.90795 8.16907 4.81627 8.39512 4.76011 8.60827C4.70396 8.82142 4.68345 9.02137 4.67405 9.19423C4.66465 9.3671 4.66661 9.51289 4.58494 9.49987C4.50327 9.48679 4.33798 9.31478 4.14254 9.06527C3.9471 8.81577 3.72151 8.48858 3.60773 8.22127C3.49396 7.95395 3.49213 7.74645 3.53791 7.55394C3.58381 7.36142 3.67719 7.18376 3.75227 7.00346C3.82722 6.82317 3.88362 6.63992 3.96041 6.4474C4.03707 6.25487 4.13399 6.05296 4.46873 5.86983C4.80333 5.68671 5.37573 5.52213 5.81519 5.4194C6.25465 5.31656 6.56145 5.27544 6.70929 5.30997C6.857 5.34437 6.84576 5.45442 6.81682 5.57679C6.78775 5.69928 6.74099 5.83409 6.71113 5.92486C6.68121 6.01562 6.668 6.06235 6.53994 6.10908C6.41177 6.1558 6.16875 6.20253 6.04155 6.25109C5.9143 6.29965 5.90312 6.35013 5.88345 6.48664C5.86379 6.6231 5.83571 6.84558 5.78053 7.03994C5.72535 7.2343 5.64308 7.40072 5.63085 7.57831H5.63073ZM3.68833 9.30187C3.81553 9.67935 3.95018 9.98596 3.95579 10.3243C3.96141 10.6626 3.838 11.0327 3.80614 11.4027C3.77427 11.7729 3.83421 12.143 3.86595 12.3318C3.89769 12.5205 3.90148 12.5281 3.80235 12.3878C3.70323 12.2476 3.50119 11.9597 3.38901 11.569C3.27682 11.1784 3.25436 10.6849 3.2894 10.2438C3.32443 9.8026 3.41696 9.41375 3.43197 9.05316C3.44699 8.69238 3.38425 8.35979 3.41281 8.41776C3.44138 8.47573 3.56101 8.9242 3.68821 9.30162L3.68833 9.30187ZM2.94198 8.87696C2.99179 9.07009 2.99179 9.5298 2.96628 9.95604C2.94077 10.3822 2.88986 10.7748 2.88986 11.1019C2.88986 11.4289 2.94077 11.6907 2.92954 11.7392C2.9183 11.7878 2.84494 11.6233 2.76705 11.2832C2.68917 10.9429 2.6069 10.4271 2.59383 9.98908C2.58077 9.55111 2.6368 9.19107 2.71468 8.97429C2.79257 8.75752 2.89206 8.68383 2.94186 8.87696H2.94198ZM5.43364 15.6815C5.54436 15.7665 5.75261 15.9105 5.87139 16.1076C5.99016 16.3049 6.01947 16.5554 5.99385 16.8319C5.96817 17.1086 5.88773 17.4115 5.88773 17.7179C5.88773 18.0245 5.96817 18.3347 6.04866 18.645C5.9439 18.5254 5.83919 18.4057 5.70174 18.1917C5.56425 17.9775 5.39408 17.6691 5.29496 17.3615C5.19584 17.0541 5.16775 16.7476 5.17996 16.4448C5.19217 16.142 5.24454 15.843 5.27726 15.7065C5.30997 15.5701 5.32303 15.5962 5.43375 15.6813L5.43364 15.6815ZM4.89896 16.0067C4.89798 16.0394 4.89237 16.0917 4.89151 16.2893C4.89054 16.487 4.89432 16.8301 4.86112 17.0371C4.82791 17.2441 4.75772 17.3151 4.67825 17.3445C4.59878 17.374 4.50991 17.3619 4.44265 17.318C4.37526 17.274 4.32949 17.1984 4.329 17.0526C4.32851 16.9068 4.37343 16.6908 4.47487 16.4951C4.57632 16.2992 4.7344 16.1235 4.81534 16.0422C4.89628 15.9609 4.89994 15.974 4.89908 16.0067H4.89896Z" fill="#B9F6D5"/>
<path fill-rule="evenodd" clip-rule="evenodd" d="M15.8005 9.53109C16.0748 9.48897 16.3491 9.44703 16.5192 9.42699C16.6893 9.40689 16.755 9.40875 16.7835 9.44073C16.8118 9.47265 16.8027 9.53475 16.7688 9.63705C16.735 9.73935 16.6764 9.88179 16.628 9.94569C16.5795 10.0095 16.541 9.99501 16.4222 9.92193C16.3033 9.84885 16.1039 9.71739 15.9868 9.64251C15.8699 9.56769 15.8351 9.54945 15.8003 9.53121L15.8005 9.53109Z" fill="#B9F6D5"/>
<path fill-rule="evenodd" clip-rule="evenodd" d="M15.3999 9.59995C15.6057 9.34914 15.8117 9.09834 15.9723 8.88477C16.1329 8.6712 16.2485 8.49493 16.3624 8.379C16.4763 8.26312 16.5884 8.20763 16.6648 8.20068C16.7411 8.19379 16.7817 8.23538 16.8381 8.3384C16.8946 8.44137 16.967 8.60591 16.9914 8.7059C17.0158 8.80588 16.9921 8.84151 16.8637 8.92275C16.7353 9.00406 16.5021 9.1308 16.2406 9.25127C15.9792 9.37174 15.6896 9.48581 15.3999 9.59995Z" fill="#B9F6D5"/>
<path fill-rule="evenodd" clip-rule="evenodd" d="M5.21808 8.18899C5.15324 8.40337 5.03177 8.82251 4.96184 9.2267C4.89179 9.63095 4.87329 10.0201 4.87377 10.3355C4.87425 10.6509 4.89361 10.8925 4.91309 11.1341C4.88804 11.0129 4.863 10.8916 4.79356 10.7679C4.724 10.6444 4.61003 10.5183 4.54845 10.4544C4.48676 10.3905 4.47756 10.3886 4.43776 10.4498C4.39795 10.5109 4.32742 10.6349 4.27189 10.9659C4.21624 11.2968 4.17547 11.8344 4.21624 12.3495C4.25701 12.8646 4.37932 13.3572 4.46509 13.5998C4.55087 13.8424 4.59999 13.8348 4.86518 13.7331C5.13049 13.6315 5.61175 13.4356 6.01547 13.1667C6.41914 12.8979 6.74512 12.556 6.91544 12.3348C7.08577 12.1135 7.10062 12.0129 7.0144 11.9689C6.92823 11.9247 6.74098 11.9369 6.49392 11.975C6.24687 12.013 5.94008 12.077 5.63316 12.1409C6.09664 11.8702 6.56024 11.5994 6.90868 11.3061C7.25706 11.0129 7.4906 10.697 7.63973 10.4281C7.78892 10.1593 7.85378 9.93743 7.88532 9.81717C7.91692 9.69679 7.91498 9.67801 7.79087 9.69401C7.66658 9.70995 7.42014 9.76072 7.14203 9.90457C6.86405 10.0484 6.55445 10.2852 6.38206 10.4235C6.2096 10.5617 6.17441 10.6012 6.13921 10.6407C6.20589 10.4489 6.27269 10.2571 6.43577 10.1124C6.59885 9.96763 6.85832 9.86998 7.18643 9.65843C7.51453 9.44683 7.9112 9.1217 8.24491 8.71831C8.57855 8.31511 8.84917 7.83372 9.00951 7.52736C9.16978 7.22095 9.21984 7.08927 9.16796 7.04041C9.11608 6.99162 8.96219 7.02534 8.75929 7.08278C8.55626 7.1401 8.30428 7.22095 8.05217 7.3018C8.33394 7.1401 8.6157 6.97846 8.953 6.7679C9.29042 6.55735 9.68331 6.29794 9.97622 6.00269C10.2691 5.70758 10.4619 5.37664 10.6176 5.08705C10.7733 4.79746 10.8918 4.54934 10.7852 4.46001C10.6786 4.37068 10.3469 4.44026 10.0151 4.50983C10.2616 4.25043 10.5081 3.9909 10.7361 3.63186C10.9642 3.27282 11.1736 2.81401 11.281 2.5254C11.3886 2.23679 11.3941 2.11838 11.3997 1.99997C11.1662 2.09212 10.9326 2.18415 10.6953 2.32527C10.4581 2.46626 10.2171 2.65621 9.97056 2.94752C9.72399 3.23895 9.47201 3.63186 9.21984 4.02477C9.26259 3.73898 9.30515 3.4532 9.29218 3.1355C9.27927 2.81782 9.21065 2.4681 9.16711 2.29324C9.12357 2.11838 9.10505 2.11838 8.95574 2.35815C8.80661 2.5978 8.52667 3.07722 8.3413 3.56977C8.15594 4.06231 8.06508 4.56812 7.97423 5.0738C7.92612 4.91023 7.87783 4.74666 7.80744 4.59438C7.73698 4.4421 7.64436 4.30111 7.59053 4.23816C7.53682 4.17521 7.5219 4.19018 7.41813 4.47032C7.31431 4.75046 7.12145 5.29565 7.01957 5.89263C6.91763 6.48959 6.90649 7.13812 6.89535 7.78671C6.87129 7.58184 6.84718 7.3769 6.77581 7.1522C6.70444 6.92757 6.58575 6.6831 6.52005 6.57032C6.45428 6.4576 6.44131 6.47637 6.37092 6.61917C6.30046 6.76204 6.17264 7.02905 6.07898 7.43836C5.98533 7.84774 5.92608 8.39954 5.86664 8.95135C5.78328 8.77001 5.69985 8.58854 5.60533 8.42264C5.51085 8.25674 5.40512 8.10629 5.34813 8.03581C5.29115 7.96528 5.2828 7.97473 5.21796 8.18911L5.21808 8.18899Z" fill="#328849"/>
</svg>
