<svg width="24" height="24" viewBox="0 0 24 24" fill="none" xmlns="http://www.w3.org/2000/svg">
<circle cx="12" cy="12" r="12" fill="#EDF0F4"/>
<path d="M6.49491 11.9528V10.4778H11.2556V8.96324H6.49491V7.49622H17.4971V8.97117H12.7364V10.4858H17.4971V11.9607H12.7364L17.521 19.05C19.6387 17.4085 21 14.8472 21 11.9686C21 7.0125 16.9717 3 12.004 3C7.02831 3 3 7.0125 3 11.9686C3 14.8472 4.36134 17.4085 6.47899 19.05L11.2636 11.9607C11.2636 11.9528 6.49491 11.9528 6.49491 11.9528Z" fill="#E3242D"/>
<path d="M7.6499 19.9126C8.92128 20.6082 10.3754 21 11.9249 21C13.4744 21 14.9285 20.6082 16.1999 19.9126L11.9249 13.5L7.6499 19.9126Z" fill="#E3242D"/>
</svg>
