<svg width="24" height="24" viewBox="0 0 24 24" fill="none" xmlns="http://www.w3.org/2000/svg">
<circle cx="12" cy="12" r="12" fill="#4FA784"/>
<path d="M19.0835 9.66149L13.0456 7.90561L10.9804 11.4755L8.58158 8.65208L9.66855 8.51004L10.789 9.84584L12.0323 7.61019L6.56026 6.01826C6.41063 5.97326 6.24871 6.01279 6.13562 6.12194C6.02254 6.23109 5.97551 6.39323 6.01231 6.54714L8.4364 16.4266L11.0399 11.978L13.4387 14.8014L12.3517 14.9435L11.232 13.6077L8.7677 17.776L9.13251 19.2644C9.17113 19.4181 9.28724 19.5393 9.43745 19.5828C9.58766 19.6264 9.74935 19.5857 9.86212 19.476L19.2651 10.4019C19.3782 10.2933 19.4248 10.1312 19.3872 9.97792C19.3496 9.82459 19.2335 9.70368 19.0835 9.66149Z" fill="white"/>
</svg>
