<svg width="24" height="24" viewBox="0 0 24 24" fill="none" xmlns="http://www.w3.org/2000/svg">
<circle cx="12" cy="12" r="12" fill="#EDF0F4"/>
<path fill-rule="evenodd" clip-rule="evenodd" d="M9.44587 9.99824C9.42466 10.1764 9.40345 10.363 9.39073 10.5496C9.06839 10.7744 8.76725 11.0034 8.48733 11.2325C8.34312 11.3512 8.20316 11.47 8.07167 11.593C7.03679 10.5369 6.59569 9.58683 6.87986 9.09908C7.1301 8.66646 7.96988 8.54346 9.14897 8.77674C9.19563 8.57315 9.24228 8.37805 9.29742 8.19143C7.86809 7.90302 6.77807 8.09388 6.36666 8.80219C6.25638 8.9888 6.20124 9.20087 6.20124 9.42566V9.44687C6.20973 10.4521 7.19796 11.7966 8.84784 13.0647C9.01749 13.1962 9.19987 13.3277 9.38649 13.4592C9.42042 13.8706 9.47132 14.265 9.53494 14.634C9.56463 14.7994 9.59431 14.9606 9.62825 15.1175C8.19891 15.4865 7.15979 15.3932 6.87562 14.9055C6.62538 14.4729 6.93924 13.6797 7.72813 12.7763L7.31672 12.3437C6.34121 13.4465 5.951 14.4941 6.36241 15.2066C6.65083 15.7071 7.2743 15.9446 8.11409 15.9446C8.95811 15.9446 10.0184 15.7028 11.1806 15.2321C11.2103 15.2193 11.24 15.2066 11.2739 15.1939C11.4775 15.1091 11.6811 15.02 11.8889 14.9224C11.8974 14.9182 11.9058 14.914 11.9143 14.9097C12.2833 15.0794 12.6481 15.2321 13.0086 15.3635C13.1655 15.4229 13.3225 15.4738 13.4751 15.5247C13.0807 16.9498 12.4784 17.8065 11.9143 17.8065C11.4138 17.8065 10.8837 17.1364 10.4977 15.9913C10.3026 16.0591 10.1118 16.1185 9.9209 16.1694C10.3874 17.5521 11.0957 18.4003 11.9143 18.4003C13.1061 18.4003 14.0562 16.6105 14.3828 14.0021C14.404 13.8239 14.421 13.6373 14.4379 13.4549C14.773 13.2217 15.0868 12.9799 15.3795 12.7339C15.3965 12.7212 15.4134 12.7085 15.4304 12.6915C15.5407 12.5982 15.6467 12.5049 15.7527 12.4073C16.7919 13.4592 17.233 14.4135 16.9488 14.9012C16.7155 15.3042 15.9478 15.4399 14.896 15.266C14.8239 15.2533 14.756 15.2405 14.6839 15.2278C14.6373 15.4272 14.5906 15.618 14.5355 15.8046C14.6245 15.8216 14.7136 15.8386 14.7984 15.8513C15.1335 15.9064 15.4431 15.9361 15.7273 15.9361C16.5798 15.9361 17.1863 15.6859 17.4662 15.2024C17.8395 14.5577 17.568 13.6203 16.6986 12.5685C16.249 12.0214 15.6637 11.47 14.9851 10.9441C14.8112 10.8083 14.6288 10.6769 14.4464 10.5454C14.4125 10.134 14.3616 9.73952 14.2937 9.36628C14.264 9.20087 14.2343 9.0397 14.2004 8.88277C14.4422 8.81915 14.6754 8.76826 14.9002 8.73008C15.9521 8.55619 16.7198 8.69191 16.953 9.09484C17.199 9.51897 16.8979 10.2951 16.1345 11.1816C16.2829 11.3258 16.4186 11.47 16.5459 11.61C16.601 11.5506 16.6519 11.487 16.6986 11.4276C17.5638 10.3757 17.8395 9.43839 17.4662 8.7937C17.093 8.14902 16.1472 7.91575 14.8027 8.14054C14.1792 8.24233 13.4963 8.44167 12.788 8.71312C12.7584 8.72584 12.7329 8.73432 12.7032 8.74705C12.4657 8.84036 12.2282 8.94215 11.9907 9.05243C11.9695 9.06091 11.9483 9.07363 11.9271 9.08211C11.5538 8.90822 11.1848 8.75129 10.8285 8.61981C10.6716 8.56043 10.5147 8.50953 10.362 8.45864C10.7564 7.03779 11.3587 6.18104 11.9228 6.18104C12.4233 6.18104 12.9577 6.85541 13.3437 8.00057C13.5388 7.93695 13.7296 7.87757 13.9205 7.82244C13.4412 6.45248 12.7329 5.59998 11.9101 5.59998C10.7225 5.59998 9.76821 7.38982 9.44587 9.99824ZM13.2376 9.78192C13.2292 9.77344 13.2164 9.7692 13.208 9.76495C13.0086 9.65044 12.805 9.54016 12.6099 9.43413C12.6269 9.42565 12.6439 9.41716 12.6608 9.41292C12.9026 9.31113 13.1443 9.21782 13.3776 9.13724C13.4582 9.10755 13.5388 9.0821 13.6151 9.05665C13.6491 9.21358 13.6787 9.37051 13.7084 9.53592C13.7424 9.72678 13.7678 9.92188 13.7933 10.1212C13.6109 10.0067 13.4243 9.89219 13.2376 9.78192ZM10.1117 9.55713C10.1414 9.38323 10.1711 9.21782 10.2093 9.05665C10.3662 9.10755 10.5231 9.15844 10.6843 9.22206C10.8582 9.28568 11.0364 9.35779 11.2187 9.43413C11.0194 9.54016 10.8158 9.65044 10.6165 9.76495C10.608 9.7692 10.5995 9.77344 10.591 9.78192C10.4002 9.89219 10.2135 10.0067 10.0312 10.1212C10.0566 9.92612 10.082 9.73951 10.1117 9.55713ZM10.9133 13.7306C10.7691 13.65 10.6291 13.5652 10.4934 13.4804C10.3068 13.3659 10.1286 13.2513 9.95476 13.1326C9.92931 12.7721 9.91658 12.3946 9.91658 12.0044C9.91658 11.8008 9.92082 11.6015 9.92931 11.4064C9.93779 11.224 9.94627 11.0501 9.959 10.8762C10.2601 10.6726 10.5782 10.4733 10.9133 10.2782C11.0405 10.2018 11.172 10.1297 11.2993 10.0619C11.5028 9.95159 11.7064 9.8498 11.91 9.748C12.2366 9.90493 12.5674 10.0831 12.9067 10.2782C13.0509 10.363 13.1909 10.4436 13.3266 10.5284C13.5132 10.6429 13.6914 10.7574 13.8653 10.8762C13.8907 11.2367 13.9034 11.6142 13.9034 12.0044C13.9034 12.208 13.8992 12.4073 13.8907 12.6024C13.8822 12.7806 13.8738 12.9587 13.861 13.1326C13.5599 13.3362 13.2418 13.5355 12.9067 13.7306C12.8177 13.7815 12.7328 13.8324 12.6438 13.8791C12.419 14.0063 12.1942 14.1208 11.9736 14.2311C11.9524 14.2396 11.9312 14.2523 11.91 14.2608C11.5792 14.0996 11.2441 13.9215 10.9133 13.7306ZM8.81818 12.2758C8.7079 12.1868 8.60611 12.0934 8.50432 12.0044C8.64428 11.8814 8.78849 11.7541 8.94118 11.6311C9.06842 11.5293 9.1999 11.4233 9.33986 11.3215C9.33138 11.4912 9.32714 11.6651 9.32714 11.839C9.32714 11.8941 9.32714 11.9492 9.32714 12.0044C9.32714 12.2376 9.33138 12.4624 9.33986 12.6872C9.15749 12.5515 8.97935 12.4158 8.81818 12.2758ZM14.4972 12.174C14.4972 12.1189 14.4972 12.0638 14.4972 12.0044C14.4972 11.7711 14.4929 11.5463 14.4844 11.3215C14.6668 11.4572 14.8407 11.5972 15.0061 11.7329C15.1122 11.822 15.2182 11.9153 15.3157 12.0044C15.2055 12.1019 15.091 12.2037 14.9722 12.3013C14.9552 12.314 14.9383 12.331 14.9213 12.3437C14.7813 12.4582 14.6329 12.577 14.4802 12.6915C14.4887 12.5218 14.4972 12.3479 14.4972 12.174ZM10.116 14.4729C10.082 14.282 10.0566 14.0869 10.0312 13.8876C10.2135 14.0021 10.3959 14.1124 10.5868 14.2226C10.5953 14.2311 10.608 14.2354 10.6165 14.2396C10.8158 14.3541 11.0151 14.4644 11.2187 14.5704C11.2187 14.5704 11.2145 14.5704 11.2145 14.5747C11.0024 14.6637 10.7946 14.7443 10.591 14.8207C10.5613 14.8334 10.5316 14.8419 10.5019 14.8546C10.4044 14.8885 10.3068 14.9225 10.2093 14.9521C10.1754 14.7995 10.1457 14.6383 10.116 14.4729ZM13.1399 14.7867C12.9618 14.7188 12.7836 14.651 12.6013 14.5746C12.6267 14.5619 12.6522 14.5492 12.6776 14.5365C12.8515 14.4432 13.0254 14.3456 13.2035 14.2481C13.2544 14.2184 13.3053 14.1887 13.352 14.159C13.5004 14.0699 13.6446 13.9809 13.7888 13.8918C13.7634 14.0826 13.7379 14.2735 13.7083 14.4516C13.6786 14.6255 13.6446 14.7909 13.6107 14.9564C13.458 14.9012 13.3011 14.8461 13.1399 14.7867ZM11.1465 12.0044C11.1465 11.5845 11.49 11.2409 11.9099 11.2409C12.3298 11.2409 12.6734 11.5845 12.6734 12.0044C12.6734 12.4243 12.3298 12.7678 11.9099 12.7678C11.49 12.7678 11.1465 12.4243 11.1465 12.0044Z" fill="url(#paint0_linear_300_16968)"/>
<defs>
<linearGradient id="paint0_linear_300_16968" x1="7.02809" y1="17.4254" x2="17.0788" y2="17.7768" gradientUnits="userSpaceOnUse">
<stop stop-color="#6B57A5"/>
<stop offset="1" stop-color="#59499E"/>
</linearGradient>
</defs>
</svg>
