<svg width="24" height="24" viewBox="0 0 24 24" fill="none" xmlns="http://www.w3.org/2000/svg">
<path fill-rule="evenodd" clip-rule="evenodd" d="M12 24C5.4 24 0 18.6001 0 11.9402C0.06 5.34038 5.4 -0.0595036 12.06 0.000495204C18.66 0.060494 24 5.40038 24 12.1202C23.94 18.6601 18.6 24 12 24Z" fill="black"/>
<path fill-rule="evenodd" clip-rule="evenodd" d="M7.24223 6.25692C7.20593 6.26256 7.16525 6.2877 7.15181 6.31272C7.12529 6.36228 7.11491 20.0014 7.14137 20.0702C7.16963 20.1439 7.24997 20.1481 8.79317 20.1548C10.17 20.1609 10.3567 20.1574 10.4072 20.1243L10.4642 20.0869V17.6864V15.2858L10.5197 15.2303L10.5752 15.1748L11.8697 15.1618C13.2136 15.1483 13.7024 15.1154 14.1242 15.0098C14.2034 14.99 14.3534 14.9581 14.4574 14.9389C14.5615 14.9197 14.6816 14.8823 14.7243 14.856C14.767 14.8296 14.8196 14.808 14.8413 14.808C14.9315 14.808 15.7208 14.435 15.8603 14.3265C15.8954 14.2991 16.0041 14.2183 16.1017 14.147C16.4531 13.8899 17.1602 13.1032 17.1602 12.9692C17.1602 12.9616 17.1804 12.9268 17.2051 12.8917C17.2298 12.8567 17.2577 12.801 17.2671 12.768C17.2765 12.735 17.3092 12.654 17.3397 12.588C17.4881 12.2671 17.5202 12.1868 17.5204 12.1375C17.5204 12.1081 17.5471 12.0084 17.5797 11.916C17.7685 11.3811 17.7531 10.0936 17.5493 9.36C17.4482 8.99652 17.2043 8.43228 17.0819 8.27892C17.0524 8.24196 16.9688 8.12814 16.8962 8.02602C16.8236 7.9239 16.6994 7.77054 16.6202 7.68528C16.2025 7.23552 15.4539 6.76794 14.9011 6.61164C14.84 6.59436 14.7556 6.56238 14.7134 6.5406C14.6714 6.51888 14.554 6.48534 14.4526 6.46614C14.3512 6.44688 14.2195 6.41514 14.1598 6.39552C14.1002 6.3759 13.9328 6.34854 13.7878 6.33474C13.6429 6.32088 13.427 6.29748 13.3082 6.28272C13.0996 6.25674 7.39907 6.2325 7.24223 6.25692ZM13.0642 9.01313C14.1143 9.25253 14.6364 10.4429 14.1696 11.5333C13.8253 12.3372 13.3757 12.504 11.5529 12.504H10.5639L10.5137 12.4402C10.4496 12.3586 10.4454 9.06875 10.5094 8.99165C10.5726 8.91551 12.7149 8.93351 13.0642 9.01313Z" fill="#F8F8F8"/>
<path fill-rule="evenodd" clip-rule="evenodd" d="M7.28202 2.7354C7.25454 2.74644 7.20324 2.7897 7.16802 2.83158L7.104 2.90766V3.8043C7.104 4.78146 7.10724 4.80774 7.2351 4.86114C7.35096 4.90956 17.4333 4.91058 17.568 4.86216C17.7106 4.81092 17.7113 4.8063 17.7116 3.8088C17.7121 2.81118 17.7091 2.78874 17.5691 2.74002C17.4808 2.70918 7.35852 2.70462 7.28202 2.7354Z" fill="#DE0B14"/>
</svg>
