<svg width="25" height="24" viewBox="0 0 25 24" fill="none" xmlns="http://www.w3.org/2000/svg">
<path d="M23.641 14.9029C22.0381 21.3315 15.5262 25.2438 9.09606 23.6407C2.66863 22.0381 -1.24415 15.5265 0.359423 9.09837C1.96159 2.66903 8.47349 -1.24361 14.9016 0.359081C21.3313 1.96177 25.2438 8.47405 23.6408 14.903L23.6409 14.9029H23.641Z" fill="#23292F"/>
<path d="M17.9026 5H20.3245L15.2844 9.98976C13.4592 11.7958 10.4999 11.7958 8.67338 9.98976L3.63135 5H6.05516L9.88431 8.79043C11.0452 9.93443 12.9096 9.93443 14.0705 8.79043L17.9026 5Z" fill="white"/>
<path d="M6.02408 18.875H3.60059L8.67339 13.8545C10.4986 12.0484 13.4579 12.0484 15.2844 13.8545L20.3572 18.875H17.9353L14.0735 15.0538C12.9126 13.9098 11.0481 13.9098 9.88726 15.0538L6.02408 18.875Z" fill="white"/>
</svg>
