<svg width="24" height="24" viewBox="0 0 24 24" fill="none" xmlns="http://www.w3.org/2000/svg">
<path fill-rule="evenodd" clip-rule="evenodd" d="M12 0C18.6264 0 24 5.3736 24 12C24 18.6264 18.6264 24 12 24C5.3736 24 0 18.6264 0 12C0 5.3736 5.3736 0 12 0Z" fill="#383B4A"/>
<path fill-rule="evenodd" clip-rule="evenodd" d="M18.7271 12.732L18.2375 13.2216C12.6743 7.6824 6.50387 10.7616 5.03027 11.628C5.08244 11.4649 5.17297 11.3168 5.29427 11.196L11.2415 5.2488C11.445 5.04485 11.7213 4.93024 12.0095 4.93024C12.2976 4.93024 12.5739 5.04485 12.7775 5.2488L18.7247 11.196C18.9295 11.3989 19.0449 11.6752 19.0453 11.9635C19.0458 12.2518 18.9312 12.5284 18.7271 12.732Z" fill="white"/>
<path fill-rule="evenodd" clip-rule="evenodd" d="M14.1263 17.3328L12.7799 18.6792C12.5764 18.8832 12.3001 18.9978 12.0119 18.9978C11.7238 18.9978 11.4475 18.8832 11.2439 18.6792L9.95752 17.3928C12.0263 15.9288 13.7951 17.0856 14.1263 17.3328Z" fill="white"/>
<path fill-rule="evenodd" clip-rule="evenodd" d="M17.9348 13.524L16.3988 15.06C11.834 10.8264 7.25478 13.5528 6.56838 14.004L6.22998 13.6656C6.23453 13.6631 6.2386 13.6599 6.24198 13.656C12.2228 8.86075 17.4284 13.0896 17.9348 13.524Z" fill="white"/>
<path fill-rule="evenodd" clip-rule="evenodd" d="M8.57077 16.008L8.20117 15.6384C11.7508 12.4032 15.6508 15.156 16.0276 15.4344L14.458 17.004C11.6476 14.2992 9.04117 15.7128 8.57077 16.008Z" fill="white"/>
</svg>
