<svg width="25" height="24" viewBox="0 0 25 24" fill="none" xmlns="http://www.w3.org/2000/svg">
<path d="M24.6334 14.9029C23.0307 21.3315 16.5196 25.2438 10.0902 23.6407C3.66345 22.0381 -0.248891 15.5265 1.3545 9.09837C2.95648 2.66903 9.46765 -1.24361 15.8951 0.359081C22.324 1.96177 26.2361 8.47405 24.6332 14.903L24.6333 14.9029H24.6334Z" fill="#2C7DF7"/>
<path d="M14.7853 20C13.6436 20 12.8102 19.725 12.2853 19.175C11.799 18.7094 11.5168 18.0702 11.5003 17.3972C11.4944 17.1927 11.5418 16.9902 11.6378 16.8096C11.7274 16.6536 11.8568 16.5241 12.0128 16.4344C12.3804 16.2511 12.8127 16.2511 13.1803 16.4344C13.336 16.5237 13.4648 16.6533 13.5531 16.8096C13.6519 16.9894 13.7011 17.1922 13.6955 17.3972C13.7057 17.6421 13.6355 17.8835 13.4956 18.0847C13.3789 18.2489 13.2122 18.3709 13.0204 18.4324C13.208 18.6712 13.4734 18.8367 13.7704 18.9C14.1027 18.9965 14.4468 19.0461 14.7928 19.0474C15.251 19.0514 15.6996 18.9172 16.0804 18.6624C16.4753 18.3834 16.7699 17.9845 16.9203 17.525C17.1111 16.978 17.2042 16.4017 17.1953 15.8225C17.2107 15.2186 17.1088 14.6175 16.8953 14.0525C16.7347 13.6005 16.4299 13.214 16.0278 12.9525C15.6541 12.716 15.2203 12.5919 14.7781 12.595C14.3927 12.6276 14.0211 12.7538 13.6955 12.9625L12.8928 13.365V12.9625L16.5003 8.12303H11.5003V13.145C11.4862 13.5074 11.5821 13.8656 11.7753 14.1725C11.9655 14.4445 12.2842 14.5972 12.6153 14.575C12.9161 14.5689 13.2071 14.4663 13.4452 14.2825C13.7152 14.0846 13.9502 13.8429 14.1403 13.5674C14.1574 13.5191 14.189 13.4773 14.2307 13.4475C14.2642 13.4186 14.3069 13.4026 14.3512 13.4025C14.4381 13.4105 14.5203 13.4454 14.5862 13.5025C14.6698 13.5958 14.7153 13.7172 14.7137 13.8424C14.704 13.9267 14.689 14.0102 14.6687 14.0924C14.4911 14.5224 14.1934 14.892 13.8111 15.1571C13.4562 15.3973 13.0369 15.5247 12.6083 15.5225C11.5258 15.5225 10.7758 15.3092 10.3584 14.8825C9.92509 14.4061 9.70164 13.7754 9.73844 13.1324V8.12303H7.19531V7.18995H9.75029V5.06245L9.16533 4.47709V4H10.8628L11.5003 4.33004V7.18995L18.1052 7.16986L18.7628 7.82985L14.7128 11.8995C14.9575 11.8011 15.2151 11.7388 15.4777 11.7145C15.9975 11.7373 16.5046 11.8821 16.958 12.1371C17.4831 12.3867 17.9256 12.7816 18.2331 13.275C18.5086 13.6926 18.7036 14.1581 18.8081 14.6475C18.894 15.0334 18.9401 15.4272 18.9456 15.8226C18.9483 16.5772 18.7772 17.3222 18.4456 18C18.1312 18.6564 17.6019 19.1856 16.9456 19.5001C16.2737 19.8312 15.5343 20.0023 14.7853 20Z" fill="white"/>
</svg>
