<svg width="24" height="24" viewBox="0 0 24 24" fill="none" xmlns="http://www.w3.org/2000/svg">
<circle cx="12" cy="12" r="12" fill="#25AAE3"/>
<path fill-rule="evenodd" clip-rule="evenodd" d="M20.3998 12.1C20.3998 16.6838 16.6837 20.4 12.0998 20.4C7.51594 20.4 3.7998 16.6838 3.7998 12.1C3.7998 7.51535 7.51594 3.79997 12.0998 3.79997C16.6837 3.79997 20.3998 7.51611 20.3998 12.1ZM17.5551 12.3609C17.5576 12.3158 17.5577 12.314 17.5572 12.3137C17.5571 12.3137 17.5571 12.3137 17.5571 12.3137C17.5564 12.3135 17.5551 12.3131 17.5551 12.2652C17.5551 9.54358 15.5442 7.12602 12.9358 6.71932V5.13477L11.2456 5.66144V6.72007C8.63864 7.12602 6.64136 9.37607 6.64136 12.0962C6.64136 14.8805 8.73145 17.1743 11.4282 17.5025V19.0629L13.1184 18.5363V17.4452C15.0157 17.0783 16.5774 15.7351 17.2239 13.9139H15.4726C14.8058 15.1611 13.5064 15.9399 12.0922 15.9399C10.0782 15.9384 8.40686 14.3826 8.26137 12.3739L17.5551 12.3611L17.5551 12.3609ZM12.0923 8.25255C10.5127 8.25244 9.09387 9.21895 8.51574 10.689L8.5165 10.6897H15.6666C15.0886 9.22045 13.6711 8.25391 12.0923 8.25255Z" fill="white"/>
</svg>
