<svg width="24" height="24" viewBox="0 0 24 24" fill="none" xmlns="http://www.w3.org/2000/svg">
<circle cx="12" cy="12" r="12" fill="#EDF0F4"/>
<path d="M14.6743 10.8686V11.76H17.1429C17.1086 11.52 17.1086 11.1086 17.0057 10.8686H14.6743Z" fill="#40506B"/>
<path d="M17.1428 12.3428H14.2285V13.2343H17.0057C17.1085 12.96 17.1085 12.5828 17.1428 12.3428Z" fill="#40506B"/>
<path d="M6.78851 13.2H9.56565V12.3086H6.65137C6.68565 12.5829 6.68565 12.96 6.78851 13.2Z" fill="#40506B"/>
<path d="M6.78851 10.8686C6.75422 11.1086 6.68565 11.4857 6.65137 11.76H9.11994V10.8686H6.78851Z" fill="#40506B"/>
<path d="M11.8627 11.8971C11.7255 12.4114 11.5541 12.9257 11.417 13.44C11.2798 13.9543 11.1084 14.4686 10.937 14.9829H9.73696C9.59982 14.6743 9.46267 14.3657 9.32553 13.9543C9.18839 13.5771 9.01696 13.1314 8.87982 12.6514C8.74267 12.2057 8.57124 11.6914 8.39982 11.1429C8.22839 10.5943 8.09124 10.1143 7.9541 9.53142H9.56553C9.59982 9.77142 9.70267 10.0457 9.73696 10.32C9.80553 10.6286 9.8741 10.9029 9.94267 11.2114C10.0112 11.52 10.0798 11.8286 10.1484 12.1371C10.217 12.4457 10.3198 12.7543 10.3884 13.0286C10.4912 12.72 10.5598 12.4114 10.6627 12.1029C10.7655 11.7943 10.8341 11.4857 10.9027 11.1771C10.9712 10.8686 11.0398 10.56 11.1084 10.2857C11.177 9.97714 11.2455 9.73714 11.3141 9.49714H12.4455C12.4798 9.73714 12.5827 10.0114 12.6512 10.2857C12.7198 10.5943 12.7884 10.8686 12.857 11.1771C12.9255 11.4857 12.9941 11.7943 13.097 12.1029C13.1655 12.4114 13.2684 12.72 13.3712 13.0286C13.4398 12.72 13.5427 12.4457 13.6112 12.1371C13.6798 11.8286 13.7827 11.52 13.8512 11.2114C13.9198 10.9029 13.9884 10.5943 14.057 10.32C14.1255 10.0114 14.1941 9.77142 14.2284 9.53142H15.8398C15.7027 10.08 15.5312 10.5943 15.3941 11.1429C15.2227 11.6914 15.0855 12.1714 14.9141 12.6514C14.777 13.0971 14.6055 13.5429 14.4684 13.9543C14.3312 14.3314 14.1941 14.7086 14.057 14.9829H12.857C12.6855 14.4686 12.5141 13.9543 12.3427 13.44C12.1712 12.9257 12.0341 12.4457 11.8627 11.8971Z" fill="#40506B"/>
<path fill-rule="evenodd" clip-rule="evenodd" d="M4.7998 12C4.7998 15.9771 8.02266 19.2 11.9998 19.2C15.977 19.2 19.1998 15.9771 19.1998 12C19.1998 8.02285 15.977 4.8 11.9998 4.8C8.02266 4.8 4.7998 8.02285 4.7998 12ZM5.82845 12C5.82845 8.60571 8.60559 5.82857 11.9999 5.82857C15.3942 5.82857 18.1713 8.60571 18.1713 12C18.1713 15.3943 15.3942 18.1714 11.9999 18.1714C8.60559 18.1714 5.82845 15.3943 5.82845 12Z" fill="#40506B"/>
</svg>
