<svg width="24" height="24" viewBox="0 0 24 24" fill="none" xmlns="http://www.w3.org/2000/svg">
<circle cx="12" cy="12" r="12" fill="#EDF0F4"/>
<path d="M13.8802 17.6445L10.1719 17.5848V11.8315L11.9813 9.40805L13.8802 11.8315V17.6445Z" fill="url(#paint0_linear_300_11857)"/>
<path d="M13.7438 11.9069L10.7407 11.563L11.8904 8.70754L11.925 8.68712L16.9243 5.80029L18.7259 9.02952L13.7438 11.9069Z" fill="url(#paint1_linear_300_11857)"/>
<path d="M10.1765 11.9949L5.14258 9.08765L7.04934 5.96207L12.0471 8.87561L13.2251 11.5598L10.1765 11.9949Z" fill="url(#paint2_linear_300_11857)"/>
<path d="M11.9814 18.1597C11.295 18.1597 10.7704 18.0513 10.45 17.9602C10.2333 17.8989 10.0825 17.6963 10.0825 17.4702L10.0809 11.874C10.0715 11.0557 9.73537 10.3599 9.11026 9.8604C8.25112 9.17717 6.91293 8.92744 5.62029 9.21015C5.43496 9.25099 5.24962 9.18973 5.12538 9.04681C5.00146 8.90388 4.96691 8.71226 5.03287 8.53478C5.18051 8.13898 5.36899 7.66935 5.64699 7.18874C5.99096 6.59347 6.3475 6.19452 6.58624 5.96364C6.74801 5.80657 6.99932 5.77673 7.19565 5.88982L11.9186 8.61645L11.9201 8.61331L12.0458 8.6887V8.69027C12.7683 9.09078 13.5332 9.14576 14.2745 8.85362C15.2954 8.45153 16.1797 7.41805 16.5834 6.15683C16.6415 5.9762 16.786 5.84584 16.9729 5.80972C17.1582 5.77359 17.342 5.83956 17.4629 5.98563C17.7315 6.31075 18.0441 6.70969 18.3221 7.19031C18.666 7.78558 18.8341 8.29447 18.9142 8.61645C18.9692 8.83477 18.8702 9.06722 18.6739 9.18031L13.9227 11.9242L13.7939 11.9996C13.1044 12.419 12.6803 13.0582 12.5672 13.8451C12.4117 14.9257 12.8657 16.2011 13.7515 17.1749C13.8787 17.3162 13.918 17.5063 13.8567 17.6853C13.7955 17.8644 13.6463 17.99 13.4594 18.0214C13.0369 18.0874 12.5358 18.1597 11.9814 18.1597Z" fill="#44004E"/>
<defs>
<linearGradient id="paint0_linear_300_11857" x1="15.4167" y1="12.8172" x2="9.5811" y2="10.9957" gradientUnits="userSpaceOnUse">
<stop stop-color="#44004E"/>
<stop offset="0.1" stop-color="#4C0056"/>
<stop offset="0.3" stop-color="#83008A"/>
<stop offset="0.5" stop-color="#EA00EB"/>
<stop offset="0.6" stop-color="#FF00FF"/>
<stop offset="1" stop-color="#FF00FF"/>
</linearGradient>
<linearGradient id="paint1_linear_300_11857" x1="12.1908" y1="4.4307" x2="10.06" y2="11.9007" gradientUnits="userSpaceOnUse">
<stop stop-color="#44004E"/>
<stop offset="0.1" stop-color="#4C0056"/>
<stop offset="0.3" stop-color="#83008A"/>
<stop offset="0.5" stop-color="#EA00EB"/>
<stop offset="0.6" stop-color="#FF00FF"/>
<stop offset="1" stop-color="#FF00FF"/>
</linearGradient>
<linearGradient id="paint2_linear_300_11857" x1="5.47245" y1="12.1395" x2="13.332" y2="11.2766" gradientUnits="userSpaceOnUse">
<stop stop-color="#44004E"/>
<stop offset="0.1" stop-color="#4C0056"/>
<stop offset="0.3" stop-color="#83008A"/>
<stop offset="0.5" stop-color="#EA00EB"/>
<stop offset="0.6" stop-color="#FF00FF"/>
<stop offset="1" stop-color="#FF00FF"/>
</linearGradient>
</defs>
</svg>
