<svg width="24" height="24" viewBox="0 0 24 24" fill="none" xmlns="http://www.w3.org/2000/svg">
<circle cx="12" cy="12" r="12" fill="#EDF0F4"/>
<path fill-rule="evenodd" clip-rule="evenodd" d="M8.49951 6L5 12.0618L8.49951 18.1236H15.4998L15.6156 17.9263L19 12.0645L15.4998 6H8.49951ZM9.16689 6.80302H14.3514L10.9426 7.88096C11.0049 7.98227 11.0494 8.09348 11.0742 8.2098L14.9979 6.9727L15.7812 10.7793C15.8958 10.7464 16.0144 10.7292 16.1337 10.728L15.476 7.57711L17.9666 11.8869H17.4655C17.472 11.9454 17.4753 12.0042 17.4753 12.0631C17.4754 12.122 17.4722 12.1809 17.4655 12.2394H17.9666L15.3951 16.6952L16.1133 13.3982C15.9959 13.3954 15.8794 13.3772 15.7667 13.3443L14.9196 17.2246L11.0807 15.9401C11.0602 16.0548 11.0225 16.1656 10.9689 16.269L14.0929 17.316H9.16689L9.42996 16.8655C9.31952 16.8239 9.21512 16.7677 9.11954 16.6985L8.86107 17.1444L6.40596 12.8925L8.83937 15.0404C8.9064 14.9427 8.986 14.8543 9.07613 14.7774L6.01266 12.0723L9.18991 9.25288C9.10574 9.16956 9.03496 9.07372 8.98011 8.96876L6.38491 11.2706L8.86107 6.97928L9.22674 7.61657C9.31619 7.53763 9.41736 7.47306 9.52664 7.42519L9.16689 6.80302ZM10.8484 9.15818C10.9237 9.06699 10.9833 8.96385 11.0247 8.85302L15.1121 11.2147C15.0368 11.3054 14.9742 11.4058 14.926 11.5133L10.8484 9.15818ZM9.70929 9.54423V14.4985C9.76313 14.4913 9.81741 14.4878 9.87173 14.488C9.93536 14.4872 9.99895 14.4919 10.0618 14.5018V9.56923C10.0335 9.57085 10.0052 9.57085 9.97696 9.56923C9.88684 9.5694 9.797 9.55902 9.70929 9.53831V9.54423ZM10.8443 14.9661L14.9272 12.611V12.6084C14.9754 12.7157 15.038 12.8159 15.1133 12.9063L11.0206 15.2739C10.9772 15.1633 10.9178 15.0595 10.8443 14.9661Z" fill="black"/>
<path fill-rule="evenodd" clip-rule="evenodd" d="M8.93922 8.02259C9.1139 7.60297 9.52448 7.33019 9.979 7.33178C10.5953 7.33466 11.0942 7.83355 11.0971 8.44984C11.0986 8.90436 10.8259 9.31494 10.4062 9.48961C9.98663 9.66429 9.50308 9.56854 9.18169 9.24715C8.86029 8.92575 8.76455 8.4422 8.93922 8.02259ZM10.6903 8.15944C10.5712 7.87182 10.2906 7.68427 9.97932 7.68427C9.77509 7.68339 9.57896 7.76409 9.43448 7.90844C9.29 8.0528 9.20913 8.24886 9.20984 8.45309C9.20957 8.76438 9.39688 9.04517 9.6844 9.16447C9.97191 9.28378 10.303 9.21811 10.5232 8.99809C10.7434 8.77807 10.8094 8.44705 10.6903 8.15944Z" fill="black"/>
<path fill-rule="evenodd" clip-rule="evenodd" d="M8.73236 15.2475C8.92354 14.787 9.37344 14.4872 9.87202 14.488C10.5507 14.4894 11.1004 15.0392 11.1019 15.7179C11.1027 16.2164 10.8028 16.6663 10.3424 16.8575C9.88188 17.0487 9.35157 16.9434 8.99902 16.5909C8.64646 16.2383 8.54119 15.708 8.73236 15.2475ZM9.87296 14.8372C10.2293 14.8368 10.5508 15.051 10.6876 15.38C10.8246 15.7094 10.7496 16.0888 10.4976 16.3412C10.2456 16.5936 9.86623 16.6692 9.53669 16.5327C9.20716 16.3962 8.99239 16.0745 8.99266 15.7178C8.99231 15.4841 9.08506 15.2598 9.25043 15.0945C9.41557 14.9295 9.63954 14.837 9.87296 14.8372Z" fill="black"/>
<path fill-rule="evenodd" clip-rule="evenodd" d="M14.9089 11.5495C15.1161 11.0507 15.6036 10.7259 16.1437 10.7267H16.1418C16.8785 10.7282 17.4754 11.3251 17.4769 12.0618C17.4769 12.602 17.1514 13.0889 16.6522 13.2955C16.1531 13.502 15.5787 13.3874 15.197 13.0052C14.8153 12.6229 14.7016 12.0484 14.9089 11.5495ZM17.1263 12.0618C17.1263 11.5191 16.6863 11.0792 16.1437 11.0792C15.8828 11.0782 15.6322 11.1814 15.4477 11.3659C15.2632 11.5504 15.1601 11.8009 15.1611 12.0618C15.1611 12.6045 15.601 13.0444 16.1437 13.0444C16.6863 13.0444 17.1263 12.6045 17.1263 12.0618Z" fill="black"/>
</svg>
