<svg width="24" height="24" viewBox="0 0 24 24" fill="none" xmlns="http://www.w3.org/2000/svg">
<circle cx="12" cy="12" r="12" fill="#21A5DE"/>
<path d="M16.2176 12.4313C16.4726 12.7043 16.6271 13.068 16.6271 13.467C16.6271 14.3137 15.9311 15 15.0731 15C14.2158 15 13.5206 14.3137 13.5206 13.467C13.5206 13.068 13.6751 12.7043 13.9286 12.4313C13.7618 12.5591 13.5373 12.5823 13.3479 12.4912C13.1585 12.4001 13.0365 12.2101 13.0323 12C13.0321 11.8774 13.0737 11.7584 13.1501 11.6625C12.8733 11.913 12.5051 12.066 12.1001 12.066C11.6951 12.066 11.3268 11.913 11.0501 11.6625C11.1265 11.7584 11.168 11.8774 11.1678 12C11.1678 12.3023 10.9203 12.5475 10.6128 12.5475C10.4894 12.5476 10.3693 12.5067 10.2716 12.4313C10.5251 12.7043 10.6803 13.068 10.6803 13.467C10.6803 14.3137 9.98435 15 9.1271 15C8.2691 15 7.5731 14.3137 7.5731 13.467C7.5731 13.068 7.72835 12.7043 7.98185 12.4313C7.81507 12.5591 7.59051 12.5823 7.40112 12.4912C7.21173 12.4001 7.08972 12.2101 7.0856 12C7.0854 11.8774 7.12692 11.7584 7.20335 11.6625C6.9266 11.913 6.55835 12.066 6.15335 12.066C5.29535 12.066 4.6001 11.3798 4.6001 10.533C4.6001 9.68625 5.29535 9 6.15335 9C7.01135 9 7.7066 9.68625 7.7066 10.533C7.70676 10.9176 7.56063 11.2879 7.29785 11.5688C7.46463 11.4404 7.68948 11.417 7.87915 11.5082C8.06881 11.5993 8.19093 11.7896 8.19485 12C8.19505 12.1226 8.15352 12.2416 8.0771 12.3375C8.3531 12.087 8.7221 11.934 9.1271 11.934C9.5321 11.934 9.8996 12.087 10.1771 12.3375C10.1004 12.2417 10.0586 12.1227 10.0586 12C9.85058 11.8399 9.78247 11.5564 9.8951 11.3193C10.0077 11.0822 10.2705 10.9558 10.5261 11.0159C10.7816 11.076 10.9605 11.3063 10.9556 11.5688C10.6929 11.2878 10.5468 10.9176 10.5468 10.533C10.5468 9.68625 11.2421 9 12.1001 9C12.9581 9 13.6533 9.68625 13.6533 10.533C13.6535 10.9176 13.5074 11.2879 13.2446 11.5688C13.4114 11.4404 13.6362 11.417 13.8259 11.5082C14.0156 11.5993 14.1377 11.7896 14.1416 12C14.1418 12.1226 14.1003 12.2416 14.0238 12.3375C14.2998 12.087 14.6688 11.934 15.0738 11.934C15.4788 11.934 15.8463 12.087 16.1238 12.3375C16.0472 12.2417 16.0054 12.1227 16.0053 12C15.7973 11.8399 15.7292 11.5564 15.8418 11.3193C15.9545 11.0822 16.2173 10.9558 16.4728 11.0159C16.7283 11.076 16.9072 11.3063 16.9023 11.5688C16.6397 11.2878 16.4936 10.9176 16.4936 10.533C16.4936 9.68625 17.1888 9 18.0468 9C18.9048 9 19.6001 9.68625 19.6001 10.533C19.6001 11.3798 18.9048 12.066 18.0468 12.066C17.6418 12.066 17.2736 11.913 16.9968 11.6625C17.0733 11.7584 17.1148 11.8774 17.1146 12C17.1146 12.3023 16.8671 12.5475 16.5596 12.5475C16.4361 12.5476 16.3161 12.5067 16.2183 12.4313H16.2176Z" fill="white"/>
</svg>
