<svg width="24" height="24" viewBox="0 0 24 24" fill="none" xmlns="http://www.w3.org/2000/svg">
<circle cx="12" cy="12" r="12" fill="#EDF0F4"/>
<path fill-rule="evenodd" clip-rule="evenodd" d="M4 12C4 16.4115 7.58848 20 12 20C16.4115 20 20 16.4115 20 12C20 7.58848 16.4115 4 12 4C7.58848 4 4 7.58848 4 12ZM5.29541 12C5.29541 8.30145 8.3015 5.29537 12.0001 5.29537C15.6986 5.29537 18.7047 8.30145 18.7047 12C18.7047 15.6986 15.6986 18.7047 12.0001 18.7047C8.3015 18.7047 5.29541 15.6986 5.29541 12Z" fill="#E6201A"/>
<path d="M15.7377 9.3184C15.4529 8.65792 14.8308 8.2432 14.1121 8.2432L9.87528 8.20416H9.86248C9.16296 8.20416 8.54728 8.59904 8.26888 9.24032C7.97768 9.8944 8.10056 10.633 8.59272 11.1578L9.17576 11.7862L10.057 10.8339L9.54504 10.2771C9.34408 10.057 9.42216 9.8304 9.45416 9.75872C9.4868 9.68128 9.60328 9.49312 9.86248 9.49312H9.86888L14.105 9.53216C14.3962 9.53216 14.5198 9.75872 14.5518 9.8304C14.5908 9.91488 14.6554 10.135 14.4743 10.329L12.3758 12.6093C12.2593 12.7322 12.1166 12.752 12.0455 12.752C11.9092 12.752 11.7799 12.6938 11.689 12.5901L11.3326 12.208L10.4513 13.1603L10.7361 13.465C11.0727 13.8278 11.5521 14.0416 12.0449 14.0416C12.5306 14.0416 13.0036 13.8342 13.3274 13.4778L15.426 11.1974C15.8996 10.6912 16.0161 9.96608 15.7377 9.3184Z" fill="#E6201A"/>
<path d="M15.4914 12.7258L14.8955 12.0781L13.8786 13.1795L14.3906 13.7363C14.5269 13.8855 14.4878 14.0474 14.4488 14.1312C14.4232 14.1895 14.3259 14.3706 14.0923 14.3706L9.85616 14.4096C9.6424 14.4096 9.55792 14.2669 9.53232 14.2023C9.49968 14.1376 9.44784 13.9629 9.60336 13.7939L11.741 11.4816C11.8184 11.3971 11.9157 11.3523 12.0258 11.3523C12.084 11.3523 12.1941 11.3651 12.285 11.4624L12.7253 11.9418L13.7422 10.8403L13.3858 10.4519C13.0357 10.0762 12.5435 9.85602 12.0322 9.85602C11.5074 9.85602 11.0088 10.0762 10.6523 10.4647L8.51472 12.777C7.99632 13.3338 7.86704 14.1114 8.17168 14.8045C8.46992 15.4784 9.1176 15.8995 9.85616 15.8995L14.1058 15.8605C14.8571 15.8541 15.5176 15.4202 15.8158 14.7207C16.1198 14.0339 15.997 13.2698 15.4914 12.7258Z" fill="#E6201A"/>
</svg>
