<svg width="24" height="24" viewBox="0 0 24 24" fill="none" xmlns="http://www.w3.org/2000/svg">
<circle cx="12" cy="12" r="12" fill="#C87035"/>
<path fill-rule="evenodd" clip-rule="evenodd" d="M12.0943 20.2C7.51039 20.197 3.80029 16.4801 3.80029 11.8895C3.80029 7.30863 7.52171 3.59702 12.1116 3.60004C16.6879 3.60306 20.4063 7.32296 20.4003 11.9015C20.3912 16.4303 16.7513 20.194 12.0943 20.2ZM8.7116 15.6954L8.72258 15.6745C8.74085 15.6396 8.75592 15.6108 8.77046 15.5868C9.51293 14.2769 10.2569 12.9685 11.0009 11.6616C11.6528 10.5162 12.3032 9.36931 12.9514 8.2224C12.9699 8.17716 13.016 8.14952 13.0646 8.15449C13.8221 8.15826 14.5827 8.15826 15.3395 8.15826H15.4474L15.1098 8.75418C14.1718 10.4094 13.2386 12.0563 12.2987 13.7117C12.3364 13.7147 12.3576 13.7147 12.3779 13.7147C14.2786 13.7147 16.1778 13.7155 18.0763 13.7178C18.1404 13.7178 18.1608 13.6944 18.1751 13.6385C18.4628 12.6237 18.49 11.5527 18.2543 10.5245C17.9706 9.27952 17.3481 8.22843 16.4298 7.34939C16.0178 6.95655 15.55 6.62678 15.0415 6.37074C13.7784 5.72636 12.4481 5.52188 11.0537 5.76711C9.66535 6.01384 8.4958 6.66954 7.53678 7.70629C7.45189 7.79778 7.37249 7.89372 7.29303 7.98973L7.29302 7.98974C7.25452 8.03625 7.21601 8.08279 7.17686 8.12883C7.17846 8.13324 7.18092 8.13723 7.18332 8.14113L7.18332 8.14113C7.18544 8.14457 7.18752 8.14794 7.18893 8.15147H12.6066L12.5849 8.19235L12.5849 8.19237C12.5657 8.22895 12.55 8.25874 12.5326 8.28729C12.4035 8.5166 12.2737 8.74544 12.1439 8.97423L12.1437 8.97449C11.9421 9.32982 11.7406 9.68501 11.5419 10.0416C11.5154 10.1007 11.4539 10.1361 11.3895 10.1291C9.6827 10.1261 7.97592 10.1254 6.27065 10.1261H6.16803C5.30332 12.8447 6.52493 16.2545 9.58914 17.6188C12.556 18.9437 15.667 17.7244 17.1255 15.6894C14.3224 15.6947 11.5178 15.6969 8.71236 15.6947L8.7116 15.6954ZM20.1806 11.7227C20.2394 14.0339 19.3038 15.958 18.2512 17.1275L17.1639 16.0198C19.1582 13.5532 19.0752 10.1178 17.1435 7.79453C17.3565 7.57942 17.5704 7.3643 17.7865 7.147C17.9441 6.98853 18.1029 6.82889 18.2633 6.66724C19.4819 8.14615 20.1338 9.81898 20.1806 11.7227Z" fill="white"/>
</svg>
