<svg width="24" height="24" viewBox="0 0 24 24" fill="none" xmlns="http://www.w3.org/2000/svg">
<circle cx="12" cy="12" r="12" fill="#EDF0F4"/>
<path fill-rule="evenodd" clip-rule="evenodd" d="M8.1088 21.2142C9.3418 21.7352 10.6511 22 12.0011 22C13.3514 22 14.66 21.7352 15.8934 21.21C18.2902 20.1939 20.1982 18.2858 21.2142 15.889C21.7352 14.656 22 13.3467 22 11.9967C22.0035 7.97678 19.5972 4.34636 15.8934 2.7837C14.66 2.2627 13.347 2 11.9989 2C7.97894 1.99647 4.34847 4.4028 2.7858 8.1066C2.2648 9.34 2 10.6486 2 11.9989C2 13.3492 2.2648 14.6582 2.788 15.8934C3.80408 18.2902 5.71203 20.1981 8.1088 21.2142ZM6.50004 6.49799C7.96964 5.03079 9.92344 4.22079 12.0009 4.22079L12.0007 4.22099C14.0782 4.22099 16.0316 5.03069 17.5016 6.49819C18.9688 7.96779 19.7788 9.92159 19.7788 11.9991C19.7788 14.0766 18.9691 16.03 17.5016 17.5C16.032 18.9672 14.0782 19.7772 12.0007 19.7772C9.92324 19.7772 7.96984 18.9675 6.49984 17.5C5.03254 16.03 4.22284 14.0764 4.22284 11.9989C4.22284 9.92139 5.03004 7.96799 6.50004 6.49799Z" fill="black"/>
<path d="M11.4003 14.4889H15.7333V16.6663H13.0653C13.1087 17.2893 13.1326 17.8663 13.176 18.4876H10.9312V16.6876H8.26315C8.26315 15.9756 8.17415 15.2657 8.30655 14.5992C8.37385 14.2432 8.77325 13.9328 9.01855 13.6223C9.86305 12.6215 10.7075 11.6447 11.5737 10.6439C11.908 10.2662 12.2401 9.91019 12.6179 9.48899H8.46285V7.31209H10.929V5.49069H13.0846V7.26859H15.7746C15.7746 8.00229 15.8636 8.71219 15.7312 9.38079C15.6639 9.73679 15.2645 10.0472 14.9975 10.3577C14.153 11.3585 13.3086 12.3353 12.4424 13.3361C12.1124 13.7334 11.7803 14.0872 11.4004 14.4888" fill="black"/>
</svg>
