<svg width="24" height="24" viewBox="0 0 24 24" fill="none" xmlns="http://www.w3.org/2000/svg">
<circle cx="12" cy="12" r="12" fill="#EDF0F4"/>
<path d="M15.9813 11.9884C15.1818 11.8194 12.4782 11.3547 9.60567 12.8223C7.17903 14.063 5.9837 15.9905 5.56127 16.7587C3.16748 13.4747 3.5774 8.91712 6.44056 6.18382C9.16916 3.57725 13.4655 3.25652 16.6306 5.4782C15.9531 5.91941 15.2741 6.35905 14.5966 6.80026C14.1664 6.58122 13.4655 6.28865 12.5627 6.1979C10.7666 6.01641 9.41792 6.75332 8.98767 7.01148C8.62156 7.23208 6.86142 8.34605 6.31226 10.6178C5.94146 12.1526 6.31539 13.4199 6.50001 13.9394C6.71592 13.6734 6.98659 13.3777 7.32141 13.082C7.56079 12.8708 7.79547 12.6924 8.01138 12.5438C7.95818 12.126 7.89717 11.167 8.40878 10.1688C9.05025 8.91868 10.413 7.95178 12.0214 7.96586C13.7878 7.98151 15.163 9.17683 15.6981 10.4692C15.95 11.0747 15.9875 11.6316 15.9813 11.9884Z" fill="#041742"/>
<path fill-rule="evenodd" clip-rule="evenodd" d="M15.9186 18.9788C14.3509 19.866 12.8223 20.0146 11.8586 19.9989C9.55551 19.963 7.92523 18.9444 7.30566 18.5095C7.64996 18.2849 7.99426 18.0607 8.33855 17.8365C8.68267 17.6125 9.02678 17.3884 9.37089 17.1639C11.6082 18.3014 14.3415 17.8664 16.1142 16.0922C17.8853 14.3196 18.3186 11.5925 17.1859 9.35676C17.4058 9.01953 17.6252 8.68191 17.8447 8.34429C18.0641 8.0068 18.2835 7.66931 18.5033 7.33221C18.9116 7.90797 20.0287 9.63995 19.9927 12.1026C19.9521 14.8734 18.4767 16.7165 18.0464 17.2187C17.6318 17.7053 16.9418 18.4 15.9186 18.9788ZM11.4219 12.8379C10.2266 13.1852 9.31132 13.7563 8.68236 14.2476C8.88263 14.548 9.352 15.1613 10.1922 15.5853C10.94 15.9623 11.6253 16.0077 11.982 16.0077C12.32 16.0093 13.434 15.9702 14.4713 15.155C15.6165 14.2554 15.8778 13.0303 15.9341 12.7221C15.4272 12.6157 14.731 12.5093 13.9002 12.5109C13.4136 12.5125 12.514 12.5203 11.4219 12.8379Z" fill="url(#paint0_linear_300_8978)"/>
<defs>
<linearGradient id="paint0_linear_300_8978" x1="14.9731" y1="25.1813" x2="25.4688" y2="14.0412" gradientUnits="userSpaceOnUse">
<stop stop-color="#0E9DE5"/>
<stop offset="0.1857" stop-color="#10A3DC"/>
<stop offset="0.4884" stop-color="#17B4C4"/>
<stop offset="0.8684" stop-color="#22D09C"/>
<stop offset="1" stop-color="#26DB8D"/>
</linearGradient>
</defs>
</svg>
