<svg width="24" height="24" viewBox="0 0 24 24" fill="none" xmlns="http://www.w3.org/2000/svg">
<circle cx="12" cy="12" r="12" fill="#EDF0F4"/>
<path fill-rule="evenodd" clip-rule="evenodd" d="M12.0806 5.20184C12.066 5.25684 11.7198 6.47184 11.3108 7.90184L10.5674 10.469H7.70003C6.12302 10.451 4.91022 10.3834 5.00522 10.469C5.10022 10.5546 6.07802 11.3582 7.17803 12.1048C8.27803 12.8512 9.25523 13.5302 9.34963 13.6136C9.44423 13.697 9.09903 14.9058 8.58263 16.2998C8.06643 17.6938 7.67763 18.8682 7.71903 18.9094C7.76023 18.9506 8.75603 18.217 9.93163 17.2788L12.0692 15.5732L13.7944 16.9376C16.3748 18.9782 16.478 19.0514 16.478 18.838C16.478 18.7296 16.0732 17.5744 15.5784 16.2712C15.0836 14.968 14.6786 13.8466 14.6784 13.7792C14.6782 13.7116 15.6718 12.9992 16.8866 12.1962C18.1014 11.393 19.1344 10.5466 19.1824 10.469C19.2304 10.3914 17.9958 10.4558 16.439 10.469H13.6084L12.8576 7.80184C12.4446 6.31684 12.095 5.14684 12.0806 5.20184Z" fill="black"/>
</svg>
