<svg width="24" height="24" viewBox="0 0 24 24" fill="none" xmlns="http://www.w3.org/2000/svg">
<circle cx="12" cy="12" r="12" fill="#E7EFF3"/>
<path d="M17.5576 10.6087L15.3241 11.6046L9.39904 14.6204L15.3241 17.4692V12.7604L17.5576 11.7539V18.7104L15.3241 19.7062L6.6001 15.5309V13.3117L12.639 10.3491L6.6001 7.44704V5.19579L8.86913 4.19998L17.5576 8.38239V10.6087Z" fill="#49C1BF"/>
<path d="M6.6001 5.19579L15.3241 9.37821L17.5576 8.38239L8.86913 4.19998L6.6001 5.19579Z" fill="#077A8F"/>
<path d="M15.3242 9.3688L17.5577 8.37299V10.5993L15.3242 11.5952V9.3688V9.3688Z" fill="#298E97"/>
<path d="M6.6001 5.19778V7.44903L12.639 10.3511L6.6001 13.3137V15.5329L15.3241 19.7082V17.4747L9.39904 14.6224L15.3241 11.6066V9.3802L6.6001 5.19778Z" fill="#49C1BF"/>
<path d="M15.3242 19.6916L17.5577 18.6958V11.7393L15.3242 12.7458V19.6916Z" fill="#298E97"/>
</svg>
