<svg width="24" height="24" viewBox="0 0 24 24" fill="none" xmlns="http://www.w3.org/2000/svg">
<circle cx="12" cy="12" r="12" fill="#5A11A8"/>
<path fill-rule="evenodd" clip-rule="evenodd" d="M17.8304 8.12579L15.2093 10.6052C14.8551 9.89683 14.2883 9.18841 13.5091 8.83421L14.8551 7.55906C12.8715 6.21307 10.2504 6.35476 8.47934 7.91327L8.4085 7.98411C8.4085 7.98411 8.33766 7.98411 8.33766 8.05495C7.84177 8.48 7.06252 8.40916 6.63746 7.91327C6.49579 7.70074 6.3541 7.41738 6.3541 7.20485C6.3541 6.85065 6.49579 6.49644 6.77915 6.28391C8.19597 5.00877 10.0379 4.30035 11.8797 4.30035C14.1467 4.30035 16.2719 5.22129 17.7596 6.99233C17.9013 7.13401 17.9721 7.34654 17.9721 7.55906C18.0429 7.84243 17.9721 7.98411 17.8304 8.12579ZM7.48768 14.7849L8.83366 13.5098C9.18787 14.2182 9.7546 14.9266 10.5339 15.2808L9.18787 16.556C11.2423 17.8311 13.9342 17.406 15.6344 15.7767C16.0595 15.2808 16.8387 15.1391 17.4055 15.5642C17.6888 15.7767 17.8305 16.1309 17.8305 16.4851C17.8305 16.8393 17.6888 17.1935 17.4055 17.406C14.4301 20.4522 9.47123 20.4522 6.49589 17.4769C6.42505 17.406 6.28337 17.2644 6.21253 17.1227C6.07084 16.981 6 16.7685 6 16.6268C6 16.3434 6.14168 16.0601 6.42505 15.8475L7.48768 14.7849ZM14.5721 12.0929C14.5721 10.7469 13.4386 9.54263 12.0218 9.54263C10.5341 9.54263 9.47149 10.7469 9.47149 12.0929C9.47149 13.4389 10.6758 14.6432 12.0218 14.6432C13.3678 14.6432 14.5721 13.4389 14.5721 12.0929Z" fill="white"/>
</svg>
