<svg width="24" height="24" viewBox="0 0 24 24" fill="none" xmlns="http://www.w3.org/2000/svg">
<circle cx="12" cy="12" r="12" fill="#EDF0F4"/>
<ellipse cx="12.0002" cy="12.1" rx="7.8" ry="7.9" fill="white"/>
<path fill-rule="evenodd" clip-rule="evenodd" d="M12.1285 20C16.4325 20 20.0002 16.445 20.0002 12.1C20.0002 7.75501 16.4325 4.2 12.0719 4.2C7.76794 4.2 4.2002 7.69858 4.2002 12.1C4.2002 16.445 7.76794 20 12.1285 20ZM5.10625 12.1C5.10625 8.31929 8.27758 5.10286 12.0718 5.10286C15.8661 5.10286 19.0941 8.26286 19.0374 12.1C19.0374 15.8807 15.8661 19.0407 12.0718 19.0407C8.27758 19.0407 5.10625 15.8807 5.10625 12.1Z" fill="#F9C910"/>
<path d="M7.03162 14.9214C6.01226 13.1721 6.01226 10.6893 7.20151 8.88358L9.18359 10.8586C9.18359 10.8586 8.8438 11.6486 9.0137 12.495L8.33413 13.285C7.93771 12.2129 8.22086 11.0279 8.22086 11.0279L7.48466 10.4071C6.74846 12.495 7.65455 14.1879 7.65455 14.1879L7.03162 14.9214Z" fill="#F9C910"/>
<path d="M17.1686 9.16572C18.1879 10.915 18.1879 13.3979 16.9987 15.2036L15.0166 13.2286C15.0166 13.2286 15.3564 12.4386 15.1865 11.5921L15.8661 10.8021C16.2625 11.8743 15.9793 13.0593 15.9793 13.0593L16.7155 13.7929C17.4517 11.705 16.5456 10.0121 16.5456 10.0121L17.1686 9.16572Z" fill="#F9C910"/>
<path fill-rule="evenodd" clip-rule="evenodd" d="M11.2791 15.0907L16.7157 8.43214C14.6203 5.61071 9.86336 5.49786 7.71139 8.20643L9.5802 10.125C10.9393 8.31928 12.9214 8.99643 12.9214 8.99643L7.48486 15.655C10.2598 18.9843 14.7902 18.0814 16.4892 15.8243L14.6203 13.9621C13.1479 15.7679 11.2791 15.0907 11.2791 15.0907ZM9.58006 8.88357L8.95712 8.26286C11.1657 6.45714 14.0539 7.02143 15.5263 8.545L9.86321 15.4293C9.86321 15.4293 12.0152 17.0657 14.6202 15.2036L15.2431 15.8243C13.5442 17.3479 10.656 17.4607 8.67397 15.5986L14.2804 8.71429C14.2804 8.71429 12.0152 7.07786 9.58006 8.88357Z" fill="#ED1C24"/>
</svg>
