<svg width="24" height="24" viewBox="0 0 24 24" fill="none" xmlns="http://www.w3.org/2000/svg">
<path fill-rule="evenodd" clip-rule="evenodd" d="M12 24C5.4 24 0 18.6001 0 11.9402C0.06 5.34038 5.4 -0.0595036 12.06 0.000495204C18.66 0.060494 24 5.40038 24 12.1202C23.94 18.6601 18.6 24 12 24Z" fill="#01FF65"/>
<path fill-rule="evenodd" clip-rule="evenodd" d="M7.39992 5.68512V6.57025L10.2982 6.57075C13.0272 6.57123 13.1951 6.57221 13.1733 6.58759C13.1605 6.59657 11.8574 7.40327 10.2774 8.38026L7.40473 10.1566L7.40232 14.6892L7.3999 19.2217H8.18882H8.97775V16.9656C8.97775 15.7248 8.97993 14.7095 8.9826 14.7095C8.98528 14.7095 10.3018 15.7248 11.9083 16.9657L14.8291 19.2218L15.6291 19.2194L16.4291 19.2169V14.8105V10.4042L13.4077 10.3994L10.3863 10.3945L13.31 8.53291C14.9181 7.50901 16.2788 6.64219 16.3339 6.60665L16.434 6.54205L16.4316 5.67343L16.4291 4.80482L11.9145 4.8024L7.39992 4.79999V5.68512ZM14.822 14.0962C14.8257 15.1611 14.8273 16.2197 14.8256 16.4486L14.8226 16.8648L11.9074 14.5211C10.3041 13.2321 8.98818 12.1735 8.98316 12.1687C8.9777 12.1635 10.1483 12.16 11.8947 12.16H14.8154L14.822 14.0962Z" fill="black"/>
</svg>
