<svg width="24" height="24" viewBox="0 0 24 24" fill="none" xmlns="http://www.w3.org/2000/svg">
<circle cx="12" cy="12" r="12" fill="#E7EFF3"/>
<path fill-rule="evenodd" clip-rule="evenodd" d="M16.5035 4.29312C15.8529 4.76005 15.2023 5.22698 14.5517 5.67361C13.6759 6.29371 12.8001 6.92626 11.9341 7.55176L11.9339 7.55193C11.6942 7.72503 11.4553 7.89758 11.2174 8.06918C11.0751 8.17068 10.9734 8.19098 10.8514 8.04887C10.6685 7.85602 10.4804 7.67331 10.2924 7.4906L10.2923 7.49059C10.1043 7.30787 9.91621 7.12516 9.73323 6.9323C9.63157 6.83079 9.52992 6.81049 9.3876 6.87139C8.51336 7.31802 7.8221 7.94737 7.25283 8.73912C7.21217 8.77972 7.17151 8.84063 7.13085 8.90153L7.13085 8.90153C6.99625 8.72514 6.86514 8.5557 6.73607 8.38889L6.73606 8.38888C6.55318 8.15253 6.3744 7.92148 6.19562 7.68345C6.00806 7.43765 5.82727 7.19185 5.64934 6.94994C5.51866 6.77227 5.38952 6.5967 5.26038 6.42476C5.15873 6.28265 5.1384 6.18115 5.28071 6.03904C6.84621 4.31342 8.77767 3.29835 11.0954 3.05473C12.9252 2.85172 14.6737 3.21714 16.3002 4.0901C16.3307 4.1104 16.3612 4.12563 16.3917 4.14086C16.4222 4.15608 16.4527 4.17131 16.4832 4.19161C16.4832 4.25251 16.4832 4.27281 16.5035 4.29312ZM8.4284 17.2713C8.58884 17.1506 8.75226 17.0277 8.92011 16.9003C8.87705 16.8716 8.83906 16.8455 8.80345 16.821L8.80316 16.8208L8.80306 16.8207C8.73795 16.7759 8.68078 16.7366 8.61514 16.6973C7.88322 16.1491 7.29362 15.4792 6.86666 14.6671C6.78534 14.525 6.80567 14.4235 6.92766 14.3017C7.35461 13.8957 7.76123 13.4694 8.16784 13.043L8.16786 13.043C8.19762 13.0133 8.21649 12.9836 8.24042 12.9459L8.24044 12.9459C8.2492 12.9321 8.25862 12.9172 8.26951 12.9009C7.59858 12.0178 6.92257 11.1347 6.24657 10.2516C5.57056 9.36847 4.89455 8.48536 4.22362 7.60225C4.21171 7.60819 4.20154 7.6124 4.19312 7.61588C4.17279 7.62429 4.16263 7.6285 4.16263 7.64285C4.15246 7.66315 4.13721 7.68853 4.12197 7.7139L4.12196 7.71391C4.10672 7.73928 4.09147 7.76466 4.0813 7.78496C3.10541 9.63239 2.78011 11.5813 3.14607 13.6318C3.51203 15.6619 4.48792 17.3672 6.03309 18.7477C6.19574 18.8898 6.29739 18.8898 6.43971 18.768C6.61252 18.6361 6.78533 18.5092 6.95814 18.3823C7.13096 18.2554 7.30378 18.1285 7.4766 17.9966C7.78979 17.7518 8.10299 17.5162 8.4284 17.2713ZM18.9028 17.7732C18.2318 16.8799 17.5609 15.9867 16.9103 15.1137C16.8798 15.134 16.8595 15.1442 16.8493 15.1492L16.8493 15.1493C16.8441 15.1519 16.8415 15.1531 16.8417 15.1537C16.8418 15.1543 16.8444 15.1543 16.8493 15.1543C16.8391 15.1746 16.8239 15.1949 16.8086 15.2152C16.7934 15.2355 16.7782 15.2558 16.768 15.2761C16.28 15.9867 15.6498 16.5754 14.8975 17.0017C14.8426 17.0322 14.7948 17.0595 14.7528 17.0834L14.7526 17.0835C14.5873 17.1776 14.5123 17.2203 14.4479 17.2079C14.3944 17.1976 14.3483 17.1492 14.2637 17.0606L14.2637 17.0606C14.2177 17.0124 14.1604 16.9523 14.0843 16.8799C13.8886 16.6948 13.6929 16.5045 13.4946 16.3116L13.4946 16.3116L13.4946 16.3116C13.3014 16.1237 13.1057 15.9334 12.9051 15.7431C11.8156 16.5498 10.7335 17.3566 9.64544 18.1677L9.64508 18.168L9.64455 18.1684C8.9258 18.7042 8.20445 19.242 7.47667 19.783C9.53011 20.9199 11.6445 21.265 13.881 20.7981C15.8937 20.3718 17.5609 19.3567 18.9028 17.7732ZM18.6182 14.9107C19.0045 15.4183 19.3907 15.9258 19.8177 16.4739C19.8787 16.3318 19.9397 16.2303 20.0007 16.1491C20.6919 14.7889 21.0376 13.3475 20.9969 11.8249C20.8952 9.20603 19.8584 7.03378 17.9269 5.28786C17.7846 5.14576 17.6829 5.18636 17.5609 5.28786C17.1746 5.58224 16.7884 5.87153 16.4021 6.16083C16.0158 6.45012 15.6295 6.73942 15.2432 7.03378C15.2249 7.05204 15.2025 7.07029 15.1779 7.09038C15.1477 7.11499 15.1141 7.14237 15.0805 7.17589C15.1327 7.20193 15.1765 7.2363 15.2172 7.26832C15.2401 7.28624 15.262 7.30343 15.2839 7.318C16.0768 7.88644 16.6867 8.59699 17.134 9.44965C17.2153 9.59176 17.1747 9.69327 17.073 9.79477C16.8799 9.98764 16.6918 10.1805 16.5037 10.3734C16.3157 10.5662 16.1276 10.7591 15.9345 10.952C15.7921 11.0941 15.7921 11.1956 15.9141 11.358C16.5539 12.1813 17.1837 13.0146 17.8105 13.844C18.0801 14.2007 18.3491 14.5566 18.6182 14.9107Z" fill="#231815"/>
</svg>
